<?xml version="1.0" encoding="utf-8"?>
<!-- Generator: Adobe Illustrator 10.0, SVG Export Plug-In . SVG Version: 3.0.0 Build 76)  -->
<!DOCTYPE svg PUBLIC "-//W3C//DTD SVG 1.0//EN"    "http://www.w3.org/TR/2001/REC-SVG-20010904/DTD/svg10.dtd" [
	<!ENTITY ns_flows "http://ns.adobe.com/Flows/1.0/">
	<!ENTITY ns_extend "http://ns.adobe.com/Extensibility/1.0/">
	<!ENTITY ns_ai "http://ns.adobe.com/AdobeIllustrator/10.0/">
	<!ENTITY ns_svg "http://www.w3.org/2000/svg">
	<!ENTITY ns_xlink "http://www.w3.org/1999/xlink">
]>
<svg  xmlns:x="&ns_extend;" xmlns:i="&ns_ai;" xmlns:graph="&ns_graphs;"
	 xmlns="&ns_svg;" xmlns:xlink="&ns_xlink;" xmlns:a="http://ns.adobe.com/AdobeSVGViewerExtensions/3.0/" width="432" height="78"
	 viewBox="-0.133 0.32 432 78" overflow="visible" enable-background="new -0.133 0.32 432 78" xml:space="preserve">
	<g id="Layer_1_2_">
		<g>
			<path d="M255.835,14.152c2.04,0.024,3.144,1.416,2.52,3.12c-0.624,1.728-2.784,3.096-4.8,3.072
				c-0.984-0.024-1.776-0.384-2.232-0.936v19.08h-0.456c0-24.216,0-20.4,0-20.4c0-0.288,0.072-0.576,0.192-0.888
				C251.683,15.472,253.819,14.128,255.835,14.152z"/>
		</g>
		<g>
			<path d="M216.835,14.152c2.04,0.024,3.144,1.416,2.52,3.12c-0.624,1.728-2.784,3.096-4.8,3.072
				c-0.984-0.024-1.776-0.384-2.232-0.936v19.08h-0.456c0-24.216,0-20.4,0-20.4c0-0.288,0.072-0.576,0.192-0.888
				C212.683,15.472,214.819,14.128,216.835,14.152z"/>
		</g>
		<g>
			<path d="M186.835,14.152c2.04,0.024,3.144,1.416,2.52,3.12c-0.624,1.728-2.784,3.096-4.8,3.072
				c-0.984-0.024-1.776-0.384-2.232-0.936v19.08h-0.456c0-24.216,0-20.4,0-20.4c0-0.288,0.072-0.576,0.192-0.888
				C182.683,15.472,184.819,14.128,186.835,14.152z"/>
		</g>
		<g>
			<path d="M132.835,14.152c2.04,0.024,3.144,1.416,2.52,3.12c-0.624,1.728-2.784,3.096-4.8,3.072
				c-0.984-0.024-1.776-0.384-2.232-0.936v19.08h-0.456c0-24.216,0-20.4,0-20.4c0-0.288,0.072-0.576,0.192-0.888
				C128.683,15.472,130.819,14.128,132.835,14.152z"/>
		</g>
		<g>
			<path d="M368.107,32.602c0.456-1.248,1.488-2.256,2.256-2.64c0.768-0.36,1.752-0.552,2.88-0.456
				c0.576,0.048,1.584,0.216,2.16,0.816V11.098h0.456v20.496c0,0.096-0.024,0.168-0.024,0.24c-0.048,0.432-0.168,0.792-0.264,1.032
				c-0.456,1.248-1.44,2.088-2.184,2.52s-1.872,0.744-3.24,0.6c-0.528-0.072-1.68-0.168-2.16-1.032
				C367.603,34.306,367.938,33.083,368.107,32.602z M370.987,34.618c0.552-0.288,0.96-0.528,1.464-0.792
				c0.48-0.288,0.912-0.552,1.44-0.888c0.72-0.456,1.656-1.248,1.176-2.064c-0.48-0.816-1.656-0.408-2.4-0.048
				c-0.576,0.288-1.032,0.528-1.512,0.816c-0.48,0.264-0.912,0.504-1.416,0.84c-0.72,0.456-1.656,1.272-1.152,2.088
				C369.042,35.386,370.219,34.979,370.987,34.618z"/>
		</g>
		<g>
			<path d="M294.44,32.602c0.456-1.248,1.488-2.256,2.256-2.64c0.768-0.36,1.752-0.552,2.88-0.456
				c0.576,0.048,1.584,0.216,2.16,0.816V11.098h0.456v20.496c0,0.096-0.024,0.168-0.024,0.24c-0.048,0.432-0.168,0.792-0.264,1.032
				c-0.456,1.248-1.44,2.088-2.184,2.52s-1.872,0.744-3.24,0.6c-0.528-0.072-1.68-0.168-2.16-1.032
				C293.936,34.306,294.272,33.083,294.44,32.602z M297.32,34.618c0.552-0.288,0.96-0.528,1.464-0.792
				c0.48-0.288,0.912-0.552,1.44-0.888c0.72-0.456,1.656-1.248,1.176-2.064c-0.48-0.816-1.656-0.408-2.4-0.048
				c-0.576,0.288-1.032,0.528-1.512,0.816c-0.48,0.264-0.912,0.504-1.416,0.84c-0.72,0.456-1.656,1.272-1.152,2.088
				C295.376,35.386,296.552,34.979,297.32,34.618z"/>
		</g>
		<g>
			<path fill="none" stroke="#000000" d="M0.116,10.485h430.742"/>
			<path fill="none" stroke="#000000" d="M0.116,25.597h430.742"/>
			<path fill="none" stroke="#000000" d="M0.33,32.72h430.743"/>
			<path fill="none" stroke="#000000" d="M0,40.104h430.743"/>
			<path fill="none" stroke="#000000" d="M0,17.739h430.743"/>
		</g>
		<path fill="none" stroke="#0A0A0A" d="M170.9,9.635v29.746"/>
		<g>
			<path d="M307.954,32.21c-0.713,0-1.217-0.536-1.217-1.25s0.524-1.25,1.259-1.25s1.238,0.516,1.238,1.25
				c0,0.714-0.503,1.25-1.259,1.25H307.954z"/>
		</g>
		<g>
			<path d="M44.282,23.44c-0.672,0-2.424-0.624-3.168-1.656c-0.576-0.792-1.272-2.088-1.296-3.84
				c-0.048-2.136,0.96-4.152,1.704-4.896c1.008-0.984,1.824-1.416,3.504-1.416c1.296,0,3.336,0.816,3.36,2.376
				c0.024,0.696-0.384,1.728-1.392,1.728c-1.464,0-1.944-1.344-1.776-1.848c0.264-0.84,0.504-0.408,0.528-1.128
				c0.024-0.216-0.408-0.576-0.888-0.576c-0.792,0-1.488,0.432-1.752,2.04c-0.12,0.648-0.432,2.064-0.36,3.216
				c1.128-0.792,1.896-0.888,3.24-0.888c1.656,0,2.88,1.584,2.88,3C48.842,22.096,46.586,23.44,44.282,23.44z M44.354,22.864
				c1.296,0,1.68-2.136,1.632-3.192c-0.024-0.576-0.408-2.16-1.68-1.992c-1.416,0.168-1.392,2.184-1.392,2.736
				C42.914,20.992,43.298,22.864,44.354,22.864z"/>
		</g>
		<g>
			<path d="M44.664,38.986c-1.896,0-4.44-0.864-4.44-3.096c0-1.536,1.128-2.544,1.776-2.808c-1.2-0.672-1.536-1.776-1.536-2.76
				c0-2.28,2.016-3.192,4.2-3.216c3.192,0,4.08,1.392,4.128,2.976c0.024,0.888-0.432,1.728-1.152,2.328
				c0.864,0.432,1.584,1.296,1.584,2.568C49.224,37.426,46.728,38.986,44.664,38.986z M42.72,33.539
				c-0.792,0.48-1.272,0.912-1.248,1.92c0.024,1.608,0.72,2.76,2.928,2.76c0.72,0,2.376-0.792,2.376-1.944
				C46.776,34.378,43.704,33.707,42.72,33.539z M44.688,27.706c-1.176,0-2.448,0.672-2.256,1.68c0.192,1.008,3.384,2.16,4.392,2.496
				c0.408-0.432,0.84-1.152,0.792-1.8C47.52,28.858,46.872,27.706,44.688,27.706z"/>
		</g>
		<g>
			<path fill="#FF0000" d="M189.624,7.344h-2.112l-1.344-2.952l-1.344,2.928H184.2l2.568-5.952L189.624,7.344z"/>
		</g>
		<g>
			<path fill="#FF0000" d="M74.224,6.336l7.224-2.688L74.224,0.96V0l9.528,3.648l-9.528,3.648V6.336z"/>
		</g>
		<path fill="none" stroke="#000000" stroke-width="3" d="M71.867,38.32h31"/>
		<path fill="none" stroke="#0A0A0A" d="M277.9,10.635v29.746"/>
		<path fill="none" stroke="#0A0A0A" d="M351.9,9.635v29.746"/>
		<g>
			<path fill="#FF0000" d="M128.224,6.336l7.224-2.688l-7.224-2.688V0l9.528,3.648l-9.528,3.648V6.336z"/>
		</g>
		<g>
			<path fill="#FF0000" d="M219.624,7.344h-2.112l-1.344-2.952l-1.344,2.928H214.2l2.568-5.952L219.624,7.344z"/>
		</g>
		<g>
			<path fill="#FF0000" d="M258.624,7.344h-2.112l-1.344-2.952l-1.344,2.928H253.2l2.568-5.952L258.624,7.344z"/>
		</g>
		<g>
			<path d="M379.954,32.21c-0.713,0-1.217-0.536-1.217-1.25s0.524-1.25,1.259-1.25s1.238,0.516,1.238,1.25
				c0,0.714-0.503,1.25-1.259,1.25H379.954z"/>
		</g>
		<path fill="none" stroke="#0A0A0A" d="M430.9,9.635v29.746"/>
		<g>
			<path fill="#FF0000" d="M293.139,56.696c0-1.044,0.996-1.548,1.92-1.548c0.588,0,1.44,0.204,1.44,0.948
				c0,0.288-0.216,0.504-0.504,0.504c-0.36,0-0.504-0.324-0.516-0.624c-0.012-0.288-0.096-0.42-0.42-0.42
				c-0.384,0-0.648,0.192-0.648,0.564c0,0.444,0.372,0.768,0.648,1.044c0.468,0.48,0.864,0.96,0.864,1.668
				c0,1.032-1.056,1.644-1.98,1.644c-0.672,0-1.62-0.324-1.62-1.152c0-0.324,0.192-0.564,0.528-0.564c0.3,0,0.552,0.204,0.552,0.528
				l-0.012,0.204l-0.012,0.192c0,0.264,0.276,0.384,0.492,0.384c0.408,0,0.72-0.348,0.72-0.744c0-0.408-0.228-0.636-0.48-0.924
				C293.703,57.92,293.139,57.356,293.139,56.696z"/>
			<path fill="#FF0000" d="M297.651,61.208c-0.36,1.128-0.936,2.352-2.304,2.352c-0.492,0-1.044-0.24-1.044-0.804
				c0-0.3,0.252-0.576,0.564-0.576c0.324,0,0.492,0.252,0.516,0.528c0.012,0.156,0.048,0.372,0.252,0.372
				c0.312,0,0.372-0.384,0.432-0.6c0.168-0.696,0.348-1.392,0.516-2.088l1.068-4.584h-1.008l0.132-0.48h0.996
				c0.348-1.368,1.044-3.036,2.748-3.036c0.468,0,1.188,0.132,1.188,0.732c0,0.288-0.252,0.576-0.552,0.576
				c-0.684,0-0.528-0.828-1.008-0.828c-0.336,0-0.48,0.384-0.576,0.636c-0.228,0.624-0.348,1.284-0.48,1.92h1.14l-0.12,0.48h-1.14
				L297.651,61.208z"/>
			<path fill="#FF0000" d="M300.663,59.06l0.024,0.024c0.276-0.096,0.576-0.132,0.876-0.132c0.36,0,0.696,0.144,1.044,0.144
				c0.348,0,0.576-0.192,0.576-0.564V58.4c0-0.072,0.012-0.132,0.096-0.132c0.228,0,0.312,0.564,0.312,0.732
				c0,0.816-0.372,1.476-1.284,1.476c-0.984,0-1.284-0.924-1.872-0.924c-0.312,0-0.444,0.228-0.552,0.456
				c-0.108,0.24-0.192,0.468-0.408,0.468c-0.144,0-0.24-0.18-0.24-0.312c0-0.18,0.192-0.384,0.3-0.516l2.904-3.216l-0.024-0.024
				c-0.228,0.132-0.456,0.168-0.744,0.168c-0.288,0-0.576-0.096-0.864-0.096c-0.276,0-0.504,0.132-0.504,0.432l0.012,0.12
				c0,0.072-0.036,0.12-0.108,0.12c-0.24,0-0.312-0.648-0.312-0.792c0-0.66,0.36-1.212,1.068-1.212c0.816,0,1.26,0.768,1.692,0.768
				c0.288,0,0.408-0.192,0.504-0.384c0.108-0.192,0.18-0.384,0.384-0.384c0.132,0,0.264,0.096,0.264,0.24
				c0,0.108-0.108,0.228-0.18,0.3L300.663,59.06z"/>
		</g>
		<g>
			<path fill="#FF0000" d="M369.571,61.208c-0.36,1.128-0.936,2.352-2.304,2.352c-0.492,0-1.044-0.24-1.044-0.804
				c0-0.3,0.252-0.576,0.564-0.576c0.324,0,0.492,0.252,0.516,0.528c0.012,0.156,0.048,0.372,0.252,0.372
				c0.312,0,0.372-0.384,0.432-0.6c0.168-0.696,0.348-1.392,0.516-2.088l1.068-4.584h-1.008l0.132-0.48h0.996
				c0.348-1.368,1.044-3.036,2.748-3.036c0.468,0,1.188,0.132,1.188,0.732c0,0.288-0.252,0.576-0.552,0.576
				c-0.684,0-0.528-0.828-1.008-0.828c-0.336,0-0.48,0.384-0.576,0.636c-0.228,0.624-0.348,1.284-0.48,1.92h1.14l-0.12,0.48h-1.14
				L369.571,61.208z"/>
			<path fill="#FF0000" d="M374.383,55.916l0.024,0.024c0.36-0.48,0.888-0.792,1.512-0.792c1.032,0,1.488,0.768,1.488,1.728
				c0,1.524-1.008,3.6-2.748,3.6c-0.552,0-0.96-0.288-1.176-0.78h-0.024l-0.636,2.412c-0.048,0.18-0.132,0.42-0.132,0.612
				c0,0.444,0.468,0.444,0.804,0.48l-0.096,0.36c-0.492-0.012-0.972-0.036-1.464-0.048c-0.492,0.012-0.972,0.036-1.464,0.048
				l0.084-0.36c0.228-0.036,0.516-0.012,0.66-0.216c0.18-0.24,0.312-0.816,0.384-1.116l1.536-5.7
				c-0.708,0.324-1.116,0.66-1.356,1.416l-0.312-0.12c0.156-0.696,0.552-1.092,1.116-1.488c0.744-0.54,0.78-0.708,1.02-1.572
				l0.3-1.116l1.14,0.204L374.383,55.916z M376.027,56.552c0-0.396-0.216-0.744-0.66-0.744c-1.068,0-1.632,2.496-1.632,3.228
				c0,0.372,0.168,0.78,0.6,0.78C375.415,59.816,376.027,57.416,376.027,56.552z"/>
		</g>
		<g>
			<path d="M282.023,67.992c-0.876,1.188-1.5,2.736-1.5,4.92c0,2.136,0.66,3.66,1.5,4.86h-0.816
				c-0.756-0.996-1.572-2.532-1.572-4.872c0.012-2.352,0.816-3.9,1.572-4.908H282.023z"/>
			<path d="M283.007,75.252c0.324,0.192,0.876,0.408,1.404,0.408c0.756,0,1.116-0.372,1.116-0.864c0-0.504-0.3-0.78-1.068-1.068
				c-1.056-0.384-1.548-0.948-1.548-1.644c0-0.936,0.768-1.704,2.004-1.704c0.588,0,1.104,0.156,1.416,0.36l-0.252,0.756
				c-0.228-0.132-0.648-0.336-1.188-0.336c-0.624,0-0.96,0.36-0.96,0.792c0,0.492,0.336,0.708,1.092,0.996
				c0.996,0.372,1.524,0.876,1.524,1.752c0,1.032-0.804,1.752-2.16,1.752c-0.636,0-1.224-0.168-1.632-0.408L283.007,75.252z"/>
			<path d="M287.999,76.32v-5.004h-0.804v-0.804h0.804v-0.276c0-0.816,0.192-1.56,0.684-2.028c0.396-0.384,0.924-0.54,1.404-0.54
				c0.384,0,0.696,0.084,0.9,0.168l-0.132,0.816c-0.168-0.072-0.372-0.132-0.684-0.132c-0.888,0-1.128,0.792-1.128,1.68v0.312h1.404
				v0.804h-1.392v5.004H287.999z"/>
			<path d="M293.626,76.452c-1.56,0-2.784-1.152-2.784-2.988c0-1.944,1.284-3.084,2.88-3.084c1.668,0,2.796,1.212,2.796,2.976
				c0,2.16-1.5,3.096-2.88,3.096H293.626z M293.663,75.66c1.008,0,1.764-0.948,1.764-2.268c0-0.984-0.492-2.22-1.74-2.22
				c-1.236,0-1.776,1.152-1.776,2.256c0,1.272,0.72,2.232,1.74,2.232H293.663z"/>
			<path d="M297.863,72.324c0-0.684-0.012-1.272-0.048-1.812h0.924l0.048,1.14h0.036c0.264-0.78,0.912-1.272,1.62-1.272
				c0.108,0,0.192,0.012,0.288,0.036V71.4c-0.12-0.012-0.228-0.024-0.372-0.024c-0.744,0-1.272,0.564-1.416,1.344
				c-0.024,0.156-0.036,0.324-0.036,0.504v3.096h-1.056L297.863,72.324z"/>
			<path d="M301.222,75.708l2.628-3.42c0.264-0.324,0.492-0.6,0.768-0.912v-0.024h-3.156v-0.84h4.428v0.66l-2.604,3.384
				c-0.24,0.312-0.48,0.612-0.744,0.9v0.024h3.396v0.84h-4.716V75.708z"/>
			<path d="M311.11,74.928c0,0.504,0.024,0.996,0.084,1.392h-0.948l-0.096-0.732h-0.036c-0.312,0.456-0.948,0.864-1.776,0.864
				c-1.176,0-1.776-0.828-1.776-1.668c0-1.404,1.248-2.172,3.492-2.16v-0.12c0-0.48-0.132-1.356-1.32-1.344
				c-0.552,0-1.116,0.156-1.524,0.432l-0.24-0.708c0.48-0.3,1.188-0.504,1.92-0.504c1.788,0,2.22,1.212,2.22,2.376V74.928z
				 M310.078,73.356c-1.152-0.024-2.46,0.18-2.46,1.308c0,0.696,0.456,1.008,0.984,1.008c0.768,0,1.26-0.48,1.428-0.972
				c0.036-0.108,0.048-0.228,0.048-0.336V73.356z"/>
			<path d="M312.802,72.084c0-0.612-0.012-1.092-0.048-1.572h0.936l0.06,0.948h0.024c0.288-0.54,0.96-1.08,1.92-1.08
				c0.804,0,2.052,0.48,2.052,2.472v3.468h-1.056v-3.348c0-0.936-0.348-1.728-1.344-1.728c-0.684,0-1.224,0.492-1.416,1.08
				c-0.048,0.132-0.072,0.324-0.072,0.492v3.504h-1.056V72.084z"/>
			<path d="M324.478,67.8v7.02c0,0.516,0.012,1.104,0.048,1.5h-0.948l-0.048-1.008h-0.024c-0.324,0.648-1.02,1.14-1.968,1.14
				c-1.404,0-2.496-1.188-2.496-2.952c-0.012-1.944,1.2-3.12,2.604-3.12c0.9,0,1.5,0.42,1.752,0.876h0.024V67.8H324.478z
				 M323.422,72.876c0-0.144-0.012-0.312-0.048-0.456c-0.156-0.66-0.732-1.212-1.524-1.212c-1.092,0-1.74,0.96-1.74,2.232
				c0,1.188,0.588,2.16,1.716,2.16c0.708,0,1.356-0.48,1.548-1.26c0.036-0.144,0.048-0.288,0.048-0.456V72.876z"/>
			<path d="M328.594,76.452c-1.56,0-2.784-1.152-2.784-2.988c0-1.944,1.284-3.084,2.88-3.084c1.668,0,2.796,1.212,2.796,2.976
				c0,2.16-1.5,3.096-2.88,3.096H328.594z M328.63,75.66c1.008,0,1.764-0.948,1.764-2.268c0-0.984-0.492-2.22-1.74-2.22
				c-1.236,0-1.776,1.152-1.776,2.256c0,1.272,0.72,2.232,1.74,2.232H328.63z"/>
			<path d="M332.182,77.772c0.84-1.188,1.5-2.736,1.5-4.896c0-2.16-0.648-3.684-1.5-4.884h0.816
				c0.756,0.984,1.572,2.532,1.572,4.884c-0.012,2.352-0.816,3.876-1.572,4.896H332.182z"/>
		</g>
		<g>
			<path d="M356.023,67.992c-0.876,1.188-1.5,2.736-1.5,4.92c0,2.136,0.66,3.66,1.5,4.86h-0.816
				c-0.756-0.996-1.572-2.532-1.572-4.872c0.012-2.352,0.816-3.9,1.572-4.908H356.023z"/>
			<path d="M357.247,76.32v-5.004h-0.804v-0.804h0.804v-0.276c0-0.816,0.192-1.56,0.684-2.028c0.396-0.384,0.924-0.54,1.404-0.54
				c0.384,0,0.696,0.084,0.9,0.168l-0.132,0.816c-0.168-0.072-0.372-0.132-0.684-0.132c-0.888,0-1.128,0.792-1.128,1.68v0.312h1.404
				v0.804h-1.392v5.004H357.247z"/>
			<path d="M362.875,76.452c-1.56,0-2.784-1.152-2.784-2.988c0-1.944,1.284-3.084,2.88-3.084c1.668,0,2.796,1.212,2.796,2.976
				c0,2.16-1.5,3.096-2.88,3.096H362.875z M362.911,75.66c1.008,0,1.764-0.948,1.764-2.268c0-0.984-0.492-2.22-1.74-2.22
				c-1.236,0-1.776,1.152-1.776,2.256c0,1.272,0.72,2.232,1.74,2.232H362.911z"/>
			<path d="M367.111,72.324c0-0.684-0.012-1.272-0.048-1.812h0.924l0.048,1.14h0.036c0.264-0.78,0.912-1.272,1.62-1.272
				c0.108,0,0.192,0.012,0.288,0.036V71.4c-0.12-0.012-0.228-0.024-0.372-0.024c-0.744,0-1.272,0.564-1.416,1.344
				c-0.024,0.156-0.036,0.324-0.036,0.504v3.096h-1.056L367.111,72.324z"/>
			<path d="M372.583,69.12v1.392h1.512v0.804h-1.512v3.132c0,0.72,0.204,1.128,0.792,1.128c0.288,0,0.456-0.024,0.612-0.072
				l0.048,0.804c-0.204,0.072-0.528,0.144-0.936,0.144c-0.492,0-0.888-0.168-1.14-0.444c-0.288-0.324-0.408-0.84-0.408-1.524v-3.168
				h-0.9v-0.804h0.9v-1.068L372.583,69.12z"/>
			<path d="M375.811,73.596c0.024,1.428,0.924,2.016,1.98,2.016c0.756,0,1.224-0.132,1.608-0.288l0.192,0.744
				c-0.372,0.168-1.02,0.372-1.944,0.372c-1.776,0-2.856-1.188-2.856-2.928c0-1.764,1.044-3.144,2.736-3.144
				c1.896,0,2.388,1.668,2.388,2.736c0,0.216-0.012,0.384-0.036,0.504L375.811,73.596z M378.895,72.84
				c0.012-0.66-0.276-1.716-1.452-1.716c-1.08,0-1.536,0.984-1.62,1.716H378.895z"/>
			<path d="M381.222,72.408c0-0.744-0.012-1.344-0.048-1.896h0.948l0.06,0.996h0.024c0.42-0.72,1.116-1.128,2.052-1.128
				c1.416,0,2.472,1.188,2.472,2.952c0,2.088-1.284,3.12-2.64,3.12c-0.78,0-1.44-0.336-1.788-0.912h-0.024v3.156h-1.056V72.408z
				 M382.278,73.956c0,0.144,0.012,0.3,0.048,0.432c0.18,0.732,0.828,1.236,1.572,1.236c1.116,0,1.764-0.912,1.764-2.244
				c0-1.164-0.6-2.16-1.716-2.16c-0.72,0-1.404,0.504-1.608,1.296c-0.024,0.144-0.06,0.3-0.06,0.432V73.956z"/>
			<path d="M388.554,69.444c-0.396,0-0.66-0.312-0.66-0.684s0.276-0.672,0.684-0.672c0.408,0,0.673,0.3,0.673,0.672
				s-0.265,0.684-0.685,0.684H388.554z M388.05,76.32v-5.808h1.056v5.808H388.05z"/>
			<path d="M394.95,74.928c0,0.504,0.024,0.996,0.084,1.392h-0.947l-0.097-0.732h-0.036c-0.312,0.456-0.947,0.864-1.775,0.864
				c-1.176,0-1.776-0.828-1.776-1.668c0-1.404,1.248-2.172,3.492-2.16v-0.12c0-0.48-0.132-1.356-1.32-1.344
				c-0.552,0-1.116,0.156-1.523,0.432l-0.24-0.708c0.479-0.3,1.188-0.504,1.92-0.504c1.788,0,2.22,1.212,2.22,2.376V74.928z
				 M393.918,73.356c-1.152-0.024-2.461,0.18-2.461,1.308c0,0.696,0.456,1.008,0.984,1.008c0.769,0,1.26-0.48,1.428-0.972
				c0.036-0.108,0.049-0.228,0.049-0.336V73.356z"/>
			<path d="M396.642,72.084c0-0.612-0.012-1.092-0.048-1.572h0.936l0.061,0.948h0.023c0.288-0.54,0.96-1.08,1.92-1.08
				c0.805,0,2.053,0.48,2.053,2.472v3.468h-1.057v-3.348c0-0.936-0.348-1.728-1.344-1.728c-0.685,0-1.224,0.492-1.416,1.08
				c-0.048,0.132-0.072,0.324-0.072,0.492v3.504h-1.056V72.084z"/>
			<path d="M405.666,76.452c-1.56,0-2.783-1.152-2.783-2.988c0-1.944,1.283-3.084,2.88-3.084c1.668,0,2.796,1.212,2.796,2.976
				c0,2.16-1.5,3.096-2.88,3.096H405.666z M405.702,75.66c1.008,0,1.765-0.948,1.765-2.268c0-0.984-0.492-2.22-1.74-2.22
				c-1.236,0-1.776,1.152-1.776,2.256c0,1.272,0.72,2.232,1.74,2.232H405.702z"/>
			<path d="M409.253,77.772c0.841-1.188,1.5-2.736,1.5-4.896c0-2.16-0.647-3.684-1.5-4.884h0.816
				c0.756,0.984,1.572,2.532,1.572,4.884c-0.013,2.352-0.816,3.876-1.572,4.896H409.253z"/>
		</g>
		<g>
			<path d="M15.819,40.008c-4.944-2.352-5.736-5.376-5.952-8.472c-0.24-3.36,1.896-6.768,3.888-8.664
				c1.152-1.08,2.4-2.136,3.888-3.264c-0.048-0.84-0.24-1.176-0.336-2.376c-0.024-0.504-0.336-2.856,0.168-5.568
				c0.312-1.608,2.328-5.4,3.72-5.424c1.08-0.024,2.736,4.296,2.784,6.456c0.072,3.336-0.72,4.848-1.704,6.576
				c-0.504,0.864-1.032,1.464-1.584,2.136c-0.576,0.696-1.224,1.104-1.824,1.632c0,0,0.768,4.344,0.792,4.656
				c1.536-0.192,3.408,0.36,4.08,0.84c1.704,1.272,2.352,3.024,2.472,4.728c0.216,2.712-1.272,5.568-4.56,6.936
				c0,0,0.504,3.456,0.624,4.176c0.264,1.896,0.216,3.096-0.192,3.864c-0.696,1.296-1.824,2.496-4.008,2.64
				c-1.68,0.096-4.992-0.744-5.16-3.384c-0.096-1.56,0.6-3.24,2.496-3.36c1.152-0.096,2.52,0.864,2.616,2.232
				c0.096,1.176-0.672,2.4-2.664,2.952c0.312,0.432,1.248,0.936,2.592,0.936c1.392,0,2.832-0.936,3.528-2.184
				c0.432-0.816,0.384-2.28,0.216-3.624c-0.072-0.456-0.648-4.08-0.648-4.08C19.275,40.656,16.827,40.488,15.819,40.008z
				 M16.299,34.32c0.048,1.152,1.008,2.496,1.896,2.952c-0.12,0.072-0.24,0.264-0.24,0.264c-0.984-0.48-1.824-1.272-2.04-1.56
				c-0.696-0.936-0.984-1.464-1.08-2.88c-0.096-1.32,0.624-3.096,2.232-4.344c0.84-0.624,1.248-0.768,1.968-0.936l-0.72-4.344
				c-0.744,0.432-3.816,2.904-5.112,4.92c-1.152,1.8-1.848,3.24-1.704,5.016c0.288,4.008,4.68,7.296,9.432,6.168
				c0,0-1.416-8.52-1.392-8.52C16.923,31.152,16.227,33.168,16.299,34.32z M18.243,19.104c2.088-1.632,4.92-4.704,4.752-7.08
				c-0.048-0.744-0.36-2.088-1.44-2.064C19.083,9.984,17.691,15.144,18.243,19.104z M21.507,39.384
				c2.76-0.936,2.88-3.312,2.784-4.728c-0.096-1.176-0.624-3.816-4.128-3.648L21.507,39.384z"/>
		</g>
		<g>
			<path d="M76.835,14.152c2.04,0.024,3.144,1.416,2.52,3.12c-0.624,1.728-2.784,3.096-4.8,3.072
				c-0.984-0.024-1.776-0.384-2.232-0.936v19.08h-0.456c0-24.216,0-20.4,0-20.4c0-0.288,0.072-0.576,0.192-0.888
				C72.683,15.472,74.819,14.128,76.835,14.152z"/>
		</g>
		<g>
			<path d="M91.835,14.152c2.04,0.024,3.144,1.416,2.52,3.12c-0.624,1.728-2.784,3.096-4.8,3.072
				c-0.984-0.024-1.776-0.384-2.232-0.936v19.08h-0.456c0-24.216,0-20.4,0-20.4c0-0.288,0.072-0.576,0.192-0.888
				C87.683,15.472,89.819,14.128,91.835,14.152z"/>
		</g>
		<g>
			<path d="M106.835,14.152c2.04,0.024,3.144,1.416,2.52,3.12c-0.624,1.728-2.784,3.096-4.8,3.072
				c-0.984-0.024-1.776-0.384-2.232-0.936v19.08h-0.456c0-24.216,0-20.4,0-20.4c0-0.288,0.072-0.576,0.192-0.888
				C102.683,15.472,104.819,14.128,106.835,14.152z"/>
		</g>
		<path fill="none" stroke="#000000" stroke-width="3" d="M127.867,38.32h31"/>
		<g>
			<path d="M147.835,14.152c2.04,0.024,3.144,1.416,2.52,3.12c-0.624,1.728-2.784,3.096-4.8,3.072
				c-0.984-0.024-1.776-0.384-2.232-0.936v19.08h-0.456c0-24.216,0-20.4,0-20.4c0-0.288,0.072-0.576,0.192-0.888
				C143.683,15.472,145.819,14.128,147.835,14.152z"/>
		</g>
		<g>
			<path d="M162.835,14.152c2.04,0.024,3.144,1.416,2.52,3.12c-0.624,1.728-2.784,3.096-4.8,3.072
				c-0.984-0.024-1.776-0.384-2.232-0.936v19.08h-0.456c0-24.216,0-20.4,0-20.4c0-0.288,0.072-0.576,0.192-0.888
				C158.683,15.472,160.819,14.128,162.835,14.152z"/>
		</g>
		<path fill="none" stroke="#000000" stroke-width="3" d="M181.867,38.32h31"/>
		<g>
			<path d="M201.835,14.152c2.04,0.024,3.144,1.416,2.52,3.12c-0.624,1.728-2.784,3.096-4.8,3.072
				c-0.984-0.024-1.776-0.384-2.232-0.936v19.08h-0.456c0-24.216,0-20.4,0-20.4c0-0.288,0.072-0.576,0.192-0.888
				C197.683,15.472,199.819,14.128,201.835,14.152z"/>
		</g>
		<path fill="none" stroke="#000000" stroke-width="3" d="M235.867,38.32h31"/>
		<g>
			<path d="M240.835,14.152c2.04,0.024,3.144,1.416,2.52,3.12c-0.624,1.728-2.784,3.096-4.8,3.072
				c-0.984-0.024-1.776-0.384-2.232-0.936v19.08h-0.456c0-24.216,0-20.4,0-20.4c0-0.288,0.072-0.576,0.192-0.888
				C236.683,15.472,238.819,14.128,240.835,14.152z"/>
		</g>
		<g>
			<path d="M270.835,14.152c2.04,0.024,3.144,1.416,2.52,3.12c-0.624,1.728-2.784,3.096-4.8,3.072
				c-0.984-0.024-1.776-0.384-2.232-0.936v19.08h-0.456c0-24.216,0-20.4,0-20.4c0-0.288,0.072-0.576,0.192-0.888
				C266.683,15.472,268.819,14.128,270.835,14.152z"/>
		</g>
	</g>
</svg>
