<?xml version="1.0" encoding="utf-8"?>
<!-- Generator: Adobe Illustrator 10.0, SVG Export Plug-In . SVG Version: 3.0.0 Build 76)  -->
<!DOCTYPE svg PUBLIC "-//W3C//DTD SVG 1.0//EN"    "http://www.w3.org/TR/2001/REC-SVG-20010904/DTD/svg10.dtd" [
	<!ENTITY ns_flows "http://ns.adobe.com/Flows/1.0/">
	<!ENTITY ns_extend "http://ns.adobe.com/Extensibility/1.0/">
	<!ENTITY ns_ai "http://ns.adobe.com/AdobeIllustrator/10.0/">
	<!ENTITY ns_svg "http://www.w3.org/2000/svg">
	<!ENTITY ns_xlink "http://www.w3.org/1999/xlink">
]>
<svg  xmlns:x="&ns_extend;" xmlns:i="&ns_ai;" xmlns:graph="&ns_graphs;"
	 xmlns="&ns_svg;" xmlns:xlink="&ns_xlink;" xmlns:a="http://ns.adobe.com/AdobeSVGViewerExtensions/3.0/" width="299" height="208"
	 viewBox="0.2 -0.48 299 208" overflow="visible" enable-background="new 0.2 -0.48 299 208" xml:space="preserve">
	<g id="Layer_1_2_">
		<g>
			<path d="M33.858,1.32H31.71V0.432h5.229V1.32H34.78v7.2h-0.922V1.32z"/>
			<path d="M37.231,4.524c0-0.684-0.01-1.272-0.042-1.812h0.807l0.042,1.14h0.031c0.23-0.78,0.796-1.272,1.415-1.272
				c0.094,0,0.167,0.012,0.251,0.036V3.6c-0.105-0.012-0.199-0.024-0.325-0.024c-0.65,0-1.111,0.564-1.236,1.344
				c-0.021,0.156-0.032,0.324-0.032,0.504V8.52h-0.922L37.231,4.524z"/>
			<path d="M44.158,7.128c0,0.504,0.021,0.996,0.073,1.392h-0.828l-0.084-0.732h-0.031c-0.272,0.456-0.828,0.864-1.551,0.864
				c-1.027,0-1.551-0.828-1.551-1.668c0-1.404,1.089-2.172,3.049-2.16v-0.12c0-0.48-0.115-1.356-1.152-1.344
				c-0.482,0-0.975,0.156-1.331,0.432l-0.209-0.708c0.419-0.3,1.038-0.504,1.677-0.504c1.561,0,1.938,1.212,1.938,2.376V7.128z
				 M43.256,5.556c-1.006-0.024-2.148,0.18-2.148,1.308c0,0.696,0.398,1.008,0.859,1.008c0.67,0,1.1-0.48,1.247-0.972
				c0.032-0.108,0.042-0.228,0.042-0.336V5.556z"/>
			<path d="M45.635,4.284c0-0.612-0.01-1.092-0.042-1.572h0.817l0.053,0.948h0.021c0.251-0.54,0.838-1.08,1.677-1.08
				c0.702,0,1.792,0.48,1.792,2.472V8.52H49.03V5.172c0-0.936-0.304-1.728-1.173-1.728c-0.598,0-1.069,0.492-1.237,1.08
				c-0.042,0.132-0.063,0.324-0.063,0.492V8.52h-0.922V4.284z"/>
			<path d="M51.324,7.452c0.283,0.192,0.765,0.408,1.226,0.408c0.66,0,0.975-0.372,0.975-0.864c0-0.504-0.262-0.78-0.933-1.068
				c-0.922-0.384-1.352-0.948-1.352-1.644c0-0.936,0.67-1.704,1.75-1.704c0.514,0,0.964,0.156,1.236,0.36l-0.22,0.756
				c-0.199-0.132-0.566-0.336-1.038-0.336c-0.544,0-0.838,0.36-0.838,0.792c0,0.492,0.293,0.708,0.953,0.996
				c0.87,0.372,1.331,0.876,1.331,1.752c0,1.032-0.702,1.752-1.886,1.752c-0.555,0-1.069-0.168-1.425-0.408L51.324,7.452z"/>
			<path d="M55.599,4.608c0-0.744-0.01-1.344-0.042-1.896h0.828l0.052,0.996h0.021c0.367-0.72,0.975-1.128,1.792-1.128
				c1.236,0,2.158,1.188,2.158,2.952c0,2.088-1.121,3.12-2.305,3.12c-0.681,0-1.257-0.336-1.561-0.912h-0.021v3.156h-0.922V4.608z
				 M56.521,6.156c0,0.144,0.01,0.3,0.042,0.432c0.157,0.732,0.723,1.236,1.373,1.236c0.974,0,1.54-0.912,1.54-2.244
				c0-1.164-0.524-2.16-1.498-2.16c-0.629,0-1.226,0.504-1.404,1.296c-0.021,0.144-0.052,0.3-0.052,0.432V6.156z"/>
			<path d="M63.636,8.652c-1.362,0-2.431-1.152-2.431-2.988c0-1.944,1.121-3.084,2.515-3.084c1.456,0,2.441,1.212,2.441,2.976
				c0,2.16-1.31,3.096-2.515,3.096H63.636z M63.667,7.86c0.88,0,1.541-0.948,1.541-2.268c0-0.984-0.43-2.22-1.52-2.22
				c-1.079,0-1.551,1.152-1.551,2.256c0,1.272,0.629,2.232,1.52,2.232H63.667z"/>
			<path d="M67.198,7.452c0.283,0.192,0.765,0.408,1.226,0.408c0.66,0,0.974-0.372,0.974-0.864c0-0.504-0.262-0.78-0.933-1.068
				c-0.922-0.384-1.352-0.948-1.352-1.644c0-0.936,0.671-1.704,1.75-1.704c0.513,0,0.964,0.156,1.236,0.36l-0.22,0.756
				c-0.199-0.132-0.565-0.336-1.037-0.336c-0.545,0-0.838,0.36-0.838,0.792c0,0.492,0.293,0.708,0.954,0.996
				c0.87,0.372,1.331,0.876,1.331,1.752c0,1.032-0.702,1.752-1.886,1.752c-0.556,0-1.069-0.168-1.425-0.408L67.198,7.452z"/>
			<path d="M71.997,5.796c0.021,1.428,0.807,2.016,1.729,2.016c0.66,0,1.069-0.132,1.404-0.288l0.168,0.744
				C74.973,8.436,74.407,8.64,73.6,8.64c-1.551,0-2.494-1.188-2.494-2.928c0-1.764,0.912-3.144,2.389-3.144
				c1.655,0,2.085,1.668,2.085,2.736c0,0.216-0.01,0.384-0.031,0.504L71.997,5.796z M74.69,5.04c0.01-0.66-0.241-1.716-1.268-1.716
				c-0.943,0-1.341,0.984-1.414,1.716H74.69z"/>
			<path d="M81.103,0v7.02c0,0.516,0.01,1.104,0.042,1.5h-0.828l-0.042-1.008h-0.021c-0.283,0.648-0.891,1.14-1.719,1.14
				c-1.226,0-2.179-1.188-2.179-2.952c-0.011-1.944,1.048-3.12,2.273-3.12c0.786,0,1.31,0.42,1.53,0.876h0.021V0H81.103z
				 M80.18,5.076c0-0.144-0.01-0.312-0.042-0.456c-0.136-0.66-0.64-1.212-1.331-1.212c-0.954,0-1.519,0.96-1.519,2.232
				c0,1.188,0.513,2.16,1.498,2.16c0.618,0,1.184-0.48,1.352-1.26c0.031-0.144,0.042-0.288,0.042-0.456V5.076z"/>
			<path d="M85.524,0.216l-0.167,2.88h-0.566l-0.167-2.88H85.524z M87.085,0.216l-0.167,2.88h-0.566l-0.167-2.88H87.085z"/>
			<path d="M88.416,0.552c0.398-0.108,1.037-0.18,1.666-0.18c0.911,0,1.498,0.18,1.928,0.588c0.367,0.312,0.597,0.792,0.597,1.428
				c0,0.792-0.461,1.476-1.194,1.776V4.2c0.67,0.18,1.457,0.816,1.457,2.016c0,0.696-0.241,1.224-0.608,1.62
				c-0.482,0.516-1.278,0.756-2.431,0.756c-0.629,0-1.111-0.048-1.415-0.096V0.552z M89.327,3.864h0.828
				c0.953,0,1.519-0.588,1.519-1.368c0-0.936-0.618-1.32-1.54-1.32c-0.419,0-0.66,0.036-0.807,0.072V3.864z M89.327,7.728
				c0.189,0.036,0.44,0.048,0.765,0.048c0.943,0,1.813-0.396,1.813-1.572c0-1.092-0.828-1.56-1.823-1.56h-0.755V7.728z"/>
			<path d="M94.074,0h0.922v8.52h-0.922V0z"/>
			<path d="M100.099,7.128c0,0.504,0.021,0.996,0.073,1.392h-0.828L99.26,7.788h-0.031c-0.272,0.456-0.828,0.864-1.551,0.864
				c-1.027,0-1.551-0.828-1.551-1.668c0-1.404,1.09-2.172,3.049-2.16v-0.12c0-0.48-0.115-1.356-1.152-1.344
				c-0.482,0-0.975,0.156-1.331,0.432l-0.21-0.708c0.419-0.3,1.038-0.504,1.677-0.504c1.561,0,1.938,1.212,1.938,2.376V7.128z
				 M99.197,5.556c-1.006-0.024-2.148,0.18-2.148,1.308c0,0.696,0.398,1.008,0.859,1.008c0.67,0,1.1-0.48,1.247-0.972
				c0.032-0.108,0.042-0.228,0.042-0.336V5.556z"/>
			<path d="M105.191,8.316c-0.241,0.132-0.775,0.336-1.457,0.336c-1.53,0-2.525-1.188-2.525-2.976c0-1.788,1.069-3.096,2.725-3.096
				c0.545,0,1.027,0.156,1.278,0.312l-0.21,0.804c-0.22-0.132-0.565-0.276-1.068-0.276c-1.163,0-1.792,0.996-1.792,2.208
				c0,1.344,0.754,2.172,1.76,2.172c0.524,0,0.87-0.144,1.132-0.276L105.191,8.316z"/>
			<path d="M107.192,5.376h0.021c0.126-0.204,0.293-0.468,0.44-0.66l1.498-2.004h1.1L108.292,5.1l2.231,3.42h-1.121l-1.739-2.796
				l-0.472,0.612V8.52h-0.922V0h0.922V5.376z"/>
			<path d="M113.437,0.432h0.912v3.9h0.031c0.188-0.312,0.377-0.6,0.555-0.864l2.159-3.036h1.131l-2.557,3.432l2.756,4.656h-1.079
				l-2.316-3.972l-0.681,0.888V8.52h-0.912V0.432z"/>
			<path d="M119.608,5.796c0.021,1.428,0.807,2.016,1.729,2.016c0.66,0,1.069-0.132,1.404-0.288l0.167,0.744
				c-0.325,0.168-0.891,0.372-1.697,0.372c-1.551,0-2.494-1.188-2.494-2.928c0-1.764,0.912-3.144,2.389-3.144
				c1.656,0,2.085,1.668,2.085,2.736c0,0.216-0.011,0.384-0.032,0.504L119.608,5.796z M122.301,5.04
				c0.01-0.66-0.241-1.716-1.268-1.716c-0.943,0-1.341,0.984-1.415,1.716H122.301z"/>
			<path d="M124.648,2.712l1.101,3.432c0.125,0.384,0.251,0.84,0.335,1.188h0.021c0.094-0.348,0.199-0.792,0.325-1.212l1.006-3.408
				h0.975l-1.383,4.14c-0.66,1.992-1.111,3.012-1.74,3.648c-0.461,0.444-0.901,0.624-1.131,0.672l-0.23-0.888
				c0.23-0.072,0.534-0.24,0.807-0.516c0.251-0.228,0.555-0.636,0.775-1.176c0.042-0.108,0.073-0.18,0.073-0.252
				c0-0.06-0.021-0.144-0.073-0.264l-1.865-5.364H124.648z"/>
			<path d="M129.918,0.216l-0.167,2.88h-0.566l-0.167-2.88H129.918z M131.479,0.216l-0.167,2.88h-0.566l-0.167-2.88H131.479z"/>
			<path d="M135.032,0.54c0.44-0.096,1.016-0.168,1.75-0.168c0.901,0,1.562,0.24,1.98,0.672c0.388,0.384,0.629,0.972,0.629,1.692
				c0,0.732-0.189,1.308-0.556,1.728c-0.482,0.588-1.268,0.888-2.158,0.888c-0.272,0-0.524-0.012-0.733-0.072v3.24h-0.912V0.54z
				 M135.943,4.428c0.199,0.06,0.461,0.084,0.754,0.084c1.11,0,1.771-0.624,1.771-1.716c0-1.08-0.66-1.596-1.666-1.596
				c-0.398,0-0.702,0.048-0.859,0.084V4.428z"/>
			<path d="M140.836,5.796c0.021,1.428,0.807,2.016,1.729,2.016c0.66,0,1.068-0.132,1.404-0.288l0.167,0.744
				c-0.325,0.168-0.891,0.372-1.697,0.372c-1.551,0-2.494-1.188-2.494-2.928c0-1.764,0.912-3.144,2.389-3.144
				c1.655,0,2.085,1.668,2.085,2.736c0,0.216-0.011,0.384-0.031,0.504L140.836,5.796z M143.529,5.04
				c0.01-0.66-0.241-1.716-1.268-1.716c-0.943,0-1.341,0.984-1.415,1.716H143.529z"/>
			<path d="M145.562,4.284c0-0.612-0.011-1.092-0.042-1.572h0.817l0.052,0.948h0.021c0.251-0.54,0.838-1.08,1.676-1.08
				c0.702,0,1.792,0.48,1.792,2.472V8.52h-0.922V5.172c0-0.936-0.304-1.728-1.173-1.728c-0.597,0-1.069,0.492-1.236,1.08
				c-0.042,0.132-0.063,0.324-0.063,0.492V8.52h-0.922V4.284z"/>
			<path d="M152.446,1.32v1.392h1.32v0.804h-1.32v3.132c0,0.72,0.178,1.128,0.691,1.128c0.251,0,0.398-0.024,0.535-0.072
				l0.042,0.804c-0.178,0.072-0.461,0.144-0.817,0.144c-0.43,0-0.775-0.168-0.996-0.444c-0.251-0.324-0.356-0.84-0.356-1.524V3.516
				h-0.786V2.712h0.786V1.644L152.446,1.32z"/>
			<path d="M158.376,7.128c0,0.504,0.021,0.996,0.073,1.392h-0.828l-0.084-0.732h-0.031c-0.272,0.456-0.828,0.864-1.551,0.864
				c-1.027,0-1.551-0.828-1.551-1.668c0-1.404,1.09-2.172,3.049-2.16v-0.12c0-0.48-0.115-1.356-1.152-1.344
				c-0.482,0-0.975,0.156-1.331,0.432l-0.21-0.708c0.419-0.3,1.038-0.504,1.677-0.504c1.561,0,1.938,1.212,1.938,2.376V7.128z
				 M157.475,5.556c-1.006-0.024-2.148,0.18-2.148,1.308c0,0.696,0.398,1.008,0.859,1.008c0.67,0,1.1-0.48,1.247-0.972
				c0.031-0.108,0.042-0.228,0.042-0.336V5.556z"/>
			<path d="M160.922,1.32v1.392h1.32v0.804h-1.32v3.132c0,0.72,0.178,1.128,0.692,1.128c0.251,0,0.398-0.024,0.534-0.072
				l0.042,0.804c-0.178,0.072-0.461,0.144-0.817,0.144c-0.43,0-0.775-0.168-0.996-0.444c-0.251-0.324-0.356-0.84-0.356-1.524V3.516
				h-0.786V2.712h0.786V1.644L160.922,1.32z"/>
			<path d="M165.281,8.652c-1.362,0-2.431-1.152-2.431-2.988c0-1.944,1.121-3.084,2.515-3.084c1.457,0,2.441,1.212,2.441,2.976
				c0,2.16-1.31,3.096-2.515,3.096H165.281z M165.313,7.86c0.88,0,1.541-0.948,1.541-2.268c0-0.984-0.43-2.22-1.52-2.22
				c-1.079,0-1.55,1.152-1.55,2.256c0,1.272,0.628,2.232,1.519,2.232H165.313z"/>
			<path d="M168.97,4.284c0-0.612-0.011-1.092-0.042-1.572h0.817l0.052,0.948h0.021c0.251-0.54,0.838-1.08,1.676-1.08
				c0.702,0,1.792,0.48,1.792,2.472V8.52h-0.922V5.172c0-0.936-0.304-1.728-1.173-1.728c-0.597,0-1.069,0.492-1.236,1.08
				c-0.042,0.132-0.063,0.324-0.063,0.492V8.52h-0.922V4.284z"/>
			<path d="M175.225,1.644c-0.346,0-0.576-0.312-0.576-0.684s0.241-0.672,0.597-0.672c0.356,0,0.587,0.3,0.587,0.672
				s-0.23,0.684-0.597,0.684H175.225z M174.785,8.52V2.712h0.922V8.52H174.785z"/>
			<path d="M180.852,8.316c-0.241,0.132-0.775,0.336-1.457,0.336c-1.53,0-2.525-1.188-2.525-2.976c0-1.788,1.069-3.096,2.725-3.096
				c0.545,0,1.027,0.156,1.278,0.312l-0.209,0.804c-0.22-0.132-0.566-0.276-1.069-0.276c-1.163,0-1.792,0.996-1.792,2.208
				c0,1.344,0.754,2.172,1.76,2.172c0.524,0,0.87-0.144,1.132-0.276L180.852,8.316z"/>
			<path d="M184.068,7.248c0.409,0.3,0.996,0.528,1.625,0.528c0.932,0,1.477-0.552,1.477-1.38c0-0.744-0.377-1.188-1.331-1.596
				c-1.153-0.48-1.865-1.176-1.865-2.304c0-1.26,0.912-2.196,2.284-2.196c0.713,0,1.247,0.192,1.551,0.396l-0.251,0.852
				c-0.22-0.156-0.691-0.384-1.331-0.384c-0.964,0-1.331,0.66-1.331,1.212c0,0.756,0.429,1.128,1.404,1.56
				c1.194,0.54,1.792,1.188,1.792,2.376c0,1.248-0.796,2.34-2.462,2.34c-0.681,0-1.425-0.24-1.802-0.528L184.068,7.248z"/>
			<path d="M192.933,8.316c-0.241,0.132-0.775,0.336-1.457,0.336c-1.53,0-2.525-1.188-2.525-2.976c0-1.788,1.069-3.096,2.724-3.096
				c0.545,0,1.027,0.156,1.278,0.312l-0.209,0.804c-0.22-0.132-0.565-0.276-1.069-0.276c-1.163,0-1.792,0.996-1.792,2.208
				c0,1.344,0.754,2.172,1.76,2.172c0.524,0,0.87-0.144,1.132-0.276L192.933,8.316z"/>
			<path d="M197.595,7.128c0,0.504,0.021,0.996,0.073,1.392h-0.828l-0.084-0.732h-0.031c-0.272,0.456-0.828,0.864-1.551,0.864
				c-1.027,0-1.551-0.828-1.551-1.668c0-1.404,1.089-2.172,3.049-2.16v-0.12c0-0.48-0.115-1.356-1.152-1.344
				c-0.482,0-0.975,0.156-1.331,0.432l-0.209-0.708c0.419-0.3,1.038-0.504,1.677-0.504c1.561,0,1.938,1.212,1.938,2.376V7.128z
				 M196.694,5.556c-1.006-0.024-2.148,0.18-2.148,1.308c0,0.696,0.398,1.008,0.859,1.008c0.67,0,1.1-0.48,1.247-0.972
				c0.032-0.108,0.042-0.228,0.042-0.336V5.556z"/>
			<path d="M199.072,0h0.922v8.52h-0.922V0z"/>
			<path d="M202.048,5.796c0.021,1.428,0.807,2.016,1.729,2.016c0.66,0,1.069-0.132,1.404-0.288l0.167,0.744
				c-0.325,0.168-0.891,0.372-1.697,0.372c-1.551,0-2.494-1.188-2.494-2.928c0-1.764,0.912-3.144,2.389-3.144
				c1.656,0,2.085,1.668,2.085,2.736c0,0.216-0.01,0.384-0.031,0.504L202.048,5.796z M204.741,5.04
				c0.011-0.66-0.241-1.716-1.268-1.716c-0.943,0-1.341,0.984-1.415,1.716H204.741z"/>
		</g>
		<g>
			<path fill="none" stroke="#000000" d="M31.739,21.686h267.157"/>
			<path fill="none" stroke="#000000" d="M31.739,36.797h267.157"/>
			<path fill="none" stroke="#000000" d="M31.872,43.92h267.158"/>
			<path fill="none" stroke="#000000" d="M31.667,51.304h267.157"/>
			<path fill="none" stroke="#000000" d="M31.667,28.939h267.157"/>
		</g>
		<g>
			<path d="M43.486,50.875c-4.944-2.352-5.736-5.376-5.952-8.472c-0.24-3.36,1.896-6.768,3.888-8.664
				c1.152-1.08,2.4-2.136,3.888-3.264c-0.048-0.84-0.24-1.176-0.336-2.376c-0.024-0.504-0.336-2.856,0.168-5.568
				c0.312-1.608,2.328-5.4,3.72-5.424c1.08-0.024,2.736,4.296,2.784,6.456c0.072,3.336-0.72,4.848-1.704,6.576
				c-0.504,0.864-1.032,1.464-1.584,2.136c-0.576,0.696-1.224,1.104-1.824,1.632c0,0,0.768,4.344,0.792,4.656
				c1.536-0.192,3.408,0.36,4.08,0.84c1.704,1.272,2.352,3.024,2.472,4.728c0.216,2.712-1.272,5.568-4.56,6.936
				c0,0,0.504,3.456,0.624,4.176c0.264,1.896,0.216,3.096-0.192,3.864c-0.696,1.296-1.824,2.496-4.008,2.64
				c-1.68,0.096-4.992-0.744-5.16-3.384c-0.096-1.56,0.6-3.24,2.496-3.36c1.152-0.096,2.52,0.864,2.616,2.232
				c0.096,1.176-0.672,2.4-2.664,2.952c0.312,0.432,1.248,0.936,2.592,0.936c1.392,0,2.832-0.936,3.528-2.184
				c0.432-0.816,0.384-2.28,0.216-3.624c-0.072-0.456-0.648-4.08-0.648-4.08C46.942,51.523,44.494,51.355,43.486,50.875z
				 M43.966,45.187c0.048,1.152,1.008,2.496,1.896,2.952c-0.12,0.072-0.24,0.264-0.24,0.264c-0.984-0.48-1.824-1.272-2.04-1.56
				c-0.696-0.936-0.984-1.464-1.08-2.88c-0.096-1.32,0.624-3.096,2.232-4.344c0.84-0.624,1.248-0.768,1.968-0.936l-0.72-4.344
				c-0.744,0.432-3.816,2.904-5.112,4.92c-1.152,1.8-1.848,3.24-1.704,5.016c0.288,4.008,4.68,7.296,9.432,6.168
				c0,0-1.416-8.52-1.392-8.52C44.59,42.019,43.894,44.035,43.966,45.187z M45.91,29.971c2.088-1.632,4.92-4.704,4.752-7.08
				c-0.048-0.744-0.36-2.088-1.44-2.064C46.75,20.851,45.358,26.011,45.91,29.971z M49.174,50.251
				c2.76-0.936,2.88-3.312,2.784-4.728c-0.096-1.176-0.624-3.816-4.128-3.648L49.174,50.251z"/>
		</g>
		<g>
			<path d="M138.571,40.638c2.664,0.024,5.184,1.032,5.376,3.264c0.144,1.632-2.016,3.12-4.68,3.12
				c-2.688-0.024-5.184-1.008-5.4-3.24C133.723,42.125,135.907,40.638,138.571,40.638z M139.219,46.47
				c1.152,0,1.896-1.104,1.776-1.992c-0.264-1.752-0.864-3.168-2.448-3.168c-1.152,0-1.824,1.128-1.68,2.016
				C137.131,45.078,137.635,46.47,139.219,46.47z"/>
		</g>
		<g>
			<path d="M173.238,33.638c2.664,0.024,5.184,1.032,5.376,3.264c0.144,1.632-2.016,3.12-4.68,3.12
				c-2.688-0.024-5.184-1.008-5.4-3.24C168.39,35.126,170.574,33.638,173.238,33.638z M173.886,39.47
				c1.152,0,1.896-1.104,1.776-1.992c-0.264-1.752-0.864-3.168-2.448-3.168c-1.152,0-1.824,1.128-1.68,2.016
				C171.798,38.078,172.302,39.47,173.886,39.47z"/>
		</g>
		<g>
			<path d="M206.904,29.638c2.664,0.024,5.184,1.032,5.376,3.264c0.144,1.632-2.016,3.12-4.68,3.12
				c-2.688-0.024-5.184-1.008-5.4-3.24C202.056,31.126,204.24,29.638,206.904,29.638z M207.552,35.47
				c1.152,0,1.896-1.104,1.776-1.992c-0.264-1.752-0.864-3.168-2.448-3.168c-1.152,0-1.824,1.128-1.68,2.016
				C205.464,34.078,205.968,35.47,207.552,35.47z"/>
		</g>
		<g>
			<path d="M243.571,21.638c2.664,0.024,5.184,1.032,5.376,3.264c0.144,1.632-2.016,3.12-4.68,3.12
				c-2.688-0.024-5.185-1.008-5.4-3.24C238.724,23.126,240.907,21.638,243.571,21.638z M244.219,27.47
				c1.152,0,1.896-1.104,1.776-1.992c-0.264-1.752-0.864-3.168-2.448-3.168c-1.151,0-1.823,1.128-1.68,2.016
				C242.131,26.078,242.635,27.47,244.219,27.47z"/>
		</g>
		<g>
			<path fill="none" stroke="#000000" d="M4.739,91.686h267.157"/>
			<path fill="none" stroke="#000000" d="M4.739,106.797h267.157"/>
			<path fill="none" stroke="#000000" d="M4.871,113.92h267.157"/>
			<path fill="none" stroke="#000000" d="M4.667,121.304h267.156"/>
			<path fill="none" stroke="#000000" d="M4.667,98.939h267.156"/>
		</g>
		<g>
			<path d="M16.485,120.875c-4.944-2.352-5.736-5.376-5.952-8.472c-0.24-3.36,1.896-6.768,3.888-8.664
				c1.152-1.08,2.4-2.136,3.888-3.264c-0.048-0.84-0.24-1.176-0.336-2.376c-0.024-0.504-0.336-2.856,0.168-5.568
				c0.312-1.608,2.328-5.4,3.72-5.424c1.08-0.024,2.736,4.296,2.784,6.456c0.072,3.336-0.72,4.848-1.704,6.576
				c-0.504,0.864-1.032,1.464-1.584,2.136c-0.576,0.696-1.224,1.104-1.824,1.632c0,0,0.768,4.344,0.792,4.656
				c1.536-0.192,3.408,0.36,4.08,0.84c1.704,1.272,2.352,3.024,2.472,4.728c0.216,2.712-1.272,5.568-4.56,6.936
				c0,0,0.504,3.456,0.624,4.176c0.264,1.896,0.216,3.096-0.192,3.864c-0.696,1.296-1.824,2.496-4.008,2.64
				c-1.68,0.096-4.992-0.744-5.16-3.384c-0.096-1.56,0.6-3.24,2.496-3.36c1.152-0.096,2.52,0.864,2.616,2.232
				c0.096,1.176-0.672,2.4-2.664,2.952c0.312,0.432,1.248,0.936,2.592,0.936c1.392,0,2.832-0.936,3.528-2.184
				c0.432-0.816,0.384-2.28,0.216-3.624c-0.072-0.456-0.648-4.08-0.648-4.08C19.941,121.523,17.493,121.355,16.485,120.875z
				 M16.965,115.187c0.048,1.152,1.008,2.496,1.896,2.952c-0.12,0.072-0.24,0.264-0.24,0.264c-0.984-0.48-1.824-1.272-2.04-1.56
				c-0.696-0.936-0.984-1.464-1.08-2.88c-0.096-1.32,0.624-3.096,2.232-4.344c0.84-0.624,1.248-0.768,1.968-0.936l-0.72-4.344
				c-0.744,0.432-3.816,2.904-5.112,4.92c-1.152,1.8-1.848,3.24-1.704,5.016c0.288,4.008,4.68,7.296,9.432,6.168
				c0,0-1.416-8.52-1.392-8.52C17.589,112.019,16.893,114.035,16.965,115.187z M18.909,99.971c2.088-1.632,4.92-4.704,4.752-7.08
				c-0.048-0.744-0.36-2.088-1.44-2.064C19.749,90.851,18.357,96.011,18.909,99.971z M22.173,120.251
				c2.76-0.936,2.88-3.312,2.784-4.728c-0.096-1.176-0.624-3.816-4.128-3.648L22.173,120.251z"/>
		</g>
		<g>
			<path d="M111.238,114.638c2.664,0.024,5.184,1.032,5.376,3.264c0.144,1.632-2.016,3.12-4.68,3.12
				c-2.688-0.024-5.184-1.008-5.4-3.24C106.39,116.125,108.574,114.638,111.238,114.638z M111.886,120.47
				c1.152,0,1.896-1.104,1.776-1.992c-0.264-1.752-0.864-3.168-2.448-3.168c-1.152,0-1.824,1.128-1.68,2.016
				C109.798,119.078,110.302,120.47,111.886,120.47z"/>
		</g>
		<g>
			<path d="M83.238,117.638c2.664,0.024,5.184,1.032,5.376,3.264c0.144,1.632-2.016,3.12-4.68,3.12
				c-2.688-0.024-5.184-1.008-5.4-3.24C78.39,119.126,80.574,117.638,83.238,117.638z M83.886,123.47
				c1.152,0,1.896-1.104,1.776-1.992c-0.264-1.752-0.864-3.168-2.448-3.168c-1.152,0-1.824,1.128-1.68,2.016
				C81.798,122.078,82.302,123.47,83.886,123.47z"/>
		</g>
		<g>
			<path d="M209.903,99.638c2.664,0.024,5.184,1.032,5.376,3.264c0.144,1.632-2.016,3.12-4.68,3.12
				c-2.688-0.024-5.184-1.008-5.4-3.24C205.055,101.126,207.239,99.638,209.903,99.638z M210.551,105.47
				c1.152,0,1.896-1.104,1.776-1.992c-0.264-1.752-0.864-3.168-2.448-3.168c-1.152,0-1.824,1.128-1.68,2.016
				C208.463,104.078,208.967,105.47,210.551,105.47z"/>
		</g>
		<g>
			<path d="M3.735,82.172c0.409,0.3,0.995,0.528,1.624,0.528c0.933,0,1.478-0.552,1.478-1.38c0-0.744-0.377-1.188-1.331-1.596
				c-1.152-0.48-1.865-1.176-1.865-2.304c0-1.26,0.912-2.196,2.284-2.196c0.712,0,1.247,0.192,1.551,0.396l-0.251,0.852
				c-0.22-0.156-0.692-0.384-1.331-0.384c-0.964,0-1.331,0.66-1.331,1.212c0,0.756,0.43,1.128,1.404,1.56
				c1.194,0.54,1.792,1.188,1.792,2.376c0,1.248-0.796,2.34-2.462,2.34c-0.681,0-1.425-0.24-1.802-0.528L3.735,82.172z"/>
			<path d="M12.609,82.052c0,0.504,0.021,0.996,0.073,1.392h-0.828l-0.083-0.732H11.74c-0.272,0.456-0.828,0.864-1.551,0.864
				c-1.027,0-1.551-0.828-1.551-1.668c0-1.404,1.09-2.172,3.049-2.16v-0.12c0-0.48-0.115-1.356-1.153-1.344
				c-0.482,0-0.974,0.156-1.331,0.432l-0.209-0.708c0.419-0.3,1.037-0.504,1.676-0.504c1.562,0,1.938,1.212,1.938,2.376V82.052z
				 M11.708,80.48c-1.006-0.024-2.148,0.18-2.148,1.308c0,0.696,0.398,1.008,0.859,1.008c0.671,0,1.101-0.48,1.247-0.972
				c0.031-0.108,0.042-0.228,0.042-0.336V80.48z"/>
			<path d="M14.087,79.208c0-0.612-0.021-1.092-0.042-1.572h0.807l0.042,0.936h0.032c0.283-0.552,0.754-1.068,1.603-1.068
				c0.681,0,1.205,0.48,1.425,1.164h0.021c0.157-0.336,0.367-0.576,0.576-0.756c0.304-0.264,0.629-0.408,1.111-0.408
				c0.681,0,1.676,0.504,1.676,2.52v3.42h-0.901v-3.288c0-1.128-0.367-1.788-1.1-1.788c-0.535,0-0.933,0.444-1.1,0.948
				c-0.042,0.156-0.074,0.348-0.074,0.528v3.6h-0.901v-3.48c0-0.936-0.356-1.596-1.058-1.596c-0.566,0-0.996,0.528-1.142,1.056
				c-0.053,0.156-0.074,0.336-0.074,0.516v3.504h-0.901V79.208z"/>
			<path d="M23.35,80.72c0.021,1.428,0.807,2.016,1.729,2.016c0.66,0,1.069-0.132,1.404-0.288l0.167,0.744
				c-0.325,0.168-0.891,0.372-1.697,0.372c-1.551,0-2.494-1.188-2.494-2.928c0-1.764,0.911-3.144,2.389-3.144
				c1.656,0,2.085,1.668,2.085,2.736c0,0.216-0.01,0.384-0.031,0.504L23.35,80.72z M26.042,79.964
				c0.011-0.66-0.241-1.716-1.268-1.716c-0.943,0-1.341,0.984-1.415,1.716H26.042z"/>
			<path d="M30.212,82.172c0.409,0.3,0.995,0.528,1.624,0.528c0.933,0,1.478-0.552,1.478-1.38c0-0.744-0.377-1.188-1.331-1.596
				c-1.152-0.48-1.865-1.176-1.865-2.304c0-1.26,0.912-2.196,2.284-2.196c0.712,0,1.247,0.192,1.551,0.396l-0.251,0.852
				c-0.22-0.156-0.692-0.384-1.331-0.384c-0.964,0-1.331,0.66-1.331,1.212c0,0.756,0.43,1.128,1.404,1.56
				c1.194,0.54,1.792,1.188,1.792,2.376c0,1.248-0.796,2.34-2.462,2.34c-0.681,0-1.425-0.24-1.802-0.528L30.212,82.172z"/>
			<path d="M39.077,83.24c-0.241,0.132-0.775,0.336-1.457,0.336c-1.53,0-2.525-1.188-2.525-2.976c0-1.788,1.068-3.096,2.724-3.096
				c0.545,0,1.027,0.156,1.278,0.312l-0.209,0.804c-0.22-0.132-0.566-0.276-1.069-0.276c-1.163,0-1.792,0.996-1.792,2.208
				c0,1.344,0.754,2.172,1.761,2.172c0.523,0,0.87-0.144,1.131-0.276L39.077,83.24z"/>
			<path d="M43.739,82.052c0,0.504,0.021,0.996,0.073,1.392h-0.828l-0.084-0.732H42.87c-0.272,0.456-0.828,0.864-1.551,0.864
				c-1.027,0-1.551-0.828-1.551-1.668c0-1.404,1.09-2.172,3.049-2.16v-0.12c0-0.48-0.115-1.356-1.153-1.344
				c-0.482,0-0.975,0.156-1.331,0.432l-0.209-0.708c0.419-0.3,1.037-0.504,1.676-0.504c1.561,0,1.938,1.212,1.938,2.376V82.052z
				 M42.838,80.48c-1.006-0.024-2.148,0.18-2.148,1.308c0,0.696,0.398,1.008,0.859,1.008c0.67,0,1.1-0.48,1.247-0.972
				c0.031-0.108,0.042-0.228,0.042-0.336V80.48z"/>
			<path d="M45.217,74.924h0.922v8.52h-0.922V74.924z"/>
			<path d="M48.192,80.72c0.021,1.428,0.807,2.016,1.729,2.016c0.66,0,1.068-0.132,1.404-0.288l0.167,0.744
				c-0.325,0.168-0.891,0.372-1.697,0.372c-1.551,0-2.494-1.188-2.494-2.928c0-1.764,0.912-3.144,2.389-3.144
				c1.656,0,2.085,1.668,2.085,2.736c0,0.216-0.011,0.384-0.032,0.504L48.192,80.72z M50.885,79.964
				c0.01-0.66-0.241-1.716-1.268-1.716c-0.943,0-1.341,0.984-1.415,1.716H50.885z"/>
			<path d="M57.13,75.116c-0.765,1.188-1.31,2.736-1.31,4.92c0,2.136,0.576,3.66,1.31,4.86h-0.712
				c-0.66-0.996-1.373-2.532-1.373-4.872c0.01-2.352,0.712-3.9,1.373-4.908H57.13z"/>
			<path d="M58.115,79.208c0-0.612-0.01-1.092-0.042-1.572h0.817l0.052,0.948h0.021c0.251-0.54,0.838-1.08,1.677-1.08
				c0.702,0,1.792,0.48,1.792,2.472v3.468H61.51v-3.348c0-0.936-0.304-1.728-1.174-1.728c-0.597,0-1.069,0.492-1.236,1.08
				c-0.042,0.132-0.063,0.324-0.063,0.492v3.504h-0.922V79.208z"/>
			<path d="M65.994,83.576c-1.362,0-2.431-1.152-2.431-2.988c0-1.944,1.122-3.084,2.515-3.084c1.456,0,2.441,1.212,2.441,2.976
				c0,2.16-1.31,3.096-2.515,3.096H65.994z M66.025,82.784c0.88,0,1.541-0.948,1.541-2.268c0-0.984-0.43-2.22-1.52-2.22
				c-1.079,0-1.551,1.152-1.551,2.256c0,1.272,0.629,2.232,1.52,2.232H66.025z"/>
			<path d="M70.793,76.244v1.392h1.32v0.804h-1.32v3.132c0,0.72,0.178,1.128,0.691,1.128c0.251,0,0.398-0.024,0.535-0.072
				l0.042,0.804c-0.178,0.072-0.461,0.144-0.817,0.144c-0.43,0-0.775-0.168-0.996-0.444c-0.251-0.324-0.356-0.84-0.356-1.524V78.44
				h-0.786v-0.804h0.786v-1.068L70.793,76.244z"/>
			<path d="M76.482,76.244v1.392h1.32v0.804h-1.32v3.132c0,0.72,0.178,1.128,0.691,1.128c0.251,0,0.398-0.024,0.535-0.072
				l0.042,0.804c-0.178,0.072-0.461,0.144-0.817,0.144c-0.43,0-0.775-0.168-0.996-0.444c-0.251-0.324-0.356-0.84-0.356-1.524V78.44
				h-0.786v-0.804h0.786v-1.068L76.482,76.244z"/>
			<path d="M78.851,79.448c0-0.684-0.011-1.272-0.042-1.812h0.807l0.042,1.14h0.031c0.23-0.78,0.796-1.272,1.415-1.272
				c0.094,0,0.168,0.012,0.251,0.036v0.984C81.25,78.512,81.155,78.5,81.03,78.5c-0.649,0-1.111,0.564-1.236,1.344
				c-0.021,0.156-0.032,0.324-0.032,0.504v3.096H78.84L78.851,79.448z"/>
			<path d="M85.776,82.052c0,0.504,0.021,0.996,0.073,1.392h-0.828l-0.084-0.732h-0.031c-0.272,0.456-0.828,0.864-1.551,0.864
				c-1.027,0-1.551-0.828-1.551-1.668c0-1.404,1.09-2.172,3.049-2.16v-0.12c0-0.48-0.116-1.356-1.153-1.344
				c-0.482,0-0.975,0.156-1.331,0.432l-0.209-0.708c0.419-0.3,1.037-0.504,1.676-0.504c1.561,0,1.938,1.212,1.938,2.376V82.052z
				 M84.875,80.48c-1.006-0.024-2.148,0.18-2.148,1.308c0,0.696,0.398,1.008,0.859,1.008c0.67,0,1.1-0.48,1.247-0.972
				c0.031-0.108,0.042-0.228,0.042-0.336V80.48z"/>
			<path d="M87.253,79.208c0-0.612-0.01-1.092-0.042-1.572h0.817l0.053,0.948h0.021c0.251-0.54,0.838-1.08,1.676-1.08
				c0.702,0,1.792,0.48,1.792,2.472v3.468h-0.922v-3.348c0-0.936-0.304-1.728-1.173-1.728c-0.597,0-1.069,0.492-1.236,1.08
				c-0.042,0.132-0.063,0.324-0.063,0.492v3.504h-0.922V79.208z"/>
			<path d="M92.943,82.376c0.283,0.192,0.765,0.408,1.226,0.408c0.66,0,0.975-0.372,0.975-0.864c0-0.504-0.262-0.78-0.933-1.068
				c-0.922-0.384-1.352-0.948-1.352-1.644c0-0.936,0.67-1.704,1.75-1.704c0.513,0,0.964,0.156,1.236,0.36l-0.22,0.756
				c-0.199-0.132-0.566-0.336-1.037-0.336c-0.545,0-0.838,0.36-0.838,0.792c0,0.492,0.293,0.708,0.954,0.996
				c0.87,0.372,1.331,0.876,1.331,1.752c0,1.032-0.702,1.752-1.886,1.752c-0.555,0-1.069-0.168-1.425-0.408L92.943,82.376z"/>
			<path d="M97.218,79.532c0-0.744-0.011-1.344-0.042-1.896h0.828l0.052,0.996h0.021c0.367-0.72,0.975-1.128,1.792-1.128
				c1.236,0,2.158,1.188,2.158,2.952c0,2.088-1.121,3.12-2.305,3.12c-0.681,0-1.257-0.336-1.561-0.912H98.14v3.156h-0.922V79.532z
				 M98.14,81.08c0,0.144,0.011,0.3,0.042,0.432c0.157,0.732,0.723,1.236,1.373,1.236c0.975,0,1.54-0.912,1.54-2.244
				c0-1.164-0.523-2.16-1.498-2.16c-0.629,0-1.226,0.504-1.404,1.296c-0.021,0.144-0.052,0.3-0.052,0.432V81.08z"/>
			<path d="M105.254,83.576c-1.362,0-2.431-1.152-2.431-2.988c0-1.944,1.121-3.084,2.515-3.084c1.457,0,2.441,1.212,2.441,2.976
				c0,2.16-1.31,3.096-2.515,3.096H105.254z M105.286,82.784c0.88,0,1.54-0.948,1.54-2.268c0-0.984-0.43-2.22-1.52-2.22
				c-1.079,0-1.55,1.152-1.55,2.256c0,1.272,0.628,2.232,1.519,2.232H105.286z"/>
			<path d="M108.817,82.376c0.283,0.192,0.765,0.408,1.226,0.408c0.66,0,0.975-0.372,0.975-0.864c0-0.504-0.262-0.78-0.933-1.068
				c-0.922-0.384-1.352-0.948-1.352-1.644c0-0.936,0.671-1.704,1.75-1.704c0.514,0,0.964,0.156,1.236,0.36l-0.22,0.756
				c-0.199-0.132-0.566-0.336-1.038-0.336c-0.545,0-0.838,0.36-0.838,0.792c0,0.492,0.293,0.708,0.954,0.996
				c0.87,0.372,1.331,0.876,1.331,1.752c0,1.032-0.702,1.752-1.886,1.752c-0.555,0-1.069-0.168-1.425-0.408L108.817,82.376z"/>
			<path d="M113.616,80.72c0.021,1.428,0.807,2.016,1.729,2.016c0.66,0,1.069-0.132,1.404-0.288l0.167,0.744
				c-0.325,0.168-0.891,0.372-1.698,0.372c-1.55,0-2.494-1.188-2.494-2.928c0-1.764,0.912-3.144,2.389-3.144
				c1.655,0,2.085,1.668,2.085,2.736c0,0.216-0.01,0.384-0.031,0.504L113.616,80.72z M116.309,79.964
				c0.011-0.66-0.241-1.716-1.268-1.716c-0.943,0-1.341,0.984-1.415,1.716H116.309z"/>
			<path d="M122.721,74.924v7.02c0,0.516,0.01,1.104,0.042,1.5h-0.828l-0.042-1.008h-0.021c-0.283,0.648-0.891,1.14-1.718,1.14
				c-1.226,0-2.18-1.188-2.18-2.952c-0.01-1.944,1.048-3.12,2.274-3.12c0.786,0,1.31,0.42,1.53,0.876h0.021v-3.456H122.721z
				 M121.799,80c0-0.144-0.011-0.312-0.042-0.456c-0.136-0.66-0.639-1.212-1.331-1.212c-0.953,0-1.519,0.96-1.519,2.232
				c0,1.188,0.513,2.16,1.498,2.16c0.619,0,1.184-0.48,1.352-1.26c0.031-0.144,0.042-0.288,0.042-0.456V80z"/>
			<path d="M123.695,84.896c0.734-1.188,1.31-2.736,1.31-4.896c0-2.16-0.566-3.684-1.31-4.884h0.713
				c0.66,0.984,1.373,2.532,1.373,4.884c-0.011,2.352-0.712,3.876-1.373,4.896H123.695z"/>
			<path d="M129.532,83.444V78.44h-0.702v-0.804h0.702V77.36c0-0.816,0.167-1.56,0.597-2.028c0.346-0.384,0.807-0.54,1.226-0.54
				c0.335,0,0.607,0.084,0.786,0.168l-0.115,0.816c-0.146-0.072-0.325-0.132-0.597-0.132c-0.775,0-0.985,0.792-0.985,1.68v0.312
				h1.226v0.804h-1.215v5.004H129.532z"/>
			<path d="M132.518,79.448c0-0.684-0.01-1.272-0.042-1.812h0.807l0.042,1.14h0.031c0.23-0.78,0.796-1.272,1.415-1.272
				c0.094,0,0.168,0.012,0.251,0.036v0.984c-0.104-0.012-0.199-0.024-0.325-0.024c-0.649,0-1.111,0.564-1.236,1.344
				c-0.021,0.156-0.032,0.324-0.032,0.504v3.096h-0.922L132.518,79.448z"/>
			<path d="M137.935,83.576c-1.362,0-2.431-1.152-2.431-2.988c0-1.944,1.121-3.084,2.515-3.084c1.457,0,2.441,1.212,2.441,2.976
				c0,2.16-1.31,3.096-2.515,3.096H137.935z M137.966,82.784c0.88,0,1.541-0.948,1.541-2.268c0-0.984-0.43-2.22-1.52-2.22
				c-1.079,0-1.551,1.152-1.551,2.256c0,1.272,0.629,2.232,1.52,2.232H137.966z"/>
			<path d="M141.623,79.208c0-0.612-0.021-1.092-0.042-1.572h0.807l0.042,0.936h0.031c0.283-0.552,0.754-1.068,1.603-1.068
				c0.681,0,1.205,0.48,1.425,1.164h0.021c0.157-0.336,0.367-0.576,0.576-0.756c0.304-0.264,0.628-0.408,1.11-0.408
				c0.681,0,1.677,0.504,1.677,2.52v3.42h-0.901v-3.288c0-1.128-0.367-1.788-1.1-1.788c-0.534,0-0.933,0.444-1.1,0.948
				c-0.042,0.156-0.073,0.348-0.073,0.528v3.6h-0.901v-3.48c0-0.936-0.356-1.596-1.058-1.596c-0.566,0-0.996,0.528-1.142,1.056
				c-0.052,0.156-0.073,0.336-0.073,0.516v3.504h-0.901V79.208z"/>
			<path d="M157.539,83.192c-0.325,0.192-1.006,0.384-1.865,0.384c-1.991,0-3.479-1.44-3.479-4.104c0-2.544,1.499-4.248,3.688-4.248
				c0.87,0,1.436,0.216,1.676,0.36l-0.23,0.852c-0.335-0.192-0.828-0.336-1.415-0.336c-1.655,0-2.756,1.212-2.756,3.336
				c0,1.992,0.996,3.252,2.704,3.252c0.566,0,1.131-0.132,1.498-0.336L157.539,83.192z"/>
			<path d="M161.992,76.244v1.392h1.32v0.804h-1.32v3.132c0,0.72,0.178,1.128,0.691,1.128c0.251,0,0.398-0.024,0.534-0.072
				l0.042,0.804c-0.178,0.072-0.461,0.144-0.817,0.144c-0.429,0-0.775-0.168-0.995-0.444c-0.251-0.324-0.356-0.84-0.356-1.524V78.44
				h-0.786v-0.804h0.786v-1.068L161.992,76.244z"/>
			<path d="M166.351,83.576c-1.362,0-2.431-1.152-2.431-2.988c0-1.944,1.121-3.084,2.515-3.084c1.457,0,2.441,1.212,2.441,2.976
				c0,2.16-1.31,3.096-2.515,3.096H166.351z M166.382,82.784c0.88,0,1.54-0.948,1.54-2.268c0-0.984-0.429-2.22-1.519-2.22
				c-1.079,0-1.551,1.152-1.551,2.256c0,1.272,0.629,2.232,1.52,2.232H166.382z"/>
			<path d="M177.216,83.192c-0.325,0.192-1.006,0.384-1.865,0.384c-1.991,0-3.479-1.44-3.479-4.104c0-2.544,1.499-4.248,3.688-4.248
				c0.87,0,1.436,0.216,1.676,0.36l-0.23,0.852c-0.335-0.192-0.828-0.336-1.415-0.336c-1.655,0-2.756,1.212-2.756,3.336
				c0,1.992,0.996,3.252,2.704,3.252c0.566,0,1.131-0.132,1.498-0.336L177.216,83.192z"/>
			<path d="M180.999,76.568c-0.346,0-0.576-0.312-0.576-0.684s0.241-0.672,0.597-0.672c0.356,0,0.587,0.3,0.587,0.672
				s-0.23,0.684-0.597,0.684H180.999z M180.559,83.444v-5.808h0.922v5.808H180.559z"/>
			<path d="M183.01,79.208c0-0.612-0.01-1.092-0.042-1.572h0.817l0.053,0.948h0.021c0.251-0.54,0.838-1.08,1.676-1.08
				c0.702,0,1.792,0.48,1.792,2.472v3.468h-0.922v-3.348c0-0.936-0.304-1.728-1.173-1.728c-0.597,0-1.069,0.492-1.236,1.08
				c-0.042,0.132-0.063,0.324-0.063,0.492v3.504h-0.922V79.208z"/>
			<path d="M188.7,82.376c0.283,0.192,0.765,0.408,1.226,0.408c0.66,0,0.975-0.372,0.975-0.864c0-0.504-0.262-0.78-0.933-1.068
				c-0.922-0.384-1.352-0.948-1.352-1.644c0-0.936,0.67-1.704,1.75-1.704c0.514,0,0.964,0.156,1.237,0.36l-0.22,0.756
				c-0.199-0.132-0.566-0.336-1.038-0.336c-0.544,0-0.838,0.36-0.838,0.792c0,0.492,0.293,0.708,0.954,0.996
				c0.87,0.372,1.331,0.876,1.331,1.752c0,1.032-0.702,1.752-1.886,1.752c-0.555,0-1.069-0.168-1.425-0.408L188.7,82.376z"/>
			<path d="M194.085,76.244v1.392h1.32v0.804h-1.32v3.132c0,0.72,0.178,1.128,0.692,1.128c0.251,0,0.398-0.024,0.534-0.072
				l0.042,0.804c-0.178,0.072-0.461,0.144-0.817,0.144c-0.43,0-0.775-0.168-0.996-0.444c-0.251-0.324-0.356-0.84-0.356-1.524V78.44
				h-0.786v-0.804h0.786v-1.068L194.085,76.244z"/>
			<path d="M196.904,80.72c0.021,1.428,0.807,2.016,1.729,2.016c0.66,0,1.069-0.132,1.404-0.288l0.167,0.744
				c-0.325,0.168-0.891,0.372-1.697,0.372c-1.551,0-2.494-1.188-2.494-2.928c0-1.764,0.912-3.144,2.389-3.144
				c1.656,0,2.085,1.668,2.085,2.736c0,0.216-0.011,0.384-0.032,0.504L196.904,80.72z M199.597,79.964
				c0.01-0.66-0.241-1.716-1.268-1.716c-0.943,0-1.341,0.984-1.415,1.716H199.597z"/>
			<path d="M205.203,82.052c0,0.504,0.021,0.996,0.073,1.392h-0.828l-0.084-0.732h-0.031c-0.272,0.456-0.828,0.864-1.551,0.864
				c-1.027,0-1.551-0.828-1.551-1.668c0-1.404,1.09-2.172,3.049-2.16v-0.12c0-0.48-0.115-1.356-1.153-1.344
				c-0.482,0-0.975,0.156-1.331,0.432l-0.209-0.708c0.419-0.3,1.037-0.504,1.676-0.504c1.561,0,1.938,1.212,1.938,2.376V82.052z
				 M204.302,80.48c-1.006-0.024-2.148,0.18-2.148,1.308c0,0.696,0.398,1.008,0.859,1.008c0.67,0,1.1-0.48,1.247-0.972
				c0.031-0.108,0.042-0.228,0.042-0.336V80.48z"/>
			<path d="M211.06,74.924v7.02c0,0.516,0.011,1.104,0.042,1.5h-0.828l-0.042-1.008h-0.021c-0.283,0.648-0.891,1.14-1.718,1.14
				c-1.226,0-2.179-1.188-2.179-2.952c-0.011-1.944,1.047-3.12,2.273-3.12c0.786,0,1.31,0.42,1.53,0.876h0.021v-3.456H211.06z
				 M210.138,80c0-0.144-0.01-0.312-0.042-0.456c-0.136-0.66-0.639-1.212-1.331-1.212c-0.954,0-1.52,0.96-1.52,2.232
				c0,1.188,0.514,2.16,1.499,2.16c0.618,0,1.184-0.48,1.352-1.26c0.032-0.144,0.042-0.288,0.042-0.456V80z"/>
			<path d="M216.875,83.576c-1.362,0-2.431-1.152-2.431-2.988c0-1.944,1.121-3.084,2.515-3.084c1.456,0,2.441,1.212,2.441,2.976
				c0,2.16-1.31,3.096-2.515,3.096H216.875z M216.906,82.784c0.88,0,1.541-0.948,1.541-2.268c0-0.984-0.43-2.22-1.52-2.22
				c-1.079,0-1.551,1.152-1.551,2.256c0,1.272,0.629,2.232,1.52,2.232H216.906z"/>
			<path d="M220.647,83.444V78.44h-0.702v-0.804h0.702V77.36c0-0.816,0.167-1.56,0.597-2.028c0.346-0.384,0.807-0.54,1.226-0.54
				c0.335,0,0.607,0.084,0.786,0.168l-0.115,0.816c-0.146-0.072-0.325-0.132-0.597-0.132c-0.775,0-0.985,0.792-0.985,1.68v0.312
				h1.226v0.804h-1.216v5.004H220.647z"/>
			<path d="M229.521,79.652h-2.734v2.916h3.06v0.876h-3.982v-8.088h3.825v0.876h-2.902v2.556h2.734V79.652z"/>
			<path d="M238.773,76.244v1.392h1.32v0.804h-1.32v3.132c0,0.72,0.178,1.128,0.691,1.128c0.251,0,0.398-0.024,0.534-0.072
				l0.042,0.804c-0.178,0.072-0.461,0.144-0.817,0.144c-0.43,0-0.775-0.168-0.995-0.444c-0.252-0.324-0.356-0.84-0.356-1.524V78.44
				h-0.786v-0.804h0.786v-1.068L238.773,76.244z"/>
			<path d="M243.132,83.576c-1.362,0-2.431-1.152-2.431-2.988c0-1.944,1.121-3.084,2.515-3.084c1.457,0,2.441,1.212,2.441,2.976
				c0,2.16-1.31,3.096-2.515,3.096H243.132z M243.163,82.784c0.881,0,1.541-0.948,1.541-2.268c0-0.984-0.43-2.22-1.52-2.22
				c-1.079,0-1.551,1.152-1.551,2.256c0,1.272,0.629,2.232,1.52,2.232H243.163z"/>
			<path d="M252.72,79.652h-2.735v2.916h3.06v0.876h-3.981v-8.088h3.824v0.876h-2.902v2.556h2.735V79.652z"/>
		</g>
		<g>
			<path d="M4.659,150.566l-0.733,2.544H2.982l2.4-8.088h1.1l2.41,8.088H7.917l-0.754-2.544H4.659z M6.974,149.75l-0.702-2.328
				c-0.147-0.528-0.251-1.008-0.356-1.476H5.885c-0.095,0.468-0.21,0.972-0.346,1.464l-0.691,2.34H6.974z"/>
			<path d="M14.152,144.59v7.02c0,0.516,0.01,1.104,0.042,1.5h-0.828l-0.042-1.008h-0.021c-0.283,0.648-0.891,1.14-1.719,1.14
				c-1.226,0-2.179-1.188-2.179-2.952c-0.011-1.944,1.048-3.12,2.274-3.12c0.786,0,1.31,0.42,1.53,0.876h0.021v-3.456H14.152z
				 M13.229,149.667c0-0.144-0.01-0.312-0.042-0.456c-0.136-0.66-0.639-1.212-1.331-1.212c-0.953,0-1.519,0.96-1.519,2.232
				c0,1.188,0.513,2.16,1.498,2.16c0.618,0,1.184-0.48,1.352-1.26c0.031-0.144,0.042-0.288,0.042-0.456V149.667z"/>
			<path d="M20.062,144.59v7.02c0,0.516,0.01,1.104,0.042,1.5h-0.828l-0.042-1.008h-0.021c-0.283,0.648-0.891,1.14-1.718,1.14
				c-1.226,0-2.179-1.188-2.179-2.952c-0.011-1.944,1.048-3.12,2.273-3.12c0.786,0,1.31,0.42,1.53,0.876h0.021v-3.456H20.062z
				 M19.139,149.667c0-0.144-0.01-0.312-0.042-0.456c-0.136-0.66-0.639-1.212-1.331-1.212c-0.954,0-1.519,0.96-1.519,2.232
				c0,1.188,0.513,2.16,1.498,2.16c0.618,0,1.184-0.48,1.352-1.26c0.032-0.144,0.042-0.288,0.042-0.456V149.667z"/>
			<path d="M27.385,151.718c0,0.504,0.021,0.996,0.073,1.392h-0.828l-0.084-0.732h-0.031c-0.272,0.456-0.828,0.864-1.551,0.864
				c-1.027,0-1.551-0.828-1.551-1.668c0-1.404,1.09-2.172,3.049-2.16v-0.12c0-0.48-0.115-1.356-1.153-1.344
				c-0.482,0-0.974,0.156-1.331,0.432l-0.209-0.708c0.419-0.3,1.037-0.504,1.676-0.504c1.562,0,1.938,1.212,1.938,2.376V151.718z
				 M26.484,150.146c-1.006-0.024-2.148,0.18-2.148,1.308c0,0.696,0.398,1.008,0.859,1.008c0.671,0,1.1-0.48,1.247-0.972
				c0.031-0.108,0.042-0.228,0.042-0.336V150.146z"/>
			<path d="M28.863,148.875c0-0.612-0.011-1.092-0.042-1.572h0.817l0.052,0.948h0.021c0.251-0.54,0.838-1.08,1.676-1.08
				c0.702,0,1.792,0.48,1.792,2.472v3.468h-0.922v-3.348c0-0.936-0.304-1.728-1.173-1.728c-0.597,0-1.069,0.492-1.236,1.08
				c-0.042,0.132-0.063,0.324-0.063,0.492v3.504h-0.922V148.875z"/>
			<path d="M36.92,145.022h3.804v0.876h-2.881v2.688h2.661v0.864h-2.661v3.66H36.92V145.022z"/>
			<path d="M51.274,153.242c-0.356,0-0.607-0.324-0.607-0.744c0-0.444,0.262-0.756,0.618-0.756c0.377,0,0.618,0.312,0.618,0.756
				c0,0.42-0.241,0.744-0.618,0.744H51.274z M51.285,149.006c-0.356,0-0.608-0.324-0.608-0.744c0-0.444,0.262-0.756,0.618-0.756
				c0.377,0,0.618,0.312,0.618,0.756c0,0.42-0.241,0.744-0.618,0.744H51.285z"/>
			<path d="M55.738,150.566l-0.733,2.544h-0.943l2.399-8.088h1.1l2.41,8.088h-0.975l-0.754-2.544H55.738z M58.054,149.75
				l-0.702-2.328c-0.146-0.528-0.251-1.008-0.356-1.476h-0.031c-0.094,0.468-0.209,0.972-0.346,1.464l-0.691,2.34H58.054z"/>
			<path d="M66.813,152.906c-0.241,0.132-0.775,0.336-1.457,0.336c-1.53,0-2.525-1.188-2.525-2.976c0-1.788,1.069-3.096,2.724-3.096
				c0.545,0,1.027,0.156,1.278,0.312l-0.209,0.804c-0.22-0.132-0.566-0.276-1.069-0.276c-1.163,0-1.792,0.996-1.792,2.208
				c0,1.344,0.754,2.172,1.76,2.172c0.524,0,0.87-0.144,1.131-0.276L66.813,152.906z"/>
			<path d="M69.894,153.242c-1.362,0-2.431-1.152-2.431-2.988c0-1.944,1.121-3.084,2.515-3.084c1.457,0,2.441,1.212,2.441,2.976
				c0,2.16-1.31,3.096-2.515,3.096H69.894z M69.925,152.45c0.88,0,1.54-0.948,1.54-2.268c0-0.984-0.43-2.22-1.519-2.22
				c-1.08,0-1.551,1.152-1.551,2.256c0,1.272,0.628,2.232,1.519,2.232H69.925z"/>
			<path d="M73.582,148.875c0-0.612-0.021-1.092-0.042-1.572h0.807l0.042,0.936h0.031c0.283-0.552,0.754-1.068,1.604-1.068
				c0.681,0,1.205,0.48,1.425,1.164h0.021c0.157-0.336,0.367-0.576,0.576-0.756c0.304-0.264,0.629-0.408,1.111-0.408
				c0.681,0,1.676,0.504,1.676,2.52v3.42h-0.901v-3.288c0-1.128-0.367-1.788-1.1-1.788c-0.535,0-0.933,0.444-1.101,0.948
				c-0.042,0.156-0.073,0.348-0.073,0.528v3.6h-0.901v-3.48c0-0.936-0.356-1.596-1.059-1.596c-0.565,0-0.995,0.528-1.142,1.056
				c-0.052,0.156-0.073,0.336-0.073,0.516v3.504h-0.901V148.875z"/>
			<path d="M82.32,148.875c0-0.612-0.021-1.092-0.042-1.572h0.807l0.042,0.936h0.031c0.283-0.552,0.754-1.068,1.603-1.068
				c0.681,0,1.205,0.48,1.425,1.164h0.021c0.157-0.336,0.367-0.576,0.576-0.756c0.304-0.264,0.629-0.408,1.111-0.408
				c0.681,0,1.676,0.504,1.676,2.52v3.42H88.67v-3.288c0-1.128-0.367-1.788-1.101-1.788c-0.534,0-0.932,0.444-1.1,0.948
				c-0.042,0.156-0.073,0.348-0.073,0.528v3.6h-0.901v-3.48c0-0.936-0.356-1.596-1.058-1.596c-0.566,0-0.995,0.528-1.142,1.056
				c-0.052,0.156-0.073,0.336-0.073,0.516v3.504H82.32V148.875z"/>
			<path d="M93.124,153.242c-1.362,0-2.431-1.152-2.431-2.988c0-1.944,1.121-3.084,2.515-3.084c1.457,0,2.441,1.212,2.441,2.976
				c0,2.16-1.31,3.096-2.515,3.096H93.124z M93.155,152.45c0.88,0,1.54-0.948,1.54-2.268c0-0.984-0.429-2.22-1.519-2.22
				c-1.079,0-1.551,1.152-1.551,2.256c0,1.272,0.629,2.232,1.52,2.232H93.155z"/>
			<path d="M96.812,148.875c0-0.612-0.01-1.092-0.042-1.572h0.817l0.052,0.948h0.021c0.251-0.54,0.838-1.08,1.677-1.08
				c0.702,0,1.792,0.48,1.792,2.472v3.468h-0.922v-3.348c0-0.936-0.304-1.728-1.174-1.728c-0.597,0-1.068,0.492-1.236,1.08
				c-0.042,0.132-0.063,0.324-0.063,0.492v3.504h-0.922V148.875z"/>
			<path d="M102.627,144.59h0.922v8.52h-0.922V144.59z"/>
			<path d="M105.414,147.302l1.1,3.432c0.125,0.384,0.251,0.84,0.335,1.188h0.021c0.094-0.348,0.199-0.792,0.325-1.212l1.006-3.408
				h0.974l-1.383,4.14c-0.66,1.992-1.111,3.012-1.739,3.648c-0.461,0.444-0.901,0.624-1.132,0.672l-0.23-0.888
				c0.23-0.072,0.534-0.24,0.807-0.516c0.251-0.228,0.556-0.636,0.775-1.176c0.042-0.108,0.073-0.18,0.073-0.252
				c0-0.06-0.021-0.144-0.073-0.264l-1.865-5.364H105.414z"/>
			<path d="M116.479,151.526c0,0.6,0.01,1.128,0.042,1.584h-0.817l-0.052-0.948h-0.021c-0.23,0.468-0.775,1.08-1.677,1.08
				c-0.796,0-1.75-0.516-1.75-2.544v-3.396h0.922v3.204c0,1.104,0.304,1.86,1.132,1.86c0.618,0,1.047-0.492,1.215-0.972
				c0.052-0.144,0.084-0.336,0.084-0.54v-3.552h0.922V151.526z"/>
			<path d="M117.882,152.042c0.283,0.192,0.765,0.408,1.226,0.408c0.66,0,0.975-0.372,0.975-0.864c0-0.504-0.262-0.78-0.933-1.068
				c-0.922-0.384-1.352-0.948-1.352-1.644c0-0.936,0.67-1.704,1.75-1.704c0.514,0,0.964,0.156,1.236,0.36l-0.22,0.756
				c-0.199-0.132-0.566-0.336-1.038-0.336c-0.545,0-0.838,0.36-0.838,0.792c0,0.492,0.293,0.708,0.953,0.996
				c0.87,0.372,1.331,0.876,1.331,1.752c0,1.032-0.702,1.752-1.886,1.752c-0.555,0-1.069-0.168-1.425-0.408L117.882,152.042z"/>
			<path d="M122.681,150.386c0.021,1.428,0.807,2.016,1.729,2.016c0.66,0,1.069-0.132,1.404-0.288l0.167,0.744
				c-0.325,0.168-0.891,0.372-1.697,0.372c-1.551,0-2.494-1.188-2.494-2.928c0-1.764,0.912-3.144,2.389-3.144
				c1.656,0,2.085,1.668,2.085,2.736c0,0.216-0.01,0.384-0.031,0.504L122.681,150.386z M125.374,149.63
				c0.011-0.66-0.241-1.716-1.268-1.716c-0.943,0-1.341,0.984-1.415,1.716H125.374z"/>
			<path d="M131.787,144.59v7.02c0,0.516,0.01,1.104,0.042,1.5h-0.828l-0.042-1.008h-0.021c-0.283,0.648-0.891,1.14-1.718,1.14
				c-1.226,0-2.18-1.188-2.18-2.952c-0.01-1.944,1.048-3.12,2.274-3.12c0.786,0,1.31,0.42,1.53,0.876h0.021v-3.456H131.787z
				 M130.865,149.667c0-0.144-0.011-0.312-0.042-0.456c-0.136-0.66-0.639-1.212-1.331-1.212c-0.954,0-1.52,0.96-1.52,2.232
				c0,1.188,0.513,2.16,1.499,2.16c0.618,0,1.184-0.48,1.352-1.26c0.031-0.144,0.042-0.288,0.042-0.456V149.667z"/>
			<path d="M135.569,145.142c0.398-0.108,1.038-0.18,1.666-0.18c0.912,0,1.499,0.18,1.928,0.588
				c0.367,0.312,0.597,0.792,0.597,1.428c0,0.792-0.461,1.476-1.194,1.776v0.036c0.67,0.18,1.456,0.816,1.456,2.016
				c0,0.696-0.241,1.224-0.607,1.62c-0.482,0.516-1.278,0.756-2.431,0.756c-0.628,0-1.11-0.048-1.415-0.096V145.142z
				 M136.48,148.454h0.828c0.953,0,1.519-0.588,1.519-1.368c0-0.936-0.618-1.32-1.54-1.32c-0.419,0-0.66,0.036-0.807,0.072V148.454z
				 M136.48,152.318c0.189,0.036,0.44,0.048,0.765,0.048c0.943,0,1.813-0.396,1.813-1.572c0-1.092-0.828-1.56-1.823-1.56h-0.754
				V152.318z"/>
			<path d="M141.227,144.59h0.922v8.52h-0.922V144.59z"/>
			<path d="M147.922,151.526c0,0.6,0.01,1.128,0.042,1.584h-0.817l-0.052-0.948h-0.021c-0.23,0.468-0.775,1.08-1.677,1.08
				c-0.796,0-1.75-0.516-1.75-2.544v-3.396h0.922v3.204c0,1.104,0.304,1.86,1.132,1.86c0.618,0,1.048-0.492,1.215-0.972
				c0.052-0.144,0.084-0.336,0.084-0.54v-3.552h0.922V151.526z"/>
			<path d="M149.976,150.386c0.021,1.428,0.807,2.016,1.729,2.016c0.66,0,1.068-0.132,1.404-0.288l0.167,0.744
				c-0.325,0.168-0.891,0.372-1.697,0.372c-1.551,0-2.494-1.188-2.494-2.928c0-1.764,0.912-3.144,2.389-3.144
				c1.655,0,2.085,1.668,2.085,2.736c0,0.216-0.011,0.384-0.032,0.504L149.976,150.386z M152.669,149.63
				c0.01-0.66-0.241-1.716-1.268-1.716c-0.943,0-1.341,0.984-1.415,1.716H152.669z"/>
			<path d="M154.576,152.042c0.283,0.192,0.765,0.408,1.226,0.408c0.66,0,0.975-0.372,0.975-0.864c0-0.504-0.262-0.78-0.933-1.068
				c-0.922-0.384-1.352-0.948-1.352-1.644c0-0.936,0.67-1.704,1.75-1.704c0.514,0,0.964,0.156,1.236,0.36l-0.22,0.756
				c-0.199-0.132-0.566-0.336-1.038-0.336c-0.545,0-0.838,0.36-0.838,0.792c0,0.492,0.293,0.708,0.953,0.996
				c0.87,0.372,1.331,0.876,1.331,1.752c0,1.032-0.702,1.752-1.886,1.752c-0.555,0-1.069-0.168-1.425-0.408L154.576,152.042z"/>
			<path d="M160.988,151.838c0.409,0.3,0.995,0.528,1.624,0.528c0.933,0,1.478-0.552,1.478-1.38c0-0.744-0.377-1.188-1.331-1.596
				c-1.152-0.48-1.865-1.176-1.865-2.304c0-1.26,0.912-2.196,2.284-2.196c0.712,0,1.247,0.192,1.551,0.396l-0.251,0.852
				c-0.22-0.156-0.692-0.384-1.331-0.384c-0.964,0-1.331,0.66-1.331,1.212c0,0.756,0.43,1.128,1.404,1.56
				c1.194,0.54,1.792,1.188,1.792,2.376c0,1.248-0.796,2.34-2.462,2.34c-0.681,0-1.425-0.24-1.802-0.528L160.988,151.838z"/>
			<path d="M169.853,152.906c-0.241,0.132-0.775,0.336-1.457,0.336c-1.53,0-2.525-1.188-2.525-2.976
				c0-1.788,1.068-3.096,2.724-3.096c0.545,0,1.027,0.156,1.278,0.312l-0.209,0.804c-0.22-0.132-0.566-0.276-1.069-0.276
				c-1.163,0-1.792,0.996-1.792,2.208c0,1.344,0.754,2.172,1.76,2.172c0.524,0,0.87-0.144,1.132-0.276L169.853,152.906z"/>
			<path d="M174.515,151.718c0,0.504,0.021,0.996,0.073,1.392h-0.828l-0.084-0.732h-0.031c-0.272,0.456-0.828,0.864-1.551,0.864
				c-1.027,0-1.551-0.828-1.551-1.668c0-1.404,1.09-2.172,3.049-2.16v-0.12c0-0.48-0.115-1.356-1.153-1.344
				c-0.482,0-0.975,0.156-1.331,0.432l-0.209-0.708c0.419-0.3,1.037-0.504,1.676-0.504c1.561,0,1.938,1.212,1.938,2.376V151.718z
				 M173.614,150.146c-1.006-0.024-2.148,0.18-2.148,1.308c0,0.696,0.398,1.008,0.859,1.008c0.67,0,1.1-0.48,1.247-0.972
				c0.031-0.108,0.042-0.228,0.042-0.336V150.146z"/>
			<path d="M175.993,144.59h0.922v8.52h-0.922V144.59z"/>
			<path d="M178.968,150.386c0.021,1.428,0.807,2.016,1.729,2.016c0.66,0,1.068-0.132,1.404-0.288l0.167,0.744
				c-0.325,0.168-0.891,0.372-1.697,0.372c-1.551,0-2.494-1.188-2.494-2.928c0-1.764,0.912-3.144,2.389-3.144
				c1.656,0,2.085,1.668,2.085,2.736c0,0.216-0.011,0.384-0.032,0.504L178.968,150.386z M181.661,149.63
				c0.01-0.66-0.241-1.716-1.268-1.716c-0.943,0-1.341,0.984-1.415,1.716H181.661z"/>
		</g>
		<g>
			<path d="M116.403,189.775v-3.912h0.696v3.672l2.352-0.768v-3.504h0.696v3.288l0.936-0.312v2.496l-0.936,0.312v3.552l0.936-0.288
				v2.472l-0.936,0.312v3.912h-0.696v-3.696l-2.352,0.768v3.552h-0.696v-3.312l-1.032,0.336v-2.496l1.032-0.336v-3.576l-1.032,0.336
				v-2.472L116.403,189.775z M117.099,192.032v3.576l2.352-0.768v-3.576L117.099,192.032z"/>
		</g>
		<g>
			<path d="M128.409,190.637c2.664,0.024,5.184,1.032,5.376,3.264c0.144,1.632-2.016,3.12-4.68,3.12
				c-2.688-0.024-5.184-1.008-5.4-3.24C123.561,192.125,125.745,190.637,128.409,190.637z M129.057,196.469
				c1.152,0,1.896-1.104,1.776-1.992c-0.264-1.752-0.864-3.168-2.448-3.168c-1.152,0-1.824,1.128-1.68,2.016
				C126.969,195.077,127.473,196.469,129.057,196.469z"/>
		</g>
		<g>
			<path d="M43.641,143.712v-2.934h0.522v2.754l1.764-0.576v-2.628h0.522v2.466l0.702-0.234v1.872l-0.702,0.234v2.664l0.702-0.216
				v1.854l-0.702,0.234v2.934h-0.522v-2.772l-1.764,0.576v2.664h-0.522v-2.484l-0.774,0.252V148.5l0.774-0.252v-2.682l-0.774,0.252
				v-1.854L43.641,143.712z M44.163,145.404v2.682l1.764-0.576v-2.682L44.163,145.404z"/>
		</g>
		<g>
			<path d="M107.571,44.971c2.664,0.024,5.184,1.032,5.376,3.264c0.144,1.632-2.016,3.12-4.68,3.12
				c-2.688-0.024-5.184-1.008-5.4-3.24C102.723,46.458,104.907,44.971,107.571,44.971z M108.219,50.803
				c1.152,0,1.896-1.104,1.776-1.992c-0.264-1.752-0.864-3.168-2.448-3.168c-1.152,0-1.824,1.128-1.68,2.016
				C106.131,49.411,106.635,50.803,108.219,50.803z"/>
		</g>
		<g>
			<path d="M255.336,74c0,0.162,0,1.152,0,1.152c0.685-0.612,1.063-0.738,1.818-0.756c0.899-0.018,1.476,0.882,1.494,1.602
				c0.018,0.378-0.09,0.774-0.234,1.08c-0.162,0.396-0.594,0.702-0.882,0.99c-0.324,0.324-2.664,1.926-2.664,1.962V69.393h0.468
				C255.336,69.393,255.354,71.625,255.336,74z M255.534,75.783c-0.234,0.45-0.198,1.224-0.198,1.782v1.548
				c0,0.018,0.648-0.54,1.008-0.882c0.324-0.306,0.576-0.648,0.702-1.188c0.145-0.54,0.09-1.116-0.252-1.494
				C256.561,75.278,255.912,75.063,255.534,75.783z"/>
		</g>
		<g>
			<path d="M232.336,74c0,0.162,0,1.152,0,1.152c0.685-0.612,1.063-0.738,1.818-0.756c0.899-0.018,1.476,0.882,1.494,1.602
				c0.018,0.378-0.09,0.774-0.234,1.08c-0.162,0.396-0.594,0.702-0.882,0.99c-0.324,0.324-2.664,1.926-2.664,1.962V69.393h0.468
				C232.336,69.393,232.354,71.625,232.336,74z M232.534,75.783c-0.234,0.45-0.198,1.224-0.198,1.782v1.548
				c0,0.018,0.648-0.54,1.008-0.882c0.324-0.306,0.576-0.648,0.702-1.188c0.145-0.54,0.09-1.116-0.252-1.494
				C233.561,75.278,232.912,75.063,232.534,75.783z"/>
		</g>
		<g>
			<path d="M141.906,110.304c2.664,0.024,5.184,1.032,5.376,3.264c0.144,1.632-2.016,3.12-4.68,3.12
				c-2.688-0.024-5.184-1.008-5.4-3.24C137.058,111.792,139.242,110.304,141.906,110.304z M142.554,116.136
				c1.152,0,1.896-1.104,1.776-1.992c-0.264-1.752-0.864-3.168-2.448-3.168c-1.152,0-1.824,1.128-1.68,2.016
				C140.466,114.744,140.97,116.136,142.554,116.136z"/>
		</g>
		<g>
			<path d="M68.825,47.605c0,0.216,0,1.536,0,1.536c0.912-0.816,1.416-0.984,2.424-1.008c1.2-0.024,1.968,1.176,1.992,2.136
				c0.024,0.504-0.12,1.032-0.312,1.44c-0.216,0.528-0.792,0.936-1.176,1.32c-0.432,0.432-3.552,2.568-3.552,2.616V41.461h0.624
				C68.825,41.461,68.849,44.438,68.825,47.605z M69.089,49.981c-0.312,0.6-0.264,1.632-0.264,2.376v2.064
				c0,0.024,0.864-0.72,1.344-1.176c0.432-0.408,0.768-0.864,0.936-1.584c0.192-0.72,0.12-1.488-0.336-1.992
				C70.457,49.31,69.593,49.021,69.089,49.981z"/>
		</g>
		<g>
			<g>
				<path d="M44.913,125.475c2.664,0.024,5.184,1.032,5.376,3.264c0.144,1.632-2.016,3.12-4.68,3.12
					c-2.688-0.024-5.184-1.008-5.4-3.24C40.064,126.962,42.249,125.475,44.913,125.475z M45.561,131.307
					c1.152,0,1.896-1.104,1.776-1.992c-0.264-1.752-0.864-3.168-2.448-3.168c-1.152,0-1.824,1.128-1.68,2.016
					C43.473,129.915,43.977,131.307,45.561,131.307z"/>
			</g>
			<path fill="none" stroke="#000000" d="M38.201,129.187h14.666"/>
		</g>
		<g>
			<path d="M161.825,32.605c0,0.216,0,1.536,0,1.536c0.912-0.816,1.416-0.984,2.424-1.008c1.2-0.024,1.968,1.176,1.992,2.136
				c0.024,0.504-0.12,1.032-0.312,1.44c-0.216,0.528-0.792,0.936-1.176,1.32c-0.432,0.432-3.552,2.568-3.552,2.616V26.461h0.624
				C161.825,26.461,161.849,29.438,161.825,32.605z M162.089,34.981c-0.312,0.6-0.264,1.632-0.264,2.376v2.064
				c0,0.024,0.864-0.72,1.344-1.176c0.432-0.408,0.768-0.864,0.936-1.584c0.192-0.72,0.12-1.488-0.336-1.992
				C163.457,34.31,162.593,34.021,162.089,34.981z"/>
		</g>
		<g>
			<path d="M232.492,20.605c0,0.216,0,1.536,0,1.536c0.912-0.816,1.416-0.984,2.424-1.008c1.2-0.024,1.968,1.176,1.992,2.136
				c0.024,0.504-0.12,1.032-0.312,1.44c-0.217,0.528-0.793,0.936-1.177,1.32c-0.432,0.432-3.552,2.568-3.552,2.616V14.461h0.624
				C232.492,14.461,232.517,17.438,232.492,20.605z M232.756,22.981c-0.312,0.6-0.264,1.632-0.264,2.376v2.064
				c0,0.024,0.864-0.72,1.344-1.176c0.433-0.408,0.769-0.864,0.937-1.584c0.191-0.72,0.12-1.488-0.336-1.992
				C234.124,22.31,233.26,22.021,232.756,22.981z"/>
		</g>
		<g>
			<path d="M70.492,117.605c0,0.216,0,1.536,0,1.536c0.912-0.816,1.416-0.984,2.424-1.008c1.2-0.024,1.968,1.176,1.992,2.136
				c0.024,0.504-0.12,1.032-0.312,1.44c-0.216,0.528-0.792,0.936-1.176,1.32c-0.432,0.432-3.552,2.568-3.552,2.616v-14.184h0.624
				C70.492,111.461,70.516,114.438,70.492,117.605z M70.756,119.981c-0.312,0.6-0.264,1.632-0.264,2.376v2.064
				c0,0.024,0.864-0.72,1.344-1.176c0.432-0.408,0.768-0.864,0.936-1.584c0.192-0.72,0.12-1.488-0.336-1.992
				C72.124,119.31,71.26,119.021,70.756,119.981z"/>
		</g>
		<g>
			<path d="M163.825,102.938c0,0.216,0,1.536,0,1.536c0.912-0.816,1.416-0.984,2.424-1.008c1.2-0.024,1.968,1.176,1.992,2.136
				c0.024,0.504-0.12,1.032-0.312,1.44c-0.216,0.528-0.792,0.936-1.176,1.32c-0.432,0.432-3.552,2.568-3.552,2.616V96.794h0.624
				C163.825,96.794,163.849,99.771,163.825,102.938z M164.089,105.314c-0.312,0.6-0.264,1.632-0.264,2.376v2.064
				c0,0.024,0.864-0.72,1.344-1.176c0.432-0.408,0.768-0.864,0.936-1.584c0.192-0.72,0.12-1.488-0.336-1.992
				C165.457,104.643,164.593,104.354,164.089,105.314z"/>
		</g>
		<g>
			<path d="M183.903,178.97c2.664,0.024,5.184,1.032,5.376,3.264c0.144,1.632-2.016,3.12-4.68,3.12
				c-2.688-0.024-5.184-1.008-5.4-3.24C179.055,180.458,181.239,178.97,183.903,178.97z M184.551,184.802
				c1.152,0,1.896-1.104,1.776-1.992c-0.264-1.752-0.864-3.168-2.448-3.168c-1.152,0-1.824,1.128-1.68,2.016
				C182.463,183.41,182.967,184.802,184.551,184.802z"/>
		</g>
		<g>
			<path fill="none" stroke="#000000" d="M0.072,167.352h267.157"/>
			<path fill="none" stroke="#000000" d="M0.072,182.464h267.157"/>
			<path fill="none" stroke="#000000" d="M0.204,189.586h267.157"/>
			<path fill="none" stroke="#000000" d="M0,196.97h267.156"/>
			<path fill="none" stroke="#000000" d="M0,174.606h267.156"/>
		</g>
		<g>
			<path d="M11.818,196.542c-4.944-2.352-5.736-5.376-5.952-8.472c-0.24-3.36,1.896-6.768,3.888-8.664
				c1.152-1.08,2.4-2.136,3.888-3.264c-0.048-0.84-0.24-1.176-0.336-2.376c-0.024-0.504-0.336-2.856,0.168-5.568
				c0.312-1.608,2.328-5.4,3.72-5.424c1.08-0.024,2.736,4.296,2.784,6.456c0.072,3.336-0.72,4.848-1.704,6.576
				c-0.504,0.864-1.032,1.464-1.584,2.136c-0.576,0.696-1.224,1.104-1.824,1.632c0,0,0.768,4.344,0.792,4.656
				c1.536-0.192,3.408,0.36,4.08,0.84c1.704,1.272,2.352,3.024,2.472,4.728c0.216,2.712-1.272,5.568-4.56,6.936
				c0,0,0.504,3.456,0.624,4.176c0.264,1.896,0.216,3.096-0.192,3.864c-0.696,1.296-1.824,2.496-4.008,2.64
				c-1.68,0.096-4.992-0.744-5.16-3.384c-0.096-1.56,0.6-3.24,2.496-3.36c1.152-0.096,2.52,0.864,2.616,2.232
				c0.096,1.176-0.672,2.4-2.664,2.952c0.312,0.432,1.248,0.936,2.592,0.936c1.392,0,2.832-0.936,3.528-2.184
				c0.432-0.816,0.384-2.28,0.216-3.624c-0.072-0.456-0.648-4.08-0.648-4.08C15.274,197.189,12.826,197.021,11.818,196.542z
				 M12.298,190.854c0.048,1.152,1.008,2.496,1.896,2.952c-0.12,0.072-0.24,0.264-0.24,0.264c-0.984-0.48-1.824-1.272-2.04-1.56
				c-0.696-0.936-0.984-1.464-1.08-2.88c-0.096-1.32,0.624-3.096,2.232-4.344c0.84-0.624,1.248-0.768,1.968-0.936l-0.72-4.344
				c-0.744,0.432-3.816,2.904-5.112,4.92c-1.152,1.8-1.848,3.24-1.704,5.016c0.288,4.008,4.68,7.296,9.432,6.168
				c0,0-1.416-8.52-1.392-8.52C12.922,187.686,12.226,189.702,12.298,190.854z M14.242,175.637c2.088-1.632,4.92-4.704,4.752-7.08
				c-0.048-0.744-0.36-2.088-1.44-2.064C15.082,166.517,13.69,171.677,14.242,175.637z M17.506,195.917
				c2.76-0.936,2.88-3.312,2.784-4.728c-0.096-1.176-0.624-3.816-4.128-3.648L17.506,195.917z"/>
		</g>
		<g>
			<path d="M96.571,190.304c2.664,0.024,5.184,1.032,5.376,3.264c0.144,1.632-2.016,3.12-4.68,3.12
				c-2.688-0.024-5.184-1.008-5.4-3.24C91.723,191.792,93.907,190.304,96.571,190.304z M97.219,196.136
				c1.152,0,1.896-1.104,1.776-1.992c-0.264-1.752-0.864-3.168-2.448-3.168c-1.152,0-1.824,1.128-1.68,2.016
				C95.131,194.744,95.635,196.136,97.219,196.136z"/>
		</g>
		<g>
			<path d="M70.571,193.305c2.664,0.024,5.184,1.032,5.376,3.264c0.144,1.632-2.016,3.12-4.68,3.12
				c-2.688-0.024-5.184-1.008-5.4-3.24C65.723,194.792,67.907,193.305,70.571,193.305z M71.219,199.137
				c1.152,0,1.896-1.104,1.776-1.992c-0.264-1.752-0.864-3.168-2.448-3.168c-1.152,0-1.824,1.128-1.68,2.016
				C69.131,197.745,69.635,199.137,71.219,199.137z"/>
		</g>
		<g>
			<path d="M210.236,175.305c2.664,0.024,5.184,1.032,5.376,3.264c0.144,1.632-2.016,3.12-4.68,3.12
				c-2.688-0.024-5.184-1.008-5.4-3.24C205.388,176.792,207.572,175.305,210.236,175.305z M210.884,181.137
				c1.152,0,1.896-1.104,1.776-1.992c-0.264-1.752-0.864-3.168-2.448-3.168c-1.152,0-1.824,1.128-1.68,2.016
				C208.796,179.745,209.3,181.137,210.884,181.137z"/>
		</g>
		<g>
			<path d="M153.239,185.971c2.664,0.024,5.184,1.032,5.376,3.264c0.144,1.632-2.016,3.12-4.68,3.12
				c-2.688-0.024-5.184-1.008-5.4-3.24C148.391,187.458,150.575,185.971,153.239,185.971z M153.887,191.803
				c1.152,0,1.896-1.104,1.776-1.992c-0.264-1.752-0.864-3.168-2.448-3.168c-1.152,0-1.824,1.128-1.68,2.016
				C151.799,190.411,152.303,191.803,153.887,191.803z"/>
		</g>
		<g>
			<g>
				<path d="M40.246,200.141c2.664,0.024,5.184,1.032,5.376,3.264c0.144,1.632-2.016,3.12-4.68,3.12
					c-2.688-0.024-5.184-1.008-5.4-3.24C35.397,201.629,37.582,200.141,40.246,200.141z M40.894,205.973
					c1.152,0,1.896-1.104,1.776-1.992c-0.264-1.752-0.864-3.168-2.448-3.168c-1.152,0-1.824,1.128-1.68,2.016
					C38.806,204.581,39.31,205.973,40.894,205.973z"/>
			</g>
			<path fill="none" stroke="#000000" d="M33.534,203.853H48.2"/>
		</g>
		<g>
			<path d="M57.825,193.272c0,0.216,0,1.536,0,1.536c0.912-0.816,1.416-0.984,2.424-1.008c1.2-0.024,1.968,1.176,1.992,2.136
				c0.024,0.504-0.12,1.032-0.312,1.44c-0.216,0.528-0.792,0.936-1.176,1.32c-0.432,0.432-3.552,2.568-3.552,2.616v-14.184h0.624
				C57.825,187.128,57.849,190.104,57.825,193.272z M58.089,195.648c-0.312,0.6-0.264,1.632-0.264,2.376v2.064
				c0,0.024,0.864-0.72,1.344-1.176c0.432-0.408,0.768-0.864,0.936-1.584c0.192-0.72,0.12-1.488-0.336-1.992
				C59.457,194.976,58.593,194.688,58.089,195.648z"/>
		</g>
		<g>
			<path d="M171.158,178.605c0,0.216,0,1.536,0,1.536c0.912-0.816,1.416-0.984,2.424-1.008c1.2-0.024,1.968,1.176,1.992,2.136
				c0.024,0.504-0.12,1.032-0.312,1.44c-0.216,0.528-0.792,0.936-1.176,1.32c-0.432,0.432-3.552,2.568-3.552,2.616v-14.184h0.624
				C171.158,172.461,171.182,175.437,171.158,178.605z M171.422,180.981c-0.312,0.6-0.264,1.632-0.264,2.376v2.064
				c0,0.024,0.864-0.72,1.344-1.176c0.432-0.408,0.768-0.864,0.936-1.584c0.192-0.72,0.12-1.488-0.336-1.992
				C172.79,180.309,171.926,180.021,171.422,180.981z"/>
		</g>
		<g>
			<path d="M80.905,48.305c2.664,0.024,5.184,1.032,5.376,3.264c0.144,1.632-2.016,3.12-4.68,3.12
				c-2.688-0.024-5.184-1.008-5.4-3.24C76.057,49.792,78.241,48.305,80.905,48.305z M81.553,54.137c1.152,0,1.896-1.104,1.776-1.992
				c-0.264-1.752-0.864-3.168-2.448-3.168c-1.152,0-1.824,1.128-1.68,2.016C79.465,52.745,79.969,54.137,81.553,54.137z"/>
		</g>
		<g>
			<path d="M177.57,103.97c2.664,0.024,5.184,1.032,5.376,3.264c0.144,1.632-2.016,3.12-4.68,3.12
				c-2.688-0.024-5.184-1.008-5.4-3.24C172.722,105.458,174.906,103.97,177.57,103.97z M178.218,109.802
				c1.152,0,1.896-1.104,1.776-1.992c-0.264-1.752-0.864-3.168-2.448-3.168c-1.152,0-1.824,1.128-1.68,2.016
				C176.13,108.41,176.634,109.802,178.218,109.802z"/>
		</g>
	</g>
</svg>
