<?xml version="1.0" encoding="utf-8"?>
<!-- Generator: Adobe Illustrator 10.0, SVG Export Plug-In . SVG Version: 3.0.0 Build 76)  -->
<!DOCTYPE svg PUBLIC "-//W3C//DTD SVG 1.0//EN"    "http://www.w3.org/TR/2001/REC-SVG-20010904/DTD/svg10.dtd" [
	<!ENTITY ns_flows "http://ns.adobe.com/Flows/1.0/">
	<!ENTITY ns_extend "http://ns.adobe.com/Extensibility/1.0/">
	<!ENTITY ns_ai "http://ns.adobe.com/AdobeIllustrator/10.0/">
	<!ENTITY ns_svg "http://www.w3.org/2000/svg">
	<!ENTITY ns_xlink "http://www.w3.org/1999/xlink">
]>
<svg  xmlns:x="&ns_extend;" xmlns:i="&ns_ai;" xmlns:graph="&ns_graphs;"
	 xmlns="&ns_svg;" xmlns:xlink="&ns_xlink;" xmlns:a="http://ns.adobe.com/AdobeSVGViewerExtensions/3.0/" width="299" height="62"
	 viewBox="0.2 0.22 299 62" overflow="visible" enable-background="new 0.2 0.22 299 62" xml:space="preserve">
	<g id="Layer_1_2_">
		<g>
			<path d="M236.904,16.504c2.664,0.024,5.184,1.032,5.376,3.264c0.144,1.632-2.016,3.12-4.68,3.12
				c-2.688-0.024-5.184-1.008-5.4-3.24C232.056,17.992,234.24,16.504,236.904,16.504z M237.552,22.336
				c1.152,0,1.896-1.104,1.776-1.992c-0.264-1.752-0.864-3.168-2.448-3.168c-1.152,0-1.824,1.128-1.68,2.016
				C235.464,20.944,235.968,22.336,237.552,22.336z"/>
		</g>
		<g>
			<path fill="none" stroke="#000000" d="M0.036,19.885h138.111"/>
			<path fill="none" stroke="#000000" d="M0.036,33.997h138.111"/>
			<path fill="none" stroke="#000000" d="M0.106,41.12h138.109"/>
			<path fill="none" stroke="#000000" d="M0,48.503h138.109"/>
			<path fill="none" stroke="#000000" d="M0,27.139h138.109"/>
		</g>
		<g>
			<path d="M14.152,49.408c-4.944-2.352-5.736-5.376-5.952-8.472c-0.24-3.36,1.896-6.768,3.888-8.664
				c1.152-1.08,2.4-2.136,3.888-3.264c-0.048-0.84-0.24-1.176-0.336-2.376c-0.024-0.504-0.336-2.856,0.168-5.568
				c0.312-1.608,2.328-5.4,3.72-5.424c1.08-0.024,2.736,4.296,2.784,6.456c0.072,3.336-0.72,4.848-1.704,6.576
				c-0.504,0.864-1.032,1.464-1.584,2.136c-0.576,0.696-1.224,1.104-1.824,1.632c0,0,0.768,4.344,0.792,4.656
				c1.536-0.192,3.408,0.36,4.08,0.84c1.704,1.272,2.352,3.024,2.472,4.728c0.216,2.712-1.272,5.568-4.56,6.936
				c0,0,0.504,3.456,0.624,4.176c0.264,1.896,0.216,3.096-0.192,3.864c-0.696,1.296-1.824,2.496-4.008,2.64
				c-1.68,0.096-4.992-0.744-5.16-3.384c-0.096-1.56,0.6-3.24,2.496-3.36c1.152-0.096,2.52,0.864,2.616,2.232
				c0.096,1.176-0.672,2.4-2.664,2.952c0.312,0.432,1.248,0.936,2.592,0.936c1.392,0,2.832-0.936,3.528-2.184
				c0.432-0.816,0.384-2.28,0.216-3.624c-0.072-0.456-0.648-4.08-0.648-4.08C17.608,50.056,15.16,49.888,14.152,49.408z
				 M14.632,43.72c0.048,1.152,1.008,2.496,1.896,2.952c-0.12,0.072-0.24,0.264-0.24,0.264c-0.984-0.48-1.824-1.272-2.04-1.56
				c-0.696-0.936-0.984-1.464-1.08-2.88c-0.096-1.32,0.624-3.096,2.232-4.344c0.84-0.624,1.248-0.768,1.968-0.936l-0.72-4.344
				c-0.744,0.432-3.816,2.904-5.112,4.92c-1.152,1.8-1.848,3.24-1.704,5.016c0.288,4.008,4.68,7.296,9.432,6.168
				c0,0-1.416-8.52-1.392-8.52C15.256,40.552,14.56,42.568,14.632,43.72z M16.576,28.503c2.088-1.632,4.92-4.704,4.752-7.08
				c-0.048-0.744-0.36-2.088-1.44-2.064C17.416,19.383,16.024,24.543,16.576,28.503z M19.84,48.784
				c2.76-0.936,2.88-3.312,2.784-4.728C22.528,42.88,22,40.24,18.496,40.408L19.84,48.784z"/>
		</g>
		<g>
			<path d="M236.904,44.504c2.664,0.024,5.184,1.032,5.376,3.264c0.144,1.632-2.016,3.12-4.68,3.12
				c-2.688-0.024-5.184-1.008-5.4-3.24C232.056,45.992,234.24,44.504,236.904,44.504z M237.552,50.336
				c1.152,0,1.896-1.104,1.776-1.992c-0.264-1.752-0.864-3.168-2.448-3.168c-1.152,0-1.824,1.128-1.68,2.016
				C235.464,48.944,235.968,50.336,237.552,50.336z"/>
		</g>
		<g>
			<g>
				<path d="M237.578,52.008c2.664,0.024,5.184,1.032,5.376,3.264c0.144,1.632-2.016,3.12-4.68,3.12
					c-2.688-0.024-5.184-1.008-5.4-3.24C232.729,53.496,234.914,52.008,237.578,52.008z M238.226,57.84
					c1.152,0,1.896-1.104,1.776-1.992c-0.264-1.752-0.864-3.168-2.448-3.168c-1.152,0-1.824,1.128-1.68,2.016
					C236.138,56.448,236.642,57.84,238.226,57.84z"/>
			</g>
			<path fill="none" stroke="#000000" d="M230.866,55.72h14.667"/>
		</g>
		<g>
			<path d="M236.904,37.504c2.664,0.024,5.184,1.032,5.376,3.264c0.144,1.632-2.016,3.12-4.68,3.12
				c-2.688-0.024-5.184-1.008-5.4-3.24C232.056,38.992,234.24,37.504,236.904,37.504z M237.552,43.336
				c1.152,0,1.896-1.104,1.776-1.992c-0.264-1.752-0.864-3.168-2.448-3.168c-1.152,0-1.824,1.128-1.68,2.016
				C235.464,41.944,235.968,43.336,237.552,43.336z"/>
		</g>
		<g>
			<path d="M236.904,30.504c2.664,0.024,5.184,1.032,5.376,3.264c0.144,1.632-2.016,3.12-4.68,3.12
				c-2.688-0.024-5.184-1.008-5.4-3.24C232.056,31.992,234.24,30.504,236.904,30.504z M237.552,36.336
				c1.152,0,1.896-1.104,1.776-1.992c-0.264-1.752-0.864-3.168-2.448-3.168c-1.152,0-1.824,1.128-1.68,2.016
				C235.464,34.944,235.968,36.336,237.552,36.336z"/>
		</g>
		<g>
			<path d="M236.904,23.504c2.664,0.024,5.184,1.032,5.376,3.264c0.144,1.632-2.016,3.12-4.68,3.12
				c-2.688-0.024-5.184-1.008-5.4-3.24C232.056,24.992,234.24,23.504,236.904,23.504z M237.552,29.336
				c1.152,0,1.896-1.104,1.776-1.992c-0.264-1.752-0.864-3.168-2.448-3.168c-1.152,0-1.824,1.128-1.68,2.016
				C235.464,27.944,235.968,29.336,237.552,29.336z"/>
		</g>
		<g>
			<path d="M50.92,8.004c-0.324,0.156-1.092,0.348-2.064,0.348c-2.796,0-4.236-1.752-4.236-4.068C44.62,1.524,46.588,0,49.036,0
				c0.948,0,1.668,0.192,1.992,0.36L50.644,1.8c-0.36-0.156-0.876-0.3-1.536-0.3c-1.44,0-2.568,0.876-2.568,2.688
				c0,1.62,0.96,2.64,2.58,2.64c0.564,0,1.164-0.108,1.536-0.264L50.92,8.004z"/>
			<path d="M52.06,6.636c0.336,0.204,1.032,0.432,1.572,0.432c0.552,0,0.78-0.18,0.78-0.48c0-0.312-0.18-0.456-0.852-0.684
				c-1.224-0.396-1.692-1.068-1.68-1.752c0-1.104,0.936-1.932,2.388-1.932c0.684,0,1.284,0.168,1.644,0.348L55.6,3.816
				c-0.264-0.132-0.78-0.324-1.272-0.324c-0.444,0-0.696,0.18-0.696,0.468c0,0.288,0.228,0.432,0.948,0.684
				c1.116,0.372,1.572,0.948,1.584,1.8c0,1.104-0.852,1.908-2.532,1.908c-0.768,0-1.452-0.18-1.896-0.42L52.06,6.636z"/>
			<path d="M62.812,6.336c0,0.768,0.024,1.392,0.048,1.884h-1.584l-0.084-0.828h-0.036c-0.228,0.36-0.78,0.96-1.836,0.96
				c-1.2,0-2.064-0.744-2.064-2.556V2.352h1.824v3.156c0,0.852,0.276,1.368,0.924,1.368c0.504,0,0.804-0.348,0.912-0.636
				c0.048-0.108,0.072-0.24,0.072-0.396V2.352h1.824V6.336z"/>
			<path d="M64.263,6.636c0.336,0.204,1.032,0.432,1.572,0.432c0.552,0,0.78-0.18,0.78-0.48c0-0.312-0.18-0.456-0.852-0.684
				c-1.224-0.396-1.692-1.068-1.68-1.752c0-1.104,0.936-1.932,2.388-1.932c0.684,0,1.284,0.168,1.644,0.348l-0.312,1.248
				c-0.264-0.132-0.78-0.324-1.272-0.324c-0.444,0-0.696,0.18-0.696,0.468c0,0.288,0.228,0.432,0.948,0.684
				c1.116,0.372,1.572,0.948,1.584,1.8c0,1.104-0.852,1.908-2.532,1.908c-0.768,0-1.452-0.18-1.896-0.42L64.263,6.636z"/>
			<path d="M72.483,8.22V6.36h-3.456V5.172l2.94-4.752h2.244v4.572h0.924V6.36h-0.924v1.86H72.483z M72.483,4.992V3.264
				c0-0.468,0.024-0.948,0.048-1.452h-0.036c-0.252,0.504-0.468,0.96-0.732,1.452l-1.032,1.704l-0.012,0.024H72.483z"/>
			<path d="M111.219,8.004c-0.324,0.156-1.092,0.348-2.064,0.348c-2.796,0-4.236-1.752-4.236-4.068c0-2.76,1.968-4.284,4.416-4.284
				c0.948,0,1.668,0.192,1.992,0.36l-0.384,1.44c-0.36-0.156-0.876-0.3-1.536-0.3c-1.44,0-2.568,0.876-2.568,2.688
				c0,1.62,0.96,2.64,2.58,2.64c0.564,0,1.164-0.108,1.536-0.264L111.219,8.004z"/>
			<path d="M230.92,8.004c-0.324,0.156-1.092,0.348-2.064,0.348c-2.796,0-4.236-1.752-4.236-4.068c0-2.76,1.968-4.284,4.416-4.284
				c0.948,0,1.668,0.192,1.992,0.36l-0.384,1.44c-0.36-0.156-0.876-0.3-1.536-0.3c-1.44,0-2.568,0.876-2.568,2.688
				c0,1.62,0.96,2.64,2.58,2.64c0.564,0,1.164-0.108,1.536-0.264L230.92,8.004z"/>
			<path d="M234.171,2.04h-0.024l-1.488,0.708l-0.3-1.368l2.076-0.96h1.5v7.8h-1.764V2.04z"/>
			<path d="M240.832,2.04h-0.024l-1.488,0.708l-0.3-1.368l2.076-0.96h1.5v7.8h-1.764V2.04z"/>
		</g>
		<g>
			<path fill="none" stroke="#000000" d="M172.033,18.885h127.172"/>
			<path fill="none" stroke="#000000" d="M172.033,32.997h127.172"/>
			<path fill="none" stroke="#000000" d="M172.098,40.12h127.17"/>
			<path fill="none" stroke="#000000" d="M172,47.503h127.171"/>
			<path fill="none" stroke="#000000" d="M172,26.139h127.171"/>
		</g>
		<g>
			<path d="M186.152,48.408c-4.944-2.352-5.736-5.376-5.952-8.472c-0.24-3.36,1.896-6.768,3.888-8.664
				c1.152-1.08,2.4-2.136,3.888-3.264c-0.048-0.84-0.24-1.176-0.336-2.376c-0.024-0.504-0.336-2.856,0.168-5.568
				c0.312-1.608,2.328-5.4,3.72-5.424c1.08-0.024,2.736,4.296,2.784,6.456c0.072,3.336-0.72,4.848-1.704,6.576
				c-0.504,0.864-1.032,1.464-1.584,2.136c-0.576,0.696-1.224,1.104-1.824,1.632c0,0,0.768,4.344,0.792,4.656
				c1.536-0.192,3.408,0.36,4.08,0.84c1.704,1.272,2.352,3.024,2.472,4.728c0.216,2.712-1.272,5.568-4.56,6.936
				c0,0,0.504,3.456,0.624,4.176c0.264,1.896,0.216,3.096-0.192,3.864c-0.696,1.296-1.824,2.496-4.008,2.64
				c-1.68,0.096-4.992-0.744-5.16-3.384c-0.096-1.56,0.6-3.24,2.496-3.36c1.152-0.096,2.52,0.864,2.616,2.232
				c0.096,1.176-0.672,2.4-2.664,2.952c0.312,0.432,1.248,0.936,2.592,0.936c1.392,0,2.832-0.936,3.528-2.184
				c0.432-0.816,0.384-2.28,0.216-3.624c-0.072-0.456-0.648-4.08-0.648-4.08C189.608,49.056,187.16,48.888,186.152,48.408z
				 M186.632,42.72c0.048,1.152,1.008,2.496,1.896,2.952c-0.12,0.072-0.24,0.264-0.24,0.264c-0.984-0.48-1.824-1.272-2.04-1.56
				c-0.696-0.936-0.984-1.464-1.08-2.88c-0.096-1.32,0.624-3.096,2.232-4.344c0.84-0.624,1.248-0.768,1.968-0.936l-0.72-4.344
				c-0.744,0.432-3.816,2.904-5.112,4.92c-1.152,1.8-1.848,3.24-1.704,5.016c0.288,4.008,4.68,7.296,9.432,6.168
				c0,0-1.416-8.52-1.392-8.52C187.256,39.552,186.56,41.568,186.632,42.72z M188.576,27.503c2.088-1.632,4.92-4.704,4.752-7.08
				c-0.048-0.744-0.36-2.088-1.44-2.064C189.416,18.383,188.024,23.543,188.576,27.503z M191.84,47.784
				c2.76-0.936,2.88-3.312,2.784-4.728c-0.096-1.176-0.624-3.816-4.128-3.648L191.84,47.784z"/>
		</g>
		<g>
			<path d="M102.44,40.836c0.456-1.248,1.488-2.256,2.256-2.64c0.768-0.36,1.752-0.552,2.88-0.456
				c0.576,0.048,1.584,0.216,2.16,0.816V19.332h0.456v20.496c0,0.096-0.024,0.168-0.024,0.24C110.12,40.5,110,40.86,109.904,41.1
				c-0.456,1.248-1.44,2.088-2.184,2.52s-1.872,0.744-3.24,0.6c-0.528-0.072-1.68-0.168-2.16-1.032
				C101.936,42.54,102.271,41.316,102.44,40.836z M105.32,42.852c0.552-0.288,0.96-0.528,1.464-0.792
				c0.48-0.288,0.912-0.552,1.44-0.888c0.72-0.456,1.656-1.248,1.176-2.064c-0.48-0.816-1.656-0.408-2.4-0.048
				c-0.576,0.288-1.032,0.528-1.512,0.816c-0.48,0.264-0.912,0.504-1.416,0.84c-0.72,0.456-1.656,1.272-1.152,2.088
				C103.375,43.62,104.552,43.212,105.32,42.852z"/>
		</g>
		<g>
			<path d="M224.824,28.972c0,0.216,0,1.536,0,1.536c0.912-0.816,1.416-0.984,2.424-1.008c1.2-0.024,1.968,1.176,1.992,2.136
				c0.024,0.504-0.12,1.032-0.312,1.44c-0.216,0.528-0.792,0.936-1.176,1.32c-0.432,0.432-3.552,2.568-3.552,2.616V22.828h0.624
				C224.824,22.828,224.848,25.804,224.824,28.972z M225.088,31.348c-0.312,0.6-0.264,1.632-0.264,2.376v2.064
				c0,0.024,0.864-0.72,1.344-1.176c0.432-0.408,0.768-0.864,0.936-1.584c0.192-0.72,0.12-1.488-0.336-1.992
				C226.456,30.676,225.592,30.388,225.088,31.348z"/>
		</g>
		<g>
			<path d="M52.44,44.836c0.456-1.248,1.488-2.256,2.256-2.64c0.768-0.36,1.752-0.552,2.88-0.456
				c0.576,0.048,1.584,0.216,2.16,0.816V23.332h0.456v20.496c0,0.096-0.024,0.168-0.024,0.24C60.12,44.5,60,44.86,59.904,45.1
				c-0.456,1.248-1.44,2.088-2.184,2.52s-1.872,0.744-3.24,0.6c-0.528-0.072-1.68-0.168-2.16-1.032
				C51.936,46.54,52.271,45.316,52.44,44.836z M55.32,46.852c0.552-0.288,0.96-0.528,1.464-0.792c0.48-0.288,0.912-0.552,1.44-0.888
				c0.72-0.456,1.656-1.248,1.176-2.064c-0.48-0.816-1.656-0.408-2.4-0.048c-0.576,0.288-1.032,0.528-1.512,0.816
				c-0.48,0.264-0.912,0.504-1.416,0.84c-0.72,0.456-1.656,1.272-1.152,2.088C53.375,47.62,54.552,47.212,55.32,46.852z"/>
		</g>
		<g>
			<path fill="none" stroke="#000000" stroke-miterlimit="1" d="M49.637,55.047h11.645"/>
			<g>
				<path d="M52.027,54.929c0.456-1.248,1.488-2.256,2.256-2.64c0.768-0.36,1.752-0.552,2.88-0.456
					c0.576,0.048,1.584,0.216,2.16,0.816V33.425h0.456v20.496c0,0.096-0.024,0.168-0.024,0.24c-0.048,0.432-0.168,0.792-0.264,1.032
					c-0.456,1.248-1.44,2.088-2.184,2.52s-1.872,0.744-3.24,0.6c-0.528-0.072-1.68-0.168-2.16-1.032
					C51.522,56.633,51.858,55.409,52.027,54.929z M54.907,56.945c0.552-0.288,0.96-0.528,1.464-0.792
					c0.48-0.288,0.912-0.552,1.44-0.888c0.72-0.456,1.656-1.248,1.176-2.064c-0.48-0.816-1.656-0.408-2.4-0.048
					c-0.576,0.288-1.032,0.528-1.512,0.816c-0.48,0.264-0.912,0.504-1.416,0.84c-0.72,0.456-1.656,1.272-1.152,2.088
					C52.962,57.713,54.139,57.305,54.907,56.945z"/>
			</g>
		</g>
		<g>
			<path d="M67.08,43.21c-0.48,0.846-1.632,0.94-2.16,1.01c-1.368,0.141-2.496-0.165-3.24-0.587s-1.728-1.245-2.184-2.467
				c-0.096-0.235-0.216-0.587-0.264-1.01c0-0.071-0.024-0.141-0.024-0.235V19.856h0.456v18.819c0.576-0.587,1.584-0.751,2.16-0.799
				c1.128-0.094,2.112,0.094,2.88,0.447c0.768,0.375,1.8,1.362,2.256,2.584C67.128,41.377,67.464,42.576,67.08,43.21z
				 M66.479,42.834c0.504-0.799-0.432-1.598-1.152-2.044c-0.504-0.329-0.936-0.564-1.416-0.822c-0.48-0.282-0.936-0.517-1.512-0.799
				c-0.744-0.353-1.92-0.752-2.4,0.047s0.456,1.574,1.176,2.021c0.528,0.329,0.96,0.587,1.44,0.869
				c0.504,0.259,0.912,0.494,1.464,0.775C64.848,43.233,66.024,43.633,66.479,42.834z"/>
		</g>
		<g>
			<path fill="none" stroke="#000000" stroke-miterlimit="1" d="M99.637,55.047h11.645"/>
			<g>
				<path d="M102.027,54.929c0.456-1.248,1.488-2.256,2.256-2.64c0.768-0.36,1.752-0.552,2.88-0.456
					c0.576,0.048,1.584,0.216,2.16,0.816V33.425h0.456v20.496c0,0.096-0.024,0.168-0.024,0.24c-0.048,0.432-0.168,0.792-0.264,1.032
					c-0.456,1.248-1.44,2.088-2.184,2.52s-1.872,0.744-3.24,0.6c-0.528-0.072-1.68-0.168-2.16-1.032
					C101.522,56.633,101.858,55.409,102.027,54.929z M104.907,56.945c0.552-0.288,0.96-0.528,1.464-0.792
					c0.48-0.288,0.912-0.552,1.44-0.888c0.72-0.456,1.656-1.248,1.176-2.064c-0.48-0.816-1.656-0.408-2.4-0.048
					c-0.576,0.288-1.032,0.528-1.512,0.816c-0.48,0.264-0.912,0.504-1.416,0.84c-0.72,0.456-1.656,1.272-1.152,2.088
					C102.962,57.713,104.139,57.305,104.907,56.945z"/>
			</g>
		</g>
		<g>
			<path d="M102.44,47.836c0.456-1.248,1.488-2.256,2.256-2.64c0.768-0.36,1.752-0.552,2.88-0.456
				c0.576,0.048,1.584,0.216,2.16,0.816V26.332h0.456v20.496c0,0.096-0.024,0.168-0.024,0.24C110.12,47.5,110,47.86,109.904,48.1
				c-0.456,1.248-1.44,2.088-2.184,2.52s-1.872,0.744-3.24,0.6c-0.528-0.072-1.68-0.168-2.16-1.032
				C101.936,49.54,102.271,48.316,102.44,47.836z M105.32,49.852c0.552-0.288,0.96-0.528,1.464-0.792
				c0.48-0.288,0.912-0.552,1.44-0.888c0.72-0.456,1.656-1.248,1.176-2.064c-0.48-0.816-1.656-0.408-2.4-0.048
				c-0.576,0.288-1.032,0.528-1.512,0.816c-0.48,0.264-0.912,0.504-1.416,0.84c-0.72,0.456-1.656,1.272-1.152,2.088
				C103.375,50.62,104.552,50.212,105.32,49.852z"/>
		</g>
	</g>
</svg>
