<?xml version="1.0" encoding="utf-8"?>
<!-- Generator: Adobe Illustrator 10.0, SVG Export Plug-In . SVG Version: 3.0.0 Build 76)  -->
<!DOCTYPE svg PUBLIC "-//W3C//DTD SVG 1.0//EN"    "http://www.w3.org/TR/2001/REC-SVG-20010904/DTD/svg10.dtd" [
	<!ENTITY ns_flows "http://ns.adobe.com/Flows/1.0/">
	<!ENTITY ns_extend "http://ns.adobe.com/Extensibility/1.0/">
	<!ENTITY ns_ai "http://ns.adobe.com/AdobeIllustrator/10.0/">
	<!ENTITY ns_svg "http://www.w3.org/2000/svg">
	<!ENTITY ns_xlink "http://www.w3.org/1999/xlink">
]>
<svg  xmlns:x="&ns_extend;" xmlns:i="&ns_ai;" xmlns:graph="&ns_graphs;"
	 xmlns="&ns_svg;" xmlns:xlink="&ns_xlink;" xmlns:a="http://ns.adobe.com/AdobeSVGViewerExtensions/3.0/" width="434" height="239"
	 viewBox="-0.328 -0.112 434 239" overflow="visible" enable-background="new -0.328 -0.112 434 239" xml:space="preserve">
	<g id="Layer_1_2_">
		<g>
			<path d="M123.396,173.849c0.984,0,1.776,0.36,2.232,0.912v-19.225h0.456v20.4c0,0.336-0.048,0.672-0.168,1.056
				c-0.648,1.704-2.784,3.072-4.8,3.049c-2.016-0.024-3.144-1.44-2.52-3.145S121.38,173.825,123.396,173.849z"/>
		</g>
		<g>
			<path d="M123.396,38.849c0.984,0,1.776,0.36,2.232,0.912V20.537h0.456v20.4c0,0.336-0.048,0.672-0.168,1.056
				c-0.648,1.704-2.784,3.072-4.8,3.048c-2.016-0.024-3.144-1.44-2.52-3.144S121.38,38.825,123.396,38.849z"/>
		</g>
		<g>
			<path d="M91.396,36.849c0.984,0,1.776,0.36,2.232,0.912V18.537h0.456v20.4c0,0.336-0.048,0.672-0.168,1.056
				c-0.648,1.704-2.784,3.072-4.8,3.048c-2.016-0.024-3.144-1.44-2.52-3.144S89.38,36.825,91.396,36.849z"/>
		</g>
		<g>
			<path d="M346.396,168.849c0.983,0,1.775,0.36,2.231,0.912v-19.225h0.456v20.4c0,0.336-0.048,0.672-0.168,1.056
				c-0.648,1.704-2.784,3.072-4.8,3.049c-2.017-0.024-3.145-1.44-2.521-3.145S344.38,168.825,346.396,168.849z"/>
		</g>
		<path fill="none" stroke="#0A0A0A" stroke-width="2" d="M200.141,10.43v86.458"/>
		<g>
			<path d="M78.865,23.641c0,0.96-1.2,1.8-1.848,1.8s-2.04-0.36-2.04-1.8c0-0.936,0.672-1.632,1.512-1.632
				c0.576,0,0.528-0.36,0.336-0.576c-0.528-0.552-1.488-0.96-2.664-0.624c-1.896,0.504-2.304,2.808-2.304,5.184
				c0,2.64,0.456,5.256,2.76,5.256c1.632,0,3.456-1.488,3.408-3.528h0.672c-0.024,0.624-0.432,1.92-0.84,2.424
				c-0.816,1.008-2.328,1.848-3.504,1.848c-3.168,0-5.424-2.856-5.424-6c0-3.072,2.112-5.904,5.184-5.904
				C76.705,20.089,78.865,21.313,78.865,23.641z"/>
		</g>
		<g>
			<path d="M271.865,7.273V3.361h0.696v3.672l2.352-0.768V2.761h0.696v3.288l0.936-0.312v2.496l-0.936,0.312v3.552l0.936-0.288
				v2.472l-0.936,0.312v3.912h-0.696v-3.696l-2.352,0.768v3.552h-0.696v-3.312l-1.032,0.336v-2.496l1.032-0.336V9.745l-1.032,0.336
				V7.609L271.865,7.273z M272.561,9.529v3.576l2.352-0.768V8.761L272.561,9.529z"/>
		</g>
		<g>
			<path d="M91.446,67.462c2.04,0.023,3.144,1.416,2.52,3.12c-0.624,1.728-2.784,3.096-4.8,3.072
				c-0.984-0.024-1.776-0.385-2.232-0.937v19.08h-0.456c0-24.216,0-20.4,0-20.4c0-0.287,0.072-0.575,0.192-0.888
				C87.294,68.783,89.43,67.438,91.446,67.462z"/>
		</g>
		<g>
			<path d="M389.537,67.801c2.664,0.023,5.184,1.032,5.376,3.264c0.144,1.632-2.016,3.12-4.68,3.12
				c-2.688-0.024-5.185-1.008-5.4-3.24C384.689,69.29,386.873,67.801,389.537,67.801z M390.185,73.633
				c1.152,0,1.896-1.104,1.776-1.992c-0.264-1.752-0.864-3.168-2.448-3.168c-1.151,0-1.823,1.128-1.68,2.016
				C388.097,72.241,388.601,73.633,390.185,73.633z"/>
		</g>
		<g>
			<path d="M158.073,39.633c0.456-1.248,1.488-2.256,2.256-2.64c0.768-0.36,1.752-0.552,2.88-0.456
				c0.576,0.048,1.584,0.216,2.16,0.816V18.129h0.456v20.496c0,0.096-0.024,0.168-0.024,0.24c-0.048,0.432-0.168,0.792-0.264,1.032
				c-0.456,1.248-1.44,2.088-2.184,2.52s-1.872,0.744-3.24,0.6c-0.528-0.072-1.68-0.168-2.16-1.032
				C157.569,41.337,157.905,40.113,158.073,39.633z M160.953,41.649c0.552-0.288,0.96-0.528,1.464-0.792
				c0.48-0.288,0.912-0.552,1.44-0.888c0.72-0.456,1.656-1.248,1.176-2.064c-0.48-0.816-1.656-0.408-2.4-0.048
				c-0.576,0.288-1.032,0.528-1.512,0.816c-0.48,0.264-0.912,0.504-1.416,0.84c-0.72,0.456-1.656,1.272-1.152,2.088
				C159.009,42.417,160.185,42.009,160.953,41.649z"/>
		</g>
		<g>
			<path d="M166.513,70.849c-0.456,1.248-1.488,2.256-2.232,2.64c-0.768,0.385-1.776,0.576-2.88,0.456
				c-0.6-0.048-1.608-0.216-2.16-0.792v19.225h-0.456V71.881c0-0.097,0-0.168,0-0.265c0.048-0.407,0.192-0.792,0.288-1.031
				c0.456-1.225,1.416-2.089,2.16-2.496c0.744-0.433,1.896-0.744,3.264-0.601c0.504,0.048,1.656,0.168,2.136,1.008
				C167.017,69.169,166.705,70.393,166.513,70.849z M163.657,68.857c-0.552,0.288-0.984,0.504-1.464,0.792s-0.936,0.528-1.464,0.888
				c-0.696,0.456-1.632,1.248-1.152,2.064s1.632,0.408,2.4,0.024c0.552-0.265,1.008-0.505,1.488-0.792
				c0.504-0.288,0.912-0.505,1.44-0.841c0.696-0.456,1.632-1.271,1.152-2.088C165.577,68.089,164.401,68.473,163.657,68.857z"/>
		</g>
		<g>
			<path d="M43.457,20.769c0,0.216,0,1.536,0,1.536c0.912-0.816,1.416-0.984,2.424-1.008c1.2-0.024,1.968,1.176,1.992,2.136
				c0.024,0.504-0.12,1.032-0.312,1.44c-0.216,0.528-0.792,0.936-1.176,1.32c-0.432,0.432-3.552,2.568-3.552,2.616V14.625h0.624
				C43.457,14.625,43.481,17.601,43.457,20.769z M43.721,23.145c-0.312,0.6-0.264,1.632-0.264,2.376v2.064
				c0,0.024,0.864-0.72,1.344-1.176c0.432-0.408,0.768-0.864,0.936-1.584c0.192-0.72,0.12-1.488-0.336-1.992
				C45.089,22.473,44.225,22.185,43.721,23.145z"/>
		</g>
		<g>
			<path fill="none" stroke="#000000" stroke-dasharray="12" d="M157.019,45.605h10.043"/>
			<g>
				<path d="M158.071,49.136c0.456-1.248,1.488-2.256,2.256-2.64c0.768-0.36,1.752-0.552,2.88-0.456
					c0.576,0.048,1.584,0.216,2.16,0.816V27.632h0.456v20.496c0,0.096-0.024,0.168-0.024,0.24c-0.048,0.432-0.168,0.792-0.264,1.032
					c-0.456,1.248-1.44,2.088-2.184,2.52s-1.872,0.744-3.24,0.6c-0.528-0.072-1.68-0.168-2.16-1.032
					C157.567,50.84,157.903,49.616,158.071,49.136z M160.951,51.152c0.552-0.288,0.96-0.528,1.464-0.792
					c0.48-0.288,0.912-0.552,1.44-0.888c0.72-0.456,1.656-1.248,1.176-2.064c-0.48-0.816-1.656-0.408-2.4-0.048
					c-0.576,0.288-1.032,0.528-1.512,0.816c-0.48,0.264-0.912,0.504-1.416,0.84c-0.72,0.456-1.656,1.272-1.152,2.088
					C159.007,51.92,160.183,51.512,160.951,51.152z"/>
			</g>
		</g>
		<g>
			<path fill="none" stroke="#000000" stroke-miterlimit="1" d="M157.271,180.844h11.645"/>
			<g>
				<path d="M159.66,180.726c0.456-1.248,1.488-2.256,2.256-2.641c0.768-0.359,1.752-0.552,2.88-0.456
					c0.576,0.049,1.584,0.217,2.16,0.816v-19.224h0.456v20.496c0,0.096-0.024,0.168-0.024,0.239
					c-0.048,0.433-0.168,0.792-0.264,1.032c-0.456,1.248-1.44,2.088-2.184,2.521c-0.744,0.432-1.872,0.743-3.24,0.6
					c-0.528-0.072-1.68-0.168-2.16-1.032C159.156,182.43,159.492,181.206,159.66,180.726z M162.54,182.742
					c0.552-0.288,0.96-0.528,1.464-0.792c0.48-0.288,0.912-0.552,1.44-0.888c0.72-0.456,1.656-1.248,1.176-2.064
					c-0.48-0.815-1.656-0.408-2.4-0.048c-0.576,0.288-1.032,0.528-1.512,0.816c-0.48,0.264-0.912,0.504-1.416,0.84
					c-0.72,0.456-1.656,1.271-1.152,2.088C160.596,183.51,161.772,183.102,162.54,182.742z"/>
			</g>
		</g>
		<g>
			<path d="M114.769,179.313v13.704h-0.624v-5.136l-3.336,0.864v-13.873h0.6v5.353L114.769,179.313z M111.409,182.529v3.769
				l2.736-0.721v-3.768L111.409,182.529z"/>
		</g>
		<path fill="none" stroke="#000000" d="M328.935,60.423h14"/>
		<g>
			<path fill="none" stroke="#000000" d="M78.935,181.423h14"/>
			<path fill="none" stroke="#000000" d="M78.935,188.423h14"/>
		</g>
		<path fill="none" stroke="#000000" d="M316.935,181.423h14"/>
		<g>
			<g>
				<path fill="none" stroke="#000000" d="M13,10.558h187.191"/>
				<path fill="none" stroke="#000000" d="M13,24.67h187.191"/>
				<path fill="none" stroke="#000000" d="M13.093,31.793h187.191"/>
				<path fill="none" stroke="#000000" d="M12.95,39.176h187.19"/>
				<path fill="none" stroke="#000000" d="M12.95,17.813h187.19"/>
			</g>
			<g>
				<path fill="none" stroke="#000000" d="M13.257,67.369h187.191"/>
				<path fill="none" stroke="#000000" d="M13.257,81.481h187.191"/>
				<path fill="none" stroke="#000000" d="M13.35,88.604h187.191"/>
				<path fill="none" stroke="#000000" d="M13.207,95.987h187.191"/>
				<path fill="none" stroke="#000000" d="M13.207,74.624h187.191"/>
			</g>
			<g>
				<path d="M26.599,37.236c-4.944-2.352-5.736-5.376-5.952-8.472c-0.24-3.36,1.896-6.768,3.888-8.664
					c1.152-1.08,2.4-2.136,3.888-3.264c-0.048-0.84-0.24-1.176-0.336-2.376c-0.024-0.504-0.336-2.856,0.168-5.568
					c0.312-1.608,2.328-5.4,3.72-5.424c1.08-0.024,2.736,4.296,2.784,6.456c0.072,3.336-0.72,4.848-1.704,6.576
					c-0.504,0.864-1.032,1.464-1.584,2.136c-0.576,0.696-1.224,1.104-1.824,1.632c0,0,0.768,4.344,0.792,4.656
					c1.536-0.192,3.408,0.36,4.08,0.84c1.704,1.272,2.352,3.024,2.472,4.728c0.216,2.712-1.272,5.568-4.56,6.936
					c0,0,0.504,3.456,0.624,4.176c0.264,1.896,0.216,3.096-0.192,3.864c-0.696,1.296-1.824,2.496-4.008,2.64
					c-1.68,0.096-4.992-0.744-5.16-3.384c-0.096-1.56,0.6-3.24,2.496-3.36c1.152-0.096,2.52,0.864,2.616,2.232
					c0.096,1.176-0.672,2.4-2.664,2.952c0.312,0.432,1.248,0.936,2.592,0.936c1.392,0,2.832-0.936,3.528-2.184
					c0.432-0.816,0.384-2.28,0.216-3.624c-0.072-0.456-0.648-4.08-0.648-4.08C30.055,37.884,27.606,37.716,26.599,37.236z
					 M27.079,31.548c0.048,1.152,1.008,2.496,1.896,2.952c-0.12,0.072-0.24,0.264-0.24,0.264c-0.984-0.48-1.824-1.272-2.04-1.56
					c-0.696-0.936-0.984-1.464-1.08-2.88c-0.096-1.32,0.624-3.096,2.232-4.344c0.84-0.624,1.248-0.768,1.968-0.936l-0.72-4.344
					c-0.744,0.432-3.816,2.904-5.112,4.92c-1.152,1.8-1.848,3.24-1.704,5.016c0.288,4.008,4.68,7.296,9.432,6.168
					c0,0-1.416-8.52-1.392-8.52C27.703,28.38,27.006,30.396,27.079,31.548z M29.022,16.332c2.088-1.632,4.92-4.704,4.752-7.08
					c-0.048-0.744-0.36-2.088-1.44-2.064C29.862,7.212,28.471,12.372,29.022,16.332z M32.287,36.612
					c2.76-0.936,2.88-3.312,2.784-4.728c-0.096-1.176-0.624-3.816-4.128-3.648L32.287,36.612z"/>
			</g>
			<g>
				<path d="M28.697,85.622c-0.937,1.135-1.526,1.759-2.704,2.667c-1.418,1.106-2.382,1.561-4.042,2.242
					c-1.606,0.624-4.31,1.135-4.31,1.135l-0.188-0.426c0,0,4.523-1.447,6.745-3.944c2.917-3.206,4.443-7.094,4.363-12.061
					c-0.027-2.241-0.696-6.441-4.069-6.47c-1.927,0-4.657,1.76-4.47,3.944c0.053,0.313,0.803-0.34,2.275-0.283
					c1.553,0.057,2.382,2.1,2.008,3.688c-0.268,1.249-1.018,2.043-2.382,2.043c-1.74,0-3.292-1.305-3.319-3.462
					c-0.053-3.263,1.66-4.909,2.704-5.59c1.312-0.852,2.73-1.164,3.935-1.164c2.704-0.057,5.702,2.016,6.719,5.023
					c0.589,1.702,0.589,3.604,0.134,5.817c-0.294,1.504-0.669,2.326-1.338,3.688C30.088,83.777,29.607,84.486,28.697,85.622z
					 M34.907,70.014c0.83,0,1.499,0.624,1.499,1.476c0.027,0.851-0.642,1.589-1.445,1.589c-0.803,0.028-1.499-0.681-1.499-1.532
					C33.435,70.667,34.104,70.042,34.907,70.014z M34.933,77.165c0.803,0,1.472,0.625,1.499,1.476c0,0.88-0.642,1.59-1.445,1.59
					c-0.83,0.028-1.499-0.653-1.526-1.533C33.461,77.846,34.104,77.193,34.933,77.165z"/>
			</g>
			<path fill="none" stroke="#0A0A0A" d="M12.644,10.898V96.21"/>
			<g>
				<path d="M9.673,97.085v1.75c-0.957-0.457-1.785-1.371-2.486-2.74C6.24,94.267,5.501,91.919,4.97,89.05
					c-0.531-2.873-0.797-5.955-0.797-9.248c0-2.188,0.094-4.73,0.285-7.635c0.227-3.391,0.34-5.887,0.34-7.486
					c0-2.479-0.293-4.729-0.877-6.752c-0.586-2.021-1.377-3.262-2.373-3.719v-2c0.996-0.457,1.787-1.689,2.373-3.697
					c0.584-2.008,0.877-4.287,0.877-6.834c0-1.566-0.113-4.049-0.34-7.445c-0.191-2.906-0.285-5.471-0.285-7.691
					c0-3.33,0.281-6.465,0.848-9.404s1.322-5.291,2.268-7.055C7.96,8.81,8.755,7.978,9.673,7.585v1.75
					c-1.113,0.916-1.932,2.395-2.459,4.436c-0.527,2.043-0.791,4.436-0.791,7.18c0,1.699,0.111,4.264,0.334,7.693
					c0.193,2.973,0.291,5.521,0.291,7.645c0,3.398-0.371,6.643-1.109,9.729c-0.738,3.088-1.813,5.465-3.223,7.131
					c1.379,1.693,2.447,4.102,3.201,7.227s1.131,6.395,1.131,9.811c0,2.148-0.098,4.688-0.291,7.617
					c-0.223,3.416-0.334,5.986-0.334,7.713c0,2.668,0.264,5.027,0.791,7.08C7.742,94.644,8.56,96.14,9.673,97.085z"/>
			</g>
		</g>
		<g>
			<g>
				<path fill="none" stroke="#000000" d="M242.097,10.88h187.191"/>
				<path fill="none" stroke="#000000" d="M242.097,24.993h187.191"/>
				<path fill="none" stroke="#000000" d="M242.19,32.116h187.191"/>
				<path fill="none" stroke="#000000" d="M242.047,39.499h187.19"/>
				<path fill="none" stroke="#000000" d="M242.047,18.135h187.19"/>
			</g>
			<g>
				<path fill="none" stroke="#000000" d="M242.354,67.691h187.191"/>
				<path fill="none" stroke="#000000" d="M242.354,81.803h187.191"/>
				<path fill="none" stroke="#000000" d="M242.447,88.926h187.191"/>
				<path fill="none" stroke="#000000" d="M242.304,96.309h187.191"/>
				<path fill="none" stroke="#000000" d="M242.304,74.946h187.191"/>
			</g>
			<g>
				<path d="M255.695,37.559c-4.944-2.352-5.736-5.376-5.952-8.472c-0.24-3.36,1.896-6.768,3.888-8.664
					c1.152-1.08,2.4-2.136,3.888-3.264c-0.048-0.84-0.24-1.176-0.336-2.376c-0.024-0.504-0.336-2.856,0.168-5.568
					c0.312-1.608,2.328-5.4,3.72-5.424c1.08-0.024,2.736,4.296,2.784,6.456c0.072,3.336-0.72,4.848-1.704,6.576
					c-0.504,0.864-1.032,1.464-1.584,2.136c-0.576,0.696-1.224,1.104-1.824,1.632c0,0,0.768,4.344,0.792,4.656
					c1.536-0.192,3.408,0.36,4.08,0.84c1.704,1.272,2.352,3.024,2.472,4.728c0.216,2.712-1.272,5.568-4.56,6.936
					c0,0,0.504,3.456,0.624,4.176c0.264,1.896,0.216,3.096-0.192,3.864c-0.696,1.296-1.824,2.496-4.008,2.64
					c-1.68,0.096-4.992-0.744-5.16-3.384c-0.096-1.56,0.6-3.24,2.496-3.36c1.152-0.096,2.52,0.864,2.616,2.232
					c0.096,1.176-0.672,2.4-2.664,2.952c0.312,0.432,1.248,0.936,2.592,0.936c1.392,0,2.832-0.936,3.528-2.184
					c0.432-0.816,0.384-2.28,0.216-3.624c-0.072-0.456-0.648-4.08-0.648-4.08C259.151,38.207,256.703,38.039,255.695,37.559z
					 M256.175,31.871c0.048,1.152,1.008,2.496,1.896,2.952c-0.12,0.072-0.24,0.264-0.24,0.264c-0.984-0.48-1.824-1.272-2.04-1.56
					c-0.696-0.936-0.984-1.464-1.08-2.88c-0.096-1.32,0.624-3.096,2.232-4.344c0.84-0.624,1.248-0.768,1.968-0.936l-0.72-4.344
					c-0.744,0.432-3.816,2.904-5.112,4.92c-1.152,1.8-1.848,3.24-1.704,5.016c0.288,4.008,4.68,7.296,9.432,6.168
					c0,0-1.416-8.52-1.392-8.52C256.799,28.703,256.103,30.719,256.175,31.871z M258.119,16.654c2.088-1.632,4.92-4.704,4.752-7.08
					c-0.048-0.744-0.36-2.088-1.44-2.064C258.959,7.535,257.567,12.694,258.119,16.654z M261.383,36.935
					c2.76-0.936,2.88-3.312,2.784-4.728c-0.096-1.176-0.624-3.816-4.128-3.648L261.383,36.935z"/>
			</g>
			<g>
				<path d="M257.793,85.944c-0.937,1.135-1.526,1.759-2.704,2.667c-1.418,1.106-2.382,1.561-4.042,2.242
					c-1.606,0.624-4.31,1.135-4.31,1.135l-0.188-0.426c0,0,4.523-1.447,6.745-3.944c2.917-3.206,4.443-7.094,4.363-12.061
					c-0.027-2.241-0.696-6.441-4.069-6.47c-1.927,0-4.657,1.76-4.47,3.944c0.053,0.313,0.803-0.34,2.275-0.283
					c1.553,0.057,2.382,2.1,2.008,3.688c-0.268,1.249-1.018,2.043-2.382,2.043c-1.74,0-3.292-1.305-3.319-3.462
					c-0.053-3.263,1.66-4.909,2.704-5.59c1.312-0.852,2.73-1.164,3.935-1.164c2.704-0.057,5.702,2.016,6.719,5.023
					c0.589,1.702,0.589,3.604,0.134,5.817c-0.294,1.504-0.669,2.326-1.338,3.688C259.185,84.099,258.704,84.808,257.793,85.944z
					 M264.003,70.336c0.83,0,1.499,0.624,1.499,1.476c0.027,0.851-0.642,1.589-1.445,1.589c-0.803,0.028-1.499-0.681-1.499-1.532
					C262.531,70.989,263.2,70.365,264.003,70.336z M264.03,77.487c0.803,0,1.472,0.625,1.499,1.476c0,0.88-0.642,1.59-1.445,1.59
					c-0.83,0.028-1.499-0.653-1.526-1.533C262.558,78.168,263.2,77.515,264.03,77.487z"/>
			</g>
			<path fill="none" stroke="#0A0A0A" d="M241.741,11.22v85.313"/>
			<g>
				<path d="M238.77,97.408v1.75c-0.957-0.457-1.785-1.371-2.486-2.74c-0.947-1.828-1.686-4.176-2.217-7.045
					c-0.531-2.873-0.797-5.955-0.797-9.248c0-2.188,0.094-4.73,0.285-7.635c0.227-3.391,0.34-5.887,0.34-7.486
					c0-2.479-0.293-4.729-0.877-6.752c-0.586-2.021-1.377-3.262-2.373-3.719v-2c0.996-0.457,1.787-1.689,2.373-3.697
					c0.584-2.008,0.877-4.287,0.877-6.834c0-1.566-0.113-4.049-0.34-7.445c-0.191-2.906-0.285-5.471-0.285-7.691
					c0-3.33,0.281-6.465,0.848-9.404s1.322-5.291,2.268-7.055c0.672-1.273,1.467-2.105,2.385-2.498v1.75
					c-1.113,0.916-1.932,2.395-2.459,4.436c-0.527,2.043-0.791,4.436-0.791,7.18c0,1.699,0.111,4.264,0.334,7.693
					c0.193,2.973,0.291,5.521,0.291,7.645c0,3.398-0.371,6.643-1.109,9.729c-0.738,3.088-1.813,5.465-3.223,7.131
					c1.379,1.693,2.447,4.102,3.201,7.227s1.131,6.395,1.131,9.811c0,2.148-0.098,4.688-0.291,7.617
					c-0.223,3.416-0.334,5.986-0.334,7.713c0,2.668,0.264,5.027,0.791,7.08C236.838,94.966,237.657,96.462,238.77,97.408z"/>
			</g>
		</g>
		<g>
			<g>
				<path fill="none" stroke="#000000" d="M11.452,145.171h187.191"/>
				<path fill="none" stroke="#000000" d="M11.452,159.283h187.191"/>
				<path fill="none" stroke="#000000" d="M11.545,166.406h187.191"/>
				<path fill="none" stroke="#000000" d="M11.402,173.789h187.19"/>
				<path fill="none" stroke="#000000" d="M11.402,152.425h187.19"/>
			</g>
			<g>
				<path fill="none" stroke="#000000" d="M11.709,201.982H198.9"/>
				<path fill="none" stroke="#000000" d="M11.709,216.093H198.9"/>
				<path fill="none" stroke="#000000" d="M11.802,223.216h187.191"/>
				<path fill="none" stroke="#000000" d="M11.659,230.599H198.85"/>
				<path fill="none" stroke="#000000" d="M11.659,209.236H198.85"/>
			</g>
			<g>
				<path d="M25.05,171.85c-4.944-2.353-5.736-5.377-5.952-8.473c-0.24-3.36,1.896-6.768,3.888-8.664
					c1.152-1.08,2.4-2.136,3.888-3.264c-0.048-0.84-0.24-1.176-0.336-2.376c-0.024-0.504-0.336-2.856,0.168-5.568
					c0.312-1.608,2.328-5.4,3.72-5.424c1.08-0.024,2.736,4.296,2.784,6.456c0.072,3.336-0.72,4.848-1.704,6.576
					c-0.504,0.863-1.032,1.464-1.584,2.136c-0.576,0.696-1.224,1.104-1.824,1.632c0,0,0.768,4.344,0.792,4.656
					c1.536-0.192,3.408,0.36,4.08,0.84c1.704,1.272,2.352,3.024,2.472,4.729c0.216,2.712-1.272,5.567-4.56,6.936
					c0,0,0.504,3.456,0.624,4.176c0.264,1.896,0.216,3.097-0.192,3.864c-0.696,1.296-1.824,2.496-4.008,2.641
					c-1.68,0.096-4.992-0.744-5.16-3.385c-0.096-1.56,0.6-3.239,2.496-3.359c1.152-0.097,2.52,0.863,2.616,2.231
					c0.096,1.176-0.672,2.4-2.664,2.952c0.312,0.432,1.248,0.937,2.592,0.937c1.392,0,2.832-0.937,3.528-2.185
					c0.432-0.815,0.384-2.28,0.216-3.624c-0.072-0.456-0.648-4.08-0.648-4.08C28.506,172.498,26.058,172.33,25.05,171.85z
					 M25.53,166.162c0.048,1.152,1.008,2.496,1.896,2.952c-0.12,0.072-0.24,0.264-0.24,0.264c-0.984-0.479-1.824-1.271-2.04-1.56
					c-0.696-0.937-0.984-1.464-1.08-2.88c-0.096-1.32,0.624-3.097,2.232-4.345c0.84-0.624,1.248-0.768,1.968-0.936l-0.72-4.344
					c-0.744,0.432-3.816,2.903-5.112,4.92c-1.152,1.8-1.848,3.239-1.704,5.016c0.288,4.008,4.68,7.296,9.432,6.168
					c0,0-1.416-8.52-1.392-8.52C26.154,162.994,25.458,165.009,25.53,166.162z M27.474,150.946c2.088-1.632,4.92-4.704,4.752-7.08
					c-0.048-0.744-0.36-2.088-1.44-2.064C28.314,141.826,26.922,146.986,27.474,150.946z M30.738,171.226
					c2.76-0.937,2.88-3.313,2.784-4.729c-0.096-1.176-0.624-3.816-4.128-3.648L30.738,171.226z"/>
			</g>
			<g>
				<path d="M27.148,220.235c-0.937,1.135-1.526,1.759-2.704,2.667c-1.418,1.106-2.382,1.561-4.042,2.242
					c-1.606,0.624-4.31,1.135-4.31,1.135l-0.188-0.426c0,0,4.523-1.447,6.745-3.944c2.918-3.206,4.443-7.094,4.363-12.061
					c-0.027-2.241-0.696-6.441-4.069-6.47c-1.927,0-4.657,1.76-4.47,3.944c0.053,0.313,0.803-0.34,2.275-0.283
					c1.553,0.057,2.382,2.1,2.008,3.688c-0.268,1.249-1.018,2.043-2.382,2.043c-1.74,0-3.292-1.305-3.319-3.462
					c-0.053-3.263,1.66-4.909,2.704-5.59c1.312-0.852,2.73-1.164,3.935-1.164c2.704-0.057,5.702,2.016,6.719,5.023
					c0.589,1.702,0.589,3.604,0.134,5.817c-0.294,1.504-0.669,2.326-1.338,3.688C28.54,218.39,28.059,219.099,27.148,220.235z
					 M33.358,204.627c0.83,0,1.499,0.624,1.499,1.476c0.027,0.851-0.642,1.589-1.445,1.589c-0.803,0.028-1.499-0.681-1.499-1.532
					C31.886,205.28,32.555,204.656,33.358,204.627z M33.385,211.778c0.803,0,1.472,0.625,1.499,1.476c0,0.88-0.642,1.59-1.445,1.59
					c-0.83,0.028-1.499-0.653-1.526-1.533C31.913,212.459,32.555,211.806,33.385,211.778z"/>
			</g>
			<path fill="none" stroke="#0A0A0A" d="M11.096,145.511v85.313"/>
			<g>
				<path d="M8.125,231.699v1.75c-0.957-0.457-1.785-1.371-2.486-2.74c-0.947-1.828-1.686-4.176-2.217-7.045
					c-0.531-2.873-0.797-5.955-0.797-9.248c0-2.188,0.094-4.73,0.285-7.635c0.227-3.391,0.34-5.887,0.34-7.486
					c0-2.479-0.293-4.729-0.877-6.752c-0.586-2.021-1.377-3.262-2.373-3.719v-2c0.996-0.457,1.787-1.689,2.373-3.697
					c0.584-2.008,0.877-4.287,0.877-6.834c0-1.566-0.113-4.049-0.34-7.445c-0.191-2.906-0.285-5.471-0.285-7.691
					c0-3.33,0.281-6.465,0.848-9.404s1.322-5.291,2.268-7.055c0.672-1.273,1.467-2.105,2.385-2.498v1.75
					c-1.113,0.916-1.932,2.395-2.459,4.436c-0.527,2.043-0.791,4.436-0.791,7.18c0,1.699,0.111,4.264,0.334,7.693
					c0.193,2.973,0.291,5.521,0.291,7.645c0,3.398-0.371,6.643-1.109,9.729c-0.738,3.088-1.813,5.465-3.223,7.131
					c1.379,1.693,2.447,4.102,3.201,7.227s1.131,6.395,1.131,9.811c0,2.148-0.098,4.688-0.291,7.617
					c-0.223,3.416-0.334,5.986-0.334,7.713c0,2.668,0.264,5.027,0.791,7.08C6.193,229.257,7.012,230.753,8.125,231.699z"/>
			</g>
		</g>
		<g>
			<g>
				<path fill="none" stroke="#000000" d="M245.323,146.785h187.19"/>
				<path fill="none" stroke="#000000" d="M245.323,160.896h187.19"/>
				<path fill="none" stroke="#000000" d="M245.416,168.019h187.191"/>
				<path fill="none" stroke="#000000" d="M245.273,175.402h187.19"/>
				<path fill="none" stroke="#000000" d="M245.273,154.039h187.19"/>
			</g>
			<g>
				<path fill="none" stroke="#000000" d="M245.58,203.595h187.191"/>
				<path fill="none" stroke="#000000" d="M245.58,217.707h187.191"/>
				<path fill="none" stroke="#000000" d="M245.673,224.83h187.19"/>
				<path fill="none" stroke="#000000" d="M245.53,232.212h187.191"/>
				<path fill="none" stroke="#000000" d="M245.53,210.849h187.191"/>
			</g>
			<g>
				<path d="M258.921,173.463c-4.944-2.353-5.736-5.377-5.952-8.473c-0.24-3.36,1.896-6.768,3.888-8.664
					c1.152-1.08,2.4-2.136,3.888-3.264c-0.048-0.84-0.24-1.176-0.336-2.376c-0.024-0.504-0.336-2.856,0.168-5.568
					c0.312-1.608,2.328-5.4,3.72-5.424c1.08-0.024,2.736,4.296,2.784,6.456c0.072,3.336-0.72,4.848-1.704,6.576
					c-0.504,0.863-1.032,1.464-1.584,2.136c-0.576,0.696-1.224,1.104-1.824,1.632c0,0,0.768,4.344,0.792,4.656
					c1.536-0.192,3.408,0.36,4.08,0.84c1.704,1.272,2.352,3.024,2.472,4.729c0.216,2.712-1.272,5.567-4.56,6.936
					c0,0,0.504,3.456,0.624,4.176c0.264,1.896,0.216,3.097-0.192,3.864c-0.696,1.296-1.824,2.496-4.008,2.641
					c-1.68,0.096-4.992-0.744-5.16-3.385c-0.096-1.56,0.6-3.239,2.496-3.359c1.152-0.097,2.52,0.863,2.616,2.231
					c0.096,1.176-0.672,2.4-2.664,2.952c0.312,0.432,1.248,0.937,2.592,0.937c1.392,0,2.832-0.937,3.528-2.185
					c0.432-0.815,0.384-2.28,0.216-3.624c-0.072-0.456-0.648-4.08-0.648-4.08C262.377,174.111,259.929,173.943,258.921,173.463z
					 M259.401,167.775c0.048,1.152,1.008,2.496,1.896,2.952c-0.12,0.072-0.24,0.264-0.24,0.264c-0.984-0.479-1.824-1.271-2.04-1.56
					c-0.696-0.937-0.984-1.464-1.08-2.88c-0.096-1.32,0.624-3.097,2.232-4.345c0.84-0.624,1.248-0.768,1.968-0.936l-0.72-4.344
					c-0.744,0.432-3.816,2.903-5.112,4.92c-1.152,1.8-1.848,3.239-1.704,5.016c0.288,4.008,4.68,7.296,9.432,6.168
					c0,0-1.416-8.52-1.392-8.52C260.025,164.607,259.329,166.623,259.401,167.775z M261.345,152.559
					c2.088-1.632,4.92-4.704,4.752-7.08c-0.048-0.744-0.36-2.088-1.44-2.064C262.186,143.439,260.793,148.599,261.345,152.559z
					 M264.609,172.839c2.76-0.937,2.88-3.313,2.784-4.729c-0.096-1.176-0.624-3.816-4.128-3.648L264.609,172.839z"/>
			</g>
			<g>
				<path d="M261.02,221.848c-0.937,1.135-1.526,1.759-2.704,2.667c-1.418,1.106-2.382,1.561-4.042,2.242
					c-1.606,0.624-4.31,1.135-4.31,1.135l-0.188-0.426c0,0,4.523-1.447,6.745-3.944c2.918-3.206,4.443-7.094,4.363-12.061
					c-0.027-2.241-0.696-6.441-4.069-6.47c-1.927,0-4.657,1.76-4.47,3.944c0.053,0.313,0.803-0.34,2.275-0.283
					c1.553,0.057,2.382,2.1,2.008,3.688c-0.268,1.249-1.018,2.043-2.382,2.043c-1.74,0-3.292-1.305-3.319-3.462
					c-0.053-3.263,1.66-4.909,2.704-5.59c1.312-0.852,2.73-1.164,3.935-1.164c2.704-0.057,5.702,2.016,6.719,5.023
					c0.589,1.702,0.589,3.604,0.134,5.817c-0.294,1.504-0.669,2.326-1.338,3.688C262.411,220.003,261.93,220.712,261.02,221.848z
					 M267.229,206.241c0.83,0,1.499,0.624,1.499,1.476c0.027,0.851-0.642,1.589-1.445,1.589c-0.803,0.028-1.499-0.681-1.499-1.532
					C265.757,206.893,266.426,206.269,267.229,206.241z M267.256,213.391c0.803,0,1.472,0.625,1.499,1.476
					c0,0.88-0.642,1.59-1.445,1.59c-0.83,0.028-1.499-0.653-1.526-1.533C265.784,214.073,266.426,213.419,267.256,213.391z"/>
			</g>
			<path fill="none" stroke="#0A0A0A" d="M244.967,147.125v85.313"/>
			<g>
				<path d="M241.996,233.312v1.75c-0.957-0.457-1.785-1.371-2.486-2.74c-0.947-1.828-1.686-4.176-2.217-7.045
					c-0.531-2.873-0.797-5.955-0.797-9.248c0-2.188,0.094-4.73,0.285-7.635c0.227-3.391,0.34-5.887,0.34-7.486
					c0-2.479-0.293-4.729-0.877-6.752c-0.586-2.021-1.377-3.262-2.373-3.719v-2c0.996-0.457,1.787-1.689,2.373-3.697
					c0.584-2.008,0.877-4.287,0.877-6.834c0-1.566-0.113-4.049-0.34-7.445c-0.191-2.906-0.285-5.471-0.285-7.691
					c0-3.33,0.281-6.465,0.848-9.404s1.322-5.291,2.268-7.055c0.672-1.273,1.467-2.105,2.385-2.498v1.75
					c-1.113,0.916-1.932,2.395-2.459,4.436c-0.527,2.043-0.791,4.436-0.791,7.18c0,1.699,0.111,4.264,0.334,7.693
					c0.193,2.973,0.291,5.521,0.291,7.645c0,3.398-0.371,6.643-1.109,9.729c-0.738,3.088-1.813,5.465-3.223,7.131
					c1.379,1.693,2.447,4.102,3.201,7.227s1.131,6.395,1.131,9.811c0,2.148-0.098,4.688-0.291,7.617
					c-0.223,3.416-0.334,5.986-0.334,7.713c0,2.668,0.264,5.027,0.791,7.08C240.064,230.871,240.883,232.367,241.996,233.312z"/>
			</g>
		</g>
		<g>
			<path d="M123.446,71.462c2.04,0.023,3.144,1.416,2.52,3.12c-0.624,1.728-2.784,3.096-4.8,3.072
				c-0.984-0.024-1.776-0.385-2.232-0.937v19.08h-0.456c0-24.216,0-20.4,0-20.4c0-0.287,0.072-0.575,0.192-0.888
				C119.294,72.783,121.43,71.438,123.446,71.462z"/>
		</g>
		<g>
			<path d="M91.446,85.462c2.04,0.023,3.144,1.416,2.52,3.12c-0.624,1.728-2.784,3.096-4.8,3.072
				c-0.984-0.024-1.776-0.385-2.232-0.937v19.08h-0.456c0-24.216,0-20.4,0-20.4c0-0.287,0.072-0.575,0.192-0.888
				C87.294,86.783,89.43,85.438,91.446,85.462z"/>
		</g>
		<g>
			<path d="M123.446,85.462c2.04,0.023,3.144,1.416,2.52,3.12c-0.624,1.728-2.784,3.096-4.8,3.072
				c-0.984-0.024-1.776-0.385-2.232-0.937v19.08h-0.456c0-24.216,0-20.4,0-20.4c0-0.287,0.072-0.575,0.192-0.888
				C119.294,86.783,121.43,85.438,123.446,85.462z"/>
		</g>
		<g>
			<path d="M51.457,9.769c0,0.216,0,1.536,0,1.536c0.912-0.816,1.416-0.984,2.424-1.008c1.2-0.024,1.968,1.176,1.992,2.136
				c0.024,0.504-0.12,1.032-0.312,1.44c-0.216,0.528-0.792,0.936-1.176,1.32c-0.432,0.432-3.552,2.568-3.552,2.616V3.625h0.624
				C51.457,3.625,51.481,6.601,51.457,9.769z M51.721,12.145c-0.312,0.6-0.264,1.632-0.264,2.376v2.064
				c0,0.024,0.864-0.72,1.344-1.176c0.432-0.408,0.768-0.864,0.936-1.584c0.192-0.72,0.12-1.488-0.336-1.992
				C53.089,11.473,52.225,11.185,51.721,12.145z"/>
		</g>
		<g>
			<path d="M59.457,23.769c0,0.216,0,1.536,0,1.536c0.912-0.816,1.416-0.984,2.424-1.008c1.2-0.024,1.968,1.176,1.992,2.136
				c0.024,0.504-0.12,1.032-0.312,1.44c-0.216,0.528-0.792,0.936-1.176,1.32c-0.432,0.432-3.552,2.568-3.552,2.616V17.625h0.624
				C59.457,17.625,59.481,20.601,59.457,23.769z M59.721,26.145c-0.312,0.6-0.264,1.632-0.264,2.376v2.064
				c0,0.024,0.864-0.72,1.344-1.176c0.432-0.408,0.768-0.864,0.936-1.584c0.192-0.72,0.12-1.488-0.336-1.992
				C61.089,25.473,60.225,25.185,59.721,26.145z"/>
		</g>
		<g>
			<path d="M41.457,84.769c0,0.216,0,1.536,0,1.536c0.912-0.816,1.416-0.984,2.424-1.008c1.2-0.024,1.968,1.176,1.992,2.136
				c0.024,0.504-0.12,1.032-0.312,1.44c-0.216,0.527-0.792,0.936-1.176,1.319c-0.432,0.433-3.552,2.568-3.552,2.616V78.625h0.624
				C41.457,78.625,41.481,81.601,41.457,84.769z M41.721,87.145c-0.312,0.6-0.264,1.632-0.264,2.376v2.064
				c0,0.023,0.864-0.721,1.344-1.177c0.432-0.407,0.768-0.863,0.936-1.584c0.192-0.72,0.12-1.487-0.336-1.991
				C43.089,86.473,42.225,86.185,41.721,87.145z"/>
		</g>
		<g>
			<path d="M49.457,73.769c0,0.216,0,1.536,0,1.536c0.912-0.816,1.416-0.984,2.424-1.008c1.2-0.024,1.968,1.176,1.992,2.136
				c0.024,0.504-0.12,1.032-0.312,1.44c-0.216,0.527-0.792,0.936-1.176,1.319c-0.432,0.433-3.552,2.568-3.552,2.616V67.625h0.624
				C49.457,67.625,49.481,70.601,49.457,73.769z M49.721,76.145c-0.312,0.6-0.264,1.632-0.264,2.376v2.064
				c0,0.023,0.864-0.721,1.344-1.177c0.432-0.407,0.768-0.863,0.936-1.584c0.192-0.72,0.12-1.487-0.336-1.991
				C51.089,75.473,50.225,75.185,49.721,76.145z"/>
		</g>
		<g>
			<path d="M57.457,87.769c0,0.216,0,1.536,0,1.536c0.912-0.816,1.416-0.984,2.424-1.008c1.2-0.024,1.968,1.176,1.992,2.136
				c0.024,0.504-0.12,1.032-0.312,1.44c-0.216,0.527-0.792,0.936-1.176,1.319c-0.432,0.433-3.552,2.568-3.552,2.616V81.625h0.624
				C57.457,81.625,57.481,84.601,57.457,87.769z M57.721,90.145c-0.312,0.6-0.264,1.632-0.264,2.376v2.064
				c0,0.023,0.864-0.721,1.344-1.177c0.432-0.407,0.768-0.863,0.936-1.584c0.192-0.72,0.12-1.487-0.336-1.991
				C59.089,89.473,58.225,89.185,57.721,90.145z"/>
		</g>
		<path fill="none" stroke="#0A0A0A" d="M196.141,10.43v86.458"/>
		<path fill="none" stroke="#0A0A0A" stroke-width="2" d="M429.141,10.43v86.458"/>
		<path fill="none" stroke="#0A0A0A" d="M425.141,10.43v86.458"/>
		<path fill="none" stroke="#0A0A0A" stroke-width="2" d="M199.141,144.43v86.458"/>
		<path fill="none" stroke="#0A0A0A" d="M195.141,144.43v86.458"/>
		<path fill="none" stroke="#0A0A0A" stroke-width="2" d="M432.982,146.438v86.458"/>
		<path fill="none" stroke="#0A0A0A" d="M428.982,146.438v86.458"/>
		<g>
			<path d="M166.513,78.849c-0.456,1.248-1.488,2.256-2.232,2.64c-0.768,0.385-1.776,0.576-2.88,0.456
				c-0.6-0.048-1.608-0.216-2.16-0.792v19.225h-0.456V79.881c0-0.097,0-0.168,0-0.265c0.048-0.407,0.192-0.792,0.288-1.031
				c0.456-1.225,1.416-2.089,2.16-2.496c0.744-0.433,1.896-0.744,3.264-0.601c0.504,0.048,1.656,0.168,2.136,1.008
				C167.017,77.169,166.705,78.393,166.513,78.849z M163.657,76.857c-0.552,0.288-0.984,0.504-1.464,0.792s-0.936,0.528-1.464,0.888
				c-0.696,0.456-1.632,1.248-1.152,2.064s1.632,0.408,2.4,0.024c0.552-0.265,1.008-0.505,1.488-0.792
				c0.504-0.288,0.912-0.505,1.44-0.841c0.696-0.456,1.632-1.271,1.152-2.088C165.577,76.089,164.401,76.473,163.657,76.857z"/>
		</g>
		<g>
			<path d="M272.865,71.273v-3.912h0.696v3.672l2.352-0.768v-3.504h0.696v3.288l0.936-0.313v2.496l-0.936,0.313v3.552l0.936-0.288
				v2.472l-0.936,0.313v3.912h-0.696v-3.696l-2.352,0.768v3.553h-0.696v-3.313l-1.032,0.336v-2.496l1.032-0.336v-3.576l-1.032,0.337
				v-2.473L272.865,71.273z M273.561,73.529v3.576l2.352-0.768v-3.576L273.561,73.529z"/>
		</g>
		<path fill="none" stroke="#0A0A0A" d="M356.141,10.43v86.458"/>
		<g>
			<path d="M304.073,32.633c0.456-1.248,1.487-2.256,2.256-2.64c0.768-0.36,1.752-0.552,2.88-0.456
				c0.576,0.048,1.584,0.216,2.16,0.816V11.129h0.456v20.496c0,0.096-0.024,0.168-0.024,0.24c-0.048,0.432-0.168,0.792-0.264,1.032
				c-0.456,1.248-1.44,2.088-2.184,2.52c-0.744,0.432-1.872,0.744-3.24,0.6c-0.528-0.072-1.681-0.168-2.16-1.032
				C303.569,34.337,303.905,33.113,304.073,32.633z M306.953,34.649c0.552-0.288,0.96-0.528,1.464-0.792
				c0.48-0.288,0.912-0.552,1.44-0.888c0.72-0.456,1.655-1.248,1.176-2.064c-0.48-0.816-1.656-0.408-2.4-0.048
				c-0.576,0.288-1.032,0.528-1.512,0.816c-0.48,0.264-0.912,0.504-1.416,0.84c-0.72,0.456-1.656,1.272-1.152,2.088
				C305.009,35.417,306.185,35.009,306.953,34.649z"/>
		</g>
		<g>
			<path d="M311.513,78.849c-0.456,1.248-1.487,2.256-2.231,2.64c-0.769,0.385-1.776,0.576-2.88,0.456
				c-0.601-0.048-1.608-0.216-2.16-0.792v19.225h-0.456V79.881c0-0.097,0-0.168,0-0.265c0.048-0.407,0.191-0.792,0.288-1.031
				c0.456-1.225,1.416-2.089,2.16-2.496c0.743-0.433,1.896-0.744,3.264-0.601c0.504,0.048,1.656,0.168,2.136,1.008
				C312.017,77.169,311.705,78.393,311.513,78.849z M308.657,76.857c-0.552,0.288-0.984,0.504-1.464,0.792
				c-0.48,0.288-0.937,0.528-1.464,0.888c-0.696,0.456-1.633,1.248-1.152,2.064c0.479,0.816,1.632,0.408,2.399,0.024
				c0.553-0.265,1.009-0.505,1.488-0.792c0.504-0.288,0.912-0.505,1.44-0.841c0.695-0.456,1.632-1.271,1.151-2.088
				C310.577,76.089,309.401,76.473,308.657,76.857z"/>
		</g>
		<g>
			<path d="M311.513,63.849c-0.456,1.248-1.487,2.256-2.231,2.64c-0.769,0.385-1.776,0.576-2.88,0.456
				c-0.601-0.048-1.608-0.216-2.16-0.792v19.225h-0.456V64.881c0-0.097,0-0.168,0-0.265c0.048-0.407,0.191-0.792,0.288-1.031
				c0.456-1.225,1.416-2.089,2.16-2.496c0.743-0.433,1.896-0.744,3.264-0.601c0.504,0.048,1.656,0.168,2.136,1.008
				C312.017,62.169,311.705,63.393,311.513,63.849z M308.657,61.857c-0.552,0.288-0.984,0.504-1.464,0.792
				c-0.48,0.288-0.937,0.528-1.464,0.888c-0.696,0.456-1.633,1.248-1.152,2.064c0.479,0.816,1.632,0.408,2.399,0.024
				c0.553-0.265,1.009-0.505,1.488-0.792c0.504-0.288,0.912-0.505,1.44-0.841c0.695-0.456,1.632-1.271,1.151-2.088
				C310.577,61.089,309.401,61.473,308.657,61.857z"/>
		</g>
		<g>
			<path d="M339.513,84.849c-0.456,1.248-1.487,2.256-2.231,2.64c-0.769,0.385-1.776,0.576-2.88,0.456
				c-0.601-0.048-1.608-0.216-2.16-0.792v19.225h-0.456V85.881c0-0.097,0-0.168,0-0.265c0.048-0.407,0.191-0.792,0.288-1.031
				c0.456-1.225,1.416-2.089,2.16-2.496c0.743-0.433,1.896-0.744,3.264-0.601c0.504,0.048,1.656,0.168,2.136,1.008
				C340.017,83.169,339.705,84.393,339.513,84.849z M336.657,82.857c-0.552,0.288-0.984,0.504-1.464,0.792
				c-0.48,0.288-0.937,0.528-1.464,0.888c-0.696,0.456-1.633,1.248-1.152,2.064c0.479,0.816,1.632,0.408,2.399,0.024
				c0.553-0.265,1.009-0.505,1.488-0.792c0.504-0.288,0.912-0.505,1.44-0.841c0.695-0.456,1.632-1.271,1.151-2.088
				C338.577,82.089,337.401,82.473,336.657,82.857z"/>
		</g>
		<g>
			<path d="M330.912,21.504c0.456-1.248,1.487-2.256,2.256-2.64c0.768-0.36,1.752-0.552,2.88-0.456
				c0.576,0.048,1.584,0.216,2.16,0.816V0h0.456v20.496c0,0.096-0.024,0.168-0.024,0.24c-0.048,0.432-0.168,0.792-0.264,1.032
				c-0.456,1.248-1.44,2.088-2.184,2.52c-0.744,0.432-1.872,0.744-3.24,0.6c-0.528-0.072-1.681-0.168-2.16-1.032
				C330.408,23.208,330.744,21.984,330.912,21.504z M333.792,23.52c0.552-0.288,0.96-0.528,1.464-0.792
				c0.48-0.288,0.912-0.552,1.44-0.888c0.72-0.456,1.655-1.248,1.176-2.064c-0.48-0.816-1.656-0.408-2.4-0.048
				c-0.576,0.288-1.032,0.528-1.512,0.816c-0.48,0.264-0.912,0.504-1.416,0.84c-0.72,0.456-1.656,1.272-1.152,2.088
				C331.848,24.288,333.023,23.88,333.792,23.52z"/>
		</g>
		<g>
			<path d="M304.073,39.633c0.456-1.248,1.487-2.256,2.256-2.64c0.768-0.36,1.752-0.552,2.88-0.456
				c0.576,0.048,1.584,0.216,2.16,0.816V18.129h0.456v20.496c0,0.096-0.024,0.168-0.024,0.24c-0.048,0.432-0.168,0.792-0.264,1.032
				c-0.456,1.248-1.44,2.088-2.184,2.52c-0.744,0.432-1.872,0.744-3.24,0.6c-0.528-0.072-1.681-0.168-2.16-1.032
				C303.569,41.337,303.905,40.113,304.073,39.633z M306.953,41.649c0.552-0.288,0.96-0.528,1.464-0.792
				c0.48-0.288,0.912-0.552,1.44-0.888c0.72-0.456,1.655-1.248,1.176-2.064c-0.48-0.816-1.656-0.408-2.4-0.048
				c-0.576,0.288-1.032,0.528-1.512,0.816c-0.48,0.264-0.912,0.504-1.416,0.84c-0.72,0.456-1.656,1.272-1.152,2.088
				C305.009,42.417,306.185,42.009,306.953,41.649z"/>
		</g>
		<g>
			<path d="M331.073,39.633c0.456-1.248,1.487-2.256,2.256-2.64c0.768-0.36,1.752-0.552,2.88-0.456
				c0.576,0.048,1.584,0.216,2.16,0.816V18.129h0.456v20.496c0,0.096-0.024,0.168-0.024,0.24c-0.048,0.432-0.168,0.792-0.264,1.032
				c-0.456,1.248-1.44,2.088-2.184,2.52c-0.744,0.432-1.872,0.744-3.24,0.6c-0.528-0.072-1.681-0.168-2.16-1.032
				C330.569,41.337,330.905,40.113,331.073,39.633z M333.953,41.649c0.552-0.288,0.96-0.528,1.464-0.792
				c0.48-0.288,0.912-0.552,1.44-0.888c0.72-0.456,1.655-1.248,1.176-2.064c-0.48-0.816-1.656-0.408-2.4-0.048
				c-0.576,0.288-1.032,0.528-1.512,0.816c-0.48,0.264-0.912,0.504-1.416,0.84c-0.72,0.456-1.656,1.272-1.152,2.088
				C332.009,42.417,333.185,42.009,333.953,41.649z"/>
		</g>
		<g>
			<path d="M389.537,61.801c2.664,0.023,5.184,1.032,5.376,3.264c0.144,1.632-2.016,3.12-4.68,3.12
				c-2.688-0.024-5.185-1.008-5.4-3.24C384.689,63.29,386.873,61.801,389.537,61.801z M390.185,67.633
				c1.152,0,1.896-1.104,1.776-1.992c-0.264-1.752-0.864-3.168-2.448-3.168c-1.151,0-1.823,1.128-1.68,2.016
				C388.097,66.241,388.601,67.633,390.185,67.633z"/>
		</g>
		<g>
			<path d="M388.537,28.801c2.664,0.024,5.184,1.032,5.376,3.264c0.144,1.632-2.016,3.12-4.68,3.12
				c-2.688-0.024-5.185-1.008-5.4-3.24C383.689,30.289,385.873,28.801,388.537,28.801z M389.185,34.633
				c1.152,0,1.896-1.104,1.776-1.992c-0.264-1.752-0.864-3.168-2.448-3.168c-1.151,0-1.823,1.128-1.68,2.016
				C387.097,33.241,387.601,34.633,389.185,34.633z"/>
		</g>
		<g>
			<path d="M388.376,39.672c2.664,0.024,5.184,1.032,5.376,3.264c0.144,1.632-2.016,3.12-4.68,3.12
				c-2.688-0.024-5.185-1.008-5.4-3.24C383.528,41.16,385.712,39.672,388.376,39.672z M389.023,45.504
				c1.152,0,1.896-1.104,1.776-1.992c-0.264-1.752-0.864-3.168-2.448-3.168c-1.151,0-1.823,1.128-1.68,2.016
				C386.936,44.112,387.439,45.504,389.023,45.504z"/>
		</g>
		<g>
			<path d="M339.513,60.849c-0.456,1.248-1.487,2.256-2.231,2.64c-0.769,0.385-1.776,0.576-2.88,0.456
				c-0.601-0.048-1.608-0.216-2.16-0.792v19.225h-0.456V61.881c0-0.097,0-0.168,0-0.265c0.048-0.407,0.191-0.792,0.288-1.031
				c0.456-1.225,1.416-2.089,2.16-2.496c0.743-0.433,1.896-0.744,3.264-0.601c0.504,0.048,1.656,0.168,2.136,1.008
				C340.017,59.169,339.705,60.393,339.513,60.849z M336.657,58.857c-0.552,0.288-0.984,0.504-1.464,0.792
				c-0.48,0.288-0.937,0.528-1.464,0.888c-0.696,0.456-1.633,1.248-1.152,2.064c0.479,0.816,1.632,0.408,2.399,0.024
				c0.553-0.265,1.009-0.505,1.488-0.792c0.504-0.288,0.912-0.505,1.44-0.841c0.695-0.456,1.632-1.271,1.151-2.088
				C338.577,58.089,337.401,58.473,336.657,58.857z"/>
		</g>
		<g>
			<path d="M43.457,155.769c0,0.216,0,1.536,0,1.536c0.912-0.816,1.416-0.984,2.424-1.008c1.2-0.024,1.968,1.176,1.992,2.136
				c0.024,0.504-0.12,1.032-0.312,1.44c-0.216,0.527-0.792,0.936-1.176,1.319c-0.432,0.433-3.552,2.568-3.552,2.616v-14.184h0.624
				C43.457,149.625,43.481,152.601,43.457,155.769z M43.721,158.145c-0.312,0.6-0.264,1.632-0.264,2.376v2.064
				c0,0.023,0.864-0.721,1.344-1.177c0.432-0.407,0.768-0.863,0.936-1.584c0.192-0.72,0.12-1.487-0.336-1.991
				C45.089,157.473,44.225,157.185,43.721,158.145z"/>
		</g>
		<g>
			<path d="M43.457,219.769c0,0.216,0,1.536,0,1.536c0.912-0.816,1.416-0.984,2.424-1.008c1.2-0.024,1.968,1.176,1.992,2.136
				c0.024,0.504-0.12,1.032-0.312,1.44c-0.216,0.527-0.792,0.936-1.176,1.319c-0.432,0.433-3.552,2.568-3.552,2.616v-14.184h0.624
				C43.457,213.625,43.481,216.601,43.457,219.769z M43.721,222.145c-0.312,0.6-0.264,1.632-0.264,2.376v2.064
				c0,0.023,0.864-0.721,1.344-1.177c0.432-0.407,0.768-0.863,0.936-1.584c0.192-0.72,0.12-1.487-0.336-1.991
				C45.089,221.473,44.225,221.185,43.721,222.145z"/>
		</g>
		<g>
			<path d="M87.396,170.849c0.984,0,1.776,0.36,2.232,0.912v-19.225h0.456v20.4c0,0.336-0.048,0.672-0.168,1.056
				c-0.648,1.704-2.784,3.072-4.8,3.049c-2.016-0.024-3.144-1.44-2.52-3.145S85.38,170.825,87.396,170.849z"/>
		</g>
		<g>
			<path d="M161.073,212.633c0.456-1.248,1.488-2.256,2.256-2.641c0.768-0.359,1.752-0.552,2.88-0.456
				c0.576,0.049,1.584,0.217,2.16,0.816v-19.225h0.456v20.497c0,0.096-0.024,0.168-0.024,0.239
				c-0.048,0.433-0.168,0.792-0.264,1.032c-0.456,1.248-1.44,2.088-2.184,2.521c-0.744,0.432-1.872,0.743-3.24,0.6
				c-0.528-0.072-1.68-0.168-2.16-1.032C160.569,214.337,160.905,213.113,161.073,212.633z M163.953,214.649
				c0.552-0.288,0.96-0.528,1.464-0.792c0.48-0.288,0.912-0.552,1.44-0.888c0.72-0.456,1.656-1.248,1.176-2.064
				c-0.48-0.815-1.656-0.408-2.4-0.048c-0.576,0.288-1.032,0.528-1.512,0.816c-0.48,0.264-0.912,0.504-1.416,0.84
				c-0.72,0.456-1.656,1.271-1.152,2.088C162.009,215.417,163.185,215.009,163.953,214.649z"/>
		</g>
		<g>
			<path d="M87.396,177.849c0.984,0,1.776,0.36,2.232,0.912v-19.225h0.456v20.4c0,0.336-0.048,0.672-0.168,1.056
				c-0.648,1.704-2.784,3.072-4.8,3.049c-2.016-0.024-3.144-1.44-2.52-3.145S85.38,177.825,87.396,177.849z"/>
		</g>
		<g>
			<path d="M87.396,184.849c0.984,0,1.776,0.36,2.232,0.912v-19.225h0.456v20.4c0,0.336-0.048,0.672-0.168,1.056
				c-0.648,1.704-2.784,3.072-4.8,3.049c-2.016-0.024-3.144-1.44-2.52-3.145S85.38,184.825,87.396,184.849z"/>
		</g>
		<g>
			<path d="M87.396,230.849c0.984,0,1.776,0.36,2.232,0.912v-19.225h0.456v20.4c0,0.336-0.048,0.672-0.168,1.056
				c-0.648,1.704-2.784,3.072-4.8,3.049c-2.016-0.024-3.144-1.44-2.52-3.145S85.38,230.825,87.396,230.849z"/>
		</g>
		<g>
			<path d="M123.396,205.849c0.984,0,1.776,0.36,2.232,0.912v-19.225h0.456v20.4c0,0.336-0.048,0.672-0.168,1.056
				c-0.648,1.704-2.784,3.072-4.8,3.049c-2.016-0.024-3.144-1.44-2.52-3.145S121.38,205.825,123.396,205.849z"/>
		</g>
		<g>
			<path d="M123.396,226.849c0.984,0,1.776,0.36,2.232,0.912v-19.225h0.456v20.4c0,0.336-0.048,0.672-0.168,1.056
				c-0.648,1.704-2.784,3.072-4.8,3.049c-2.016-0.024-3.144-1.44-2.52-3.145S121.38,226.825,123.396,226.849z"/>
		</g>
		<g>
			<path d="M161.073,219.633c0.456-1.248,1.488-2.256,2.256-2.641c0.768-0.359,1.752-0.552,2.88-0.456
				c0.576,0.049,1.584,0.217,2.16,0.816v-19.225h0.456v20.497c0,0.096-0.024,0.168-0.024,0.239
				c-0.048,0.433-0.168,0.792-0.264,1.032c-0.456,1.248-1.44,2.088-2.184,2.521c-0.744,0.432-1.872,0.743-3.24,0.6
				c-0.528-0.072-1.68-0.168-2.16-1.032C160.569,221.337,160.905,220.113,161.073,219.633z M163.953,221.649
				c0.552-0.288,0.96-0.528,1.464-0.792c0.48-0.288,0.912-0.552,1.44-0.888c0.72-0.456,1.656-1.248,1.176-2.064
				c-0.48-0.815-1.656-0.408-2.4-0.048c-0.576,0.288-1.032,0.528-1.512,0.816c-0.48,0.264-0.912,0.504-1.416,0.84
				c-0.72,0.456-1.656,1.271-1.152,2.088C162.009,222.417,163.185,222.009,163.953,221.649z"/>
		</g>
		<path fill="none" stroke="#0A0A0A" d="M385.141,146.43v86.458"/>
		<g>
			<path d="M78.908,79.641c0,0.96-1.2,1.8-1.848,1.8s-2.04-0.359-2.04-1.8c0-0.937,0.672-1.632,1.512-1.632
				c0.576,0,0.528-0.36,0.336-0.576c-0.528-0.552-1.488-0.96-2.664-0.624c-1.896,0.504-2.304,2.808-2.304,5.184
				c0,2.641,0.456,5.257,2.76,5.257c1.632,0,3.456-1.488,3.408-3.528h0.672c-0.024,0.624-0.432,1.92-0.84,2.424
				c-0.816,1.008-2.328,1.848-3.504,1.848c-3.168,0-5.424-2.855-5.424-6c0-3.071,2.112-5.903,5.184-5.903
				C76.748,76.089,78.908,77.313,78.908,79.641z"/>
		</g>
		<g>
			<path d="M293.865,22.641c0,0.96-1.2,1.8-1.849,1.8c-0.647,0-2.04-0.36-2.04-1.8c0-0.936,0.673-1.632,1.513-1.632
				c0.576,0,0.527-0.36,0.336-0.576c-0.528-0.552-1.488-0.96-2.664-0.624c-1.896,0.504-2.304,2.808-2.304,5.184
				c0,2.64,0.456,5.256,2.76,5.256c1.632,0,3.456-1.488,3.408-3.528h0.672c-0.024,0.624-0.433,1.92-0.84,2.424
				c-0.816,1.008-2.328,1.848-3.504,1.848c-3.169,0-5.425-2.856-5.425-6c0-3.072,2.112-5.904,5.185-5.904
				C291.705,19.089,293.865,20.313,293.865,22.641z"/>
		</g>
		<g>
			<path d="M293.865,79.641c0,0.96-1.2,1.8-1.849,1.8c-0.647,0-2.04-0.359-2.04-1.8c0-0.937,0.673-1.632,1.513-1.632
				c0.576,0,0.527-0.36,0.336-0.576c-0.528-0.552-1.488-0.96-2.664-0.624c-1.896,0.504-2.304,2.808-2.304,5.184
				c0,2.641,0.456,5.257,2.76,5.257c1.632,0,3.456-1.488,3.408-3.528h0.672c-0.024,0.624-0.433,1.92-0.84,2.424
				c-0.816,1.008-2.328,1.848-3.504,1.848c-3.169,0-5.425-2.855-5.425-6c0-3.071,2.112-5.903,5.185-5.903
				C291.705,76.089,293.865,77.313,293.865,79.641z"/>
		</g>
		<g>
			<path d="M67.865,157.641c0,0.96-1.2,1.8-1.848,1.8s-2.04-0.359-2.04-1.8c0-0.937,0.672-1.632,1.512-1.632
				c0.576,0,0.528-0.36,0.336-0.576c-0.528-0.552-1.488-0.96-2.664-0.624c-1.896,0.504-2.304,2.808-2.304,5.184
				c0,2.641,0.456,5.257,2.76,5.257c1.632,0,3.456-1.488,3.408-3.528h0.672c-0.024,0.624-0.432,1.92-0.84,2.424
				c-0.816,1.008-2.328,1.848-3.504,1.848c-3.168,0-5.424-2.855-5.424-6c0-3.071,2.112-5.903,5.184-5.903
				C65.705,154.089,67.865,155.313,67.865,157.641z"/>
		</g>
		<g>
			<path d="M67.865,214.641c0,0.96-1.2,1.8-1.848,1.8s-2.04-0.359-2.04-1.8c0-0.937,0.672-1.632,1.512-1.632
				c0.576,0,0.528-0.36,0.336-0.576c-0.528-0.552-1.488-0.96-2.664-0.624c-1.896,0.504-2.304,2.808-2.304,5.184
				c0,2.641,0.456,5.257,2.76,5.257c1.632,0,3.456-1.488,3.408-3.528h0.672c-0.024,0.624-0.432,1.92-0.84,2.424
				c-0.816,1.008-2.328,1.848-3.504,1.848c-3.168,0-5.424-2.855-5.424-6c0-3.071,2.112-5.903,5.184-5.903
				C65.705,211.089,67.865,212.313,67.865,214.641z"/>
		</g>
		<g>
			<path d="M291.865,159.641c0,0.96-1.2,1.8-1.849,1.8c-0.647,0-2.04-0.359-2.04-1.8c0-0.937,0.673-1.632,1.513-1.632
				c0.576,0,0.527-0.36,0.336-0.576c-0.528-0.552-1.488-0.96-2.664-0.624c-1.896,0.504-2.304,2.808-2.304,5.184
				c0,2.641,0.456,5.257,2.76,5.257c1.632,0,3.456-1.488,3.408-3.528h0.672c-0.024,0.624-0.433,1.92-0.84,2.424
				c-0.816,1.008-2.328,1.848-3.504,1.848c-3.169,0-5.425-2.855-5.425-6c0-3.071,2.112-5.903,5.185-5.903
				C289.705,156.089,291.865,157.313,291.865,159.641z"/>
		</g>
		<g>
			<path d="M292.865,215.641c0,0.96-1.2,1.8-1.849,1.8c-0.647,0-2.04-0.359-2.04-1.8c0-0.937,0.673-1.632,1.513-1.632
				c0.576,0,0.527-0.36,0.336-0.576c-0.528-0.552-1.488-0.96-2.664-0.624c-1.896,0.504-2.304,2.808-2.304,5.184
				c0,2.641,0.456,5.257,2.76,5.257c1.632,0,3.456-1.488,3.408-3.528h0.672c-0.024,0.624-0.433,1.92-0.84,2.424
				c-0.816,1.008-2.328,1.848-3.504,1.848c-3.169,0-5.425-2.855-5.425-6c0-3.071,2.112-5.903,5.185-5.903
				C290.705,212.089,292.865,213.313,292.865,215.641z"/>
		</g>
		<g>
			<path d="M273.457,157.769c0,0.216,0,1.536,0,1.536c0.912-0.816,1.416-0.984,2.424-1.008c1.2-0.024,1.968,1.176,1.992,2.136
				c0.024,0.504-0.12,1.032-0.312,1.44c-0.216,0.527-0.792,0.936-1.176,1.319c-0.432,0.433-3.552,2.568-3.552,2.616v-14.184h0.624
				C273.457,151.625,273.481,154.601,273.457,157.769z M273.721,160.145c-0.312,0.6-0.264,1.632-0.264,2.376v2.064
				c0,0.023,0.864-0.721,1.344-1.177c0.432-0.407,0.768-0.863,0.936-1.584c0.192-0.72,0.12-1.487-0.336-1.991
				C275.089,159.473,274.225,159.185,273.721,160.145z"/>
		</g>
		<g>
			<path d="M275.296,213.64c0,0.216,0,1.536,0,1.536c0.912-0.816,1.416-0.984,2.424-1.008c1.2-0.024,1.968,1.176,1.992,2.136
				c0.024,0.504-0.12,1.032-0.312,1.44c-0.217,0.527-0.793,0.936-1.177,1.319c-0.432,0.433-3.552,2.568-3.552,2.616v-14.184h0.624
				C275.296,207.497,275.32,210.472,275.296,213.64z M275.56,216.016c-0.312,0.6-0.264,1.632-0.264,2.376v2.064
				c0,0.023,0.864-0.721,1.344-1.177c0.432-0.407,0.768-0.863,0.936-1.584c0.192-0.72,0.121-1.487-0.336-1.991
				C276.928,215.344,276.064,215.056,275.56,216.016z"/>
		</g>
		<g>
			<path d="M406.537,214.801c2.664,0.023,5.184,1.032,5.376,3.264c0.144,1.632-2.016,3.12-4.68,3.12
				c-2.688-0.024-5.185-1.008-5.4-3.24C401.689,216.29,403.873,214.801,406.537,214.801z M407.185,220.633
				c1.152,0,1.896-1.104,1.776-1.992c-0.264-1.752-0.864-3.168-2.448-3.168c-1.151,0-1.823,1.128-1.68,2.016
				C405.097,219.241,405.601,220.633,407.185,220.633z"/>
		</g>
		<g>
			<path d="M406.537,207.801c2.664,0.023,5.184,1.032,5.376,3.264c0.144,1.632-2.016,3.12-4.68,3.12
				c-2.688-0.024-5.185-1.008-5.4-3.24C401.689,209.29,403.873,207.801,406.537,207.801z M407.185,213.633
				c1.152,0,1.896-1.104,1.776-1.992c-0.264-1.752-0.864-3.168-2.448-3.168c-1.151,0-1.823,1.128-1.68,2.016
				C405.097,212.241,405.601,213.633,407.185,213.633z"/>
		</g>
		<g>
			<path d="M406.376,174.672c2.664,0.023,5.184,1.032,5.376,3.264c0.144,1.632-2.016,3.12-4.68,3.12
				c-2.688-0.024-5.185-1.008-5.4-3.24C401.528,176.161,403.712,174.672,406.376,174.672z M407.023,180.504
				c1.152,0,1.896-1.104,1.776-1.992c-0.264-1.752-0.864-3.168-2.448-3.168c-1.151,0-1.823,1.128-1.68,2.016
				C404.936,179.112,405.439,180.504,407.023,180.504z"/>
		</g>
		<g>
			<path d="M305.396,232.849c0.983,0,1.775,0.36,2.231,0.912v-19.225h0.456v20.4c0,0.336-0.048,0.672-0.168,1.056
				c-0.648,1.704-2.784,3.072-4.8,3.049c-2.017-0.024-3.145-1.44-2.521-3.145S303.38,232.825,305.396,232.849z"/>
		</g>
		<g>
			<path d="M345.396,225.849c0.983,0,1.775,0.36,2.231,0.912v-19.225h0.456v20.4c0,0.336-0.048,0.672-0.168,1.056
				c-0.648,1.704-2.784,3.072-4.8,3.049c-2.017-0.024-3.145-1.44-2.521-3.145S343.38,225.825,345.396,225.849z"/>
		</g>
		<g>
			<path d="M324.396,228.849c0.983,0,1.775,0.36,2.231,0.912v-19.225h0.456v20.4c0,0.336-0.048,0.672-0.168,1.056
				c-0.648,1.704-2.784,3.072-4.8,3.049c-2.017-0.024-3.145-1.44-2.521-3.145S322.38,228.825,324.396,228.849z"/>
		</g>
		<g>
			<path d="M368.396,225.849c0.983,0,1.775,0.36,2.231,0.912v-19.225h0.456v20.4c0,0.336-0.048,0.672-0.168,1.056
				c-0.648,1.704-2.784,3.072-4.8,3.049c-2.017-0.024-3.145-1.44-2.521-3.145S366.38,225.825,368.396,225.849z"/>
		</g>
		<g>
			<path fill="none" stroke="#000000" d="M337.935,182.423h14"/>
			<path fill="none" stroke="#000000" d="M337.935,189.423h14"/>
		</g>
		<g>
			<path d="M346.396,175.849c0.983,0,1.775,0.36,2.231,0.912v-19.225h0.456v20.4c0,0.336-0.048,0.672-0.168,1.056
				c-0.648,1.704-2.784,3.072-4.8,3.049c-2.017-0.024-3.145-1.44-2.521-3.145S344.38,175.825,346.396,175.849z"/>
		</g>
		<g>
			<path d="M346.396,185.849c0.983,0,1.775,0.36,2.231,0.912v-19.225h0.456v20.4c0,0.336-0.048,0.672-0.168,1.056
				c-0.648,1.704-2.784,3.072-4.8,3.049c-2.017-0.024-3.145-1.44-2.521-3.145S344.38,185.825,346.396,185.849z"/>
		</g>
		<g>
			<path fill="none" stroke="#000000" d="M360.935,183.423h14"/>
			<path fill="none" stroke="#000000" d="M360.935,190.423h14"/>
		</g>
		<g>
			<path d="M369.396,172.849c0.983,0,1.775,0.36,2.231,0.912v-19.225h0.456v20.4c0,0.336-0.048,0.672-0.168,1.056
				c-0.648,1.704-2.784,3.072-4.8,3.049c-2.017-0.024-3.145-1.44-2.521-3.145S367.38,172.825,369.396,172.849z"/>
		</g>
		<g>
			<path d="M369.396,179.849c0.983,0,1.775,0.36,2.231,0.912v-19.225h0.456v20.4c0,0.336-0.048,0.672-0.168,1.056
				c-0.648,1.704-2.784,3.072-4.8,3.049c-2.017-0.024-3.145-1.44-2.521-3.145S367.38,179.825,369.396,179.849z"/>
		</g>
		<g>
			<path d="M369.396,186.849c0.983,0,1.775,0.36,2.231,0.912v-19.225h0.456v20.4c0,0.336-0.048,0.672-0.168,1.056
				c-0.648,1.704-2.784,3.072-4.8,3.049c-2.017-0.024-3.145-1.44-2.521-3.145S367.38,186.825,369.396,186.849z"/>
		</g>
		<g>
			<path d="M356.865,180.273v-3.912h0.695v3.672l2.353-0.768v-3.504h0.696v3.288l0.936-0.313v2.496l-0.936,0.313v3.552l0.936-0.288
				v2.472l-0.936,0.313v3.912h-0.696v-3.696l-2.353,0.768v3.553h-0.695v-3.313l-1.032,0.336v-2.496l1.032-0.336v-3.576l-1.032,0.337
				v-2.473L356.865,180.273z M357.561,182.529v3.576l2.353-0.768v-3.576L357.561,182.529z"/>
		</g>
		<g>
			<path d="M324.396,164.849c0.983,0,1.775,0.36,2.231,0.912v-19.225h0.456v20.4c0,0.336-0.048,0.672-0.168,1.056
				c-0.648,1.704-2.784,3.072-4.8,3.049c-2.017-0.024-3.145-1.44-2.521-3.145S322.38,164.825,324.396,164.849z"/>
		</g>
		<g>
			<path d="M324.396,171.849c0.983,0,1.775,0.36,2.231,0.912v-19.225h0.456v20.4c0,0.336-0.048,0.672-0.168,1.056
				c-0.648,1.704-2.784,3.072-4.8,3.049c-2.017-0.024-3.145-1.44-2.521-3.145S322.38,171.825,324.396,171.849z"/>
		</g>
		<g>
			<path d="M324.396,181.849c0.983,0,1.775,0.36,2.231,0.912v-19.225h0.456v20.4c0,0.336-0.048,0.672-0.168,1.056
				c-0.648,1.704-2.784,3.072-4.8,3.049c-2.017-0.024-3.145-1.44-2.521-3.145S322.38,181.825,324.396,181.849z"/>
		</g>
		<path fill="none" stroke="#000000" d="M295.935,181.423h14"/>
		<g>
			<path d="M303.396,161.849c0.983,0,1.775,0.36,2.231,0.912v-19.225h0.456v20.4c0,0.336-0.048,0.672-0.168,1.056
				c-0.648,1.704-2.784,3.072-4.8,3.049c-2.017-0.024-3.145-1.44-2.521-3.145S301.38,161.825,303.396,161.849z"/>
		</g>
		<g>
			<path d="M303.396,168.849c0.983,0,1.775,0.36,2.231,0.912v-19.225h0.456v20.4c0,0.336-0.048,0.672-0.168,1.056
				c-0.648,1.704-2.784,3.072-4.8,3.049c-2.017-0.024-3.145-1.44-2.521-3.145S301.38,168.825,303.396,168.849z"/>
		</g>
		<g>
			<path d="M303.396,178.849c0.983,0,1.775,0.36,2.231,0.912v-19.225h0.456v20.4c0,0.336-0.048,0.672-0.168,1.056
				c-0.648,1.704-2.784,3.072-4.8,3.049c-2.017-0.024-3.145-1.44-2.521-3.145S301.38,178.825,303.396,178.849z"/>
		</g>
		<g>
			<path d="M123.396,45.849c0.984,0,1.776,0.36,2.232,0.912V27.537h0.456v20.4c0,0.336-0.048,0.672-0.168,1.056
				c-0.648,1.704-2.784,3.072-4.8,3.048c-2.016-0.024-3.144-1.44-2.52-3.144S121.38,45.825,123.396,45.849z"/>
		</g>
		<g>
			<path d="M123.396,179.849c0.984,0,1.776,0.36,2.232,0.912v-19.225h0.456v20.4c0,0.336-0.048,0.672-0.168,1.056
				c-0.648,1.704-2.784,3.072-4.8,3.049c-2.016-0.024-3.144-1.44-2.52-3.145S121.38,179.825,123.396,179.849z"/>
		</g>
		<g>
			<path d="M91.396,45.849c0.984,0,1.776,0.36,2.232,0.912V27.537h0.456v20.4c0,0.336-0.048,0.672-0.168,1.056
				c-0.648,1.704-2.784,3.072-4.8,3.048c-2.016-0.024-3.144-1.44-2.52-3.144S89.38,45.825,91.396,45.849z"/>
		</g>
		<path fill="none" stroke="#000000" d="M115.935,45.423h14"/>
		<path fill="none" stroke="#000000" d="M83.935,45.423h14"/>
		<path fill="none" stroke="#000000" d="M115.935,179.423h14"/>
	</g>
</svg>
