<?xml version="1.0" encoding="utf-8"?>
<!-- Generator: Adobe Illustrator 10.0, SVG Export Plug-In . SVG Version: 3.0.0 Build 76)  -->
<!DOCTYPE svg PUBLIC "-//W3C//DTD SVG 1.0//EN"    "http://www.w3.org/TR/2001/REC-SVG-20010904/DTD/svg10.dtd" [
	<!ENTITY ns_flows "http://ns.adobe.com/Flows/1.0/">
	<!ENTITY ns_extend "http://ns.adobe.com/Extensibility/1.0/">
	<!ENTITY ns_ai "http://ns.adobe.com/AdobeIllustrator/10.0/">
	<!ENTITY ns_svg "http://www.w3.org/2000/svg">
	<!ENTITY ns_xlink "http://www.w3.org/1999/xlink">
]>
<svg  xmlns:x="&ns_extend;" xmlns:i="&ns_ai;" xmlns:graph="&ns_graphs;"
	 xmlns="&ns_svg;" xmlns:xlink="&ns_xlink;" xmlns:a="http://ns.adobe.com/AdobeSVGViewerExtensions/3.0/" width="423" height="121"
	 viewBox="0.496 0.097 423 121" overflow="visible" enable-background="new 0.496 0.097 423 121" xml:space="preserve">
	<g id="Layer_1_2_">
		<g>
			<path d="M13.376,81.568V50.155h3.729v31.413H13.376z M18.938,50.155h1.243v31.413h-1.243V50.155z M27.078,62.708
				c3.045-0.031,2.92-4.599,2.92-5.406c0-2.33-0.746-6.556-3.169-6.525c-3.263,0-4.692,1.989-3.542,1.771
				c2.144-0.435,2.828,0.466,2.828,2.113c0,1.305-1.46,1.989-2.144,1.989c-1.646,0-2.547-1.927-2.423-3.014
				c0.497-3.542,4.754-3.729,6.867-3.635c2.734,0.125,5.282,3.169,5.282,7.084c0,3.604-1.833,7.239-5.748,7.208
				c-1.957,0-3.2-1.211-3.449-1.367c-0.435,0.497-0.994,2.765-0.994,2.92s0.559,2.423,0.994,2.92
				c0.249-0.155,1.492-1.367,3.449-1.398c3.915,0,5.748,3.635,5.748,7.239c0,3.915-2.547,6.929-5.282,7.084
				c-2.113,0.093-6.37-0.125-6.867-3.635c-0.124-1.087,0.777-3.045,2.423-3.045c0.684,0,2.144,0.714,2.144,2.02
				c0,1.646-0.932,2.548-2.828,2.113c-1.149-0.249,0.56,1.802,3.542,1.771c2.423-0.031,3.169-4.195,3.169-6.525
				c0-0.808,0.125-5.406-2.92-5.406c-3.604-0.031-3.231,2.765-3.977,3.697c0.155-3.853-2.331-6.835-2.331-6.835
				s2.548-2.983,2.455-6.898C23.66,59.974,23.567,62.77,27.078,62.708z"/>
		</g>
		<g>
			<path fill="none" stroke="#000000" d="M0.294,14.232H423.31"/>
			<path fill="none" stroke="#000000" d="M0.294,40.123H423.31"/>
			<path fill="none" stroke="#000000" d="M0.505,52.689h423.013"/>
			<path fill="none" stroke="#000000" d="M0.181,65.714h423.013"/>
			<path fill="none" stroke="#000000" d="M0.181,27.027h423.013"/>
		</g>
		<g>
			<path d="M97.376,69.568V38.155h3.729v31.413H97.376z M102.938,38.155h1.243v31.413h-1.243V38.155z M111.078,50.708
				c3.045-0.031,2.92-4.599,2.92-5.406c0-2.33-0.746-6.556-3.169-6.525c-3.263,0-4.692,1.989-3.542,1.771
				c2.144-0.435,2.828,0.466,2.828,2.113c0,1.305-1.46,1.989-2.144,1.989c-1.646,0-2.547-1.927-2.423-3.014
				c0.497-3.542,4.754-3.729,6.867-3.635c2.734,0.125,5.282,3.169,5.282,7.084c0,3.604-1.833,7.239-5.748,7.208
				c-1.957,0-3.2-1.211-3.449-1.367c-0.435,0.497-0.994,2.765-0.994,2.92s0.559,2.423,0.994,2.92
				c0.249-0.155,1.492-1.367,3.449-1.398c3.915,0,5.748,3.635,5.748,7.239c0,3.915-2.547,6.929-5.282,7.084
				c-2.113,0.093-6.37-0.125-6.867-3.635c-0.124-1.087,0.777-3.045,2.423-3.045c0.684,0,2.144,0.714,2.144,2.02
				c0,1.646-0.932,2.548-2.828,2.113c-1.149-0.249,0.56,1.802,3.542,1.771c2.423-0.031,3.169-4.195,3.169-6.525
				c0-0.808,0.125-5.406-2.92-5.406c-3.604-0.031-3.231,2.765-3.977,3.697c0.155-3.853-2.331-6.835-2.331-6.835
				s2.548-2.983,2.455-6.898C107.66,47.974,107.567,50.77,111.078,50.708z"/>
		</g>
		<g>
			<path d="M177.376,55.568V24.155h3.729v31.413H177.376z M182.938,24.155h1.243v31.413h-1.243V24.155z M191.078,36.708
				c3.045-0.031,2.92-4.599,2.92-5.406c0-2.33-0.746-6.556-3.169-6.525c-3.263,0-4.692,1.989-3.542,1.771
				c2.144-0.435,2.828,0.466,2.828,2.113c0,1.305-1.46,1.989-2.144,1.989c-1.646,0-2.547-1.927-2.423-3.014
				c0.497-3.542,4.754-3.729,6.867-3.635c2.734,0.125,5.282,3.169,5.282,7.084c0,3.604-1.833,7.239-5.748,7.208
				c-1.957,0-3.2-1.211-3.449-1.367c-0.435,0.497-0.994,2.765-0.994,2.92s0.559,2.423,0.994,2.92
				c0.249-0.155,1.492-1.367,3.449-1.398c3.915,0,5.748,3.635,5.748,7.239c0,3.915-2.547,6.929-5.282,7.084
				c-2.113,0.093-6.37-0.125-6.867-3.635c-0.124-1.087,0.777-3.045,2.423-3.045c0.684,0,2.144,0.714,2.144,2.02
				c0,1.646-0.932,2.548-2.828,2.113c-1.149-0.249,0.56,1.802,3.542,1.771c2.423-0.031,3.169-4.195,3.169-6.525
				c0-0.808,0.125-5.406-2.92-5.406c-3.604-0.031-3.231,2.765-3.977,3.697c0.155-3.853-2.331-6.835-2.331-6.835
				s2.548-2.983,2.455-6.898C187.66,33.974,187.567,36.77,191.078,36.708z"/>
		</g>
		<g>
			<path d="M258.376,42.568V11.155h3.729v31.413H258.376z M263.938,11.155h1.243v31.413h-1.243V11.155z M272.078,23.708
				c3.045-0.031,2.921-4.599,2.921-5.406c0-2.33-0.746-6.556-3.17-6.525c-3.262,0-4.691,1.989-3.542,1.771
				c2.145-0.435,2.828,0.466,2.828,2.113c0,1.305-1.461,1.989-2.145,1.989c-1.646,0-2.548-1.927-2.423-3.014
				c0.497-3.542,4.753-3.729,6.866-3.635c2.734,0.125,5.282,3.169,5.282,7.084c0,3.604-1.833,7.239-5.748,7.208
				c-1.958,0-3.2-1.211-3.449-1.367c-0.435,0.497-0.994,2.765-0.994,2.92s0.56,2.423,0.994,2.92
				c0.249-0.155,1.491-1.367,3.449-1.398c3.915,0,5.748,3.635,5.748,7.239c0,3.915-2.548,6.929-5.282,7.084
				c-2.113,0.093-6.369-0.125-6.866-3.635c-0.125-1.087,0.776-3.045,2.423-3.045c0.684,0,2.145,0.714,2.145,2.02
				c0,1.646-0.933,2.548-2.828,2.113c-1.149-0.249,0.56,1.802,3.542,1.771c2.424-0.031,3.17-4.195,3.17-6.525
				c0-0.808,0.124-5.406-2.921-5.406c-3.604-0.031-3.231,2.765-3.978,3.697c0.155-3.853-2.33-6.835-2.33-6.835
				s2.548-2.983,2.455-6.898C268.66,20.974,268.567,23.77,272.078,23.708z"/>
		</g>
		<g>
			<path d="M339.376,31.568V0.155h3.729v31.413H339.376z M344.938,0.155h1.243v31.413h-1.243V0.155z M353.078,12.708
				c3.045-0.031,2.921-4.599,2.921-5.406c0-2.33-0.746-6.556-3.17-6.525c-3.262,0-4.691,1.989-3.542,1.771
				c2.145-0.435,2.828,0.466,2.828,2.113c0,1.305-1.461,1.989-2.145,1.989c-1.646,0-2.548-1.927-2.423-3.014
				c0.497-3.542,4.753-3.729,6.866-3.635c2.734,0.125,5.282,3.169,5.282,7.084c0,3.604-1.833,7.239-5.748,7.208
				c-1.958,0-3.2-1.211-3.449-1.367c-0.435,0.497-0.994,2.765-0.994,2.92s0.56,2.423,0.994,2.92
				c0.249-0.155,1.491-1.367,3.449-1.398c3.915,0,5.748,3.635,5.748,7.239c0,3.915-2.548,6.929-5.282,7.084
				c-2.113,0.093-6.369-0.125-6.866-3.635c-0.125-1.087,0.776-3.045,2.423-3.045c0.684,0,2.145,0.714,2.145,2.02
				c0,1.646-0.933,2.548-2.828,2.113c-1.149-0.249,0.56,1.802,3.542,1.771c2.424-0.031,3.17-4.195,3.17-6.525
				c0-0.808,0.124-5.406-2.921-5.406c-3.604-0.031-3.231,2.765-3.978,3.697c0.155-3.853-2.33-6.835-2.33-6.835
				s2.548-2.983,2.455-6.898C349.66,9.974,349.567,12.77,353.078,12.708z"/>
		</g>
		<g>
			<path d="M0.276,104.825c0.468,0.3,1.14,0.528,1.86,0.528c1.068,0,1.692-0.552,1.692-1.38c0-0.744-0.432-1.188-1.524-1.596
				c-1.32-0.48-2.136-1.176-2.136-2.304c0-1.26,1.044-2.196,2.616-2.196c0.816,0,1.428,0.192,1.776,0.396l-0.288,0.852
				c-0.252-0.156-0.792-0.384-1.524-0.384c-1.104,0-1.524,0.66-1.524,1.212c0,0.756,0.492,1.128,1.608,1.56
				c1.368,0.54,2.052,1.188,2.052,2.376c0,1.248-0.912,2.34-2.82,2.34c-0.78,0-1.632-0.24-2.064-0.528L0.276,104.825z"/>
			<path d="M8.7,106.229c-1.56,0-2.784-1.152-2.784-2.988c0-1.944,1.284-3.084,2.88-3.084c1.668,0,2.796,1.212,2.796,2.976
				c0,2.16-1.5,3.096-2.88,3.096H8.7z M8.736,105.437c1.008,0,1.764-0.948,1.764-2.268c0-0.984-0.492-2.22-1.74-2.22
				c-1.236,0-1.776,1.152-1.776,2.256c0,1.272,0.72,2.232,1.74,2.232H8.736z"/>
			<path d="M12.924,102.185c0-0.744-0.012-1.344-0.048-1.896h0.948l0.06,0.996h0.024c0.42-0.72,1.116-1.128,2.052-1.128
				c1.416,0,2.472,1.188,2.472,2.952c0,2.088-1.284,3.12-2.64,3.12c-0.78,0-1.44-0.336-1.788-0.912H13.98v3.156h-1.056V102.185z
				 M13.98,103.732c0,0.144,0.012,0.3,0.048,0.432c0.18,0.732,0.828,1.236,1.572,1.236c1.116,0,1.764-0.912,1.764-2.244
				c0-1.164-0.6-2.16-1.716-2.16c-0.72,0-1.404,0.504-1.608,1.296c-0.024,0.144-0.06,0.3-0.06,0.432V103.732z"/>
			<path d="M19.764,102.101c0-0.684-0.012-1.272-0.048-1.812h0.924l0.048,1.14h0.036c0.264-0.78,0.912-1.272,1.62-1.272
				c0.108,0,0.192,0.012,0.288,0.036v0.984c-0.12-0.012-0.228-0.024-0.372-0.024c-0.744,0-1.272,0.564-1.416,1.344
				c-0.024,0.156-0.036,0.324-0.036,0.504v3.096h-1.056L19.764,102.101z"/>
			<path d="M27.696,104.705c0,0.504,0.024,0.996,0.084,1.392h-0.948l-0.096-0.732H26.7c-0.312,0.456-0.948,0.864-1.776,0.864
				c-1.176,0-1.776-0.828-1.776-1.668c0-1.404,1.248-2.172,3.492-2.16v-0.12c0-0.48-0.132-1.356-1.32-1.344
				c-0.552,0-1.116,0.156-1.524,0.432l-0.24-0.708c0.48-0.3,1.188-0.504,1.92-0.504c1.788,0,2.22,1.212,2.22,2.376V104.705z
				 M26.664,103.133c-1.152-0.024-2.46,0.18-2.46,1.308c0,0.696,0.456,1.008,0.984,1.008c0.768,0,1.26-0.48,1.428-0.972
				c0.036-0.108,0.048-0.228,0.048-0.336V103.133z"/>
			<path d="M29.388,101.861c0-0.612-0.012-1.092-0.048-1.572h0.936l0.06,0.948h0.024c0.288-0.54,0.96-1.08,1.92-1.08
				c0.804,0,2.052,0.48,2.052,2.472v3.468h-1.056v-3.348c0-0.936-0.348-1.728-1.344-1.728c-0.684,0-1.224,0.492-1.416,1.08
				c-0.048,0.132-0.072,0.324-0.072,0.492v3.504h-1.056V101.861z"/>
			<path d="M38.412,106.229c-1.56,0-2.784-1.152-2.784-2.988c0-1.944,1.284-3.084,2.88-3.084c1.668,0,2.796,1.212,2.796,2.976
				c0,2.16-1.5,3.096-2.88,3.096H38.412z M38.448,105.437c1.008,0,1.764-0.948,1.764-2.268c0-0.984-0.492-2.22-1.74-2.22
				c-1.236,0-1.776,1.152-1.776,2.256c0,1.272,0.72,2.232,1.74,2.232H38.448z"/>
			<path d="M18.768,120.345c-0.372,0.192-1.152,0.384-2.136,0.384c-2.28,0-3.984-1.44-3.984-4.104c0-2.544,1.716-4.248,4.224-4.248
				c0.996,0,1.644,0.216,1.92,0.36l-0.264,0.852c-0.384-0.192-0.948-0.336-1.62-0.336c-1.896,0-3.156,1.212-3.156,3.336
				c0,1.992,1.14,3.252,3.096,3.252c0.648,0,1.296-0.132,1.716-0.336L18.768,120.345z"/>
			<path d="M20.016,112.077h1.056v8.52h-1.056V112.077z"/>
			<path d="M23.423,117.873c0.024,1.428,0.924,2.016,1.98,2.016c0.756,0,1.224-0.132,1.608-0.288l0.192,0.744
				c-0.372,0.168-1.02,0.372-1.944,0.372c-1.776,0-2.856-1.188-2.856-2.928c0-1.764,1.044-3.144,2.736-3.144
				c1.896,0,2.388,1.668,2.388,2.736c0,0.216-0.012,0.384-0.036,0.504L23.423,117.873z M26.507,117.117
				c0.012-0.66-0.276-1.716-1.452-1.716c-1.08,0-1.536,0.984-1.62,1.716H26.507z"/>
			<path d="M28.931,120.597v-5.004h-0.804v-0.804h0.804v-0.276c0-0.816,0.192-1.56,0.684-2.028c0.396-0.384,0.924-0.54,1.404-0.54
				c0.384,0,0.696,0.084,0.9,0.168l-0.132,0.816c-0.168-0.072-0.372-0.132-0.684-0.132c-0.888,0-1.128,0.792-1.128,1.68v0.312h1.404
				v0.804h-1.392v5.004H28.931z"/>
		</g>
		<g>
			<path d="M77.224,96.544c-0.06-1.128-0.132-2.496-0.132-3.492h-0.024c-0.288,0.936-0.612,1.956-1.02,3.072l-1.428,3.924h-0.792
				l-1.32-3.852c-0.384-1.152-0.696-2.184-0.924-3.144H71.56c-0.024,1.008-0.084,2.352-0.156,3.576l-0.216,3.468h-0.996l0.564-8.088
				h1.332l1.38,3.912c0.336,0.996,0.6,1.884,0.816,2.724h0.024c0.216-0.816,0.504-1.704,0.864-2.724l1.44-3.912h1.332l0.504,8.088
				h-1.032L77.224,96.544z"/>
			<path d="M80.692,97.373c0.024,1.428,0.924,2.016,1.98,2.016c0.756,0,1.224-0.132,1.608-0.288l0.192,0.744
				c-0.372,0.168-1.02,0.372-1.944,0.372c-1.776,0-2.856-1.188-2.856-2.928c0-1.764,1.044-3.144,2.736-3.144
				c1.896,0,2.388,1.668,2.388,2.736c0,0.216-0.012,0.384-0.036,0.504L80.692,97.373z M83.776,96.617
				c0.012-0.66-0.276-1.716-1.452-1.716c-1.08,0-1.536,0.984-1.62,1.716H83.776z"/>
			<path d="M85.42,99.485l2.628-3.42c0.264-0.324,0.492-0.6,0.768-0.912v-0.024H85.66v-0.84h4.428v0.66l-2.604,3.384
				c-0.24,0.312-0.48,0.612-0.744,0.9v0.024h3.396v0.84H85.42V99.485z"/>
			<path d="M90.556,99.485l2.628-3.42c0.264-0.324,0.492-0.6,0.768-0.912v-0.024h-3.156v-0.84h4.428v0.66l-2.604,3.384
				c-0.24,0.312-0.48,0.612-0.744,0.9v0.024h3.396v0.84h-4.716V99.485z"/>
			<path d="M98.632,100.229c-1.56,0-2.784-1.152-2.784-2.988c0-1.944,1.284-3.084,2.88-3.084c1.668,0,2.796,1.212,2.796,2.976
				c0,2.16-1.5,3.096-2.88,3.096H98.632z M98.668,99.437c1.008,0,1.764-0.948,1.764-2.268c0-0.984-0.492-2.22-1.74-2.22
				c-1.236,0-1.776,1.152-1.776,2.256c0,1.272,0.72,2.232,1.74,2.232H98.668z"/>
			<path d="M105.304,98.825c0.468,0.3,1.14,0.528,1.86,0.528c1.068,0,1.692-0.552,1.692-1.38c0-0.744-0.432-1.188-1.524-1.596
				c-1.32-0.48-2.136-1.176-2.136-2.304c0-1.26,1.044-2.196,2.616-2.196c0.816,0,1.428,0.192,1.776,0.396l-0.288,0.852
				c-0.252-0.156-0.792-0.384-1.524-0.384c-1.104,0-1.524,0.66-1.524,1.212c0,0.756,0.492,1.128,1.608,1.56
				c1.368,0.54,2.052,1.188,2.052,2.376c0,1.248-0.912,2.34-2.82,2.34c-0.78,0-1.632-0.24-2.064-0.528L105.304,98.825z"/>
			<path d="M113.728,100.229c-1.56,0-2.784-1.152-2.784-2.988c0-1.944,1.284-3.084,2.88-3.084c1.668,0,2.796,1.212,2.796,2.976
				c0,2.16-1.5,3.096-2.88,3.096H113.728z M113.764,99.437c1.008,0,1.764-0.948,1.764-2.268c0-0.984-0.492-2.22-1.74-2.22
				c-1.236,0-1.776,1.152-1.776,2.256c0,1.272,0.72,2.232,1.74,2.232H113.764z"/>
			<path d="M117.952,96.185c0-0.744-0.012-1.344-0.048-1.896h0.948l0.06,0.996h0.024c0.42-0.72,1.116-1.128,2.052-1.128
				c1.416,0,2.472,1.188,2.472,2.952c0,2.088-1.284,3.12-2.64,3.12c-0.78,0-1.44-0.336-1.788-0.912h-0.024v3.156h-1.056V96.185z
				 M119.007,97.732c0,0.144,0.012,0.3,0.048,0.432c0.18,0.732,0.828,1.236,1.572,1.236c1.116,0,1.764-0.912,1.764-2.244
				c0-1.164-0.6-2.16-1.716-2.16c-0.72,0-1.404,0.504-1.608,1.296c-0.024,0.144-0.06,0.3-0.06,0.432V97.732z"/>
			<path d="M124.792,96.101c0-0.684-0.012-1.272-0.048-1.812h0.924l0.048,1.14h0.036c0.264-0.78,0.912-1.272,1.62-1.272
				c0.108,0,0.192,0.012,0.288,0.036v0.984c-0.12-0.012-0.228-0.024-0.372-0.024c-0.744,0-1.272,0.564-1.416,1.344
				c-0.024,0.156-0.036,0.324-0.036,0.504v3.096h-1.056L124.792,96.101z"/>
			<path d="M132.723,98.705c0,0.504,0.024,0.996,0.084,1.392h-0.948l-0.096-0.732h-0.036c-0.312,0.456-0.948,0.864-1.776,0.864
				c-1.176,0-1.776-0.828-1.776-1.668c0-1.404,1.248-2.172,3.492-2.16v-0.12c0-0.48-0.132-1.356-1.32-1.344
				c-0.552,0-1.116,0.156-1.524,0.432l-0.24-0.708c0.48-0.3,1.188-0.504,1.92-0.504c1.788,0,2.22,1.212,2.22,2.376V98.705z
				 M131.691,97.133c-1.152-0.024-2.46,0.18-2.46,1.308c0,0.696,0.456,1.008,0.984,1.008c0.768,0,1.26-0.48,1.428-0.972
				c0.036-0.108,0.048-0.228,0.048-0.336V97.133z"/>
			<path d="M134.415,95.861c0-0.612-0.012-1.092-0.048-1.572h0.936l0.06,0.948h0.024c0.288-0.54,0.96-1.08,1.92-1.08
				c0.804,0,2.052,0.48,2.052,2.472v3.468h-1.056v-3.348c0-0.936-0.348-1.728-1.344-1.728c-0.684,0-1.224,0.492-1.416,1.08
				c-0.048,0.132-0.072,0.324-0.072,0.492v3.504h-1.056V95.861z"/>
			<path d="M143.439,100.229c-1.56,0-2.784-1.152-2.784-2.988c0-1.944,1.284-3.084,2.88-3.084c1.668,0,2.796,1.212,2.796,2.976
				c0,2.16-1.5,3.096-2.88,3.096H143.439z M143.475,99.437c1.008,0,1.764-0.948,1.764-2.268c0-0.984-0.492-2.22-1.74-2.22
				c-1.236,0-1.776,1.152-1.776,2.256c0,1.272,0.72,2.232,1.74,2.232H143.475z"/>
			<path d="M101.487,114.345c-0.372,0.192-1.152,0.384-2.136,0.384c-2.28,0-3.984-1.44-3.984-4.104c0-2.544,1.716-4.248,4.224-4.248
				c0.996,0,1.644,0.216,1.92,0.36l-0.264,0.852c-0.384-0.192-0.948-0.336-1.62-0.336c-1.896,0-3.156,1.212-3.156,3.336
				c0,1.992,1.14,3.252,3.096,3.252c0.648,0,1.296-0.132,1.716-0.336L101.487,114.345z"/>
			<path d="M102.735,106.077h1.056v8.52h-1.056V106.077z"/>
			<path d="M106.143,111.873c0.024,1.428,0.924,2.016,1.98,2.016c0.756,0,1.224-0.132,1.608-0.288l0.192,0.744
				c-0.372,0.168-1.02,0.372-1.944,0.372c-1.776,0-2.856-1.188-2.856-2.928c0-1.764,1.044-3.144,2.736-3.144
				c1.896,0,2.388,1.668,2.388,2.736c0,0.216-0.012,0.384-0.036,0.504L106.143,111.873z M109.227,111.117
				c0.012-0.66-0.276-1.716-1.452-1.716c-1.08,0-1.536,0.984-1.62,1.716H109.227z"/>
			<path d="M111.651,114.597v-5.004h-0.804v-0.804h0.804v-0.276c0-0.816,0.192-1.56,0.684-2.028c0.396-0.384,0.924-0.54,1.404-0.54
				c0.384,0,0.696,0.084,0.9,0.168l-0.132,0.816c-0.168-0.072-0.372-0.132-0.684-0.132c-0.888,0-1.128,0.792-1.128,1.68v0.312h1.404
				v0.804h-1.392v5.004H111.651z"/>
		</g>
		<g>
			<path d="M181.716,87.553l-0.84,2.544h-1.08l2.748-8.088h1.26l2.76,8.088h-1.116l-0.864-2.544H181.716z M184.368,86.737
				l-0.804-2.328c-0.168-0.528-0.288-1.008-0.408-1.476h-0.036c-0.108,0.468-0.24,0.972-0.396,1.464l-0.792,2.34H184.368z"/>
			<path d="M187.68,81.577h1.056v8.52h-1.056V81.577z"/>
			<path d="M191.76,82.896v1.392h1.512v0.804h-1.512v3.132c0,0.72,0.204,1.128,0.792,1.128c0.288,0,0.456-0.024,0.612-0.072
				l0.048,0.804c-0.204,0.072-0.528,0.144-0.936,0.144c-0.492,0-0.888-0.168-1.14-0.444c-0.288-0.324-0.408-0.84-0.408-1.524v-3.168
				h-0.9v-0.804h0.9v-1.068L191.76,82.896z"/>
			<path d="M196.752,90.229c-1.56,0-2.784-1.152-2.784-2.988c0-1.944,1.284-3.084,2.88-3.084c1.668,0,2.796,1.212,2.796,2.976
				c0,2.16-1.5,3.096-2.88,3.096H196.752z M196.788,89.437c1.008,0,1.764-0.948,1.764-2.268c0-0.984-0.492-2.22-1.74-2.22
				c-1.236,0-1.776,1.152-1.776,2.256c0,1.272,0.72,2.232,1.74,2.232H196.788z"/>
			<path d="M186.048,104.345c-0.372,0.192-1.152,0.384-2.136,0.384c-2.28,0-3.984-1.44-3.984-4.104c0-2.544,1.716-4.248,4.224-4.248
				c0.996,0,1.644,0.216,1.92,0.36l-0.264,0.852c-0.384-0.192-0.948-0.336-1.62-0.336c-1.896,0-3.156,1.212-3.156,3.336
				c0,1.992,1.14,3.252,3.096,3.252c0.648,0,1.296-0.132,1.716-0.336L186.048,104.345z"/>
			<path d="M187.296,96.077h1.056v8.52h-1.056V96.077z"/>
			<path d="M190.704,101.873c0.024,1.428,0.924,2.016,1.98,2.016c0.756,0,1.224-0.132,1.608-0.288l0.192,0.744
				c-0.372,0.168-1.02,0.372-1.944,0.372c-1.776,0-2.856-1.188-2.856-2.928c0-1.764,1.044-3.144,2.736-3.144
				c1.896,0,2.388,1.668,2.388,2.736c0,0.216-0.012,0.384-0.036,0.504L190.704,101.873z M193.788,101.117
				c0.012-0.66-0.276-1.716-1.452-1.716c-1.08,0-1.536,0.984-1.62,1.716H193.788z"/>
			<path d="M196.212,104.597v-5.004h-0.804v-0.804h0.804v-0.276c0-0.816,0.192-1.56,0.684-2.028c0.396-0.384,0.924-0.54,1.404-0.54
				c0.384,0,0.696,0.084,0.9,0.168l-0.132,0.816c-0.168-0.072-0.372-0.132-0.684-0.132c-0.888,0-1.128,0.792-1.128,1.68v0.312h1.404
				v0.804h-1.392v5.004H196.212z"/>
		</g>
		<g>
			<path d="M254.944,77.896h-2.46v-0.888h5.987v0.888H256v7.2h-1.056V77.896z"/>
			<path d="M259.168,82.373c0.024,1.428,0.924,2.016,1.98,2.016c0.756,0,1.224-0.132,1.607-0.288l0.192,0.744
				c-0.372,0.168-1.021,0.372-1.944,0.372c-1.775,0-2.855-1.188-2.855-2.928c0-1.764,1.044-3.144,2.735-3.144
				c1.896,0,2.389,1.668,2.389,2.736c0,0.216-0.013,0.384-0.036,0.504L259.168,82.373z M262.252,81.617
				c0.012-0.66-0.275-1.716-1.452-1.716c-1.08,0-1.536,0.984-1.62,1.716H262.252z"/>
			<path d="M264.58,80.861c0-0.612-0.012-1.092-0.048-1.572h0.936l0.061,0.948h0.023c0.288-0.54,0.96-1.08,1.92-1.08
				c0.805,0,2.053,0.48,2.053,2.472v3.468h-1.057v-3.348c0-0.936-0.348-1.728-1.344-1.728c-0.684,0-1.224,0.492-1.416,1.08
				c-0.048,0.132-0.072,0.324-0.072,0.492v3.504h-1.056V80.861z"/>
			<path d="M273.604,85.229c-1.56,0-2.783-1.152-2.783-2.988c0-1.944,1.283-3.084,2.88-3.084c1.668,0,2.796,1.212,2.796,2.976
				c0,2.16-1.5,3.096-2.88,3.096H273.604z M273.64,84.437c1.008,0,1.765-0.948,1.765-2.268c0-0.984-0.492-2.22-1.74-2.22
				c-1.236,0-1.776,1.152-1.776,2.256c0,1.272,0.72,2.232,1.74,2.232H273.64z"/>
			<path d="M277.84,81.101c0-0.684-0.012-1.272-0.048-1.812h0.924l0.048,1.14h0.036c0.264-0.78,0.912-1.272,1.62-1.272
				c0.108,0,0.192,0.012,0.288,0.036v0.984c-0.12-0.012-0.229-0.024-0.372-0.024c-0.744,0-1.272,0.564-1.416,1.344
				c-0.024,0.156-0.036,0.324-0.036,0.504v3.096h-1.056L277.84,81.101z"/>
			<path d="M261.592,99.345c-0.372,0.192-1.151,0.384-2.136,0.384c-2.28,0-3.984-1.44-3.984-4.104c0-2.544,1.716-4.248,4.225-4.248
				c0.996,0,1.644,0.216,1.92,0.36l-0.265,0.852c-0.384-0.192-0.947-0.336-1.619-0.336c-1.896,0-3.156,1.212-3.156,3.336
				c0,1.992,1.14,3.252,3.096,3.252c0.648,0,1.296-0.132,1.716-0.336L261.592,99.345z"/>
			<path d="M262.84,91.077h1.056v8.52h-1.056V91.077z"/>
			<path d="M266.248,96.873c0.023,1.428,0.924,2.016,1.979,2.016c0.756,0,1.225-0.132,1.608-0.288l0.192,0.744
				c-0.372,0.168-1.021,0.372-1.944,0.372c-1.776,0-2.856-1.188-2.856-2.928c0-1.764,1.044-3.144,2.736-3.144
				c1.896,0,2.388,1.668,2.388,2.736c0,0.216-0.012,0.384-0.036,0.504L266.248,96.873z M269.332,96.117
				c0.012-0.66-0.276-1.716-1.452-1.716c-1.08,0-1.536,0.984-1.62,1.716H269.332z"/>
			<path d="M271.756,99.597v-5.004h-0.804v-0.804h0.804v-0.276c0-0.816,0.191-1.56,0.684-2.028c0.396-0.384,0.924-0.54,1.404-0.54
				c0.384,0,0.696,0.084,0.9,0.168l-0.133,0.816c-0.168-0.072-0.371-0.132-0.684-0.132c-0.888,0-1.128,0.792-1.128,1.68v0.312h1.404
				v0.804h-1.393v5.004H271.756z"/>
		</g>
		<g>
			<path d="M337.408,71.128c0.456-0.108,1.188-0.18,1.908-0.18c1.044,0,1.716,0.18,2.208,0.588c0.42,0.312,0.684,0.792,0.684,1.428
				c0,0.792-0.528,1.476-1.368,1.776v0.036c0.769,0.18,1.668,0.816,1.668,2.016c0,0.696-0.275,1.224-0.695,1.62
				c-0.553,0.516-1.465,0.756-2.784,0.756c-0.72,0-1.272-0.048-1.62-0.096V71.128z M338.452,74.44h0.948
				c1.092,0,1.739-0.588,1.739-1.368c0-0.936-0.708-1.32-1.764-1.32c-0.479,0-0.756,0.036-0.924,0.072V74.44z M338.452,78.305
				c0.216,0.036,0.504,0.048,0.876,0.048c1.08,0,2.076-0.396,2.076-1.572c0-1.092-0.948-1.56-2.088-1.56h-0.864V78.305z"/>
			<path d="M347.992,77.705c0,0.504,0.023,0.996,0.084,1.392h-0.948l-0.096-0.732h-0.036c-0.313,0.456-0.948,0.864-1.776,0.864
				c-1.176,0-1.775-0.828-1.775-1.668c0-1.404,1.248-2.172,3.491-2.16v-0.12c0-0.48-0.132-1.356-1.319-1.344
				c-0.552,0-1.116,0.156-1.524,0.432l-0.24-0.708c0.48-0.3,1.188-0.504,1.921-0.504c1.787,0,2.22,1.212,2.22,2.376V77.705z
				 M346.96,76.133c-1.152-0.024-2.46,0.18-2.46,1.308c0,0.696,0.456,1.008,0.984,1.008c0.768,0,1.26-0.48,1.428-0.972
				c0.036-0.108,0.048-0.228,0.048-0.336V76.133z"/>
			<path d="M349.696,75.101c0-0.684-0.013-1.272-0.049-1.812h0.925l0.048,1.14h0.036c0.264-0.78,0.912-1.272,1.62-1.272
				c0.107,0,0.191,0.012,0.287,0.036v0.984c-0.119-0.012-0.228-0.024-0.371-0.024c-0.744,0-1.272,0.564-1.416,1.344
				c-0.024,0.156-0.036,0.324-0.036,0.504v3.096h-1.057L349.696,75.101z"/>
			<path d="M354.16,72.221c-0.396,0-0.66-0.312-0.66-0.684s0.275-0.672,0.684-0.672s0.672,0.3,0.672,0.672s-0.264,0.684-0.684,0.684
				H354.16z M353.656,79.097v-5.808h1.056v5.808H353.656z"/>
			<path d="M357.735,71.896v1.392h1.513v0.804h-1.513v3.132c0,0.72,0.204,1.128,0.792,1.128c0.288,0,0.456-0.024,0.612-0.072
				l0.048,0.804c-0.204,0.072-0.527,0.144-0.936,0.144c-0.492,0-0.889-0.168-1.141-0.444c-0.287-0.324-0.407-0.84-0.407-1.524
				v-3.168h-0.9v-0.804h0.9v-1.068L357.735,71.896z"/>
			<path d="M362.728,79.229c-1.56,0-2.784-1.152-2.784-2.988c0-1.944,1.284-3.084,2.881-3.084c1.668,0,2.796,1.212,2.796,2.976
				c0,2.16-1.5,3.096-2.88,3.096H362.728z M362.764,78.437c1.008,0,1.764-0.948,1.764-2.268c0-0.984-0.491-2.22-1.739-2.22
				c-1.236,0-1.776,1.152-1.776,2.256c0,1.272,0.72,2.232,1.74,2.232H362.764z"/>
			<path d="M366.952,74.861c0-0.612-0.013-1.092-0.049-1.572h0.937l0.06,0.948h0.024c0.288-0.54,0.96-1.08,1.92-1.08
				c0.804,0,2.052,0.48,2.052,2.472v3.468h-1.056v-3.348c0-0.936-0.348-1.728-1.344-1.728c-0.685,0-1.225,0.492-1.416,1.08
				c-0.049,0.132-0.072,0.324-0.072,0.492v3.504h-1.056V74.861z"/>
			<path d="M374.212,76.373c0.023,1.428,0.924,2.016,1.979,2.016c0.756,0,1.225-0.132,1.608-0.288l0.191,0.744
				c-0.372,0.168-1.02,0.372-1.943,0.372c-1.776,0-2.856-1.188-2.856-2.928c0-1.764,1.044-3.144,2.736-3.144
				c1.896,0,2.388,1.668,2.388,2.736c0,0.216-0.012,0.384-0.036,0.504L374.212,76.373z M377.296,75.617
				c0.012-0.66-0.276-1.716-1.452-1.716c-1.08,0-1.536,0.984-1.62,1.716H377.296z"/>
			<path d="M350.68,93.345c-0.372,0.192-1.152,0.384-2.136,0.384c-2.28,0-3.984-1.44-3.984-4.104c0-2.544,1.716-4.248,4.225-4.248
				c0.995,0,1.644,0.216,1.92,0.36l-0.265,0.852c-0.384-0.192-0.947-0.336-1.62-0.336c-1.896,0-3.155,1.212-3.155,3.336
				c0,1.992,1.14,3.252,3.096,3.252c0.648,0,1.296-0.132,1.716-0.336L350.68,93.345z"/>
			<path d="M351.928,85.077h1.056v8.52h-1.056V85.077z"/>
			<path d="M355.336,90.873c0.023,1.428,0.924,2.016,1.979,2.016c0.756,0,1.225-0.132,1.608-0.288l0.191,0.744
				c-0.371,0.168-1.02,0.372-1.943,0.372c-1.776,0-2.856-1.188-2.856-2.928c0-1.764,1.044-3.144,2.736-3.144
				c1.896,0,2.388,1.668,2.388,2.736c0,0.216-0.012,0.384-0.036,0.504L355.336,90.873z M358.42,90.117
				c0.012-0.66-0.276-1.716-1.452-1.716c-1.08,0-1.536,0.984-1.62,1.716H358.42z"/>
			<path d="M360.844,93.597v-5.004h-0.805v-0.804h0.805v-0.276c0-0.816,0.191-1.56,0.684-2.028c0.396-0.384,0.924-0.54,1.404-0.54
				c0.384,0,0.696,0.084,0.9,0.168l-0.133,0.816c-0.168-0.072-0.372-0.132-0.684-0.132c-0.888,0-1.128,0.792-1.128,1.68v0.312h1.404
				v0.804h-1.393v5.004H360.844z"/>
		</g>
		<g>
			<path d="M51.488,61.38c3.112,0.028,6.057,1.206,6.281,3.813c0.168,1.907-2.355,3.645-5.468,3.645
				c-3.141-0.028-6.057-1.178-6.309-3.785C45.824,63.118,48.375,61.38,51.488,61.38z M52.245,68.193c1.346,0,2.215-1.29,2.075-2.327
				c-0.309-2.047-1.01-3.701-2.86-3.701c-1.346,0-2.131,1.318-1.963,2.355C49.806,66.567,50.395,68.193,52.245,68.193z"/>
		</g>
		<g>
			<path d="M134.488,49.38c3.112,0.028,6.057,1.206,6.281,3.813c0.168,1.907-2.355,3.645-5.468,3.645
				c-3.141-0.028-6.057-1.178-6.309-3.785C128.824,51.118,131.375,49.38,134.488,49.38z M135.245,56.193
				c1.346,0,2.215-1.29,2.075-2.327c-0.309-2.047-1.01-3.701-2.86-3.701c-1.346,0-2.131,1.318-1.963,2.355
				C132.806,54.567,133.395,56.193,135.245,56.193z"/>
		</g>
		<g>
			<path d="M214.488,36.38c3.112,0.028,6.057,1.206,6.281,3.813c0.168,1.907-2.355,3.645-5.468,3.645
				c-3.141-0.028-6.057-1.178-6.309-3.785C208.824,38.118,211.375,36.38,214.488,36.38z M215.245,43.193
				c1.346,0,2.215-1.29,2.075-2.327c-0.309-2.047-1.01-3.701-2.86-3.701c-1.346,0-2.131,1.318-1.963,2.355
				C212.806,41.567,213.395,43.193,215.245,43.193z"/>
		</g>
		<g>
			<path d="M297.488,23.38c3.112,0.028,6.057,1.206,6.281,3.813c0.168,1.907-2.355,3.645-5.469,3.645
				c-3.14-0.028-6.057-1.178-6.309-3.785C291.824,25.118,294.376,23.38,297.488,23.38z M298.245,30.193
				c1.346,0,2.215-1.29,2.075-2.327c-0.309-2.047-1.01-3.701-2.86-3.701c-1.346,0-2.131,1.318-1.963,2.355
				C295.806,28.567,296.395,30.193,298.245,30.193z"/>
		</g>
		<g>
			<path d="M377.488,10.38c3.112,0.028,6.057,1.206,6.281,3.813c0.168,1.907-2.355,3.645-5.469,3.645
				c-3.14-0.028-6.057-1.178-6.309-3.785C371.824,12.118,374.376,10.38,377.488,10.38z M378.245,17.193
				c1.346,0,2.215-1.29,2.075-2.327c-0.309-2.047-1.01-3.701-2.86-3.701c-1.346,0-2.131,1.318-1.963,2.355
				C375.806,15.567,376.395,17.193,378.245,17.193z"/>
		</g>
	</g>
</svg>
