<?xml version="1.0" encoding="utf-8"?>
<!-- Generator: Adobe Illustrator 10.0, SVG Export Plug-In . SVG Version: 3.0.0 Build 76)  -->
<!DOCTYPE svg PUBLIC "-//W3C//DTD SVG 1.0//EN"    "http://www.w3.org/TR/2001/REC-SVG-20010904/DTD/svg10.dtd" [
	<!ENTITY ns_flows "http://ns.adobe.com/Flows/1.0/">
	<!ENTITY ns_extend "http://ns.adobe.com/Extensibility/1.0/">
	<!ENTITY ns_ai "http://ns.adobe.com/AdobeIllustrator/10.0/">
	<!ENTITY ns_svg "http://www.w3.org/2000/svg">
	<!ENTITY ns_xlink "http://www.w3.org/1999/xlink">
]>
<svg  xmlns:x="&ns_extend;" xmlns:i="&ns_ai;" xmlns:graph="&ns_graphs;"
	 xmlns="&ns_svg;" xmlns:xlink="&ns_xlink;" xmlns:a="http://ns.adobe.com/AdobeSVGViewerExtensions/3.0/" width="232" height="95"
	 viewBox="0.268 -0.113 232 95" overflow="visible" enable-background="new 0.268 -0.113 232 95" xml:space="preserve">
	<g id="Layer_1_2_">
		<g>
			<path d="M7.344,7.848C6.78,8.04,5.712,8.304,4.644,8.304c-1.476,0-2.544-0.372-3.288-1.08c-0.732-0.708-1.14-1.764-1.14-2.952
				c0.012-2.688,1.968-4.224,4.62-4.224c1.044,0,1.848,0.204,2.244,0.384L6.696,1.908C6.252,1.704,5.712,1.56,4.824,1.56
				c-1.524,0-2.688,0.864-2.688,2.616c0,1.68,1.056,2.652,2.556,2.652C5.1,6.828,5.436,6.78,5.58,6.72V5.016H4.332V3.588h3.012
				V7.848z"/>
			<path d="M78.516,8.004c-0.324,0.156-1.092,0.348-2.064,0.348c-2.796,0-4.236-1.752-4.236-4.068c0-2.76,1.968-4.284,4.416-4.284
				c0.948,0,1.668,0.192,1.992,0.36L78.24,1.8c-0.36-0.156-0.876-0.3-1.536-0.3c-1.44,0-2.568,0.876-2.568,2.688
				c0,1.62,0.96,2.64,2.58,2.64c0.564,0,1.164-0.108,1.536-0.264L78.516,8.004z"/>
			<path d="M146.46,6.144l-0.564,2.076H144l2.472-8.088h2.388l2.52,8.088h-1.968l-0.624-2.076H146.46z M148.512,4.776l-0.504-1.716
				c-0.132-0.48-0.276-1.092-0.396-1.56h-0.036c-0.108,0.48-0.24,1.092-0.36,1.56l-0.492,1.716H148.512z"/>
			<path d="M152.328,4.224c0-0.732-0.024-1.344-0.048-1.872h1.548l0.072,0.804h0.036c0.252-0.384,0.78-0.936,1.776-0.936
				c0.768,0,1.356,0.396,1.608,1.008h0.024c0.228-0.312,0.48-0.552,0.768-0.72c0.324-0.18,0.684-0.288,1.116-0.288
				c1.128,0,1.98,0.792,1.98,2.544V8.22h-1.776V5.04c0-0.852-0.276-1.344-0.864-1.344c-0.432,0-0.72,0.288-0.852,0.636
				c-0.036,0.132-0.06,0.312-0.06,0.456V8.22h-1.776V4.932c0-0.732-0.264-1.236-0.852-1.236c-0.468,0-0.744,0.36-0.852,0.648
				c-0.06,0.144-0.072,0.312-0.072,0.468V8.22h-1.776V4.224z"/>
			<path d="M221.4,4.8h-2.976v1.92h3.324v1.5H216.6V0.132h4.98v1.5h-3.156v1.68h2.976V4.8z"/>
			<path d="M222.96,4.224c0-0.732-0.024-1.344-0.048-1.872h1.548l0.072,0.804h0.036c0.252-0.384,0.78-0.936,1.776-0.936
				c0.768,0,1.356,0.396,1.608,1.008h0.024c0.228-0.312,0.48-0.552,0.768-0.72c0.324-0.18,0.684-0.288,1.116-0.288
				c1.128,0,1.98,0.792,1.98,2.544V8.22h-1.776V5.04c0-0.852-0.276-1.344-0.864-1.344c-0.432,0-0.72,0.288-0.852,0.636
				c-0.036,0.132-0.06,0.312-0.06,0.456V8.22h-1.776V4.932c0-0.732-0.264-1.236-0.852-1.236c-0.468,0-0.744,0.36-0.852,0.648
				c-0.06,0.144-0.072,0.312-0.072,0.468V8.22h-1.776V4.224z"/>
			<path d="M2.46,49.644L1.896,51.72H0l2.472-8.088H4.86l2.52,8.088H5.412l-0.624-2.076H2.46z M4.512,48.276L4.008,46.56
				C3.876,46.08,3.732,45.468,3.612,45H3.576c-0.108,0.48-0.24,1.092-0.36,1.56l-0.492,1.716H4.512z"/>
			<path d="M72.588,43.752c0.672-0.12,1.548-0.18,2.46-0.18c1.548,0,2.556,0.252,3.324,0.84c0.84,0.624,1.368,1.632,1.368,3.072
				c0,1.548-0.564,2.616-1.332,3.276c-0.852,0.708-2.16,1.044-3.744,1.044c-0.948,0-1.632-0.06-2.076-0.12V43.752z M74.412,50.34
				c0.156,0.036,0.42,0.036,0.636,0.036c1.668,0.012,2.76-0.9,2.76-2.832c0-1.74-0.984-2.568-2.568-2.568
				c-0.396,0-0.672,0.036-0.828,0.072V50.34z"/>
			<path d="M144.588,43.752c0.48-0.096,1.44-0.18,2.364-0.18c1.116,0,1.8,0.108,2.388,0.456c0.564,0.3,0.96,0.852,0.96,1.596
				c0,0.708-0.42,1.368-1.32,1.716v0.024c0.924,0.24,1.608,0.948,1.608,1.992c0,0.744-0.336,1.32-0.84,1.716
				c-0.588,0.468-1.572,0.732-3.18,0.732c-0.9,0-1.572-0.06-1.98-0.12V43.752z M146.4,46.836h0.6c0.972,0,1.476-0.396,1.476-0.996
				c0-0.612-0.468-0.936-1.296-0.936c-0.408,0-0.636,0.024-0.78,0.06V46.836z M146.4,50.424c0.18,0.036,0.396,0.036,0.708,0.036
				c0.828,0,1.56-0.324,1.56-1.176c0-0.816-0.732-1.14-1.644-1.14H146.4V50.424z"/>
			<path d="M151.776,47.724c0-0.732-0.024-1.344-0.048-1.872h1.548l0.072,0.804h0.036c0.252-0.384,0.78-0.936,1.776-0.936
				c0.768,0,1.356,0.396,1.608,1.008h0.024c0.228-0.312,0.48-0.552,0.768-0.72c0.324-0.18,0.684-0.288,1.116-0.288
				c1.128,0,1.98,0.792,1.98,2.544v3.456h-1.776v-3.18c0-0.852-0.276-1.344-0.864-1.344c-0.432,0-0.72,0.288-0.852,0.636
				c-0.036,0.132-0.06,0.312-0.06,0.456v3.432h-1.776v-3.288c0-0.732-0.264-1.236-0.852-1.236c-0.468,0-0.744,0.36-0.852,0.648
				c-0.06,0.144-0.072,0.312-0.072,0.468v3.408h-1.776V47.724z"/>
			<path d="M216.588,43.752c0.672-0.12,1.548-0.18,2.46-0.18c1.548,0,2.556,0.252,3.324,0.84c0.84,0.624,1.368,1.632,1.368,3.072
				c0,1.548-0.564,2.616-1.332,3.276c-0.852,0.708-2.16,1.044-3.744,1.044c-0.948,0-1.632-0.06-2.076-0.12V43.752z M218.412,50.34
				c0.156,0.036,0.42,0.036,0.636,0.036c1.668,0.012,2.76-0.9,2.76-2.832c0-1.74-0.984-2.568-2.568-2.568
				c-0.396,0-0.672,0.036-0.828,0.072V50.34z"/>
			<path d="M230.244,43.92v1.14l-3.216,6.66h-1.932l3.216-6.276V45.42h-3.576v-1.5H230.244z"/>
			<path d="M7.344,94.848c-0.564,0.192-1.632,0.456-2.7,0.456c-1.476,0-2.544-0.372-3.288-1.08c-0.732-0.708-1.14-1.764-1.14-2.952
				c0.012-2.688,1.968-4.224,4.62-4.224c1.044,0,1.848,0.204,2.244,0.384l-0.384,1.476c-0.444-0.204-0.984-0.348-1.872-0.348
				c-1.524,0-2.688,0.864-2.688,2.616c0,1.68,1.056,2.652,2.556,2.652c0.408,0,0.744-0.048,0.888-0.108v-1.704H4.332v-1.428h3.012
				V94.848z"/>
		</g>
	</g>
</svg>
