<?xml version="1.0" encoding="utf-8"?>
<!-- Generator: Adobe Illustrator 10.0, SVG Export Plug-In . SVG Version: 3.0.0 Build 76)  -->
<!DOCTYPE svg PUBLIC "-//W3C//DTD SVG 1.0//EN"    "http://www.w3.org/TR/2001/REC-SVG-20010904/DTD/svg10.dtd" [
	<!ENTITY ns_flows "http://ns.adobe.com/Flows/1.0/">
	<!ENTITY ns_extend "http://ns.adobe.com/Extensibility/1.0/">
	<!ENTITY ns_ai "http://ns.adobe.com/AdobeIllustrator/10.0/">
	<!ENTITY ns_svg "http://www.w3.org/2000/svg">
	<!ENTITY ns_xlink "http://www.w3.org/1999/xlink">
]>
<svg  xmlns:x="&ns_extend;" xmlns:i="&ns_ai;" xmlns:graph="&ns_graphs;"
	 xmlns="&ns_svg;" xmlns:xlink="&ns_xlink;" xmlns:a="http://ns.adobe.com/AdobeSVGViewerExtensions/3.0/" width="160" height="227"
	 viewBox="-0.036 -0.128 160 227" overflow="visible" enable-background="new -0.036 -0.128 160 227" xml:space="preserve">
	<g id="Layer_1_2_">
		<g>
			<path d="M6.103,5.976L5.263,8.52h-1.08l2.748-8.088h1.26l2.76,8.088H9.835L8.971,5.976H6.103z M8.755,5.16L7.951,2.832
				C7.783,2.304,7.663,1.824,7.543,1.356H7.507C7.399,1.824,7.267,2.328,7.111,2.82L6.319,5.16H8.755z"/>
			<path d="M20.323,8.268c-0.372,0.192-1.152,0.384-2.136,0.384c-2.28,0-3.984-1.44-3.984-4.104c0-2.544,1.716-4.248,4.224-4.248
				c0.996,0,1.644,0.216,1.92,0.36l-0.264,0.852c-0.384-0.192-0.948-0.336-1.62-0.336c-1.896,0-3.156,1.212-3.156,3.336
				c0,1.992,1.14,3.252,3.096,3.252c0.648,0,1.296-0.132,1.716-0.336L20.323,8.268z"/>
			<path d="M23.815,8.652c-1.56,0-2.784-1.152-2.784-2.988c0-1.944,1.284-3.084,2.88-3.084c1.668,0,2.796,1.212,2.796,2.976
				c0,2.16-1.5,3.096-2.88,3.096H23.815z M23.851,7.86c1.008,0,1.764-0.948,1.764-2.268c0-0.984-0.492-2.22-1.74-2.22
				c-1.236,0-1.776,1.152-1.776,2.256c0,1.272,0.72,2.232,1.74,2.232H23.851z"/>
			<path d="M28.039,4.284c0-0.612-0.024-1.092-0.048-1.572h0.924l0.048,0.936h0.036c0.324-0.552,0.864-1.068,1.836-1.068
				c0.78,0,1.38,0.48,1.632,1.164h0.024c0.18-0.336,0.42-0.576,0.66-0.756c0.348-0.264,0.72-0.408,1.272-0.408
				c0.78,0,1.92,0.504,1.92,2.52v3.42h-1.032V5.232c0-1.128-0.42-1.788-1.26-1.788c-0.612,0-1.068,0.444-1.26,0.948
				c-0.048,0.156-0.084,0.348-0.084,0.528v3.6h-1.032V5.04c0-0.936-0.408-1.596-1.212-1.596c-0.648,0-1.14,0.528-1.308,1.056
				c-0.06,0.156-0.084,0.336-0.084,0.516V8.52h-1.032V4.284z"/>
			<path d="M38.047,4.284c0-0.612-0.024-1.092-0.048-1.572h0.924l0.048,0.936h0.036c0.324-0.552,0.864-1.068,1.836-1.068
				c0.78,0,1.38,0.48,1.632,1.164h0.024c0.18-0.336,0.42-0.576,0.66-0.756c0.348-0.264,0.72-0.408,1.272-0.408
				c0.78,0,1.92,0.504,1.92,2.52v3.42h-1.032V5.232c0-1.128-0.42-1.788-1.26-1.788c-0.612,0-1.068,0.444-1.26,0.948
				C42.75,4.548,42.715,4.74,42.715,4.92v3.6h-1.032V5.04c0-0.936-0.408-1.596-1.212-1.596c-0.648,0-1.14,0.528-1.308,1.056
				c-0.06,0.156-0.084,0.336-0.084,0.516V8.52h-1.032V4.284z"/>
			<path d="M50.418,8.652c-1.56,0-2.784-1.152-2.784-2.988c0-1.944,1.284-3.084,2.88-3.084c1.668,0,2.796,1.212,2.796,2.976
				c0,2.16-1.5,3.096-2.88,3.096H50.418z M50.455,7.86c1.008,0,1.764-0.948,1.764-2.268c0-0.984-0.492-2.22-1.74-2.22
				c-1.236,0-1.776,1.152-1.776,2.256c0,1.272,0.72,2.232,1.74,2.232H50.455z"/>
			<path d="M54.643,4.284c0-0.612-0.012-1.092-0.048-1.572h0.936l0.06,0.948h0.024c0.288-0.54,0.96-1.08,1.92-1.08
				c0.804,0,2.052,0.48,2.052,2.472V8.52h-1.056V5.172c0-0.936-0.348-1.728-1.344-1.728c-0.684,0-1.224,0.492-1.416,1.08
				c-0.048,0.132-0.072,0.324-0.072,0.492V8.52h-1.056V4.284z"/>
			<path d="M64.927,1.32h-2.46V0.432h5.988V1.32h-2.472v7.2h-1.056V1.32z"/>
			<path d="M69.259,2.712l0.78,2.94c0.156,0.648,0.312,1.26,0.42,1.86h0.036c0.132-0.588,0.324-1.212,0.516-1.848l0.948-2.952h0.888
				l0.9,2.904c0.216,0.684,0.384,1.308,0.516,1.896h0.036c0.096-0.588,0.252-1.2,0.444-1.884l0.828-2.916h1.044L74.743,8.52h-0.96
				l-0.888-2.772c-0.204-0.66-0.372-1.236-0.516-1.92h-0.024c-0.144,0.696-0.324,1.308-0.528,1.932l-0.936,2.76h-0.96l-1.752-5.808
				H69.259z"/>
			<path d="M78.163,5.796c0.024,1.428,0.924,2.016,1.98,2.016c0.756,0,1.224-0.132,1.608-0.288l0.192,0.744
				c-0.372,0.168-1.02,0.372-1.944,0.372c-1.776,0-2.856-1.188-2.856-2.928c0-1.764,1.044-3.144,2.736-3.144
				c1.896,0,2.388,1.668,2.388,2.736c0,0.216-0.012,0.384-0.036,0.504L78.163,5.796z M81.247,5.04
				c0.012-0.66-0.276-1.716-1.452-1.716c-1.08,0-1.536,0.984-1.62,1.716H81.247z"/>
			<path d="M83.575,0h1.056v8.52h-1.056V0z"/>
			<path d="M86.791,2.712l1.14,3.252c0.192,0.54,0.348,1.02,0.468,1.5h0.036c0.132-0.48,0.3-0.96,0.492-1.5l1.128-3.252h1.104
				l-2.28,5.808h-1.008l-2.208-5.808H86.791z"/>
			<path d="M92.623,5.796c0.024,1.428,0.924,2.016,1.98,2.016c0.756,0,1.224-0.132,1.608-0.288l0.192,0.744
				c-0.372,0.168-1.02,0.372-1.944,0.372c-1.776,0-2.856-1.188-2.856-2.928c0-1.764,1.044-3.144,2.736-3.144
				c1.896,0,2.388,1.668,2.388,2.736c0,0.216-0.012,0.384-0.036,0.504L92.623,5.796z M95.707,5.04
				c0.012-0.66-0.276-1.716-1.452-1.716c-1.08,0-1.536,0.984-1.62,1.716H95.707z"/>
			<path d="M100.614,0.552c0.456-0.108,1.188-0.18,1.908-0.18c1.044,0,1.716,0.18,2.208,0.588c0.42,0.312,0.684,0.792,0.684,1.428
				c0,0.792-0.528,1.476-1.368,1.776V4.2c0.768,0.18,1.668,0.816,1.668,2.016c0,0.696-0.276,1.224-0.696,1.62
				c-0.552,0.516-1.464,0.756-2.784,0.756c-0.72,0-1.272-0.048-1.62-0.096V0.552z M101.658,3.864h0.948
				c1.092,0,1.74-0.588,1.74-1.368c0-0.936-0.708-1.32-1.764-1.32c-0.48,0-0.756,0.036-0.924,0.072V3.864z M101.658,7.728
				c0.216,0.036,0.504,0.048,0.876,0.048c1.08,0,2.076-0.396,2.076-1.572c0-1.092-0.948-1.56-2.088-1.56h-0.864V7.728z"/>
			<path d="M111.198,7.128c0,0.504,0.024,0.996,0.084,1.392h-0.948l-0.096-0.732h-0.036c-0.312,0.456-0.948,0.864-1.776,0.864
				c-1.176,0-1.776-0.828-1.776-1.668c0-1.404,1.248-2.172,3.492-2.16v-0.12c0-0.48-0.132-1.356-1.32-1.344
				c-0.552,0-1.116,0.156-1.524,0.432l-0.24-0.708c0.48-0.3,1.188-0.504,1.92-0.504c1.788,0,2.22,1.212,2.22,2.376V7.128z
				 M110.166,5.556c-1.152-0.024-2.46,0.18-2.46,1.308c0,0.696,0.456,1.008,0.984,1.008c0.768,0,1.26-0.48,1.428-0.972
				c0.036-0.108,0.048-0.228,0.048-0.336V5.556z"/>
			<path d="M112.902,4.524c0-0.684-0.012-1.272-0.048-1.812h0.924l0.048,1.14h0.036c0.264-0.78,0.912-1.272,1.62-1.272
				c0.108,0,0.192,0.012,0.288,0.036V3.6c-0.12-0.012-0.228-0.024-0.372-0.024c-0.744,0-1.272,0.564-1.416,1.344
				c-0.024,0.156-0.036,0.324-0.036,0.504V8.52h-1.056L112.902,4.524z"/>
			<path d="M119.394,0.552c0.456-0.108,1.188-0.18,1.908-0.18c1.044,0,1.716,0.18,2.208,0.588c0.42,0.312,0.684,0.792,0.684,1.428
				c0,0.792-0.528,1.476-1.368,1.776V4.2c0.768,0.18,1.668,0.816,1.668,2.016c0,0.696-0.276,1.224-0.696,1.62
				c-0.552,0.516-1.464,0.756-2.784,0.756c-0.72,0-1.272-0.048-1.62-0.096V0.552z M120.438,3.864h0.948
				c1.092,0,1.74-0.588,1.74-1.368c0-0.936-0.708-1.32-1.764-1.32c-0.48,0-0.756,0.036-0.924,0.072V3.864z M120.438,7.728
				c0.216,0.036,0.504,0.048,0.876,0.048c1.08,0,2.076-0.396,2.076-1.572c0-1.092-0.948-1.56-2.088-1.56h-0.864V7.728z"/>
			<path d="M125.874,0h1.056v8.52h-1.056V0z"/>
			<path d="M133.542,6.936c0,0.6,0.012,1.128,0.048,1.584h-0.936l-0.06-0.948h-0.024c-0.264,0.468-0.888,1.08-1.92,1.08
				c-0.912,0-2.004-0.516-2.004-2.544V2.712h1.056v3.204c0,1.104,0.348,1.86,1.296,1.86c0.708,0,1.2-0.492,1.392-0.972
				c0.06-0.144,0.096-0.336,0.096-0.54V2.712h1.056V6.936z"/>
			<path d="M135.894,5.796c0.024,1.428,0.924,2.016,1.98,2.016c0.756,0,1.224-0.132,1.608-0.288l0.192,0.744
				c-0.372,0.168-1.02,0.372-1.944,0.372c-1.776,0-2.856-1.188-2.856-2.928c0-1.764,1.044-3.144,2.736-3.144
				c1.896,0,2.388,1.668,2.388,2.736c0,0.216-0.012,0.384-0.036,0.504L135.894,5.796z M138.978,5.04
				c0.012-0.66-0.276-1.716-1.452-1.716c-1.08,0-1.536,0.984-1.62,1.716H138.978z"/>
			<path d="M141.162,7.452c0.324,0.192,0.876,0.408,1.404,0.408c0.756,0,1.116-0.372,1.116-0.864c0-0.504-0.3-0.78-1.068-1.068
				c-1.056-0.384-1.548-0.948-1.548-1.644c0-0.936,0.768-1.704,2.004-1.704c0.588,0,1.104,0.156,1.416,0.36l-0.252,0.756
				c-0.228-0.132-0.648-0.336-1.188-0.336c-0.624,0-0.96,0.36-0.96,0.792c0,0.492,0.336,0.708,1.092,0.996
				c0.996,0.372,1.524,0.876,1.524,1.752c0,1.032-0.804,1.752-2.16,1.752c-0.636,0-1.224-0.168-1.632-0.408L141.162,7.452z"/>
			<path d="M146.501,8.652c-0.408,0-0.696-0.324-0.696-0.744c0-0.444,0.3-0.756,0.708-0.756c0.432,0,0.708,0.312,0.708,0.756
				c0,0.42-0.276,0.744-0.708,0.744H146.501z M146.514,4.416c-0.408,0-0.696-0.324-0.696-0.744c0-0.444,0.3-0.756,0.708-0.756
				c0.432,0,0.708,0.312,0.708,0.756c0,0.42-0.276,0.744-0.708,0.744H146.514z"/>
		</g>
		<g>
			<path d="M43.042,27.547v0.125c-0.223,0.012-0.403,0.043-0.542,0.094c-0.139,0.051-0.263,0.134-0.372,0.247
				c-0.152,0.157-0.246,0.374-0.281,0.652c-0.023,0.208-0.035,0.446-0.035,0.717v4.33c0,0.325,0.016,0.582,0.047,0.77
				s0.082,0.339,0.152,0.452c0.102,0.157,0.232,0.273,0.393,0.35c0.16,0.076,0.373,0.122,0.639,0.138v0.125h-3.742v-0.125
				c0.227-0.012,0.409-0.044,0.548-0.097s0.261-0.134,0.366-0.244c0.125-0.125,0.209-0.284,0.252-0.476
				c0.043-0.192,0.064-0.49,0.064-0.894v-4.33c0-0.403-0.021-0.701-0.064-0.893s-0.127-0.351-0.252-0.476
				c-0.105-0.113-0.229-0.196-0.369-0.247c-0.141-0.051-0.322-0.082-0.545-0.094v-0.125H43.042z"/>
			<path d="M79.042,27.547v0.125c-0.223,0.012-0.403,0.043-0.542,0.094c-0.139,0.051-0.263,0.134-0.372,0.247
				c-0.152,0.157-0.246,0.374-0.281,0.652c-0.023,0.208-0.035,0.446-0.035,0.717v4.33c0,0.325,0.016,0.582,0.047,0.77
				s0.082,0.339,0.152,0.452c0.102,0.157,0.232,0.273,0.393,0.35c0.16,0.076,0.373,0.122,0.639,0.138v0.125h-3.742v-0.125
				c0.227-0.012,0.409-0.044,0.548-0.097s0.261-0.134,0.366-0.244c0.125-0.125,0.209-0.284,0.252-0.476
				c0.043-0.192,0.064-0.49,0.064-0.894v-4.33c0-0.403-0.021-0.701-0.064-0.893s-0.127-0.351-0.252-0.476
				c-0.105-0.113-0.229-0.196-0.369-0.247c-0.141-0.051-0.322-0.082-0.545-0.094v-0.125H79.042z"/>
			<path d="M115.042,27.547v0.125c-0.223,0.012-0.403,0.043-0.542,0.094c-0.139,0.051-0.263,0.134-0.372,0.247
				c-0.152,0.157-0.246,0.374-0.281,0.652c-0.023,0.208-0.035,0.446-0.035,0.717v4.33c0,0.325,0.016,0.582,0.047,0.77
				s0.082,0.339,0.152,0.452c0.102,0.157,0.232,0.273,0.393,0.35c0.16,0.076,0.373,0.122,0.639,0.138v0.125h-3.742v-0.125
				c0.227-0.012,0.409-0.044,0.548-0.097s0.261-0.134,0.366-0.244c0.125-0.125,0.209-0.284,0.252-0.476
				c0.043-0.192,0.064-0.49,0.064-0.894v-4.33c0-0.403-0.021-0.701-0.064-0.893s-0.127-0.351-0.252-0.476
				c-0.105-0.113-0.229-0.196-0.369-0.247c-0.141-0.051-0.322-0.082-0.545-0.094v-0.125H115.042z"/>
			<path d="M151.042,27.547v0.125c-0.223,0.012-0.403,0.043-0.542,0.094c-0.139,0.051-0.263,0.134-0.372,0.247
				c-0.152,0.157-0.246,0.374-0.281,0.652c-0.023,0.208-0.035,0.446-0.035,0.717v4.33c0,0.325,0.016,0.582,0.047,0.77
				s0.082,0.339,0.152,0.452c0.102,0.157,0.232,0.273,0.393,0.35c0.16,0.076,0.373,0.122,0.639,0.138v0.125h-3.742v-0.125
				c0.227-0.012,0.409-0.044,0.548-0.097s0.261-0.134,0.366-0.244c0.125-0.125,0.209-0.284,0.252-0.476
				c0.043-0.192,0.064-0.49,0.064-0.894v-4.33c0-0.403-0.021-0.701-0.064-0.893s-0.127-0.351-0.252-0.476
				c-0.105-0.113-0.229-0.196-0.369-0.247c-0.141-0.051-0.322-0.082-0.545-0.094v-0.125H151.042z"/>
			<path d="M156.635,27.657l-2.854,7.243l-0.117,0.299c-0.066,0.161-0.142,0.277-0.226,0.349s-0.188,0.108-0.313,0.108
				c-0.137,0-0.254-0.043-0.352-0.129s-0.146-0.189-0.146-0.311c0-0.109,0.049-0.26,0.146-0.452l0.123-0.229l3.123-5.942h-2.555
				c-0.211,0-0.373,0.011-0.486,0.032s-0.213,0.06-0.299,0.114c-0.117,0.078-0.214,0.177-0.292,0.296
				c-0.078,0.12-0.179,0.324-0.303,0.613l-0.029,0.07h-0.125l0.531-2.329l0.125-0.016c0.027,0.132,0.07,0.215,0.129,0.248
				c0.059,0.034,0.186,0.051,0.381,0.051L156.635,27.657z"/>
			<path d="M43.042,42.047v0.125c-0.223,0.012-0.403,0.043-0.542,0.094c-0.139,0.051-0.263,0.134-0.372,0.247
				c-0.152,0.157-0.246,0.374-0.281,0.652c-0.023,0.208-0.035,0.446-0.035,0.717v4.33c0,0.325,0.016,0.582,0.047,0.77
				s0.082,0.339,0.152,0.452c0.102,0.157,0.232,0.273,0.393,0.35c0.16,0.076,0.373,0.122,0.639,0.138v0.125h-3.742v-0.125
				c0.227-0.012,0.409-0.044,0.548-0.097s0.261-0.134,0.366-0.244c0.125-0.125,0.209-0.284,0.252-0.476
				c0.043-0.192,0.064-0.49,0.064-0.894v-4.33c0-0.403-0.021-0.701-0.064-0.893s-0.127-0.351-0.252-0.476
				c-0.105-0.113-0.229-0.196-0.369-0.247c-0.141-0.051-0.322-0.082-0.545-0.094v-0.125H43.042z"/>
			<path d="M43.133,42.047h3.848v0.125c-0.293,0.027-0.504,0.073-0.633,0.136c-0.121,0.059-0.219,0.15-0.292,0.274
				s-0.11,0.258-0.11,0.403c0,0.103,0.009,0.193,0.029,0.271c0.02,0.079,0.078,0.25,0.175,0.513l1.765,4.716l1.688-4.136
				c0.234-0.584,0.352-1.01,0.352-1.278c0-0.148-0.023-0.288-0.07-0.417s-0.109-0.229-0.188-0.3
				c-0.079-0.066-0.165-0.114-0.259-0.142c-0.094-0.027-0.216-0.041-0.366-0.041v-0.125h2.609v0.125
				c-0.215,0.02-0.402,0.073-0.56,0.159c-0.159,0.086-0.311,0.218-0.455,0.395c-0.098,0.125-0.2,0.297-0.308,0.515
				s-0.255,0.554-0.443,1.01l-2.406,5.796h-0.25l-2.344-5.99c-0.304-0.79-0.547-1.29-0.73-1.502c-0.117-0.133-0.26-0.23-0.43-0.292
				c-0.169-0.061-0.376-0.091-0.622-0.091V42.047z"/>
			<path d="M56.768,42.157L53.915,49.4l-0.117,0.299c-0.066,0.161-0.142,0.277-0.226,0.349s-0.188,0.108-0.313,0.108
				c-0.137,0-0.254-0.043-0.352-0.129s-0.146-0.189-0.146-0.311c0-0.109,0.049-0.26,0.146-0.452l0.123-0.229l3.123-5.942h-2.555
				c-0.211,0-0.373,0.011-0.486,0.032s-0.213,0.06-0.299,0.114c-0.117,0.078-0.214,0.177-0.292,0.296
				c-0.078,0.12-0.179,0.324-0.303,0.613l-0.029,0.07h-0.125l0.531-2.329l0.125-0.016c0.027,0.132,0.07,0.215,0.129,0.248
				c0.059,0.034,0.186,0.051,0.381,0.051L56.768,42.157z"/>
			<path d="M79.042,42.047v0.125c-0.223,0.012-0.403,0.043-0.542,0.094c-0.139,0.051-0.263,0.134-0.372,0.247
				c-0.152,0.157-0.246,0.374-0.281,0.652c-0.023,0.208-0.035,0.446-0.035,0.717v4.33c0,0.325,0.016,0.582,0.047,0.77
				s0.082,0.339,0.152,0.452c0.102,0.157,0.232,0.273,0.393,0.35c0.16,0.076,0.373,0.122,0.639,0.138v0.125h-3.742v-0.125
				c0.227-0.012,0.409-0.044,0.548-0.097s0.261-0.134,0.366-0.244c0.125-0.125,0.209-0.284,0.252-0.476
				c0.043-0.192,0.064-0.49,0.064-0.894v-4.33c0-0.403-0.021-0.701-0.064-0.893s-0.127-0.351-0.252-0.476
				c-0.105-0.113-0.229-0.196-0.369-0.247c-0.141-0.051-0.322-0.082-0.545-0.094v-0.125H79.042z"/>
			<path d="M79.133,42.047h3.848v0.125c-0.293,0.027-0.504,0.073-0.633,0.136c-0.121,0.059-0.219,0.15-0.292,0.274
				s-0.11,0.258-0.11,0.403c0,0.103,0.009,0.193,0.029,0.271c0.02,0.079,0.078,0.25,0.175,0.513l1.765,4.716l1.688-4.136
				c0.234-0.584,0.352-1.01,0.352-1.278c0-0.148-0.023-0.288-0.07-0.417s-0.109-0.229-0.188-0.3
				c-0.079-0.066-0.165-0.114-0.259-0.142c-0.094-0.027-0.216-0.041-0.366-0.041v-0.125h2.609v0.125
				c-0.215,0.02-0.402,0.073-0.56,0.159c-0.159,0.086-0.311,0.218-0.455,0.395c-0.098,0.125-0.2,0.297-0.308,0.515
				s-0.255,0.554-0.443,1.01l-2.406,5.796h-0.25l-2.344-5.99c-0.304-0.79-0.547-1.29-0.73-1.502c-0.117-0.133-0.26-0.23-0.43-0.292
				c-0.169-0.061-0.376-0.091-0.622-0.091V42.047z"/>
			<path d="M92.768,42.157L89.915,49.4l-0.117,0.299c-0.066,0.161-0.142,0.277-0.226,0.349s-0.188,0.108-0.313,0.108
				c-0.137,0-0.254-0.043-0.352-0.129s-0.146-0.189-0.146-0.311c0-0.109,0.049-0.26,0.146-0.452l0.123-0.229l3.123-5.942h-2.555
				c-0.211,0-0.373,0.011-0.486,0.032s-0.213,0.06-0.299,0.114c-0.117,0.078-0.214,0.177-0.292,0.296
				c-0.078,0.12-0.179,0.324-0.303,0.613l-0.029,0.07h-0.125l0.531-2.329l0.125-0.016c0.027,0.132,0.07,0.215,0.129,0.248
				c0.059,0.034,0.186,0.051,0.381,0.051L92.768,42.157z"/>
			<path d="M115.042,42.047v0.125c-0.223,0.012-0.403,0.043-0.542,0.094c-0.139,0.051-0.263,0.134-0.372,0.247
				c-0.152,0.157-0.246,0.374-0.281,0.652c-0.023,0.208-0.035,0.446-0.035,0.717v4.33c0,0.325,0.016,0.582,0.047,0.77
				s0.082,0.339,0.152,0.452c0.102,0.157,0.232,0.273,0.393,0.35c0.16,0.076,0.373,0.122,0.639,0.138v0.125h-3.742v-0.125
				c0.227-0.012,0.409-0.044,0.548-0.097s0.261-0.134,0.366-0.244c0.125-0.125,0.209-0.284,0.252-0.476
				c0.043-0.192,0.064-0.49,0.064-0.894v-4.33c0-0.403-0.021-0.701-0.064-0.893s-0.127-0.351-0.252-0.476
				c-0.105-0.113-0.229-0.196-0.369-0.247c-0.141-0.051-0.322-0.082-0.545-0.094v-0.125H115.042z"/>
			<path d="M151.042,42.047v0.125c-0.223,0.012-0.403,0.043-0.542,0.094c-0.139,0.051-0.263,0.134-0.372,0.247
				c-0.152,0.157-0.246,0.374-0.281,0.652c-0.023,0.208-0.035,0.446-0.035,0.717v4.33c0,0.325,0.016,0.582,0.047,0.77
				s0.082,0.339,0.152,0.452c0.102,0.157,0.232,0.273,0.393,0.35c0.16,0.076,0.373,0.122,0.639,0.138v0.125h-3.742v-0.125
				c0.227-0.012,0.409-0.044,0.548-0.097s0.261-0.134,0.366-0.244c0.125-0.125,0.209-0.284,0.252-0.476
				c0.043-0.192,0.064-0.49,0.064-0.894v-4.33c0-0.403-0.021-0.701-0.064-0.893s-0.127-0.351-0.252-0.476
				c-0.105-0.113-0.229-0.196-0.369-0.247c-0.141-0.051-0.322-0.082-0.545-0.094v-0.125H151.042z"/>
			<path d="M38.815,56.547h3.848v0.125c-0.293,0.027-0.504,0.073-0.633,0.136c-0.121,0.059-0.219,0.15-0.292,0.274
				s-0.11,0.258-0.11,0.403c0,0.103,0.009,0.193,0.029,0.271c0.02,0.079,0.078,0.25,0.175,0.513l1.765,4.716l1.688-4.136
				c0.234-0.584,0.352-1.01,0.352-1.278c0-0.148-0.023-0.288-0.07-0.417s-0.109-0.229-0.188-0.3
				c-0.079-0.066-0.165-0.114-0.259-0.142c-0.094-0.027-0.216-0.041-0.366-0.041v-0.125h2.609v0.125
				c-0.215,0.02-0.402,0.073-0.56,0.159c-0.159,0.086-0.311,0.218-0.455,0.395c-0.098,0.125-0.2,0.297-0.308,0.515
				s-0.255,0.554-0.443,1.01l-2.406,5.796h-0.25l-2.344-5.99c-0.304-0.79-0.547-1.29-0.73-1.502c-0.117-0.133-0.26-0.23-0.43-0.292
				c-0.169-0.061-0.376-0.091-0.622-0.091V56.547z"/>
			<path d="M52.45,56.657L49.596,63.9l-0.117,0.299c-0.066,0.161-0.142,0.277-0.226,0.349s-0.188,0.108-0.313,0.108
				c-0.137,0-0.254-0.043-0.352-0.129s-0.146-0.189-0.146-0.311c0-0.109,0.049-0.26,0.146-0.452l0.123-0.229l3.123-5.942H49.28
				c-0.211,0-0.373,0.011-0.486,0.032s-0.213,0.06-0.299,0.114c-0.117,0.078-0.214,0.177-0.292,0.296
				c-0.078,0.12-0.179,0.324-0.303,0.613l-0.029,0.07h-0.125l0.531-2.329l0.125-0.016c0.027,0.132,0.07,0.215,0.129,0.248
				c0.059,0.034,0.186,0.051,0.381,0.051L52.45,56.657z"/>
			<path d="M74.815,56.547h3.848v0.125c-0.293,0.027-0.504,0.073-0.633,0.136c-0.121,0.059-0.219,0.15-0.292,0.274
				s-0.11,0.258-0.11,0.403c0,0.103,0.009,0.193,0.029,0.271c0.02,0.079,0.078,0.25,0.175,0.513l1.765,4.716l1.688-4.136
				c0.234-0.584,0.352-1.01,0.352-1.278c0-0.148-0.023-0.288-0.07-0.417s-0.109-0.229-0.188-0.3
				c-0.079-0.066-0.165-0.114-0.259-0.142c-0.094-0.027-0.216-0.041-0.366-0.041v-0.125h2.609v0.125
				c-0.215,0.02-0.402,0.073-0.56,0.159c-0.159,0.086-0.311,0.218-0.455,0.395c-0.098,0.125-0.2,0.297-0.308,0.515
				s-0.255,0.554-0.443,1.01l-2.406,5.796h-0.25l-2.344-5.99c-0.304-0.79-0.547-1.29-0.73-1.502c-0.117-0.133-0.26-0.23-0.43-0.292
				c-0.169-0.061-0.376-0.091-0.622-0.091V56.547z"/>
			<path d="M88.45,56.657L85.596,63.9l-0.117,0.299c-0.066,0.161-0.142,0.277-0.226,0.349s-0.188,0.108-0.313,0.108
				c-0.137,0-0.254-0.043-0.352-0.129s-0.146-0.189-0.146-0.311c0-0.109,0.049-0.26,0.146-0.452l0.123-0.229l3.123-5.942H85.28
				c-0.211,0-0.373,0.011-0.486,0.032s-0.213,0.06-0.299,0.114c-0.117,0.078-0.214,0.177-0.292,0.296
				c-0.078,0.12-0.179,0.324-0.303,0.613l-0.029,0.07h-0.125l0.531-2.329l0.125-0.016c0.027,0.132,0.07,0.215,0.129,0.248
				c0.059,0.034,0.186,0.051,0.381,0.051L88.45,56.657z"/>
			<path d="M115.042,56.547v0.125c-0.223,0.012-0.403,0.043-0.542,0.094c-0.139,0.051-0.263,0.134-0.372,0.247
				c-0.152,0.157-0.246,0.374-0.281,0.652c-0.023,0.208-0.035,0.446-0.035,0.717v4.33c0,0.325,0.016,0.582,0.047,0.77
				s0.082,0.339,0.152,0.452c0.102,0.157,0.232,0.273,0.393,0.35c0.16,0.076,0.373,0.122,0.639,0.138v0.125h-3.742v-0.125
				c0.227-0.012,0.409-0.044,0.548-0.097s0.261-0.134,0.366-0.244c0.125-0.125,0.209-0.284,0.252-0.476
				c0.043-0.192,0.064-0.49,0.064-0.894v-4.33c0-0.403-0.021-0.701-0.064-0.893s-0.127-0.351-0.252-0.476
				c-0.105-0.113-0.229-0.196-0.369-0.247c-0.141-0.051-0.322-0.082-0.545-0.094v-0.125H115.042z"/>
			<path d="M151.042,56.547v0.125c-0.223,0.012-0.403,0.043-0.542,0.094c-0.139,0.051-0.263,0.134-0.372,0.247
				c-0.152,0.157-0.246,0.374-0.281,0.652c-0.023,0.208-0.035,0.446-0.035,0.717v4.33c0,0.325,0.016,0.582,0.047,0.77
				s0.082,0.339,0.152,0.452c0.102,0.157,0.232,0.273,0.393,0.35c0.16,0.076,0.373,0.122,0.639,0.138v0.125h-3.742v-0.125
				c0.227-0.012,0.409-0.044,0.548-0.097s0.261-0.134,0.366-0.244c0.125-0.125,0.209-0.284,0.252-0.476
				c0.043-0.192,0.064-0.49,0.064-0.894v-4.33c0-0.403-0.021-0.701-0.064-0.893s-0.127-0.351-0.252-0.476
				c-0.105-0.113-0.229-0.196-0.369-0.247c-0.141-0.051-0.322-0.082-0.545-0.094v-0.125H151.042z"/>
		</g>
		<g>
			<path d="M2.652,102.872L0,94.784h1.14l1.26,3.984c0.336,1.092,0.636,2.088,0.864,3.024h0.024
				c0.228-0.936,0.552-1.956,0.924-3.012l1.368-3.996h1.116l-2.892,8.088H2.652z"/>
			<path d="M7.692,100.147c0.024,1.428,0.924,2.016,1.98,2.016c0.756,0,1.224-0.132,1.608-0.288l0.192,0.744
				c-0.372,0.168-1.02,0.372-1.944,0.372c-1.776,0-2.856-1.188-2.856-2.928c0-1.764,1.044-3.144,2.736-3.144
				c1.896,0,2.388,1.668,2.388,2.736c0,0.216-0.012,0.384-0.036,0.504L7.692,100.147z M10.776,99.392
				c0.012-0.66-0.276-1.716-1.452-1.716c-1.08,0-1.536,0.984-1.62,1.716H10.776z"/>
			<path d="M13.116,98.875c0-0.684-0.012-1.272-0.048-1.812h0.924l0.048,1.14h0.036c0.264-0.78,0.912-1.272,1.62-1.272
				c0.108,0,0.192,0.012,0.288,0.036v0.984c-0.12-0.012-0.228-0.024-0.372-0.024c-0.744,0-1.272,0.564-1.416,1.344
				c-0.024,0.156-0.036,0.324-0.036,0.504v3.096h-1.056L13.116,98.875z"/>
			<path d="M16.884,101.804c0.324,0.192,0.876,0.408,1.404,0.408c0.756,0,1.116-0.372,1.116-0.864c0-0.504-0.3-0.78-1.068-1.068
				c-1.056-0.384-1.548-0.948-1.548-1.644c0-0.936,0.768-1.704,2.004-1.704c0.588,0,1.104,0.156,1.416,0.36l-0.252,0.756
				c-0.228-0.132-0.648-0.336-1.188-0.336c-0.624,0-0.96,0.36-0.96,0.792c0,0.492,0.336,0.708,1.092,0.996
				c0.996,0.372,1.524,0.876,1.524,1.752c0,1.032-0.804,1.752-2.16,1.752c-0.636,0-1.224-0.168-1.632-0.408L16.884,101.804z"/>
			<path d="M22.38,100.147c0.024,1.428,0.924,2.016,1.98,2.016c0.756,0,1.224-0.132,1.608-0.288l0.192,0.744
				c-0.372,0.168-1.02,0.372-1.944,0.372c-1.776,0-2.856-1.188-2.856-2.928c0-1.764,1.044-3.144,2.736-3.144
				c1.896,0,2.388,1.668,2.388,2.736c0,0.216-0.012,0.384-0.036,0.504L22.38,100.147z M25.464,99.392
				c0.012-0.66-0.276-1.716-1.452-1.716c-1.08,0-1.536,0.984-1.62,1.716H25.464z"/>
			<path d="M32.7,103.003c-1.56,0-2.784-1.152-2.784-2.988c0-1.944,1.284-3.084,2.88-3.084c1.668,0,2.796,1.212,2.796,2.976
				c0,2.16-1.5,3.096-2.88,3.096H32.7z M32.736,102.211c1.008,0,1.764-0.948,1.764-2.268c0-0.984-0.492-2.22-1.74-2.22
				c-1.236,0-1.776,1.152-1.776,2.256c0,1.272,0.72,2.232,1.74,2.232H32.736z"/>
			<path d="M37.02,102.872v-5.004h-0.804v-0.804h0.804v-0.276c0-0.816,0.192-1.56,0.684-2.028c0.396-0.384,0.924-0.54,1.404-0.54
				c0.384,0,0.696,0.084,0.9,0.168l-0.132,0.816c-0.168-0.072-0.372-0.132-0.684-0.132c-0.888,0-1.128,0.792-1.128,1.68v0.312h1.404
				v0.804h-1.392v5.004H37.02z"/>
			<path d="M43.739,94.567l-0.192,2.88h-0.648l-0.192-2.88H43.739z"/>
			<path d="M45.995,94.567l-0.192,2.88h-0.648l-0.192-2.88H45.995z"/>
			<path d="M49.163,94.784h1.056v5.412c0,2.148-1.056,2.808-2.448,2.808c-0.396,0-0.864-0.084-1.116-0.192l0.144-0.852
				c0.216,0.084,0.528,0.156,0.888,0.156c0.936,0,1.476-0.42,1.476-2.004V94.784z"/>
			<path d="M52.439,95.996c-0.396,0-0.66-0.312-0.66-0.684s0.276-0.672,0.684-0.672s0.672,0.3,0.672,0.672s-0.264,0.684-0.684,0.684
				H52.439z M51.935,102.872v-5.808h1.056v5.808H51.935z"/>
			<path d="M54.743,98.636c0-0.612-0.012-1.092-0.048-1.572h0.936l0.06,0.948h0.024c0.288-0.54,0.96-1.08,1.92-1.08
				c0.804,0,2.052,0.48,2.052,2.472v3.468h-1.056v-3.348c0-0.936-0.348-1.728-1.344-1.728c-0.684,0-1.224,0.492-1.416,1.08
				c-0.048,0.132-0.072,0.324-0.072,0.492v3.504h-1.056V98.636z"/>
			<path d="M66.371,102.02c0,1.344-0.276,2.148-0.828,2.664c-0.576,0.516-1.392,0.696-2.124,0.696c-0.696,0-1.464-0.168-1.932-0.48
				l0.264-0.816c0.384,0.252,0.984,0.468,1.704,0.468c1.08,0,1.872-0.564,1.872-2.04v-0.636h-0.024
				c-0.312,0.54-0.948,0.972-1.848,0.972c-1.44,0-2.472-1.224-2.472-2.844c0-1.968,1.284-3.072,2.628-3.072
				c1.008,0,1.548,0.516,1.812,0.996h0.024l0.036-0.864h0.936c-0.036,0.408-0.048,0.876-0.048,1.584V102.02z M65.315,99.344
				c0-0.168-0.012-0.324-0.06-0.468c-0.192-0.624-0.696-1.128-1.476-1.128c-1.008,0-1.728,0.852-1.728,2.208
				c0,1.128,0.588,2.088,1.716,2.088c0.66,0,1.248-0.408,1.464-1.092c0.06-0.168,0.084-0.372,0.084-0.564V99.344z"/>
			<path d="M68.111,94.352h1.056v8.52h-1.056V94.352z"/>
			<path d="M71.519,100.147c0.024,1.428,0.924,2.016,1.98,2.016c0.756,0,1.224-0.132,1.608-0.288l0.192,0.744
				c-0.372,0.168-1.02,0.372-1.944,0.372c-1.776,0-2.856-1.188-2.856-2.928c0-1.764,1.044-3.144,2.736-3.144
				c1.896,0,2.388,1.668,2.388,2.736c0,0.216-0.012,0.384-0.036,0.504L71.519,100.147z M74.603,99.392
				c0.012-0.66-0.276-1.716-1.452-1.716c-1.08,0-1.536,0.984-1.62,1.716H74.603z"/>
			<path d="M79.51,94.903c0.456-0.108,1.188-0.18,1.908-0.18c1.044,0,1.716,0.18,2.208,0.588c0.42,0.312,0.684,0.792,0.684,1.428
				c0,0.792-0.528,1.476-1.368,1.776v0.036c0.768,0.18,1.668,0.816,1.668,2.016c0,0.696-0.276,1.224-0.696,1.62
				c-0.552,0.516-1.464,0.756-2.784,0.756c-0.72,0-1.272-0.048-1.62-0.096V94.903z M80.554,98.215h0.948
				c1.092,0,1.74-0.588,1.74-1.368c0-0.936-0.708-1.32-1.764-1.32c-0.48,0-0.756,0.036-0.924,0.072V98.215z M80.554,102.08
				c0.216,0.036,0.504,0.048,0.876,0.048c1.08,0,2.076-0.396,2.076-1.572c0-1.092-0.948-1.56-2.088-1.56h-0.864V102.08z"/>
			<path d="M86.626,100.147c0.024,1.428,0.924,2.016,1.98,2.016c0.756,0,1.224-0.132,1.608-0.288l0.192,0.744
				c-0.372,0.168-1.02,0.372-1.944,0.372c-1.776,0-2.856-1.188-2.856-2.928c0-1.764,1.044-3.144,2.736-3.144
				c1.896,0,2.388,1.668,2.388,2.736c0,0.216-0.012,0.384-0.036,0.504L86.626,100.147z M89.71,99.392
				c0.012-0.66-0.276-1.716-1.452-1.716c-1.08,0-1.536,0.984-1.62,1.716H89.71z"/>
			<path d="M92.038,94.352h1.056v8.52h-1.056V94.352z"/>
			<path d="M94.846,94.352h1.056v8.52h-1.056V94.352z"/>
			<path d="M97.51,101.804c0.324,0.192,0.876,0.408,1.404,0.408c0.756,0,1.116-0.372,1.116-0.864c0-0.504-0.3-0.78-1.068-1.068
				c-1.056-0.384-1.548-0.948-1.548-1.644c0-0.936,0.768-1.704,2.004-1.704c0.588,0,1.104,0.156,1.416,0.36l-0.252,0.756
				c-0.228-0.132-0.648-0.336-1.188-0.336c-0.624,0-0.96,0.36-0.96,0.792c0,0.492,0.336,0.708,1.092,0.996
				c0.996,0.372,1.524,0.876,1.524,1.752c0,1.032-0.804,1.752-2.16,1.752c-0.636,0-1.224-0.168-1.632-0.408L97.51,101.804z"/>
			<path d="M103.174,94.567l-0.192,2.88h-0.648l-0.192-2.88H103.174z"/>
			<path d="M105.43,94.567l-0.192,2.88h-0.648l-0.192-2.88H105.43z"/>
		</g>
		<g>
			<path d="M42.987,113.872v0.125c-0.223,0.012-0.403,0.043-0.542,0.094c-0.139,0.051-0.263,0.134-0.372,0.247
				c-0.152,0.157-0.246,0.374-0.281,0.652c-0.023,0.208-0.035,0.446-0.035,0.717v4.33c0,0.325,0.016,0.582,0.047,0.77
				s0.082,0.339,0.152,0.452c0.102,0.157,0.232,0.273,0.393,0.35c0.16,0.076,0.373,0.122,0.639,0.138v0.125h-3.742v-0.125
				c0.227-0.012,0.409-0.044,0.548-0.097s0.261-0.134,0.366-0.244c0.125-0.125,0.209-0.284,0.252-0.476
				c0.043-0.192,0.064-0.49,0.064-0.894v-4.33c0-0.403-0.021-0.701-0.064-0.893s-0.127-0.351-0.252-0.476
				c-0.105-0.113-0.229-0.196-0.369-0.247c-0.141-0.051-0.322-0.082-0.545-0.094v-0.125H42.987z"/>
			<path d="M78.987,113.872v0.125c-0.223,0.012-0.403,0.043-0.542,0.094c-0.139,0.051-0.263,0.134-0.372,0.247
				c-0.152,0.157-0.246,0.374-0.281,0.652c-0.023,0.208-0.035,0.446-0.035,0.717v4.33c0,0.325,0.016,0.582,0.047,0.77
				s0.082,0.339,0.152,0.452c0.102,0.157,0.232,0.273,0.393,0.35c0.16,0.076,0.373,0.122,0.639,0.138v0.125h-3.742v-0.125
				c0.227-0.012,0.409-0.044,0.548-0.097s0.261-0.134,0.366-0.244c0.125-0.125,0.209-0.284,0.252-0.476
				c0.043-0.192,0.064-0.49,0.064-0.894v-4.33c0-0.403-0.021-0.701-0.064-0.893s-0.127-0.351-0.252-0.476
				c-0.105-0.113-0.229-0.196-0.369-0.247c-0.141-0.051-0.322-0.082-0.545-0.094v-0.125H78.987z"/>
			<path d="M114.987,113.872v0.125c-0.223,0.012-0.403,0.043-0.542,0.094c-0.139,0.051-0.263,0.134-0.372,0.247
				c-0.152,0.157-0.246,0.374-0.281,0.652c-0.023,0.208-0.035,0.446-0.035,0.717v4.33c0,0.325,0.016,0.582,0.047,0.77
				s0.082,0.339,0.152,0.452c0.102,0.157,0.232,0.273,0.393,0.35c0.16,0.076,0.373,0.122,0.639,0.138v0.125h-3.742v-0.125
				c0.227-0.012,0.409-0.044,0.548-0.097s0.261-0.134,0.366-0.244c0.125-0.125,0.209-0.284,0.252-0.476
				c0.043-0.192,0.064-0.49,0.064-0.894v-4.33c0-0.403-0.021-0.701-0.064-0.893s-0.127-0.351-0.252-0.476
				c-0.105-0.113-0.229-0.196-0.369-0.247c-0.141-0.051-0.322-0.082-0.545-0.094v-0.125H114.987z"/>
			<path d="M150.987,113.872v0.125c-0.223,0.012-0.403,0.043-0.542,0.094c-0.139,0.051-0.263,0.134-0.372,0.247
				c-0.152,0.157-0.246,0.374-0.281,0.652c-0.023,0.208-0.035,0.446-0.035,0.717v4.33c0,0.325,0.016,0.582,0.047,0.77
				s0.082,0.339,0.152,0.452c0.102,0.157,0.232,0.273,0.393,0.35c0.16,0.076,0.373,0.122,0.639,0.138v0.125h-3.742v-0.125
				c0.227-0.012,0.409-0.044,0.548-0.097s0.261-0.134,0.366-0.244c0.125-0.125,0.209-0.284,0.252-0.476
				c0.043-0.192,0.064-0.49,0.064-0.894v-4.33c0-0.403-0.021-0.701-0.064-0.893s-0.127-0.351-0.252-0.476
				c-0.105-0.113-0.229-0.196-0.369-0.247c-0.141-0.051-0.322-0.082-0.545-0.094v-0.125H150.987z"/>
			<path d="M151.079,113.872h3.848v0.125c-0.293,0.027-0.504,0.073-0.633,0.136c-0.121,0.059-0.219,0.15-0.292,0.274
				s-0.111,0.258-0.111,0.403c0,0.103,0.01,0.193,0.029,0.271c0.02,0.079,0.078,0.25,0.175,0.513l1.765,4.716l1.688-4.136
				c0.234-0.584,0.352-1.01,0.352-1.278c0-0.148-0.023-0.288-0.07-0.417s-0.109-0.229-0.188-0.3
				c-0.078-0.066-0.165-0.114-0.259-0.142c-0.095-0.027-0.217-0.041-0.366-0.041v-0.125h2.609v0.125
				c-0.215,0.02-0.402,0.073-0.561,0.159c-0.158,0.086-0.31,0.218-0.454,0.395c-0.098,0.125-0.201,0.297-0.308,0.515
				c-0.108,0.218-0.255,0.554-0.443,1.01l-2.406,5.796h-0.25l-2.344-5.99c-0.304-0.79-0.547-1.29-0.73-1.502
				c-0.117-0.133-0.26-0.23-0.429-0.292c-0.17-0.061-0.377-0.091-0.622-0.091V113.872z"/>
			<path d="M42.987,128.372v0.125c-0.223,0.012-0.403,0.043-0.542,0.094c-0.139,0.051-0.263,0.134-0.372,0.247
				c-0.152,0.157-0.246,0.374-0.281,0.652c-0.023,0.208-0.035,0.446-0.035,0.717v4.33c0,0.325,0.016,0.582,0.047,0.77
				s0.082,0.339,0.152,0.452c0.102,0.157,0.232,0.273,0.393,0.35c0.16,0.076,0.373,0.122,0.639,0.138v0.125h-3.742v-0.125
				c0.227-0.012,0.409-0.044,0.548-0.097s0.261-0.134,0.366-0.244c0.125-0.125,0.209-0.284,0.252-0.476
				c0.043-0.192,0.064-0.49,0.064-0.894v-4.33c0-0.403-0.021-0.701-0.064-0.893s-0.127-0.351-0.252-0.476
				c-0.105-0.113-0.229-0.196-0.369-0.247c-0.141-0.051-0.322-0.082-0.545-0.094v-0.125H42.987z"/>
			<path d="M43.079,128.372h3.848v0.125c-0.293,0.027-0.504,0.073-0.633,0.136c-0.121,0.059-0.219,0.15-0.292,0.274
				s-0.111,0.258-0.111,0.403c0,0.103,0.01,0.193,0.029,0.271c0.02,0.079,0.078,0.25,0.175,0.513l1.765,4.716l1.688-4.136
				c0.234-0.584,0.352-1.01,0.352-1.278c0-0.148-0.023-0.288-0.07-0.417s-0.109-0.229-0.188-0.3
				c-0.078-0.066-0.165-0.114-0.259-0.142c-0.095-0.027-0.217-0.041-0.366-0.041v-0.125h2.609v0.125
				c-0.215,0.02-0.402,0.073-0.561,0.159c-0.158,0.086-0.31,0.218-0.454,0.395c-0.098,0.125-0.201,0.297-0.308,0.515
				c-0.108,0.218-0.255,0.554-0.443,1.01l-2.406,5.796h-0.25l-2.344-5.99c-0.304-0.79-0.547-1.29-0.73-1.502
				c-0.117-0.133-0.26-0.23-0.429-0.292c-0.17-0.061-0.377-0.091-0.622-0.091V128.372z"/>
			<path d="M74.761,128.372h3.848v0.125c-0.293,0.027-0.504,0.073-0.633,0.136c-0.121,0.059-0.219,0.15-0.292,0.274
				s-0.111,0.258-0.111,0.403c0,0.103,0.01,0.193,0.029,0.271c0.02,0.079,0.078,0.25,0.175,0.513l1.765,4.716l1.688-4.136
				c0.234-0.584,0.352-1.01,0.352-1.278c0-0.148-0.023-0.288-0.07-0.417s-0.109-0.229-0.188-0.3
				c-0.078-0.066-0.165-0.114-0.259-0.142c-0.095-0.027-0.217-0.041-0.366-0.041v-0.125h2.609v0.125
				c-0.215,0.02-0.402,0.073-0.561,0.159c-0.158,0.086-0.31,0.218-0.454,0.395c-0.098,0.125-0.201,0.297-0.308,0.515
				c-0.108,0.218-0.255,0.554-0.443,1.01l-2.406,5.796h-0.25l-2.344-5.99c-0.304-0.79-0.547-1.29-0.73-1.502
				c-0.117-0.133-0.26-0.23-0.429-0.292c-0.17-0.061-0.377-0.091-0.622-0.091V128.372z"/>
			<path d="M88.396,128.481l-2.854,7.243l-0.117,0.299c-0.066,0.161-0.142,0.277-0.226,0.349s-0.188,0.108-0.313,0.108
				c-0.137,0-0.254-0.043-0.352-0.129s-0.146-0.189-0.146-0.311c0-0.109,0.049-0.26,0.146-0.452l0.123-0.229l3.123-5.942h-2.555
				c-0.211,0-0.373,0.011-0.486,0.032s-0.213,0.06-0.299,0.114c-0.117,0.078-0.215,0.177-0.292,0.296
				c-0.078,0.12-0.179,0.324-0.304,0.613l-0.029,0.07H83.69l0.531-2.329l0.125-0.016c0.027,0.132,0.07,0.215,0.129,0.248
				c0.059,0.034,0.186,0.051,0.381,0.051L88.396,128.481z"/>
			<path d="M110.761,128.372h3.848v0.125c-0.293,0.027-0.504,0.073-0.633,0.136c-0.121,0.059-0.219,0.15-0.292,0.274
				s-0.111,0.258-0.111,0.403c0,0.103,0.01,0.193,0.029,0.271c0.02,0.079,0.078,0.25,0.175,0.513l1.765,4.716l1.688-4.136
				c0.234-0.584,0.352-1.01,0.352-1.278c0-0.148-0.023-0.288-0.07-0.417s-0.109-0.229-0.188-0.3
				c-0.078-0.066-0.165-0.114-0.259-0.142c-0.095-0.027-0.217-0.041-0.366-0.041v-0.125h2.609v0.125
				c-0.215,0.02-0.402,0.073-0.561,0.159c-0.158,0.086-0.31,0.218-0.454,0.395c-0.098,0.125-0.201,0.297-0.308,0.515
				c-0.108,0.218-0.255,0.554-0.443,1.01l-2.406,5.796h-0.25l-2.344-5.99c-0.304-0.79-0.547-1.29-0.73-1.502
				c-0.117-0.133-0.26-0.23-0.429-0.292c-0.17-0.061-0.377-0.091-0.622-0.091V128.372z"/>
			<path d="M124.396,128.481l-2.854,7.243l-0.117,0.299c-0.066,0.161-0.142,0.277-0.226,0.349s-0.188,0.108-0.313,0.108
				c-0.137,0-0.254-0.043-0.352-0.129s-0.146-0.189-0.146-0.311c0-0.109,0.049-0.26,0.146-0.452l0.123-0.229l3.123-5.942h-2.555
				c-0.211,0-0.373,0.011-0.486,0.032s-0.213,0.06-0.299,0.114c-0.117,0.078-0.215,0.177-0.292,0.296
				c-0.078,0.12-0.179,0.324-0.304,0.613l-0.029,0.07h-0.125l0.531-2.329l0.125-0.016c0.027,0.132,0.07,0.215,0.129,0.248
				c0.059,0.034,0.186,0.051,0.381,0.051L124.396,128.481z"/>
			<path d="M150.987,128.372v0.125c-0.223,0.012-0.403,0.043-0.542,0.094c-0.139,0.051-0.263,0.134-0.372,0.247
				c-0.152,0.157-0.246,0.374-0.281,0.652c-0.023,0.208-0.035,0.446-0.035,0.717v4.33c0,0.325,0.016,0.582,0.047,0.77
				s0.082,0.339,0.152,0.452c0.102,0.157,0.232,0.273,0.393,0.35c0.16,0.076,0.373,0.122,0.639,0.138v0.125h-3.742v-0.125
				c0.227-0.012,0.409-0.044,0.548-0.097s0.261-0.134,0.366-0.244c0.125-0.125,0.209-0.284,0.252-0.476
				c0.043-0.192,0.064-0.49,0.064-0.894v-4.33c0-0.403-0.021-0.701-0.064-0.893s-0.127-0.351-0.252-0.476
				c-0.105-0.113-0.229-0.196-0.369-0.247c-0.141-0.051-0.322-0.082-0.545-0.094v-0.125H150.987z"/>
			<path d="M42.987,142.872v0.125c-0.223,0.012-0.403,0.043-0.542,0.094c-0.139,0.051-0.263,0.134-0.372,0.247
				c-0.152,0.157-0.246,0.374-0.281,0.652c-0.023,0.208-0.035,0.446-0.035,0.717v4.33c0,0.325,0.016,0.582,0.047,0.77
				s0.082,0.339,0.152,0.452c0.102,0.157,0.232,0.273,0.393,0.35c0.16,0.076,0.373,0.122,0.639,0.138v0.125h-3.742v-0.125
				c0.227-0.012,0.409-0.044,0.548-0.097s0.261-0.134,0.366-0.244c0.125-0.125,0.209-0.284,0.252-0.476
				c0.043-0.192,0.064-0.49,0.064-0.894v-4.33c0-0.403-0.021-0.701-0.064-0.893s-0.127-0.351-0.252-0.476
				c-0.105-0.113-0.229-0.196-0.369-0.247c-0.141-0.051-0.322-0.082-0.545-0.094v-0.125H42.987z"/>
			<path d="M78.987,142.872v0.125c-0.223,0.012-0.403,0.043-0.542,0.094c-0.139,0.051-0.263,0.134-0.372,0.247
				c-0.152,0.157-0.246,0.374-0.281,0.652c-0.023,0.208-0.035,0.446-0.035,0.717v4.33c0,0.325,0.016,0.582,0.047,0.77
				s0.082,0.339,0.152,0.452c0.102,0.157,0.232,0.273,0.393,0.35c0.16,0.076,0.373,0.122,0.639,0.138v0.125h-3.742v-0.125
				c0.227-0.012,0.409-0.044,0.548-0.097s0.261-0.134,0.366-0.244c0.125-0.125,0.209-0.284,0.252-0.476
				c0.043-0.192,0.064-0.49,0.064-0.894v-4.33c0-0.403-0.021-0.701-0.064-0.893s-0.127-0.351-0.252-0.476
				c-0.105-0.113-0.229-0.196-0.369-0.247c-0.141-0.051-0.322-0.082-0.545-0.094v-0.125H78.987z"/>
			<path d="M114.987,142.872v0.125c-0.223,0.012-0.403,0.043-0.542,0.094c-0.139,0.051-0.263,0.134-0.372,0.247
				c-0.152,0.157-0.246,0.374-0.281,0.652c-0.023,0.208-0.035,0.446-0.035,0.717v4.33c0,0.325,0.016,0.582,0.047,0.77
				s0.082,0.339,0.152,0.452c0.102,0.157,0.232,0.273,0.393,0.35c0.16,0.076,0.373,0.122,0.639,0.138v0.125h-3.742v-0.125
				c0.227-0.012,0.409-0.044,0.548-0.097s0.261-0.134,0.366-0.244c0.125-0.125,0.209-0.284,0.252-0.476
				c0.043-0.192,0.064-0.49,0.064-0.894v-4.33c0-0.403-0.021-0.701-0.064-0.893s-0.127-0.351-0.252-0.476
				c-0.105-0.113-0.229-0.196-0.369-0.247c-0.141-0.051-0.322-0.082-0.545-0.094v-0.125H114.987z"/>
			<path d="M150.987,142.872v0.125c-0.223,0.012-0.403,0.043-0.542,0.094c-0.139,0.051-0.263,0.134-0.372,0.247
				c-0.152,0.157-0.246,0.374-0.281,0.652c-0.023,0.208-0.035,0.446-0.035,0.717v4.33c0,0.325,0.016,0.582,0.047,0.77
				s0.082,0.339,0.152,0.452c0.102,0.157,0.232,0.273,0.393,0.35c0.16,0.076,0.373,0.122,0.639,0.138v0.125h-3.742v-0.125
				c0.227-0.012,0.409-0.044,0.548-0.097s0.261-0.134,0.366-0.244c0.125-0.125,0.209-0.284,0.252-0.476
				c0.043-0.192,0.064-0.49,0.064-0.894v-4.33c0-0.403-0.021-0.701-0.064-0.893s-0.127-0.351-0.252-0.476
				c-0.105-0.113-0.229-0.196-0.369-0.247c-0.141-0.051-0.322-0.082-0.545-0.094v-0.125H150.987z"/>
			<path d="M151.079,142.872h3.848v0.125c-0.293,0.027-0.504,0.073-0.633,0.136c-0.121,0.059-0.219,0.15-0.292,0.274
				s-0.111,0.258-0.111,0.403c0,0.103,0.01,0.193,0.029,0.271c0.02,0.079,0.078,0.25,0.175,0.513l1.765,4.716l1.688-4.136
				c0.234-0.584,0.352-1.01,0.352-1.278c0-0.148-0.023-0.288-0.07-0.417s-0.109-0.229-0.188-0.3
				c-0.078-0.066-0.165-0.114-0.259-0.142c-0.095-0.027-0.217-0.041-0.366-0.041v-0.125h2.609v0.125
				c-0.215,0.02-0.402,0.073-0.561,0.159c-0.158,0.086-0.31,0.218-0.454,0.395c-0.098,0.125-0.201,0.297-0.308,0.515
				c-0.108,0.218-0.255,0.554-0.443,1.01l-2.406,5.796h-0.25l-2.344-5.99c-0.304-0.79-0.547-1.29-0.73-1.502
				c-0.117-0.133-0.26-0.23-0.429-0.292c-0.17-0.061-0.377-0.091-0.622-0.091V142.872z"/>
			<path d="M42.987,157.372v0.125c-0.223,0.012-0.403,0.043-0.542,0.094c-0.139,0.051-0.263,0.134-0.372,0.247
				c-0.152,0.157-0.246,0.374-0.281,0.652c-0.023,0.208-0.035,0.446-0.035,0.717v4.33c0,0.325,0.016,0.582,0.047,0.77
				s0.082,0.339,0.152,0.452c0.102,0.157,0.232,0.273,0.393,0.35c0.16,0.076,0.373,0.122,0.639,0.138v0.125h-3.742v-0.125
				c0.227-0.012,0.409-0.044,0.548-0.097s0.261-0.134,0.366-0.244c0.125-0.125,0.209-0.284,0.252-0.476
				c0.043-0.192,0.064-0.49,0.064-0.894v-4.33c0-0.403-0.021-0.701-0.064-0.893s-0.127-0.351-0.252-0.476
				c-0.105-0.113-0.229-0.196-0.369-0.247c-0.141-0.051-0.322-0.082-0.545-0.094v-0.125H42.987z"/>
			<path d="M43.079,157.372h3.848v0.125c-0.293,0.027-0.504,0.073-0.633,0.136c-0.121,0.059-0.219,0.15-0.292,0.274
				s-0.111,0.258-0.111,0.403c0,0.103,0.01,0.193,0.029,0.271c0.02,0.079,0.078,0.25,0.175,0.513l1.765,4.716l1.688-4.136
				c0.234-0.584,0.352-1.01,0.352-1.278c0-0.148-0.023-0.288-0.07-0.417s-0.109-0.229-0.188-0.3
				c-0.078-0.066-0.165-0.114-0.259-0.142c-0.095-0.027-0.217-0.041-0.366-0.041v-0.125h2.609v0.125
				c-0.215,0.02-0.402,0.073-0.561,0.159c-0.158,0.086-0.31,0.218-0.454,0.395c-0.098,0.125-0.201,0.297-0.308,0.515
				c-0.108,0.218-0.255,0.554-0.443,1.01l-2.406,5.796h-0.25l-2.344-5.99c-0.304-0.79-0.547-1.29-0.73-1.502
				c-0.117-0.133-0.26-0.23-0.429-0.292c-0.17-0.061-0.377-0.091-0.622-0.091V157.372z"/>
			<path d="M74.761,157.372h3.848v0.125c-0.293,0.027-0.504,0.073-0.633,0.136c-0.121,0.059-0.219,0.15-0.292,0.274
				s-0.111,0.258-0.111,0.403c0,0.103,0.01,0.193,0.029,0.271c0.02,0.079,0.078,0.25,0.175,0.513l1.765,4.716l1.688-4.136
				c0.234-0.584,0.352-1.01,0.352-1.278c0-0.148-0.023-0.288-0.07-0.417s-0.109-0.229-0.188-0.3
				c-0.078-0.066-0.165-0.114-0.259-0.142c-0.095-0.027-0.217-0.041-0.366-0.041v-0.125h2.609v0.125
				c-0.215,0.02-0.402,0.073-0.561,0.159c-0.158,0.086-0.31,0.218-0.454,0.395c-0.098,0.125-0.201,0.297-0.308,0.515
				c-0.108,0.218-0.255,0.554-0.443,1.01l-2.406,5.796h-0.25l-2.344-5.99c-0.304-0.79-0.547-1.29-0.73-1.502
				c-0.117-0.133-0.26-0.23-0.429-0.292c-0.17-0.061-0.377-0.091-0.622-0.091V157.372z"/>
			<path d="M88.396,157.481l-2.854,7.243l-0.117,0.299c-0.066,0.161-0.142,0.277-0.226,0.349s-0.188,0.108-0.313,0.108
				c-0.137,0-0.254-0.043-0.352-0.129s-0.146-0.189-0.146-0.311c0-0.109,0.049-0.26,0.146-0.452l0.123-0.229l3.123-5.942h-2.555
				c-0.211,0-0.373,0.011-0.486,0.032s-0.213,0.06-0.299,0.114c-0.117,0.078-0.215,0.177-0.292,0.296
				c-0.078,0.12-0.179,0.324-0.304,0.613l-0.029,0.07H83.69l0.531-2.329l0.125-0.016c0.027,0.132,0.07,0.215,0.129,0.248
				c0.059,0.034,0.186,0.051,0.381,0.051L88.396,157.481z"/>
			<path d="M110.761,157.372h3.848v0.125c-0.293,0.027-0.504,0.073-0.633,0.136c-0.121,0.059-0.219,0.15-0.292,0.274
				s-0.111,0.258-0.111,0.403c0,0.103,0.01,0.193,0.029,0.271c0.02,0.079,0.078,0.25,0.175,0.513l1.765,4.716l1.688-4.136
				c0.234-0.584,0.352-1.01,0.352-1.278c0-0.148-0.023-0.288-0.07-0.417s-0.109-0.229-0.188-0.3
				c-0.078-0.066-0.165-0.114-0.259-0.142c-0.095-0.027-0.217-0.041-0.366-0.041v-0.125h2.609v0.125
				c-0.215,0.02-0.402,0.073-0.561,0.159c-0.158,0.086-0.31,0.218-0.454,0.395c-0.098,0.125-0.201,0.297-0.308,0.515
				c-0.108,0.218-0.255,0.554-0.443,1.01l-2.406,5.796h-0.25l-2.344-5.99c-0.304-0.79-0.547-1.29-0.73-1.502
				c-0.117-0.133-0.26-0.23-0.429-0.292c-0.17-0.061-0.377-0.091-0.622-0.091V157.372z"/>
			<path d="M124.396,157.481l-2.854,7.243l-0.117,0.299c-0.066,0.161-0.142,0.277-0.226,0.349s-0.188,0.108-0.313,0.108
				c-0.137,0-0.254-0.043-0.352-0.129s-0.146-0.189-0.146-0.311c0-0.109,0.049-0.26,0.146-0.452l0.123-0.229l3.123-5.942h-2.555
				c-0.211,0-0.373,0.011-0.486,0.032s-0.213,0.06-0.299,0.114c-0.117,0.078-0.215,0.177-0.292,0.296
				c-0.078,0.12-0.179,0.324-0.304,0.613l-0.029,0.07h-0.125l0.531-2.329l0.125-0.016c0.027,0.132,0.07,0.215,0.129,0.248
				c0.059,0.034,0.186,0.051,0.381,0.051L124.396,157.481z"/>
			<path d="M150.987,157.372v0.125c-0.223,0.012-0.403,0.043-0.542,0.094c-0.139,0.051-0.263,0.134-0.372,0.247
				c-0.152,0.157-0.246,0.374-0.281,0.652c-0.023,0.208-0.035,0.446-0.035,0.717v4.33c0,0.325,0.016,0.582,0.047,0.77
				s0.082,0.339,0.152,0.452c0.102,0.157,0.232,0.273,0.393,0.35c0.16,0.076,0.373,0.122,0.639,0.138v0.125h-3.742v-0.125
				c0.227-0.012,0.409-0.044,0.548-0.097s0.261-0.134,0.366-0.244c0.125-0.125,0.209-0.284,0.252-0.476
				c0.043-0.192,0.064-0.49,0.064-0.894v-4.33c0-0.403-0.021-0.701-0.064-0.893s-0.127-0.351-0.252-0.476
				c-0.105-0.113-0.229-0.196-0.369-0.247c-0.141-0.051-0.322-0.082-0.545-0.094v-0.125H150.987z"/>
		</g>
		<g>
			<path d="M6.516,192.62c-0.372,0.192-1.152,0.384-2.136,0.384c-2.28,0-3.984-1.44-3.984-4.104c0-2.544,1.716-4.248,4.224-4.248
				c0.996,0,1.644,0.216,1.92,0.36l-0.264,0.852c-0.384-0.192-0.948-0.336-1.62-0.336c-1.896,0-3.156,1.212-3.156,3.336
				c0,1.992,1.14,3.252,3.096,3.252c0.648,0,1.296-0.132,1.716-0.336L6.516,192.62z"/>
			<path d="M7.764,184.352H8.82v3.624h0.024c0.168-0.3,0.432-0.576,0.756-0.744c0.312-0.192,0.684-0.3,1.08-0.3
				c0.78,0,2.028,0.48,2.028,2.484v3.456h-1.056v-3.336c0-0.948-0.348-1.728-1.344-1.728c-0.684,0-1.212,0.48-1.416,1.056
				c-0.06,0.144-0.072,0.3-0.072,0.504v3.504H7.764V184.352z"/>
			<path d="M16.788,193.003c-1.56,0-2.784-1.152-2.784-2.988c0-1.944,1.284-3.084,2.88-3.084c1.668,0,2.796,1.212,2.796,2.976
				c0,2.16-1.5,3.096-2.88,3.096H16.788z M16.824,192.211c1.008,0,1.764-0.948,1.764-2.268c0-0.984-0.492-2.22-1.74-2.22
				c-1.236,0-1.776,1.152-1.776,2.256c0,1.272,0.72,2.232,1.74,2.232H16.824z"/>
			<path d="M21.023,188.875c0-0.684-0.012-1.272-0.048-1.812H21.9l0.048,1.14h0.036c0.264-0.78,0.912-1.272,1.62-1.272
				c0.108,0,0.192,0.012,0.288,0.036v0.984c-0.12-0.012-0.228-0.024-0.372-0.024c-0.744,0-1.272,0.564-1.416,1.344
				c-0.024,0.156-0.036,0.324-0.036,0.504v3.096h-1.056L21.023,188.875z"/>
			<path d="M29.771,191.288c0,0.6,0.012,1.128,0.048,1.584h-0.936l-0.06-0.948H28.8c-0.264,0.468-0.888,1.08-1.92,1.08
				c-0.912,0-2.004-0.516-2.004-2.544v-3.396h1.056v3.204c0,1.104,0.348,1.86,1.296,1.86c0.708,0,1.2-0.492,1.392-0.972
				c0.06-0.144,0.096-0.336,0.096-0.54v-3.552h1.056V191.288z"/>
			<path d="M31.379,191.804c0.324,0.192,0.876,0.408,1.404,0.408c0.756,0,1.116-0.372,1.116-0.864c0-0.504-0.3-0.78-1.068-1.068
				c-1.056-0.384-1.548-0.948-1.548-1.644c0-0.936,0.768-1.704,2.004-1.704c0.588,0,1.104,0.156,1.416,0.36l-0.252,0.756
				c-0.228-0.132-0.648-0.336-1.188-0.336c-0.624,0-0.96,0.36-0.96,0.792c0,0.492,0.336,0.708,1.092,0.996
				c0.996,0.372,1.524,0.876,1.524,1.752c0,1.032-0.804,1.752-2.16,1.752c-0.636,0-1.224-0.168-1.632-0.408L31.379,191.804z"/>
			<path d="M41.184,193.003c-1.56,0-2.784-1.152-2.784-2.988c0-1.944,1.284-3.084,2.88-3.084c1.668,0,2.796,1.212,2.796,2.976
				c0,2.16-1.5,3.096-2.88,3.096H41.184z M41.219,192.211c1.008,0,1.764-0.948,1.764-2.268c0-0.984-0.492-2.22-1.74-2.22
				c-1.236,0-1.776,1.152-1.776,2.256c0,1.272,0.72,2.232,1.74,2.232H41.219z"/>
			<path d="M45.503,192.872v-5.004h-0.804v-0.804h0.804v-0.276c0-0.816,0.192-1.56,0.684-2.028c0.396-0.384,0.924-0.54,1.404-0.54
				c0.384,0,0.696,0.084,0.9,0.168l-0.132,0.816c-0.168-0.072-0.372-0.132-0.684-0.132c-0.888,0-1.128,0.792-1.128,1.68v0.312h1.404
				v0.804H46.56v5.004H45.503z"/>
			<path d="M52.223,184.567l-0.192,2.88h-0.648l-0.192-2.88H52.223z"/>
			<path d="M54.479,184.567l-0.192,2.88h-0.648l-0.192-2.88H54.479z"/>
			<path d="M56.003,184.903c0.456-0.108,1.188-0.18,1.908-0.18c1.044,0,1.716,0.18,2.208,0.588c0.42,0.312,0.684,0.792,0.684,1.428
				c0,0.792-0.528,1.476-1.368,1.776v0.036c0.768,0.18,1.668,0.816,1.668,2.016c0,0.696-0.276,1.224-0.696,1.62
				c-0.552,0.516-1.464,0.756-2.784,0.756c-0.72,0-1.272-0.048-1.62-0.096V184.903z M57.047,188.215h0.948
				c1.092,0,1.74-0.588,1.74-1.368c0-0.936-0.708-1.32-1.764-1.32c-0.48,0-0.756,0.036-0.924,0.072V188.215z M57.047,192.08
				c0.216,0.036,0.504,0.048,0.876,0.048c1.08,0,2.076-0.396,2.076-1.572c0-1.092-0.948-1.56-2.088-1.56h-0.864V192.08z"/>
			<path d="M62.903,187.063l1.26,3.432c0.144,0.384,0.288,0.84,0.384,1.188h0.024c0.108-0.348,0.228-0.792,0.372-1.212l1.152-3.408
				h1.116l-1.584,4.14c-0.756,1.992-1.272,3.012-1.992,3.648c-0.528,0.444-1.032,0.624-1.296,0.672l-0.264-0.888
				c0.264-0.072,0.612-0.24,0.924-0.516c0.288-0.228,0.636-0.636,0.888-1.176c0.048-0.108,0.084-0.18,0.084-0.252
				c0-0.06-0.024-0.144-0.084-0.264l-2.136-5.364H62.903z"/>
			<path d="M68.651,190.147c0.024,1.428,0.924,2.016,1.98,2.016c0.756,0,1.224-0.132,1.608-0.288l0.192,0.744
				c-0.372,0.168-1.02,0.372-1.944,0.372c-1.776,0-2.856-1.188-2.856-2.928c0-1.764,1.044-3.144,2.736-3.144
				c1.896,0,2.388,1.668,2.388,2.736c0,0.216-0.012,0.384-0.036,0.504L68.651,190.147z M71.735,189.392
				c0.012-0.66-0.276-1.716-1.452-1.716c-1.08,0-1.536,0.984-1.62,1.716H71.735z"/>
			<path d="M76.643,184.903c0.456-0.108,1.188-0.18,1.908-0.18c1.044,0,1.716,0.18,2.208,0.588c0.42,0.312,0.684,0.792,0.684,1.428
				c0,0.792-0.528,1.476-1.368,1.776v0.036c0.768,0.18,1.668,0.816,1.668,2.016c0,0.696-0.276,1.224-0.696,1.62
				c-0.552,0.516-1.464,0.756-2.784,0.756c-0.72,0-1.272-0.048-1.62-0.096V184.903z M77.687,188.215h0.948
				c1.092,0,1.74-0.588,1.74-1.368c0-0.936-0.708-1.32-1.764-1.32c-0.48,0-0.756,0.036-0.924,0.072V188.215z M77.687,192.08
				c0.216,0.036,0.504,0.048,0.876,0.048c1.08,0,2.076-0.396,2.076-1.572c0-1.092-0.948-1.56-2.088-1.56h-0.864V192.08z"/>
			<path d="M83.542,187.063l1.26,3.432c0.144,0.384,0.288,0.84,0.384,1.188h0.024c0.108-0.348,0.228-0.792,0.372-1.212l1.152-3.408
				h1.116l-1.584,4.14c-0.756,1.992-1.272,3.012-1.992,3.648c-0.528,0.444-1.032,0.624-1.296,0.672l-0.264-0.888
				c0.264-0.072,0.612-0.24,0.924-0.516c0.288-0.228,0.636-0.636,0.888-1.176c0.048-0.108,0.084-0.18,0.084-0.252
				c0-0.06-0.024-0.144-0.084-0.264l-2.136-5.364H83.542z"/>
			<path d="M89.291,190.147c0.024,1.428,0.924,2.016,1.98,2.016c0.756,0,1.224-0.132,1.608-0.288l0.192,0.744
				c-0.372,0.168-1.02,0.372-1.944,0.372c-1.776,0-2.856-1.188-2.856-2.928c0-1.764,1.044-3.144,2.736-3.144
				c1.896,0,2.388,1.668,2.388,2.736c0,0.216-0.012,0.384-0.036,0.504L89.291,190.147z M92.375,189.392
				c0.012-0.66-0.276-1.716-1.452-1.716c-1.08,0-1.536,0.984-1.62,1.716H92.375z"/>
			<path d="M93.791,194.359c0.264-0.72,0.588-2.004,0.72-2.88l1.176-0.12c-0.288,1.02-0.816,2.352-1.152,2.916L93.791,194.359z"/>
			<path d="M98.698,184.784h1.056v7.212h3.456v0.876h-4.512V184.784z"/>
			<path d="M106.534,193.003c-1.56,0-2.784-1.152-2.784-2.988c0-1.944,1.284-3.084,2.88-3.084c1.668,0,2.796,1.212,2.796,2.976
				c0,2.16-1.5,3.096-2.88,3.096H106.534z M106.57,192.211c1.008,0,1.764-0.948,1.764-2.268c0-0.984-0.492-2.22-1.74-2.22
				c-1.236,0-1.776,1.152-1.776,2.256c0,1.272,0.72,2.232,1.74,2.232H106.57z"/>
			<path d="M111.058,187.063l1.14,3.252c0.192,0.54,0.348,1.02,0.468,1.5h0.036c0.132-0.48,0.3-0.96,0.492-1.5l1.128-3.252h1.104
				l-2.28,5.808h-1.008l-2.208-5.808H111.058z"/>
			<path d="M116.89,190.147c0.024,1.428,0.924,2.016,1.98,2.016c0.756,0,1.224-0.132,1.608-0.288l0.192,0.744
				c-0.372,0.168-1.02,0.372-1.944,0.372c-1.776,0-2.856-1.188-2.856-2.928c0-1.764,1.044-3.144,2.736-3.144
				c1.896,0,2.388,1.668,2.388,2.736c0,0.216-0.012,0.384-0.036,0.504L116.89,190.147z M119.974,189.392
				c0.012-0.66-0.276-1.716-1.452-1.716c-1.08,0-1.536,0.984-1.62,1.716H119.974z"/>
			<path d="M123.07,184.567l-0.192,2.88h-0.648l-0.192-2.88H123.07z"/>
			<path d="M125.326,184.567l-0.192,2.88h-0.648l-0.192-2.88H125.326z"/>
		</g>
		<g>
			<path d="M42.987,203.872v0.125c-0.223,0.012-0.403,0.043-0.542,0.094c-0.139,0.051-0.263,0.134-0.372,0.247
				c-0.152,0.157-0.246,0.374-0.281,0.652c-0.023,0.208-0.035,0.446-0.035,0.717v4.33c0,0.325,0.016,0.582,0.047,0.77
				s0.082,0.339,0.152,0.452c0.102,0.157,0.232,0.273,0.393,0.35c0.16,0.076,0.373,0.122,0.639,0.138v0.125h-3.742v-0.125
				c0.227-0.012,0.409-0.044,0.548-0.097s0.261-0.134,0.366-0.244c0.125-0.125,0.209-0.284,0.252-0.476
				c0.043-0.192,0.064-0.49,0.064-0.894v-4.33c0-0.403-0.021-0.701-0.064-0.893s-0.127-0.351-0.252-0.476
				c-0.105-0.113-0.229-0.196-0.369-0.247c-0.141-0.051-0.322-0.082-0.545-0.094v-0.125H42.987z"/>
			<path d="M43.079,203.872h3.848v0.125c-0.293,0.027-0.504,0.073-0.633,0.136c-0.121,0.059-0.219,0.15-0.292,0.274
				s-0.111,0.258-0.111,0.403c0,0.103,0.01,0.193,0.029,0.271c0.02,0.079,0.078,0.25,0.175,0.513l1.765,4.716l1.688-4.136
				c0.234-0.584,0.352-1.01,0.352-1.278c0-0.148-0.023-0.288-0.07-0.417s-0.109-0.229-0.188-0.3
				c-0.078-0.066-0.165-0.114-0.259-0.142c-0.095-0.027-0.217-0.041-0.366-0.041v-0.125h2.609v0.125
				c-0.215,0.02-0.402,0.073-0.561,0.159c-0.158,0.086-0.31,0.218-0.454,0.395c-0.098,0.125-0.201,0.297-0.308,0.515
				c-0.108,0.218-0.255,0.554-0.443,1.01l-2.406,5.796h-0.25l-2.344-5.99c-0.304-0.79-0.547-1.29-0.73-1.502
				c-0.117-0.133-0.26-0.23-0.429-0.292c-0.17-0.061-0.377-0.091-0.622-0.091V203.872z"/>
			<path d="M78.987,203.872v0.125c-0.223,0.012-0.403,0.043-0.542,0.094c-0.139,0.051-0.263,0.134-0.372,0.247
				c-0.152,0.157-0.246,0.374-0.281,0.652c-0.023,0.208-0.035,0.446-0.035,0.717v4.33c0,0.325,0.016,0.582,0.047,0.77
				s0.082,0.339,0.152,0.452c0.102,0.157,0.232,0.273,0.393,0.35c0.16,0.076,0.373,0.122,0.639,0.138v0.125h-3.742v-0.125
				c0.227-0.012,0.409-0.044,0.548-0.097s0.261-0.134,0.366-0.244c0.125-0.125,0.209-0.284,0.252-0.476
				c0.043-0.192,0.064-0.49,0.064-0.894v-4.33c0-0.403-0.021-0.701-0.064-0.893s-0.127-0.351-0.252-0.476
				c-0.105-0.113-0.229-0.196-0.369-0.247c-0.141-0.051-0.322-0.082-0.545-0.094v-0.125H78.987z"/>
			<path d="M114.987,203.872v0.125c-0.223,0.012-0.403,0.043-0.542,0.094c-0.139,0.051-0.263,0.134-0.372,0.247
				c-0.152,0.157-0.246,0.374-0.281,0.652c-0.023,0.208-0.035,0.446-0.035,0.717v4.33c0,0.325,0.016,0.582,0.047,0.77
				s0.082,0.339,0.152,0.452c0.102,0.157,0.232,0.273,0.393,0.35c0.16,0.076,0.373,0.122,0.639,0.138v0.125h-3.742v-0.125
				c0.227-0.012,0.409-0.044,0.548-0.097s0.261-0.134,0.366-0.244c0.125-0.125,0.209-0.284,0.252-0.476
				c0.043-0.192,0.064-0.49,0.064-0.894v-4.33c0-0.403-0.021-0.701-0.064-0.893s-0.127-0.351-0.252-0.476
				c-0.105-0.113-0.229-0.196-0.369-0.247c-0.141-0.051-0.322-0.082-0.545-0.094v-0.125H114.987z"/>
			<path d="M115.079,203.872h3.848v0.125c-0.293,0.027-0.504,0.073-0.633,0.136c-0.121,0.059-0.219,0.15-0.292,0.274
				s-0.111,0.258-0.111,0.403c0,0.103,0.01,0.193,0.029,0.271c0.02,0.079,0.078,0.25,0.175,0.513l1.765,4.716l1.688-4.136
				c0.234-0.584,0.352-1.01,0.352-1.278c0-0.148-0.023-0.288-0.07-0.417s-0.109-0.229-0.188-0.3
				c-0.078-0.066-0.165-0.114-0.259-0.142c-0.095-0.027-0.217-0.041-0.366-0.041v-0.125h2.609v0.125
				c-0.215,0.02-0.402,0.073-0.561,0.159c-0.158,0.086-0.31,0.218-0.454,0.395c-0.098,0.125-0.201,0.297-0.308,0.515
				c-0.108,0.218-0.255,0.554-0.443,1.01l-2.406,5.796h-0.25l-2.344-5.99c-0.304-0.79-0.547-1.29-0.73-1.502
				c-0.117-0.133-0.26-0.23-0.429-0.292c-0.17-0.061-0.377-0.091-0.622-0.091V203.872z"/>
			<path d="M150.987,203.872v0.125c-0.223,0.012-0.403,0.043-0.542,0.094c-0.139,0.051-0.263,0.134-0.372,0.247
				c-0.152,0.157-0.246,0.374-0.281,0.652c-0.023,0.208-0.035,0.446-0.035,0.717v4.33c0,0.325,0.016,0.582,0.047,0.77
				s0.082,0.339,0.152,0.452c0.102,0.157,0.232,0.273,0.393,0.35c0.16,0.076,0.373,0.122,0.639,0.138v0.125h-3.742v-0.125
				c0.227-0.012,0.409-0.044,0.548-0.097s0.261-0.134,0.366-0.244c0.125-0.125,0.209-0.284,0.252-0.476
				c0.043-0.192,0.064-0.49,0.064-0.894v-4.33c0-0.403-0.021-0.701-0.064-0.893s-0.127-0.351-0.252-0.476
				c-0.105-0.113-0.229-0.196-0.369-0.247c-0.141-0.051-0.322-0.082-0.545-0.094v-0.125H150.987z"/>
			<path d="M42.987,218.372v0.125c-0.223,0.012-0.403,0.043-0.542,0.094c-0.139,0.051-0.263,0.134-0.372,0.247
				c-0.152,0.157-0.246,0.374-0.281,0.652c-0.023,0.208-0.035,0.446-0.035,0.717v4.33c0,0.325,0.016,0.582,0.047,0.77
				s0.082,0.339,0.152,0.452c0.102,0.157,0.232,0.273,0.393,0.35c0.16,0.076,0.373,0.122,0.639,0.138v0.125h-3.742v-0.125
				c0.227-0.012,0.409-0.044,0.548-0.097s0.261-0.134,0.366-0.244c0.125-0.125,0.209-0.284,0.252-0.476
				c0.043-0.192,0.064-0.49,0.064-0.894v-4.33c0-0.403-0.021-0.701-0.064-0.893s-0.127-0.351-0.252-0.476
				c-0.105-0.113-0.229-0.196-0.369-0.247c-0.141-0.051-0.322-0.082-0.545-0.094v-0.125H42.987z"/>
			<path d="M43.079,218.372h3.848v0.125c-0.293,0.027-0.504,0.073-0.633,0.136c-0.121,0.059-0.219,0.15-0.292,0.274
				s-0.111,0.258-0.111,0.403c0,0.103,0.01,0.193,0.029,0.271c0.02,0.079,0.078,0.25,0.175,0.513l1.765,4.716l1.688-4.136
				c0.234-0.584,0.352-1.01,0.352-1.278c0-0.148-0.023-0.288-0.07-0.417s-0.109-0.229-0.188-0.3
				c-0.078-0.066-0.165-0.114-0.259-0.142c-0.095-0.027-0.217-0.041-0.366-0.041v-0.125h2.609v0.125
				c-0.215,0.02-0.402,0.073-0.561,0.159c-0.158,0.086-0.31,0.218-0.454,0.395c-0.098,0.125-0.201,0.297-0.308,0.515
				c-0.108,0.218-0.255,0.554-0.443,1.01l-2.406,5.796h-0.25l-2.344-5.99c-0.304-0.79-0.547-1.29-0.73-1.502
				c-0.117-0.133-0.26-0.23-0.429-0.292c-0.17-0.061-0.377-0.091-0.622-0.091V218.372z"/>
			<path d="M78.987,218.372v0.125c-0.223,0.012-0.403,0.043-0.542,0.094c-0.139,0.051-0.263,0.134-0.372,0.247
				c-0.152,0.157-0.246,0.374-0.281,0.652c-0.023,0.208-0.035,0.446-0.035,0.717v4.33c0,0.325,0.016,0.582,0.047,0.77
				s0.082,0.339,0.152,0.452c0.102,0.157,0.232,0.273,0.393,0.35c0.16,0.076,0.373,0.122,0.639,0.138v0.125h-3.742v-0.125
				c0.227-0.012,0.409-0.044,0.548-0.097s0.261-0.134,0.366-0.244c0.125-0.125,0.209-0.284,0.252-0.476
				c0.043-0.192,0.064-0.49,0.064-0.894v-4.33c0-0.403-0.021-0.701-0.064-0.893s-0.127-0.351-0.252-0.476
				c-0.105-0.113-0.229-0.196-0.369-0.247c-0.141-0.051-0.322-0.082-0.545-0.094v-0.125H78.987z"/>
			<path d="M110.761,218.372h3.848v0.125c-0.293,0.027-0.504,0.073-0.633,0.136c-0.121,0.059-0.219,0.15-0.292,0.274
				s-0.111,0.258-0.111,0.403c0,0.103,0.01,0.193,0.029,0.271c0.02,0.079,0.078,0.25,0.175,0.513l1.765,4.716l1.688-4.136
				c0.234-0.584,0.352-1.01,0.352-1.278c0-0.148-0.023-0.288-0.07-0.417s-0.109-0.229-0.188-0.3
				c-0.078-0.066-0.165-0.114-0.259-0.142c-0.095-0.027-0.217-0.041-0.366-0.041v-0.125h2.609v0.125
				c-0.215,0.02-0.402,0.073-0.561,0.159c-0.158,0.086-0.31,0.218-0.454,0.395c-0.098,0.125-0.201,0.297-0.308,0.515
				c-0.108,0.218-0.255,0.554-0.443,1.01l-2.406,5.796h-0.25l-2.344-5.99c-0.304-0.79-0.547-1.29-0.73-1.502
				c-0.117-0.133-0.26-0.23-0.429-0.292c-0.17-0.061-0.377-0.091-0.622-0.091V218.372z"/>
			<path d="M124.396,218.481l-2.854,7.243l-0.117,0.299c-0.066,0.161-0.142,0.277-0.226,0.349s-0.188,0.108-0.313,0.108
				c-0.137,0-0.254-0.043-0.352-0.129s-0.146-0.189-0.146-0.311c0-0.109,0.049-0.26,0.146-0.452l0.123-0.229l3.123-5.942h-2.555
				c-0.211,0-0.373,0.011-0.486,0.032s-0.213,0.06-0.299,0.114c-0.117,0.078-0.215,0.177-0.292,0.296
				c-0.078,0.12-0.179,0.324-0.304,0.613l-0.029,0.07h-0.125l0.531-2.329l0.125-0.016c0.027,0.132,0.07,0.215,0.129,0.248
				c0.059,0.034,0.186,0.051,0.381,0.051L124.396,218.481z"/>
			<path d="M150.987,218.372v0.125c-0.223,0.012-0.403,0.043-0.542,0.094c-0.139,0.051-0.263,0.134-0.372,0.247
				c-0.152,0.157-0.246,0.374-0.281,0.652c-0.023,0.208-0.035,0.446-0.035,0.717v4.33c0,0.325,0.016,0.582,0.047,0.77
				s0.082,0.339,0.152,0.452c0.102,0.157,0.232,0.273,0.393,0.35c0.16,0.076,0.373,0.122,0.639,0.138v0.125h-3.742v-0.125
				c0.227-0.012,0.409-0.044,0.548-0.097s0.261-0.134,0.366-0.244c0.125-0.125,0.209-0.284,0.252-0.476
				c0.043-0.192,0.064-0.49,0.064-0.894v-4.33c0-0.403-0.021-0.701-0.064-0.893s-0.127-0.351-0.252-0.476
				c-0.105-0.113-0.229-0.196-0.369-0.247c-0.141-0.051-0.322-0.082-0.545-0.094v-0.125H150.987z"/>
		</g>
	</g>
</svg>
