<?xml version="1.0" encoding="utf-8"?>
<!-- Generator: Adobe Illustrator 10.0, SVG Export Plug-In . SVG Version: 3.0.0 Build 76)  -->
<!DOCTYPE svg PUBLIC "-//W3C//DTD SVG 1.0//EN"    "http://www.w3.org/TR/2001/REC-SVG-20010904/DTD/svg10.dtd" [
	<!ENTITY ns_flows "http://ns.adobe.com/Flows/1.0/">
	<!ENTITY ns_extend "http://ns.adobe.com/Extensibility/1.0/">
	<!ENTITY ns_ai "http://ns.adobe.com/AdobeIllustrator/10.0/">
	<!ENTITY ns_svg "http://www.w3.org/2000/svg">
	<!ENTITY ns_xlink "http://www.w3.org/1999/xlink">
]>
<svg  xmlns:x="&ns_extend;" xmlns:i="&ns_ai;" xmlns:graph="&ns_graphs;"
	 xmlns="&ns_svg;" xmlns:xlink="&ns_xlink;" xmlns:a="http://ns.adobe.com/AdobeSVGViewerExtensions/3.0/" width="172" height="157"
	 viewBox="-0.432 0.003 172 157" overflow="visible" enable-background="new -0.432 0.003 172 157" xml:space="preserve">
	<g id="Layer_1_2_">
		<g>
			<path d="M6.12,8.4C5.748,8.592,4.968,8.784,3.984,8.784C1.704,8.784,0,7.344,0,4.68c0-2.544,1.716-4.248,4.224-4.248
				c0.996,0,1.644,0.216,1.92,0.36L5.88,1.644C5.496,1.452,4.932,1.308,4.26,1.308c-1.896,0-3.156,1.212-3.156,3.336
				c0,1.992,1.14,3.252,3.096,3.252c0.648,0,1.296-0.132,1.716-0.336L6.12,8.4z"/>
			<path d="M7.368,0.132h1.056v3.624h0.024c0.168-0.3,0.432-0.576,0.756-0.744c0.312-0.192,0.684-0.3,1.08-0.3
				c0.78,0,2.028,0.48,2.028,2.484v3.456h-1.056V5.316c0-0.948-0.348-1.728-1.344-1.728c-0.684,0-1.212,0.48-1.416,1.056
				c-0.06,0.144-0.072,0.3-0.072,0.504v3.504H7.368V0.132z"/>
			<path d="M16.392,8.784c-1.56,0-2.784-1.152-2.784-2.988c0-1.944,1.284-3.084,2.88-3.084c1.668,0,2.796,1.212,2.796,2.976
				c0,2.16-1.5,3.096-2.88,3.096H16.392z M16.428,7.992c1.008,0,1.764-0.948,1.764-2.268c0-0.984-0.492-2.22-1.74-2.22
				c-1.236,0-1.776,1.152-1.776,2.256c0,1.272,0.72,2.232,1.74,2.232H16.428z"/>
			<path d="M20.627,4.656c0-0.684-0.012-1.272-0.048-1.812h0.924l0.048,1.14h0.036c0.264-0.78,0.912-1.272,1.62-1.272
				c0.108,0,0.192,0.012,0.288,0.036v0.984c-0.12-0.012-0.228-0.024-0.372-0.024c-0.744,0-1.272,0.564-1.416,1.344
				c-0.024,0.156-0.036,0.324-0.036,0.504v3.096h-1.056L20.627,4.656z"/>
			<path d="M29.375,7.068c0,0.6,0.012,1.128,0.048,1.584h-0.936l-0.06-0.948h-0.024c-0.264,0.468-0.888,1.08-1.92,1.08
				c-0.912,0-2.004-0.516-2.004-2.544V2.844h1.056v3.204c0,1.104,0.348,1.86,1.296,1.86c0.708,0,1.2-0.492,1.392-0.972
				c0.06-0.144,0.096-0.336,0.096-0.54V2.844h1.056V7.068z"/>
			<path d="M30.983,7.584c0.324,0.192,0.876,0.408,1.404,0.408c0.756,0,1.116-0.372,1.116-0.864c0-0.504-0.3-0.78-1.068-1.068
				c-1.056-0.384-1.548-0.948-1.548-1.644c0-0.936,0.768-1.704,2.004-1.704c0.588,0,1.104,0.156,1.416,0.36l-0.252,0.756
				c-0.228-0.132-0.648-0.336-1.188-0.336c-0.624,0-0.96,0.36-0.96,0.792c0,0.492,0.336,0.708,1.092,0.996
				c0.996,0.372,1.524,0.876,1.524,1.752c0,1.032-0.804,1.752-2.16,1.752c-0.636,0-1.224-0.168-1.632-0.408L30.983,7.584z"/>
			<path d="M40.788,8.784c-1.56,0-2.784-1.152-2.784-2.988c0-1.944,1.284-3.084,2.88-3.084c1.668,0,2.796,1.212,2.796,2.976
				c0,2.16-1.5,3.096-2.88,3.096H40.788z M40.823,7.992c1.008,0,1.764-0.948,1.764-2.268c0-0.984-0.492-2.22-1.74-2.22
				c-1.236,0-1.776,1.152-1.776,2.256c0,1.272,0.72,2.232,1.74,2.232H40.823z"/>
			<path d="M45.107,8.652V3.648h-0.804V2.844h0.804V2.568c0-0.816,0.192-1.56,0.684-2.028C46.188,0.156,46.715,0,47.195,0
				c0.384,0,0.696,0.084,0.9,0.168l-0.132,0.816c-0.168-0.072-0.372-0.132-0.684-0.132c-0.888,0-1.128,0.792-1.128,1.68v0.312h1.404
				v0.804h-1.392v5.004H45.107z"/>
			<path d="M54.371,0.348l-0.192,2.88h-0.648l-0.192-2.88H54.371z"/>
			<path d="M56.627,0.348l-0.192,2.88h-0.648l-0.192-2.88H56.627z"/>
			<path d="M58.139,0.564h1.056v7.212h3.456v0.876h-4.512V0.564z"/>
			<path d="M65.975,8.784c-1.56,0-2.784-1.152-2.784-2.988c0-1.944,1.284-3.084,2.88-3.084c1.668,0,2.796,1.212,2.796,2.976
				c0,2.16-1.5,3.096-2.88,3.096H65.975z M66.011,7.992c1.008,0,1.764-0.948,1.764-2.268c0-0.984-0.492-2.22-1.74-2.22
				c-1.236,0-1.776,1.152-1.776,2.256c0,1.272,0.72,2.232,1.74,2.232H66.011z"/>
			<path d="M70.499,2.844l1.14,3.252c0.192,0.54,0.348,1.02,0.468,1.5h0.036c0.132-0.48,0.3-0.96,0.492-1.5l1.128-3.252h1.104
				l-2.28,5.808h-1.008l-2.208-5.808H70.499z"/>
			<path d="M76.331,5.928c0.024,1.428,0.924,2.016,1.98,2.016c0.756,0,1.224-0.132,1.608-0.288L80.111,8.4
				c-0.372,0.168-1.02,0.372-1.944,0.372c-1.776,0-2.856-1.188-2.856-2.928c0-1.764,1.044-3.144,2.736-3.144
				c1.896,0,2.388,1.668,2.388,2.736c0,0.216-0.012,0.384-0.036,0.504L76.331,5.928z M79.415,5.172
				c0.012-0.66-0.276-1.716-1.452-1.716c-1.08,0-1.536,0.984-1.62,1.716H79.415z"/>
			<path d="M91.139,5.1c-0.06-1.128-0.132-2.496-0.132-3.492h-0.024c-0.288,0.936-0.612,1.956-1.02,3.072l-1.428,3.924h-0.792
				l-1.32-3.852c-0.384-1.152-0.696-2.184-0.924-3.144h-0.024c-0.024,1.008-0.084,2.352-0.156,3.576l-0.216,3.468h-0.996
				l0.564-8.088h1.332l1.38,3.912c0.336,0.996,0.6,1.884,0.816,2.724h0.024c0.216-0.816,0.504-1.704,0.864-2.724l1.44-3.912h1.332
				l0.504,8.088h-1.032L91.139,5.1z"/>
			<path d="M94.606,5.928c0.024,1.428,0.924,2.016,1.98,2.016c0.756,0,1.224-0.132,1.608-0.288L98.386,8.4
				c-0.372,0.168-1.02,0.372-1.944,0.372c-1.776,0-2.856-1.188-2.856-2.928c0-1.764,1.044-3.144,2.736-3.144
				c1.896,0,2.388,1.668,2.388,2.736c0,0.216-0.012,0.384-0.036,0.504L94.606,5.928z M97.69,5.172
				c0.012-0.66-0.276-1.716-1.452-1.716c-1.08,0-1.536,0.984-1.62,1.716H97.69z"/>
			<path d="M103.643,1.452h-2.46V0.564h5.988v0.888h-2.472v7.2h-1.056V1.452z"/>
			<path d="M107.866,5.928c0.024,1.428,0.924,2.016,1.98,2.016c0.756,0,1.224-0.132,1.608-0.288l0.192,0.744
				c-0.372,0.168-1.02,0.372-1.944,0.372c-1.776,0-2.856-1.188-2.856-2.928c0-1.764,1.044-3.144,2.736-3.144
				c1.896,0,2.388,1.668,2.388,2.736c0,0.216-0.012,0.384-0.036,0.504L107.866,5.928z M110.95,5.172
				c0.012-0.66-0.276-1.716-1.452-1.716c-1.08,0-1.536,0.984-1.62,1.716H110.95z"/>
			<path d="M113.278,4.416c0-0.612-0.012-1.092-0.048-1.572h0.936l0.06,0.948h0.024c0.288-0.54,0.96-1.08,1.92-1.08
				c0.804,0,2.052,0.48,2.052,2.472v3.468h-1.056V5.304c0-0.936-0.348-1.728-1.344-1.728c-0.684,0-1.224,0.492-1.416,1.08
				c-0.048,0.132-0.072,0.324-0.072,0.492v3.504h-1.056V4.416z"/>
			<path d="M124.954,0.132v7.02c0,0.516,0.012,1.104,0.048,1.5h-0.948l-0.048-1.008h-0.024c-0.324,0.648-1.02,1.14-1.968,1.14
				c-1.404,0-2.496-1.188-2.496-2.952c-0.012-1.944,1.2-3.12,2.604-3.12c0.9,0,1.5,0.42,1.752,0.876h0.024V0.132H124.954z
				 M123.898,5.208c0-0.144-0.012-0.312-0.048-0.456c-0.156-0.66-0.732-1.212-1.524-1.212c-1.092,0-1.74,0.96-1.74,2.232
				c0,1.188,0.588,2.16,1.716,2.16c0.708,0,1.356-0.48,1.548-1.26c0.036-0.144,0.048-0.288,0.048-0.456V5.208z"/>
			<path d="M127.306,5.928c0.024,1.428,0.924,2.016,1.98,2.016c0.756,0,1.224-0.132,1.608-0.288l0.192,0.744
				c-0.372,0.168-1.02,0.372-1.944,0.372c-1.776,0-2.856-1.188-2.856-2.928c0-1.764,1.044-3.144,2.736-3.144
				c1.896,0,2.388,1.668,2.388,2.736c0,0.216-0.012,0.384-0.036,0.504L127.306,5.928z M130.39,5.172
				c0.012-0.66-0.276-1.716-1.452-1.716c-1.08,0-1.536,0.984-1.62,1.716H130.39z"/>
			<path d="M132.73,4.656c0-0.684-0.012-1.272-0.048-1.812h0.924l0.048,1.14h0.036c0.264-0.78,0.912-1.272,1.62-1.272
				c0.108,0,0.192,0.012,0.288,0.036v0.984c-0.12-0.012-0.228-0.024-0.372-0.024c-0.744,0-1.272,0.564-1.416,1.344
				c-0.024,0.156-0.036,0.324-0.036,0.504v3.096h-1.056L132.73,4.656z"/>
			<path d="M137.41,0.348l-0.192,2.88h-0.648l-0.192-2.88H137.41z"/>
			<path d="M139.666,0.348l-0.192,2.88h-0.648l-0.192-2.88H139.666z"/>
		</g>
		<g>
			<path d="M38.727,27.679v0.125c-0.223,0.012-0.403,0.043-0.542,0.094c-0.139,0.051-0.263,0.134-0.372,0.247
				c-0.152,0.157-0.246,0.374-0.281,0.652c-0.023,0.208-0.035,0.446-0.035,0.717v4.33c0,0.325,0.016,0.582,0.047,0.77
				s0.082,0.339,0.152,0.452c0.102,0.157,0.232,0.273,0.393,0.35c0.16,0.076,0.373,0.122,0.639,0.138v0.125h-3.742v-0.125
				c0.227-0.012,0.409-0.044,0.548-0.097s0.261-0.134,0.366-0.244c0.125-0.125,0.209-0.284,0.252-0.476
				c0.043-0.192,0.064-0.49,0.064-0.894v-4.33c0-0.403-0.021-0.701-0.064-0.893s-0.127-0.351-0.252-0.476
				c-0.105-0.113-0.229-0.196-0.369-0.247c-0.141-0.051-0.322-0.082-0.545-0.094v-0.125H38.727z"/>
			<path d="M74.727,27.679v0.125c-0.223,0.012-0.403,0.043-0.542,0.094c-0.139,0.051-0.263,0.134-0.372,0.247
				c-0.152,0.157-0.246,0.374-0.281,0.652c-0.023,0.208-0.035,0.446-0.035,0.717v4.33c0,0.325,0.016,0.582,0.047,0.77
				s0.082,0.339,0.152,0.452c0.102,0.157,0.232,0.273,0.393,0.35c0.16,0.076,0.373,0.122,0.639,0.138v0.125h-3.742v-0.125
				c0.227-0.012,0.409-0.044,0.548-0.097s0.261-0.134,0.366-0.244c0.125-0.125,0.209-0.284,0.252-0.476
				c0.043-0.192,0.064-0.49,0.064-0.894v-4.33c0-0.403-0.021-0.701-0.064-0.893s-0.127-0.351-0.252-0.476
				c-0.105-0.113-0.229-0.196-0.369-0.247c-0.141-0.051-0.322-0.082-0.545-0.094v-0.125H74.727z"/>
			<path d="M79.045,27.679v0.125c-0.223,0.012-0.403,0.043-0.542,0.094c-0.139,0.051-0.263,0.134-0.372,0.247
				c-0.152,0.157-0.246,0.374-0.281,0.652c-0.023,0.208-0.035,0.446-0.035,0.717v4.33c0,0.325,0.016,0.582,0.047,0.77
				s0.082,0.339,0.152,0.452c0.102,0.157,0.232,0.273,0.393,0.35c0.16,0.076,0.373,0.122,0.639,0.138v0.125h-3.742v-0.125
				c0.227-0.012,0.409-0.044,0.548-0.097s0.261-0.134,0.366-0.244c0.125-0.125,0.209-0.284,0.252-0.476
				c0.043-0.192,0.064-0.49,0.064-0.894v-4.33c0-0.403-0.021-0.701-0.064-0.893s-0.127-0.351-0.252-0.476
				c-0.105-0.113-0.229-0.196-0.369-0.247c-0.141-0.051-0.322-0.082-0.545-0.094v-0.125H79.045z"/>
			<path d="M83.363,27.679v0.125c-0.223,0.012-0.403,0.043-0.542,0.094c-0.139,0.051-0.263,0.134-0.372,0.247
				c-0.152,0.157-0.246,0.374-0.281,0.652c-0.023,0.208-0.035,0.446-0.035,0.717v4.33c0,0.325,0.016,0.582,0.047,0.77
				s0.082,0.339,0.152,0.452c0.102,0.157,0.232,0.273,0.393,0.35c0.16,0.076,0.373,0.122,0.639,0.138v0.125h-3.742v-0.125
				c0.227-0.012,0.409-0.044,0.548-0.097s0.261-0.134,0.366-0.244c0.125-0.125,0.209-0.284,0.252-0.476
				c0.043-0.192,0.064-0.49,0.064-0.894v-4.33c0-0.403-0.021-0.701-0.064-0.893s-0.127-0.351-0.252-0.476
				c-0.105-0.113-0.229-0.196-0.369-0.247c-0.141-0.051-0.322-0.082-0.545-0.094v-0.125H83.363z"/>
			<path d="M88.957,27.789l-2.854,7.243l-0.117,0.299c-0.066,0.161-0.142,0.277-0.226,0.349s-0.188,0.108-0.313,0.108
				c-0.137,0-0.254-0.043-0.352-0.129s-0.146-0.189-0.146-0.311c0-0.109,0.049-0.26,0.146-0.452l0.123-0.229l3.123-5.942h-2.555
				c-0.211,0-0.373,0.011-0.486,0.032s-0.213,0.06-0.299,0.114c-0.117,0.078-0.214,0.177-0.292,0.296
				c-0.078,0.12-0.179,0.324-0.303,0.613l-0.029,0.07h-0.125l0.531-2.329l0.125-0.016c0.027,0.132,0.07,0.215,0.129,0.248
				c0.059,0.034,0.186,0.051,0.381,0.051L88.957,27.789z"/>
			<path d="M106.609,30.695h2.297v0.125c-0.174,0.035-0.293,0.074-0.357,0.117c-0.127,0.078-0.19,0.203-0.19,0.375
				c0,0.105,0.019,0.229,0.058,0.37c0.038,0.141,0.109,0.346,0.214,0.615l0.938,2.409l0.955-2.509c0.14-0.371,0.21-0.647,0.21-0.827
				c0-0.195-0.061-0.338-0.183-0.428c-0.063-0.047-0.179-0.088-0.348-0.123v-0.125h1.625v0.125c-0.22,0.055-0.397,0.152-0.531,0.293
				c-0.168,0.176-0.361,0.545-0.58,1.108l-1.353,3.458h-0.316l-1.47-3.634c-0.229-0.559-0.392-0.897-0.49-1.014
				c-0.055-0.063-0.117-0.108-0.183-0.138c-0.067-0.029-0.166-0.054-0.295-0.073V30.695z"/>
			<path d="M111.883,30.835l1.688-0.219v3.369l0.006,0.443c0,0.264,0.016,0.458,0.047,0.58s0.092,0.225,0.182,0.306
				c0.109,0.105,0.311,0.185,0.604,0.239v0.125h-2.596v-0.125c0.234-0.031,0.402-0.074,0.504-0.131
				c0.102-0.056,0.184-0.151,0.246-0.287c0.043-0.089,0.073-0.224,0.091-0.404s0.026-0.44,0.026-0.781v-1.435
				c0-0.399-0.01-0.679-0.029-0.839c-0.02-0.161-0.063-0.292-0.128-0.392c-0.066-0.108-0.146-0.187-0.239-0.235
				c-0.093-0.048-0.227-0.078-0.401-0.09V30.835z M113.102,28.507c-0.154,0-0.281-0.049-0.381-0.146s-0.15-0.221-0.15-0.369
				c0-0.145,0.051-0.267,0.153-0.366s0.228-0.149,0.378-0.149c0.149,0,0.275,0.05,0.377,0.149c0.103,0.1,0.154,0.222,0.154,0.366
				c0,0.148-0.05,0.271-0.151,0.369C113.382,28.458,113.255,28.507,113.102,28.507z"/>
			<path d="M146.727,27.679v0.125c-0.223,0.012-0.403,0.043-0.542,0.094c-0.139,0.051-0.263,0.134-0.372,0.247
				c-0.152,0.157-0.246,0.374-0.281,0.652c-0.023,0.208-0.035,0.446-0.035,0.717v4.33c0,0.325,0.016,0.582,0.047,0.77
				s0.082,0.339,0.152,0.452c0.102,0.157,0.232,0.273,0.393,0.35c0.16,0.076,0.373,0.122,0.639,0.138v0.125h-3.742v-0.125
				c0.227-0.012,0.409-0.044,0.548-0.097s0.261-0.134,0.366-0.244c0.125-0.125,0.209-0.284,0.252-0.476
				c0.043-0.192,0.064-0.49,0.064-0.894v-4.33c0-0.403-0.021-0.701-0.064-0.893s-0.127-0.351-0.252-0.476
				c-0.105-0.113-0.229-0.196-0.369-0.247c-0.141-0.051-0.322-0.082-0.545-0.094v-0.125H146.727z"/>
			<path d="M152.32,27.789l-2.854,7.243l-0.117,0.299c-0.066,0.161-0.142,0.277-0.226,0.349s-0.188,0.108-0.313,0.108
				c-0.137,0-0.254-0.043-0.352-0.129s-0.146-0.189-0.146-0.311c0-0.109,0.049-0.26,0.146-0.452l0.123-0.229l3.123-5.942h-2.555
				c-0.211,0-0.373,0.011-0.486,0.032s-0.213,0.06-0.299,0.114c-0.117,0.078-0.214,0.177-0.292,0.296
				c-0.078,0.12-0.179,0.324-0.303,0.613l-0.029,0.07h-0.125l0.531-2.329l0.125-0.016c0.027,0.132,0.07,0.215,0.129,0.248
				c0.059,0.034,0.186,0.051,0.381,0.051L152.32,27.789z"/>
			<path d="M38.727,42.179v0.125c-0.223,0.012-0.403,0.043-0.542,0.094c-0.139,0.051-0.263,0.134-0.372,0.247
				c-0.152,0.157-0.246,0.374-0.281,0.652c-0.023,0.208-0.035,0.446-0.035,0.717v4.33c0,0.325,0.016,0.582,0.047,0.77
				s0.082,0.339,0.152,0.452c0.102,0.157,0.232,0.273,0.393,0.35c0.16,0.076,0.373,0.122,0.639,0.138v0.125h-3.742v-0.125
				c0.227-0.012,0.409-0.044,0.548-0.097s0.261-0.134,0.366-0.244c0.125-0.125,0.209-0.284,0.252-0.476
				c0.043-0.192,0.064-0.49,0.064-0.894v-4.33c0-0.403-0.021-0.701-0.064-0.893s-0.127-0.351-0.252-0.476
				c-0.105-0.113-0.229-0.196-0.369-0.247c-0.141-0.051-0.322-0.082-0.545-0.094v-0.125H38.727z"/>
			<path d="M38.818,42.179h3.848v0.125c-0.293,0.027-0.504,0.073-0.633,0.136c-0.121,0.059-0.219,0.15-0.292,0.274
				s-0.11,0.258-0.11,0.403c0,0.103,0.009,0.193,0.029,0.271c0.02,0.079,0.078,0.25,0.175,0.513l1.765,4.716l1.688-4.136
				c0.234-0.584,0.352-1.01,0.352-1.278c0-0.148-0.023-0.288-0.07-0.417s-0.109-0.229-0.188-0.3
				c-0.079-0.066-0.165-0.114-0.259-0.142c-0.094-0.027-0.216-0.041-0.366-0.041v-0.125h2.609v0.125
				c-0.215,0.02-0.402,0.073-0.56,0.159c-0.159,0.086-0.311,0.218-0.455,0.395c-0.098,0.125-0.2,0.297-0.308,0.515
				s-0.255,0.554-0.443,1.01l-2.406,5.796h-0.25l-2.344-5.99c-0.304-0.79-0.547-1.29-0.73-1.502c-0.117-0.133-0.26-0.23-0.43-0.292
				c-0.169-0.061-0.376-0.091-0.622-0.091V42.179z"/>
			<path d="M57.553,42.304c-0.223,0.012-0.401,0.042-0.536,0.091c-0.135,0.049-0.259,0.131-0.372,0.244
				c-0.086,0.082-0.15,0.173-0.193,0.273c-0.043,0.1-0.072,0.226-0.088,0.379c-0.027,0.204-0.041,0.444-0.041,0.723v4.33
				c0,0.403,0.023,0.703,0.07,0.899c0.047,0.195,0.131,0.353,0.252,0.47c0.215,0.208,0.518,0.321,0.908,0.341v0.125h-3.736v-0.125
				c0.228-0.012,0.41-0.044,0.55-0.097c0.139-0.053,0.263-0.134,0.373-0.244c0.121-0.125,0.204-0.285,0.249-0.479
				c0.045-0.194,0.068-0.491,0.068-0.891v-5.253l-3.025,7.088h-0.124L48.9,43.197v5.147c0,0.403,0.022,0.701,0.067,0.894
				c0.045,0.191,0.128,0.351,0.25,0.476c0.11,0.114,0.234,0.196,0.373,0.247c0.139,0.051,0.32,0.082,0.544,0.094v0.125h-2.699
				v-0.125c0.223-0.012,0.403-0.043,0.542-0.094s0.263-0.133,0.372-0.247c0.121-0.125,0.204-0.285,0.249-0.479
				c0.045-0.194,0.067-0.491,0.067-0.891v-4.33c0-0.181-0.006-0.351-0.018-0.511c-0.02-0.29-0.064-0.501-0.135-0.635
				c-0.098-0.184-0.231-0.32-0.401-0.408s-0.396-0.14-0.677-0.156v-0.125h2.542l2.537,6.271l2.63-6.271h2.408V42.304z"/>
			<path d="M63.152,42.289l-2.854,7.243l-0.117,0.299c-0.066,0.161-0.142,0.277-0.226,0.349s-0.188,0.108-0.313,0.108
				c-0.137,0-0.254-0.043-0.352-0.129s-0.146-0.189-0.146-0.311c0-0.109,0.049-0.26,0.146-0.452l0.123-0.229l3.123-5.942h-2.555
				c-0.211,0-0.373,0.011-0.486,0.032s-0.213,0.06-0.299,0.114c-0.117,0.078-0.214,0.177-0.292,0.296
				c-0.078,0.12-0.179,0.324-0.303,0.613l-0.029,0.07h-0.125l0.531-2.329l0.125-0.016c0.027,0.132,0.07,0.215,0.129,0.248
				c0.059,0.034,0.186,0.051,0.381,0.051L63.152,42.289z"/>
			<path d="M70.914,45.335l1.688-0.219v3.369l0.006,0.443c0,0.264,0.016,0.458,0.047,0.58s0.092,0.225,0.182,0.306
				c0.109,0.105,0.311,0.185,0.604,0.239v0.125h-2.596v-0.125c0.234-0.031,0.402-0.074,0.504-0.131
				c0.102-0.056,0.184-0.151,0.246-0.287c0.043-0.089,0.073-0.224,0.091-0.404s0.026-0.44,0.026-0.781v-1.435
				c0-0.399-0.01-0.679-0.029-0.839c-0.02-0.161-0.063-0.292-0.128-0.392c-0.066-0.108-0.146-0.187-0.239-0.235
				c-0.093-0.048-0.227-0.078-0.401-0.09V45.335z M72.133,43.007c-0.154,0-0.281-0.049-0.381-0.146s-0.15-0.221-0.15-0.369
				c0-0.145,0.051-0.267,0.153-0.366s0.228-0.149,0.378-0.149c0.149,0,0.275,0.05,0.377,0.149c0.103,0.1,0.154,0.222,0.154,0.366
				c0,0.148-0.05,0.271-0.151,0.369C72.413,42.958,72.286,43.007,72.133,43.007z"/>
			<path d="M73.516,45.195h2.297v0.125c-0.174,0.035-0.293,0.074-0.357,0.117c-0.127,0.078-0.19,0.203-0.19,0.375
				c0,0.105,0.019,0.229,0.058,0.37c0.038,0.141,0.109,0.346,0.214,0.615l0.938,2.409l0.955-2.509c0.14-0.371,0.21-0.647,0.21-0.827
				c0-0.195-0.061-0.338-0.183-0.428c-0.063-0.047-0.179-0.088-0.348-0.123v-0.125h1.625v0.125c-0.22,0.055-0.397,0.152-0.531,0.293
				c-0.168,0.176-0.361,0.545-0.58,1.108l-1.353,3.458h-0.316l-1.47-3.634c-0.229-0.559-0.392-0.897-0.49-1.014
				c-0.055-0.063-0.117-0.108-0.183-0.138c-0.067-0.029-0.166-0.054-0.295-0.073V45.195z"/>
			<path d="M110.727,42.179v0.125c-0.223,0.012-0.403,0.043-0.542,0.094c-0.139,0.051-0.263,0.134-0.372,0.247
				c-0.152,0.157-0.246,0.374-0.281,0.652c-0.023,0.208-0.035,0.446-0.035,0.717v4.33c0,0.325,0.016,0.582,0.047,0.77
				s0.082,0.339,0.152,0.452c0.102,0.157,0.232,0.273,0.393,0.35c0.16,0.076,0.373,0.122,0.639,0.138v0.125h-3.742v-0.125
				c0.227-0.012,0.409-0.044,0.548-0.097s0.261-0.134,0.366-0.244c0.125-0.125,0.209-0.284,0.252-0.476
				c0.043-0.192,0.064-0.49,0.064-0.894v-4.33c0-0.403-0.021-0.701-0.064-0.893s-0.127-0.351-0.252-0.476
				c-0.105-0.113-0.229-0.196-0.369-0.247c-0.141-0.051-0.322-0.082-0.545-0.094v-0.125H110.727z"/>
			<path d="M146.727,42.179v0.125c-0.223,0.012-0.403,0.043-0.542,0.094c-0.139,0.051-0.263,0.134-0.372,0.247
				c-0.152,0.157-0.246,0.374-0.281,0.652c-0.023,0.208-0.035,0.446-0.035,0.717v4.33c0,0.325,0.016,0.582,0.047,0.77
				s0.082,0.339,0.152,0.452c0.102,0.157,0.232,0.273,0.393,0.35c0.16,0.076,0.373,0.122,0.639,0.138v0.125h-3.742v-0.125
				c0.227-0.012,0.409-0.044,0.548-0.097s0.261-0.134,0.366-0.244c0.125-0.125,0.209-0.284,0.252-0.476
				c0.043-0.192,0.064-0.49,0.064-0.894v-4.33c0-0.403-0.021-0.701-0.064-0.893s-0.127-0.351-0.252-0.476
				c-0.105-0.113-0.229-0.196-0.369-0.247c-0.141-0.051-0.322-0.082-0.545-0.094v-0.125H146.727z"/>
			<path d="M34.609,59.695h2.297v0.125c-0.174,0.035-0.293,0.074-0.357,0.117c-0.127,0.078-0.19,0.203-0.19,0.375
				c0,0.105,0.019,0.229,0.058,0.37c0.038,0.141,0.109,0.346,0.214,0.615l0.938,2.409l0.955-2.509c0.14-0.371,0.21-0.647,0.21-0.827
				c0-0.195-0.061-0.338-0.183-0.428c-0.063-0.047-0.179-0.088-0.348-0.123v-0.125h1.625v0.125c-0.22,0.055-0.397,0.152-0.531,0.293
				c-0.168,0.176-0.361,0.545-0.58,1.108l-1.353,3.458h-0.316l-1.47-3.634c-0.229-0.559-0.392-0.897-0.49-1.014
				c-0.055-0.063-0.117-0.108-0.183-0.138c-0.067-0.029-0.166-0.054-0.295-0.073V59.695z"/>
			<path d="M41.23,60.139c0.262-0.215,0.513-0.372,0.753-0.469s0.495-0.146,0.765-0.146c0.301,0,0.602,0.068,0.902,0.205
				c0.453,0.207,0.81,0.519,1.07,0.934c0.26,0.416,0.39,0.887,0.39,1.415c0,0.383-0.068,0.747-0.203,1.093s-0.328,0.647-0.578,0.904
				c-0.466,0.477-1.027,0.715-1.684,0.715c-0.783,0-1.405-0.328-1.866-0.985c-0.415-0.595-0.622-1.369-0.622-2.323
				c0-0.774,0.126-1.503,0.378-2.186c0.252-0.682,0.611-1.27,1.077-1.763c0.313-0.328,0.634-0.571,0.962-0.728
				c0.329-0.156,0.681-0.234,1.056-0.234c0.407,0,0.745,0.08,1.015,0.24c0.27,0.16,0.405,0.361,0.405,0.604
				c0,0.129-0.038,0.235-0.114,0.319s-0.173,0.126-0.29,0.126c-0.082,0-0.156-0.018-0.223-0.053
				c-0.07-0.039-0.128-0.093-0.173-0.162s-0.101-0.194-0.167-0.375c-0.074-0.197-0.165-0.336-0.272-0.419s-0.253-0.124-0.437-0.124
				c-0.508,0-0.965,0.328-1.371,0.984C41.589,58.382,41.332,59.192,41.23,60.139z M41.125,62.179c0,0.735,0.136,1.327,0.408,1.777
				c0.28,0.461,0.632,0.692,1.056,0.692c0.213,0,0.416-0.063,0.606-0.188s0.355-0.305,0.496-0.54
				c0.14-0.234,0.252-0.525,0.338-0.871c0.085-0.346,0.128-0.689,0.128-1.029c0-0.348-0.043-0.685-0.131-1.012
				c-0.087-0.326-0.207-0.595-0.358-0.806c-0.26-0.36-0.603-0.54-1.026-0.54c-0.365,0-0.676,0.154-0.933,0.463
				c-0.187,0.228-0.331,0.519-0.431,0.874C41.175,61.356,41.125,61.75,41.125,62.179z"/>
			<path d="M70.5,56.679h3.848v0.125c-0.293,0.027-0.504,0.073-0.633,0.136c-0.121,0.059-0.219,0.15-0.292,0.274
				s-0.11,0.258-0.11,0.403c0,0.103,0.009,0.193,0.029,0.271c0.02,0.079,0.078,0.25,0.175,0.513l1.765,4.716l1.688-4.136
				c0.234-0.584,0.352-1.01,0.352-1.278c0-0.148-0.023-0.288-0.07-0.417s-0.109-0.229-0.188-0.3
				c-0.079-0.066-0.165-0.114-0.259-0.142c-0.094-0.027-0.216-0.041-0.366-0.041v-0.125h2.609v0.125
				c-0.215,0.02-0.402,0.073-0.56,0.159c-0.159,0.086-0.311,0.218-0.455,0.395c-0.098,0.125-0.2,0.297-0.308,0.515
				s-0.255,0.554-0.443,1.01l-2.406,5.796h-0.25l-2.344-5.99c-0.304-0.79-0.547-1.29-0.73-1.502c-0.117-0.133-0.26-0.23-0.43-0.292
				c-0.169-0.061-0.376-0.091-0.622-0.091V56.679z"/>
			<path d="M82.859,56.679v0.125c-0.223,0.012-0.403,0.043-0.542,0.094c-0.139,0.051-0.263,0.134-0.372,0.247
				c-0.152,0.157-0.246,0.374-0.281,0.652c-0.023,0.208-0.035,0.446-0.035,0.717v4.33c0,0.325,0.016,0.582,0.047,0.77
				s0.082,0.339,0.152,0.452c0.102,0.157,0.232,0.273,0.393,0.35c0.16,0.076,0.373,0.122,0.639,0.138v0.125h-3.742v-0.125
				c0.227-0.012,0.409-0.044,0.548-0.097s0.261-0.134,0.366-0.244c0.125-0.125,0.209-0.284,0.252-0.476
				c0.043-0.192,0.064-0.49,0.064-0.894v-4.33c0-0.403-0.021-0.701-0.064-0.893s-0.127-0.351-0.252-0.476
				c-0.105-0.113-0.229-0.196-0.369-0.247c-0.141-0.051-0.322-0.082-0.545-0.094v-0.125H82.859z"/>
			<path d="M88.453,56.789L85.6,64.032l-0.117,0.299c-0.066,0.161-0.142,0.277-0.226,0.349s-0.188,0.108-0.313,0.108
				c-0.137,0-0.254-0.043-0.352-0.129s-0.146-0.189-0.146-0.311c0-0.109,0.049-0.26,0.146-0.452l0.123-0.229l3.123-5.942h-2.555
				c-0.211,0-0.373,0.011-0.486,0.032s-0.213,0.06-0.299,0.114c-0.117,0.078-0.214,0.177-0.292,0.296
				c-0.078,0.12-0.179,0.324-0.303,0.613l-0.029,0.07h-0.125l0.531-2.329l0.125-0.016c0.027,0.132,0.07,0.215,0.129,0.248
				c0.059,0.034,0.186,0.051,0.381,0.051L88.453,56.789z"/>
			<path d="M110.727,56.679v0.125c-0.223,0.012-0.403,0.043-0.542,0.094c-0.139,0.051-0.263,0.134-0.372,0.247
				c-0.152,0.157-0.246,0.374-0.281,0.652c-0.023,0.208-0.035,0.446-0.035,0.717v4.33c0,0.325,0.016,0.582,0.047,0.77
				s0.082,0.339,0.152,0.452c0.102,0.157,0.232,0.273,0.393,0.35c0.16,0.076,0.373,0.122,0.639,0.138v0.125h-3.742v-0.125
				c0.227-0.012,0.409-0.044,0.548-0.097s0.261-0.134,0.366-0.244c0.125-0.125,0.209-0.284,0.252-0.476
				c0.043-0.192,0.064-0.49,0.064-0.894v-4.33c0-0.403-0.021-0.701-0.064-0.893s-0.127-0.351-0.252-0.476
				c-0.105-0.113-0.229-0.196-0.369-0.247c-0.141-0.051-0.322-0.082-0.545-0.094v-0.125H110.727z"/>
			<path d="M115.045,56.679v0.125c-0.223,0.012-0.403,0.043-0.542,0.094c-0.139,0.051-0.263,0.134-0.372,0.247
				c-0.152,0.157-0.246,0.374-0.281,0.652c-0.023,0.208-0.035,0.446-0.035,0.717v4.33c0,0.325,0.016,0.582,0.047,0.77
				s0.082,0.339,0.152,0.452c0.102,0.157,0.232,0.273,0.393,0.35c0.16,0.076,0.373,0.122,0.639,0.138v0.125h-3.742v-0.125
				c0.227-0.012,0.409-0.044,0.548-0.097s0.261-0.134,0.366-0.244c0.125-0.125,0.209-0.284,0.252-0.476
				c0.043-0.192,0.064-0.49,0.064-0.894v-4.33c0-0.403-0.021-0.701-0.064-0.893s-0.127-0.351-0.252-0.476
				c-0.105-0.113-0.229-0.196-0.369-0.247c-0.141-0.051-0.322-0.082-0.545-0.094v-0.125H115.045z"/>
			<path d="M120.639,56.789l-2.854,7.243l-0.117,0.299c-0.066,0.161-0.142,0.277-0.226,0.349s-0.188,0.108-0.313,0.108
				c-0.137,0-0.254-0.043-0.352-0.129s-0.146-0.189-0.146-0.311c0-0.109,0.049-0.26,0.146-0.452l0.123-0.229l3.123-5.942h-2.555
				c-0.211,0-0.373,0.011-0.486,0.032s-0.213,0.06-0.299,0.114c-0.117,0.078-0.214,0.177-0.292,0.296
				c-0.078,0.12-0.179,0.324-0.303,0.613l-0.029,0.07h-0.125l0.531-2.329l0.125-0.016c0.027,0.132,0.07,0.215,0.129,0.248
				c0.059,0.034,0.186,0.051,0.381,0.051L120.639,56.789z"/>
			<path d="M146.727,56.679v0.125c-0.223,0.012-0.403,0.043-0.542,0.094c-0.139,0.051-0.263,0.134-0.372,0.247
				c-0.152,0.157-0.246,0.374-0.281,0.652c-0.023,0.208-0.035,0.446-0.035,0.717v4.33c0,0.325,0.016,0.582,0.047,0.77
				s0.082,0.339,0.152,0.452c0.102,0.157,0.232,0.273,0.393,0.35c0.16,0.076,0.373,0.122,0.639,0.138v0.125h-3.742v-0.125
				c0.227-0.012,0.409-0.044,0.548-0.097s0.261-0.134,0.366-0.244c0.125-0.125,0.209-0.284,0.252-0.476
				c0.043-0.192,0.064-0.49,0.064-0.894v-4.33c0-0.403-0.021-0.701-0.064-0.893s-0.127-0.351-0.252-0.476
				c-0.105-0.113-0.229-0.196-0.369-0.247c-0.141-0.051-0.322-0.082-0.545-0.094v-0.125H146.727z"/>
			<path d="M151.045,56.679v0.125c-0.223,0.012-0.403,0.043-0.542,0.094c-0.139,0.051-0.263,0.134-0.372,0.247
				c-0.152,0.157-0.246,0.374-0.281,0.652c-0.023,0.208-0.035,0.446-0.035,0.717v4.33c0,0.325,0.016,0.582,0.047,0.77
				s0.082,0.339,0.152,0.452c0.102,0.157,0.232,0.273,0.393,0.35c0.16,0.076,0.373,0.122,0.639,0.138v0.125h-3.742v-0.125
				c0.227-0.012,0.409-0.044,0.548-0.097s0.261-0.134,0.366-0.244c0.125-0.125,0.209-0.284,0.252-0.476
				c0.043-0.192,0.064-0.49,0.064-0.894v-4.33c0-0.403-0.021-0.701-0.064-0.893s-0.127-0.351-0.252-0.476
				c-0.105-0.113-0.229-0.196-0.369-0.247c-0.141-0.051-0.322-0.082-0.545-0.094v-0.125H151.045z"/>
			<path d="M156.639,56.789l-2.854,7.243l-0.117,0.299c-0.066,0.161-0.142,0.277-0.226,0.349s-0.188,0.108-0.313,0.108
				c-0.137,0-0.254-0.043-0.352-0.129s-0.146-0.189-0.146-0.311c0-0.109,0.049-0.26,0.146-0.452l0.123-0.229l3.123-5.942h-2.555
				c-0.211,0-0.373,0.011-0.486,0.032s-0.213,0.06-0.299,0.114c-0.117,0.078-0.214,0.177-0.292,0.296
				c-0.078,0.12-0.179,0.324-0.303,0.613l-0.029,0.07h-0.125l0.531-2.329l0.125-0.016c0.027,0.132,0.07,0.215,0.129,0.248
				c0.059,0.034,0.186,0.051,0.381,0.051L156.639,56.789z"/>
			<path d="M34.5,71.179h3.848v0.125c-0.293,0.027-0.504,0.073-0.633,0.136c-0.121,0.059-0.219,0.15-0.292,0.274
				s-0.11,0.258-0.11,0.403c0,0.103,0.009,0.193,0.029,0.271c0.02,0.079,0.078,0.25,0.175,0.513l1.765,4.716l1.688-4.136
				c0.234-0.584,0.352-1.01,0.352-1.278c0-0.148-0.023-0.288-0.07-0.417s-0.109-0.229-0.188-0.3
				c-0.079-0.066-0.165-0.114-0.259-0.142c-0.094-0.027-0.216-0.041-0.366-0.041v-0.125h2.609v0.125
				c-0.215,0.02-0.402,0.073-0.56,0.159c-0.159,0.086-0.311,0.218-0.455,0.395c-0.098,0.125-0.2,0.297-0.308,0.515
				s-0.255,0.554-0.443,1.01l-2.406,5.796h-0.25l-2.344-5.99c-0.304-0.79-0.547-1.29-0.73-1.502c-0.117-0.133-0.26-0.23-0.43-0.292
				c-0.169-0.061-0.376-0.091-0.622-0.091V71.179z"/>
			<path d="M48.135,71.289l-2.854,7.243l-0.117,0.299c-0.066,0.161-0.142,0.277-0.226,0.349s-0.188,0.108-0.313,0.108
				c-0.137,0-0.254-0.043-0.352-0.129s-0.146-0.189-0.146-0.311c0-0.109,0.049-0.26,0.146-0.452l0.123-0.229l3.123-5.942h-2.555
				c-0.211,0-0.373,0.011-0.486,0.032s-0.213,0.06-0.299,0.114c-0.117,0.078-0.214,0.177-0.292,0.296
				c-0.078,0.12-0.179,0.324-0.303,0.613l-0.029,0.07H43.43l0.531-2.329l0.125-0.016c0.027,0.132,0.07,0.215,0.129,0.248
				c0.059,0.034,0.186,0.051,0.381,0.051L48.135,71.289z"/>
			<path d="M49.468,78.111c0.324,0.192,0.876,0.408,1.404,0.408c0.756,0,1.116-0.372,1.116-0.864c0-0.504-0.3-0.78-1.068-1.068
				c-1.056-0.384-1.548-0.948-1.548-1.644c0-0.936,0.768-1.704,2.004-1.704c0.588,0,1.104,0.156,1.416,0.36l-0.252,0.756
				c-0.228-0.132-0.648-0.336-1.188-0.336c-0.624,0-0.96,0.36-0.96,0.792c0,0.492,0.336,0.708,1.092,0.996
				c0.996,0.372,1.524,0.876,1.524,1.752c0,1.032-0.804,1.752-2.16,1.752c-0.636,0-1.224-0.168-1.632-0.408L49.468,78.111z"/>
			<path d="M59.224,77.595c0,0.6,0.012,1.128,0.048,1.584h-0.936l-0.06-0.948h-0.024c-0.264,0.468-0.888,1.08-1.92,1.08
				c-0.912,0-2.004-0.516-2.004-2.544v-3.396h1.056v3.204c0,1.104,0.348,1.86,1.296,1.86c0.708,0,1.2-0.492,1.392-0.972
				c0.06-0.144,0.096-0.336,0.096-0.54v-3.552h1.056V77.595z"/>
			<path d="M60.832,78.111c0.324,0.192,0.876,0.408,1.404,0.408c0.756,0,1.116-0.372,1.116-0.864c0-0.504-0.3-0.78-1.068-1.068
				c-1.056-0.384-1.548-0.948-1.548-1.644c0-0.936,0.768-1.704,2.004-1.704c0.588,0,1.104,0.156,1.416,0.36l-0.252,0.756
				c-0.228-0.132-0.648-0.336-1.188-0.336c-0.624,0-0.96,0.36-0.96,0.792c0,0.492,0.336,0.708,1.092,0.996
				c0.996,0.372,1.524,0.876,1.524,1.752c0,1.032-0.804,1.752-2.16,1.752c-0.636,0-1.224-0.168-1.632-0.408L60.832,78.111z"/>
			<path d="M68.196,77.273h-2.938v-0.129l3.648-5.98h0.258v5.906c0.26,0,0.444-0.016,0.553-0.047
				c0.108-0.031,0.205-0.101,0.291-0.207c0.062-0.079,0.107-0.165,0.137-0.259s0.049-0.222,0.061-0.383l0.006-0.136h0.125v2.234
				h-0.125c-0.016-0.239-0.039-0.415-0.07-0.526c-0.031-0.112-0.081-0.203-0.151-0.273c-0.078-0.079-0.165-0.132-0.262-0.159
				c-0.097-0.027-0.242-0.041-0.436-0.041h-0.128v0.596c0,0.214,0.02,0.392,0.058,0.531c0.039,0.141,0.099,0.257,0.18,0.351
				c0.082,0.098,0.172,0.166,0.273,0.205c0.101,0.039,0.264,0.072,0.488,0.099v0.125h-2.947v-0.125
				c0.387-0.035,0.641-0.115,0.762-0.239c0.078-0.086,0.134-0.203,0.167-0.351s0.05-0.358,0.05-0.631V77.273z M68.196,77.07v-4.307
				L65.54,77.07H68.196z"/>
			<path d="M76.549,71.179h3.848v0.125c-0.293,0.027-0.504,0.073-0.633,0.136c-0.121,0.059-0.219,0.15-0.292,0.274
				s-0.11,0.258-0.11,0.403c0,0.103,0.009,0.193,0.029,0.271c0.02,0.079,0.078,0.25,0.175,0.513l1.765,4.716l1.688-4.136
				c0.234-0.584,0.352-1.01,0.352-1.278c0-0.148-0.023-0.288-0.07-0.417s-0.109-0.229-0.188-0.3
				c-0.078-0.066-0.165-0.114-0.259-0.142c-0.095-0.027-0.217-0.041-0.366-0.041v-0.125h2.609v0.125
				c-0.215,0.02-0.402,0.073-0.56,0.159c-0.159,0.086-0.31,0.218-0.455,0.395c-0.098,0.125-0.201,0.297-0.308,0.515
				s-0.255,0.554-0.443,1.01l-2.406,5.796h-0.25l-2.344-5.99c-0.304-0.79-0.547-1.29-0.73-1.502c-0.117-0.133-0.26-0.23-0.429-0.292
				s-0.377-0.091-0.622-0.091V71.179z"/>
			<path d="M90.184,71.289l-2.854,7.243l-0.117,0.299c-0.066,0.161-0.142,0.277-0.226,0.349s-0.188,0.108-0.313,0.108
				c-0.137,0-0.254-0.043-0.352-0.129s-0.146-0.189-0.146-0.311c0-0.109,0.049-0.26,0.146-0.452l0.123-0.229l3.123-5.942h-2.555
				c-0.211,0-0.373,0.011-0.486,0.032s-0.213,0.06-0.299,0.114c-0.117,0.078-0.214,0.177-0.292,0.296
				c-0.078,0.12-0.179,0.324-0.304,0.613l-0.029,0.07h-0.125l0.531-2.329l0.125-0.016c0.027,0.132,0.07,0.215,0.129,0.248
				c0.059,0.034,0.186,0.051,0.381,0.051L90.184,71.289z"/>
			<path d="M110.727,71.179v0.125c-0.223,0.012-0.403,0.043-0.542,0.094c-0.139,0.051-0.263,0.134-0.372,0.247
				c-0.152,0.157-0.246,0.374-0.281,0.652c-0.023,0.208-0.035,0.446-0.035,0.717v4.33c0,0.325,0.016,0.582,0.047,0.77
				s0.082,0.339,0.152,0.452c0.102,0.157,0.232,0.273,0.393,0.35c0.16,0.076,0.373,0.122,0.639,0.138v0.125h-3.742v-0.125
				c0.227-0.012,0.409-0.044,0.548-0.097s0.261-0.134,0.366-0.244c0.125-0.125,0.209-0.284,0.252-0.476
				c0.043-0.192,0.064-0.49,0.064-0.894v-4.33c0-0.403-0.021-0.701-0.064-0.893s-0.127-0.351-0.252-0.476
				c-0.105-0.113-0.229-0.196-0.369-0.247c-0.141-0.051-0.322-0.082-0.545-0.094v-0.125H110.727z"/>
			<path d="M146.727,71.179v0.125c-0.223,0.012-0.403,0.043-0.542,0.094c-0.139,0.051-0.263,0.134-0.372,0.247
				c-0.152,0.157-0.246,0.374-0.281,0.652c-0.023,0.208-0.035,0.446-0.035,0.717v4.33c0,0.325,0.016,0.582,0.047,0.77
				s0.082,0.339,0.152,0.452c0.102,0.157,0.232,0.273,0.393,0.35c0.16,0.076,0.373,0.122,0.639,0.138v0.125h-3.742v-0.125
				c0.227-0.012,0.409-0.044,0.548-0.097s0.261-0.134,0.366-0.244c0.125-0.125,0.209-0.284,0.252-0.476
				c0.043-0.192,0.064-0.49,0.064-0.894v-4.33c0-0.403-0.021-0.701-0.064-0.893s-0.127-0.351-0.252-0.476
				c-0.105-0.113-0.229-0.196-0.369-0.247c-0.141-0.051-0.322-0.082-0.545-0.094v-0.125H146.727z"/>
		</g>
		<g>
			<path d="M0.48,115.035c0.456-0.108,1.188-0.18,1.908-0.18c1.044,0,1.716,0.18,2.208,0.588c0.42,0.312,0.684,0.792,0.684,1.428
				c0,0.792-0.528,1.476-1.368,1.776v0.036c0.768,0.18,1.668,0.816,1.668,2.016c0,0.696-0.276,1.224-0.696,1.62
				c-0.552,0.516-1.464,0.756-2.784,0.756c-0.72,0-1.272-0.048-1.62-0.096V115.035z M1.524,118.347h0.948
				c1.092,0,1.74-0.588,1.74-1.368c0-0.936-0.708-1.32-1.764-1.32c-0.48,0-0.756,0.036-0.924,0.072V118.347z M1.524,122.211
				c0.216,0.036,0.504,0.048,0.876,0.048c1.08,0,2.076-0.396,2.076-1.572c0-1.092-0.948-1.56-2.088-1.56H1.524V122.211z"/>
			<path d="M7.596,120.279c0.024,1.428,0.924,2.016,1.98,2.016c0.756,0,1.224-0.132,1.608-0.288l0.192,0.744
				c-0.372,0.168-1.02,0.372-1.944,0.372c-1.776,0-2.856-1.188-2.856-2.928c0-1.764,1.044-3.144,2.736-3.144
				c1.896,0,2.388,1.668,2.388,2.736c0,0.216-0.012,0.384-0.036,0.504L7.596,120.279z M10.68,119.523
				c0.012-0.66-0.276-1.716-1.452-1.716c-1.08,0-1.536,0.984-1.62,1.716H10.68z"/>
			<path d="M17.976,122.151c0,1.344-0.276,2.148-0.828,2.664c-0.576,0.516-1.392,0.696-2.124,0.696c-0.696,0-1.464-0.168-1.932-0.48
				l0.264-0.816c0.384,0.252,0.984,0.468,1.704,0.468c1.08,0,1.872-0.564,1.872-2.04v-0.636h-0.024
				c-0.312,0.54-0.948,0.972-1.848,0.972c-1.44,0-2.472-1.224-2.472-2.844c0-1.968,1.284-3.072,2.628-3.072
				c1.008,0,1.548,0.516,1.812,0.996h0.024l0.036-0.864h0.936c-0.036,0.408-0.048,0.876-0.048,1.584V122.151z M16.919,119.476
				c0-0.168-0.012-0.324-0.06-0.468c-0.192-0.624-0.696-1.128-1.476-1.128c-1.008,0-1.728,0.852-1.728,2.208
				c0,1.128,0.588,2.088,1.716,2.088c0.66,0,1.248-0.408,1.464-1.092c0.06-0.168,0.084-0.372,0.084-0.564V119.476z"/>
			<path d="M20.22,116.127c-0.396,0-0.66-0.312-0.66-0.684s0.276-0.672,0.684-0.672c0.408,0,0.672,0.3,0.672,0.672
				s-0.264,0.684-0.684,0.684H20.22z M19.715,123.003v-5.808h1.056v5.808H19.715z"/>
			<path d="M22.523,118.768c0-0.612-0.012-1.092-0.048-1.572h0.936l0.06,0.948h0.024c0.288-0.54,0.96-1.08,1.92-1.08
				c0.804,0,2.052,0.48,2.052,2.472v3.468h-1.056v-3.348c0-0.936-0.348-1.728-1.344-1.728c-0.684,0-1.224,0.492-1.416,1.08
				c-0.048,0.132-0.072,0.324-0.072,0.492v3.504h-1.056V118.768z"/>
			<path d="M29.184,118.768c0-0.612-0.012-1.092-0.048-1.572h0.936l0.06,0.948h0.024c0.288-0.54,0.96-1.08,1.92-1.08
				c0.804,0,2.052,0.48,2.052,2.472v3.468h-1.056v-3.348c0-0.936-0.348-1.728-1.344-1.728c-0.684,0-1.224,0.492-1.416,1.08
				c-0.048,0.132-0.072,0.324-0.072,0.492v3.504h-1.056V118.768z"/>
			<path d="M36.347,116.127c-0.396,0-0.66-0.312-0.66-0.684s0.276-0.672,0.684-0.672c0.408,0,0.672,0.3,0.672,0.672
				s-0.264,0.684-0.684,0.684H36.347z M35.843,123.003v-5.808h1.056v5.808H35.843z"/>
			<path d="M38.651,118.768c0-0.612-0.012-1.092-0.048-1.572h0.936l0.06,0.948h0.024c0.288-0.54,0.96-1.08,1.92-1.08
				c0.804,0,2.052,0.48,2.052,2.472v3.468h-1.056v-3.348c0-0.936-0.348-1.728-1.344-1.728c-0.684,0-1.224,0.492-1.416,1.08
				c-0.048,0.132-0.072,0.324-0.072,0.492v3.504h-1.056V118.768z"/>
			<path d="M50.279,122.151c0,1.344-0.276,2.148-0.828,2.664c-0.576,0.516-1.392,0.696-2.124,0.696c-0.696,0-1.464-0.168-1.932-0.48
				l0.264-0.816c0.384,0.252,0.984,0.468,1.704,0.468c1.08,0,1.872-0.564,1.872-2.04v-0.636h-0.024
				c-0.312,0.54-0.948,0.972-1.848,0.972c-1.44,0-2.472-1.224-2.472-2.844c0-1.968,1.284-3.072,2.628-3.072
				c1.008,0,1.548,0.516,1.812,0.996h0.024l0.036-0.864h0.936c-0.036,0.408-0.048,0.876-0.048,1.584V122.151z M49.223,119.476
				c0-0.168-0.012-0.324-0.06-0.468c-0.192-0.624-0.696-1.128-1.476-1.128c-1.008,0-1.728,0.852-1.728,2.208
				c0,1.128,0.588,2.088,1.716,2.088c0.66,0,1.248-0.408,1.464-1.092c0.06-0.168,0.084-0.372,0.084-0.564V119.476z"/>
			<path d="M56.927,123.135c-1.56,0-2.784-1.152-2.784-2.988c0-1.944,1.284-3.084,2.88-3.084c1.668,0,2.796,1.212,2.796,2.976
				c0,2.16-1.5,3.096-2.88,3.096H56.927z M56.963,122.343c1.008,0,1.764-0.948,1.764-2.268c0-0.984-0.492-2.22-1.74-2.22
				c-1.236,0-1.776,1.152-1.776,2.256c0,1.272,0.72,2.232,1.74,2.232H56.963z"/>
			<path d="M61.247,123.003V118h-0.804v-0.804h0.804v-0.276c0-0.816,0.192-1.56,0.684-2.028c0.396-0.384,0.924-0.54,1.404-0.54
				c0.384,0,0.696,0.084,0.9,0.168l-0.132,0.816c-0.168-0.072-0.372-0.132-0.684-0.132c-0.888,0-1.128,0.792-1.128,1.68v0.312h1.404
				V118h-1.392v5.004H61.247z"/>
			<path d="M67.223,114.916h1.056v7.212h3.456v0.876h-4.512V114.916z"/>
			<path d="M73.367,116.127c-0.396,0-0.66-0.312-0.66-0.684s0.276-0.672,0.684-0.672c0.408,0,0.672,0.3,0.672,0.672
				s-0.264,0.684-0.684,0.684H73.367z M72.862,123.003v-5.808h1.056v5.808H72.862z"/>
			<path d="M75.526,121.936c0.324,0.192,0.876,0.408,1.404,0.408c0.756,0,1.116-0.372,1.116-0.864c0-0.504-0.3-0.78-1.068-1.068
				c-1.056-0.384-1.548-0.948-1.548-1.644c0-0.936,0.768-1.704,2.004-1.704c0.588,0,1.104,0.156,1.416,0.36l-0.252,0.756
				c-0.228-0.132-0.648-0.336-1.188-0.336c-0.624,0-0.96,0.36-0.96,0.792c0,0.492,0.336,0.708,1.092,0.996
				c0.996,0.372,1.524,0.876,1.524,1.752c0,1.032-0.804,1.752-2.16,1.752c-0.636,0-1.224-0.168-1.632-0.408L75.526,121.936z"/>
			<path d="M79.762,122.392l2.628-3.42c0.264-0.324,0.492-0.6,0.768-0.912v-0.024h-3.156v-0.84h4.428v0.66l-2.604,3.384
				c-0.24,0.312-0.48,0.612-0.744,0.9v0.024h3.396v0.84h-4.716V122.392z"/>
			<path d="M86.83,115.803v1.392h1.512V118H86.83v3.132c0,0.72,0.204,1.128,0.792,1.128c0.288,0,0.456-0.024,0.612-0.072
				l0.048,0.804c-0.204,0.072-0.528,0.144-0.936,0.144c-0.492,0-0.888-0.168-1.14-0.444c-0.288-0.324-0.408-0.84-0.408-1.524V118
				h-0.9v-0.804h0.9v-1.068L86.83,115.803z"/>
			<path d="M90.298,114.699l-0.192,2.88h-0.648l-0.192-2.88H90.298z"/>
			<path d="M91.642,121.936c0.324,0.192,0.876,0.408,1.404,0.408c0.756,0,1.116-0.372,1.116-0.864c0-0.504-0.3-0.78-1.068-1.068
				c-1.056-0.384-1.548-0.948-1.548-1.644c0-0.936,0.768-1.704,2.004-1.704c0.588,0,1.104,0.156,1.416,0.36l-0.252,0.756
				c-0.228-0.132-0.648-0.336-1.188-0.336c-0.624,0-0.96,0.36-0.96,0.792c0,0.492,0.336,0.708,1.092,0.996
				c0.996,0.372,1.524,0.876,1.524,1.752c0,1.032-0.804,1.752-2.16,1.752c-0.636,0-1.224-0.168-1.632-0.408L91.642,121.936z"/>
			<path d="M102.394,114.699l-0.192,2.88h-0.648l-0.192-2.88H102.394z"/>
			<path d="M104.649,114.699l-0.192,2.88h-0.648l-0.192-2.88H104.649z"/>
			<path d="M106.162,114.916h1.056v7.212h3.456v0.876h-4.512V114.916z"/>
			<path d="M112.305,116.127c-0.396,0-0.66-0.312-0.66-0.684s0.276-0.672,0.684-0.672c0.408,0,0.672,0.3,0.672,0.672
				s-0.264,0.684-0.684,0.684H112.305z M111.801,123.003v-5.808h1.056v5.808H111.801z"/>
			<path d="M115.209,120.279c0.024,1.428,0.924,2.016,1.98,2.016c0.756,0,1.224-0.132,1.608-0.288l0.192,0.744
				c-0.372,0.168-1.02,0.372-1.944,0.372c-1.776,0-2.856-1.188-2.856-2.928c0-1.764,1.044-3.144,2.736-3.144
				c1.896,0,2.388,1.668,2.388,2.736c0,0.216-0.012,0.384-0.036,0.504L115.209,120.279z M118.293,119.523
				c0.012-0.66-0.276-1.716-1.452-1.716c-1.08,0-1.536,0.984-1.62,1.716H118.293z"/>
			<path d="M120.621,114.483h1.056v3.636h0.024c0.372-0.648,1.044-1.056,1.98-1.056c1.44,0,2.448,1.2,2.448,2.952
				c0,2.088-1.32,3.12-2.616,3.12c-0.84,0-1.5-0.324-1.944-1.092h-0.024l-0.06,0.96h-0.912c0.036-0.396,0.048-0.984,0.048-1.5
				V114.483z M121.677,120.675c0,0.132,0.012,0.264,0.036,0.384c0.204,0.732,0.828,1.236,1.584,1.236c1.116,0,1.764-0.9,1.764-2.232
				c0-1.176-0.6-2.172-1.728-2.172c-0.72,0-1.392,0.504-1.596,1.296c-0.036,0.132-0.06,0.276-0.06,0.444V120.675z"/>
			<path d="M128.061,120.279c0.024,1.428,0.924,2.016,1.98,2.016c0.756,0,1.224-0.132,1.608-0.288l0.192,0.744
				c-0.372,0.168-1.02,0.372-1.944,0.372c-1.776,0-2.856-1.188-2.856-2.928c0-1.764,1.044-3.144,2.736-3.144
				c1.896,0,2.388,1.668,2.388,2.736c0,0.216-0.012,0.384-0.036,0.504L128.061,120.279z M131.145,119.523
				c0.012-0.66-0.276-1.716-1.452-1.716c-1.08,0-1.536,0.984-1.62,1.716H131.145z"/>
			<path d="M133.329,121.936c0.324,0.192,0.876,0.408,1.404,0.408c0.756,0,1.116-0.372,1.116-0.864c0-0.504-0.3-0.78-1.068-1.068
				c-1.056-0.384-1.548-0.948-1.548-1.644c0-0.936,0.768-1.704,2.004-1.704c0.588,0,1.104,0.156,1.416,0.36l-0.252,0.756
				c-0.228-0.132-0.648-0.336-1.188-0.336c-0.624,0-0.96,0.36-0.96,0.792c0,0.492,0.336,0.708,1.092,0.996
				c0.996,0.372,1.524,0.876,1.524,1.752c0,1.032-0.804,1.752-2.16,1.752c-0.636,0-1.224-0.168-1.632-0.408L133.329,121.936z"/>
			<path d="M139.497,115.803v1.392h1.512V118h-1.512v3.132c0,0.72,0.204,1.128,0.792,1.128c0.288,0,0.456-0.024,0.612-0.072
				l0.048,0.804c-0.204,0.072-0.528,0.144-0.936,0.144c-0.492,0-0.888-0.168-1.14-0.444c-0.288-0.324-0.408-0.84-0.408-1.524V118
				h-0.9v-0.804h0.9v-1.068L139.497,115.803z"/>
			<path d="M142.208,119.007c0-0.684-0.012-1.272-0.048-1.812h0.924l0.048,1.14h0.036c0.264-0.78,0.912-1.272,1.62-1.272
				c0.108,0,0.192,0.012,0.288,0.036v0.984c-0.12-0.012-0.228-0.024-0.372-0.024c-0.744,0-1.272,0.564-1.416,1.344
				c-0.024,0.156-0.036,0.324-0.036,0.504v3.096h-1.056L142.208,119.007z"/>
			<path d="M150.141,121.611c0,0.504,0.024,0.996,0.084,1.392h-0.948l-0.096-0.732h-0.036c-0.312,0.456-0.948,0.864-1.776,0.864
				c-1.176,0-1.776-0.828-1.776-1.668c0-1.404,1.248-2.172,3.492-2.16v-0.12c0-0.48-0.132-1.356-1.32-1.344
				c-0.552,0-1.116,0.156-1.524,0.432l-0.24-0.708c0.48-0.3,1.188-0.504,1.92-0.504c1.788,0,2.22,1.212,2.22,2.376V121.611z
				 M149.108,120.04c-1.152-0.024-2.46,0.18-2.46,1.308c0,0.696,0.456,1.008,0.984,1.008c0.768,0,1.26-0.48,1.428-0.972
				c0.036-0.108,0.048-0.228,0.048-0.336V120.04z"/>
			<path d="M156.692,121.419c0,0.6,0.012,1.128,0.048,1.584h-0.936l-0.06-0.948h-0.024c-0.264,0.468-0.888,1.08-1.92,1.08
				c-0.912,0-2.004-0.516-2.004-2.544v-3.396h1.056v3.204c0,1.104,0.348,1.86,1.296,1.86c0.708,0,1.2-0.492,1.392-0.972
				c0.06-0.144,0.096-0.336,0.096-0.54v-3.552h1.056V121.419z"/>
			<path d="M158.444,118.768c0-0.612-0.024-1.092-0.048-1.572h0.924l0.048,0.936h0.036c0.324-0.552,0.864-1.068,1.836-1.068
				c0.78,0,1.38,0.48,1.632,1.164h0.024c0.18-0.336,0.42-0.576,0.66-0.756c0.348-0.264,0.72-0.408,1.272-0.408
				c0.78,0,1.92,0.504,1.92,2.52v3.42h-1.032v-3.288c0-1.128-0.42-1.788-1.26-1.788c-0.612,0-1.068,0.444-1.26,0.948
				c-0.048,0.156-0.084,0.348-0.084,0.528v3.6h-1.032v-3.48c0-0.936-0.408-1.596-1.212-1.596c-0.648,0-1.14,0.528-1.308,1.056
				c-0.06,0.156-0.084,0.336-0.084,0.516v3.504h-1.032V118.768z"/>
			<path d="M169.221,114.699l-0.192,2.88h-0.648l-0.192-2.88H169.221z"/>
			<path d="M171.477,114.699l-0.192,2.88h-0.648l-0.192-2.88H171.477z"/>
		</g>
		<g>
			<path d="M42.591,134.003v0.125c-0.223,0.012-0.403,0.043-0.542,0.094c-0.139,0.051-0.263,0.134-0.372,0.247
				c-0.152,0.157-0.246,0.374-0.281,0.652c-0.023,0.208-0.035,0.446-0.035,0.717v4.33c0,0.325,0.016,0.582,0.047,0.77
				s0.082,0.339,0.152,0.452c0.102,0.157,0.232,0.273,0.393,0.35c0.16,0.076,0.373,0.122,0.639,0.138v0.125h-3.742v-0.125
				c0.227-0.012,0.409-0.044,0.548-0.097s0.261-0.134,0.366-0.244c0.125-0.125,0.209-0.284,0.252-0.476
				c0.043-0.192,0.064-0.49,0.064-0.894v-4.33c0-0.403-0.021-0.701-0.064-0.893s-0.127-0.351-0.252-0.476
				c-0.105-0.113-0.229-0.196-0.369-0.247c-0.141-0.051-0.322-0.082-0.545-0.094v-0.125H42.591z"/>
			<path d="M78.591,134.003v0.125c-0.223,0.012-0.403,0.043-0.542,0.094c-0.139,0.051-0.263,0.134-0.372,0.247
				c-0.152,0.157-0.246,0.374-0.281,0.652c-0.023,0.208-0.035,0.446-0.035,0.717v4.33c0,0.325,0.016,0.582,0.047,0.77
				s0.082,0.339,0.152,0.452c0.102,0.157,0.232,0.273,0.393,0.35c0.16,0.076,0.373,0.122,0.639,0.138v0.125h-3.742v-0.125
				c0.227-0.012,0.409-0.044,0.548-0.097s0.261-0.134,0.366-0.244c0.125-0.125,0.209-0.284,0.252-0.476
				c0.043-0.192,0.064-0.49,0.064-0.894v-4.33c0-0.403-0.021-0.701-0.064-0.893s-0.127-0.351-0.252-0.476
				c-0.105-0.113-0.229-0.196-0.369-0.247c-0.141-0.051-0.322-0.082-0.545-0.094v-0.125H78.591z"/>
			<path d="M82.91,134.003v0.125c-0.223,0.012-0.403,0.043-0.542,0.094c-0.139,0.051-0.263,0.134-0.372,0.247
				c-0.152,0.157-0.246,0.374-0.281,0.652c-0.023,0.208-0.035,0.446-0.035,0.717v4.33c0,0.325,0.016,0.582,0.047,0.77
				s0.082,0.339,0.152,0.452c0.102,0.157,0.232,0.273,0.393,0.35c0.16,0.076,0.373,0.122,0.639,0.138v0.125h-3.742v-0.125
				c0.227-0.012,0.409-0.044,0.548-0.097s0.261-0.134,0.366-0.244c0.125-0.125,0.209-0.284,0.252-0.476
				c0.043-0.192,0.064-0.49,0.064-0.894v-4.33c0-0.403-0.021-0.701-0.064-0.893s-0.127-0.351-0.252-0.476
				c-0.105-0.113-0.229-0.196-0.369-0.247c-0.141-0.051-0.322-0.082-0.545-0.094v-0.125H82.91z"/>
			<path d="M87.228,134.003v0.125c-0.223,0.012-0.403,0.043-0.542,0.094c-0.139,0.051-0.263,0.134-0.372,0.247
				c-0.152,0.157-0.246,0.374-0.281,0.652c-0.023,0.208-0.035,0.446-0.035,0.717v4.33c0,0.325,0.016,0.582,0.047,0.77
				s0.082,0.339,0.152,0.452c0.102,0.157,0.232,0.273,0.393,0.35c0.16,0.076,0.373,0.122,0.639,0.138v0.125h-3.742v-0.125
				c0.227-0.012,0.409-0.044,0.548-0.097s0.261-0.134,0.366-0.244c0.125-0.125,0.209-0.284,0.252-0.476
				c0.043-0.192,0.064-0.49,0.064-0.894v-4.33c0-0.403-0.021-0.701-0.064-0.893s-0.127-0.351-0.252-0.476
				c-0.105-0.113-0.229-0.196-0.369-0.247c-0.141-0.051-0.322-0.082-0.545-0.094v-0.125H87.228z"/>
			<path d="M92.822,134.113l-2.854,7.243l-0.117,0.299c-0.066,0.161-0.142,0.277-0.226,0.349s-0.188,0.108-0.313,0.108
				c-0.137,0-0.254-0.043-0.352-0.129s-0.146-0.189-0.146-0.311c0-0.109,0.049-0.26,0.146-0.452l0.123-0.229l3.123-5.942h-2.555
				c-0.211,0-0.373,0.011-0.486,0.032s-0.213,0.06-0.299,0.114c-0.117,0.078-0.215,0.177-0.292,0.296
				c-0.078,0.12-0.179,0.324-0.304,0.613l-0.029,0.07h-0.125l0.531-2.329l0.125-0.016c0.027,0.132,0.07,0.215,0.129,0.248
				c0.059,0.034,0.186,0.051,0.381,0.051L92.822,134.113z"/>
			<path d="M110.365,134.003h3.848v0.125c-0.293,0.027-0.504,0.073-0.633,0.136c-0.121,0.059-0.219,0.15-0.292,0.274
				s-0.111,0.258-0.111,0.403c0,0.103,0.01,0.193,0.029,0.271c0.02,0.079,0.078,0.25,0.175,0.513l1.765,4.716l1.688-4.136
				c0.234-0.584,0.352-1.01,0.352-1.278c0-0.148-0.023-0.288-0.07-0.417s-0.109-0.229-0.188-0.3
				c-0.078-0.066-0.165-0.114-0.259-0.142c-0.095-0.027-0.217-0.041-0.366-0.041v-0.125h2.609v0.125
				c-0.215,0.02-0.402,0.073-0.561,0.159c-0.158,0.086-0.31,0.218-0.454,0.395c-0.098,0.125-0.201,0.297-0.308,0.515
				c-0.108,0.218-0.255,0.554-0.443,1.01l-2.406,5.796h-0.25l-2.344-5.99c-0.304-0.79-0.547-1.29-0.73-1.502
				c-0.117-0.133-0.26-0.23-0.429-0.292c-0.17-0.061-0.377-0.091-0.622-0.091V134.003z"/>
			<path d="M118.912,137.16l1.688-0.219v3.369l0.006,0.443c0,0.264,0.016,0.458,0.047,0.58s0.092,0.225,0.182,0.306
				c0.109,0.105,0.311,0.185,0.604,0.239v0.125h-2.596v-0.125c0.234-0.031,0.402-0.074,0.504-0.131
				c0.102-0.056,0.184-0.151,0.246-0.287c0.043-0.089,0.073-0.224,0.091-0.404s0.026-0.44,0.026-0.781v-1.435
				c0-0.399-0.01-0.679-0.029-0.839s-0.062-0.292-0.128-0.392c-0.065-0.108-0.146-0.187-0.238-0.235
				c-0.093-0.048-0.227-0.078-0.401-0.09V137.16z M120.13,134.832c-0.153,0-0.28-0.049-0.381-0.146s-0.15-0.221-0.15-0.369
				c0-0.145,0.051-0.267,0.153-0.366s0.229-0.149,0.378-0.149s0.275,0.05,0.378,0.149c0.102,0.1,0.153,0.222,0.153,0.366
				c0,0.148-0.05,0.271-0.15,0.369C120.411,134.783,120.284,134.832,120.13,134.832z"/>
			<path d="M126.906,134.113l-2.854,7.243l-0.117,0.299c-0.066,0.161-0.142,0.277-0.226,0.349s-0.188,0.108-0.313,0.108
				c-0.137,0-0.254-0.043-0.352-0.129s-0.146-0.189-0.146-0.311c0-0.109,0.049-0.26,0.146-0.452l0.123-0.229l3.123-5.942h-2.555
				c-0.211,0-0.373,0.011-0.486,0.032s-0.213,0.06-0.299,0.114c-0.117,0.078-0.215,0.177-0.292,0.296
				c-0.078,0.12-0.179,0.324-0.304,0.613l-0.029,0.07h-0.125l0.531-2.329l0.125-0.016c0.027,0.132,0.07,0.215,0.129,0.248
				c0.059,0.034,0.186,0.051,0.381,0.051L126.906,134.113z"/>
			<path d="M150.591,134.003v0.125c-0.223,0.012-0.403,0.043-0.542,0.094c-0.139,0.051-0.263,0.134-0.372,0.247
				c-0.152,0.157-0.246,0.374-0.281,0.652c-0.023,0.208-0.035,0.446-0.035,0.717v4.33c0,0.325,0.016,0.582,0.047,0.77
				s0.082,0.339,0.152,0.452c0.102,0.157,0.232,0.273,0.393,0.35c0.16,0.076,0.373,0.122,0.639,0.138v0.125h-3.742v-0.125
				c0.227-0.012,0.409-0.044,0.548-0.097s0.261-0.134,0.366-0.244c0.125-0.125,0.209-0.284,0.252-0.476
				c0.043-0.192,0.064-0.49,0.064-0.894v-4.33c0-0.403-0.021-0.701-0.064-0.893s-0.127-0.351-0.252-0.476
				c-0.105-0.113-0.229-0.196-0.369-0.247c-0.141-0.051-0.322-0.082-0.545-0.094v-0.125H150.591z"/>
			<path d="M154.91,134.003v0.125c-0.223,0.012-0.403,0.043-0.542,0.094c-0.139,0.051-0.263,0.134-0.372,0.247
				c-0.152,0.157-0.246,0.374-0.281,0.652c-0.023,0.208-0.035,0.446-0.035,0.717v4.33c0,0.325,0.016,0.582,0.047,0.77
				s0.082,0.339,0.152,0.452c0.102,0.157,0.232,0.273,0.393,0.35c0.16,0.076,0.373,0.122,0.639,0.138v0.125h-3.742v-0.125
				c0.227-0.012,0.409-0.044,0.548-0.097s0.261-0.134,0.366-0.244c0.125-0.125,0.209-0.284,0.252-0.476
				c0.043-0.192,0.064-0.49,0.064-0.894v-4.33c0-0.403-0.021-0.701-0.064-0.893s-0.127-0.351-0.252-0.476
				c-0.105-0.113-0.229-0.196-0.369-0.247c-0.141-0.051-0.322-0.082-0.545-0.094v-0.125H154.91z"/>
			<path d="M160.503,134.113l-2.854,7.243l-0.117,0.299c-0.066,0.161-0.142,0.277-0.226,0.349s-0.188,0.108-0.313,0.108
				c-0.137,0-0.254-0.043-0.352-0.129s-0.146-0.189-0.146-0.311c0-0.109,0.049-0.26,0.146-0.452l0.123-0.229l3.123-5.942h-2.555
				c-0.211,0-0.373,0.011-0.486,0.032s-0.213,0.06-0.299,0.114c-0.117,0.078-0.215,0.177-0.292,0.296
				c-0.078,0.12-0.179,0.324-0.304,0.613l-0.029,0.07h-0.125l0.531-2.329l0.125-0.016c0.027,0.132,0.07,0.215,0.129,0.248
				c0.059,0.034,0.186,0.051,0.381,0.051L160.503,134.113z"/>
			<path d="M38.779,151.66l1.688-0.219v3.369l0.006,0.443c0,0.264,0.016,0.458,0.047,0.58s0.092,0.225,0.182,0.306
				c0.109,0.105,0.311,0.185,0.604,0.239v0.125h-2.596v-0.125c0.234-0.031,0.402-0.074,0.504-0.131
				c0.102-0.056,0.184-0.151,0.246-0.287c0.043-0.089,0.073-0.224,0.091-0.404s0.026-0.44,0.026-0.781v-1.435
				c0-0.399-0.01-0.679-0.029-0.839s-0.062-0.292-0.128-0.392c-0.065-0.108-0.146-0.187-0.238-0.235
				c-0.093-0.048-0.227-0.078-0.401-0.09V151.66z M39.998,149.332c-0.153,0-0.28-0.049-0.381-0.146s-0.15-0.221-0.15-0.369
				c0-0.145,0.051-0.267,0.153-0.366s0.229-0.149,0.378-0.149s0.275,0.05,0.378,0.149c0.102,0.1,0.153,0.222,0.153,0.366
				c0,0.148-0.05,0.271-0.15,0.369C40.278,149.283,40.151,149.332,39.998,149.332z"/>
			<path d="M41.685,151.66l1.688-0.219v3.369l0.006,0.443c0,0.264,0.016,0.458,0.047,0.58s0.092,0.225,0.182,0.306
				c0.109,0.105,0.311,0.185,0.604,0.239v0.125h-2.596v-0.125c0.234-0.031,0.402-0.074,0.504-0.131
				c0.102-0.056,0.184-0.151,0.246-0.287c0.043-0.089,0.073-0.224,0.091-0.404s0.026-0.44,0.026-0.781v-1.435
				c0-0.399-0.01-0.679-0.029-0.839s-0.062-0.292-0.128-0.392c-0.065-0.108-0.146-0.187-0.238-0.235
				c-0.093-0.048-0.227-0.078-0.401-0.09V151.66z M42.904,149.332c-0.153,0-0.28-0.049-0.381-0.146s-0.15-0.221-0.15-0.369
				c0-0.145,0.051-0.267,0.153-0.366s0.229-0.149,0.378-0.149s0.275,0.05,0.378,0.149c0.102,0.1,0.153,0.222,0.153,0.366
				c0,0.148-0.05,0.271-0.15,0.369C43.184,149.283,43.057,149.332,42.904,149.332z"/>
			<path d="M49.679,148.613l-2.854,7.243l-0.117,0.299c-0.066,0.161-0.142,0.277-0.226,0.349s-0.188,0.108-0.313,0.108
				c-0.137,0-0.254-0.043-0.352-0.129s-0.146-0.189-0.146-0.311c0-0.109,0.049-0.26,0.146-0.452l0.123-0.229l3.123-5.942h-2.555
				c-0.211,0-0.373,0.011-0.486,0.032s-0.213,0.06-0.299,0.114c-0.117,0.078-0.215,0.177-0.292,0.296
				c-0.078,0.12-0.179,0.324-0.304,0.613l-0.029,0.07h-0.125l0.531-2.329l0.125-0.016c0.027,0.132,0.07,0.215,0.129,0.248
				c0.059,0.034,0.186,0.051,0.381,0.051L49.679,148.613z"/>
			<path d="M74.365,148.503h3.848v0.125c-0.293,0.027-0.504,0.073-0.633,0.136c-0.121,0.059-0.219,0.15-0.292,0.274
				s-0.111,0.258-0.111,0.403c0,0.103,0.01,0.193,0.029,0.271c0.02,0.079,0.078,0.25,0.175,0.513l1.765,4.716l1.688-4.136
				c0.234-0.584,0.352-1.01,0.352-1.278c0-0.148-0.023-0.288-0.07-0.417s-0.109-0.229-0.188-0.3
				c-0.078-0.066-0.165-0.114-0.259-0.142c-0.095-0.027-0.217-0.041-0.366-0.041v-0.125h2.609v0.125
				c-0.215,0.02-0.402,0.073-0.561,0.159c-0.158,0.086-0.31,0.218-0.454,0.395c-0.098,0.125-0.201,0.297-0.308,0.515
				c-0.108,0.218-0.255,0.554-0.443,1.01l-2.406,5.796h-0.25l-2.344-5.99c-0.304-0.79-0.547-1.29-0.73-1.502
				c-0.117-0.133-0.26-0.23-0.429-0.292c-0.17-0.061-0.377-0.091-0.622-0.091V148.503z"/>
			<path d="M88,148.613l-2.854,7.243l-0.117,0.299c-0.066,0.161-0.142,0.277-0.226,0.349s-0.188,0.108-0.313,0.108
				c-0.137,0-0.254-0.043-0.352-0.129s-0.146-0.189-0.146-0.311c0-0.109,0.049-0.26,0.146-0.452l0.123-0.229l3.123-5.942H84.83
				c-0.211,0-0.373,0.011-0.486,0.032s-0.213,0.06-0.299,0.114c-0.117,0.078-0.215,0.177-0.292,0.296
				c-0.078,0.12-0.179,0.324-0.304,0.613l-0.029,0.07h-0.125l0.531-2.329l0.125-0.016c0.027,0.132,0.07,0.215,0.129,0.248
				c0.059,0.034,0.186,0.051,0.381,0.051L88,148.613z"/>
			<path d="M114.591,148.503v0.125c-0.223,0.012-0.403,0.043-0.542,0.094c-0.139,0.051-0.263,0.134-0.372,0.247
				c-0.152,0.157-0.246,0.374-0.281,0.652c-0.023,0.208-0.035,0.446-0.035,0.717v4.33c0,0.325,0.016,0.582,0.047,0.77
				s0.082,0.339,0.152,0.452c0.102,0.157,0.232,0.273,0.393,0.35c0.16,0.076,0.373,0.122,0.639,0.138v0.125h-3.742v-0.125
				c0.227-0.012,0.409-0.044,0.548-0.097s0.261-0.134,0.366-0.244c0.125-0.125,0.209-0.284,0.252-0.476
				c0.043-0.192,0.064-0.49,0.064-0.894v-4.33c0-0.403-0.021-0.701-0.064-0.893s-0.127-0.351-0.252-0.476
				c-0.105-0.113-0.229-0.196-0.369-0.247c-0.141-0.051-0.322-0.082-0.545-0.094v-0.125H114.591z"/>
			<path d="M124.91,148.503v0.125c-0.223,0.012-0.403,0.043-0.542,0.094c-0.139,0.051-0.263,0.134-0.372,0.247
				c-0.152,0.157-0.246,0.374-0.281,0.652c-0.023,0.208-0.035,0.446-0.035,0.717v4.33c0,0.325,0.016,0.582,0.047,0.77
				s0.082,0.339,0.152,0.452c0.102,0.157,0.232,0.273,0.393,0.35c0.16,0.076,0.373,0.122,0.639,0.138v0.125h-3.742v-0.125
				c0.227-0.012,0.409-0.044,0.548-0.097s0.261-0.134,0.366-0.244c0.125-0.125,0.209-0.284,0.252-0.476
				c0.043-0.192,0.064-0.49,0.064-0.894v-4.33c0-0.403-0.021-0.701-0.064-0.893s-0.127-0.351-0.252-0.476
				c-0.105-0.113-0.229-0.196-0.369-0.247c-0.141-0.051-0.322-0.082-0.545-0.094v-0.125H124.91z"/>
			<path d="M131.097,147.983v7.02c0,0.516,0.012,1.104,0.048,1.5h-0.948l-0.048-1.008h-0.024c-0.324,0.648-1.02,1.14-1.968,1.14
				c-1.404,0-2.496-1.188-2.496-2.952c-0.012-1.944,1.2-3.12,2.604-3.12c0.9,0,1.5,0.42,1.752,0.876h0.024v-3.456H131.097z
				 M130.041,153.06c0-0.144-0.012-0.312-0.048-0.456c-0.156-0.66-0.732-1.212-1.524-1.212c-1.092,0-1.74,0.96-1.74,2.232
				c0,1.188,0.588,2.16,1.716,2.16c0.708,0,1.356-0.48,1.548-1.26c0.036-0.144,0.048-0.288,0.048-0.456V153.06z"/>
			<path d="M133.353,149.627c-0.396,0-0.66-0.312-0.66-0.684s0.276-0.672,0.684-0.672c0.408,0,0.672,0.3,0.672,0.672
				s-0.264,0.684-0.684,0.684H133.353z M132.849,156.503v-5.808h1.056v5.808H132.849z"/>
			<path d="M135.656,152.268c0-0.612-0.024-1.092-0.048-1.572h0.924l0.048,0.936h0.036c0.324-0.552,0.864-1.068,1.836-1.068
				c0.78,0,1.38,0.48,1.632,1.164h0.024c0.18-0.336,0.42-0.576,0.66-0.756c0.348-0.264,0.72-0.408,1.272-0.408
				c0.78,0,1.92,0.504,1.92,2.52v3.42h-1.032v-3.288c0-1.128-0.42-1.788-1.26-1.788c-0.612,0-1.068,0.444-1.26,0.948
				c-0.048,0.156-0.084,0.348-0.084,0.528v3.6h-1.032v-3.48c0-0.936-0.408-1.596-1.212-1.596c-0.648,0-1.14,0.528-1.308,1.056
				c-0.06,0.156-0.084,0.336-0.084,0.516v3.504h-1.032V152.268z"/>
			<path d="M153.591,148.503v0.125c-0.223,0.012-0.403,0.043-0.542,0.094c-0.139,0.051-0.263,0.134-0.372,0.247
				c-0.152,0.157-0.246,0.374-0.281,0.652c-0.023,0.208-0.035,0.446-0.035,0.717v4.33c0,0.325,0.016,0.582,0.047,0.77
				s0.082,0.339,0.152,0.452c0.102,0.157,0.232,0.273,0.393,0.35c0.16,0.076,0.373,0.122,0.639,0.138v0.125h-3.742v-0.125
				c0.227-0.012,0.409-0.044,0.548-0.097s0.261-0.134,0.366-0.244c0.125-0.125,0.209-0.284,0.252-0.476
				c0.043-0.192,0.064-0.49,0.064-0.894v-4.33c0-0.403-0.021-0.701-0.064-0.893s-0.127-0.351-0.252-0.476
				c-0.105-0.113-0.229-0.196-0.369-0.247c-0.141-0.051-0.322-0.082-0.545-0.094v-0.125H153.591z"/>
		</g>
	</g>
</svg>
