<?xml version="1.0" encoding="utf-8"?>
<!-- Generator: Adobe Illustrator 10.0, SVG Export Plug-In . SVG Version: 3.0.0 Build 76)  -->
<!DOCTYPE svg PUBLIC "-//W3C//DTD SVG 1.0//EN"    "http://www.w3.org/TR/2001/REC-SVG-20010904/DTD/svg10.dtd" [
	<!ENTITY ns_flows "http://ns.adobe.com/Flows/1.0/">
	<!ENTITY ns_extend "http://ns.adobe.com/Extensibility/1.0/">
	<!ENTITY ns_ai "http://ns.adobe.com/AdobeIllustrator/10.0/">
	<!ENTITY ns_svg "http://www.w3.org/2000/svg">
	<!ENTITY ns_xlink "http://www.w3.org/1999/xlink">
]>
<svg  xmlns:x="&ns_extend;" xmlns:i="&ns_ai;" xmlns:graph="&ns_graphs;"
	 xmlns="&ns_svg;" xmlns:xlink="&ns_xlink;" xmlns:a="http://ns.adobe.com/AdobeSVGViewerExtensions/3.0/" width="477" height="80"
	 viewBox="0.125 0.086 477 80" overflow="visible" enable-background="new 0.125 0.086 477 80" xml:space="preserve">
	<g id="Layer_1_2_">
		<g>
			<path fill="none" stroke="#000000" d="M0.128,10.421h476.997"/>
			<path fill="none" stroke="#000000" d="M0.128,24.533h476.997"/>
			<path fill="none" stroke="#000000" d="M0.365,31.656h476.997"/>
			<path fill="none" stroke="#000000" d="M0,39.039h476.996"/>
			<path fill="none" stroke="#000000" d="M0,17.675h476.996"/>
		</g>
		<path fill="none" stroke="#0A0A0A" d="M127.9,10.571v29.746"/>
		<g>
			<path d="M23.232,7.512V3.6h0.696v3.672l2.352-0.768V3h0.696v3.288l0.936-0.312v2.496l-0.936,0.312v3.552l0.936-0.288v2.472
				l-0.936,0.312v3.912H26.28v-3.696l-2.352,0.768v3.552h-0.696v-3.312L22.2,16.392v-2.496l1.032-0.336V9.984L22.2,10.32V7.848
				L23.232,7.512z M23.928,9.768v3.576l2.352-0.768V9L23.928,9.768z"/>
		</g>
		<g>
			<path d="M8.152,37.944c-4.944-2.352-5.736-5.376-5.952-8.472c-0.24-3.36,1.896-6.768,3.888-8.664
				c1.152-1.08,2.4-2.136,3.888-3.264c-0.048-0.84-0.24-1.176-0.336-2.376C9.616,14.664,9.304,12.312,9.808,9.6
				c0.312-1.608,2.328-5.4,3.72-5.424c1.08-0.024,2.736,4.296,2.784,6.456c0.072,3.336-0.72,4.848-1.704,6.576
				c-0.504,0.864-1.032,1.464-1.584,2.136c-0.576,0.696-1.224,1.104-1.824,1.632c0,0,0.768,4.344,0.792,4.656
				c1.536-0.192,3.408,0.36,4.08,0.84c1.704,1.272,2.352,3.024,2.472,4.728c0.216,2.712-1.272,5.568-4.56,6.936
				c0,0,0.504,3.456,0.624,4.176c0.264,1.896,0.216,3.096-0.192,3.864c-0.696,1.296-1.824,2.496-4.008,2.64
				c-1.68,0.096-4.992-0.744-5.16-3.384c-0.096-1.56,0.6-3.24,2.496-3.36c1.152-0.096,2.52,0.864,2.616,2.232
				c0.096,1.176-0.672,2.4-2.664,2.952c0.312,0.432,1.248,0.936,2.592,0.936c1.392,0,2.832-0.936,3.528-2.184
				c0.432-0.816,0.384-2.28,0.216-3.624c-0.072-0.456-0.648-4.08-0.648-4.08C11.608,38.592,9.16,38.424,8.152,37.944z M8.632,32.256
				c0.048,1.152,1.008,2.496,1.896,2.952c-0.12,0.072-0.24,0.264-0.24,0.264c-0.984-0.48-1.824-1.272-2.04-1.56
				c-0.696-0.936-0.984-1.464-1.08-2.88c-0.096-1.32,0.624-3.096,2.232-4.344c0.84-0.624,1.248-0.768,1.968-0.936l-0.72-4.344
				c-0.744,0.432-3.816,2.904-5.112,4.92c-1.152,1.8-1.848,3.24-1.704,5.016c0.288,4.008,4.68,7.296,9.432,6.168
				c0,0-1.416-8.52-1.392-8.52C9.256,29.088,8.56,31.104,8.632,32.256z M10.576,17.04c2.088-1.632,4.92-4.704,4.752-7.08
				c-0.048-0.744-0.36-2.088-1.44-2.064C11.416,7.92,10.024,13.08,10.576,17.04z M13.84,37.32c2.76-0.936,2.88-3.312,2.784-4.728
				c-0.096-1.176-0.624-3.816-4.128-3.648L13.84,37.32z"/>
		</g>
		<g>
			<path d="M256.824,21.008c0,0.216,0,1.536,0,1.536c0.912-0.816,1.416-0.984,2.424-1.008c1.2-0.024,1.968,1.176,1.992,2.136
				c0.024,0.504-0.12,1.032-0.312,1.44c-0.216,0.528-0.792,0.936-1.176,1.32C259.32,26.864,256.2,29,256.2,29.048V14.864h0.624
				C256.824,14.864,256.848,17.84,256.824,21.008z M257.088,23.384c-0.312,0.6-0.264,1.632-0.264,2.376v2.064
				c0,0.024,0.864-0.72,1.344-1.176c0.432-0.408,0.768-0.864,0.936-1.584c0.192-0.72,0.12-1.488-0.336-1.992
				C258.456,22.712,257.592,22.424,257.088,23.384z"/>
		</g>
		<path fill="none" stroke="#0A0A0A" d="M131.9,10.571v29.746"/>
		<path fill="none" stroke="#0A0A0A" d="M243.901,9.571v29.746"/>
		<path fill="none" stroke="#0A0A0A" d="M247.901,9.571v29.746"/>
		<path fill="none" stroke="#0A0A0A" d="M360.901,9.571v29.746"/>
		<path fill="none" stroke="#0A0A0A" d="M364.901,9.571v29.746"/>
		<path fill="none" stroke="#0A0A0A" d="M473.063,9.971v29.746"/>
		<path fill="none" stroke="#0A0A0A" d="M477.063,9.971v29.746"/>
		<g>
			<path d="M32.232,16.512V12.6h0.696v3.672l2.352-0.768V12h0.696v3.288l0.936-0.312v2.496l-0.936,0.312v3.552l0.936-0.288v2.472
				l-0.936,0.312v3.912H35.28v-3.696l-2.352,0.768v3.552h-0.696v-3.312L31.2,25.392v-2.496l1.032-0.336v-3.576L31.2,19.32v-2.472
				L32.232,16.512z M32.928,18.768v3.576l2.352-0.768V18L32.928,18.768z"/>
		</g>
		<g>
			<path d="M173.232,24.512V20.6h0.696v3.672l2.352-0.768V20h0.696v3.288l0.936-0.312v2.496l-0.936,0.312v3.552l0.936-0.288v2.472
				l-0.936,0.312v3.912h-0.696v-3.696l-2.352,0.768v3.552h-0.696v-3.312l-1.032,0.336v-2.496l1.032-0.336v-3.576L172.2,27.32v-2.472
				L173.232,24.512z M173.928,26.768v3.576l2.352-0.768V26L173.928,26.768z"/>
		</g>
		<g>
			<path d="M137.232,7.512V3.6h0.696v3.672l2.352-0.768V3h0.696v3.288l0.936-0.312v2.496l-0.936,0.312v3.552l0.936-0.288v2.472
				l-0.936,0.312v3.912h-0.696v-3.696l-2.352,0.768v3.552h-0.696v-3.312l-1.032,0.336v-2.496l1.032-0.336V9.984L136.2,10.32V7.848
				L137.232,7.512z M137.928,9.768v3.576l2.352-0.768V9L137.928,9.768z"/>
		</g>
		<g>
			<path d="M146.232,16.512V12.6h0.696v3.672l2.352-0.768V12h0.696v3.288l0.936-0.312v2.496l-0.936,0.312v3.552l0.936-0.288v2.472
				l-0.936,0.312v3.912h-0.696v-3.696l-2.352,0.768v3.552h-0.696v-3.312l-1.032,0.336v-2.496l1.032-0.336v-3.576L145.2,19.32v-2.472
				L146.232,16.512z M146.928,18.768v3.576l2.352-0.768V18L146.928,18.768z"/>
		</g>
		<g>
			<path d="M154.232,4.512V0.6h0.696v3.672l2.352-0.768V0h0.696v3.288l0.936-0.312v2.496l-0.936,0.312v3.552l0.936-0.288v2.472
				l-0.936,0.312v3.912h-0.696v-3.696l-2.352,0.768v3.552h-0.696v-3.312l-1.032,0.336v-2.496l1.032-0.336V6.984L153.2,7.32V4.848
				L154.232,4.512z M154.928,6.768v3.576l2.352-0.768V6L154.928,6.768z"/>
		</g>
		<g>
			<path d="M163.232,13.512V9.6h0.696v3.672l2.352-0.768V9h0.696v3.288l0.936-0.312v2.496l-0.936,0.312v3.552l0.936-0.288v2.472
				l-0.936,0.312v3.912h-0.696v-3.696l-2.352,0.768v3.552h-0.696v-3.312l-1.032,0.336v-2.496l1.032-0.336v-3.576L162.2,16.32v-2.472
				L163.232,13.512z M163.928,15.768v3.576l2.352-0.768V15L163.928,15.768z"/>
		</g>
		<g>
			<path d="M265.824,10.008c0,0.216,0,1.536,0,1.536c0.912-0.816,1.416-0.984,2.424-1.008c1.2-0.024,1.968,1.176,1.992,2.136
				c0.024,0.504-0.12,1.032-0.312,1.44c-0.216,0.528-0.792,0.936-1.176,1.32C268.32,15.864,265.2,18,265.2,18.048V3.864h0.624
				C265.824,3.864,265.848,6.84,265.824,10.008z M266.088,12.384c-0.312,0.6-0.264,1.632-0.264,2.376v2.064
				c0,0.024,0.864-0.72,1.344-1.176c0.432-0.408,0.768-0.864,0.936-1.584c0.192-0.72,0.12-1.488-0.336-1.992
				C267.456,11.712,266.592,11.424,266.088,12.384z"/>
		</g>
		<g>
			<path d="M371.824,21.008c0,0.216,0,1.536,0,1.536c0.912-0.816,1.416-0.984,2.424-1.008c1.2-0.024,1.968,1.176,1.992,2.136
				c0.024,0.504-0.12,1.032-0.313,1.44c-0.216,0.528-0.792,0.936-1.176,1.32C374.32,26.864,371.2,29,371.2,29.048V14.864h0.624
				C371.824,14.864,371.848,17.84,371.824,21.008z M372.087,23.384c-0.312,0.6-0.264,1.632-0.264,2.376v2.064
				c0,0.024,0.864-0.72,1.344-1.176c0.433-0.408,0.769-0.864,0.937-1.584c0.191-0.72,0.12-1.488-0.336-1.992
				C373.456,22.712,372.591,22.424,372.087,23.384z"/>
		</g>
		<g>
			<path d="M380.824,10.008c0,0.216,0,1.536,0,1.536c0.912-0.816,1.416-0.984,2.424-1.008c1.2-0.024,1.968,1.176,1.992,2.136
				c0.024,0.504-0.12,1.032-0.313,1.44c-0.216,0.528-0.792,0.936-1.176,1.32C383.32,15.864,380.2,18,380.2,18.048V3.864h0.624
				C380.824,3.864,380.848,6.84,380.824,10.008z M381.087,12.384c-0.312,0.6-0.264,1.632-0.264,2.376v2.064
				c0,0.024,0.864-0.72,1.344-1.176c0.433-0.408,0.769-0.864,0.937-1.584c0.191-0.72,0.12-1.488-0.336-1.992
				C382.456,11.712,381.591,11.424,381.087,12.384z"/>
		</g>
		<g>
			<path d="M388.824,25.008c0,0.216,0,1.536,0,1.536c0.912-0.816,1.416-0.984,2.424-1.008c1.2-0.024,1.968,1.176,1.992,2.136
				c0.024,0.504-0.12,1.032-0.313,1.44c-0.216,0.528-0.792,0.936-1.176,1.32C391.32,30.864,388.2,33,388.2,33.048V18.864h0.624
				C388.824,18.864,388.848,21.84,388.824,25.008z M389.087,27.384c-0.312,0.6-0.264,1.632-0.264,2.376v2.064
				c0,0.024,0.864-0.72,1.344-1.176c0.433-0.408,0.769-0.864,0.937-1.584c0.191-0.72,0.12-1.488-0.336-1.992
				C390.456,26.712,389.591,26.424,389.087,27.384z"/>
		</g>
		<g>
			<path d="M397.824,14.008c0,0.216,0,1.536,0,1.536c0.912-0.816,1.416-0.984,2.424-1.008c1.2-0.024,1.968,1.176,1.992,2.136
				c0.024,0.504-0.12,1.032-0.313,1.44c-0.216,0.528-0.792,0.936-1.176,1.32C400.32,19.864,397.2,22,397.2,22.048V7.864h0.624
				C397.824,7.864,397.848,10.84,397.824,14.008z M398.087,16.384c-0.312,0.6-0.264,1.632-0.264,2.376v2.064
				c0,0.024,0.864-0.72,1.344-1.176c0.433-0.408,0.769-0.864,0.937-1.584c0.191-0.72,0.12-1.488-0.336-1.992
				C399.456,15.712,398.591,15.424,398.087,16.384z"/>
		</g>
		<g>
			<path d="M404.824,28.008c0,0.216,0,1.536,0,1.536c0.912-0.816,1.416-0.984,2.424-1.008c1.2-0.024,1.968,1.176,1.992,2.136
				c0.024,0.504-0.12,1.032-0.313,1.44c-0.216,0.528-0.792,0.936-1.176,1.32C407.32,33.864,404.2,36,404.2,36.048V21.864h0.624
				C404.824,21.864,404.848,24.84,404.824,28.008z M405.087,30.384c-0.312,0.6-0.264,1.632-0.264,2.376v2.064
				c0,0.024,0.864-0.72,1.344-1.176c0.433-0.408,0.769-0.864,0.937-1.584c0.191-0.72,0.12-1.488-0.336-1.992
				C406.456,29.712,405.591,29.424,405.087,30.384z"/>
		</g>
		<g>
			<path d="M413.824,17.008c0,0.216,0,1.536,0,1.536c0.912-0.816,1.416-0.984,2.424-1.008c1.2-0.024,1.968,1.176,1.992,2.136
				c0.024,0.504-0.12,1.032-0.313,1.44c-0.216,0.528-0.792,0.936-1.176,1.32C416.32,22.864,413.2,25,413.2,25.048V10.864h0.624
				C413.824,10.864,413.848,13.84,413.824,17.008z M414.087,19.384c-0.312,0.6-0.264,1.632-0.264,2.376v2.064
				c0,0.024,0.864-0.72,1.344-1.176c0.433-0.408,0.769-0.864,0.937-1.584c0.191-0.72,0.12-1.488-0.336-1.992
				C415.456,18.712,414.591,18.424,414.087,19.384z"/>
		</g>
		<g>
			<path d="M52.024,55.106c0.648-0.096,1.404-0.168,2.232-0.168c1.5,0,2.568,0.336,3.276,0.996c0.732,0.66,1.152,1.608,1.152,2.916
				c0,1.32-0.42,2.4-1.164,3.144c-0.768,0.756-2.016,1.164-3.588,1.164c-0.756,0-1.368-0.024-1.908-0.096V55.106z M53.081,62.27
				c0.264,0.048,0.648,0.048,1.056,0.048c2.232,0.012,3.444-1.248,3.444-3.432c0.012-1.932-1.068-3.12-3.276-3.12
				c-0.54,0-0.948,0.048-1.224,0.108V62.27z"/>
			<path d="M62.536,58.85c0-0.612-0.024-1.092-0.048-1.572h0.924l0.048,0.936h0.036c0.324-0.552,0.864-1.068,1.836-1.068
				c0.78,0,1.38,0.48,1.632,1.164h0.024c0.18-0.336,0.42-0.576,0.66-0.756c0.348-0.264,0.72-0.408,1.272-0.408
				c0.78,0,1.92,0.504,1.92,2.52v3.42h-1.032v-3.288c0-1.128-0.42-1.788-1.26-1.788c-0.612,0-1.068,0.444-1.26,0.948
				c-0.048,0.156-0.084,0.348-0.084,0.528v3.6h-1.032v-3.48c0-0.936-0.408-1.596-1.212-1.596c-0.648,0-1.14,0.528-1.308,1.056
				c-0.06,0.156-0.084,0.336-0.084,0.516v3.504h-1.032V58.85z"/>
			<path d="M76.636,61.694c0,0.504,0.024,0.996,0.084,1.392h-0.948l-0.096-0.732H75.64c-0.312,0.456-0.948,0.864-1.776,0.864
				c-1.176,0-1.776-0.828-1.776-1.668c0-1.404,1.248-2.172,3.492-2.16v-0.12c0-0.48-0.132-1.356-1.32-1.344
				c-0.552,0-1.116,0.156-1.524,0.432l-0.24-0.708c0.48-0.3,1.188-0.504,1.92-0.504c1.788,0,2.22,1.212,2.22,2.376V61.694z
				 M75.604,60.122c-1.152-0.024-2.46,0.18-2.46,1.308c0,0.696,0.456,1.008,0.984,1.008c0.768,0,1.26-0.48,1.428-0.972
				c0.036-0.108,0.048-0.228,0.048-0.336V60.122z"/>
			<path d="M76.9,64.79c0.492-0.036,0.9-0.168,1.152-0.444c0.288-0.324,0.408-0.792,0.408-2.184v-4.884h1.056v5.292
				c0,1.128-0.18,1.86-0.696,2.388c-0.468,0.468-1.236,0.66-1.8,0.66L76.9,64.79z M78.964,56.21c-0.396,0-0.66-0.312-0.66-0.684
				s0.276-0.672,0.684-0.672c0.408,0,0.672,0.3,0.672,0.672s-0.252,0.684-0.684,0.684H78.964z"/>
			<path d="M83.608,63.218c-1.56,0-2.784-1.152-2.784-2.988c0-1.944,1.284-3.084,2.88-3.084c1.668,0,2.796,1.212,2.796,2.976
				c0,2.16-1.5,3.096-2.88,3.096H83.608z M83.644,62.426c1.008,0,1.764-0.948,1.764-2.268c0-0.984-0.492-2.22-1.74-2.22
				c-1.236,0-1.776,1.152-1.776,2.256c0,1.272,0.72,2.232,1.74,2.232H83.644z"/>
			<path d="M87.844,59.09c0-0.684-0.012-1.272-0.048-1.812h0.924l0.048,1.14h0.036c0.264-0.78,0.912-1.272,1.62-1.272
				c0.108,0,0.192,0.012,0.288,0.036v0.984c-0.12-0.012-0.228-0.024-0.372-0.024c-0.744,0-1.272,0.564-1.416,1.344
				c-0.024,0.156-0.036,0.324-0.036,0.504v3.096h-1.056L87.844,59.09z"/>
			<path d="M144.388,55.118c0.456-0.108,1.188-0.18,1.908-0.18c1.044,0,1.716,0.18,2.208,0.588c0.42,0.312,0.684,0.792,0.684,1.428
				c0,0.792-0.528,1.476-1.368,1.776v0.036c0.768,0.18,1.668,0.816,1.668,2.016c0,0.696-0.276,1.224-0.696,1.62
				c-0.552,0.516-1.464,0.756-2.784,0.756c-0.72,0-1.272-0.048-1.62-0.096V55.118z M145.432,58.43h0.948
				c1.092,0,1.74-0.588,1.74-1.368c0-0.936-0.708-1.32-1.764-1.32c-0.48,0-0.756,0.036-0.924,0.072V58.43z M145.432,62.294
				c0.216,0.036,0.504,0.048,0.876,0.048c1.08,0,2.076-0.396,2.076-1.572c0-1.092-0.948-1.56-2.088-1.56h-0.864V62.294z"/>
			<path d="M153.399,58.85c0-0.612-0.024-1.092-0.048-1.572h0.924l0.048,0.936h0.036c0.324-0.552,0.864-1.068,1.836-1.068
				c0.78,0,1.38,0.48,1.632,1.164h0.024c0.18-0.336,0.42-0.576,0.66-0.756c0.348-0.264,0.72-0.408,1.272-0.408
				c0.78,0,1.92,0.504,1.92,2.52v3.42h-1.032v-3.288c0-1.128-0.42-1.788-1.26-1.788c-0.612,0-1.068,0.444-1.26,0.948
				c-0.048,0.156-0.084,0.348-0.084,0.528v3.6h-1.032v-3.48c0-0.936-0.408-1.596-1.212-1.596c-0.648,0-1.14,0.528-1.308,1.056
				c-0.06,0.156-0.084,0.336-0.084,0.516v3.504h-1.032V58.85z"/>
			<path d="M167.5,61.694c0,0.504,0.024,0.996,0.084,1.392h-0.948l-0.096-0.732h-0.036c-0.312,0.456-0.948,0.864-1.776,0.864
				c-1.176,0-1.776-0.828-1.776-1.668c0-1.404,1.248-2.172,3.492-2.16v-0.12c0-0.48-0.132-1.356-1.32-1.344
				c-0.552,0-1.116,0.156-1.524,0.432l-0.24-0.708c0.48-0.3,1.188-0.504,1.92-0.504c1.788,0,2.22,1.212,2.22,2.376V61.694z
				 M166.467,60.122c-1.152-0.024-2.46,0.18-2.46,1.308c0,0.696,0.456,1.008,0.984,1.008c0.768,0,1.26-0.48,1.428-0.972
				c0.036-0.108,0.048-0.228,0.048-0.336V60.122z"/>
			<path d="M167.763,64.79c0.492-0.036,0.9-0.168,1.152-0.444c0.288-0.324,0.408-0.792,0.408-2.184v-4.884h1.056v5.292
				c0,1.128-0.18,1.86-0.696,2.388c-0.468,0.468-1.236,0.66-1.8,0.66L167.763,64.79z M169.827,56.21c-0.396,0-0.66-0.312-0.66-0.684
				s0.276-0.672,0.684-0.672c0.408,0,0.672,0.3,0.672,0.672s-0.252,0.684-0.684,0.684H169.827z"/>
			<path d="M174.471,63.218c-1.56,0-2.784-1.152-2.784-2.988c0-1.944,1.284-3.084,2.88-3.084c1.668,0,2.796,1.212,2.796,2.976
				c0,2.16-1.5,3.096-2.88,3.096H174.471z M174.507,62.426c1.008,0,1.764-0.948,1.764-2.268c0-0.984-0.492-2.22-1.74-2.22
				c-1.236,0-1.776,1.152-1.776,2.256c0,1.272,0.72,2.232,1.74,2.232H174.507z"/>
			<path d="M178.707,59.09c0-0.684-0.012-1.272-0.048-1.812h0.924l0.048,1.14h0.036c0.264-0.78,0.912-1.272,1.62-1.272
				c0.108,0,0.192,0.012,0.288,0.036v0.984c-0.12-0.012-0.228-0.024-0.372-0.024c-0.744,0-1.272,0.564-1.416,1.344
				c-0.024,0.156-0.036,0.324-0.036,0.504v3.096h-1.056L178.707,59.09z"/>
			<path d="M257.476,55.118c0.456-0.108,1.188-0.18,1.908-0.18c1.044,0,1.716,0.18,2.208,0.588c0.42,0.312,0.684,0.792,0.684,1.428
				c0,0.792-0.528,1.476-1.368,1.776v0.036c0.768,0.18,1.668,0.816,1.668,2.016c0,0.696-0.276,1.224-0.696,1.62
				c-0.552,0.516-1.464,0.756-2.784,0.756c-0.72,0-1.272-0.048-1.62-0.096V55.118z M258.52,58.43h0.948
				c1.092,0,1.74-0.588,1.74-1.368c0-0.936-0.708-1.32-1.764-1.32c-0.48,0-0.756,0.036-0.924,0.072V58.43z M258.52,62.294
				c0.216,0.036,0.504,0.048,0.876,0.048c1.08,0,2.076-0.396,2.076-1.572c0-1.092-0.948-1.56-2.088-1.56h-0.864V62.294z"/>
			<path d="M266.583,63.086v-5.004h-0.804v-0.804h0.804v-0.276c0-0.816,0.192-1.56,0.684-2.028c0.396-0.384,0.924-0.54,1.404-0.54
				c0.384,0,0.696,0.084,0.9,0.168l-0.132,0.816c-0.168-0.072-0.372-0.132-0.684-0.132c-0.888,0-1.128,0.792-1.128,1.68v0.312h1.404
				v0.804h-1.392v5.004H266.583z"/>
			<path d="M269.991,54.566h1.056v8.52h-1.056V54.566z"/>
			<path d="M276.891,61.694c0,0.504,0.024,0.996,0.084,1.392h-0.948l-0.096-0.732h-0.036c-0.312,0.456-0.948,0.864-1.776,0.864
				c-1.176,0-1.776-0.828-1.776-1.668c0-1.404,1.248-2.172,3.492-2.16v-0.12c0-0.48-0.132-1.356-1.32-1.344
				c-0.552,0-1.116,0.156-1.524,0.432l-0.24-0.708c0.48-0.3,1.188-0.504,1.92-0.504c1.788,0,2.22,1.212,2.22,2.376V61.694z
				 M275.859,60.122c-1.152-0.024-2.46,0.18-2.46,1.308c0,0.696,0.456,1.008,0.984,1.008c0.768,0,1.26-0.48,1.428-0.972
				c0.036-0.108,0.048-0.228,0.048-0.336V60.122z"/>
			<path d="M279.807,55.886v1.392h1.512v0.804h-1.512v3.132c0,0.72,0.204,1.128,0.792,1.128c0.288,0,0.456-0.024,0.612-0.072
				l0.048,0.804c-0.204,0.072-0.528,0.144-0.936,0.144c-0.492,0-0.888-0.168-1.14-0.444c-0.288-0.324-0.408-0.84-0.408-1.524v-3.168
				h-0.9v-0.804h0.9V56.21L279.807,55.886z"/>
			<path d="M285.051,58.85c0-0.612-0.024-1.092-0.048-1.572h0.924l0.048,0.936h0.036c0.324-0.552,0.864-1.068,1.836-1.068
				c0.78,0,1.38,0.48,1.632,1.164h0.024c0.18-0.336,0.42-0.576,0.66-0.756c0.348-0.264,0.72-0.408,1.272-0.408
				c0.78,0,1.92,0.504,1.92,2.52v3.42h-1.032v-3.288c0-1.128-0.42-1.788-1.26-1.788c-0.612,0-1.068,0.444-1.26,0.948
				c-0.048,0.156-0.084,0.348-0.084,0.528v3.6h-1.032v-3.48c0-0.936-0.408-1.596-1.212-1.596c-0.648,0-1.14,0.528-1.308,1.056
				c-0.06,0.156-0.084,0.336-0.084,0.516v3.504h-1.032V58.85z"/>
			<path d="M299.151,61.694c0,0.504,0.023,0.996,0.084,1.392h-0.948l-0.096-0.732h-0.036c-0.313,0.456-0.948,0.864-1.776,0.864
				c-1.176,0-1.775-0.828-1.775-1.668c0-1.404,1.248-2.172,3.492-2.16v-0.12c0-0.48-0.133-1.356-1.32-1.344
				c-0.552,0-1.116,0.156-1.524,0.432l-0.239-0.708c0.479-0.3,1.188-0.504,1.92-0.504c1.788,0,2.22,1.212,2.22,2.376V61.694z
				 M298.119,60.122c-1.152-0.024-2.46,0.18-2.46,1.308c0,0.696,0.456,1.008,0.984,1.008c0.768,0,1.26-0.48,1.428-0.972
				c0.036-0.108,0.048-0.228,0.048-0.336V60.122z"/>
			<path d="M299.415,64.79c0.492-0.036,0.9-0.168,1.152-0.444c0.288-0.324,0.408-0.792,0.408-2.184v-4.884h1.056v5.292
				c0,1.128-0.18,1.86-0.696,2.388c-0.468,0.468-1.235,0.66-1.8,0.66L299.415,64.79z M301.479,56.21c-0.396,0-0.66-0.312-0.66-0.684
				s0.275-0.672,0.684-0.672s0.672,0.3,0.672,0.672s-0.252,0.684-0.684,0.684H301.479z"/>
			<path d="M306.123,63.218c-1.56,0-2.784-1.152-2.784-2.988c0-1.944,1.284-3.084,2.88-3.084c1.668,0,2.797,1.212,2.797,2.976
				c0,2.16-1.5,3.096-2.881,3.096H306.123z M306.159,62.426c1.008,0,1.764-0.948,1.764-2.268c0-0.984-0.491-2.22-1.739-2.22
				c-1.236,0-1.776,1.152-1.776,2.256c0,1.272,0.72,2.232,1.74,2.232H306.159z"/>
			<path d="M310.359,59.09c0-0.684-0.013-1.272-0.048-1.812h0.924l0.048,1.14h0.036c0.264-0.78,0.912-1.272,1.62-1.272
				c0.107,0,0.191,0.012,0.288,0.036v0.984c-0.12-0.012-0.229-0.024-0.372-0.024c-0.744,0-1.272,0.564-1.416,1.344
				c-0.024,0.156-0.036,0.324-0.036,0.504v3.096h-1.057L310.359,59.09z"/>
			<path d="M389.16,62.726c-0.468,0.18-1.404,0.444-2.496,0.444c-1.225,0-2.232-0.312-3.024-1.068
				c-0.695-0.672-1.128-1.752-1.128-3.012c0-2.412,1.668-4.176,4.38-4.176c0.937,0,1.681,0.204,2.028,0.372l-0.264,0.852
				c-0.433-0.204-0.973-0.348-1.788-0.348c-1.968,0-3.252,1.224-3.252,3.252c0,2.052,1.224,3.264,3.12,3.264
				c0.684,0,1.151-0.096,1.392-0.216v-2.412h-1.632v-0.84h2.664V62.726z"/>
			<path d="M393.347,63.086v-5.004h-0.804v-0.804h0.804v-0.276c0-0.816,0.192-1.56,0.684-2.028c0.396-0.384,0.925-0.54,1.404-0.54
				c0.384,0,0.696,0.084,0.9,0.168l-0.132,0.816c-0.168-0.072-0.372-0.132-0.685-0.132c-0.888,0-1.128,0.792-1.128,1.68v0.312h1.404
				v0.804h-1.393v5.004H393.347z"/>
			<path d="M396.755,54.566h1.056v8.52h-1.056V54.566z"/>
			<path d="M403.655,61.694c0,0.504,0.024,0.996,0.084,1.392h-0.947l-0.097-0.732h-0.036c-0.312,0.456-0.947,0.864-1.775,0.864
				c-1.176,0-1.776-0.828-1.776-1.668c0-1.404,1.248-2.172,3.492-2.16v-0.12c0-0.48-0.132-1.356-1.32-1.344
				c-0.552,0-1.115,0.156-1.523,0.432l-0.24-0.708c0.479-0.3,1.188-0.504,1.92-0.504c1.788,0,2.22,1.212,2.22,2.376V61.694z
				 M402.624,60.122c-1.152-0.024-2.46,0.18-2.46,1.308c0,0.696,0.455,1.008,0.983,1.008c0.769,0,1.26-0.48,1.428-0.972
				c0.036-0.108,0.049-0.228,0.049-0.336V60.122z"/>
			<path d="M406.571,55.886v1.392h1.513v0.804h-1.513v3.132c0,0.72,0.204,1.128,0.792,1.128c0.288,0,0.456-0.024,0.612-0.072
				l0.048,0.804c-0.204,0.072-0.528,0.144-0.936,0.144c-0.492,0-0.889-0.168-1.141-0.444c-0.288-0.324-0.408-0.84-0.408-1.524
				v-3.168h-0.899v-0.804h0.899V56.21L406.571,55.886z"/>
			<path d="M411.815,58.85c0-0.612-0.024-1.092-0.048-1.572h0.924l0.048,0.936h0.036c0.324-0.552,0.864-1.068,1.836-1.068
				c0.78,0,1.38,0.48,1.632,1.164h0.024c0.18-0.336,0.42-0.576,0.66-0.756c0.348-0.264,0.72-0.408,1.271-0.408
				c0.78,0,1.92,0.504,1.92,2.52v3.42h-1.031v-3.288c0-1.128-0.421-1.788-1.261-1.788c-0.611,0-1.067,0.444-1.26,0.948
				c-0.048,0.156-0.084,0.348-0.084,0.528v3.6h-1.032v-3.48c0-0.936-0.408-1.596-1.212-1.596c-0.647,0-1.14,0.528-1.308,1.056
				c-0.061,0.156-0.084,0.336-0.084,0.516v3.504h-1.032V58.85z"/>
			<path d="M425.915,61.694c0,0.504,0.024,0.996,0.084,1.392h-0.947l-0.097-0.732h-0.036c-0.312,0.456-0.947,0.864-1.775,0.864
				c-1.176,0-1.776-0.828-1.776-1.668c0-1.404,1.248-2.172,3.492-2.16v-0.12c0-0.48-0.132-1.356-1.32-1.344
				c-0.552,0-1.115,0.156-1.523,0.432l-0.24-0.708c0.479-0.3,1.188-0.504,1.92-0.504c1.788,0,2.22,1.212,2.22,2.376V61.694z
				 M424.883,60.122c-1.152-0.024-2.46,0.18-2.46,1.308c0,0.696,0.455,1.008,0.983,1.008c0.769,0,1.26-0.48,1.428-0.972
				c0.036-0.108,0.049-0.228,0.049-0.336V60.122z"/>
			<path d="M426.179,64.79c0.491-0.036,0.899-0.168,1.151-0.444c0.288-0.324,0.408-0.792,0.408-2.184v-4.884h1.056v5.292
				c0,1.128-0.18,1.86-0.695,2.388c-0.469,0.468-1.236,0.66-1.801,0.66L426.179,64.79z M428.243,56.21
				c-0.396,0-0.66-0.312-0.66-0.684s0.276-0.672,0.685-0.672c0.407,0,0.672,0.3,0.672,0.672s-0.252,0.684-0.685,0.684H428.243z"/>
			<path d="M432.887,63.218c-1.561,0-2.784-1.152-2.784-2.988c0-1.944,1.283-3.084,2.88-3.084c1.668,0,2.796,1.212,2.796,2.976
				c0,2.16-1.5,3.096-2.88,3.096H432.887z M432.922,62.426c1.009,0,1.765-0.948,1.765-2.268c0-0.984-0.492-2.22-1.74-2.22
				c-1.236,0-1.776,1.152-1.776,2.256c0,1.272,0.721,2.232,1.74,2.232H432.922z"/>
			<path d="M437.123,59.09c0-0.684-0.012-1.272-0.048-1.812h0.924l0.048,1.14h0.036c0.265-0.78,0.912-1.272,1.62-1.272
				c0.108,0,0.192,0.012,0.288,0.036v0.984c-0.12-0.012-0.228-0.024-0.372-0.024c-0.744,0-1.271,0.564-1.416,1.344
				c-0.024,0.156-0.036,0.324-0.036,0.504v3.096h-1.056L437.123,59.09z"/>
			<path d="M52.037,69.618c0.456-0.108,1.188-0.18,1.908-0.18c1.044,0,1.716,0.18,2.208,0.588c0.42,0.312,0.684,0.792,0.684,1.428
				c0,0.792-0.528,1.476-1.368,1.776v0.036c0.768,0.18,1.668,0.816,1.668,2.016c0,0.696-0.276,1.224-0.696,1.62
				c-0.552,0.516-1.464,0.756-2.784,0.756c-0.72,0-1.272-0.048-1.62-0.096V69.618z M53.081,72.93h0.948
				c1.092,0,1.74-0.588,1.74-1.368c0-0.936-0.708-1.32-1.764-1.32c-0.48,0-0.756,0.036-0.924,0.072V72.93z M53.081,76.794
				c0.216,0.036,0.504,0.048,0.876,0.048c1.08,0,2.076-0.396,2.076-1.572c0-1.092-0.948-1.56-2.088-1.56h-0.864V76.794z"/>
			<path d="M61.048,73.35c0-0.612-0.024-1.092-0.048-1.572h0.924l0.048,0.936h0.036c0.324-0.552,0.864-1.068,1.836-1.068
				c0.78,0,1.38,0.48,1.632,1.164H65.5c0.18-0.336,0.42-0.576,0.66-0.756c0.348-0.264,0.72-0.408,1.272-0.408
				c0.78,0,1.92,0.504,1.92,2.52v3.42H68.32v-3.288c0-1.128-0.42-1.788-1.26-1.788c-0.612,0-1.068,0.444-1.26,0.948
				c-0.048,0.156-0.084,0.348-0.084,0.528v3.6h-1.032v-3.48c0-0.936-0.408-1.596-1.212-1.596c-0.648,0-1.14,0.528-1.308,1.056
				c-0.06,0.156-0.084,0.336-0.084,0.516v3.504h-1.032V73.35z"/>
			<path d="M71.56,70.71c-0.396,0-0.66-0.312-0.66-0.684s0.276-0.672,0.684-0.672c0.408,0,0.672,0.3,0.672,0.672
				s-0.264,0.684-0.684,0.684H71.56z M71.056,77.586v-5.808h1.056v5.808H71.056z"/>
			<path d="M73.864,73.35c0-0.612-0.012-1.092-0.048-1.572h0.936l0.06,0.948h0.024c0.288-0.54,0.96-1.08,1.92-1.08
				c0.804,0,2.052,0.48,2.052,2.472v3.468h-1.056v-3.348c0-0.936-0.348-1.728-1.344-1.728c-0.684,0-1.224,0.492-1.416,1.08
				c-0.048,0.132-0.072,0.324-0.072,0.492v3.504h-1.056V73.35z"/>
			<path d="M82.888,77.718c-1.56,0-2.784-1.152-2.784-2.988c0-1.944,1.284-3.084,2.88-3.084c1.668,0,2.796,1.212,2.796,2.976
				c0,2.16-1.5,3.096-2.88,3.096H82.888z M82.924,76.926c1.008,0,1.764-0.948,1.764-2.268c0-0.984-0.492-2.22-1.74-2.22
				c-1.236,0-1.776,1.152-1.776,2.256c0,1.272,0.72,2.232,1.74,2.232H82.924z"/>
			<path d="M87.124,73.59c0-0.684-0.012-1.272-0.048-1.812H88l0.048,1.14h0.036c0.264-0.78,0.912-1.272,1.62-1.272
				c0.108,0,0.192,0.012,0.288,0.036v0.984c-0.12-0.012-0.228-0.024-0.372-0.024c-0.744,0-1.272,0.564-1.416,1.344
				c-0.024,0.156-0.036,0.324-0.036,0.504v3.096h-1.056L87.124,73.59z"/>
			<path d="M150.556,77.226c-0.468,0.18-1.404,0.444-2.496,0.444c-1.224,0-2.232-0.312-3.024-1.068
				c-0.696-0.672-1.128-1.752-1.128-3.012c0-2.412,1.668-4.176,4.38-4.176c0.936,0,1.68,0.204,2.028,0.372l-0.264,0.852
				c-0.432-0.204-0.972-0.348-1.788-0.348c-1.968,0-3.252,1.224-3.252,3.252c0,2.052,1.224,3.264,3.12,3.264
				c0.684,0,1.152-0.096,1.392-0.216v-2.412h-1.632v-0.84h2.664V77.226z"/>
			<path d="M154.503,76.518c0.324,0.192,0.876,0.408,1.404,0.408c0.756,0,1.116-0.372,1.116-0.864c0-0.504-0.3-0.78-1.068-1.068
				c-1.056-0.384-1.548-0.948-1.548-1.644c0-0.936,0.768-1.704,2.004-1.704c0.588,0,1.104,0.156,1.416,0.36l-0.252,0.756
				c-0.228-0.132-0.648-0.336-1.188-0.336c-0.624,0-0.96,0.36-0.96,0.792c0,0.492,0.336,0.708,1.092,0.996
				c0.996,0.372,1.524,0.876,1.524,1.752c0,1.032-0.804,1.752-2.16,1.752c-0.636,0-1.224-0.168-1.632-0.408L154.503,76.518z"/>
			<path d="M159.399,69.066h1.056v3.624h0.024c0.168-0.3,0.432-0.576,0.756-0.744c0.312-0.192,0.684-0.3,1.08-0.3
				c0.78,0,2.028,0.48,2.028,2.484v3.456h-1.056V74.25c0-0.948-0.348-1.728-1.344-1.728c-0.684,0-1.212,0.48-1.416,1.056
				c-0.06,0.144-0.072,0.3-0.072,0.504v3.504h-1.056V69.066z"/>
			<path d="M170.151,76.194c0,0.504,0.024,0.996,0.084,1.392h-0.948l-0.096-0.732h-0.036c-0.312,0.456-0.948,0.864-1.776,0.864
				c-1.176,0-1.776-0.828-1.776-1.668c0-1.404,1.248-2.172,3.492-2.16v-0.12c0-0.48-0.132-1.356-1.32-1.344
				c-0.552,0-1.116,0.156-1.524,0.432l-0.24-0.708c0.48-0.3,1.188-0.504,1.92-0.504c1.788,0,2.22,1.212,2.22,2.376V76.194z
				 M169.119,74.622c-1.152-0.024-2.46,0.18-2.46,1.308c0,0.696,0.456,1.008,0.984,1.008c0.768,0,1.26-0.48,1.428-0.972
				c0.036-0.108,0.048-0.228,0.048-0.336V74.622z"/>
			<path d="M171.855,73.59c0-0.684-0.012-1.272-0.048-1.812h0.924l0.048,1.14h0.036c0.264-0.78,0.912-1.272,1.62-1.272
				c0.108,0,0.192,0.012,0.288,0.036v0.984c-0.12-0.012-0.228-0.024-0.372-0.024c-0.744,0-1.272,0.564-1.416,1.344
				c-0.024,0.156-0.036,0.324-0.036,0.504v3.096h-1.056L171.855,73.59z"/>
			<path d="M175.815,73.674c0-0.744-0.012-1.344-0.048-1.896h0.948l0.06,0.996h0.024c0.42-0.72,1.116-1.128,2.052-1.128
				c1.416,0,2.472,1.188,2.472,2.952c0,2.088-1.284,3.12-2.64,3.12c-0.78,0-1.44-0.336-1.788-0.912h-0.024v3.156h-1.056V73.674z
				 M176.871,75.222c0,0.144,0.012,0.3,0.048,0.432c0.18,0.732,0.828,1.236,1.572,1.236c1.116,0,1.764-0.912,1.764-2.244
				c0-1.164-0.6-2.16-1.716-2.16c-0.72,0-1.404,0.504-1.608,1.296c-0.024,0.144-0.06,0.3-0.06,0.432V75.222z"/>
			<path d="M185.187,73.35c0-0.612-0.024-1.092-0.048-1.572h0.924l0.048,0.936h0.036c0.324-0.552,0.864-1.068,1.836-1.068
				c0.78,0,1.38,0.48,1.632,1.164h0.024c0.18-0.336,0.42-0.576,0.66-0.756c0.348-0.264,0.72-0.408,1.272-0.408
				c0.78,0,1.92,0.504,1.92,2.52v3.42h-1.032v-3.288c0-1.128-0.42-1.788-1.26-1.788c-0.612,0-1.068,0.444-1.26,0.948
				c-0.048,0.156-0.084,0.348-0.084,0.528v3.6h-1.032v-3.48c0-0.936-0.408-1.596-1.212-1.596c-0.648,0-1.14,0.528-1.308,1.056
				c-0.06,0.156-0.084,0.336-0.084,0.516v3.504h-1.032V73.35z"/>
			<path d="M195.699,70.71c-0.396,0-0.66-0.312-0.66-0.684s0.276-0.672,0.684-0.672c0.408,0,0.672,0.3,0.672,0.672
				s-0.264,0.684-0.684,0.684H195.699z M195.195,77.586v-5.808h1.056v5.808H195.195z"/>
			<path d="M198.003,73.35c0-0.612-0.012-1.092-0.048-1.572h0.936l0.06,0.948h0.024c0.288-0.54,0.96-1.08,1.92-1.08
				c0.804,0,2.052,0.48,2.052,2.472v3.468h-1.056v-3.348c0-0.936-0.348-1.728-1.344-1.728c-0.684,0-1.224,0.492-1.416,1.08
				c-0.048,0.132-0.072,0.324-0.072,0.492v3.504h-1.056V73.35z"/>
			<path d="M207.027,77.718c-1.56,0-2.784-1.152-2.784-2.988c0-1.944,1.284-3.084,2.88-3.084c1.668,0,2.796,1.212,2.796,2.976
				c0,2.16-1.5,3.096-2.88,3.096H207.027z M207.063,76.926c1.008,0,1.764-0.948,1.764-2.268c0-0.984-0.492-2.22-1.74-2.22
				c-1.236,0-1.776,1.152-1.776,2.256c0,1.272,0.72,2.232,1.74,2.232H207.063z"/>
			<path d="M211.263,73.59c0-0.684-0.012-1.272-0.048-1.812h0.924l0.048,1.14h0.036c0.264-0.78,0.912-1.272,1.62-1.272
				c0.108,0,0.192,0.012,0.288,0.036v0.984c-0.12-0.012-0.228-0.024-0.372-0.024c-0.744,0-1.272,0.564-1.416,1.344
				c-0.024,0.156-0.036,0.324-0.036,0.504v3.096h-1.056L211.263,73.59z"/>
			<path d="M263.644,77.226c-0.468,0.18-1.404,0.444-2.496,0.444c-1.224,0-2.232-0.312-3.024-1.068
				c-0.696-0.672-1.128-1.752-1.128-3.012c0-2.412,1.668-4.176,4.38-4.176c0.936,0,1.68,0.204,2.028,0.372l-0.264,0.852
				c-0.432-0.204-0.972-0.348-1.788-0.348c-1.968,0-3.252,1.224-3.252,3.252c0,2.052,1.224,3.264,3.12,3.264
				c0.684,0,1.152-0.096,1.392-0.216v-2.412h-1.632v-0.84h2.664V77.226z"/>
			<path d="M267.735,73.35c0-0.612-0.024-1.092-0.048-1.572h0.924l0.048,0.936h0.036c0.324-0.552,0.864-1.068,1.836-1.068
				c0.78,0,1.38,0.48,1.632,1.164h0.024c0.18-0.336,0.42-0.576,0.66-0.756c0.348-0.264,0.72-0.408,1.272-0.408
				c0.78,0,1.92,0.504,1.92,2.52v3.42h-1.032v-3.288c0-1.128-0.42-1.788-1.26-1.788c-0.612,0-1.068,0.444-1.26,0.948
				c-0.048,0.156-0.084,0.348-0.084,0.528v3.6h-1.032v-3.48c0-0.936-0.408-1.596-1.212-1.596c-0.648,0-1.14,0.528-1.308,1.056
				c-0.06,0.156-0.084,0.336-0.084,0.516v3.504h-1.032V73.35z"/>
			<path d="M278.247,70.71c-0.396,0-0.66-0.312-0.66-0.684s0.276-0.672,0.684-0.672c0.408,0,0.672,0.3,0.672,0.672
				s-0.264,0.684-0.684,0.684H278.247z M277.743,77.586v-5.808h1.056v5.808H277.743z"/>
			<path d="M280.551,73.35c0-0.612-0.012-1.092-0.048-1.572h0.936l0.06,0.948h0.024c0.288-0.54,0.96-1.08,1.92-1.08
				c0.804,0,2.052,0.48,2.052,2.472v3.468h-1.056v-3.348c0-0.936-0.348-1.728-1.344-1.728c-0.684,0-1.224,0.492-1.416,1.08
				c-0.048,0.132-0.072,0.324-0.072,0.492v3.504h-1.056V73.35z"/>
			<path d="M289.575,77.718c-1.56,0-2.784-1.152-2.784-2.988c0-1.944,1.284-3.084,2.88-3.084c1.668,0,2.796,1.212,2.796,2.976
				c0,2.16-1.5,3.096-2.88,3.096H289.575z M289.611,76.926c1.008,0,1.764-0.948,1.764-2.268c0-0.984-0.492-2.22-1.74-2.22
				c-1.236,0-1.776,1.152-1.776,2.256c0,1.272,0.72,2.232,1.74,2.232H289.611z"/>
			<path d="M293.811,73.59c0-0.684-0.012-1.272-0.048-1.812h0.924l0.048,1.14h0.036c0.264-0.78,0.912-1.272,1.62-1.272
				c0.107,0,0.191,0.012,0.288,0.036v0.984c-0.12-0.012-0.229-0.024-0.372-0.024c-0.744,0-1.272,0.564-1.416,1.344
				c-0.024,0.156-0.036,0.324-0.036,0.504v3.096h-1.056L293.811,73.59z"/>
			<path d="M387.844,73.794h-3.132v2.916h3.504v0.876h-4.561v-8.088h4.381v0.876h-3.324v2.556h3.132V73.794z"/>
			<path d="M392.176,77.586v-5.004h-0.805v-0.804h0.805v-0.276c0-0.816,0.191-1.56,0.684-2.028c0.396-0.384,0.924-0.54,1.404-0.54
				c0.384,0,0.695,0.084,0.899,0.168l-0.132,0.816c-0.168-0.072-0.372-0.132-0.684-0.132c-0.889,0-1.128,0.792-1.128,1.68v0.312
				h1.403v0.804h-1.392v5.004H392.176z"/>
			<path d="M395.583,69.066h1.057v8.52h-1.057V69.066z"/>
			<path d="M402.484,76.194c0,0.504,0.023,0.996,0.084,1.392h-0.948l-0.096-0.732h-0.036c-0.313,0.456-0.948,0.864-1.776,0.864
				c-1.176,0-1.775-0.828-1.775-1.668c0-1.404,1.248-2.172,3.492-2.16v-0.12c0-0.48-0.133-1.356-1.32-1.344
				c-0.552,0-1.116,0.156-1.524,0.432l-0.24-0.708c0.48-0.3,1.188-0.504,1.921-0.504c1.788,0,2.22,1.212,2.22,2.376V76.194z
				 M401.452,74.622c-1.152-0.024-2.46,0.18-2.46,1.308c0,0.696,0.456,1.008,0.984,1.008c0.768,0,1.26-0.48,1.428-0.972
				c0.036-0.108,0.048-0.228,0.048-0.336V74.622z"/>
			<path d="M405.4,70.386v1.392h1.512v0.804H405.4v3.132c0,0.72,0.204,1.128,0.792,1.128c0.288,0,0.456-0.024,0.612-0.072
				l0.048,0.804c-0.204,0.072-0.528,0.144-0.937,0.144c-0.492,0-0.888-0.168-1.14-0.444c-0.288-0.324-0.408-0.84-0.408-1.524v-3.168
				h-0.9v-0.804h0.9V70.71L405.4,70.386z"/>
			<path d="M410.643,73.35c0-0.612-0.023-1.092-0.048-1.572h0.924l0.049,0.936h0.035c0.324-0.552,0.864-1.068,1.837-1.068
				c0.779,0,1.38,0.48,1.632,1.164h0.023c0.181-0.336,0.42-0.576,0.66-0.756c0.349-0.264,0.72-0.408,1.272-0.408
				c0.779,0,1.92,0.504,1.92,2.52v3.42h-1.032v-3.288c0-1.128-0.42-1.788-1.26-1.788c-0.612,0-1.068,0.444-1.26,0.948
				c-0.049,0.156-0.084,0.348-0.084,0.528v3.6h-1.032v-3.48c0-0.936-0.408-1.596-1.212-1.596c-0.648,0-1.141,0.528-1.309,1.056
				c-0.06,0.156-0.084,0.336-0.084,0.516v3.504h-1.032V73.35z"/>
			<path d="M421.156,70.71c-0.396,0-0.66-0.312-0.66-0.684s0.276-0.672,0.684-0.672c0.408,0,0.672,0.3,0.672,0.672
				s-0.264,0.684-0.684,0.684H421.156z M420.652,77.586v-5.808h1.056v5.808H420.652z"/>
			<path d="M423.459,73.35c0-0.612-0.012-1.092-0.048-1.572h0.936l0.061,0.948h0.023c0.288-0.54,0.96-1.08,1.92-1.08
				c0.805,0,2.053,0.48,2.053,2.472v3.468h-1.057v-3.348c0-0.936-0.348-1.728-1.344-1.728c-0.684,0-1.224,0.492-1.416,1.08
				c-0.048,0.132-0.072,0.324-0.072,0.492v3.504h-1.056V73.35z"/>
			<path d="M432.483,77.718c-1.56,0-2.783-1.152-2.783-2.988c0-1.944,1.283-3.084,2.88-3.084c1.668,0,2.796,1.212,2.796,2.976
				c0,2.16-1.5,3.096-2.88,3.096H432.483z M432.519,76.926c1.009,0,1.765-0.948,1.765-2.268c0-0.984-0.492-2.22-1.74-2.22
				c-1.236,0-1.776,1.152-1.776,2.256c0,1.272,0.721,2.232,1.74,2.232H432.519z"/>
			<path d="M436.719,73.59c0-0.684-0.012-1.272-0.048-1.812h0.924l0.048,1.14h0.036c0.264-0.78,0.912-1.272,1.62-1.272
				c0.108,0,0.192,0.012,0.288,0.036v0.984c-0.12-0.012-0.229-0.024-0.372-0.024c-0.744,0-1.272,0.564-1.416,1.344
				c-0.024,0.156-0.036,0.324-0.036,0.504v3.096h-1.056L436.719,73.59z"/>
		</g>
	</g>
</svg>
