<?xml version="1.0" encoding="utf-8"?>
<!-- Generator: Adobe Illustrator 10.0, SVG Export Plug-In . SVG Version: 3.0.0 Build 76)  -->
<!DOCTYPE svg PUBLIC "-//W3C//DTD SVG 1.0//EN"    "http://www.w3.org/TR/2001/REC-SVG-20010904/DTD/svg10.dtd" [
	<!ENTITY ns_flows "http://ns.adobe.com/Flows/1.0/">
	<!ENTITY ns_extend "http://ns.adobe.com/Extensibility/1.0/">
	<!ENTITY ns_ai "http://ns.adobe.com/AdobeIllustrator/10.0/">
	<!ENTITY ns_svg "http://www.w3.org/2000/svg">
	<!ENTITY ns_xlink "http://www.w3.org/1999/xlink">
]>
<svg  xmlns:x="&ns_extend;" xmlns:i="&ns_ai;" xmlns:graph="&ns_graphs;"
	 xmlns="&ns_svg;" xmlns:xlink="&ns_xlink;" xmlns:a="http://ns.adobe.com/AdobeSVGViewerExtensions/3.0/" width="372" height="359"
	 viewBox="-0.186 0.451 372 359" overflow="visible" enable-background="new -0.186 0.451 372 359" xml:space="preserve">
	<g id="Layer_1_2_">
		<g>
			<path fill="#0A50A1" d="M173.438,285.204c0,0.216,0,1.536,0,1.536c0.912-0.816,1.416-0.984,2.424-1.008
				c1.2-0.024,1.968,1.176,1.992,2.136c0.024,0.504-0.12,1.032-0.312,1.44c-0.216,0.528-0.792,0.936-1.176,1.32
				c-0.432,0.432-3.552,2.568-3.552,2.616V279.06h0.624C173.438,279.06,173.462,282.036,173.438,285.204z M173.703,287.58
				c-0.312,0.6-0.264,1.632-0.264,2.376v2.064c0,0.024,0.864-0.72,1.344-1.176c0.432-0.408,0.768-0.864,0.936-1.584
				c0.192-0.72,0.12-1.488-0.336-1.992C175.07,286.908,174.207,286.62,173.703,287.58z"/>
		</g>
		<g>
			<path fill="#0A50A1" d="M186.938,286.204c0,0.216,0,1.536,0,1.536c0.912-0.816,1.416-0.984,2.424-1.008
				c1.2-0.024,1.968,1.176,1.992,2.136c0.024,0.504-0.12,1.032-0.312,1.44c-0.216,0.528-0.792,0.936-1.176,1.32
				c-0.432,0.432-3.552,2.568-3.552,2.616V280.06h0.624C186.938,280.06,186.962,283.036,186.938,286.204z M187.202,288.58
				c-0.312,0.6-0.264,1.632-0.264,2.376v2.064c0,0.024,0.864-0.72,1.344-1.176c0.432-0.408,0.768-0.864,0.936-1.584
				c0.192-0.72,0.12-1.488-0.336-1.992C188.57,287.908,187.706,287.62,187.202,288.58z"/>
		</g>
		<path fill="#FFFFFF" stroke="#FF0000" d="M296.093,321.955c-76.747,60.284-187.858,45.492-248.176-33.039
			c-60.318-78.53-47.002-191.06,29.742-251.343c76.745-60.283,187.857-45.49,248.176,33.039
			C386.151,149.143,372.836,261.672,296.093,321.955z"/>
		<path fill="none" stroke="#FF0000" d="M319.021,62.76L54.709,298.054"/>
		<path fill="none" stroke="#FF0000" d="M241.814,12.117l-112.98,336.496"/>
		<path fill="none" stroke="#FF0000" d="M153.499,5.621l65.209,350.882"/>
		<path fill="none" stroke="#FF0000" d="M70.189,44.977l232.893,271.106"/>
		<g>
			<path fill="none" d="M18,124.284L354.116,240.28"/>
			<g>
			</g>
		</g>
		<path fill="none" stroke="#FF0000" d="M11.814,207.451l349.153-54.91"/>
		<g>
			<path stroke="#000000" d="M198.397,6.784l0.094,3.875h-0.188c-0.064-0.171-0.115-0.3-0.15-0.389
				c-0.206-0.565-0.373-0.987-0.501-1.264c-0.229-0.495-0.561-0.948-0.995-1.361c-0.329-0.312-0.669-0.539-1.021-0.68
				c-0.353-0.142-0.749-0.212-1.188-0.212c-0.664,0-1.239,0.144-1.726,0.43c-0.429,0.252-0.828,0.614-1.197,1.085
				c-0.37,0.471-0.672,1.008-0.907,1.611c-0.335,0.849-0.502,1.815-0.502,2.898c0,0.919,0.114,1.748,0.343,2.485
				s0.563,1.355,1.002,1.853c0.809,0.925,1.881,1.388,3.218,1.388c0.668,0,1.269-0.115,1.802-0.346s0.947-0.556,1.24-0.977
				c0.34-0.484,0.586-1.139,0.739-1.962l0.188,0.035c-0.111,0.926-0.363,1.661-0.755,2.205c-0.375,0.521-0.891,0.919-1.549,1.195
				c-0.658,0.275-1.42,0.413-2.287,0.413c-0.808,0-1.58-0.12-2.317-0.36c-1.176-0.387-2.095-1.085-2.756-2.095
				s-0.992-2.214-0.992-3.614c0-1.071,0.193-2.06,0.58-2.964c0.387-0.904,0.926-1.632,1.617-2.182
				c0.533-0.421,1.171-0.756,1.912-1.005s1.484-0.374,2.228-0.374c0.709,0,1.459,0.136,2.25,0.407l0.721,0.239
				c0.141,0.053,0.264,0.08,0.369,0.08c0.146,0,0.267-0.062,0.36-0.185c0.041-0.059,0.091-0.155,0.149-0.291L198.397,6.784z"/>
		</g>
		<g>
			<path fill="#0A50A1" d="M214.18,126.706v-3.912h0.696v3.672l2.352-0.768v-3.504h0.696v3.288l0.936-0.312v2.496l-0.936,0.312
				v3.552l0.936-0.288v2.472l-0.936,0.312v3.912h-0.696v-3.696l-2.352,0.768v3.552h-0.696v-3.312l-1.032,0.336v-2.496l1.032-0.336
				v-3.576l-1.032,0.336v-2.472L214.18,126.706z M214.875,128.962v3.576l2.352-0.768v-3.576L214.875,128.962z"/>
		</g>
		<g>
			<path fill="#0A50A1" d="M157.104,118.869c0,0.216,0,1.536,0,1.536c0.912-0.816,1.416-0.984,2.424-1.008
				c1.2-0.024,1.968,1.176,1.992,2.136c0.024,0.504-0.12,1.032-0.312,1.44c-0.216,0.528-0.792,0.936-1.176,1.32
				c-0.432,0.432-3.552,2.568-3.552,2.616v-14.184h0.624C157.104,112.725,157.128,115.701,157.104,118.869z M157.369,121.245
				c-0.312,0.6-0.264,1.632-0.264,2.376v2.064c0,0.024,0.864-0.72,1.344-1.176c0.432-0.408,0.768-0.864,0.936-1.584
				c0.192-0.72,0.12-1.488-0.336-1.992C158.736,120.573,157.873,120.285,157.369,121.245z"/>
		</g>
		<g>
			<path fill="#0A50A1" d="M239.512,142.373v-3.912h0.696v3.672l2.352-0.768v-3.504h0.696v3.288l0.936-0.312v2.496l-0.936,0.312
				v3.552l0.936-0.288v2.472l-0.936,0.312v3.912h-0.696v-3.696l-2.352,0.768v3.552h-0.696v-3.312l-1.032,0.336v-2.496l1.032-0.336
				v-3.576l-1.032,0.336v-2.472L239.512,142.373z M240.208,144.629v3.576l2.352-0.768v-3.576L240.208,144.629z"/>
		</g>
		<g>
			<path fill="#0A50A1" d="M250.18,151.373v-3.912h0.696v3.672l2.352-0.768v-3.504h0.696v3.288l0.936-0.312v2.496l-0.936,0.312
				v3.552l0.936-0.288v2.472l-0.936,0.312v3.912h-0.696v-3.696l-2.352,0.768v3.552h-0.696v-3.312l-1.032,0.336v-2.496l1.032-0.336
				v-3.576l-1.032,0.336v-2.472L250.18,151.373z M250.875,153.629v3.576l2.352-0.768v-3.576L250.875,153.629z"/>
		</g>
		<g>
			<path fill="#0A50A1" d="M237.513,182.707v-3.912h0.696v3.672l2.352-0.768v-3.504h0.696v3.288l0.936-0.312v2.496l-0.936,0.312
				v3.552l0.936-0.288v2.472l-0.936,0.312v3.912h-0.696v-3.696l-2.352,0.768v3.552h-0.696v-3.312l-1.032,0.336v-2.496l1.032-0.336
				v-3.576l-1.032,0.336v-2.472L237.513,182.707z M238.208,184.963v3.576l2.352-0.768v-3.576L238.208,184.963z"/>
		</g>
		<g>
			<path fill="#0A50A1" d="M245.513,188.374v-3.912h0.696v3.672l2.352-0.768v-3.504h0.696v3.288l0.936-0.312v2.496l-0.936,0.312
				v3.552l0.936-0.288v2.472l-0.936,0.312v3.912h-0.696v-3.696l-2.352,0.768v3.552h-0.696v-3.312l-1.032,0.336v-2.496l1.032-0.336
				v-3.576l-1.032,0.336v-2.472L245.513,188.374z M246.208,190.63v3.576l2.352-0.768v-3.576L246.208,190.63z"/>
		</g>
		<g>
			<path fill="#0A50A1" d="M253.513,177.707v-3.912h0.696v3.672l2.352-0.768v-3.504h0.696v3.288l0.936-0.312v2.496l-0.936,0.312
				v3.552l0.936-0.288v2.472l-0.936,0.312v3.912h-0.696v-3.696l-2.352,0.768v3.552h-0.696v-3.312l-1.032,0.336v-2.496l1.032-0.336
				v-3.576l-1.032,0.336v-2.472L253.513,177.707z M254.208,179.963v3.576l2.352-0.768v-3.576L254.208,179.963z"/>
		</g>
		<g>
			<path fill="#0A50A1" d="M229.846,215.707v-3.912h0.696v3.672l2.352-0.768v-3.504h0.696v3.288l0.936-0.312v2.496l-0.936,0.312
				v3.552l0.936-0.288v2.472l-0.936,0.312v3.912h-0.696v-3.696l-2.352,0.768v3.552h-0.696v-3.312l-1.032,0.336v-2.496l1.032-0.336
				v-3.576l-1.032,0.336v-2.472L229.846,215.707z M230.542,217.963v3.576l2.352-0.768v-3.576L230.542,217.963z"/>
		</g>
		<g>
			<path fill="#0A50A1" d="M238.514,224.708v-3.912h0.696v3.672l2.352-0.768v-3.504h0.696v3.288l0.936-0.312v2.496l-0.936,0.312
				v3.552l0.936-0.288v2.472l-0.936,0.312v3.912h-0.696v-3.696l-2.352,0.768v3.552h-0.696v-3.312l-1.032,0.336v-2.496l1.032-0.336
				v-3.576l-1.032,0.336v-2.472L238.514,224.708z M239.209,226.964v3.576l2.352-0.768v-3.576L239.209,226.964z"/>
		</g>
		<g>
			<path fill="#0A50A1" d="M246.18,214.707v-3.912h0.696v3.672l2.352-0.768v-3.504h0.696v3.288l0.936-0.312v2.496l-0.936,0.312
				v3.552l0.936-0.288v2.472l-0.936,0.312v3.912h-0.696v-3.696l-2.352,0.768v3.552h-0.696v-3.312l-1.032,0.336v-2.496l1.032-0.336
				v-3.576l-1.032,0.336v-2.472L246.18,214.707z M246.875,216.963v3.576l2.352-0.768v-3.576L246.875,216.963z"/>
		</g>
		<g>
			<path fill="#0A50A1" d="M252.846,228.04v-3.912h0.696v3.672l2.352-0.768v-3.504h0.696v3.288l0.936-0.312V229l-0.936,0.312v3.552
				l0.936-0.288v2.472l-0.936,0.312v3.912h-0.696v-3.696l-2.352,0.768v3.552h-0.696v-3.312l-1.032,0.336v-2.496l1.032-0.336v-3.576
				l-1.032,0.336v-2.472L252.846,228.04z M253.542,230.296v3.576l2.352-0.768v-3.576L253.542,230.296z"/>
		</g>
		<g>
			<path fill="#0A50A1" d="M205.68,242.205v-3.912h0.696v3.672l2.352-0.768v-3.504h0.696v3.288l0.936-0.312v2.496l-0.936,0.312
				v3.552l0.936-0.288v2.472l-0.936,0.312v3.912h-0.696v-3.696l-2.352,0.768v3.552h-0.696v-3.312l-1.032,0.336v-2.496l1.032-0.336
				v-3.576l-1.032,0.336v-2.472L205.68,242.205z M206.375,244.461v3.576l2.352-0.768v-3.576L206.375,244.461z"/>
		</g>
		<g>
			<path fill="#0A50A1" d="M213.014,253.874v-3.912h0.696v3.672l2.352-0.768v-3.504h0.696v3.288l0.936-0.312v2.496l-0.936,0.312
				v3.552l0.936-0.288v2.472l-0.936,0.312v3.912h-0.696v-3.696l-2.352,0.768v3.552h-0.696v-3.312l-1.032,0.336v-2.496l1.032-0.336
				v-3.576l-1.032,0.336v-2.472L213.014,253.874z M213.709,256.13v3.576l2.352-0.768v-3.576L213.709,256.13z"/>
		</g>
		<g>
			<path fill="#0A50A1" d="M219.68,239.373v-3.912h0.696v3.672l2.352-0.768v-3.504h0.696v3.288l0.936-0.312v2.496l-0.936,0.312
				v3.552l0.936-0.288v2.472l-0.936,0.312v3.912h-0.696v-3.696l-2.352,0.768v3.552h-0.696v-3.312l-1.032,0.336v-2.496l1.032-0.336
				v-3.576l-1.032,0.336v-2.472L219.68,239.373z M220.375,241.629v3.576l2.352-0.768v-3.576L220.375,241.629z"/>
		</g>
		<g>
			<path fill="#0A50A1" d="M227.846,250.706v-3.912h0.696v3.672l2.352-0.768v-3.504h0.696v3.288l0.936-0.312v2.496l-0.936,0.312
				v3.552l0.936-0.288v2.472l-0.936,0.312v3.912h-0.696v-3.696l-2.352,0.768v3.552h-0.696v-3.312l-1.032,0.336v-2.496l1.032-0.336
				v-3.576l-1.032,0.336v-2.472L227.846,250.706z M228.542,252.962v3.576l2.352-0.768v-3.576L228.542,252.962z"/>
		</g>
		<g>
			<path fill="#0A50A1" d="M236.847,258.373v-3.912h0.696v3.672l2.352-0.768v-3.504h0.696v3.288l0.936-0.312v2.496l-0.936,0.312
				v3.552l0.936-0.288v2.472l-0.936,0.312v3.912h-0.696v-3.696l-2.352,0.768v3.552h-0.696v-3.312l-1.032,0.336v-2.496l1.032-0.336
				v-3.576l-1.032,0.336v-2.472L236.847,258.373z M237.543,260.629v3.576l2.352-0.768v-3.576L237.543,260.629z"/>
		</g>
		<g>
			<path fill="#0A50A1" d="M125.438,144.203c0,0.216,0,1.536,0,1.536c0.912-0.816,1.416-0.984,2.424-1.008
				c1.2-0.024,1.968,1.176,1.992,2.136c0.024,0.504-0.12,1.032-0.312,1.44c-0.216,0.528-0.792,0.936-1.176,1.32
				c-0.432,0.432-3.552,2.568-3.552,2.616v-14.184h0.624C125.438,138.059,125.462,141.035,125.438,144.203z M125.702,146.579
				c-0.312,0.6-0.264,1.632-0.264,2.376v2.064c0,0.024,0.864-0.72,1.344-1.176c0.432-0.408,0.768-0.864,0.936-1.584
				c0.192-0.72,0.12-1.488-0.336-1.992C127.07,145.907,126.206,145.619,125.702,146.579z"/>
		</g>
		<g>
			<path fill="#0A50A1" d="M132.104,133.203c0,0.216,0,1.536,0,1.536c0.912-0.816,1.416-0.984,2.424-1.008
				c1.2-0.024,1.968,1.176,1.992,2.136c0.024,0.504-0.12,1.032-0.312,1.44c-0.216,0.528-0.792,0.936-1.176,1.32
				c-0.432,0.432-3.552,2.568-3.552,2.616v-14.184h0.624C132.104,127.059,132.128,130.035,132.104,133.203z M132.369,135.579
				c-0.312,0.6-0.264,1.632-0.264,2.376v2.064c0,0.024,0.864-0.72,1.344-1.176c0.432-0.408,0.768-0.864,0.936-1.584
				c0.192-0.72,0.12-1.488-0.336-1.992C133.736,134.907,132.873,134.619,132.369,135.579z"/>
		</g>
		<g>
			<path fill="#0A50A1" d="M109.438,175.536c0,0.216,0,1.536,0,1.536c0.912-0.816,1.416-0.984,2.424-1.008
				c1.2-0.024,1.968,1.176,1.992,2.136c0.024,0.504-0.12,1.032-0.312,1.44c-0.216,0.528-0.792,0.936-1.176,1.32
				c-0.432,0.432-3.552,2.568-3.552,2.616v-14.184h0.624C109.438,169.392,109.461,172.368,109.438,175.536z M109.702,177.912
				c-0.312,0.6-0.264,1.632-0.264,2.376v2.064c0,0.024,0.864-0.72,1.344-1.176c0.432-0.408,0.768-0.864,0.936-1.584
				c0.192-0.72,0.12-1.488-0.336-1.992C111.069,177.24,110.206,176.952,109.702,177.912z"/>
		</g>
		<g>
			<path fill="#0A50A1" d="M115.438,165.203c0,0.216,0,1.536,0,1.536c0.912-0.816,1.416-0.984,2.424-1.008
				c1.2-0.024,1.968,1.176,1.992,2.136c0.024,0.504-0.12,1.032-0.312,1.44c-0.216,0.528-0.792,0.936-1.176,1.32
				c-0.432,0.432-3.552,2.568-3.552,2.616v-14.184h0.624C115.438,159.059,115.461,162.035,115.438,165.203z M115.702,167.579
				c-0.312,0.6-0.264,1.632-0.264,2.376v2.064c0,0.024,0.864-0.72,1.344-1.176c0.432-0.408,0.768-0.864,0.936-1.584
				c0.192-0.72,0.12-1.488-0.336-1.992C117.069,166.907,116.206,166.619,115.702,167.579z"/>
		</g>
		<g>
			<path fill="#0A50A1" d="M121.438,178.87c0,0.216,0,1.536,0,1.536c0.912-0.816,1.416-0.984,2.424-1.008
				c1.2-0.024,1.968,1.176,1.992,2.136c0.024,0.504-0.12,1.032-0.312,1.44c-0.216,0.528-0.792,0.936-1.176,1.32
				c-0.432,0.432-3.552,2.568-3.552,2.616v-14.184h0.624C121.438,172.726,121.461,175.702,121.438,178.87z M121.702,181.246
				c-0.312,0.6-0.264,1.632-0.264,2.376v2.064c0,0.024,0.864-0.72,1.344-1.176c0.432-0.408,0.768-0.864,0.936-1.584
				c0.192-0.72,0.12-1.488-0.336-1.992C123.069,180.574,122.206,180.286,121.702,181.246z"/>
		</g>
		<g>
			<path fill="#0A50A1" d="M108.438,217.537c0,0.216,0,1.536,0,1.536c0.912-0.816,1.416-0.984,2.424-1.008
				c1.2-0.024,1.968,1.176,1.992,2.136c0.024,0.504-0.12,1.032-0.312,1.44c-0.216,0.528-0.792,0.936-1.176,1.32
				c-0.432,0.432-3.552,2.568-3.552,2.616v-14.184h0.624C108.438,211.393,108.462,214.369,108.438,217.537z M108.702,219.913
				c-0.312,0.6-0.264,1.632-0.264,2.376v2.064c0,0.024,0.864-0.72,1.344-1.176c0.432-0.408,0.768-0.864,0.936-1.584
				c0.192-0.72,0.12-1.488-0.336-1.992C110.07,219.241,109.206,218.953,108.702,219.913z"/>
		</g>
		<g>
			<path fill="#0A50A1" d="M114.438,206.203c0,0.216,0,1.536,0,1.536c0.912-0.816,1.416-0.984,2.424-1.008
				c1.2-0.024,1.968,1.176,1.992,2.136c0.024,0.504-0.12,1.032-0.312,1.44c-0.216,0.528-0.792,0.936-1.176,1.32
				c-0.432,0.432-3.552,2.568-3.552,2.616v-14.184h0.624C114.438,200.059,114.462,203.035,114.438,206.203z M114.702,208.579
				c-0.312,0.6-0.264,1.632-0.264,2.376v2.064c0,0.024,0.864-0.72,1.344-1.176c0.432-0.408,0.768-0.864,0.936-1.584
				c0.192-0.72,0.12-1.488-0.336-1.992C116.07,207.907,115.206,207.619,114.702,208.579z"/>
		</g>
		<g>
			<path fill="#0A50A1" d="M120.438,218.87c0,0.216,0,1.536,0,1.536c0.912-0.816,1.416-0.984,2.424-1.008
				c1.2-0.024,1.968,1.176,1.992,2.136c0.024,0.504-0.12,1.032-0.312,1.44c-0.216,0.528-0.792,0.936-1.176,1.32
				c-0.432,0.432-3.552,2.568-3.552,2.616v-14.184h0.624C120.438,212.726,120.462,215.702,120.438,218.87z M120.702,221.246
				c-0.312,0.6-0.264,1.632-0.264,2.376v2.064c0,0.024,0.864-0.72,1.344-1.176c0.432-0.408,0.768-0.864,0.936-1.584
				c0.192-0.72,0.12-1.488-0.336-1.992C122.07,220.574,121.206,220.286,120.702,221.246z"/>
		</g>
		<g>
			<path fill="#0A50A1" d="M127.104,209.537c0,0.216,0,1.536,0,1.536c0.912-0.816,1.416-0.984,2.424-1.008
				c1.2-0.024,1.968,1.176,1.992,2.136c0.024,0.504-0.12,1.032-0.312,1.44c-0.216,0.528-0.792,0.936-1.176,1.32
				c-0.432,0.432-3.552,2.568-3.552,2.616v-14.184h0.624C127.104,203.393,127.128,206.369,127.104,209.537z M127.368,211.913
				c-0.312,0.6-0.264,1.632-0.264,2.376v2.064c0,0.024,0.864-0.72,1.344-1.176c0.432-0.408,0.768-0.864,0.936-1.584
				c0.192-0.72,0.12-1.488-0.336-1.992C128.736,211.241,127.872,210.953,127.368,211.913z"/>
		</g>
		<g>
			<path fill="#0A50A1" d="M128.771,246.537c0,0.216,0,1.536,0,1.536c0.912-0.816,1.416-0.984,2.424-1.008
				c1.2-0.024,1.968,1.176,1.992,2.136c0.024,0.504-0.12,1.032-0.312,1.44c-0.216,0.528-0.792,0.936-1.176,1.32
				c-0.432,0.432-3.552,2.568-3.552,2.616v-14.184h0.624C128.771,240.393,128.795,243.369,128.771,246.537z M129.036,248.913
				c-0.312,0.6-0.264,1.632-0.264,2.376v2.064c0,0.024,0.864-0.72,1.344-1.176c0.432-0.408,0.768-0.864,0.936-1.584
				c0.192-0.72,0.12-1.488-0.336-1.992C130.403,248.241,129.54,247.953,129.036,248.913z"/>
		</g>
		<g>
			<path fill="#0A50A1" d="M135.771,235.203c0,0.216,0,1.536,0,1.536c0.912-0.816,1.416-0.984,2.424-1.008
				c1.2-0.024,1.968,1.176,1.992,2.136c0.024,0.504-0.12,1.032-0.312,1.44c-0.216,0.528-0.792,0.936-1.176,1.32
				c-0.432,0.432-3.552,2.568-3.552,2.616v-14.184h0.624C135.771,229.059,135.795,232.035,135.771,235.203z M136.036,237.579
				c-0.312,0.6-0.264,1.632-0.264,2.376v2.064c0,0.024,0.864-0.72,1.344-1.176c0.432-0.408,0.768-0.864,0.936-1.584
				c0.192-0.72,0.12-1.488-0.336-1.992C137.403,236.907,136.54,236.619,136.036,237.579z"/>
		</g>
		<g>
			<path fill="#0A50A1" d="M140.771,250.871c0,0.216,0,1.536,0,1.536c0.912-0.816,1.416-0.984,2.424-1.008
				c1.2-0.024,1.968,1.176,1.992,2.136c0.024,0.504-0.12,1.032-0.312,1.44c-0.216,0.528-0.792,0.936-1.176,1.32
				c-0.432,0.432-3.552,2.568-3.552,2.616v-14.184h0.624C140.771,244.727,140.795,247.703,140.771,250.871z M141.036,253.247
				c-0.312,0.6-0.264,1.632-0.264,2.376v2.064c0,0.024,0.864-0.72,1.344-1.176c0.432-0.408,0.768-0.864,0.936-1.584
				c0.192-0.72,0.12-1.488-0.336-1.992C142.403,252.575,141.54,252.287,141.036,253.247z"/>
		</g>
		<g>
			<path fill="#0A50A1" d="M147.104,238.536c0,0.216,0,1.536,0,1.536c0.912-0.816,1.416-0.984,2.424-1.008
				c1.2-0.024,1.968,1.176,1.992,2.136c0.024,0.504-0.12,1.032-0.312,1.44c-0.216,0.528-0.792,0.936-1.176,1.32
				c-0.432,0.432-3.552,2.568-3.552,2.616v-14.184h0.624C147.104,232.392,147.128,235.368,147.104,238.536z M147.369,240.912
				c-0.312,0.6-0.264,1.632-0.264,2.376v2.064c0,0.024,0.864-0.72,1.344-1.176c0.432-0.408,0.768-0.864,0.936-1.584
				c0.192-0.72,0.12-1.488-0.336-1.992C148.736,240.24,147.873,239.952,147.369,240.912z"/>
		</g>
		<g>
			<path fill="#0A50A1" d="M153.104,252.87c0,0.216,0,1.536,0,1.536c0.912-0.816,1.416-0.984,2.424-1.008
				c1.2-0.024,1.968,1.176,1.992,2.136c0.024,0.504-0.12,1.032-0.312,1.44c-0.216,0.528-0.792,0.936-1.176,1.32
				c-0.432,0.432-3.552,2.568-3.552,2.616v-14.184h0.624C153.104,246.726,153.128,249.702,153.104,252.87z M153.369,255.246
				c-0.312,0.6-0.264,1.632-0.264,2.376v2.064c0,0.024,0.864-0.72,1.344-1.176c0.432-0.408,0.768-0.864,0.936-1.584
				c0.192-0.72,0.12-1.488-0.336-1.992C154.736,254.574,153.873,254.286,153.369,255.246z"/>
		</g>
		<g>
			<path fill="#0A50A1" d="M167.013,278.04v-3.912h0.696v3.672l2.352-0.768v-3.504h0.696v3.288l0.936-0.312V279l-0.936,0.312v3.552
				l0.936-0.288v2.472l-0.936,0.312v3.912h-0.696v-3.696l-2.352,0.768v3.552h-0.696v-3.312l-1.032,0.336v-2.496l1.032-0.336v-3.576
				l-1.032,0.336v-2.472L167.013,278.04z M167.708,280.296v3.576l2.352-0.768v-3.576L167.708,280.296z"/>
		</g>
		<g>
			<path fill="#0A50A1" d="M160.347,267.707v-3.912h0.696v3.672l2.352-0.768v-3.504h0.696v3.288l0.936-0.312v2.496l-0.936,0.312
				v3.552l0.936-0.288v2.472l-0.936,0.312v3.912h-0.696v-3.696l-2.352,0.768v3.552h-0.696v-3.312l-1.032,0.336v-2.496l1.032-0.336
				v-3.576l-1.032,0.336v-2.472L160.347,267.707z M161.043,269.963v3.576l2.352-0.768v-3.576L161.043,269.963z"/>
		</g>
		<g>
			<path fill="#0A50A1" d="M195.013,268.374v-3.912h0.696v3.672l2.352-0.768v-3.504h0.696v3.288l0.936-0.312v2.496l-0.936,0.312
				v3.552l0.936-0.288v2.472l-0.936,0.312v3.912h-0.696v-3.696l-2.352,0.768v3.552h-0.696v-3.312l-1.032,0.336v-2.496l1.032-0.336
				v-3.576l-1.032,0.336v-2.472L195.013,268.374z M195.708,270.63v3.576l2.352-0.768v-3.576L195.708,270.63z"/>
		</g>
		<g>
			<path fill="#0A50A1" d="M181.18,274.041v-3.912h0.696v3.672l2.352-0.768v-3.504h0.696v3.288l0.936-0.312V275l-0.936,0.312v3.552
				l0.936-0.288v2.472l-0.936,0.312v3.912h-0.696v-3.696l-2.352,0.768v3.552h-0.696v-3.312l-1.032,0.336v-2.496l1.032-0.336v-3.576
				l-1.032,0.336v-2.472L181.18,274.041z M181.875,276.297v3.576l2.352-0.768v-3.576L181.875,276.297z"/>
		</g>
		<g>
			<path fill="#0A50A1" d="M174.013,263.707v-3.912h0.696v3.672l2.352-0.768v-3.504h0.696v3.288l0.936-0.312v2.496l-0.936,0.312
				v3.552l0.936-0.288v2.472l-0.936,0.312v3.912h-0.696v-3.696l-2.352,0.768v3.552h-0.696v-3.312l-1.032,0.336v-2.496l1.032-0.336
				v-3.576l-1.032,0.336v-2.472L174.013,263.707z M174.708,265.963v3.576l2.352-0.768v-3.576L174.708,265.963z"/>
		</g>
		<g>
			<path fill="#0A50A1" d="M189.513,283.541v-3.912h0.696v3.672l2.352-0.768v-3.504h0.696v3.288l0.936-0.312v2.496l-0.936,0.312
				v3.552l0.936-0.288v2.472l-0.936,0.312v3.912h-0.696v-3.696l-2.352,0.768v3.552h-0.696v-3.313l-1.032,0.336v-2.496l1.032-0.336
				v-3.576l-1.032,0.336v-2.472L189.513,283.541z M190.208,285.797v3.576l2.352-0.768v-3.576L190.208,285.797z"/>
		</g>
		<g>
			<path fill="#0A50A1" d="M178.938,243.038c0,0.216,0,1.536,0,1.536c0.912-0.816,1.416-0.984,2.424-1.008
				c1.2-0.024,1.968,1.176,1.992,2.136c0.024,0.504-0.12,1.032-0.312,1.44c-0.216,0.528-0.792,0.936-1.176,1.32
				c-0.432,0.432-3.552,2.568-3.552,2.616v-14.184h0.624C178.938,236.894,178.962,239.87,178.938,243.038z M179.202,245.414
				c-0.312,0.6-0.264,1.632-0.264,2.376v2.064c0,0.024,0.864-0.72,1.344-1.176c0.432-0.408,0.768-0.864,0.936-1.584
				c0.192-0.72,0.12-1.488-0.336-1.992C180.57,244.742,179.706,244.454,179.202,245.414z"/>
		</g>
		<g>
			<path fill="#0A50A1" d="M169.438,239.203c0,0.216,0,1.536,0,1.536c0.912-0.816,1.416-0.984,2.424-1.008
				c1.2-0.024,1.968,1.176,1.992,2.136c0.024,0.504-0.12,1.032-0.312,1.44c-0.216,0.528-0.792,0.936-1.176,1.32
				c-0.432,0.432-3.552,2.568-3.552,2.616v-14.184h0.624C169.438,233.059,169.462,236.035,169.438,239.203z M169.702,241.579
				c-0.312,0.6-0.264,1.632-0.264,2.376v2.064c0,0.024,0.864-0.72,1.344-1.176c0.432-0.408,0.768-0.864,0.936-1.584
				c0.192-0.72,0.12-1.488-0.336-1.992C171.07,240.907,170.206,240.619,169.702,241.579z"/>
		</g>
		<g>
			<path fill="#0A50A1" d="M174.271,230.871c0,0.216,0,1.536,0,1.536c0.912-0.816,1.416-0.984,2.424-1.008
				c1.2-0.024,1.968,1.176,1.992,2.136c0.024,0.504-0.12,1.032-0.312,1.44c-0.216,0.528-0.792,0.936-1.176,1.32
				c-0.432,0.432-3.552,2.568-3.552,2.616v-14.184h0.624C174.271,224.727,174.295,227.703,174.271,230.871z M174.536,233.247
				c-0.312,0.6-0.264,1.632-0.264,2.376v2.064c0,0.024,0.864-0.72,1.344-1.176c0.432-0.408,0.768-0.864,0.936-1.584
				c0.192-0.72,0.12-1.488-0.336-1.992C175.903,232.575,175.04,232.287,174.536,233.247z"/>
		</g>
		<g>
			<path fill="#0A50A1" d="M182.438,234.203c0,0.216,0,1.536,0,1.536c0.912-0.816,1.416-0.984,2.424-1.008
				c1.2-0.024,1.968,1.176,1.992,2.136c0.024,0.504-0.12,1.032-0.312,1.44c-0.216,0.528-0.792,0.936-1.176,1.32
				c-0.432,0.432-3.552,2.568-3.552,2.616v-14.184h0.624C182.438,228.059,182.462,231.035,182.438,234.203z M182.702,236.579
				c-0.312,0.6-0.264,1.632-0.264,2.376v2.064c0,0.024,0.864-0.72,1.344-1.176c0.432-0.408,0.768-0.864,0.936-1.584
				c0.192-0.72,0.12-1.488-0.336-1.992C184.07,235.907,183.206,235.619,182.702,236.579z"/>
		</g>
		<g>
			<path stroke="#000000" d="M279.918,34.784l0.094,3.826l-0.188,0.018c-0.405-1.306-0.924-2.278-1.557-2.917
				c-0.634-0.639-1.399-0.958-2.296-0.958c-0.698,0-1.298,0.142-1.799,0.426s-0.969,0.746-1.403,1.384
				c-0.88,1.307-1.32,2.8-1.32,4.482c0,0.803,0.105,1.56,0.317,2.272c0.211,0.712,0.52,1.34,0.925,1.885
				c0.787,1.055,1.748,1.582,2.882,1.582c0.446,0,0.867-0.093,1.26-0.28s0.717-0.444,0.97-0.771c0.347-0.456,0.52-0.996,0.52-1.622
				c0-0.578-0.158-0.996-0.473-1.253c-0.315-0.257-0.834-0.386-1.559-0.386v-0.188h5.594v0.188c-0.518,0.047-0.88,0.119-1.089,0.215
				c-0.208,0.097-0.363,0.262-0.462,0.495c-0.112,0.257-0.167,0.769-0.167,1.534c0,0.21,0.012,0.538,0.035,0.981l0.018,0.202
				c-0.223-0.082-0.386-0.123-0.492-0.123c-0.129,0-0.293,0.067-0.492,0.202c-0.51,0.351-1.101,0.62-1.774,0.807
				c-0.673,0.187-1.384,0.28-2.133,0.28c-1.03,0-1.96-0.176-2.788-0.527s-1.5-0.854-2.015-1.511
				c-0.387-0.492-0.684-1.077-0.892-1.756c-0.208-0.679-0.312-1.399-0.312-2.161c0-1.048,0.188-2.022,0.563-2.924
				c0.375-0.901,0.903-1.645,1.584-2.23c0.557-0.474,1.2-0.84,1.927-1.098s1.496-0.387,2.306-0.387c0.469,0,0.905,0.044,1.307,0.133
				s0.829,0.233,1.28,0.433l0.52,0.239c0.129,0.053,0.246,0.08,0.352,0.08c0.234,0,0.414-0.19,0.537-0.572H279.918z"/>
		</g>
		<g>
			<path stroke="#000000" d="M328.918,117.263c0.34-0.018,0.612-0.064,0.817-0.141s0.39-0.2,0.554-0.371
				c0.182-0.188,0.306-0.427,0.374-0.718c0.067-0.291,0.101-0.736,0.101-1.335v-6.495c0-0.646-0.04-1.119-0.119-1.419
				s-0.233-0.546-0.461-0.741c-0.287-0.241-0.709-0.376-1.266-0.405v-0.188h4.833c1.072,0,1.754,0.012,2.047,0.035
				c1.236,0.094,2.284,0.446,3.146,1.055c0.82,0.58,1.458,1.341,1.916,2.281s0.686,1.965,0.686,3.072
				c0,0.809-0.13,1.573-0.391,2.291s-0.623,1.314-1.085,1.789c-0.65,0.668-1.462,1.093-2.434,1.275
				c-0.727,0.135-1.467,0.202-2.223,0.202h-6.494V117.263z M332.67,105.732v8.739c0,0.575,0.032,1.011,0.097,1.31
				s0.185,0.554,0.361,0.765c0.376,0.457,0.987,0.686,1.833,0.686c0.723,0,1.341-0.119,1.855-0.356
				c0.514-0.237,0.974-0.623,1.379-1.156c0.399-0.516,0.704-1.106,0.912-1.771s0.313-1.373,0.313-2.124
				c0-0.832-0.126-1.624-0.379-2.374c-0.253-0.75-0.614-1.407-1.084-1.97c-0.652-0.779-1.431-1.295-2.335-1.547
				c-0.494-0.135-1.122-0.202-1.886-0.202H332.67z"/>
		</g>
		<g>
			<path stroke="#000000" d="M358.448,200.118h-5.759v-0.188c0.518-0.047,0.879-0.136,1.083-0.266
				c0.361-0.23,0.542-0.549,0.542-0.956c0-0.242-0.082-0.566-0.246-0.974l-0.149-0.372l-0.842-2.089h-3.866l-0.458,1.222
				l-0.22,0.549c-0.264,0.649-0.396,1.16-0.396,1.531c0,0.219,0.048,0.422,0.145,0.611c0.097,0.189,0.228,0.342,0.393,0.46
				c0.231,0.159,0.527,0.254,0.889,0.283v0.188h-3.938v-0.188c0.31-0.018,0.581-0.094,0.814-0.229s0.461-0.352,0.684-0.652
				c0.187-0.24,0.369-0.55,0.547-0.928c0.178-0.378,0.414-0.946,0.707-1.704l3.217-8.3h0.5l3.813,9.251
				c0.287,0.698,0.516,1.197,0.686,1.497s0.354,0.525,0.554,0.678c0.141,0.105,0.302,0.187,0.483,0.242s0.454,0.104,0.817,0.145
				V200.118z M352.937,194.93l-1.842-4.553l-1.744,4.553H352.937z"/>
		</g>
		<g>
			<path stroke="#000000" d="M329.022,264.118l0.125,2.897l-0.188,0.009c-0.076-0.496-0.202-0.906-0.378-1.23
				s-0.431-0.611-0.765-0.859c-0.275-0.207-0.601-0.353-0.976-0.438c-0.375-0.085-0.873-0.128-1.494-0.128h-2.013v5.313h0.53
				c0.536,0,0.939-0.035,1.21-0.106s0.492-0.198,0.663-0.381c0.165-0.171,0.287-0.373,0.367-0.606
				c0.079-0.233,0.146-0.577,0.199-1.032l0.188,0.009l-0.031,4.71h-0.188c-0.053-0.452-0.131-0.816-0.234-1.092
				c-0.104-0.276-0.247-0.511-0.429-0.705c-0.177-0.188-0.407-0.326-0.69-0.414s-0.643-0.132-1.079-0.132h-0.504v2.023
				c0,0.807,0.021,1.395,0.062,1.763c0.041,0.368,0.121,0.676,0.239,0.923c0.201,0.424,0.506,0.735,0.917,0.932
				c0.41,0.197,0.952,0.296,1.625,0.296c0.704,0,1.294-0.09,1.77-0.27s0.863-0.458,1.163-0.835c0.211-0.253,0.383-0.542,0.515-0.866
				c0.132-0.324,0.254-0.751,0.366-1.281l0.188,0.009l-0.094,3.493h-10.5v-0.188c0.333-0.018,0.604-0.064,0.812-0.141
				s0.394-0.2,0.558-0.371c0.181-0.188,0.306-0.427,0.373-0.718c0.067-0.291,0.101-0.736,0.101-1.335v-6.495
				c0-0.6-0.034-1.044-0.101-1.335c-0.067-0.291-0.192-0.53-0.373-0.718c-0.158-0.17-0.341-0.294-0.549-0.37
				s-0.481-0.124-0.821-0.141v-0.188H329.022z"/>
		</g>
		<g>
			<path stroke="#000000" d="M251.585,336.118v-0.188c0.34-0.018,0.614-0.065,0.822-0.146c0.208-0.079,0.391-0.201,0.549-0.365
				c0.188-0.188,0.313-0.426,0.378-0.715c0.064-0.287,0.097-0.734,0.097-1.34v-6.494c0-0.605-0.032-1.053-0.097-1.34
				c-0.064-0.288-0.19-0.525-0.378-0.715c-0.158-0.17-0.343-0.293-0.554-0.369s-0.483-0.124-0.817-0.142v-0.188h5.759
				c0.583,0,0.966,0.006,1.147,0.018c0.665,0.053,1.217,0.212,1.655,0.476c0.379,0.235,0.673,0.543,0.88,0.925
				s0.311,0.81,0.311,1.286c0,0.77-0.234,1.4-0.703,1.893c-0.168,0.184-0.359,0.334-0.573,0.455c-0.214,0.119-0.523,0.254-0.929,0.4
				c0.561,0.094,0.996,0.195,1.306,0.307s0.59,0.267,0.841,0.465c0.374,0.305,0.665,0.684,0.872,1.137
				c0.207,0.454,0.311,0.944,0.311,1.471c0,0.533-0.107,1.02-0.32,1.462c-0.214,0.442-0.511,0.798-0.891,1.066
				c-0.345,0.24-0.756,0.407-1.233,0.501c-0.477,0.094-1.148,0.14-2.014,0.14H251.585z M255.337,324.368v5.25h0.714
				c0.335,0,0.682-0.023,1.041-0.071c0.312-0.047,0.563-0.103,0.754-0.168c0.191-0.064,0.366-0.152,0.524-0.265
				c0.3-0.224,0.531-0.511,0.692-0.862c0.162-0.35,0.243-0.737,0.243-1.162c0-0.447-0.084-0.873-0.251-1.276
				c-0.168-0.403-0.39-0.718-0.666-0.941c-0.241-0.194-0.517-0.327-0.825-0.397s-0.777-0.106-1.406-0.106H255.337z M255.337,329.868
				v3.646c0,0.443,0.031,0.8,0.092,1.071s0.163,0.502,0.304,0.69c0.299,0.396,0.813,0.593,1.541,0.593
				c0.945,0,1.691-0.259,2.24-0.778s0.823-1.228,0.823-2.125c0-0.512-0.085-0.988-0.255-1.428c-0.17-0.439-0.399-0.777-0.687-1.014
				c-0.528-0.438-1.356-0.655-2.482-0.655H255.337z"/>
		</g>
		<g>
			<path d="M162.501,345.836v3.524c0,0.6,0.032,1.043,0.097,1.328c0.064,0.286,0.187,0.525,0.369,0.721
				c0.158,0.17,0.343,0.295,0.557,0.375s0.487,0.128,0.821,0.146v0.188h-5.594v-0.188c0.281,0,0.547-0.046,0.799-0.137
				c0.251-0.091,0.448-0.213,0.588-0.366c0.164-0.182,0.281-0.432,0.351-0.748c0.07-0.318,0.105-0.756,0.105-1.314v-6.494
				c0-0.377-0.021-0.768-0.062-1.173c-0.059-0.517-0.311-0.901-0.755-1.155c-0.246-0.135-0.588-0.214-1.027-0.237v-0.188h9.188
				l0.25,2.866l-0.188,0.044c-0.147-0.445-0.283-0.78-0.407-1.003c-0.277-0.51-0.666-0.904-1.167-1.187
				c-0.289-0.164-0.623-0.278-1-0.343c-0.377-0.064-0.896-0.097-1.556-0.097h-1.371v5.188h0.357c1.055,0,1.821-0.231,2.298-0.694
				c0.208-0.199,0.366-0.435,0.474-0.707s0.179-0.628,0.215-1.067l0.188,0.009l-0.031,5.304h-0.219
				c-0.065-0.598-0.177-1.06-0.335-1.385s-0.398-0.587-0.72-0.787c-0.238-0.146-0.532-0.253-0.88-0.321
				C163.499,345.871,163.05,345.836,162.501,345.836z"/>
		</g>
		<g>
			<path d="M171.179,339.708v-3.912h0.696v3.672l2.352-0.768v-3.504h0.696v3.288l0.936-0.313v2.496l-0.936,0.313v3.552l0.936-0.288
				v2.472l-0.936,0.313v3.912h-0.696v-3.696l-2.352,0.768v3.553h-0.696v-3.313l-1.032,0.336v-2.496l1.032-0.336v-3.576l-1.032,0.337
				v-2.473L171.179,339.708z M171.875,341.963v3.576l2.352-0.768v-3.576L171.875,341.963z"/>
		</g>
		<g>
			<path stroke="#000000" d="M175.554,354.774l5.406-14.688h0.563l-5.406,14.688H175.554z"/>
			<path stroke="#000000" d="M192.867,340.618l0.094,3.826l-0.188,0.018c-0.405-1.306-0.924-2.278-1.557-2.917
				c-0.634-0.639-1.399-0.958-2.296-0.958c-0.698,0-1.298,0.142-1.799,0.427c-0.501,0.283-0.969,0.745-1.403,1.384
				c-0.88,1.307-1.32,2.8-1.32,4.481c0,0.803,0.105,1.561,0.317,2.272c0.211,0.712,0.52,1.34,0.925,1.885
				c0.787,1.055,1.748,1.582,2.882,1.582c0.446,0,0.867-0.093,1.26-0.28s0.717-0.444,0.97-0.771c0.347-0.455,0.52-0.996,0.52-1.621
				c0-0.578-0.158-0.996-0.473-1.254c-0.315-0.257-0.834-0.386-1.559-0.386v-0.188h5.594v0.188c-0.518,0.047-0.88,0.118-1.089,0.215
				s-0.363,0.262-0.462,0.495c-0.112,0.258-0.167,0.769-0.167,1.534c0,0.21,0.012,0.538,0.035,0.981l0.018,0.201
				c-0.223-0.081-0.386-0.122-0.492-0.122c-0.129,0-0.293,0.067-0.492,0.202c-0.51,0.351-1.101,0.619-1.774,0.807
				c-0.673,0.187-1.384,0.28-2.133,0.28c-1.03,0-1.96-0.176-2.788-0.526c-0.828-0.352-1.5-0.855-2.015-1.512
				c-0.387-0.491-0.684-1.076-0.892-1.756c-0.208-0.679-0.312-1.398-0.312-2.16c0-1.049,0.188-2.023,0.563-2.925
				s0.903-1.646,1.584-2.23c0.557-0.474,1.2-0.84,1.927-1.098s1.496-0.387,2.306-0.387c0.469,0,0.905,0.044,1.307,0.133
				s0.829,0.233,1.28,0.433l0.52,0.239c0.129,0.054,0.246,0.079,0.352,0.079c0.234,0,0.414-0.189,0.537-0.571H192.867z"/>
		</g>
		<g>
			<path d="M196.105,341.204c0,0.216,0,1.536,0,1.536c0.912-0.816,1.416-0.984,2.424-1.008c1.2-0.024,1.968,1.176,1.992,2.136
				c0.024,0.504-0.12,1.032-0.312,1.44c-0.216,0.527-0.792,0.936-1.176,1.319c-0.432,0.433-3.552,2.568-3.552,2.616V335.06h0.624
				C196.105,335.06,196.129,338.036,196.105,341.204z M196.369,343.58c-0.312,0.6-0.264,1.632-0.264,2.376v2.064
				c0,0.023,0.864-0.721,1.344-1.177c0.432-0.407,0.768-0.863,0.936-1.584c0.192-0.72,0.12-1.487-0.336-1.991
				C197.737,342.908,196.873,342.62,196.369,343.58z"/>
		</g>
		<g>
			<path stroke="#000000" d="M87.584,321.264c0.34-0.018,0.612-0.064,0.817-0.141s0.39-0.2,0.554-0.37
				c0.182-0.188,0.306-0.428,0.374-0.719s0.101-0.736,0.101-1.336v-6.494c0-0.646-0.04-1.119-0.119-1.42
				c-0.079-0.299-0.233-0.546-0.461-0.74c-0.287-0.24-0.709-0.376-1.266-0.405v-0.188h4.833c1.072,0,1.754,0.012,2.047,0.035
				c1.236,0.094,2.284,0.446,3.146,1.056c0.82,0.58,1.458,1.34,1.916,2.281c0.457,0.939,0.686,1.965,0.686,3.072
				c0,0.809-0.13,1.572-0.391,2.29s-0.623,1.313-1.085,1.788c-0.65,0.669-1.462,1.094-2.434,1.275
				c-0.727,0.135-1.467,0.202-2.223,0.202h-6.494V321.264z M91.336,309.733v8.739c0,0.574,0.032,1.012,0.097,1.311
				s0.185,0.554,0.361,0.765c0.376,0.457,0.987,0.686,1.833,0.686c0.723,0,1.341-0.118,1.855-0.356
				c0.514-0.236,0.974-0.622,1.379-1.156c0.399-0.516,0.704-1.105,0.912-1.771c0.208-0.664,0.313-1.373,0.313-2.123
				c0-0.832-0.126-1.623-0.379-2.373c-0.253-0.75-0.614-1.407-1.084-1.971c-0.652-0.779-1.431-1.295-2.335-1.547
				c-0.494-0.135-1.122-0.202-1.886-0.202H91.336z"/>
		</g>
		<g>
			<path stroke="#000000" d="M45.114,257.451h-5.759v-0.188c0.518-0.047,0.879-0.136,1.083-0.266
				c0.361-0.23,0.542-0.549,0.542-0.956c0-0.242-0.082-0.566-0.246-0.974l-0.149-0.372l-0.842-2.089h-3.866l-0.458,1.222
				l-0.22,0.549c-0.264,0.649-0.396,1.16-0.396,1.531c0,0.219,0.048,0.422,0.145,0.611c0.097,0.189,0.228,0.342,0.393,0.46
				c0.231,0.159,0.527,0.254,0.889,0.283v0.188h-3.938v-0.188c0.31-0.018,0.581-0.094,0.814-0.229s0.461-0.352,0.684-0.652
				c0.187-0.24,0.369-0.55,0.547-0.928c0.178-0.378,0.414-0.946,0.707-1.704l3.217-8.3h0.5l3.813,9.251
				c0.287,0.698,0.516,1.197,0.686,1.497s0.354,0.525,0.554,0.678c0.141,0.105,0.302,0.187,0.483,0.242s0.454,0.104,0.817,0.145
				V257.451z M39.604,252.263l-1.842-4.553l-1.744,4.553H39.604z"/>
		</g>
		<g>
			<path stroke="#000000" d="M23.689,162.784l0.125,2.897l-0.188,0.009c-0.076-0.496-0.202-0.906-0.378-1.23
				s-0.431-0.611-0.765-0.859c-0.275-0.207-0.601-0.353-0.976-0.438c-0.375-0.085-0.873-0.128-1.494-0.128h-2.013v5.313h0.53
				c0.536,0,0.939-0.035,1.21-0.106s0.492-0.198,0.663-0.381c0.165-0.171,0.287-0.373,0.367-0.606
				c0.079-0.233,0.146-0.577,0.199-1.032l0.188,0.009l-0.031,4.71h-0.188c-0.053-0.452-0.131-0.816-0.234-1.092
				c-0.104-0.276-0.247-0.511-0.429-0.705c-0.177-0.188-0.407-0.326-0.69-0.414s-0.643-0.132-1.079-0.132h-0.504v2.023
				c0,0.807,0.021,1.395,0.062,1.763c0.041,0.368,0.121,0.676,0.239,0.923c0.201,0.424,0.506,0.735,0.917,0.932
				c0.41,0.197,0.952,0.296,1.625,0.296c0.704,0,1.294-0.09,1.77-0.27s0.863-0.458,1.163-0.835c0.211-0.253,0.383-0.542,0.515-0.866
				c0.132-0.324,0.254-0.751,0.366-1.281l0.188,0.009l-0.094,3.493h-10.5v-0.188c0.333-0.018,0.604-0.064,0.812-0.141
				s0.394-0.2,0.558-0.371c0.181-0.188,0.306-0.427,0.373-0.718c0.067-0.291,0.101-0.736,0.101-1.335v-6.495
				c0-0.6-0.034-1.044-0.101-1.335c-0.067-0.291-0.192-0.53-0.373-0.718c-0.158-0.17-0.341-0.294-0.549-0.37
				s-0.481-0.124-0.821-0.141v-0.188H23.689z"/>
		</g>
		<g>
			<path stroke="#000000" d="M42.251,93.451v-0.188c0.34-0.018,0.614-0.066,0.822-0.146c0.208-0.079,0.391-0.201,0.549-0.366
				c0.188-0.188,0.313-0.426,0.378-0.714c0.064-0.288,0.097-0.734,0.097-1.34v-6.495c0-0.605-0.032-1.052-0.097-1.34
				c-0.064-0.288-0.19-0.525-0.378-0.714c-0.158-0.17-0.343-0.294-0.554-0.37s-0.483-0.124-0.817-0.141v-0.188h5.759
				c0.583,0,0.966,0.006,1.147,0.018c0.665,0.053,1.217,0.211,1.655,0.476c0.379,0.235,0.673,0.543,0.88,0.925
				c0.207,0.382,0.311,0.81,0.311,1.286c0,0.77-0.234,1.4-0.703,1.894c-0.168,0.183-0.359,0.334-0.573,0.454s-0.523,0.254-0.929,0.4
				c0.561,0.094,0.996,0.196,1.306,0.308s0.59,0.266,0.841,0.465c0.374,0.305,0.665,0.684,0.872,1.137
				c0.207,0.454,0.311,0.944,0.311,1.47c0,0.533-0.107,1.02-0.32,1.462c-0.214,0.442-0.511,0.797-0.891,1.066
				c-0.345,0.24-0.756,0.407-1.233,0.5c-0.477,0.094-1.148,0.14-2.014,0.14H42.251z M46.003,81.701v5.25h0.714
				c0.335,0,0.682-0.023,1.041-0.071c0.312-0.047,0.563-0.103,0.754-0.168c0.191-0.064,0.366-0.153,0.524-0.265
				c0.3-0.224,0.531-0.511,0.692-0.862s0.243-0.738,0.243-1.162c0-0.448-0.084-0.874-0.251-1.277
				c-0.168-0.403-0.39-0.717-0.666-0.941c-0.241-0.194-0.517-0.327-0.825-0.398c-0.309-0.07-0.777-0.106-1.406-0.106H46.003z
				 M46.003,87.201v3.646c0,0.442,0.031,0.799,0.092,1.071s0.163,0.502,0.304,0.69c0.299,0.396,0.813,0.593,1.541,0.593
				c0.945,0,1.691-0.259,2.24-0.779c0.549-0.519,0.823-1.227,0.823-2.124c0-0.513-0.085-0.989-0.255-1.429
				c-0.17-0.439-0.399-0.777-0.687-1.014c-0.528-0.437-1.356-0.655-2.482-0.655H46.003z"/>
		</g>
		<g>
			<path stroke="#000000" d="M110.001,31.169v3.524c0,0.601,0.032,1.044,0.097,1.329c0.064,0.286,0.187,0.525,0.369,0.72
				c0.158,0.171,0.343,0.296,0.557,0.375s0.487,0.128,0.821,0.146v0.188h-5.594v-0.188c0.281,0,0.547-0.045,0.799-0.137
				c0.251-0.091,0.448-0.213,0.588-0.366c0.164-0.182,0.281-0.432,0.351-0.749s0.105-0.755,0.105-1.313v-6.495
				c0-0.376-0.021-0.767-0.062-1.172c-0.059-0.517-0.311-0.902-0.755-1.155c-0.246-0.135-0.588-0.214-1.027-0.238V25.45h9.188
				l0.25,2.866l-0.188,0.044c-0.147-0.445-0.283-0.78-0.407-1.002c-0.277-0.51-0.666-0.905-1.167-1.187
				c-0.289-0.164-0.623-0.278-1-0.343c-0.377-0.064-0.896-0.097-1.556-0.097h-1.371v5.188h0.357c1.055,0,1.821-0.231,2.298-0.694
				c0.208-0.199,0.366-0.435,0.474-0.708s0.179-0.628,0.215-1.067l0.188,0.009l-0.031,5.304h-0.219
				c-0.065-0.598-0.177-1.06-0.335-1.385s-0.398-0.587-0.72-0.787c-0.238-0.146-0.532-0.253-0.88-0.321
				S110.55,31.169,110.001,31.169z"/>
		</g>
		<g>
			<path d="M103.771,309.204c0,0.216,0,1.536,0,1.536c0.912-0.816,1.416-0.984,2.424-1.008c1.2-0.024,1.968,1.176,1.992,2.136
				c0.024,0.504-0.12,1.032-0.312,1.44c-0.216,0.527-0.792,0.936-1.176,1.319c-0.432,0.433-3.552,2.568-3.552,2.616V303.06h0.624
				C103.771,303.06,103.795,306.036,103.771,309.204z M104.035,311.58c-0.312,0.6-0.264,1.632-0.264,2.376v2.064
				c0,0.023,0.864-0.721,1.344-1.177c0.432-0.407,0.768-0.863,0.936-1.584c0.192-0.72,0.12-1.487-0.336-1.991
				C105.403,310.908,104.539,310.62,104.035,311.58z"/>
		</g>
		<g>
			<path d="M47.438,244.537c0,0.216,0,1.536,0,1.536c0.912-0.816,1.416-0.984,2.424-1.008c1.2-0.024,1.968,1.176,1.992,2.136
				c0.024,0.504-0.12,1.032-0.312,1.44c-0.216,0.528-0.792,0.936-1.176,1.32c-0.432,0.432-3.552,2.568-3.552,2.616v-14.184h0.624
				C47.438,238.393,47.462,241.369,47.438,244.537z M47.702,246.913c-0.312,0.6-0.264,1.632-0.264,2.376v2.064
				c0,0.024,0.864-0.72,1.344-1.176c0.432-0.408,0.768-0.864,0.936-1.584c0.192-0.72,0.12-1.488-0.336-1.992
				C49.07,246.241,48.206,245.953,47.702,246.913z"/>
		</g>
		<g>
			<path d="M30.104,161.869c0,0.216,0,1.536,0,1.536c0.912-0.816,1.416-0.984,2.424-1.008c1.2-0.024,1.968,1.176,1.992,2.136
				c0.024,0.504-0.12,1.032-0.312,1.44c-0.216,0.528-0.792,0.936-1.176,1.32c-0.432,0.432-3.552,2.568-3.552,2.616v-14.184h0.624
				C30.104,155.725,30.128,158.701,30.104,161.869z M30.369,164.245c-0.312,0.6-0.264,1.632-0.264,2.376v2.064
				c0,0.024,0.864-0.72,1.344-1.176c0.432-0.408,0.768-0.864,0.936-1.584c0.192-0.72,0.12-1.488-0.336-1.992
				C31.736,163.573,30.873,163.285,30.369,164.245z"/>
		</g>
		<g>
			<path d="M56.771,80.535c0,0.216,0,1.536,0,1.536c0.912-0.816,1.416-0.984,2.424-1.008c1.2-0.024,1.968,1.176,1.992,2.136
				c0.024,0.504-0.12,1.032-0.312,1.44c-0.216,0.528-0.792,0.936-1.176,1.32c-0.432,0.432-3.552,2.568-3.552,2.616V74.391h0.624
				C56.771,74.391,56.795,77.367,56.771,80.535z M57.036,82.911c-0.312,0.6-0.264,1.632-0.264,2.376v2.064
				c0,0.024,0.864-0.72,1.344-1.176c0.432-0.408,0.768-0.864,0.936-1.584c0.192-0.72,0.12-1.488-0.336-1.992
				C58.403,82.239,57.54,81.951,57.036,82.911z"/>
		</g>
		<g>
			<path stroke="#000000" d="M194.25,60.931l0.149,0.088c-0.211,0.614-0.694,0.921-1.45,0.921c-0.418,0-0.765-0.103-1.041-0.307
				c-0.183-0.134-0.371-0.368-0.564-0.702c-0.395,0.351-0.691,0.582-0.891,0.693c-0.383,0.21-0.827,0.316-1.333,0.316
				c-0.647,0-1.16-0.155-1.54-0.465c-0.379-0.31-0.569-0.729-0.569-1.255c0-0.485,0.156-0.892,0.467-1.22
				c0.176-0.181,0.379-0.326,0.608-0.434s0.562-0.218,0.997-0.329c0.512-0.129,0.889-0.237,1.133-0.325s0.448-0.193,0.613-0.316
				c0.188-0.134,0.317-0.292,0.388-0.474c0.07-0.181,0.106-0.433,0.106-0.755c0-0.687-0.13-1.188-0.39-1.505
				c-0.118-0.146-0.271-0.264-0.456-0.352c-0.186-0.088-0.379-0.132-0.58-0.132c-0.242,0-0.458,0.062-0.646,0.186
				c-0.189,0.124-0.331,0.294-0.425,0.512l-0.221,0.512c-0.118,0.277-0.33,0.415-0.637,0.415c-0.2,0-0.368-0.066-0.504-0.198
				s-0.203-0.298-0.203-0.498c0-0.299,0.212-0.551,0.637-0.756c0.229-0.105,0.514-0.192,0.854-0.26
				c0.339-0.067,0.671-0.101,0.996-0.101c0.366,0,0.746,0.047,1.142,0.141c0.395,0.094,0.725,0.213,0.991,0.359
				c0.383,0.217,0.622,0.497,0.717,0.842c0.047,0.176,0.071,0.471,0.071,0.886v3.245c0,0.55,0.023,0.924,0.07,1.123
				c0.1,0.415,0.34,0.623,0.721,0.623c0.182,0,0.324-0.032,0.426-0.096C193.988,61.25,194.109,61.123,194.25,60.931z
				 M191.324,57.473c-0.315,0.264-0.662,0.495-1.041,0.694c-0.426,0.229-0.72,0.401-0.883,0.519s-0.312,0.257-0.446,0.421
				c-0.274,0.34-0.411,0.735-0.411,1.186c0,0.387,0.106,0.706,0.319,0.958s0.482,0.377,0.809,0.377c0.285,0,0.555-0.089,0.809-0.268
				s0.445-0.417,0.573-0.716c0.181-0.392,0.271-0.96,0.271-1.704V57.473z"/>
		</g>
		<g>
			<path stroke="#000000" d="M247.241,82.003c-0.021,0.287-0.031,0.494-0.031,0.623c0,0.509,0.074,1.005,0.224,1.491
				s0.353,0.888,0.61,1.209c0.263,0.328,0.589,0.585,0.979,0.772s0.797,0.28,1.225,0.28c0.316,0,0.616-0.053,0.899-0.159
				s0.519-0.254,0.707-0.443c0.211-0.207,0.392-0.537,0.544-0.992l0.188,0.062c-0.153,0.692-0.48,1.214-0.982,1.566
				s-1.17,0.528-2.004,0.528c-0.723,0-1.342-0.114-1.859-0.342s-0.954-0.579-1.313-1.053c-0.499-0.661-0.749-1.474-0.749-2.44
				c0-1.316,0.472-2.349,1.416-3.098c0.686-0.544,1.468-0.816,2.348-0.816c0.469,0,0.903,0.083,1.302,0.25
				c0.398,0.167,0.736,0.407,1.011,0.723c0.428,0.491,0.642,1.104,0.642,1.84H247.241z M251.085,81.69
				c-0.041-0.593-0.149-1.049-0.325-1.37c-0.158-0.291-0.369-0.521-0.632-0.689c-0.264-0.169-0.544-0.253-0.842-0.253
				c-0.503,0-0.944,0.22-1.321,0.658c-0.377,0.439-0.601,0.99-0.671,1.654H251.085z"/>
		</g>
		<g>
			<path stroke="#000000" d="M288.96,131.625c0.244-0.303,0.477-0.527,0.699-0.673c0.448-0.285,0.984-0.428,1.607-0.428
				c0.885,0,1.656,0.284,2.314,0.851c0.815,0.695,1.223,1.677,1.223,2.945c0,1.269-0.391,2.268-1.172,2.999
				c-0.677,0.637-1.542,0.956-2.597,0.956c-0.554,0-1.023-0.075-1.408-0.226l-0.49-0.2c-0.134-0.052-0.254-0.078-0.358-0.078
				c-0.298,0-0.56,0.209-0.787,0.628h-0.375V128.16c0-0.651-0.105-1.119-0.315-1.401s-0.563-0.423-1.06-0.423v-0.188l2.719-0.375
				V131.625z M288.96,134.285c0,0.626,0.035,1.203,0.104,1.729c0.069,0.527,0.16,0.91,0.27,1.15
				c0.133,0.287,0.332,0.512,0.595,0.676s0.564,0.246,0.9,0.246c0.707,0,1.291-0.339,1.752-1.018s0.691-1.542,0.691-2.59
				c0-0.55-0.076-1.072-0.226-1.567c-0.151-0.494-0.365-0.914-0.644-1.26c-0.22-0.287-0.463-0.504-0.73-0.654
				s-0.539-0.224-0.817-0.224c-0.336,0-0.649,0.104-0.939,0.312c-0.29,0.208-0.504,0.479-0.643,0.812
				C289.064,132.389,288.96,133.185,288.96,134.285z"/>
		</g>
		<path fill="none" d="M21.814,114.784L354.116,240.28"/>
		<path fill="none" stroke="#FF0000" d="M17.371,121.29L354.116,240.28"/>
		<g>
			<path stroke="#000000" d="M295.689,188.294v4.602l0.009,0.668c0,0.399,0.023,0.691,0.07,0.875
				c0.046,0.185,0.137,0.339,0.271,0.462c0.163,0.159,0.463,0.279,0.9,0.361v0.188h-3.906v-0.188
				c0.354-0.047,0.609-0.113,0.763-0.198c0.153-0.085,0.278-0.23,0.373-0.436c0.065-0.135,0.111-0.339,0.137-0.612
				c0.026-0.272,0.04-0.667,0.04-1.184v-4.54h-1.281v-0.313h1.281v-2.146c0-0.516,0.066-0.923,0.2-1.222
				c0.133-0.299,0.372-0.575,0.716-0.827c0.308-0.223,0.684-0.397,1.126-0.523s0.91-0.189,1.402-0.189
				c0.457,0,0.823,0.08,1.099,0.24c0.275,0.16,0.413,0.373,0.413,0.639c0,0.178-0.057,0.326-0.171,0.444s-0.253,0.177-0.417,0.177
				c-0.158,0-0.296-0.043-0.413-0.129s-0.234-0.227-0.352-0.423c-0.164-0.272-0.299-0.452-0.404-0.538s-0.249-0.129-0.431-0.129
				c-0.223,0-0.434,0.045-0.633,0.136s-0.354,0.209-0.466,0.356c-0.123,0.165-0.208,0.38-0.255,0.646s-0.07,0.652-0.07,1.156v2.33
				h1.75v0.313H295.689z"/>
		</g>
		<g>
			<path stroke="#000000" d="M286.929,254.431l0.188,0.062c-0.205,0.629-0.518,1.083-0.938,1.363c-0.421,0.279-1,0.418-1.736,0.418
				c-1.182,0-2.108-0.351-2.78-1.053c-0.655-0.69-0.982-1.562-0.982-2.616c0-0.515,0.091-1.023,0.272-1.527
				c0.182-0.503,0.431-0.933,0.747-1.291c0.357-0.409,0.795-0.722,1.314-0.939c0.519-0.216,1.085-0.325,1.701-0.325
				c0.85,0,1.515,0.19,1.995,0.57c0.293,0.234,0.439,0.491,0.439,0.772c0,0.188-0.062,0.344-0.184,0.469
				c-0.123,0.126-0.271,0.188-0.446,0.188c-0.379,0-0.659-0.278-0.839-0.836c-0.082-0.258-0.148-0.434-0.198-0.528
				s-0.122-0.176-0.215-0.247c-0.182-0.135-0.404-0.202-0.667-0.202c-0.346,0-0.665,0.097-0.957,0.291
				c-0.258,0.17-0.476,0.383-0.655,0.639s-0.335,0.577-0.47,0.965c-0.205,0.594-0.307,1.175-0.307,1.745
				c0,0.523,0.093,1.035,0.279,1.534c0.186,0.5,0.439,0.917,0.759,1.251c0.5,0.529,1.087,0.793,1.762,0.793
				c0.558,0,1.021-0.185,1.387-0.555C286.583,255.181,286.76,254.867,286.929,254.431z"/>
		</g>
		<g>
			<path stroke="#000000" d="M113.626,289.292c0.244-0.303,0.477-0.527,0.699-0.673c0.448-0.285,0.984-0.428,1.607-0.428
				c0.885,0,1.656,0.284,2.314,0.851c0.815,0.695,1.223,1.677,1.223,2.945c0,1.269-0.391,2.269-1.172,2.999
				c-0.677,0.637-1.542,0.955-2.597,0.955c-0.554,0-1.023-0.075-1.408-0.226l-0.49-0.2c-0.134-0.051-0.254-0.078-0.358-0.078
				c-0.298,0-0.56,0.21-0.787,0.629h-0.375v-10.238c0-0.651-0.105-1.119-0.315-1.401s-0.563-0.423-1.06-0.423v-0.188l2.719-0.375
				V289.292z M113.626,291.952c0,0.626,0.035,1.203,0.104,1.729c0.069,0.527,0.16,0.91,0.27,1.15
				c0.133,0.287,0.332,0.512,0.595,0.676s0.564,0.246,0.9,0.246c0.707,0,1.291-0.34,1.752-1.018c0.461-0.68,0.691-1.542,0.691-2.59
				c0-0.55-0.076-1.072-0.226-1.567c-0.151-0.494-0.365-0.914-0.644-1.26c-0.22-0.287-0.463-0.504-0.73-0.654
				s-0.539-0.224-0.817-0.224c-0.336,0-0.649,0.104-0.939,0.312c-0.29,0.208-0.504,0.479-0.643,0.812
				C113.73,290.056,113.626,290.852,113.626,291.952z"/>
		</g>
		<g>
			<path stroke="#000000" d="M80.689,231.961v4.602l0.009,0.668c0,0.399,0.023,0.691,0.07,0.875
				c0.046,0.185,0.137,0.339,0.271,0.462c0.163,0.159,0.463,0.279,0.9,0.361v0.188h-3.906v-0.188
				c0.354-0.047,0.609-0.113,0.763-0.198c0.153-0.085,0.278-0.23,0.373-0.436c0.065-0.135,0.111-0.339,0.137-0.612
				c0.026-0.272,0.04-0.667,0.04-1.184v-4.54h-1.281v-0.313h1.281v-2.146c0-0.516,0.066-0.923,0.2-1.222
				c0.133-0.299,0.372-0.575,0.716-0.827c0.308-0.223,0.684-0.397,1.126-0.523s0.91-0.189,1.402-0.189
				c0.457,0,0.823,0.08,1.099,0.24c0.275,0.16,0.413,0.373,0.413,0.639c0,0.178-0.057,0.326-0.171,0.444s-0.253,0.177-0.417,0.177
				c-0.158,0-0.296-0.043-0.413-0.129s-0.234-0.227-0.352-0.423c-0.164-0.272-0.299-0.452-0.404-0.538s-0.249-0.129-0.431-0.129
				c-0.223,0-0.434,0.045-0.633,0.136s-0.354,0.209-0.466,0.356c-0.123,0.165-0.208,0.38-0.255,0.646s-0.07,0.652-0.07,1.156v2.33
				h1.75v0.313H80.689z"/>
		</g>
		<g>
			<path stroke="#000000" d="M72.261,175.097l0.188,0.062c-0.205,0.629-0.518,1.083-0.938,1.363c-0.421,0.279-1,0.418-1.736,0.418
				c-1.182,0-2.108-0.351-2.78-1.053c-0.655-0.69-0.982-1.562-0.982-2.616c0-0.515,0.091-1.023,0.272-1.527
				c0.182-0.503,0.431-0.933,0.747-1.291c0.357-0.409,0.795-0.722,1.314-0.939c0.519-0.216,1.085-0.325,1.701-0.325
				c0.85,0,1.515,0.19,1.995,0.57c0.293,0.234,0.439,0.491,0.439,0.772c0,0.188-0.062,0.344-0.184,0.469
				c-0.123,0.126-0.271,0.188-0.446,0.188c-0.379,0-0.659-0.278-0.839-0.836c-0.082-0.258-0.148-0.434-0.198-0.528
				s-0.122-0.176-0.215-0.247c-0.182-0.135-0.404-0.202-0.667-0.202c-0.346,0-0.665,0.097-0.957,0.291
				c-0.258,0.17-0.476,0.383-0.655,0.639s-0.335,0.577-0.47,0.965c-0.205,0.594-0.307,1.175-0.307,1.745
				c0,0.523,0.093,1.035,0.279,1.534c0.186,0.5,0.439,0.917,0.759,1.251c0.5,0.529,1.087,0.793,1.762,0.793
				c0.558,0,1.021-0.185,1.387-0.555C71.915,175.847,72.092,175.533,72.261,175.097z"/>
		</g>
		<g>
			<path stroke="#000000" d="M78.251,119.232l-0.156,0.044c-0.1-0.168-0.199-0.285-0.298-0.351c-0.1-0.067-0.222-0.1-0.368-0.1
				c-0.246,0-0.446,0.093-0.601,0.28c-0.155,0.186-0.232,0.428-0.232,0.726c0,0.472,0.235,0.86,0.707,1.164
				c0.472,0.303,1.074,0.455,1.808,0.455c0.78,0,1.41-0.17,1.89-0.509c0.48-0.34,0.72-0.781,0.72-1.324
				c0-0.437-0.16-0.771-0.48-1.004c-0.32-0.233-0.776-0.35-1.37-0.35h-1.387c-0.57,0-1.03-0.133-1.378-0.4
				c-0.361-0.278-0.541-0.612-0.541-1c0-0.412,0.191-0.737,0.575-0.975c0.197-0.116,0.558-0.24,1.081-0.374
				c-0.505-0.234-0.897-0.544-1.176-0.929c-0.279-0.384-0.418-0.808-0.418-1.272c0-0.592,0.219-1.12,0.658-1.584
				c0.257-0.276,0.561-0.49,0.912-0.643s0.711-0.229,1.08-0.229c0.562,0,1.135,0.199,1.72,0.596c0.276-0.216,0.524-0.369,0.744-0.46
				c0.22-0.091,0.459-0.136,0.717-0.136c0.288,0,0.52,0.062,0.696,0.184c0.211,0.152,0.317,0.339,0.317,0.561
				c0,0.135-0.042,0.247-0.127,0.338s-0.19,0.136-0.317,0.136c-0.193,0-0.368-0.101-0.525-0.302l-0.199-0.267
				c-0.109-0.142-0.265-0.213-0.466-0.213c-0.213,0-0.438,0.111-0.673,0.334c0.475,0.582,0.713,1.181,0.713,1.798
				c0,0.77-0.342,1.378-1.024,1.824c-0.342,0.224-0.709,0.374-1.104,0.45c-0.118,0.018-0.492,0.046-1.122,0.086
				c-0.854,0.052-1.281,0.288-1.281,0.707c0,0.368,0.366,0.551,1.098,0.551h1.448c0.509,0,0.939,0.046,1.291,0.137
				c0.351,0.091,0.658,0.233,0.922,0.427c0.515,0.382,0.772,0.918,0.772,1.612c0,0.764-0.298,1.36-0.895,1.789
				c-0.614,0.44-1.514,0.661-2.7,0.661c-1.274,0-2.178-0.256-2.709-0.769c-0.339-0.332-0.508-0.746-0.508-1.24
				c0-0.39,0.125-0.721,0.376-0.991s0.557-0.406,0.919-0.406c0.263,0,0.477,0.08,0.643,0.24c0.166,0.16,0.25,0.37,0.25,0.631
				V119.232z M77.876,113.367c0,0.634,0.133,1.15,0.398,1.548c0.266,0.399,0.605,0.598,1.021,0.598c0.42,0,0.747-0.198,0.98-0.594
				c0.233-0.396,0.351-0.945,0.351-1.649c0-0.727-0.152-1.308-0.456-1.742c-0.222-0.322-0.508-0.484-0.858-0.484
				c-0.421,0-0.759,0.211-1.016,0.633c-0.129,0.211-0.231,0.47-0.307,0.774C77.914,112.757,77.876,113.062,77.876,113.367z"/>
		</g>
		<g>
			<path stroke="#000000" d="M137.079,78.732c-0.063-0.264-0.094-0.542-0.094-0.838c-0.432,0.254-0.838,0.436-1.22,0.547
				s-0.792,0.167-1.229,0.167c-0.886,0-1.644-0.266-2.274-0.799c-0.402-0.339-0.711-0.765-0.927-1.277
				c-0.216-0.512-0.323-1.072-0.323-1.681c0-0.644,0.116-1.239,0.35-1.786s0.56-1.002,0.979-1.365
				c0.665-0.562,1.455-0.843,2.37-0.843c0.443,0,0.822,0.064,1.137,0.191s0.682,0.359,1.102,0.695v-3.268
				c0-0.64-0.106-1.101-0.319-1.383c-0.213-0.282-0.565-0.423-1.056-0.423v-0.188l2.719-0.344v10.246
				c0,0.666,0.106,1.141,0.319,1.423c0.213,0.283,0.564,0.424,1.056,0.424v0.219L137.079,78.732z M136.949,74.655
				c0-0.817-0.035-1.43-0.104-1.838c-0.07-0.408-0.195-0.742-0.375-1.001c-0.157-0.223-0.367-0.402-0.631-0.538
				c-0.264-0.135-0.536-0.203-0.814-0.203c-0.622,0-1.159,0.294-1.611,0.881c-0.273,0.353-0.486,0.773-0.64,1.261
				c-0.154,0.488-0.23,0.99-0.23,1.507c0,0.506,0.072,1.001,0.218,1.485c0.145,0.485,0.342,0.901,0.592,1.248
				c0.435,0.6,0.969,0.899,1.602,0.899c0.302,0,0.589-0.076,0.862-0.229s0.494-0.364,0.662-0.635
				c0.174-0.282,0.296-0.63,0.366-1.044C136.914,76.035,136.949,75.437,136.949,74.655z"/>
		</g>
		<g>
			<path d="M304.133,182.274v-3.583h0.609v3.363l2.058-0.704v-3.209h0.609v3.011l0.819-0.286v2.286l-0.819,0.286v3.253l0.819-0.264
				v2.264l-0.819,0.286v3.583H306.8v-3.385l-2.058,0.704v3.253h-0.609v-3.033l-0.903,0.308v-2.286l0.903-0.308v-3.275l-0.903,0.308
				v-2.264L304.133,182.274z M304.742,184.34v3.275l2.058-0.703v-3.275L304.742,184.34z"/>
		</g>
		<g>
			<path d="M292.466,243.607v-3.583h0.609v3.363l2.058-0.704v-3.209h0.609v3.011l0.819-0.286v2.286l-0.819,0.286v3.253l0.819-0.264
				v2.264l-0.819,0.286v3.583h-0.609v-3.385l-2.058,0.704v3.253h-0.609v-3.033l-0.903,0.308v-2.286l0.903-0.308v-3.275l-0.903,0.308
				v-2.264L292.466,243.607z M293.076,245.673v3.275l2.058-0.703v-3.275L293.076,245.673z"/>
		</g>
		<g>
			<g>
				<path stroke="#000000" d="M233.918,303.898l-0.156,0.044c-0.1-0.168-0.199-0.284-0.298-0.351s-0.222-0.1-0.368-0.1
					c-0.246,0-0.446,0.094-0.601,0.28c-0.155,0.187-0.232,0.429-0.232,0.726c0,0.473,0.235,0.86,0.707,1.164
					c0.472,0.303,1.074,0.455,1.808,0.455c0.78,0,1.41-0.17,1.89-0.509c0.48-0.34,0.72-0.781,0.72-1.324
					c0-0.437-0.16-0.771-0.48-1.005c-0.32-0.232-0.776-0.35-1.37-0.35h-1.387c-0.57,0-1.03-0.133-1.378-0.4
					c-0.361-0.278-0.541-0.611-0.541-1c0-0.412,0.191-0.737,0.575-0.976c0.197-0.116,0.558-0.24,1.081-0.374
					c-0.505-0.234-0.897-0.544-1.176-0.929c-0.279-0.384-0.418-0.808-0.418-1.272c0-0.592,0.219-1.119,0.658-1.584
					c0.257-0.275,0.561-0.49,0.912-0.643s0.711-0.229,1.08-0.229c0.562,0,1.135,0.199,1.72,0.596
					c0.276-0.215,0.524-0.369,0.744-0.459c0.22-0.092,0.459-0.137,0.717-0.137c0.288,0,0.52,0.062,0.696,0.184
					c0.211,0.152,0.317,0.34,0.317,0.562c0,0.135-0.042,0.247-0.127,0.338s-0.19,0.136-0.317,0.136
					c-0.193,0-0.368-0.101-0.525-0.302l-0.199-0.267c-0.109-0.142-0.265-0.213-0.466-0.213c-0.213,0-0.438,0.111-0.673,0.334
					c0.475,0.582,0.713,1.182,0.713,1.799c0,0.77-0.342,1.377-1.024,1.824c-0.342,0.223-0.709,0.373-1.104,0.449
					c-0.118,0.018-0.492,0.046-1.122,0.086c-0.854,0.052-1.281,0.287-1.281,0.707c0,0.367,0.366,0.551,1.098,0.551h1.448
					c0.509,0,0.939,0.046,1.291,0.137c0.351,0.091,0.658,0.233,0.922,0.428c0.515,0.381,0.772,0.918,0.772,1.611
					c0,0.764-0.298,1.359-0.895,1.789c-0.614,0.439-1.514,0.66-2.7,0.66c-1.274,0-2.178-0.256-2.709-0.769
					c-0.339-0.332-0.508-0.745-0.508-1.24c0-0.39,0.125-0.721,0.376-0.991s0.557-0.406,0.919-0.406c0.263,0,0.477,0.08,0.643,0.24
					s0.25,0.37,0.25,0.631V303.898z M233.543,298.033c0,0.634,0.133,1.15,0.398,1.549s0.605,0.598,1.021,0.598
					c0.42,0,0.747-0.197,0.98-0.594c0.233-0.396,0.351-0.945,0.351-1.649c0-0.728-0.152-1.308-0.456-1.741
					c-0.222-0.322-0.508-0.484-0.858-0.484c-0.421,0-0.759,0.211-1.016,0.633c-0.129,0.212-0.231,0.471-0.307,0.775
					C233.581,297.423,233.543,297.728,233.543,298.033z"/>
			</g>
			<g>
				<path d="M243.051,291.355v-3.583h0.609v3.363l2.058-0.704v-3.209h0.609v3.011l0.819-0.286v2.286l-0.819,0.286v3.253l0.819-0.264
					v2.264l-0.819,0.286v3.582h-0.609v-3.385l-2.058,0.703v3.253h-0.609v-3.033l-0.903,0.309v-2.286l0.903-0.308v-3.275
					l-0.903,0.308v-2.264L243.051,291.355z M243.66,293.421v3.275l2.058-0.703v-3.275L243.66,293.421z"/>
			</g>
		</g>
		<g>
			<g>
				<path stroke="#000000" d="M163.751,313.015c-0.021,0.287-0.031,0.494-0.031,0.623c0,0.508,0.074,1.005,0.224,1.49
					s0.353,0.889,0.61,1.209c0.263,0.328,0.589,0.586,0.979,0.772s0.797,0.28,1.225,0.28c0.316,0,0.616-0.053,0.899-0.159
					s0.519-0.254,0.707-0.442c0.211-0.207,0.392-0.537,0.544-0.992l0.188,0.063c-0.153,0.691-0.48,1.214-0.982,1.566
					c-0.502,0.352-1.17,0.527-2.004,0.527c-0.723,0-1.342-0.114-1.859-0.342c-0.517-0.229-0.954-0.58-1.313-1.054
					c-0.499-0.661-0.749-1.474-0.749-2.44c0-1.316,0.472-2.349,1.416-3.098c0.686-0.544,1.468-0.816,2.348-0.816
					c0.469,0,0.903,0.084,1.302,0.25c0.398,0.166,0.736,0.407,1.011,0.723c0.428,0.49,0.642,1.104,0.642,1.84H163.751z
					 M167.595,312.703c-0.041-0.593-0.149-1.049-0.325-1.369c-0.158-0.291-0.369-0.521-0.632-0.689
					c-0.264-0.17-0.544-0.254-0.842-0.254c-0.503,0-0.944,0.22-1.321,0.658c-0.377,0.439-0.601,0.99-0.671,1.654H167.595z"/>
			</g>
			<g>
				<path stroke="#000000" d="M175.22,319.607l5.406-14.688h0.563l-5.406,14.688H175.22z"/>
				<path stroke="#000000" d="M187.694,317.732c-0.063-0.264-0.094-0.543-0.094-0.838c-0.432,0.254-0.838,0.436-1.22,0.547
					c-0.382,0.11-0.792,0.166-1.229,0.166c-0.886,0-1.644-0.266-2.274-0.799c-0.402-0.339-0.711-0.765-0.927-1.277
					c-0.216-0.512-0.323-1.072-0.323-1.68c0-0.645,0.116-1.24,0.35-1.787s0.56-1.002,0.979-1.364
					c0.665-0.562,1.455-0.843,2.37-0.843c0.443,0,0.822,0.064,1.137,0.191s0.682,0.359,1.102,0.695v-3.269
					c0-0.64-0.106-1.101-0.319-1.383s-0.565-0.423-1.056-0.423v-0.188l2.719-0.344v10.246c0,0.666,0.106,1.141,0.319,1.424
					s0.564,0.424,1.056,0.424v0.219L187.694,317.732z M187.565,313.655c0-0.817-0.035-1.43-0.104-1.838
					c-0.07-0.408-0.195-0.742-0.375-1.001c-0.157-0.223-0.367-0.402-0.631-0.537s-0.536-0.203-0.814-0.203
					c-0.622,0-1.159,0.294-1.611,0.881c-0.273,0.354-0.486,0.773-0.64,1.262c-0.154,0.487-0.23,0.99-0.23,1.507
					c0,0.506,0.072,1.001,0.218,1.485c0.145,0.484,0.342,0.9,0.592,1.248c0.435,0.6,0.969,0.898,1.602,0.898
					c0.302,0,0.589-0.076,0.862-0.229c0.273-0.153,0.494-0.365,0.662-0.635c0.174-0.283,0.296-0.631,0.366-1.045
					C187.53,315.035,187.565,314.437,187.565,313.655z"/>
			</g>
			<g>
				<path d="M193.467,303.608v-3.583h0.609v3.363l2.058-0.703v-3.21h0.609v3.012l0.819-0.286v2.286l-0.819,0.286v3.253l0.819-0.264
					v2.264l-0.819,0.286v3.582h-0.609v-3.385l-2.058,0.703v3.253h-0.609v-3.033l-0.903,0.309v-2.286l0.903-0.308v-3.275
					l-0.903,0.308v-2.264L193.467,303.608z M194.076,305.674v3.274l2.058-0.703v-3.275L194.076,305.674z"/>
			</g>
			<g>
				<path d="M172.4,304.441c0,0.204,0,1.45,0,1.45c0.855-0.771,1.328-0.929,2.272-0.952c1.125-0.022,1.845,1.11,1.867,2.017
					c0.022,0.476-0.112,0.974-0.292,1.359c-0.202,0.498-0.742,0.883-1.102,1.246c-0.405,0.407-3.33,2.424-3.33,2.469v-13.388h0.585
					C172.4,298.642,172.422,301.451,172.4,304.441z M172.647,306.684c-0.292,0.566-0.248,1.54-0.248,2.242v1.948
					c0,0.022,0.81-0.68,1.26-1.11c0.405-0.385,0.72-0.815,0.877-1.495c0.18-0.679,0.113-1.404-0.315-1.88
					C173.93,306.049,173.12,305.778,172.647,306.684z"/>
			</g>
		</g>
		<g>
			<path d="M122.771,282.536c0,0.216,0,1.536,0,1.536c0.912-0.816,1.416-0.984,2.424-1.008c1.2-0.024,1.968,1.176,1.992,2.136
				c0.024,0.504-0.12,1.032-0.312,1.44c-0.216,0.528-0.792,0.936-1.176,1.32c-0.432,0.432-3.552,2.568-3.552,2.616v-14.184h0.624
				C122.771,276.392,122.795,279.368,122.771,282.536z M123.036,284.912c-0.312,0.6-0.264,1.632-0.264,2.376v2.064
				c0,0.024,0.864-0.72,1.344-1.176c0.432-0.408,0.768-0.864,0.936-1.584c0.192-0.72,0.12-1.488-0.336-1.992
				C124.403,284.24,123.54,283.952,123.036,284.912z"/>
		</g>
		<g>
			<path fill="#0A50A1" d="M188.438,247.203c0,0.216,0,1.536,0,1.536c0.912-0.816,1.416-0.984,2.424-1.008
				c1.2-0.024,1.968,1.176,1.992,2.136c0.024,0.504-0.12,1.032-0.312,1.44c-0.216,0.528-0.792,0.936-1.176,1.32
				c-0.432,0.432-3.552,2.568-3.552,2.616v-14.184h0.624C188.438,241.059,188.462,244.035,188.438,247.203z M188.702,249.579
				c-0.312,0.6-0.264,1.632-0.264,2.376v2.064c0,0.024,0.864-0.72,1.344-1.176c0.432-0.408,0.768-0.864,0.936-1.584
				c0.192-0.72,0.12-1.488-0.336-1.992C190.07,248.907,189.206,248.619,188.702,249.579z"/>
		</g>
		<g>
			<path fill="#0A50A1" d="M190.438,238.203c0,0.216,0,1.536,0,1.536c0.912-0.816,1.416-0.984,2.424-1.008
				c1.2-0.024,1.968,1.176,1.992,2.136c0.024,0.504-0.12,1.032-0.312,1.44c-0.216,0.528-0.792,0.936-1.176,1.32
				c-0.432,0.432-3.552,2.568-3.552,2.616v-14.184h0.624C190.438,232.059,190.462,235.035,190.438,238.203z M190.702,240.579
				c-0.312,0.6-0.264,1.632-0.264,2.376v2.064c0,0.024,0.864-0.72,1.344-1.176c0.432-0.408,0.768-0.864,0.936-1.584
				c0.192-0.72,0.12-1.488-0.336-1.992C192.07,239.907,191.206,239.619,190.702,240.579z"/>
		</g>
	</g>
</svg>
