<?xml version="1.0" encoding="utf-8"?>
<!-- Generator: Adobe Illustrator 10.0, SVG Export Plug-In . SVG Version: 3.0.0 Build 76)  -->
<!DOCTYPE svg PUBLIC "-//W3C//DTD SVG 1.0//EN"    "http://www.w3.org/TR/2001/REC-SVG-20010904/DTD/svg10.dtd" [
	<!ENTITY ns_flows "http://ns.adobe.com/Flows/1.0/">
	<!ENTITY ns_extend "http://ns.adobe.com/Extensibility/1.0/">
	<!ENTITY ns_ai "http://ns.adobe.com/AdobeIllustrator/10.0/">
	<!ENTITY ns_svg "http://www.w3.org/2000/svg">
	<!ENTITY ns_xlink "http://www.w3.org/1999/xlink">
]>
<svg  xmlns:x="&ns_extend;" xmlns:i="&ns_ai;" xmlns:graph="&ns_graphs;"
	 xmlns="&ns_svg;" xmlns:xlink="&ns_xlink;" xmlns:a="http://ns.adobe.com/AdobeSVGViewerExtensions/3.0/" width="413" height="241"
	 viewBox="0 0.168 413 241" overflow="visible" enable-background="new 0 0.168 413 241" xml:space="preserve">
	<g id="Layer_1_2_">
		<g>
			<path fill="none" stroke="#000000" d="M0.111,16.929h412.539"/>
			<path fill="none" stroke="#000000" d="M0.111,31.041h412.539"/>
			<path fill="none" stroke="#000000" d="M0.316,38.164h412.539"/>
			<path fill="none" stroke="#000000" d="M0,45.547h412.538"/>
			<path fill="none" stroke="#000000" d="M0,24.183h412.538"/>
		</g>
		<g>
			<path d="M90.909,27.596c2.04,0.024,3.144,1.416,2.52,3.12c-0.624,1.728-2.784,3.096-4.8,3.072
				c-0.984-0.024-1.776-0.384-2.232-0.936v19.08H85.94c0-24.216,0-20.4,0-20.4c0-0.288,0.072-0.576,0.192-0.888
				C86.756,28.916,88.893,27.572,90.909,27.596z"/>
		</g>
		<g>
			<path d="M59.779,43.01c0.984,0,1.776,0.36,2.232,0.912V24.698h0.456v20.4c0,0.336-0.048,0.672-0.168,1.056
				c-0.648,1.704-2.784,3.072-4.8,3.048c-2.016-0.024-3.144-1.44-2.52-3.144S57.763,42.986,59.779,43.01z"/>
		</g>
		<g>
			<path d="M208.779,31.01c0.984,0,1.776,0.36,2.232,0.912V12.698h0.456v20.4c0,0.336-0.048,0.672-0.168,1.056
				c-0.648,1.704-2.784,3.072-4.8,3.048c-2.016-0.024-3.144-1.44-2.52-3.144S206.763,30.986,208.779,31.01z"/>
		</g>
		<g>
			<path d="M120.909,24.596c2.04,0.024,3.144,1.416,2.52,3.12c-0.624,1.728-2.784,3.096-4.8,3.072
				c-0.984-0.024-1.776-0.384-2.232-0.936v19.08h-0.456c0-24.216,0-20.4,0-20.4c0-0.288,0.072-0.576,0.192-0.888
				C116.756,25.916,118.893,24.572,120.909,24.596z"/>
		</g>
		<g>
			<path d="M151.909,9.596c2.04,0.024,3.144,1.416,2.52,3.12c-0.624,1.728-2.784,3.096-4.8,3.072
				c-0.984-0.024-1.776-0.384-2.232-0.936v19.08h-0.456c0-24.216,0-20.4,0-20.4c0-0.288,0.072-0.576,0.192-0.888
				C147.756,10.916,149.893,9.572,151.909,9.596z"/>
		</g>
		<g>
			<path d="M182.909,16.596c2.04,0.024,3.144,1.416,2.52,3.12c-0.624,1.728-2.784,3.096-4.8,3.072
				c-0.984-0.024-1.776-0.384-2.232-0.936v19.08h-0.456c0-24.216,0-20.4,0-20.4c0-0.288,0.072-0.576,0.192-0.888
				C178.756,17.916,180.893,16.572,182.909,16.596z"/>
		</g>
		<g>
			<path d="M240.909,20.596c2.04,0.024,3.144,1.416,2.52,3.12c-0.624,1.728-2.784,3.096-4.8,3.072
				c-0.984-0.024-1.776-0.384-2.232-0.936v19.08h-0.456c0-24.216,0-20.4,0-20.4c0-0.288,0.072-0.576,0.192-0.888
				C236.756,21.916,238.893,20.572,240.909,20.596z"/>
		</g>
		<g>
			<path d="M275.779,46.01c0.984,0,1.776,0.36,2.232,0.912V27.698h0.456v20.4c0,0.336-0.048,0.672-0.168,1.056
				c-0.648,1.704-2.784,3.072-4.8,3.048c-2.016-0.024-3.144-1.44-2.52-3.144S273.763,45.986,275.779,46.01z"/>
		</g>
		<g>
			<g>
				<path d="M307.378,58.82c-2.04-0.024-3.145-1.416-2.521-3.12c0.624-1.728,2.784-3.096,4.8-3.072
					c0.984,0.024,1.776,0.384,2.232,0.936v-19.08h0.456c0,24.216,0,20.4,0,20.4c0,0.288-0.072,0.576-0.192,0.888
					C311.529,57.5,309.394,58.844,307.378,58.82z"/>
			</g>
			<path fill="none" stroke="#000000" d="M302.473,51.986h12"/>
		</g>
		<g>
			<g>
				<path d="M339.968,0c2.04,0.024,3.145,1.416,2.521,3.12c-0.624,1.728-2.784,3.096-4.8,3.072
					c-0.984-0.024-1.776-0.384-2.232-0.936v19.08H335c0-24.216,0-20.4,0-20.4c0-0.288,0.072-0.576,0.192-0.888
					C335.816,1.32,337.952-0.024,339.968,0z"/>
			</g>
			<g>
				<path fill="none" stroke="#000000" d="M333,10.168h12"/>
				<path fill="none" stroke="#000000" d="M332.666,3.168h12"/>
			</g>
		</g>
		<g>
			<path d="M370.779,35.01c0.983,0,1.775,0.36,2.231,0.912V16.698h0.456v20.4c0,0.336-0.048,0.672-0.168,1.056
				c-0.648,1.704-2.784,3.072-4.8,3.048c-2.017-0.024-3.145-1.44-2.521-3.144S368.763,34.986,370.779,35.01z"/>
		</g>
		<g>
			<path fill="none" stroke="#000000" d="M0.11,107.929h412.538"/>
			<path fill="none" stroke="#000000" d="M0.11,122.041h412.538"/>
			<path fill="none" stroke="#000000" d="M0.315,129.164h412.538"/>
			<path fill="none" stroke="#000000" d="M0,136.547h412.537"/>
			<path fill="none" stroke="#000000" d="M0,115.183h412.537"/>
		</g>
		<g>
			<path d="M90.908,118.596c2.04,0.024,3.144,1.416,2.52,3.12c-0.624,1.728-2.784,3.096-4.8,3.072
				c-0.984-0.024-1.776-0.384-2.232-0.936v19.08H85.94c0-24.216,0-20.4,0-20.4c0-0.288,0.072-0.576,0.192-0.888
				C86.756,119.916,88.892,118.572,90.908,118.596z"/>
		</g>
		<g>
			<path d="M59.778,134.01c0.984,0,1.776,0.36,2.232,0.912v-19.224h0.456v20.4c0,0.336-0.048,0.672-0.168,1.056
				c-0.648,1.704-2.784,3.072-4.8,3.048c-2.016-0.024-3.144-1.44-2.52-3.144S57.762,133.986,59.778,134.01z"/>
		</g>
		<g>
			<path d="M208.778,122.01c0.984,0,1.776,0.36,2.232,0.912v-19.224h0.456v20.4c0,0.336-0.048,0.672-0.168,1.056
				c-0.648,1.704-2.784,3.072-4.8,3.048c-2.016-0.024-3.144-1.44-2.52-3.144S206.762,121.986,208.778,122.01z"/>
		</g>
		<g>
			<path d="M120.908,115.596c2.04,0.024,3.144,1.416,2.52,3.12c-0.624,1.728-2.784,3.096-4.8,3.072
				c-0.984-0.024-1.776-0.384-2.232-0.936v19.08h-0.456c0-24.216,0-20.4,0-20.4c0-0.288,0.072-0.576,0.192-0.888
				C116.756,116.916,118.892,115.572,120.908,115.596z"/>
		</g>
		<g>
			<path d="M151.908,100.596c2.04,0.024,3.144,1.416,2.52,3.12c-0.624,1.728-2.784,3.096-4.8,3.072
				c-0.984-0.024-1.776-0.384-2.232-0.936v19.08h-0.456c0-24.216,0-20.4,0-20.4c0-0.288,0.072-0.576,0.192-0.888
				C147.756,101.916,149.892,100.572,151.908,100.596z"/>
		</g>
		<g>
			<path d="M182.908,107.596c2.04,0.024,3.144,1.416,2.52,3.12c-0.624,1.728-2.784,3.096-4.8,3.072
				c-0.984-0.024-1.776-0.384-2.232-0.936v19.08h-0.456c0-24.216,0-20.4,0-20.4c0-0.288,0.072-0.576,0.192-0.888
				C178.756,108.916,180.892,107.572,182.908,107.596z"/>
		</g>
		<g>
			<path d="M240.908,111.596c2.04,0.024,3.144,1.416,2.52,3.12c-0.624,1.728-2.784,3.096-4.8,3.072
				c-0.984-0.024-1.776-0.384-2.232-0.936v19.08h-0.456c0-24.216,0-20.4,0-20.4c0-0.288,0.072-0.576,0.192-0.888
				C236.756,112.916,238.892,111.572,240.908,111.596z"/>
		</g>
		<g>
			<path d="M275.778,137.01c0.984,0,1.776,0.36,2.232,0.912v-19.224h0.456v20.4c0,0.336-0.048,0.672-0.168,1.056
				c-0.648,1.704-2.784,3.072-4.8,3.048c-2.016-0.024-3.144-1.44-2.52-3.144S273.762,136.986,275.778,137.01z"/>
		</g>
		<g>
			<g>
				<path d="M307.378,149.82c-2.04-0.024-3.145-1.416-2.521-3.12c0.624-1.728,2.784-3.096,4.8-3.072
					c0.984,0.024,1.776,0.384,2.232,0.936v-19.08h0.456c0,24.216,0,20.4,0,20.4c0,0.288-0.072,0.576-0.192,0.888
					C311.529,148.5,309.394,149.844,307.378,149.82z"/>
			</g>
			<path fill="none" stroke="#000000" d="M302.473,142.986h12"/>
		</g>
		<g>
			<g>
				<path d="M341.968,91c2.04,0.024,3.145,1.416,2.521,3.12c-0.624,1.728-2.784,3.096-4.8,3.072
					c-0.984-0.024-1.776-0.384-2.232-0.936v19.08H337c0-24.216,0-20.4,0-20.4c0-0.288,0.072-0.576,0.192-0.888
					C337.816,92.32,339.952,90.976,341.968,91z"/>
			</g>
			<g>
				<path fill="none" stroke="#000000" d="M335,101.168h12"/>
				<path fill="none" stroke="#000000" d="M334.666,94.168h12"/>
			</g>
		</g>
		<g>
			<path d="M367.779,126.01c0.983,0,1.775,0.36,2.231,0.912v-19.224h0.456v20.4c0,0.336-0.048,0.672-0.168,1.056
				c-0.648,1.704-2.784,3.072-4.8,3.048c-2.017-0.024-3.145-1.44-2.521-3.144S365.763,125.986,367.779,126.01z"/>
		</g>
		<g>
			<path fill="none" stroke="#000000" d="M0.11,198.929h412.538"/>
			<path fill="none" stroke="#000000" d="M0.11,213.041h412.538"/>
			<path fill="none" stroke="#000000" d="M0.315,220.164h412.538"/>
			<path fill="none" stroke="#000000" d="M0,227.547h412.537"/>
			<path fill="none" stroke="#000000" d="M0,206.183h412.537"/>
		</g>
		<g>
			<path d="M90.908,209.596c2.04,0.024,3.144,1.416,2.52,3.12c-0.624,1.728-2.784,3.096-4.8,3.072
				c-0.984-0.024-1.776-0.384-2.232-0.936v19.08H85.94c0-24.216,0-20.4,0-20.4c0-0.288,0.072-0.576,0.192-0.888
				C86.756,210.916,88.892,209.572,90.908,209.596z"/>
		</g>
		<g>
			<path d="M59.778,225.01c0.984,0,1.776,0.36,2.232,0.912v-19.224h0.456v20.4c0,0.336-0.048,0.672-0.168,1.056
				c-0.648,1.704-2.784,3.072-4.8,3.048c-2.016-0.024-3.144-1.44-2.52-3.144S57.762,224.986,59.778,225.01z"/>
		</g>
		<g>
			<path d="M208.778,213.01c0.984,0,1.776,0.36,2.232,0.912v-19.224h0.456v20.4c0,0.336-0.048,0.672-0.168,1.056
				c-0.648,1.704-2.784,3.072-4.8,3.048c-2.016-0.024-3.144-1.44-2.52-3.144S206.762,212.986,208.778,213.01z"/>
		</g>
		<g>
			<path d="M120.908,206.596c2.04,0.024,3.144,1.416,2.52,3.12c-0.624,1.728-2.784,3.096-4.8,3.072
				c-0.984-0.024-1.776-0.384-2.232-0.936v19.08h-0.456c0-24.216,0-20.4,0-20.4c0-0.288,0.072-0.576,0.192-0.888
				C116.756,207.916,118.892,206.572,120.908,206.596z"/>
		</g>
		<g>
			<path d="M151.908,191.596c2.04,0.024,3.144,1.416,2.52,3.12c-0.624,1.728-2.784,3.096-4.8,3.072
				c-0.984-0.024-1.776-0.384-2.232-0.936v19.08h-0.456c0-24.216,0-20.4,0-20.4c0-0.288,0.072-0.576,0.192-0.888
				C147.756,192.916,149.892,191.572,151.908,191.596z"/>
		</g>
		<g>
			<path d="M182.908,198.596c2.04,0.024,3.144,1.416,2.52,3.12c-0.624,1.728-2.784,3.096-4.8,3.072
				c-0.984-0.024-1.776-0.384-2.232-0.936v19.08h-0.456c0-24.216,0-20.4,0-20.4c0-0.288,0.072-0.576,0.192-0.888
				C178.756,199.916,180.892,198.572,182.908,198.596z"/>
		</g>
		<g>
			<path d="M240.908,202.596c2.04,0.024,3.144,1.416,2.52,3.12c-0.624,1.728-2.784,3.096-4.8,3.072
				c-0.984-0.024-1.776-0.384-2.232-0.936v19.08h-0.456c0-24.216,0-20.4,0-20.4c0-0.288,0.072-0.576,0.192-0.888
				C236.756,203.916,238.892,202.572,240.908,202.596z"/>
		</g>
		<g>
			<path d="M273.778,228.01c0.984,0,1.776,0.36,2.232,0.912v-19.224h0.456v20.4c0,0.336-0.048,0.672-0.168,1.056
				c-0.648,1.704-2.784,3.072-4.8,3.048c-2.016-0.024-3.144-1.44-2.52-3.144S271.762,227.986,273.778,228.01z"/>
		</g>
		<g>
			<g>
				<path d="M305.378,240.82c-2.04-0.024-3.145-1.416-2.521-3.12c0.624-1.728,2.784-3.096,4.8-3.072
					c0.984,0.024,1.776,0.384,2.232,0.936v-19.08h0.456c0,24.216,0,20.4,0,20.4c0,0.288-0.072,0.576-0.192,0.888
					C309.529,239.5,307.394,240.844,305.378,240.82z"/>
			</g>
			<path fill="none" stroke="#000000" d="M300.473,233.986h12"/>
		</g>
		<g>
			<g>
				<path d="M338.968,182c2.04,0.024,3.145,1.416,2.521,3.12c-0.624,1.728-2.784,3.096-4.8,3.072
					c-0.984-0.024-1.776-0.384-2.232-0.936v19.08H334c0-24.216,0-20.4,0-20.4c0-0.288,0.072-0.576,0.192-0.888
					C334.816,183.32,336.952,181.976,338.968,182z"/>
			</g>
			<g>
				<path fill="none" stroke="#000000" d="M332,192.168h12"/>
				<path fill="none" stroke="#000000" d="M331.666,185.168h12"/>
			</g>
		</g>
		<g>
			<path d="M369.779,217.01c0.983,0,1.775,0.36,2.231,0.912v-19.224h0.456v20.4c0,0.336-0.048,0.672-0.168,1.056
				c-0.648,1.704-2.784,3.072-4.8,3.048c-2.017-0.024-3.145-1.44-2.521-3.144S367.763,216.986,369.779,217.01z"/>
		</g>
		<g>
			<path d="M17.952,44.856c-4.944-2.352-5.736-5.376-5.952-8.472c-0.24-3.36,1.896-6.768,3.888-8.664
				c1.152-1.08,2.4-2.136,3.888-3.264c-0.048-0.84-0.24-1.176-0.336-2.376c-0.024-0.504-0.336-2.856,0.168-5.568
				c0.312-1.608,2.328-5.4,3.72-5.424c1.08-0.024,2.736,4.296,2.784,6.456c0.072,3.336-0.72,4.848-1.704,6.576
				c-0.504,0.864-1.032,1.464-1.584,2.136C22.248,26.952,21.6,27.36,21,27.888c0,0,0.768,4.344,0.792,4.656
				c1.536-0.192,3.408,0.36,4.08,0.84c1.704,1.272,2.352,3.024,2.472,4.728c0.216,2.712-1.272,5.568-4.56,6.936
				c0,0,0.504,3.456,0.624,4.176c0.264,1.896,0.216,3.096-0.192,3.864c-0.696,1.296-1.824,2.496-4.008,2.64
				c-1.68,0.096-4.992-0.744-5.16-3.384c-0.096-1.56,0.6-3.24,2.496-3.36c1.152-0.096,2.52,0.864,2.616,2.232
				c0.096,1.176-0.672,2.4-2.664,2.952c0.312,0.432,1.248,0.936,2.592,0.936c1.392,0,2.832-0.936,3.528-2.184
				c0.432-0.816,0.384-2.28,0.216-3.624c-0.072-0.456-0.648-4.08-0.648-4.08C21.408,45.504,18.96,45.336,17.952,44.856z
				 M18.432,39.168c0.048,1.152,1.008,2.496,1.896,2.952c-0.12,0.072-0.24,0.264-0.24,0.264c-0.984-0.48-1.824-1.272-2.04-1.56
				c-0.696-0.936-0.984-1.464-1.08-2.88c-0.096-1.32,0.624-3.096,2.232-4.344c0.84-0.624,1.248-0.768,1.968-0.936l-0.72-4.344
				c-0.744,0.432-3.816,2.904-5.112,4.92c-1.152,1.8-1.848,3.24-1.704,5.016c0.288,4.008,4.68,7.296,9.432,6.168
				c0,0-1.416-8.52-1.392-8.52C19.056,36,18.36,38.016,18.432,39.168z M20.376,23.952c2.088-1.632,4.92-4.704,4.752-7.08
				c-0.048-0.744-0.36-2.088-1.44-2.064C21.216,14.832,19.824,19.992,20.376,23.952z M23.64,44.232
				c2.76-0.936,2.88-3.312,2.784-4.728c-0.096-1.176-0.624-3.816-4.128-3.648L23.64,44.232z"/>
		</g>
		<g>
			<path d="M9.024,225.312v-24.264h2.88v24.264H9.024z M13.32,201.048h0.96v24.264h-0.96V201.048z M19.608,210.744
				c2.352-0.024,2.256-3.552,2.256-4.176c0-1.8-0.576-5.064-2.448-5.04c-2.52,0-3.624,1.536-2.736,1.368
				c1.656-0.336,2.184,0.36,2.184,1.632c0,1.008-1.128,1.536-1.656,1.536c-1.272,0-1.968-1.488-1.872-2.328
				c0.384-2.736,3.672-2.88,5.304-2.808c2.112,0.096,4.08,2.448,4.08,5.472c0,2.784-1.416,5.592-4.44,5.568
				c-1.512,0-2.472-0.936-2.664-1.056c-0.336,0.384-0.768,2.136-0.768,2.256s0.432,1.872,0.768,2.256
				c0.192-0.12,1.152-1.056,2.664-1.08c3.024,0,4.44,2.808,4.44,5.592c0,3.024-1.968,5.352-4.08,5.472
				c-1.632,0.072-4.92-0.096-5.304-2.808c-0.096-0.84,0.6-2.352,1.872-2.352c0.528,0,1.656,0.552,1.656,1.56
				c0,1.272-0.72,1.968-2.184,1.632c-0.888-0.192,0.432,1.392,2.736,1.368c1.872-0.024,2.448-3.24,2.448-5.04
				c0-0.624,0.096-4.176-2.256-4.176c-2.784-0.024-2.496,2.136-3.072,2.856c0.12-2.976-1.8-5.28-1.8-5.28s1.968-2.304,1.896-5.328
				C16.968,208.632,16.896,210.792,19.608,210.744z"/>
		</g>
		<g>
			<path d="M22.55,125.743c-0.937,1.135-1.526,1.76-2.704,2.667c-1.418,1.107-2.382,1.561-4.042,2.242
				c-1.606,0.625-4.31,1.135-4.31,1.135l-0.188-0.426c0,0,4.523-1.447,6.745-3.944c2.918-3.207,4.443-7.094,4.363-12.06
				c-0.027-2.242-0.696-6.442-4.069-6.47c-1.927,0-4.657,1.76-4.47,3.944c0.053,0.313,0.803-0.34,2.275-0.284
				c1.553,0.057,2.382,2.1,2.008,3.689c-0.268,1.249-1.018,2.043-2.382,2.043c-1.74,0-3.292-1.306-3.319-3.462
				c-0.053-3.264,1.66-4.91,2.704-5.59c1.312-0.852,2.73-1.164,3.935-1.164c2.704-0.057,5.702,2.015,6.719,5.023
				c0.589,1.702,0.589,3.604,0.134,5.817c-0.294,1.504-0.669,2.327-1.338,3.689C23.941,123.898,23.46,124.608,22.55,125.743z
				 M28.76,110.135c0.83,0,1.499,0.625,1.499,1.476c0.027,0.852-0.642,1.589-1.445,1.589c-0.803,0.028-1.499-0.681-1.499-1.532
				C27.288,110.788,27.957,110.164,28.76,110.135z M28.786,117.287c0.803,0,1.472,0.624,1.499,1.476
				c0,0.879-0.642,1.589-1.445,1.589c-0.83,0.028-1.499-0.652-1.526-1.532C27.314,117.968,27.957,117.315,28.786,117.287z"/>
		</g>
	</g>
</svg>
