<?xml version="1.0" encoding="utf-8"?>
<!-- Generator: Adobe Illustrator 10.0, SVG Export Plug-In . SVG Version: 3.0.0 Build 76)  -->
<!DOCTYPE svg PUBLIC "-//W3C//DTD SVG 1.0//EN"    "http://www.w3.org/TR/2001/REC-SVG-20010904/DTD/svg10.dtd" [
	<!ENTITY ns_flows "http://ns.adobe.com/Flows/1.0/">
	<!ENTITY ns_extend "http://ns.adobe.com/Extensibility/1.0/">
	<!ENTITY ns_ai "http://ns.adobe.com/AdobeIllustrator/10.0/">
	<!ENTITY ns_svg "http://www.w3.org/2000/svg">
	<!ENTITY ns_xlink "http://www.w3.org/1999/xlink">
]>
<svg  xmlns:x="&ns_extend;" xmlns:i="&ns_ai;" xmlns:graph="&ns_graphs;"
	 xmlns="&ns_svg;" xmlns:xlink="&ns_xlink;" xmlns:a="http://ns.adobe.com/AdobeSVGViewerExtensions/3.0/" width="320" height="197"
	 viewBox="-0.432 -0.42 320 197" overflow="visible" enable-background="new -0.432 -0.42 320 197" xml:space="preserve">
	<g id="Layer_1_2_">
		<g>
			<path d="M98.49,154.157c2.664,0.024,5.184,1.032,5.376,3.264c0.144,1.632-2.016,3.12-4.68,3.12
				c-2.688-0.024-5.184-1.008-5.4-3.24C93.642,155.645,95.826,154.157,98.49,154.157z M99.138,159.989
				c1.152,0,1.896-1.104,1.776-1.992c-0.264-1.752-0.864-3.168-2.448-3.168c-1.152,0-1.824,1.128-1.68,2.016
				C97.05,158.597,97.554,159.989,99.138,159.989z"/>
		</g>
		<g>
			<path d="M98.49,161.157c2.664,0.024,5.184,1.032,5.376,3.264c0.144,1.632-2.016,3.12-4.68,3.12
				c-2.688-0.024-5.184-1.008-5.4-3.24C93.642,162.645,95.826,161.157,98.49,161.157z M99.138,166.989
				c1.152,0,1.896-1.104,1.776-1.992c-0.264-1.752-0.864-3.168-2.448-3.168c-1.152,0-1.824,1.128-1.68,2.016
				C97.05,165.597,97.554,166.989,99.138,166.989z"/>
		</g>
		<g>
			<path d="M98.164,167.661c2.664,0.024,5.184,1.032,5.376,3.264c0.144,1.632-2.016,3.12-4.68,3.12
				c-2.688-0.024-5.184-1.008-5.4-3.24C93.316,169.149,95.5,167.661,98.164,167.661z M98.812,173.493
				c1.152,0,1.896-1.104,1.776-1.992c-0.264-1.752-0.864-3.168-2.448-3.168c-1.152,0-1.824,1.128-1.68,2.016
				C96.724,172.101,97.228,173.493,98.812,173.493z"/>
		</g>
		<g>
			<path d="M162.49,153.157c2.664,0.024,5.184,1.032,5.376,3.264c0.144,1.632-2.016,3.12-4.68,3.12
				c-2.688-0.024-5.184-1.008-5.4-3.24C157.642,154.645,159.826,153.157,162.49,153.157z M163.138,158.989
				c1.152,0,1.896-1.104,1.776-1.992c-0.264-1.752-0.864-3.168-2.448-3.168c-1.152,0-1.824,1.128-1.68,2.016
				C161.05,157.597,161.554,158.989,163.138,158.989z"/>
		</g>
		<g>
			<path d="M97.49,41.157c2.664,0.024,5.184,1.032,5.376,3.264c0.144,1.632-2.016,3.12-4.68,3.12c-2.688-0.024-5.184-1.008-5.4-3.24
				C92.642,42.645,94.826,41.157,97.49,41.157z M98.138,46.989c1.152,0,1.896-1.104,1.776-1.992
				c-0.264-1.752-0.864-3.168-2.448-3.168c-1.152,0-1.824,1.128-1.68,2.016C96.05,45.597,96.554,46.989,98.138,46.989z"/>
		</g>
		<g>
			<path fill="none" stroke="#000000" d="M42.661,23.539h276.958"/>
			<path fill="none" stroke="#000000" d="M42.661,37.65h276.958"/>
			<path fill="none" stroke="#000000" d="M42.798,44.773h276.958"/>
			<path fill="none" stroke="#000000" d="M42.586,52.157h276.957"/>
			<path fill="none" stroke="#000000" d="M42.586,30.792h276.957"/>
		</g>
		<g>
			<path d="M161.16,110.444v-3.912h0.696v3.672l2.352-0.768v-3.504h0.696v3.288l0.936-0.312v2.496l-0.936,0.312v3.552l0.936-0.288
				v2.472l-0.936,0.312v3.912h-0.696v-3.696l-2.352,0.768v3.552h-0.696v-3.312l-1.032,0.336v-2.496l1.032-0.336v-3.576l-1.032,0.336
				v-2.472L161.16,110.444z M161.856,112.701v3.576l2.352-0.768v-3.576L161.856,112.701z"/>
		</g>
		<g>
			<path d="M56.738,51.061c-4.944-2.352-5.736-5.376-5.952-8.472c-0.24-3.36,1.896-6.768,3.888-8.664
				c1.152-1.08,2.4-2.136,3.888-3.264c-0.048-0.84-0.24-1.176-0.336-2.376c-0.024-0.504-0.336-2.856,0.168-5.568
				c0.312-1.608,2.328-5.4,3.72-5.424c1.08-0.024,2.736,4.296,2.784,6.456c0.072,3.336-0.72,4.848-1.704,6.576
				c-0.504,0.864-1.032,1.464-1.584,2.136c-0.576,0.696-1.224,1.104-1.824,1.632c0,0,0.768,4.344,0.792,4.656
				c1.536-0.192,3.408,0.36,4.08,0.84c1.704,1.272,2.352,3.024,2.472,4.728c0.216,2.712-1.272,5.568-4.56,6.936
				c0,0,0.504,3.456,0.624,4.176c0.264,1.896,0.216,3.096-0.192,3.864c-0.696,1.296-1.824,2.496-4.008,2.64
				c-1.68,0.096-4.992-0.744-5.16-3.384c-0.096-1.56,0.6-3.24,2.496-3.36c1.152-0.096,2.52,0.864,2.616,2.232
				c0.096,1.176-0.672,2.4-2.664,2.952c0.312,0.432,1.248,0.936,2.592,0.936c1.392,0,2.832-0.936,3.528-2.184
				c0.432-0.816,0.384-2.28,0.216-3.624c-0.072-0.456-0.648-4.08-0.648-4.08C60.194,51.709,57.746,51.541,56.738,51.061z
				 M57.218,45.373c0.048,1.152,1.008,2.496,1.896,2.952c-0.12,0.072-0.24,0.264-0.24,0.264c-0.984-0.48-1.824-1.272-2.04-1.56
				c-0.696-0.936-0.984-1.464-1.08-2.88c-0.096-1.32,0.624-3.096,2.232-4.344c0.84-0.624,1.248-0.768,1.968-0.936l-0.72-4.344
				c-0.744,0.432-3.816,2.904-5.112,4.92c-1.152,1.8-1.848,3.24-1.704,5.016c0.288,4.008,4.68,7.296,9.432,6.168
				c0,0-1.416-8.52-1.392-8.52C57.842,42.205,57.146,44.221,57.218,45.373z M59.162,30.157c2.088-1.632,4.92-4.704,4.752-7.08
				c-0.048-0.744-0.36-2.088-1.44-2.064C60.002,21.037,58.61,26.197,59.162,30.157z M62.426,50.437
				c2.76-0.936,2.88-3.312,2.784-4.728c-0.096-1.176-0.624-3.816-4.128-3.648L62.426,50.437z"/>
		</g>
		<g>
			<path d="M97.49,48.157c2.664,0.024,5.184,1.032,5.376,3.264c0.144,1.632-2.016,3.12-4.68,3.12c-2.688-0.024-5.184-1.008-5.4-3.24
				C92.642,49.645,94.826,48.157,97.49,48.157z M98.138,53.989c1.152,0,1.896-1.104,1.776-1.992
				c-0.264-1.752-0.864-3.168-2.448-3.168c-1.152,0-1.824,1.128-1.68,2.016C96.05,52.597,96.554,53.989,98.138,53.989z"/>
		</g>
		<g>
			<path d="M97.164,55.661c2.664,0.024,5.184,1.032,5.376,3.264c0.144,1.632-2.016,3.12-4.68,3.12
				c-2.688-0.024-5.184-1.008-5.4-3.24C92.316,57.149,94.5,55.661,97.164,55.661z M97.812,61.493c1.152,0,1.896-1.104,1.776-1.992
				c-0.264-1.752-0.864-3.168-2.448-3.168c-1.152,0-1.824,1.128-1.68,2.016C95.724,60.101,96.228,61.493,97.812,61.493z"/>
		</g>
		<path fill="none" stroke="#000000" d="M90.901,58.58h14.667"/>
		<g>
			<path d="M132.49,52.157c2.664,0.024,5.184,1.032,5.376,3.264c0.144,1.632-2.016,3.12-4.68,3.12
				c-2.688-0.024-5.184-1.008-5.4-3.24C127.642,53.645,129.826,52.157,132.49,52.157z M133.138,57.989
				c1.152,0,1.896-1.104,1.776-1.992c-0.264-1.752-0.864-3.168-2.448-3.168c-1.152,0-1.824,1.128-1.68,2.016
				C131.05,56.597,131.554,57.989,133.138,57.989z"/>
		</g>
		<g>
			<path d="M132.49,45.157c2.664,0.024,5.184,1.032,5.376,3.264c0.144,1.632-2.016,3.12-4.68,3.12
				c-2.688-0.024-5.184-1.008-5.4-3.24C127.642,46.645,129.826,45.157,132.49,45.157z M133.138,50.989
				c1.152,0,1.896-1.104,1.776-1.992c-0.264-1.752-0.864-3.168-2.448-3.168c-1.152,0-1.824,1.128-1.68,2.016
				C131.05,49.597,131.554,50.989,133.138,50.989z"/>
		</g>
		<g>
			<path d="M132.49,38.157c2.664,0.024,5.184,1.032,5.376,3.264c0.144,1.632-2.016,3.12-4.68,3.12
				c-2.688-0.024-5.184-1.008-5.4-3.24C127.642,39.645,129.826,38.157,132.49,38.157z M133.138,43.989
				c1.152,0,1.896-1.104,1.776-1.992c-0.264-1.752-0.864-3.168-2.448-3.168c-1.152,0-1.824,1.128-1.68,2.016
				C131.05,42.597,131.554,43.989,133.138,43.989z"/>
		</g>
		<g>
			<path d="M161.49,48.157c2.664,0.024,5.184,1.032,5.376,3.264c0.144,1.632-2.016,3.12-4.68,3.12
				c-2.688-0.024-5.184-1.008-5.4-3.24C156.642,49.645,158.826,48.157,161.49,48.157z M162.138,53.989
				c1.152,0,1.896-1.104,1.776-1.992c-0.264-1.752-0.864-3.168-2.448-3.168c-1.152,0-1.824,1.128-1.68,2.016
				C160.05,52.597,160.554,53.989,162.138,53.989z"/>
		</g>
		<g>
			<path d="M161.49,41.157c2.664,0.024,5.184,1.032,5.376,3.264c0.144,1.632-2.016,3.12-4.68,3.12
				c-2.688-0.024-5.184-1.008-5.4-3.24C156.642,42.645,158.826,41.157,161.49,41.157z M162.138,46.989
				c1.152,0,1.896-1.104,1.776-1.992c-0.264-1.752-0.864-3.168-2.448-3.168c-1.152,0-1.824,1.128-1.68,2.016
				C160.05,45.597,160.554,46.989,162.138,46.989z"/>
		</g>
		<g>
			<path d="M161.49,34.157c2.664,0.024,5.184,1.032,5.376,3.264c0.144,1.632-2.016,3.12-4.68,3.12
				c-2.688-0.024-5.184-1.008-5.4-3.24C156.642,35.645,158.826,34.157,161.49,34.157z M162.138,39.989
				c1.152,0,1.896-1.104,1.776-1.992c-0.264-1.752-0.864-3.168-2.448-3.168c-1.152,0-1.824,1.128-1.68,2.016
				C160.05,38.597,160.554,39.989,162.138,39.989z"/>
		</g>
		<g>
			<path d="M190.49,45.157c2.664,0.024,5.184,1.032,5.376,3.264c0.144,1.632-2.016,3.12-4.68,3.12
				c-2.688-0.024-5.184-1.008-5.4-3.24C185.642,46.645,187.826,45.157,190.49,45.157z M191.138,50.989
				c1.152,0,1.896-1.104,1.776-1.992c-0.264-1.752-0.864-3.168-2.448-3.168c-1.152,0-1.824,1.128-1.68,2.016
				C189.05,49.597,189.554,50.989,191.138,50.989z"/>
		</g>
		<g>
			<path d="M190.49,38.157c2.664,0.024,5.184,1.032,5.376,3.264c0.144,1.632-2.016,3.12-4.68,3.12
				c-2.688-0.024-5.184-1.008-5.4-3.24C185.642,39.645,187.826,38.157,190.49,38.157z M191.138,43.989
				c1.152,0,1.896-1.104,1.776-1.992c-0.264-1.752-0.864-3.168-2.448-3.168c-1.152,0-1.824,1.128-1.68,2.016
				C189.05,42.597,189.554,43.989,191.138,43.989z"/>
		</g>
		<g>
			<path d="M190.49,31.157c2.664,0.024,5.184,1.032,5.376,3.264c0.144,1.632-2.016,3.12-4.68,3.12
				c-2.688-0.024-5.184-1.008-5.4-3.24C185.642,32.645,187.826,31.157,190.49,31.157z M191.138,36.989
				c1.152,0,1.896-1.104,1.776-1.992c-0.264-1.752-0.864-3.168-2.448-3.168c-1.152,0-1.824,1.128-1.68,2.016
				C189.05,35.597,189.554,36.989,191.138,36.989z"/>
		</g>
		<g>
			<path d="M219.49,41.157c2.664,0.024,5.184,1.032,5.376,3.264c0.144,1.632-2.016,3.12-4.68,3.12
				c-2.688-0.024-5.184-1.008-5.4-3.24C214.642,42.645,216.826,41.157,219.49,41.157z M220.138,46.989
				c1.152,0,1.896-1.104,1.776-1.992c-0.264-1.752-0.864-3.168-2.448-3.168c-1.152,0-1.824,1.128-1.68,2.016
				C218.05,45.597,218.554,46.989,220.138,46.989z"/>
		</g>
		<g>
			<path d="M219.49,34.157c2.664,0.024,5.184,1.032,5.376,3.264c0.144,1.632-2.016,3.12-4.68,3.12
				c-2.688-0.024-5.184-1.008-5.4-3.24C214.642,35.645,216.826,34.157,219.49,34.157z M220.138,39.989
				c1.152,0,1.896-1.104,1.776-1.992c-0.264-1.752-0.864-3.168-2.448-3.168c-1.152,0-1.824,1.128-1.68,2.016
				C218.05,38.597,218.554,39.989,220.138,39.989z"/>
		</g>
		<g>
			<path d="M219.49,27.157c2.664,0.024,5.184,1.032,5.376,3.264c0.144,1.632-2.016,3.12-4.68,3.12
				c-2.688-0.024-5.184-1.008-5.4-3.24C214.642,28.645,216.826,27.157,219.49,27.157z M220.138,32.989
				c1.152,0,1.896-1.104,1.776-1.992c-0.264-1.752-0.864-3.168-2.448-3.168c-1.152,0-1.824,1.128-1.68,2.016
				C218.05,31.597,218.554,32.989,220.138,32.989z"/>
		</g>
		<g>
			<path d="M248.49,38.157c2.664,0.024,5.184,1.032,5.376,3.264c0.144,1.632-2.016,3.12-4.68,3.12
				c-2.688-0.024-5.184-1.008-5.4-3.24C243.642,39.645,245.826,38.157,248.49,38.157z M249.138,43.989
				c1.152,0,1.896-1.104,1.776-1.992c-0.264-1.752-0.864-3.168-2.448-3.168c-1.152,0-1.824,1.128-1.68,2.016
				C247.05,42.597,247.554,43.989,249.138,43.989z"/>
		</g>
		<g>
			<path d="M248.49,31.157c2.664,0.024,5.184,1.032,5.376,3.264c0.144,1.632-2.016,3.12-4.68,3.12
				c-2.688-0.024-5.184-1.008-5.4-3.24C243.642,32.645,245.826,31.157,248.49,31.157z M249.138,36.989
				c1.152,0,1.896-1.104,1.776-1.992c-0.264-1.752-0.864-3.168-2.448-3.168c-1.152,0-1.824,1.128-1.68,2.016
				C247.05,35.597,247.554,36.989,249.138,36.989z"/>
		</g>
		<g>
			<path d="M248.49,24.157c2.664,0.024,5.184,1.032,5.376,3.264c0.144,1.632-2.016,3.12-4.68,3.12
				c-2.688-0.024-5.184-1.008-5.4-3.24C243.642,25.645,245.826,24.157,248.49,24.157z M249.138,29.989
				c1.152,0,1.896-1.104,1.776-1.992c-0.264-1.752-0.864-3.168-2.448-3.168c-1.152,0-1.824,1.128-1.68,2.016
				C247.05,28.597,247.554,29.989,249.138,29.989z"/>
		</g>
		<g>
			<path d="M277.49,34.157c2.664,0.024,5.184,1.032,5.376,3.264c0.144,1.632-2.016,3.12-4.68,3.12
				c-2.688-0.024-5.184-1.008-5.4-3.24C272.642,35.645,274.826,34.157,277.49,34.157z M278.138,39.989
				c1.152,0,1.896-1.104,1.776-1.992c-0.264-1.752-0.864-3.168-2.448-3.168c-1.152,0-1.824,1.128-1.68,2.016
				C276.05,38.597,276.554,39.989,278.138,39.989z"/>
		</g>
		<g>
			<path d="M277.49,27.157c2.664,0.024,5.184,1.032,5.376,3.264c0.144,1.632-2.016,3.12-4.68,3.12
				c-2.688-0.024-5.184-1.008-5.4-3.24C272.642,28.645,274.826,27.157,277.49,27.157z M278.138,32.989
				c1.152,0,1.896-1.104,1.776-1.992c-0.264-1.752-0.864-3.168-2.448-3.168c-1.152,0-1.824,1.128-1.68,2.016
				C276.05,31.597,276.554,32.989,278.138,32.989z"/>
		</g>
		<g>
			<path d="M277.49,20.157c2.664,0.024,5.184,1.032,5.376,3.264c0.144,1.632-2.016,3.12-4.68,3.12
				c-2.688-0.024-5.184-1.008-5.4-3.24C272.642,21.645,274.826,20.157,277.49,20.157z M278.138,25.989
				c1.152,0,1.896-1.104,1.776-1.992c-0.264-1.752-0.864-3.168-2.448-3.168c-1.152,0-1.824,1.128-1.68,2.016
				C276.05,24.597,276.554,25.989,278.138,25.989z"/>
		</g>
		<g>
			<path d="M6.12,41.662c-0.372,0.192-1.152,0.384-2.136,0.384c-2.28,0-3.984-1.44-3.984-4.104c0-2.544,1.716-4.248,4.224-4.248
				c0.996,0,1.644,0.216,1.92,0.36L5.88,34.905c-0.384-0.192-0.948-0.336-1.62-0.336c-1.896,0-3.156,1.212-3.156,3.336
				c0,1.992,1.14,3.252,3.096,3.252c0.648,0,1.296-0.132,1.716-0.336L6.12,41.662z"/>
			<path d="M9.948,37.678c0-0.612-0.024-1.092-0.048-1.572h0.924l0.048,0.936h0.036c0.324-0.552,0.864-1.068,1.836-1.068
				c0.78,0,1.38,0.48,1.632,1.164h0.024c0.18-0.336,0.42-0.576,0.66-0.756c0.348-0.264,0.72-0.408,1.272-0.408
				c0.78,0,1.92,0.504,1.92,2.52v3.42H17.22v-3.288c0-1.128-0.42-1.788-1.26-1.788c-0.612,0-1.068,0.444-1.26,0.948
				c-0.048,0.156-0.084,0.348-0.084,0.528v3.6h-1.032v-3.48c0-0.936-0.408-1.596-1.212-1.596c-0.648,0-1.14,0.528-1.308,1.056
				c-0.06,0.156-0.084,0.336-0.084,0.516v3.504H9.948V37.678z"/>
			<path d="M24.048,40.521c0,0.504,0.024,0.996,0.084,1.392h-0.948l-0.096-0.732h-0.036c-0.312,0.456-0.948,0.864-1.776,0.864
				c-1.176,0-1.776-0.828-1.776-1.668c0-1.404,1.248-2.172,3.492-2.16v-0.12c0-0.48-0.132-1.356-1.32-1.344
				c-0.552,0-1.116,0.156-1.524,0.432l-0.24-0.708c0.48-0.3,1.188-0.504,1.92-0.504c1.788,0,2.22,1.212,2.22,2.376V40.521z
				 M23.016,38.95c-1.152-0.024-2.46,0.18-2.46,1.308c0,0.696,0.456,1.008,0.984,1.008c0.768,0,1.26-0.48,1.428-0.972
				c0.036-0.108,0.048-0.228,0.048-0.336V38.95z"/>
			<path d="M24.312,43.618c0.492-0.036,0.9-0.168,1.152-0.444c0.288-0.324,0.408-0.792,0.408-2.184v-4.884h1.056v5.292
				c0,1.128-0.18,1.86-0.696,2.388c-0.468,0.468-1.236,0.66-1.8,0.66L24.312,43.618z M26.375,35.038c-0.396,0-0.66-0.312-0.66-0.684
				s0.276-0.672,0.684-0.672c0.408,0,0.672,0.3,0.672,0.672s-0.252,0.684-0.684,0.684H26.375z"/>
			<path d="M31.02,42.045c-1.56,0-2.784-1.152-2.784-2.988c0-1.944,1.284-3.084,2.88-3.084c1.668,0,2.796,1.212,2.796,2.976
				c0,2.16-1.5,3.096-2.88,3.096H31.02z M31.056,41.253c1.008,0,1.764-0.948,1.764-2.268c0-0.984-0.492-2.22-1.74-2.22
				c-1.236,0-1.776,1.152-1.776,2.256c0,1.272,0.72,2.232,1.74,2.232H31.056z"/>
			<path d="M35.255,37.917c0-0.684-0.012-1.272-0.048-1.812h0.924l0.048,1.14h0.036c0.264-0.78,0.912-1.272,1.62-1.272
				c0.108,0,0.192,0.012,0.288,0.036v0.984c-0.12-0.012-0.228-0.024-0.372-0.024c-0.744,0-1.272,0.564-1.416,1.344
				c-0.024,0.156-0.036,0.324-0.036,0.504v3.096h-1.056L35.255,37.917z"/>
		</g>
		<g>
			<path d="M100.955,8.364c-0.324,0.156-1.092,0.348-2.064,0.348c-2.796,0-4.236-1.752-4.236-4.068c0-2.76,1.968-4.284,4.416-4.284
				c0.948,0,1.668,0.192,1.992,0.36l-0.384,1.44c-0.36-0.156-0.876-0.3-1.536-0.3c-1.44,0-2.568,0.876-2.568,2.688
				c0,1.62,0.96,2.64,2.58,2.64c0.564,0,1.164-0.108,1.536-0.264L100.955,8.364z"/>
			<path d="M121.558,0.612c0.672-0.12,1.548-0.18,2.46-0.18c1.548,0,2.556,0.252,3.324,0.84c0.84,0.624,1.368,1.632,1.368,3.072
				c0,1.548-0.564,2.616-1.332,3.276c-0.852,0.708-2.16,1.044-3.744,1.044c-0.948,0-1.632-0.06-2.076-0.12V0.612z M123.382,7.2
				c0.156,0.036,0.42,0.036,0.636,0.036c1.668,0.012,2.76-0.9,2.76-2.832c0-1.74-0.984-2.568-2.568-2.568
				c-0.396,0-0.672,0.036-0.828,0.072V7.2z"/>
			<path d="M129.85,4.584c0-0.732-0.024-1.344-0.048-1.872h1.548l0.072,0.804h0.036c0.252-0.384,0.78-0.936,1.776-0.936
				c0.768,0,1.356,0.396,1.608,1.008h0.024c0.228-0.312,0.48-0.552,0.768-0.72c0.324-0.18,0.684-0.288,1.116-0.288
				c1.128,0,1.98,0.792,1.98,2.544V8.58h-1.776V5.4c0-0.852-0.276-1.344-0.864-1.344c-0.432,0-0.72,0.288-0.852,0.636
				c-0.036,0.132-0.06,0.312-0.06,0.456V8.58h-1.776V5.292c0-0.732-0.264-1.236-0.852-1.236c-0.468,0-0.744,0.36-0.852,0.648
				c-0.06,0.144-0.072,0.312-0.072,0.468V8.58h-1.776V4.584z"/>
			<path d="M157.162,5.16h-2.976v1.92h3.324v1.5h-5.148V0.492h4.98v1.5h-3.156v1.68h2.976V5.16z"/>
			<path d="M158.721,4.584c0-0.732-0.024-1.344-0.048-1.872h1.548l0.072,0.804h0.036c0.252-0.384,0.78-0.936,1.776-0.936
				c0.768,0,1.356,0.396,1.608,1.008h0.024c0.228-0.312,0.48-0.552,0.768-0.72c0.324-0.18,0.684-0.288,1.116-0.288
				c1.128,0,1.98,0.792,1.98,2.544V8.58h-1.776V5.4c0-0.852-0.276-1.344-0.864-1.344c-0.432,0-0.72,0.288-0.852,0.636
				c-0.036,0.132-0.06,0.312-0.06,0.456V8.58h-1.776V5.292c0-0.732-0.264-1.236-0.852-1.236c-0.468,0-0.744,0.36-0.852,0.648
				c-0.06,0.144-0.072,0.312-0.072,0.468V8.58h-1.776V4.584z"/>
			<path d="M188.505,0.492h4.932v1.5h-3.108V3.84h2.904v1.488h-2.904V8.58h-1.824V0.492z"/>
			<path d="M224.326,8.208c-0.564,0.192-1.632,0.456-2.7,0.456c-1.476,0-2.544-0.372-3.288-1.08c-0.732-0.708-1.14-1.764-1.14-2.952
				c0.012-2.688,1.968-4.224,4.62-4.224c1.044,0,1.848,0.204,2.244,0.384l-0.384,1.476c-0.444-0.204-0.984-0.348-1.872-0.348
				c-1.524,0-2.688,0.864-2.688,2.616c0,1.68,1.056,2.652,2.556,2.652c0.408,0,0.744-0.048,0.888-0.108V5.376h-1.248V3.948h3.012
				V8.208z"/>
			<path d="M243.322,6.504l-0.564,2.076h-1.896l2.472-8.088h2.388l2.52,8.088h-1.968l-0.624-2.076H243.322z M245.375,5.136
				L244.87,3.42c-0.132-0.48-0.276-1.092-0.396-1.56h-0.036c-0.108,0.48-0.24,1.092-0.36,1.56l-0.492,1.716H245.375z"/>
			<path d="M249.19,4.584c0-0.732-0.024-1.344-0.048-1.872h1.548l0.072,0.804h0.036c0.252-0.384,0.78-0.936,1.776-0.936
				c0.768,0,1.356,0.396,1.608,1.008h0.024c0.228-0.312,0.48-0.552,0.768-0.72c0.324-0.18,0.684-0.288,1.116-0.288
				c1.128,0,1.98,0.792,1.98,2.544V8.58h-1.776V5.4c0-0.852-0.276-1.344-0.864-1.344c-0.432,0-0.72,0.288-0.852,0.636
				c-0.036,0.132-0.06,0.312-0.06,0.456V8.58h-1.776V5.292c0-0.732-0.264-1.236-0.852-1.236c-0.468,0-0.744,0.36-0.852,0.648
				c-0.06,0.144-0.072,0.312-0.072,0.468V8.58h-1.776V4.584z"/>
			<path d="M269.266,0.612c0.48-0.096,1.44-0.18,2.364-0.18c1.116,0,1.8,0.108,2.388,0.456c0.564,0.3,0.96,0.852,0.96,1.596
				c0,0.708-0.42,1.368-1.32,1.716v0.024c0.924,0.24,1.608,0.948,1.608,1.992c0,0.744-0.336,1.32-0.84,1.716
				c-0.588,0.468-1.572,0.732-3.18,0.732c-0.9,0-1.572-0.06-1.98-0.12V0.612z M271.078,3.696h0.6c0.972,0,1.476-0.396,1.476-0.996
				c0-0.612-0.468-0.936-1.296-0.936c-0.408,0-0.636,0.024-0.78,0.06V3.696z M271.078,7.284c0.18,0.036,0.396,0.036,0.708,0.036
				c0.828,0,1.56-0.324,1.56-1.176c0-0.816-0.732-1.14-1.644-1.14h-0.624V7.284z"/>
			<path d="M282.142,0.06v6.768c0,0.672,0.024,1.356,0.048,1.752h-1.62l-0.072-0.852h-0.036c-0.36,0.648-1.08,0.984-1.836,0.984
				c-1.392,0-2.508-1.188-2.508-3.012c-0.012-1.968,1.224-3.12,2.628-3.12c0.732,0,1.284,0.264,1.548,0.66h0.024V0.06H282.142z
				 M280.318,5.208c0-0.108,0-0.228-0.024-0.336c-0.108-0.492-0.504-0.888-1.068-0.888c-0.84,0-1.26,0.744-1.26,1.668
				c0,0.984,0.492,1.608,1.248,1.608c0.528,0,0.96-0.36,1.068-0.876c0.024-0.12,0.036-0.264,0.036-0.408V5.208z"/>
			<path d="M284.506,1.944c-0.612,0-1.008-0.432-1.008-0.972c0-0.552,0.408-0.972,1.032-0.972s1.008,0.42,1.02,0.972
				c0,0.54-0.396,0.972-1.032,0.972H284.506z M283.605,8.58V2.712h1.824V8.58H283.605z"/>
			<path d="M286.894,4.584c0-0.732-0.024-1.344-0.048-1.872h1.548l0.072,0.804h0.036c0.252-0.384,0.78-0.936,1.776-0.936
				c0.768,0,1.356,0.396,1.608,1.008h0.024c0.228-0.312,0.48-0.552,0.768-0.72c0.324-0.18,0.684-0.288,1.116-0.288
				c1.128,0,1.98,0.792,1.98,2.544V8.58h-1.776V5.4c0-0.852-0.276-1.344-0.864-1.344c-0.432,0-0.72,0.288-0.852,0.636
				c-0.036,0.132-0.06,0.312-0.06,0.456V8.58h-1.776V5.292c0-0.732-0.264-1.236-0.852-1.236c-0.468,0-0.744,0.36-0.852,0.648
				c-0.06,0.144-0.072,0.312-0.072,0.468V8.58h-1.776V4.584z"/>
		</g>
		<g>
			<path d="M100.258,71.58v0.125c-0.223,0.012-0.403,0.043-0.542,0.094c-0.139,0.051-0.263,0.134-0.372,0.247
				c-0.152,0.157-0.246,0.374-0.281,0.652c-0.023,0.208-0.035,0.446-0.035,0.717v4.33c0,0.325,0.016,0.582,0.047,0.77
				s0.082,0.339,0.152,0.452c0.102,0.157,0.232,0.273,0.393,0.35c0.16,0.076,0.373,0.122,0.639,0.138v0.125h-3.742v-0.125
				c0.227-0.012,0.409-0.044,0.548-0.097s0.261-0.134,0.366-0.244c0.125-0.125,0.209-0.284,0.252-0.476
				c0.043-0.192,0.064-0.49,0.064-0.894v-4.33c0-0.403-0.021-0.701-0.064-0.893s-0.127-0.351-0.252-0.476
				c-0.105-0.113-0.229-0.196-0.369-0.247c-0.141-0.051-0.322-0.082-0.545-0.094V71.58H100.258z"/>
			<path d="M130.764,74.736l1.688-0.219v3.369l0.006,0.443c0,0.264,0.016,0.458,0.047,0.58s0.092,0.225,0.182,0.306
				c0.109,0.105,0.311,0.185,0.604,0.239v0.125h-2.596v-0.125c0.234-0.031,0.402-0.074,0.504-0.131
				c0.102-0.056,0.184-0.151,0.246-0.287c0.043-0.089,0.073-0.224,0.091-0.404s0.026-0.44,0.026-0.781v-1.435
				c0-0.399-0.01-0.679-0.029-0.839c-0.02-0.161-0.063-0.292-0.128-0.392c-0.066-0.108-0.146-0.187-0.239-0.235
				c-0.093-0.048-0.227-0.078-0.401-0.09V74.736z M131.982,72.408c-0.154,0-0.281-0.049-0.381-0.146s-0.15-0.221-0.15-0.369
				c0-0.145,0.051-0.267,0.153-0.366s0.228-0.149,0.378-0.149c0.149,0,0.275,0.05,0.377,0.149c0.103,0.1,0.154,0.222,0.154,0.366
				c0,0.148-0.05,0.271-0.151,0.369C132.263,72.359,132.136,72.408,131.982,72.408z"/>
			<path d="M133.67,74.736l1.688-0.219v3.369l0.006,0.443c0,0.264,0.016,0.458,0.047,0.58s0.092,0.225,0.182,0.306
				c0.109,0.105,0.311,0.185,0.604,0.239v0.125H133.6v-0.125c0.234-0.031,0.402-0.074,0.504-0.131
				c0.102-0.056,0.184-0.151,0.246-0.287c0.043-0.089,0.073-0.224,0.091-0.404s0.026-0.44,0.026-0.781v-1.435
				c0-0.399-0.01-0.679-0.029-0.839c-0.02-0.161-0.063-0.292-0.128-0.392c-0.066-0.108-0.146-0.187-0.239-0.235
				c-0.093-0.048-0.227-0.078-0.401-0.09V74.736z M134.889,72.408c-0.154,0-0.281-0.049-0.381-0.146s-0.15-0.221-0.15-0.369
				c0-0.145,0.051-0.267,0.153-0.366s0.228-0.149,0.378-0.149c0.149,0,0.275,0.05,0.377,0.149c0.103,0.1,0.154,0.222,0.154,0.366
				c0,0.148-0.05,0.271-0.151,0.369C135.169,72.359,135.042,72.408,134.889,72.408z"/>
			<path d="M157.576,74.736l1.688-0.219v3.369l0.006,0.443c0,0.264,0.016,0.458,0.047,0.58s0.092,0.225,0.182,0.306
				c0.109,0.105,0.311,0.185,0.604,0.239v0.125h-2.596v-0.125c0.234-0.031,0.402-0.074,0.504-0.131
				c0.102-0.056,0.184-0.151,0.246-0.287c0.043-0.089,0.073-0.224,0.091-0.404s0.026-0.44,0.026-0.781v-1.435
				c0-0.399-0.01-0.679-0.029-0.839c-0.02-0.161-0.063-0.292-0.128-0.392c-0.066-0.108-0.146-0.187-0.239-0.235
				c-0.093-0.048-0.227-0.078-0.401-0.09V74.736z M158.795,72.408c-0.154,0-0.281-0.049-0.381-0.146s-0.15-0.221-0.15-0.369
				c0-0.145,0.051-0.267,0.153-0.366s0.228-0.149,0.378-0.149c0.149,0,0.275,0.05,0.377,0.149c0.103,0.1,0.154,0.222,0.154,0.366
				c0,0.148-0.05,0.271-0.151,0.369C159.075,72.359,158.948,72.408,158.795,72.408z"/>
			<path d="M160.482,74.736l1.688-0.219v3.369l0.006,0.443c0,0.264,0.016,0.458,0.047,0.58s0.092,0.225,0.182,0.306
				c0.109,0.105,0.311,0.185,0.604,0.239v0.125h-2.596v-0.125c0.234-0.031,0.402-0.074,0.504-0.131
				c0.102-0.056,0.184-0.151,0.246-0.287c0.043-0.089,0.073-0.224,0.091-0.404s0.026-0.44,0.026-0.781v-1.435
				c0-0.399-0.01-0.679-0.029-0.839c-0.02-0.161-0.063-0.292-0.128-0.392c-0.066-0.108-0.146-0.187-0.239-0.235
				c-0.093-0.048-0.227-0.078-0.401-0.09V74.736z M161.701,72.408c-0.154,0-0.281-0.049-0.381-0.146s-0.15-0.221-0.15-0.369
				c0-0.145,0.051-0.267,0.153-0.366s0.228-0.149,0.378-0.149c0.149,0,0.275,0.05,0.377,0.149c0.103,0.1,0.154,0.222,0.154,0.366
				c0,0.148-0.05,0.271-0.151,0.369C161.981,72.359,161.854,72.408,161.701,72.408z"/>
			<path d="M163.389,74.736l1.688-0.219v3.369l0.006,0.443c0,0.264,0.016,0.458,0.047,0.58s0.092,0.225,0.182,0.306
				c0.109,0.105,0.311,0.185,0.604,0.239v0.125h-2.596v-0.125c0.234-0.031,0.402-0.074,0.504-0.131
				c0.102-0.056,0.184-0.151,0.246-0.287c0.043-0.089,0.073-0.224,0.091-0.404s0.026-0.44,0.026-0.781v-1.435
				c0-0.399-0.01-0.679-0.029-0.839c-0.02-0.161-0.063-0.292-0.128-0.392c-0.066-0.108-0.146-0.187-0.239-0.235
				c-0.093-0.048-0.227-0.078-0.401-0.09V74.736z M164.607,72.408c-0.154,0-0.281-0.049-0.381-0.146s-0.15-0.221-0.15-0.369
				c0-0.145,0.051-0.267,0.153-0.366s0.228-0.149,0.378-0.149c0.149,0,0.275,0.05,0.377,0.149c0.103,0.1,0.154,0.222,0.154,0.366
				c0,0.148-0.05,0.271-0.151,0.369C164.888,72.359,164.761,72.408,164.607,72.408z"/>
			<path d="M190.258,71.58v0.125c-0.223,0.012-0.403,0.043-0.542,0.094c-0.139,0.051-0.263,0.134-0.372,0.247
				c-0.152,0.157-0.246,0.374-0.281,0.652c-0.023,0.208-0.035,0.446-0.035,0.717v4.33c0,0.325,0.016,0.582,0.047,0.77
				s0.082,0.339,0.152,0.452c0.102,0.157,0.232,0.273,0.393,0.35c0.16,0.076,0.373,0.122,0.639,0.138v0.125h-3.742v-0.125
				c0.227-0.012,0.409-0.044,0.548-0.097s0.261-0.134,0.366-0.244c0.125-0.125,0.209-0.284,0.252-0.476
				c0.043-0.192,0.064-0.49,0.064-0.894v-4.33c0-0.403-0.021-0.701-0.064-0.893s-0.127-0.351-0.252-0.476
				c-0.105-0.113-0.229-0.196-0.369-0.247c-0.141-0.051-0.322-0.082-0.545-0.094V71.58H190.258z"/>
			<path d="M190.35,71.58h3.848v0.125c-0.293,0.027-0.504,0.073-0.633,0.136c-0.121,0.059-0.219,0.15-0.292,0.274
				s-0.11,0.258-0.11,0.403c0,0.103,0.009,0.193,0.029,0.271c0.02,0.079,0.078,0.25,0.175,0.513l1.765,4.716l1.688-4.136
				c0.234-0.584,0.352-1.01,0.352-1.278c0-0.148-0.023-0.288-0.07-0.417s-0.109-0.229-0.188-0.3
				c-0.079-0.066-0.165-0.114-0.259-0.142c-0.094-0.027-0.216-0.041-0.366-0.041V71.58h2.609v0.125
				c-0.215,0.02-0.402,0.073-0.56,0.159c-0.159,0.086-0.311,0.218-0.455,0.395c-0.098,0.125-0.2,0.297-0.308,0.515
				s-0.255,0.554-0.443,1.01l-2.406,5.796h-0.25l-2.344-5.99c-0.304-0.79-0.547-1.29-0.73-1.502c-0.117-0.133-0.26-0.23-0.43-0.292
				c-0.169-0.061-0.376-0.091-0.622-0.091V71.58z"/>
			<path d="M216.031,71.58h3.848v0.125c-0.293,0.027-0.504,0.073-0.633,0.136c-0.121,0.059-0.219,0.15-0.292,0.274
				s-0.11,0.258-0.11,0.403c0,0.103,0.009,0.193,0.029,0.271c0.02,0.079,0.078,0.25,0.175,0.513l1.765,4.716l1.688-4.136
				c0.234-0.584,0.352-1.01,0.352-1.278c0-0.148-0.023-0.288-0.07-0.417s-0.109-0.229-0.188-0.3
				c-0.079-0.066-0.165-0.114-0.259-0.142c-0.094-0.027-0.216-0.041-0.366-0.041V71.58h2.609v0.125
				c-0.215,0.02-0.402,0.073-0.56,0.159c-0.159,0.086-0.311,0.218-0.455,0.395c-0.098,0.125-0.2,0.297-0.308,0.515
				s-0.255,0.554-0.443,1.01l-2.406,5.796h-0.25l-2.344-5.99c-0.304-0.79-0.547-1.29-0.73-1.502c-0.117-0.133-0.26-0.23-0.43-0.292
				c-0.169-0.061-0.376-0.091-0.622-0.091V71.58z"/>
			<path d="M246.141,74.596h2.297v0.125c-0.174,0.035-0.293,0.074-0.357,0.117c-0.127,0.078-0.19,0.203-0.19,0.375
				c0,0.105,0.019,0.229,0.058,0.37c0.038,0.141,0.109,0.346,0.214,0.615l0.938,2.409l0.955-2.509c0.14-0.371,0.21-0.647,0.21-0.827
				c0-0.195-0.061-0.338-0.183-0.428c-0.063-0.047-0.179-0.088-0.348-0.123v-0.125h1.625v0.125c-0.22,0.055-0.397,0.152-0.531,0.293
				c-0.168,0.176-0.361,0.545-0.58,1.108l-1.353,3.458h-0.316l-1.47-3.634c-0.229-0.559-0.392-0.897-0.49-1.014
				c-0.055-0.063-0.117-0.108-0.183-0.138c-0.067-0.029-0.166-0.054-0.295-0.073V74.596z"/>
			<path d="M251.414,74.736l1.688-0.219v3.369l0.006,0.443c0,0.264,0.016,0.458,0.047,0.58s0.092,0.225,0.182,0.306
				c0.109,0.105,0.311,0.185,0.604,0.239v0.125h-2.596v-0.125c0.234-0.031,0.402-0.074,0.504-0.131
				c0.102-0.056,0.184-0.151,0.246-0.287c0.043-0.089,0.073-0.224,0.091-0.404s0.026-0.44,0.026-0.781v-1.435
				c0-0.399-0.01-0.679-0.029-0.839c-0.02-0.161-0.063-0.292-0.128-0.392c-0.066-0.108-0.146-0.187-0.239-0.235
				c-0.093-0.048-0.227-0.078-0.401-0.09V74.736z M252.633,72.408c-0.154,0-0.281-0.049-0.381-0.146s-0.15-0.221-0.15-0.369
				c0-0.145,0.051-0.267,0.153-0.366s0.228-0.149,0.378-0.149c0.149,0,0.275,0.05,0.377,0.149c0.103,0.1,0.154,0.222,0.154,0.366
				c0,0.148-0.05,0.271-0.151,0.369C252.913,72.359,252.786,72.408,252.633,72.408z"/>
			<path d="M272.016,74.596h2.297v0.125c-0.174,0.035-0.293,0.074-0.357,0.117c-0.127,0.078-0.19,0.203-0.19,0.375
				c0,0.105,0.019,0.229,0.058,0.37c0.038,0.141,0.109,0.346,0.214,0.615l0.938,2.409l0.955-2.509c0.14-0.371,0.21-0.647,0.21-0.827
				c0-0.195-0.061-0.338-0.183-0.428c-0.063-0.047-0.179-0.088-0.348-0.123v-0.125h1.625v0.125c-0.22,0.055-0.397,0.152-0.531,0.293
				c-0.168,0.176-0.361,0.545-0.58,1.108l-1.353,3.458h-0.316l-1.47-3.634c-0.229-0.559-0.392-0.897-0.49-1.014
				c-0.055-0.063-0.117-0.108-0.183-0.138c-0.067-0.029-0.166-0.054-0.295-0.073V74.596z"/>
			<path d="M277.289,74.736l1.688-0.219v3.369l0.006,0.443c0,0.264,0.016,0.458,0.047,0.58s0.092,0.225,0.182,0.306
				c0.109,0.105,0.311,0.185,0.604,0.239v0.125h-2.596v-0.125c0.234-0.031,0.402-0.074,0.504-0.131
				c0.102-0.056,0.184-0.151,0.246-0.287c0.043-0.089,0.073-0.224,0.091-0.404s0.026-0.44,0.026-0.781v-1.435
				c0-0.399-0.01-0.679-0.029-0.839c-0.02-0.161-0.063-0.292-0.128-0.392c-0.066-0.108-0.146-0.187-0.239-0.235
				c-0.093-0.048-0.227-0.078-0.401-0.09V74.736z M278.508,72.408c-0.154,0-0.281-0.049-0.381-0.146s-0.15-0.221-0.15-0.369
				c0-0.145,0.051-0.267,0.153-0.366s0.228-0.149,0.378-0.149c0.149,0,0.275,0.05,0.377,0.149c0.103,0.1,0.154,0.222,0.154,0.366
				c0,0.148-0.05,0.271-0.151,0.369C278.788,72.359,278.661,72.408,278.508,72.408z"/>
			<path d="M280.195,74.736l1.688-0.219v3.369l0.006,0.443c0,0.264,0.016,0.458,0.047,0.58s0.092,0.225,0.182,0.306
				c0.109,0.105,0.311,0.185,0.604,0.239v0.125h-2.596v-0.125c0.234-0.031,0.402-0.074,0.504-0.131
				c0.102-0.056,0.184-0.151,0.246-0.287c0.043-0.089,0.073-0.224,0.091-0.404s0.026-0.44,0.026-0.781v-1.435
				c0-0.399-0.01-0.679-0.029-0.839c-0.02-0.161-0.063-0.292-0.128-0.392c-0.066-0.108-0.146-0.187-0.239-0.235
				c-0.093-0.048-0.227-0.078-0.401-0.09V74.736z M281.414,72.408c-0.154,0-0.281-0.049-0.381-0.146s-0.15-0.221-0.15-0.369
				c0-0.145,0.051-0.267,0.153-0.366s0.228-0.149,0.378-0.149c0.149,0,0.275,0.05,0.377,0.149c0.103,0.1,0.154,0.222,0.154,0.366
				c0,0.148-0.05,0.271-0.151,0.369C281.694,72.359,281.567,72.408,281.414,72.408z"/>
		</g>
		<g>
			<path fill="none" stroke="#000000" d="M43.66,139.539h273.962"/>
			<path fill="none" stroke="#000000" d="M43.66,153.65h273.962"/>
			<path fill="none" stroke="#000000" d="M43.796,160.773h273.963"/>
			<path fill="none" stroke="#000000" d="M43.586,168.157h273.962"/>
			<path fill="none" stroke="#000000" d="M43.586,146.792h273.962"/>
		</g>
		<g>
			<path d="M57.738,167.061c-4.944-2.352-5.736-5.376-5.952-8.472c-0.24-3.36,1.896-6.768,3.888-8.664
				c1.152-1.08,2.4-2.136,3.888-3.264c-0.048-0.84-0.24-1.176-0.336-2.376c-0.024-0.504-0.336-2.856,0.168-5.568
				c0.312-1.608,2.328-5.4,3.72-5.424c1.08-0.024,2.736,4.296,2.784,6.456c0.072,3.336-0.72,4.848-1.704,6.576
				c-0.504,0.864-1.032,1.464-1.584,2.136c-0.576,0.696-1.224,1.104-1.824,1.632c0,0,0.768,4.344,0.792,4.656
				c1.536-0.192,3.408,0.36,4.08,0.84c1.704,1.272,2.352,3.024,2.472,4.728c0.216,2.712-1.272,5.568-4.56,6.936
				c0,0,0.504,3.456,0.624,4.176c0.264,1.896,0.216,3.096-0.192,3.864c-0.696,1.296-1.824,2.496-4.008,2.64
				c-1.68,0.096-4.992-0.744-5.16-3.384c-0.096-1.56,0.6-3.24,2.496-3.36c1.152-0.096,2.52,0.864,2.616,2.232
				c0.096,1.176-0.672,2.4-2.664,2.952c0.312,0.432,1.248,0.936,2.592,0.936c1.392,0,2.832-0.936,3.528-2.184
				c0.432-0.816,0.384-2.28,0.216-3.624c-0.072-0.456-0.648-4.08-0.648-4.08C61.194,167.709,58.746,167.541,57.738,167.061z
				 M58.218,161.373c0.048,1.152,1.008,2.496,1.896,2.952c-0.12,0.072-0.24,0.264-0.24,0.264c-0.984-0.48-1.824-1.272-2.04-1.56
				c-0.696-0.936-0.984-1.464-1.08-2.88c-0.096-1.32,0.624-3.096,2.232-4.344c0.84-0.624,1.248-0.768,1.968-0.936l-0.72-4.344
				c-0.744,0.432-3.816,2.904-5.112,4.92c-1.152,1.8-1.848,3.24-1.704,5.016c0.288,4.008,4.68,7.296,9.432,6.168
				c0,0-1.416-8.52-1.392-8.52C58.842,158.205,58.146,160.221,58.218,161.373z M60.162,146.157c2.088-1.632,4.92-4.704,4.752-7.08
				c-0.048-0.744-0.36-2.088-1.44-2.064C61.002,137.037,59.61,142.197,60.162,146.157z M63.426,166.437
				c2.76-0.936,2.88-3.312,2.784-4.728c-0.096-1.176-0.624-3.816-4.128-3.648L63.426,166.437z"/>
		</g>
		<g>
			<path d="M133.49,164.157c2.664,0.024,5.184,1.032,5.376,3.264c0.144,1.632-2.016,3.12-4.68,3.12
				c-2.688-0.024-5.184-1.008-5.4-3.24C128.642,165.645,130.826,164.157,133.49,164.157z M134.138,169.989
				c1.152,0,1.896-1.104,1.776-1.992c-0.264-1.752-0.864-3.168-2.448-3.168c-1.152,0-1.824,1.128-1.68,2.016
				C132.05,168.597,132.554,169.989,134.138,169.989z"/>
		</g>
		<g>
			<path d="M133.49,157.157c2.664,0.024,5.184,1.032,5.376,3.264c0.144,1.632-2.016,3.12-4.68,3.12
				c-2.688-0.024-5.184-1.008-5.4-3.24C128.642,158.645,130.826,157.157,133.49,157.157z M134.138,162.989
				c1.152,0,1.896-1.104,1.776-1.992c-0.264-1.752-0.864-3.168-2.448-3.168c-1.152,0-1.824,1.128-1.68,2.016
				C132.05,161.597,132.554,162.989,134.138,162.989z"/>
		</g>
		<g>
			<path d="M133.49,150.157c2.664,0.024,5.184,1.032,5.376,3.264c0.144,1.632-2.016,3.12-4.68,3.12
				c-2.688-0.024-5.184-1.008-5.4-3.24C128.642,151.645,130.826,150.157,133.49,150.157z M134.138,155.989
				c1.152,0,1.896-1.104,1.776-1.992c-0.264-1.752-0.864-3.168-2.448-3.168c-1.152,0-1.824,1.128-1.68,2.016
				C132.05,154.597,132.554,155.989,134.138,155.989z"/>
		</g>
		<g>
			<path d="M162.49,161.157c2.664,0.024,5.184,1.032,5.376,3.264c0.144,1.632-2.016,3.12-4.68,3.12
				c-2.688-0.024-5.184-1.008-5.4-3.24C157.642,162.645,159.826,161.157,162.49,161.157z M163.138,166.989
				c1.152,0,1.896-1.104,1.776-1.992c-0.264-1.752-0.864-3.168-2.448-3.168c-1.152,0-1.824,1.128-1.68,2.016
				C161.05,165.597,161.554,166.989,163.138,166.989z"/>
		</g>
		<g>
			<path d="M162.49,146.157c2.664,0.024,5.184,1.032,5.376,3.264c0.144,1.632-2.016,3.12-4.68,3.12
				c-2.688-0.024-5.184-1.008-5.4-3.24C157.642,147.645,159.826,146.157,162.49,146.157z M163.138,151.989
				c1.152,0,1.896-1.104,1.776-1.992c-0.264-1.752-0.864-3.168-2.448-3.168c-1.152,0-1.824,1.128-1.68,2.016
				C161.05,150.597,161.554,151.989,163.138,151.989z"/>
		</g>
		<g>
			<path d="M191.49,157.157c2.664,0.024,5.184,1.032,5.376,3.264c0.144,1.632-2.016,3.12-4.68,3.12
				c-2.688-0.024-5.184-1.008-5.4-3.24C186.642,158.645,188.826,157.157,191.49,157.157z M192.138,162.989
				c1.152,0,1.896-1.104,1.776-1.992c-0.264-1.752-0.864-3.168-2.448-3.168c-1.152,0-1.824,1.128-1.68,2.016
				C190.05,161.597,190.554,162.989,192.138,162.989z"/>
		</g>
		<g>
			<path d="M191.49,150.157c2.664,0.024,5.184,1.032,5.376,3.264c0.144,1.632-2.016,3.12-4.68,3.12
				c-2.688-0.024-5.184-1.008-5.4-3.24C186.642,151.645,188.826,150.157,191.49,150.157z M192.138,155.989
				c1.152,0,1.896-1.104,1.776-1.992c-0.264-1.752-0.864-3.168-2.448-3.168c-1.152,0-1.824,1.128-1.68,2.016
				C190.05,154.597,190.554,155.989,192.138,155.989z"/>
		</g>
		<g>
			<path d="M191.49,143.157c2.664,0.024,5.184,1.032,5.376,3.264c0.144,1.632-2.016,3.12-4.68,3.12
				c-2.688-0.024-5.184-1.008-5.4-3.24C186.642,144.645,188.826,143.157,191.49,143.157z M192.138,148.989
				c1.152,0,1.896-1.104,1.776-1.992c-0.264-1.752-0.864-3.168-2.448-3.168c-1.152,0-1.824,1.128-1.68,2.016
				C190.05,147.597,190.554,148.989,192.138,148.989z"/>
		</g>
		<g>
			<path d="M220.49,153.157c2.664,0.024,5.184,1.032,5.376,3.264c0.144,1.632-2.016,3.12-4.68,3.12
				c-2.688-0.024-5.184-1.008-5.4-3.24C215.642,154.645,217.826,153.157,220.49,153.157z M221.138,158.989
				c1.152,0,1.896-1.104,1.776-1.992c-0.264-1.752-0.864-3.168-2.448-3.168c-1.152,0-1.824,1.128-1.68,2.016
				C219.05,157.597,219.554,158.989,221.138,158.989z"/>
		</g>
		<g>
			<path d="M220.49,146.157c2.664,0.024,5.184,1.032,5.376,3.264c0.144,1.632-2.016,3.12-4.68,3.12
				c-2.688-0.024-5.184-1.008-5.4-3.24C215.642,147.645,217.826,146.157,220.49,146.157z M221.138,151.989
				c1.152,0,1.896-1.104,1.776-1.992c-0.264-1.752-0.864-3.168-2.448-3.168c-1.152,0-1.824,1.128-1.68,2.016
				C219.05,150.597,219.554,151.989,221.138,151.989z"/>
		</g>
		<g>
			<path d="M220.49,139.157c2.664,0.024,5.184,1.032,5.376,3.264c0.144,1.632-2.016,3.12-4.68,3.12
				c-2.688-0.024-5.184-1.008-5.4-3.24C215.642,140.645,217.826,139.157,220.49,139.157z M221.138,144.989
				c1.152,0,1.896-1.104,1.776-1.992c-0.264-1.752-0.864-3.168-2.448-3.168c-1.152,0-1.824,1.128-1.68,2.016
				C219.05,143.597,219.554,144.989,221.138,144.989z"/>
		</g>
		<g>
			<path d="M249.49,150.157c2.664,0.024,5.184,1.032,5.376,3.264c0.144,1.632-2.016,3.12-4.68,3.12
				c-2.688-0.024-5.184-1.008-5.4-3.24C244.642,151.645,246.826,150.157,249.49,150.157z M250.138,155.989
				c1.152,0,1.896-1.104,1.776-1.992c-0.264-1.752-0.864-3.168-2.448-3.168c-1.152,0-1.824,1.128-1.68,2.016
				C248.05,154.597,248.554,155.989,250.138,155.989z"/>
		</g>
		<g>
			<path d="M249.49,143.157c2.664,0.024,5.184,1.032,5.376,3.264c0.144,1.632-2.016,3.12-4.68,3.12
				c-2.688-0.024-5.184-1.008-5.4-3.24C244.642,144.645,246.826,143.157,249.49,143.157z M250.138,148.989
				c1.152,0,1.896-1.104,1.776-1.992c-0.264-1.752-0.864-3.168-2.448-3.168c-1.152,0-1.824,1.128-1.68,2.016
				C248.05,147.597,248.554,148.989,250.138,148.989z"/>
		</g>
		<g>
			<path d="M249.49,136.157c2.664,0.024,5.184,1.032,5.376,3.264c0.144,1.632-2.016,3.12-4.68,3.12
				c-2.688-0.024-5.184-1.008-5.4-3.24C244.642,137.645,246.826,136.157,249.49,136.157z M250.138,141.989
				c1.152,0,1.896-1.104,1.776-1.992c-0.264-1.752-0.864-3.168-2.448-3.168c-1.152,0-1.824,1.128-1.68,2.016
				C248.05,140.597,248.554,141.989,250.138,141.989z"/>
		</g>
		<g>
			<path d="M278.49,146.157c2.664,0.024,5.184,1.032,5.376,3.264c0.144,1.632-2.016,3.12-4.68,3.12
				c-2.688-0.024-5.184-1.008-5.4-3.24C273.642,147.645,275.826,146.157,278.49,146.157z M279.138,151.989
				c1.152,0,1.896-1.104,1.776-1.992c-0.264-1.752-0.864-3.168-2.448-3.168c-1.152,0-1.824,1.128-1.68,2.016
				C277.05,150.597,277.554,151.989,279.138,151.989z"/>
		</g>
		<g>
			<path d="M278.49,139.157c2.664,0.024,5.184,1.032,5.376,3.264c0.144,1.632-2.016,3.12-4.68,3.12
				c-2.688-0.024-5.184-1.008-5.4-3.24C273.642,140.645,275.826,139.157,278.49,139.157z M279.138,144.989
				c1.152,0,1.896-1.104,1.776-1.992c-0.264-1.752-0.864-3.168-2.448-3.168c-1.152,0-1.824,1.128-1.68,2.016
				C277.05,143.597,277.554,144.989,279.138,144.989z"/>
		</g>
		<g>
			<path d="M278.49,132.157c2.664,0.024,5.184,1.032,5.376,3.264c0.144,1.632-2.016,3.12-4.68,3.12
				c-2.688-0.024-5.184-1.008-5.4-3.24C273.642,133.645,275.826,132.157,278.49,132.157z M279.138,137.989
				c1.152,0,1.896-1.104,1.776-1.992c-0.264-1.752-0.864-3.168-2.448-3.168c-1.152,0-1.824,1.128-1.68,2.016
				C277.05,136.597,277.554,137.989,279.138,137.989z"/>
		</g>
		<g>
			<path d="M1.468,149.934c0.648-0.096,1.404-0.168,2.232-0.168c1.5,0,2.568,0.336,3.276,0.996c0.732,0.66,1.152,1.608,1.152,2.916
				c0,1.32-0.42,2.4-1.164,3.144c-0.768,0.756-2.016,1.164-3.588,1.164c-0.756,0-1.368-0.024-1.908-0.096V149.934z M2.524,157.098
				c0.264,0.048,0.648,0.048,1.056,0.048c2.232,0.012,3.444-1.248,3.444-3.432c0.012-1.932-1.068-3.12-3.276-3.12
				c-0.54,0-0.948,0.048-1.224,0.108V157.098z"/>
			<path d="M11.979,153.678c0-0.612-0.024-1.092-0.048-1.572h0.924l0.048,0.936h0.036c0.324-0.552,0.864-1.068,1.836-1.068
				c0.78,0,1.38,0.48,1.632,1.164h0.024c0.18-0.336,0.42-0.576,0.66-0.756c0.348-0.264,0.72-0.408,1.272-0.408
				c0.78,0,1.92,0.504,1.92,2.52v3.42h-1.032v-3.288c0-1.128-0.42-1.788-1.26-1.788c-0.612,0-1.068,0.444-1.26,0.948
				c-0.048,0.156-0.084,0.348-0.084,0.528v3.6h-1.032v-3.48c0-0.936-0.408-1.596-1.212-1.596c-0.648,0-1.14,0.528-1.308,1.056
				c-0.06,0.156-0.084,0.336-0.084,0.516v3.504h-1.032V153.678z"/>
			<path d="M26.08,156.521c0,0.504,0.024,0.996,0.084,1.392h-0.948l-0.096-0.732h-0.036c-0.312,0.456-0.948,0.864-1.776,0.864
				c-1.176,0-1.776-0.828-1.776-1.668c0-1.404,1.248-2.172,3.492-2.16v-0.12c0-0.48-0.132-1.356-1.32-1.344
				c-0.552,0-1.116,0.156-1.524,0.432l-0.24-0.708c0.48-0.3,1.188-0.504,1.92-0.504c1.788,0,2.22,1.212,2.22,2.376V156.521z
				 M25.047,154.95c-1.152-0.024-2.46,0.18-2.46,1.308c0,0.696,0.456,1.008,0.984,1.008c0.768,0,1.26-0.48,1.428-0.972
				c0.036-0.108,0.048-0.228,0.048-0.336V154.95z"/>
			<path d="M26.343,159.618c0.492-0.036,0.9-0.168,1.152-0.444c0.288-0.324,0.408-0.792,0.408-2.184v-4.884h1.056v5.292
				c0,1.128-0.18,1.86-0.696,2.388c-0.468,0.468-1.236,0.66-1.8,0.66L26.343,159.618z M28.408,151.038
				c-0.396,0-0.66-0.312-0.66-0.684s0.276-0.672,0.684-0.672c0.408,0,0.672,0.3,0.672,0.672s-0.252,0.684-0.684,0.684H28.408z"/>
			<path d="M33.051,158.045c-1.56,0-2.784-1.152-2.784-2.988c0-1.944,1.284-3.084,2.88-3.084c1.668,0,2.796,1.212,2.796,2.976
				c0,2.16-1.5,3.096-2.88,3.096H33.051z M33.087,157.253c1.008,0,1.764-0.948,1.764-2.268c0-0.984-0.492-2.22-1.74-2.22
				c-1.236,0-1.776,1.152-1.776,2.256c0,1.272,0.72,2.232,1.74,2.232H33.087z"/>
			<path d="M37.288,153.917c0-0.684-0.012-1.272-0.048-1.812h0.924l0.048,1.14h0.036c0.264-0.78,0.912-1.272,1.62-1.272
				c0.108,0,0.192,0.012,0.288,0.036v0.984c-0.12-0.012-0.228-0.024-0.372-0.024c-0.744,0-1.272,0.564-1.416,1.344
				c-0.024,0.156-0.036,0.324-0.036,0.504v3.096h-1.056L37.288,153.917z"/>
		</g>
		<g>
			<path d="M95.026,116.612c0.672-0.12,1.548-0.18,2.46-0.18c1.548,0,2.556,0.252,3.324,0.84c0.84,0.624,1.368,1.632,1.368,3.072
				c0,1.548-0.564,2.616-1.332,3.276c-0.852,0.708-2.16,1.044-3.744,1.044c-0.948,0-1.632-0.06-2.076-0.12V116.612z M96.851,123.2
				c0.156,0.036,0.42,0.036,0.636,0.036c1.668,0.012,2.76-0.9,2.76-2.832c0-1.74-0.984-2.568-2.568-2.568
				c-0.396,0-0.672,0.036-0.828,0.072V123.2z"/>
			<path d="M127.582,121.16h-2.976v1.92h3.324v1.5h-5.148v-8.088h4.98v1.5h-3.156v1.68h2.976V121.16z"/>
			<path d="M129.142,120.584c0-0.732-0.024-1.344-0.048-1.872h1.548l0.072,0.804h0.036c0.252-0.384,0.78-0.936,1.776-0.936
				c0.768,0,1.356,0.396,1.608,1.008h0.024c0.228-0.312,0.48-0.552,0.768-0.72c0.324-0.18,0.684-0.288,1.116-0.288
				c1.128,0,1.98,0.792,1.98,2.544v3.456h-1.776v-3.18c0-0.852-0.276-1.344-0.864-1.344c-0.432,0-0.72,0.288-0.852,0.636
				c-0.036,0.132-0.06,0.312-0.06,0.456v3.432h-1.776v-3.288c0-0.732-0.264-1.236-0.852-1.236c-0.468,0-0.744,0.36-0.852,0.648
				c-0.06,0.144-0.072,0.312-0.072,0.468v3.408h-1.776V120.584z"/>
			<path d="M154.078,116.492h4.932v1.5h-3.108v1.848h2.904v1.488h-2.904v3.252h-1.824V116.492z"/>
			<path d="M167.601,120.584c0-0.732-0.024-1.344-0.048-1.872h1.548l0.072,0.804h0.036c0.252-0.384,0.78-0.936,1.776-0.936
				c0.768,0,1.356,0.396,1.608,1.008h0.024c0.228-0.312,0.48-0.552,0.768-0.72c0.324-0.18,0.684-0.288,1.116-0.288
				c1.128,0,1.98,0.792,1.98,2.544v3.456h-1.776v-3.18c0-0.852-0.276-1.344-0.864-1.344c-0.432,0-0.72,0.288-0.852,0.636
				c-0.036,0.132-0.06,0.312-0.06,0.456v3.432h-1.776v-3.288c0-0.732-0.264-1.236-0.852-1.236c-0.468,0-0.744,0.36-0.852,0.648
				c-0.06,0.144-0.072,0.312-0.072,0.468v3.408h-1.776V120.584z"/>
			<path d="M194.433,124.208c-0.564,0.192-1.632,0.456-2.7,0.456c-1.476,0-2.544-0.372-3.288-1.08
				c-0.732-0.708-1.14-1.764-1.14-2.952c0.012-2.688,1.968-4.224,4.62-4.224c1.044,0,1.848,0.204,2.244,0.384l-0.384,1.476
				c-0.444-0.204-0.984-0.348-1.872-0.348c-1.524,0-2.688,0.864-2.688,2.616c0,1.68,1.056,2.652,2.556,2.652
				c0.408,0,0.744-0.048,0.888-0.108v-1.704h-1.248v-1.428h3.012V124.208z"/>
			<path d="M219.442,122.504l-0.564,2.076h-1.896l2.472-8.088h2.388l2.52,8.088h-1.968l-0.624-2.076H219.442z M221.494,121.136
				l-0.504-1.716c-0.132-0.48-0.276-1.092-0.396-1.56h-0.036c-0.108,0.48-0.24,1.092-0.36,1.56l-0.492,1.716H221.494z"/>
			<path d="M243.875,116.612c0.48-0.096,1.44-0.18,2.364-0.18c1.116,0,1.8,0.108,2.388,0.456c0.564,0.3,0.96,0.852,0.96,1.596
				c0,0.708-0.42,1.368-1.32,1.716v0.024c0.924,0.24,1.608,0.948,1.608,1.992c0,0.744-0.336,1.32-0.84,1.716
				c-0.588,0.468-1.572,0.732-3.18,0.732c-0.9,0-1.572-0.06-1.98-0.12V116.612z M245.686,119.696h0.6
				c0.972,0,1.476-0.396,1.476-0.996c0-0.612-0.468-0.936-1.296-0.936c-0.408,0-0.636,0.024-0.78,0.06V119.696z M245.686,123.284
				c0.18,0.036,0.396,0.036,0.708,0.036c0.828,0,1.56-0.324,1.56-1.176c0-0.816-0.732-1.14-1.644-1.14h-0.624V123.284z"/>
			<path d="M251.062,120.584c0-0.732-0.024-1.344-0.048-1.872h1.548l0.072,0.804h0.036c0.252-0.384,0.78-0.936,1.776-0.936
				c0.768,0,1.356,0.396,1.608,1.008h0.024c0.228-0.312,0.48-0.552,0.768-0.72c0.324-0.18,0.684-0.288,1.116-0.288
				c1.128,0,1.98,0.792,1.98,2.544v3.456h-1.776v-3.18c0-0.852-0.276-1.344-0.864-1.344c-0.432,0-0.72,0.288-0.852,0.636
				c-0.036,0.132-0.06,0.312-0.06,0.456v3.432h-1.776v-3.288c0-0.732-0.264-1.236-0.852-1.236c-0.468,0-0.744,0.36-0.852,0.648
				c-0.06,0.144-0.072,0.312-0.072,0.468v3.408h-1.776V120.584z"/>
			<path d="M277.066,124.364c-0.324,0.156-1.092,0.348-2.064,0.348c-2.796,0-4.236-1.752-4.236-4.068
				c0-2.76,1.968-4.284,4.416-4.284c0.948,0,1.668,0.192,1.992,0.36l-0.384,1.44c-0.36-0.156-0.876-0.3-1.536-0.3
				c-1.44,0-2.568,0.876-2.568,2.688c0,1.62,0.96,2.64,2.58,2.64c0.564,0,1.164-0.108,1.536-0.264L277.066,124.364z"/>
			<path d="M291.177,116.06v6.768c0,0.672,0.024,1.356,0.048,1.752h-1.62l-0.072-0.852h-0.036c-0.36,0.648-1.08,0.984-1.836,0.984
				c-1.392,0-2.508-1.188-2.508-3.012c-0.012-1.968,1.224-3.12,2.628-3.12c0.732,0,1.284,0.264,1.548,0.66h0.024v-3.18H291.177z
				 M289.354,121.208c0-0.108,0-0.228-0.024-0.336c-0.108-0.492-0.504-0.888-1.068-0.888c-0.84,0-1.26,0.744-1.26,1.668
				c0,0.984,0.492,1.608,1.248,1.608c0.528,0,0.96-0.36,1.068-0.876c0.024-0.12,0.036-0.264,0.036-0.408V121.208z"/>
			<path d="M293.542,117.944c-0.612,0-1.008-0.432-1.008-0.972c0-0.552,0.408-0.972,1.032-0.972s1.008,0.42,1.02,0.972
				c0,0.54-0.396,0.972-1.032,0.972H293.542z M292.641,124.58v-5.868h1.824v5.868H292.641z"/>
			<path d="M295.929,120.584c0-0.732-0.024-1.344-0.048-1.872h1.548l0.072,0.804h0.036c0.252-0.384,0.779-0.936,1.775-0.936
				c0.769,0,1.356,0.396,1.608,1.008h0.023c0.229-0.312,0.48-0.552,0.769-0.72c0.324-0.18,0.684-0.288,1.116-0.288
				c1.128,0,1.979,0.792,1.979,2.544v3.456h-1.775v-3.18c0-0.852-0.276-1.344-0.864-1.344c-0.433,0-0.72,0.288-0.853,0.636
				c-0.036,0.132-0.06,0.312-0.06,0.456v3.432h-1.776v-3.288c0-0.732-0.264-1.236-0.852-1.236c-0.468,0-0.744,0.36-0.853,0.648
				c-0.06,0.144-0.071,0.312-0.071,0.468v3.408h-1.776V120.584z"/>
		</g>
		<g>
			<path d="M101.258,188.58v0.125c-0.223,0.012-0.403,0.043-0.542,0.094c-0.139,0.051-0.263,0.134-0.372,0.247
				c-0.152,0.157-0.246,0.374-0.281,0.652c-0.023,0.208-0.035,0.446-0.035,0.717v4.33c0,0.325,0.016,0.582,0.047,0.77
				s0.082,0.339,0.152,0.452c0.102,0.157,0.232,0.273,0.393,0.35c0.16,0.076,0.373,0.122,0.639,0.138v0.125h-3.742v-0.125
				c0.227-0.012,0.409-0.044,0.548-0.097s0.261-0.134,0.366-0.244c0.125-0.125,0.209-0.284,0.252-0.476
				c0.043-0.192,0.064-0.49,0.064-0.894v-4.33c0-0.403-0.021-0.701-0.064-0.893s-0.127-0.351-0.252-0.476
				c-0.105-0.113-0.229-0.196-0.369-0.247c-0.141-0.051-0.322-0.082-0.545-0.094v-0.125H101.258z"/>
			<path d="M128.764,191.736l1.688-0.219v3.369l0.006,0.443c0,0.264,0.016,0.458,0.047,0.58s0.092,0.225,0.182,0.306
				c0.109,0.105,0.311,0.185,0.604,0.239v0.125h-2.596v-0.125c0.234-0.031,0.402-0.074,0.504-0.131
				c0.102-0.056,0.184-0.151,0.246-0.287c0.043-0.089,0.073-0.224,0.091-0.404s0.026-0.44,0.026-0.781v-1.435
				c0-0.399-0.01-0.679-0.029-0.839c-0.02-0.161-0.063-0.292-0.128-0.392c-0.066-0.108-0.146-0.187-0.239-0.235
				c-0.093-0.048-0.227-0.078-0.401-0.09V191.736z M129.982,189.408c-0.154,0-0.281-0.049-0.381-0.146s-0.15-0.221-0.15-0.369
				c0-0.145,0.051-0.267,0.153-0.366s0.228-0.149,0.378-0.149c0.149,0,0.275,0.05,0.377,0.149c0.103,0.1,0.154,0.222,0.154,0.366
				c0,0.148-0.05,0.271-0.151,0.369C130.263,189.359,130.136,189.408,129.982,189.408z"/>
			<path d="M131.67,191.736l1.688-0.219v3.369l0.006,0.443c0,0.264,0.016,0.458,0.047,0.58s0.092,0.225,0.182,0.306
				c0.109,0.105,0.311,0.185,0.604,0.239v0.125H131.6v-0.125c0.234-0.031,0.402-0.074,0.504-0.131
				c0.102-0.056,0.184-0.151,0.246-0.287c0.043-0.089,0.073-0.224,0.091-0.404s0.026-0.44,0.026-0.781v-1.435
				c0-0.399-0.01-0.679-0.029-0.839c-0.02-0.161-0.063-0.292-0.128-0.392c-0.066-0.108-0.146-0.187-0.239-0.235
				c-0.093-0.048-0.227-0.078-0.401-0.09V191.736z M132.889,189.408c-0.154,0-0.281-0.049-0.381-0.146s-0.15-0.221-0.15-0.369
				c0-0.145,0.051-0.267,0.153-0.366s0.228-0.149,0.378-0.149c0.149,0,0.275,0.05,0.377,0.149c0.103,0.1,0.154,0.222,0.154,0.366
				c0,0.148-0.05,0.271-0.151,0.369C133.169,189.359,133.042,189.408,132.889,189.408z"/>
			<path d="M158.576,191.736l1.688-0.219v3.369l0.006,0.443c0,0.264,0.016,0.458,0.047,0.58s0.092,0.225,0.182,0.306
				c0.109,0.105,0.311,0.185,0.604,0.239v0.125h-2.596v-0.125c0.234-0.031,0.402-0.074,0.504-0.131
				c0.102-0.056,0.184-0.151,0.246-0.287c0.043-0.089,0.073-0.224,0.091-0.404s0.026-0.44,0.026-0.781v-1.435
				c0-0.399-0.01-0.679-0.029-0.839c-0.02-0.161-0.063-0.292-0.128-0.392c-0.066-0.108-0.146-0.187-0.239-0.235
				c-0.093-0.048-0.227-0.078-0.401-0.09V191.736z M159.795,189.408c-0.154,0-0.281-0.049-0.381-0.146s-0.15-0.221-0.15-0.369
				c0-0.145,0.051-0.267,0.153-0.366s0.228-0.149,0.378-0.149c0.149,0,0.275,0.05,0.377,0.149c0.103,0.1,0.154,0.222,0.154,0.366
				c0,0.148-0.05,0.271-0.151,0.369C160.075,189.359,159.948,189.408,159.795,189.408z"/>
			<path d="M161.482,191.736l1.688-0.219v3.369l0.006,0.443c0,0.264,0.016,0.458,0.047,0.58s0.092,0.225,0.182,0.306
				c0.109,0.105,0.311,0.185,0.604,0.239v0.125h-2.596v-0.125c0.234-0.031,0.402-0.074,0.504-0.131
				c0.102-0.056,0.184-0.151,0.246-0.287c0.043-0.089,0.073-0.224,0.091-0.404s0.026-0.44,0.026-0.781v-1.435
				c0-0.399-0.01-0.679-0.029-0.839c-0.02-0.161-0.063-0.292-0.128-0.392c-0.066-0.108-0.146-0.187-0.239-0.235
				c-0.093-0.048-0.227-0.078-0.401-0.09V191.736z M162.701,189.408c-0.154,0-0.281-0.049-0.381-0.146s-0.15-0.221-0.15-0.369
				c0-0.145,0.051-0.267,0.153-0.366s0.228-0.149,0.378-0.149c0.149,0,0.275,0.05,0.377,0.149c0.103,0.1,0.154,0.222,0.154,0.366
				c0,0.148-0.05,0.271-0.151,0.369C162.981,189.359,162.854,189.408,162.701,189.408z"/>
			<path d="M164.389,191.736l1.688-0.219v3.369l0.006,0.443c0,0.264,0.016,0.458,0.047,0.58s0.092,0.225,0.182,0.306
				c0.109,0.105,0.311,0.185,0.604,0.239v0.125h-2.596v-0.125c0.234-0.031,0.402-0.074,0.504-0.131
				c0.102-0.056,0.184-0.151,0.246-0.287c0.043-0.089,0.073-0.224,0.091-0.404s0.026-0.44,0.026-0.781v-1.435
				c0-0.399-0.01-0.679-0.029-0.839c-0.02-0.161-0.063-0.292-0.128-0.392c-0.066-0.108-0.146-0.187-0.239-0.235
				c-0.093-0.048-0.227-0.078-0.401-0.09V191.736z M165.607,189.408c-0.154,0-0.281-0.049-0.381-0.146s-0.15-0.221-0.15-0.369
				c0-0.145,0.051-0.267,0.153-0.366s0.228-0.149,0.378-0.149c0.149,0,0.275,0.05,0.377,0.149c0.103,0.1,0.154,0.222,0.154,0.366
				c0,0.148-0.05,0.271-0.151,0.369C165.888,189.359,165.761,189.408,165.607,189.408z"/>
			<path d="M191.258,188.58v0.125c-0.223,0.012-0.403,0.043-0.542,0.094c-0.139,0.051-0.263,0.134-0.372,0.247
				c-0.152,0.157-0.246,0.374-0.281,0.652c-0.023,0.208-0.035,0.446-0.035,0.717v4.33c0,0.325,0.016,0.582,0.047,0.77
				s0.082,0.339,0.152,0.452c0.102,0.157,0.232,0.273,0.393,0.35c0.16,0.076,0.373,0.122,0.639,0.138v0.125h-3.742v-0.125
				c0.227-0.012,0.409-0.044,0.548-0.097s0.261-0.134,0.366-0.244c0.125-0.125,0.209-0.284,0.252-0.476
				c0.043-0.192,0.064-0.49,0.064-0.894v-4.33c0-0.403-0.021-0.701-0.064-0.893s-0.127-0.351-0.252-0.476
				c-0.105-0.113-0.229-0.196-0.369-0.247c-0.141-0.051-0.322-0.082-0.545-0.094v-0.125H191.258z"/>
			<path d="M191.35,188.58h3.848v0.125c-0.293,0.027-0.504,0.073-0.633,0.136c-0.121,0.059-0.219,0.15-0.292,0.274
				s-0.11,0.258-0.11,0.403c0,0.103,0.009,0.193,0.029,0.271c0.02,0.079,0.078,0.25,0.175,0.513l1.765,4.716l1.688-4.136
				c0.234-0.584,0.352-1.01,0.352-1.278c0-0.148-0.023-0.288-0.07-0.417s-0.109-0.229-0.188-0.3
				c-0.079-0.066-0.165-0.114-0.259-0.142c-0.094-0.027-0.216-0.041-0.366-0.041v-0.125h2.609v0.125
				c-0.215,0.02-0.402,0.073-0.56,0.159c-0.159,0.086-0.311,0.218-0.455,0.395c-0.098,0.125-0.2,0.297-0.308,0.515
				s-0.255,0.554-0.443,1.01l-2.406,5.796h-0.25l-2.344-5.99c-0.304-0.79-0.547-1.29-0.73-1.502c-0.117-0.133-0.26-0.23-0.43-0.292
				c-0.169-0.061-0.376-0.091-0.622-0.091V188.58z"/>
			<path d="M214.031,188.58h3.848v0.125c-0.293,0.027-0.504,0.073-0.633,0.136c-0.121,0.059-0.219,0.15-0.292,0.274
				s-0.11,0.258-0.11,0.403c0,0.103,0.009,0.193,0.029,0.271c0.02,0.079,0.078,0.25,0.175,0.513l1.765,4.716l1.688-4.136
				c0.234-0.584,0.352-1.01,0.352-1.278c0-0.148-0.023-0.288-0.07-0.417s-0.109-0.229-0.188-0.3
				c-0.079-0.066-0.165-0.114-0.259-0.142c-0.094-0.027-0.216-0.041-0.366-0.041v-0.125h2.609v0.125
				c-0.215,0.02-0.402,0.073-0.56,0.159c-0.159,0.086-0.311,0.218-0.455,0.395c-0.098,0.125-0.2,0.297-0.308,0.515
				s-0.255,0.554-0.443,1.01l-2.406,5.796h-0.25l-2.344-5.99c-0.304-0.79-0.547-1.29-0.73-1.502c-0.117-0.133-0.26-0.23-0.43-0.292
				c-0.169-0.061-0.376-0.091-0.622-0.091V188.58z"/>
			<path d="M247.141,191.596h2.297v0.125c-0.174,0.035-0.293,0.074-0.357,0.117c-0.127,0.078-0.19,0.203-0.19,0.375
				c0,0.105,0.019,0.229,0.058,0.37c0.038,0.141,0.109,0.346,0.214,0.615l0.938,2.409l0.955-2.509c0.14-0.371,0.21-0.647,0.21-0.827
				c0-0.195-0.061-0.338-0.183-0.428c-0.063-0.047-0.179-0.088-0.348-0.123v-0.125h1.625v0.125c-0.22,0.055-0.397,0.152-0.531,0.293
				c-0.168,0.176-0.361,0.545-0.58,1.108l-1.353,3.458h-0.316l-1.47-3.634c-0.229-0.559-0.392-0.897-0.49-1.014
				c-0.055-0.063-0.117-0.108-0.183-0.138c-0.067-0.029-0.166-0.054-0.295-0.073V191.596z"/>
			<path d="M252.414,191.736l1.688-0.219v3.369l0.006,0.443c0,0.264,0.016,0.458,0.047,0.58s0.092,0.225,0.182,0.306
				c0.109,0.105,0.311,0.185,0.604,0.239v0.125h-2.596v-0.125c0.234-0.031,0.402-0.074,0.504-0.131
				c0.102-0.056,0.184-0.151,0.246-0.287c0.043-0.089,0.073-0.224,0.091-0.404s0.026-0.44,0.026-0.781v-1.435
				c0-0.399-0.01-0.679-0.029-0.839c-0.02-0.161-0.063-0.292-0.128-0.392c-0.066-0.108-0.146-0.187-0.239-0.235
				c-0.093-0.048-0.227-0.078-0.401-0.09V191.736z M253.633,189.408c-0.154,0-0.281-0.049-0.381-0.146s-0.15-0.221-0.15-0.369
				c0-0.145,0.051-0.267,0.153-0.366s0.228-0.149,0.378-0.149c0.149,0,0.275,0.05,0.377,0.149c0.103,0.1,0.154,0.222,0.154,0.366
				c0,0.148-0.05,0.271-0.151,0.369C253.913,189.359,253.786,189.408,253.633,189.408z"/>
			<path d="M276.016,191.596h2.297v0.125c-0.174,0.035-0.293,0.074-0.357,0.117c-0.127,0.078-0.19,0.203-0.19,0.375
				c0,0.105,0.019,0.229,0.058,0.37c0.038,0.141,0.109,0.346,0.214,0.615l0.938,2.409l0.955-2.509c0.14-0.371,0.21-0.647,0.21-0.827
				c0-0.195-0.061-0.338-0.183-0.428c-0.063-0.047-0.179-0.088-0.348-0.123v-0.125h1.625v0.125c-0.22,0.055-0.397,0.152-0.531,0.293
				c-0.168,0.176-0.361,0.545-0.58,1.108l-1.353,3.458h-0.316l-1.47-3.634c-0.229-0.559-0.392-0.897-0.49-1.014
				c-0.055-0.063-0.117-0.108-0.183-0.138c-0.067-0.029-0.166-0.054-0.295-0.073V191.596z"/>
			<path d="M281.289,191.736l1.688-0.219v3.369l0.006,0.443c0,0.264,0.016,0.458,0.047,0.58s0.092,0.225,0.182,0.306
				c0.109,0.105,0.311,0.185,0.604,0.239v0.125h-2.596v-0.125c0.234-0.031,0.402-0.074,0.504-0.131
				c0.102-0.056,0.184-0.151,0.246-0.287c0.043-0.089,0.073-0.224,0.091-0.404s0.026-0.44,0.026-0.781v-1.435
				c0-0.399-0.01-0.679-0.029-0.839c-0.02-0.161-0.063-0.292-0.128-0.392c-0.066-0.108-0.146-0.187-0.239-0.235
				c-0.093-0.048-0.227-0.078-0.401-0.09V191.736z M282.508,189.408c-0.154,0-0.281-0.049-0.381-0.146s-0.15-0.221-0.15-0.369
				c0-0.145,0.051-0.267,0.153-0.366s0.228-0.149,0.378-0.149c0.149,0,0.275,0.05,0.377,0.149c0.103,0.1,0.154,0.222,0.154,0.366
				c0,0.148-0.05,0.271-0.151,0.369C282.788,189.359,282.661,189.408,282.508,189.408z"/>
			<path d="M284.195,191.736l1.688-0.219v3.369l0.006,0.443c0,0.264,0.016,0.458,0.047,0.58s0.092,0.225,0.182,0.306
				c0.109,0.105,0.311,0.185,0.604,0.239v0.125h-2.596v-0.125c0.234-0.031,0.402-0.074,0.504-0.131
				c0.102-0.056,0.184-0.151,0.246-0.287c0.043-0.089,0.073-0.224,0.091-0.404s0.026-0.44,0.026-0.781v-1.435
				c0-0.399-0.01-0.679-0.029-0.839c-0.02-0.161-0.063-0.292-0.128-0.392c-0.066-0.108-0.146-0.187-0.239-0.235
				c-0.093-0.048-0.227-0.078-0.401-0.09V191.736z M285.414,189.408c-0.154,0-0.281-0.049-0.381-0.146s-0.15-0.221-0.15-0.369
				c0-0.145,0.051-0.267,0.153-0.366s0.228-0.149,0.378-0.149c0.149,0,0.275,0.05,0.377,0.149c0.103,0.1,0.154,0.222,0.154,0.366
				c0,0.148-0.05,0.271-0.151,0.369C285.694,189.359,285.567,189.408,285.414,189.408z"/>
		</g>
		<g>
			<path d="M280.161,110.444v-3.912h0.696v3.672l2.352-0.768v-3.504h0.696v3.288l0.936-0.312v2.496l-0.936,0.312v3.552l0.936-0.288
				v2.472l-0.936,0.312v3.912h-0.696v-3.696l-2.352,0.768v3.552h-0.696v-3.312l-1.032,0.336v-2.496l1.032-0.336v-3.576l-1.032,0.336
				v-2.472L280.161,110.444z M280.856,112.701v3.576l2.352-0.768v-3.576L280.856,112.701z"/>
		</g>
		<g>
			<path d="M86.16,160.444v-3.912h0.696v3.672l2.352-0.768v-3.504h0.696v3.288l0.936-0.312v2.496l-0.936,0.312v3.552l0.936-0.288
				v2.472l-0.936,0.312v3.912h-0.696v-3.696l-2.352,0.768v3.552H86.16v-3.312l-1.032,0.336v-2.496l1.032-0.336v-3.576l-1.032,0.336
				v-2.472L86.16,160.444z M86.856,162.701v3.576l2.352-0.768v-3.576L86.856,162.701z"/>
		</g>
		<g>
			<path d="M151.267,161.836v-3.912h0.696v3.672l2.352-0.768v-3.504h0.696v3.288l0.936-0.312v2.496l-0.936,0.312v3.552l0.936-0.288
				v2.472l-0.936,0.312v3.912h-0.696v-3.696l-2.352,0.768v3.552h-0.696v-3.312l-1.032,0.336v-2.496l1.032-0.336v-3.576l-1.032,0.336
				v-2.472L151.267,161.836z M151.962,164.092v3.576l2.352-0.768v-3.576L151.962,164.092z"/>
		</g>
		<g>
			<path d="M150.16,145.444v-3.912h0.696v3.672l2.352-0.768v-3.504h0.696v3.288l0.936-0.312v2.496l-0.936,0.312v3.552l0.936-0.288
				v2.472l-0.936,0.312v3.912h-0.696v-3.696l-2.352,0.768v3.552h-0.696v-3.312l-1.032,0.336v-2.496l1.032-0.336v-3.576l-1.032,0.336
				v-2.472L150.16,145.444z M150.856,147.701v3.576l2.352-0.768v-3.576L150.856,147.701z"/>
		</g>
		<g>
			<path d="M208.16,145.444v-3.912h0.696v3.672l2.352-0.768v-3.504h0.696v3.288l0.936-0.312v2.496l-0.936,0.312v3.552l0.936-0.288
				v2.472l-0.936,0.312v3.912h-0.696v-3.696l-2.352,0.768v3.552h-0.696v-3.312l-1.032,0.336v-2.496l1.032-0.336v-3.576l-1.032,0.336
				v-2.472L208.16,145.444z M208.856,147.701v3.576l2.352-0.768v-3.576L208.856,147.701z"/>
		</g>
		<g>
			<path d="M237.16,135.444v-3.912h0.696v3.672l2.352-0.768v-3.504h0.696v3.288l0.936-0.312v2.496l-0.936,0.312v3.552l0.936-0.288
				v2.472l-0.936,0.312v3.912h-0.696v-3.696l-2.352,0.768v3.552h-0.696v-3.312l-1.032,0.336v-2.496l1.032-0.336v-3.576l-1.032,0.336
				v-2.472L237.16,135.444z M237.856,137.701v3.576l2.352-0.768v-3.576L237.856,137.701z"/>
		</g>
		<g>
			<path d="M266.16,145.444v-3.912h0.696v3.672l2.352-0.768v-3.504h0.696v3.288l0.936-0.312v2.496l-0.936,0.312v3.552l0.936-0.288
				v2.472l-0.936,0.312v3.912h-0.696v-3.696l-2.352,0.768v3.552h-0.696v-3.312l-1.032,0.336v-2.496l1.032-0.336v-3.576l-1.032,0.336
				v-2.472L266.16,145.444z M266.856,147.701v3.576l2.352-0.768v-3.576L266.856,147.701z"/>
		</g>
		<path fill="#FFFFFF" stroke="#000000" d="M291.351,72.397c0,1.207-1.246,2.183-2.783,2.183s-2.783-0.976-2.783-2.183
			s1.246-2.183,2.783-2.183S291.351,71.19,291.351,72.397z"/>
		<path fill="#FFFFFF" stroke="#000000" d="M294.568,189.58c0,1.207-1.246,2.183-2.783,2.183s-2.783-0.976-2.783-2.183
			s1.246-2.183,2.783-2.183S294.568,188.373,294.568,189.58z"/>
	</g>
</svg>
