<?xml version="1.0" encoding="utf-8"?>
<!-- Generator: Adobe Illustrator 10.0, SVG Export Plug-In . SVG Version: 3.0.0 Build 76)  -->
<!DOCTYPE svg PUBLIC "-//W3C//DTD SVG 1.0//EN"    "http://www.w3.org/TR/2001/REC-SVG-20010904/DTD/svg10.dtd" [
	<!ENTITY ns_flows "http://ns.adobe.com/Flows/1.0/">
	<!ENTITY ns_extend "http://ns.adobe.com/Extensibility/1.0/">
	<!ENTITY ns_ai "http://ns.adobe.com/AdobeIllustrator/10.0/">
	<!ENTITY ns_svg "http://www.w3.org/2000/svg">
	<!ENTITY ns_xlink "http://www.w3.org/1999/xlink">
]>
<svg  xmlns:x="&ns_extend;" xmlns:i="&ns_ai;" xmlns:graph="&ns_graphs;"
	 xmlns="&ns_svg;" xmlns:xlink="&ns_xlink;" xmlns:a="http://ns.adobe.com/AdobeSVGViewerExtensions/3.0/" width="239" height="45"
	 viewBox="0.2 0.08 239 45" overflow="visible" enable-background="new 0.2 0.08 239 45" xml:space="preserve">
	<g id="Layer_1_2_">
		<g>
			<path fill="none" stroke="#000000" d="M0.064,5.246h238.18"/>
			<path fill="none" stroke="#000000" d="M0.064,19.357h238.18"/>
			<path fill="none" stroke="#000000" d="M0.182,26.48h238.18"/>
			<path fill="none" stroke="#000000" d="M0,33.864h238.179"/>
			<path fill="none" stroke="#000000" d="M0,12.5h238.179"/>
		</g>
		<path fill="none" stroke="#0A0A0A" d="M57.2,4.334V34.08"/>
		<g>
			<path d="M161.62,17.637c-0.713,0-1.217-0.536-1.217-1.25s0.524-1.25,1.259-1.25s1.238,0.516,1.238,1.25
				c0,0.714-0.503,1.25-1.259,1.25H161.62z"/>
		</g>
		<g>
			<path d="M12.152,33.768c-4.944-2.352-5.736-5.376-5.952-8.472c-0.24-3.36,1.896-6.768,3.888-8.664
				c1.152-1.08,2.4-2.136,3.888-3.264c-0.048-0.84-0.24-1.176-0.336-2.376c-0.024-0.504-0.336-2.856,0.168-5.568
				c0.312-1.608,2.328-5.4,3.72-5.424c1.08-0.024,2.736,4.296,2.784,6.456c0.072,3.336-0.72,4.848-1.704,6.576
				c-0.504,0.864-1.032,1.464-1.584,2.136C16.448,15.864,15.8,16.272,15.2,16.8c0,0,0.768,4.344,0.792,4.656
				c1.536-0.192,3.408,0.36,4.08,0.84c1.704,1.272,2.352,3.024,2.472,4.728c0.216,2.712-1.272,5.568-4.56,6.936
				c0,0,0.504,3.456,0.624,4.176c0.264,1.896,0.216,3.096-0.192,3.864c-0.696,1.296-1.824,2.496-4.008,2.64
				c-1.68,0.096-4.992-0.744-5.16-3.384c-0.096-1.56,0.6-3.24,2.496-3.36c1.152-0.096,2.52,0.864,2.616,2.232
				c0.096,1.176-0.672,2.4-2.664,2.952c0.312,0.432,1.248,0.936,2.592,0.936c1.392,0,2.832-0.936,3.528-2.184
				c0.432-0.816,0.384-2.28,0.216-3.624c-0.072-0.456-0.648-4.08-0.648-4.08C15.608,34.416,13.16,34.248,12.152,33.768z
				 M12.632,28.08c0.048,1.152,1.008,2.496,1.896,2.952c-0.12,0.072-0.24,0.264-0.24,0.264c-0.984-0.48-1.824-1.272-2.04-1.56
				c-0.696-0.936-0.984-1.464-1.08-2.88c-0.096-1.32,0.624-3.096,2.232-4.344c0.84-0.624,1.248-0.768,1.968-0.936l-0.72-4.344
				c-0.744,0.432-3.816,2.904-5.112,4.92c-1.152,1.8-1.848,3.24-1.704,5.016c0.288,4.008,4.68,7.296,9.432,6.168
				c0,0-1.416-8.52-1.392-8.52C13.256,24.912,12.56,26.928,12.632,28.08z M14.576,12.864c2.088-1.632,4.92-4.704,4.752-7.08
				c-0.048-0.744-0.36-2.088-1.44-2.064C15.416,3.744,14.024,8.904,14.576,12.864z M17.84,33.144c2.76-0.936,2.88-3.312,2.784-4.728
				C20.528,27.24,20,24.6,16.496,24.768L17.84,33.144z"/>
		</g>
		<g>
			<path d="M93.763,30.912c0.984,0,1.776,0.36,2.232,0.912V12.6h0.456V33c0,0.336-0.048,0.672-0.168,1.056
				c-0.648,1.704-2.784,3.072-4.8,3.048c-2.016-0.024-3.144-1.44-2.52-3.144S91.747,30.888,93.763,30.912z"/>
		</g>
		<g>
			<path d="M198.44,23.696c0.456-1.248,1.488-2.256,2.256-2.64c0.768-0.36,1.752-0.552,2.88-0.456
				c0.576,0.048,1.584,0.216,2.16,0.816V2.192h0.456v20.496c0,0.096-0.024,0.168-0.024,0.24c-0.048,0.432-0.168,0.792-0.264,1.032
				c-0.456,1.248-1.44,2.088-2.184,2.52s-1.872,0.744-3.24,0.6c-0.528-0.072-1.68-0.168-2.16-1.032
				C197.936,25.4,198.271,24.176,198.44,23.696z M201.32,25.712c0.552-0.288,0.96-0.528,1.464-0.792
				c0.48-0.288,0.912-0.552,1.44-0.888c0.72-0.456,1.656-1.248,1.176-2.064c-0.48-0.816-1.656-0.408-2.4-0.048
				c-0.576,0.288-1.032,0.528-1.512,0.816c-0.48,0.264-0.912,0.504-1.416,0.84c-0.72,0.456-1.656,1.272-1.152,2.088
				C199.375,26.48,200.552,26.072,201.32,25.712z"/>
		</g>
		<g>
			<path d="M154.88,15.912c-0.456,1.248-1.488,2.256-2.232,2.64c-0.768,0.384-1.776,0.576-2.88,0.456
				c-0.6-0.048-1.608-0.216-2.16-0.792V37.44h-0.456V16.944c0-0.096,0-0.168,0-0.264c0.048-0.408,0.192-0.792,0.288-1.032
				c0.456-1.224,1.416-2.088,2.16-2.496c0.744-0.432,1.896-0.744,3.264-0.6c0.504,0.048,1.656,0.168,2.136,1.008
				C155.384,14.232,155.072,15.456,154.88,15.912z M152.024,13.92c-0.552,0.288-0.984,0.504-1.464,0.792s-0.936,0.528-1.464,0.888
				c-0.696,0.456-1.632,1.248-1.152,2.064s1.632,0.408,2.4,0.024c0.552-0.264,1.008-0.504,1.488-0.792
				c0.504-0.288,0.912-0.504,1.44-0.84c0.696-0.456,1.632-1.272,1.152-2.088C153.944,13.152,152.768,13.536,152.024,13.92z"/>
		</g>
		<g>
			<path fill="none" stroke="#000000" d="M33.199,40.747h12"/>
			<g>
				<path d="M40.633,38.256c0.984,0,1.776,0.36,2.232,0.912V19.944h0.456v20.4c0,0.336-0.048,0.672-0.168,1.056
					c-0.648,1.704-2.784,3.072-4.8,3.048c-2.016-0.024-3.144-1.44-2.52-3.144S38.617,38.232,40.633,38.256z"/>
			</g>
		</g>
		<g>
			<path fill="none" stroke="#000000" d="M64.199,40.747h12"/>
			<g>
				<path d="M71.633,38.256c0.984,0,1.776,0.36,2.232,0.912V19.944h0.456v20.4c0,0.336-0.048,0.672-0.168,1.056
					c-0.648,1.704-2.784,3.072-4.8,3.048c-2.016-0.024-3.144-1.44-2.52-3.144S69.617,38.232,71.633,38.256z"/>
			</g>
		</g>
		<g>
			<path d="M114.763,22.912c0.984,0,1.776,0.36,2.232,0.912V4.6h0.456V25c0,0.336-0.048,0.672-0.168,1.056
				c-0.648,1.704-2.784,3.072-4.8,3.048c-2.016-0.024-3.144-1.44-2.52-3.144S112.747,22.888,114.763,22.912z"/>
		</g>
		<path fill="none" stroke="#0A0A0A" d="M133.2,4.334V34.08"/>
		<path fill="none" stroke="#0A0A0A" d="M183.2,5.334V35.08"/>
		<g>
			<path d="M211.507,24.298c-0.713,0-1.217-0.536-1.217-1.25s0.524-1.25,1.259-1.25s1.238,0.516,1.238,1.25
				c0,0.714-0.503,1.25-1.259,1.25H211.507z"/>
		</g>
		<path fill="none" stroke="#0A0A0A" d="M238.362,4.734V34.48"/>
		<g>
			<g>
				<path fill="none" d="M49.2,43.08c39.129-22.656,103.64-47.83,147-17.622"/>
				<path fill="#FF0000" d="M49.625,43.977C90.954,20.167,151.497-3.815,195.63,26.271c1.058,0.721,2.197-0.904,1.139-1.626
					C151.995-5.877,90.752,18,48.774,42.184C47.674,42.817,48.514,44.617,49.625,43.977z"/>
			</g>
		</g>
	</g>
</svg>
