<?xml version="1.0" encoding="utf-8"?>
<!-- Generator: Adobe Illustrator 10.0, SVG Export Plug-In . SVG Version: 3.0.0 Build 76)  -->
<!DOCTYPE svg PUBLIC "-//W3C//DTD SVG 1.0//EN"    "http://www.w3.org/TR/2001/REC-SVG-20010904/DTD/svg10.dtd" [
	<!ENTITY ns_flows "http://ns.adobe.com/Flows/1.0/">
	<!ENTITY ns_extend "http://ns.adobe.com/Extensibility/1.0/">
	<!ENTITY ns_ai "http://ns.adobe.com/AdobeIllustrator/10.0/">
	<!ENTITY ns_svg "http://www.w3.org/2000/svg">
	<!ENTITY ns_xlink "http://www.w3.org/1999/xlink">
]>
<svg  xmlns:x="&ns_extend;" xmlns:i="&ns_ai;" xmlns:graph="&ns_graphs;"
	 xmlns="&ns_svg;" xmlns:xlink="&ns_xlink;" xmlns:a="http://ns.adobe.com/AdobeSVGViewerExtensions/3.0/" width="378" height="202"
	 viewBox="-0.108 0.132 378 202" overflow="visible" enable-background="new -0.108 0.132 378 202" xml:space="preserve">
	<g id="Layer_1_2_">
		<g>
			<path fill="none" stroke="#000000" d="M1.63,96.847h226.68"/>
			<path fill="none" stroke="#000000" d="M1.63,110.958h226.68"/>
			<path fill="none" stroke="#000000" d="M1.743,118.081h226.681"/>
			<path fill="none" stroke="#000000" d="M1.57,125.465h226.679"/>
			<path fill="none" stroke="#000000" d="M1.57,104.101h226.679"/>
		</g>
		<g>
			<path d="M12.722,125.369c-4.944-2.352-5.736-5.376-5.952-8.472c-0.24-3.36,1.896-6.768,3.888-8.664
				c1.152-1.08,2.4-2.136,3.888-3.264c-0.048-0.84-0.24-1.176-0.336-2.376c-0.024-0.504-0.336-2.856,0.168-5.568
				c0.312-1.608,2.328-5.4,3.72-5.424c1.08-0.024,2.736,4.296,2.784,6.456c0.072,3.336-0.72,4.848-1.704,6.576
				c-0.504,0.864-1.032,1.464-1.584,2.136c-0.576,0.696-1.224,1.104-1.824,1.632c0,0,0.768,4.344,0.792,4.656
				c1.536-0.192,3.408,0.36,4.08,0.84c1.704,1.272,2.352,3.024,2.472,4.728c0.216,2.712-1.272,5.568-4.56,6.936
				c0,0,0.504,3.456,0.624,4.176c0.264,1.896,0.216,3.096-0.192,3.864c-0.696,1.296-1.824,2.496-4.008,2.64
				c-1.68,0.096-4.992-0.744-5.16-3.384c-0.096-1.56,0.6-3.24,2.496-3.36c1.152-0.096,2.52,0.864,2.616,2.232
				c0.096,1.176-0.672,2.4-2.664,2.952c0.312,0.432,1.248,0.936,2.592,0.936c1.392,0,2.832-0.936,3.528-2.184
				c0.432-0.816,0.384-2.28,0.216-3.624c-0.072-0.456-0.648-4.08-0.648-4.08C16.178,126.017,13.729,125.849,12.722,125.369z
				 M13.202,119.681c0.048,1.152,1.008,2.496,1.896,2.952c-0.12,0.072-0.24,0.264-0.24,0.264c-0.984-0.48-1.824-1.272-2.04-1.56
				c-0.696-0.936-0.984-1.464-1.08-2.88c-0.096-1.32,0.624-3.096,2.232-4.344c0.84-0.624,1.248-0.768,1.968-0.936l-0.72-4.344
				c-0.744,0.432-3.816,2.904-5.112,4.92c-1.152,1.8-1.848,3.24-1.704,5.016c0.288,4.008,4.68,7.296,9.432,6.168
				c0,0-1.416-8.52-1.392-8.52C13.826,116.513,13.129,118.529,13.202,119.681z M15.146,104.465c2.088-1.632,4.92-4.704,4.752-7.08
				c-0.048-0.744-0.36-2.088-1.44-2.064C15.986,95.345,14.594,100.505,15.146,104.465z M18.41,124.745
				c2.76-0.936,2.88-3.312,2.784-4.728c-0.096-1.176-0.624-3.816-4.128-3.648L18.41,124.745z"/>
		</g>
		<g>
			<path d="M3.374,75.612c0.672-0.12,1.548-0.18,2.46-0.18c1.548,0,2.556,0.252,3.324,0.84c0.84,0.624,1.368,1.632,1.368,3.072
				c0,1.548-0.564,2.616-1.332,3.276c-0.852,0.708-2.16,1.044-3.744,1.044c-0.948,0-1.632-0.06-2.076-0.12V75.612z M5.198,82.2
				c0.156,0.036,0.42,0.036,0.636,0.036c1.668,0.012,2.76-0.9,2.76-2.832c0-1.74-0.984-2.568-2.568-2.568
				c-0.396,0-0.672,0.036-0.828,0.072V82.2z"/>
			<path d="M14.162,75.492h1.824v6.552h3.216v1.536h-5.04V75.492z"/>
			<path d="M21.158,77.712l0.876,2.88c0.096,0.348,0.216,0.78,0.288,1.092h0.036c0.084-0.312,0.18-0.756,0.264-1.092l0.72-2.88
				h1.956l-1.368,3.864c-0.84,2.328-1.404,3.252-2.064,3.84c-0.624,0.552-1.296,0.756-1.764,0.804l-0.384-1.536
				c0.228-0.048,0.516-0.156,0.792-0.312c0.276-0.144,0.588-0.444,0.756-0.732c0.06-0.096,0.096-0.18,0.096-0.264
				c0-0.06-0.012-0.156-0.072-0.3l-2.16-5.364H21.158z"/>
			<path d="M31.586,75.06v6.768c0,0.672,0.024,1.356,0.048,1.752h-1.62l-0.072-0.852h-0.036c-0.36,0.648-1.08,0.984-1.836,0.984
				c-1.392,0-2.508-1.188-2.508-3.012c-0.012-1.968,1.224-3.12,2.628-3.12c0.732,0,1.284,0.264,1.548,0.66h0.024v-3.18H31.586z
				 M29.762,80.208c0-0.108,0-0.228-0.024-0.336c-0.108-0.492-0.504-0.888-1.068-0.888c-0.84,0-1.26,0.744-1.26,1.668
				c0,0.984,0.492,1.608,1.248,1.608c0.528,0,0.96-0.36,1.068-0.876c0.024-0.12,0.036-0.264,0.036-0.408V80.208z"/>
			<path d="M33.95,76.944c-0.612,0-1.008-0.432-1.008-0.972c0-0.552,0.408-0.972,1.032-0.972s1.008,0.42,1.02,0.972
				c0,0.54-0.396,0.972-1.032,0.972H33.95z M33.05,83.58v-5.868h1.824v5.868H33.05z"/>
			<path d="M41.222,82.164c0,0.552,0.024,1.092,0.096,1.416h-1.644l-0.108-0.588H39.53c-0.384,0.468-0.984,0.72-1.68,0.72
				c-1.188,0-1.896-0.864-1.896-1.8c0-1.524,1.368-2.244,3.444-2.244v-0.072c0-0.312-0.168-0.756-1.068-0.756
				c-0.6,0-1.236,0.204-1.62,0.432l-0.336-1.164c0.408-0.228,1.212-0.528,2.28-0.528c1.956,0,2.568,1.152,2.568,2.532V82.164z
				 M39.458,80.808c-0.96,0-1.704,0.228-1.704,0.924c0,0.468,0.312,0.696,0.72,0.696c0.444,0,0.828-0.3,0.948-0.672
				c0.024-0.096,0.036-0.204,0.036-0.312V80.808z"/>
			<path d="M42.674,79.584c0-0.732-0.024-1.344-0.048-1.872h1.584l0.084,0.816h0.036c0.24-0.384,0.828-0.948,1.812-0.948
				c1.2,0,2.1,0.804,2.1,2.532v3.468h-1.824v-3.252c0-0.756-0.264-1.272-0.924-1.272c-0.504,0-0.804,0.348-0.936,0.684
				c-0.048,0.12-0.06,0.288-0.06,0.456v3.384h-1.824V79.584z"/>
		</g>
		<g>
			<path d="M211.738,100.513c2.04,0.024,3.144,1.416,2.52,3.12c-0.624,1.728-2.784,3.096-4.8,3.072
				c-0.984-0.024-1.776-0.384-2.232-0.936v19.08h-0.456c0-24.216,0-20.4,0-20.4c0-0.288,0.072-0.576,0.192-0.888
				C207.585,101.833,209.722,100.489,211.738,100.513z"/>
		</g>
		<g>
			<path d="M137.333,110.513c0.984,0,1.776,0.36,2.232,0.912V92.201h0.456v20.4c0,0.336-0.048,0.672-0.168,1.056
				c-0.648,1.704-2.784,3.072-4.8,3.048c-2.016-0.024-3.144-1.44-2.52-3.144S135.316,110.489,137.333,110.513z"/>
		</g>
		<g>
			<path fill="#FF0000" d="M116.333,114.514c0.984,0,1.776,0.36,2.232,0.912V96.202h0.456v20.4c0,0.336-0.048,0.672-0.168,1.056
				c-0.648,1.704-2.784,3.072-4.8,3.048c-2.016-0.024-3.144-1.44-2.52-3.144S114.316,114.49,116.333,114.514z"/>
		</g>
		<g>
			<path d="M89.333,118.514c0.984,0,1.776,0.36,2.232,0.912v-19.224h0.456v20.4c0,0.336-0.048,0.672-0.168,1.056
				c-0.648,1.704-2.784,3.072-4.8,3.048c-2.016-0.024-3.144-1.44-2.52-3.144S87.316,118.49,89.333,118.514z"/>
		</g>
		<g>
			<path d="M63.333,122.514c0.984,0,1.776,0.36,2.232,0.912v-19.224h0.456v20.4c0,0.336-0.048,0.672-0.168,1.056
				c-0.648,1.704-2.784,3.072-4.8,3.048c-2.016-0.024-3.144-1.44-2.52-3.144S61.316,122.49,63.333,122.514z"/>
		</g>
		<g>
			<path d="M40.015,125.756c0.984,0,1.776,0.36,2.232,0.912v-19.224h0.456v20.4c0,0.336-0.048,0.672-0.168,1.056
				c-0.648,1.704-2.784,3.072-4.8,3.048c-2.016-0.024-3.144-1.44-2.52-3.144S37.999,125.732,40.015,125.756z"/>
		</g>
		<g>
			<path d="M162.738,107.513c2.04,0.024,3.144,1.416,2.52,3.12c-0.624,1.728-2.784,3.096-4.8,3.072
				c-0.984-0.024-1.776-0.384-2.232-0.936v19.08h-0.456c0-24.216,0-20.4,0-20.4c0-0.288,0.072-0.576,0.192-0.888
				C158.585,108.833,160.722,107.489,162.738,107.513z"/>
		</g>
		<g>
			<path d="M187.738,103.513c2.04,0.024,3.144,1.416,2.52,3.12c-0.624,1.728-2.784,3.096-4.8,3.072
				c-0.984-0.024-1.776-0.384-2.232-0.936v19.08h-0.456c0-24.216,0-20.4,0-20.4c0-0.288,0.072-0.576,0.192-0.888
				C183.585,104.833,185.722,103.489,187.738,103.513z"/>
		</g>
		<g>
			<path d="M77.924,117.388v-3.912h0.696v3.672l2.352-0.768v-3.504h0.696v3.288l0.936-0.312v2.496l-0.936,0.312v3.552l0.936-0.288
				v2.472l-0.936,0.312v3.912h-0.696v-3.696l-2.352,0.768v3.552h-0.696v-3.312l-1.032,0.336v-2.496l1.032-0.336v-3.576l-1.032,0.336
				v-2.472L77.924,117.388z M78.62,119.644v3.576l2.352-0.768v-3.576L78.62,119.644z"/>
		</g>
		<g>
			<path fill="#FF0000" d="M102.924,114.388v-3.912h0.696v3.672l2.352-0.768v-3.504h0.696v3.288l0.936-0.312v2.496l-0.936,0.312
				v3.552l0.936-0.288v2.472l-0.936,0.312v3.912h-0.696v-3.696l-2.352,0.768v3.552h-0.696v-3.312l-1.032,0.336v-2.496l1.032-0.336
				v-3.576l-1.032,0.336v-2.472L102.924,114.388z M103.62,116.644v3.576l2.352-0.768v-3.576L103.62,116.644z"/>
		</g>
		<g>
			<path d="M176.924,103.388v-3.912h0.696v3.672l2.352-0.768v-3.504h0.696v3.288l0.936-0.312v2.496l-0.936,0.312v3.552l0.936-0.288
				v2.472l-0.936,0.312v3.912h-0.696v-3.696l-2.352,0.768v3.552h-0.696v-3.312l-1.032,0.336v-2.496l1.032-0.336v-3.576l-1.032,0.336
				v-2.472L176.924,103.388z M177.62,105.644v3.576l2.352-0.768v-3.576L177.62,105.644z"/>
		</g>
		<g>
			<path d="M1.848,148.044v8.088H0.792v-8.088H1.848z"/>
			<path d="M3.804,156.132v-5.004H3v-0.804h0.804v-0.276c0-0.816,0.192-1.56,0.684-2.028c0.396-0.384,0.924-0.54,1.404-0.54
				c0.384,0,0.696,0.084,0.9,0.168l-0.132,0.816c-0.168-0.072-0.372-0.132-0.684-0.132c-0.888,0-1.128,0.792-1.128,1.68v0.312h1.404
				v0.804H4.86v5.004H3.804z"/>
			<path d="M10.14,150.324l1.26,3.432c0.144,0.384,0.288,0.84,0.384,1.188h0.024c0.108-0.348,0.228-0.792,0.372-1.212l1.152-3.408
				h1.116l-1.584,4.14c-0.756,1.992-1.272,3.012-1.992,3.648c-0.528,0.444-1.032,0.624-1.296,0.672l-0.264-0.888
				c0.264-0.072,0.612-0.24,0.924-0.516c0.288-0.228,0.636-0.636,0.888-1.176c0.048-0.108,0.084-0.18,0.084-0.252
				c0-0.06-0.024-0.144-0.084-0.264l-2.136-5.364H10.14z"/>
			<path d="M17.652,156.264c-1.56,0-2.784-1.152-2.784-2.988c0-1.944,1.284-3.084,2.88-3.084c1.668,0,2.796,1.212,2.796,2.976
				c0,2.16-1.5,3.096-2.88,3.096H17.652z M17.688,155.472c1.008,0,1.764-0.948,1.764-2.268c0-0.984-0.492-2.22-1.74-2.22
				c-1.236,0-1.776,1.152-1.776,2.256c0,1.272,0.72,2.232,1.74,2.232H17.688z"/>
			<path d="M26.736,154.548c0,0.6,0.012,1.128,0.048,1.584h-0.936l-0.06-0.948h-0.024c-0.264,0.468-0.888,1.08-1.92,1.08
				c-0.912,0-2.004-0.516-2.004-2.544v-3.396h1.056v3.204c0,1.104,0.348,1.86,1.296,1.86c0.708,0,1.2-0.492,1.392-0.972
				c0.06-0.144,0.096-0.336,0.096-0.54v-3.552h1.056V154.548z"/>
			<path d="M30.888,155.064c0.324,0.192,0.876,0.408,1.404,0.408c0.756,0,1.116-0.372,1.116-0.864c0-0.504-0.3-0.78-1.068-1.068
				c-1.056-0.384-1.548-0.948-1.548-1.644c0-0.936,0.768-1.704,2.004-1.704c0.588,0,1.104,0.156,1.416,0.36l-0.252,0.756
				c-0.228-0.132-0.648-0.336-1.188-0.336c-0.624,0-0.96,0.36-0.96,0.792c0,0.492,0.336,0.708,1.092,0.996
				c0.996,0.372,1.524,0.876,1.524,1.752c0,1.032-0.804,1.752-2.16,1.752c-0.636,0-1.224-0.168-1.632-0.408L30.888,155.064z"/>
			<path d="M37.056,148.932v1.392h1.512v0.804h-1.512v3.132c0,0.72,0.204,1.128,0.792,1.128c0.288,0,0.456-0.024,0.612-0.072
				l0.048,0.804c-0.204,0.072-0.528,0.144-0.936,0.144c-0.492,0-0.888-0.168-1.14-0.444c-0.288-0.324-0.408-0.84-0.408-1.524v-3.168
				h-0.9v-0.804h0.9v-1.068L37.056,148.932z"/>
			<path d="M43.848,154.74c0,0.504,0.024,0.996,0.084,1.392h-0.948l-0.096-0.732h-0.036c-0.312,0.456-0.948,0.864-1.776,0.864
				c-1.176,0-1.776-0.828-1.776-1.668c0-1.404,1.248-2.172,3.492-2.16v-0.12c0-0.48-0.132-1.356-1.32-1.344
				c-0.552,0-1.116,0.156-1.524,0.432l-0.24-0.708c0.48-0.3,1.188-0.504,1.92-0.504c1.788,0,2.22,1.212,2.22,2.376V154.74z
				 M42.815,153.168c-1.152-0.024-2.46,0.18-2.46,1.308c0,0.696,0.456,1.008,0.984,1.008c0.768,0,1.26-0.48,1.428-0.972
				c0.036-0.108,0.048-0.228,0.048-0.336V153.168z"/>
			<path d="M45.551,152.136c0-0.684-0.012-1.272-0.048-1.812h0.924l0.048,1.14h0.036c0.264-0.78,0.912-1.272,1.62-1.272
				c0.108,0,0.192,0.012,0.288,0.036v0.984c-0.12-0.012-0.228-0.024-0.372-0.024c-0.744,0-1.272,0.564-1.416,1.344
				c-0.024,0.156-0.036,0.324-0.036,0.504v3.096H45.54L45.551,152.136z"/>
			<path d="M51.023,148.932v1.392h1.512v0.804h-1.512v3.132c0,0.72,0.204,1.128,0.792,1.128c0.288,0,0.456-0.024,0.612-0.072
				l0.048,0.804c-0.204,0.072-0.528,0.144-0.936,0.144c-0.492,0-0.888-0.168-1.14-0.444c-0.288-0.324-0.408-0.84-0.408-1.524v-3.168
				h-0.9v-0.804h0.9v-1.068L51.023,148.932z"/>
			<path d="M56.687,150.324l0.78,2.94c0.156,0.648,0.312,1.26,0.42,1.86h0.036c0.132-0.588,0.324-1.212,0.516-1.848l0.948-2.952
				h0.888l0.9,2.904c0.216,0.684,0.384,1.308,0.516,1.896h0.036c0.096-0.588,0.252-1.2,0.444-1.884l0.828-2.916h1.044l-1.872,5.808
				h-0.96l-0.888-2.772c-0.204-0.66-0.372-1.236-0.516-1.92h-0.024c-0.144,0.696-0.324,1.308-0.528,1.932l-0.936,2.76h-0.96
				l-1.752-5.808H56.687z"/>
			<path d="M65.603,149.256c-0.396,0-0.66-0.312-0.66-0.684s0.276-0.672,0.684-0.672c0.408,0,0.672,0.3,0.672,0.672
				s-0.264,0.684-0.684,0.684H65.603z M65.099,156.132v-5.808h1.056v5.808H65.099z"/>
			<path d="M69.179,148.932v1.392h1.512v0.804h-1.512v3.132c0,0.72,0.204,1.128,0.792,1.128c0.288,0,0.456-0.024,0.612-0.072
				l0.048,0.804c-0.204,0.072-0.528,0.144-0.936,0.144c-0.492,0-0.888-0.168-1.14-0.444c-0.288-0.324-0.408-0.84-0.408-1.524v-3.168
				h-0.9v-0.804h0.9v-1.068L69.179,148.932z"/>
			<path d="M71.879,147.612h1.056v3.624h0.024c0.168-0.3,0.432-0.576,0.756-0.744c0.312-0.192,0.684-0.3,1.08-0.3
				c0.78,0,2.028,0.48,2.028,2.484v3.456h-1.056v-3.336c0-0.948-0.348-1.728-1.344-1.728c-0.684,0-1.212,0.48-1.416,1.056
				c-0.06,0.144-0.072,0.3-0.072,0.504v3.504h-1.056V147.612z"/>
			<path d="M85.175,154.74c0,0.504,0.024,0.996,0.084,1.392h-0.948l-0.096-0.732h-0.036c-0.312,0.456-0.948,0.864-1.776,0.864
				c-1.176,0-1.776-0.828-1.776-1.668c0-1.404,1.248-2.172,3.492-2.16v-0.12c0-0.48-0.132-1.356-1.32-1.344
				c-0.552,0-1.116,0.156-1.524,0.432l-0.24-0.708c0.48-0.3,1.188-0.504,1.92-0.504c1.788,0,2.22,1.212,2.22,2.376V154.74z
				 M84.143,153.168c-1.152-0.024-2.46,0.18-2.46,1.308c0,0.696,0.456,1.008,0.984,1.008c0.768,0,1.26-0.48,1.428-0.972
				c0.036-0.108,0.048-0.228,0.048-0.336V153.168z"/>
			<path d="M89.435,148.152c0.648-0.096,1.404-0.168,2.232-0.168c1.5,0,2.568,0.336,3.276,0.996c0.732,0.66,1.152,1.608,1.152,2.916
				c0,1.32-0.42,2.4-1.164,3.144c-0.768,0.756-2.016,1.164-3.588,1.164c-0.756,0-1.368-0.024-1.908-0.096V148.152z M90.49,155.316
				c0.264,0.048,0.648,0.048,1.056,0.048c2.232,0.012,3.444-1.248,3.444-3.432c0.012-1.932-1.068-3.12-3.276-3.12
				c-0.54,0-0.948,0.048-1.224,0.108V155.316z"/>
			<path d="M99.946,151.896c0-0.612-0.024-1.092-0.048-1.572h0.924l0.048,0.936h0.036c0.324-0.552,0.864-1.068,1.836-1.068
				c0.78,0,1.38,0.48,1.632,1.164h0.024c0.18-0.336,0.42-0.576,0.66-0.756c0.348-0.264,0.72-0.408,1.272-0.408
				c0.78,0,1.92,0.504,1.92,2.52v3.42h-1.032v-3.288c0-1.128-0.42-1.788-1.26-1.788c-0.612,0-1.068,0.444-1.26,0.948
				c-0.048,0.156-0.084,0.348-0.084,0.528v3.6h-1.032v-3.48c0-0.936-0.408-1.596-1.212-1.596c-0.648,0-1.14,0.528-1.308,1.056
				c-0.06,0.156-0.084,0.336-0.084,0.516v3.504h-1.032V151.896z"/>
			<path d="M114.046,154.74c0,0.504,0.024,0.996,0.084,1.392h-0.948l-0.096-0.732h-0.036c-0.312,0.456-0.948,0.864-1.776,0.864
				c-1.176,0-1.776-0.828-1.776-1.668c0-1.404,1.248-2.172,3.492-2.16v-0.12c0-0.48-0.132-1.356-1.32-1.344
				c-0.552,0-1.116,0.156-1.524,0.432l-0.24-0.708c0.48-0.3,1.188-0.504,1.92-0.504c1.788,0,2.22,1.212,2.22,2.376V154.74z
				 M113.014,153.168c-1.152-0.024-2.46,0.18-2.46,1.308c0,0.696,0.456,1.008,0.984,1.008c0.768,0,1.26-0.48,1.428-0.972
				c0.036-0.108,0.048-0.228,0.048-0.336V153.168z"/>
			<path d="M114.31,157.836c0.492-0.036,0.9-0.168,1.152-0.444c0.288-0.324,0.408-0.792,0.408-2.184v-4.884h1.056v5.292
				c0,1.128-0.18,1.86-0.696,2.388c-0.468,0.468-1.236,0.66-1.8,0.66L114.31,157.836z M116.374,149.256
				c-0.396,0-0.66-0.312-0.66-0.684s0.276-0.672,0.684-0.672c0.408,0,0.672,0.3,0.672,0.672s-0.252,0.684-0.684,0.684H116.374z"/>
			<path d="M121.018,156.264c-1.56,0-2.784-1.152-2.784-2.988c0-1.944,1.284-3.084,2.88-3.084c1.668,0,2.796,1.212,2.796,2.976
				c0,2.16-1.5,3.096-2.88,3.096H121.018z M121.054,155.472c1.008,0,1.764-0.948,1.764-2.268c0-0.984-0.492-2.22-1.74-2.22
				c-1.236,0-1.776,1.152-1.776,2.256c0,1.272,0.72,2.232,1.74,2.232H121.054z"/>
			<path d="M125.254,152.136c0-0.684-0.012-1.272-0.048-1.812h0.924l0.048,1.14h0.036c0.264-0.78,0.912-1.272,1.62-1.272
				c0.108,0,0.192,0.012,0.288,0.036v0.984c-0.12-0.012-0.228-0.024-0.372-0.024c-0.744,0-1.272,0.564-1.416,1.344
				c-0.024,0.156-0.036,0.324-0.036,0.504v3.096h-1.056L125.254,152.136z"/>
			<path d="M131.566,155.064c0.324,0.192,0.876,0.408,1.404,0.408c0.756,0,1.116-0.372,1.116-0.864c0-0.504-0.3-0.78-1.068-1.068
				c-1.056-0.384-1.548-0.948-1.548-1.644c0-0.936,0.768-1.704,2.004-1.704c0.588,0,1.104,0.156,1.416,0.36l-0.252,0.756
				c-0.228-0.132-0.648-0.336-1.188-0.336c-0.624,0-0.96,0.36-0.96,0.792c0,0.492,0.336,0.708,1.092,0.996
				c0.996,0.372,1.524,0.876,1.524,1.752c0,1.032-0.804,1.752-2.16,1.752c-0.636,0-1.224-0.168-1.632-0.408L131.566,155.064z"/>
			<path d="M140.602,155.928c-0.276,0.132-0.888,0.336-1.668,0.336c-1.752,0-2.892-1.188-2.892-2.976
				c0-1.788,1.224-3.096,3.12-3.096c0.624,0,1.176,0.156,1.464,0.312l-0.24,0.804c-0.252-0.132-0.648-0.276-1.224-0.276
				c-1.332,0-2.052,0.996-2.052,2.208c0,1.344,0.864,2.172,2.016,2.172c0.6,0,0.996-0.144,1.296-0.276L140.602,155.928z"/>
			<path d="M145.941,154.74c0,0.504,0.024,0.996,0.084,1.392h-0.948l-0.096-0.732h-0.036c-0.312,0.456-0.948,0.864-1.776,0.864
				c-1.176,0-1.776-0.828-1.776-1.668c0-1.404,1.248-2.172,3.492-2.16v-0.12c0-0.48-0.132-1.356-1.32-1.344
				c-0.552,0-1.116,0.156-1.524,0.432l-0.24-0.708c0.48-0.3,1.188-0.504,1.92-0.504c1.788,0,2.22,1.212,2.22,2.376V154.74z
				 M144.91,153.168c-1.152-0.024-2.46,0.18-2.46,1.308c0,0.696,0.456,1.008,0.984,1.008c0.768,0,1.26-0.48,1.428-0.972
				c0.036-0.108,0.048-0.228,0.048-0.336V153.168z"/>
			<path d="M147.633,147.612h1.056v8.52h-1.056V147.612z"/>
			<path d="M151.042,153.408c0.024,1.428,0.924,2.016,1.98,2.016c0.756,0,1.224-0.132,1.608-0.288l0.192,0.744
				c-0.372,0.168-1.02,0.372-1.944,0.372c-1.776,0-2.856-1.188-2.856-2.928c0-1.764,1.044-3.144,2.736-3.144
				c1.896,0,2.388,1.668,2.388,2.736c0,0.216-0.012,0.384-0.036,0.504L151.042,153.408z M154.125,152.652
				c0.012-0.66-0.276-1.716-1.452-1.716c-1.08,0-1.536,0.984-1.62,1.716H154.125z"/>
			<path d="M155.542,157.62c0.264-0.72,0.588-2.004,0.72-2.88l1.176-0.12c-0.288,1.02-0.816,2.352-1.152,2.916L155.542,157.62z"/>
			<path d="M164.517,154.74c0,0.504,0.024,0.996,0.084,1.392h-0.948l-0.096-0.732h-0.036c-0.312,0.456-0.948,0.864-1.776,0.864
				c-1.176,0-1.776-0.828-1.776-1.668c0-1.404,1.248-2.172,3.492-2.16v-0.12c0-0.48-0.132-1.356-1.32-1.344
				c-0.552,0-1.116,0.156-1.524,0.432l-0.24-0.708c0.48-0.3,1.188-0.504,1.92-0.504c1.788,0,2.22,1.212,2.22,2.376V154.74z
				 M163.485,153.168c-1.152-0.024-2.46,0.18-2.46,1.308c0,0.696,0.456,1.008,0.984,1.008c0.768,0,1.26-0.48,1.428-0.972
				c0.036-0.108,0.048-0.228,0.048-0.336V153.168z"/>
			<path d="M166.209,151.896c0-0.612-0.012-1.092-0.048-1.572h0.936l0.06,0.948h0.024c0.288-0.54,0.96-1.08,1.92-1.08
				c0.804,0,2.052,0.48,2.052,2.472v3.468h-1.056v-3.348c0-0.936-0.348-1.728-1.344-1.728c-0.684,0-1.224,0.492-1.416,1.08
				c-0.048,0.132-0.072,0.324-0.072,0.492v3.504h-1.056V151.896z"/>
			<path d="M177.885,147.612v7.02c0,0.516,0.012,1.104,0.048,1.5h-0.948l-0.048-1.008h-0.024c-0.324,0.648-1.02,1.14-1.968,1.14
				c-1.404,0-2.496-1.188-2.496-2.952c-0.012-1.944,1.2-3.12,2.604-3.12c0.9,0,1.5,0.42,1.752,0.876h0.024v-3.456H177.885z
				 M176.829,152.688c0-0.144-0.012-0.312-0.048-0.456c-0.156-0.66-0.732-1.212-1.524-1.212c-1.092,0-1.74,0.96-1.74,2.232
				c0,1.188,0.588,2.16,1.716,2.16c0.708,0,1.356-0.48,1.548-1.26c0.036-0.144,0.048-0.288,0.048-0.456V152.688z"/>
			<path fill="#FF0000" d="M182.193,152.136c0-0.684-0.012-1.272-0.048-1.812h0.924l0.048,1.14h0.036
				c0.264-0.78,0.912-1.272,1.62-1.272c0.108,0,0.192,0.012,0.288,0.036v0.984c-0.12-0.012-0.228-0.024-0.372-0.024
				c-0.744,0-1.272,0.564-1.416,1.344c-0.024,0.156-0.036,0.324-0.036,0.504v3.096h-1.056L182.193,152.136z"/>
			<path fill="#FF0000" d="M190.125,154.74c0,0.504,0.024,0.996,0.084,1.392h-0.948l-0.096-0.732h-0.036
				c-0.312,0.456-0.948,0.864-1.776,0.864c-1.176,0-1.776-0.828-1.776-1.668c0-1.404,1.248-2.172,3.492-2.16v-0.12
				c0-0.48-0.132-1.356-1.32-1.344c-0.552,0-1.116,0.156-1.524,0.432l-0.24-0.708c0.48-0.3,1.188-0.504,1.92-0.504
				c1.788,0,2.22,1.212,2.22,2.376V154.74z M189.093,153.168c-1.152-0.024-2.46,0.18-2.46,1.308c0,0.696,0.456,1.008,0.984,1.008
				c0.768,0,1.26-0.48,1.428-0.972c0.036-0.108,0.048-0.228,0.048-0.336V153.168z"/>
			<path fill="#FF0000" d="M192.321,149.256c-0.396,0-0.66-0.312-0.66-0.684s0.276-0.672,0.684-0.672c0.408,0,0.672,0.3,0.672,0.672
				s-0.264,0.684-0.684,0.684H192.321z M191.817,156.132v-5.808h1.056v5.808H191.817z"/>
			<path fill="#FF0000" d="M194.481,155.064c0.324,0.192,0.876,0.408,1.404,0.408c0.756,0,1.116-0.372,1.116-0.864
				c0-0.504-0.3-0.78-1.068-1.068c-1.056-0.384-1.548-0.948-1.548-1.644c0-0.936,0.768-1.704,2.004-1.704
				c0.588,0,1.104,0.156,1.416,0.36l-0.252,0.756c-0.228-0.132-0.648-0.336-1.188-0.336c-0.624,0-0.96,0.36-0.96,0.792
				c0,0.492,0.336,0.708,1.092,0.996c0.996,0.372,1.524,0.876,1.524,1.752c0,1.032-0.804,1.752-2.16,1.752
				c-0.636,0-1.224-0.168-1.632-0.408L194.481,155.064z"/>
			<path fill="#FF0000" d="M199.977,153.408c0.024,1.428,0.924,2.016,1.98,2.016c0.756,0,1.224-0.132,1.608-0.288l0.192,0.744
				c-0.372,0.168-1.02,0.372-1.944,0.372c-1.776,0-2.856-1.188-2.856-2.928c0-1.764,1.044-3.144,2.736-3.144
				c1.896,0,2.388,1.668,2.388,2.736c0,0.216-0.012,0.384-0.036,0.504L199.977,153.408z M203.061,152.652
				c0.012-0.66-0.276-1.716-1.452-1.716c-1.08,0-1.536,0.984-1.62,1.716H203.061z"/>
			<path fill="#FF0000" d="M209.205,148.932v1.392h1.512v0.804h-1.512v3.132c0,0.72,0.204,1.128,0.792,1.128
				c0.288,0,0.456-0.024,0.612-0.072l0.048,0.804c-0.204,0.072-0.528,0.144-0.936,0.144c-0.492,0-0.888-0.168-1.14-0.444
				c-0.288-0.324-0.408-0.84-0.408-1.524v-3.168h-0.9v-0.804h0.9v-1.068L209.205,148.932z"/>
			<path fill="#FF0000" d="M211.904,147.612h1.056v3.624h0.024c0.168-0.3,0.432-0.576,0.756-0.744c0.312-0.192,0.684-0.3,1.08-0.3
				c0.78,0,2.028,0.48,2.028,2.484v3.456h-1.056v-3.336c0-0.948-0.348-1.728-1.344-1.728c-0.684,0-1.212,0.48-1.416,1.056
				c-0.06,0.144-0.072,0.3-0.072,0.504v3.504h-1.056V147.612z"/>
			<path fill="#FF0000" d="M219.165,153.408c0.024,1.428,0.924,2.016,1.98,2.016c0.756,0,1.224-0.132,1.608-0.288l0.192,0.744
				c-0.372,0.168-1.02,0.372-1.944,0.372c-1.776,0-2.856-1.188-2.856-2.928c0-1.764,1.044-3.144,2.736-3.144
				c1.896,0,2.388,1.668,2.388,2.736c0,0.216-0.012,0.384-0.036,0.504L219.165,153.408z M222.249,152.652
				c0.012-0.66-0.276-1.716-1.452-1.716c-1.08,0-1.536,0.984-1.62,1.716H222.249z"/>
			<path fill="#FF0000" d="M227.216,156.132v-5.004h-0.804v-0.804h0.804v-0.276c0-0.816,0.192-1.56,0.684-2.028
				c0.396-0.384,0.924-0.54,1.404-0.54c0.384,0,0.696,0.084,0.9,0.168l-0.132,0.816c-0.168-0.072-0.372-0.132-0.684-0.132
				c-0.888,0-1.128,0.792-1.128,1.68v0.312h1.404v0.804h-1.392v5.004H227.216z"/>
			<path fill="#FF0000" d="M232.844,156.264c-1.56,0-2.784-1.152-2.784-2.988c0-1.944,1.284-3.084,2.88-3.084
				c1.668,0,2.796,1.212,2.796,2.976c0,2.16-1.5,3.096-2.88,3.096H232.844z M232.88,155.472c1.008,0,1.764-0.948,1.764-2.268
				c0-0.984-0.492-2.22-1.74-2.22c-1.236,0-1.776,1.152-1.776,2.256c0,1.272,0.72,2.232,1.74,2.232H232.88z"/>
			<path fill="#FF0000" d="M241.928,154.548c0,0.6,0.012,1.128,0.048,1.584h-0.936l-0.06-0.948h-0.024
				c-0.264,0.468-0.888,1.08-1.92,1.08c-0.912,0-2.004-0.516-2.004-2.544v-3.396h1.056v3.204c0,1.104,0.348,1.86,1.296,1.86
				c0.708,0,1.2-0.492,1.392-0.972c0.06-0.144,0.096-0.336,0.096-0.54v-3.552h1.056V154.548z"/>
			<path fill="#FF0000" d="M243.692,152.136c0-0.684-0.012-1.272-0.048-1.812h0.924l0.048,1.14h0.036
				c0.264-0.78,0.912-1.272,1.62-1.272c0.108,0,0.192,0.012,0.288,0.036v0.984c-0.12-0.012-0.228-0.024-0.372-0.024
				c-0.744,0-1.272,0.564-1.416,1.344c-0.024,0.156-0.036,0.324-0.036,0.504v3.096h-1.056L243.692,152.136z"/>
			<path fill="#FF0000" d="M249.164,148.932v1.392h1.512v0.804h-1.512v3.132c0,0.72,0.204,1.128,0.792,1.128
				c0.288,0,0.456-0.024,0.612-0.072l0.048,0.804c-0.204,0.072-0.528,0.144-0.936,0.144c-0.492,0-0.888-0.168-1.14-0.444
				c-0.288-0.324-0.408-0.84-0.408-1.524v-3.168h-0.9v-0.804h0.9v-1.068L249.164,148.932z"/>
			<path fill="#FF0000" d="M251.864,147.612h1.056v3.624h0.024c0.168-0.3,0.432-0.576,0.756-0.744c0.312-0.192,0.684-0.3,1.08-0.3
				c0.78,0,2.028,0.48,2.028,2.484v3.456h-1.056v-3.336c0-0.948-0.348-1.728-1.344-1.728c-0.684,0-1.212,0.48-1.416,1.056
				c-0.06,0.144-0.072,0.3-0.072,0.504v3.504h-1.056V147.612z"/>
			<path fill="#FF0000" d="M262.339,148.932v1.392h1.512v0.804h-1.512v3.132c0,0.72,0.204,1.128,0.792,1.128
				c0.288,0,0.456-0.024,0.612-0.072l0.048,0.804c-0.204,0.072-0.528,0.144-0.936,0.144c-0.492,0-0.888-0.168-1.14-0.444
				c-0.288-0.324-0.408-0.84-0.408-1.524v-3.168h-0.9v-0.804h0.9v-1.068L262.339,148.932z"/>
			<path fill="#FF0000" d="M267.332,156.264c-1.56,0-2.784-1.152-2.784-2.988c0-1.944,1.284-3.084,2.88-3.084
				c1.668,0,2.796,1.212,2.796,2.976c0,2.16-1.5,3.096-2.88,3.096H267.332z M267.368,155.472c1.008,0,1.764-0.948,1.764-2.268
				c0-0.984-0.492-2.22-1.74-2.22c-1.236,0-1.776,1.152-1.776,2.256c0,1.272,0.72,2.232,1.74,2.232H267.368z"/>
			<path fill="#FF0000" d="M271.555,151.896c0-0.612-0.012-1.092-0.048-1.572h0.936l0.06,0.948h0.024
				c0.288-0.54,0.96-1.08,1.92-1.08c0.804,0,2.052,0.48,2.052,2.472v3.468h-1.056v-3.348c0-0.936-0.348-1.728-1.344-1.728
				c-0.684,0-1.224,0.492-1.416,1.08c-0.048,0.132-0.072,0.324-0.072,0.492v3.504h-1.056V151.896z"/>
			<path fill="#FF0000" d="M278.815,153.408c0.024,1.428,0.924,2.016,1.98,2.016c0.756,0,1.224-0.132,1.608-0.288l0.192,0.744
				c-0.372,0.168-1.02,0.372-1.944,0.372c-1.776,0-2.856-1.188-2.856-2.928c0-1.764,1.044-3.144,2.736-3.144
				c1.896,0,2.388,1.668,2.388,2.736c0,0.216-0.012,0.384-0.036,0.504L278.815,153.408z M281.899,152.652
				c0.012-0.66-0.276-1.716-1.452-1.716c-1.08,0-1.536,0.984-1.62,1.716H281.899z"/>
			<path fill="#FF0000" d="M290.863,154.74c0,0.504,0.024,0.996,0.083,1.392h-0.948l-0.096-0.732h-0.036
				c-0.312,0.456-0.948,0.864-1.776,0.864c-1.176,0-1.776-0.828-1.776-1.668c0-1.404,1.248-2.172,3.492-2.16v-0.12
				c0-0.48-0.132-1.356-1.32-1.344c-0.552,0-1.116,0.156-1.524,0.432l-0.24-0.708c0.48-0.3,1.188-0.504,1.92-0.504
				c1.788,0,2.22,1.212,2.22,2.376V154.74z M289.831,153.168c-1.152-0.024-2.46,0.18-2.46,1.308c0,0.696,0.456,1.008,0.984,1.008
				c0.768,0,1.26-0.48,1.428-0.972c0.036-0.108,0.048-0.228,0.048-0.336V153.168z"/>
			<path fill="#FF0000" d="M295.099,147.612h1.056v3.624h0.024c0.168-0.3,0.432-0.576,0.756-0.744c0.312-0.192,0.684-0.3,1.08-0.3
				c0.78,0,2.028,0.48,2.028,2.484v3.456h-1.057v-3.336c0-0.948-0.348-1.728-1.344-1.728c-0.685,0-1.212,0.48-1.416,1.056
				c-0.061,0.144-0.072,0.3-0.072,0.504v3.504h-1.056V147.612z"/>
			<path fill="#FF0000" d="M305.851,154.74c0,0.504,0.023,0.996,0.084,1.392h-0.948l-0.096-0.732h-0.036
				c-0.313,0.456-0.948,0.864-1.776,0.864c-1.176,0-1.775-0.828-1.775-1.668c0-1.404,1.248-2.172,3.491-2.16v-0.12
				c0-0.48-0.132-1.356-1.319-1.344c-0.552,0-1.116,0.156-1.524,0.432l-0.24-0.708c0.48-0.3,1.188-0.504,1.921-0.504
				c1.787,0,2.22,1.212,2.22,2.376V154.74z M304.819,153.168c-1.152-0.024-2.46,0.18-2.46,1.308c0,0.696,0.456,1.008,0.984,1.008
				c0.768,0,1.26-0.48,1.428-0.972c0.036-0.108,0.048-0.228,0.048-0.336V153.168z"/>
			<path fill="#FF0000" d="M307.542,147.612h1.057v8.52h-1.057V147.612z"/>
			<path fill="#FF0000" d="M310.447,156.132v-5.004h-0.804v-0.804h0.804v-0.276c0-0.816,0.192-1.56,0.684-2.028
				c0.396-0.384,0.925-0.54,1.404-0.54c0.384,0,0.696,0.084,0.9,0.168l-0.133,0.816c-0.168-0.072-0.371-0.132-0.684-0.132
				c-0.888,0-1.128,0.792-1.128,1.68v0.312h1.404v0.804h-1.393v5.004H310.447z"/>
			<path fill="#FF0000" d="M316.254,155.064c0.324,0.192,0.876,0.408,1.404,0.408c0.756,0,1.116-0.372,1.116-0.864
				c0-0.504-0.301-0.78-1.068-1.068c-1.056-0.384-1.548-0.948-1.548-1.644c0-0.936,0.768-1.704,2.004-1.704
				c0.588,0,1.104,0.156,1.416,0.36l-0.252,0.756c-0.229-0.132-0.648-0.336-1.188-0.336c-0.624,0-0.96,0.36-0.96,0.792
				c0,0.492,0.336,0.708,1.093,0.996c0.995,0.372,1.523,0.876,1.523,1.752c0,1.032-0.804,1.752-2.16,1.752
				c-0.636,0-1.224-0.168-1.632-0.408L316.254,155.064z"/>
			<path fill="#FF0000" d="M322.422,148.932v1.392h1.512v0.804h-1.512v3.132c0,0.72,0.204,1.128,0.792,1.128
				c0.288,0,0.456-0.024,0.612-0.072l0.048,0.804c-0.204,0.072-0.528,0.144-0.936,0.144c-0.492,0-0.889-0.168-1.141-0.444
				c-0.288-0.324-0.408-0.84-0.408-1.524v-3.168h-0.899v-0.804h0.899v-1.068L322.422,148.932z"/>
			<path fill="#FF0000" d="M325.651,153.408c0.023,1.428,0.924,2.016,1.979,2.016c0.756,0,1.224-0.132,1.608-0.288l0.191,0.744
				c-0.372,0.168-1.02,0.372-1.943,0.372c-1.776,0-2.856-1.188-2.856-2.928c0-1.764,1.044-3.144,2.736-3.144
				c1.896,0,2.388,1.668,2.388,2.736c0,0.216-0.012,0.384-0.036,0.504L325.651,153.408z M328.735,152.652
				c0.012-0.66-0.276-1.716-1.452-1.716c-1.08,0-1.536,0.984-1.62,1.716H328.735z"/>
			<path fill="#FF0000" d="M331.062,152.22c0-0.744-0.012-1.344-0.048-1.896h0.948l0.06,0.996h0.024
				c0.42-0.72,1.116-1.128,2.052-1.128c1.416,0,2.473,1.188,2.473,2.952c0,2.088-1.284,3.12-2.641,3.12
				c-0.78,0-1.439-0.336-1.788-0.912h-0.023v3.156h-1.057V152.22z M332.119,153.768c0,0.144,0.012,0.3,0.048,0.432
				c0.18,0.732,0.828,1.236,1.572,1.236c1.115,0,1.764-0.912,1.764-2.244c0-1.164-0.601-2.16-1.716-2.16
				c-0.721,0-1.404,0.504-1.608,1.296c-0.023,0.144-0.06,0.3-0.06,0.432V153.768z"/>
			<path d="M3.048,162.304c-0.876,1.188-1.5,2.736-1.5,4.92c0,2.136,0.66,3.66,1.5,4.86H2.232c-0.756-0.996-1.572-2.532-1.572-4.872
				c0.012-2.352,0.816-3.9,1.572-4.908H3.048z"/>
			<path d="M4.188,166.636c0-0.684-0.012-1.272-0.048-1.812h0.924l0.048,1.14h0.036c0.264-0.78,0.912-1.272,1.62-1.272
				c0.108,0,0.192,0.012,0.288,0.036v0.984c-0.12-0.012-0.228-0.024-0.372-0.024c-0.744,0-1.272,0.564-1.416,1.344
				c-0.024,0.156-0.036,0.324-0.036,0.504v3.096H4.176L4.188,166.636z"/>
			<path d="M12.12,169.24c0,0.504,0.024,0.996,0.084,1.392h-0.948L11.16,169.9h-0.036c-0.312,0.456-0.948,0.864-1.776,0.864
				c-1.176,0-1.776-0.828-1.776-1.668c0-1.404,1.248-2.172,3.492-2.16v-0.12c0-0.48-0.132-1.356-1.32-1.344
				c-0.552,0-1.116,0.156-1.524,0.432l-0.24-0.708c0.48-0.3,1.188-0.504,1.92-0.504c1.788,0,2.22,1.212,2.22,2.376V169.24z
				 M11.088,167.668c-1.152-0.024-2.46,0.18-2.46,1.308c0,0.696,0.456,1.008,0.984,1.008c0.768,0,1.26-0.48,1.428-0.972
				c0.036-0.108,0.048-0.228,0.048-0.336V167.668z"/>
			<path d="M14.316,163.756c-0.396,0-0.66-0.312-0.66-0.684s0.276-0.672,0.684-0.672c0.408,0,0.672,0.3,0.672,0.672
				s-0.264,0.684-0.684,0.684H14.316z M13.812,170.632v-5.808h1.056v5.808H13.812z"/>
			<path d="M16.476,169.564c0.324,0.192,0.876,0.408,1.404,0.408c0.756,0,1.116-0.372,1.116-0.864c0-0.504-0.3-0.78-1.068-1.068
				c-1.056-0.384-1.548-0.948-1.548-1.644c0-0.936,0.768-1.704,2.004-1.704c0.588,0,1.104,0.156,1.416,0.36l-0.252,0.756
				c-0.228-0.132-0.648-0.336-1.188-0.336c-0.624,0-0.96,0.36-0.96,0.792c0,0.492,0.336,0.708,1.092,0.996
				c0.996,0.372,1.524,0.876,1.524,1.752c0,1.032-0.804,1.752-2.16,1.752c-0.636,0-1.224-0.168-1.632-0.408L16.476,169.564z"/>
			<path d="M21.972,167.908c0.024,1.428,0.924,2.016,1.98,2.016c0.756,0,1.224-0.132,1.608-0.288l0.192,0.744
				c-0.372,0.168-1.02,0.372-1.944,0.372c-1.776,0-2.856-1.188-2.856-2.928c0-1.764,1.044-3.144,2.736-3.144
				c1.896,0,2.388,1.668,2.388,2.736c0,0.216-0.012,0.384-0.036,0.504L21.972,167.908z M25.056,167.152
				c0.012-0.66-0.276-1.716-1.452-1.716c-1.08,0-1.536,0.984-1.62,1.716H25.056z"/>
			<path d="M36.132,170.272c-0.468,0.18-1.404,0.444-2.496,0.444c-1.224,0-2.232-0.312-3.024-1.068
				c-0.696-0.672-1.128-1.752-1.128-3.012c0-2.412,1.668-4.176,4.38-4.176c0.936,0,1.68,0.204,2.028,0.372l-0.264,0.852
				c-0.432-0.204-0.972-0.348-1.788-0.348c-1.968,0-3.252,1.224-3.252,3.252c0,2.052,1.224,3.264,3.12,3.264
				c0.684,0,1.152-0.096,1.392-0.216v-2.412h-1.632v-0.84h2.664V170.272z"/>
			<path d="M40.224,166.396c0-0.612-0.012-1.092-0.048-1.572h0.936l0.06,0.948h0.024c0.288-0.54,0.96-1.08,1.92-1.08
				c0.804,0,2.052,0.48,2.052,2.472v3.468h-1.056v-3.348c0-0.936-0.348-1.728-1.344-1.728c-0.684,0-1.224,0.492-1.416,1.08
				c-0.048,0.132-0.072,0.324-0.072,0.492v3.504h-1.056V166.396z"/>
			<path d="M50.976,169.24c0,0.504,0.024,0.996,0.084,1.392h-0.948l-0.096-0.732h-0.036c-0.312,0.456-0.948,0.864-1.776,0.864
				c-1.176,0-1.776-0.828-1.776-1.668c0-1.404,1.248-2.172,3.492-2.16v-0.12c0-0.48-0.132-1.356-1.32-1.344
				c-0.552,0-1.116,0.156-1.524,0.432l-0.24-0.708c0.48-0.3,1.188-0.504,1.92-0.504c1.788,0,2.22,1.212,2.22,2.376V169.24z
				 M49.943,167.668c-1.152-0.024-2.46,0.18-2.46,1.308c0,0.696,0.456,1.008,0.984,1.008c0.768,0,1.26-0.48,1.428-0.972
				c0.036-0.108,0.048-0.228,0.048-0.336V167.668z"/>
			<path d="M53.891,163.432v1.392h1.512v0.804h-1.512v3.132c0,0.72,0.204,1.128,0.792,1.128c0.288,0,0.456-0.024,0.612-0.072
				l0.048,0.804c-0.204,0.072-0.528,0.144-0.936,0.144c-0.492,0-0.888-0.168-1.14-0.444c-0.288-0.324-0.408-0.84-0.408-1.524v-3.168
				h-0.9v-0.804h0.9v-1.068L53.891,163.432z"/>
			<path d="M61.451,169.048c0,0.6,0.012,1.128,0.048,1.584h-0.936l-0.06-0.948h-0.024c-0.264,0.468-0.888,1.08-1.92,1.08
				c-0.912,0-2.004-0.516-2.004-2.544v-3.396h1.056v3.204c0,1.104,0.348,1.86,1.296,1.86c0.708,0,1.2-0.492,1.392-0.972
				c0.06-0.144,0.096-0.336,0.096-0.54v-3.552h1.056V169.048z"/>
			<path d="M63.215,166.636c0-0.684-0.012-1.272-0.048-1.812h0.924l0.048,1.14h0.036c0.264-0.78,0.912-1.272,1.62-1.272
				c0.108,0,0.192,0.012,0.288,0.036v0.984c-0.12-0.012-0.228-0.024-0.372-0.024c-0.744,0-1.272,0.564-1.416,1.344
				c-0.024,0.156-0.036,0.324-0.036,0.504v3.096h-1.056L63.215,166.636z"/>
			<path d="M71.147,169.24c0,0.504,0.024,0.996,0.084,1.392h-0.948l-0.096-0.732h-0.036c-0.312,0.456-0.948,0.864-1.776,0.864
				c-1.176,0-1.776-0.828-1.776-1.668c0-1.404,1.248-2.172,3.492-2.16v-0.12c0-0.48-0.132-1.356-1.32-1.344
				c-0.552,0-1.116,0.156-1.524,0.432l-0.24-0.708c0.48-0.3,1.188-0.504,1.92-0.504c1.788,0,2.22,1.212,2.22,2.376V169.24z
				 M70.115,167.668c-1.152-0.024-2.46,0.18-2.46,1.308c0,0.696,0.456,1.008,0.984,1.008c0.768,0,1.26-0.48,1.428-0.972
				c0.036-0.108,0.048-0.228,0.048-0.336V167.668z"/>
			<path d="M72.839,162.112h1.056v8.52h-1.056V162.112z"/>
			<path d="M79.463,163.432v1.392h1.512v0.804h-1.512v3.132c0,0.72,0.204,1.128,0.792,1.128c0.288,0,0.456-0.024,0.612-0.072
				l0.048,0.804c-0.204,0.072-0.528,0.144-0.936,0.144c-0.492,0-0.888-0.168-1.14-0.444c-0.288-0.324-0.408-0.84-0.408-1.524v-3.168
				h-0.9v-0.804h0.9v-1.068L79.463,163.432z"/>
			<path d="M84.455,170.764c-1.56,0-2.784-1.152-2.784-2.988c0-1.944,1.284-3.084,2.88-3.084c1.668,0,2.796,1.212,2.796,2.976
				c0,2.16-1.5,3.096-2.88,3.096H84.455z M84.491,169.972c1.008,0,1.764-0.948,1.764-2.268c0-0.984-0.492-2.22-1.74-2.22
				c-1.236,0-1.776,1.152-1.776,2.256c0,1.272,0.72,2.232,1.74,2.232H84.491z"/>
			<path d="M97.427,170.272c-0.468,0.18-1.404,0.444-2.496,0.444c-1.224,0-2.232-0.312-3.024-1.068
				c-0.696-0.672-1.128-1.752-1.128-3.012c0-2.412,1.668-4.176,4.38-4.176c0.936,0,1.68,0.204,2.028,0.372l-0.264,0.852
				c-0.432-0.204-0.972-0.348-1.788-0.348c-1.968,0-3.252,1.224-3.252,3.252c0,2.052,1.224,3.264,3.12,3.264
				c0.684,0,1.152-0.096,1.392-0.216v-2.412h-1.632v-0.84h2.664V170.272z"/>
			<path d="M101.375,169.564c0.324,0.192,0.876,0.408,1.404,0.408c0.756,0,1.116-0.372,1.116-0.864c0-0.504-0.3-0.78-1.068-1.068
				c-1.056-0.384-1.548-0.948-1.548-1.644c0-0.936,0.768-1.704,2.004-1.704c0.588,0,1.104,0.156,1.416,0.36l-0.252,0.756
				c-0.228-0.132-0.648-0.336-1.188-0.336c-0.624,0-0.96,0.36-0.96,0.792c0,0.492,0.336,0.708,1.092,0.996
				c0.996,0.372,1.524,0.876,1.524,1.752c0,1.032-0.804,1.752-2.16,1.752c-0.636,0-1.224-0.168-1.632-0.408L101.375,169.564z"/>
			<path d="M106.271,162.112h1.056v3.624h0.024c0.168-0.3,0.432-0.576,0.756-0.744c0.312-0.192,0.684-0.3,1.08-0.3
				c0.78,0,2.028,0.48,2.028,2.484v3.456h-1.056v-3.336c0-0.948-0.348-1.728-1.344-1.728c-0.684,0-1.212,0.48-1.416,1.056
				c-0.06,0.144-0.072,0.3-0.072,0.504v3.504h-1.056V162.112z"/>
			<path d="M117.022,169.24c0,0.504,0.024,0.996,0.084,1.392h-0.948l-0.096-0.732h-0.036c-0.312,0.456-0.948,0.864-1.776,0.864
				c-1.176,0-1.776-0.828-1.776-1.668c0-1.404,1.248-2.172,3.492-2.16v-0.12c0-0.48-0.132-1.356-1.32-1.344
				c-0.552,0-1.116,0.156-1.524,0.432l-0.24-0.708c0.48-0.3,1.188-0.504,1.92-0.504c1.788,0,2.22,1.212,2.22,2.376V169.24z
				 M115.99,167.668c-1.152-0.024-2.46,0.18-2.46,1.308c0,0.696,0.456,1.008,0.984,1.008c0.768,0,1.26-0.48,1.428-0.972
				c0.036-0.108,0.048-0.228,0.048-0.336V167.668z"/>
			<path d="M118.727,166.636c0-0.684-0.012-1.272-0.048-1.812h0.924l0.048,1.14h0.036c0.264-0.78,0.912-1.272,1.62-1.272
				c0.108,0,0.192,0.012,0.288,0.036v0.984c-0.12-0.012-0.228-0.024-0.372-0.024c-0.744,0-1.272,0.564-1.416,1.344
				c-0.024,0.156-0.036,0.324-0.036,0.504v3.096h-1.056L118.727,166.636z"/>
			<path d="M122.687,166.72c0-0.744-0.012-1.344-0.048-1.896h0.948l0.06,0.996h0.024c0.42-0.72,1.116-1.128,2.052-1.128
				c1.416,0,2.472,1.188,2.472,2.952c0,2.088-1.284,3.12-2.64,3.12c-0.78,0-1.44-0.336-1.788-0.912h-0.024v3.156h-1.056V166.72z
				 M123.742,168.268c0,0.144,0.012,0.3,0.048,0.432c0.18,0.732,0.828,1.236,1.572,1.236c1.116,0,1.764-0.912,1.764-2.244
				c0-1.164-0.6-2.16-1.716-2.16c-0.72,0-1.404,0.504-1.608,1.296c-0.024,0.144-0.06,0.3-0.06,0.432V168.268z"/>
			<path d="M128.878,172.084c0.84-1.188,1.5-2.736,1.5-4.896c0-2.16-0.648-3.684-1.5-4.884h0.816
				c0.756,0.984,1.572,2.532,1.572,4.884c-0.012,2.352-0.816,3.876-1.572,4.896H128.878z"/>
			<path d="M132.238,172.12c0.264-0.72,0.588-2.004,0.72-2.88l1.176-0.12c-0.288,1.02-0.816,2.352-1.152,2.916L132.238,172.12z"/>
			<path d="M1.152,179.324l1.26,3.432c0.144,0.384,0.288,0.84,0.384,1.188H2.82c0.108-0.348,0.228-0.792,0.372-1.212l1.152-3.408
				H5.46l-1.584,4.14c-0.756,1.992-1.272,3.012-1.992,3.648c-0.528,0.444-1.032,0.624-1.296,0.672l-0.264-0.888
				c0.264-0.072,0.612-0.24,0.924-0.516c0.288-0.228,0.636-0.636,0.888-1.176c0.048-0.108,0.084-0.18,0.084-0.252
				c0-0.06-0.024-0.144-0.084-0.264L0,179.324H1.152z"/>
			<path d="M8.664,185.264c-1.56,0-2.784-1.152-2.784-2.988c0-1.944,1.284-3.084,2.88-3.084c1.668,0,2.796,1.212,2.796,2.976
				c0,2.16-1.5,3.096-2.88,3.096H8.664z M8.7,184.472c1.008,0,1.764-0.948,1.764-2.268c0-0.984-0.492-2.22-1.74-2.22
				c-1.236,0-1.776,1.152-1.776,2.256c0,1.272,0.72,2.232,1.74,2.232H8.7z"/>
			<path d="M17.748,183.548c0,0.6,0.012,1.128,0.048,1.584H16.86l-0.06-0.948h-0.024c-0.264,0.468-0.888,1.08-1.92,1.08
				c-0.912,0-2.004-0.516-2.004-2.544v-3.396h1.056v3.204c0,1.104,0.348,1.86,1.296,1.86c0.708,0,1.2-0.492,1.392-0.972
				c0.06-0.144,0.096-0.336,0.096-0.54v-3.552h1.056V183.548z"/>
			<path d="M27.012,184.28c0,1.344-0.276,2.148-0.828,2.664c-0.576,0.516-1.392,0.696-2.124,0.696c-0.696,0-1.464-0.168-1.932-0.48
				l0.264-0.816c0.384,0.252,0.984,0.468,1.704,0.468c1.08,0,1.872-0.564,1.872-2.04v-0.636h-0.024
				c-0.312,0.54-0.948,0.972-1.848,0.972c-1.44,0-2.472-1.224-2.472-2.844c0-1.968,1.284-3.072,2.628-3.072
				c1.008,0,1.548,0.516,1.812,0.996h0.024l0.036-0.864h0.936c-0.036,0.408-0.048,0.876-0.048,1.584V184.28z M25.956,181.604
				c0-0.168-0.012-0.324-0.06-0.468c-0.192-0.624-0.696-1.128-1.476-1.128c-1.008,0-1.728,0.852-1.728,2.208
				c0,1.128,0.588,2.088,1.716,2.088c0.66,0,1.248-0.408,1.464-1.092c0.06-0.168,0.084-0.372,0.084-0.564V181.604z"/>
			<path d="M29.352,182.408c0.024,1.428,0.924,2.016,1.98,2.016c0.756,0,1.224-0.132,1.608-0.288l0.192,0.744
				c-0.372,0.168-1.02,0.372-1.944,0.372c-1.776,0-2.856-1.188-2.856-2.928c0-1.764,1.044-3.144,2.736-3.144
				c1.896,0,2.388,1.668,2.388,2.736c0,0.216-0.012,0.384-0.036,0.504L29.352,182.408z M32.436,181.652
				c0.012-0.66-0.276-1.716-1.452-1.716c-1.08,0-1.536,0.984-1.62,1.716H32.436z"/>
			<path d="M36.036,177.932v1.392h1.512v0.804h-1.512v3.132c0,0.72,0.204,1.128,0.792,1.128c0.288,0,0.456-0.024,0.612-0.072
				l0.048,0.804c-0.204,0.072-0.528,0.144-0.936,0.144c-0.492,0-0.888-0.168-1.14-0.444c-0.288-0.324-0.408-0.84-0.408-1.524v-3.168
				h-0.9v-0.804h0.9v-1.068L36.036,177.932z"/>
			<path d="M41.303,177.152c0.648-0.096,1.404-0.168,2.232-0.168c1.5,0,2.568,0.336,3.276,0.996c0.732,0.66,1.152,1.608,1.152,2.916
				c0,1.32-0.42,2.4-1.164,3.144c-0.768,0.756-2.016,1.164-3.588,1.164c-0.756,0-1.368-0.024-1.908-0.096V177.152z M42.359,184.316
				c0.264,0.048,0.648,0.048,1.056,0.048c2.232,0.012,3.444-1.248,3.444-3.432c0.012-1.932-1.068-3.12-3.276-3.12
				c-0.54,0-0.948,0.048-1.224,0.108V184.316z"/>
			<path d="M51.839,177.044h1.056v7.212h3.456v0.876h-4.512V177.044z"/>
			<path d="M57.539,179.324l1.26,3.432c0.144,0.384,0.288,0.84,0.384,1.188h0.024c0.108-0.348,0.228-0.792,0.372-1.212l1.152-3.408
				h1.116l-1.584,4.14c-0.756,1.992-1.272,3.012-1.992,3.648c-0.528,0.444-1.032,0.624-1.296,0.672l-0.264-0.888
				c0.264-0.072,0.612-0.24,0.924-0.516c0.288-0.228,0.636-0.636,0.888-1.176c0.048-0.108,0.084-0.18,0.084-0.252
				c0-0.06-0.024-0.144-0.084-0.264l-2.136-5.364H57.539z"/>
			<path d="M67.703,176.612v7.02c0,0.516,0.012,1.104,0.048,1.5h-0.948l-0.048-1.008h-0.024c-0.324,0.648-1.02,1.14-1.968,1.14
				c-1.404,0-2.496-1.188-2.496-2.952c-0.012-1.944,1.2-3.12,2.604-3.12c0.9,0,1.5,0.42,1.752,0.876h0.024v-3.456H67.703z
				 M66.647,181.688c0-0.144-0.012-0.312-0.048-0.456c-0.156-0.66-0.732-1.212-1.524-1.212c-1.092,0-1.74,0.96-1.74,2.232
				c0,1.188,0.588,2.16,1.716,2.16c0.708,0,1.356-0.48,1.548-1.26c0.036-0.144,0.048-0.288,0.048-0.456V181.688z"/>
			<path d="M69.959,178.256c-0.396,0-0.66-0.312-0.66-0.684s0.276-0.672,0.684-0.672c0.408,0,0.672,0.3,0.672,0.672
				s-0.264,0.684-0.684,0.684H69.959z M69.455,185.132v-5.808h1.056v5.808H69.455z"/>
			<path d="M76.355,183.74c0,0.504,0.024,0.996,0.084,1.392h-0.948l-0.096-0.732h-0.036c-0.312,0.456-0.948,0.864-1.776,0.864
				c-1.176,0-1.776-0.828-1.776-1.668c0-1.404,1.248-2.172,3.492-2.16v-0.12c0-0.48-0.132-1.356-1.32-1.344
				c-0.552,0-1.116,0.156-1.524,0.432l-0.24-0.708c0.48-0.3,1.188-0.504,1.92-0.504c1.788,0,2.22,1.212,2.22,2.376V183.74z
				 M75.323,182.168c-1.152-0.024-2.46,0.18-2.46,1.308c0,0.696,0.456,1.008,0.984,1.008c0.768,0,1.26-0.48,1.428-0.972
				c0.036-0.108,0.048-0.228,0.048-0.336V182.168z"/>
			<path d="M78.047,180.896c0-0.612-0.012-1.092-0.048-1.572h0.936l0.06,0.948h0.024c0.288-0.54,0.96-1.08,1.92-1.08
				c0.804,0,2.052,0.48,2.052,2.472v3.468h-1.056v-3.348c0-0.936-0.348-1.728-1.344-1.728c-0.684,0-1.224,0.492-1.416,1.08
				c-0.048,0.132-0.072,0.324-0.072,0.492v3.504h-1.056V180.896z"/>
			<path d="M84.023,186.62c0.264-0.72,0.588-2.004,0.72-2.88l1.176-0.12c-0.288,1.02-0.816,2.352-1.152,2.916L84.023,186.62z"/>
			<path d="M89.327,179.324l0.78,2.94c0.156,0.648,0.312,1.26,0.42,1.86h0.036c0.132-0.588,0.324-1.212,0.516-1.848l0.948-2.952
				h0.888l0.9,2.904c0.216,0.684,0.384,1.308,0.516,1.896h0.036c0.096-0.588,0.252-1.2,0.444-1.884l0.828-2.916h1.044l-1.872,5.808
				h-0.96l-0.888-2.772c-0.204-0.66-0.372-1.236-0.516-1.92h-0.024c-0.144,0.696-0.324,1.308-0.528,1.932l-0.936,2.76h-0.96
				l-1.752-5.808H89.327z"/>
			<path d="M97.739,176.612h1.056v3.624h0.024c0.168-0.3,0.432-0.576,0.756-0.744c0.312-0.192,0.684-0.3,1.08-0.3
				c0.78,0,2.028,0.48,2.028,2.484v3.456h-1.056v-3.336c0-0.948-0.348-1.728-1.344-1.728c-0.684,0-1.212,0.48-1.416,1.056
				c-0.06,0.144-0.072,0.3-0.072,0.504v3.504h-1.056V176.612z"/>
			<path d="M104.902,178.256c-0.396,0-0.66-0.312-0.66-0.684s0.276-0.672,0.684-0.672c0.408,0,0.672,0.3,0.672,0.672
				s-0.264,0.684-0.684,0.684H104.902z M104.398,185.132v-5.808h1.056v5.808H104.398z"/>
			<path d="M111.346,184.928c-0.276,0.132-0.888,0.336-1.668,0.336c-1.752,0-2.892-1.188-2.892-2.976
				c0-1.788,1.224-3.096,3.12-3.096c0.624,0,1.176,0.156,1.464,0.312l-0.24,0.804c-0.252-0.132-0.648-0.276-1.224-0.276
				c-1.332,0-2.052,0.996-2.052,2.208c0,1.344,0.864,2.172,2.016,2.172c0.6,0,0.996-0.144,1.296-0.276L111.346,184.928z"/>
			<path d="M112.583,176.612h1.056v3.624h0.024c0.168-0.3,0.432-0.576,0.756-0.744c0.312-0.192,0.684-0.3,1.08-0.3
				c0.78,0,2.028,0.48,2.028,2.484v3.456h-1.056v-3.336c0-0.948-0.348-1.728-1.344-1.728c-0.684,0-1.212,0.48-1.416,1.056
				c-0.06,0.144-0.072,0.3-0.072,0.504v3.504h-1.056V176.612z"/>
			<path d="M121.786,176.612h1.056v3.624h0.024c0.168-0.3,0.432-0.576,0.756-0.744c0.312-0.192,0.684-0.3,1.08-0.3
				c0.78,0,2.028,0.48,2.028,2.484v3.456h-1.056v-3.336c0-0.948-0.348-1.728-1.344-1.728c-0.684,0-1.212,0.48-1.416,1.056
				c-0.06,0.144-0.072,0.3-0.072,0.504v3.504h-1.056V176.612z"/>
			<path d="M132.538,183.74c0,0.504,0.024,0.996,0.084,1.392h-0.948l-0.096-0.732h-0.036c-0.312,0.456-0.948,0.864-1.776,0.864
				c-1.176,0-1.776-0.828-1.776-1.668c0-1.404,1.248-2.172,3.492-2.16v-0.12c0-0.48-0.132-1.356-1.32-1.344
				c-0.552,0-1.116,0.156-1.524,0.432l-0.24-0.708c0.48-0.3,1.188-0.504,1.92-0.504c1.788,0,2.22,1.212,2.22,2.376V183.74z
				 M131.506,182.168c-1.152-0.024-2.46,0.18-2.46,1.308c0,0.696,0.456,1.008,0.984,1.008c0.768,0,1.26-0.48,1.428-0.972
				c0.036-0.108,0.048-0.228,0.048-0.336V182.168z"/>
			<path d="M134.086,184.064c0.324,0.192,0.876,0.408,1.404,0.408c0.756,0,1.116-0.372,1.116-0.864c0-0.504-0.3-0.78-1.068-1.068
				c-1.056-0.384-1.548-0.948-1.548-1.644c0-0.936,0.768-1.704,2.004-1.704c0.588,0,1.104,0.156,1.416,0.36l-0.252,0.756
				c-0.228-0.132-0.648-0.336-1.188-0.336c-0.624,0-0.96,0.36-0.96,0.792c0,0.492,0.336,0.708,1.092,0.996
				c0.996,0.372,1.524,0.876,1.524,1.752c0,1.032-0.804,1.752-2.16,1.752c-0.636,0-1.224-0.168-1.632-0.408L134.086,184.064z"/>
			<path d="M142.798,177.932v1.392h1.512v0.804h-1.512v3.132c0,0.72,0.204,1.128,0.792,1.128c0.288,0,0.456-0.024,0.612-0.072
				l0.048,0.804c-0.204,0.072-0.528,0.144-0.936,0.144c-0.492,0-0.888-0.168-1.14-0.444c-0.288-0.324-0.408-0.84-0.408-1.524v-3.168
				h-0.9v-0.804h0.9v-1.068L142.798,177.932z"/>
			<path d="M145.498,176.612h1.056v3.624h0.024c0.168-0.3,0.432-0.576,0.756-0.744c0.312-0.192,0.684-0.3,1.08-0.3
				c0.78,0,2.028,0.48,2.028,2.484v3.456h-1.056v-3.336c0-0.948-0.348-1.728-1.344-1.728c-0.684,0-1.212,0.48-1.416,1.056
				c-0.06,0.144-0.072,0.3-0.072,0.504v3.504h-1.056V176.612z"/>
			<path d="M152.758,182.408c0.024,1.428,0.924,2.016,1.98,2.016c0.756,0,1.224-0.132,1.608-0.288l0.192,0.744
				c-0.372,0.168-1.02,0.372-1.944,0.372c-1.776,0-2.856-1.188-2.856-2.928c0-1.764,1.044-3.144,2.736-3.144
				c1.896,0,2.388,1.668,2.388,2.736c0,0.216-0.012,0.384-0.036,0.504L152.758,182.408z M155.842,181.652
				c0.012-0.66-0.276-1.716-1.452-1.716c-1.08,0-1.536,0.984-1.62,1.716H155.842z"/>
			<path d="M160.569,184.064c0.324,0.192,0.876,0.408,1.404,0.408c0.756,0,1.116-0.372,1.116-0.864c0-0.504-0.3-0.78-1.068-1.068
				c-1.056-0.384-1.548-0.948-1.548-1.644c0-0.936,0.768-1.704,2.004-1.704c0.588,0,1.104,0.156,1.416,0.36l-0.252,0.756
				c-0.228-0.132-0.648-0.336-1.188-0.336c-0.624,0-0.96,0.36-0.96,0.792c0,0.492,0.336,0.708,1.092,0.996
				c0.996,0.372,1.524,0.876,1.524,1.752c0,1.032-0.804,1.752-2.16,1.752c-0.636,0-1.224-0.168-1.632-0.408L160.569,184.064z"/>
			<path d="M169.558,183.74c0,0.504,0.024,0.996,0.084,1.392h-0.948l-0.096-0.732h-0.036c-0.312,0.456-0.948,0.864-1.776,0.864
				c-1.176,0-1.776-0.828-1.776-1.668c0-1.404,1.248-2.172,3.492-2.16v-0.12c0-0.48-0.132-1.356-1.32-1.344
				c-0.552,0-1.116,0.156-1.524,0.432l-0.24-0.708c0.48-0.3,1.188-0.504,1.92-0.504c1.788,0,2.22,1.212,2.22,2.376V183.74z
				 M168.525,182.168c-1.152-0.024-2.46,0.18-2.46,1.308c0,0.696,0.456,1.008,0.984,1.008c0.768,0,1.26-0.48,1.428-0.972
				c0.036-0.108,0.048-0.228,0.048-0.336V182.168z"/>
			<path d="M171.25,180.896c0-0.612-0.024-1.092-0.048-1.572h0.924l0.048,0.936h0.036c0.324-0.552,0.864-1.068,1.836-1.068
				c0.78,0,1.38,0.48,1.632,1.164h0.024c0.18-0.336,0.42-0.576,0.66-0.756c0.348-0.264,0.72-0.408,1.272-0.408
				c0.78,0,1.92,0.504,1.92,2.52v3.42h-1.032v-3.288c0-1.128-0.42-1.788-1.26-1.788c-0.612,0-1.068,0.444-1.26,0.948
				c-0.048,0.156-0.084,0.348-0.084,0.528v3.6h-1.032v-3.48c0-0.936-0.408-1.596-1.212-1.596c-0.648,0-1.14,0.528-1.308,1.056
				c-0.06,0.156-0.084,0.336-0.084,0.516v3.504h-1.032V180.896z"/>
			<path d="M181.857,182.408c0.024,1.428,0.924,2.016,1.98,2.016c0.756,0,1.224-0.132,1.608-0.288l0.192,0.744
				c-0.372,0.168-1.02,0.372-1.944,0.372c-1.776,0-2.856-1.188-2.856-2.928c0-1.764,1.044-3.144,2.736-3.144
				c1.896,0,2.388,1.668,2.388,2.736c0,0.216-0.012,0.384-0.036,0.504L181.857,182.408z M184.941,181.652
				c0.012-0.66-0.276-1.716-1.452-1.716c-1.08,0-1.536,0.984-1.62,1.716H184.941z"/>
			<path d="M190.869,181.988h0.024c0.144-0.204,0.336-0.468,0.504-0.66l1.716-2.004h1.26l-2.244,2.388l2.556,3.42h-1.284
				l-1.992-2.796l-0.54,0.612v2.184h-1.056v-8.52h1.056V181.988z"/>
			<path d="M196.125,182.408c0.024,1.428,0.924,2.016,1.98,2.016c0.756,0,1.224-0.132,1.608-0.288l0.192,0.744
				c-0.372,0.168-1.02,0.372-1.944,0.372c-1.776,0-2.856-1.188-2.856-2.928c0-1.764,1.044-3.144,2.736-3.144
				c1.896,0,2.388,1.668,2.388,2.736c0,0.216-0.012,0.384-0.036,0.504L196.125,182.408z M199.209,181.652
				c0.012-0.66-0.276-1.716-1.452-1.716c-1.08,0-1.536,0.984-1.62,1.716H199.209z"/>
			<path d="M201.897,179.324l1.26,3.432c0.144,0.384,0.288,0.84,0.384,1.188h0.024c0.108-0.348,0.228-0.792,0.372-1.212l1.152-3.408
				h1.116l-1.584,4.14c-0.756,1.992-1.272,3.012-1.992,3.648c-0.528,0.444-1.032,0.624-1.296,0.672l-0.264-0.888
				c0.264-0.072,0.612-0.24,0.924-0.516c0.288-0.228,0.636-0.636,0.888-1.176c0.048-0.108,0.084-0.18,0.084-0.252
				c0-0.06-0.024-0.144-0.084-0.264l-2.136-5.364H201.897z"/>
			<path d="M209.564,184.064c0.324,0.192,0.876,0.408,1.404,0.408c0.756,0,1.116-0.372,1.116-0.864c0-0.504-0.3-0.78-1.068-1.068
				c-1.056-0.384-1.548-0.948-1.548-1.644c0-0.936,0.768-1.704,2.004-1.704c0.588,0,1.104,0.156,1.416,0.36l-0.252,0.756
				c-0.228-0.132-0.648-0.336-1.188-0.336c-0.624,0-0.96,0.36-0.96,0.792c0,0.492,0.336,0.708,1.092,0.996
				c0.996,0.372,1.524,0.876,1.524,1.752c0,1.032-0.804,1.752-2.16,1.752c-0.636,0-1.224-0.168-1.632-0.408L209.564,184.064z"/>
			<path d="M214.964,178.256c-0.396,0-0.66-0.312-0.66-0.684s0.276-0.672,0.684-0.672c0.408,0,0.672,0.3,0.672,0.672
				s-0.264,0.684-0.684,0.684H214.964z M214.46,185.132v-5.808h1.056v5.808H214.46z"/>
			<path d="M222.236,184.28c0,1.344-0.276,2.148-0.828,2.664c-0.576,0.516-1.392,0.696-2.124,0.696c-0.696,0-1.464-0.168-1.932-0.48
				l0.264-0.816c0.384,0.252,0.984,0.468,1.704,0.468c1.08,0,1.872-0.564,1.872-2.04v-0.636h-0.024
				c-0.312,0.54-0.948,0.972-1.848,0.972c-1.44,0-2.472-1.224-2.472-2.844c0-1.968,1.284-3.072,2.628-3.072
				c1.008,0,1.548,0.516,1.812,0.996h0.024l0.036-0.864h0.936c-0.036,0.408-0.048,0.876-0.048,1.584V184.28z M221.181,181.604
				c0-0.168-0.012-0.324-0.06-0.468c-0.192-0.624-0.696-1.128-1.476-1.128c-1.008,0-1.728,0.852-1.728,2.208
				c0,1.128,0.588,2.088,1.716,2.088c0.66,0,1.248-0.408,1.464-1.092c0.06-0.168,0.084-0.372,0.084-0.564V181.604z"/>
			<path d="M223.977,180.896c0-0.612-0.012-1.092-0.048-1.572h0.936l0.06,0.948h0.024c0.288-0.54,0.96-1.08,1.92-1.08
				c0.804,0,2.052,0.48,2.052,2.472v3.468h-1.056v-3.348c0-0.936-0.348-1.728-1.344-1.728c-0.684,0-1.224,0.492-1.416,1.08
				c-0.048,0.132-0.072,0.324-0.072,0.492v3.504h-1.056V180.896z"/>
			<path d="M234.729,183.74c0,0.504,0.024,0.996,0.084,1.392h-0.948l-0.096-0.732h-0.036c-0.312,0.456-0.948,0.864-1.776,0.864
				c-1.176,0-1.776-0.828-1.776-1.668c0-1.404,1.248-2.172,3.492-2.16v-0.12c0-0.48-0.132-1.356-1.32-1.344
				c-0.552,0-1.116,0.156-1.524,0.432l-0.24-0.708c0.48-0.3,1.188-0.504,1.92-0.504c1.788,0,2.22,1.212,2.22,2.376V183.74z
				 M233.696,182.168c-1.152-0.024-2.46,0.18-2.46,1.308c0,0.696,0.456,1.008,0.984,1.008c0.768,0,1.26-0.48,1.428-0.972
				c0.036-0.108,0.048-0.228,0.048-0.336V182.168z"/>
			<path d="M237.644,177.932v1.392h1.512v0.804h-1.512v3.132c0,0.72,0.204,1.128,0.792,1.128c0.288,0,0.456-0.024,0.612-0.072
				l0.048,0.804c-0.204,0.072-0.528,0.144-0.936,0.144c-0.492,0-0.888-0.168-1.14-0.444c-0.288-0.324-0.408-0.84-0.408-1.524v-3.168
				h-0.9v-0.804h0.9v-1.068L237.644,177.932z"/>
			<path d="M245.204,183.548c0,0.6,0.012,1.128,0.048,1.584h-0.936l-0.06-0.948h-0.024c-0.264,0.468-0.888,1.08-1.92,1.08
				c-0.912,0-2.004-0.516-2.004-2.544v-3.396h1.056v3.204c0,1.104,0.348,1.86,1.296,1.86c0.708,0,1.2-0.492,1.392-0.972
				c0.06-0.144,0.096-0.336,0.096-0.54v-3.552h1.056V183.548z"/>
			<path d="M246.968,181.136c0-0.684-0.012-1.272-0.048-1.812h0.924l0.048,1.14h0.036c0.264-0.78,0.912-1.272,1.62-1.272
				c0.108,0,0.192,0.012,0.288,0.036v0.984c-0.12-0.012-0.228-0.024-0.372-0.024c-0.744,0-1.272,0.564-1.416,1.344
				c-0.024,0.156-0.036,0.324-0.036,0.504v3.096h-1.056L246.968,181.136z"/>
			<path d="M251.408,182.408c0.024,1.428,0.924,2.016,1.98,2.016c0.756,0,1.224-0.132,1.608-0.288l0.192,0.744
				c-0.372,0.168-1.02,0.372-1.944,0.372c-1.776,0-2.856-1.188-2.856-2.928c0-1.764,1.044-3.144,2.736-3.144
				c1.896,0,2.388,1.668,2.388,2.736c0,0.216-0.012,0.384-0.036,0.504L251.408,182.408z M254.492,181.652
				c0.012-0.66-0.276-1.716-1.452-1.716c-1.08,0-1.536,0.984-1.62,1.716H254.492z"/>
			<path d="M263.456,183.74c0,0.504,0.024,0.996,0.084,1.392h-0.948l-0.096-0.732h-0.036c-0.312,0.456-0.948,0.864-1.776,0.864
				c-1.176,0-1.776-0.828-1.776-1.668c0-1.404,1.248-2.172,3.492-2.16v-0.12c0-0.48-0.132-1.356-1.32-1.344
				c-0.552,0-1.116,0.156-1.524,0.432l-0.24-0.708c0.48-0.3,1.188-0.504,1.92-0.504c1.788,0,2.22,1.212,2.22,2.376V183.74z
				 M262.424,182.168c-1.152-0.024-2.46,0.18-2.46,1.308c0,0.696,0.456,1.008,0.984,1.008c0.768,0,1.26-0.48,1.428-0.972
				c0.036-0.108,0.048-0.228,0.048-0.336V182.168z"/>
			<path d="M265.004,184.064c0.324,0.192,0.876,0.408,1.404,0.408c0.756,0,1.116-0.372,1.116-0.864c0-0.504-0.3-0.78-1.068-1.068
				c-1.056-0.384-1.548-0.948-1.548-1.644c0-0.936,0.768-1.704,2.004-1.704c0.588,0,1.104,0.156,1.416,0.36l-0.252,0.756
				c-0.228-0.132-0.648-0.336-1.188-0.336c-0.624,0-0.96,0.36-0.96,0.792c0,0.492,0.336,0.708,1.092,0.996
				c0.996,0.372,1.524,0.876,1.524,1.752c0,1.032-0.804,1.752-2.16,1.752c-0.636,0-1.224-0.168-1.632-0.408L265.004,184.064z"/>
			<path d="M273.788,182.588l-0.84,2.544h-1.08l2.748-8.088h1.26l2.76,8.088h-1.116l-0.864-2.544H273.788z M276.44,181.772
				l-0.804-2.328c-0.168-0.528-0.288-1.008-0.408-1.476h-0.036c-0.108,0.468-0.24,0.972-0.396,1.464l-0.792,2.34H276.44z"/>
			<path d="M282.332,180.896c0-0.612-0.024-1.092-0.048-1.572h0.924l0.048,0.936h0.036c0.324-0.552,0.864-1.068,1.836-1.068
				c0.78,0,1.38,0.48,1.632,1.164h0.024c0.18-0.336,0.42-0.576,0.66-0.756c0.348-0.264,0.72-0.408,1.272-0.408
				c0.78,0,1.92,0.504,1.92,2.52v3.42h-1.032v-3.288c0-1.128-0.42-1.788-1.26-1.788c-0.612,0-1.068,0.444-1.26,0.948
				c-0.048,0.156-0.084,0.348-0.084,0.528v3.6h-1.032v-3.48c0-0.936-0.408-1.596-1.212-1.596c-0.648,0-1.14,0.528-1.308,1.056
				c-0.06,0.156-0.084,0.336-0.084,0.516v3.504h-1.032V180.896z"/>
			<path d="M296.431,183.74c0,0.504,0.024,0.996,0.084,1.392h-0.947l-0.097-0.732h-0.035c-0.313,0.456-0.948,0.864-1.776,0.864
				c-1.176,0-1.776-0.828-1.776-1.668c0-1.404,1.248-2.172,3.492-2.16v-0.12c0-0.48-0.132-1.356-1.32-1.344
				c-0.552,0-1.115,0.156-1.523,0.432l-0.24-0.708c0.48-0.3,1.188-0.504,1.92-0.504c1.788,0,2.22,1.212,2.22,2.376V183.74z
				 M295.4,182.168c-1.152-0.024-2.46,0.18-2.46,1.308c0,0.696,0.456,1.008,0.983,1.008c0.769,0,1.26-0.48,1.428-0.972
				c0.036-0.108,0.049-0.228,0.049-0.336V182.168z"/>
			<path d="M296.696,186.836c0.491-0.036,0.899-0.168,1.151-0.444c0.288-0.324,0.408-0.792,0.408-2.184v-4.884h1.057v5.292
				c0,1.128-0.181,1.86-0.696,2.388c-0.468,0.468-1.236,0.66-1.8,0.66L296.696,186.836z M298.759,178.256
				c-0.396,0-0.66-0.312-0.66-0.684s0.276-0.672,0.685-0.672s0.672,0.3,0.672,0.672s-0.252,0.684-0.685,0.684H298.759z"/>
			<path d="M303.404,185.264c-1.561,0-2.784-1.152-2.784-2.988c0-1.944,1.284-3.084,2.88-3.084c1.668,0,2.796,1.212,2.796,2.976
				c0,2.16-1.5,3.096-2.88,3.096H303.404z M303.439,184.472c1.009,0,1.765-0.948,1.765-2.268c0-0.984-0.492-2.22-1.74-2.22
				c-1.236,0-1.776,1.152-1.776,2.256c0,1.272,0.721,2.232,1.74,2.232H303.439z"/>
			<path d="M307.639,181.136c0-0.684-0.012-1.272-0.048-1.812h0.924l0.048,1.14h0.036c0.265-0.78,0.912-1.272,1.62-1.272
				c0.108,0,0.192,0.012,0.288,0.036v0.984c-0.12-0.012-0.228-0.024-0.372-0.024c-0.744,0-1.271,0.564-1.416,1.344
				c-0.023,0.156-0.036,0.324-0.036,0.504v3.096h-1.056L307.639,181.136z"/>
			<path d="M310.147,186.62c0.265-0.72,0.589-2.004,0.721-2.88l1.176-0.12c-0.288,1.02-0.816,2.352-1.152,2.916L310.147,186.62z"/>
			<path d="M2.04,192.432v1.392h1.512v0.804H2.04v3.132c0,0.72,0.204,1.128,0.792,1.128c0.288,0,0.456-0.024,0.612-0.072
				l0.048,0.804c-0.204,0.072-0.528,0.144-0.936,0.144c-0.492,0-0.888-0.168-1.14-0.444c-0.288-0.324-0.408-0.84-0.408-1.524v-3.168
				h-0.9v-0.804h0.9v-1.068L2.04,192.432z"/>
			<path d="M4.74,191.112h1.056v3.624H5.82c0.168-0.3,0.432-0.576,0.756-0.744c0.312-0.192,0.684-0.3,1.08-0.3
				c0.78,0,2.028,0.48,2.028,2.484v3.456H8.628v-3.336c0-0.948-0.348-1.728-1.344-1.728c-0.684,0-1.212,0.48-1.416,1.056
				c-0.06,0.144-0.072,0.3-0.072,0.504v3.504H4.74V191.112z"/>
			<path d="M12,196.908c0.024,1.428,0.924,2.016,1.98,2.016c0.756,0,1.224-0.132,1.608-0.288l0.192,0.744
				c-0.372,0.168-1.02,0.372-1.944,0.372c-1.776,0-2.856-1.188-2.856-2.928c0-1.764,1.044-3.144,2.736-3.144
				c1.896,0,2.388,1.668,2.388,2.736c0,0.216-0.012,0.384-0.036,0.504L12,196.908z M15.084,196.152
				c0.012-0.66-0.276-1.716-1.452-1.716c-1.08,0-1.536,0.984-1.62,1.716H15.084z"/>
			<path d="M21.012,196.488h0.024c0.144-0.204,0.336-0.468,0.504-0.66l1.716-2.004h1.26l-2.244,2.388l2.556,3.42h-1.284
				l-1.992-2.796l-0.54,0.612v2.184h-1.056v-8.52h1.056V196.488z"/>
			<path d="M26.268,196.908c0.024,1.428,0.924,2.016,1.98,2.016c0.756,0,1.224-0.132,1.608-0.288l0.192,0.744
				c-0.372,0.168-1.02,0.372-1.944,0.372c-1.776,0-2.856-1.188-2.856-2.928c0-1.764,1.044-3.144,2.736-3.144
				c1.896,0,2.388,1.668,2.388,2.736c0,0.216-0.012,0.384-0.036,0.504L26.268,196.908z M29.352,196.152
				c0.012-0.66-0.276-1.716-1.452-1.716c-1.08,0-1.536,0.984-1.62,1.716H29.352z"/>
			<path d="M32.04,193.824l1.26,3.432c0.144,0.384,0.288,0.84,0.384,1.188h0.024c0.108-0.348,0.228-0.792,0.372-1.212l1.152-3.408
				h1.116l-1.584,4.14c-0.756,1.992-1.272,3.012-1.992,3.648c-0.528,0.444-1.032,0.624-1.296,0.672l-0.264-0.888
				c0.264-0.072,0.612-0.24,0.924-0.516c0.288-0.228,0.636-0.636,0.888-1.176c0.048-0.108,0.084-0.18,0.084-0.252
				c0-0.06-0.024-0.144-0.084-0.264l-2.136-5.364H32.04z"/>
			<path d="M43.943,198.24c0,0.504,0.024,0.996,0.084,1.392h-0.948l-0.096-0.732h-0.036c-0.312,0.456-0.948,0.864-1.776,0.864
				c-1.176,0-1.776-0.828-1.776-1.668c0-1.404,1.248-2.172,3.492-2.16v-0.12c0-0.48-0.132-1.356-1.32-1.344
				c-0.552,0-1.116,0.156-1.524,0.432l-0.24-0.708c0.48-0.3,1.188-0.504,1.92-0.504c1.788,0,2.22,1.212,2.22,2.376V198.24z
				 M42.911,196.668c-1.152-0.024-2.46,0.18-2.46,1.308c0,0.696,0.456,1.008,0.984,1.008c0.768,0,1.26-0.48,1.428-0.972
				c0.036-0.108,0.048-0.228,0.048-0.336V196.668z"/>
			<path d="M48.179,195.72c0-0.744-0.012-1.344-0.048-1.896h0.948l0.06,0.996h0.024c0.42-0.72,1.116-1.128,2.052-1.128
				c1.416,0,2.472,1.188,2.472,2.952c0,2.088-1.284,3.12-2.64,3.12c-0.78,0-1.44-0.336-1.788-0.912h-0.024v3.156h-1.056V195.72z
				 M49.235,197.268c0,0.144,0.012,0.3,0.048,0.432c0.18,0.732,0.828,1.236,1.572,1.236c1.116,0,1.764-0.912,1.764-2.244
				c0-1.164-0.6-2.16-1.716-2.16c-0.72,0-1.404,0.504-1.608,1.296c-0.024,0.144-0.06,0.3-0.06,0.432V197.268z"/>
			<path d="M55.619,196.908c0.024,1.428,0.924,2.016,1.98,2.016c0.756,0,1.224-0.132,1.608-0.288l0.192,0.744
				c-0.372,0.168-1.02,0.372-1.944,0.372c-1.776,0-2.856-1.188-2.856-2.928c0-1.764,1.044-3.144,2.736-3.144
				c1.896,0,2.388,1.668,2.388,2.736c0,0.216-0.012,0.384-0.036,0.504L55.619,196.908z M58.703,196.152
				c0.012-0.66-0.276-1.716-1.452-1.716c-1.08,0-1.536,0.984-1.62,1.716H58.703z"/>
			<path d="M61.042,195.636c0-0.684-0.012-1.272-0.048-1.812h0.924l0.048,1.14h0.036c0.264-0.78,0.912-1.272,1.62-1.272
				c0.108,0,0.192,0.012,0.288,0.036v0.984c-0.12-0.012-0.228-0.024-0.372-0.024c-0.744,0-1.272,0.564-1.416,1.344
				c-0.024,0.156-0.036,0.324-0.036,0.504v3.096h-1.056L61.042,195.636z"/>
			<path d="M65.411,199.632v-5.004h-0.804v-0.804h0.804v-0.276c0-0.816,0.192-1.56,0.684-2.028c0.396-0.384,0.924-0.54,1.404-0.54
				c0.384,0,0.696,0.084,0.9,0.168l-0.132,0.816c-0.168-0.072-0.372-0.132-0.684-0.132c-0.888,0-1.128,0.792-1.128,1.68v0.312h1.404
				v0.804h-1.392v5.004H65.411z"/>
			<path d="M69.274,196.908c0.024,1.428,0.924,2.016,1.98,2.016c0.756,0,1.224-0.132,1.608-0.288l0.192,0.744
				c-0.372,0.168-1.02,0.372-1.944,0.372c-1.776,0-2.856-1.188-2.856-2.928c0-1.764,1.044-3.144,2.736-3.144
				c1.896,0,2.388,1.668,2.388,2.736c0,0.216-0.012,0.384-0.036,0.504L69.274,196.908z M72.358,196.152
				c0.012-0.66-0.276-1.716-1.452-1.716c-1.08,0-1.536,0.984-1.62,1.716H72.358z"/>
			<path d="M78.827,199.428c-0.276,0.132-0.888,0.336-1.668,0.336c-1.752,0-2.892-1.188-2.892-2.976c0-1.788,1.224-3.096,3.12-3.096
				c0.624,0,1.176,0.156,1.464,0.312l-0.24,0.804c-0.252-0.132-0.648-0.276-1.224-0.276c-1.332,0-2.052,0.996-2.052,2.208
				c0,1.344,0.864,2.172,2.016,2.172c0.6,0,0.996-0.144,1.296-0.276L78.827,199.428z"/>
			<path d="M81.49,192.432v1.392h1.512v0.804H81.49v3.132c0,0.72,0.204,1.128,0.792,1.128c0.288,0,0.456-0.024,0.612-0.072
				l0.048,0.804c-0.204,0.072-0.528,0.144-0.936,0.144c-0.492,0-0.888-0.168-1.14-0.444c-0.288-0.324-0.408-0.84-0.408-1.524v-3.168
				h-0.9v-0.804h0.9v-1.068L81.49,192.432z"/>
			<path d="M86.83,199.632v-5.004h-0.804v-0.804h0.804v-0.276c0-0.816,0.192-1.56,0.684-2.028c0.396-0.384,0.924-0.54,1.404-0.54
				c0.384,0,0.696,0.084,0.9,0.168l-0.132,0.816c-0.168-0.072-0.372-0.132-0.684-0.132c-0.888,0-1.128,0.792-1.128,1.68v0.312h1.404
				v0.804h-1.392v5.004H86.83z"/>
			<path d="M92.458,199.764c-1.56,0-2.784-1.152-2.784-2.988c0-1.944,1.284-3.084,2.88-3.084c1.668,0,2.796,1.212,2.796,2.976
				c0,2.16-1.5,3.096-2.88,3.096H92.458z M92.494,198.972c1.008,0,1.764-0.948,1.764-2.268c0-0.984-0.492-2.22-1.74-2.22
				c-1.236,0-1.776,1.152-1.776,2.256c0,1.272,0.72,2.232,1.74,2.232H92.494z"/>
			<path d="M101.542,198.048c0,0.6,0.012,1.128,0.048,1.584h-0.936l-0.06-0.948h-0.024c-0.264,0.468-0.888,1.08-1.92,1.08
				c-0.912,0-2.004-0.516-2.004-2.544v-3.396h1.056v3.204c0,1.104,0.348,1.86,1.296,1.86c0.708,0,1.2-0.492,1.392-0.972
				c0.06-0.144,0.096-0.336,0.096-0.54v-3.552h1.056V198.048z"/>
			<path d="M103.306,195.636c0-0.684-0.012-1.272-0.048-1.812h0.924l0.048,1.14h0.036c0.264-0.78,0.912-1.272,1.62-1.272
				c0.108,0,0.192,0.012,0.288,0.036v0.984c-0.12-0.012-0.228-0.024-0.372-0.024c-0.744,0-1.272,0.564-1.416,1.344
				c-0.024,0.156-0.036,0.324-0.036,0.504v3.096h-1.056L103.306,195.636z"/>
			<path d="M108.778,192.432v1.392h1.512v0.804h-1.512v3.132c0,0.72,0.204,1.128,0.792,1.128c0.288,0,0.456-0.024,0.612-0.072
				l0.048,0.804c-0.204,0.072-0.528,0.144-0.936,0.144c-0.492,0-0.888-0.168-1.14-0.444c-0.288-0.324-0.408-0.84-0.408-1.524v-3.168
				h-0.9v-0.804h0.9v-1.068L108.778,192.432z"/>
			<path d="M111.478,191.112h1.056v3.624h0.024c0.168-0.3,0.432-0.576,0.756-0.744c0.312-0.192,0.684-0.3,1.08-0.3
				c0.78,0,2.028,0.48,2.028,2.484v3.456h-1.056v-3.336c0-0.948-0.348-1.728-1.344-1.728c-0.684,0-1.212,0.48-1.416,1.056
				c-0.06,0.144-0.072,0.3-0.072,0.504v3.504h-1.056V191.112z"/>
			<path d="M120.682,191.112h1.056v8.52h-1.056V191.112z"/>
			<path d="M125.854,199.764c-1.56,0-2.784-1.152-2.784-2.988c0-1.944,1.284-3.084,2.88-3.084c1.668,0,2.796,1.212,2.796,2.976
				c0,2.16-1.5,3.096-2.88,3.096H125.854z M125.89,198.972c1.008,0,1.764-0.948,1.764-2.268c0-0.984-0.492-2.22-1.74-2.22
				c-1.236,0-1.776,1.152-1.776,2.256c0,1.272,0.72,2.232,1.74,2.232H125.89z"/>
			<path d="M130.414,193.824l0.78,2.94c0.156,0.648,0.312,1.26,0.42,1.86h0.036c0.132-0.588,0.324-1.212,0.516-1.848l0.948-2.952
				h0.888l0.9,2.904c0.216,0.684,0.384,1.308,0.516,1.896h0.036c0.096-0.588,0.252-1.2,0.444-1.884l0.828-2.916h1.044l-1.872,5.808
				h-0.96l-0.888-2.772c-0.204-0.66-0.372-1.236-0.516-1.92h-0.024c-0.144,0.696-0.324,1.308-0.528,1.932l-0.936,2.76h-0.96
				l-1.752-5.808H130.414z"/>
			<path d="M139.317,196.908c0.024,1.428,0.924,2.016,1.98,2.016c0.756,0,1.224-0.132,1.608-0.288l0.192,0.744
				c-0.372,0.168-1.02,0.372-1.944,0.372c-1.776,0-2.856-1.188-2.856-2.928c0-1.764,1.044-3.144,2.736-3.144
				c1.896,0,2.388,1.668,2.388,2.736c0,0.216-0.012,0.384-0.036,0.504L139.317,196.908z M142.401,196.152
				c0.012-0.66-0.276-1.716-1.452-1.716c-1.08,0-1.536,0.984-1.62,1.716H142.401z"/>
			<path d="M144.742,195.636c0-0.684-0.012-1.272-0.048-1.812h0.924l0.048,1.14h0.036c0.264-0.78,0.912-1.272,1.62-1.272
				c0.108,0,0.192,0.012,0.288,0.036v0.984c-0.12-0.012-0.228-0.024-0.372-0.024c-0.744,0-1.272,0.564-1.416,1.344
				c-0.024,0.156-0.036,0.324-0.036,0.504v3.096h-1.056L144.742,195.636z"/>
			<path d="M152.469,192.432v1.392h1.512v0.804h-1.512v3.132c0,0.72,0.204,1.128,0.792,1.128c0.288,0,0.456-0.024,0.612-0.072
				l0.048,0.804c-0.204,0.072-0.528,0.144-0.936,0.144c-0.492,0-0.888-0.168-1.14-0.444c-0.288-0.324-0.408-0.84-0.408-1.524v-3.168
				h-0.9v-0.804h0.9v-1.068L152.469,192.432z"/>
			<path d="M155.169,191.112h1.056v3.624h0.024c0.168-0.3,0.432-0.576,0.756-0.744c0.312-0.192,0.684-0.3,1.08-0.3
				c0.78,0,2.028,0.48,2.028,2.484v3.456h-1.056v-3.336c0-0.948-0.348-1.728-1.344-1.728c-0.684,0-1.212,0.48-1.416,1.056
				c-0.06,0.144-0.072,0.3-0.072,0.504v3.504h-1.056V191.112z"/>
			<path d="M165.921,198.24c0,0.504,0.024,0.996,0.084,1.392h-0.948l-0.096-0.732h-0.036c-0.312,0.456-0.948,0.864-1.776,0.864
				c-1.176,0-1.776-0.828-1.776-1.668c0-1.404,1.248-2.172,3.492-2.16v-0.12c0-0.48-0.132-1.356-1.32-1.344
				c-0.552,0-1.116,0.156-1.524,0.432l-0.24-0.708c0.48-0.3,1.188-0.504,1.92-0.504c1.788,0,2.22,1.212,2.22,2.376V198.24z
				 M164.889,196.668c-1.152-0.024-2.46,0.18-2.46,1.308c0,0.696,0.456,1.008,0.984,1.008c0.768,0,1.26-0.48,1.428-0.972
				c0.036-0.108,0.048-0.228,0.048-0.336V196.668z"/>
			<path d="M167.613,195.396c0-0.612-0.012-1.092-0.048-1.572h0.936l0.06,0.948h0.024c0.288-0.54,0.96-1.08,1.92-1.08
				c0.804,0,2.052,0.48,2.052,2.472v3.468h-1.056v-3.348c0-0.936-0.348-1.728-1.344-1.728c-0.684,0-1.224,0.492-1.416,1.08
				c-0.048,0.132-0.072,0.324-0.072,0.492v3.504h-1.056V195.396z"/>
			<path d="M176.841,191.652c0.648-0.096,1.404-0.168,2.232-0.168c1.5,0,2.568,0.336,3.276,0.996
				c0.732,0.66,1.152,1.608,1.152,2.916c0,1.32-0.42,2.4-1.164,3.144c-0.768,0.756-2.016,1.164-3.588,1.164
				c-0.756,0-1.368-0.024-1.908-0.096V191.652z M177.897,198.816c0.264,0.048,0.648,0.048,1.056,0.048
				c2.232,0.012,3.444-1.248,3.444-3.432c0.012-1.932-1.068-3.12-3.276-3.12c-0.54,0-0.948,0.048-1.224,0.108V198.816z"/>
			<path d="M187.353,195.396c0-0.612-0.024-1.092-0.048-1.572h0.924l0.048,0.936h0.036c0.324-0.552,0.864-1.068,1.836-1.068
				c0.78,0,1.38,0.48,1.632,1.164h0.024c0.18-0.336,0.42-0.576,0.66-0.756c0.348-0.264,0.72-0.408,1.272-0.408
				c0.78,0,1.92,0.504,1.92,2.52v3.42h-1.032v-3.288c0-1.128-0.42-1.788-1.26-1.788c-0.612,0-1.068,0.444-1.26,0.948
				c-0.048,0.156-0.084,0.348-0.084,0.528v3.6h-1.032v-3.48c0-0.936-0.408-1.596-1.212-1.596c-0.648,0-1.14,0.528-1.308,1.056
				c-0.06,0.156-0.084,0.336-0.084,0.516v3.504h-1.032V195.396z"/>
			<path d="M201.453,198.24c0,0.504,0.024,0.996,0.084,1.392h-0.948l-0.096-0.732h-0.036c-0.312,0.456-0.948,0.864-1.776,0.864
				c-1.176,0-1.776-0.828-1.776-1.668c0-1.404,1.248-2.172,3.492-2.16v-0.12c0-0.48-0.132-1.356-1.32-1.344
				c-0.552,0-1.116,0.156-1.524,0.432l-0.24-0.708c0.48-0.3,1.188-0.504,1.92-0.504c1.788,0,2.22,1.212,2.22,2.376V198.24z
				 M200.42,196.668c-1.152-0.024-2.46,0.18-2.46,1.308c0,0.696,0.456,1.008,0.984,1.008c0.768,0,1.26-0.48,1.428-0.972
				c0.036-0.108,0.048-0.228,0.048-0.336V196.668z"/>
			<path d="M201.716,201.336c0.492-0.036,0.9-0.168,1.152-0.444c0.288-0.324,0.408-0.792,0.408-2.184v-4.884h1.056v5.292
				c0,1.128-0.18,1.86-0.696,2.388c-0.468,0.468-1.236,0.66-1.8,0.66L201.716,201.336z M203.78,192.756
				c-0.396,0-0.66-0.312-0.66-0.684s0.276-0.672,0.684-0.672c0.408,0,0.672,0.3,0.672,0.672s-0.252,0.684-0.684,0.684H203.78z"/>
			<path d="M208.424,199.764c-1.56,0-2.784-1.152-2.784-2.988c0-1.944,1.284-3.084,2.88-3.084c1.668,0,2.796,1.212,2.796,2.976
				c0,2.16-1.5,3.096-2.88,3.096H208.424z M208.46,198.972c1.008,0,1.764-0.948,1.764-2.268c0-0.984-0.492-2.22-1.74-2.22
				c-1.236,0-1.776,1.152-1.776,2.256c0,1.272,0.72,2.232,1.74,2.232H208.46z"/>
			<path d="M212.661,195.636c0-0.684-0.012-1.272-0.048-1.812h0.924l0.048,1.14h0.036c0.264-0.78,0.912-1.272,1.62-1.272
				c0.108,0,0.192,0.012,0.288,0.036v0.984c-0.12-0.012-0.228-0.024-0.372-0.024c-0.744,0-1.272,0.564-1.416,1.344
				c-0.024,0.156-0.036,0.324-0.036,0.504v3.096h-1.056L212.661,195.636z"/>
			<path d="M216.38,199.764c-0.408,0-0.696-0.324-0.696-0.756s0.3-0.756,0.72-0.756s0.708,0.312,0.708,0.756
				c0,0.432-0.288,0.756-0.72,0.756H216.38z"/>
		</g>
		<g>
			<path fill="none" stroke="#000000" d="M1.63,21.847h226.68"/>
			<path fill="none" stroke="#000000" d="M1.63,35.958h226.68"/>
			<path fill="none" stroke="#000000" d="M1.743,43.081h226.68"/>
			<path fill="none" stroke="#000000" d="M1.57,50.465h226.68"/>
			<path fill="none" stroke="#000000" d="M1.57,29.101h226.68"/>
		</g>
		<g>
			<path d="M12.722,50.369c-4.944-2.352-5.736-5.376-5.952-8.472c-0.24-3.36,1.896-6.768,3.888-8.664
				c1.152-1.08,2.4-2.136,3.888-3.264c-0.048-0.84-0.24-1.176-0.336-2.376c-0.024-0.504-0.336-2.856,0.168-5.568
				c0.312-1.608,2.328-5.4,3.72-5.424c1.08-0.024,2.736,4.296,2.784,6.456c0.072,3.336-0.72,4.848-1.704,6.576
				c-0.504,0.864-1.032,1.464-1.584,2.136c-0.576,0.696-1.224,1.104-1.824,1.632c0,0,0.768,4.344,0.792,4.656
				c1.536-0.192,3.408,0.36,4.08,0.84c1.704,1.272,2.352,3.024,2.472,4.728c0.216,2.712-1.272,5.568-4.56,6.936
				c0,0,0.504,3.456,0.624,4.176c0.264,1.896,0.216,3.096-0.192,3.864c-0.696,1.296-1.824,2.496-4.008,2.64
				c-1.68,0.096-4.992-0.744-5.16-3.384c-0.096-1.56,0.6-3.24,2.496-3.36c1.152-0.096,2.52,0.864,2.616,2.232
				c0.096,1.176-0.672,2.4-2.664,2.952c0.312,0.432,1.248,0.936,2.592,0.936c1.392,0,2.832-0.936,3.528-2.184
				c0.432-0.816,0.384-2.28,0.216-3.624c-0.072-0.456-0.648-4.08-0.648-4.08C16.178,51.017,13.729,50.849,12.722,50.369z
				 M13.202,44.681c0.048,1.152,1.008,2.496,1.896,2.952c-0.12,0.072-0.24,0.264-0.24,0.264c-0.984-0.48-1.824-1.272-2.04-1.56
				c-0.696-0.936-0.984-1.464-1.08-2.88c-0.096-1.32,0.624-3.096,2.232-4.344c0.84-0.624,1.248-0.768,1.968-0.936l-0.72-4.344
				c-0.744,0.432-3.816,2.904-5.112,4.92c-1.152,1.8-1.848,3.24-1.704,5.016c0.288,4.008,4.68,7.296,9.432,6.168
				c0,0-1.416-8.52-1.392-8.52C13.826,41.513,13.129,43.529,13.202,44.681z M15.146,29.465c2.088-1.632,4.92-4.704,4.752-7.08
				c-0.048-0.744-0.36-2.088-1.44-2.064C15.986,20.345,14.594,25.505,15.146,29.465z M18.41,49.745
				c2.76-0.936,2.88-3.312,2.784-4.728c-0.096-1.176-0.624-3.816-4.128-3.648L18.41,49.745z"/>
		</g>
		<g>
			<path d="M3.374,0.612c0.672-0.12,1.548-0.18,2.46-0.18c1.548,0,2.556,0.252,3.324,0.84c0.84,0.624,1.368,1.632,1.368,3.072
				c0,1.548-0.564,2.616-1.332,3.276C8.342,8.328,7.034,8.664,5.45,8.664c-0.948,0-1.632-0.06-2.076-0.12V0.612z M5.198,7.2
				c0.156,0.036,0.42,0.036,0.636,0.036c1.668,0.012,2.76-0.9,2.76-2.832c0-1.74-0.984-2.568-2.568-2.568
				c-0.396,0-0.672,0.036-0.828,0.072V7.2z"/>
			<path d="M20.99,5.484c-0.036-0.972-0.072-2.136-0.072-3.324h-0.024c-0.264,1.032-0.6,2.184-0.912,3.132l-0.984,3.156H17.57
				l-0.864-3.12c-0.264-0.96-0.528-2.1-0.732-3.168H15.95c-0.036,1.092-0.084,2.34-0.132,3.348L15.662,8.58H13.97l0.516-8.088h2.436
				l0.792,2.712c0.264,0.924,0.504,1.932,0.684,2.88h0.048c0.216-0.936,0.492-1.992,0.768-2.904l0.852-2.688h2.4l0.432,8.088h-1.776
				L20.99,5.484z"/>
			<path d="M29.162,7.164c0,0.552,0.024,1.092,0.096,1.416h-1.644l-0.108-0.588H27.47c-0.384,0.468-0.984,0.72-1.68,0.72
				c-1.188,0-1.896-0.864-1.896-1.8c0-1.524,1.368-2.244,3.444-2.244V4.596c0-0.312-0.168-0.756-1.068-0.756
				c-0.6,0-1.236,0.204-1.62,0.432l-0.336-1.164c0.408-0.228,1.212-0.528,2.28-0.528c1.956,0,2.568,1.152,2.568,2.532V7.164z
				 M27.398,5.808c-0.96,0-1.704,0.228-1.704,0.924c0,0.468,0.312,0.696,0.72,0.696c0.444,0,0.828-0.3,0.948-0.672
				c0.024-0.096,0.036-0.204,0.036-0.312V5.808z"/>
			<path d="M29.414,9.72c0.468-0.036,0.852-0.144,1.08-0.384c0.264-0.276,0.36-0.744,0.36-1.908V2.712h1.824v5.16
				c0,1.272-0.276,2.052-0.828,2.556c-0.54,0.492-1.392,0.72-2.256,0.72L29.414,9.72z M31.742,1.944
				c-0.612,0-1.008-0.432-1.008-0.972C30.734,0.42,31.142,0,31.766,0s1.008,0.42,1.02,0.972c0,0.54-0.396,0.972-1.032,0.972H31.742z
				"/>
			<path d="M36.806,8.712c-1.716,0-3.036-1.128-3.036-3.024s1.248-3.108,3.144-3.108c1.788,0,2.988,1.236,2.988,3.012
				c0,2.136-1.524,3.12-3.084,3.12H36.806z M36.842,7.404c0.72,0,1.164-0.708,1.164-1.764c0-0.864-0.336-1.752-1.164-1.752
				c-0.864,0-1.2,0.888-1.2,1.764c0,0.996,0.42,1.752,1.188,1.752H36.842z"/>
			<path d="M41.042,4.644c0-0.864-0.012-1.428-0.048-1.932h1.56l0.072,1.092h0.048c0.3-0.864,1.008-1.224,1.584-1.224
				c0.168,0,0.252,0.012,0.384,0.036v1.716c-0.156-0.024-0.3-0.048-0.504-0.048c-0.672,0-1.128,0.348-1.248,0.924
				c-0.024,0.12-0.036,0.252-0.036,0.408V8.58H41.03L41.042,4.644z"/>
		</g>
		<g>
			<path d="M211.738,25.513c2.04,0.024,3.144,1.416,2.52,3.12c-0.624,1.728-2.784,3.096-4.8,3.072
				c-0.984-0.024-1.776-0.384-2.232-0.936v19.08h-0.456c0-24.216,0-20.4,0-20.4c0-0.288,0.072-0.576,0.192-0.888
				C207.585,26.833,209.722,25.489,211.738,25.513z"/>
		</g>
		<g>
			<path d="M137.333,35.513c0.984,0,1.776,0.36,2.232,0.912V17.201h0.456v20.4c0,0.336-0.048,0.672-0.168,1.056
				c-0.648,1.704-2.784,3.072-4.8,3.048c-2.016-0.024-3.144-1.44-2.52-3.144S135.316,35.489,137.333,35.513z"/>
		</g>
		<g>
			<path fill="#FF0000" d="M113.333,39.514c0.984,0,1.776,0.36,2.232,0.912V21.202h0.456v20.4c0,0.336-0.048,0.672-0.168,1.056
				c-0.648,1.704-2.784,3.072-4.8,3.048c-2.016-0.024-3.144-1.44-2.52-3.144S111.316,39.49,113.333,39.514z"/>
		</g>
		<g>
			<path d="M89.333,43.514c0.984,0,1.776,0.36,2.232,0.912V25.202h0.456v20.4c0,0.336-0.048,0.672-0.168,1.056
				c-0.648,1.704-2.784,3.072-4.8,3.048c-2.016-0.024-3.144-1.44-2.52-3.144S87.316,43.49,89.333,43.514z"/>
		</g>
		<g>
			<path d="M63.333,47.514c0.984,0,1.776,0.36,2.232,0.912V29.202h0.456v20.4c0,0.336-0.048,0.672-0.168,1.056
				c-0.648,1.704-2.784,3.072-4.8,3.048c-2.016-0.024-3.144-1.44-2.52-3.144S61.316,47.49,63.333,47.514z"/>
		</g>
		<g>
			<path d="M40.015,50.756c0.984,0,1.776,0.36,2.232,0.912V32.444h0.456v20.4c0,0.336-0.048,0.672-0.168,1.056
				c-0.648,1.704-2.784,3.072-4.8,3.048c-2.016-0.024-3.144-1.44-2.52-3.144S37.999,50.732,40.015,50.756z"/>
		</g>
		<g>
			<path d="M162.738,32.513c2.04,0.024,3.144,1.416,2.52,3.12c-0.624,1.728-2.784,3.096-4.8,3.072
				c-0.984-0.024-1.776-0.384-2.232-0.936v19.08h-0.456c0-24.216,0-20.4,0-20.4c0-0.288,0.072-0.576,0.192-0.888
				C158.585,33.833,160.722,32.489,162.738,32.513z"/>
		</g>
		<g>
			<path d="M187.738,28.513c2.04,0.024,3.144,1.416,2.52,3.12c-0.624,1.728-2.784,3.096-4.8,3.072
				c-0.984-0.024-1.776-0.384-2.232-0.936v19.08h-0.456c0-24.216,0-20.4,0-20.4c0-0.288,0.072-0.576,0.192-0.888
				C183.585,29.833,185.722,28.489,187.738,28.513z"/>
		</g>
		<g>
			<path d="M77.924,42.388v-3.912h0.696v3.672l2.352-0.768v-3.504h0.696v3.288l0.936-0.312v2.496l-0.936,0.312v3.552l0.936-0.288
				v2.472l-0.936,0.312v3.912h-0.696v-3.696l-2.352,0.768v3.552h-0.696v-3.312l-1.032,0.336v-2.496l1.032-0.336V44.86l-1.032,0.336
				v-2.472L77.924,42.388z M78.62,44.644v3.576l2.352-0.768v-3.576L78.62,44.644z"/>
		</g>
		<g>
			<path d="M176.924,28.388v-3.912h0.696v3.672l2.352-0.768v-3.504h0.696v3.288l0.936-0.312v2.496l-0.936,0.312v3.552l0.936-0.288
				v2.472l-0.936,0.312v3.912h-0.696v-3.696l-2.352,0.768v3.552h-0.696v-3.312l-1.032,0.336v-2.496l1.032-0.336V30.86l-1.032,0.336
				v-2.472L176.924,28.388z M177.62,30.644v3.576l2.352-0.768v-3.576L177.62,30.644z"/>
		</g>
		<g>
			<path fill="none" stroke="#000000" d="M258.59,21.847h77.376"/>
			<path fill="none" stroke="#000000" d="M258.59,35.958h77.376"/>
			<path fill="none" stroke="#000000" d="M258.629,43.081h77.376"/>
			<path fill="none" stroke="#000000" d="M258.57,50.465h77.376"/>
			<path fill="none" stroke="#000000" d="M258.57,29.101h77.376"/>
		</g>
		<g>
			<path d="M269.722,50.369c-4.944-2.352-5.736-5.376-5.952-8.472c-0.24-3.36,1.896-6.768,3.888-8.664
				c1.152-1.08,2.4-2.136,3.888-3.264c-0.048-0.84-0.24-1.176-0.336-2.376c-0.024-0.504-0.336-2.856,0.168-5.568
				c0.312-1.608,2.328-5.4,3.72-5.424c1.08-0.024,2.736,4.296,2.784,6.456c0.072,3.336-0.72,4.848-1.704,6.576
				c-0.504,0.864-1.032,1.464-1.584,2.136c-0.576,0.696-1.224,1.104-1.824,1.632c0,0,0.768,4.344,0.792,4.656
				c1.536-0.192,3.408,0.36,4.08,0.84c1.704,1.272,2.352,3.024,2.472,4.728c0.216,2.712-1.272,5.568-4.56,6.936
				c0,0,0.504,3.456,0.624,4.176c0.264,1.896,0.216,3.096-0.192,3.864c-0.696,1.296-1.824,2.496-4.008,2.64
				c-1.68,0.096-4.992-0.744-5.16-3.384c-0.096-1.56,0.6-3.24,2.496-3.36c1.152-0.096,2.52,0.864,2.616,2.232
				c0.096,1.176-0.672,2.4-2.664,2.952c0.312,0.432,1.248,0.936,2.592,0.936c1.392,0,2.832-0.936,3.528-2.184
				c0.432-0.816,0.384-2.28,0.216-3.624c-0.072-0.456-0.648-4.08-0.648-4.08C273.178,51.017,270.729,50.849,269.722,50.369z
				 M270.202,44.681c0.048,1.152,1.008,2.496,1.896,2.952c-0.12,0.072-0.24,0.264-0.24,0.264c-0.984-0.48-1.824-1.272-2.04-1.56
				c-0.696-0.936-0.984-1.464-1.08-2.88c-0.096-1.32,0.624-3.096,2.232-4.344c0.84-0.624,1.248-0.768,1.968-0.936l-0.72-4.344
				c-0.744,0.432-3.816,2.904-5.112,4.92c-1.152,1.8-1.848,3.24-1.704,5.016c0.288,4.008,4.68,7.296,9.432,6.168
				c0,0-1.416-8.52-1.392-8.52C270.826,41.513,270.129,43.529,270.202,44.681z M272.146,29.465c2.088-1.632,4.92-4.704,4.752-7.08
				c-0.048-0.744-0.36-2.088-1.44-2.064C272.986,20.345,271.594,25.505,272.146,29.465z M275.41,49.745
				c2.76-0.936,2.88-3.312,2.784-4.728c-0.096-1.176-0.624-3.816-4.128-3.648L275.41,49.745z"/>
		</g>
		<g>
			<path d="M260.374,0.612c0.672-0.12,1.548-0.18,2.46-0.18c1.548,0,2.556,0.252,3.324,0.84c0.84,0.624,1.368,1.632,1.368,3.072
				c0,1.548-0.564,2.616-1.332,3.276c-0.852,0.708-2.16,1.044-3.744,1.044c-0.948,0-1.632-0.06-2.076-0.12V0.612z M262.198,7.2
				c0.156,0.036,0.42,0.036,0.636,0.036c1.668,0.012,2.76-0.9,2.76-2.832c0-1.74-0.984-2.568-2.568-2.568
				c-0.396,0-0.672,0.036-0.828,0.072V7.2z"/>
			<path d="M277.99,5.484c-0.036-0.972-0.072-2.136-0.072-3.324h-0.024c-0.264,1.032-0.6,2.184-0.912,3.132l-0.984,3.156h-1.428
				l-0.864-3.12c-0.264-0.96-0.528-2.1-0.732-3.168h-0.024c-0.036,1.092-0.084,2.34-0.132,3.348l-0.156,3.072h-1.692l0.516-8.088
				h2.436l0.792,2.712c0.264,0.924,0.504,1.932,0.684,2.88h0.048c0.216-0.936,0.492-1.992,0.768-2.904l0.852-2.688h2.4l0.432,8.088
				h-1.776L277.99,5.484z"/>
			<path d="M286.162,7.164c0,0.552,0.024,1.092,0.096,1.416h-1.644l-0.108-0.588h-0.036c-0.384,0.468-0.984,0.72-1.68,0.72
				c-1.188,0-1.896-0.864-1.896-1.8c0-1.524,1.368-2.244,3.444-2.244V4.596c0-0.312-0.168-0.756-1.068-0.756
				c-0.6,0-1.236,0.204-1.62,0.432l-0.336-1.164c0.408-0.228,1.212-0.528,2.28-0.528c1.956,0,2.568,1.152,2.568,2.532V7.164z
				 M284.398,5.808c-0.96,0-1.704,0.228-1.704,0.924c0,0.468,0.312,0.696,0.72,0.696c0.444,0,0.828-0.3,0.948-0.672
				c0.024-0.096,0.036-0.204,0.036-0.312V5.808z"/>
			<path d="M286.414,9.72c0.468-0.036,0.852-0.144,1.08-0.384c0.264-0.276,0.36-0.744,0.36-1.908V2.712h1.824v5.16
				c0,1.272-0.276,2.052-0.828,2.556c-0.54,0.492-1.392,0.72-2.256,0.72L286.414,9.72z M288.742,1.944
				c-0.612,0-1.008-0.432-1.008-0.972c0-0.552,0.408-0.972,1.032-0.972s1.008,0.42,1.02,0.972c0,0.54-0.396,0.972-1.032,0.972
				H288.742z"/>
			<path d="M293.805,8.712c-1.716,0-3.036-1.128-3.036-3.024s1.249-3.108,3.144-3.108c1.788,0,2.988,1.236,2.988,3.012
				c0,2.136-1.524,3.12-3.084,3.12H293.805z M293.841,7.404c0.721,0,1.164-0.708,1.164-1.764c0-0.864-0.336-1.752-1.164-1.752
				c-0.863,0-1.199,0.888-1.199,1.764c0,0.996,0.42,1.752,1.188,1.752H293.841z"/>
			<path d="M298.042,4.644c0-0.864-0.012-1.428-0.048-1.932h1.56l0.072,1.092h0.048c0.3-0.864,1.008-1.224,1.584-1.224
				c0.168,0,0.252,0.012,0.384,0.036v1.716c-0.155-0.024-0.3-0.048-0.504-0.048c-0.672,0-1.128,0.348-1.248,0.924
				c-0.023,0.12-0.035,0.252-0.035,0.408V8.58h-1.824L298.042,4.644z"/>
			<path d="M305.074,0.492h1.812v3.576h0.024c0.18-0.312,0.372-0.6,0.563-0.888l1.824-2.688h2.256l-2.676,3.444l2.808,4.644h-2.124
				l-1.991-3.492l-0.685,0.852v2.64h-1.812V0.492z"/>
			<path d="M313.582,6.216c0.06,0.768,0.804,1.128,1.656,1.128c0.624,0,1.128-0.084,1.619-0.252l0.24,1.236
				c-0.6,0.252-1.332,0.372-2.124,0.372c-1.992,0-3.132-1.152-3.132-3c0-1.488,0.937-3.132,2.964-3.132
				c1.896,0,2.616,1.476,2.616,2.928c0,0.312-0.036,0.588-0.06,0.732L313.582,6.216z M315.729,4.968c0-0.432-0.191-1.188-1.02-1.188
				c-0.78,0-1.092,0.708-1.14,1.188H315.729z"/>
			<path d="M319.725,2.712l0.876,2.88c0.097,0.348,0.217,0.78,0.288,1.092h0.036c0.084-0.312,0.181-0.756,0.265-1.092l0.72-2.88
				h1.956l-1.368,3.864c-0.84,2.328-1.404,3.252-2.064,3.84c-0.624,0.552-1.296,0.756-1.764,0.804l-0.384-1.536
				c0.228-0.048,0.516-0.156,0.792-0.312c0.276-0.144,0.588-0.444,0.756-0.732c0.061-0.096,0.096-0.18,0.096-0.264
				c0-0.06-0.012-0.156-0.071-0.3l-2.16-5.364H319.725z"/>
			<path d="M327.177,6.708c0.48,0.252,1.248,0.504,2.028,0.504c0.84,0,1.284-0.348,1.284-0.888c0-0.492-0.385-0.792-1.356-1.128
				c-1.344-0.48-2.231-1.224-2.231-2.412c0-1.38,1.164-2.424,3.06-2.424c0.924,0,1.584,0.18,2.064,0.408l-0.408,1.464
				c-0.313-0.156-0.9-0.384-1.681-0.384c-0.792,0-1.176,0.372-1.176,0.78c0,0.516,0.444,0.744,1.5,1.152
				c1.429,0.528,2.088,1.272,2.088,2.424c0,1.356-1.031,2.508-3.252,2.508c-0.924,0-1.836-0.252-2.292-0.504L327.177,6.708z"/>
			<path d="M334.414,1.944c-0.612,0-1.008-0.432-1.008-0.972c0-0.552,0.407-0.972,1.031-0.972s1.009,0.42,1.021,0.972
				c0,0.54-0.396,0.972-1.032,0.972H334.414z M333.513,8.58V2.712h1.824V8.58H333.513z"/>
			<path d="M342.357,7.728c0,1.128-0.228,2.052-0.899,2.64c-0.637,0.552-1.513,0.72-2.376,0.72c-0.78,0-1.584-0.156-2.112-0.444
				l0.36-1.392c0.372,0.216,1.008,0.444,1.704,0.444c0.863,0,1.523-0.456,1.523-1.548V7.776h-0.023
				c-0.349,0.48-0.912,0.756-1.584,0.756c-1.452,0-2.484-1.176-2.484-2.856c0-1.896,1.212-3.096,2.664-3.096
				c0.804,0,1.308,0.348,1.607,0.828h0.024l0.06-0.696h1.584c-0.023,0.384-0.048,0.876-0.048,1.752V7.728z M340.534,5.1
				c0-0.108-0.013-0.228-0.036-0.336c-0.133-0.48-0.48-0.804-0.984-0.804c-0.672,0-1.2,0.6-1.2,1.668c0,0.876,0.433,1.56,1.188,1.56
				c0.479,0,0.852-0.312,0.972-0.732c0.048-0.144,0.061-0.336,0.061-0.492V5.1z"/>
			<path d="M343.821,4.584c0-0.732-0.023-1.344-0.048-1.872h1.584l0.084,0.816h0.036c0.24-0.384,0.828-0.948,1.813-0.948
				c1.199,0,2.1,0.804,2.1,2.532V8.58h-1.824V5.328c0-0.756-0.264-1.272-0.924-1.272c-0.504,0-0.804,0.348-0.936,0.684
				c-0.049,0.12-0.061,0.288-0.061,0.456V8.58h-1.824V4.584z"/>
			<path d="M355.737,7.164c0,0.552,0.024,1.092,0.097,1.416h-1.645l-0.107-0.588h-0.036c-0.385,0.468-0.984,0.72-1.681,0.72
				c-1.188,0-1.896-0.864-1.896-1.8c0-1.524,1.368-2.244,3.444-2.244V4.596c0-0.312-0.168-0.756-1.068-0.756
				c-0.601,0-1.236,0.204-1.62,0.432l-0.336-1.164c0.408-0.228,1.212-0.528,2.28-0.528c1.956,0,2.567,1.152,2.567,2.532V7.164z
				 M353.973,5.808c-0.96,0-1.704,0.228-1.704,0.924c0,0.468,0.313,0.696,0.72,0.696c0.444,0,0.828-0.3,0.948-0.672
				c0.024-0.096,0.036-0.204,0.036-0.312V5.808z"/>
			<path d="M359.133,1.116v1.596h1.308v1.344h-1.308v2.136c0,0.708,0.18,1.032,0.72,1.032c0.252,0,0.372-0.012,0.54-0.048
				l0.012,1.38c-0.228,0.084-0.672,0.156-1.176,0.156c-0.588,0-1.08-0.204-1.38-0.504c-0.336-0.348-0.504-0.912-0.504-1.74V4.056
				h-0.78V2.712h0.78V1.608L359.133,1.116z"/>
			<path d="M367.029,6.696c0,0.768,0.024,1.392,0.048,1.884h-1.584l-0.084-0.828h-0.036c-0.228,0.36-0.779,0.96-1.836,0.96
				c-1.199,0-2.063-0.744-2.063-2.556V2.712h1.824v3.156c0,0.852,0.275,1.368,0.924,1.368c0.504,0,0.804-0.348,0.912-0.636
				c0.048-0.108,0.071-0.24,0.071-0.396V2.712h1.824V6.696z"/>
			<path d="M368.505,4.644c0-0.864-0.013-1.428-0.049-1.932h1.561l0.072,1.092h0.048c0.3-0.864,1.008-1.224,1.584-1.224
				c0.168,0,0.252,0.012,0.384,0.036v1.716c-0.156-0.024-0.3-0.048-0.504-0.048c-0.672,0-1.128,0.348-1.248,0.924
				c-0.024,0.12-0.036,0.252-0.036,0.408V8.58h-1.824L368.505,4.644z"/>
			<path d="M374.373,6.216c0.061,0.768,0.805,1.128,1.656,1.128c0.624,0,1.128-0.084,1.62-0.252l0.24,1.236
				c-0.601,0.252-1.332,0.372-2.124,0.372c-1.992,0-3.132-1.152-3.132-3c0-1.488,0.936-3.132,2.964-3.132
				c1.896,0,2.616,1.476,2.616,2.928c0,0.312-0.036,0.588-0.061,0.732L374.373,6.216z M376.521,4.968
				c0-0.432-0.192-1.188-1.021-1.188c-0.779,0-1.092,0.708-1.14,1.188H376.521z"/>
		</g>
		<g>
			<path d="M282.924,18.388v-3.912h0.696v3.672l2.352-0.768v-3.504h0.696v3.288l0.936-0.312v2.496l-0.936,0.312v3.552l0.936-0.288
				v2.472l-0.936,0.312v3.912h-0.696v-3.696l-2.352,0.768v3.552h-0.696v-3.312l-1.032,0.336v-2.496l1.032-0.336V20.86l-1.032,0.336
				v-2.472L282.924,18.388z M283.62,20.644v3.576l2.352-0.768v-3.576L283.62,20.644z"/>
		</g>
		<g>
			<path d="M292.924,28.388v-3.912h0.695v3.672l2.353-0.768v-3.504h0.696v3.288l0.936-0.312v2.496l-0.936,0.312v3.552l0.936-0.288
				v2.472l-0.936,0.312v3.912h-0.696v-3.696l-2.353,0.768v3.552h-0.695v-3.312l-1.032,0.336v-2.496l1.032-0.336V30.86l-1.032,0.336
				v-2.472L292.924,28.388z M293.62,30.644v3.576l2.353-0.768v-3.576L293.62,30.644z"/>
		</g>
		<g>
			<path fill="none" stroke="#000000" d="M257.59,96.847h77.376"/>
			<path fill="none" stroke="#000000" d="M257.59,110.958h77.376"/>
			<path fill="none" stroke="#000000" d="M257.629,118.081h77.376"/>
			<path fill="none" stroke="#000000" d="M257.57,125.465h77.376"/>
			<path fill="none" stroke="#000000" d="M257.57,104.101h77.376"/>
		</g>
		<g>
			<path d="M268.722,125.369c-4.944-2.352-5.736-5.376-5.952-8.472c-0.24-3.36,1.896-6.768,3.888-8.664
				c1.152-1.08,2.4-2.136,3.888-3.264c-0.048-0.84-0.24-1.176-0.336-2.376c-0.024-0.504-0.336-2.856,0.168-5.568
				c0.312-1.608,2.328-5.4,3.72-5.424c1.08-0.024,2.736,4.296,2.784,6.456c0.072,3.336-0.72,4.848-1.704,6.576
				c-0.504,0.864-1.032,1.464-1.584,2.136c-0.576,0.696-1.224,1.104-1.824,1.632c0,0,0.768,4.344,0.792,4.656
				c1.536-0.192,3.408,0.36,4.08,0.84c1.704,1.272,2.352,3.024,2.472,4.728c0.216,2.712-1.272,5.568-4.56,6.936
				c0,0,0.504,3.456,0.624,4.176c0.264,1.896,0.216,3.096-0.192,3.864c-0.696,1.296-1.824,2.496-4.008,2.64
				c-1.68,0.096-4.992-0.744-5.16-3.384c-0.096-1.56,0.6-3.24,2.496-3.36c1.152-0.096,2.52,0.864,2.616,2.232
				c0.096,1.176-0.672,2.4-2.664,2.952c0.312,0.432,1.248,0.936,2.592,0.936c1.392,0,2.832-0.936,3.528-2.184
				c0.432-0.816,0.384-2.28,0.216-3.624c-0.072-0.456-0.648-4.08-0.648-4.08C272.178,126.017,269.729,125.849,268.722,125.369z
				 M269.202,119.681c0.048,1.152,1.008,2.496,1.896,2.952c-0.12,0.072-0.24,0.264-0.24,0.264c-0.984-0.48-1.824-1.272-2.04-1.56
				c-0.696-0.936-0.984-1.464-1.08-2.88c-0.096-1.32,0.624-3.096,2.232-4.344c0.84-0.624,1.248-0.768,1.968-0.936l-0.72-4.344
				c-0.744,0.432-3.816,2.904-5.112,4.92c-1.152,1.8-1.848,3.24-1.704,5.016c0.288,4.008,4.68,7.296,9.432,6.168
				c0,0-1.416-8.52-1.392-8.52C269.826,116.513,269.129,118.529,269.202,119.681z M271.146,104.465
				c2.088-1.632,4.92-4.704,4.752-7.08c-0.048-0.744-0.36-2.088-1.44-2.064C271.986,95.345,270.594,100.505,271.146,104.465z
				 M274.41,124.745c2.76-0.936,2.88-3.312,2.784-4.728c-0.096-1.176-0.624-3.816-4.128-3.648L274.41,124.745z"/>
		</g>
		<g>
			<path d="M261.246,81.504l-0.564,2.076h-1.896l2.472-8.088h2.388l2.52,8.088h-1.968l-0.624-2.076H261.246z M263.298,80.136
				l-0.504-1.716c-0.132-0.48-0.276-1.092-0.396-1.56h-0.036c-0.108,0.48-0.24,1.092-0.36,1.56l-0.492,1.716H263.298z"/>
			<path d="M276.51,80.484c-0.036-0.972-0.072-2.136-0.072-3.324h-0.024c-0.264,1.032-0.6,2.184-0.912,3.132l-0.984,3.156h-1.428
				l-0.864-3.12c-0.264-0.96-0.528-2.1-0.732-3.168h-0.024c-0.036,1.092-0.084,2.34-0.132,3.348l-0.156,3.072h-1.692l0.516-8.088
				h2.436l0.792,2.712c0.264,0.924,0.504,1.932,0.684,2.88h0.048c0.216-0.936,0.492-1.992,0.768-2.904l0.852-2.688h2.4l0.432,8.088
				h-1.776L276.51,80.484z"/>
			<path d="M284.682,82.164c0,0.552,0.024,1.092,0.096,1.416h-1.644l-0.108-0.588h-0.036c-0.384,0.468-0.984,0.72-1.68,0.72
				c-1.188,0-1.896-0.864-1.896-1.8c0-1.524,1.368-2.244,3.444-2.244v-0.072c0-0.312-0.168-0.756-1.068-0.756
				c-0.6,0-1.236,0.204-1.62,0.432l-0.336-1.164c0.408-0.228,1.212-0.528,2.28-0.528c1.956,0,2.568,1.152,2.568,2.532V82.164z
				 M282.917,80.808c-0.96,0-1.704,0.228-1.704,0.924c0,0.468,0.312,0.696,0.72,0.696c0.444,0,0.828-0.3,0.948-0.672
				c0.024-0.096,0.036-0.204,0.036-0.312V80.808z"/>
			<path d="M284.934,84.72c0.468-0.036,0.852-0.144,1.08-0.384c0.264-0.276,0.36-0.744,0.36-1.908v-4.716h1.824v5.16
				c0,1.272-0.276,2.052-0.828,2.556c-0.54,0.492-1.392,0.72-2.256,0.72L284.934,84.72z M287.262,76.944
				c-0.612,0-1.008-0.432-1.008-0.972c0-0.552,0.408-0.972,1.032-0.972s1.008,0.42,1.02,0.972c0,0.54-0.396,0.972-1.032,0.972
				H287.262z"/>
			<path d="M292.326,83.712c-1.716,0-3.036-1.128-3.036-3.024s1.248-3.108,3.144-3.108c1.788,0,2.988,1.236,2.988,3.012
				c0,2.136-1.523,3.12-3.084,3.12H292.326z M292.362,82.404c0.72,0,1.164-0.708,1.164-1.764c0-0.864-0.336-1.752-1.164-1.752
				c-0.864,0-1.2,0.888-1.2,1.764c0,0.996,0.42,1.752,1.188,1.752H292.362z"/>
			<path d="M296.561,79.644c0-0.864-0.012-1.428-0.048-1.932h1.561l0.071,1.092h0.049c0.3-0.864,1.008-1.224,1.584-1.224
				c0.168,0,0.252,0.012,0.384,0.036v1.716c-0.156-0.024-0.3-0.048-0.504-0.048c-0.672,0-1.128,0.348-1.248,0.924
				c-0.024,0.12-0.036,0.252-0.036,0.408v2.964h-1.824L296.561,79.644z"/>
			<path d="M303.593,75.492h1.813v3.576h0.023c0.18-0.312,0.372-0.6,0.564-0.888l1.823-2.688h2.257l-2.677,3.444l2.809,4.644h-2.124
				l-1.992-3.492l-0.684,0.852v2.64h-1.813V75.492z"/>
			<path d="M312.101,81.216c0.061,0.768,0.805,1.128,1.656,1.128c0.624,0,1.128-0.084,1.62-0.252l0.24,1.236
				c-0.601,0.252-1.332,0.372-2.124,0.372c-1.992,0-3.133-1.152-3.133-3c0-1.488,0.937-3.132,2.965-3.132
				c1.896,0,2.615,1.476,2.615,2.928c0,0.312-0.035,0.588-0.06,0.732L312.101,81.216z M314.25,79.968
				c0-0.432-0.192-1.188-1.021-1.188c-0.779,0-1.092,0.708-1.14,1.188H314.25z"/>
			<path d="M318.246,77.712l0.876,2.88c0.096,0.348,0.216,0.78,0.288,1.092h0.036c0.084-0.312,0.18-0.756,0.264-1.092l0.72-2.88
				h1.956l-1.368,3.864c-0.84,2.328-1.403,3.252-2.063,3.84c-0.624,0.552-1.296,0.756-1.765,0.804l-0.384-1.536
				c0.229-0.048,0.517-0.156,0.792-0.312c0.276-0.144,0.588-0.444,0.756-0.732c0.061-0.096,0.097-0.18,0.097-0.264
				c0-0.06-0.013-0.156-0.072-0.3l-2.16-5.364H318.246z"/>
			<path d="M325.698,81.708c0.479,0.252,1.248,0.504,2.027,0.504c0.84,0,1.284-0.348,1.284-0.888c0-0.492-0.384-0.792-1.355-1.128
				c-1.345-0.48-2.232-1.224-2.232-2.412c0-1.38,1.164-2.424,3.06-2.424c0.925,0,1.584,0.18,2.064,0.408l-0.408,1.464
				c-0.312-0.156-0.899-0.384-1.68-0.384c-0.792,0-1.176,0.372-1.176,0.78c0,0.516,0.443,0.744,1.5,1.152
				c1.428,0.528,2.088,1.272,2.088,2.424c0,1.356-1.032,2.508-3.252,2.508c-0.925,0-1.836-0.252-2.292-0.504L325.698,81.708z"/>
			<path d="M332.933,76.944c-0.612,0-1.008-0.432-1.008-0.972c0-0.552,0.408-0.972,1.032-0.972s1.008,0.42,1.02,0.972
				c0,0.54-0.396,0.972-1.032,0.972H332.933z M332.034,83.58v-5.868h1.823v5.868H332.034z"/>
			<path d="M340.877,82.728c0,1.128-0.229,2.052-0.9,2.64c-0.636,0.552-1.512,0.72-2.376,0.72c-0.78,0-1.584-0.156-2.112-0.444
				l0.36-1.392c0.372,0.216,1.008,0.444,1.704,0.444c0.864,0,1.523-0.456,1.523-1.548v-0.372h-0.023
				c-0.348,0.48-0.912,0.756-1.584,0.756c-1.452,0-2.484-1.176-2.484-2.856c0-1.896,1.212-3.096,2.664-3.096
				c0.804,0,1.309,0.348,1.608,0.828h0.023l0.061-0.696h1.584c-0.024,0.384-0.048,0.876-0.048,1.752V82.728z M339.053,80.1
				c0-0.108-0.012-0.228-0.036-0.336c-0.132-0.48-0.479-0.804-0.984-0.804c-0.672,0-1.199,0.6-1.199,1.668
				c0,0.876,0.432,1.56,1.188,1.56c0.48,0,0.853-0.312,0.972-0.732c0.049-0.144,0.061-0.336,0.061-0.492V80.1z"/>
			<path d="M342.341,79.584c0-0.732-0.024-1.344-0.048-1.872h1.584l0.084,0.816h0.035c0.24-0.384,0.828-0.948,1.813-0.948
				c1.2,0,2.1,0.804,2.1,2.532v3.468h-1.823v-3.252c0-0.756-0.265-1.272-0.925-1.272c-0.504,0-0.804,0.348-0.936,0.684
				c-0.048,0.12-0.061,0.288-0.061,0.456v3.384h-1.823V79.584z"/>
			<path d="M354.257,82.164c0,0.552,0.023,1.092,0.096,1.416h-1.644l-0.108-0.588h-0.036c-0.384,0.468-0.984,0.72-1.68,0.72
				c-1.188,0-1.896-0.864-1.896-1.8c0-1.524,1.368-2.244,3.444-2.244v-0.072c0-0.312-0.168-0.756-1.068-0.756
				c-0.6,0-1.235,0.204-1.62,0.432l-0.336-1.164c0.408-0.228,1.212-0.528,2.28-0.528c1.956,0,2.568,1.152,2.568,2.532V82.164z
				 M352.493,80.808c-0.96,0-1.704,0.228-1.704,0.924c0,0.468,0.313,0.696,0.721,0.696c0.443,0,0.828-0.3,0.947-0.672
				c0.024-0.096,0.036-0.204,0.036-0.312V80.808z"/>
			<path d="M357.653,76.116v1.596h1.309v1.344h-1.309v2.136c0,0.708,0.181,1.032,0.721,1.032c0.252,0,0.371-0.012,0.539-0.048
				l0.013,1.38c-0.229,0.084-0.672,0.156-1.176,0.156c-0.589,0-1.08-0.204-1.381-0.504c-0.336-0.348-0.504-0.912-0.504-1.74v-2.412
				h-0.779v-1.344h0.779v-1.104L357.653,76.116z"/>
			<path d="M365.549,81.696c0,0.768,0.023,1.392,0.048,1.884h-1.584l-0.084-0.828h-0.036c-0.229,0.36-0.78,0.96-1.836,0.96
				c-1.2,0-2.064-0.744-2.064-2.556v-3.444h1.824v3.156c0,0.852,0.276,1.368,0.924,1.368c0.504,0,0.805-0.348,0.912-0.636
				c0.048-0.108,0.072-0.24,0.072-0.396v-3.492h1.824V81.696z"/>
			<path d="M367.025,79.644c0-0.864-0.012-1.428-0.048-1.932h1.56l0.072,1.092h0.048c0.3-0.864,1.008-1.224,1.584-1.224
				c0.168,0,0.252,0.012,0.384,0.036v1.716c-0.155-0.024-0.3-0.048-0.504-0.048c-0.672,0-1.128,0.348-1.248,0.924
				c-0.023,0.12-0.036,0.252-0.036,0.408v2.964h-1.823L367.025,79.644z"/>
			<path d="M372.893,81.216c0.06,0.768,0.804,1.128,1.656,1.128c0.624,0,1.128-0.084,1.619-0.252l0.24,1.236
				c-0.6,0.252-1.332,0.372-2.124,0.372c-1.992,0-3.132-1.152-3.132-3c0-1.488,0.936-3.132,2.964-3.132
				c1.896,0,2.616,1.476,2.616,2.928c0,0.312-0.036,0.588-0.06,0.732L372.893,81.216z M375.041,79.968
				c0-0.432-0.191-1.188-1.02-1.188c-0.78,0-1.092,0.708-1.141,1.188H375.041z"/>
		</g>
		<g>
			<path d="M282.924,93.388v-3.912h0.696v3.672l2.352-0.768v-3.504h0.696v3.288l0.936-0.312v2.496l-0.936,0.312v3.552l0.936-0.288
				v2.472l-0.936,0.312v3.912h-0.696v-3.696l-2.352,0.768v3.552h-0.696v-3.312l-1.032,0.336v-2.496l1.032-0.336V95.86l-1.032,0.336
				v-2.472L282.924,93.388z M283.62,95.644v3.576l2.352-0.768v-3.576L283.62,95.644z"/>
		</g>
		<g>
			<path d="M290.924,103.388v-3.912h0.695v3.672l2.353-0.768v-3.504h0.696v3.288l0.936-0.312v2.496l-0.936,0.312v3.552l0.936-0.288
				v2.472l-0.936,0.312v3.912h-0.696v-3.696l-2.353,0.768v3.552h-0.695v-3.312l-1.032,0.336v-2.496l1.032-0.336v-3.576l-1.032,0.336
				v-2.472L290.924,103.388z M291.62,105.644v3.576l2.353-0.768v-3.576L291.62,105.644z"/>
		</g>
		<g>
			<path d="M298.924,88.388v-3.912h0.695v3.672l2.353-0.768v-3.504h0.696v3.288l0.936-0.312v2.496l-0.936,0.312v3.552l0.936-0.288
				v2.472l-0.936,0.312v3.912h-0.696v-3.696l-2.353,0.768v3.552h-0.695v-3.312l-1.032,0.336v-2.496l1.032-0.336V90.86l-1.032,0.336
				v-2.472L298.924,88.388z M299.62,90.644v3.576l2.353-0.768v-3.576L299.62,90.644z"/>
		</g>
	</g>
</svg>
