<?xml version="1.0" encoding="utf-8"?>
<!-- Generator: Adobe Illustrator 10.0, SVG Export Plug-In . SVG Version: 3.0.0 Build 76)  -->
<!DOCTYPE svg PUBLIC "-//W3C//DTD SVG 1.0//EN"    "http://www.w3.org/TR/2001/REC-SVG-20010904/DTD/svg10.dtd" [
	<!ENTITY ns_flows "http://ns.adobe.com/Flows/1.0/">
	<!ENTITY ns_extend "http://ns.adobe.com/Extensibility/1.0/">
	<!ENTITY ns_ai "http://ns.adobe.com/AdobeIllustrator/10.0/">
	<!ENTITY ns_svg "http://www.w3.org/2000/svg">
	<!ENTITY ns_xlink "http://www.w3.org/1999/xlink">
]>
<svg  xmlns:x="&ns_extend;" xmlns:i="&ns_ai;" xmlns:graph="&ns_graphs;"
	 xmlns="&ns_svg;" xmlns:xlink="&ns_xlink;" xmlns:a="http://ns.adobe.com/AdobeSVGViewerExtensions/3.0/" width="377" height="113"
	 viewBox="0.234 0.413 377 113" overflow="visible" enable-background="new 0.234 0.413 377 113" xml:space="preserve">
	<g id="Layer_1_2_">
		<g>
			<path d="M64.519,33.768c-4.944-2.352-5.736-5.376-5.952-8.472c-0.24-3.36,1.896-6.768,3.888-8.664
				c1.152-1.08,2.4-2.136,3.888-3.264c-0.048-0.84-0.24-1.176-0.336-2.376c-0.024-0.504-0.336-2.856,0.168-5.568
				c0.312-1.608,2.328-5.4,3.72-5.424c1.08-0.024,2.736,4.296,2.784,6.456c0.072,3.336-0.72,4.848-1.704,6.576
				c-0.504,0.864-1.032,1.464-1.584,2.136c-0.576,0.696-1.224,1.104-1.824,1.632c0,0,0.768,4.344,0.792,4.656
				c1.536-0.192,3.408,0.36,4.08,0.84c1.704,1.272,2.352,3.024,2.472,4.728c0.216,2.712-1.272,5.568-4.56,6.936
				c0,0,0.504,3.456,0.624,4.176c0.264,1.896,0.216,3.096-0.192,3.864c-0.696,1.296-1.824,2.496-4.008,2.64
				c-1.68,0.096-4.992-0.744-5.16-3.384c-0.096-1.56,0.6-3.24,2.496-3.36c1.152-0.096,2.52,0.864,2.616,2.232
				c0.096,1.176-0.672,2.4-2.664,2.952c0.312,0.432,1.248,0.936,2.592,0.936c1.392,0,2.832-0.936,3.528-2.184
				c0.432-0.816,0.384-2.28,0.216-3.624c-0.072-0.456-0.648-4.08-0.648-4.08C67.975,34.416,65.527,34.248,64.519,33.768z
				 M64.999,28.08c0.048,1.152,1.008,2.496,1.896,2.952c-0.12,0.072-0.24,0.264-0.24,0.264c-0.984-0.48-1.824-1.272-2.04-1.56
				c-0.696-0.936-0.984-1.464-1.08-2.88c-0.096-1.32,0.624-3.096,2.232-4.344c0.84-0.624,1.248-0.768,1.968-0.936l-0.72-4.344
				c-0.744,0.432-3.816,2.904-5.112,4.92c-1.152,1.8-1.848,3.24-1.704,5.016c0.288,4.008,4.68,7.296,9.432,6.168
				c0,0-1.416-8.52-1.392-8.52C65.623,24.912,64.927,26.928,64.999,28.08z M66.943,12.864c2.088-1.632,4.92-4.704,4.752-7.08
				c-0.048-0.744-0.36-2.088-1.44-2.064C67.783,3.744,66.391,8.904,66.943,12.864z M70.207,33.144
				c2.76-0.936,2.88-3.312,2.784-4.728c-0.096-1.176-0.624-3.816-4.128-3.648L70.207,33.144z"/>
		</g>
		<g>
			<path d="M273.869,16.245c2.04,0.024,3.144,1.416,2.52,3.12c-0.624,1.728-2.784,3.096-4.8,3.072
				c-0.984-0.024-1.776-0.384-2.232-0.936v19.08H268.9c0-24.216,0-20.4,0-20.4c0-0.288,0.072-0.576,0.192-0.888
				C269.716,17.565,271.853,16.221,273.869,16.245z"/>
		</g>
		<g>
			<path d="M96.463,34.579c0.984,0,1.776,0.36,2.232,0.912V16.267h0.456v20.4c0,0.336-0.048,0.672-0.168,1.056
				c-0.648,1.704-2.784,3.072-4.8,3.048c-2.016-0.024-3.144-1.44-2.52-3.144S94.447,34.555,96.463,34.579z"/>
		</g>
		<g>
			<path fill="none" stroke="#000000" d="M51.789,5.579h325.604"/>
			<path fill="none" stroke="#000000" d="M51.789,19.69h325.604"/>
			<path fill="none" stroke="#000000" d="M51.95,26.813h325.604"/>
			<path fill="none" stroke="#000000" d="M51.701,34.197h325.603"/>
			<path fill="none" stroke="#000000" d="M51.701,12.833h325.603"/>
		</g>
		<g>
			<path d="M130.13,30.912c0.984,0,1.776,0.36,2.232,0.912V12.6h0.456V33c0,0.336-0.048,0.672-0.168,1.056
				c-0.648,1.704-2.784,3.072-4.8,3.048c-2.016-0.024-3.144-1.44-2.52-3.144S128.114,30.888,130.13,30.912z"/>
		</g>
		<g>
			<path d="M163.463,27.579c0.984,0,1.776,0.36,2.232,0.912V9.267h0.456v20.4c0,0.336-0.048,0.672-0.168,1.056
				c-0.648,1.704-2.784,3.072-4.8,3.048c-2.016-0.024-3.144-1.44-2.52-3.144S161.447,27.555,163.463,27.579z"/>
		</g>
		<g>
			<path d="M200.796,23.579c0.984,0,1.776,0.36,2.232,0.912V5.267h0.456v20.4c0,0.336-0.048,0.672-0.168,1.056
				c-0.648,1.704-2.784,3.072-4.8,3.048c-2.016-0.024-3.144-1.44-2.52-3.144S198.78,23.555,200.796,23.579z"/>
		</g>
		<g>
			<path d="M234.797,20.245c0.984,0,1.776,0.36,2.232,0.912V1.933h0.456v20.4c0,0.336-0.048,0.672-0.168,1.056
				c-0.648,1.704-2.784,3.072-4.8,3.048c-2.016-0.024-3.144-1.44-2.52-3.144S232.781,20.221,234.797,20.245z"/>
		</g>
		<g>
			<path d="M312.535,13.245c2.04,0.024,3.144,1.416,2.52,3.12c-0.624,1.728-2.784,3.096-4.8,3.072
				c-0.984-0.024-1.776-0.384-2.232-0.936v19.08h-0.456c0-24.216,0-20.4,0-20.4c0-0.288,0.072-0.576,0.192-0.888
				C308.383,14.565,310.519,13.221,312.535,13.245z"/>
		</g>
		<g>
			<path d="M349.868,9.912c2.04,0.024,3.145,1.416,2.521,3.12c-0.624,1.728-2.784,3.096-4.8,3.072
				c-0.984-0.024-1.776-0.384-2.232-0.936v19.08H344.9c0-24.216,0-20.4,0-20.4c0-0.288,0.072-0.576,0.192-0.888
				C345.716,11.231,347.852,9.888,349.868,9.912z"/>
		</g>
		<g>
			<path d="M64.519,102.768c-4.944-2.352-5.736-5.376-5.952-8.472c-0.24-3.36,1.896-6.768,3.888-8.664
				c1.152-1.08,2.4-2.136,3.888-3.264c-0.048-0.84-0.24-1.176-0.336-2.376c-0.024-0.504-0.336-2.856,0.168-5.568
				c0.312-1.608,2.328-5.4,3.72-5.424c1.08-0.024,2.736,4.296,2.784,6.456c0.072,3.336-0.72,4.848-1.704,6.576
				c-0.504,0.864-1.032,1.464-1.584,2.136c-0.576,0.696-1.224,1.104-1.824,1.632c0,0,0.768,4.344,0.792,4.656
				c1.536-0.192,3.408,0.36,4.08,0.84c1.704,1.272,2.352,3.024,2.472,4.728c0.216,2.712-1.272,5.568-4.56,6.936
				c0,0,0.504,3.456,0.624,4.176c0.264,1.896,0.216,3.096-0.192,3.864c-0.696,1.296-1.824,2.496-4.008,2.64
				c-1.68,0.096-4.992-0.744-5.16-3.384c-0.096-1.56,0.6-3.24,2.496-3.36c1.152-0.096,2.52,0.864,2.616,2.232
				c0.096,1.176-0.672,2.4-2.664,2.952c0.312,0.432,1.248,0.936,2.592,0.936c1.392,0,2.832-0.936,3.528-2.184
				c0.432-0.816,0.384-2.28,0.216-3.624c-0.072-0.456-0.648-4.08-0.648-4.08C67.975,103.416,65.527,103.248,64.519,102.768z
				 M64.999,97.08c0.048,1.152,1.008,2.496,1.896,2.952c-0.12,0.072-0.24,0.264-0.24,0.264c-0.984-0.48-1.824-1.272-2.04-1.56
				c-0.696-0.936-0.984-1.464-1.08-2.88c-0.096-1.32,0.624-3.096,2.232-4.344c0.84-0.624,1.248-0.768,1.968-0.936l-0.72-4.344
				c-0.744,0.432-3.816,2.904-5.112,4.92c-1.152,1.8-1.848,3.24-1.704,5.016c0.288,4.008,4.68,7.296,9.432,6.168
				c0,0-1.416-8.52-1.392-8.52C65.623,93.912,64.927,95.928,64.999,97.08z M66.943,81.864c2.088-1.632,4.92-4.704,4.752-7.08
				c-0.048-0.744-0.36-2.088-1.44-2.064C67.783,72.744,66.391,77.904,66.943,81.864z M70.207,102.144
				c2.76-0.936,2.88-3.312,2.784-4.728c-0.096-1.176-0.624-3.816-4.128-3.648L70.207,102.144z"/>
		</g>
		<g>
			<path d="M273.869,85.245c2.04,0.024,3.144,1.416,2.52,3.12c-0.624,1.728-2.784,3.096-4.8,3.072
				c-0.984-0.024-1.776-0.384-2.232-0.936v19.08H268.9c0-24.216,0-20.4,0-20.4c0-0.288,0.072-0.576,0.192-0.888
				C269.716,86.565,271.853,85.221,273.869,85.245z"/>
		</g>
		<g>
			<path d="M96.463,103.579c0.984,0,1.776,0.36,2.232,0.912V85.267h0.456v20.4c0,0.336-0.048,0.672-0.168,1.056
				c-0.648,1.704-2.784,3.072-4.8,3.048c-2.016-0.024-3.144-1.44-2.52-3.144S94.447,103.555,96.463,103.579z"/>
		</g>
		<g>
			<path fill="none" stroke="#000000" d="M51.789,74.579h325.604"/>
			<path fill="none" stroke="#000000" d="M51.789,88.69h325.604"/>
			<path fill="none" stroke="#000000" d="M51.95,95.813h325.604"/>
			<path fill="none" stroke="#000000" d="M51.701,103.197h325.603"/>
			<path fill="none" stroke="#000000" d="M51.701,81.833h325.603"/>
		</g>
		<g>
			<path d="M130.13,99.912c0.984,0,1.776,0.36,2.232,0.912V81.6h0.456V102c0,0.336-0.048,0.672-0.168,1.056
				c-0.648,1.704-2.784,3.072-4.8,3.048c-2.016-0.024-3.144-1.44-2.52-3.144S128.114,99.888,130.13,99.912z"/>
		</g>
		<g>
			<path d="M163.463,96.579c0.984,0,1.776,0.36,2.232,0.912V78.267h0.456v20.4c0,0.336-0.048,0.672-0.168,1.056
				c-0.648,1.704-2.784,3.072-4.8,3.048c-2.016-0.024-3.144-1.44-2.52-3.144S161.447,96.555,163.463,96.579z"/>
		</g>
		<g>
			<path d="M200.796,92.579c0.984,0,1.776,0.36,2.232,0.912V74.267h0.456v20.4c0,0.336-0.048,0.672-0.168,1.056
				c-0.648,1.704-2.784,3.072-4.8,3.048c-2.016-0.024-3.144-1.44-2.52-3.144S198.78,92.555,200.796,92.579z"/>
		</g>
		<g>
			<path d="M234.797,89.245c0.984,0,1.776,0.36,2.232,0.912V70.933h0.456v20.4c0,0.336-0.048,0.672-0.168,1.056
				c-0.648,1.704-2.784,3.072-4.8,3.048c-2.016-0.024-3.144-1.44-2.52-3.144S232.781,89.221,234.797,89.245z"/>
		</g>
		<g>
			<path d="M312.535,82.245c2.04,0.024,3.144,1.416,2.52,3.12c-0.624,1.728-2.784,3.096-4.8,3.072
				c-0.984-0.024-1.776-0.384-2.232-0.936v19.08h-0.456c0-24.216,0-20.4,0-20.4c0-0.288,0.072-0.576,0.192-0.888
				C308.383,83.565,310.519,82.221,312.535,82.245z"/>
		</g>
		<g>
			<path d="M349.868,78.912c2.04,0.024,3.145,1.416,2.521,3.12c-0.624,1.728-2.784,3.096-4.8,3.072
				c-0.984-0.024-1.776-0.384-2.232-0.936v19.08H344.9c0-24.216,0-20.4,0-20.4c0-0.288,0.072-0.576,0.192-0.888
				C345.716,80.231,347.852,78.888,349.868,78.912z"/>
		</g>
		<g>
			<path d="M0,23.414v-8.088h0.968l2.168,4.092c0.494,0.948,0.897,1.788,1.21,2.628l0.03-0.012c-0.081-1.08-0.101-2.064-0.101-3.312
				v-3.396h0.827v8.088H4.215L2.057,19.31c-0.474-0.9-0.928-1.824-1.26-2.7l-0.03,0.012c0.05,1.02,0.061,1.992,0.061,3.336v3.456H0z
				"/>
			<path d="M10.022,22.021c0,0.504,0.02,0.996,0.071,1.392H9.296l-0.081-0.732h-0.03c-0.262,0.456-0.796,0.864-1.492,0.864
				c-0.988,0-1.492-0.828-1.492-1.668c0-1.404,1.048-2.172,2.934-2.16v-0.12c0-0.48-0.111-1.356-1.109-1.344
				c-0.463,0-0.938,0.156-1.28,0.432l-0.202-0.708c0.403-0.3,0.998-0.504,1.613-0.504c1.502,0,1.865,1.212,1.865,2.376V22.021z
				 M9.155,20.45c-0.968-0.024-2.067,0.18-2.067,1.308c0,0.696,0.383,1.008,0.827,1.008c0.646,0,1.059-0.48,1.2-0.972
				c0.03-0.108,0.04-0.228,0.04-0.336V20.45z"/>
			<path d="M12.473,16.213v1.392h1.271v0.804h-1.271v3.132c0,0.72,0.171,1.128,0.666,1.128c0.242,0,0.383-0.024,0.514-0.072
				l0.041,0.804c-0.171,0.072-0.444,0.144-0.787,0.144c-0.414,0-0.746-0.168-0.958-0.444c-0.242-0.324-0.343-0.84-0.343-1.524V18.41
				h-0.756v-0.804h0.756v-1.068L12.473,16.213z"/>
			<path d="M18.825,21.83c0,0.6,0.01,1.128,0.041,1.584h-0.787l-0.05-0.948h-0.02c-0.222,0.468-0.746,1.08-1.613,1.08
				c-0.767,0-1.684-0.516-1.684-2.544v-3.396h0.887v3.204c0,1.104,0.292,1.86,1.089,1.86c0.595,0,1.008-0.492,1.17-0.972
				c0.05-0.144,0.081-0.336,0.081-0.54v-3.552h0.887V21.83z"/>
			<path d="M20.307,19.417c0-0.684-0.01-1.272-0.041-1.812h0.776l0.041,1.14h0.03c0.222-0.78,0.766-1.272,1.361-1.272
				c0.091,0,0.162,0.012,0.242,0.036v0.984c-0.101-0.012-0.191-0.024-0.313-0.024c-0.625,0-1.069,0.564-1.19,1.344
				c-0.02,0.156-0.03,0.324-0.03,0.504v3.096h-0.887L20.307,19.417z"/>
			<path d="M26.972,22.021c0,0.504,0.02,0.996,0.071,1.392h-0.797l-0.081-0.732h-0.03c-0.262,0.456-0.796,0.864-1.492,0.864
				c-0.988,0-1.492-0.828-1.492-1.668c0-1.404,1.048-2.172,2.934-2.16v-0.12c0-0.48-0.111-1.356-1.109-1.344
				c-0.463,0-0.938,0.156-1.28,0.432l-0.202-0.708c0.403-0.3,0.998-0.504,1.613-0.504c1.502,0,1.865,1.212,1.865,2.376V22.021z
				 M26.104,20.45c-0.968-0.024-2.067,0.18-2.067,1.308c0,0.696,0.383,1.008,0.827,1.008c0.646,0,1.059-0.48,1.2-0.972
				c0.03-0.108,0.04-0.228,0.04-0.336V20.45z"/>
			<path d="M28.394,14.894h0.887v8.52h-0.887V14.894z"/>
		</g>
		<g>
			<path d="M2.99,81.767c0.544-0.096,1.18-0.168,1.875-0.168c1.26,0,2.158,0.336,2.752,0.996c0.615,0.66,0.968,1.608,0.968,2.916
				c0,1.32-0.353,2.4-0.978,3.144c-0.645,0.756-1.694,1.164-3.015,1.164c-0.635,0-1.149-0.024-1.603-0.096V81.767z M3.877,88.931
				c0.222,0.048,0.544,0.048,0.887,0.048c1.875,0.012,2.894-1.248,2.894-3.432c0.01-1.932-0.897-3.12-2.753-3.12
				c-0.454,0-0.796,0.048-1.028,0.108V88.931z"/>
			<path d="M11.732,89.878c-1.311,0-2.339-1.152-2.339-2.988c0-1.944,1.079-3.084,2.42-3.084c1.401,0,2.349,1.212,2.349,2.976
				c0,2.16-1.26,3.096-2.42,3.096H11.732z M11.762,89.086c0.847,0,1.482-0.948,1.482-2.268c0-0.984-0.413-2.22-1.462-2.22
				c-1.039,0-1.492,1.152-1.492,2.256c0,1.272,0.605,2.232,1.462,2.232H11.762z"/>
			<path d="M15.291,85.75c0-0.684-0.01-1.272-0.041-1.812h0.776l0.041,1.14h0.03c0.222-0.78,0.766-1.272,1.361-1.272
				c0.091,0,0.161,0.012,0.242,0.036v0.984c-0.101-0.012-0.191-0.024-0.313-0.024c-0.625,0-1.069,0.564-1.189,1.344
				c-0.021,0.156-0.03,0.324-0.03,0.504v3.096h-0.888L15.291,85.75z"/>
			<path d="M19.042,82.871c-0.333,0-0.555-0.312-0.555-0.684s0.232-0.672,0.575-0.672s0.564,0.3,0.564,0.672
				s-0.222,0.684-0.575,0.684H19.042z M18.618,89.747v-5.808h0.888v5.808H18.618z"/>
			<path d="M24.416,88.354c0,0.504,0.02,0.996,0.07,1.392H23.69l-0.081-0.732h-0.03c-0.262,0.456-0.796,0.864-1.492,0.864
				c-0.988,0-1.492-0.828-1.492-1.668c0-1.404,1.048-2.172,2.934-2.16v-0.12c0-0.48-0.111-1.356-1.109-1.344
				c-0.464,0-0.938,0.156-1.28,0.432l-0.202-0.708c0.403-0.3,0.998-0.504,1.613-0.504c1.502,0,1.865,1.212,1.865,2.376V88.354z
				 M23.549,86.783c-0.968-0.024-2.067,0.18-2.067,1.308c0,0.696,0.383,1.008,0.827,1.008c0.646,0,1.059-0.48,1.2-0.972
				c0.03-0.108,0.041-0.228,0.041-0.336V86.783z"/>
			<path d="M25.837,85.511c0-0.612-0.01-1.092-0.04-1.572h0.786l0.051,0.948h0.02c0.242-0.54,0.807-1.08,1.613-1.08
				c0.676,0,1.724,0.48,1.724,2.472v3.468h-0.887v-3.348c0-0.936-0.292-1.728-1.129-1.728c-0.575,0-1.028,0.492-1.189,1.08
				c-0.041,0.132-0.061,0.324-0.061,0.492v3.504h-0.888V85.511z"/>
		</g>
		<g>
			<path d="M260.524,15.499c0,0.216,0,1.536,0,1.536c0.912-0.816,1.416-0.984,2.424-1.008c1.2-0.024,1.968,1.176,1.992,2.136
				c0.024,0.504-0.12,1.032-0.312,1.44c-0.216,0.528-0.792,0.936-1.176,1.32c-0.432,0.432-3.552,2.568-3.552,2.616V9.354h0.624
				C260.524,9.354,260.548,12.331,260.524,15.499z M260.789,17.875c-0.312,0.6-0.264,1.632-0.264,2.376v2.064
				c0,0.024,0.864-0.72,1.344-1.176c0.432-0.408,0.768-0.864,0.936-1.584c0.192-0.72,0.12-1.488-0.336-1.992
				C262.156,17.203,261.292,16.915,260.789,17.875z"/>
		</g>
	</g>
</svg>
