<?xml version="1.0" encoding="utf-8"?>
<!-- Generator: Adobe Illustrator 10.0, SVG Export Plug-In . SVG Version: 3.0.0 Build 76)  -->
<!DOCTYPE svg PUBLIC "-//W3C//DTD SVG 1.0//EN"    "http://www.w3.org/TR/2001/REC-SVG-20010904/DTD/svg10.dtd" [
	<!ENTITY ns_flows "http://ns.adobe.com/Flows/1.0/">
	<!ENTITY ns_extend "http://ns.adobe.com/Extensibility/1.0/">
	<!ENTITY ns_ai "http://ns.adobe.com/AdobeIllustrator/10.0/">
	<!ENTITY ns_svg "http://www.w3.org/2000/svg">
	<!ENTITY ns_xlink "http://www.w3.org/1999/xlink">
]>
<svg  xmlns:x="&ns_extend;" xmlns:i="&ns_ai;" xmlns:graph="&ns_graphs;"
	 xmlns="&ns_svg;" xmlns:xlink="&ns_xlink;" xmlns:a="http://ns.adobe.com/AdobeSVGViewerExtensions/3.0/" width="242" height="110"
	 viewBox="0.2 -0.48 242 110" overflow="visible" enable-background="new 0.2 -0.48 242 110" xml:space="preserve">
	<g id="Layer_1_2_">
		<g>
			<path fill="none" stroke="#000000" d="M0.065,52.686h241.669"/>
			<path fill="none" stroke="#000000" d="M0.065,66.797h241.669"/>
			<path fill="none" stroke="#000000" d="M0.185,73.92h241.669"/>
			<path fill="none" stroke="#000000" d="M0,81.304h241.668"/>
			<path fill="none" stroke="#000000" d="M0,59.939h241.668"/>
		</g>
		<g>
			<path d="M12.152,81.208c-4.944-2.352-5.736-5.376-5.952-8.472c-0.24-3.36,1.896-6.768,3.888-8.664
				c1.152-1.08,2.4-2.136,3.888-3.264c-0.048-0.84-0.24-1.176-0.336-2.376c-0.024-0.504-0.336-2.856,0.168-5.568
				c0.312-1.608,2.328-5.4,3.72-5.424c1.08-0.024,2.736,4.296,2.784,6.456c0.072,3.336-0.72,4.848-1.704,6.576
				c-0.504,0.864-1.032,1.464-1.584,2.136c-0.576,0.696-1.224,1.104-1.824,1.632c0,0,0.768,4.344,0.792,4.656
				c1.536-0.192,3.408,0.36,4.08,0.84c1.704,1.272,2.352,3.024,2.472,4.728c0.216,2.712-1.272,5.568-4.56,6.936
				c0,0,0.504,3.456,0.624,4.176c0.264,1.896,0.216,3.096-0.192,3.864c-0.696,1.296-1.824,2.496-4.008,2.64
				c-1.68,0.096-4.992-0.744-5.16-3.384c-0.096-1.56,0.6-3.24,2.496-3.36c1.152-0.096,2.52,0.864,2.616,2.232
				c0.096,1.176-0.672,2.4-2.664,2.952c0.312,0.432,1.248,0.936,2.592,0.936c1.392,0,2.832-0.936,3.528-2.184
				c0.432-0.816,0.384-2.28,0.216-3.624c-0.072-0.456-0.648-4.08-0.648-4.08C15.608,81.856,13.16,81.688,12.152,81.208z
				 M12.632,75.52c0.048,1.152,1.008,2.496,1.896,2.952c-0.12,0.072-0.24,0.264-0.24,0.264c-0.984-0.48-1.824-1.272-2.04-1.56
				c-0.696-0.936-0.984-1.464-1.08-2.88c-0.096-1.32,0.624-3.096,2.232-4.344c0.84-0.624,1.248-0.768,1.968-0.936l-0.72-4.344
				c-0.744,0.432-3.816,2.904-5.112,4.92c-1.152,1.8-1.848,3.24-1.704,5.016c0.288,4.008,4.68,7.296,9.432,6.168
				c0,0-1.416-8.52-1.392-8.52C13.256,72.352,12.56,74.368,12.632,75.52z M14.576,60.304c2.088-1.632,4.92-4.704,4.752-7.08
				c-0.048-0.744-0.36-2.088-1.44-2.064C15.416,51.184,14.024,56.344,14.576,60.304z M17.84,80.584
				c2.76-0.936,2.88-3.312,2.784-4.728C20.528,74.68,20,72.04,16.496,72.208L17.84,80.584z"/>
		</g>
		<g>
			<path d="M73.904,74.304c2.664,0.024,5.184,1.032,5.376,3.264c0.144,1.632-2.016,3.12-4.68,3.12
				c-2.688-0.024-5.184-1.008-5.4-3.24C69.056,75.792,71.24,74.304,73.904,74.304z M74.552,80.136c1.152,0,1.896-1.104,1.776-1.992
				c-0.264-1.752-0.864-3.168-2.448-3.168c-1.152,0-1.824,1.128-1.68,2.016C72.464,78.744,72.968,80.136,74.552,80.136z"/>
		</g>
		<g>
			<g>
				<path d="M162.824,74.272c0,0.216,0,1.536,0,1.536c0.912-0.816,1.416-0.984,2.424-1.008c1.2-0.024,1.968,1.176,1.992,2.136
					c0.024,0.504-0.12,1.032-0.312,1.44c-0.216,0.528-0.792,0.936-1.176,1.32c-0.432,0.432-3.552,2.568-3.552,2.616V68.128h0.624
					C162.824,68.128,162.848,71.104,162.824,74.272z M163.088,76.648c-0.312,0.6-0.264,1.632-0.264,2.376v2.064
					c0,0.024,0.864-0.72,1.344-1.176c0.432-0.408,0.768-0.864,0.936-1.584c0.192-0.72,0.12-1.488-0.336-1.992
					C164.456,75.976,163.592,75.688,163.088,76.648z"/>
			</g>
			<g>
				<path d="M165.824,73.272c0,0.216,0,1.536,0,1.536c0.912-0.816,1.416-0.984,2.424-1.008c1.2-0.024,1.968,1.176,1.992,2.136
					c0.024,0.504-0.12,1.032-0.312,1.44c-0.216,0.528-0.792,0.936-1.176,1.32c-0.432,0.432-3.552,2.568-3.552,2.616V67.128h0.624
					C165.824,67.128,165.848,70.104,165.824,73.272z M166.088,75.648c-0.312,0.6-0.264,1.632-0.264,2.376v2.064
					c0,0.024,0.864-0.72,1.344-1.176c0.432-0.408,0.768-0.864,0.936-1.584c0.192-0.72,0.12-1.488-0.336-1.992
					C167.456,74.976,166.592,74.688,166.088,75.648z"/>
			</g>
		</g>
		<g>
			<path stroke="#000000" d="M58.037,76.226H56.91v-1.275h1.127V76.226z"/>
			<path stroke="#000000" d="M58.788,80.875H56.91V79.44h1.878V80.875z"/>
			<path stroke="#000000" d="M63.769,76.333h-1.795v-1.276h1.795V76.333z"/>
			<path stroke="#000000" d="M63.2,80.795h-1.795V79.52H63.2V80.795z"/>
			<g>
				<g>
					<path fill="none" d="M58.975,75.695"/>
					<path d="M58.97,75.745c0.064,0,0.074-0.1,0.01-0.1S58.906,75.745,58.97,75.745z"/>
				</g>
			</g>
			<path fill="none" stroke="#000000" d="M58.037,74.951L63.2,79.52"/>
			<path fill="none" stroke="#000000" d="M62.871,76.121l-5.717,2.894"/>
		</g>
		<g>
			<path d="M177.904,74.304c2.664,0.024,5.184,1.032,5.376,3.264c0.144,1.632-2.016,3.12-4.68,3.12
				c-2.688-0.024-5.184-1.008-5.4-3.24C173.056,75.792,175.24,74.304,177.904,74.304z M178.552,80.136
				c1.152,0,1.896-1.104,1.776-1.992c-0.264-1.752-0.864-3.168-2.448-3.168c-1.152,0-1.824,1.128-1.68,2.016
				C176.464,78.744,176.968,80.136,178.552,80.136z"/>
		</g>
		<g>
			<path d="M18.844,99.216l-0.192,2.88h-0.648l-0.192-2.88H18.844z"/>
			<path d="M21.1,99.216l-0.192,2.88H20.26l-0.192-2.88H21.1z"/>
			<path d="M22.611,99.432h4.356v0.876h-3.3v2.688h3.048v0.864h-3.048v3.66h-1.056V99.432z"/>
			<path d="M35.991,99v7.02c0,0.516,0.012,1.104,0.048,1.5h-0.948l-0.048-1.008H35.02c-0.324,0.648-1.02,1.14-1.968,1.14
				c-1.404,0-2.496-1.188-2.496-2.952c-0.012-1.944,1.2-3.12,2.604-3.12c0.9,0,1.5,0.42,1.752,0.876h0.024V99H35.991z
				 M34.936,104.076c0-0.144-0.012-0.312-0.048-0.456c-0.156-0.66-0.732-1.212-1.524-1.212c-1.092,0-1.74,0.96-1.74,2.232
				c0,1.188,0.588,2.16,1.716,2.16c0.708,0,1.356-0.48,1.548-1.26c0.036-0.144,0.048-0.288,0.048-0.456V104.076z"/>
			<path d="M40.107,107.652c-1.56,0-2.784-1.152-2.784-2.988c0-1.944,1.284-3.084,2.88-3.084c1.668,0,2.796,1.212,2.796,2.976
				c0,2.16-1.5,3.096-2.88,3.096H40.107z M40.143,106.86c1.008,0,1.764-0.948,1.764-2.268c0-0.984-0.492-2.22-1.74-2.22
				c-1.236,0-1.776,1.152-1.776,2.256c0,1.272,0.72,2.232,1.74,2.232H40.143z"/>
			<path d="M49.191,105.936c0,0.6,0.012,1.128,0.048,1.584h-0.936l-0.06-0.948h-0.024c-0.264,0.468-0.888,1.08-1.92,1.08
				c-0.912,0-2.004-0.516-2.004-2.544v-3.396h1.056v3.204c0,1.104,0.348,1.86,1.296,1.86c0.708,0,1.2-0.492,1.392-0.972
				c0.06-0.144,0.096-0.336,0.096-0.54v-3.552h1.056V105.936z"/>
			<path d="M50.943,99h1.056v3.636h0.024c0.372-0.648,1.044-1.056,1.98-1.056c1.44,0,2.448,1.2,2.448,2.952
				c0,2.088-1.32,3.12-2.616,3.12c-0.84,0-1.5-0.324-1.944-1.092h-0.024l-0.06,0.96h-0.912c0.036-0.396,0.048-0.984,0.048-1.5V99z
				 M51.999,105.192c0,0.132,0.012,0.264,0.036,0.384c0.204,0.732,0.828,1.236,1.584,1.236c1.116,0,1.764-0.9,1.764-2.232
				c0-1.176-0.6-2.172-1.728-2.172c-0.72,0-1.392,0.504-1.596,1.296c-0.036,0.132-0.06,0.276-0.06,0.444V105.192z"/>
			<path d="M57.771,99h1.056v8.52h-1.056V99z"/>
			<path d="M61.179,104.796c0.024,1.428,0.924,2.016,1.98,2.016c0.756,0,1.224-0.132,1.608-0.288l0.192,0.744
				c-0.372,0.168-1.02,0.372-1.944,0.372c-1.776,0-2.856-1.188-2.856-2.928c0-1.764,1.044-3.144,2.736-3.144
				c1.896,0,2.388,1.668,2.388,2.736c0,0.216-0.012,0.384-0.036,0.504L61.179,104.796z M64.263,104.04
				c0.012-0.66-0.276-1.716-1.452-1.716c-1.08,0-1.536,0.984-1.62,1.716H64.263z"/>
			<path d="M68.991,106.452c0.324,0.192,0.876,0.408,1.404,0.408c0.756,0,1.116-0.372,1.116-0.864c0-0.504-0.3-0.78-1.068-1.068
				c-1.056-0.384-1.548-0.948-1.548-1.644c0-0.936,0.768-1.704,2.004-1.704c0.588,0,1.104,0.156,1.416,0.36l-0.252,0.756
				c-0.228-0.132-0.648-0.336-1.188-0.336c-0.624,0-0.96,0.36-0.96,0.792c0,0.492,0.336,0.708,1.092,0.996
				c0.996,0.372,1.524,0.876,1.524,1.752c0,1.032-0.804,1.752-2.16,1.752c-0.636,0-1.224-0.168-1.632-0.408L68.991,106.452z"/>
			<path d="M73.887,99h1.056v3.624h0.024c0.168-0.3,0.432-0.576,0.756-0.744c0.312-0.192,0.684-0.3,1.08-0.3
				c0.78,0,2.028,0.48,2.028,2.484v3.456h-1.056v-3.336c0-0.948-0.348-1.728-1.344-1.728c-0.684,0-1.212,0.48-1.416,1.056
				c-0.06,0.144-0.072,0.3-0.072,0.504v3.504h-1.056V99z"/>
			<path d="M84.639,106.128c0,0.504,0.024,0.996,0.084,1.392h-0.948l-0.096-0.732h-0.036c-0.312,0.456-0.948,0.864-1.776,0.864
				c-1.176,0-1.776-0.828-1.776-1.668c0-1.404,1.248-2.172,3.492-2.16v-0.12c0-0.48-0.132-1.356-1.32-1.344
				c-0.552,0-1.116,0.156-1.524,0.432l-0.24-0.708c0.48-0.3,1.188-0.504,1.92-0.504c1.788,0,2.22,1.212,2.22,2.376V106.128z
				 M83.606,104.556c-1.152-0.024-2.46,0.18-2.46,1.308c0,0.696,0.456,1.008,0.984,1.008c0.768,0,1.26-0.48,1.428-0.972
				c0.036-0.108,0.048-0.228,0.048-0.336V104.556z"/>
			<path d="M86.342,103.524c0-0.684-0.012-1.272-0.048-1.812h0.924l0.048,1.14h0.036c0.264-0.78,0.912-1.272,1.62-1.272
				c0.108,0,0.192,0.012,0.288,0.036v0.984c-0.12-0.012-0.228-0.024-0.372-0.024c-0.744,0-1.272,0.564-1.416,1.344
				c-0.024,0.156-0.036,0.324-0.036,0.504v3.096h-1.056L86.342,103.524z"/>
			<path d="M90.302,103.608c0-0.744-0.012-1.344-0.048-1.896h0.948l0.06,0.996h0.024c0.42-0.72,1.116-1.128,2.052-1.128
				c1.416,0,2.472,1.188,2.472,2.952c0,2.088-1.284,3.12-2.64,3.12c-0.78,0-1.44-0.336-1.788-0.912h-0.024v3.156h-1.056V103.608z
				 M91.358,105.156c0,0.144,0.012,0.3,0.048,0.432c0.18,0.732,0.828,1.236,1.572,1.236c1.116,0,1.764-0.912,1.764-2.244
				c0-1.164-0.6-2.16-1.716-2.16c-0.72,0-1.404,0.504-1.608,1.296c-0.024,0.144-0.06,0.3-0.06,0.432V105.156z"/>
			<path d="M97.898,99.216l-0.192,2.88h-0.648l-0.192-2.88H97.898z"/>
			<path d="M100.154,99.216l-0.192,2.88h-0.648l-0.192-2.88H100.154z"/>
			<path d="M162.844,99.216l-0.192,2.88h-0.648l-0.192-2.88H162.844z"/>
			<path d="M165.1,99.216l-0.192,2.88h-0.648l-0.192-2.88H165.1z"/>
			<path d="M166.611,99.432h4.356v0.876h-3.3v2.688h3.048v0.864h-3.048v3.66h-1.056V99.432z"/>
			<path d="M179.991,99v7.02c0,0.516,0.012,1.104,0.048,1.5h-0.948l-0.048-1.008h-0.024c-0.324,0.648-1.02,1.14-1.968,1.14
				c-1.404,0-2.496-1.188-2.496-2.952c-0.012-1.944,1.2-3.12,2.604-3.12c0.9,0,1.5,0.42,1.752,0.876h0.024V99H179.991z
				 M178.936,104.076c0-0.144-0.012-0.312-0.048-0.456c-0.156-0.66-0.732-1.212-1.524-1.212c-1.092,0-1.74,0.96-1.74,2.232
				c0,1.188,0.588,2.16,1.716,2.16c0.708,0,1.356-0.48,1.548-1.26c0.036-0.144,0.048-0.288,0.048-0.456V104.076z"/>
			<path d="M184.107,107.652c-1.56,0-2.784-1.152-2.784-2.988c0-1.944,1.284-3.084,2.88-3.084c1.668,0,2.796,1.212,2.796,2.976
				c0,2.16-1.5,3.096-2.88,3.096H184.107z M184.143,106.86c1.008,0,1.764-0.948,1.764-2.268c0-0.984-0.492-2.22-1.74-2.22
				c-1.236,0-1.776,1.152-1.776,2.256c0,1.272,0.72,2.232,1.74,2.232H184.143z"/>
			<path d="M193.191,105.936c0,0.6,0.012,1.128,0.048,1.584h-0.936l-0.06-0.948h-0.024c-0.264,0.468-0.888,1.08-1.92,1.08
				c-0.912,0-2.004-0.516-2.004-2.544v-3.396h1.056v3.204c0,1.104,0.348,1.86,1.296,1.86c0.708,0,1.2-0.492,1.392-0.972
				c0.06-0.144,0.096-0.336,0.096-0.54v-3.552h1.056V105.936z"/>
			<path d="M194.943,99h1.056v3.636h0.024c0.372-0.648,1.044-1.056,1.98-1.056c1.44,0,2.448,1.2,2.448,2.952
				c0,2.088-1.32,3.12-2.616,3.12c-0.84,0-1.5-0.324-1.944-1.092h-0.024l-0.06,0.96h-0.912c0.036-0.396,0.048-0.984,0.048-1.5V99z
				 M195.999,105.192c0,0.132,0.012,0.264,0.036,0.384c0.204,0.732,0.828,1.236,1.584,1.236c1.116,0,1.764-0.9,1.764-2.232
				c0-1.176-0.6-2.172-1.728-2.172c-0.72,0-1.392,0.504-1.596,1.296c-0.036,0.132-0.06,0.276-0.06,0.444V105.192z"/>
			<path d="M201.771,99h1.056v8.52h-1.056V99z"/>
			<path d="M205.179,104.796c0.024,1.428,0.924,2.016,1.98,2.016c0.756,0,1.224-0.132,1.608-0.288l0.192,0.744
				c-0.372,0.168-1.02,0.372-1.944,0.372c-1.776,0-2.856-1.188-2.856-2.928c0-1.764,1.044-3.144,2.736-3.144
				c1.896,0,2.388,1.668,2.388,2.736c0,0.216-0.012,0.384-0.036,0.504L205.179,104.796z M208.263,104.04
				c0.012-0.66-0.276-1.716-1.452-1.716c-1.08,0-1.536,0.984-1.62,1.716H208.263z"/>
			<path d="M213.23,107.52v-5.004h-0.804v-0.804h0.804v-0.276c0-0.816,0.192-1.56,0.684-2.028c0.396-0.384,0.924-0.54,1.404-0.54
				c0.384,0,0.696,0.084,0.9,0.168l-0.132,0.816c-0.168-0.072-0.372-0.132-0.684-0.132c-0.888,0-1.128,0.792-1.128,1.68v0.312h1.404
				v0.804h-1.392v5.004H213.23z"/>
			<path d="M216.639,99h1.056v8.52h-1.056V99z"/>
			<path d="M223.539,106.128c0,0.504,0.024,0.996,0.084,1.392h-0.948l-0.096-0.732h-0.036c-0.312,0.456-0.948,0.864-1.776,0.864
				c-1.176,0-1.776-0.828-1.776-1.668c0-1.404,1.248-2.172,3.492-2.16v-0.12c0-0.48-0.132-1.356-1.32-1.344
				c-0.552,0-1.116,0.156-1.524,0.432l-0.24-0.708c0.48-0.3,1.188-0.504,1.92-0.504c1.788,0,2.22,1.212,2.22,2.376V106.128z
				 M222.506,104.556c-1.152-0.024-2.46,0.18-2.46,1.308c0,0.696,0.456,1.008,0.984,1.008c0.768,0,1.26-0.48,1.428-0.972
				c0.036-0.108,0.048-0.228,0.048-0.336V104.556z"/>
			<path d="M226.455,100.32v1.392h1.512v0.804h-1.512v3.132c0,0.72,0.204,1.128,0.792,1.128c0.288,0,0.456-0.024,0.612-0.072
				l0.048,0.804c-0.204,0.072-0.528,0.144-0.936,0.144c-0.492,0-0.888-0.168-1.14-0.444c-0.288-0.324-0.408-0.84-0.408-1.524v-3.168
				h-0.9v-0.804h0.9v-1.068L226.455,100.32z"/>
			<path d="M229.922,99.216l-0.192,2.88h-0.648l-0.192-2.88H229.922z"/>
			<path d="M232.178,99.216l-0.192,2.88h-0.648l-0.192-2.88H232.178z"/>
		</g>
		<g>
			<path d="M23.992,0.552c0.672-0.12,1.548-0.18,2.46-0.18c1.548,0,2.556,0.252,3.324,0.84c0.84,0.624,1.368,1.632,1.368,3.072
				c0,1.548-0.564,2.616-1.332,3.276c-0.852,0.708-2.16,1.044-3.744,1.044c-0.948,0-1.632-0.06-2.076-0.12V0.552z M25.816,7.14
				c0.156,0.036,0.42,0.036,0.636,0.036c1.668,0.012,2.76-0.9,2.76-2.832c0-1.74-0.984-2.568-2.568-2.568
				c-0.396,0-0.672,0.036-0.828,0.072V7.14z"/>
			<path d="M35.043,8.652c-1.716,0-3.036-1.128-3.036-3.024s1.248-3.108,3.144-3.108c1.788,0,2.988,1.236,2.988,3.012
				c0,2.136-1.524,3.12-3.084,3.12H35.043z M35.08,7.344c0.72,0,1.164-0.708,1.164-1.764c0-0.864-0.336-1.752-1.164-1.752
				c-0.864,0-1.2,0.888-1.2,1.764c0,0.996,0.42,1.752,1.188,1.752H35.08z"/>
			<path d="M44.799,6.636c0,0.768,0.024,1.392,0.048,1.884h-1.584L43.18,7.692h-0.036c-0.228,0.36-0.78,0.96-1.836,0.96
				c-1.2,0-2.064-0.744-2.064-2.556V2.652h1.824v3.156c0,0.852,0.276,1.368,0.924,1.368c0.504,0,0.804-0.348,0.912-0.636
				c0.048-0.108,0.072-0.24,0.072-0.396V2.652h1.824V6.636z"/>
			<path d="M46.263,0h1.824v3.348h0.024c0.348-0.504,0.96-0.828,1.776-0.828c1.404,0,2.424,1.164,2.412,2.964
				c0,2.112-1.332,3.168-2.676,3.168c-0.684,0-1.356-0.252-1.764-0.948h-0.024L47.764,8.52h-1.548
				c0.024-0.384,0.048-1.092,0.048-1.752V0z M48.087,6.024c0,0.12,0.012,0.228,0.036,0.324c0.12,0.48,0.54,0.864,1.068,0.864
				c0.78,0,1.26-0.6,1.26-1.656c0-0.912-0.408-1.632-1.26-1.632c-0.492,0-0.948,0.372-1.068,0.9C48.1,4.932,48.087,5.04,48.087,5.16
				V6.024z"/>
			<path d="M53.439,0h1.824v8.52h-1.824V0z"/>
			<path d="M58.131,6.156c0.06,0.768,0.804,1.128,1.656,1.128c0.624,0,1.128-0.084,1.62-0.252l0.24,1.236
				c-0.6,0.252-1.332,0.372-2.124,0.372c-1.992,0-3.132-1.152-3.132-3c0-1.488,0.936-3.132,2.964-3.132
				c1.896,0,2.616,1.476,2.616,2.928c0,0.312-0.036,0.588-0.06,0.732L58.131,6.156z M60.279,4.908c0-0.432-0.192-1.188-1.02-1.188
				c-0.78,0-1.092,0.708-1.14,1.188H60.279z"/>
			<path d="M65.607,6.648c0.48,0.252,1.248,0.504,2.028,0.504c0.84,0,1.284-0.348,1.284-0.888c0-0.492-0.384-0.792-1.356-1.128
				c-1.344-0.48-2.232-1.224-2.232-2.412c0-1.38,1.164-2.424,3.06-2.424c0.924,0,1.584,0.18,2.064,0.408l-0.408,1.464
				c-0.312-0.156-0.9-0.384-1.68-0.384c-0.792,0-1.176,0.372-1.176,0.78c0,0.516,0.444,0.744,1.5,1.152
				c1.428,0.528,2.088,1.272,2.088,2.424c0,1.356-1.032,2.508-3.252,2.508c-0.924,0-1.836-0.252-2.292-0.504L65.607,6.648z"/>
			<path d="M71.919,0h1.824v3.36h0.024c0.192-0.264,0.432-0.468,0.72-0.612c0.276-0.144,0.612-0.228,0.948-0.228
				c1.164,0,2.052,0.804,2.052,2.58v3.42h-1.824V5.292c0-0.768-0.264-1.296-0.948-1.296c-0.48,0-0.78,0.312-0.912,0.648
				c-0.048,0.108-0.06,0.264-0.06,0.396v3.48h-1.824V0z"/>
			<path d="M83.835,7.104c0,0.552,0.024,1.092,0.096,1.416h-1.644l-0.108-0.588h-0.036c-0.384,0.468-0.984,0.72-1.68,0.72
				c-1.188,0-1.896-0.864-1.896-1.8c0-1.524,1.368-2.244,3.444-2.244V4.536c0-0.312-0.168-0.756-1.068-0.756
				c-0.6,0-1.236,0.204-1.62,0.432l-0.336-1.164c0.408-0.228,1.212-0.528,2.28-0.528c1.956,0,2.568,1.152,2.568,2.532V7.104z
				 M82.071,5.748c-0.96,0-1.704,0.228-1.704,0.924c0,0.468,0.312,0.696,0.72,0.696c0.444,0,0.828-0.3,0.948-0.672
				c0.024-0.096,0.036-0.204,0.036-0.312V5.748z"/>
			<path d="M85.299,4.584c0-0.864-0.012-1.428-0.048-1.932h1.56l0.072,1.092h0.048c0.3-0.864,1.008-1.224,1.584-1.224
				c0.168,0,0.252,0.012,0.384,0.036v1.716c-0.156-0.024-0.3-0.048-0.504-0.048c-0.672,0-1.128,0.348-1.248,0.924
				c-0.024,0.12-0.036,0.252-0.036,0.408V8.52h-1.824L85.299,4.584z"/>
			<path d="M89.835,4.62c0-0.768-0.024-1.416-0.048-1.968h1.584l0.084,0.816h0.024c0.432-0.612,1.104-0.948,1.956-0.948
				c1.284,0,2.436,1.116,2.436,2.988c0,2.136-1.356,3.144-2.664,3.144c-0.708,0-1.26-0.288-1.524-0.672h-0.024v2.916h-1.824V4.62z
				 M91.659,6c0,0.144,0.012,0.264,0.036,0.384c0.12,0.492,0.54,0.864,1.068,0.864c0.792,0,1.26-0.66,1.26-1.656
				c0-0.936-0.42-1.644-1.236-1.644c-0.516,0-0.972,0.384-1.092,0.924c-0.024,0.096-0.036,0.216-0.036,0.324V6z"/>
			<path d="M167.992,0.552c0.672-0.12,1.548-0.18,2.46-0.18c1.548,0,2.556,0.252,3.324,0.84c0.84,0.624,1.368,1.632,1.368,3.072
				c0,1.548-0.564,2.616-1.332,3.276c-0.852,0.708-2.16,1.044-3.744,1.044c-0.948,0-1.632-0.06-2.076-0.12V0.552z M169.816,7.14
				c0.156,0.036,0.42,0.036,0.636,0.036c1.668,0.012,2.76-0.9,2.76-2.832c0-1.74-0.984-2.568-2.568-2.568
				c-0.396,0-0.672,0.036-0.828,0.072V7.14z"/>
			<path d="M179.043,8.652c-1.716,0-3.036-1.128-3.036-3.024s1.248-3.108,3.144-3.108c1.788,0,2.988,1.236,2.988,3.012
				c0,2.136-1.524,3.12-3.084,3.12H179.043z M179.08,7.344c0.72,0,1.164-0.708,1.164-1.764c0-0.864-0.336-1.752-1.164-1.752
				c-0.864,0-1.2,0.888-1.2,1.764c0,0.996,0.42,1.752,1.188,1.752H179.08z"/>
			<path d="M188.799,6.636c0,0.768,0.024,1.392,0.048,1.884h-1.584l-0.084-0.828h-0.036c-0.228,0.36-0.78,0.96-1.836,0.96
				c-1.2,0-2.064-0.744-2.064-2.556V2.652h1.824v3.156c0,0.852,0.276,1.368,0.924,1.368c0.504,0,0.804-0.348,0.912-0.636
				c0.048-0.108,0.072-0.24,0.072-0.396V2.652h1.824V6.636z"/>
			<path d="M190.263,0h1.824v3.348h0.024c0.348-0.504,0.96-0.828,1.776-0.828c1.404,0,2.424,1.164,2.412,2.964
				c0,2.112-1.332,3.168-2.676,3.168c-0.684,0-1.356-0.252-1.764-0.948h-0.024l-0.072,0.816h-1.548
				c0.024-0.384,0.048-1.092,0.048-1.752V0z M192.087,6.024c0,0.12,0.012,0.228,0.036,0.324c0.12,0.48,0.54,0.864,1.068,0.864
				c0.78,0,1.26-0.6,1.26-1.656c0-0.912-0.408-1.632-1.26-1.632c-0.492,0-0.948,0.372-1.068,0.9
				c-0.024,0.108-0.036,0.216-0.036,0.336V6.024z"/>
			<path d="M197.439,0h1.824v8.52h-1.824V0z"/>
			<path d="M202.131,6.156c0.06,0.768,0.804,1.128,1.656,1.128c0.624,0,1.128-0.084,1.62-0.252l0.24,1.236
				c-0.6,0.252-1.332,0.372-2.124,0.372c-1.992,0-3.132-1.152-3.132-3c0-1.488,0.936-3.132,2.964-3.132
				c1.896,0,2.616,1.476,2.616,2.928c0,0.312-0.036,0.588-0.06,0.732L202.131,6.156z M204.279,4.908c0-0.432-0.192-1.188-1.02-1.188
				c-0.78,0-1.092,0.708-1.14,1.188H204.279z"/>
			<path d="M209.559,0.432h4.932v1.5h-3.108V3.78h2.904v1.488h-2.904V8.52h-1.824V0.432z"/>
			<path d="M215.631,0h1.824v8.52h-1.824V0z"/>
			<path d="M223.803,7.104c0,0.552,0.024,1.092,0.096,1.416h-1.644l-0.108-0.588h-0.036c-0.384,0.468-0.984,0.72-1.68,0.72
				c-1.188,0-1.896-0.864-1.896-1.8c0-1.524,1.368-2.244,3.444-2.244V4.536c0-0.312-0.168-0.756-1.068-0.756
				c-0.6,0-1.236,0.204-1.62,0.432l-0.336-1.164c0.408-0.228,1.212-0.528,2.28-0.528c1.956,0,2.568,1.152,2.568,2.532V7.104z
				 M222.039,5.748c-0.96,0-1.704,0.228-1.704,0.924c0,0.468,0.312,0.696,0.72,0.696c0.444,0,0.828-0.3,0.948-0.672
				c0.024-0.096,0.036-0.204,0.036-0.312V5.748z"/>
			<path d="M227.199,1.056v1.596h1.308v1.344h-1.308v2.136c0,0.708,0.18,1.032,0.72,1.032c0.252,0,0.372-0.012,0.54-0.048
				l0.012,1.38c-0.228,0.084-0.672,0.156-1.176,0.156c-0.588,0-1.08-0.204-1.38-0.504c-0.336-0.348-0.504-0.912-0.504-1.74V3.996
				h-0.78V2.652h0.78V1.548L227.199,1.056z"/>
		</g>
		<g>
			<path stroke="#000000" d="M57.2,20.795h-1.127V19.52H57.2V20.795z"/>
			<path stroke="#000000" d="M57.951,25.443h-1.878v-1.435h1.878V25.443z"/>
			<path stroke="#000000" d="M62.932,20.902h-1.795v-1.276h1.795V20.902z"/>
			<path stroke="#000000" d="M62.363,25.364h-1.795v-1.275h1.795V25.364z"/>
			<g>
				<g>
					<path fill="none" d="M58.138,20.264"/>
					<path d="M58.133,20.313c0.064,0,0.074-0.1,0.01-0.1C58.079,20.214,58.069,20.313,58.133,20.313z"/>
				</g>
			</g>
			<path fill="none" stroke="#000000" d="M57.2,19.52l5.163,4.569"/>
			<path fill="none" stroke="#000000" d="M62.034,20.689l-5.717,2.894"/>
		</g>
		<g>
			<g>
				<path d="M188.824,21.272c0,0.216,0,1.536,0,1.536c0.912-0.816,1.416-0.984,2.424-1.008c1.2-0.024,1.968,1.176,1.992,2.136
					c0.024,0.504-0.12,1.032-0.312,1.44c-0.216,0.528-0.792,0.936-1.176,1.32c-0.432,0.432-3.552,2.568-3.552,2.616V15.128h0.624
					C188.824,15.128,188.848,18.104,188.824,21.272z M189.088,23.648c-0.312,0.6-0.264,1.632-0.264,2.376v2.064
					c0,0.024,0.864-0.72,1.344-1.176c0.432-0.408,0.768-0.864,0.936-1.584c0.192-0.72,0.12-1.488-0.336-1.992
					C190.456,22.976,189.592,22.688,189.088,23.648z"/>
			</g>
			<g>
				<path d="M191.824,20.272c0,0.216,0,1.536,0,1.536c0.912-0.816,1.416-0.984,2.424-1.008c1.2-0.024,1.968,1.176,1.992,2.136
					c0.024,0.504-0.12,1.032-0.312,1.44c-0.216,0.528-0.792,0.936-1.176,1.32c-0.432,0.432-3.552,2.568-3.552,2.616V14.128h0.624
					C191.824,14.128,191.848,17.104,191.824,20.272z M192.088,22.648c-0.312,0.6-0.264,1.632-0.264,2.376v2.064
					c0,0.024,0.864-0.72,1.344-1.176c0.432-0.408,0.768-0.864,0.936-1.584c0.192-0.72,0.12-1.488-0.336-1.992
					C193.456,21.976,192.592,21.688,192.088,22.648z"/>
			</g>
		</g>
	</g>
</svg>
