<?xml version="1.0" encoding="utf-8"?>
<!-- Generator: Adobe Illustrator 10.0, SVG Export Plug-In . SVG Version: 3.0.0 Build 76)  -->
<!DOCTYPE svg PUBLIC "-//W3C//DTD SVG 1.0//EN"    "http://www.w3.org/TR/2001/REC-SVG-20010904/DTD/svg10.dtd" [
	<!ENTITY ns_flows "http://ns.adobe.com/Flows/1.0/">
	<!ENTITY ns_extend "http://ns.adobe.com/Extensibility/1.0/">
	<!ENTITY ns_ai "http://ns.adobe.com/AdobeIllustrator/10.0/">
	<!ENTITY ns_svg "http://www.w3.org/2000/svg">
	<!ENTITY ns_xlink "http://www.w3.org/1999/xlink">
]>
<svg  xmlns:x="&ns_extend;" xmlns:i="&ns_ai;" xmlns:graph="&ns_graphs;"
	 xmlns="&ns_svg;" xmlns:xlink="&ns_xlink;" xmlns:a="http://ns.adobe.com/AdobeSVGViewerExtensions/3.0/" width="327" height="137"
	 viewBox="-0.467 0.256 327 137" overflow="visible" enable-background="new -0.467 0.256 327 137" xml:space="preserve">
	<g id="Layer_1_2_">
		<g>
			<path d="M25.445,53.288c0.456-0.108,1.188-0.18,1.908-0.18c1.044,0,1.716,0.18,2.208,0.588c0.42,0.312,0.684,0.792,0.684,1.428
				c0,0.792-0.528,1.476-1.368,1.776v0.036c0.768,0.18,1.668,0.816,1.668,2.016c0,0.696-0.276,1.224-0.696,1.62
				c-0.552,0.516-1.464,0.756-2.784,0.756c-0.72,0-1.272-0.048-1.62-0.096V53.288z M26.489,56.6h0.948
				c1.092,0,1.74-0.588,1.74-1.368c0-0.936-0.708-1.32-1.764-1.32c-0.48,0-0.756,0.036-0.924,0.072V56.6z M26.489,60.464
				c0.216,0.036,0.504,0.048,0.876,0.048c1.08,0,2.076-0.396,2.076-1.572c0-1.092-0.948-1.56-2.088-1.56h-0.864V60.464z"/>
			<path d="M34.457,57.02c0-0.612-0.024-1.092-0.048-1.572h0.924l0.048,0.936h0.036c0.324-0.552,0.864-1.068,1.836-1.068
				c0.78,0,1.38,0.48,1.632,1.164h0.024c0.18-0.336,0.42-0.576,0.66-0.756c0.348-0.264,0.72-0.408,1.272-0.408
				c0.78,0,1.92,0.504,1.92,2.52v3.42h-1.032v-3.288c0-1.128-0.42-1.788-1.26-1.788c-0.612,0-1.068,0.444-1.26,0.948
				c-0.048,0.156-0.084,0.348-0.084,0.528v3.6h-1.032v-3.48c0-0.936-0.408-1.596-1.212-1.596c-0.648,0-1.14,0.528-1.308,1.056
				c-0.06,0.156-0.084,0.336-0.084,0.516v3.504h-1.032V57.02z"/>
			<path d="M48.557,59.864c0,0.504,0.024,0.996,0.084,1.392h-0.948l-0.096-0.732h-0.036c-0.312,0.456-0.948,0.864-1.776,0.864
				c-1.176,0-1.776-0.828-1.776-1.668c0-1.404,1.248-2.172,3.492-2.16v-0.12c0-0.48-0.132-1.356-1.32-1.344
				c-0.552,0-1.116,0.156-1.524,0.432l-0.24-0.708c0.48-0.3,1.188-0.504,1.92-0.504c1.788,0,2.22,1.212,2.22,2.376V59.864z
				 M47.525,58.292c-1.152-0.024-2.46,0.18-2.46,1.308c0,0.696,0.456,1.008,0.984,1.008c0.768,0,1.26-0.48,1.428-0.972
				c0.036-0.108,0.048-0.228,0.048-0.336V58.292z"/>
			<path d="M48.821,62.96c0.492-0.036,0.9-0.168,1.152-0.444c0.288-0.324,0.408-0.792,0.408-2.184v-4.884h1.056v5.292
				c0,1.128-0.18,1.86-0.696,2.388c-0.468,0.468-1.236,0.66-1.8,0.66L48.821,62.96z M50.885,54.38c-0.396,0-0.66-0.312-0.66-0.684
				s0.276-0.672,0.684-0.672c0.408,0,0.672,0.3,0.672,0.672s-0.252,0.684-0.684,0.684H50.885z"/>
			<path d="M55.529,61.388c-1.56,0-2.784-1.152-2.784-2.988c0-1.944,1.284-3.084,2.88-3.084c1.668,0,2.796,1.212,2.796,2.976
				c0,2.16-1.5,3.096-2.88,3.096H55.529z M55.565,60.596c1.008,0,1.764-0.948,1.764-2.268c0-0.984-0.492-2.22-1.74-2.22
				c-1.236,0-1.776,1.152-1.776,2.256c0,1.272,0.72,2.232,1.74,2.232H55.565z"/>
			<path d="M59.765,57.26c0-0.684-0.012-1.272-0.048-1.812h0.924l0.048,1.14h0.036c0.264-0.78,0.912-1.272,1.62-1.272
				c0.108,0,0.192,0.012,0.288,0.036v0.984c-0.12-0.012-0.228-0.024-0.372-0.024c-0.744,0-1.272,0.564-1.416,1.344
				c-0.024,0.156-0.036,0.324-0.036,0.504v3.096h-1.056L59.765,57.26z"/>
			<path d="M216.173,61.004c-0.372,0.192-1.152,0.384-2.136,0.384c-2.28,0-3.984-1.44-3.984-4.104c0-2.544,1.716-4.248,4.224-4.248
				c0.996,0,1.644,0.216,1.92,0.36l-0.264,0.852c-0.384-0.192-0.948-0.336-1.62-0.336c-1.896,0-3.156,1.212-3.156,3.336
				c0,1.992,1.14,3.252,3.096,3.252c0.648,0,1.296-0.132,1.716-0.336L216.173,61.004z"/>
			<path d="M220.097,61.256v-5.004h-0.804v-0.804h0.804v-0.276c0-0.816,0.192-1.56,0.684-2.028c0.396-0.384,0.924-0.54,1.404-0.54
				c0.384,0,0.696,0.084,0.9,0.168l-0.132,0.816c-0.168-0.072-0.372-0.132-0.684-0.132c-0.888,0-1.128,0.792-1.128,1.68v0.312h1.404
				v0.804h-1.392v5.004H220.097z"/>
			<path d="M223.504,52.736h1.056v8.52h-1.056V52.736z"/>
			<path d="M230.405,59.864c0,0.504,0.024,0.996,0.084,1.392h-0.948l-0.096-0.732h-0.036c-0.312,0.456-0.948,0.864-1.776,0.864
				c-1.176,0-1.776-0.828-1.776-1.668c0-1.404,1.248-2.172,3.492-2.16v-0.12c0-0.48-0.132-1.356-1.32-1.344
				c-0.552,0-1.116,0.156-1.524,0.432l-0.24-0.708c0.48-0.3,1.188-0.504,1.92-0.504c1.788,0,2.22,1.212,2.22,2.376V59.864z
				 M229.373,58.292c-1.152-0.024-2.46,0.18-2.46,1.308c0,0.696,0.456,1.008,0.984,1.008c0.768,0,1.26-0.48,1.428-0.972
				c0.036-0.108,0.048-0.228,0.048-0.336V58.292z"/>
			<path d="M233.32,54.056v1.392h1.512v0.804h-1.512v3.132c0,0.72,0.204,1.128,0.792,1.128c0.288,0,0.456-0.024,0.612-0.072
				l0.048,0.804c-0.204,0.072-0.528,0.144-0.936,0.144c-0.492,0-0.888-0.168-1.14-0.444c-0.288-0.324-0.408-0.84-0.408-1.524v-3.168
				h-0.9v-0.804h0.9V54.38L233.32,54.056z"/>
			<path d="M238.564,57.02c0-0.612-0.024-1.092-0.048-1.572h0.924l0.048,0.936h0.036c0.324-0.552,0.864-1.068,1.836-1.068
				c0.78,0,1.38,0.48,1.632,1.164h0.024c0.18-0.336,0.42-0.576,0.66-0.756c0.348-0.264,0.72-0.408,1.272-0.408
				c0.78,0,1.92,0.504,1.92,2.52v3.42h-1.032v-3.288c0-1.128-0.42-1.788-1.26-1.788c-0.612,0-1.068,0.444-1.26,0.948
				c-0.048,0.156-0.084,0.348-0.084,0.528v3.6H242.2v-3.48c0-0.936-0.408-1.596-1.212-1.596c-0.648,0-1.14,0.528-1.308,1.056
				c-0.06,0.156-0.084,0.336-0.084,0.516v3.504h-1.032V57.02z"/>
			<path d="M252.665,59.864c0,0.504,0.024,0.996,0.084,1.392H251.8l-0.096-0.732h-0.036c-0.312,0.456-0.948,0.864-1.776,0.864
				c-1.176,0-1.776-0.828-1.776-1.668c0-1.404,1.248-2.172,3.492-2.16v-0.12c0-0.48-0.132-1.356-1.32-1.344
				c-0.552,0-1.116,0.156-1.524,0.432l-0.24-0.708c0.48-0.3,1.188-0.504,1.92-0.504c1.788,0,2.22,1.212,2.22,2.376V59.864z
				 M251.632,58.292c-1.152-0.024-2.46,0.18-2.46,1.308c0,0.696,0.456,1.008,0.984,1.008c0.768,0,1.26-0.48,1.428-0.972
				c0.036-0.108,0.048-0.228,0.048-0.336V58.292z"/>
			<path d="M252.928,62.96c0.492-0.036,0.9-0.168,1.152-0.444c0.288-0.324,0.408-0.792,0.408-2.184v-4.884h1.056v5.292
				c0,1.128-0.18,1.86-0.696,2.388c-0.468,0.468-1.236,0.66-1.8,0.66L252.928,62.96z M254.992,54.38c-0.396,0-0.66-0.312-0.66-0.684
				s0.276-0.672,0.684-0.672c0.408,0,0.672,0.3,0.672,0.672s-0.252,0.684-0.684,0.684H254.992z"/>
			<path d="M259.636,61.388c-1.56,0-2.784-1.152-2.784-2.988c0-1.944,1.284-3.084,2.88-3.084c1.668,0,2.796,1.212,2.796,2.976
				c0,2.16-1.5,3.096-2.88,3.096H259.636z M259.672,60.596c1.008,0,1.764-0.948,1.764-2.268c0-0.984-0.492-2.22-1.74-2.22
				c-1.236,0-1.776,1.152-1.776,2.256c0,1.272,0.72,2.232,1.74,2.232H259.672z"/>
			<path d="M263.872,57.26c0-0.684-0.012-1.272-0.048-1.812h0.924l0.048,1.14h0.036c0.264-0.78,0.912-1.272,1.62-1.272
				c0.108,0,0.192,0.012,0.288,0.036v0.984c-0.12-0.012-0.228-0.024-0.372-0.024c-0.744,0-1.272,0.564-1.416,1.344
				c-0.024,0.156-0.036,0.324-0.036,0.504v3.096h-1.056L263.872,57.26z"/>
		</g>
		<g>
			<path d="M21.778,126.955c0.456-0.108,1.188-0.18,1.908-0.18c1.044,0,1.716,0.18,2.208,0.588c0.42,0.312,0.684,0.792,0.684,1.428
				c0,0.792-0.528,1.476-1.368,1.776v0.036c0.768,0.18,1.668,0.816,1.668,2.016c0,0.696-0.276,1.224-0.696,1.62
				c-0.552,0.516-1.464,0.756-2.784,0.756c-0.72,0-1.272-0.048-1.62-0.096V126.955z M22.822,130.267h0.948
				c1.092,0,1.74-0.588,1.74-1.368c0-0.936-0.708-1.32-1.764-1.32c-0.48,0-0.756,0.036-0.924,0.072V130.267z M22.822,134.131
				c0.216,0.036,0.504,0.048,0.876,0.048c1.08,0,2.076-0.396,2.076-1.572c0-1.092-0.948-1.56-2.088-1.56h-0.864V134.131z"/>
			<path d="M30.886,134.923v-5.004h-0.804v-0.804h0.804v-0.276c0-0.816,0.192-1.56,0.684-2.028c0.396-0.384,0.924-0.54,1.404-0.54
				c0.384,0,0.696,0.084,0.9,0.168l-0.132,0.816c-0.168-0.072-0.372-0.132-0.684-0.132c-0.888,0-1.128,0.792-1.128,1.68v0.312h1.404
				v0.804h-1.392v5.004H30.886z"/>
			<path d="M34.294,126.403h1.056v8.52h-1.056V126.403z"/>
			<path d="M41.194,133.531c0,0.504,0.024,0.996,0.084,1.392H40.33l-0.096-0.732h-0.036c-0.312,0.456-0.948,0.864-1.776,0.864
				c-1.176,0-1.776-0.828-1.776-1.668c0-1.404,1.248-2.172,3.492-2.16v-0.12c0-0.48-0.132-1.356-1.32-1.344
				c-0.552,0-1.116,0.156-1.524,0.432l-0.24-0.708c0.48-0.3,1.188-0.504,1.92-0.504c1.788,0,2.22,1.212,2.22,2.376V133.531z
				 M40.162,131.959c-1.152-0.024-2.46,0.18-2.46,1.308c0,0.696,0.456,1.008,0.984,1.008c0.768,0,1.26-0.48,1.428-0.972
				c0.036-0.108,0.048-0.228,0.048-0.336V131.959z"/>
			<path d="M44.11,127.723v1.392h1.512v0.804H44.11v3.132c0,0.72,0.204,1.128,0.792,1.128c0.288,0,0.456-0.024,0.612-0.072
				l0.048,0.804c-0.204,0.072-0.528,0.144-0.936,0.144c-0.492,0-0.888-0.168-1.14-0.444c-0.288-0.324-0.408-0.84-0.408-1.524v-3.168
				h-0.9v-0.804h0.9v-1.068L44.11,127.723z"/>
			<path d="M49.354,130.687c0-0.612-0.024-1.092-0.048-1.572h0.924l0.048,0.936h0.036c0.324-0.552,0.864-1.068,1.836-1.068
				c0.78,0,1.38,0.48,1.632,1.164h0.024c0.18-0.336,0.42-0.576,0.66-0.756c0.348-0.264,0.72-0.408,1.272-0.408
				c0.78,0,1.92,0.504,1.92,2.52v3.42h-1.032v-3.288c0-1.128-0.42-1.788-1.26-1.788c-0.612,0-1.068,0.444-1.26,0.948
				c-0.048,0.156-0.084,0.348-0.084,0.528v3.6H52.99v-3.48c0-0.936-0.408-1.596-1.212-1.596c-0.648,0-1.14,0.528-1.308,1.056
				c-0.06,0.156-0.084,0.336-0.084,0.516v3.504h-1.032V130.687z"/>
			<path d="M59.866,128.047c-0.396,0-0.66-0.312-0.66-0.684s0.276-0.672,0.684-0.672s0.672,0.3,0.672,0.672
				s-0.264,0.684-0.684,0.684H59.866z M59.362,134.923v-5.808h1.056v5.808H59.362z"/>
			<path d="M62.169,130.687c0-0.612-0.012-1.092-0.048-1.572h0.936l0.06,0.948h0.024c0.288-0.54,0.96-1.08,1.92-1.08
				c0.804,0,2.052,0.48,2.052,2.472v3.468h-1.056v-3.348c0-0.936-0.348-1.728-1.344-1.728c-0.684,0-1.224,0.492-1.416,1.08
				c-0.048,0.132-0.072,0.324-0.072,0.492v3.504h-1.056V130.687z"/>
			<path d="M71.193,135.055c-1.56,0-2.784-1.152-2.784-2.988c0-1.944,1.284-3.084,2.88-3.084c1.668,0,2.796,1.212,2.796,2.976
				c0,2.16-1.5,3.096-2.88,3.096H71.193z M71.229,134.263c1.008,0,1.764-0.948,1.764-2.268c0-0.984-0.492-2.22-1.74-2.22
				c-1.236,0-1.776,1.152-1.776,2.256c0,1.272,0.72,2.232,1.74,2.232H71.229z"/>
			<path d="M75.429,130.927c0-0.684-0.012-1.272-0.048-1.812h0.924l0.048,1.14h0.036c0.264-0.78,0.912-1.272,1.62-1.272
				c0.108,0,0.192,0.012,0.288,0.036v0.984c-0.12-0.012-0.228-0.024-0.372-0.024c-0.744,0-1.272,0.564-1.416,1.344
				c-0.024,0.156-0.036,0.324-0.036,0.504v3.096h-1.056L75.429,130.927z"/>
			<path d="M213.262,132.379l-0.84,2.544h-1.08l2.748-8.088h1.26l2.76,8.088h-1.116l-0.864-2.544H213.262z M215.914,131.563
				l-0.804-2.328c-0.168-0.528-0.288-1.008-0.408-1.476h-0.036c-0.108,0.468-0.24,0.972-0.396,1.464l-0.792,2.34H215.914z"/>
			<path d="M221.662,133.855c0.324,0.192,0.876,0.408,1.404,0.408c0.756,0,1.116-0.372,1.116-0.864c0-0.504-0.3-0.78-1.068-1.068
				c-1.056-0.384-1.548-0.948-1.548-1.644c0-0.936,0.768-1.704,2.004-1.704c0.588,0,1.104,0.156,1.416,0.36l-0.252,0.756
				c-0.228-0.132-0.648-0.336-1.188-0.336c-0.624,0-0.96,0.36-0.96,0.792c0,0.492,0.336,0.708,1.092,0.996
				c0.996,0.372,1.524,0.876,1.524,1.752c0,1.032-0.804,1.752-2.16,1.752c-0.636,0-1.224-0.168-1.632-0.408L221.662,133.855z"/>
			<path d="M226.558,126.403h1.056v3.624h0.024c0.168-0.3,0.432-0.576,0.756-0.744c0.312-0.192,0.684-0.3,1.08-0.3
				c0.78,0,2.028,0.48,2.028,2.484v3.456h-1.056v-3.336c0-0.948-0.348-1.728-1.344-1.728c-0.684,0-1.212,0.48-1.416,1.056
				c-0.06,0.144-0.072,0.3-0.072,0.504v3.504h-1.056V126.403z"/>
			<path d="M237.31,133.531c0,0.504,0.024,0.996,0.084,1.392h-0.948l-0.096-0.732h-0.036c-0.312,0.456-0.948,0.864-1.776,0.864
				c-1.176,0-1.776-0.828-1.776-1.668c0-1.404,1.248-2.172,3.492-2.16v-0.12c0-0.48-0.132-1.356-1.32-1.344
				c-0.552,0-1.116,0.156-1.524,0.432l-0.24-0.708c0.48-0.3,1.188-0.504,1.92-0.504c1.788,0,2.22,1.212,2.22,2.376V133.531z
				 M236.277,131.959c-1.152-0.024-2.46,0.18-2.46,1.308c0,0.696,0.456,1.008,0.984,1.008c0.768,0,1.26-0.48,1.428-0.972
				c0.036-0.108,0.048-0.228,0.048-0.336V131.959z"/>
			<path d="M239.014,130.927c0-0.684-0.012-1.272-0.048-1.812h0.924l0.048,1.14h0.036c0.264-0.78,0.912-1.272,1.62-1.272
				c0.108,0,0.192,0.012,0.288,0.036v0.984c-0.12-0.012-0.228-0.024-0.372-0.024c-0.744,0-1.272,0.564-1.416,1.344
				c-0.024,0.156-0.036,0.324-0.036,0.504v3.096h-1.056L239.014,130.927z"/>
			<path d="M242.973,131.011c0-0.744-0.012-1.344-0.048-1.896h0.948l0.06,0.996h0.024c0.42-0.72,1.116-1.128,2.052-1.128
				c1.416,0,2.472,1.188,2.472,2.952c0,2.088-1.284,3.12-2.64,3.12c-0.78,0-1.44-0.336-1.788-0.912h-0.024v3.156h-1.056V131.011z
				 M244.029,132.559c0,0.144,0.012,0.3,0.048,0.432c0.18,0.732,0.828,1.236,1.572,1.236c1.116,0,1.764-0.912,1.764-2.244
				c0-1.164-0.6-2.16-1.716-2.16c-0.72,0-1.404,0.504-1.608,1.296c-0.024,0.144-0.06,0.3-0.06,0.432V132.559z"/>
			<path d="M252.345,130.687c0-0.612-0.024-1.092-0.048-1.572h0.924l0.048,0.936h0.036c0.324-0.552,0.864-1.068,1.836-1.068
				c0.78,0,1.38,0.48,1.632,1.164h0.024c0.18-0.336,0.42-0.576,0.66-0.756c0.348-0.264,0.72-0.408,1.272-0.408
				c0.78,0,1.92,0.504,1.92,2.52v3.42h-1.032v-3.288c0-1.128-0.42-1.788-1.26-1.788c-0.612,0-1.068,0.444-1.26,0.948
				c-0.048,0.156-0.084,0.348-0.084,0.528v3.6h-1.032v-3.48c0-0.936-0.408-1.596-1.212-1.596c-0.648,0-1.14,0.528-1.308,1.056
				c-0.06,0.156-0.084,0.336-0.084,0.516v3.504h-1.032V130.687z"/>
			<path d="M262.857,128.047c-0.396,0-0.66-0.312-0.66-0.684s0.276-0.672,0.684-0.672c0.408,0,0.672,0.3,0.672,0.672
				s-0.264,0.684-0.684,0.684H262.857z M262.353,134.923v-5.808h1.056v5.808H262.353z"/>
			<path d="M265.161,130.687c0-0.612-0.012-1.092-0.048-1.572h0.936l0.06,0.948h0.024c0.288-0.54,0.96-1.08,1.92-1.08
				c0.804,0,2.052,0.48,2.052,2.472v3.468h-1.056v-3.348c0-0.936-0.348-1.728-1.344-1.728c-0.684,0-1.224,0.492-1.416,1.08
				c-0.048,0.132-0.072,0.324-0.072,0.492v3.504h-1.056V130.687z"/>
			<path d="M274.185,135.055c-1.56,0-2.784-1.152-2.784-2.988c0-1.944,1.284-3.084,2.88-3.084c1.668,0,2.796,1.212,2.796,2.976
				c0,2.16-1.5,3.096-2.88,3.096H274.185z M274.221,134.263c1.008,0,1.764-0.948,1.764-2.268c0-0.984-0.492-2.22-1.74-2.22
				c-1.236,0-1.776,1.152-1.776,2.256c0,1.272,0.72,2.232,1.74,2.232H274.221z"/>
			<path d="M278.421,130.927c0-0.684-0.012-1.272-0.048-1.812h0.924l0.048,1.14h0.036c0.264-0.78,0.912-1.272,1.62-1.272
				c0.108,0,0.192,0.012,0.288,0.036v0.984c-0.12-0.012-0.228-0.024-0.372-0.024c-0.744,0-1.272,0.564-1.416,1.344
				c-0.024,0.156-0.036,0.324-0.036,0.504v3.096h-1.056L278.421,130.927z"/>
		</g>
		<g>
			<path fill="none" stroke="#000000" d="M0.039,10.421h143.252"/>
			<path fill="none" stroke="#000000" d="M0.039,24.533h143.252"/>
			<path fill="none" stroke="#000000" d="M0.109,31.656h143.252"/>
			<path fill="none" stroke="#000000" d="M0,39.04h143.252"/>
			<path fill="none" stroke="#000000" d="M0,17.675h143.252"/>
		</g>
		<g>
			<path d="M28.232,6.512V2.6h0.696v3.672l2.352-0.768V2h0.696v3.288l0.936-0.312v2.496l-0.936,0.312v3.552l0.936-0.288v2.472
				l-0.936,0.312v3.912H31.28v-3.696l-2.352,0.768v3.552h-0.696v-3.312L27.2,15.392v-2.496l1.032-0.336V8.984L27.2,9.32V6.848
				L28.232,6.512z M28.928,8.768v3.576l2.352-0.768V8L28.928,8.768z"/>
		</g>
		<g>
			<path d="M12.152,38.944c-4.944-2.352-5.736-5.376-5.952-8.472c-0.24-3.36,1.896-6.768,3.888-8.664
				c1.152-1.08,2.4-2.136,3.888-3.264c-0.048-0.84-0.24-1.176-0.336-2.376c-0.024-0.504-0.336-2.856,0.168-5.568
				c0.312-1.608,2.328-5.4,3.72-5.424c1.08-0.024,2.736,4.296,2.784,6.456c0.072,3.336-0.72,4.848-1.704,6.576
				c-0.504,0.864-1.032,1.464-1.584,2.136c-0.576,0.696-1.224,1.104-1.824,1.632c0,0,0.768,4.344,0.792,4.656
				c1.536-0.192,3.408,0.36,4.08,0.84c1.704,1.272,2.352,3.024,2.472,4.728c0.216,2.712-1.272,5.568-4.56,6.936
				c0,0,0.504,3.456,0.624,4.176c0.264,1.896,0.216,3.096-0.192,3.864c-0.696,1.296-1.824,2.496-4.008,2.64
				c-1.68,0.096-4.992-0.744-5.16-3.384c-0.096-1.56,0.6-3.24,2.496-3.36c1.152-0.096,2.52,0.864,2.616,2.232
				c0.096,1.176-0.672,2.4-2.664,2.952c0.312,0.432,1.248,0.936,2.592,0.936c1.392,0,2.832-0.936,3.528-2.184
				c0.432-0.816,0.384-2.28,0.216-3.624c-0.072-0.456-0.648-4.08-0.648-4.08C15.608,39.592,13.16,39.424,12.152,38.944z
				 M12.632,33.256c0.048,1.152,1.008,2.496,1.896,2.952c-0.12,0.072-0.24,0.264-0.24,0.264c-0.984-0.48-1.824-1.272-2.04-1.56
				c-0.696-0.936-0.984-1.464-1.08-2.88c-0.096-1.32,0.624-3.096,2.232-4.344c0.84-0.624,1.248-0.768,1.968-0.936l-0.72-4.344
				c-0.744,0.432-3.816,2.904-5.112,4.92c-1.152,1.8-1.848,3.24-1.704,5.016c0.288,4.008,4.68,7.296,9.432,6.168
				c0,0-1.416-8.52-1.392-8.52C13.256,30.088,12.56,32.104,12.632,33.256z M14.576,18.04c2.088-1.632,4.92-4.704,4.752-7.08
				c-0.048-0.744-0.36-2.088-1.44-2.064C15.416,8.92,14.024,14.08,14.576,18.04z M17.84,38.32c2.76-0.936,2.88-3.312,2.784-4.728
				c-0.096-1.176-0.624-3.816-4.128-3.648L17.84,38.32z"/>
		</g>
		<g>
			<path d="M28.824,92.008c0,0.216,0,1.536,0,1.536c0.912-0.816,1.416-0.984,2.424-1.008c1.2-0.024,1.968,1.176,1.992,2.136
				c0.024,0.504-0.12,1.032-0.312,1.44c-0.216,0.528-0.792,0.936-1.176,1.32C31.32,97.864,28.2,100,28.2,100.048V85.864h0.624
				C28.824,85.864,28.848,88.84,28.824,92.008z M29.088,94.384c-0.312,0.6-0.264,1.632-0.264,2.376v2.064
				c0,0.024,0.864-0.72,1.344-1.176c0.432-0.408,0.768-0.864,0.936-1.584c0.192-0.72,0.12-1.488-0.336-1.992
				C30.456,93.712,29.592,93.424,29.088,94.384z"/>
		</g>
		<g>
			<path fill="none" stroke="#000000" d="M181.039,10.421h143.252"/>
			<path fill="none" stroke="#000000" d="M181.039,24.533h143.252"/>
			<path fill="none" stroke="#000000" d="M181.109,31.656h143.252"/>
			<path fill="none" stroke="#000000" d="M181,39.04h143.252"/>
			<path fill="none" stroke="#000000" d="M181,17.675h143.252"/>
		</g>
		<g>
			<path d="M193.152,38.944c-4.944-2.352-5.736-5.376-5.952-8.472c-0.24-3.36,1.896-6.768,3.888-8.664
				c1.152-1.08,2.4-2.136,3.888-3.264c-0.048-0.84-0.24-1.176-0.336-2.376c-0.024-0.504-0.336-2.856,0.168-5.568
				c0.312-1.608,2.328-5.4,3.72-5.424c1.08-0.024,2.736,4.296,2.784,6.456c0.072,3.336-0.72,4.848-1.704,6.576
				c-0.504,0.864-1.032,1.464-1.584,2.136c-0.576,0.696-1.224,1.104-1.824,1.632c0,0,0.768,4.344,0.792,4.656
				c1.536-0.192,3.408,0.36,4.08,0.84c1.704,1.272,2.352,3.024,2.472,4.728c0.216,2.712-1.272,5.568-4.56,6.936
				c0,0,0.504,3.456,0.624,4.176c0.264,1.896,0.216,3.096-0.192,3.864c-0.696,1.296-1.824,2.496-4.008,2.64
				c-1.68,0.096-4.992-0.744-5.16-3.384c-0.096-1.56,0.6-3.24,2.496-3.36c1.152-0.096,2.52,0.864,2.616,2.232
				c0.096,1.176-0.672,2.4-2.664,2.952c0.312,0.432,1.248,0.936,2.592,0.936c1.392,0,2.832-0.936,3.528-2.184
				c0.432-0.816,0.384-2.28,0.216-3.624c-0.072-0.456-0.648-4.08-0.648-4.08C196.608,39.592,194.16,39.424,193.152,38.944z
				 M193.632,33.256c0.048,1.152,1.008,2.496,1.896,2.952c-0.12,0.072-0.24,0.264-0.24,0.264c-0.984-0.48-1.824-1.272-2.04-1.56
				c-0.696-0.936-0.984-1.464-1.08-2.88c-0.096-1.32,0.624-3.096,2.232-4.344c0.84-0.624,1.248-0.768,1.968-0.936l-0.72-4.344
				c-0.744,0.432-3.816,2.904-5.112,4.92c-1.152,1.8-1.848,3.24-1.704,5.016c0.288,4.008,4.68,7.296,9.432,6.168
				c0,0-1.416-8.52-1.392-8.52C194.256,30.088,193.56,32.104,193.632,33.256z M195.576,18.04c2.088-1.632,4.92-4.704,4.752-7.08
				c-0.048-0.744-0.36-2.088-1.44-2.064C196.416,8.92,195.024,14.08,195.576,18.04z M198.84,38.32
				c2.76-0.936,2.88-3.312,2.784-4.728c-0.096-1.176-0.624-3.816-4.128-3.648L198.84,38.32z"/>
		</g>
		<g>
			<path fill="none" stroke="#000000" d="M0.039,81.421h143.252"/>
			<path fill="none" stroke="#000000" d="M0.039,95.533h143.252"/>
			<path fill="none" stroke="#000000" d="M0.109,102.656h143.252"/>
			<path fill="none" stroke="#000000" d="M0,110.04h143.252"/>
			<path fill="none" stroke="#000000" d="M0,88.675h143.252"/>
		</g>
		<g>
			<path d="M12.152,109.944c-4.944-2.352-5.736-5.376-5.952-8.472c-0.24-3.36,1.896-6.768,3.888-8.664
				c1.152-1.08,2.4-2.136,3.888-3.264c-0.048-0.84-0.24-1.176-0.336-2.376c-0.024-0.504-0.336-2.856,0.168-5.568
				c0.312-1.608,2.328-5.4,3.72-5.424c1.08-0.024,2.736,4.296,2.784,6.456c0.072,3.336-0.72,4.848-1.704,6.576
				c-0.504,0.864-1.032,1.464-1.584,2.136c-0.576,0.696-1.224,1.104-1.824,1.632c0,0,0.768,4.344,0.792,4.656
				c1.536-0.192,3.408,0.36,4.08,0.84c1.704,1.272,2.352,3.024,2.472,4.728c0.216,2.712-1.272,5.568-4.56,6.936
				c0,0,0.504,3.456,0.624,4.176c0.264,1.896,0.216,3.096-0.192,3.864c-0.696,1.296-1.824,2.496-4.008,2.64
				c-1.68,0.096-4.992-0.744-5.16-3.384c-0.096-1.56,0.6-3.24,2.496-3.36c1.152-0.096,2.52,0.864,2.616,2.232
				c0.096,1.176-0.672,2.4-2.664,2.952c0.312,0.432,1.248,0.936,2.592,0.936c1.392,0,2.832-0.936,3.528-2.184
				c0.432-0.816,0.384-2.28,0.216-3.624c-0.072-0.456-0.648-4.08-0.648-4.08C15.608,110.592,13.16,110.424,12.152,109.944z
				 M12.632,104.256c0.048,1.152,1.008,2.496,1.896,2.952c-0.12,0.072-0.24,0.264-0.24,0.264c-0.984-0.48-1.824-1.272-2.04-1.56
				c-0.696-0.936-0.984-1.464-1.08-2.88c-0.096-1.32,0.624-3.096,2.232-4.344c0.84-0.624,1.248-0.768,1.968-0.936l-0.72-4.344
				c-0.744,0.432-3.816,2.904-5.112,4.92c-1.152,1.8-1.848,3.24-1.704,5.016c0.288,4.008,4.68,7.296,9.432,6.168
				c0,0-1.416-8.52-1.392-8.52C13.256,101.088,12.56,103.104,12.632,104.256z M14.576,89.04c2.088-1.632,4.92-4.704,4.752-7.08
				c-0.048-0.744-0.36-2.088-1.44-2.064C15.416,79.92,14.024,85.08,14.576,89.04z M17.84,109.32c2.76-0.936,2.88-3.312,2.784-4.728
				c-0.096-1.176-0.624-3.816-4.128-3.648L17.84,109.32z"/>
		</g>
		<g>
			<path d="M36.824,81.008c0,0.216,0,1.536,0,1.536c0.912-0.816,1.416-0.984,2.424-1.008c1.2-0.024,1.968,1.176,1.992,2.136
				c0.024,0.504-0.12,1.032-0.312,1.44c-0.216,0.528-0.792,0.936-1.176,1.32C39.32,86.864,36.2,89,36.2,89.048V74.864h0.624
				C36.824,74.864,36.848,77.84,36.824,81.008z M37.088,83.384c-0.312,0.6-0.264,1.632-0.264,2.376v2.064
				c0,0.024,0.864-0.72,1.344-1.176c0.432-0.408,0.768-0.864,0.936-1.584c0.192-0.72,0.12-1.488-0.336-1.992
				C38.456,82.712,37.592,82.424,37.088,83.384z"/>
		</g>
		<g>
			<path d="M42.824,95.008c0,0.216,0,1.536,0,1.536c0.912-0.816,1.416-0.984,2.424-1.008c1.2-0.024,1.968,1.176,1.992,2.136
				c0.024,0.504-0.12,1.032-0.312,1.44c-0.216,0.528-0.792,0.936-1.176,1.32C45.32,100.864,42.2,103,42.2,103.048V88.864h0.624
				C42.824,88.864,42.848,91.84,42.824,95.008z M43.088,97.384c-0.312,0.6-0.264,1.632-0.264,2.376v2.064
				c0,0.024,0.864-0.72,1.344-1.176c0.432-0.408,0.768-0.864,0.936-1.584c0.192-0.72,0.12-1.488-0.336-1.992
				C44.456,96.712,43.592,96.424,43.088,97.384z"/>
		</g>
		<g>
			<path d="M50.824,85.008c0,0.216,0,1.536,0,1.536c0.912-0.816,1.416-0.984,2.424-1.008c1.2-0.024,1.968,1.176,1.992,2.136
				c0.024,0.504-0.12,1.032-0.312,1.44c-0.216,0.528-0.792,0.936-1.176,1.32C53.32,90.864,50.2,93,50.2,93.048V78.864h0.624
				C50.824,78.864,50.848,81.84,50.824,85.008z M51.088,87.384c-0.312,0.6-0.264,1.632-0.264,2.376v2.064
				c0,0.024,0.864-0.72,1.344-1.176c0.432-0.408,0.768-0.864,0.936-1.584c0.192-0.72,0.12-1.488-0.336-1.992
				C52.456,86.712,51.592,86.424,51.088,87.384z"/>
		</g>
		<g>
			<path d="M57.824,99.008c0,0.216,0,1.536,0,1.536c0.912-0.816,1.416-0.984,2.424-1.008c1.2-0.024,1.968,1.176,1.992,2.136
				c0.024,0.504-0.12,1.032-0.312,1.44c-0.216,0.528-0.792,0.936-1.176,1.32C60.32,104.864,57.2,107,57.2,107.048V92.864h0.624
				C57.824,92.864,57.848,95.84,57.824,99.008z M58.088,101.384c-0.312,0.6-0.264,1.632-0.264,2.376v2.064
				c0,0.024,0.864-0.72,1.344-1.176c0.432-0.408,0.768-0.864,0.936-1.584c0.192-0.72,0.12-1.488-0.336-1.992
				C59.456,100.712,58.592,100.424,58.088,101.384z"/>
		</g>
		<g>
			<path d="M36.232,17.512V13.6h0.696v3.672l2.352-0.768V13h0.696v3.288l0.936-0.312v2.496l-0.936,0.312v3.552l0.936-0.288v2.472
				l-0.936,0.312v3.912H39.28v-3.696l-2.352,0.768v3.552h-0.696v-3.312L35.2,26.392v-2.496l1.032-0.336v-3.576L35.2,20.32v-2.472
				L36.232,17.512z M36.928,19.768v3.576l2.352-0.768V19L36.928,19.768z"/>
		</g>
		<g>
			<path d="M43.232,4.512V0.6h0.696v3.672l2.352-0.768V0h0.696v3.288l0.936-0.312v2.496l-0.936,0.312v3.552l0.936-0.288v2.472
				l-0.936,0.312v3.912H46.28v-3.696l-2.352,0.768v3.552h-0.696v-3.312L42.2,13.392v-2.496l1.032-0.336V6.984L42.2,7.32V4.848
				L43.232,4.512z M43.928,6.768v3.576l2.352-0.768V6L43.928,6.768z"/>
		</g>
		<g>
			<path d="M52.232,14.512V10.6h0.696v3.672l2.352-0.768V10h0.696v3.288l0.936-0.312v2.496l-0.936,0.312v3.552l0.936-0.288v2.472
				l-0.936,0.312v3.912H55.28v-3.696l-2.352,0.768v3.552h-0.696v-3.312L51.2,23.392v-2.496l1.032-0.336v-3.576L51.2,17.32v-2.472
				L52.232,14.512z M52.928,16.768v3.576l2.352-0.768V16L52.928,16.768z"/>
		</g>
		<g>
			<path d="M61.232,24.512V20.6h0.696v3.672l2.352-0.768V20h0.696v3.288l0.936-0.312v2.496l-0.936,0.312v3.552l0.936-0.288v2.472
				l-0.936,0.312v3.912H64.28v-3.696l-2.352,0.768v3.552h-0.696v-3.312L60.2,33.392v-2.496l1.032-0.336v-3.576L60.2,27.32v-2.472
				L61.232,24.512z M61.928,26.768v3.576l2.352-0.768V26L61.928,26.768z"/>
		</g>
		<g>
			<path fill="none" stroke="#000000" d="M183.039,81.421h143.252"/>
			<path fill="none" stroke="#000000" d="M183.039,95.533h143.252"/>
			<path fill="none" stroke="#000000" d="M183.109,102.656h143.252"/>
			<path fill="none" stroke="#000000" d="M183,110.04h143.252"/>
			<path fill="none" stroke="#000000" d="M183,88.675h143.252"/>
		</g>
		<g>
			<path d="M195.152,109.944c-4.944-2.352-5.736-5.376-5.952-8.472c-0.24-3.36,1.896-6.768,3.888-8.664
				c1.152-1.08,2.4-2.136,3.888-3.264c-0.048-0.84-0.24-1.176-0.336-2.376c-0.024-0.504-0.336-2.856,0.168-5.568
				c0.312-1.608,2.328-5.4,3.72-5.424c1.08-0.024,2.736,4.296,2.784,6.456c0.072,3.336-0.72,4.848-1.704,6.576
				c-0.504,0.864-1.032,1.464-1.584,2.136c-0.576,0.696-1.224,1.104-1.824,1.632c0,0,0.768,4.344,0.792,4.656
				c1.536-0.192,3.408,0.36,4.08,0.84c1.704,1.272,2.352,3.024,2.472,4.728c0.216,2.712-1.272,5.568-4.56,6.936
				c0,0,0.504,3.456,0.624,4.176c0.264,1.896,0.216,3.096-0.192,3.864c-0.696,1.296-1.824,2.496-4.008,2.64
				c-1.68,0.096-4.992-0.744-5.16-3.384c-0.096-1.56,0.6-3.24,2.496-3.36c1.152-0.096,2.52,0.864,2.616,2.232
				c0.096,1.176-0.672,2.4-2.664,2.952c0.312,0.432,1.248,0.936,2.592,0.936c1.392,0,2.832-0.936,3.528-2.184
				c0.432-0.816,0.384-2.28,0.216-3.624c-0.072-0.456-0.648-4.08-0.648-4.08C198.608,110.592,196.16,110.424,195.152,109.944z
				 M195.632,104.256c0.048,1.152,1.008,2.496,1.896,2.952c-0.12,0.072-0.24,0.264-0.24,0.264c-0.984-0.48-1.824-1.272-2.04-1.56
				c-0.696-0.936-0.984-1.464-1.08-2.88c-0.096-1.32,0.624-3.096,2.232-4.344c0.84-0.624,1.248-0.768,1.968-0.936l-0.72-4.344
				c-0.744,0.432-3.816,2.904-5.112,4.92c-1.152,1.8-1.848,3.24-1.704,5.016c0.288,4.008,4.68,7.296,9.432,6.168
				c0,0-1.416-8.52-1.392-8.52C196.256,101.088,195.56,103.104,195.632,104.256z M197.576,89.04c2.088-1.632,4.92-4.704,4.752-7.08
				c-0.048-0.744-0.36-2.088-1.44-2.064C198.416,79.92,197.024,85.08,197.576,89.04z M200.84,109.32
				c2.76-0.936,2.88-3.312,2.784-4.728c-0.096-1.176-0.624-3.816-4.128-3.648L200.84,109.32z"/>
		</g>
		<g>
			<path d="M208.824,20.675c0,0.216,0,1.536,0,1.536c0.912-0.816,1.416-0.984,2.424-1.008c1.2-0.024,1.968,1.176,1.992,2.136
				c0.024,0.504-0.12,1.032-0.312,1.44c-0.216,0.528-0.792,0.936-1.176,1.32c-0.432,0.432-3.552,2.568-3.552,2.616V14.531h0.624
				C208.824,14.531,208.848,17.507,208.824,20.675z M209.088,23.051c-0.312,0.6-0.264,1.632-0.264,2.376v2.064
				c0,0.024,0.864-0.72,1.344-1.176c0.432-0.408,0.768-0.864,0.936-1.584c0.192-0.72,0.12-1.488-0.336-1.992
				C210.456,22.379,209.592,22.091,209.088,23.051z"/>
		</g>
		<g>
			<path d="M216.824,9.675c0,0.216,0,1.536,0,1.536c0.912-0.816,1.416-0.984,2.424-1.008c1.2-0.024,1.968,1.176,1.992,2.136
				c0.024,0.504-0.12,1.032-0.312,1.44c-0.216,0.528-0.792,0.936-1.176,1.32c-0.432,0.432-3.552,2.568-3.552,2.616V3.531h0.624
				C216.824,3.531,216.848,6.507,216.824,9.675z M217.088,12.051c-0.312,0.6-0.264,1.632-0.264,2.376v2.064
				c0,0.024,0.864-0.72,1.344-1.176c0.432-0.408,0.768-0.864,0.936-1.584c0.192-0.72,0.12-1.488-0.336-1.992
				C218.456,11.379,217.592,11.091,217.088,12.051z"/>
		</g>
		<g>
			<path d="M222.824,23.675c0,0.216,0,1.536,0,1.536c0.912-0.816,1.416-0.984,2.424-1.008c1.2-0.024,1.968,1.176,1.992,2.136
				c0.024,0.504-0.12,1.032-0.312,1.44c-0.216,0.528-0.792,0.936-1.176,1.32c-0.432,0.432-3.552,2.568-3.552,2.616V17.531h0.624
				C222.824,17.531,222.848,20.507,222.824,23.675z M223.088,26.051c-0.312,0.6-0.264,1.632-0.264,2.376v2.064
				c0,0.024,0.864-0.72,1.344-1.176c0.432-0.408,0.768-0.864,0.936-1.584c0.192-0.72,0.12-1.488-0.336-1.992
				C224.456,25.379,223.592,25.091,223.088,26.051z"/>
		</g>
		<g>
			<path d="M230.824,13.675c0,0.216,0,1.536,0,1.536c0.912-0.816,1.416-0.984,2.424-1.008c1.2-0.024,1.968,1.176,1.992,2.136
				c0.024,0.504-0.12,1.032-0.312,1.44c-0.216,0.528-0.792,0.936-1.176,1.32c-0.432,0.432-3.552,2.568-3.552,2.616V7.531h0.624
				C230.824,7.531,230.848,10.507,230.824,13.675z M231.088,16.051c-0.312,0.6-0.264,1.632-0.264,2.376v2.064
				c0,0.024,0.864-0.72,1.344-1.176c0.432-0.408,0.768-0.864,0.936-1.584c0.192-0.72,0.12-1.488-0.336-1.992
				C232.456,15.379,231.592,15.091,231.088,16.051z"/>
		</g>
		<g>
			<path d="M237.824,27.675c0,0.216,0,1.536,0,1.536c0.912-0.816,1.416-0.984,2.424-1.008c1.2-0.024,1.968,1.176,1.992,2.136
				c0.024,0.504-0.12,1.032-0.312,1.44c-0.216,0.528-0.792,0.936-1.176,1.32c-0.432,0.432-3.552,2.568-3.552,2.616V21.531h0.624
				C237.824,21.531,237.848,24.507,237.824,27.675z M238.088,30.051c-0.312,0.6-0.264,1.632-0.264,2.376v2.064
				c0,0.024,0.864-0.72,1.344-1.176c0.432-0.408,0.768-0.864,0.936-1.584c0.192-0.72,0.12-1.488-0.336-1.992
				C239.456,29.379,238.592,29.091,238.088,30.051z"/>
		</g>
		<g>
			<path d="M245.824,17.008c0,0.216,0,1.536,0,1.536c0.912-0.816,1.416-0.984,2.424-1.008c1.2-0.024,1.968,1.176,1.992,2.136
				c0.024,0.504-0.12,1.032-0.312,1.44c-0.216,0.528-0.792,0.936-1.176,1.32C248.32,22.864,245.2,25,245.2,25.048V10.864h0.624
				C245.824,10.864,245.848,13.84,245.824,17.008z M246.088,19.384c-0.312,0.6-0.264,1.632-0.264,2.376v2.064
				c0,0.024,0.864-0.72,1.344-1.176c0.432-0.408,0.768-0.864,0.936-1.584c0.192-0.72,0.12-1.488-0.336-1.992
				C247.456,18.712,246.592,18.424,246.088,19.384z"/>
		</g>
		<g>
			<path d="M252.824,31.008c0,0.216,0,1.536,0,1.536c0.912-0.816,1.416-0.984,2.424-1.008c1.2-0.024,1.968,1.176,1.992,2.136
				c0.024,0.504-0.12,1.032-0.312,1.44c-0.216,0.528-0.792,0.936-1.176,1.32C255.32,36.864,252.2,39,252.2,39.048V24.864h0.624
				C252.824,24.864,252.848,27.84,252.824,31.008z M253.088,33.384c-0.312,0.6-0.264,1.632-0.264,2.376v2.064
				c0,0.024,0.864-0.72,1.344-1.176c0.432-0.408,0.768-0.864,0.936-1.584c0.192-0.72,0.12-1.488-0.336-1.992
				C254.456,32.712,253.592,32.424,253.088,33.384z"/>
		</g>
		<g>
			<path d="M208.899,77.512V73.6h0.696v3.672l2.352-0.768V73h0.696v3.288l0.936-0.312v2.496l-0.936,0.312v3.552l0.936-0.288v2.472
				l-0.936,0.312v3.912h-0.696v-3.696l-2.352,0.768v3.552h-0.696v-3.312l-1.032,0.336v-2.496l1.032-0.336v-3.576l-1.032,0.336
				v-2.472L208.899,77.512z M209.595,79.768v3.576l2.352-0.768V79L209.595,79.768z"/>
		</g>
		<g>
			<path d="M216.899,88.512V84.6h0.696v3.672l2.352-0.768V84h0.696v3.288l0.936-0.312v2.496l-0.936,0.312v3.552l0.936-0.288v2.472
				l-0.936,0.312v3.912h-0.696v-3.696l-2.352,0.768v3.552h-0.696v-3.312l-1.032,0.336v-2.496l1.032-0.336v-3.576l-1.032,0.336
				v-2.472L216.899,88.512z M217.595,90.768v3.576l2.352-0.768V90L217.595,90.768z"/>
		</g>
		<g>
			<path d="M223.899,75.512V71.6h0.696v3.672l2.352-0.768V71h0.696v3.288l0.936-0.312v2.496l-0.936,0.312v3.552l0.936-0.288v2.472
				l-0.936,0.312v3.912h-0.696v-3.696l-2.352,0.768v3.552h-0.696v-3.312l-1.032,0.336v-2.496l1.032-0.336v-3.576l-1.032,0.336
				v-2.472L223.899,75.512z M224.595,77.768v3.576l2.352-0.768V77L224.595,77.768z"/>
		</g>
		<g>
			<path d="M232.899,85.512V81.6h0.696v3.672l2.352-0.768V81h0.696v3.288l0.936-0.312v2.496l-0.936,0.312v3.552l0.936-0.288v2.472
				l-0.936,0.312v3.912h-0.696v-3.696l-2.352,0.768v3.552h-0.696v-3.312l-1.032,0.336v-2.496l1.032-0.336v-3.576l-1.032,0.336
				v-2.472L232.899,85.512z M233.595,87.768v3.576l2.352-0.768V87L233.595,87.768z"/>
		</g>
		<g>
			<path d="M241.899,95.512V91.6h0.696v3.672l2.352-0.768V91h0.696v3.288l0.936-0.312v2.496l-0.936,0.312v3.552l0.936-0.288v2.472
				l-0.936,0.312v3.912h-0.696v-3.696l-2.352,0.768v3.552h-0.696v-3.312l-1.032,0.336v-2.496l1.032-0.336v-3.576l-1.032,0.336
				v-2.472L241.899,95.512z M242.595,97.768v3.576l2.352-0.768V97L242.595,97.768z"/>
		</g>
		<g>
			<path d="M248.899,81.178v-3.912h0.696v3.672l2.352-0.768v-3.504h0.696v3.288l0.936-0.312v2.496l-0.936,0.312v3.552l0.936-0.288
				v2.472l-0.936,0.312v3.912h-0.696v-3.696l-2.352,0.768v3.552h-0.696v-3.312l-1.032,0.336v-2.496l1.032-0.336V83.65l-1.032,0.336
				v-2.472L248.899,81.178z M249.595,83.435v3.576l2.352-0.768v-3.576L249.595,83.435z"/>
		</g>
		<g>
			<path d="M256.899,92.178v-3.912h0.696v3.672l2.352-0.768v-3.504h0.696v3.288l0.936-0.312v2.496l-0.936,0.312v3.552l0.936-0.288
				v2.472l-0.936,0.312v3.912h-0.696v-3.696l-2.352,0.768v3.552h-0.696v-3.312l-1.032,0.336v-2.496l1.032-0.336V94.65l-1.032,0.336
				v-2.472L256.899,92.178z M257.595,94.435v3.576l2.352-0.768v-3.576L257.595,94.435z"/>
		</g>
	</g>
</svg>
