<?xml version="1.0" encoding="utf-8"?>
<!-- Generator: Adobe Illustrator 10.0, SVG Export Plug-In . SVG Version: 3.0.0 Build 76)  -->
<!DOCTYPE svg PUBLIC "-//W3C//DTD SVG 1.0//EN"    "http://www.w3.org/TR/2001/REC-SVG-20010904/DTD/svg10.dtd" [
	<!ENTITY ns_flows "http://ns.adobe.com/Flows/1.0/">
	<!ENTITY ns_extend "http://ns.adobe.com/Extensibility/1.0/">
	<!ENTITY ns_ai "http://ns.adobe.com/AdobeIllustrator/10.0/">
	<!ENTITY ns_svg "http://www.w3.org/2000/svg">
	<!ENTITY ns_xlink "http://www.w3.org/1999/xlink">
]>
<svg  xmlns:x="&ns_extend;" xmlns:i="&ns_ai;" xmlns:graph="&ns_graphs;"
	 xmlns="&ns_svg;" xmlns:xlink="&ns_xlink;" xmlns:a="http://ns.adobe.com/AdobeSVGViewerExtensions/3.0/" width="332" height="51"
	 viewBox="0.2 0.08 332 51" overflow="visible" enable-background="new 0.2 0.08 332 51" xml:space="preserve">
	<g id="Layer_1_2_">
		<g>
			<path fill="none" stroke="#000000" d="M0.089,5.246h331.114"/>
			<path fill="none" stroke="#000000" d="M0.089,19.357h331.114"/>
			<path fill="none" stroke="#000000" d="M0.253,26.48h331.114"/>
			<path fill="none" stroke="#000000" d="M0,33.864h331.113"/>
			<path fill="none" stroke="#000000" d="M0,12.5h331.113"/>
		</g>
		<g>
			<path d="M25.232,39.336v-3.912h0.696v3.672l2.352-0.768v-3.504h0.696v3.288l0.936-0.312v2.496l-0.936,0.312v3.552l0.936-0.288
				v2.472l-0.936,0.312v3.912H28.28v-3.696l-2.352,0.768v3.552h-0.696V47.88L24.2,48.216V45.72l1.032-0.336v-3.576L24.2,42.144
				v-2.472L25.232,39.336z M25.928,41.592v3.576L28.28,44.4v-3.576L25.928,41.592z"/>
		</g>
		<g>
			<path d="M10.152,33.768c-4.944-2.352-5.736-5.376-5.952-8.472c-0.24-3.36,1.896-6.768,3.888-8.664
				c1.152-1.08,2.4-2.136,3.888-3.264c-0.048-0.84-0.24-1.176-0.336-2.376c-0.024-0.504-0.336-2.856,0.168-5.568
				c0.312-1.608,2.328-5.4,3.72-5.424c1.08-0.024,2.736,4.296,2.784,6.456c0.072,3.336-0.72,4.848-1.704,6.576
				c-0.504,0.864-1.032,1.464-1.584,2.136C14.448,15.864,13.8,16.272,13.2,16.8c0,0,0.768,4.344,0.792,4.656
				c1.536-0.192,3.408,0.36,4.08,0.84c1.704,1.272,2.352,3.024,2.472,4.728c0.216,2.712-1.272,5.568-4.56,6.936
				c0,0,0.504,3.456,0.624,4.176c0.264,1.896,0.216,3.096-0.192,3.864c-0.696,1.296-1.824,2.496-4.008,2.64
				c-1.68,0.096-4.992-0.744-5.16-3.384c-0.096-1.56,0.6-3.24,2.496-3.36c1.152-0.096,2.52,0.864,2.616,2.232
				c0.096,1.176-0.672,2.4-2.664,2.952c0.312,0.432,1.248,0.936,2.592,0.936c1.392,0,2.832-0.936,3.528-2.184
				c0.432-0.816,0.384-2.28,0.216-3.624c-0.072-0.456-0.648-4.08-0.648-4.08C13.608,34.416,11.16,34.248,10.152,33.768z
				 M10.632,28.08c0.048,1.152,1.008,2.496,1.896,2.952c-0.12,0.072-0.24,0.264-0.24,0.264c-0.984-0.48-1.824-1.272-2.04-1.56
				c-0.696-0.936-0.984-1.464-1.08-2.88c-0.096-1.32,0.624-3.096,2.232-4.344c0.84-0.624,1.248-0.768,1.968-0.936l-0.72-4.344
				c-0.744,0.432-3.816,2.904-5.112,4.92c-1.152,1.8-1.848,3.24-1.704,5.016c0.288,4.008,4.68,7.296,9.432,6.168
				c0,0-1.416-8.52-1.392-8.52C11.256,24.912,10.56,26.928,10.632,28.08z M12.576,12.864c2.088-1.632,4.92-4.704,4.752-7.08
				c-0.048-0.744-0.36-2.088-1.44-2.064C13.416,3.744,12.024,8.904,12.576,12.864z M15.84,33.144c2.76-0.936,2.88-3.312,2.784-4.728
				C18.528,27.24,18,24.6,14.496,24.768L15.84,33.144z"/>
		</g>
		<g>
			<path d="M69.904,33.864c2.664,0.024,5.184,1.032,5.376,3.264c0.144,1.632-2.016,3.12-4.68,3.12
				c-2.688-0.024-5.184-1.008-5.4-3.24C65.056,35.352,67.24,33.864,69.904,33.864z M70.552,39.696c1.152,0,1.896-1.104,1.776-1.992
				c-0.264-1.752-0.864-3.168-2.448-3.168c-1.152,0-1.824,1.128-1.68,2.016C68.464,38.304,68.968,39.696,70.552,39.696z"/>
		</g>
		<g>
			<path d="M58.824,33.832c0,0.216,0,1.536,0,1.536c0.912-0.816,1.416-0.984,2.424-1.008c1.2-0.024,1.968,1.176,1.992,2.136
				c0.024,0.504-0.12,1.032-0.312,1.44c-0.216,0.528-0.792,0.936-1.176,1.32c-0.432,0.432-3.552,2.568-3.552,2.616V27.688h0.624
				C58.824,27.688,58.848,30.664,58.824,33.832z M59.088,36.208c-0.312,0.6-0.264,1.632-0.264,2.376v2.064
				c0,0.024,0.864-0.72,1.344-1.176c0.432-0.408,0.768-0.864,0.936-1.584c0.192-0.72,0.12-1.488-0.336-1.992
				C60.456,35.536,59.592,35.248,59.088,36.208z"/>
		</g>
		<g>
			<g>
				<path d="M39.578,37.368c2.664,0.024,5.184,1.032,5.376,3.264c0.144,1.632-2.016,3.12-4.68,3.12
					c-2.688-0.024-5.184-1.008-5.4-3.24C34.73,38.856,36.914,37.368,39.578,37.368z M40.226,43.2c1.152,0,1.896-1.104,1.776-1.992
					c-0.264-1.752-0.864-3.168-2.448-3.168c-1.152,0-1.824,1.128-1.68,2.016C38.138,41.808,38.642,43.2,40.226,43.2z"/>
			</g>
			<path fill="none" stroke="#000000" d="M32.866,41.08h14.667"/>
		</g>
		<path fill="none" stroke="#0A0A0A" d="M93.9,4.395v29.746"/>
		<g>
			<path d="M146.904,22.864c2.664,0.024,5.184,1.032,5.376,3.264c0.144,1.632-2.016,3.12-4.68,3.12
				c-2.688-0.024-5.184-1.008-5.4-3.24C142.056,24.352,144.24,22.864,146.904,22.864z M147.552,28.696
				c1.152,0,1.896-1.104,1.776-1.992c-0.264-1.752-0.864-3.168-2.448-3.168c-1.152,0-1.824,1.128-1.68,2.016
				C145.464,27.304,145.968,28.696,147.552,28.696z"/>
		</g>
		<g>
			<path d="M135.824,22.832c0,0.216,0,1.536,0,1.536c0.912-0.816,1.416-0.984,2.424-1.008c1.2-0.024,1.968,1.176,1.992,2.136
				c0.024,0.504-0.12,1.032-0.312,1.44c-0.216,0.528-0.792,0.936-1.176,1.32c-0.432,0.432-3.552,2.568-3.552,2.616V16.688h0.624
				C135.824,16.688,135.848,19.664,135.824,22.832z M136.088,25.208c-0.312,0.6-0.264,1.632-0.264,2.376v2.064
				c0,0.024,0.864-0.72,1.344-1.176c0.432-0.408,0.768-0.864,0.936-1.584c0.192-0.72,0.12-1.488-0.336-1.992
				C137.456,24.536,136.592,24.248,136.088,25.208z"/>
		</g>
		<path fill="none" stroke="#0A0A0A" d="M171.9,4.395v29.746"/>
		<path fill="none" stroke="#0A0A0A" d="M251.9,4.395v29.746"/>
		<path fill="none" stroke="#0A0A0A" d="M331.9,4.395v29.746"/>
		<g>
			<path d="M226.904,19.864c2.664,0.024,5.184,1.032,5.376,3.264c0.144,1.632-2.016,3.12-4.68,3.12
				c-2.688-0.024-5.184-1.008-5.4-3.24C222.056,21.352,224.24,19.864,226.904,19.864z M227.552,25.696
				c1.152,0,1.896-1.104,1.776-1.992c-0.264-1.752-0.864-3.168-2.448-3.168c-1.152,0-1.824,1.128-1.68,2.016
				C225.464,24.304,225.968,25.696,227.552,25.696z"/>
		</g>
		<g>
			<path d="M215.824,19.832c0,0.216,0,1.536,0,1.536c0.912-0.816,1.416-0.984,2.424-1.008c1.2-0.024,1.968,1.176,1.992,2.136
				c0.024,0.504-0.12,1.032-0.312,1.44c-0.216,0.528-0.792,0.936-1.176,1.32c-0.432,0.432-3.552,2.568-3.552,2.616V13.688h0.624
				C215.824,13.688,215.848,16.664,215.824,19.832z M216.088,22.208c-0.312,0.6-0.264,1.632-0.264,2.376v2.064
				c0,0.024,0.864-0.72,1.344-1.176c0.432-0.408,0.768-0.864,0.936-1.584c0.192-0.72,0.12-1.488-0.336-1.992
				C217.456,21.536,216.592,21.248,216.088,22.208z"/>
		</g>
		<g>
			<path d="M305.904,15.864c2.664,0.024,5.184,1.032,5.376,3.264c0.144,1.632-2.016,3.12-4.68,3.12
				c-2.688-0.024-5.184-1.008-5.4-3.24C301.056,17.352,303.24,15.864,305.904,15.864z M306.552,21.696
				c1.152,0,1.896-1.104,1.776-1.992c-0.264-1.752-0.864-3.168-2.448-3.168c-1.152,0-1.824,1.128-1.68,2.016
				C304.464,20.304,304.968,21.696,306.552,21.696z"/>
		</g>
		<g>
			<path d="M294.824,15.832c0,0.216,0,1.536,0,1.536c0.912-0.816,1.416-0.984,2.424-1.008c1.2-0.024,1.968,1.176,1.992,2.136
				c0.024,0.504-0.12,1.032-0.312,1.44c-0.216,0.528-0.792,0.936-1.176,1.32c-0.432,0.432-3.552,2.568-3.552,2.616V9.688h0.624
				C294.824,9.688,294.848,12.664,294.824,15.832z M295.088,18.208c-0.312,0.6-0.264,1.632-0.264,2.376v2.064
				c0,0.024,0.864-0.72,1.344-1.176c0.432-0.408,0.768-0.864,0.936-1.584c0.192-0.72,0.12-1.488-0.336-1.992
				C296.456,17.536,295.592,17.248,295.088,18.208z"/>
		</g>
		<g>
			<path d="M113.904,26.864c2.664,0.024,5.184,1.032,5.376,3.264c0.144,1.632-2.016,3.12-4.68,3.12
				c-2.688-0.024-5.184-1.008-5.4-3.24C109.056,28.352,111.24,26.864,113.904,26.864z M114.552,32.696
				c1.152,0,1.896-1.104,1.776-1.992c-0.264-1.752-0.864-3.168-2.448-3.168c-1.152,0-1.824,1.128-1.68,2.016
				C112.464,31.304,112.968,32.696,114.552,32.696z"/>
		</g>
		<g>
			<path d="M102.232,26.336v-3.912h0.696v3.672l2.352-0.768v-3.504h0.696v3.288l0.936-0.312v2.496l-0.936,0.312v3.552l0.936-0.288
				v2.472l-0.936,0.312v3.912h-0.696v-3.696l-2.352,0.768v3.552h-0.696V34.88l-1.032,0.336V32.72l1.032-0.336v-3.576l-1.032,0.336
				v-2.472L102.232,26.336z M102.928,28.592v3.576l2.352-0.768v-3.576L102.928,28.592z"/>
		</g>
		<g>
			<path d="M194.904,22.864c2.664,0.024,5.184,1.032,5.376,3.264c0.144,1.632-2.016,3.12-4.68,3.12
				c-2.688-0.024-5.184-1.008-5.4-3.24C190.056,24.352,192.24,22.864,194.904,22.864z M195.552,28.696
				c1.152,0,1.896-1.104,1.776-1.992c-0.264-1.752-0.864-3.168-2.448-3.168c-1.152,0-1.824,1.128-1.68,2.016
				C193.464,27.304,193.968,28.696,195.552,28.696z"/>
		</g>
		<g>
			<path d="M183.232,22.336v-3.912h0.696v3.672l2.352-0.768v-3.504h0.696v3.288l0.936-0.312v2.496l-0.936,0.312v3.552l0.936-0.288
				v2.472l-0.936,0.312v3.912h-0.696v-3.696l-2.352,0.768v3.552h-0.696V30.88l-1.032,0.336V28.72l1.032-0.336v-3.576l-1.032,0.336
				v-2.472L183.232,22.336z M183.928,24.592v3.576l2.352-0.768v-3.576L183.928,24.592z"/>
		</g>
		<g>
			<path d="M272.904,19.864c2.664,0.024,5.184,1.032,5.376,3.264c0.144,1.632-2.016,3.12-4.68,3.12
				c-2.688-0.024-5.184-1.008-5.4-3.24C268.056,21.352,270.24,19.864,272.904,19.864z M273.552,25.696
				c1.152,0,1.896-1.104,1.776-1.992c-0.264-1.752-0.864-3.168-2.448-3.168c-1.152,0-1.824,1.128-1.68,2.016
				C271.464,24.304,271.968,25.696,273.552,25.696z"/>
		</g>
		<g>
			<path d="M261.232,19.336v-3.912h0.696v3.672l2.352-0.768v-3.504h0.696v3.288l0.936-0.312v2.496l-0.936,0.312v3.552l0.936-0.288
				v2.472l-0.936,0.312v3.912h-0.696v-3.696l-2.352,0.768v3.552h-0.696V27.88l-1.032,0.336V25.72l1.032-0.336v-3.576l-1.032,0.336
				v-2.472L261.232,19.336z M261.928,21.592v3.576l2.352-0.768v-3.576L261.928,21.592z"/>
		</g>
	</g>
</svg>
