<?xml version="1.0" encoding="utf-8"?>
<!-- Generator: Adobe Illustrator 10.0, SVG Export Plug-In . SVG Version: 3.0.0 Build 76)  -->
<!DOCTYPE svg PUBLIC "-//W3C//DTD SVG 1.0//EN"    "http://www.w3.org/TR/2001/REC-SVG-20010904/DTD/svg10.dtd" [
	<!ENTITY ns_flows "http://ns.adobe.com/Flows/1.0/">
	<!ENTITY ns_extend "http://ns.adobe.com/Extensibility/1.0/">
	<!ENTITY ns_ai "http://ns.adobe.com/AdobeIllustrator/10.0/">
	<!ENTITY ns_svg "http://www.w3.org/2000/svg">
	<!ENTITY ns_xlink "http://www.w3.org/1999/xlink">
]>
<svg  xmlns:x="&ns_extend;" xmlns:i="&ns_ai;" xmlns:graph="&ns_graphs;"
	 xmlns="&ns_svg;" xmlns:xlink="&ns_xlink;" xmlns:a="http://ns.adobe.com/AdobeSVGViewerExtensions/3.0/" width="287" height="124"
	 viewBox="0 -0.495 287 124" overflow="visible" enable-background="new 0 -0.495 287 124" xml:space="preserve">
	<g id="Layer_1_2_">
		<g>
			<path fill="none" stroke="#000000" d="M0.077,6.558h286.645"/>
			<path fill="none" stroke="#000000" d="M0.077,20.669h286.645"/>
			<path fill="none" stroke="#000000" d="M0.219,27.792h286.646"/>
			<path fill="none" stroke="#000000" d="M0,35.176h286.645"/>
			<path fill="none" stroke="#000000" d="M0,13.812h286.645"/>
		</g>
		<g>
			<path d="M53.529,111.648v-3.912h0.696v3.672l2.352-0.768v-3.504h0.696v3.288l0.936-0.312v2.496l-0.936,0.312v3.552l0.936-0.288
				v2.472l-0.936,0.312v3.912h-0.696v-3.696l-2.352,0.768v3.552h-0.696v-3.312l-1.032,0.336v-2.496l1.032-0.336v-3.576l-1.032,0.336
				v-2.472L53.529,111.648z M54.225,113.904v3.576l2.352-0.768v-3.576L54.225,113.904z"/>
		</g>
		<g>
			<path d="M14.208,34.061c-4.944-2.352-5.736-5.376-5.952-8.472c-0.24-3.36,1.896-6.768,3.888-8.664
				c1.152-1.08,2.4-2.136,3.888-3.264c-0.048-0.84-0.24-1.176-0.336-2.376c-0.024-0.504-0.336-2.856,0.168-5.568
				c0.312-1.608,2.328-5.4,3.72-5.424c1.08-0.024,2.736,4.296,2.784,6.456c0.072,3.336-0.72,4.848-1.704,6.576
				c-0.504,0.864-1.032,1.464-1.584,2.136c-0.576,0.696-1.224,1.104-1.824,1.632c0,0,0.768,4.344,0.792,4.656
				c1.536-0.192,3.408,0.36,4.08,0.84c1.704,1.272,2.352,3.024,2.472,4.728c0.216,2.712-1.272,5.568-4.56,6.936
				c0,0,0.504,3.456,0.624,4.176c0.264,1.896,0.216,3.096-0.192,3.864c-0.696,1.296-1.824,2.496-4.008,2.64
				c-1.68,0.096-4.992-0.744-5.16-3.384c-0.096-1.56,0.6-3.24,2.496-3.36c1.152-0.096,2.52,0.864,2.616,2.232
				c0.096,1.176-0.672,2.4-2.664,2.952c0.312,0.432,1.248,0.936,2.592,0.936c1.392,0,2.832-0.936,3.528-2.184
				c0.432-0.816,0.384-2.28,0.216-3.624c-0.072-0.456-0.648-4.08-0.648-4.08C17.665,34.709,15.216,34.541,14.208,34.061z
				 M14.688,28.373c0.048,1.152,1.008,2.496,1.896,2.952c-0.12,0.072-0.24,0.264-0.24,0.264c-0.984-0.48-1.824-1.272-2.04-1.56
				c-0.696-0.936-0.984-1.464-1.08-2.88c-0.096-1.32,0.624-3.096,2.232-4.344c0.84-0.624,1.248-0.768,1.968-0.936l-0.72-4.344
				c-0.744,0.432-3.816,2.904-5.112,4.92c-1.152,1.8-1.848,3.24-1.704,5.016c0.288,4.008,4.68,7.296,9.432,6.168
				c0,0-1.416-8.52-1.392-8.52C15.313,25.205,14.616,27.221,14.688,28.373z M16.632,13.157c2.088-1.632,4.92-4.704,4.752-7.08
				c-0.048-0.744-0.36-2.088-1.44-2.064C17.473,4.037,16.081,9.197,16.632,13.157z M19.896,33.437
				c2.76-0.936,2.88-3.312,2.784-4.728c-0.096-1.176-0.624-3.816-4.128-3.648L19.896,33.437z"/>
		</g>
		<g>
			<path d="M171.168,18.224c2.04,0.024,3.144,1.416,2.52,3.12c-0.624,1.728-2.784,3.096-4.8,3.072
				c-0.984-0.024-1.776-0.384-2.232-0.936v19.08H166.2c0-24.216,0-20.4,0-20.4c0-0.288,0.072-0.576,0.192-0.888
				C167.016,19.544,169.152,18.2,171.168,18.224z"/>
		</g>
		<g>
			<path d="M65.763,32.224c0.984,0,1.776,0.36,2.232,0.912V13.912h0.456v20.4c0,0.336-0.048,0.672-0.168,1.056
				c-0.648,1.704-2.784,3.072-4.8,3.048c-2.016-0.024-3.144-1.44-2.52-3.144S63.747,32.2,65.763,32.224z"/>
		</g>
		<g>
			<path d="M52.824,32.144c0,0.216,0,1.536,0,1.536c0.912-0.816,1.416-0.984,2.424-1.008c1.2-0.024,1.968,1.176,1.992,2.136
				c0.024,0.504-0.12,1.032-0.312,1.44c-0.216,0.528-0.792,0.936-1.176,1.32C55.32,38,52.2,40.136,52.2,40.184V26h0.624
				C52.824,26,52.848,28.976,52.824,32.144z M53.088,34.52c-0.312,0.6-0.264,1.632-0.264,2.376v2.064
				c0,0.024,0.864-0.72,1.344-1.176c0.432-0.408,0.768-0.864,0.936-1.584c0.192-0.72,0.12-1.488-0.336-1.992
				C54.456,33.848,53.592,33.56,53.088,34.52z"/>
		</g>
		<g>
			<path stroke="#000000" d="M105.836,106.211h-1.127v-1.275h1.127V106.211z"/>
			<path stroke="#000000" d="M106.588,110.86h-1.878v-1.435h1.878V110.86z"/>
			<path stroke="#000000" d="M111.569,106.318h-1.795v-1.276h1.795V106.318z"/>
			<path stroke="#000000" d="M111,110.78h-1.795v-1.275H111V110.78z"/>
			<g>
				<g>
					<path fill="none" d="M106.775,105.68"/>
					<path d="M106.771,105.73c0.064,0,0.074-0.1,0.01-0.1C106.716,105.63,106.706,105.73,106.771,105.73z"/>
				</g>
			</g>
			<path fill="none" stroke="#000000" d="M105.836,104.937l5.164,4.569"/>
			<path fill="none" stroke="#000000" d="M110.67,106.106L104.954,109"/>
		</g>
		<g>
			<path d="M133.529,100.648v-3.912h0.696v3.672l2.352-0.768v-3.504h0.696v3.288l0.936-0.312v2.496l-0.936,0.312v3.552l0.936-0.288
				v2.472l-0.936,0.312v3.912h-0.696v-3.696l-2.352,0.768v3.552h-0.696v-3.312l-1.032,0.336v-2.496l1.032-0.336v-3.576l-1.032,0.336
				v-2.472L133.529,100.648z M134.225,102.904v3.576l2.352-0.768v-3.576L134.225,102.904z"/>
		</g>
		<g>
			<path d="M92.763,28.224c0.984,0,1.776,0.36,2.232,0.912V9.912h0.456v20.4c0,0.336-0.048,0.672-0.168,1.056
				c-0.648,1.704-2.784,3.072-4.8,3.048c-2.016-0.024-3.144-1.44-2.52-3.144S90.747,28.2,92.763,28.224z"/>
		</g>
		<g>
			<path d="M119.763,24.224c0.984,0,1.776,0.36,2.232,0.912V5.912h0.456v20.4c0,0.336-0.048,0.672-0.168,1.056
				c-0.648,1.704-2.784,3.072-4.8,3.048c-2.016-0.024-3.144-1.44-2.52-3.144S117.747,24.2,119.763,24.224z"/>
		</g>
		<g>
			<path d="M145.763,21.224c0.984,0,1.776,0.36,2.232,0.912V2.912h0.456v20.4c0,0.336-0.048,0.672-0.168,1.056
				c-0.648,1.704-2.784,3.072-4.8,3.048c-2.016-0.024-3.144-1.44-2.52-3.144S143.747,21.2,145.763,21.224z"/>
		</g>
		<g>
			<path d="M198.168,14.224c2.04,0.024,3.144,1.416,2.52,3.12c-0.624,1.728-2.784,3.096-4.8,3.072
				c-0.984-0.024-1.776-0.384-2.232-0.936v19.08H193.2c0-24.216,0-20.4,0-20.4c0-0.288,0.072-0.576,0.192-0.888
				C194.016,15.544,196.152,14.2,198.168,14.224z"/>
		</g>
		<g>
			<path d="M224.168,10.224c2.04,0.024,3.144,1.416,2.52,3.12c-0.624,1.728-2.784,3.096-4.8,3.072
				c-0.984-0.024-1.776-0.384-2.232-0.936v19.08H219.2c0-24.216,0-20.4,0-20.4c0-0.288,0.072-0.576,0.192-0.888
				C220.016,11.544,222.152,10.2,224.168,10.224z"/>
		</g>
		<g>
			<path d="M252.168,7.224c2.04,0.024,3.144,1.416,2.52,3.12c-0.624,1.728-2.784,3.096-4.8,3.072
				c-0.984-0.024-1.776-0.384-2.232-0.936v19.08H247.2c0-24.216,0-20.4,0-20.4c0-0.288,0.072-0.576,0.192-0.888
				C248.016,8.544,250.152,7.2,252.168,7.224z"/>
		</g>
		<g>
			<path d="M133.824,20.144c0,0.216,0,1.536,0,1.536c0.912-0.816,1.416-0.984,2.424-1.008c1.2-0.024,1.968,1.176,1.992,2.136
				c0.024,0.504-0.12,1.032-0.312,1.44c-0.216,0.528-0.792,0.936-1.176,1.32C136.32,26,133.2,28.136,133.2,28.184V14h0.624
				C133.824,14,133.848,16.976,133.824,20.144z M134.088,22.52c-0.312,0.6-0.264,1.632-0.264,2.376v2.064
				c0,0.024,0.864-0.72,1.344-1.176c0.432-0.408,0.768-0.864,0.936-1.584c0.192-0.72,0.12-1.488-0.336-1.992
				C135.456,21.848,134.592,21.56,134.088,22.52z"/>
		</g>
		<g>
			<path d="M159.824,17.144c0,0.216,0,1.536,0,1.536c0.912-0.816,1.416-0.984,2.424-1.008c1.2-0.024,1.968,1.176,1.992,2.136
				c0.024,0.504-0.12,1.032-0.312,1.44c-0.216,0.528-0.792,0.936-1.176,1.32C162.32,23,159.2,25.136,159.2,25.184V11h0.624
				C159.824,11,159.848,13.976,159.824,17.144z M160.088,19.52c-0.312,0.6-0.264,1.632-0.264,2.376v2.064
				c0,0.024,0.864-0.72,1.344-1.176c0.432-0.408,0.768-0.864,0.936-1.584c0.192-0.72,0.12-1.488-0.336-1.992
				C161.456,18.848,160.592,18.56,160.088,19.52z"/>
		</g>
		<g>
			<path d="M240.824,6.144c0,0.216,0,1.536,0,1.536c0.912-0.816,1.416-0.984,2.424-1.008c1.2-0.024,1.968,1.176,1.992,2.136
				c0.024,0.504-0.12,1.032-0.312,1.44c-0.216,0.528-0.792,0.936-1.176,1.32C243.32,12,240.2,14.136,240.2,14.184V0h0.624
				C240.824,0,240.848,2.976,240.824,6.144z M241.088,8.52c-0.312,0.6-0.264,1.632-0.264,2.376v2.064
				c0,0.024,0.864-0.72,1.344-1.176c0.432-0.408,0.768-0.864,0.936-1.584c0.192-0.72,0.12-1.488-0.336-1.992
				C242.456,7.848,241.592,7.56,241.088,8.52z"/>
		</g>
		<g>
			<path fill="none" stroke="#000000" d="M0.077,83.558h286.645"/>
			<path fill="none" stroke="#000000" d="M0.077,97.669h286.645"/>
			<path fill="none" stroke="#000000" d="M0.219,104.792h286.646"/>
			<path fill="none" stroke="#000000" d="M0,112.176h286.645"/>
			<path fill="none" stroke="#000000" d="M0,90.812h286.645"/>
		</g>
		<g>
			<path d="M14.208,111.061c-4.944-2.352-5.736-5.376-5.952-8.472c-0.24-3.36,1.896-6.768,3.888-8.664
				c1.152-1.08,2.4-2.136,3.888-3.264c-0.048-0.84-0.24-1.176-0.336-2.376c-0.024-0.504-0.336-2.856,0.168-5.568
				c0.312-1.608,2.328-5.4,3.72-5.424c1.08-0.024,2.736,4.296,2.784,6.456c0.072,3.336-0.72,4.848-1.704,6.576
				c-0.504,0.864-1.032,1.464-1.584,2.136c-0.576,0.696-1.224,1.104-1.824,1.632c0,0,0.768,4.344,0.792,4.656
				c1.536-0.192,3.408,0.36,4.08,0.84c1.704,1.272,2.352,3.024,2.472,4.728c0.216,2.712-1.272,5.568-4.56,6.936
				c0,0,0.504,3.456,0.624,4.176c0.264,1.896,0.216,3.096-0.192,3.864c-0.696,1.296-1.824,2.496-4.008,2.64
				c-1.68,0.096-4.992-0.744-5.16-3.384c-0.096-1.56,0.6-3.24,2.496-3.36c1.152-0.096,2.52,0.864,2.616,2.232
				c0.096,1.176-0.672,2.4-2.664,2.952c0.312,0.432,1.248,0.936,2.592,0.936c1.392,0,2.832-0.936,3.528-2.184
				c0.432-0.816,0.384-2.28,0.216-3.624c-0.072-0.456-0.648-4.08-0.648-4.08C17.665,111.709,15.216,111.541,14.208,111.061z
				 M14.688,105.373c0.048,1.152,1.008,2.496,1.896,2.952c-0.12,0.072-0.24,0.264-0.24,0.264c-0.984-0.48-1.824-1.272-2.04-1.56
				c-0.696-0.936-0.984-1.464-1.08-2.88c-0.096-1.32,0.624-3.096,2.232-4.344c0.84-0.624,1.248-0.768,1.968-0.936l-0.72-4.344
				c-0.744,0.432-3.816,2.904-5.112,4.92c-1.152,1.8-1.848,3.24-1.704,5.016c0.288,4.008,4.68,7.296,9.432,6.168
				c0,0-1.416-8.52-1.392-8.52C15.313,102.205,14.616,104.221,14.688,105.373z M16.632,90.157c2.088-1.632,4.92-4.704,4.752-7.08
				c-0.048-0.744-0.36-2.088-1.44-2.064C17.473,81.037,16.081,86.197,16.632,90.157z M19.896,110.437
				c2.76-0.936,2.88-3.312,2.784-4.728c-0.096-1.176-0.624-3.816-4.128-3.648L19.896,110.437z"/>
		</g>
		<g>
			<path d="M65.763,112.224c0.984,0,1.776,0.36,2.232,0.912V93.912h0.456v20.4c0,0.336-0.048,0.672-0.168,1.056
				c-0.648,1.704-2.784,3.072-4.8,3.048c-2.016-0.024-3.144-1.44-2.52-3.144S63.747,112.2,65.763,112.224z"/>
		</g>
		<g>
			<path d="M92.763,109.224c0.984,0,1.776,0.36,2.232,0.912V90.912h0.456v20.4c0,0.336-0.048,0.672-0.168,1.056
				c-0.648,1.704-2.784,3.072-4.8,3.048c-2.016-0.024-3.144-1.44-2.52-3.144S90.747,109.2,92.763,109.224z"/>
		</g>
		<g>
			<path d="M119.763,105.224c0.984,0,1.776,0.36,2.232,0.912V86.912h0.456v20.4c0,0.336-0.048,0.672-0.168,1.056
				c-0.648,1.704-2.784,3.072-4.8,3.048c-2.016-0.024-3.144-1.44-2.52-3.144S117.747,105.2,119.763,105.224z"/>
		</g>
		<g>
			<path d="M145.763,101.224c0.984,0,1.776,0.36,2.232,0.912V82.912h0.456v20.4c0,0.336-0.048,0.672-0.168,1.056
				c-0.648,1.704-2.784,3.072-4.8,3.048c-2.016-0.024-3.144-1.44-2.52-3.144S143.747,101.2,145.763,101.224z"/>
		</g>
		<g>
			<path d="M198.168,95.224c2.04,0.024,3.144,1.416,2.52,3.12c-0.624,1.728-2.784,3.096-4.8,3.072
				c-0.984-0.024-1.776-0.384-2.232-0.936v19.08H193.2c0-24.216,0-20.4,0-20.4c0-0.288,0.072-0.576,0.192-0.888
				C194.016,96.544,196.152,95.2,198.168,95.224z"/>
		</g>
		<g>
			<path d="M224.168,91.224c2.04,0.024,3.144,1.416,2.52,3.12c-0.624,1.728-2.784,3.096-4.8,3.072
				c-0.984-0.024-1.776-0.384-2.232-0.936v19.08H219.2c0-24.216,0-20.4,0-20.4c0-0.288,0.072-0.576,0.192-0.888
				C220.016,92.544,222.152,91.2,224.168,91.224z"/>
		</g>
		<g>
			<path d="M252.168,87.224c2.04,0.024,3.144,1.416,2.52,3.12c-0.624,1.728-2.784,3.096-4.8,3.072
				c-0.984-0.024-1.776-0.384-2.232-0.936v19.08H247.2c0-24.216,0-20.4,0-20.4c0-0.288,0.072-0.576,0.192-0.888
				C248.016,88.544,250.152,87.2,252.168,87.224z"/>
		</g>
		<g>
			<path d="M171.763,98.224c0.984,0,1.776,0.36,2.232,0.912V79.912h0.456v20.4c0,0.336-0.048,0.672-0.168,1.056
				c-0.648,1.704-2.784,3.072-4.8,3.048c-2.016-0.024-3.144-1.44-2.52-3.144S169.747,98.2,171.763,98.224z"/>
		</g>
		<g>
			<path d="M80.529,108.648v-3.912h0.696v3.672l2.352-0.768v-3.504h0.696v3.288l0.936-0.312v2.496l-0.936,0.312v3.552l0.936-0.288
				v2.472l-0.936,0.312v3.912h-0.696v-3.696l-2.352,0.768v3.552h-0.696v-3.312l-1.032,0.336v-2.496l1.032-0.336v-3.576l-1.032,0.336
				v-2.472L80.529,108.648z M81.225,110.904v3.576l2.352-0.768v-3.576L81.225,110.904z"/>
		</g>
		<g>
			<path d="M158.529,96.648v-3.912h0.696v3.672l2.352-0.768v-3.504h0.696v3.288l0.936-0.312v2.496l-0.936,0.312v3.552l0.936-0.288
				v2.472l-0.936,0.312v3.912h-0.696v-3.696l-2.352,0.768v3.552h-0.696v-3.312l-1.032,0.336v-2.496l1.032-0.336V99.12l-1.032,0.336
				v-2.472L158.529,96.648z M159.225,98.904v3.576l2.352-0.768v-3.576L159.225,98.904z"/>
		</g>
		<g>
			<path d="M239.529,86.648v-3.912h0.696v3.672l2.352-0.768v-3.504h0.696v3.288l0.936-0.312v2.496l-0.936,0.312v3.552l0.936-0.288
				v2.472l-0.936,0.312v3.912h-0.696v-3.696l-2.352,0.768v3.552h-0.696v-3.312l-1.032,0.336v-2.496l1.032-0.336V89.12l-1.032,0.336
				v-2.472L239.529,86.648z M240.225,88.904v3.576l2.352-0.768v-3.576L240.225,88.904z"/>
		</g>
		<g>
			<path d="M185.529,94.648v-3.912h0.696v3.672l2.352-0.768v-3.504h0.696v3.288l0.936-0.312v2.496l-0.936,0.312v3.552l0.936-0.288
				v2.472l-0.936,0.312v3.912h-0.696v-3.696l-2.352,0.768v3.552h-0.696v-3.312l-1.032,0.336v-2.496l1.032-0.336V97.12l-1.032,0.336
				v-2.472L185.529,94.648z M186.225,96.904v3.576l2.352-0.768v-3.576L186.225,96.904z"/>
		</g>
		<g>
			<path stroke="#000000" d="M209.882,92.717h-1.127v-1.275h1.127V92.717z"/>
			<path stroke="#000000" d="M210.634,97.366h-1.878v-1.435h1.878V97.366z"/>
			<path stroke="#000000" d="M215.615,92.824h-1.795v-1.276h1.795V92.824z"/>
			<path stroke="#000000" d="M215.046,97.286h-1.795v-1.275h1.795V97.286z"/>
			<g>
				<g>
					<path fill="none" d="M210.821,92.186"/>
					<path d="M210.816,92.236c0.064,0,0.074-0.1,0.01-0.1C210.762,92.136,210.752,92.236,210.816,92.236z"/>
				</g>
			</g>
			<path fill="none" stroke="#000000" d="M209.882,91.442l5.164,4.569"/>
			<path fill="none" stroke="#000000" d="M214.716,92.612L209,95.505"/>
		</g>
	</g>
</svg>
