<?xml version="1.0" encoding="utf-8"?>
<!-- Generator: Adobe Illustrator 10.0, SVG Export Plug-In . SVG Version: 3.0.0 Build 76)  -->
<!DOCTYPE svg PUBLIC "-//W3C//DTD SVG 1.0//EN"    "http://www.w3.org/TR/2001/REC-SVG-20010904/DTD/svg10.dtd" [
	<!ENTITY ns_flows "http://ns.adobe.com/Flows/1.0/">
	<!ENTITY ns_extend "http://ns.adobe.com/Extensibility/1.0/">
	<!ENTITY ns_ai "http://ns.adobe.com/AdobeIllustrator/10.0/">
	<!ENTITY ns_svg "http://www.w3.org/2000/svg">
	<!ENTITY ns_xlink "http://www.w3.org/1999/xlink">
]>
<svg  xmlns:x="&ns_extend;" xmlns:i="&ns_ai;" xmlns:graph="&ns_graphs;"
	 xmlns="&ns_svg;" xmlns:xlink="&ns_xlink;" xmlns:a="http://ns.adobe.com/AdobeSVGViewerExtensions/3.0/" width="273" height="49"
	 viewBox="-0.076 0.35 273 49" overflow="visible" enable-background="new -0.076 0.35 273 49" xml:space="preserve">
	<g id="Layer_1_2_">
		<g>
			<path fill="none" stroke="#000000" d="M0.032,11.421h117.977"/>
			<path fill="none" stroke="#000000" d="M0.032,25.533h117.977"/>
			<path fill="none" stroke="#000000" d="M0.09,32.656h117.977"/>
			<path fill="none" stroke="#000000" d="M0,40.04h117.976"/>
			<path fill="none" stroke="#000000" d="M0,18.675h117.976"/>
		</g>
		<g>
			<path d="M225.529,25.512V21.6h0.696v3.672l2.352-0.768V21h0.696v3.288l0.936-0.312v2.496l-0.936,0.312v3.552l0.936-0.288v2.472
				l-0.936,0.312v3.912h-0.696v-3.696l-2.352,0.768v3.552h-0.696v-3.312l-1.032,0.336v-2.496l1.032-0.336v-3.576l-1.032,0.336
				v-2.472L225.529,25.512z M226.225,27.768v3.576l2.352-0.768V27L226.225,27.768z"/>
		</g>
		<g>
			<path d="M14.208,38.925c-4.944-2.352-5.736-5.376-5.952-8.472c-0.24-3.36,1.896-6.768,3.888-8.664
				c1.152-1.08,2.4-2.136,3.888-3.264c-0.048-0.84-0.24-1.176-0.336-2.376c-0.024-0.504-0.336-2.856,0.168-5.568
				c0.312-1.608,2.328-5.4,3.72-5.424c1.08-0.024,2.736,4.296,2.784,6.456c0.072,3.336-0.72,4.848-1.704,6.576
				c-0.504,0.864-1.032,1.464-1.584,2.136c-0.576,0.696-1.224,1.104-1.824,1.632c0,0,0.768,4.344,0.792,4.656
				c1.536-0.192,3.408,0.36,4.08,0.84c1.704,1.272,2.352,3.024,2.472,4.728c0.216,2.712-1.272,5.568-4.56,6.936
				c0,0,0.504,3.456,0.624,4.176c0.264,1.896,0.216,3.096-0.192,3.864c-0.696,1.296-1.824,2.496-4.008,2.64
				c-1.68,0.096-4.992-0.744-5.16-3.384c-0.096-1.56,0.6-3.24,2.496-3.36c1.152-0.096,2.52,0.864,2.616,2.232
				c0.096,1.176-0.672,2.4-2.664,2.952c0.312,0.432,1.248,0.936,2.592,0.936c1.392,0,2.832-0.936,3.528-2.184
				c0.432-0.816,0.384-2.28,0.216-3.624c-0.072-0.456-0.648-4.08-0.648-4.08C17.665,39.573,15.216,39.405,14.208,38.925z
				 M14.688,33.237c0.048,1.152,1.008,2.496,1.896,2.952c-0.12,0.072-0.24,0.264-0.24,0.264c-0.984-0.48-1.824-1.272-2.04-1.56
				c-0.696-0.936-0.984-1.464-1.08-2.88c-0.096-1.32,0.624-3.096,2.232-4.344c0.84-0.624,1.248-0.768,1.968-0.936l-0.72-4.344
				c-0.744,0.432-3.816,2.904-5.112,4.92c-1.152,1.8-1.848,3.24-1.704,5.016c0.288,4.008,4.68,7.296,9.432,6.168
				c0,0-1.416-8.52-1.392-8.52C15.313,30.069,14.616,32.085,14.688,33.237z M16.632,18.021c2.088-1.632,4.92-4.704,4.752-7.08
				c-0.048-0.744-0.36-2.088-1.44-2.064C17.472,8.901,16.081,14.061,16.632,18.021z M19.896,38.301
				c2.76-0.936,2.88-3.312,2.784-4.728c-0.096-1.176-0.624-3.816-4.128-3.648L19.896,38.301z"/>
		</g>
		<g>
			<path d="M33.824,22.008c0,0.216,0,1.536,0,1.536c0.912-0.816,1.416-0.984,2.424-1.008c1.2-0.024,1.968,1.176,1.992,2.136
				c0.024,0.504-0.12,1.032-0.312,1.44c-0.216,0.528-0.792,0.936-1.176,1.32C36.32,27.864,33.2,30,33.2,30.048V15.864h0.624
				C33.824,15.864,33.848,18.84,33.824,22.008z M34.088,24.384c-0.312,0.6-0.264,1.632-0.264,2.376v2.064
				c0,0.024,0.864-0.72,1.344-1.176c0.432-0.408,0.768-0.864,0.936-1.584c0.192-0.72,0.12-1.488-0.336-1.992
				C35.456,23.712,34.592,23.424,34.088,24.384z"/>
		</g>
		<g>
			<path stroke="#000000" d="M197.761,20.056h-1.127v-1.274h1.127V20.056z"/>
			<path stroke="#000000" d="M198.512,24.705h-1.878V23.27h1.878V24.705z"/>
			<path stroke="#000000" d="M203.493,20.163h-1.795v-1.275h1.795V20.163z"/>
			<path stroke="#000000" d="M202.924,24.625h-1.795V23.35h1.795V24.625z"/>
			<g>
				<g>
					<path fill="none" d="M198.7,19.525"/>
					<path d="M198.695,19.575c0.064,0,0.074-0.1,0.01-0.1C198.641,19.475,198.63,19.575,198.695,19.575z"/>
				</g>
			</g>
			<path fill="none" stroke="#000000" d="M197.761,18.782l5.164,4.568"/>
			<path fill="none" stroke="#000000" d="M202.595,19.951l-5.716,2.894"/>
		</g>
		<g>
			<path d="M207.529,4.512V0.6h0.696v3.672l2.352-0.768V0h0.696v3.288l0.936-0.312v2.496l-0.936,0.312v3.552l0.936-0.288v2.472
				l-0.936,0.312v3.912h-0.696v-3.696l-2.352,0.768v3.552h-0.696v-3.312l-1.032,0.336v-2.496l1.032-0.336V6.984l-1.032,0.336V4.848
				L207.529,4.512z M208.225,6.768v3.576l2.352-0.768V6L208.225,6.768z"/>
		</g>
		<g>
			<path d="M51.823,25.008c0,0.216,0,1.536,0,1.536c0.912-0.816,1.416-0.984,2.424-1.008c1.2-0.024,1.968,1.176,1.992,2.136
				c0.024,0.504-0.12,1.032-0.312,1.44c-0.216,0.528-0.792,0.936-1.176,1.32c-0.432,0.432-3.552,2.568-3.552,2.616V18.864h0.624
				C51.823,18.864,51.847,21.84,51.823,25.008z M52.087,27.384c-0.312,0.6-0.264,1.632-0.264,2.376v2.064
				c0,0.024,0.864-0.72,1.344-1.176c0.432-0.408,0.768-0.864,0.936-1.584c0.192-0.72,0.12-1.488-0.336-1.992
				C53.455,26.712,52.591,26.424,52.087,27.384z"/>
		</g>
		<g>
			<path d="M41.548,11.102c0,0.216,0,1.536,0,1.536c0.912-0.816,1.416-0.984,2.424-1.008c1.2-0.024,1.968,1.176,1.992,2.136
				c0.024,0.504-0.12,1.032-0.312,1.44c-0.216,0.528-0.792,0.936-1.176,1.32c-0.432,0.432-3.552,2.568-3.552,2.616V4.958h0.624
				C41.548,4.958,41.572,7.934,41.548,11.102z M41.813,13.478c-0.312,0.6-0.264,1.632-0.264,2.376v2.064
				c0,0.024,0.864-0.72,1.344-1.176c0.432-0.408,0.768-0.864,0.936-1.584c0.192-0.72,0.12-1.488-0.336-1.992
				C43.18,12.806,42.316,12.518,41.813,13.478z"/>
		</g>
		<g>
			<path d="M216.529,14.512V10.6h0.696v3.672l2.352-0.768V10h0.696v3.288l0.936-0.312v2.496l-0.936,0.312v3.552l0.936-0.288v2.472
				l-0.936,0.312v3.912h-0.696v-3.696l-2.352,0.768v3.552h-0.696v-3.312l-1.032,0.336v-2.496l1.032-0.336v-3.576l-1.032,0.336
				v-2.472L216.529,14.512z M217.225,16.768v3.576l2.352-0.768V16L217.225,16.768z"/>
		</g>
		<g>
			<path stroke="#000000" d="M186.09,9.456h-1.127V8.181h1.127V9.456z"/>
			<path stroke="#000000" d="M186.841,14.104h-1.878v-1.435h1.878V14.104z"/>
			<path stroke="#000000" d="M191.823,9.562h-1.795V8.287h1.795V9.562z"/>
			<path stroke="#000000" d="M191.253,14.025h-1.795V12.75h1.795V14.025z"/>
			<g>
				<g>
					<path fill="none" d="M187.029,8.924"/>
					<path d="M187.024,8.974c0.064,0,0.074-0.1,0.01-0.1S186.959,8.974,187.024,8.974z"/>
				</g>
			</g>
			<path fill="none" stroke="#000000" d="M186.09,8.181l5.163,4.568"/>
			<path fill="none" stroke="#000000" d="M190.924,9.35l-5.717,2.894"/>
		</g>
		<g>
			<path fill="none" stroke="#000000" d="M155.032,11.421h117.977"/>
			<path fill="none" stroke="#000000" d="M155.032,25.533h117.977"/>
			<path fill="none" stroke="#000000" d="M155.09,32.656h117.977"/>
			<path fill="none" stroke="#000000" d="M155,40.04h117.976"/>
			<path fill="none" stroke="#000000" d="M155,18.675h117.976"/>
		</g>
		<g>
			<path d="M167.208,38.925c-4.944-2.352-5.736-5.376-5.952-8.472c-0.24-3.36,1.896-6.768,3.888-8.664
				c1.152-1.08,2.4-2.136,3.888-3.264c-0.048-0.84-0.24-1.176-0.336-2.376c-0.024-0.504-0.336-2.856,0.168-5.568
				c0.312-1.608,2.328-5.4,3.72-5.424c1.08-0.024,2.736,4.296,2.784,6.456c0.072,3.336-0.72,4.848-1.704,6.576
				c-0.504,0.864-1.032,1.464-1.584,2.136c-0.576,0.696-1.224,1.104-1.824,1.632c0,0,0.768,4.344,0.792,4.656
				c1.536-0.192,3.408,0.36,4.08,0.84c1.704,1.272,2.352,3.024,2.472,4.728c0.216,2.712-1.272,5.568-4.56,6.936
				c0,0,0.504,3.456,0.624,4.176c0.264,1.896,0.216,3.096-0.192,3.864c-0.696,1.296-1.824,2.496-4.008,2.64
				c-1.68,0.096-4.992-0.744-5.16-3.384c-0.096-1.56,0.6-3.24,2.496-3.36c1.152-0.096,2.52,0.864,2.616,2.232
				c0.096,1.176-0.672,2.4-2.664,2.952c0.312,0.432,1.248,0.936,2.592,0.936c1.392,0,2.832-0.936,3.528-2.184
				c0.432-0.816,0.384-2.28,0.216-3.624c-0.072-0.456-0.648-4.08-0.648-4.08C170.665,39.573,168.216,39.405,167.208,38.925z
				 M167.688,33.237c0.048,1.152,1.008,2.496,1.896,2.952c-0.12,0.072-0.24,0.264-0.24,0.264c-0.984-0.48-1.824-1.272-2.04-1.56
				c-0.696-0.936-0.984-1.464-1.08-2.88c-0.096-1.32,0.624-3.096,2.232-4.344c0.84-0.624,1.248-0.768,1.968-0.936l-0.72-4.344
				c-0.744,0.432-3.816,2.904-5.112,4.92c-1.152,1.8-1.848,3.24-1.704,5.016c0.288,4.008,4.68,7.296,9.432,6.168
				c0,0-1.416-8.52-1.392-8.52C168.313,30.069,167.616,32.085,167.688,33.237z M169.632,18.021c2.088-1.632,4.92-4.704,4.752-7.08
				c-0.048-0.744-0.36-2.088-1.44-2.064C170.472,8.901,169.081,14.061,169.632,18.021z M172.896,38.301
				c2.76-0.936,2.88-3.312,2.784-4.728c-0.096-1.176-0.624-3.816-4.128-3.648L172.896,38.301z"/>
		</g>
		<g>
			<path d="M235.529,11.512V7.6h0.696v3.672l2.352-0.768V7h0.696v3.288l0.936-0.312v2.496l-0.936,0.312v3.552l0.936-0.288v2.472
				l-0.936,0.312v3.912h-0.696v-3.696l-2.352,0.768v3.552h-0.696v-3.312l-1.032,0.336v-2.496l1.032-0.336v-3.576l-1.032,0.336
				v-2.472L235.529,11.512z M236.225,13.768v3.576l2.352-0.768V13L236.225,13.768z"/>
		</g>
		<g>
			<path d="M245.529,21.512V17.6h0.696v3.672l2.352-0.768V17h0.696v3.288l0.936-0.312v2.496l-0.936,0.312v3.552l0.936-0.288v2.472
				l-0.936,0.312v3.912h-0.696v-3.696l-2.352,0.768v3.552h-0.696v-3.312l-1.032,0.336v-2.496l1.032-0.336v-3.576l-1.032,0.336
				v-2.472L245.529,21.512z M246.225,23.768v3.576l2.352-0.768V23L246.225,23.768z"/>
		</g>
	</g>
</svg>
