<?xml version="1.0" encoding="utf-8"?>
<!-- Generator: Adobe Illustrator 10.0, SVG Export Plug-In . SVG Version: 3.0.0 Build 76)  -->
<!DOCTYPE svg PUBLIC "-//W3C//DTD SVG 1.0//EN"    "http://www.w3.org/TR/2001/REC-SVG-20010904/DTD/svg10.dtd" [
	<!ENTITY ns_flows "http://ns.adobe.com/Flows/1.0/">
	<!ENTITY ns_extend "http://ns.adobe.com/Extensibility/1.0/">
	<!ENTITY ns_ai "http://ns.adobe.com/AdobeIllustrator/10.0/">
	<!ENTITY ns_svg "http://www.w3.org/2000/svg">
	<!ENTITY ns_xlink "http://www.w3.org/1999/xlink">
]>
<svg  xmlns:x="&ns_extend;" xmlns:i="&ns_ai;" xmlns:graph="&ns_graphs;"
	 xmlns="&ns_svg;" xmlns:xlink="&ns_xlink;" xmlns:a="http://ns.adobe.com/AdobeSVGViewerExtensions/3.0/" width="397" height="313"
	 viewBox="-0.49 0.303 397 313" overflow="visible" enable-background="new -0.49 0.303 397 313" xml:space="preserve">
	<g id="Layer_1_2_">
		<g>
			<path fill="#0A2626" d="M18.447,73.563C8.273,68.439,6.644,61.851,6.199,55.106c-0.494-7.319,3.902-14.744,8.001-18.874
				c2.371-2.353,4.938-4.653,8-7.111c-0.099-1.83-0.494-2.562-0.691-5.176c-0.049-1.098-0.691-6.222,0.346-12.13
				C22.497,8.313,26.646,0.052,29.51,0c2.223-0.052,5.63,9.358,5.729,14.064c0.148,7.268-1.481,10.562-3.506,14.326
				c-1.037,1.882-2.124,3.189-3.26,4.653c-1.185,1.516-2.519,2.405-3.753,3.555c0,0,1.581,9.463,1.63,10.143
				c3.161-0.418,7.013,0.784,8.396,1.83c3.506,2.771,4.84,6.587,5.087,10.3c0.444,5.908-2.618,12.129-9.384,15.11
				c0,0,1.037,7.529,1.284,9.097c0.543,4.13,0.444,6.745-0.395,8.417c-1.433,2.823-3.754,5.438-8.248,5.751
				c-3.457,0.209-10.272-1.621-10.618-7.372c-0.198-3.398,1.234-7.058,5.136-7.32c2.371-0.209,5.186,1.882,5.383,4.862
				c0.197,2.562-1.383,5.229-5.482,6.431c0.642,0.941,2.568,2.039,5.333,2.039c2.865,0,5.828-2.039,7.26-4.758
				c0.889-1.778,0.79-4.967,0.444-7.895c-0.148-0.993-1.333-8.888-1.333-8.888C25.559,74.974,20.521,74.608,18.447,73.563z
				 M19.435,61.171c0.099,2.51,2.074,5.438,3.902,6.431c-0.247,0.157-0.494,0.575-0.494,0.575c-2.025-1.045-3.753-2.771-4.198-3.398
				c-1.432-2.039-2.025-3.189-2.223-6.274c-0.197-2.875,1.284-6.745,4.593-9.463c1.729-1.359,2.568-1.673,4.05-2.039l-1.481-9.463
				c-1.531,0.941-7.853,6.326-10.52,10.718c-2.371,3.921-3.803,7.058-3.506,10.927c0.593,8.731,9.631,15.894,19.409,13.437
				c0,0-2.914-18.561-2.864-18.561C20.719,54.27,19.287,58.662,19.435,61.171z M23.436,28.024
				c4.297-3.555,10.125-10.248,9.779-15.424c-0.099-1.621-0.741-4.548-2.963-4.496C25.164,8.156,22.3,19.397,23.436,28.024z
				 M30.152,72.203c5.68-2.039,5.927-7.215,5.729-10.3c-0.198-2.562-1.284-8.313-8.495-7.947L30.152,72.203z"/>
		</g>
		<path fill="none" stroke="#000000" stroke-width="2" d="M0.105,39.495H230.51"/>
		<path fill="none" stroke="#000000" stroke-width="2" d="M0.299,56.277H173.51"/>
		<path fill="none" stroke="#000000" stroke-width="2" d="M0,73.672h110.51"/>
		<path fill="none" stroke="#000000" stroke-width="2" d="M0.105,21.495H306.51"/>
		<path fill="none" stroke="#000000" stroke-width="2" d="M0.105,5.495H358.51"/>
		<g>
			<path d="M237.991,33.921c0.48-0.096,1.44-0.18,2.364-0.18c1.116,0,1.8,0.108,2.388,0.456c0.564,0.3,0.96,0.852,0.96,1.596
				c0,0.708-0.42,1.368-1.32,1.716v0.024c0.924,0.24,1.608,0.948,1.608,1.992c0,0.744-0.336,1.32-0.84,1.716
				c-0.588,0.468-1.572,0.732-3.18,0.732c-0.9,0-1.572-0.06-1.98-0.12V33.921z M239.803,37.005h0.6c0.972,0,1.476-0.396,1.476-0.996
				c0-0.612-0.468-0.936-1.296-0.936c-0.408,0-0.636,0.024-0.78,0.06V37.005z M239.803,40.593c0.18,0.036,0.396,0.036,0.708,0.036
				c0.828,0,1.56-0.324,1.56-1.176c0-0.816-0.732-1.14-1.644-1.14h-0.624V40.593z"/>
		</g>
		<g>
			<path d="M121.803,73.469h-2.976v1.92h3.324v1.5h-5.148v-8.088h4.98v1.5h-3.156v1.68h2.976V73.469z"/>
		</g>
		<g>
			<path d="M186.747,60.517c-0.564,0.192-1.632,0.456-2.7,0.456c-1.476,0-2.544-0.372-3.288-1.08
				c-0.732-0.708-1.14-1.764-1.14-2.952c0.012-2.688,1.968-4.224,4.62-4.224c1.044,0,1.848,0.204,2.244,0.384l-0.384,1.476
				c-0.444-0.204-0.984-0.348-1.872-0.348c-1.524,0-2.688,0.864-2.688,2.616c0,1.68,1.056,2.652,2.556,2.652
				c0.408,0,0.744-0.048,0.888-0.108v-1.704h-1.248v-1.428h3.012V60.517z"/>
		</g>
		<path fill="none" stroke="#000000" stroke-width="2" d="M154.199,72.672h242"/>
		<path fill="none" stroke="#000000" stroke-width="2" d="M219.51,56.277h175.689"/>
		<path fill="none" stroke="#000000" stroke-width="2" d="M267.51,38.277h127.689"/>
		<g>
			<path d="M313.991,15.921c0.672-0.12,1.548-0.18,2.46-0.18c1.548,0,2.556,0.252,3.324,0.84c0.84,0.624,1.368,1.632,1.368,3.072
				c0,1.548-0.564,2.616-1.332,3.276c-0.853,0.708-2.16,1.044-3.744,1.044c-0.948,0-1.632-0.06-2.076-0.12V15.921z M315.815,22.509
				c0.156,0.036,0.42,0.036,0.636,0.036c1.668,0.012,2.76-0.9,2.76-2.832c0-1.74-0.983-2.568-2.567-2.568
				c-0.396,0-0.672,0.036-0.828,0.072V22.509z"/>
		</g>
		<path fill="none" stroke="#000000" stroke-width="2" d="M350.51,20.277h44.689"/>
		<g>
			<path d="M365.003,0.801h4.933v1.5h-3.108v1.848h2.904v1.488h-2.904v3.252h-1.824V0.801z"/>
		</g>
		<g>
			<path fill="#0A50A1" d="M127.287,71.021l0.792,2.724c0.144,0.492,0.24,0.96,0.336,1.428h0.036
				c0.096-0.48,0.192-0.924,0.324-1.428l0.756-2.724h1.92l-2.184,5.868h-1.824l-2.136-5.868H127.287z"/>
			<path fill="#0A50A1" d="M133.467,74.525c0.06,0.768,0.804,1.128,1.656,1.128c0.624,0,1.128-0.084,1.62-0.252l0.24,1.236
				c-0.6,0.252-1.332,0.372-2.124,0.372c-1.992,0-3.132-1.152-3.132-3c0-1.488,0.936-3.132,2.964-3.132
				c1.896,0,2.616,1.476,2.616,2.928c0,0.312-0.036,0.588-0.06,0.732L133.467,74.525z M135.615,73.277
				c0-0.432-0.192-1.188-1.02-1.188c-0.78,0-1.092,0.708-1.14,1.188H135.615z"/>
			<path fill="#0A50A1" d="M138.411,72.953c0-0.864-0.012-1.428-0.048-1.932h1.56l0.072,1.092h0.048
				c0.3-0.864,1.008-1.224,1.584-1.224c0.168,0,0.252,0.012,0.384,0.036v1.716c-0.156-0.024-0.3-0.048-0.504-0.048
				c-0.672,0-1.128,0.348-1.248,0.924c-0.024,0.12-0.036,0.252-0.036,0.408v2.964h-1.824L138.411,72.953z"/>
			<path fill="#0A50A1" d="M144.519,71.021l0.876,2.88c0.096,0.348,0.216,0.78,0.288,1.092h0.036
				c0.084-0.312,0.18-0.756,0.264-1.092l0.72-2.88h1.956l-1.368,3.864c-0.84,2.328-1.404,3.252-2.064,3.84
				c-0.624,0.552-1.296,0.756-1.764,0.804l-0.384-1.536c0.228-0.048,0.516-0.156,0.792-0.312c0.276-0.144,0.588-0.444,0.756-0.732
				c0.06-0.096,0.096-0.18,0.096-0.264c0-0.06-0.012-0.156-0.072-0.3l-2.16-5.364H144.519z"/>
		</g>
		<g>
			<path fill="#0A50A1" d="M193.631,61.021c-1.716,0-3.036-1.128-3.036-3.024s1.248-3.108,3.144-3.108
				c1.788,0,2.988,1.236,2.988,3.012c0,2.136-1.524,3.12-3.084,3.12H193.631z M193.667,59.713c0.72,0,1.164-0.708,1.164-1.764
				c0-0.864-0.336-1.752-1.164-1.752c-0.864,0-1.2,0.888-1.2,1.764c0,0.996,0.42,1.752,1.188,1.752H193.667z"/>
			<path fill="#0A50A1" d="M200.591,61.021c-1.716,0-3.036-1.128-3.036-3.024s1.248-3.108,3.144-3.108
				c1.788,0,2.988,1.236,2.988,3.012c0,2.136-1.524,3.12-3.084,3.12H200.591z M200.627,59.713c0.72,0,1.164-0.708,1.164-1.764
				c0-0.864-0.336-1.752-1.164-1.752c-0.864,0-1.2,0.888-1.2,1.764c0,0.996,0.42,1.752,1.188,1.752H200.627z"/>
			<path fill="#0A50A1" d="M210.539,52.369v6.768c0,0.672,0.024,1.356,0.048,1.752h-1.62l-0.072-0.852h-0.036
				c-0.36,0.648-1.08,0.984-1.836,0.984c-1.392,0-2.508-1.188-2.508-3.012c-0.012-1.968,1.224-3.12,2.628-3.12
				c0.732,0,1.284,0.264,1.548,0.66h0.024v-3.18H210.539z M208.715,57.517c0-0.108,0-0.228-0.024-0.336
				c-0.108-0.492-0.504-0.888-1.068-0.888c-0.84,0-1.26,0.744-1.26,1.668c0,0.984,0.492,1.608,1.248,1.608
				c0.528,0,0.96-0.36,1.068-0.876c0.024-0.12,0.036-0.264,0.036-0.408V57.517z"/>
		</g>
		<g>
			<path fill="#0A50A1" d="M250.631,42.021c-1.716,0-3.036-1.128-3.036-3.024s1.248-3.108,3.144-3.108
				c1.788,0,2.988,1.236,2.988,3.012c0,2.136-1.524,3.12-3.084,3.12H250.631z M250.667,40.713c0.72,0,1.164-0.708,1.164-1.764
				c0-0.864-0.336-1.752-1.164-1.752c-0.864,0-1.2,0.888-1.2,1.764c0,0.996,0.42,1.752,1.188,1.752H250.667z"/>
			<path fill="#0A50A1" d="M256.055,36.021l0.876,2.88c0.096,0.348,0.216,0.78,0.288,1.092h0.036
				c0.084-0.312,0.18-0.756,0.264-1.092l0.72-2.88h1.956l-1.368,3.864c-0.84,2.328-1.404,3.252-2.064,3.84
				c-0.624,0.552-1.296,0.756-1.764,0.804l-0.384-1.536c0.228-0.048,0.516-0.156,0.792-0.312c0.276-0.144,0.588-0.444,0.756-0.732
				c0.06-0.096,0.096-0.18,0.096-0.264c0-0.06-0.012-0.156-0.072-0.3l-2.16-5.364H256.055z"/>
		</g>
		<g>
			<path fill="#0A50A1" d="M326.631,24.021c-1.716,0-3.035-1.128-3.035-3.024s1.247-3.108,3.144-3.108
				c1.788,0,2.988,1.236,2.988,3.012c0,2.136-1.524,3.12-3.084,3.12H326.631z M326.667,22.713c0.721,0,1.164-0.708,1.164-1.764
				c0-0.864-0.336-1.752-1.164-1.752c-0.864,0-1.2,0.888-1.2,1.764c0,0.996,0.421,1.752,1.188,1.752H326.667z"/>
			<path fill="#0A50A1" d="M332.295,21.525c0.061,0.768,0.804,1.128,1.656,1.128c0.624,0,1.128-0.084,1.62-0.252l0.24,1.236
				c-0.601,0.252-1.332,0.372-2.124,0.372c-1.992,0-3.133-1.152-3.133-3c0-1.488,0.937-3.132,2.965-3.132
				c1.896,0,2.615,1.476,2.615,2.928c0,0.312-0.036,0.588-0.06,0.732L332.295,21.525z M334.443,20.277
				c0-0.432-0.192-1.188-1.021-1.188c-0.78,0-1.092,0.708-1.14,1.188H334.443z"/>
			<path fill="#0A50A1" d="M337.215,22.305c0.336,0.204,1.032,0.432,1.572,0.432c0.552,0,0.78-0.18,0.78-0.48
				c0-0.312-0.181-0.456-0.853-0.684c-1.224-0.396-1.691-1.068-1.68-1.752c0-1.104,0.936-1.932,2.388-1.932
				c0.685,0,1.284,0.168,1.645,0.348l-0.313,1.248c-0.264-0.132-0.78-0.324-1.271-0.324c-0.444,0-0.696,0.18-0.696,0.468
				c0,0.288,0.228,0.432,0.948,0.684c1.116,0.372,1.571,0.948,1.584,1.8c0,1.104-0.853,1.908-2.532,1.908
				c-0.768,0-1.452-0.18-1.896-0.42L337.215,22.305z"/>
		</g>
		<g>
			<path fill="#0A50A1" d="M373.831,3.253c-0.612,0-1.008-0.432-1.008-0.972c0-0.552,0.408-0.972,1.032-0.972s1.008,0.42,1.02,0.972
				c0,0.54-0.396,0.972-1.032,0.972H373.831z M372.932,9.889V4.021h1.823v5.868H372.932z"/>
			<path fill="#0A50A1" d="M376.219,5.893c0-0.732-0.023-1.344-0.048-1.872h1.584l0.084,0.816h0.036
				c0.24-0.384,0.828-0.948,1.813-0.948c1.199,0,2.1,0.804,2.1,2.532v3.468h-1.824V6.637c0-0.756-0.264-1.272-0.924-1.272
				c-0.504,0-0.804,0.348-0.936,0.684c-0.049,0.12-0.061,0.288-0.061,0.456v3.384h-1.824V5.893z"/>
			<path fill="#0A50A1" d="M384.655,7.525c0.06,0.768,0.804,1.128,1.656,1.128c0.624,0,1.128-0.084,1.619-0.252l0.24,1.236
				c-0.6,0.252-1.332,0.372-2.124,0.372c-1.992,0-3.132-1.152-3.132-3c0-1.488,0.936-3.132,2.964-3.132
				c1.896,0,2.616,1.476,2.616,2.928c0,0.312-0.036,0.588-0.06,0.732L384.655,7.525z M386.803,6.277c0-0.432-0.191-1.188-1.02-1.188
				c-0.78,0-1.092,0.708-1.141,1.188H386.803z"/>
		</g>
		<g>
			<path fill="#0A50A1" d="M121.786,98.413h-2.46v-0.888h5.988v0.888h-2.472v7.2h-1.056V98.413z"/>
			<path fill="#0A50A1" d="M125.649,101.617c0-0.684-0.012-1.272-0.048-1.812h0.924l0.048,1.14h0.036
				c0.264-0.78,0.912-1.272,1.62-1.272c0.108,0,0.192,0.012,0.288,0.036v0.984c-0.12-0.012-0.228-0.024-0.372-0.024
				c-0.744,0-1.272,0.564-1.416,1.344c-0.024,0.156-0.036,0.324-0.036,0.504v3.096h-1.056L125.649,101.617z"/>
			<path fill="#0A50A1" d="M130.089,102.889c0.024,1.428,0.924,2.016,1.98,2.016c0.756,0,1.224-0.132,1.608-0.288l0.192,0.744
				c-0.372,0.168-1.02,0.372-1.944,0.372c-1.776,0-2.856-1.188-2.856-2.928c0-1.764,1.044-3.144,2.736-3.144
				c1.896,0,2.388,1.668,2.388,2.736c0,0.216-0.012,0.384-0.036,0.504L130.089,102.889z M133.173,102.133
				c0.012-0.66-0.276-1.716-1.452-1.716c-1.08,0-1.536,0.984-1.62,1.716H133.173z"/>
			<path fill="#0A50A1" d="M135.501,97.093h1.056v3.636h0.024c0.372-0.648,1.044-1.056,1.98-1.056c1.44,0,2.448,1.2,2.448,2.952
				c0,2.088-1.32,3.12-2.616,3.12c-0.84,0-1.5-0.324-1.944-1.092h-0.024l-0.06,0.96h-0.912c0.036-0.396,0.048-0.984,0.048-1.5
				V97.093z M136.557,103.285c0,0.132,0.012,0.264,0.036,0.384c0.204,0.732,0.828,1.236,1.584,1.236c1.116,0,1.764-0.9,1.764-2.232
				c0-1.176-0.6-2.172-1.728-2.172c-0.72,0-1.392,0.504-1.596,1.296c-0.036,0.132-0.06,0.276-0.06,0.444V103.285z"/>
			<path fill="#0A50A1" d="M142.329,97.093h1.056v8.52h-1.056V97.093z"/>
			<path fill="#0A50A1" d="M145.737,102.889c0.024,1.428,0.924,2.016,1.98,2.016c0.756,0,1.224-0.132,1.608-0.288l0.192,0.744
				c-0.372,0.168-1.02,0.372-1.944,0.372c-1.776,0-2.856-1.188-2.856-2.928c0-1.764,1.044-3.144,2.736-3.144
				c1.896,0,2.388,1.668,2.388,2.736c0,0.216-0.012,0.384-0.036,0.504L145.737,102.889z M148.821,102.133
				c0.012-0.66-0.276-1.716-1.452-1.716c-1.08,0-1.536,0.984-1.62,1.716H148.821z"/>
			<path fill="#0A50A1" d="M157.833,105.409c-0.276,0.132-0.888,0.336-1.668,0.336c-1.752,0-2.892-1.188-2.892-2.976
				c0-1.788,1.224-3.096,3.12-3.096c0.624,0,1.176,0.156,1.464,0.312l-0.24,0.804c-0.252-0.132-0.648-0.276-1.224-0.276
				c-1.332,0-2.052,0.996-2.052,2.208c0,1.344,0.864,2.172,2.016,2.172c0.6,0,0.996-0.144,1.296-0.276L157.833,105.409z"/>
			<path fill="#0A50A1" d="M159.069,97.093h1.056v8.52h-1.056V97.093z"/>
			<path fill="#0A50A1" d="M162.477,102.889c0.024,1.428,0.924,2.016,1.98,2.016c0.756,0,1.224-0.132,1.608-0.288l0.192,0.744
				c-0.372,0.168-1.02,0.372-1.944,0.372c-1.776,0-2.856-1.188-2.856-2.928c0-1.764,1.044-3.144,2.736-3.144
				c1.896,0,2.388,1.668,2.388,2.736c0,0.216-0.012,0.384-0.036,0.504L162.477,102.889z M165.561,102.133
				c0.012-0.66-0.276-1.716-1.452-1.716c-1.08,0-1.536,0.984-1.62,1.716H165.561z"/>
			<path fill="#0A50A1" d="M167.984,105.613v-5.004h-0.804v-0.804h0.804v-0.276c0-0.816,0.192-1.56,0.684-2.028
				c0.396-0.384,0.924-0.54,1.404-0.54c0.384,0,0.696,0.084,0.9,0.168l-0.132,0.816c-0.168-0.072-0.372-0.132-0.684-0.132
				c-0.888,0-1.128,0.792-1.128,1.68v0.312h1.404v0.804h-1.392v5.004H167.984z"/>
			<path fill="#0A50A1" d="M173.937,97.093h1.056v8.52h-1.056V97.093z"/>
			<path fill="#0A50A1" d="M177.248,98.737c-0.396,0-0.66-0.312-0.66-0.684s0.276-0.672,0.684-0.672c0.408,0,0.672,0.3,0.672,0.672
				s-0.264,0.684-0.684,0.684H177.248z M176.744,105.613v-5.808h1.056v5.808H176.744z"/>
			<path fill="#0A50A1" d="M179.552,101.377c0-0.612-0.012-1.092-0.048-1.572h0.936l0.06,0.948h0.024
				c0.288-0.54,0.96-1.08,1.92-1.08c0.804,0,2.052,0.48,2.052,2.472v3.468h-1.056v-3.348c0-0.936-0.348-1.728-1.344-1.728
				c-0.684,0-1.224,0.492-1.416,1.08c-0.048,0.132-0.072,0.324-0.072,0.492v3.504h-1.056V101.377z"/>
			<path fill="#0A50A1" d="M186.812,102.889c0.024,1.428,0.924,2.016,1.98,2.016c0.756,0,1.224-0.132,1.608-0.288l0.192,0.744
				c-0.372,0.168-1.02,0.372-1.944,0.372c-1.776,0-2.856-1.188-2.856-2.928c0-1.764,1.044-3.144,2.736-3.144
				c1.896,0,2.388,1.668,2.388,2.736c0,0.216-0.012,0.384-0.036,0.504L186.812,102.889z M189.896,102.133
				c0.012-0.66-0.276-1.716-1.452-1.716c-1.08,0-1.536,0.984-1.62,1.716H189.896z"/>
			<path fill="#0A50A1" d="M192.08,104.545c0.324,0.192,0.876,0.408,1.404,0.408c0.756,0,1.116-0.372,1.116-0.864
				c0-0.504-0.3-0.78-1.068-1.068c-1.056-0.384-1.548-0.948-1.548-1.644c0-0.936,0.768-1.704,2.004-1.704
				c0.588,0,1.104,0.156,1.416,0.36l-0.252,0.756c-0.228-0.132-0.648-0.336-1.188-0.336c-0.624,0-0.96,0.36-0.96,0.792
				c0,0.492,0.336,0.708,1.092,0.996c0.996,0.372,1.524,0.876,1.524,1.752c0,1.032-0.804,1.752-2.16,1.752
				c-0.636,0-1.224-0.168-1.632-0.408L192.08,104.545z"/>
			<path fill="#0A50A1" d="M197.42,105.745c-0.408,0-0.696-0.324-0.696-0.744c0-0.444,0.3-0.756,0.708-0.756
				c0.432,0,0.708,0.312,0.708,0.756c0,0.42-0.276,0.744-0.708,0.744H197.42z M197.432,101.509c-0.408,0-0.696-0.324-0.696-0.744
				c0-0.444,0.3-0.756,0.708-0.756c0.432,0,0.708,0.312,0.708,0.756c0,0.42-0.276,0.744-0.708,0.744H197.432z"/>
			<path fill="#0A50A1" d="M120.981,111.809l-0.192,2.88h-0.648l-0.192-2.88H120.981z M122.77,111.809l-0.192,2.88h-0.648
				l-0.192-2.88H122.77z"/>
			<path fill="#0A50A1" d="M128.469,116.321h-3.132v2.916h3.504v0.876h-4.56v-8.088h4.38v0.876h-3.324v2.556h3.132V116.321z"/>
			<path fill="#0A50A1" d="M130.473,114.305l1.14,3.252c0.192,0.54,0.348,1.02,0.468,1.5h0.036c0.132-0.48,0.3-0.96,0.492-1.5
				l1.128-3.252h1.104l-2.28,5.808h-1.008l-2.208-5.808H130.473z"/>
			<path fill="#0A50A1" d="M136.305,117.389c0.024,1.428,0.924,2.016,1.98,2.016c0.756,0,1.224-0.132,1.608-0.288l0.192,0.744
				c-0.372,0.168-1.02,0.372-1.944,0.372c-1.776,0-2.856-1.188-2.856-2.928c0-1.764,1.044-3.144,2.736-3.144
				c1.896,0,2.388,1.668,2.388,2.736c0,0.216-0.012,0.384-0.036,0.504L136.305,117.389z M139.389,116.633
				c0.012-0.66-0.276-1.716-1.452-1.716c-1.08,0-1.536,0.984-1.62,1.716H139.389z"/>
			<path fill="#0A50A1" d="M141.729,116.117c0-0.684-0.012-1.272-0.048-1.812h0.924l0.048,1.14h0.036
				c0.264-0.78,0.912-1.272,1.62-1.272c0.108,0,0.192,0.012,0.288,0.036v0.984c-0.12-0.012-0.228-0.024-0.372-0.024
				c-0.744,0-1.272,0.564-1.416,1.344c-0.024,0.156-0.036,0.324-0.036,0.504v3.096h-1.056L141.729,116.117z"/>
			<path fill="#0A50A1" d="M146.313,114.305l1.26,3.432c0.144,0.384,0.288,0.84,0.384,1.188h0.024
				c0.108-0.348,0.228-0.792,0.372-1.212l1.152-3.408h1.116l-1.584,4.14c-0.756,1.992-1.272,3.012-1.992,3.648
				c-0.528,0.444-1.032,0.624-1.296,0.672l-0.264-0.888c0.264-0.072,0.612-0.24,0.924-0.516c0.288-0.228,0.636-0.636,0.888-1.176
				c0.048-0.108,0.084-0.18,0.084-0.252c0-0.06-0.024-0.144-0.084-0.264l-2.136-5.364H146.313z"/>
			<path fill="#0A50A1" d="M160.329,119.753c-0.468,0.18-1.404,0.444-2.496,0.444c-1.224,0-2.232-0.312-3.024-1.068
				c-0.696-0.672-1.128-1.752-1.128-3.012c0-2.412,1.668-4.176,4.38-4.176c0.936,0,1.68,0.204,2.028,0.372l-0.264,0.852
				c-0.432-0.204-0.972-0.348-1.788-0.348c-1.968,0-3.252,1.224-3.252,3.252c0,2.052,1.224,3.264,3.12,3.264
				c0.684,0,1.152-0.096,1.392-0.216v-2.412h-1.632v-0.84h2.664V119.753z"/>
			<path fill="#0A50A1" d="M164.313,120.245c-1.56,0-2.784-1.152-2.784-2.988c0-1.944,1.284-3.084,2.88-3.084
				c1.668,0,2.796,1.212,2.796,2.976c0,2.16-1.5,3.096-2.88,3.096H164.313z M164.349,119.453c1.008,0,1.764-0.948,1.764-2.268
				c0-0.984-0.492-2.22-1.74-2.22c-1.236,0-1.776,1.152-1.776,2.256c0,1.272,0.72,2.232,1.74,2.232H164.349z"/>
			<path fill="#0A50A1" d="M170.913,120.245c-1.56,0-2.784-1.152-2.784-2.988c0-1.944,1.284-3.084,2.88-3.084
				c1.668,0,2.796,1.212,2.796,2.976c0,2.16-1.5,3.096-2.88,3.096H170.913z M170.949,119.453c1.008,0,1.764-0.948,1.764-2.268
				c0-0.984-0.492-2.22-1.74-2.22c-1.236,0-1.776,1.152-1.776,2.256c0,1.272,0.72,2.232,1.74,2.232H170.949z"/>
			<path fill="#0A50A1" d="M180.165,111.593v7.02c0,0.516,0.012,1.104,0.048,1.5h-0.948l-0.048-1.008h-0.024
				c-0.324,0.648-1.02,1.14-1.968,1.14c-1.404,0-2.496-1.188-2.496-2.952c-0.012-1.944,1.2-3.12,2.604-3.12
				c0.9,0,1.5,0.42,1.752,0.876h0.024v-3.456H180.165z M179.108,116.669c0-0.144-0.012-0.312-0.048-0.456
				c-0.156-0.66-0.732-1.212-1.524-1.212c-1.092,0-1.74,0.96-1.74,2.232c0,1.188,0.588,2.16,1.716,2.16
				c0.708,0,1.356-0.48,1.548-1.26c0.036-0.144,0.048-0.288,0.048-0.456V116.669z"/>
			<path fill="#0A50A1" d="M184.496,112.145c0.456-0.108,1.188-0.18,1.908-0.18c1.044,0,1.716,0.18,2.208,0.588
				c0.42,0.312,0.684,0.792,0.684,1.428c0,0.792-0.528,1.476-1.368,1.776v0.036c0.768,0.18,1.668,0.816,1.668,2.016
				c0,0.696-0.276,1.224-0.696,1.62c-0.552,0.516-1.464,0.756-2.784,0.756c-0.72,0-1.272-0.048-1.62-0.096V112.145z M185.54,115.457
				h0.948c1.092,0,1.74-0.588,1.74-1.368c0-0.936-0.708-1.32-1.764-1.32c-0.48,0-0.756,0.036-0.924,0.072V115.457z M185.54,119.321
				c0.216,0.036,0.504,0.048,0.876,0.048c1.08,0,2.076-0.396,2.076-1.572c0-1.092-0.948-1.56-2.088-1.56h-0.864V119.321z"/>
			<path fill="#0A50A1" d="M193.388,120.245c-1.56,0-2.784-1.152-2.784-2.988c0-1.944,1.284-3.084,2.88-3.084
				c1.668,0,2.796,1.212,2.796,2.976c0,2.16-1.5,3.096-2.88,3.096H193.388z M193.424,119.453c1.008,0,1.764-0.948,1.764-2.268
				c0-0.984-0.492-2.22-1.74-2.22c-1.236,0-1.776,1.152-1.776,2.256c0,1.272,0.72,2.232,1.74,2.232H193.424z"/>
			<path fill="#0A50A1" d="M197.888,114.305l1.26,3.432c0.144,0.384,0.288,0.84,0.384,1.188h0.024
				c0.108-0.348,0.228-0.792,0.372-1.212l1.152-3.408h1.116l-1.584,4.14c-0.756,1.992-1.272,3.012-1.992,3.648
				c-0.528,0.444-1.032,0.624-1.296,0.672l-0.264-0.888c0.264-0.072,0.612-0.24,0.924-0.516c0.288-0.228,0.636-0.636,0.888-1.176
				c0.048-0.108,0.084-0.18,0.084-0.252c0-0.06-0.024-0.144-0.084-0.264l-2.136-5.364H197.888z"/>
			<path fill="#0A50A1" d="M205.724,112.133c0.648-0.096,1.404-0.168,2.232-0.168c1.5,0,2.568,0.336,3.276,0.996
				c0.732,0.66,1.152,1.608,1.152,2.916c0,1.32-0.42,2.4-1.164,3.144c-0.768,0.756-2.016,1.164-3.588,1.164
				c-0.756,0-1.368-0.024-1.908-0.096V112.133z M206.78,119.297c0.264,0.048,0.648,0.048,1.056,0.048
				c2.232,0.012,3.444-1.248,3.444-3.432c0.012-1.932-1.068-3.12-3.276-3.12c-0.54,0-0.948,0.048-1.224,0.108V119.297z"/>
			<path fill="#0A50A1" d="M216.127,120.245c-1.56,0-2.784-1.152-2.784-2.988c0-1.944,1.284-3.084,2.88-3.084
				c1.668,0,2.796,1.212,2.796,2.976c0,2.16-1.5,3.096-2.88,3.096H216.127z M216.164,119.453c1.008,0,1.764-0.948,1.764-2.268
				c0-0.984-0.492-2.22-1.74-2.22c-1.236,0-1.776,1.152-1.776,2.256c0,1.272,0.72,2.232,1.74,2.232H216.164z"/>
			<path fill="#0A50A1" d="M220.963,117.389c0.024,1.428,0.924,2.016,1.98,2.016c0.756,0,1.224-0.132,1.608-0.288l0.192,0.744
				c-0.372,0.168-1.02,0.372-1.944,0.372c-1.776,0-2.856-1.188-2.856-2.928c0-1.764,1.044-3.144,2.736-3.144
				c1.896,0,2.388,1.668,2.388,2.736c0,0.216-0.012,0.384-0.036,0.504L220.963,117.389z M224.047,116.633
				c0.012-0.66-0.276-1.716-1.452-1.716c-1.08,0-1.536,0.984-1.62,1.716H224.047z"/>
			<path fill="#0A50A1" d="M226.231,119.045c0.324,0.192,0.876,0.408,1.404,0.408c0.756,0,1.116-0.372,1.116-0.864
				c0-0.504-0.3-0.78-1.068-1.068c-1.056-0.384-1.548-0.948-1.548-1.644c0-0.936,0.768-1.704,2.004-1.704
				c0.588,0,1.104,0.156,1.416,0.36l-0.252,0.756c-0.228-0.132-0.648-0.336-1.188-0.336c-0.624,0-0.96,0.36-0.96,0.792
				c0,0.492,0.336,0.708,1.092,0.996c0.996,0.372,1.524,0.876,1.524,1.752c0,1.032-0.804,1.752-2.16,1.752
				c-0.636,0-1.224-0.168-1.632-0.408L226.231,119.045z"/>
			<path fill="#0A50A1" d="M233.695,112.025h4.356v0.876h-3.3v2.688h3.048v0.864h-3.048v3.66h-1.056V112.025z"/>
			<path fill="#0A50A1" d="M239.708,113.237c-0.396,0-0.66-0.312-0.66-0.684s0.276-0.672,0.684-0.672s0.672,0.3,0.672,0.672
				s-0.264,0.684-0.684,0.684H239.708z M239.204,120.113v-5.808h1.056v5.808H239.204z"/>
			<path fill="#0A50A1" d="M242.011,115.877c0-0.612-0.012-1.092-0.048-1.572h0.936l0.06,0.948h0.024
				c0.288-0.54,0.96-1.08,1.92-1.08c0.804,0,2.052,0.48,2.052,2.472v3.468h-1.056v-3.348c0-0.936-0.348-1.728-1.344-1.728
				c-0.684,0-1.224,0.492-1.416,1.08c-0.048,0.132-0.072,0.324-0.072,0.492v3.504h-1.056V115.877z"/>
			<path fill="#0A50A1" d="M249.271,117.389c0.024,1.428,0.924,2.016,1.98,2.016c0.756,0,1.224-0.132,1.608-0.288l0.192,0.744
				c-0.372,0.168-1.02,0.372-1.944,0.372c-1.776,0-2.856-1.188-2.856-2.928c0-1.764,1.044-3.144,2.736-3.144
				c1.896,0,2.388,1.668,2.388,2.736c0,0.216-0.012,0.384-0.036,0.504L249.271,117.389z M252.355,116.633
				c0.012-0.66-0.276-1.716-1.452-1.716c-1.08,0-1.536,0.984-1.62,1.716H252.355z"/>
			<path fill="#0A50A1" d="M255.451,111.809l-0.192,2.88h-0.648l-0.192-2.88H255.451z M257.239,111.809l-0.192,2.88h-0.648
				l-0.192-2.88H257.239z"/>
			<path fill="#0A50A1" d="M122.578,134.745c-1.56,0-2.784-1.152-2.784-2.988c0-1.944,1.284-3.084,2.88-3.084
				c1.668,0,2.796,1.212,2.796,2.976c0,2.16-1.5,3.096-2.88,3.096H122.578z M122.613,133.953c1.008,0,1.764-0.948,1.764-2.268
				c0-0.984-0.492-2.22-1.74-2.22c-1.236,0-1.776,1.152-1.776,2.256c0,1.272,0.72,2.232,1.74,2.232H122.613z"/>
			<path fill="#0A50A1" d="M126.813,130.617c0-0.684-0.012-1.272-0.048-1.812h0.924l0.048,1.14h0.036
				c0.264-0.78,0.912-1.272,1.62-1.272c0.108,0,0.192,0.012,0.288,0.036v0.984c-0.12-0.012-0.228-0.024-0.372-0.024
				c-0.744,0-1.272,0.564-1.416,1.344c-0.024,0.156-0.036,0.324-0.036,0.504v3.096h-1.056L126.813,130.617z"/>
			<path fill="#0A50A1" d="M120.981,140.809l-0.192,2.88h-0.648l-0.192-2.88H120.981z M122.77,140.809l-0.192,2.88h-0.648
				l-0.192-2.88H122.77z"/>
			<path fill="#0A50A1" d="M128.469,145.321h-3.132v2.916h3.504v0.876h-4.56v-8.088h4.38v0.876h-3.324v2.556h3.132V145.321z"/>
			<path fill="#0A50A1" d="M130.473,143.305l1.14,3.252c0.192,0.54,0.348,1.02,0.468,1.5h0.036c0.132-0.48,0.3-0.96,0.492-1.5
				l1.128-3.252h1.104l-2.28,5.808h-1.008l-2.208-5.808H130.473z"/>
			<path fill="#0A50A1" d="M136.305,146.389c0.024,1.428,0.924,2.016,1.98,2.016c0.756,0,1.224-0.132,1.608-0.288l0.192,0.744
				c-0.372,0.168-1.02,0.372-1.944,0.372c-1.776,0-2.856-1.188-2.856-2.928c0-1.764,1.044-3.144,2.736-3.144
				c1.896,0,2.388,1.668,2.388,2.736c0,0.216-0.012,0.384-0.036,0.504L136.305,146.389z M139.389,145.633
				c0.012-0.66-0.276-1.716-1.452-1.716c-1.08,0-1.536,0.984-1.62,1.716H139.389z"/>
			<path fill="#0A50A1" d="M141.729,145.117c0-0.684-0.012-1.272-0.048-1.812h0.924l0.048,1.14h0.036
				c0.264-0.78,0.912-1.272,1.62-1.272c0.108,0,0.192,0.012,0.288,0.036v0.984c-0.12-0.012-0.228-0.024-0.372-0.024
				c-0.744,0-1.272,0.564-1.416,1.344c-0.024,0.156-0.036,0.324-0.036,0.504v3.096h-1.056L141.729,145.117z"/>
			<path fill="#0A50A1" d="M146.313,143.305l1.26,3.432c0.144,0.384,0.288,0.84,0.384,1.188h0.024
				c0.108-0.348,0.228-0.792,0.372-1.212l1.152-3.408h1.116l-1.584,4.14c-0.756,1.992-1.272,3.012-1.992,3.648
				c-0.528,0.444-1.032,0.624-1.296,0.672l-0.264-0.888c0.264-0.072,0.612-0.24,0.924-0.516c0.288-0.228,0.636-0.636,0.888-1.176
				c0.048-0.108,0.084-0.18,0.084-0.252c0-0.06-0.024-0.144-0.084-0.264l-2.136-5.364H146.313z"/>
			<path fill="#0A50A1" d="M160.329,148.753c-0.468,0.18-1.404,0.444-2.496,0.444c-1.224,0-2.232-0.312-3.024-1.068
				c-0.696-0.672-1.128-1.752-1.128-3.012c0-2.412,1.668-4.176,4.38-4.176c0.936,0,1.68,0.204,2.028,0.372l-0.264,0.852
				c-0.432-0.204-0.972-0.348-1.788-0.348c-1.968,0-3.252,1.224-3.252,3.252c0,2.052,1.224,3.264,3.12,3.264
				c0.684,0,1.152-0.096,1.392-0.216v-2.412h-1.632v-0.84h2.664V148.753z"/>
			<path fill="#0A50A1" d="M164.313,149.245c-1.56,0-2.784-1.152-2.784-2.988c0-1.944,1.284-3.084,2.88-3.084
				c1.668,0,2.796,1.212,2.796,2.976c0,2.16-1.5,3.096-2.88,3.096H164.313z M164.349,148.453c1.008,0,1.764-0.948,1.764-2.268
				c0-0.984-0.492-2.22-1.74-2.22c-1.236,0-1.776,1.152-1.776,2.256c0,1.272,0.72,2.232,1.74,2.232H164.349z"/>
			<path fill="#0A50A1" d="M170.913,149.245c-1.56,0-2.784-1.152-2.784-2.988c0-1.944,1.284-3.084,2.88-3.084
				c1.668,0,2.796,1.212,2.796,2.976c0,2.16-1.5,3.096-2.88,3.096H170.913z M170.949,148.453c1.008,0,1.764-0.948,1.764-2.268
				c0-0.984-0.492-2.22-1.74-2.22c-1.236,0-1.776,1.152-1.776,2.256c0,1.272,0.72,2.232,1.74,2.232H170.949z"/>
			<path fill="#0A50A1" d="M180.165,140.593v7.02c0,0.516,0.012,1.104,0.048,1.5h-0.948l-0.048-1.008h-0.024
				c-0.324,0.648-1.02,1.14-1.968,1.14c-1.404,0-2.496-1.188-2.496-2.952c-0.012-1.944,1.2-3.12,2.604-3.12
				c0.9,0,1.5,0.42,1.752,0.876h0.024v-3.456H180.165z M179.108,145.669c0-0.144-0.012-0.312-0.048-0.456
				c-0.156-0.66-0.732-1.212-1.524-1.212c-1.092,0-1.74,0.96-1.74,2.232c0,1.188,0.588,2.16,1.716,2.16
				c0.708,0,1.356-0.48,1.548-1.26c0.036-0.144,0.048-0.288,0.048-0.456V145.669z"/>
			<path fill="#0A50A1" d="M184.496,141.145c0.456-0.108,1.188-0.18,1.908-0.18c1.044,0,1.716,0.18,2.208,0.588
				c0.42,0.312,0.684,0.792,0.684,1.428c0,0.792-0.528,1.476-1.368,1.776v0.036c0.768,0.18,1.668,0.816,1.668,2.016
				c0,0.696-0.276,1.224-0.696,1.62c-0.552,0.516-1.464,0.756-2.784,0.756c-0.72,0-1.272-0.048-1.62-0.096V141.145z M185.54,144.457
				h0.948c1.092,0,1.74-0.588,1.74-1.368c0-0.936-0.708-1.32-1.764-1.32c-0.48,0-0.756,0.036-0.924,0.072V144.457z M185.54,148.321
				c0.216,0.036,0.504,0.048,0.876,0.048c1.08,0,2.076-0.396,2.076-1.572c0-1.092-0.948-1.56-2.088-1.56h-0.864V148.321z"/>
			<path fill="#0A50A1" d="M193.388,149.245c-1.56,0-2.784-1.152-2.784-2.988c0-1.944,1.284-3.084,2.88-3.084
				c1.668,0,2.796,1.212,2.796,2.976c0,2.16-1.5,3.096-2.88,3.096H193.388z M193.424,148.453c1.008,0,1.764-0.948,1.764-2.268
				c0-0.984-0.492-2.22-1.74-2.22c-1.236,0-1.776,1.152-1.776,2.256c0,1.272,0.72,2.232,1.74,2.232H193.424z"/>
			<path fill="#0A50A1" d="M197.888,143.305l1.26,3.432c0.144,0.384,0.288,0.84,0.384,1.188h0.024
				c0.108-0.348,0.228-0.792,0.372-1.212l1.152-3.408h1.116l-1.584,4.14c-0.756,1.992-1.272,3.012-1.992,3.648
				c-0.528,0.444-1.032,0.624-1.296,0.672l-0.264-0.888c0.264-0.072,0.612-0.24,0.924-0.516c0.288-0.228,0.636-0.636,0.888-1.176
				c0.048-0.108,0.084-0.18,0.084-0.252c0-0.06-0.024-0.144-0.084-0.264l-2.136-5.364H197.888z"/>
			<path fill="#0A50A1" d="M205.724,141.133c0.648-0.096,1.404-0.168,2.232-0.168c1.5,0,2.568,0.336,3.276,0.996
				c0.732,0.66,1.152,1.608,1.152,2.916c0,1.32-0.42,2.4-1.164,3.144c-0.768,0.756-2.016,1.164-3.588,1.164
				c-0.756,0-1.368-0.024-1.908-0.096V141.133z M206.78,148.297c0.264,0.048,0.648,0.048,1.056,0.048
				c2.232,0.012,3.444-1.248,3.444-3.432c0.012-1.932-1.068-3.12-3.276-3.12c-0.54,0-0.948,0.048-1.224,0.108V148.297z"/>
			<path fill="#0A50A1" d="M214.364,146.389c0.024,1.428,0.924,2.016,1.98,2.016c0.756,0,1.224-0.132,1.608-0.288l0.192,0.744
				c-0.372,0.168-1.02,0.372-1.944,0.372c-1.776,0-2.856-1.188-2.856-2.928c0-1.764,1.044-3.144,2.736-3.144
				c1.896,0,2.388,1.668,2.388,2.736c0,0.216-0.012,0.384-0.036,0.504L214.364,146.389z M217.448,145.633
				c0.012-0.66-0.276-1.716-1.452-1.716c-1.08,0-1.536,0.984-1.62,1.716H217.448z"/>
			<path fill="#0A50A1" d="M219.631,148.045c0.324,0.192,0.876,0.408,1.404,0.408c0.756,0,1.116-0.372,1.116-0.864
				c0-0.504-0.3-0.78-1.068-1.068c-1.056-0.384-1.548-0.948-1.548-1.644c0-0.936,0.768-1.704,2.004-1.704
				c0.588,0,1.104,0.156,1.416,0.36l-0.252,0.756c-0.228-0.132-0.648-0.336-1.188-0.336c-0.624,0-0.96,0.36-0.96,0.792
				c0,0.492,0.336,0.708,1.092,0.996c0.996,0.372,1.524,0.876,1.524,1.752c0,1.032-0.804,1.752-2.16,1.752
				c-0.636,0-1.224-0.168-1.632-0.408L219.631,148.045z"/>
			<path fill="#0A50A1" d="M225.127,146.389c0.024,1.428,0.924,2.016,1.98,2.016c0.756,0,1.224-0.132,1.608-0.288l0.192,0.744
				c-0.372,0.168-1.02,0.372-1.944,0.372c-1.776,0-2.856-1.188-2.856-2.928c0-1.764,1.044-3.144,2.736-3.144
				c1.896,0,2.388,1.668,2.388,2.736c0,0.216-0.012,0.384-0.036,0.504L225.127,146.389z M228.211,145.633
				c0.012-0.66-0.276-1.716-1.452-1.716c-1.08,0-1.536,0.984-1.62,1.716H228.211z"/>
			<path fill="#0A50A1" d="M230.551,145.117c0-0.684-0.012-1.272-0.048-1.812h0.924l0.048,1.14h0.036
				c0.264-0.78,0.912-1.272,1.62-1.272c0.108,0,0.192,0.012,0.288,0.036v0.984c-0.12-0.012-0.228-0.024-0.372-0.024
				c-0.744,0-1.272,0.564-1.416,1.344c-0.024,0.156-0.036,0.324-0.036,0.504v3.096h-1.056L230.551,145.117z"/>
			<path fill="#0A50A1" d="M235.171,143.305l1.14,3.252c0.192,0.54,0.348,1.02,0.468,1.5h0.036c0.132-0.48,0.3-0.96,0.492-1.5
				l1.128-3.252h1.104l-2.28,5.808h-1.008l-2.208-5.808H235.171z"/>
			<path fill="#0A50A1" d="M241.003,146.389c0.024,1.428,0.924,2.016,1.98,2.016c0.756,0,1.224-0.132,1.608-0.288l0.192,0.744
				c-0.372,0.168-1.02,0.372-1.944,0.372c-1.776,0-2.856-1.188-2.856-2.928c0-1.764,1.044-3.144,2.736-3.144
				c1.896,0,2.388,1.668,2.388,2.736c0,0.216-0.012,0.384-0.036,0.504L241.003,146.389z M244.087,145.633
				c0.012-0.66-0.276-1.716-1.452-1.716c-1.08,0-1.536,0.984-1.62,1.716H244.087z"/>
			<path fill="#0A50A1" d="M246.271,148.045c0.324,0.192,0.876,0.408,1.404,0.408c0.756,0,1.116-0.372,1.116-0.864
				c0-0.504-0.3-0.78-1.068-1.068c-1.056-0.384-1.548-0.948-1.548-1.644c0-0.936,0.768-1.704,2.004-1.704
				c0.588,0,1.104,0.156,1.416,0.36l-0.252,0.756c-0.228-0.132-0.648-0.336-1.188-0.336c-0.624,0-0.96,0.36-0.96,0.792
				c0,0.492,0.336,0.708,1.092,0.996c0.996,0.372,1.524,0.876,1.524,1.752c0,1.032-0.804,1.752-2.16,1.752
				c-0.636,0-1.224-0.168-1.632-0.408L246.271,148.045z"/>
			<path fill="#0A50A1" d="M253.735,141.025h4.356v0.876h-3.3v2.688h3.048v0.864h-3.048v3.66h-1.056V141.025z"/>
			<path fill="#0A50A1" d="M263.995,147.529c0,0.6,0.012,1.128,0.048,1.584h-0.936l-0.06-0.948h-0.024
				c-0.264,0.468-0.888,1.08-1.92,1.08c-0.912,0-2.004-0.516-2.004-2.544v-3.396h1.056v3.204c0,1.104,0.348,1.86,1.296,1.86
				c0.708,0,1.2-0.492,1.392-0.972c0.06-0.144,0.096-0.336,0.096-0.54v-3.552h1.056V147.529z"/>
			<path fill="#0A50A1" d="M270.763,140.593v7.02c0,0.516,0.012,1.104,0.048,1.5h-0.948l-0.048-1.008h-0.024
				c-0.324,0.648-1.02,1.14-1.968,1.14c-1.404,0-2.496-1.188-2.496-2.952c-0.012-1.944,1.2-3.12,2.604-3.12
				c0.9,0,1.5,0.42,1.752,0.876h0.024v-3.456H270.763z M269.707,145.669c0-0.144-0.012-0.312-0.048-0.456
				c-0.156-0.66-0.732-1.212-1.524-1.212c-1.092,0-1.74,0.96-1.74,2.232c0,1.188,0.588,2.16,1.716,2.16
				c0.708,0,1.356-0.48,1.548-1.26c0.036-0.144,0.048-0.288,0.048-0.456V145.669z"/>
			<path fill="#0A50A1" d="M277.483,148.261c0,1.344-0.276,2.148-0.828,2.664c-0.576,0.516-1.392,0.696-2.124,0.696
				c-0.696,0-1.464-0.168-1.932-0.48l0.264-0.816c0.384,0.252,0.984,0.468,1.704,0.468c1.08,0,1.872-0.564,1.872-2.04v-0.636h-0.024
				c-0.312,0.54-0.948,0.972-1.848,0.972c-1.44,0-2.472-1.224-2.472-2.844c0-1.968,1.284-3.072,2.628-3.072
				c1.008,0,1.548,0.516,1.812,0.996h0.024l0.036-0.864h0.936c-0.036,0.408-0.048,0.876-0.048,1.584V148.261z M276.427,145.585
				c0-0.168-0.012-0.324-0.06-0.468c-0.192-0.624-0.696-1.128-1.476-1.128c-1.008,0-1.728,0.852-1.728,2.208
				c0,1.128,0.588,2.088,1.716,2.088c0.66,0,1.248-0.408,1.464-1.092c0.06-0.168,0.084-0.372,0.084-0.564V145.585z"/>
			<path fill="#0A50A1" d="M279.823,146.389c0.024,1.428,0.924,2.016,1.98,2.016c0.756,0,1.224-0.132,1.608-0.288l0.192,0.744
				c-0.372,0.168-1.02,0.372-1.944,0.372c-1.776,0-2.856-1.188-2.856-2.928c0-1.764,1.044-3.144,2.736-3.144
				c1.896,0,2.388,1.668,2.388,2.736c0,0.216-0.012,0.384-0.036,0.504L279.823,146.389z M282.907,145.633
				c0.012-0.66-0.276-1.716-1.452-1.716c-1.08,0-1.536,0.984-1.62,1.716H282.907z"/>
			<path fill="#0A50A1" d="M286.003,140.809l-0.192,2.88h-0.648l-0.192-2.88H286.003z M287.791,140.809l-0.192,2.88h-0.648
				l-0.192-2.88H287.791z"/>
		</g>
		<g>
			<path fill="none" stroke="#000000" stroke-width="2" d="M0.61,244.495h374.191"/>
			<path fill="none" stroke="#000000" stroke-width="2" d="M0.793,261.277h374.196"/>
			<path fill="none" stroke="#000000" stroke-width="2" d="M0.51,278.672h374.191"/>
			<path fill="none" stroke="#000000" stroke-width="2" d="M0.61,226.495h374.191"/>
			<path fill="none" stroke="#000000" stroke-width="2" d="M0.61,210.495h374.191"/>
		</g>
		<g>
			<path fill="#0F2725" d="M26.957,278.563c-10.174-5.124-11.804-11.711-12.248-18.456c-0.494-7.319,3.902-14.744,8.001-18.874
				c2.371-2.353,4.938-4.653,8-7.111c-0.099-1.83-0.494-2.562-0.691-5.176c-0.049-1.098-0.691-6.222,0.346-12.13
				c0.642-3.503,4.791-11.764,7.655-11.816c2.223-0.052,5.63,9.358,5.729,14.064c0.148,7.268-1.481,10.562-3.506,14.326
				c-1.037,1.882-2.124,3.189-3.26,4.653c-1.185,1.516-2.519,2.405-3.753,3.555c0,0,1.581,9.463,1.63,10.143
				c3.161-0.418,7.013,0.784,8.396,1.83c3.506,2.771,4.84,6.587,5.087,10.3c0.444,5.908-2.618,12.129-9.384,15.11
				c0,0,1.037,7.529,1.284,9.097c0.543,4.13,0.444,6.745-0.395,8.417c-1.433,2.823-3.754,5.438-8.248,5.751
				c-3.457,0.209-10.272-1.621-10.618-7.372c-0.198-3.398,1.234-7.058,5.136-7.32c2.371-0.209,5.186,1.882,5.383,4.862
				c0.197,2.562-1.383,5.229-5.482,6.431c0.642,0.941,2.568,2.039,5.333,2.039c2.865,0,5.828-2.039,7.26-4.758
				c0.889-1.778,0.79-4.967,0.444-7.895c-0.148-0.993-1.333-8.888-1.333-8.888C34.069,279.974,29.031,279.608,26.957,278.563z
				 M27.945,266.171c0.099,2.51,2.074,5.438,3.902,6.431c-0.247,0.157-0.494,0.575-0.494,0.575
				c-2.025-1.045-3.753-2.771-4.198-3.398c-1.432-2.039-2.025-3.189-2.223-6.274c-0.197-2.875,1.284-6.745,4.593-9.463
				c1.729-1.359,2.568-1.673,4.05-2.039l-1.481-9.463c-1.531,0.941-7.853,6.326-10.52,10.718c-2.371,3.921-3.803,7.058-3.506,10.927
				c0.593,8.731,9.631,15.894,19.409,13.437c0,0-2.914-18.561-2.864-18.561C29.229,259.27,27.797,263.662,27.945,266.171z
				 M31.945,233.024c4.297-3.555,10.125-10.248,9.779-15.424c-0.099-1.621-0.741-4.548-2.963-4.496
				C33.674,213.156,30.81,224.397,31.945,233.024z M38.662,277.203c5.68-2.039,5.927-7.215,5.729-10.3
				c-0.198-2.562-1.284-8.313-8.495-7.947L38.662,277.203z"/>
		</g>
		<g>
			<path d="M95.513,265.801h4.932v1.5h-3.108v1.848h2.904v1.488h-2.904v3.252h-1.824V265.801z"/>
		</g>
		<g>
			<path d="M151.373,254.813l-0.564,2.076h-1.896l2.472-8.088h2.388l2.52,8.088h-1.968l-0.624-2.076H151.373z M153.425,253.445
				l-0.504-1.716c-0.132-0.48-0.276-1.092-0.396-1.56h-0.036c-0.108,0.48-0.24,1.092-0.36,1.56l-0.492,1.716H153.425z"/>
		</g>
		<g>
			<path fill="#160E11" d="M206.429,239.673c-0.324,0.156-1.092,0.348-2.064,0.348c-2.796,0-4.236-1.752-4.236-4.068
				c0-2.76,1.968-4.284,4.416-4.284c0.948,0,1.668,0.192,1.992,0.36l-0.384,1.44c-0.36-0.156-0.876-0.3-1.536-0.3
				c-1.44,0-2.568,0.876-2.568,2.688c0,1.62,0.96,2.64,2.58,2.64c0.564,0,1.164-0.108,1.536-0.264L206.429,239.673z"/>
		</g>
		<g>
			<path d="M255.313,219.469h-2.976v1.92h3.324v1.5h-5.148v-8.088h4.98v1.5h-3.156v1.68h2.976V219.469z"/>
		</g>
		<g>
			<path fill="#0A50A1" d="M120.854,304.137h-2.46v-0.888h5.988v0.888h-2.472v7.2h-1.056V304.137z"/>
			<path fill="#0A50A1" d="M124.718,307.341c0-0.684-0.012-1.272-0.048-1.812h0.924l0.048,1.14h0.036
				c0.264-0.78,0.912-1.272,1.62-1.272c0.108,0,0.192,0.012,0.288,0.036v0.984c-0.12-0.012-0.228-0.024-0.372-0.024
				c-0.744,0-1.272,0.564-1.416,1.344c-0.024,0.156-0.036,0.324-0.036,0.504v3.096h-1.056L124.718,307.341z"/>
			<path fill="#0A50A1" d="M129.158,308.613c0.024,1.428,0.924,2.016,1.98,2.016c0.756,0,1.224-0.132,1.608-0.288l0.192,0.744
				c-0.372,0.168-1.02,0.372-1.944,0.372c-1.776,0-2.856-1.188-2.856-2.928c0-1.764,1.044-3.144,2.736-3.144
				c1.896,0,2.388,1.668,2.388,2.736c0,0.216-0.012,0.384-0.036,0.504L129.158,308.613z M132.242,307.857
				c0.012-0.66-0.276-1.716-1.452-1.716c-1.08,0-1.536,0.984-1.62,1.716H132.242z"/>
			<path fill="#0A50A1" d="M134.57,302.817h1.056v3.636h0.024c0.372-0.648,1.044-1.056,1.98-1.056c1.44,0,2.448,1.2,2.448,2.952
				c0,2.088-1.32,3.12-2.616,3.12c-0.84,0-1.5-0.324-1.944-1.092h-0.024l-0.06,0.96h-0.912c0.036-0.396,0.048-0.984,0.048-1.5
				V302.817z M135.626,309.009c0,0.132,0.012,0.264,0.036,0.384c0.204,0.732,0.828,1.236,1.584,1.236c1.116,0,1.764-0.9,1.764-2.232
				c0-1.176-0.6-2.172-1.728-2.172c-0.72,0-1.392,0.504-1.596,1.296c-0.036,0.132-0.06,0.276-0.06,0.444V309.009z"/>
			<path fill="#0A50A1" d="M141.398,302.817h1.056v8.52h-1.056V302.817z"/>
			<path fill="#0A50A1" d="M144.806,308.613c0.024,1.428,0.924,2.016,1.98,2.016c0.756,0,1.224-0.132,1.608-0.288l0.192,0.744
				c-0.372,0.168-1.02,0.372-1.944,0.372c-1.776,0-2.856-1.188-2.856-2.928c0-1.764,1.044-3.144,2.736-3.144
				c1.896,0,2.388,1.668,2.388,2.736c0,0.216-0.012,0.384-0.036,0.504L144.806,308.613z M147.89,307.857
				c0.012-0.66-0.276-1.716-1.452-1.716c-1.08,0-1.536,0.984-1.62,1.716H147.89z"/>
			<path fill="#0A50A1" d="M156.902,311.133c-0.276,0.132-0.888,0.336-1.668,0.336c-1.752,0-2.892-1.188-2.892-2.976
				c0-1.788,1.224-3.096,3.12-3.096c0.624,0,1.176,0.156,1.464,0.312l-0.24,0.804c-0.252-0.132-0.648-0.276-1.224-0.276
				c-1.332,0-2.052,0.996-2.052,2.208c0,1.344,0.864,2.172,2.016,2.172c0.6,0,0.996-0.144,1.296-0.276L156.902,311.133z"/>
			<path fill="#0A50A1" d="M158.138,302.817h1.056v8.52h-1.056V302.817z"/>
			<path fill="#0A50A1" d="M161.545,308.613c0.024,1.428,0.924,2.016,1.98,2.016c0.756,0,1.224-0.132,1.608-0.288l0.192,0.744
				c-0.372,0.168-1.02,0.372-1.944,0.372c-1.776,0-2.856-1.188-2.856-2.928c0-1.764,1.044-3.144,2.736-3.144
				c1.896,0,2.388,1.668,2.388,2.736c0,0.216-0.012,0.384-0.036,0.504L161.545,308.613z M164.629,307.857
				c0.012-0.66-0.276-1.716-1.452-1.716c-1.08,0-1.536,0.984-1.62,1.716H164.629z"/>
			<path fill="#0A50A1" d="M167.053,311.337v-5.004h-0.804v-0.804h0.804v-0.276c0-0.816,0.192-1.56,0.684-2.028
				c0.396-0.384,0.924-0.54,1.404-0.54c0.384,0,0.696,0.084,0.9,0.168l-0.132,0.816c-0.168-0.072-0.372-0.132-0.684-0.132
				c-0.888,0-1.128,0.792-1.128,1.68v0.312h1.404v0.804h-1.392v5.004H167.053z"/>
			<path fill="#0A50A1" d="M172.861,310.27c0.324,0.192,0.876,0.408,1.404,0.408c0.756,0,1.116-0.372,1.116-0.864
				c0-0.504-0.3-0.78-1.068-1.068c-1.056-0.384-1.548-0.948-1.548-1.644c0-0.936,0.768-1.704,2.004-1.704
				c0.588,0,1.104,0.156,1.416,0.36l-0.252,0.756c-0.228-0.132-0.648-0.336-1.188-0.336c-0.624,0-0.96,0.36-0.96,0.792
				c0,0.492,0.336,0.708,1.092,0.996c0.996,0.372,1.524,0.876,1.524,1.752c0,1.032-0.804,1.752-2.16,1.752
				c-0.636,0-1.224-0.168-1.632-0.408L172.861,310.27z"/>
			<path fill="#0A50A1" d="M177.757,307.425c0-0.744-0.012-1.344-0.048-1.896h0.948l0.06,0.996h0.024
				c0.42-0.72,1.116-1.128,2.052-1.128c1.416,0,2.472,1.188,2.472,2.952c0,2.088-1.284,3.12-2.64,3.12
				c-0.78,0-1.44-0.336-1.788-0.912h-0.024v3.156h-1.056V307.425z M178.813,308.973c0,0.144,0.012,0.3,0.048,0.432
				c0.18,0.732,0.828,1.236,1.572,1.236c1.116,0,1.764-0.912,1.764-2.244c0-1.164-0.6-2.16-1.716-2.16
				c-0.72,0-1.404,0.504-1.608,1.296c-0.024,0.144-0.06,0.3-0.06,0.432V308.973z"/>
			<path fill="#0A50A1" d="M188.677,309.945c0,0.504,0.024,0.996,0.084,1.392h-0.948l-0.096-0.732h-0.036
				c-0.312,0.456-0.948,0.864-1.776,0.864c-1.176,0-1.776-0.828-1.776-1.668c0-1.404,1.248-2.172,3.492-2.16v-0.12
				c0-0.48-0.132-1.356-1.32-1.344c-0.552,0-1.116,0.156-1.524,0.432l-0.24-0.708c0.48-0.3,1.188-0.504,1.92-0.504
				c1.788,0,2.22,1.212,2.22,2.376V309.945z M187.645,308.374c-1.152-0.024-2.46,0.18-2.46,1.308c0,0.696,0.456,1.008,0.984,1.008
				c0.768,0,1.26-0.48,1.428-0.972c0.036-0.108,0.048-0.228,0.048-0.336V308.374z"/>
			<path fill="#0A50A1" d="M194.509,311.133c-0.276,0.132-0.888,0.336-1.668,0.336c-1.752,0-2.892-1.188-2.892-2.976
				c0-1.788,1.224-3.096,3.12-3.096c0.624,0,1.176,0.156,1.464,0.312l-0.24,0.804c-0.252-0.132-0.648-0.276-1.224-0.276
				c-1.332,0-2.052,0.996-2.052,2.208c0,1.344,0.864,2.172,2.016,2.172c0.6,0,0.996-0.144,1.296-0.276L194.509,311.133z"/>
			<path fill="#0A50A1" d="M196.273,308.613c0.024,1.428,0.924,2.016,1.98,2.016c0.756,0,1.224-0.132,1.608-0.288l0.192,0.744
				c-0.372,0.168-1.02,0.372-1.944,0.372c-1.776,0-2.856-1.188-2.856-2.928c0-1.764,1.044-3.144,2.736-3.144
				c1.896,0,2.388,1.668,2.388,2.736c0,0.216-0.012,0.384-0.036,0.504L196.273,308.613z M199.357,307.857
				c0.012-0.66-0.276-1.716-1.452-1.716c-1.08,0-1.536,0.984-1.62,1.716H199.357z"/>
			<path fill="#0A50A1" d="M201.541,310.27c0.324,0.192,0.876,0.408,1.404,0.408c0.756,0,1.116-0.372,1.116-0.864
				c0-0.504-0.3-0.78-1.068-1.068c-1.056-0.384-1.548-0.948-1.548-1.644c0-0.936,0.768-1.704,2.004-1.704
				c0.588,0,1.104,0.156,1.416,0.36l-0.252,0.756c-0.228-0.132-0.648-0.336-1.188-0.336c-0.624,0-0.96,0.36-0.96,0.792
				c0,0.492,0.336,0.708,1.092,0.996c0.996,0.372,1.524,0.876,1.524,1.752c0,1.032-0.804,1.752-2.16,1.752
				c-0.636,0-1.224-0.168-1.632-0.408L201.541,310.27z"/>
			<path fill="#0A50A1" d="M208.837,310.27c0.324,0.192,0.876,0.408,1.404,0.408c0.756,0,1.116-0.372,1.116-0.864
				c0-0.504-0.3-0.78-1.068-1.068c-1.056-0.384-1.548-0.948-1.548-1.644c0-0.936,0.768-1.704,2.004-1.704
				c0.588,0,1.104,0.156,1.416,0.36l-0.252,0.756c-0.228-0.132-0.648-0.336-1.188-0.336c-0.624,0-0.96,0.36-0.96,0.792
				c0,0.492,0.336,0.708,1.092,0.996c0.996,0.372,1.524,0.876,1.524,1.752c0,1.032-0.804,1.752-2.16,1.752
				c-0.636,0-1.224-0.168-1.632-0.408L208.837,310.27z"/>
			<path fill="#0A50A1" d="M213.732,307.425c0-0.744-0.012-1.344-0.048-1.896h0.948l0.06,0.996h0.024
				c0.42-0.72,1.116-1.128,2.052-1.128c1.416,0,2.472,1.188,2.472,2.952c0,2.088-1.284,3.12-2.64,3.12
				c-0.78,0-1.44-0.336-1.788-0.912h-0.024v3.156h-1.056V307.425z M214.789,308.973c0,0.144,0.012,0.3,0.048,0.432
				c0.18,0.732,0.828,1.236,1.572,1.236c1.116,0,1.764-0.912,1.764-2.244c0-1.164-0.6-2.16-1.716-2.16
				c-0.72,0-1.404,0.504-1.608,1.296c-0.024,0.144-0.06,0.3-0.06,0.432V308.973z"/>
			<path fill="#0A50A1" d="M221.172,308.613c0.024,1.428,0.924,2.016,1.98,2.016c0.756,0,1.224-0.132,1.608-0.288l0.192,0.744
				c-0.372,0.168-1.02,0.372-1.944,0.372c-1.776,0-2.856-1.188-2.856-2.928c0-1.764,1.044-3.144,2.736-3.144
				c1.896,0,2.388,1.668,2.388,2.736c0,0.216-0.012,0.384-0.036,0.504L221.172,308.613z M224.256,307.857
				c0.012-0.66-0.276-1.716-1.452-1.716c-1.08,0-1.536,0.984-1.62,1.716H224.256z"/>
			<path fill="#0A50A1" d="M226.584,302.817h1.056v8.52h-1.056V302.817z"/>
			<path fill="#0A50A1" d="M229.392,302.817h1.056v8.52h-1.056V302.817z"/>
			<path fill="#0A50A1" d="M235.512,303.033l-0.192,2.88h-0.648l-0.192-2.88H235.512z M237.3,303.033l-0.192,2.88h-0.648
				l-0.192-2.88H237.3z"/>
			<path fill="#0A50A1" d="M238.812,303.25h4.356v0.876h-3.3v2.688h3.048v0.864h-3.048v3.66h-1.056V303.25z"/>
			<path fill="#0A50A1" d="M245.04,308.793l-0.84,2.544h-1.08l2.748-8.088h1.26l2.76,8.088h-1.116l-0.864-2.544H245.04z
				 M247.692,307.978l-0.804-2.328c-0.168-0.528-0.288-1.008-0.408-1.476h-0.036c-0.108,0.468-0.24,0.972-0.396,1.464l-0.792,2.34
				H247.692z"/>
			<path fill="#0A50A1" d="M256.536,311.085c-0.372,0.192-1.152,0.384-2.136,0.384c-2.28,0-3.984-1.44-3.984-4.104
				c0-2.544,1.716-4.248,4.224-4.248c0.996,0,1.644,0.216,1.92,0.36l-0.264,0.852c-0.384-0.192-0.948-0.336-1.62-0.336
				c-1.896,0-3.156,1.212-3.156,3.336c0,1.992,1.14,3.252,3.096,3.252c0.648,0,1.296-0.132,1.716-0.336L256.536,311.085z"/>
			<path fill="#0A50A1" d="M262.032,307.545H258.9v2.916h3.504v0.876h-4.56v-8.088h4.38v0.876H258.9v2.556h3.132V307.545z"/>
			<path fill="#0A50A1" d="M264.492,303.033l-0.192,2.88h-0.648l-0.192-2.88H264.492z M266.28,303.033l-0.192,2.88h-0.648
				l-0.192-2.88H266.28z"/>
		</g>
	</g>
</svg>
