<?xml version="1.0" encoding="utf-8"?>
<!-- Generator: Adobe Illustrator 10.0, SVG Export Plug-In . SVG Version: 3.0.0 Build 76)  -->
<!DOCTYPE svg PUBLIC "-//W3C//DTD SVG 1.0//EN"    "http://www.w3.org/TR/2001/REC-SVG-20010904/DTD/svg10.dtd" [
	<!ENTITY ns_flows "http://ns.adobe.com/Flows/1.0/">
	<!ENTITY ns_extend "http://ns.adobe.com/Extensibility/1.0/">
	<!ENTITY ns_ai "http://ns.adobe.com/AdobeIllustrator/10.0/">
	<!ENTITY ns_svg "http://www.w3.org/2000/svg">
	<!ENTITY ns_xlink "http://www.w3.org/1999/xlink">
]>
<svg  xmlns:x="&ns_extend;" xmlns:i="&ns_ai;" xmlns:graph="&ns_graphs;"
	 xmlns="&ns_svg;" xmlns:xlink="&ns_xlink;" xmlns:a="http://ns.adobe.com/AdobeSVGViewerExtensions/3.0/" width="346" height="234"
	 viewBox="-0.134 -0.118 346 234" overflow="visible" enable-background="new -0.134 -0.118 346 234" xml:space="preserve">
	<g id="Layer_1_2_">
		<g>
			<path d="M49.698,91.399h-0.024l-1.356,0.732l-0.204-0.804l1.704-0.912h0.9v7.8h-1.02V91.399z"/>
		</g>
		<g>
			<path d="M84.74,87.549v-0.648l0.828-0.804c1.992-1.896,2.904-2.904,2.904-4.08c0-0.792-0.372-1.524-1.536-1.524
				c-0.708,0-1.296,0.36-1.656,0.66l-0.336-0.744c0.528-0.444,1.308-0.792,2.208-0.792c1.668,0,2.376,1.152,2.376,2.268
				c0,1.44-1.044,2.604-2.688,4.188l-0.612,0.576v0.024h3.492v0.876H84.74z"/>
		</g>
		<g>
			<path d="M120.004,75.215v-2.124h-3.624v-0.684l3.48-4.992H121v4.86h1.092v0.816H121v2.124H120.004z M120.004,72.275v-2.616
				c0-0.408,0.012-0.816,0.036-1.224h-0.036c-0.24,0.456-0.432,0.792-0.648,1.164l-1.908,2.652v0.024H120.004z"/>
		</g>
		<g>
			<path d="M162.022,56.283c1.512,0,2.28,0.936,2.28,1.92c0,0.66-0.336,1.38-1.296,1.824v0.036c0.972,0.384,1.572,1.08,1.572,2.016
				c0,1.368-1.164,2.268-2.652,2.268c-1.632,0-2.616-0.96-2.616-2.1c0-0.984,0.588-1.692,1.536-2.1v-0.036
				c-0.876-0.408-1.248-1.08-1.248-1.752c0-1.236,1.044-2.076,2.412-2.076H162.022z M161.962,63.579c0.948,0,1.56-0.588,1.56-1.392
				c0-0.936-0.66-1.404-1.716-1.704c-0.912,0.264-1.404,0.876-1.404,1.62c-0.036,0.78,0.564,1.476,1.548,1.476H161.962z
				 M161.986,57.039c-0.876,0-1.356,0.576-1.356,1.248c-0.012,0.78,0.588,1.2,1.488,1.44c0.672-0.228,1.188-0.708,1.188-1.416
				c0-0.624-0.372-1.272-1.308-1.272H161.986z"/>
		</g>
		<g>
			<path d="M48.698,226.732h-0.024l-1.356,0.732l-0.204-0.804l1.704-0.912h0.9v7.8h-1.02V226.732z"/>
		</g>
		<g>
			<path d="M75.658,221.682c0.3,0.18,0.984,0.48,1.728,0.48c1.344,0,1.776-0.852,1.764-1.512c-0.012-1.092-0.996-1.56-2.016-1.56
				h-0.588v-0.792h0.588c0.768,0,1.74-0.396,1.74-1.32c0-0.624-0.396-1.176-1.368-1.176c-0.624,0-1.224,0.276-1.56,0.516
				l-0.288-0.768c0.42-0.3,1.212-0.6,2.052-0.6c1.536,0,2.232,0.912,2.232,1.86c0,0.816-0.492,1.5-1.44,1.848v0.024
				c0.96,0.18,1.74,0.9,1.74,1.992c0,1.248-0.984,2.34-2.844,2.34c-0.876,0-1.644-0.276-2.028-0.528L75.658,221.682z"/>
			<path d="M81.01,223.362l3.336-8.7h0.828l-3.36,8.7H81.01z"/>
			<path d="M85.677,222.882v-0.648l0.828-0.804c1.992-1.896,2.904-2.904,2.904-4.08c0-0.792-0.372-1.524-1.536-1.524
				c-0.708,0-1.296,0.36-1.656,0.66l-0.336-0.744c0.528-0.444,1.308-0.792,2.208-0.792c1.668,0,2.376,1.152,2.376,2.268
				c0,1.44-1.044,2.604-2.688,4.188l-0.612,0.576v0.024h3.492v0.876H85.677z"/>
		</g>
		<g>
			<path d="M114.685,208.817c0.228,0.012,0.492,0,0.852-0.048c0.612-0.072,1.188-0.324,1.632-0.756
				c0.516-0.468,0.888-1.152,1.032-2.076h-0.036c-0.432,0.528-1.056,0.84-1.848,0.84c-1.404,0-2.304-1.056-2.304-2.4
				c0-1.464,1.08-2.76,2.676-2.76c1.596,0,2.58,1.284,2.58,3.288c0,1.716-0.576,2.916-1.344,3.672
				c-0.6,0.576-1.428,0.948-2.268,1.044c-0.384,0.048-0.732,0.072-0.972,0.06V208.817z M116.593,202.421
				c-0.888,0-1.524,0.792-1.524,1.896c0,0.972,0.588,1.656,1.5,1.656c0.708,0,1.26-0.348,1.548-0.816
				c0.048-0.096,0.084-0.216,0.084-0.384c0.012-1.344-0.492-2.352-1.596-2.352H116.593z"/>
			<path d="M119.677,210.029l3.336-8.7h0.828l-3.36,8.7H119.677z"/>
			<path d="M127.608,209.549v-2.124h-3.624v-0.684l3.48-4.992h1.14v4.86h1.092v0.816h-1.092v2.124H127.608z M127.608,206.609v-2.616
				c0-0.408,0.012-0.816,0.036-1.224h-0.036c-0.24,0.456-0.432,0.792-0.648,1.164l-1.908,2.652v0.024H127.608z"/>
		</g>
		<g>
			<path d="M151.406,194.882v-0.648l0.828-0.804c1.992-1.896,2.904-2.904,2.904-4.08c0-0.792-0.372-1.524-1.536-1.524
				c-0.708,0-1.296,0.36-1.656,0.66l-0.336-0.744c0.528-0.444,1.308-0.792,2.208-0.792c1.668,0,2.376,1.152,2.376,2.268
				c0,1.44-1.044,2.604-2.688,4.188l-0.612,0.576v0.024h3.492v0.876H151.406z"/>
			<path d="M162.625,187.082v0.696l-3.396,7.104h-1.08l3.372-6.9v-0.024h-3.816v-0.876H162.625z"/>
			<path d="M163.166,195.362l3.336-8.7h0.828l-3.36,8.7H163.166z"/>
			<path d="M170.449,186.95c1.512,0,2.28,0.936,2.28,1.92c0,0.66-0.336,1.38-1.296,1.824v0.036c0.972,0.384,1.572,1.08,1.572,2.016
				c0,1.368-1.164,2.268-2.652,2.268c-1.632,0-2.616-0.96-2.616-2.1c0-0.984,0.588-1.692,1.536-2.1v-0.036
				c-0.876-0.408-1.248-1.08-1.248-1.752c0-1.236,1.044-2.076,2.412-2.076H170.449z M170.389,194.246c0.948,0,1.56-0.588,1.56-1.392
				c0-0.936-0.66-1.404-1.716-1.704c-0.912,0.264-1.404,0.876-1.404,1.62c-0.036,0.78,0.564,1.476,1.548,1.476H170.389z
				 M170.413,187.706c-0.876,0-1.356,0.576-1.356,1.248c-0.012,0.78,0.588,1.2,1.488,1.44c0.672-0.228,1.188-0.708,1.188-1.416
				c0-0.624-0.372-1.272-1.308-1.272H170.413z"/>
		</g>
		<g>
			<path fill="#FF0000" d="M118.567,81.407l0.828,1.236c0.216,0.336,0.396,0.624,0.588,0.948h0.036
				c0.192-0.336,0.384-0.636,0.588-0.948l0.804-1.236h1.152l-1.98,2.808l2.028,3h-1.2l-0.852-1.308
				c-0.228-0.336-0.42-0.66-0.624-1.008h-0.024c-0.192,0.348-0.396,0.66-0.612,1.008l-0.84,1.308h-1.164l2.064-2.964l-1.968-2.844
				H118.567z"/>
			<path fill="#FF0000" d="M125.839,87.215v-0.648l0.828-0.804c1.992-1.896,2.904-2.904,2.904-4.08c0-0.792-0.372-1.524-1.536-1.524
				c-0.708,0-1.296,0.36-1.656,0.66l-0.336-0.744c0.528-0.444,1.308-0.792,2.208-0.792c1.668,0,2.376,1.152,2.376,2.268
				c0,1.44-1.044,2.604-2.688,4.188l-0.612,0.576v0.024h3.492v0.876H125.839z"/>
			<path d="M131.695,88.667c0.84-1.188,1.5-2.736,1.5-4.896c0-2.16-0.648-3.684-1.5-4.884h0.816
				c0.756,0.984,1.572,2.532,1.572,4.884c-0.012,2.352-0.816,3.876-1.572,4.896H131.695z"/>
		</g>
		<g>
			<path d="M107.689,78.554c-0.876,1.188-1.5,2.736-1.5,4.92c0,2.136,0.66,3.66,1.5,4.86h-0.816
				c-0.756-0.996-1.572-2.532-1.572-4.872c0.012-2.352,0.816-3.9,1.572-4.908H107.689z"/>
		</g>
		<g>
			<path fill="#FF0000" d="M166.235,70.407l0.828,1.236c0.216,0.336,0.396,0.624,0.588,0.948h0.036
				c0.192-0.336,0.384-0.636,0.588-0.948l0.804-1.236h1.152l-1.98,2.808l2.028,3h-1.2l-0.852-1.308
				c-0.228-0.336-0.42-0.66-0.624-1.008h-0.024c-0.192,0.348-0.396,0.66-0.612,1.008l-0.84,1.308h-1.164l2.064-2.964l-1.968-2.844
				H166.235z"/>
			<path fill="#FF0000" d="M173.506,76.215v-0.648l0.828-0.804c1.992-1.896,2.904-2.904,2.904-4.08c0-0.792-0.372-1.524-1.536-1.524
				c-0.708,0-1.296,0.36-1.656,0.66l-0.336-0.744c0.528-0.444,1.308-0.792,2.208-0.792c1.668,0,2.376,1.152,2.376,2.268
				c0,1.44-1.044,2.604-2.688,4.188l-0.612,0.576v0.024h3.492v0.876H173.506z"/>
			<path d="M179.362,77.667c0.84-1.188,1.5-2.736,1.5-4.896c0-2.16-0.648-3.684-1.5-4.884h0.816
				c0.756,0.984,1.572,2.532,1.572,4.884c-0.012,2.352-0.816,3.876-1.572,4.896H179.362z"/>
		</g>
		<g>
			<path d="M157.689,66.221c-0.876,1.188-1.5,2.736-1.5,4.92c0,2.136,0.66,3.66,1.5,4.86h-0.816
				c-0.756-0.996-1.572-2.532-1.572-4.872c0.012-2.352,0.816-3.9,1.572-4.908H157.689z"/>
		</g>
		<g>
			<path fill="#FF0000" d="M241.268,72.015c-2.148,0-3.636-1.656-3.636-4.104c0-2.568,1.584-4.248,3.744-4.248
				c2.22,0,3.648,1.692,3.648,4.092c0,2.772-1.692,4.26-3.744,4.26H241.268z M241.316,71.163c1.656,0,2.592-1.524,2.592-3.36
				c0-1.608-0.84-3.288-2.58-3.288c-1.74,0-2.604,1.62-2.604,3.372c0,1.704,0.936,3.276,2.58,3.276H241.316z"/>
			<path fill="#FF0000" d="M250.556,71.679c-0.276,0.132-0.888,0.336-1.668,0.336c-1.752,0-2.892-1.188-2.892-2.976
				c0-1.788,1.224-3.096,3.12-3.096c0.624,0,1.176,0.156,1.464,0.312l-0.24,0.804c-0.252-0.132-0.648-0.276-1.224-0.276
				c-1.332,0-2.052,0.996-2.052,2.208c0,1.344,0.864,2.172,2.016,2.172c0.6,0,0.996-0.144,1.296-0.276L250.556,71.679z"/>
			<path fill="#FF0000" d="M253.219,64.683v1.392h1.512v0.804h-1.512v3.132c0,0.72,0.204,1.128,0.792,1.128
				c0.288,0,0.456-0.024,0.612-0.072l0.048,0.804c-0.204,0.072-0.528,0.144-0.936,0.144c-0.492,0-0.888-0.168-1.14-0.444
				c-0.288-0.324-0.408-0.84-0.408-1.524v-3.168h-0.9v-0.804h0.9v-1.068L253.219,64.683z"/>
			<path fill="#FF0000" d="M260.011,70.491c0,0.504,0.024,0.996,0.084,1.392h-0.948l-0.096-0.732h-0.036
				c-0.312,0.456-0.948,0.864-1.776,0.864c-1.176,0-1.776-0.828-1.776-1.668c0-1.404,1.248-2.172,3.492-2.16v-0.12
				c0-0.48-0.132-1.356-1.32-1.344c-0.552,0-1.116,0.156-1.524,0.432l-0.24-0.708c0.48-0.3,1.188-0.504,1.92-0.504
				c1.788,0,2.22,1.212,2.22,2.376V70.491z M258.979,68.919c-1.152-0.024-2.46,0.18-2.46,1.308c0,0.696,0.456,1.008,0.984,1.008
				c0.768,0,1.26-0.48,1.428-0.972c0.036-0.108,0.048-0.228,0.048-0.336V68.919z"/>
			<path fill="#FF0000" d="M261.956,66.075l1.14,3.252c0.192,0.54,0.348,1.02,0.468,1.5h0.036c0.132-0.48,0.3-0.96,0.492-1.5
				l1.128-3.252h1.104l-2.28,5.808h-1.008l-2.208-5.808H261.956z"/>
			<path fill="#FF0000" d="M267.788,69.159c0.024,1.428,0.924,2.016,1.98,2.016c0.756,0,1.224-0.132,1.608-0.288l0.192,0.744
				c-0.372,0.168-1.02,0.372-1.944,0.372c-1.776,0-2.856-1.188-2.856-2.928c0-1.764,1.044-3.144,2.736-3.144
				c1.896,0,2.388,1.668,2.388,2.736c0,0.216-0.012,0.384-0.036,0.504L267.788,69.159z M270.872,68.403
				c0.012-0.66-0.276-1.716-1.452-1.716c-1.08,0-1.536,0.984-1.62,1.716H270.872z"/>
			<path fill="#FF0000" d="M273.055,70.815c0.324,0.192,0.876,0.408,1.404,0.408c0.756,0,1.116-0.372,1.116-0.864
				c0-0.504-0.3-0.78-1.068-1.068c-1.056-0.384-1.548-0.948-1.548-1.644c0-0.936,0.768-1.704,2.004-1.704
				c0.588,0,1.104,0.156,1.416,0.36l-0.252,0.756c-0.228-0.132-0.648-0.336-1.188-0.336c-0.624,0-0.96,0.36-0.96,0.792
				c0,0.492,0.336,0.708,1.092,0.996c0.996,0.372,1.524,0.876,1.524,1.752c0,1.032-0.804,1.752-2.16,1.752
				c-0.636,0-1.224-0.168-1.632-0.408L273.055,70.815z"/>
			<path fill="#FF0000" d="M278.396,72.015c-0.408,0-0.696-0.324-0.696-0.744c0-0.444,0.3-0.756,0.708-0.756
				c0.432,0,0.708,0.312,0.708,0.756c0,0.42-0.276,0.744-0.708,0.744H278.396z M278.407,67.779c-0.408,0-0.696-0.324-0.696-0.744
				c0-0.444,0.3-0.756,0.708-0.756c0.432,0,0.708,0.312,0.708,0.756c0,0.42-0.276,0.744-0.708,0.744H278.407z"/>
			<path d="M239.156,78.295v3.384h3.912v-3.384h1.056v8.088h-1.056v-3.792h-3.912v3.792H238.1v-8.088H239.156z"/>
			<path d="M246.404,79.507c-0.396,0-0.66-0.312-0.66-0.684s0.276-0.672,0.684-0.672c0.408,0,0.672,0.3,0.672,0.672
				s-0.264,0.684-0.684,0.684H246.404z M245.899,86.383v-5.808h1.056v5.808H245.899z"/>
			<path d="M253.676,85.531c0,1.344-0.276,2.148-0.828,2.664c-0.576,0.516-1.392,0.696-2.124,0.696c-0.696,0-1.464-0.168-1.932-0.48
				l0.264-0.816c0.384,0.252,0.984,0.468,1.704,0.468c1.08,0,1.872-0.564,1.872-2.04v-0.636h-0.024
				c-0.312,0.54-0.948,0.972-1.848,0.972c-1.44,0-2.472-1.224-2.472-2.844c0-1.968,1.284-3.072,2.628-3.072
				c1.008,0,1.548,0.516,1.812,0.996h0.024l0.036-0.864h0.936c-0.036,0.408-0.048,0.876-0.048,1.584V85.531z M252.62,82.855
				c0-0.168-0.012-0.324-0.06-0.468c-0.192-0.624-0.696-1.128-1.476-1.128c-1.008,0-1.728,0.852-1.728,2.208
				c0,1.128,0.588,2.088,1.716,2.088c0.66,0,1.248-0.408,1.464-1.092c0.06-0.168,0.084-0.372,0.084-0.564V82.855z"/>
			<path d="M255.416,77.863h1.056v3.624h0.024c0.168-0.3,0.432-0.576,0.756-0.744c0.312-0.192,0.684-0.3,1.08-0.3
				c0.78,0,2.028,0.48,2.028,2.484v3.456h-1.056v-3.336c0-0.948-0.348-1.728-1.344-1.728c-0.684,0-1.212,0.48-1.416,1.056
				c-0.06,0.144-0.072,0.3-0.072,0.504v3.504h-1.056V77.863z"/>
			<path d="M262.675,83.659c0.024,1.428,0.924,2.016,1.98,2.016c0.756,0,1.224-0.132,1.608-0.288l0.192,0.744
				c-0.372,0.168-1.02,0.372-1.944,0.372c-1.776,0-2.856-1.188-2.856-2.928c0-1.764,1.044-3.144,2.736-3.144
				c1.896,0,2.388,1.668,2.388,2.736c0,0.216-0.012,0.384-0.036,0.504L262.675,83.659z M265.759,82.903
				c0.012-0.66-0.276-1.716-1.452-1.716c-1.08,0-1.536,0.984-1.62,1.716H265.759z"/>
			<path d="M268.099,82.387c0-0.684-0.012-1.272-0.048-1.812h0.924l0.048,1.14h0.036c0.264-0.78,0.912-1.272,1.62-1.272
				c0.108,0,0.192,0.012,0.288,0.036v0.984c-0.12-0.012-0.228-0.024-0.372-0.024c-0.744,0-1.272,0.564-1.416,1.344
				c-0.024,0.156-0.036,0.324-0.036,0.504v3.096h-1.056L268.099,82.387z"/>
			<path d="M274.579,78.295h4.356v0.876h-3.3v2.688h3.048v0.864h-3.048v3.66h-1.056V78.295z"/>
			<path d="M280.099,82.387c0-0.684-0.012-1.272-0.048-1.812h0.924l0.048,1.14h0.036c0.264-0.78,0.912-1.272,1.62-1.272
				c0.108,0,0.192,0.012,0.288,0.036v0.984c-0.12-0.012-0.228-0.024-0.372-0.024c-0.744,0-1.272,0.564-1.416,1.344
				c-0.024,0.156-0.036,0.324-0.036,0.504v3.096h-1.056L280.099,82.387z"/>
			<path d="M284.539,83.659c0.024,1.428,0.924,2.016,1.98,2.016c0.756,0,1.224-0.132,1.608-0.288l0.192,0.744
				c-0.372,0.168-1.02,0.372-1.944,0.372c-1.776,0-2.856-1.188-2.856-2.928c0-1.764,1.044-3.144,2.736-3.144
				c1.896,0,2.388,1.668,2.388,2.736c0,0.216-0.012,0.384-0.036,0.504L284.539,83.659z M287.623,82.903
				c0.012-0.66-0.276-1.716-1.452-1.716c-1.08,0-1.536,0.984-1.62,1.716H287.623z"/>
			<path d="M293.911,85.495h-0.024c-0.312,0.564-0.96,1.02-1.896,1.02c-1.356,0-2.46-1.164-2.46-2.94
				c0-2.172,1.404-3.132,2.628-3.132c0.9,0,1.5,0.444,1.788,1.008h0.024l0.036-0.876h1.008c-0.036,0.48-0.048,0.984-0.048,1.596
				v6.588h-1.056V85.495z M293.911,82.927c0-0.156-0.012-0.312-0.048-0.444c-0.168-0.648-0.72-1.2-1.512-1.2
				c-1.092,0-1.752,0.924-1.752,2.232c0,1.164,0.552,2.16,1.716,2.16c0.684,0,1.272-0.42,1.512-1.152
				c0.048-0.144,0.084-0.348,0.084-0.504V82.927z"/>
			<path d="M301.567,84.799c0,0.6,0.012,1.128,0.048,1.584h-0.936l-0.06-0.948h-0.024c-0.264,0.468-0.888,1.08-1.92,1.08
				c-0.912,0-2.004-0.516-2.004-2.544v-3.396h1.056v3.204c0,1.104,0.348,1.86,1.296,1.86c0.708,0,1.2-0.492,1.392-0.972
				c0.06-0.144,0.096-0.336,0.096-0.54v-3.552h1.056V84.799z"/>
			<path d="M303.919,83.659c0.024,1.428,0.924,2.016,1.98,2.016c0.756,0,1.224-0.132,1.608-0.288l0.192,0.744
				c-0.372,0.168-1.02,0.372-1.944,0.372c-1.776,0-2.856-1.188-2.856-2.928c0-1.764,1.044-3.144,2.736-3.144
				c1.896,0,2.388,1.668,2.388,2.736c0,0.216-0.012,0.384-0.036,0.504L303.919,83.659z M307.003,82.903
				c0.012-0.66-0.276-1.716-1.452-1.716c-1.08,0-1.536,0.984-1.62,1.716H307.003z"/>
			<path d="M309.331,82.147c0-0.612-0.012-1.092-0.048-1.572h0.936l0.06,0.948h0.024c0.288-0.54,0.96-1.08,1.92-1.08
				c0.804,0,2.052,0.48,2.052,2.472v3.468h-1.056v-3.348c0-0.936-0.348-1.728-1.344-1.728c-0.684,0-1.224,0.492-1.416,1.08
				c-0.048,0.132-0.072,0.324-0.072,0.492v3.504h-1.056V82.147z"/>
			<path d="M320.131,86.179c-0.276,0.132-0.888,0.336-1.668,0.336c-1.752,0-2.892-1.188-2.892-2.976c0-1.788,1.224-3.096,3.12-3.096
				c0.624,0,1.176,0.156,1.464,0.312l-0.24,0.804c-0.252-0.132-0.648-0.276-1.224-0.276c-1.332,0-2.052,0.996-2.052,2.208
				c0,1.344,0.864,2.172,2.016,2.172c0.6,0,0.996-0.144,1.296-0.276L320.131,86.179z"/>
			<path d="M321.967,80.575l1.26,3.432c0.144,0.384,0.288,0.84,0.384,1.188h0.024c0.108-0.348,0.228-0.792,0.372-1.212l1.152-3.408
				h1.116l-1.584,4.14c-0.756,1.992-1.272,3.012-1.992,3.648c-0.528,0.444-1.032,0.624-1.296,0.672l-0.264-0.888
				c0.264-0.072,0.612-0.24,0.924-0.516c0.288-0.228,0.636-0.636,0.888-1.176c0.048-0.108,0.084-0.18,0.084-0.252
				c0-0.06-0.024-0.144-0.084-0.264l-2.136-5.364H321.967z"/>
			<path d="M329.382,82.339v-0.72h6.192v0.72H329.382z M329.382,84.691v-0.72h6.192v0.72H329.382z"/>
			<path d="M238.1,92.795h1.056v7.212h3.456v0.876H238.1V92.795z"/>
			<path d="M245.936,101.015c-1.56,0-2.784-1.152-2.784-2.988c0-1.944,1.284-3.084,2.88-3.084c1.668,0,2.796,1.212,2.796,2.976
				c0,2.16-1.5,3.096-2.88,3.096H245.936z M245.972,100.223c1.008,0,1.764-0.948,1.764-2.268c0-0.984-0.492-2.22-1.74-2.22
				c-1.236,0-1.776,1.152-1.776,2.256c0,1.272,0.72,2.232,1.74,2.232H245.972z"/>
			<path d="M250.496,95.075l0.78,2.94c0.156,0.648,0.312,1.26,0.42,1.86h0.036c0.132-0.588,0.324-1.212,0.516-1.848l0.948-2.952
				h0.888l0.9,2.904c0.216,0.684,0.384,1.308,0.516,1.896h0.036c0.096-0.588,0.252-1.2,0.444-1.884l0.828-2.916h1.044l-1.872,5.808
				h-0.96l-0.888-2.772c-0.204-0.66-0.372-1.236-0.516-1.92h-0.024c-0.144,0.696-0.324,1.308-0.528,1.932l-0.936,2.76h-0.96
				l-1.752-5.808H250.496z"/>
			<path d="M259.4,98.159c0.024,1.428,0.924,2.016,1.98,2.016c0.756,0,1.224-0.132,1.608-0.288l0.192,0.744
				c-0.372,0.168-1.02,0.372-1.944,0.372c-1.776,0-2.856-1.188-2.856-2.928c0-1.764,1.044-3.144,2.736-3.144
				c1.896,0,2.388,1.668,2.388,2.736c0,0.216-0.012,0.384-0.036,0.504L259.4,98.159z M262.484,97.403
				c0.012-0.66-0.276-1.716-1.452-1.716c-1.08,0-1.536,0.984-1.62,1.716H262.484z"/>
			<path d="M264.824,96.887c0-0.684-0.012-1.272-0.048-1.812h0.924l0.048,1.14h0.036c0.264-0.78,0.912-1.272,1.62-1.272
				c0.108,0,0.192,0.012,0.288,0.036v0.984c-0.12-0.012-0.228-0.024-0.372-0.024c-0.744,0-1.272,0.564-1.416,1.344
				c-0.024,0.156-0.036,0.324-0.036,0.504v3.096h-1.056L264.824,96.887z"/>
			<path d="M271.304,92.795h4.356v0.876h-3.3v2.688h3.048v0.864h-3.048v3.66h-1.056V92.795z"/>
			<path d="M276.824,96.887c0-0.684-0.012-1.272-0.048-1.812h0.924l0.048,1.14h0.036c0.264-0.78,0.912-1.272,1.62-1.272
				c0.108,0,0.192,0.012,0.288,0.036v0.984c-0.12-0.012-0.228-0.024-0.372-0.024c-0.744,0-1.272,0.564-1.416,1.344
				c-0.024,0.156-0.036,0.324-0.036,0.504v3.096h-1.056L276.824,96.887z"/>
			<path d="M281.264,98.159c0.024,1.428,0.924,2.016,1.98,2.016c0.756,0,1.224-0.132,1.608-0.288l0.192,0.744
				c-0.372,0.168-1.02,0.372-1.944,0.372c-1.776,0-2.856-1.188-2.856-2.928c0-1.764,1.044-3.144,2.736-3.144
				c1.896,0,2.388,1.668,2.388,2.736c0,0.216-0.012,0.384-0.036,0.504L281.264,98.159z M284.348,97.403
				c0.012-0.66-0.276-1.716-1.452-1.716c-1.08,0-1.536,0.984-1.62,1.716H284.348z"/>
			<path d="M290.636,99.995h-0.024c-0.312,0.564-0.96,1.02-1.896,1.02c-1.356,0-2.46-1.164-2.46-2.94
				c0-2.172,1.404-3.132,2.628-3.132c0.9,0,1.5,0.444,1.788,1.008h0.024l0.036-0.876h1.008c-0.036,0.48-0.048,0.984-0.048,1.596
				v6.588h-1.056V99.995z M290.636,97.427c0-0.156-0.012-0.312-0.048-0.444c-0.168-0.648-0.72-1.2-1.512-1.2
				c-1.092,0-1.752,0.924-1.752,2.232c0,1.164,0.552,2.16,1.716,2.16c0.684,0,1.272-0.42,1.512-1.152
				c0.048-0.144,0.084-0.348,0.084-0.504V97.427z"/>
			<path d="M298.292,99.299c0,0.6,0.012,1.128,0.048,1.584h-0.936l-0.06-0.948h-0.024c-0.264,0.468-0.888,1.08-1.92,1.08
				c-0.912,0-2.004-0.516-2.004-2.544v-3.396h1.056v3.204c0,1.104,0.348,1.86,1.296,1.86c0.708,0,1.2-0.492,1.392-0.972
				c0.06-0.144,0.096-0.336,0.096-0.54v-3.552h1.056V99.299z"/>
			<path d="M300.644,98.159c0.024,1.428,0.924,2.016,1.98,2.016c0.756,0,1.224-0.132,1.608-0.288l0.192,0.744
				c-0.372,0.168-1.02,0.372-1.944,0.372c-1.776,0-2.856-1.188-2.856-2.928c0-1.764,1.044-3.144,2.736-3.144
				c1.896,0,2.388,1.668,2.388,2.736c0,0.216-0.012,0.384-0.036,0.504L300.644,98.159z M303.728,97.403
				c0.012-0.66-0.276-1.716-1.452-1.716c-1.08,0-1.536,0.984-1.62,1.716H303.728z"/>
			<path d="M306.055,96.647c0-0.612-0.012-1.092-0.048-1.572h0.936l0.06,0.948h0.024c0.288-0.54,0.96-1.08,1.92-1.08
				c0.804,0,2.052,0.48,2.052,2.472v3.468h-1.056v-3.348c0-0.936-0.348-1.728-1.344-1.728c-0.684,0-1.224,0.492-1.416,1.08
				c-0.048,0.132-0.072,0.324-0.072,0.492v3.504h-1.056V96.647z"/>
			<path d="M316.855,100.679c-0.276,0.132-0.888,0.336-1.668,0.336c-1.752,0-2.892-1.188-2.892-2.976
				c0-1.788,1.224-3.096,3.12-3.096c0.624,0,1.176,0.156,1.464,0.312l-0.24,0.804c-0.252-0.132-0.648-0.276-1.224-0.276
				c-1.332,0-2.052,0.996-2.052,2.208c0,1.344,0.864,2.172,2.016,2.172c0.6,0,0.996-0.144,1.296-0.276L316.855,100.679z"/>
			<path d="M318.691,95.075l1.26,3.432c0.144,0.384,0.288,0.84,0.384,1.188h0.024c0.108-0.348,0.228-0.792,0.372-1.212l1.152-3.408
				h1.116l-1.584,4.14c-0.756,1.992-1.272,3.012-1.992,3.648c-0.528,0.444-1.032,0.624-1.296,0.672l-0.264-0.888
				c0.264-0.072,0.612-0.24,0.924-0.516c0.288-0.228,0.636-0.636,0.888-1.176c0.048-0.108,0.084-0.18,0.084-0.252
				c0-0.06-0.024-0.144-0.084-0.264l-2.136-5.364H318.691z"/>
			<path fill="#FF0000" d="M326.995,95.075l0.828,1.236c0.216,0.336,0.396,0.624,0.588,0.948h0.036
				c0.192-0.336,0.384-0.636,0.588-0.948l0.804-1.236h1.152l-1.98,2.808l2.028,3h-1.2l-0.852-1.308
				c-0.228-0.336-0.42-0.66-0.624-1.008h-0.024c-0.192,0.348-0.396,0.66-0.612,1.008l-0.84,1.308h-1.164l2.064-2.964l-1.968-2.844
				H326.995z"/>
			<path fill="#FF0000" d="M334.267,100.883v-0.648l0.828-0.804c1.992-1.896,2.904-2.904,2.904-4.08
				c0-0.792-0.372-1.524-1.536-1.524c-0.708,0-1.296,0.36-1.656,0.66l-0.336-0.744c0.528-0.444,1.308-0.792,2.208-0.792
				c1.668,0,2.376,1.152,2.376,2.268c0,1.44-1.044,2.604-2.688,4.188l-0.612,0.576v0.024h3.492v0.876H334.267z"/>
		</g>
		<g>
			<path d="M108.74,86.548V85.9l0.828-0.804c1.992-1.896,2.904-2.904,2.904-4.08c0-0.792-0.372-1.524-1.536-1.524
				c-0.708,0-1.296,0.36-1.656,0.66l-0.336-0.744c0.528-0.444,1.308-0.792,2.208-0.792c1.668,0,2.376,1.152,2.376,2.268
				c0,1.44-1.044,2.604-2.688,4.188l-0.612,0.576v0.024h3.492v0.876H108.74z"/>
		</g>
		<g>
			<path d="M161.337,75.549v-2.124h-3.624v-0.684l3.48-4.992h1.14v4.86h1.092v0.816h-1.092v2.124H161.337z M161.337,72.609v-2.616
				c0-0.408,0.012-0.816,0.036-1.224h-0.036c-0.24,0.456-0.432,0.792-0.648,1.164l-1.908,2.652v0.024H161.337z"/>
		</g>
		<g>
			<path fill="#FF0000" d="M234.766,188.462h4.356v0.876h-3.3v2.688h3.048v0.864h-3.048v3.66h-1.056V188.462z"/>
			<path fill="#FF0000" d="M240.778,189.674c-0.396,0-0.66-0.312-0.66-0.684s0.276-0.672,0.684-0.672c0.408,0,0.672,0.3,0.672,0.672
				s-0.264,0.684-0.684,0.684H240.778z M240.274,196.55v-5.808h1.056v5.808H240.274z"/>
			<path fill="#FF0000" d="M243.178,196.55v-5.004h-0.804v-0.804h0.804v-0.276c0-0.816,0.192-1.56,0.684-2.028
				c0.396-0.384,0.924-0.54,1.404-0.54c0.384,0,0.696,0.084,0.9,0.168l-0.132,0.816c-0.168-0.072-0.372-0.132-0.684-0.132
				c-0.888,0-1.128,0.792-1.128,1.68v0.312h1.404v0.804h-1.392v5.004H243.178z"/>
			<path fill="#FF0000" d="M247.99,189.35v1.392h1.512v0.804h-1.512v3.132c0,0.72,0.204,1.128,0.792,1.128
				c0.288,0,0.456-0.024,0.612-0.072l0.048,0.804c-0.204,0.072-0.528,0.144-0.936,0.144c-0.492,0-0.888-0.168-1.14-0.444
				c-0.288-0.324-0.408-0.84-0.408-1.524v-3.168h-0.9v-0.804h0.9v-1.068L247.99,189.35z"/>
			<path fill="#FF0000" d="M250.69,188.03h1.056v3.624h0.024c0.168-0.3,0.432-0.576,0.756-0.744c0.312-0.192,0.684-0.3,1.08-0.3
				c0.78,0,2.028,0.48,2.028,2.484v3.456h-1.056v-3.336c0-0.948-0.348-1.728-1.344-1.728c-0.684,0-1.212,0.48-1.416,1.056
				c-0.06,0.144-0.072,0.3-0.072,0.504v3.504h-1.056V188.03z"/>
			<path fill="#FF0000" d="M257.206,195.482c0.324,0.192,0.876,0.408,1.404,0.408c0.756,0,1.116-0.372,1.116-0.864
				c0-0.504-0.3-0.78-1.068-1.068c-1.056-0.384-1.548-0.948-1.548-1.644c0-0.936,0.768-1.704,2.004-1.704
				c0.588,0,1.104,0.156,1.416,0.36l-0.252,0.756c-0.228-0.132-0.648-0.336-1.188-0.336c-0.624,0-0.96,0.36-0.96,0.792
				c0,0.492,0.336,0.708,1.092,0.996c0.996,0.372,1.524,0.876,1.524,1.752c0,1.032-0.804,1.752-2.16,1.752
				c-0.636,0-1.224-0.168-1.632-0.408L257.206,195.482z"/>
			<path fill="#FF0000" d="M262.546,196.682c-0.408,0-0.696-0.324-0.696-0.744c0-0.444,0.3-0.756,0.708-0.756
				c0.432,0,0.708,0.312,0.708,0.756c0,0.42-0.276,0.744-0.708,0.744H262.546z M262.558,192.446c-0.408,0-0.696-0.324-0.696-0.744
				c0-0.444,0.3-0.756,0.708-0.756c0.432,0,0.708,0.312,0.708,0.756c0,0.42-0.276,0.744-0.708,0.744H262.558z"/>
			<path d="M235.822,202.962v3.384h3.912v-3.384h1.056v8.088h-1.056v-3.792h-3.912v3.792h-1.056v-8.088H235.822z"/>
			<path d="M243.07,204.174c-0.396,0-0.66-0.312-0.66-0.684s0.276-0.672,0.684-0.672c0.408,0,0.672,0.3,0.672,0.672
				s-0.264,0.684-0.684,0.684H243.07z M242.566,211.05v-5.808h1.056v5.808H242.566z"/>
			<path d="M250.342,210.198c0,1.344-0.276,2.148-0.828,2.664c-0.576,0.516-1.392,0.696-2.124,0.696
				c-0.696,0-1.464-0.168-1.932-0.48l0.264-0.816c0.384,0.252,0.984,0.468,1.704,0.468c1.08,0,1.872-0.564,1.872-2.04v-0.636h-0.024
				c-0.312,0.54-0.948,0.972-1.848,0.972c-1.44,0-2.472-1.224-2.472-2.844c0-1.968,1.284-3.072,2.628-3.072
				c1.008,0,1.548,0.516,1.812,0.996h0.024l0.036-0.864h0.936c-0.036,0.408-0.048,0.876-0.048,1.584V210.198z M249.286,207.522
				c0-0.168-0.012-0.324-0.06-0.468c-0.192-0.624-0.696-1.128-1.476-1.128c-1.008,0-1.728,0.852-1.728,2.208
				c0,1.128,0.588,2.088,1.716,2.088c0.66,0,1.248-0.408,1.464-1.092c0.06-0.168,0.084-0.372,0.084-0.564V207.522z"/>
			<path d="M252.082,202.53h1.056v3.624h0.024c0.168-0.3,0.432-0.576,0.756-0.744c0.312-0.192,0.684-0.3,1.08-0.3
				c0.78,0,2.028,0.48,2.028,2.484v3.456h-1.056v-3.336c0-0.948-0.348-1.728-1.344-1.728c-0.684,0-1.212,0.48-1.416,1.056
				c-0.06,0.144-0.072,0.3-0.072,0.504v3.504h-1.056V202.53z"/>
			<path d="M259.342,208.326c0.024,1.428,0.924,2.016,1.98,2.016c0.756,0,1.224-0.132,1.608-0.288l0.192,0.744
				c-0.372,0.168-1.02,0.372-1.944,0.372c-1.776,0-2.856-1.188-2.856-2.928c0-1.764,1.044-3.144,2.736-3.144
				c1.896,0,2.388,1.668,2.388,2.736c0,0.216-0.012,0.384-0.036,0.504L259.342,208.326z M262.426,207.57
				c0.012-0.66-0.276-1.716-1.452-1.716c-1.08,0-1.536,0.984-1.62,1.716H262.426z"/>
			<path d="M264.766,207.054c0-0.684-0.012-1.272-0.048-1.812h0.924l0.048,1.14h0.036c0.264-0.78,0.912-1.272,1.62-1.272
				c0.108,0,0.192,0.012,0.288,0.036v0.984c-0.12-0.012-0.228-0.024-0.372-0.024c-0.744,0-1.272,0.564-1.416,1.344
				c-0.024,0.156-0.036,0.324-0.036,0.504v3.096h-1.056L264.766,207.054z"/>
			<path d="M271.246,202.962h4.356v0.876h-3.3v2.688h3.048v0.864h-3.048v3.66h-1.056V202.962z"/>
			<path d="M276.766,207.054c0-0.684-0.012-1.272-0.048-1.812h0.924l0.048,1.14h0.036c0.264-0.78,0.912-1.272,1.62-1.272
				c0.108,0,0.192,0.012,0.288,0.036v0.984c-0.12-0.012-0.228-0.024-0.372-0.024c-0.744,0-1.272,0.564-1.416,1.344
				c-0.024,0.156-0.036,0.324-0.036,0.504v3.096h-1.056L276.766,207.054z"/>
			<path d="M281.206,208.326c0.024,1.428,0.924,2.016,1.98,2.016c0.756,0,1.224-0.132,1.608-0.288l0.192,0.744
				c-0.372,0.168-1.02,0.372-1.944,0.372c-1.776,0-2.856-1.188-2.856-2.928c0-1.764,1.044-3.144,2.736-3.144
				c1.896,0,2.388,1.668,2.388,2.736c0,0.216-0.012,0.384-0.036,0.504L281.206,208.326z M284.29,207.57
				c0.012-0.66-0.276-1.716-1.452-1.716c-1.08,0-1.536,0.984-1.62,1.716H284.29z"/>
			<path d="M290.578,210.162h-0.024c-0.312,0.564-0.96,1.02-1.896,1.02c-1.356,0-2.46-1.164-2.46-2.94
				c0-2.172,1.404-3.132,2.628-3.132c0.9,0,1.5,0.444,1.788,1.008h0.024l0.036-0.876h1.008c-0.036,0.48-0.048,0.984-0.048,1.596
				v6.588h-1.056V210.162z M290.578,207.594c0-0.156-0.012-0.312-0.048-0.444c-0.168-0.648-0.72-1.2-1.512-1.2
				c-1.092,0-1.752,0.924-1.752,2.232c0,1.164,0.552,2.16,1.716,2.16c0.684,0,1.272-0.42,1.512-1.152
				c0.048-0.144,0.084-0.348,0.084-0.504V207.594z"/>
			<path d="M298.233,209.466c0,0.6,0.012,1.128,0.048,1.584h-0.936l-0.06-0.948h-0.024c-0.264,0.468-0.888,1.08-1.92,1.08
				c-0.912,0-2.004-0.516-2.004-2.544v-3.396h1.056v3.204c0,1.104,0.348,1.86,1.296,1.86c0.708,0,1.2-0.492,1.392-0.972
				c0.06-0.144,0.096-0.336,0.096-0.54v-3.552h1.056V209.466z"/>
			<path d="M300.585,208.326c0.024,1.428,0.924,2.016,1.98,2.016c0.756,0,1.224-0.132,1.608-0.288l0.192,0.744
				c-0.372,0.168-1.02,0.372-1.944,0.372c-1.776,0-2.856-1.188-2.856-2.928c0-1.764,1.044-3.144,2.736-3.144
				c1.896,0,2.388,1.668,2.388,2.736c0,0.216-0.012,0.384-0.036,0.504L300.585,208.326z M303.669,207.57
				c0.012-0.66-0.276-1.716-1.452-1.716c-1.08,0-1.536,0.984-1.62,1.716H303.669z"/>
			<path d="M305.998,206.814c0-0.612-0.012-1.092-0.048-1.572h0.936l0.06,0.948h0.024c0.288-0.54,0.96-1.08,1.92-1.08
				c0.804,0,2.052,0.48,2.052,2.472v3.468h-1.056v-3.348c0-0.936-0.348-1.728-1.344-1.728c-0.684,0-1.224,0.492-1.416,1.08
				c-0.048,0.132-0.072,0.324-0.072,0.492v3.504h-1.056V206.814z"/>
			<path d="M316.797,210.846c-0.276,0.132-0.888,0.336-1.668,0.336c-1.752,0-2.892-1.188-2.892-2.976
				c0-1.788,1.224-3.096,3.12-3.096c0.624,0,1.176,0.156,1.464,0.312l-0.24,0.804c-0.252-0.132-0.648-0.276-1.224-0.276
				c-1.332,0-2.052,0.996-2.052,2.208c0,1.344,0.864,2.172,2.016,2.172c0.6,0,0.996-0.144,1.296-0.276L316.797,210.846z"/>
			<path d="M318.633,205.242l1.26,3.432c0.144,0.384,0.288,0.84,0.384,1.188h0.024c0.108-0.348,0.228-0.792,0.372-1.212l1.152-3.408
				h1.116l-1.584,4.14c-0.756,1.992-1.272,3.012-1.992,3.648c-0.528,0.444-1.032,0.624-1.296,0.672l-0.264-0.888
				c0.264-0.072,0.612-0.24,0.924-0.516c0.288-0.228,0.636-0.636,0.888-1.176c0.048-0.108,0.084-0.18,0.084-0.252
				c0-0.06-0.024-0.144-0.084-0.264l-2.136-5.364H318.633z"/>
			<path d="M326.049,207.006v-0.72h6.192v0.72H326.049z M326.049,209.358v-0.72h6.192v0.72H326.049z"/>
			<path d="M234.766,217.462h1.056v7.212h3.456v0.876h-4.512V217.462z"/>
			<path d="M242.602,225.682c-1.56,0-2.784-1.152-2.784-2.988c0-1.944,1.284-3.084,2.88-3.084c1.668,0,2.796,1.212,2.796,2.976
				c0,2.16-1.5,3.096-2.88,3.096H242.602z M242.638,224.89c1.008,0,1.764-0.948,1.764-2.268c0-0.984-0.492-2.22-1.74-2.22
				c-1.236,0-1.776,1.152-1.776,2.256c0,1.272,0.72,2.232,1.74,2.232H242.638z"/>
			<path d="M247.162,219.742l0.78,2.94c0.156,0.648,0.312,1.26,0.42,1.86h0.036c0.132-0.588,0.324-1.212,0.516-1.848l0.948-2.952
				h0.888l0.9,2.904c0.216,0.684,0.384,1.308,0.516,1.896h0.036c0.096-0.588,0.252-1.2,0.444-1.884l0.828-2.916h1.044l-1.872,5.808
				h-0.96l-0.888-2.772c-0.204-0.66-0.372-1.236-0.516-1.92h-0.024c-0.144,0.696-0.324,1.308-0.528,1.932l-0.936,2.76h-0.96
				l-1.752-5.808H247.162z"/>
			<path d="M256.066,222.826c0.024,1.428,0.924,2.016,1.98,2.016c0.756,0,1.224-0.132,1.608-0.288l0.192,0.744
				c-0.372,0.168-1.02,0.372-1.944,0.372c-1.776,0-2.856-1.188-2.856-2.928c0-1.764,1.044-3.144,2.736-3.144
				c1.896,0,2.388,1.668,2.388,2.736c0,0.216-0.012,0.384-0.036,0.504L256.066,222.826z M259.15,222.07
				c0.012-0.66-0.276-1.716-1.452-1.716c-1.08,0-1.536,0.984-1.62,1.716H259.15z"/>
			<path d="M261.49,221.554c0-0.684-0.012-1.272-0.048-1.812h0.924l0.048,1.14h0.036c0.264-0.78,0.912-1.272,1.62-1.272
				c0.108,0,0.192,0.012,0.288,0.036v0.984c-0.12-0.012-0.228-0.024-0.372-0.024c-0.744,0-1.272,0.564-1.416,1.344
				c-0.024,0.156-0.036,0.324-0.036,0.504v3.096h-1.056L261.49,221.554z"/>
			<path d="M267.97,217.462h4.356v0.876h-3.3v2.688h3.048v0.864h-3.048v3.66h-1.056V217.462z"/>
			<path d="M273.49,221.554c0-0.684-0.012-1.272-0.048-1.812h0.924l0.048,1.14h0.036c0.264-0.78,0.912-1.272,1.62-1.272
				c0.108,0,0.192,0.012,0.288,0.036v0.984c-0.12-0.012-0.228-0.024-0.372-0.024c-0.744,0-1.272,0.564-1.416,1.344
				c-0.024,0.156-0.036,0.324-0.036,0.504v3.096h-1.056L273.49,221.554z"/>
			<path d="M277.93,222.826c0.024,1.428,0.924,2.016,1.98,2.016c0.756,0,1.224-0.132,1.608-0.288l0.192,0.744
				c-0.372,0.168-1.02,0.372-1.944,0.372c-1.776,0-2.856-1.188-2.856-2.928c0-1.764,1.044-3.144,2.736-3.144
				c1.896,0,2.388,1.668,2.388,2.736c0,0.216-0.012,0.384-0.036,0.504L277.93,222.826z M281.014,222.07
				c0.012-0.66-0.276-1.716-1.452-1.716c-1.08,0-1.536,0.984-1.62,1.716H281.014z"/>
			<path d="M287.302,224.662h-0.024c-0.312,0.564-0.96,1.02-1.896,1.02c-1.356,0-2.46-1.164-2.46-2.94
				c0-2.172,1.404-3.132,2.628-3.132c0.9,0,1.5,0.444,1.788,1.008h0.024l0.036-0.876h1.008c-0.036,0.48-0.048,0.984-0.048,1.596
				v6.588h-1.056V224.662z M287.302,222.094c0-0.156-0.012-0.312-0.048-0.444c-0.168-0.648-0.72-1.2-1.512-1.2
				c-1.092,0-1.752,0.924-1.752,2.232c0,1.164,0.552,2.16,1.716,2.16c0.684,0,1.272-0.42,1.512-1.152
				c0.048-0.144,0.084-0.348,0.084-0.504V222.094z"/>
			<path d="M294.958,223.966c0,0.6,0.012,1.128,0.048,1.584h-0.936l-0.06-0.948h-0.024c-0.264,0.468-0.888,1.08-1.92,1.08
				c-0.912,0-2.004-0.516-2.004-2.544v-3.396h1.056v3.204c0,1.104,0.348,1.86,1.296,1.86c0.708,0,1.2-0.492,1.392-0.972
				c0.06-0.144,0.096-0.336,0.096-0.54v-3.552h1.056V223.966z"/>
			<path d="M297.31,222.826c0.024,1.428,0.924,2.016,1.98,2.016c0.756,0,1.224-0.132,1.608-0.288l0.192,0.744
				c-0.372,0.168-1.02,0.372-1.944,0.372c-1.776,0-2.856-1.188-2.856-2.928c0-1.764,1.044-3.144,2.736-3.144
				c1.896,0,2.388,1.668,2.388,2.736c0,0.216-0.012,0.384-0.036,0.504L297.31,222.826z M300.394,222.07
				c0.012-0.66-0.276-1.716-1.452-1.716c-1.08,0-1.536,0.984-1.62,1.716H300.394z"/>
			<path d="M302.722,221.314c0-0.612-0.012-1.092-0.048-1.572h0.936l0.06,0.948h0.024c0.288-0.54,0.96-1.08,1.92-1.08
				c0.804,0,2.052,0.48,2.052,2.472v3.468h-1.056v-3.348c0-0.936-0.348-1.728-1.344-1.728c-0.684,0-1.224,0.492-1.416,1.08
				c-0.048,0.132-0.072,0.324-0.072,0.492v3.504h-1.056V221.314z"/>
			<path d="M313.521,225.346c-0.276,0.132-0.888,0.336-1.668,0.336c-1.752,0-2.892-1.188-2.892-2.976
				c0-1.788,1.224-3.096,3.12-3.096c0.624,0,1.176,0.156,1.464,0.312l-0.24,0.804c-0.252-0.132-0.648-0.276-1.224-0.276
				c-1.332,0-2.052,0.996-2.052,2.208c0,1.344,0.864,2.172,2.016,2.172c0.6,0,0.996-0.144,1.296-0.276L313.521,225.346z"/>
			<path d="M315.357,219.742l1.26,3.432c0.144,0.384,0.288,0.84,0.384,1.188h0.024c0.108-0.348,0.228-0.792,0.372-1.212l1.152-3.408
				h1.116l-1.584,4.14c-0.756,1.992-1.272,3.012-1.992,3.648c-0.528,0.444-1.032,0.624-1.296,0.672l-0.264-0.888
				c0.264-0.072,0.612-0.24,0.924-0.516c0.288-0.228,0.636-0.636,0.888-1.176c0.048-0.108,0.084-0.18,0.084-0.252
				c0-0.06-0.024-0.144-0.084-0.264l-2.136-5.364H315.357z"/>
			<path fill="#FF0000" d="M323.661,219.742l0.828,1.236c0.216,0.336,0.396,0.624,0.588,0.948h0.036
				c0.192-0.336,0.384-0.636,0.588-0.948l0.804-1.236h1.152l-1.98,2.808l2.028,3h-1.2l-0.852-1.308
				c-0.228-0.336-0.42-0.66-0.624-1.008h-0.024c-0.192,0.348-0.396,0.66-0.612,1.008l-0.84,1.308h-1.164l2.064-2.964l-1.968-2.844
				H323.661z"/>
			<path fill="#FF0000" d="M331.185,224.35c0.3,0.18,0.984,0.48,1.728,0.48c1.344,0,1.776-0.852,1.764-1.512
				c-0.012-1.092-0.996-1.56-2.016-1.56h-0.588v-0.792h0.588c0.768,0,1.74-0.396,1.74-1.32c0-0.624-0.396-1.176-1.368-1.176
				c-0.624,0-1.224,0.276-1.56,0.516l-0.288-0.768c0.42-0.3,1.212-0.6,2.052-0.6c1.536,0,2.232,0.912,2.232,1.86
				c0,0.816-0.492,1.5-1.44,1.848v0.024c0.96,0.18,1.74,0.9,1.74,1.992c0,1.248-0.984,2.34-2.844,2.34
				c-0.876,0-1.644-0.276-2.028-0.528L331.185,224.35z"/>
			<path fill="#FF0000" d="M336.537,226.03l3.336-8.7h0.828l-3.36,8.7H336.537z"/>
			<path fill="#FF0000" d="M341.205,225.55v-0.648l0.828-0.804c1.992-1.896,2.904-2.904,2.904-4.08c0-0.792-0.372-1.524-1.536-1.524
				c-0.708,0-1.296,0.36-1.656,0.66l-0.336-0.744c0.528-0.444,1.308-0.792,2.208-0.792c1.668,0,2.376,1.152,2.376,2.268
				c0,1.44-1.044,2.604-2.688,4.188l-0.612,0.576v0.024h3.492v0.876H341.205z"/>
		</g>
		<g>
			<path fill="#FF0000" d="M175.234,202.408l0.828,1.236c0.216,0.336,0.396,0.624,0.588,0.948h0.036
				c0.192-0.336,0.384-0.636,0.588-0.948l0.804-1.236h1.152l-1.98,2.808l2.028,3h-1.2l-0.852-1.308
				c-0.228-0.336-0.42-0.66-0.624-1.008h-0.024c-0.192,0.348-0.396,0.66-0.612,1.008l-0.84,1.308h-1.164l2.064-2.964l-1.968-2.844
				H175.234z"/>
			<path fill="#FF0000" d="M182.758,207.016c0.3,0.18,0.984,0.48,1.728,0.48c1.344,0,1.776-0.852,1.764-1.512
				c-0.012-1.092-0.996-1.56-2.016-1.56h-0.588v-0.792h0.588c0.768,0,1.74-0.396,1.74-1.32c0-0.624-0.396-1.176-1.368-1.176
				c-0.624,0-1.224,0.276-1.56,0.516l-0.288-0.768c0.42-0.3,1.212-0.6,2.052-0.6c1.536,0,2.232,0.912,2.232,1.86
				c0,0.816-0.492,1.5-1.44,1.848v0.024c0.96,0.18,1.74,0.9,1.74,1.992c0,1.248-0.984,2.34-2.844,2.34
				c-0.876,0-1.644-0.276-2.028-0.528L182.758,207.016z"/>
			<path fill="#FF0000" d="M188.109,208.696l3.336-8.7h0.828l-3.36,8.7H188.109z"/>
			<path fill="#FF0000" d="M192.777,208.216v-0.648l0.828-0.804c1.992-1.896,2.904-2.904,2.904-4.08
				c0-0.792-0.372-1.524-1.536-1.524c-0.708,0-1.296,0.36-1.656,0.66l-0.336-0.744c0.528-0.444,1.308-0.792,2.208-0.792
				c1.668,0,2.376,1.152,2.376,2.268c0,1.44-1.044,2.604-2.688,4.188l-0.612,0.576v0.024h3.492v0.876H192.777z"/>
		</g>
		<g>
			<path d="M155.351,207.817c0.228,0.012,0.492,0,0.852-0.048c0.612-0.072,1.188-0.324,1.632-0.756
				c0.516-0.468,0.888-1.152,1.032-2.076h-0.036c-0.432,0.528-1.056,0.84-1.848,0.84c-1.404,0-2.304-1.056-2.304-2.4
				c0-1.464,1.08-2.76,2.676-2.76c1.596,0,2.58,1.284,2.58,3.288c0,1.716-0.576,2.916-1.344,3.672
				c-0.6,0.576-1.428,0.948-2.268,1.044c-0.384,0.048-0.732,0.072-0.972,0.06V207.817z M157.259,201.421
				c-0.888,0-1.524,0.792-1.524,1.896c0,0.972,0.588,1.656,1.5,1.656c0.708,0,1.26-0.348,1.548-0.816
				c0.048-0.096,0.084-0.216,0.084-0.384c0.012-1.344-0.492-2.352-1.596-2.352H157.259z"/>
			<path d="M160.343,209.029l3.336-8.7h0.828l-3.36,8.7H160.343z"/>
			<path d="M168.275,208.549v-2.124h-3.624v-0.684l3.48-4.992h1.14v4.86h1.092v0.816h-1.092v2.124H168.275z M168.275,205.609v-2.616
				c0-0.408,0.012-0.816,0.036-1.224h-0.036c-0.24,0.456-0.432,0.792-0.648,1.164l-1.908,2.652v0.024H168.275z"/>
		</g>
		<g>
			<path d="M107.658,221.683c0.3,0.18,0.984,0.48,1.728,0.48c1.344,0,1.776-0.852,1.764-1.512c-0.012-1.092-0.996-1.56-2.016-1.56
				h-0.588v-0.792h0.588c0.768,0,1.74-0.396,1.74-1.32c0-0.624-0.396-1.176-1.368-1.176c-0.624,0-1.224,0.276-1.56,0.516
				l-0.288-0.768c0.42-0.3,1.212-0.6,2.052-0.6c1.536,0,2.232,0.912,2.232,1.86c0,0.816-0.492,1.5-1.44,1.848v0.024
				c0.96,0.18,1.74,0.9,1.74,1.992c0,1.248-0.984,2.34-2.844,2.34c-0.876,0-1.644-0.276-2.028-0.528L107.658,221.683z"/>
			<path d="M113.01,223.363l3.336-8.7h0.828l-3.36,8.7H113.01z"/>
			<path d="M117.677,222.883v-0.648l0.828-0.804c1.992-1.896,2.904-2.904,2.904-4.08c0-0.792-0.372-1.524-1.536-1.524
				c-0.708,0-1.296,0.36-1.656,0.66l-0.336-0.744c0.528-0.444,1.308-0.792,2.208-0.792c1.668,0,2.376,1.152,2.376,2.268
				c0,1.44-1.044,2.604-2.688,4.188l-0.612,0.576v0.024h3.492v0.876H117.677z"/>
		</g>
		<g>
			<path fill="#FF0000" d="M126.234,217.408l0.828,1.236c0.216,0.336,0.396,0.624,0.588,0.948h0.036
				c0.192-0.336,0.384-0.636,0.588-0.948l0.804-1.236h1.152l-1.98,2.808l2.028,3h-1.2l-0.852-1.308
				c-0.228-0.336-0.42-0.66-0.624-1.008h-0.024c-0.192,0.348-0.396,0.66-0.612,1.008l-0.84,1.308h-1.164l2.064-2.964l-1.968-2.844
				H126.234z"/>
			<path fill="#FF0000" d="M133.758,222.016c0.3,0.18,0.984,0.48,1.728,0.48c1.344,0,1.776-0.852,1.764-1.512
				c-0.012-1.092-0.996-1.56-2.016-1.56h-0.588v-0.792h0.588c0.768,0,1.74-0.396,1.74-1.32c0-0.624-0.396-1.176-1.368-1.176
				c-0.624,0-1.224,0.276-1.56,0.516l-0.288-0.768c0.42-0.3,1.212-0.6,2.052-0.6c1.536,0,2.232,0.912,2.232,1.86
				c0,0.816-0.492,1.5-1.44,1.848v0.024c0.96,0.18,1.74,0.9,1.74,1.992c0,1.248-0.984,2.34-2.844,2.34
				c-0.876,0-1.644-0.276-2.028-0.528L133.758,222.016z"/>
			<path fill="#FF0000" d="M139.109,223.696l3.336-8.7h0.828l-3.36,8.7H139.109z"/>
			<path fill="#FF0000" d="M143.777,223.216v-0.648l0.828-0.804c1.992-1.896,2.904-2.904,2.904-4.08
				c0-0.792-0.372-1.524-1.536-1.524c-0.708,0-1.296,0.36-1.656,0.66l-0.336-0.744c0.528-0.444,1.308-0.792,2.208-0.792
				c1.668,0,2.376,1.152,2.376,2.268c0,1.44-1.044,2.604-2.688,4.188l-0.612,0.576v0.024h3.492v0.876H143.777z"/>
		</g>
		<g>
			<path d="M106.022,213.887c-0.876,1.188-1.5,2.736-1.5,4.92c0,2.136,0.66,3.66,1.5,4.86h-0.816
				c-0.756-0.996-1.572-2.532-1.572-4.872c0.012-2.352,0.816-3.9,1.572-4.908H106.022z"/>
		</g>
		<g>
			<path d="M150.772,225.001c0.84-1.188,1.5-2.736,1.5-4.896c0-2.16-0.648-3.684-1.5-4.884h0.816
				c0.756,0.984,1.572,2.532,1.572,4.884c-0.012,2.352-0.816,3.876-1.572,4.896H150.772z"/>
		</g>
		<g>
			<path d="M153.022,199.888c-0.876,1.188-1.5,2.736-1.5,4.92c0,2.136,0.66,3.66,1.5,4.86h-0.816
				c-0.756-0.996-1.572-2.532-1.572-4.872c0.012-2.352,0.816-3.9,1.572-4.908H153.022z"/>
		</g>
		<g>
			<path d="M200.105,209.668c0.84-1.188,1.5-2.736,1.5-4.896c0-2.16-0.648-3.684-1.5-4.884h0.816
				c0.756,0.984,1.572,2.532,1.572,4.884c-0.012,2.352-0.816,3.876-1.572,4.896H200.105z"/>
		</g>
		<g>
			<path fill="none" stroke="#000000" d="M1.395,25.381h228.345"/>
			<path fill="none" stroke="#000000" d="M1.395,39.493h228.345"/>
			<path fill="none" stroke="#000000" d="M1.508,46.616h228.345"/>
			<path fill="none" stroke="#000000" d="M1.333,54h228.345"/>
			<path fill="none" stroke="#000000" d="M1.333,32.635h228.345"/>
		</g>
		<g>
			<path d="M12.485,53.237c-4.944-2.352-5.736-5.376-5.952-8.472c-0.24-3.36,1.896-6.768,3.888-8.664
				c1.152-1.08,2.4-2.136,3.888-3.264c-0.048-0.84-0.24-1.176-0.336-2.376c-0.024-0.504-0.336-2.856,0.168-5.568
				c0.312-1.608,2.328-5.4,3.72-5.424c1.08-0.024,2.736,4.296,2.784,6.456c0.072,3.336-0.72,4.848-1.704,6.576
				c-0.504,0.864-1.032,1.464-1.584,2.136c-0.576,0.696-1.224,1.104-1.824,1.632c0,0,0.768,4.344,0.792,4.656
				c1.536-0.192,3.408,0.36,4.08,0.84c1.704,1.272,2.352,3.024,2.472,4.728c0.216,2.712-1.272,5.568-4.56,6.936
				c0,0,0.504,3.456,0.624,4.176c0.264,1.896,0.216,3.096-0.192,3.864c-0.696,1.296-1.824,2.496-4.008,2.64
				c-1.68,0.096-4.992-0.744-5.16-3.384c-0.096-1.56,0.6-3.24,2.496-3.36c1.152-0.096,2.52,0.864,2.616,2.232
				c0.096,1.176-0.672,2.4-2.664,2.952c0.312,0.432,1.248,0.936,2.592,0.936c1.392,0,2.832-0.936,3.528-2.184
				c0.432-0.816,0.384-2.28,0.216-3.624c-0.072-0.456-0.648-4.08-0.648-4.08C15.941,53.885,13.493,53.717,12.485,53.237z
				 M12.965,47.549c0.048,1.152,1.008,2.496,1.896,2.952c-0.12,0.072-0.24,0.264-0.24,0.264c-0.984-0.48-1.824-1.272-2.04-1.56
				c-0.696-0.936-0.984-1.464-1.08-2.88c-0.096-1.32,0.624-3.096,2.232-4.344c0.84-0.624,1.248-0.768,1.968-0.936l-0.72-4.344
				c-0.744,0.432-3.816,2.904-5.112,4.92c-1.152,1.8-1.848,3.24-1.704,5.016c0.288,4.008,4.68,7.296,9.432,6.168
				c0,0-1.416-8.52-1.392-8.52C13.589,44.381,12.893,46.397,12.965,47.549z M14.909,32.333c2.088-1.632,4.92-4.704,4.752-7.08
				c-0.048-0.744-0.36-2.088-1.44-2.064C15.749,23.212,14.357,28.373,14.909,32.333z M18.173,52.613
				c2.76-0.936,2.88-3.312,2.784-4.728c-0.096-1.176-0.624-3.816-4.128-3.648L18.173,52.613z"/>
		</g>
		<g>
			<path d="M46.237,70c2.664,0.024,5.184,1.032,5.376,3.264c0.144,1.632-2.016,3.12-4.68,3.12c-2.688-0.024-5.184-1.008-5.4-3.24
				C41.389,71.488,43.573,70,46.237,70z M46.885,75.832c1.152,0,1.896-1.104,1.776-1.992c-0.264-1.752-0.864-3.168-2.448-3.168
				c-1.152,0-1.824,1.128-1.68,2.016C44.797,74.44,45.301,75.832,46.885,75.832z"/>
		</g>
		<g>
			<path fill="none" stroke="#000000" d="M40.533,73.216h12"/>
			<path fill="none" stroke="#000000" d="M40.199,66.216h12"/>
			<path fill="none" stroke="#000000" d="M40.199,59.549h12"/>
		</g>
		<g>
			<path d="M84.903,47c2.664,0.024,5.184,1.032,5.376,3.264c0.144,1.632-2.016,3.12-4.68,3.12c-2.688-0.024-5.184-1.008-5.4-3.24
				C80.055,48.488,82.239,47,84.903,47z M85.551,52.832c1.152,0,1.896-1.104,1.776-1.992c-0.264-1.752-0.864-3.168-2.448-3.168
				c-1.152,0-1.824,1.128-1.68,2.016C83.463,51.44,83.967,52.832,85.551,52.832z"/>
		</g>
		<g>
			<path d="M122.237,22.333c2.664,0.024,5.184,1.032,5.376,3.264c0.144,1.632-2.016,3.12-4.68,3.12
				c-2.688-0.024-5.184-1.008-5.4-3.24C117.389,23.821,119.573,22.333,122.237,22.333z M122.885,28.165
				c1.152,0,1.896-1.104,1.776-1.992c-0.264-1.752-0.864-3.168-2.448-3.168c-1.152,0-1.824,1.128-1.68,2.016
				C120.797,26.773,121.301,28.165,122.885,28.165z"/>
		</g>
		<g>
			<path d="M162.237,0c2.664,0.024,5.184,1.032,5.376,3.264c0.144,1.632-2.016,3.12-4.68,3.12c-2.688-0.024-5.184-1.008-5.4-3.24
				C157.389,1.488,159.573,0,162.237,0z M162.885,5.832c1.152,0,1.896-1.104,1.776-1.992c-0.264-1.752-0.864-3.168-2.448-3.168
				c-1.152,0-1.824,1.128-1.68,2.016C160.797,4.44,161.301,5.832,162.885,5.832z"/>
		</g>
		<g>
			<path fill="none" stroke="#000000" d="M156.533,20.216h12"/>
			<path fill="none" stroke="#000000" d="M156.199,13.216h12"/>
			<path fill="none" stroke="#000000" d="M156.199,6.549h12"/>
		</g>
		<g>
			<path fill="none" stroke="#000000" d="M0.061,148.714h226.347"/>
			<path fill="none" stroke="#000000" d="M0.061,162.826h226.347"/>
			<path fill="none" stroke="#000000" d="M0.173,169.949h226.347"/>
			<path fill="none" stroke="#000000" d="M0,177.333h226.347"/>
			<path fill="none" stroke="#000000" d="M0,155.968h226.347"/>
		</g>
		<g>
			<path d="M11.152,176.57c-4.944-2.352-5.736-5.376-5.952-8.472c-0.24-3.36,1.896-6.768,3.888-8.664
				c1.152-1.08,2.4-2.136,3.888-3.264c-0.048-0.84-0.24-1.176-0.336-2.376c-0.024-0.504-0.336-2.856,0.168-5.568
				c0.312-1.608,2.328-5.4,3.72-5.424c1.08-0.024,2.736,4.296,2.784,6.456c0.072,3.336-0.72,4.848-1.704,6.576
				c-0.504,0.864-1.032,1.464-1.584,2.136c-0.576,0.696-1.224,1.104-1.824,1.632c0,0,0.768,4.344,0.792,4.656
				c1.536-0.192,3.408,0.36,4.08,0.84c1.704,1.272,2.352,3.024,2.472,4.728c0.216,2.712-1.272,5.568-4.56,6.936
				c0,0,0.504,3.456,0.624,4.176c0.264,1.896,0.216,3.096-0.192,3.864c-0.696,1.296-1.824,2.496-4.008,2.64
				c-1.68,0.096-4.992-0.744-5.16-3.384c-0.096-1.56,0.6-3.24,2.496-3.36c1.152-0.096,2.52,0.864,2.616,2.232
				c0.096,1.176-0.672,2.4-2.664,2.952c0.312,0.432,1.248,0.936,2.592,0.936c1.392,0,2.832-0.936,3.528-2.184
				c0.432-0.816,0.384-2.28,0.216-3.624c-0.072-0.456-0.648-4.08-0.648-4.08C14.608,177.218,12.16,177.05,11.152,176.57z
				 M11.632,170.882c0.048,1.152,1.008,2.496,1.896,2.952c-0.12,0.072-0.24,0.264-0.24,0.264c-0.984-0.48-1.824-1.272-2.04-1.56
				c-0.696-0.936-0.984-1.464-1.08-2.88c-0.096-1.32,0.624-3.096,2.232-4.344c0.84-0.624,1.248-0.768,1.968-0.936l-0.72-4.344
				c-0.744,0.432-3.816,2.904-5.112,4.92c-1.152,1.8-1.848,3.24-1.704,5.016c0.288,4.008,4.68,7.296,9.432,6.168
				c0,0-1.416-8.52-1.392-8.52C12.256,167.714,11.56,169.73,11.632,170.882z M13.576,155.666c2.088-1.632,4.92-4.704,4.752-7.08
				c-0.048-0.744-0.36-2.088-1.44-2.064C14.416,146.545,13.024,151.706,13.576,155.666z M16.84,175.946
				c2.76-0.936,2.88-3.312,2.784-4.728c-0.096-1.176-0.624-3.816-4.128-3.648L16.84,175.946z"/>
		</g>
		<g>
			<path d="M44.904,193.333c2.664,0.024,5.184,1.032,5.376,3.264c0.144,1.632-2.016,3.12-4.68,3.12
				c-2.688-0.024-5.184-1.008-5.4-3.24C40.056,194.821,42.24,193.333,44.904,193.333z M45.552,199.165
				c1.152,0,1.896-1.104,1.776-1.992c-0.264-1.752-0.864-3.168-2.448-3.168c-1.152,0-1.824,1.128-1.68,2.016
				C43.464,197.773,43.968,199.165,45.552,199.165z"/>
		</g>
		<g>
			<path fill="none" stroke="#000000" d="M39.2,196.549h12"/>
			<path fill="none" stroke="#000000" d="M38.866,189.549h12"/>
			<path fill="none" stroke="#000000" d="M38.866,182.882h12"/>
		</g>
		<g>
			<path d="M83.57,180.333c2.664,0.024,5.184,1.032,5.376,3.264c0.144,1.632-2.016,3.12-4.68,3.12
				c-2.688-0.024-5.184-1.008-5.4-3.24C78.722,181.821,80.906,180.333,83.57,180.333z M84.218,186.165
				c1.152,0,1.896-1.104,1.776-1.992c-0.264-1.752-0.864-3.168-2.448-3.168c-1.152,0-1.824,1.128-1.68,2.016
				C82.13,184.773,82.634,186.165,84.218,186.165z"/>
		</g>
		<g>
			<path d="M120.904,166.666c2.664,0.024,5.184,1.032,5.376,3.264c0.144,1.632-2.016,3.12-4.68,3.12
				c-2.688-0.024-5.184-1.008-5.4-3.24C116.056,168.154,118.24,166.666,120.904,166.666z M121.552,172.498
				c1.152,0,1.896-1.104,1.776-1.992c-0.264-1.752-0.864-3.168-2.448-3.168c-1.152,0-1.824,1.128-1.68,2.016
				C119.464,171.106,119.968,172.498,121.552,172.498z"/>
		</g>
		<g>
			<path d="M160.237,152.667c2.664,0.024,5.184,1.032,5.376,3.264c0.144,1.632-2.016,3.12-4.68,3.12
				c-2.688-0.024-5.184-1.008-5.4-3.24C155.389,154.154,157.573,152.667,160.237,152.667z M160.885,158.499
				c1.152,0,1.896-1.104,1.776-1.992c-0.264-1.752-0.864-3.168-2.448-3.168c-1.152,0-1.824,1.128-1.68,2.016
				C158.797,157.106,159.301,158.499,160.885,158.499z"/>
		</g>
		<path fill="none" stroke="#000000" d="M77.533,183.549h12"/>
	</g>
</svg>
