<?xml version="1.0" encoding="utf-8"?>
<!-- Generator: Adobe Illustrator 10.0, SVG Export Plug-In . SVG Version: 3.0.0 Build 76)  -->
<!DOCTYPE svg PUBLIC "-//W3C//DTD SVG 1.0//EN"    "http://www.w3.org/TR/2001/REC-SVG-20010904/DTD/svg10.dtd" [
	<!ENTITY ns_flows "http://ns.adobe.com/Flows/1.0/">
	<!ENTITY ns_extend "http://ns.adobe.com/Extensibility/1.0/">
	<!ENTITY ns_ai "http://ns.adobe.com/AdobeIllustrator/10.0/">
	<!ENTITY ns_svg "http://www.w3.org/2000/svg">
	<!ENTITY ns_xlink "http://www.w3.org/1999/xlink">
]>
<svg  xmlns:x="&ns_extend;" xmlns:i="&ns_ai;" xmlns:graph="&ns_graphs;"
	 xmlns="&ns_svg;" xmlns:xlink="&ns_xlink;" xmlns:a="http://ns.adobe.com/AdobeSVGViewerExtensions/3.0/" width="325" height="222"
	 viewBox="0.166 0.256 325 222" overflow="visible" enable-background="new 0.166 0.256 325 222" xml:space="preserve">
	<g id="Layer_1_2_">
		<g>
			<path d="M102.49,178.075c2.664,0.024,5.184,1.032,5.376,3.264c0.144,1.632-2.016,3.12-4.68,3.12
				c-2.688-0.024-5.184-1.008-5.4-3.24C97.642,179.563,99.826,178.075,102.49,178.075z M103.138,183.907
				c1.152,0,1.896-1.104,1.776-1.992c-0.264-1.752-0.864-3.168-2.448-3.168c-1.152,0-1.824,1.128-1.68,2.016
				C101.05,182.515,101.554,183.907,103.138,183.907z"/>
		</g>
		<g>
			<path d="M102.49,185.075c2.664,0.024,5.184,1.032,5.376,3.264c0.144,1.632-2.016,3.12-4.68,3.12
				c-2.688-0.024-5.184-1.008-5.4-3.24C97.642,186.563,99.826,185.075,102.49,185.075z M103.138,190.907
				c1.152,0,1.896-1.104,1.776-1.992c-0.264-1.752-0.864-3.168-2.448-3.168c-1.152,0-1.824,1.128-1.68,2.016
				C101.05,189.515,101.554,190.907,103.138,190.907z"/>
		</g>
		<g>
			<path d="M102.164,191.579c2.664,0.024,5.184,1.032,5.376,3.264c0.144,1.632-2.016,3.12-4.68,3.12
				c-2.688-0.024-5.184-1.008-5.4-3.24C97.316,193.066,99.5,191.579,102.164,191.579z M102.812,197.411
				c1.152,0,1.896-1.104,1.776-1.992c-0.264-1.752-0.864-3.168-2.448-3.168c-1.152,0-1.824,1.128-1.68,2.016
				C100.724,196.019,101.228,197.411,102.812,197.411z"/>
		</g>
		<g>
			<path d="M166.49,178.075c2.664,0.024,5.184,1.032,5.376,3.264c0.144,1.632-2.016,3.12-4.68,3.12
				c-2.688-0.024-5.184-1.008-5.4-3.24C161.642,179.563,163.826,178.075,166.49,178.075z M167.138,183.907
				c1.152,0,1.896-1.104,1.776-1.992c-0.264-1.752-0.864-3.168-2.448-3.168c-1.152,0-1.824,1.128-1.68,2.016
				C165.05,182.515,165.554,183.907,167.138,183.907z"/>
		</g>
		<g>
			<path d="M101.49,44.075c2.664,0.024,5.184,1.032,5.376,3.264c0.144,1.632-2.016,3.12-4.68,3.12
				c-2.688-0.024-5.184-1.008-5.4-3.24C96.642,45.563,98.826,44.075,101.49,44.075z M102.138,49.907
				c1.152,0,1.896-1.104,1.776-1.992c-0.264-1.752-0.864-3.168-2.448-3.168c-1.152,0-1.824,1.128-1.68,2.016
				C100.05,48.515,100.554,49.907,102.138,49.907z"/>
		</g>
		<g>
			<path fill="none" stroke="#000000" d="M46.66,40.456h274.919"/>
			<path fill="none" stroke="#000000" d="M46.66,54.568h274.919"/>
			<path fill="none" stroke="#000000" d="M46.797,61.69h274.92"/>
			<path fill="none" stroke="#000000" d="M46.586,69.074h274.918"/>
			<path fill="none" stroke="#000000" d="M46.586,47.71h274.918"/>
		</g>
		<g>
			<path d="M286.16,4.512V0.6h0.696v3.672l2.352-0.768V0h0.696v3.288l0.936-0.312v2.496l-0.936,0.312v3.552l0.936-0.288v2.472
				l-0.936,0.312v3.912h-0.696v-3.696l-2.352,0.768v3.552h-0.696v-3.312l-1.032,0.336v-2.496l1.032-0.336V6.984l-1.032,0.336V4.848
				L286.16,4.512z M286.856,6.768v3.576l2.352-0.768V6L286.856,6.768z"/>
		</g>
		<g>
			<path d="M60.738,67.979c-4.944-2.352-5.736-5.376-5.952-8.472c-0.24-3.36,1.896-6.768,3.888-8.664
				c1.152-1.08,2.4-2.136,3.888-3.264c-0.048-0.84-0.24-1.176-0.336-2.376c-0.024-0.504-0.336-2.856,0.168-5.568
				c0.312-1.608,2.328-5.4,3.72-5.424c1.08-0.024,2.736,4.296,2.784,6.456c0.072,3.336-0.72,4.848-1.704,6.576
				c-0.504,0.864-1.032,1.464-1.584,2.136c-0.576,0.696-1.224,1.104-1.824,1.632c0,0,0.768,4.344,0.792,4.656
				c1.536-0.192,3.408,0.36,4.08,0.84c1.704,1.272,2.352,3.024,2.472,4.728c0.216,2.712-1.272,5.568-4.56,6.936
				c0,0,0.504,3.456,0.624,4.176c0.264,1.896,0.216,3.096-0.192,3.864c-0.696,1.296-1.824,2.496-4.008,2.64
				c-1.68,0.096-4.992-0.744-5.16-3.384c-0.096-1.56,0.6-3.24,2.496-3.36c1.152-0.096,2.52,0.864,2.616,2.232
				c0.096,1.176-0.672,2.4-2.664,2.952c0.312,0.432,1.248,0.936,2.592,0.936c1.392,0,2.832-0.936,3.528-2.184
				c0.432-0.816,0.384-2.28,0.216-3.624c-0.072-0.456-0.648-4.08-0.648-4.08C64.194,68.626,61.746,68.458,60.738,67.979z
				 M61.218,62.291c0.048,1.152,1.008,2.496,1.896,2.952c-0.12,0.072-0.24,0.264-0.24,0.264c-0.984-0.48-1.824-1.272-2.04-1.56
				c-0.696-0.936-0.984-1.464-1.08-2.88c-0.096-1.32,0.624-3.096,2.232-4.344c0.84-0.624,1.248-0.768,1.968-0.936l-0.72-4.344
				c-0.744,0.432-3.816,2.904-5.112,4.92c-1.152,1.8-1.848,3.24-1.704,5.016c0.288,4.008,4.68,7.296,9.432,6.168
				c0,0-1.416-8.52-1.392-8.52C61.842,59.123,61.146,61.139,61.218,62.291z M63.162,47.074c2.088-1.632,4.92-4.704,4.752-7.08
				c-0.048-0.744-0.36-2.088-1.44-2.064C64.002,37.954,62.61,43.114,63.162,47.074z M66.426,67.354
				c2.76-0.936,2.88-3.312,2.784-4.728c-0.096-1.176-0.624-3.816-4.128-3.648L66.426,67.354z"/>
		</g>
		<g>
			<path d="M101.49,51.075c2.664,0.024,5.184,1.032,5.376,3.264c0.144,1.632-2.016,3.12-4.68,3.12
				c-2.688-0.024-5.184-1.008-5.4-3.24C96.642,52.563,98.826,51.075,101.49,51.075z M102.138,56.907
				c1.152,0,1.896-1.104,1.776-1.992c-0.264-1.752-0.864-3.168-2.448-3.168c-1.152,0-1.824,1.128-1.68,2.016
				C100.05,55.515,100.554,56.907,102.138,56.907z"/>
		</g>
		<g>
			<path d="M101.164,57.579c2.664,0.024,5.184,1.032,5.376,3.264c0.144,1.632-2.016,3.12-4.68,3.12
				c-2.688-0.024-5.184-1.008-5.4-3.24C96.316,59.066,98.5,57.579,101.164,57.579z M101.812,63.411c1.152,0,1.896-1.104,1.776-1.992
				c-0.264-1.752-0.864-3.168-2.448-3.168c-1.152,0-1.824,1.128-1.68,2.016C99.724,62.019,100.228,63.411,101.812,63.411z"/>
		</g>
		<path fill="none" stroke="#000000" d="M245.5,33.256h14.667"/>
		<g>
			<path d="M136.49,55.075c2.664,0.024,5.184,1.032,5.376,3.264c0.144,1.632-2.016,3.12-4.68,3.12
				c-2.688-0.024-5.184-1.008-5.4-3.24C131.642,56.563,133.826,55.075,136.49,55.075z M137.138,60.907
				c1.152,0,1.896-1.104,1.776-1.992c-0.264-1.752-0.864-3.168-2.448-3.168c-1.152,0-1.824,1.128-1.68,2.016
				C135.05,59.515,135.554,60.907,137.138,60.907z"/>
		</g>
		<g>
			<path d="M136.49,48.075c2.664,0.024,5.184,1.032,5.376,3.264c0.144,1.632-2.016,3.12-4.68,3.12
				c-2.688-0.024-5.184-1.008-5.4-3.24C131.642,49.563,133.826,48.075,136.49,48.075z M137.138,53.907
				c1.152,0,1.896-1.104,1.776-1.992c-0.264-1.752-0.864-3.168-2.448-3.168c-1.152,0-1.824,1.128-1.68,2.016
				C135.05,52.515,135.554,53.907,137.138,53.907z"/>
		</g>
		<g>
			<path d="M136.49,41.075c2.664,0.024,5.184,1.032,5.376,3.264c0.144,1.632-2.016,3.12-4.68,3.12
				c-2.688-0.024-5.184-1.008-5.4-3.24C131.642,42.563,133.826,41.075,136.49,41.075z M137.138,46.907
				c1.152,0,1.896-1.104,1.776-1.992c-0.264-1.752-0.864-3.168-2.448-3.168c-1.152,0-1.824,1.128-1.68,2.016
				C135.05,45.515,135.554,46.907,137.138,46.907z"/>
		</g>
		<g>
			<path d="M165.49,51.075c2.664,0.024,5.184,1.032,5.376,3.264c0.144,1.632-2.016,3.12-4.68,3.12
				c-2.688-0.024-5.184-1.008-5.4-3.24C160.642,52.563,162.826,51.075,165.49,51.075z M166.138,56.907
				c1.152,0,1.896-1.104,1.776-1.992c-0.264-1.752-0.864-3.168-2.448-3.168c-1.152,0-1.824,1.128-1.68,2.016
				C164.05,55.515,164.554,56.907,166.138,56.907z"/>
		</g>
		<g>
			<path d="M165.49,44.075c2.664,0.024,5.184,1.032,5.376,3.264c0.144,1.632-2.016,3.12-4.68,3.12
				c-2.688-0.024-5.184-1.008-5.4-3.24C160.642,45.563,162.826,44.075,165.49,44.075z M166.138,49.907
				c1.152,0,1.896-1.104,1.776-1.992c-0.264-1.752-0.864-3.168-2.448-3.168c-1.152,0-1.824,1.128-1.68,2.016
				C164.05,48.515,164.554,49.907,166.138,49.907z"/>
		</g>
		<g>
			<path d="M165.49,37.075c2.664,0.024,5.184,1.032,5.376,3.264c0.144,1.632-2.016,3.12-4.68,3.12
				c-2.688-0.024-5.184-1.008-5.4-3.24C160.642,38.563,162.826,37.075,165.49,37.075z M166.138,42.907
				c1.152,0,1.896-1.104,1.776-1.992c-0.264-1.752-0.864-3.168-2.448-3.168c-1.152,0-1.824,1.128-1.68,2.016
				C164.05,41.515,164.554,42.907,166.138,42.907z"/>
		</g>
		<g>
			<path d="M194.49,48.075c2.664,0.024,5.184,1.032,5.376,3.264c0.144,1.632-2.016,3.12-4.68,3.12
				c-2.688-0.024-5.184-1.008-5.4-3.24C189.642,49.563,191.826,48.075,194.49,48.075z M195.138,53.907
				c1.152,0,1.896-1.104,1.776-1.992c-0.264-1.752-0.864-3.168-2.448-3.168c-1.152,0-1.824,1.128-1.68,2.016
				C193.05,52.515,193.554,53.907,195.138,53.907z"/>
		</g>
		<g>
			<path d="M194.49,41.075c2.664,0.024,5.184,1.032,5.376,3.264c0.144,1.632-2.016,3.12-4.68,3.12
				c-2.688-0.024-5.184-1.008-5.4-3.24C189.642,42.563,191.826,41.075,194.49,41.075z M195.138,46.907
				c1.152,0,1.896-1.104,1.776-1.992c-0.264-1.752-0.864-3.168-2.448-3.168c-1.152,0-1.824,1.128-1.68,2.016
				C193.05,45.515,193.554,46.907,195.138,46.907z"/>
		</g>
		<g>
			<path d="M194.49,34.075c2.664,0.024,5.184,1.032,5.376,3.264c0.144,1.632-2.016,3.12-4.68,3.12
				c-2.688-0.024-5.184-1.008-5.4-3.24C189.642,35.563,191.826,34.075,194.49,34.075z M195.138,39.907
				c1.152,0,1.896-1.104,1.776-1.992c-0.264-1.752-0.864-3.168-2.448-3.168c-1.152,0-1.824,1.128-1.68,2.016
				C193.05,38.515,193.554,39.907,195.138,39.907z"/>
		</g>
		<g>
			<path d="M223.491,44.075c2.664,0.024,5.184,1.032,5.376,3.264c0.144,1.632-2.016,3.12-4.68,3.12
				c-2.688-0.024-5.184-1.008-5.4-3.24C218.643,45.563,220.827,44.075,223.491,44.075z M224.139,49.907
				c1.152,0,1.896-1.104,1.776-1.992c-0.264-1.752-0.864-3.168-2.448-3.168c-1.152,0-1.824,1.128-1.68,2.016
				C222.051,48.515,222.555,49.907,224.139,49.907z"/>
		</g>
		<g>
			<path d="M223.491,37.075c2.664,0.024,5.184,1.032,5.376,3.264c0.144,1.632-2.016,3.12-4.68,3.12
				c-2.688-0.024-5.184-1.008-5.4-3.24C218.643,38.563,220.827,37.075,223.491,37.075z M224.139,42.907
				c1.152,0,1.896-1.104,1.776-1.992c-0.264-1.752-0.864-3.168-2.448-3.168c-1.152,0-1.824,1.128-1.68,2.016
				C222.051,41.515,222.555,42.907,224.139,42.907z"/>
		</g>
		<g>
			<path d="M223.491,30.075c2.664,0.024,5.184,1.032,5.376,3.264c0.144,1.632-2.016,3.12-4.68,3.12
				c-2.688-0.024-5.184-1.008-5.4-3.24C218.643,31.563,220.827,30.075,223.491,30.075z M224.139,35.907
				c1.152,0,1.896-1.104,1.776-1.992c-0.264-1.752-0.864-3.168-2.448-3.168c-1.152,0-1.824,1.128-1.68,2.016
				C222.051,34.515,222.555,35.907,224.139,35.907z"/>
		</g>
		<g>
			<path d="M252.491,41.075c2.664,0.024,5.184,1.032,5.376,3.264c0.144,1.632-2.016,3.12-4.68,3.12
				c-2.688-0.024-5.184-1.008-5.4-3.24C247.643,42.563,249.827,41.075,252.491,41.075z M253.139,46.907
				c1.152,0,1.896-1.104,1.776-1.992c-0.264-1.752-0.864-3.168-2.448-3.168c-1.152,0-1.824,1.128-1.68,2.016
				C251.051,45.515,251.555,46.907,253.139,46.907z"/>
		</g>
		<g>
			<path d="M252.491,34.075c2.664,0.024,5.184,1.032,5.376,3.264c0.144,1.632-2.016,3.12-4.68,3.12
				c-2.688-0.024-5.184-1.008-5.4-3.24C247.643,35.563,249.827,34.075,252.491,34.075z M253.139,39.907
				c1.152,0,1.896-1.104,1.776-1.992c-0.264-1.752-0.864-3.168-2.448-3.168c-1.152,0-1.824,1.128-1.68,2.016
				C251.051,38.515,251.555,39.907,253.139,39.907z"/>
		</g>
		<g>
			<path d="M252.491,27.075c2.664,0.024,5.184,1.032,5.376,3.264c0.144,1.632-2.016,3.12-4.68,3.12
				c-2.688-0.024-5.184-1.008-5.4-3.24C247.643,28.563,249.827,27.075,252.491,27.075z M253.139,32.907
				c1.152,0,1.896-1.104,1.776-1.992c-0.264-1.752-0.864-3.168-2.448-3.168c-1.152,0-1.824,1.128-1.68,2.016
				C251.051,31.515,251.555,32.907,253.139,32.907z"/>
		</g>
		<g>
			<path d="M281.491,37.075c2.664,0.024,5.184,1.032,5.376,3.264c0.144,1.632-2.016,3.12-4.68,3.12
				c-2.688-0.024-5.184-1.008-5.4-3.24C276.643,38.563,278.827,37.075,281.491,37.075z M282.139,42.907
				c1.152,0,1.896-1.104,1.776-1.992c-0.264-1.752-0.864-3.168-2.448-3.168c-1.152,0-1.824,1.128-1.68,2.016
				C280.051,41.515,280.555,42.907,282.139,42.907z"/>
		</g>
		<g>
			<path d="M281.491,30.075c2.664,0.024,5.184,1.032,5.376,3.264c0.144,1.632-2.016,3.12-4.68,3.12
				c-2.688-0.024-5.184-1.008-5.4-3.24C276.643,31.563,278.827,30.075,281.491,30.075z M282.139,35.907
				c1.152,0,1.896-1.104,1.776-1.992c-0.264-1.752-0.864-3.168-2.448-3.168c-1.152,0-1.824,1.128-1.68,2.016
				C280.051,34.515,280.555,35.907,282.139,35.907z"/>
		</g>
		<g>
			<path d="M281.491,23.075c2.664,0.024,5.184,1.032,5.376,3.264c0.144,1.632-2.016,3.12-4.68,3.12
				c-2.688-0.024-5.184-1.008-5.4-3.24C276.643,24.563,278.827,23.075,281.491,23.075z M282.139,28.907
				c1.152,0,1.896-1.104,1.776-1.992c-0.264-1.752-0.864-3.168-2.448-3.168c-1.152,0-1.824,1.128-1.68,2.016
				C280.051,27.515,280.555,28.907,282.139,28.907z"/>
		</g>
		<g>
			<path d="M6.648,58.471c-0.468,0.18-1.404,0.444-2.496,0.444c-1.224,0-2.232-0.312-3.024-1.068C0.432,57.175,0,56.095,0,54.835
				c0-2.412,1.668-4.176,4.38-4.176c0.936,0,1.68,0.204,2.028,0.372l-0.264,0.852c-0.432-0.204-0.972-0.348-1.788-0.348
				c-1.968,0-3.252,1.224-3.252,3.252c0,2.052,1.224,3.264,3.12,3.264c0.684,0,1.152-0.096,1.392-0.216v-2.412H3.984v-0.84h2.664
				V58.471z"/>
			<path d="M10.74,54.595c0-0.612-0.024-1.092-0.048-1.572h0.924l0.048,0.936H11.7c0.324-0.552,0.864-1.068,1.836-1.068
				c0.78,0,1.38,0.48,1.632,1.164h0.024c0.18-0.336,0.42-0.576,0.66-0.756c0.348-0.264,0.72-0.408,1.272-0.408
				c0.78,0,1.92,0.504,1.92,2.52v3.42h-1.032v-3.288c0-1.128-0.42-1.788-1.26-1.788c-0.612,0-1.068,0.444-1.26,0.948
				c-0.048,0.156-0.084,0.348-0.084,0.528v3.6h-1.032v-3.48c0-0.936-0.408-1.596-1.212-1.596c-0.648,0-1.14,0.528-1.308,1.056
				c-0.06,0.156-0.084,0.336-0.084,0.516v3.504H10.74V54.595z"/>
			<path d="M24.84,57.439c0,0.504,0.024,0.996,0.084,1.392h-0.948l-0.096-0.732h-0.036c-0.312,0.456-0.948,0.864-1.776,0.864
				c-1.176,0-1.776-0.828-1.776-1.668c0-1.404,1.248-2.172,3.492-2.16v-0.12c0-0.48-0.132-1.356-1.32-1.344
				c-0.552,0-1.116,0.156-1.524,0.432l-0.24-0.708c0.48-0.3,1.188-0.504,1.92-0.504c1.788,0,2.22,1.212,2.22,2.376V57.439z
				 M23.808,55.867c-1.152-0.024-2.46,0.18-2.46,1.308c0,0.696,0.456,1.008,0.984,1.008c0.768,0,1.26-0.48,1.428-0.972
				c0.036-0.108,0.048-0.228,0.048-0.336V55.867z"/>
			<path d="M25.104,60.535c0.492-0.036,0.9-0.168,1.152-0.444c0.288-0.324,0.408-0.792,0.408-2.184v-4.884h1.056v5.292
				c0,1.128-0.18,1.86-0.696,2.388c-0.468,0.468-1.236,0.66-1.8,0.66L25.104,60.535z M27.167,51.955c-0.396,0-0.66-0.312-0.66-0.684
				s0.276-0.672,0.684-0.672c0.408,0,0.672,0.3,0.672,0.672s-0.252,0.684-0.684,0.684H27.167z"/>
			<path d="M31.812,58.963c-1.56,0-2.784-1.152-2.784-2.988c0-1.944,1.284-3.084,2.88-3.084c1.668,0,2.796,1.212,2.796,2.976
				c0,2.16-1.5,3.096-2.88,3.096H31.812z M31.848,58.171c1.008,0,1.764-0.948,1.764-2.268c0-0.984-0.492-2.22-1.74-2.22
				c-1.236,0-1.776,1.152-1.776,2.256c0,1.272,0.72,2.232,1.74,2.232H31.848z"/>
			<path d="M36.047,54.835c0-0.684-0.012-1.272-0.048-1.812h0.924l0.048,1.14h0.036c0.264-0.78,0.912-1.272,1.62-1.272
				c0.108,0,0.192,0.012,0.288,0.036v0.984c-0.12-0.012-0.228-0.024-0.372-0.024c-0.744,0-1.272,0.564-1.416,1.344
				c-0.024,0.156-0.036,0.324-0.036,0.504v3.096h-1.056L36.047,54.835z"/>
		</g>
		<g>
			<path d="M103.782,15.125c-0.564,0.192-1.632,0.456-2.7,0.456c-1.476,0-2.544-0.372-3.288-1.08
				c-0.732-0.708-1.14-1.764-1.14-2.952c0.012-2.688,1.968-4.224,4.62-4.224c1.044,0,1.848,0.204,2.244,0.384l-0.384,1.476
				c-0.444-0.204-0.984-0.348-1.872-0.348c-1.524,0-2.688,0.864-2.688,2.616c0,1.68,1.056,2.652,2.556,2.652
				c0.408,0,0.744-0.048,0.888-0.108v-1.704h-1.248v-1.428h3.012V15.125z"/>
			<path d="M128.898,13.421l-0.564,2.076h-1.896l2.472-8.088h2.388l2.52,8.088h-1.968l-0.624-2.076H128.898z M130.95,12.054
				l-0.504-1.716c-0.132-0.48-0.276-1.092-0.396-1.56h-0.036c-0.108,0.48-0.24,1.092-0.36,1.56l-0.492,1.716H130.95z"/>
			<path d="M134.766,11.501c0-0.732-0.024-1.344-0.048-1.872h1.548l0.072,0.804h0.036c0.252-0.384,0.78-0.936,1.776-0.936
				c0.768,0,1.356,0.396,1.608,1.008h0.024c0.228-0.312,0.48-0.552,0.768-0.72c0.324-0.18,0.684-0.288,1.116-0.288
				c1.128,0,1.98,0.792,1.98,2.544v3.456h-1.776v-3.18c0-0.852-0.276-1.344-0.864-1.344c-0.432,0-0.72,0.288-0.852,0.636
				c-0.036,0.132-0.06,0.312-0.06,0.456v3.432h-1.776v-3.288c0-0.732-0.264-1.236-0.852-1.236c-0.468,0-0.744,0.36-0.852,0.648
				c-0.06,0.144-0.072,0.312-0.072,0.468v3.408h-1.776V11.501z"/>
			<path d="M154.841,7.529c0.48-0.096,1.44-0.18,2.364-0.18c1.116,0,1.8,0.108,2.388,0.456c0.564,0.3,0.96,0.852,0.96,1.596
				c0,0.708-0.42,1.368-1.32,1.716v0.024c0.924,0.24,1.608,0.948,1.608,1.992c0,0.744-0.336,1.32-0.84,1.716
				c-0.588,0.468-1.572,0.732-3.18,0.732c-0.9,0-1.572-0.06-1.98-0.12V7.529z M156.653,10.613h0.6c0.972,0,1.476-0.396,1.476-0.996
				c0-0.612-0.468-0.936-1.296-0.936c-0.408,0-0.636,0.024-0.78,0.06V10.613z M156.653,14.202c0.18,0.036,0.396,0.036,0.708,0.036
				c0.828,0,1.56-0.324,1.56-1.176c0-0.816-0.732-1.14-1.644-1.14h-0.624V14.202z"/>
			<path d="M162.029,11.501c0-0.732-0.024-1.344-0.048-1.872h1.548l0.072,0.804h0.036c0.252-0.384,0.78-0.936,1.776-0.936
				c0.768,0,1.356,0.396,1.608,1.008h0.024c0.228-0.312,0.48-0.552,0.768-0.72c0.324-0.18,0.684-0.288,1.116-0.288
				c1.128,0,1.98,0.792,1.98,2.544v3.456h-1.776v-3.18c0-0.852-0.276-1.344-0.864-1.344c-0.432,0-0.72,0.288-0.852,0.636
				c-0.036,0.132-0.06,0.312-0.06,0.456v3.432h-1.776v-3.288c0-0.732-0.264-1.236-0.852-1.236c-0.468,0-0.744,0.36-0.852,0.648
				c-0.06,0.144-0.072,0.312-0.072,0.468v3.408h-1.776V11.501z"/>
			<path d="M197.729,15.282c-0.324,0.156-1.092,0.348-2.064,0.348c-2.796,0-4.236-1.752-4.236-4.068c0-2.76,1.968-4.284,4.416-4.284
				c0.948,0,1.668,0.192,1.992,0.36l-0.384,1.44c-0.36-0.156-0.876-0.3-1.536-0.3c-1.44,0-2.568,0.876-2.568,2.688
				c0,1.62,0.96,2.64,2.58,2.64c0.564,0,1.164-0.108,1.536-0.264L197.729,15.282z"/>
			<path d="M219.57,7.529c0.672-0.12,1.548-0.18,2.46-0.18c1.548,0,2.556,0.252,3.324,0.84c0.84,0.624,1.368,1.632,1.368,3.072
				c0,1.548-0.564,2.616-1.332,3.276c-0.852,0.708-2.16,1.044-3.744,1.044c-0.948,0-1.632-0.06-2.076-0.12V7.529z M221.394,14.118
				c0.156,0.036,0.42,0.036,0.636,0.036c1.668,0.012,2.76-0.9,2.76-2.832c0-1.74-0.984-2.568-2.568-2.568
				c-0.396,0-0.672,0.036-0.828,0.072V14.118z"/>
			<path d="M250.687,12.078h-2.976v1.92h3.324v1.5h-5.148V7.41h4.98v1.5h-3.156v1.68h2.976V12.078z"/>
			<path d="M252.246,11.501c0-0.732-0.024-1.344-0.048-1.872h1.548l0.072,0.804h0.036c0.252-0.384,0.78-0.936,1.776-0.936
				c0.768,0,1.356,0.396,1.608,1.008h0.024c0.228-0.312,0.48-0.552,0.768-0.72c0.324-0.18,0.684-0.288,1.116-0.288
				c1.128,0,1.98,0.792,1.98,2.544v3.456h-1.776v-3.18c0-0.852-0.276-1.344-0.864-1.344c-0.432,0-0.72,0.288-0.852,0.636
				c-0.036,0.132-0.06,0.312-0.06,0.456v3.432h-1.776v-3.288c0-0.732-0.264-1.236-0.852-1.236c-0.468,0-0.744,0.36-0.852,0.648
				c-0.06,0.144-0.072,0.312-0.072,0.468v3.408h-1.776V11.501z"/>
			<path d="M277.039,7.41h4.932v1.5h-3.108v1.848h2.904v1.488h-2.904v3.252h-1.824V7.41z"/>
			<path d="M298.674,6.978v6.768c0,0.672,0.024,1.356,0.048,1.752h-1.619l-0.072-0.852h-0.036c-0.36,0.648-1.08,0.984-1.836,0.984
				c-1.393,0-2.508-1.188-2.508-3.012c-0.013-1.968,1.224-3.12,2.628-3.12c0.731,0,1.284,0.264,1.548,0.66h0.024v-3.18H298.674z
				 M296.851,12.125c0-0.108,0-0.228-0.024-0.336c-0.108-0.492-0.504-0.888-1.068-0.888c-0.84,0-1.26,0.744-1.26,1.668
				c0,0.984,0.492,1.608,1.248,1.608c0.528,0,0.96-0.36,1.068-0.876c0.023-0.12,0.036-0.264,0.036-0.408V12.125z"/>
			<path d="M301.038,8.861c-0.612,0-1.008-0.432-1.008-0.972c0-0.552,0.408-0.972,1.032-0.972c0.623,0,1.008,0.42,1.02,0.972
				c0,0.54-0.396,0.972-1.032,0.972H301.038z M300.138,15.498V9.629h1.824v5.868H300.138z"/>
			<path d="M303.426,11.501c0-0.732-0.024-1.344-0.048-1.872h1.548l0.072,0.804h0.036c0.252-0.384,0.779-0.936,1.775-0.936
				c0.769,0,1.356,0.396,1.608,1.008h0.023c0.229-0.312,0.48-0.552,0.769-0.72c0.324-0.18,0.684-0.288,1.116-0.288
				c1.128,0,1.979,0.792,1.979,2.544v3.456h-1.775v-3.18c0-0.852-0.276-1.344-0.864-1.344c-0.432,0-0.72,0.288-0.853,0.636
				c-0.035,0.132-0.06,0.312-0.06,0.456v3.432h-1.776v-3.288c0-0.732-0.264-1.236-0.852-1.236c-0.468,0-0.744,0.36-0.853,0.648
				c-0.06,0.144-0.071,0.312-0.071,0.468v3.408h-1.776V11.501z"/>
		</g>
		<g>
			<path d="M104.258,88.498v0.125c-0.223,0.012-0.403,0.043-0.542,0.094s-0.263,0.133-0.372,0.247
				c-0.152,0.157-0.246,0.375-0.281,0.652c-0.023,0.208-0.035,0.447-0.035,0.717v4.331c0,0.325,0.016,0.582,0.047,0.77
				s0.082,0.339,0.152,0.452c0.102,0.157,0.232,0.273,0.393,0.35c0.16,0.077,0.373,0.123,0.639,0.138v0.125h-3.742v-0.125
				c0.227-0.012,0.409-0.044,0.548-0.097c0.139-0.053,0.261-0.134,0.366-0.244c0.125-0.125,0.209-0.284,0.252-0.476
				c0.043-0.191,0.064-0.489,0.064-0.893v-4.331c0-0.403-0.021-0.701-0.064-0.893s-0.127-0.351-0.252-0.476
				c-0.105-0.114-0.229-0.196-0.369-0.247s-0.322-0.083-0.545-0.094v-0.125H104.258z"/>
			<path d="M131.764,91.654l1.688-0.219v3.37l0.006,0.443c0,0.264,0.016,0.458,0.047,0.58s0.092,0.224,0.182,0.306
				c0.109,0.104,0.311,0.185,0.604,0.239v0.125h-2.596v-0.125c0.234-0.031,0.402-0.075,0.504-0.13
				c0.102-0.057,0.184-0.152,0.246-0.288c0.043-0.089,0.073-0.223,0.091-0.403c0.018-0.18,0.026-0.44,0.026-0.781v-1.435
				c0-0.398-0.01-0.678-0.029-0.839s-0.062-0.291-0.128-0.392c-0.065-0.108-0.146-0.187-0.238-0.235
				c-0.093-0.049-0.227-0.079-0.401-0.09V91.654z M132.982,89.326c-0.153,0-0.28-0.049-0.381-0.146s-0.15-0.221-0.15-0.369
				c0-0.145,0.051-0.267,0.153-0.366s0.229-0.149,0.378-0.149s0.275,0.05,0.378,0.149c0.102,0.1,0.153,0.222,0.153,0.366
				c0,0.148-0.05,0.271-0.15,0.369C133.263,89.277,133.136,89.326,132.982,89.326z"/>
			<path d="M134.67,91.654l1.688-0.219v3.37l0.006,0.443c0,0.264,0.016,0.458,0.047,0.58s0.092,0.224,0.182,0.306
				c0.109,0.104,0.311,0.185,0.604,0.239v0.125H134.6v-0.125c0.234-0.031,0.402-0.075,0.504-0.13
				c0.102-0.057,0.184-0.152,0.246-0.288c0.043-0.089,0.073-0.223,0.091-0.403c0.018-0.18,0.026-0.44,0.026-0.781v-1.435
				c0-0.398-0.01-0.678-0.029-0.839s-0.062-0.291-0.128-0.392c-0.065-0.108-0.146-0.187-0.238-0.235
				c-0.093-0.049-0.227-0.079-0.401-0.09V91.654z M135.889,89.326c-0.153,0-0.28-0.049-0.381-0.146s-0.15-0.221-0.15-0.369
				c0-0.145,0.051-0.267,0.153-0.366s0.229-0.149,0.378-0.149s0.275,0.05,0.378,0.149c0.102,0.1,0.153,0.222,0.153,0.366
				c0,0.148-0.05,0.271-0.15,0.369C136.169,89.277,136.042,89.326,135.889,89.326z"/>
			<path d="M161.576,91.654l1.688-0.219v3.37l0.006,0.443c0,0.264,0.016,0.458,0.047,0.58s0.092,0.224,0.182,0.306
				c0.109,0.104,0.311,0.185,0.604,0.239v0.125h-2.596v-0.125c0.234-0.031,0.402-0.075,0.504-0.13
				c0.102-0.057,0.184-0.152,0.246-0.288c0.043-0.089,0.073-0.223,0.091-0.403c0.018-0.18,0.026-0.44,0.026-0.781v-1.435
				c0-0.398-0.01-0.678-0.029-0.839s-0.062-0.291-0.128-0.392c-0.065-0.108-0.146-0.187-0.238-0.235
				c-0.093-0.049-0.227-0.079-0.401-0.09V91.654z M162.795,89.326c-0.153,0-0.28-0.049-0.381-0.146s-0.15-0.221-0.15-0.369
				c0-0.145,0.051-0.267,0.153-0.366s0.229-0.149,0.378-0.149s0.275,0.05,0.378,0.149c0.102,0.1,0.153,0.222,0.153,0.366
				c0,0.148-0.05,0.271-0.15,0.369C163.075,89.277,162.948,89.326,162.795,89.326z"/>
			<path d="M164.482,91.654l1.688-0.219v3.37l0.006,0.443c0,0.264,0.016,0.458,0.047,0.58s0.092,0.224,0.182,0.306
				c0.109,0.104,0.311,0.185,0.604,0.239v0.125h-2.596v-0.125c0.234-0.031,0.402-0.075,0.504-0.13
				c0.102-0.057,0.184-0.152,0.246-0.288c0.043-0.089,0.073-0.223,0.091-0.403c0.018-0.18,0.026-0.44,0.026-0.781v-1.435
				c0-0.398-0.01-0.678-0.029-0.839s-0.062-0.291-0.128-0.392c-0.065-0.108-0.146-0.187-0.238-0.235
				c-0.093-0.049-0.227-0.079-0.401-0.09V91.654z M165.701,89.326c-0.153,0-0.28-0.049-0.381-0.146s-0.15-0.221-0.15-0.369
				c0-0.145,0.051-0.267,0.153-0.366s0.229-0.149,0.378-0.149s0.275,0.05,0.378,0.149c0.102,0.1,0.153,0.222,0.153,0.366
				c0,0.148-0.05,0.271-0.15,0.369C165.981,89.277,165.854,89.326,165.701,89.326z"/>
			<path d="M167.389,91.654l1.688-0.219v3.37l0.006,0.443c0,0.264,0.016,0.458,0.047,0.58s0.092,0.224,0.182,0.306
				c0.109,0.104,0.311,0.185,0.604,0.239v0.125h-2.596v-0.125c0.234-0.031,0.402-0.075,0.504-0.13
				c0.102-0.057,0.184-0.152,0.246-0.288c0.043-0.089,0.073-0.223,0.091-0.403c0.018-0.18,0.026-0.44,0.026-0.781v-1.435
				c0-0.398-0.01-0.678-0.029-0.839s-0.062-0.291-0.128-0.392c-0.065-0.108-0.146-0.187-0.238-0.235
				c-0.093-0.049-0.227-0.079-0.401-0.09V91.654z M168.607,89.326c-0.153,0-0.28-0.049-0.381-0.146s-0.15-0.221-0.15-0.369
				c0-0.145,0.051-0.267,0.153-0.366s0.229-0.149,0.378-0.149s0.275,0.05,0.378,0.149c0.102,0.1,0.153,0.222,0.153,0.366
				c0,0.148-0.05,0.271-0.15,0.369C168.888,89.277,168.761,89.326,168.607,89.326z"/>
			<path d="M191.258,88.498v0.125c-0.223,0.012-0.403,0.043-0.542,0.094s-0.263,0.133-0.372,0.247
				c-0.152,0.157-0.246,0.375-0.281,0.652c-0.023,0.208-0.035,0.447-0.035,0.717v4.331c0,0.325,0.016,0.582,0.047,0.77
				s0.082,0.339,0.152,0.452c0.102,0.157,0.232,0.273,0.393,0.35c0.16,0.077,0.373,0.123,0.639,0.138v0.125h-3.742v-0.125
				c0.227-0.012,0.409-0.044,0.548-0.097c0.139-0.053,0.261-0.134,0.366-0.244c0.125-0.125,0.209-0.284,0.252-0.476
				c0.043-0.191,0.064-0.489,0.064-0.893v-4.331c0-0.403-0.021-0.701-0.064-0.893s-0.127-0.351-0.252-0.476
				c-0.105-0.114-0.229-0.196-0.369-0.247s-0.322-0.083-0.545-0.094v-0.125H191.258z"/>
			<path d="M191.35,88.498h3.848v0.125c-0.293,0.028-0.504,0.073-0.633,0.136c-0.121,0.059-0.219,0.15-0.292,0.274
				c-0.074,0.124-0.111,0.259-0.111,0.404c0,0.102,0.01,0.192,0.029,0.271c0.02,0.078,0.078,0.25,0.175,0.513l1.765,4.716
				l1.688-4.136c0.234-0.585,0.352-1.011,0.352-1.277c0-0.149-0.023-0.289-0.07-0.418s-0.109-0.229-0.188-0.3
				c-0.078-0.067-0.165-0.114-0.259-0.141c-0.095-0.027-0.217-0.042-0.366-0.042v-0.125h2.609v0.125
				c-0.215,0.02-0.402,0.073-0.561,0.159c-0.158,0.086-0.31,0.218-0.454,0.394c-0.098,0.126-0.201,0.298-0.308,0.516
				c-0.108,0.218-0.255,0.555-0.443,1.01l-2.406,5.796h-0.25l-2.344-5.99c-0.304-0.789-0.547-1.29-0.73-1.502
				c-0.117-0.134-0.26-0.231-0.429-0.292c-0.17-0.061-0.377-0.091-0.622-0.091V88.498z"/>
			<path d="M220.031,88.498h3.848v0.125c-0.293,0.028-0.504,0.073-0.633,0.136c-0.121,0.059-0.219,0.15-0.292,0.274
				c-0.074,0.124-0.111,0.259-0.111,0.404c0,0.102,0.01,0.192,0.029,0.271c0.02,0.078,0.078,0.25,0.175,0.513l1.765,4.716
				l1.688-4.136c0.234-0.585,0.352-1.011,0.352-1.277c0-0.149-0.023-0.289-0.07-0.418s-0.109-0.229-0.188-0.3
				c-0.078-0.067-0.165-0.114-0.259-0.141c-0.095-0.027-0.217-0.042-0.366-0.042v-0.125h2.609v0.125
				c-0.215,0.02-0.402,0.073-0.561,0.159c-0.158,0.086-0.31,0.218-0.454,0.394c-0.098,0.126-0.201,0.298-0.308,0.516
				c-0.108,0.218-0.255,0.555-0.443,1.01l-2.406,5.796h-0.25l-2.344-5.99c-0.304-0.789-0.547-1.29-0.73-1.502
				c-0.117-0.134-0.26-0.231-0.429-0.292c-0.17-0.061-0.377-0.091-0.622-0.091V88.498z"/>
			<path d="M247.141,91.513h2.297v0.125c-0.174,0.035-0.293,0.074-0.356,0.117c-0.127,0.078-0.19,0.204-0.19,0.375
				c0,0.105,0.02,0.229,0.058,0.369c0.039,0.141,0.11,0.346,0.215,0.615l0.938,2.409l0.954-2.509
				c0.141-0.371,0.211-0.646,0.211-0.826c0-0.195-0.061-0.338-0.183-0.428c-0.063-0.047-0.179-0.088-0.348-0.123v-0.125h1.625v0.125
				c-0.221,0.055-0.397,0.152-0.531,0.293c-0.168,0.176-0.361,0.545-0.58,1.108l-1.353,3.458h-0.316l-1.47-3.634
				c-0.229-0.559-0.392-0.896-0.49-1.014c-0.055-0.063-0.116-0.108-0.184-0.138c-0.066-0.029-0.165-0.054-0.295-0.073V91.513z"/>
			<path d="M252.414,91.654l1.688-0.219v3.37l0.006,0.443c0,0.264,0.016,0.458,0.047,0.58s0.092,0.224,0.182,0.306
				c0.109,0.104,0.311,0.185,0.604,0.239v0.125h-2.596v-0.125c0.234-0.031,0.402-0.075,0.504-0.13
				c0.102-0.057,0.184-0.152,0.246-0.288c0.043-0.089,0.073-0.223,0.091-0.403c0.018-0.18,0.026-0.44,0.026-0.781v-1.435
				c0-0.398-0.01-0.678-0.029-0.839s-0.062-0.291-0.128-0.392c-0.065-0.108-0.146-0.187-0.238-0.235
				c-0.093-0.049-0.227-0.079-0.401-0.09V91.654z M253.633,89.326c-0.153,0-0.28-0.049-0.381-0.146s-0.15-0.221-0.15-0.369
				c0-0.145,0.051-0.267,0.153-0.366s0.229-0.149,0.378-0.149s0.275,0.05,0.378,0.149c0.102,0.1,0.153,0.222,0.153,0.366
				c0,0.148-0.05,0.271-0.15,0.369C253.913,89.277,253.786,89.326,253.633,89.326z"/>
			<path d="M279.016,91.513h2.297v0.125c-0.174,0.035-0.293,0.074-0.356,0.117c-0.127,0.078-0.19,0.204-0.19,0.375
				c0,0.105,0.02,0.229,0.058,0.369c0.039,0.141,0.11,0.346,0.215,0.615l0.938,2.409l0.954-2.509
				c0.141-0.371,0.211-0.646,0.211-0.826c0-0.195-0.061-0.338-0.183-0.428c-0.063-0.047-0.179-0.088-0.348-0.123v-0.125h1.625v0.125
				c-0.221,0.055-0.397,0.152-0.531,0.293c-0.168,0.176-0.361,0.545-0.58,1.108l-1.353,3.458h-0.316l-1.47-3.634
				c-0.229-0.559-0.392-0.896-0.49-1.014c-0.055-0.063-0.116-0.108-0.184-0.138c-0.066-0.029-0.165-0.054-0.295-0.073V91.513z"/>
			<path d="M284.289,91.654l1.688-0.219v3.37l0.006,0.443c0,0.264,0.016,0.458,0.047,0.58s0.092,0.224,0.182,0.306
				c0.109,0.104,0.311,0.185,0.604,0.239v0.125h-2.596v-0.125c0.234-0.031,0.402-0.075,0.504-0.13
				c0.102-0.057,0.184-0.152,0.246-0.288c0.043-0.089,0.073-0.223,0.091-0.403c0.018-0.18,0.026-0.44,0.026-0.781v-1.435
				c0-0.398-0.01-0.678-0.029-0.839s-0.062-0.291-0.128-0.392c-0.065-0.108-0.146-0.187-0.238-0.235
				c-0.093-0.049-0.227-0.079-0.401-0.09V91.654z M285.508,89.326c-0.153,0-0.28-0.049-0.381-0.146s-0.15-0.221-0.15-0.369
				c0-0.145,0.051-0.267,0.153-0.366s0.229-0.149,0.378-0.149s0.275,0.05,0.378,0.149c0.102,0.1,0.153,0.222,0.153,0.366
				c0,0.148-0.05,0.271-0.15,0.369C285.788,89.277,285.661,89.326,285.508,89.326z"/>
			<path d="M287.195,91.654l1.688-0.219v3.37l0.006,0.443c0,0.264,0.016,0.458,0.047,0.58s0.092,0.224,0.182,0.306
				c0.109,0.104,0.311,0.185,0.604,0.239v0.125h-2.596v-0.125c0.234-0.031,0.402-0.075,0.504-0.13
				c0.102-0.057,0.184-0.152,0.246-0.288c0.043-0.089,0.073-0.223,0.091-0.403c0.018-0.18,0.026-0.44,0.026-0.781v-1.435
				c0-0.398-0.01-0.678-0.029-0.839s-0.062-0.291-0.128-0.392c-0.065-0.108-0.146-0.187-0.238-0.235
				c-0.093-0.049-0.227-0.079-0.401-0.09V91.654z M288.414,89.326c-0.153,0-0.28-0.049-0.381-0.146s-0.15-0.221-0.15-0.369
				c0-0.145,0.051-0.267,0.153-0.366s0.229-0.149,0.378-0.149s0.275,0.05,0.378,0.149c0.102,0.1,0.153,0.222,0.153,0.366
				c0,0.148-0.05,0.271-0.15,0.369C288.694,89.277,288.567,89.326,288.414,89.326z"/>
		</g>
		<g>
			<path fill="none" stroke="#000000" d="M47.661,156.457h277.558"/>
			<path fill="none" stroke="#000000" d="M47.661,170.568h277.558"/>
			<path fill="none" stroke="#000000" d="M47.799,177.691h277.559"/>
			<path fill="none" stroke="#000000" d="M47.586,185.074h277.556"/>
			<path fill="none" stroke="#000000" d="M47.586,163.71h277.556"/>
		</g>
		<g>
			<path d="M61.738,183.979c-4.944-2.352-5.736-5.376-5.952-8.472c-0.24-3.36,1.896-6.768,3.888-8.664
				c1.152-1.08,2.4-2.136,3.888-3.264c-0.048-0.84-0.24-1.176-0.336-2.376c-0.024-0.504-0.336-2.856,0.168-5.568
				c0.312-1.608,2.328-5.4,3.72-5.424c1.08-0.024,2.736,4.296,2.784,6.456c0.072,3.336-0.72,4.848-1.704,6.576
				c-0.504,0.864-1.032,1.464-1.584,2.136c-0.576,0.696-1.224,1.104-1.824,1.632c0,0,0.768,4.344,0.792,4.656
				c1.536-0.192,3.408,0.36,4.08,0.84c1.704,1.272,2.352,3.024,2.472,4.728c0.216,2.712-1.272,5.568-4.56,6.936
				c0,0,0.504,3.456,0.624,4.176c0.264,1.896,0.216,3.096-0.192,3.864c-0.696,1.296-1.824,2.496-4.008,2.64
				c-1.68,0.096-4.992-0.744-5.16-3.384c-0.096-1.56,0.6-3.24,2.496-3.36c1.152-0.096,2.52,0.864,2.616,2.232
				c0.096,1.176-0.672,2.4-2.664,2.952c0.312,0.432,1.248,0.936,2.592,0.936c1.392,0,2.832-0.936,3.528-2.184
				c0.432-0.816,0.384-2.28,0.216-3.624c-0.072-0.456-0.648-4.08-0.648-4.08C65.194,184.626,62.746,184.458,61.738,183.979z
				 M62.218,178.291c0.048,1.152,1.008,2.496,1.896,2.952c-0.12,0.072-0.24,0.264-0.24,0.264c-0.984-0.48-1.824-1.272-2.04-1.56
				c-0.696-0.936-0.984-1.464-1.08-2.88c-0.096-1.32,0.624-3.096,2.232-4.344c0.84-0.624,1.248-0.768,1.968-0.936l-0.72-4.344
				c-0.744,0.432-3.816,2.904-5.112,4.92c-1.152,1.8-1.848,3.24-1.704,5.016c0.288,4.008,4.68,7.296,9.432,6.168
				c0,0-1.416-8.52-1.392-8.52C62.842,175.123,62.146,177.139,62.218,178.291z M64.162,163.074c2.088-1.632,4.92-4.704,4.752-7.08
				c-0.048-0.744-0.36-2.088-1.44-2.064C65.002,153.954,63.61,159.114,64.162,163.074z M67.426,183.354
				c2.76-0.936,2.88-3.312,2.784-4.728c-0.096-1.176-0.624-3.816-4.128-3.648L67.426,183.354z"/>
		</g>
		<g>
			<path d="M137.49,189.075c2.664,0.024,5.184,1.032,5.376,3.264c0.144,1.632-2.016,3.12-4.68,3.12
				c-2.688-0.024-5.184-1.008-5.4-3.24C132.642,190.563,134.826,189.075,137.49,189.075z M138.138,194.907
				c1.152,0,1.896-1.104,1.776-1.992c-0.264-1.752-0.864-3.168-2.448-3.168c-1.152,0-1.824,1.128-1.68,2.016
				C136.05,193.515,136.554,194.907,138.138,194.907z"/>
		</g>
		<g>
			<path d="M137.49,182.075c2.664,0.024,5.184,1.032,5.376,3.264c0.144,1.632-2.016,3.12-4.68,3.12
				c-2.688-0.024-5.184-1.008-5.4-3.24C132.642,183.563,134.826,182.075,137.49,182.075z M138.138,187.907
				c1.152,0,1.896-1.104,1.776-1.992c-0.264-1.752-0.864-3.168-2.448-3.168c-1.152,0-1.824,1.128-1.68,2.016
				C136.05,186.515,136.554,187.907,138.138,187.907z"/>
		</g>
		<g>
			<path d="M137.49,175.075c2.664,0.024,5.184,1.032,5.376,3.264c0.144,1.632-2.016,3.12-4.68,3.12
				c-2.688-0.024-5.184-1.008-5.4-3.24C132.642,176.563,134.826,175.075,137.49,175.075z M138.138,180.907
				c1.152,0,1.896-1.104,1.776-1.992c-0.264-1.752-0.864-3.168-2.448-3.168c-1.152,0-1.824,1.128-1.68,2.016
				C136.05,179.515,136.554,180.907,138.138,180.907z"/>
		</g>
		<g>
			<path d="M166.49,186.075c2.664,0.024,5.184,1.032,5.376,3.264c0.144,1.632-2.016,3.12-4.68,3.12
				c-2.688-0.024-5.184-1.008-5.4-3.24C161.642,187.563,163.826,186.075,166.49,186.075z M167.138,191.907
				c1.152,0,1.896-1.104,1.776-1.992c-0.264-1.752-0.864-3.168-2.448-3.168c-1.152,0-1.824,1.128-1.68,2.016
				C165.05,190.515,165.554,191.907,167.138,191.907z"/>
		</g>
		<g>
			<path d="M166.49,171.075c2.664,0.024,5.184,1.032,5.376,3.264c0.144,1.632-2.016,3.12-4.68,3.12
				c-2.688-0.024-5.184-1.008-5.4-3.24C161.642,172.563,163.826,171.075,166.49,171.075z M167.138,176.907
				c1.152,0,1.896-1.104,1.776-1.992c-0.264-1.752-0.864-3.168-2.448-3.168c-1.152,0-1.824,1.128-1.68,2.016
				C165.05,175.515,165.554,176.907,167.138,176.907z"/>
		</g>
		<g>
			<path d="M195.49,182.075c2.664,0.024,5.184,1.032,5.376,3.264c0.144,1.632-2.016,3.12-4.68,3.12
				c-2.688-0.024-5.184-1.008-5.4-3.24C190.642,183.563,192.826,182.075,195.49,182.075z M196.138,187.907
				c1.152,0,1.896-1.104,1.776-1.992c-0.264-1.752-0.864-3.168-2.448-3.168c-1.152,0-1.824,1.128-1.68,2.016
				C194.05,186.515,194.554,187.907,196.138,187.907z"/>
		</g>
		<g>
			<path d="M195.49,175.075c2.664,0.024,5.184,1.032,5.376,3.264c0.144,1.632-2.016,3.12-4.68,3.12
				c-2.688-0.024-5.184-1.008-5.4-3.24C190.642,176.563,192.826,175.075,195.49,175.075z M196.138,180.907
				c1.152,0,1.896-1.104,1.776-1.992c-0.264-1.752-0.864-3.168-2.448-3.168c-1.152,0-1.824,1.128-1.68,2.016
				C194.05,179.515,194.554,180.907,196.138,180.907z"/>
		</g>
		<g>
			<path d="M195.49,168.075c2.664,0.024,5.184,1.032,5.376,3.264c0.144,1.632-2.016,3.12-4.68,3.12
				c-2.688-0.024-5.184-1.008-5.4-3.24C190.642,169.563,192.826,168.075,195.49,168.075z M196.138,173.907
				c1.152,0,1.896-1.104,1.776-1.992c-0.264-1.752-0.864-3.168-2.448-3.168c-1.152,0-1.824,1.128-1.68,2.016
				C194.05,172.515,194.554,173.907,196.138,173.907z"/>
		</g>
		<g>
			<path d="M224.491,178.075c2.664,0.024,5.184,1.032,5.376,3.264c0.144,1.632-2.016,3.12-4.68,3.12
				c-2.688-0.024-5.184-1.008-5.4-3.24C219.643,179.563,221.827,178.075,224.491,178.075z M225.139,183.907
				c1.152,0,1.896-1.104,1.776-1.992c-0.264-1.752-0.864-3.168-2.448-3.168c-1.152,0-1.824,1.128-1.68,2.016
				C223.051,182.515,223.555,183.907,225.139,183.907z"/>
		</g>
		<g>
			<path d="M224.491,171.075c2.664,0.024,5.184,1.032,5.376,3.264c0.144,1.632-2.016,3.12-4.68,3.12
				c-2.688-0.024-5.184-1.008-5.4-3.24C219.643,172.563,221.827,171.075,224.491,171.075z M225.139,176.907
				c1.152,0,1.896-1.104,1.776-1.992c-0.264-1.752-0.864-3.168-2.448-3.168c-1.152,0-1.824,1.128-1.68,2.016
				C223.051,175.515,223.555,176.907,225.139,176.907z"/>
		</g>
		<g>
			<path d="M224.491,164.075c2.664,0.024,5.184,1.032,5.376,3.264c0.144,1.632-2.016,3.12-4.68,3.12
				c-2.688-0.024-5.184-1.008-5.4-3.24C219.643,165.563,221.827,164.075,224.491,164.075z M225.139,169.907
				c1.152,0,1.896-1.104,1.776-1.992c-0.264-1.752-0.864-3.168-2.448-3.168c-1.152,0-1.824,1.128-1.68,2.016
				C223.051,168.515,223.555,169.907,225.139,169.907z"/>
		</g>
		<g>
			<path d="M253.491,175.075c2.664,0.024,5.184,1.032,5.376,3.264c0.144,1.632-2.016,3.12-4.68,3.12
				c-2.688-0.024-5.184-1.008-5.4-3.24C248.643,176.563,250.827,175.075,253.491,175.075z M254.139,180.907
				c1.152,0,1.896-1.104,1.776-1.992c-0.264-1.752-0.864-3.168-2.448-3.168c-1.152,0-1.824,1.128-1.68,2.016
				C252.051,179.515,252.555,180.907,254.139,180.907z"/>
		</g>
		<g>
			<path d="M253.491,168.075c2.664,0.024,5.184,1.032,5.376,3.264c0.144,1.632-2.016,3.12-4.68,3.12
				c-2.688-0.024-5.184-1.008-5.4-3.24C248.643,169.563,250.827,168.075,253.491,168.075z M254.139,173.907
				c1.152,0,1.896-1.104,1.776-1.992c-0.264-1.752-0.864-3.168-2.448-3.168c-1.152,0-1.824,1.128-1.68,2.016
				C252.051,172.515,252.555,173.907,254.139,173.907z"/>
		</g>
		<g>
			<path d="M253.491,161.075c2.664,0.024,5.184,1.032,5.376,3.264c0.144,1.632-2.016,3.12-4.68,3.12
				c-2.688-0.024-5.184-1.008-5.4-3.24C248.643,162.563,250.827,161.075,253.491,161.075z M254.139,166.907
				c1.152,0,1.896-1.104,1.776-1.992c-0.264-1.752-0.864-3.168-2.448-3.168c-1.152,0-1.824,1.128-1.68,2.016
				C252.051,165.515,252.555,166.907,254.139,166.907z"/>
		</g>
		<g>
			<path d="M282.491,171.075c2.664,0.024,5.184,1.032,5.376,3.264c0.144,1.632-2.016,3.12-4.68,3.12
				c-2.688-0.024-5.184-1.008-5.4-3.24C277.643,172.563,279.827,171.075,282.491,171.075z M283.139,176.907
				c1.152,0,1.896-1.104,1.776-1.992c-0.264-1.752-0.864-3.168-2.448-3.168c-1.152,0-1.824,1.128-1.68,2.016
				C281.051,175.515,281.555,176.907,283.139,176.907z"/>
		</g>
		<g>
			<path d="M282.491,164.075c2.664,0.024,5.184,1.032,5.376,3.264c0.144,1.632-2.016,3.12-4.68,3.12
				c-2.688-0.024-5.184-1.008-5.4-3.24C277.643,165.563,279.827,164.075,282.491,164.075z M283.139,169.907
				c1.152,0,1.896-1.104,1.776-1.992c-0.264-1.752-0.864-3.168-2.448-3.168c-1.152,0-1.824,1.128-1.68,2.016
				C281.051,168.515,281.555,169.907,283.139,169.907z"/>
		</g>
		<g>
			<path d="M282.491,157.075c2.664,0.024,5.184,1.032,5.376,3.264c0.144,1.632-2.016,3.12-4.68,3.12
				c-2.688-0.024-5.184-1.008-5.4-3.24C277.643,158.563,279.827,157.075,282.491,157.075z M283.139,162.907
				c1.152,0,1.896-1.104,1.776-1.992c-0.264-1.752-0.864-3.168-2.448-3.168c-1.152,0-1.824,1.128-1.68,2.016
				C281.051,161.515,281.555,162.907,283.139,162.907z"/>
		</g>
		<g>
			<path d="M0.48,166.863c0.456-0.108,1.188-0.18,1.908-0.18c1.044,0,1.716,0.18,2.208,0.588c0.42,0.312,0.684,0.792,0.684,1.428
				c0,0.792-0.528,1.476-1.368,1.776v0.036c0.768,0.18,1.668,0.816,1.668,2.016c0,0.696-0.276,1.224-0.696,1.62
				c-0.552,0.516-1.464,0.756-2.784,0.756c-0.72,0-1.272-0.048-1.62-0.096V166.863z M1.524,170.175h0.948
				c1.092,0,1.74-0.588,1.74-1.368c0-0.936-0.708-1.32-1.764-1.32c-0.48,0-0.756,0.036-0.924,0.072V170.175z M1.524,174.04
				c0.216,0.036,0.504,0.048,0.876,0.048c1.08,0,2.076-0.396,2.076-1.572c0-1.092-0.948-1.56-2.088-1.56H1.524V174.04z"/>
			<path d="M14.58,170.596c0-0.612-0.024-1.092-0.048-1.572h0.924l0.048,0.936h0.036c0.324-0.552,0.864-1.068,1.836-1.068
				c0.78,0,1.38,0.48,1.632,1.164h0.024c0.18-0.336,0.42-0.576,0.66-0.756c0.348-0.264,0.72-0.408,1.272-0.408
				c0.78,0,1.92,0.504,1.92,2.52v3.42h-1.032v-3.288c0-1.128-0.42-1.788-1.26-1.788c-0.612,0-1.068,0.444-1.26,0.948
				c-0.048,0.156-0.084,0.348-0.084,0.528v3.6h-1.032v-3.48c0-0.936-0.408-1.596-1.212-1.596c-0.648,0-1.14,0.528-1.308,1.056
				c-0.06,0.156-0.084,0.336-0.084,0.516v3.504H14.58V170.596z"/>
			<path d="M28.68,173.439c0,0.504,0.024,0.996,0.084,1.392h-0.948l-0.096-0.732h-0.036c-0.312,0.456-0.948,0.864-1.776,0.864
				c-1.176,0-1.776-0.828-1.776-1.668c0-1.404,1.248-2.172,3.492-2.16v-0.12c0-0.48-0.132-1.356-1.32-1.344
				c-0.552,0-1.116,0.156-1.524,0.432l-0.24-0.708c0.48-0.3,1.188-0.504,1.92-0.504c1.788,0,2.22,1.212,2.22,2.376V173.439z
				 M27.647,171.868c-1.152-0.024-2.46,0.18-2.46,1.308c0,0.696,0.456,1.008,0.984,1.008c0.768,0,1.26-0.48,1.428-0.972
				c0.036-0.108,0.048-0.228,0.048-0.336V171.868z"/>
			<path d="M28.943,176.536c0.492-0.036,0.9-0.168,1.152-0.444c0.288-0.324,0.408-0.792,0.408-2.184v-4.884h1.056v5.292
				c0,1.128-0.18,1.86-0.696,2.388c-0.468,0.468-1.236,0.66-1.8,0.66L28.943,176.536z M31.007,167.956
				c-0.396,0-0.66-0.312-0.66-0.684s0.276-0.672,0.684-0.672c0.408,0,0.672,0.3,0.672,0.672s-0.252,0.684-0.684,0.684H31.007z"/>
			<path d="M35.651,174.963c-1.56,0-2.784-1.152-2.784-2.988c0-1.944,1.284-3.084,2.88-3.084c1.668,0,2.796,1.212,2.796,2.976
				c0,2.16-1.5,3.096-2.88,3.096H35.651z M35.688,174.171c1.008,0,1.764-0.948,1.764-2.268c0-0.984-0.492-2.22-1.74-2.22
				c-1.236,0-1.776,1.152-1.776,2.256c0,1.272,0.72,2.232,1.74,2.232H35.688z"/>
			<path d="M39.887,170.835c0-0.684-0.012-1.272-0.048-1.812h0.924l0.048,1.14h0.036c0.264-0.78,0.912-1.272,1.62-1.272
				c0.108,0,0.192,0.012,0.288,0.036v0.984c-0.12-0.012-0.228-0.024-0.372-0.024c-0.744,0-1.272,0.564-1.416,1.344
				c-0.024,0.156-0.036,0.324-0.036,0.504v3.096h-1.056L39.887,170.835z"/>
		</g>
		<g>
			<path d="M93.026,138.529c0.48-0.096,1.44-0.18,2.364-0.18c1.116,0,1.8,0.108,2.388,0.456c0.564,0.3,0.96,0.852,0.96,1.596
				c0,0.708-0.42,1.368-1.32,1.716v0.024c0.924,0.24,1.608,0.948,1.608,1.992c0,0.744-0.336,1.32-0.84,1.716
				c-0.588,0.468-1.572,0.732-3.18,0.732c-0.9,0-1.572-0.06-1.98-0.12V138.529z M94.838,141.613h0.6
				c0.972,0,1.476-0.396,1.476-0.996c0-0.612-0.468-0.936-1.296-0.936c-0.408,0-0.636,0.024-0.78,0.06V141.613z M94.838,145.202
				c0.18,0.036,0.396,0.036,0.708,0.036c0.828,0,1.56-0.324,1.56-1.176c0-0.816-0.732-1.14-1.644-1.14h-0.624V145.202z"/>
			<path d="M134.955,146.282c-0.324,0.156-1.092,0.348-2.064,0.348c-2.796,0-4.236-1.752-4.236-4.068
				c0-2.76,1.968-4.284,4.416-4.284c0.948,0,1.668,0.192,1.992,0.36l-0.384,1.44c-0.36-0.156-0.876-0.3-1.536-0.3
				c-1.44,0-2.568,0.876-2.568,2.688c0,1.62,0.96,2.64,2.58,2.64c0.564,0,1.164-0.108,1.536-0.264L134.955,146.282z"/>
			<path d="M136.106,142.501c0-0.732-0.024-1.344-0.048-1.872h1.548l0.072,0.804h0.036c0.252-0.384,0.78-0.936,1.776-0.936
				c0.768,0,1.356,0.396,1.608,1.008h0.024c0.228-0.312,0.48-0.552,0.768-0.72c0.324-0.18,0.684-0.288,1.116-0.288
				c1.128,0,1.98,0.792,1.98,2.544v3.456h-1.776v-3.18c0-0.852-0.276-1.344-0.864-1.344c-0.432,0-0.72,0.288-0.852,0.636
				c-0.036,0.132-0.06,0.312-0.06,0.456v3.432h-1.776v-3.288c0-0.732-0.264-1.236-0.852-1.236c-0.468,0-0.744,0.36-0.852,0.648
				c-0.06,0.144-0.072,0.312-0.072,0.468v3.408h-1.776V142.501z"/>
			<path d="M158.606,138.529c0.672-0.12,1.548-0.18,2.46-0.18c1.548,0,2.556,0.252,3.324,0.84c0.84,0.624,1.368,1.632,1.368,3.072
				c0,1.548-0.564,2.616-1.332,3.276c-0.852,0.708-2.16,1.044-3.744,1.044c-0.948,0-1.632-0.06-2.076-0.12V138.529z M160.43,145.118
				c0.156,0.036,0.42,0.036,0.636,0.036c1.668,0.012,2.76-0.9,2.76-2.832c0-1.74-0.984-2.568-2.568-2.568
				c-0.396,0-0.672,0.036-0.828,0.072V145.118z"/>
			<path d="M166.898,142.501c0-0.732-0.024-1.344-0.048-1.872h1.548l0.072,0.804h0.036c0.252-0.384,0.78-0.936,1.776-0.936
				c0.768,0,1.356,0.396,1.608,1.008h0.024c0.228-0.312,0.48-0.552,0.768-0.72c0.324-0.18,0.684-0.288,1.116-0.288
				c1.128,0,1.98,0.792,1.98,2.544v3.456h-1.776v-3.18c0-0.852-0.276-1.344-0.864-1.344c-0.432,0-0.72,0.288-0.852,0.636
				c-0.036,0.132-0.06,0.312-0.06,0.456v3.432h-1.776v-3.288c0-0.732-0.264-1.236-0.852-1.236c-0.468,0-0.744,0.36-0.852,0.648
				c-0.06,0.144-0.072,0.312-0.072,0.468v3.408h-1.776V142.501z"/>
			<path d="M199.057,143.078h-2.976v1.92h3.324v1.5h-5.148v-8.088h4.98v1.5h-3.156v1.68h2.976V143.078z"/>
			<path d="M222.854,138.41h4.932v1.5h-3.108v1.848h2.904v1.488h-2.904v3.252h-1.824V138.41z"/>
			<path d="M251.054,146.125c-0.564,0.192-1.632,0.456-2.7,0.456c-1.476,0-2.544-0.372-3.288-1.08
				c-0.732-0.708-1.14-1.764-1.14-2.952c0.012-2.688,1.968-4.224,4.62-4.224c1.044,0,1.848,0.204,2.244,0.384l-0.384,1.476
				c-0.444-0.204-0.984-0.348-1.872-0.348c-1.524,0-2.688,0.864-2.688,2.616c0,1.68,1.056,2.652,2.556,2.652
				c0.408,0,0.744-0.048,0.888-0.108v-1.704h-1.248v-1.428h3.012V146.125z"/>
			<path d="M252.422,142.501c0-0.732-0.024-1.344-0.048-1.872h1.548l0.072,0.804h0.036c0.252-0.384,0.78-0.936,1.776-0.936
				c0.768,0,1.356,0.396,1.608,1.008h0.024c0.228-0.312,0.48-0.552,0.768-0.72c0.324-0.18,0.684-0.288,1.116-0.288
				c1.128,0,1.98,0.792,1.98,2.544v3.456h-1.776v-3.18c0-0.852-0.276-1.344-0.864-1.344c-0.432,0-0.72,0.288-0.852,0.636
				c-0.036,0.132-0.06,0.312-0.06,0.456v3.432h-1.776v-3.288c0-0.732-0.264-1.236-0.852-1.236c-0.468,0-0.744,0.36-0.852,0.648
				c-0.06,0.144-0.072,0.312-0.072,0.468v3.408h-1.776V142.501z"/>
			<path d="M274.898,144.421l-0.564,2.076h-1.896l2.472-8.088h2.388l2.52,8.088h-1.968l-0.624-2.076H274.898z M276.95,143.054
				l-0.504-1.716c-0.132-0.48-0.276-1.092-0.396-1.56h-0.036c-0.108,0.48-0.24,1.092-0.36,1.56l-0.492,1.716H276.95z"/>
			<path d="M286.358,137.978v6.768c0,0.672,0.024,1.356,0.048,1.752h-1.62l-0.072-0.852h-0.036c-0.36,0.648-1.08,0.984-1.836,0.984
				c-1.392,0-2.508-1.188-2.508-3.012c-0.012-1.968,1.224-3.12,2.628-3.12c0.732,0,1.284,0.264,1.548,0.66h0.024v-3.18H286.358z
				 M284.534,143.125c0-0.108,0-0.228-0.024-0.336c-0.108-0.492-0.504-0.888-1.068-0.888c-0.84,0-1.26,0.744-1.26,1.668
				c0,0.984,0.492,1.608,1.248,1.608c0.528,0,0.96-0.36,1.068-0.876c0.024-0.12,0.036-0.264,0.036-0.408V143.125z"/>
			<path d="M288.722,139.861c-0.612,0-1.008-0.432-1.008-0.972c0-0.552,0.408-0.972,1.032-0.972s1.008,0.42,1.02,0.972
				c0,0.54-0.396,0.972-1.032,0.972H288.722z M287.822,146.498v-5.868h1.824v5.868H287.822z"/>
			<path d="M291.11,142.501c0-0.732-0.024-1.344-0.048-1.872h1.548l0.071,0.804h0.036c0.252-0.384,0.78-0.936,1.776-0.936
				c0.768,0,1.356,0.396,1.608,1.008h0.023c0.229-0.312,0.48-0.552,0.769-0.72c0.323-0.18,0.684-0.288,1.115-0.288
				c1.128,0,1.98,0.792,1.98,2.544v3.456h-1.776v-3.18c0-0.852-0.275-1.344-0.863-1.344c-0.433,0-0.721,0.288-0.853,0.636
				c-0.036,0.132-0.06,0.312-0.06,0.456v3.432h-1.776v-3.288c0-0.732-0.264-1.236-0.852-1.236c-0.469,0-0.744,0.36-0.853,0.648
				c-0.06,0.144-0.072,0.312-0.072,0.468v3.408h-1.775V142.501z"/>
		</g>
		<g>
			<path d="M105.258,214.498v0.125c-0.223,0.012-0.403,0.043-0.542,0.094s-0.263,0.133-0.372,0.247
				c-0.152,0.157-0.246,0.375-0.281,0.652c-0.023,0.208-0.035,0.447-0.035,0.717v4.331c0,0.325,0.016,0.582,0.047,0.77
				s0.082,0.339,0.152,0.452c0.102,0.157,0.232,0.273,0.393,0.35c0.16,0.077,0.373,0.123,0.639,0.138v0.125h-3.742v-0.125
				c0.227-0.012,0.409-0.044,0.548-0.097c0.139-0.053,0.261-0.134,0.366-0.244c0.125-0.125,0.209-0.284,0.252-0.476
				c0.043-0.191,0.064-0.489,0.064-0.893v-4.331c0-0.403-0.021-0.701-0.064-0.893s-0.127-0.351-0.252-0.476
				c-0.105-0.114-0.229-0.196-0.369-0.247s-0.322-0.083-0.545-0.094v-0.125H105.258z"/>
			<path d="M132.764,217.654l1.688-0.219v3.37l0.006,0.443c0,0.264,0.016,0.458,0.047,0.58s0.092,0.224,0.182,0.306
				c0.109,0.104,0.311,0.185,0.604,0.239v0.125h-2.596v-0.125c0.234-0.031,0.402-0.075,0.504-0.13
				c0.102-0.057,0.184-0.152,0.246-0.288c0.043-0.089,0.073-0.223,0.091-0.403c0.018-0.18,0.026-0.44,0.026-0.781v-1.435
				c0-0.398-0.01-0.678-0.029-0.839s-0.062-0.291-0.128-0.392c-0.065-0.108-0.146-0.187-0.238-0.235
				c-0.093-0.049-0.227-0.079-0.401-0.09V217.654z M133.982,215.326c-0.153,0-0.28-0.049-0.381-0.146s-0.15-0.221-0.15-0.369
				c0-0.145,0.051-0.267,0.153-0.366s0.229-0.149,0.378-0.149s0.275,0.05,0.378,0.149c0.102,0.1,0.153,0.222,0.153,0.366
				c0,0.148-0.05,0.271-0.15,0.369C134.263,215.277,134.136,215.326,133.982,215.326z"/>
			<path d="M135.67,217.654l1.688-0.219v3.37l0.006,0.443c0,0.264,0.016,0.458,0.047,0.58s0.092,0.224,0.182,0.306
				c0.109,0.104,0.311,0.185,0.604,0.239v0.125H135.6v-0.125c0.234-0.031,0.402-0.075,0.504-0.13
				c0.102-0.057,0.184-0.152,0.246-0.288c0.043-0.089,0.073-0.223,0.091-0.403c0.018-0.18,0.026-0.44,0.026-0.781v-1.435
				c0-0.398-0.01-0.678-0.029-0.839s-0.062-0.291-0.128-0.392c-0.065-0.108-0.146-0.187-0.238-0.235
				c-0.093-0.049-0.227-0.079-0.401-0.09V217.654z M136.889,215.326c-0.153,0-0.28-0.049-0.381-0.146s-0.15-0.221-0.15-0.369
				c0-0.145,0.051-0.267,0.153-0.366s0.229-0.149,0.378-0.149s0.275,0.05,0.378,0.149c0.102,0.1,0.153,0.222,0.153,0.366
				c0,0.148-0.05,0.271-0.15,0.369C137.169,215.277,137.042,215.326,136.889,215.326z"/>
			<path d="M162.576,217.654l1.688-0.219v3.37l0.006,0.443c0,0.264,0.016,0.458,0.047,0.58s0.092,0.224,0.182,0.306
				c0.109,0.104,0.311,0.185,0.604,0.239v0.125h-2.596v-0.125c0.234-0.031,0.402-0.075,0.504-0.13
				c0.102-0.057,0.184-0.152,0.246-0.288c0.043-0.089,0.073-0.223,0.091-0.403c0.018-0.18,0.026-0.44,0.026-0.781v-1.435
				c0-0.398-0.01-0.678-0.029-0.839s-0.062-0.291-0.128-0.392c-0.065-0.108-0.146-0.187-0.238-0.235
				c-0.093-0.049-0.227-0.079-0.401-0.09V217.654z M163.795,215.326c-0.153,0-0.28-0.049-0.381-0.146s-0.15-0.221-0.15-0.369
				c0-0.145,0.051-0.267,0.153-0.366s0.229-0.149,0.378-0.149s0.275,0.05,0.378,0.149c0.102,0.1,0.153,0.222,0.153,0.366
				c0,0.148-0.05,0.271-0.15,0.369C164.075,215.277,163.948,215.326,163.795,215.326z"/>
			<path d="M165.482,217.654l1.688-0.219v3.37l0.006,0.443c0,0.264,0.016,0.458,0.047,0.58s0.092,0.224,0.182,0.306
				c0.109,0.104,0.311,0.185,0.604,0.239v0.125h-2.596v-0.125c0.234-0.031,0.402-0.075,0.504-0.13
				c0.102-0.057,0.184-0.152,0.246-0.288c0.043-0.089,0.073-0.223,0.091-0.403c0.018-0.18,0.026-0.44,0.026-0.781v-1.435
				c0-0.398-0.01-0.678-0.029-0.839s-0.062-0.291-0.128-0.392c-0.065-0.108-0.146-0.187-0.238-0.235
				c-0.093-0.049-0.227-0.079-0.401-0.09V217.654z M166.701,215.326c-0.153,0-0.28-0.049-0.381-0.146s-0.15-0.221-0.15-0.369
				c0-0.145,0.051-0.267,0.153-0.366s0.229-0.149,0.378-0.149s0.275,0.05,0.378,0.149c0.102,0.1,0.153,0.222,0.153,0.366
				c0,0.148-0.05,0.271-0.15,0.369C166.981,215.277,166.854,215.326,166.701,215.326z"/>
			<path d="M168.389,217.654l1.688-0.219v3.37l0.006,0.443c0,0.264,0.016,0.458,0.047,0.58s0.092,0.224,0.182,0.306
				c0.109,0.104,0.311,0.185,0.604,0.239v0.125h-2.596v-0.125c0.234-0.031,0.402-0.075,0.504-0.13
				c0.102-0.057,0.184-0.152,0.246-0.288c0.043-0.089,0.073-0.223,0.091-0.403c0.018-0.18,0.026-0.44,0.026-0.781v-1.435
				c0-0.398-0.01-0.678-0.029-0.839s-0.062-0.291-0.128-0.392c-0.065-0.108-0.146-0.187-0.238-0.235
				c-0.093-0.049-0.227-0.079-0.401-0.09V217.654z M169.607,215.326c-0.153,0-0.28-0.049-0.381-0.146s-0.15-0.221-0.15-0.369
				c0-0.145,0.051-0.267,0.153-0.366s0.229-0.149,0.378-0.149s0.275,0.05,0.378,0.149c0.102,0.1,0.153,0.222,0.153,0.366
				c0,0.148-0.05,0.271-0.15,0.369C169.888,215.277,169.761,215.326,169.607,215.326z"/>
			<path d="M192.258,214.498v0.125c-0.223,0.012-0.403,0.043-0.542,0.094s-0.263,0.133-0.372,0.247
				c-0.152,0.157-0.246,0.375-0.281,0.652c-0.023,0.208-0.035,0.447-0.035,0.717v4.331c0,0.325,0.016,0.582,0.047,0.77
				s0.082,0.339,0.152,0.452c0.102,0.157,0.232,0.273,0.393,0.35c0.16,0.077,0.373,0.123,0.639,0.138v0.125h-3.742v-0.125
				c0.227-0.012,0.409-0.044,0.548-0.097c0.139-0.053,0.261-0.134,0.366-0.244c0.125-0.125,0.209-0.284,0.252-0.476
				c0.043-0.191,0.064-0.489,0.064-0.893v-4.331c0-0.403-0.021-0.701-0.064-0.893s-0.127-0.351-0.252-0.476
				c-0.105-0.114-0.229-0.196-0.369-0.247s-0.322-0.083-0.545-0.094v-0.125H192.258z"/>
			<path d="M192.35,214.498h3.848v0.125c-0.293,0.028-0.504,0.073-0.633,0.136c-0.121,0.059-0.219,0.15-0.292,0.274
				c-0.074,0.124-0.111,0.259-0.111,0.404c0,0.102,0.01,0.192,0.029,0.271c0.02,0.078,0.078,0.25,0.175,0.513l1.765,4.716
				l1.688-4.136c0.234-0.585,0.352-1.011,0.352-1.277c0-0.149-0.023-0.289-0.07-0.418s-0.109-0.229-0.188-0.3
				c-0.078-0.067-0.165-0.114-0.259-0.141c-0.095-0.027-0.217-0.042-0.366-0.042v-0.125h2.609v0.125
				c-0.215,0.02-0.402,0.073-0.561,0.159c-0.158,0.086-0.31,0.218-0.454,0.394c-0.098,0.126-0.201,0.298-0.308,0.516
				c-0.108,0.218-0.255,0.555-0.443,1.01l-2.406,5.796h-0.25l-2.344-5.99c-0.304-0.789-0.547-1.29-0.73-1.502
				c-0.117-0.134-0.26-0.231-0.429-0.292c-0.17-0.061-0.377-0.091-0.622-0.091V214.498z"/>
			<path d="M221.031,214.498h3.848v0.125c-0.293,0.028-0.504,0.073-0.633,0.136c-0.121,0.059-0.219,0.15-0.292,0.274
				c-0.074,0.124-0.111,0.259-0.111,0.404c0,0.102,0.01,0.192,0.029,0.271c0.02,0.078,0.078,0.25,0.175,0.513l1.765,4.716
				l1.688-4.136c0.234-0.585,0.352-1.011,0.352-1.277c0-0.149-0.023-0.289-0.07-0.418s-0.109-0.229-0.188-0.3
				c-0.078-0.067-0.165-0.114-0.259-0.141c-0.095-0.027-0.217-0.042-0.366-0.042v-0.125h2.609v0.125
				c-0.215,0.02-0.402,0.073-0.561,0.159c-0.158,0.086-0.31,0.218-0.454,0.394c-0.098,0.126-0.201,0.298-0.308,0.516
				c-0.108,0.218-0.255,0.555-0.443,1.01l-2.406,5.796h-0.25l-2.344-5.99c-0.304-0.789-0.547-1.29-0.73-1.502
				c-0.117-0.134-0.26-0.231-0.429-0.292c-0.17-0.061-0.377-0.091-0.622-0.091V214.498z"/>
			<path d="M248.141,217.513h2.297v0.125c-0.174,0.035-0.293,0.074-0.356,0.117c-0.127,0.078-0.19,0.204-0.19,0.375
				c0,0.105,0.02,0.229,0.058,0.369c0.039,0.141,0.11,0.346,0.215,0.615l0.938,2.409l0.954-2.509
				c0.141-0.371,0.211-0.646,0.211-0.826c0-0.195-0.061-0.338-0.183-0.428c-0.063-0.047-0.179-0.088-0.348-0.123v-0.125h1.625v0.125
				c-0.221,0.055-0.397,0.152-0.531,0.293c-0.168,0.176-0.361,0.545-0.58,1.108l-1.353,3.458h-0.316l-1.47-3.634
				c-0.229-0.559-0.392-0.896-0.49-1.014c-0.055-0.063-0.116-0.108-0.184-0.138c-0.066-0.029-0.165-0.054-0.295-0.073V217.513z"/>
			<path d="M253.414,217.654l1.688-0.219v3.37l0.006,0.443c0,0.264,0.016,0.458,0.047,0.58s0.092,0.224,0.182,0.306
				c0.109,0.104,0.311,0.185,0.604,0.239v0.125h-2.596v-0.125c0.234-0.031,0.402-0.075,0.504-0.13
				c0.102-0.057,0.184-0.152,0.246-0.288c0.043-0.089,0.073-0.223,0.091-0.403c0.018-0.18,0.026-0.44,0.026-0.781v-1.435
				c0-0.398-0.01-0.678-0.029-0.839s-0.062-0.291-0.128-0.392c-0.065-0.108-0.146-0.187-0.238-0.235
				c-0.093-0.049-0.227-0.079-0.401-0.09V217.654z M254.633,215.326c-0.153,0-0.28-0.049-0.381-0.146s-0.15-0.221-0.15-0.369
				c0-0.145,0.051-0.267,0.153-0.366s0.229-0.149,0.378-0.149s0.275,0.05,0.378,0.149c0.102,0.1,0.153,0.222,0.153,0.366
				c0,0.148-0.05,0.271-0.15,0.369C254.913,215.277,254.786,215.326,254.633,215.326z"/>
			<path d="M277.016,217.513h2.297v0.125c-0.174,0.035-0.293,0.074-0.356,0.117c-0.127,0.078-0.19,0.204-0.19,0.375
				c0,0.105,0.02,0.229,0.058,0.369c0.039,0.141,0.11,0.346,0.215,0.615l0.938,2.409l0.954-2.509
				c0.141-0.371,0.211-0.646,0.211-0.826c0-0.195-0.061-0.338-0.183-0.428c-0.063-0.047-0.179-0.088-0.348-0.123v-0.125h1.625v0.125
				c-0.221,0.055-0.397,0.152-0.531,0.293c-0.168,0.176-0.361,0.545-0.58,1.108l-1.353,3.458h-0.316l-1.47-3.634
				c-0.229-0.559-0.392-0.896-0.49-1.014c-0.055-0.063-0.116-0.108-0.184-0.138c-0.066-0.029-0.165-0.054-0.295-0.073V217.513z"/>
			<path d="M282.289,217.654l1.688-0.219v3.37l0.006,0.443c0,0.264,0.016,0.458,0.047,0.58s0.092,0.224,0.182,0.306
				c0.109,0.104,0.311,0.185,0.604,0.239v0.125h-2.596v-0.125c0.234-0.031,0.402-0.075,0.504-0.13
				c0.102-0.057,0.184-0.152,0.246-0.288c0.043-0.089,0.073-0.223,0.091-0.403c0.018-0.18,0.026-0.44,0.026-0.781v-1.435
				c0-0.398-0.01-0.678-0.029-0.839s-0.062-0.291-0.128-0.392c-0.065-0.108-0.146-0.187-0.238-0.235
				c-0.093-0.049-0.227-0.079-0.401-0.09V217.654z M283.508,215.326c-0.153,0-0.28-0.049-0.381-0.146s-0.15-0.221-0.15-0.369
				c0-0.145,0.051-0.267,0.153-0.366s0.229-0.149,0.378-0.149s0.275,0.05,0.378,0.149c0.102,0.1,0.153,0.222,0.153,0.366
				c0,0.148-0.05,0.271-0.15,0.369C283.788,215.277,283.661,215.326,283.508,215.326z"/>
			<path d="M285.195,217.654l1.688-0.219v3.37l0.006,0.443c0,0.264,0.016,0.458,0.047,0.58s0.092,0.224,0.182,0.306
				c0.109,0.104,0.311,0.185,0.604,0.239v0.125h-2.596v-0.125c0.234-0.031,0.402-0.075,0.504-0.13
				c0.102-0.057,0.184-0.152,0.246-0.288c0.043-0.089,0.073-0.223,0.091-0.403c0.018-0.18,0.026-0.44,0.026-0.781v-1.435
				c0-0.398-0.01-0.678-0.029-0.839s-0.062-0.291-0.128-0.392c-0.065-0.108-0.146-0.187-0.238-0.235
				c-0.093-0.049-0.227-0.079-0.401-0.09V217.654z M286.414,215.326c-0.153,0-0.28-0.049-0.381-0.146s-0.15-0.221-0.15-0.369
				c0-0.145,0.051-0.267,0.153-0.366s0.229-0.149,0.378-0.149s0.275,0.05,0.378,0.149c0.102,0.1,0.153,0.222,0.153,0.366
				c0,0.148-0.05,0.271-0.15,0.369C286.694,215.277,286.567,215.326,286.414,215.326z"/>
		</g>
		<g>
			<path d="M269.16,37.362V33.45h0.696v3.672l2.352-0.768V32.85h0.696v3.288l0.936-0.312v2.496l-0.936,0.312v3.552l0.936-0.288
				v2.472l-0.936,0.312v3.912h-0.696v-3.696l-2.352,0.768v3.552h-0.696v-3.312l-1.032,0.336v-2.496l1.032-0.336v-3.576l-1.032,0.336
				v-2.472L269.16,37.362z M269.856,39.618v3.576l2.352-0.768V38.85L269.856,39.618z"/>
		</g>
		<g>
			<path d="M153.267,36.753v-3.912h0.696v3.672l2.352-0.768v-3.504h0.696v3.288l0.936-0.312v2.496l-0.936,0.312v3.552l0.936-0.288
				v2.472l-0.936,0.312v3.912h-0.696V44.29l-2.352,0.768v3.552h-0.696v-3.312l-1.032,0.336v-2.496l1.032-0.336v-3.576l-1.032,0.336
				v-2.472L153.267,36.753z M153.962,39.01v3.576l2.352-0.768v-3.576L153.962,39.01z"/>
		</g>
		<g>
			<path d="M211.16,36.362V32.45h0.696v3.672l2.352-0.768V31.85h0.696v3.288l0.936-0.312v2.496l-0.936,0.312v3.552l0.936-0.288
				v2.472l-0.936,0.312v3.912h-0.696v-3.696l-2.352,0.768v3.552h-0.696v-3.312l-1.032,0.336v-2.496l1.032-0.336v-3.576l-1.032,0.336
				v-2.472L211.16,36.362z M211.856,38.618v3.576l2.352-0.768V37.85L211.856,38.618z"/>
		</g>
		<g>
			<path d="M7.79,164.008c0,0.216,0,1.536,0,1.536c0.912-0.816,1.416-0.984,2.424-1.008c1.2-0.024,1.968,1.176,1.992,2.136
				c0.024,0.504-0.12,1.032-0.312,1.44c-0.216,0.528-0.792,0.936-1.176,1.32c-0.432,0.432-3.552,2.568-3.552,2.616v-14.184H7.79
				C7.79,157.864,7.814,160.84,7.79,164.008z M8.054,166.384c-0.312,0.6-0.264,1.632-0.264,2.376v2.064
				c0,0.024,0.864-0.72,1.344-1.176c0.432-0.408,0.768-0.864,0.936-1.584c0.192-0.72,0.12-1.488-0.336-1.992
				C9.422,165.712,8.558,165.424,8.054,166.384z"/>
		</g>
		<path fill="#FFFFFF" stroke="#000000" d="M294.949,216.073c0,1.207-1.246,2.183-2.783,2.183s-2.783-0.976-2.783-2.183
			s1.246-2.183,2.783-2.183S294.949,214.866,294.949,216.073z"/>
		<path fill="#FFFFFF" stroke="#000000" d="M296.949,89.073c0,1.207-1.246,2.183-2.783,2.183s-2.783-0.976-2.783-2.183
			s1.246-2.183,2.783-2.183S296.949,87.866,296.949,89.073z"/>
		<path fill="none" stroke="#000000" d="M216.5,33.256h14.667"/>
		<path fill="none" stroke="#000000" d="M274.5,33.256h14.667"/>
		<path fill="none" stroke="#000000" d="M274.5,26.256h14.667"/>
		<g>
			<path d="M90.79,192.008c0,0.216,0,1.536,0,1.536c0.912-0.816,1.416-0.984,2.424-1.008c1.2-0.024,1.968,1.176,1.992,2.136
				c0.024,0.504-0.12,1.032-0.312,1.44c-0.216,0.528-0.792,0.936-1.176,1.32c-0.432,0.432-3.552,2.568-3.552,2.616v-14.184h0.624
				C90.79,185.864,90.814,188.84,90.79,192.008z M91.054,194.384c-0.312,0.6-0.264,1.632-0.264,2.376v2.064
				c0,0.024,0.864-0.72,1.344-1.176c0.432-0.408,0.768-0.864,0.936-1.584c0.192-0.72,0.12-1.488-0.336-1.992
				C92.422,193.712,91.558,193.424,91.054,194.384z"/>
		</g>
		<g>
			<path d="M241.79,167.008c0,0.216,0,1.536,0,1.536c0.912-0.816,1.416-0.984,2.424-1.008c1.2-0.024,1.968,1.176,1.992,2.136
				c0.024,0.504-0.12,1.032-0.312,1.44c-0.216,0.528-0.792,0.936-1.176,1.32c-0.432,0.432-3.552,2.568-3.552,2.616v-14.184h0.624
				C241.79,160.864,241.814,163.84,241.79,167.008z M242.054,169.384c-0.312,0.6-0.264,1.632-0.264,2.376v2.064
				c0,0.024,0.864-0.72,1.344-1.176c0.432-0.408,0.768-0.864,0.936-1.584c0.192-0.72,0.12-1.488-0.336-1.992
				C243.422,168.712,242.558,168.424,242.054,169.384z"/>
		</g>
		<g>
			<path d="M183.79,167.008c0,0.216,0,1.536,0,1.536c0.912-0.816,1.416-0.984,2.424-1.008c1.2-0.024,1.968,1.176,1.992,2.136
				c0.024,0.504-0.12,1.032-0.312,1.44c-0.216,0.528-0.792,0.936-1.176,1.32c-0.432,0.432-3.552,2.568-3.552,2.616v-14.184h0.624
				C183.79,160.864,183.814,163.84,183.79,167.008z M184.054,169.384c-0.312,0.6-0.264,1.632-0.264,2.376v2.064
				c0,0.024,0.864-0.72,1.344-1.176c0.432-0.408,0.768-0.864,0.936-1.584c0.192-0.72,0.12-1.488-0.336-1.992
				C185.422,168.712,184.558,168.424,184.054,169.384z"/>
		</g>
		<g>
			<path d="M182.79,181.008c0,0.216,0,1.536,0,1.536c0.912-0.816,1.416-0.984,2.424-1.008c1.2-0.024,1.968,1.176,1.992,2.136
				c0.024,0.504-0.12,1.032-0.312,1.44c-0.216,0.528-0.792,0.936-1.176,1.32c-0.432,0.432-3.552,2.568-3.552,2.616v-14.184h0.624
				C182.79,174.864,182.814,177.84,182.79,181.008z M183.054,183.384c-0.312,0.6-0.264,1.632-0.264,2.376v2.064
				c0,0.024,0.864-0.72,1.344-1.176c0.432-0.408,0.768-0.864,0.936-1.584c0.192-0.72,0.12-1.488-0.336-1.992
				C184.422,182.712,183.558,182.424,183.054,183.384z"/>
		</g>
		<g>
			<path d="M125.79,181.008c0,0.216,0,1.536,0,1.536c0.912-0.816,1.416-0.984,2.424-1.008c1.2-0.024,1.968,1.176,1.992,2.136
				c0.024,0.504-0.12,1.032-0.312,1.44c-0.216,0.528-0.792,0.936-1.176,1.32c-0.432,0.432-3.552,2.568-3.552,2.616v-14.184h0.624
				C125.79,174.864,125.814,177.84,125.79,181.008z M126.054,183.384c-0.312,0.6-0.264,1.632-0.264,2.376v2.064
				c0,0.024,0.864-0.72,1.344-1.176c0.432-0.408,0.768-0.864,0.936-1.584c0.192-0.72,0.12-1.488-0.336-1.992
				C127.422,182.712,126.558,182.424,126.054,183.384z"/>
		</g>
		<g>
			<path d="M270.79,156.008c0,0.216,0,1.536,0,1.536c0.912-0.816,1.416-0.984,2.424-1.008c1.2-0.024,1.968,1.176,1.992,2.136
				c0.024,0.504-0.12,1.032-0.312,1.44c-0.216,0.528-0.792,0.936-1.176,1.32c-0.432,0.432-3.552,2.568-3.552,2.616v-14.184h0.624
				C270.79,149.864,270.814,152.84,270.79,156.008z M271.054,158.384c-0.312,0.6-0.264,1.632-0.264,2.376v2.064
				c0,0.024,0.864-0.72,1.344-1.176c0.432-0.408,0.768-0.864,0.936-1.584c0.192-0.72,0.12-1.488-0.336-1.992
				C272.422,157.712,271.558,157.424,271.054,158.384z"/>
		</g>
		<path fill="none" stroke="#000000" d="M95.5,192.256h14.667"/>
		<path fill="none" stroke="#000000" d="M130.5,192.256h14.667"/>
		<g>
			<path d="M101.79,135.008c0,0.216,0,1.536,0,1.536c0.912-0.816,1.416-0.984,2.424-1.008c1.2-0.024,1.968,1.176,1.992,2.136
				c0.024,0.504-0.12,1.032-0.312,1.44c-0.216,0.528-0.792,0.936-1.176,1.32c-0.432,0.432-3.552,2.568-3.552,2.616v-14.184h0.624
				C101.79,128.864,101.814,131.84,101.79,135.008z M102.054,137.384c-0.312,0.6-0.264,1.632-0.264,2.376v2.064
				c0,0.024,0.864-0.72,1.344-1.176c0.432-0.408,0.768-0.864,0.936-1.584c0.192-0.72,0.12-1.488-0.336-1.992
				C103.422,136.712,102.558,136.424,102.054,137.384z"/>
		</g>
		<g>
			<path d="M202.79,134.008c0,0.216,0,1.536,0,1.536c0.912-0.816,1.416-0.984,2.424-1.008c1.2-0.024,1.968,1.176,1.992,2.136
				c0.024,0.504-0.12,1.032-0.312,1.44c-0.216,0.528-0.792,0.936-1.176,1.32c-0.432,0.432-3.552,2.568-3.552,2.616v-14.184h0.624
				C202.79,127.864,202.814,130.84,202.79,134.008z M203.054,136.384c-0.312,0.6-0.264,1.632-0.264,2.376v2.064
				c0,0.024,0.864-0.72,1.344-1.176c0.432-0.408,0.768-0.864,0.936-1.584c0.192-0.72,0.12-1.488-0.336-1.992
				C204.422,135.712,203.558,135.424,203.054,136.384z"/>
		</g>
	</g>
</svg>
