<?xml version="1.0" encoding="utf-8"?>
<!-- Generator: Adobe Illustrator 10.0, SVG Export Plug-In . SVG Version: 3.0.0 Build 76)  -->
<!DOCTYPE svg PUBLIC "-//W3C//DTD SVG 1.0//EN"    "http://www.w3.org/TR/2001/REC-SVG-20010904/DTD/svg10.dtd" [
	<!ENTITY ns_flows "http://ns.adobe.com/Flows/1.0/">
	<!ENTITY ns_extend "http://ns.adobe.com/Extensibility/1.0/">
	<!ENTITY ns_ai "http://ns.adobe.com/AdobeIllustrator/10.0/">
	<!ENTITY ns_svg "http://www.w3.org/2000/svg">
	<!ENTITY ns_xlink "http://www.w3.org/1999/xlink">
]>
<svg  xmlns:x="&ns_extend;" xmlns:i="&ns_ai;" xmlns:graph="&ns_graphs;"
	 xmlns="&ns_svg;" xmlns:xlink="&ns_xlink;" xmlns:a="http://ns.adobe.com/AdobeSVGViewerExtensions/3.0/" width="352" height="146"
	 viewBox="0.285 -0.229 352 146" overflow="visible" enable-background="new 0.285 -0.229 352 146" xml:space="preserve">
	<g id="Layer_1_2_">
		<g>
			<path fill="none" stroke="#000000" d="M5.005,94.103H167.69"/>
			<path fill="none" stroke="#000000" d="M5.005,119.995H167.69"/>
			<path fill="none" stroke="#000000" d="M5.086,132.561h162.684"/>
			<path fill="none" stroke="#000000" d="M4.962,145.585h162.684"/>
			<path fill="none" stroke="#000000" d="M4.962,106.899h162.684"/>
		</g>
		<g>
			<path fill="none" stroke="#000000" d="M161.666,10.018h190.651"/>
			<path fill="none" stroke="#000000" d="M161.666,35.909h190.651"/>
			<path fill="none" stroke="#000000" d="M161.761,48.475H352.41"/>
			<path fill="none" stroke="#000000" d="M161.615,61.5h190.65"/>
			<path fill="none" stroke="#000000" d="M161.615,22.813h190.65"/>
		</g>
		<g>
			<path d="M178.764,59.567c-8.721-4.149-10.119-9.483-10.5-14.945c-0.423-5.927,3.345-11.939,6.858-15.283
				c2.032-1.905,4.234-3.768,6.858-5.758c-0.084-1.482-0.423-2.075-0.592-4.191c-0.042-0.889-0.593-5.038,0.296-9.822
				c0.551-2.836,4.107-9.525,6.563-9.568c1.905-0.042,4.826,7.578,4.911,11.389c0.127,5.885-1.271,8.552-3.006,11.6
				c-0.889,1.524-1.821,2.583-2.794,3.768c-1.016,1.228-2.159,1.947-3.218,2.879c0,0,1.355,7.663,1.397,8.213
				c2.709-0.338,6.012,0.635,7.197,1.482c3.006,2.244,4.149,5.334,4.36,8.34c0.381,4.784-2.244,9.822-8.044,12.235
				c0,0,0.889,6.096,1.101,7.366c0.465,3.345,0.381,5.461-0.339,6.816c-1.228,2.286-3.218,4.403-7.07,4.657
				c-2.963,0.169-8.806-1.313-9.102-5.97c-0.169-2.752,1.058-5.715,4.403-5.927c2.032-0.169,4.445,1.524,4.615,3.938
				c0.169,2.074-1.186,4.233-4.7,5.208c0.551,0.762,2.202,1.651,4.573,1.651c2.456,0,4.996-1.651,6.223-3.853
				c0.762-1.439,0.678-4.022,0.381-6.393c-0.127-0.805-1.143-7.197-1.143-7.197C184.86,60.71,180.542,60.414,178.764,59.567z
				 M179.61,49.534c0.084,2.032,1.778,4.403,3.345,5.208c-0.212,0.127-0.423,0.465-0.423,0.465
				c-1.736-0.847-3.218-2.244-3.599-2.751c-1.228-1.651-1.736-2.583-1.905-5.081c-0.169-2.329,1.101-5.461,3.937-7.663
				c1.482-1.101,2.202-1.354,3.472-1.651l-1.27-7.663c-1.313,0.762-6.731,5.123-9.018,8.679c-2.032,3.175-3.26,5.715-3.006,8.848
				c0.508,7.07,8.255,12.871,16.638,10.88c0,0-2.498-15.029-2.456-15.029C180.711,43.945,179.483,47.501,179.61,49.534z
				 M183.04,22.692c3.683-2.879,8.679-8.298,8.383-12.489c-0.085-1.313-0.635-3.683-2.541-3.641
				C184.521,6.604,182.066,15.707,183.04,22.692z M188.797,58.467c4.869-1.651,5.081-5.843,4.911-8.34
				c-0.169-2.075-1.101-6.731-7.282-6.435L188.797,58.467z"/>
		</g>
		<g>
			<path d="M248.514,64.562c0.672-0.12,1.548-0.18,2.46-0.18c1.548,0,2.556,0.252,3.324,0.84c0.84,0.624,1.368,1.632,1.368,3.072
				c0,1.548-0.564,2.616-1.332,3.276c-0.852,0.708-2.16,1.044-3.744,1.044c-0.948,0-1.632-0.06-2.076-0.12V64.562z M250.338,71.15
				c0.156,0.036,0.42,0.036,0.636,0.036c1.668,0.012,2.76-0.9,2.76-2.832c0-1.74-0.984-2.568-2.568-2.568
				c-0.396,0-0.672,0.036-0.828,0.072V71.15z"/>
		</g>
		<g>
			<path d="M304.859,51.442h4.933v1.5h-3.108v1.848h2.904v1.488h-2.904v3.252h-1.824V51.442z"/>
		</g>
		<path fill="#FFFFFF" d="M286.722,58.864c0,3.866-2.91,7-6.5,7s-6.5-3.134-6.5-7s2.91-7,6.5-7S286.722,54.998,286.722,58.864z"/>
		<g>
			<path d="M282.326,62.444h-2.976v1.92h3.324v1.5h-5.148v-8.088h4.98v1.5h-3.156v1.68h2.976V62.444z"/>
		</g>
		<path fill="#FFFFFF" d="M338.222,48.864c0,3.866-2.91,7-6.5,7s-6.5-3.134-6.5-7s2.91-7,6.5-7S338.222,44.998,338.222,48.864z"/>
		<g>
			<path d="M334.936,52.158c-0.563,0.192-1.632,0.456-2.7,0.456c-1.476,0-2.544-0.372-3.288-1.08
				c-0.731-0.708-1.14-1.764-1.14-2.952c0.012-2.688,1.968-4.224,4.62-4.224c1.044,0,1.848,0.204,2.244,0.384l-0.384,1.476
				c-0.444-0.204-0.984-0.348-1.872-0.348c-1.524,0-2.688,0.864-2.688,2.616c0,1.68,1.057,2.652,2.557,2.652
				c0.407,0,0.743-0.048,0.888-0.108v-1.704h-1.248v-1.428h3.012V52.158z"/>
		</g>
		<g>
			<g>
				<path fill="#FF0000" d="M226.442,78.314c-0.324,0.156-1.092,0.348-2.064,0.348c-2.796,0-4.236-1.752-4.236-4.068
					c0-2.76,1.968-4.284,4.416-4.284c0.948,0,1.668,0.192,1.992,0.36l-0.384,1.44c-0.36-0.156-0.876-0.3-1.536-0.3
					c-1.44,0-2.568,0.876-2.568,2.688c0,1.62,0.96,2.64,2.58,2.64c0.564,0,1.164-0.108,1.536-0.264L226.442,78.314z"/>
			</g>
			<path fill="#FF0000" stroke="#FF0000" stroke-miterlimit="1" d="M228.717,73.864h8.005"/>
			<path fill="#FF0000" stroke="#FF0000" stroke-miterlimit="1" d="M208.397,73.864h8.005"/>
		</g>
		<path fill="#FFFFFF" d="M117.785,93.771c0,3.867-2.91,7-6.5,7s-6.5-3.133-6.5-7c0-3.866,2.91-7,6.5-7
			S117.785,89.906,117.785,93.771z"/>
		<g>
			<path d="M134.267,84.32c0.48-0.096,1.44-0.18,2.364-0.18c1.116,0,1.8,0.108,2.388,0.456c0.564,0.3,0.96,0.852,0.96,1.596
				c0,0.708-0.42,1.368-1.32,1.716v0.024c0.924,0.24,1.608,0.948,1.608,1.992c0,0.744-0.336,1.32-0.84,1.716
				c-0.588,0.468-1.572,0.732-3.18,0.732c-0.9,0-1.572-0.06-1.98-0.12V84.32z M136.079,87.404h0.6c0.972,0,1.476-0.396,1.476-0.996
				c0-0.612-0.468-0.936-1.296-0.936c-0.408,0-0.636,0.024-0.78,0.06V87.404z M136.079,90.993c0.18,0.036,0.396,0.036,0.708,0.036
				c0.828,0,1.56-0.324,1.56-1.176c0-0.816-0.732-1.14-1.644-1.14h-0.624V90.993z"/>
		</g>
		<g>
			<path d="M84.905,104.405c-0.564,0.192-1.632,0.456-2.7,0.456c-1.476,0-2.544-0.372-3.288-1.08
				c-0.732-0.708-1.14-1.764-1.14-2.952c0.012-2.688,1.968-4.224,4.62-4.224c1.044,0,1.848,0.204,2.244,0.384l-0.384,1.476
				c-0.444-0.204-0.984-0.348-1.872-0.348c-1.524,0-2.688,0.864-2.688,2.616c0,1.68,1.056,2.652,2.556,2.652
				c0.408,0,0.744-0.048,0.888-0.108v-1.704h-1.248v-1.428h3.012V104.405z"/>
		</g>
		<g>
			<path d="M17.445,123.935c-1.454,1.761-2.367,2.73-4.195,4.139c-2.202,1.717-3.697,2.422-6.272,3.479
				c-2.492,0.969-6.687,1.761-6.687,1.761L0,132.653c0,0,7.02-2.246,10.467-6.121c4.527-4.976,6.895-11.008,6.77-18.714
				c-0.042-3.479-1.08-9.996-6.313-10.04c-2.99,0-7.227,2.73-6.937,6.121c0.083,0.484,1.246-0.528,3.531-0.44
				c2.409,0.088,3.697,3.259,3.115,5.725c-0.416,1.938-1.579,3.17-3.697,3.17c-2.7,0-5.109-2.025-5.15-5.372
				c-0.083-5.064,2.575-7.618,4.195-8.675c2.035-1.321,4.236-1.805,6.105-1.805c4.195-0.088,8.847,3.126,10.425,7.794
				c0.914,2.642,0.914,5.592,0.208,9.027c-0.457,2.334-1.039,3.611-2.077,5.725C19.605,121.072,18.857,122.173,17.445,123.935z
				 M27.081,99.716c1.288,0,2.326,0.969,2.326,2.29c0.042,1.321-0.997,2.466-2.243,2.466c-1.246,0.044-2.326-1.057-2.326-2.377
				C24.797,100.729,25.835,99.76,27.081,99.716z M27.123,110.813c1.246,0,2.285,0.969,2.326,2.29c0,1.365-0.997,2.466-2.243,2.466
				c-1.288,0.044-2.326-1.013-2.368-2.378C24.838,111.869,25.835,110.856,27.123,110.813z"/>
		</g>
		<g>
			<path fill="#FF0000" d="M171.097,88.142c-0.324,0.156-1.092,0.348-2.064,0.348c-2.796,0-4.236-1.752-4.236-4.068
				c0-2.76,1.968-4.284,4.416-4.284c0.948,0,1.668,0.192,1.992,0.36l-0.384,1.44c-0.36-0.156-0.876-0.3-1.536-0.3
				c-1.44,0-2.568,0.876-2.568,2.688c0,1.62,0.96,2.64,2.58,2.64c0.564,0,1.164-0.108,1.536-0.264L171.097,88.142z"/>
		</g>
		<path fill="#FF0000" stroke="#FF0000" stroke-miterlimit="1" d="M173.372,83.691h8.005"/>
		<path fill="#FF0000" stroke="#FF0000" stroke-miterlimit="1" d="M153.053,83.691h8.005"/>
		<path fill="#FFFFFF" d="M59.722,104.864c0,3.866-2.91,7-6.5,7s-6.5-3.134-6.5-7s2.91-7,6.5-7S59.722,100.998,59.722,104.864z"/>
		<g>
			<path d="M50.849,104.132h4.932v1.5h-3.108v1.848h2.904v1.488h-2.904v3.252h-1.824V104.132z"/>
		</g>
		<g>
			<path d="M111.066,95.207l-0.564,2.076h-1.896l2.472-8.088h2.388l2.52,8.088h-1.968l-0.624-2.076H111.066z M113.118,93.839
				l-0.504-1.716c-0.132-0.48-0.276-1.092-0.396-1.56h-0.036c-0.108,0.48-0.24,1.092-0.36,1.56l-0.492,1.716H113.118z"/>
		</g>
		<g>
			<path fill="#FF0000" d="M194.765,80.872v-1.116h6.192v1.116H194.765z M194.765,83.355v-1.116h6.192v1.116H194.765z"/>
		</g>
	</g>
</svg>
