<?xml version="1.0" encoding="utf-8"?>
<!-- Generator: Adobe Illustrator 10.0, SVG Export Plug-In . SVG Version: 3.0.0 Build 76)  -->
<!DOCTYPE svg PUBLIC "-//W3C//DTD SVG 1.0//EN"    "http://www.w3.org/TR/2001/REC-SVG-20010904/DTD/svg10.dtd" [
	<!ENTITY ns_flows "http://ns.adobe.com/Flows/1.0/">
	<!ENTITY ns_extend "http://ns.adobe.com/Extensibility/1.0/">
	<!ENTITY ns_ai "http://ns.adobe.com/AdobeIllustrator/10.0/">
	<!ENTITY ns_svg "http://www.w3.org/2000/svg">
	<!ENTITY ns_xlink "http://www.w3.org/1999/xlink">
]>
<svg  xmlns:x="&ns_extend;" xmlns:i="&ns_ai;" xmlns:graph="&ns_graphs;"
	 xmlns="&ns_svg;" xmlns:xlink="&ns_xlink;" xmlns:a="http://ns.adobe.com/AdobeSVGViewerExtensions/3.0/" width="480" height="237"
	 viewBox="-0.372 -0.201 480 237" overflow="visible" enable-background="new -0.372 -0.201 480 237" xml:space="preserve">
	<g id="Layer_1_2_">
		<g>
			<path fill="none" stroke="#000000" d="M1.128,91.556h474.758"/>
			<path fill="none" stroke="#000000" d="M1.128,106.668h474.758"/>
			<path fill="none" stroke="#000000" d="M1.364,113.791h474.76"/>
			<path fill="none" stroke="#000000" d="M1,121.174h474.758"/>
			<path fill="none" stroke="#000000" d="M1,98.81h474.758"/>
		</g>
		<g>
			<path d="M8.876,120.768c-4.944-2.352-5.736-5.376-5.952-8.472c-0.24-3.36,1.896-6.768,3.888-8.664
				c1.152-1.08,2.4-2.136,3.888-3.264c-0.048-0.84-0.24-1.176-0.336-2.376c-0.024-0.504-0.336-2.856,0.168-5.568
				c0.312-1.608,2.328-5.4,3.72-5.424c1.08-0.024,2.736,4.296,2.784,6.456c0.072,3.336-0.72,4.848-1.704,6.576
				c-0.504,0.864-1.032,1.464-1.584,2.136c-0.576,0.696-1.224,1.104-1.824,1.632c0,0,0.768,4.344,0.792,4.656
				c1.536-0.192,3.408,0.36,4.08,0.84c1.704,1.272,2.352,3.024,2.472,4.728c0.216,2.712-1.272,5.568-4.56,6.936
				c0,0,0.504,3.456,0.624,4.176c0.264,1.896,0.216,3.096-0.192,3.864c-0.696,1.296-1.824,2.496-4.008,2.64
				c-1.68,0.096-4.992-0.744-5.16-3.384c-0.096-1.56,0.6-3.24,2.496-3.36c1.152-0.096,2.52,0.864,2.616,2.232
				c0.096,1.176-0.672,2.4-2.664,2.952c0.312,0.432,1.248,0.936,2.592,0.936c1.392,0,2.832-0.936,3.528-2.184
				c0.432-0.816,0.384-2.28,0.216-3.624c-0.072-0.456-0.648-4.08-0.648-4.08C12.332,121.416,9.884,121.248,8.876,120.768z
				 M9.356,115.08c0.048,1.152,1.008,2.496,1.896,2.952c-0.12,0.072-0.24,0.264-0.24,0.264c-0.984-0.48-1.824-1.272-2.04-1.56
				c-0.696-0.936-0.984-1.464-1.08-2.88c-0.096-1.32,0.624-3.096,2.232-4.344c0.84-0.624,1.248-0.768,1.968-0.936l-0.72-4.344
				c-0.744,0.432-3.816,2.904-5.112,4.92c-1.152,1.8-1.848,3.24-1.704,5.016c0.288,4.008,4.68,7.296,9.432,6.168
				c0,0-1.416-8.52-1.392-8.52C9.98,111.912,9.284,113.928,9.356,115.08z M11.3,99.864c2.088-1.632,4.92-4.704,4.752-7.08
				c-0.048-0.744-0.36-2.088-1.44-2.064C12.14,90.744,10.748,95.904,11.3,99.864z M14.564,120.144
				c2.76-0.936,2.88-3.312,2.784-4.728c-0.096-1.176-0.624-3.816-4.128-3.648L14.564,120.144z"/>
		</g>
		<g>
			<path d="M61.594,121.176c2.664,0.024,5.184,1.032,5.376,3.264c0.144,1.632-2.016,3.12-4.68,3.12
				c-2.688-0.024-5.184-1.008-5.4-3.24C56.746,122.664,58.93,121.176,61.594,121.176z M62.242,127.008
				c1.152,0,1.896-1.104,1.776-1.992c-0.264-1.752-0.864-3.168-2.448-3.168c-1.152,0-1.824,1.128-1.68,2.016
				C60.154,125.616,60.658,127.008,62.242,127.008z"/>
		</g>
		<g>
			<path d="M97.594,117.677c2.664,0.024,5.184,1.032,5.376,3.264c0.144,1.632-2.016,3.12-4.68,3.12
				c-2.688-0.024-5.184-1.008-5.4-3.24C92.746,119.165,94.93,117.677,97.594,117.677z M98.242,123.509
				c1.152,0,1.896-1.104,1.776-1.992c-0.264-1.752-0.864-3.168-2.448-3.168c-1.152,0-1.824,1.128-1.68,2.016
				C96.154,122.117,96.658,123.509,98.242,123.509z"/>
		</g>
		<path fill="none" stroke="#0A0A0A" d="M134.79,91.292v29.746"/>
		<g>
			<path d="M199.093,95.177c2.664,0.024,5.184,1.032,5.376,3.264c0.144,1.632-2.016,3.12-4.68,3.12
				c-2.688-0.024-5.184-1.008-5.4-3.24C194.245,96.665,196.429,95.177,199.093,95.177z M199.741,101.009
				c1.152,0,1.896-1.104,1.776-1.992c-0.264-1.752-0.864-3.168-2.448-3.168c-1.152,0-1.824,1.128-1.68,2.016
				C197.653,99.617,198.157,101.009,199.741,101.009z"/>
		</g>
		<path fill="none" stroke="#0A0A0A" d="M241.066,91.292v29.746"/>
		<g>
			<path d="M319.594,110.176c2.664,0.024,5.184,1.032,5.376,3.264c0.144,1.632-2.016,3.12-4.68,3.12
				c-2.688-0.024-5.185-1.008-5.4-3.24C314.747,111.664,316.93,110.176,319.594,110.176z M320.242,116.008
				c1.152,0,1.896-1.104,1.776-1.992c-0.264-1.752-0.864-3.168-2.448-3.168c-1.151,0-1.823,1.128-1.68,2.016
				C318.154,114.616,318.658,116.008,320.242,116.008z"/>
		</g>
		<path fill="none" stroke="#0A0A0A" d="M359.412,92.017v29.746"/>
		<g>
			<path d="M270.147,118.831c2.664,0.024,5.184,1.032,5.376,3.264c0.144,1.632-2.016,3.12-4.68,3.12
				c-2.688-0.024-5.184-1.008-5.4-3.24C265.299,120.318,267.483,118.831,270.147,118.831z M270.795,124.663
				c1.152,0,1.896-1.104,1.776-1.992c-0.264-1.752-0.864-3.168-2.448-3.168c-1.152,0-1.824,1.128-1.68,2.016
				C268.707,123.271,269.211,124.663,270.795,124.663z"/>
		</g>
		<path fill="none" stroke="#0A0A0A" stroke-width="2" d="M476.783,91.879v29.746"/>
		<g>
			<path d="M30.978,117.618v1.584c0,0.96,1.128,0.936,1.128,0.936v0.624h-5.208v-0.624c0,0,1.176,0.048,1.152-0.888v-1.632h-4.44
				l-0.432-0.456c2.904-3.912,2.928-4.632,3.624-8.184h4.152c-0.984,1.824-4.296,5.256-6.624,7.968h3.72v-2.952l2.928-3.216v6.168
				h1.728v0.672H30.978z"/>
		</g>
		<g>
			<path d="M28.45,104.978c-1.896,0-4.44-0.864-4.44-3.096c0-1.536,1.128-2.544,1.776-2.808c-1.2-0.672-1.536-1.776-1.536-2.76
				c0-2.28,2.016-3.192,4.2-3.216c3.192,0,4.08,1.392,4.128,2.976c0.024,0.888-0.432,1.728-1.152,2.328
				c0.864,0.432,1.584,1.296,1.584,2.568C33.01,103.417,30.514,104.978,28.45,104.978z M26.506,99.529
				c-0.792,0.48-1.272,0.912-1.248,1.92c0.024,1.608,0.72,2.76,2.928,2.76c0.72,0,2.376-0.792,2.376-1.944
				C30.562,100.37,27.49,99.698,26.506,99.529z M28.474,93.697c-1.176,0-2.448,0.672-2.256,1.68c0.192,1.008,3.384,2.16,4.392,2.496
				c0.408-0.432,0.84-1.152,0.792-1.8C31.306,94.85,30.658,93.697,28.474,93.697z"/>
		</g>
		<path fill="none" stroke="#0A0A0A" d="M472.783,91.879v29.746"/>
		<g>
			<path d="M160.594,95.677c2.664,0.024,5.184,1.032,5.376,3.264c0.144,1.632-2.016,3.12-4.68,3.12
				c-2.688-0.024-5.184-1.008-5.4-3.24C155.746,97.165,157.93,95.677,160.594,95.677z M161.242,101.509
				c1.152,0,1.896-1.104,1.776-1.992c-0.264-1.752-0.864-3.168-2.448-3.168c-1.152,0-1.824,1.128-1.68,2.016
				C159.154,100.117,159.658,101.509,161.242,101.509z"/>
		</g>
		<g>
			<path d="M388.095,103.176c2.664,0.024,5.184,1.032,5.376,3.264c0.144,1.632-2.016,3.12-4.68,3.12
				c-2.688-0.024-5.185-1.008-5.4-3.24C383.248,104.664,385.431,103.176,388.095,103.176z M388.743,109.008
				c1.152,0,1.896-1.104,1.776-1.992c-0.264-1.752-0.864-3.168-2.448-3.168c-1.151,0-1.823,1.128-1.68,2.016
				C386.655,107.616,387.159,109.008,388.743,109.008z"/>
		</g>
		<g>
			<path d="M306.106,110.318v-3.912h0.695v3.672l2.353-0.768v-3.504h0.696v3.288l0.936-0.312v2.496l-0.936,0.312v3.552l0.936-0.288
				v2.472l-0.936,0.312v3.912h-0.696v-3.696l-2.353,0.768v3.552h-0.695v-3.312l-1.032,0.336v-2.496l1.032-0.336v-3.576l-1.032,0.336
				v-2.472L306.106,110.318z M306.801,112.574v3.576l2.353-0.768v-3.576L306.801,112.574z"/>
		</g>
		<g>
			<path d="M85.698,117.814c0,0.216,0,1.536,0,1.536c0.912-0.816,1.416-0.984,2.424-1.008c1.2-0.024,1.968,1.176,1.992,2.136
				c0.024,0.504-0.12,1.032-0.312,1.44c-0.216,0.528-0.792,0.936-1.176,1.32c-0.432,0.432-3.552,2.568-3.552,2.616V111.67h0.624
				C85.698,111.67,85.722,114.646,85.698,117.814z M85.962,120.19c-0.312,0.6-0.264,1.632-0.264,2.376v2.064
				c0,0.024,0.864-0.72,1.344-1.176c0.432-0.408,0.768-0.864,0.936-1.584c0.192-0.72,0.12-1.488-0.336-1.992
				C87.33,119.518,86.466,119.23,85.962,120.19z"/>
		</g>
		<g>
			<path d="M187.698,94.814c0,0.216,0,1.536,0,1.536c0.912-0.816,1.416-0.984,2.424-1.008c1.2-0.024,1.968,1.176,1.992,2.136
				c0.024,0.504-0.12,1.032-0.312,1.44c-0.216,0.528-0.792,0.936-1.176,1.32c-0.432,0.432-3.552,2.568-3.552,2.616V88.67h0.624
				C187.698,88.67,187.722,91.646,187.698,94.814z M187.962,97.19c-0.312,0.6-0.264,1.632-0.264,2.376v2.064
				c0,0.024,0.864-0.72,1.344-1.176c0.432-0.408,0.768-0.864,0.936-1.584c0.192-0.72,0.12-1.488-0.336-1.992
				C189.33,96.518,188.466,96.23,187.962,97.19z"/>
		</g>
		<g>
			<g>
				<path d="M431.594,124.177c2.664,0.024,5.184,1.032,5.376,3.264c0.144,1.632-2.016,3.12-4.68,3.12
					c-2.688-0.024-5.185-1.008-5.4-3.24C426.747,125.665,428.93,124.177,431.594,124.177z M432.242,130.009
					c1.152,0,1.896-1.104,1.776-1.992c-0.264-1.752-0.864-3.168-2.448-3.168c-1.151,0-1.823,1.128-1.68,2.016
					C430.154,128.617,430.658,130.009,432.242,130.009z"/>
			</g>
			<path fill="none" stroke="#000000" d="M425.628,127.799h12"/>
		</g>
		<g>
			<path fill="none" stroke="#000000" d="M2.68,177.521h474.758"/>
			<path fill="none" stroke="#000000" d="M2.68,192.633h474.758"/>
			<path fill="none" stroke="#000000" d="M2.916,199.756h474.76"/>
			<path fill="none" stroke="#000000" d="M2.552,207.139H477.31"/>
			<path fill="none" stroke="#000000" d="M2.552,184.775H477.31"/>
		</g>
		<g>
			<path d="M63.146,203.142c2.664,0.024,5.184,1.032,5.376,3.264c0.144,1.632-2.016,3.12-4.68,3.12
				c-2.688-0.024-5.184-1.008-5.4-3.24C58.297,204.629,60.481,203.142,63.146,203.142z M63.793,208.974
				c1.152,0,1.896-1.104,1.776-1.992c-0.264-1.752-0.864-3.168-2.448-3.168c-1.152,0-1.824,1.128-1.68,2.016
				C61.706,207.582,62.209,208.974,63.793,208.974z"/>
		</g>
		<g>
			<path d="M102.146,192.642c2.664,0.024,5.184,1.032,5.376,3.264c0.144,1.632-2.016,3.12-4.68,3.12
				c-2.688-0.024-5.184-1.008-5.4-3.24C97.297,194.129,99.481,192.642,102.146,192.642z M102.793,198.474
				c1.152,0,1.896-1.104,1.776-1.992c-0.264-1.752-0.864-3.168-2.448-3.168c-1.152,0-1.824,1.128-1.68,2.016
				C100.706,197.082,101.209,198.474,102.793,198.474z"/>
		</g>
		<path fill="none" stroke="#0A0A0A" d="M136.342,177.258v29.746"/>
		<g>
			<path d="M322.645,192.142c2.664,0.024,5.184,1.032,5.376,3.264c0.144,1.632-2.016,3.12-4.68,3.12
				c-2.688-0.024-5.185-1.008-5.4-3.24C317.797,193.629,319.981,192.142,322.645,192.142z M323.292,197.974
				c1.152,0,1.896-1.104,1.776-1.992c-0.264-1.752-0.864-3.168-2.448-3.168c-1.151,0-1.823,1.128-1.68,2.016
				C321.205,196.582,321.708,197.974,323.292,197.974z"/>
		</g>
		<path fill="none" stroke="#0A0A0A" d="M242.618,177.258v29.746"/>
		<g>
			<path d="M204.146,185.142c2.664,0.024,5.184,1.032,5.376,3.264c0.144,1.632-2.016,3.12-4.68,3.12
				c-2.688-0.024-5.184-1.008-5.4-3.24C199.298,186.629,201.482,185.142,204.146,185.142z M204.794,190.974
				c1.152,0,1.896-1.104,1.776-1.992c-0.264-1.752-0.864-3.168-2.448-3.168c-1.152,0-1.824,1.128-1.68,2.016
				C202.706,189.582,203.21,190.974,204.794,190.974z"/>
		</g>
		<path fill="none" stroke="#0A0A0A" d="M360.963,177.982v29.746"/>
		<g>
			<path d="M431.699,200.796c2.664,0.024,5.184,1.032,5.376,3.264c0.144,1.632-2.016,3.12-4.68,3.12
				c-2.688-0.024-5.185-1.008-5.4-3.24C426.851,202.284,429.035,200.796,431.699,200.796z M432.346,206.628
				c1.152,0,1.896-1.104,1.776-1.992c-0.264-1.752-0.864-3.168-2.448-3.168c-1.151,0-1.823,1.128-1.68,2.016
				C430.258,205.236,430.762,206.628,432.346,206.628z"/>
		</g>
		<path fill="none" stroke="#0A0A0A" stroke-width="2" d="M478.334,177.844v29.746"/>
		<g>
			<path d="M32.53,202.583v1.584c0,0.96,1.128,0.936,1.128,0.936v0.624H28.45v-0.624c0,0,1.176,0.048,1.152-0.888v-1.632h-4.44
				l-0.432-0.456c2.904-3.912,2.928-4.632,3.624-8.184h4.152c-0.984,1.824-4.296,5.256-6.624,7.968h3.72v-2.952l2.928-3.216v6.168
				h1.728v0.672H32.53z"/>
		</g>
		<g>
			<path d="M30.001,190.943c-1.896,0-4.44-0.864-4.44-3.096c0-1.536,1.128-2.544,1.776-2.808c-1.2-0.672-1.536-1.776-1.536-2.76
				c0-2.28,2.016-3.192,4.2-3.216c3.192,0,4.08,1.392,4.128,2.976c0.024,0.888-0.432,1.728-1.152,2.328
				c0.864,0.432,1.584,1.296,1.584,2.568C34.562,189.383,32.065,190.943,30.001,190.943z M28.058,185.495
				c-0.792,0.48-1.272,0.912-1.248,1.92c0.024,1.608,0.72,2.76,2.928,2.76c0.72,0,2.376-0.792,2.376-1.944
				C32.114,186.335,29.042,185.664,28.058,185.495z M30.025,179.663c-1.176,0-2.448,0.672-2.256,1.68
				c0.192,1.008,3.384,2.16,4.392,2.496c0.408-0.432,0.84-1.152,0.792-1.8C32.857,180.815,32.209,179.663,30.025,179.663z"/>
		</g>
		<path fill="none" stroke="#0A0A0A" d="M474.334,177.844v29.746"/>
		<g>
			<path d="M275.145,192.642c2.664,0.024,5.184,1.032,5.376,3.264c0.144,1.632-2.016,3.12-4.68,3.12
				c-2.688-0.024-5.184-1.008-5.4-3.24C270.297,194.129,272.481,192.642,275.145,192.642z M275.793,198.474
				c1.152,0,1.896-1.104,1.776-1.992c-0.264-1.752-0.864-3.168-2.448-3.168c-1.152,0-1.824,1.128-1.68,2.016
				C273.705,197.082,274.209,198.474,275.793,198.474z"/>
		</g>
		<g>
			<path d="M163.146,177.142c2.664,0.024,5.184,1.032,5.376,3.264c0.144,1.632-2.016,3.12-4.68,3.12
				c-2.688-0.024-5.184-1.008-5.4-3.24C158.298,178.629,160.482,177.142,163.146,177.142z M163.794,182.974
				c1.152,0,1.896-1.104,1.776-1.992c-0.264-1.752-0.864-3.168-2.448-3.168c-1.152,0-1.824,1.128-1.68,2.016
				C161.706,181.582,162.21,182.974,163.794,182.974z"/>
		</g>
		<g>
			<path d="M387.647,185.142c2.664,0.024,5.184,1.032,5.376,3.264c0.144,1.632-2.016,3.12-4.68,3.12
				c-2.688-0.024-5.185-1.008-5.4-3.24C382.799,186.629,384.983,185.142,387.647,185.142z M388.294,190.974
				c1.152,0,1.896-1.104,1.776-1.992c-0.264-1.752-0.864-3.168-2.448-3.168c-1.151,0-1.823,1.128-1.68,2.016
				C386.207,189.582,386.71,190.974,388.294,190.974z"/>
		</g>
		<g>
			<path d="M89.658,191.283v-3.912h0.696v3.672l2.352-0.768v-3.504h0.696v3.288l0.936-0.312v2.496l-0.936,0.312v3.552l0.936-0.288
				v2.472l-0.936,0.312v3.912h-0.696v-3.696l-2.352,0.768v3.552h-0.696v-3.312l-1.032,0.336v-2.496l1.032-0.336v-3.576l-1.032,0.336
				v-2.472L89.658,191.283z M90.354,193.54v3.576l2.352-0.768v-3.576L90.354,193.54z"/>
		</g>
		<g>
			<path d="M15.179,195.374c-0.937,1.135-1.526,1.76-2.704,2.667c-1.418,1.107-2.382,1.561-4.042,2.242
				c-1.606,0.625-4.31,1.135-4.31,1.135l-0.188-0.426c0,0,4.523-1.447,6.745-3.944c2.917-3.207,4.443-7.094,4.363-12.06
				c-0.027-2.242-0.696-6.442-4.069-6.47c-1.927,0-4.657,1.76-4.47,3.944c0.053,0.313,0.803-0.34,2.275-0.284
				c1.553,0.057,2.382,2.1,2.008,3.689c-0.268,1.249-1.018,2.043-2.382,2.043c-1.74,0-3.292-1.306-3.319-3.462
				c-0.053-3.264,1.66-4.91,2.704-5.59c1.312-0.852,2.73-1.164,3.935-1.164c2.704-0.057,5.702,2.015,6.719,5.023
				c0.589,1.702,0.589,3.604,0.134,5.817c-0.294,1.504-0.669,2.327-1.338,3.689C16.57,193.529,16.089,194.239,15.179,195.374z
				 M21.389,179.766c0.83,0,1.499,0.625,1.499,1.476c0.027,0.852-0.642,1.589-1.445,1.589c-0.803,0.028-1.499-0.681-1.499-1.532
				C19.917,180.419,20.585,179.795,21.389,179.766z M21.415,186.917c0.803,0,1.472,0.624,1.499,1.476
				c0,0.879-0.642,1.589-1.445,1.589c-0.83,0.028-1.499-0.652-1.526-1.532C19.943,187.599,20.585,186.946,21.415,186.917z"/>
		</g>
		<g>
			<path d="M50.25,120.779c0,0.216,0,1.536,0,1.536c0.912-0.816,1.416-0.984,2.424-1.008c1.2-0.024,1.968,1.176,1.992,2.136
				c0.024,0.504-0.12,1.032-0.312,1.44c-0.216,0.528-0.792,0.936-1.176,1.32c-0.432,0.432-3.552,2.568-3.552,2.616v-14.184h0.624
				C50.25,114.635,50.273,117.611,50.25,120.779z M50.514,123.155c-0.312,0.6-0.264,1.632-0.264,2.376v2.064
				c0,0.024,0.864-0.72,1.344-1.176c0.432-0.408,0.768-0.864,0.936-1.584c0.192-0.72,0.12-1.488-0.336-1.992
				C51.881,122.483,51.018,122.195,50.514,123.155z"/>
		</g>
		<g>
			<path fill="none" stroke="#000000" d="M0.128,4.556h474.758"/>
			<path fill="none" stroke="#000000" d="M0.128,19.668h474.758"/>
			<path fill="none" stroke="#000000" d="M0.364,26.791h474.76"/>
			<path fill="none" stroke="#000000" d="M0,34.174h474.758"/>
			<path fill="none" stroke="#000000" d="M0,11.81h474.758"/>
		</g>
		<g>
			<path d="M7.876,33.768c-4.944-2.352-5.736-5.376-5.952-8.472c-0.24-3.36,1.896-6.768,3.888-8.664
				c1.152-1.08,2.4-2.136,3.888-3.264c-0.048-0.84-0.24-1.176-0.336-2.376C9.34,10.488,9.028,8.136,9.532,5.424
				c0.312-1.608,2.328-5.4,3.72-5.424c1.08-0.024,2.736,4.296,2.784,6.456c0.072,3.336-0.72,4.848-1.704,6.576
				c-0.504,0.864-1.032,1.464-1.584,2.136c-0.576,0.696-1.224,1.104-1.824,1.632c0,0,0.768,4.344,0.792,4.656
				c1.536-0.192,3.408,0.36,4.08,0.84c1.704,1.272,2.352,3.024,2.472,4.728c0.216,2.712-1.272,5.568-4.56,6.936
				c0,0,0.504,3.456,0.624,4.176c0.264,1.896,0.216,3.096-0.192,3.864c-0.696,1.296-1.824,2.496-4.008,2.64
				c-1.68,0.096-4.992-0.744-5.16-3.384c-0.096-1.56,0.6-3.24,2.496-3.36c1.152-0.096,2.52,0.864,2.616,2.232
				c0.096,1.176-0.672,2.4-2.664,2.952c0.312,0.432,1.248,0.936,2.592,0.936c1.392,0,2.832-0.936,3.528-2.184
				c0.432-0.816,0.384-2.28,0.216-3.624c-0.072-0.456-0.648-4.08-0.648-4.08C11.332,34.416,8.884,34.248,7.876,33.768z M8.356,28.08
				c0.048,1.152,1.008,2.496,1.896,2.952c-0.12,0.072-0.24,0.264-0.24,0.264c-0.984-0.48-1.824-1.272-2.04-1.56
				c-0.696-0.936-0.984-1.464-1.08-2.88c-0.096-1.32,0.624-3.096,2.232-4.344c0.84-0.624,1.248-0.768,1.968-0.936l-0.72-4.344
				c-0.744,0.432-3.816,2.904-5.112,4.92c-1.152,1.8-1.848,3.24-1.704,5.016c0.288,4.008,4.68,7.296,9.432,6.168
				c0,0-1.416-8.52-1.392-8.52C8.98,24.912,8.284,26.928,8.356,28.08z M10.3,12.864c2.088-1.632,4.92-4.704,4.752-7.08
				c-0.048-0.744-0.36-2.088-1.44-2.064C11.14,3.744,9.748,8.904,10.3,12.864z M13.564,33.144c2.76-0.936,2.88-3.312,2.784-4.728
				c-0.096-1.176-0.624-3.816-4.128-3.648L13.564,33.144z"/>
		</g>
		<g>
			<path d="M60.594,34.176c2.664,0.024,5.184,1.032,5.376,3.264c0.144,1.632-2.016,3.12-4.68,3.12
				c-2.688-0.024-5.184-1.008-5.4-3.24C55.746,35.664,57.93,34.176,60.594,34.176z M61.242,40.008c1.152,0,1.896-1.104,1.776-1.992
				c-0.264-1.752-0.864-3.168-2.448-3.168c-1.152,0-1.824,1.128-1.68,2.016C59.154,38.616,59.658,40.008,61.242,40.008z"/>
		</g>
		<g>
			<path d="M96.594,23.677c2.664,0.024,5.184,1.032,5.376,3.264c0.144,1.632-2.016,3.12-4.68,3.12
				c-2.688-0.024-5.184-1.008-5.4-3.24C91.746,25.165,93.93,23.677,96.594,23.677z M97.242,29.509c1.152,0,1.896-1.104,1.776-1.992
				c-0.264-1.752-0.864-3.168-2.448-3.168c-1.152,0-1.824,1.128-1.68,2.016C95.154,28.117,95.658,29.509,97.242,29.509z"/>
		</g>
		<path fill="none" stroke="#0A0A0A" d="M133.79,4.292v29.746"/>
		<g>
			<path d="M204.093,16.177c2.664,0.024,5.184,1.032,5.376,3.264c0.144,1.632-2.016,3.12-4.68,3.12
				c-2.688-0.024-5.184-1.008-5.4-3.24C199.245,17.665,201.429,16.177,204.093,16.177z M204.741,22.009
				c1.152,0,1.896-1.104,1.776-1.992c-0.264-1.752-0.864-3.168-2.448-3.168c-1.152,0-1.824,1.128-1.68,2.016
				C202.653,20.617,203.157,22.009,204.741,22.009z"/>
		</g>
		<path fill="none" stroke="#0A0A0A" d="M240.066,4.292v29.746"/>
		<g>
			<path d="M319.594,30.176c2.664,0.024,5.184,1.032,5.376,3.264c0.144,1.632-2.016,3.12-4.68,3.12
				c-2.688-0.024-5.185-1.008-5.4-3.24C314.747,31.664,316.93,30.176,319.594,30.176z M320.242,36.008
				c1.152,0,1.896-1.104,1.776-1.992c-0.264-1.752-0.864-3.168-2.448-3.168c-1.151,0-1.823,1.128-1.68,2.016
				C318.154,34.616,318.658,36.008,320.242,36.008z"/>
		</g>
		<path fill="none" stroke="#0A0A0A" d="M358.412,5.017v29.746"/>
		<g>
			<path d="M387.147,19.831c2.664,0.024,5.184,1.032,5.376,3.264c0.144,1.632-2.016,3.12-4.68,3.12
				c-2.688-0.024-5.185-1.008-5.4-3.24C382.299,21.318,384.483,19.831,387.147,19.831z M387.794,25.663
				c1.152,0,1.896-1.104,1.776-1.992c-0.264-1.752-0.864-3.168-2.448-3.168c-1.151,0-1.823,1.128-1.68,2.016
				C385.707,24.271,386.21,25.663,387.794,25.663z"/>
		</g>
		<path fill="none" stroke="#0A0A0A" stroke-width="2" d="M475.783,4.879v29.746"/>
		<g>
			<path d="M29.978,30.618v1.584c0,0.96,1.128,0.936,1.128,0.936v0.624h-5.208v-0.624c0,0,1.176,0.048,1.152-0.888v-1.632h-4.44
				l-0.432-0.456c2.904-3.912,2.928-4.632,3.624-8.184h4.152c-0.984,1.824-4.296,5.256-6.624,7.968h3.72v-2.952l2.928-3.216v6.168
				h1.728v0.672H29.978z"/>
		</g>
		<g>
			<path d="M27.45,17.978c-1.896,0-4.44-0.864-4.44-3.096c0-1.536,1.128-2.544,1.776-2.808c-1.2-0.672-1.536-1.776-1.536-2.76
				c0-2.28,2.016-3.192,4.2-3.216c3.192,0,4.08,1.392,4.128,2.976c0.024,0.888-0.432,1.728-1.152,2.328
				c0.864,0.432,1.584,1.296,1.584,2.568C32.01,16.417,29.514,17.978,27.45,17.978z M25.506,12.529
				c-0.792,0.48-1.272,0.912-1.248,1.92c0.024,1.608,0.72,2.76,2.928,2.76c0.72,0,2.376-0.792,2.376-1.944
				C29.562,13.37,26.49,12.698,25.506,12.529z M27.474,6.697c-1.176,0-2.448,0.672-2.256,1.68c0.192,1.008,3.384,2.16,4.392,2.496
				c0.408-0.432,0.84-1.152,0.792-1.8C30.306,7.85,29.658,6.697,27.474,6.697z"/>
		</g>
		<path fill="none" stroke="#0A0A0A" d="M471.783,4.879v29.746"/>
		<g>
			<path d="M159.594,12.677c2.664,0.024,5.184,1.032,5.376,3.264c0.144,1.632-2.016,3.12-4.68,3.12
				c-2.688-0.024-5.184-1.008-5.4-3.24C154.746,14.165,156.93,12.677,159.594,12.677z M160.242,18.509
				c1.152,0,1.896-1.104,1.776-1.992c-0.264-1.752-0.864-3.168-2.448-3.168c-1.152,0-1.824,1.128-1.68,2.016
				C158.154,17.117,158.658,18.509,160.242,18.509z"/>
		</g>
		<g>
			<path d="M429.594,38.177c2.664,0.024,5.184,1.032,5.376,3.264c0.144,1.632-2.016,3.12-4.68,3.12
				c-2.688-0.024-5.185-1.008-5.4-3.24C424.747,39.665,426.93,38.177,429.594,38.177z M430.242,44.009
				c1.152,0,1.896-1.104,1.776-1.992c-0.264-1.752-0.864-3.168-2.448-3.168c-1.151,0-1.823,1.128-1.68,2.016
				C428.154,42.617,428.658,44.009,430.242,44.009z"/>
		</g>
		<g>
			<path d="M272.095,23.176c2.664,0.024,5.184,1.032,5.376,3.264c0.144,1.632-2.016,3.12-4.68,3.12
				c-2.688-0.024-5.184-1.008-5.4-3.24C267.247,24.664,269.431,23.176,272.095,23.176z M272.743,29.008
				c1.152,0,1.896-1.104,1.776-1.992c-0.264-1.752-0.864-3.168-2.448-3.168c-1.152,0-1.824,1.128-1.68,2.016
				C270.655,27.616,271.159,29.008,272.743,29.008z"/>
		</g>
		<g>
			<path d="M214.106,99.318v-3.912h0.696v3.672l2.352-0.768v-3.504h0.696v3.288l0.936-0.312v2.496l-0.936,0.312v3.552l0.936-0.288
				v2.472l-0.936,0.312v3.912h-0.696v-3.696l-2.352,0.768v3.552h-0.696v-3.312l-1.032,0.336v-2.496l1.032-0.336v-3.576l-1.032,0.336
				v-2.472L214.106,99.318z M214.802,101.574v3.576l2.352-0.768v-3.576L214.802,101.574z"/>
		</g>
		<g>
			<path d="M192.698,15.814c0,0.216,0,1.536,0,1.536c0.912-0.816,1.416-0.984,2.424-1.008c1.2-0.024,1.968,1.176,1.992,2.136
				c0.024,0.504-0.12,1.032-0.312,1.44c-0.216,0.528-0.792,0.936-1.176,1.32c-0.432,0.432-3.552,2.568-3.552,2.616V9.67h0.624
				C192.698,9.67,192.722,12.646,192.698,15.814z M192.962,18.19c-0.312,0.6-0.264,1.632-0.264,2.376v2.064
				c0,0.024,0.864-0.72,1.344-1.176c0.432-0.408,0.768-0.864,0.936-1.584c0.192-0.72,0.12-1.488-0.336-1.992
				C194.33,17.518,193.466,17.23,192.962,18.19z"/>
		</g>
		<g>
			<path d="M307.698,30.814c0,0.216,0,1.536,0,1.536c0.912-0.816,1.416-0.984,2.424-1.008c1.2-0.024,1.968,1.176,1.992,2.136
				c0.024,0.504-0.12,1.032-0.312,1.44c-0.217,0.528-0.793,0.936-1.177,1.32c-0.432,0.432-3.552,2.568-3.552,2.616V24.67h0.624
				C307.698,24.67,307.722,27.646,307.698,30.814z M307.961,33.19c-0.312,0.6-0.264,1.632-0.264,2.376v2.064
				c0,0.024,0.864-0.72,1.344-1.176c0.433-0.408,0.769-0.864,0.937-1.584c0.191-0.72,0.12-1.488-0.336-1.992
				C309.33,32.518,308.465,32.23,307.961,33.19z"/>
		</g>
		<path fill="none" stroke="#000000" d="M423.628,41.799h12"/>
		<g>
			<path d="M224.095,99.176c2.664,0.024,5.184,1.032,5.376,3.264c0.144,1.632-2.016,3.12-4.68,3.12
				c-2.688-0.024-5.184-1.008-5.4-3.24C219.247,100.664,221.431,99.176,224.095,99.176z M224.743,105.008
				c1.152,0,1.896-1.104,1.776-1.992c-0.264-1.752-0.864-3.168-2.448-3.168c-1.152,0-1.824,1.128-1.68,2.016
				C222.655,103.616,223.159,105.008,224.743,105.008z"/>
		</g>
		<g>
			<path d="M211.547,97.064c-0.876,1.188-1.5,2.736-1.5,4.92c0,2.136,0.66,3.66,1.5,4.86h-0.816
				c-0.756-0.996-1.572-2.532-1.572-4.872c0.012-2.352,0.816-3.9,1.572-4.908H211.547z"/>
			<path d="M229.846,106.844c0.84-1.188,1.5-2.736,1.5-4.896c0-2.16-0.648-3.684-1.5-4.884h0.816
				c0.756,0.984,1.572,2.532,1.572,4.884c-0.012,2.352-0.816,3.876-1.572,4.896H229.846z"/>
		</g>
		<g>
			<path d="M261.698,191.814c0,0.216,0,1.536,0,1.536c0.912-0.816,1.416-0.984,2.424-1.008c1.2-0.024,1.968,1.176,1.992,2.136
				c0.024,0.504-0.12,1.032-0.312,1.44c-0.216,0.528-0.792,0.936-1.176,1.32c-0.432,0.432-3.552,2.568-3.552,2.616V185.67h0.624
				C261.698,185.67,261.722,188.646,261.698,191.814z M261.962,194.19c-0.312,0.6-0.264,1.632-0.264,2.376v2.064
				c0,0.024,0.864-0.72,1.344-1.176c0.432-0.408,0.768-0.864,0.936-1.584c0.192-0.72,0.12-1.488-0.336-1.992
				C263.33,193.518,262.466,193.23,261.962,194.19z"/>
		</g>
		<g>
			<path d="M313.564,191.095v13.704h-0.623v-5.136l-3.337,0.864v-13.872h0.601v5.352L313.564,191.095z M310.205,194.311v3.768
				l2.736-0.72v-3.768L310.205,194.311z"/>
		</g>
		<g>
			<path d="M38.824,52.887h-2.976l-0.3,1.98c0.18-0.024,0.348-0.048,0.636-0.048c0.612,0,1.2,0.132,1.68,0.42
				c0.612,0.336,1.116,1.02,1.116,2.028c0,1.524-1.212,2.664-2.904,2.664c-0.852,0-1.56-0.24-1.944-0.48l0.264-0.804
				c0.324,0.192,0.96,0.432,1.68,0.432c0.984,0,1.848-0.648,1.836-1.704c0-1.032-0.684-1.74-2.232-1.74
				c-0.456,0-0.804,0.036-1.092,0.084l0.504-3.72h3.732V52.887z"/>
			<path d="M43.204,51.279h1.056v3.624h0.024c0.168-0.3,0.432-0.576,0.756-0.744c0.312-0.192,0.684-0.3,1.08-0.3
				c0.78,0,2.028,0.48,2.028,2.484v3.456h-1.056v-3.336c0-0.948-0.348-1.728-1.344-1.728c-0.684,0-1.212,0.48-1.416,1.056
				c-0.06,0.144-0.072,0.3-0.072,0.504v3.504h-1.056V51.279z"/>
			<path d="M53.956,58.407c0,0.504,0.024,0.996,0.084,1.392h-0.948l-0.096-0.732H52.96c-0.312,0.456-0.948,0.864-1.776,0.864
				c-1.176,0-1.776-0.828-1.776-1.668c0-1.404,1.248-2.172,3.492-2.16v-0.12c0-0.48-0.132-1.356-1.32-1.344
				c-0.552,0-1.116,0.156-1.524,0.432l-0.24-0.708c0.48-0.3,1.188-0.504,1.92-0.504c1.788,0,2.22,1.212,2.22,2.376V58.407z
				 M52.924,56.835c-1.152-0.024-2.46,0.18-2.46,1.308c0,0.696,0.456,1.008,0.984,1.008c0.768,0,1.26-0.48,1.428-0.972
				c0.036-0.108,0.048-0.228,0.048-0.336V56.835z"/>
			<path d="M55.648,51.279h1.056v8.52h-1.056V51.279z"/>
			<path d="M58.552,59.799v-5.004h-0.804v-0.804h0.804v-0.276c0-0.816,0.192-1.56,0.684-2.028c0.396-0.384,0.924-0.54,1.404-0.54
				c0.384,0,0.696,0.084,0.9,0.168l-0.132,0.816c-0.168-0.072-0.372-0.132-0.684-0.132c-0.888,0-1.128,0.792-1.128,1.68v0.312H61
				v0.804h-1.392v5.004H58.552z"/>
			<path d="M64.36,58.731c0.324,0.192,0.876,0.408,1.404,0.408c0.756,0,1.116-0.372,1.116-0.864c0-0.504-0.3-0.78-1.068-1.068
				c-1.056-0.384-1.548-0.948-1.548-1.644c0-0.936,0.768-1.704,2.004-1.704c0.588,0,1.104,0.156,1.416,0.36l-0.252,0.756
				c-0.228-0.132-0.648-0.336-1.188-0.336c-0.624,0-0.96,0.36-0.96,0.792c0,0.492,0.336,0.708,1.092,0.996
				c0.996,0.372,1.524,0.876,1.524,1.752c0,1.032-0.804,1.752-2.16,1.752c-0.636,0-1.224-0.168-1.632-0.408L64.36,58.731z"/>
			<path d="M70.528,52.599v1.392h1.512v0.804h-1.512v3.132c0,0.72,0.204,1.128,0.792,1.128c0.288,0,0.456-0.024,0.612-0.072
				l0.048,0.804c-0.204,0.072-0.528,0.144-0.936,0.144c-0.492,0-0.888-0.168-1.14-0.444c-0.288-0.324-0.408-0.84-0.408-1.524v-3.168
				h-0.9v-0.804h0.9v-1.068L70.528,52.599z"/>
			<path d="M73.755,57.075c0.024,1.428,0.924,2.016,1.98,2.016c0.756,0,1.224-0.132,1.608-0.288l0.192,0.744
				c-0.372,0.168-1.02,0.372-1.944,0.372c-1.776,0-2.856-1.188-2.856-2.928c0-1.764,1.044-3.144,2.736-3.144
				c1.896,0,2.388,1.668,2.388,2.736c0,0.216-0.012,0.384-0.036,0.504L73.755,57.075z M76.84,56.319
				c0.012-0.66-0.276-1.716-1.452-1.716c-1.08,0-1.536,0.984-1.62,1.716H76.84z"/>
			<path d="M79.167,55.887c0-0.744-0.012-1.344-0.048-1.896h0.948l0.06,0.996h0.024c0.42-0.72,1.116-1.128,2.052-1.128
				c1.416,0,2.472,1.188,2.472,2.952c0,2.088-1.284,3.12-2.64,3.12c-0.78,0-1.44-0.336-1.788-0.912h-0.024v3.156h-1.056V55.887z
				 M80.224,57.435c0,0.144,0.012,0.3,0.048,0.432c0.18,0.732,0.828,1.236,1.572,1.236c1.116,0,1.764-0.912,1.764-2.244
				c0-1.164-0.6-2.16-1.716-2.16c-0.72,0-1.404,0.504-1.608,1.296c-0.024,0.144-0.06,0.3-0.06,0.432V57.435z"/>
			<path d="M85.851,58.731c0.324,0.192,0.876,0.408,1.404,0.408c0.756,0,1.116-0.372,1.116-0.864c0-0.504-0.3-0.78-1.068-1.068
				c-1.056-0.384-1.548-0.948-1.548-1.644c0-0.936,0.768-1.704,2.004-1.704c0.588,0,1.104,0.156,1.416,0.36l-0.252,0.756
				c-0.228-0.132-0.648-0.336-1.188-0.336c-0.624,0-0.96,0.36-0.96,0.792c0,0.492,0.336,0.708,1.092,0.996
				c0.996,0.372,1.524,0.876,1.524,1.752c0,1.032-0.804,1.752-2.16,1.752c-0.636,0-1.224-0.168-1.632-0.408L85.851,58.731z"/>
			<path d="M93.291,51.279h1.056v3.624h0.024c0.168-0.3,0.432-0.576,0.756-0.744c0.312-0.192,0.684-0.3,1.08-0.3
				c0.78,0,2.028,0.48,2.028,2.484v3.456h-1.056v-3.336c0-0.948-0.348-1.728-1.344-1.728c-0.684,0-1.212,0.48-1.416,1.056
				c-0.06,0.144-0.072,0.3-0.072,0.504v3.504h-1.056V51.279z"/>
			<path d="M100.455,52.923c-0.396,0-0.66-0.312-0.66-0.684s0.276-0.672,0.684-0.672c0.408,0,0.672,0.3,0.672,0.672
				s-0.264,0.684-0.684,0.684H100.455z M99.951,59.799v-5.808h1.056v5.808H99.951z"/>
			<path d="M107.727,58.947c0,1.344-0.276,2.148-0.828,2.664c-0.576,0.516-1.392,0.696-2.124,0.696c-0.696,0-1.464-0.168-1.932-0.48
				l0.264-0.816c0.384,0.252,0.984,0.468,1.704,0.468c1.08,0,1.872-0.564,1.872-2.04v-0.636h-0.024
				c-0.312,0.54-0.948,0.972-1.848,0.972c-1.44,0-2.472-1.224-2.472-2.844c0-1.968,1.284-3.072,2.628-3.072
				c1.008,0,1.548,0.516,1.812,0.996h0.024l0.036-0.864h0.936c-0.036,0.408-0.048,0.876-0.048,1.584V58.947z M106.671,56.271
				c0-0.168-0.012-0.324-0.06-0.468c-0.192-0.624-0.696-1.128-1.476-1.128c-1.008,0-1.728,0.852-1.728,2.208
				c0,1.128,0.588,2.088,1.716,2.088c0.66,0,1.248-0.408,1.464-1.092c0.06-0.168,0.084-0.372,0.084-0.564V56.271z"/>
			<path d="M109.467,51.279h1.056v3.624h0.024c0.168-0.3,0.432-0.576,0.756-0.744c0.312-0.192,0.684-0.3,1.08-0.3
				c0.78,0,2.028,0.48,2.028,2.484v3.456h-1.056v-3.336c0-0.948-0.348-1.728-1.344-1.728c-0.684,0-1.212,0.48-1.416,1.056
				c-0.06,0.144-0.072,0.3-0.072,0.504v3.504h-1.056V51.279z"/>
			<path d="M116.727,57.075c0.024,1.428,0.924,2.016,1.98,2.016c0.756,0,1.224-0.132,1.608-0.288l0.192,0.744
				c-0.372,0.168-1.02,0.372-1.944,0.372c-1.776,0-2.856-1.188-2.856-2.928c0-1.764,1.044-3.144,2.736-3.144
				c1.896,0,2.388,1.668,2.388,2.736c0,0.216-0.012,0.384-0.036,0.504L116.727,57.075z M119.811,56.319
				c0.012-0.66-0.276-1.716-1.452-1.716c-1.08,0-1.536,0.984-1.62,1.716H119.811z"/>
			<path d="M122.151,55.803c0-0.684-0.012-1.272-0.048-1.812h0.924l0.048,1.14h0.036c0.264-0.78,0.912-1.272,1.62-1.272
				c0.108,0,0.192,0.012,0.288,0.036v0.984c-0.12-0.012-0.228-0.024-0.372-0.024c-0.744,0-1.272,0.564-1.416,1.344
				c-0.024,0.156-0.036,0.324-0.036,0.504v3.096h-1.056L122.151,55.803z"/>
			<path d="M140.738,52.983h-0.024l-1.356,0.732l-0.204-0.804l1.704-0.912h0.9v7.8h-1.02V52.983z"/>
			<path d="M147.902,53.991l0.78,2.94c0.156,0.648,0.312,1.26,0.42,1.86h0.036c0.132-0.588,0.324-1.212,0.516-1.848l0.948-2.952
				h0.888l0.9,2.904c0.216,0.684,0.384,1.308,0.516,1.896h0.036c0.096-0.588,0.252-1.2,0.444-1.884l0.828-2.916h1.044l-1.872,5.808
				h-0.96l-0.888-2.772c-0.204-0.66-0.372-1.236-0.516-1.92h-0.024c-0.144,0.696-0.324,1.308-0.528,1.932l-0.936,2.76h-0.96
				l-1.752-5.808H147.902z"/>
			<path d="M156.313,51.279h1.056v3.624h0.024c0.168-0.3,0.432-0.576,0.756-0.744c0.312-0.192,0.684-0.3,1.08-0.3
				c0.78,0,2.028,0.48,2.028,2.484v3.456h-1.056v-3.336c0-0.948-0.348-1.728-1.344-1.728c-0.684,0-1.212,0.48-1.416,1.056
				c-0.06,0.144-0.072,0.3-0.072,0.504v3.504h-1.056V51.279z"/>
			<path d="M165.337,59.931c-1.56,0-2.784-1.152-2.784-2.988c0-1.944,1.284-3.084,2.88-3.084c1.668,0,2.796,1.212,2.796,2.976
				c0,2.16-1.5,3.096-2.88,3.096H165.337z M165.374,59.139c1.008,0,1.764-0.948,1.764-2.268c0-0.984-0.492-2.22-1.74-2.22
				c-1.236,0-1.776,1.152-1.776,2.256c0,1.272,0.72,2.232,1.74,2.232H165.374z"/>
			<path d="M169.562,51.279h1.056v8.52h-1.056V51.279z"/>
			<path d="M172.969,57.075c0.024,1.428,0.924,2.016,1.98,2.016c0.756,0,1.224-0.132,1.608-0.288l0.192,0.744
				c-0.372,0.168-1.02,0.372-1.944,0.372c-1.776,0-2.856-1.188-2.856-2.928c0-1.764,1.044-3.144,2.736-3.144
				c1.896,0,2.388,1.668,2.388,2.736c0,0.216-0.012,0.384-0.036,0.504L172.969,57.075z M176.054,56.319
				c0.012-0.66-0.276-1.716-1.452-1.716c-1.08,0-1.536,0.984-1.62,1.716H176.054z"/>
			<path d="M180.781,58.731c0.324,0.192,0.876,0.408,1.404,0.408c0.756,0,1.116-0.372,1.116-0.864c0-0.504-0.3-0.78-1.068-1.068
				c-1.056-0.384-1.548-0.948-1.548-1.644c0-0.936,0.768-1.704,2.004-1.704c0.588,0,1.104,0.156,1.416,0.36l-0.252,0.756
				c-0.228-0.132-0.648-0.336-1.188-0.336c-0.624,0-0.96,0.36-0.96,0.792c0,0.492,0.336,0.708,1.092,0.996
				c0.996,0.372,1.524,0.876,1.524,1.752c0,1.032-0.804,1.752-2.16,1.752c-0.636,0-1.224-0.168-1.632-0.408L180.781,58.731z"/>
			<path d="M186.949,52.599v1.392h1.512v0.804h-1.512v3.132c0,0.72,0.204,1.128,0.792,1.128c0.288,0,0.456-0.024,0.612-0.072
				l0.048,0.804c-0.204,0.072-0.528,0.144-0.936,0.144c-0.492,0-0.888-0.168-1.14-0.444c-0.288-0.324-0.408-0.84-0.408-1.524v-3.168
				h-0.9v-0.804h0.9v-1.068L186.949,52.599z"/>
			<path d="M190.177,57.075c0.024,1.428,0.924,2.016,1.98,2.016c0.756,0,1.224-0.132,1.608-0.288l0.192,0.744
				c-0.372,0.168-1.02,0.372-1.944,0.372c-1.776,0-2.856-1.188-2.856-2.928c0-1.764,1.044-3.144,2.736-3.144
				c1.896,0,2.388,1.668,2.388,2.736c0,0.216-0.012,0.384-0.036,0.504L190.177,57.075z M193.261,56.319
				c0.012-0.66-0.276-1.716-1.452-1.716c-1.08,0-1.536,0.984-1.62,1.716H193.261z"/>
			<path d="M195.589,55.887c0-0.744-0.012-1.344-0.048-1.896h0.948l0.06,0.996h0.024c0.42-0.72,1.116-1.128,2.052-1.128
				c1.416,0,2.472,1.188,2.472,2.952c0,2.088-1.284,3.12-2.64,3.12c-0.78,0-1.44-0.336-1.788-0.912h-0.024v3.156h-1.056V55.887z
				 M196.645,57.435c0,0.144,0.012,0.3,0.048,0.432c0.18,0.732,0.828,1.236,1.572,1.236c1.116,0,1.764-0.912,1.764-2.244
				c0-1.164-0.6-2.16-1.716-2.16c-0.72,0-1.404,0.504-1.608,1.296c-0.024,0.144-0.06,0.3-0.06,0.432V57.435z"/>
			<path d="M204.961,51.279h1.056v8.52h-1.056V51.279z"/>
			<path d="M210.133,59.931c-1.56,0-2.784-1.152-2.784-2.988c0-1.944,1.284-3.084,2.88-3.084c1.668,0,2.796,1.212,2.796,2.976
				c0,2.16-1.5,3.096-2.88,3.096H210.133z M210.169,59.139c1.008,0,1.764-0.948,1.764-2.268c0-0.984-0.492-2.22-1.74-2.22
				c-1.236,0-1.776,1.152-1.776,2.256c0,1.272,0.72,2.232,1.74,2.232H210.169z"/>
			<path d="M214.693,53.991l0.78,2.94c0.156,0.648,0.312,1.26,0.42,1.86h0.036c0.132-0.588,0.324-1.212,0.516-1.848l0.948-2.952
				h0.888l0.9,2.904c0.216,0.684,0.384,1.308,0.516,1.896h0.036c0.096-0.588,0.252-1.2,0.444-1.884l0.828-2.916h1.044l-1.872,5.808
				h-0.96l-0.888-2.772c-0.204-0.66-0.372-1.236-0.516-1.92h-0.024c-0.144,0.696-0.324,1.308-0.528,1.932l-0.936,2.76h-0.96
				l-1.752-5.808H214.693z"/>
			<path d="M223.597,57.075c0.024,1.428,0.924,2.016,1.98,2.016c0.756,0,1.224-0.132,1.608-0.288l0.192,0.744
				c-0.372,0.168-1.02,0.372-1.944,0.372c-1.776,0-2.856-1.188-2.856-2.928c0-1.764,1.044-3.144,2.736-3.144
				c1.896,0,2.388,1.668,2.388,2.736c0,0.216-0.012,0.384-0.036,0.504L223.597,57.075z M226.681,56.319
				c0.012-0.66-0.276-1.716-1.452-1.716c-1.08,0-1.536,0.984-1.62,1.716H226.681z"/>
			<path d="M229.021,55.803c0-0.684-0.012-1.272-0.048-1.812h0.924l0.048,1.14h0.036c0.264-0.78,0.912-1.272,1.62-1.272
				c0.108,0,0.192,0.012,0.288,0.036v0.984c-0.12-0.012-0.228-0.024-0.372-0.024c-0.744,0-1.272,0.564-1.416,1.344
				c-0.024,0.156-0.036,0.324-0.036,0.504v3.096h-1.056L229.021,55.803z"/>
			<path d="M245.316,59.799v-0.648l0.828-0.804c1.992-1.896,2.904-2.904,2.904-4.08c0-0.792-0.372-1.524-1.536-1.524
				c-0.708,0-1.296,0.36-1.656,0.66l-0.336-0.744c0.528-0.444,1.308-0.792,2.208-0.792c1.668,0,2.376,1.152,2.376,2.268
				c0,1.44-1.044,2.604-2.688,4.188l-0.612,0.576v0.024h3.492v0.876H245.316z"/>
			<path d="M254.772,53.991l0.78,2.94c0.156,0.648,0.312,1.26,0.42,1.86h0.036c0.132-0.588,0.324-1.212,0.516-1.848l0.948-2.952
				h0.888l0.9,2.904c0.216,0.684,0.384,1.308,0.516,1.896h0.036c0.096-0.588,0.252-1.2,0.444-1.884l0.828-2.916h1.044l-1.872,5.808
				h-0.96l-0.888-2.772c-0.204-0.66-0.372-1.236-0.516-1.92h-0.024c-0.144,0.696-0.324,1.308-0.528,1.932l-0.936,2.76h-0.96
				l-1.752-5.808H254.772z"/>
			<path d="M263.184,51.279h1.056v3.624h0.024c0.168-0.3,0.432-0.576,0.756-0.744c0.312-0.192,0.684-0.3,1.08-0.3
				c0.78,0,2.028,0.48,2.028,2.484v3.456h-1.056v-3.336c0-0.948-0.348-1.728-1.344-1.728c-0.684,0-1.212,0.48-1.416,1.056
				c-0.06,0.144-0.072,0.3-0.072,0.504v3.504h-1.056V51.279z"/>
			<path d="M272.208,59.931c-1.56,0-2.784-1.152-2.784-2.988c0-1.944,1.284-3.084,2.88-3.084c1.668,0,2.796,1.212,2.796,2.976
				c0,2.16-1.5,3.096-2.88,3.096H272.208z M272.244,59.139c1.008,0,1.764-0.948,1.764-2.268c0-0.984-0.492-2.22-1.74-2.22
				c-1.236,0-1.776,1.152-1.776,2.256c0,1.272,0.72,2.232,1.74,2.232H272.244z"/>
			<path d="M276.432,51.279h1.056v8.52h-1.056V51.279z"/>
			<path d="M279.839,57.075c0.024,1.428,0.924,2.016,1.98,2.016c0.756,0,1.224-0.132,1.607-0.288l0.192,0.744
				c-0.372,0.168-1.021,0.372-1.944,0.372c-1.775,0-2.855-1.188-2.855-2.928c0-1.764,1.044-3.144,2.735-3.144
				c1.896,0,2.389,1.668,2.389,2.736c0,0.216-0.013,0.384-0.036,0.504L279.839,57.075z M282.923,56.319
				c0.012-0.66-0.275-1.716-1.452-1.716c-1.08,0-1.536,0.984-1.62,1.716H282.923z"/>
			<path d="M287.651,58.731c0.324,0.192,0.876,0.408,1.404,0.408c0.756,0,1.116-0.372,1.116-0.864c0-0.504-0.3-0.78-1.068-1.068
				c-1.056-0.384-1.548-0.948-1.548-1.644c0-0.936,0.769-1.704,2.004-1.704c0.588,0,1.104,0.156,1.416,0.36l-0.252,0.756
				c-0.228-0.132-0.647-0.336-1.188-0.336c-0.624,0-0.96,0.36-0.96,0.792c0,0.492,0.336,0.708,1.092,0.996
				c0.996,0.372,1.523,0.876,1.523,1.752c0,1.032-0.804,1.752-2.159,1.752c-0.637,0-1.225-0.168-1.633-0.408L287.651,58.731z"/>
			<path d="M293.819,52.599v1.392h1.513v0.804h-1.513v3.132c0,0.72,0.204,1.128,0.792,1.128c0.288,0,0.456-0.024,0.612-0.072
				l0.048,0.804c-0.204,0.072-0.527,0.144-0.936,0.144c-0.492,0-0.889-0.168-1.141-0.444c-0.287-0.324-0.407-0.84-0.407-1.524
				v-3.168h-0.9v-0.804h0.9v-1.068L293.819,52.599z"/>
			<path d="M297.047,57.075c0.023,1.428,0.924,2.016,1.979,2.016c0.757,0,1.225-0.132,1.608-0.288l0.192,0.744
				c-0.372,0.168-1.021,0.372-1.944,0.372c-1.776,0-2.856-1.188-2.856-2.928c0-1.764,1.044-3.144,2.736-3.144
				c1.896,0,2.388,1.668,2.388,2.736c0,0.216-0.012,0.384-0.035,0.504L297.047,57.075z M300.131,56.319
				c0.012-0.66-0.276-1.716-1.452-1.716c-1.08,0-1.536,0.984-1.62,1.716H300.131z"/>
			<path d="M302.459,55.887c0-0.744-0.013-1.344-0.048-1.896h0.947l0.061,0.996h0.023c0.42-0.72,1.116-1.128,2.053-1.128
				c1.416,0,2.472,1.188,2.472,2.952c0,2.088-1.284,3.12-2.64,3.12c-0.78,0-1.44-0.336-1.788-0.912h-0.024v3.156h-1.056V55.887z
				 M303.515,57.435c0,0.144,0.012,0.3,0.048,0.432c0.18,0.732,0.828,1.236,1.572,1.236c1.116,0,1.764-0.912,1.764-2.244
				c0-1.164-0.6-2.16-1.716-2.16c-0.72,0-1.404,0.504-1.608,1.296c-0.023,0.144-0.06,0.3-0.06,0.432V57.435z"/>
			<path d="M309.143,58.731c0.324,0.192,0.876,0.408,1.404,0.408c0.756,0,1.115-0.372,1.115-0.864c0-0.504-0.3-0.78-1.067-1.068
				c-1.057-0.384-1.548-0.948-1.548-1.644c0-0.936,0.768-1.704,2.004-1.704c0.588,0,1.104,0.156,1.416,0.36l-0.252,0.756
				c-0.229-0.132-0.648-0.336-1.188-0.336c-0.624,0-0.96,0.36-0.96,0.792c0,0.492,0.336,0.708,1.092,0.996
				c0.996,0.372,1.524,0.876,1.524,1.752c0,1.032-0.804,1.752-2.16,1.752c-0.636,0-1.224-0.168-1.632-0.408L309.143,58.731z"/>
			<path d="M316.583,51.279h1.057v8.52h-1.057V51.279z"/>
			<path d="M321.754,59.931c-1.56,0-2.784-1.152-2.784-2.988c0-1.944,1.284-3.084,2.881-3.084c1.668,0,2.796,1.212,2.796,2.976
				c0,2.16-1.5,3.096-2.88,3.096H321.754z M321.791,59.139c1.008,0,1.765-0.948,1.765-2.268c0-0.984-0.492-2.22-1.74-2.22
				c-1.236,0-1.776,1.152-1.776,2.256c0,1.272,0.72,2.232,1.74,2.232H321.791z"/>
			<path d="M326.315,53.991l0.78,2.94c0.155,0.648,0.312,1.26,0.42,1.86h0.036c0.132-0.588,0.323-1.212,0.516-1.848l0.948-2.952
				h0.888l0.9,2.904c0.216,0.684,0.384,1.308,0.516,1.896h0.036c0.096-0.588,0.252-1.2,0.443-1.884l0.828-2.916h1.044l-1.872,5.808
				h-0.96l-0.888-2.772c-0.204-0.66-0.372-1.236-0.516-1.92h-0.024c-0.144,0.696-0.324,1.308-0.528,1.932l-0.936,2.76h-0.96
				l-1.752-5.808H326.315z"/>
			<path d="M335.219,57.075c0.023,1.428,0.924,2.016,1.979,2.016c0.756,0,1.225-0.132,1.608-0.288l0.191,0.744
				c-0.372,0.168-1.02,0.372-1.943,0.372c-1.776,0-2.856-1.188-2.856-2.928c0-1.764,1.044-3.144,2.736-3.144
				c1.896,0,2.388,1.668,2.388,2.736c0,0.216-0.012,0.384-0.036,0.504L335.219,57.075z M338.303,56.319
				c0.012-0.66-0.276-1.716-1.452-1.716c-1.08,0-1.536,0.984-1.62,1.716H338.303z"/>
			<path d="M340.643,55.803c0-0.684-0.013-1.272-0.048-1.812h0.924l0.048,1.14h0.036c0.264-0.78,0.912-1.272,1.62-1.272
				c0.107,0,0.191,0.012,0.288,0.036v0.984c-0.12-0.012-0.229-0.024-0.372-0.024c-0.744,0-1.272,0.564-1.416,1.344
				c-0.024,0.156-0.036,0.324-0.036,0.504v3.096h-1.057L340.643,55.803z"/>
			<path d="M365.182,59.067c0.228,0.012,0.491,0,0.852-0.048c0.612-0.072,1.188-0.324,1.632-0.756
				c0.517-0.468,0.889-1.152,1.032-2.076h-0.036c-0.432,0.528-1.056,0.84-1.848,0.84c-1.404,0-2.305-1.056-2.305-2.4
				c0-1.464,1.08-2.76,2.677-2.76c1.596,0,2.58,1.284,2.58,3.288c0,1.716-0.576,2.916-1.345,3.672
				c-0.6,0.576-1.428,0.948-2.268,1.044c-0.384,0.048-0.732,0.072-0.972,0.06V59.067z M367.089,52.671
				c-0.888,0-1.523,0.792-1.523,1.896c0,0.972,0.588,1.656,1.5,1.656c0.708,0,1.26-0.348,1.548-0.816
				c0.048-0.096,0.084-0.216,0.084-0.384c0.012-1.344-0.492-2.352-1.596-2.352H367.089z"/>
			<path d="M373.605,51.279h1.057v3.624h0.023c0.168-0.3,0.433-0.576,0.757-0.744c0.312-0.192,0.684-0.3,1.08-0.3
				c0.779,0,2.027,0.48,2.027,2.484v3.456h-1.056v-3.336c0-0.948-0.348-1.728-1.344-1.728c-0.685,0-1.213,0.48-1.416,1.056
				c-0.061,0.144-0.072,0.3-0.072,0.504v3.504h-1.057V51.279z"/>
			<path d="M384.357,58.407c0,0.504,0.024,0.996,0.085,1.392h-0.948l-0.097-0.732h-0.035c-0.313,0.456-0.948,0.864-1.776,0.864
				c-1.176,0-1.776-0.828-1.776-1.668c0-1.404,1.248-2.172,3.492-2.16v-0.12c0-0.48-0.132-1.356-1.32-1.344
				c-0.552,0-1.115,0.156-1.523,0.432l-0.24-0.708c0.48-0.3,1.188-0.504,1.92-0.504c1.788,0,2.22,1.212,2.22,2.376V58.407z
				 M383.326,56.835c-1.152-0.024-2.46,0.18-2.46,1.308c0,0.696,0.456,1.008,0.983,1.008c0.769,0,1.261-0.48,1.429-0.972
				c0.035-0.108,0.048-0.228,0.048-0.336V56.835z"/>
			<path d="M386.049,51.279h1.056v8.52h-1.056V51.279z"/>
			<path d="M388.954,59.799v-5.004h-0.805v-0.804h0.805v-0.276c0-0.816,0.191-1.56,0.684-2.028c0.396-0.384,0.924-0.54,1.404-0.54
				c0.384,0,0.695,0.084,0.899,0.168l-0.132,0.816c-0.168-0.072-0.372-0.132-0.684-0.132c-0.889,0-1.128,0.792-1.128,1.68v0.312
				h1.403v0.804h-1.392v5.004H388.954z"/>
			<path d="M394.761,58.731c0.324,0.192,0.876,0.408,1.404,0.408c0.756,0,1.115-0.372,1.115-0.864c0-0.504-0.3-0.78-1.067-1.068
				c-1.057-0.384-1.548-0.948-1.548-1.644c0-0.936,0.768-1.704,2.004-1.704c0.588,0,1.104,0.156,1.416,0.36l-0.252,0.756
				c-0.229-0.132-0.648-0.336-1.188-0.336c-0.624,0-0.96,0.36-0.96,0.792c0,0.492,0.336,0.708,1.092,0.996
				c0.996,0.372,1.524,0.876,1.524,1.752c0,1.032-0.804,1.752-2.16,1.752c-0.636,0-1.224-0.168-1.632-0.408L394.761,58.731z"/>
			<path d="M400.929,52.599v1.392h1.512v0.804h-1.512v3.132c0,0.72,0.204,1.128,0.792,1.128c0.288,0,0.456-0.024,0.612-0.072
				l0.048,0.804c-0.204,0.072-0.528,0.144-0.937,0.144c-0.492,0-0.888-0.168-1.14-0.444c-0.288-0.324-0.408-0.84-0.408-1.524v-3.168
				h-0.9v-0.804h0.9v-1.068L400.929,52.599z"/>
			<path d="M404.157,57.075c0.024,1.428,0.924,2.016,1.98,2.016c0.756,0,1.224-0.132,1.607-0.288l0.192,0.744
				c-0.372,0.168-1.02,0.372-1.944,0.372c-1.775,0-2.855-1.188-2.855-2.928c0-1.764,1.044-3.144,2.735-3.144
				c1.896,0,2.389,1.668,2.389,2.736c0,0.216-0.012,0.384-0.036,0.504L404.157,57.075z M407.241,56.319
				c0.013-0.66-0.275-1.716-1.452-1.716c-1.08,0-1.535,0.984-1.619,1.716H407.241z"/>
			<path d="M409.569,55.887c0-0.744-0.012-1.344-0.048-1.896h0.948l0.06,0.996h0.024c0.42-0.72,1.115-1.128,2.052-1.128
				c1.416,0,2.472,1.188,2.472,2.952c0,2.088-1.284,3.12-2.64,3.12c-0.78,0-1.44-0.336-1.788-0.912h-0.024v3.156h-1.056V55.887z
				 M410.625,57.435c0,0.144,0.013,0.3,0.049,0.432c0.18,0.732,0.827,1.236,1.571,1.236c1.116,0,1.765-0.912,1.765-2.244
				c0-1.164-0.601-2.16-1.717-2.16c-0.72,0-1.403,0.504-1.607,1.296c-0.024,0.144-0.061,0.3-0.061,0.432V57.435z"/>
			<path d="M416.252,58.731c0.324,0.192,0.876,0.408,1.404,0.408c0.756,0,1.116-0.372,1.116-0.864c0-0.504-0.3-0.78-1.068-1.068
				c-1.056-0.384-1.548-0.948-1.548-1.644c0-0.936,0.768-1.704,2.004-1.704c0.588,0,1.104,0.156,1.416,0.36l-0.252,0.756
				c-0.228-0.132-0.648-0.336-1.188-0.336c-0.623,0-0.96,0.36-0.96,0.792c0,0.492,0.337,0.708,1.093,0.996
				c0.996,0.372,1.523,0.876,1.523,1.752c0,1.032-0.804,1.752-2.16,1.752c-0.636,0-1.224-0.168-1.632-0.408L416.252,58.731z"/>
			<path d="M423.693,51.279h1.056v8.52h-1.056V51.279z"/>
			<path d="M428.865,59.931c-1.561,0-2.784-1.152-2.784-2.988c0-1.944,1.284-3.084,2.88-3.084c1.668,0,2.796,1.212,2.796,2.976
				c0,2.16-1.5,3.096-2.88,3.096H428.865z M428.901,59.139c1.008,0,1.764-0.948,1.764-2.268c0-0.984-0.492-2.22-1.74-2.22
				c-1.235,0-1.776,1.152-1.776,2.256c0,1.272,0.721,2.232,1.74,2.232H428.901z"/>
			<path d="M433.424,53.991l0.78,2.94c0.156,0.648,0.312,1.26,0.42,1.86h0.036c0.132-0.588,0.324-1.212,0.516-1.848l0.948-2.952
				h0.888l0.9,2.904c0.216,0.684,0.384,1.308,0.516,1.896h0.036c0.097-0.588,0.252-1.2,0.444-1.884l0.828-2.916h1.044l-1.872,5.808
				h-0.96l-0.889-2.772c-0.203-0.66-0.371-1.236-0.516-1.92h-0.023c-0.145,0.696-0.324,1.308-0.528,1.932l-0.937,2.76h-0.96
				l-1.752-5.808H433.424z"/>
			<path d="M442.329,57.075c0.024,1.428,0.924,2.016,1.98,2.016c0.756,0,1.224-0.132,1.607-0.288l0.192,0.744
				c-0.372,0.168-1.021,0.372-1.944,0.372c-1.776,0-2.856-1.188-2.856-2.928c0-1.764,1.045-3.144,2.736-3.144
				c1.896,0,2.389,1.668,2.389,2.736c0,0.216-0.013,0.384-0.036,0.504L442.329,57.075z M445.413,56.319
				c0.012-0.66-0.276-1.716-1.452-1.716c-1.08,0-1.536,0.984-1.62,1.716H445.413z"/>
			<path d="M447.752,55.803c0-0.684-0.012-1.272-0.048-1.812h0.924l0.048,1.14h0.036c0.264-0.78,0.912-1.272,1.62-1.272
				c0.108,0,0.192,0.012,0.288,0.036v0.984c-0.12-0.012-0.229-0.024-0.372-0.024c-0.744,0-1.272,0.564-1.416,1.344
				c-0.024,0.156-0.036,0.324-0.036,0.504v3.096h-1.056L447.752,55.803z"/>
		</g>
		<g>
			<path d="M32.46,142.983h-0.024l-1.356,0.732l-0.204-0.804l1.704-0.912h0.9v7.8h-1.02V142.983z"/>
			<path d="M39.624,143.991l0.78,2.94c0.156,0.648,0.312,1.26,0.42,1.86h0.036c0.132-0.588,0.324-1.212,0.516-1.848l0.948-2.952
				h0.888l0.9,2.904c0.216,0.684,0.384,1.308,0.516,1.896h0.036c0.096-0.588,0.252-1.2,0.444-1.884l0.828-2.916h1.044l-1.872,5.808
				h-0.96l-0.888-2.772c-0.204-0.66-0.372-1.236-0.516-1.92H42.72c-0.144,0.696-0.324,1.308-0.528,1.932l-0.936,2.76h-0.96
				l-1.752-5.808H39.624z"/>
			<path d="M48.036,141.279h1.056v3.624h0.024c0.168-0.3,0.432-0.576,0.756-0.744c0.312-0.192,0.684-0.3,1.08-0.3
				c0.78,0,2.028,0.48,2.028,2.484v3.456h-1.056v-3.336c0-0.948-0.348-1.728-1.344-1.728c-0.684,0-1.212,0.48-1.416,1.056
				c-0.06,0.144-0.072,0.3-0.072,0.504v3.504h-1.056V141.279z"/>
			<path d="M57.06,149.931c-1.56,0-2.784-1.152-2.784-2.988c0-1.944,1.284-3.084,2.88-3.084c1.668,0,2.796,1.212,2.796,2.976
				c0,2.16-1.5,3.096-2.88,3.096H57.06z M57.096,149.139c1.008,0,1.764-0.948,1.764-2.268c0-0.984-0.492-2.22-1.74-2.22
				c-1.236,0-1.776,1.152-1.776,2.256c0,1.272,0.72,2.232,1.74,2.232H57.096z"/>
			<path d="M61.284,141.279h1.056v8.52h-1.056V141.279z"/>
			<path d="M64.692,147.075c0.024,1.428,0.924,2.016,1.98,2.016c0.756,0,1.224-0.132,1.608-0.288l0.192,0.744
				c-0.372,0.168-1.02,0.372-1.944,0.372c-1.776,0-2.856-1.188-2.856-2.928c0-1.764,1.044-3.144,2.736-3.144
				c1.896,0,2.388,1.668,2.388,2.736c0,0.216-0.012,0.384-0.036,0.504L64.692,147.075z M67.776,146.319
				c0.012-0.66-0.276-1.716-1.452-1.716c-1.08,0-1.536,0.984-1.62,1.716H67.776z"/>
			<path d="M72.503,148.731c0.324,0.192,0.876,0.408,1.404,0.408c0.756,0,1.116-0.372,1.116-0.864c0-0.504-0.3-0.78-1.068-1.068
				c-1.056-0.384-1.548-0.948-1.548-1.644c0-0.936,0.768-1.704,2.004-1.704c0.588,0,1.104,0.156,1.416,0.36l-0.252,0.756
				c-0.228-0.132-0.648-0.336-1.188-0.336c-0.624,0-0.96,0.36-0.96,0.792c0,0.492,0.336,0.708,1.092,0.996
				c0.996,0.372,1.524,0.876,1.524,1.752c0,1.032-0.804,1.752-2.16,1.752c-0.636,0-1.224-0.168-1.632-0.408L72.503,148.731z"/>
			<path d="M78.671,142.599v1.392h1.512v0.804h-1.512v3.132c0,0.72,0.204,1.128,0.792,1.128c0.288,0,0.456-0.024,0.612-0.072
				l0.048,0.804c-0.204,0.072-0.528,0.144-0.936,0.144c-0.492,0-0.888-0.168-1.14-0.444c-0.288-0.324-0.408-0.84-0.408-1.524v-3.168
				h-0.9v-0.804h0.9v-1.068L78.671,142.599z"/>
			<path d="M81.899,147.075c0.024,1.428,0.924,2.016,1.98,2.016c0.756,0,1.224-0.132,1.608-0.288l0.192,0.744
				c-0.372,0.168-1.02,0.372-1.944,0.372c-1.776,0-2.856-1.188-2.856-2.928c0-1.764,1.044-3.144,2.736-3.144
				c1.896,0,2.388,1.668,2.388,2.736c0,0.216-0.012,0.384-0.036,0.504L81.899,147.075z M84.983,146.319
				c0.012-0.66-0.276-1.716-1.452-1.716c-1.08,0-1.536,0.984-1.62,1.716H84.983z"/>
			<path d="M87.312,145.887c0-0.744-0.012-1.344-0.048-1.896h0.948l0.06,0.996h0.024c0.42-0.72,1.116-1.128,2.052-1.128
				c1.416,0,2.472,1.188,2.472,2.952c0,2.088-1.284,3.12-2.64,3.12c-0.78,0-1.44-0.336-1.788-0.912h-0.024v3.156h-1.056V145.887z
				 M88.368,147.435c0,0.144,0.012,0.3,0.048,0.432c0.18,0.732,0.828,1.236,1.572,1.236c1.116,0,1.764-0.912,1.764-2.244
				c0-1.164-0.6-2.16-1.716-2.16c-0.72,0-1.404,0.504-1.608,1.296c-0.024,0.144-0.06,0.3-0.06,0.432V147.435z"/>
			<path d="M96.683,141.279h1.056v3.624h0.024c0.168-0.3,0.432-0.576,0.756-0.744c0.312-0.192,0.684-0.3,1.08-0.3
				c0.78,0,2.028,0.48,2.028,2.484v3.456h-1.056v-3.336c0-0.948-0.348-1.728-1.344-1.728c-0.684,0-1.212,0.48-1.416,1.056
				c-0.06,0.144-0.072,0.3-0.072,0.504v3.504h-1.056V141.279z"/>
			<path d="M103.847,142.923c-0.396,0-0.66-0.312-0.66-0.684s0.276-0.672,0.684-0.672c0.408,0,0.672,0.3,0.672,0.672
				s-0.264,0.684-0.684,0.684H103.847z M103.343,149.799v-5.808h1.056v5.808H103.343z"/>
			<path d="M111.119,148.947c0,1.344-0.276,2.148-0.828,2.664c-0.576,0.516-1.392,0.696-2.124,0.696
				c-0.696,0-1.464-0.168-1.932-0.48l0.264-0.816c0.384,0.252,0.984,0.468,1.704,0.468c1.08,0,1.872-0.564,1.872-2.04v-0.636h-0.024
				c-0.312,0.54-0.948,0.972-1.848,0.972c-1.44,0-2.472-1.224-2.472-2.844c0-1.968,1.284-3.072,2.628-3.072
				c1.008,0,1.548,0.516,1.812,0.996h0.024l0.036-0.864h0.936c-0.036,0.408-0.048,0.876-0.048,1.584V148.947z M110.063,146.271
				c0-0.168-0.012-0.324-0.06-0.468c-0.192-0.624-0.696-1.128-1.476-1.128c-1.008,0-1.728,0.852-1.728,2.208
				c0,1.128,0.588,2.088,1.716,2.088c0.66,0,1.248-0.408,1.464-1.092c0.06-0.168,0.084-0.372,0.084-0.564V146.271z"/>
			<path d="M112.859,141.279h1.056v3.624h0.024c0.168-0.3,0.432-0.576,0.756-0.744c0.312-0.192,0.684-0.3,1.08-0.3
				c0.78,0,2.028,0.48,2.028,2.484v3.456h-1.056v-3.336c0-0.948-0.348-1.728-1.344-1.728c-0.684,0-1.212,0.48-1.416,1.056
				c-0.06,0.144-0.072,0.3-0.072,0.504v3.504h-1.056V141.279z"/>
			<path d="M120.119,147.075c0.024,1.428,0.924,2.016,1.98,2.016c0.756,0,1.224-0.132,1.608-0.288l0.192,0.744
				c-0.372,0.168-1.02,0.372-1.944,0.372c-1.776,0-2.856-1.188-2.856-2.928c0-1.764,1.044-3.144,2.736-3.144
				c1.896,0,2.388,1.668,2.388,2.736c0,0.216-0.012,0.384-0.036,0.504L120.119,147.075z M123.203,146.319
				c0.012-0.66-0.276-1.716-1.452-1.716c-1.08,0-1.536,0.984-1.62,1.716H123.203z"/>
			<path d="M125.542,145.803c0-0.684-0.012-1.272-0.048-1.812h0.924l0.048,1.14h0.036c0.264-0.78,0.912-1.272,1.62-1.272
				c0.108,0,0.192,0.012,0.288,0.036v0.984c-0.12-0.012-0.228-0.024-0.372-0.024c-0.744,0-1.272,0.564-1.416,1.344
				c-0.024,0.156-0.036,0.324-0.036,0.504v3.096h-1.056L125.542,145.803z"/>
			<path d="M144.13,142.983h-0.024l-1.356,0.732l-0.204-0.804l1.704-0.912h0.9v7.8h-1.02V142.983z"/>
			<path d="M150.874,141.279h1.056v3.624h0.024c0.168-0.3,0.432-0.576,0.756-0.744c0.312-0.192,0.684-0.3,1.08-0.3
				c0.78,0,2.028,0.48,2.028,2.484v3.456h-1.056v-3.336c0-0.948-0.348-1.728-1.344-1.728c-0.684,0-1.212,0.48-1.416,1.056
				c-0.06,0.144-0.072,0.3-0.072,0.504v3.504h-1.056V141.279z"/>
			<path d="M161.625,148.407c0,0.504,0.024,0.996,0.084,1.392h-0.948l-0.096-0.732h-0.036c-0.312,0.456-0.948,0.864-1.776,0.864
				c-1.176,0-1.776-0.828-1.776-1.668c0-1.404,1.248-2.172,3.492-2.16v-0.12c0-0.48-0.132-1.356-1.32-1.344
				c-0.552,0-1.116,0.156-1.524,0.432l-0.24-0.708c0.48-0.3,1.188-0.504,1.92-0.504c1.788,0,2.22,1.212,2.22,2.376V148.407z
				 M160.594,146.835c-1.152-0.024-2.46,0.18-2.46,1.308c0,0.696,0.456,1.008,0.984,1.008c0.768,0,1.26-0.48,1.428-0.972
				c0.036-0.108,0.048-0.228,0.048-0.336V146.835z"/>
			<path d="M163.317,141.279h1.056v8.52h-1.056V141.279z"/>
			<path d="M166.222,149.799v-5.004h-0.804v-0.804h0.804v-0.276c0-0.816,0.192-1.56,0.684-2.028c0.396-0.384,0.924-0.54,1.404-0.54
				c0.384,0,0.696,0.084,0.9,0.168l-0.132,0.816c-0.168-0.072-0.372-0.132-0.684-0.132c-0.888,0-1.128,0.792-1.128,1.68v0.312h1.404
				v0.804h-1.392v5.004H166.222z"/>
			<path d="M172.029,148.731c0.324,0.192,0.876,0.408,1.404,0.408c0.756,0,1.116-0.372,1.116-0.864c0-0.504-0.3-0.78-1.068-1.068
				c-1.056-0.384-1.548-0.948-1.548-1.644c0-0.936,0.768-1.704,2.004-1.704c0.588,0,1.104,0.156,1.416,0.36l-0.252,0.756
				c-0.228-0.132-0.648-0.336-1.188-0.336c-0.624,0-0.96,0.36-0.96,0.792c0,0.492,0.336,0.708,1.092,0.996
				c0.996,0.372,1.524,0.876,1.524,1.752c0,1.032-0.804,1.752-2.16,1.752c-0.636,0-1.224-0.168-1.632-0.408L172.029,148.731z"/>
			<path d="M178.197,142.599v1.392h1.512v0.804h-1.512v3.132c0,0.72,0.204,1.128,0.792,1.128c0.288,0,0.456-0.024,0.612-0.072
				l0.048,0.804c-0.204,0.072-0.528,0.144-0.936,0.144c-0.492,0-0.888-0.168-1.14-0.444c-0.288-0.324-0.408-0.84-0.408-1.524v-3.168
				h-0.9v-0.804h0.9v-1.068L178.197,142.599z"/>
			<path d="M181.425,147.075c0.024,1.428,0.924,2.016,1.98,2.016c0.756,0,1.224-0.132,1.608-0.288l0.192,0.744
				c-0.372,0.168-1.02,0.372-1.944,0.372c-1.776,0-2.856-1.188-2.856-2.928c0-1.764,1.044-3.144,2.736-3.144
				c1.896,0,2.388,1.668,2.388,2.736c0,0.216-0.012,0.384-0.036,0.504L181.425,147.075z M184.509,146.319
				c0.012-0.66-0.276-1.716-1.452-1.716c-1.08,0-1.536,0.984-1.62,1.716H184.509z"/>
			<path d="M186.837,145.887c0-0.744-0.012-1.344-0.048-1.896h0.948l0.06,0.996h0.024c0.42-0.72,1.116-1.128,2.052-1.128
				c1.416,0,2.472,1.188,2.472,2.952c0,2.088-1.284,3.12-2.64,3.12c-0.78,0-1.44-0.336-1.788-0.912h-0.024v3.156h-1.056V145.887z
				 M187.893,147.435c0,0.144,0.012,0.3,0.048,0.432c0.18,0.732,0.828,1.236,1.572,1.236c1.116,0,1.764-0.912,1.764-2.244
				c0-1.164-0.6-2.16-1.716-2.16c-0.72,0-1.404,0.504-1.608,1.296c-0.024,0.144-0.06,0.3-0.06,0.432V147.435z"/>
			<path d="M196.209,141.279h1.056v8.52h-1.056V141.279z"/>
			<path d="M201.381,149.931c-1.56,0-2.784-1.152-2.784-2.988c0-1.944,1.284-3.084,2.88-3.084c1.668,0,2.796,1.212,2.796,2.976
				c0,2.16-1.5,3.096-2.88,3.096H201.381z M201.417,149.139c1.008,0,1.764-0.948,1.764-2.268c0-0.984-0.492-2.22-1.74-2.22
				c-1.236,0-1.776,1.152-1.776,2.256c0,1.272,0.72,2.232,1.74,2.232H201.417z"/>
			<path d="M205.941,143.991l0.78,2.94c0.156,0.648,0.312,1.26,0.42,1.86h0.036c0.132-0.588,0.324-1.212,0.516-1.848l0.948-2.952
				h0.888l0.9,2.904c0.216,0.684,0.384,1.308,0.516,1.896h0.036c0.096-0.588,0.252-1.2,0.444-1.884l0.828-2.916h1.044l-1.872,5.808
				h-0.96l-0.888-2.772c-0.204-0.66-0.372-1.236-0.516-1.92h-0.024c-0.144,0.696-0.324,1.308-0.528,1.932l-0.936,2.76h-0.96
				l-1.752-5.808H205.941z"/>
			<path d="M214.845,147.075c0.024,1.428,0.924,2.016,1.98,2.016c0.756,0,1.224-0.132,1.608-0.288l0.192,0.744
				c-0.372,0.168-1.02,0.372-1.944,0.372c-1.776,0-2.856-1.188-2.856-2.928c0-1.764,1.044-3.144,2.736-3.144
				c1.896,0,2.388,1.668,2.388,2.736c0,0.216-0.012,0.384-0.036,0.504L214.845,147.075z M217.929,146.319
				c0.012-0.66-0.276-1.716-1.452-1.716c-1.08,0-1.536,0.984-1.62,1.716H217.929z"/>
			<path d="M220.269,145.803c0-0.684-0.012-1.272-0.048-1.812h0.924l0.048,1.14h0.036c0.264-0.78,0.912-1.272,1.62-1.272
				c0.108,0,0.192,0.012,0.288,0.036v0.984c-0.12-0.012-0.228-0.024-0.372-0.024c-0.744,0-1.272,0.564-1.416,1.344
				c-0.024,0.156-0.036,0.324-0.036,0.504v3.096h-1.056L220.269,145.803z"/>
			<path d="M249.284,149.799v-0.648l0.828-0.804c1.992-1.896,2.904-2.904,2.904-4.08c0-0.792-0.372-1.524-1.536-1.524
				c-0.708,0-1.296,0.36-1.656,0.66l-0.336-0.744c0.528-0.444,1.308-0.792,2.208-0.792c1.668,0,2.376,1.152,2.376,2.268
				c0,1.44-1.044,2.604-2.688,4.188l-0.612,0.576v0.024h3.492v0.876H249.284z"/>
			<path d="M258.739,143.991l0.78,2.94c0.156,0.648,0.312,1.26,0.42,1.86h0.036c0.132-0.588,0.324-1.212,0.516-1.848l0.948-2.952
				h0.888l0.9,2.904c0.216,0.684,0.384,1.308,0.516,1.896h0.036c0.096-0.588,0.252-1.2,0.444-1.884l0.828-2.916h1.044l-1.872,5.808
				h-0.96l-0.888-2.772c-0.204-0.66-0.372-1.236-0.516-1.92h-0.024c-0.144,0.696-0.324,1.308-0.528,1.932l-0.936,2.76h-0.96
				l-1.752-5.808H258.739z"/>
			<path d="M267.151,141.279h1.056v3.624h0.024c0.168-0.3,0.432-0.576,0.756-0.744c0.312-0.192,0.684-0.3,1.08-0.3
				c0.78,0,2.028,0.48,2.028,2.484v3.456h-1.056v-3.336c0-0.948-0.348-1.728-1.344-1.728c-0.684,0-1.212,0.48-1.416,1.056
				c-0.06,0.144-0.072,0.3-0.072,0.504v3.504h-1.056V141.279z"/>
			<path d="M276.175,149.931c-1.56,0-2.784-1.152-2.784-2.988c0-1.944,1.284-3.084,2.88-3.084c1.668,0,2.796,1.212,2.796,2.976
				c0,2.16-1.5,3.096-2.88,3.096H276.175z M276.211,149.139c1.008,0,1.764-0.948,1.764-2.268c0-0.984-0.492-2.22-1.74-2.22
				c-1.236,0-1.776,1.152-1.776,2.256c0,1.272,0.72,2.232,1.74,2.232H276.211z"/>
			<path d="M280.399,141.279h1.056v8.52h-1.056V141.279z"/>
			<path d="M283.807,147.075c0.023,1.428,0.924,2.016,1.979,2.016c0.757,0,1.225-0.132,1.608-0.288l0.192,0.744
				c-0.372,0.168-1.021,0.372-1.944,0.372c-1.776,0-2.856-1.188-2.856-2.928c0-1.764,1.044-3.144,2.736-3.144
				c1.896,0,2.388,1.668,2.388,2.736c0,0.216-0.012,0.384-0.035,0.504L283.807,147.075z M286.891,146.319
				c0.012-0.66-0.276-1.716-1.452-1.716c-1.08,0-1.536,0.984-1.62,1.716H286.891z"/>
			<path d="M291.619,148.731c0.324,0.192,0.876,0.408,1.404,0.408c0.756,0,1.116-0.372,1.116-0.864c0-0.504-0.301-0.78-1.068-1.068
				c-1.056-0.384-1.548-0.948-1.548-1.644c0-0.936,0.768-1.704,2.004-1.704c0.588,0,1.104,0.156,1.416,0.36l-0.252,0.756
				c-0.229-0.132-0.648-0.336-1.188-0.336c-0.624,0-0.96,0.36-0.96,0.792c0,0.492,0.336,0.708,1.093,0.996
				c0.995,0.372,1.523,0.876,1.523,1.752c0,1.032-0.804,1.752-2.16,1.752c-0.636,0-1.224-0.168-1.632-0.408L291.619,148.731z"/>
			<path d="M297.787,142.599v1.392h1.512v0.804h-1.512v3.132c0,0.72,0.204,1.128,0.792,1.128c0.288,0,0.456-0.024,0.612-0.072
				l0.048,0.804c-0.204,0.072-0.528,0.144-0.937,0.144c-0.491,0-0.888-0.168-1.14-0.444c-0.288-0.324-0.408-0.84-0.408-1.524v-3.168
				h-0.899v-0.804h0.899v-1.068L297.787,142.599z"/>
			<path d="M301.015,147.075c0.023,1.428,0.924,2.016,1.979,2.016c0.756,0,1.224-0.132,1.608-0.288l0.191,0.744
				c-0.372,0.168-1.02,0.372-1.943,0.372c-1.776,0-2.856-1.188-2.856-2.928c0-1.764,1.044-3.144,2.736-3.144
				c1.896,0,2.388,1.668,2.388,2.736c0,0.216-0.012,0.384-0.036,0.504L301.015,147.075z M304.099,146.319
				c0.012-0.66-0.276-1.716-1.452-1.716c-1.08,0-1.536,0.984-1.62,1.716H304.099z"/>
			<path d="M306.426,145.887c0-0.744-0.012-1.344-0.048-1.896h0.948l0.06,0.996h0.024c0.42-0.72,1.116-1.128,2.052-1.128
				c1.416,0,2.473,1.188,2.473,2.952c0,2.088-1.284,3.12-2.641,3.12c-0.78,0-1.439-0.336-1.788-0.912h-0.023v3.156h-1.057V145.887z
				 M307.483,147.435c0,0.144,0.012,0.3,0.048,0.432c0.18,0.732,0.828,1.236,1.572,1.236c1.115,0,1.764-0.912,1.764-2.244
				c0-1.164-0.6-2.16-1.716-2.16c-0.721,0-1.404,0.504-1.608,1.296c-0.023,0.144-0.06,0.3-0.06,0.432V147.435z"/>
			<path d="M313.111,148.731c0.323,0.192,0.876,0.408,1.403,0.408c0.756,0,1.116-0.372,1.116-0.864c0-0.504-0.3-0.78-1.068-1.068
				c-1.056-0.384-1.548-0.948-1.548-1.644c0-0.936,0.769-1.704,2.004-1.704c0.589,0,1.104,0.156,1.416,0.36l-0.252,0.756
				c-0.228-0.132-0.647-0.336-1.188-0.336c-0.624,0-0.96,0.36-0.96,0.792c0,0.492,0.336,0.708,1.092,0.996
				c0.996,0.372,1.524,0.876,1.524,1.752c0,1.032-0.805,1.752-2.16,1.752c-0.637,0-1.225-0.168-1.632-0.408L313.111,148.731z"/>
			<path d="M320.55,141.279h1.056v3.624h0.024c0.168-0.3,0.432-0.576,0.756-0.744c0.313-0.192,0.684-0.3,1.08-0.3
				c0.78,0,2.028,0.48,2.028,2.484v3.456h-1.057v-3.336c0-0.948-0.348-1.728-1.344-1.728c-0.684,0-1.212,0.48-1.416,1.056
				c-0.06,0.144-0.072,0.3-0.072,0.504v3.504h-1.056V141.279z"/>
			<path d="M327.714,142.923c-0.396,0-0.66-0.312-0.66-0.684s0.276-0.672,0.684-0.672c0.408,0,0.672,0.3,0.672,0.672
				s-0.264,0.684-0.684,0.684H327.714z M327.21,149.799v-5.808h1.056v5.808H327.21z"/>
			<path d="M334.986,148.947c0,1.344-0.275,2.148-0.828,2.664c-0.575,0.516-1.392,0.696-2.124,0.696
				c-0.695,0-1.464-0.168-1.932-0.48l0.264-0.816c0.385,0.252,0.984,0.468,1.704,0.468c1.08,0,1.872-0.564,1.872-2.04v-0.636h-0.023
				c-0.313,0.54-0.948,0.972-1.849,0.972c-1.439,0-2.472-1.224-2.472-2.844c0-1.968,1.284-3.072,2.628-3.072
				c1.008,0,1.548,0.516,1.813,0.996h0.023l0.036-0.864h0.936c-0.035,0.408-0.048,0.876-0.048,1.584V148.947z M333.93,146.271
				c0-0.168-0.012-0.324-0.06-0.468c-0.192-0.624-0.696-1.128-1.477-1.128c-1.008,0-1.728,0.852-1.728,2.208
				c0,1.128,0.588,2.088,1.716,2.088c0.66,0,1.248-0.408,1.464-1.092c0.06-0.168,0.084-0.372,0.084-0.564V146.271z"/>
			<path d="M336.726,141.279h1.056v3.624h0.024c0.168-0.3,0.432-0.576,0.756-0.744c0.312-0.192,0.684-0.3,1.08-0.3
				c0.78,0,2.028,0.48,2.028,2.484v3.456h-1.057v-3.336c0-0.948-0.348-1.728-1.344-1.728c-0.684,0-1.212,0.48-1.416,1.056
				c-0.06,0.144-0.072,0.3-0.072,0.504v3.504h-1.056V141.279z"/>
			<path d="M343.986,147.075c0.024,1.428,0.924,2.016,1.98,2.016c0.756,0,1.224-0.132,1.607-0.288l0.192,0.744
				c-0.372,0.168-1.021,0.372-1.944,0.372c-1.775,0-2.855-1.188-2.855-2.928c0-1.764,1.044-3.144,2.735-3.144
				c1.896,0,2.389,1.668,2.389,2.736c0,0.216-0.013,0.384-0.036,0.504L343.986,147.075z M347.07,146.319
				c0.012-0.66-0.276-1.716-1.452-1.716c-1.08,0-1.536,0.984-1.62,1.716H347.07z"/>
			<path d="M349.41,145.803c0-0.684-0.012-1.272-0.048-1.812h0.924l0.048,1.14h0.036c0.265-0.78,0.912-1.272,1.62-1.272
				c0.108,0,0.192,0.012,0.288,0.036v0.984c-0.12-0.012-0.228-0.024-0.372-0.024c-0.744,0-1.271,0.564-1.416,1.344
				c-0.024,0.156-0.036,0.324-0.036,0.504v3.096h-1.056L349.41,145.803z"/>
			<path d="M367.998,142.983h-0.024l-1.356,0.732l-0.203-0.804l1.703-0.912h0.9v7.8h-1.02V142.983z"/>
			<path d="M374.153,142.983h-0.023l-1.356,0.732l-0.204-0.804l1.704-0.912h0.9v7.8h-1.021V142.983z"/>
			<path d="M380.897,141.279h1.056v3.624h0.024c0.168-0.3,0.432-0.576,0.756-0.744c0.312-0.192,0.684-0.3,1.08-0.3
				c0.779,0,2.027,0.48,2.027,2.484v3.456h-1.056v-3.336c0-0.948-0.348-1.728-1.344-1.728c-0.685,0-1.212,0.48-1.416,1.056
				c-0.061,0.144-0.072,0.3-0.072,0.504v3.504h-1.056V141.279z"/>
			<path d="M391.649,148.407c0,0.504,0.023,0.996,0.084,1.392h-0.948l-0.096-0.732h-0.036c-0.313,0.456-0.948,0.864-1.776,0.864
				c-1.176,0-1.775-0.828-1.775-1.668c0-1.404,1.247-2.172,3.491-2.16v-0.12c0-0.48-0.132-1.356-1.319-1.344
				c-0.553,0-1.116,0.156-1.524,0.432l-0.24-0.708c0.48-0.3,1.188-0.504,1.92-0.504c1.788,0,2.221,1.212,2.221,2.376V148.407z
				 M390.617,146.835c-1.152-0.024-2.46,0.18-2.46,1.308c0,0.696,0.456,1.008,0.983,1.008c0.769,0,1.261-0.48,1.429-0.972
				c0.036-0.108,0.048-0.228,0.048-0.336V146.835z"/>
			<path d="M393.34,141.279h1.057v8.52h-1.057V141.279z"/>
			<path d="M396.245,149.799v-5.004h-0.804v-0.804h0.804v-0.276c0-0.816,0.191-1.56,0.684-2.028c0.396-0.384,0.924-0.54,1.404-0.54
				c0.384,0,0.696,0.084,0.9,0.168l-0.133,0.816c-0.168-0.072-0.372-0.132-0.684-0.132c-0.888,0-1.128,0.792-1.128,1.68v0.312h1.404
				v0.804H397.3v5.004H396.245z"/>
			<path d="M402.052,148.731c0.324,0.192,0.876,0.408,1.404,0.408c0.756,0,1.115-0.372,1.115-0.864c0-0.504-0.3-0.78-1.067-1.068
				c-1.056-0.384-1.548-0.948-1.548-1.644c0-0.936,0.768-1.704,2.004-1.704c0.588,0,1.104,0.156,1.416,0.36l-0.252,0.756
				c-0.229-0.132-0.648-0.336-1.188-0.336c-0.624,0-0.96,0.36-0.96,0.792c0,0.492,0.336,0.708,1.092,0.996
				c0.996,0.372,1.524,0.876,1.524,1.752c0,1.032-0.804,1.752-2.16,1.752c-0.636,0-1.224-0.168-1.632-0.408L402.052,148.731z"/>
			<path d="M408.22,142.599v1.392h1.512v0.804h-1.512v3.132c0,0.72,0.204,1.128,0.792,1.128c0.288,0,0.456-0.024,0.612-0.072
				l0.048,0.804c-0.204,0.072-0.528,0.144-0.937,0.144c-0.491,0-0.888-0.168-1.14-0.444c-0.288-0.324-0.408-0.84-0.408-1.524v-3.168
				h-0.899v-0.804h0.899v-1.068L408.22,142.599z"/>
			<path d="M411.448,147.075c0.024,1.428,0.925,2.016,1.98,2.016c0.756,0,1.224-0.132,1.608-0.288l0.191,0.744
				c-0.372,0.168-1.02,0.372-1.943,0.372c-1.776,0-2.856-1.188-2.856-2.928c0-1.764,1.044-3.144,2.736-3.144
				c1.896,0,2.388,1.668,2.388,2.736c0,0.216-0.012,0.384-0.036,0.504L411.448,147.075z M414.532,146.319
				c0.013-0.66-0.275-1.716-1.451-1.716c-1.08,0-1.536,0.984-1.62,1.716H414.532z"/>
			<path d="M416.86,145.887c0-0.744-0.012-1.344-0.048-1.896h0.948l0.06,0.996h0.024c0.42-0.72,1.116-1.128,2.052-1.128
				c1.416,0,2.472,1.188,2.472,2.952c0,2.088-1.283,3.12-2.64,3.12c-0.78,0-1.439-0.336-1.788-0.912h-0.023v3.156h-1.057V145.887z
				 M417.917,147.435c0,0.144,0.012,0.3,0.048,0.432c0.18,0.732,0.828,1.236,1.571,1.236c1.116,0,1.765-0.912,1.765-2.244
				c0-1.164-0.601-2.16-1.716-2.16c-0.721,0-1.404,0.504-1.608,1.296c-0.024,0.144-0.06,0.3-0.06,0.432V147.435z"/>
			<path d="M423.543,148.731c0.324,0.192,0.876,0.408,1.404,0.408c0.756,0,1.116-0.372,1.116-0.864c0-0.504-0.3-0.78-1.068-1.068
				c-1.056-0.384-1.548-0.948-1.548-1.644c0-0.936,0.769-1.704,2.004-1.704c0.588,0,1.104,0.156,1.416,0.36l-0.252,0.756
				c-0.228-0.132-0.647-0.336-1.188-0.336c-0.624,0-0.96,0.36-0.96,0.792c0,0.492,0.336,0.708,1.092,0.996
				c0.996,0.372,1.523,0.876,1.523,1.752c0,1.032-0.804,1.752-2.159,1.752c-0.637,0-1.225-0.168-1.633-0.408L423.543,148.731z"/>
			<path d="M430.984,141.279h1.056v8.52h-1.056V141.279z"/>
			<path d="M436.156,149.931c-1.561,0-2.784-1.152-2.784-2.988c0-1.944,1.284-3.084,2.88-3.084c1.668,0,2.796,1.212,2.796,2.976
				c0,2.16-1.5,3.096-2.88,3.096H436.156z M436.192,149.139c1.008,0,1.764-0.948,1.764-2.268c0-0.984-0.492-2.22-1.74-2.22
				c-1.235,0-1.775,1.152-1.775,2.256c0,1.272,0.72,2.232,1.739,2.232H436.192z"/>
			<path d="M440.715,143.991l0.78,2.94c0.156,0.648,0.313,1.26,0.42,1.86h0.036c0.132-0.588,0.324-1.212,0.517-1.848l0.947-2.952
				h0.889l0.899,2.904c0.216,0.684,0.384,1.308,0.517,1.896h0.035c0.097-0.588,0.252-1.2,0.444-1.884l0.828-2.916h1.044
				l-1.872,5.808h-0.96l-0.888-2.772c-0.204-0.66-0.372-1.236-0.517-1.92h-0.023c-0.145,0.696-0.324,1.308-0.528,1.932l-0.936,2.76
				h-0.96l-1.752-5.808H440.715z"/>
			<path d="M449.62,147.075c0.024,1.428,0.924,2.016,1.98,2.016c0.756,0,1.224-0.132,1.607-0.288l0.192,0.744
				c-0.372,0.168-1.021,0.372-1.944,0.372c-1.775,0-2.855-1.188-2.855-2.928c0-1.764,1.044-3.144,2.735-3.144
				c1.896,0,2.389,1.668,2.389,2.736c0,0.216-0.013,0.384-0.036,0.504L449.62,147.075z M452.704,146.319
				c0.013-0.66-0.275-1.716-1.452-1.716c-1.08,0-1.535,0.984-1.62,1.716H452.704z"/>
			<path d="M455.043,145.803c0-0.684-0.012-1.272-0.048-1.812h0.924l0.048,1.14h0.036c0.265-0.78,0.912-1.272,1.62-1.272
				c0.108,0,0.192,0.012,0.288,0.036v0.984c-0.12-0.012-0.228-0.024-0.372-0.024c-0.744,0-1.271,0.564-1.416,1.344
				c-0.023,0.156-0.036,0.324-0.036,0.504v3.096h-1.056L455.043,145.803z"/>
		</g>
		<g>
			<path d="M26.42,232.599c0.3,0.18,0.984,0.48,1.728,0.48c1.344,0,1.776-0.852,1.764-1.512c-0.012-1.092-0.996-1.56-2.016-1.56
				h-0.588v-0.792h0.588c0.768,0,1.74-0.396,1.74-1.32c0-0.624-0.396-1.176-1.368-1.176c-0.624,0-1.224,0.276-1.56,0.516
				l-0.288-0.768c0.42-0.3,1.212-0.6,2.052-0.6c1.536,0,2.232,0.912,2.232,1.86c0,0.816-0.492,1.5-1.44,1.848v0.024
				c0.96,0.18,1.74,0.9,1.74,1.992c0,1.248-0.984,2.34-2.844,2.34c-0.876,0-1.644-0.276-2.028-0.528L26.42,232.599z"/>
			<path d="M35.624,227.991l0.78,2.94c0.156,0.648,0.312,1.26,0.42,1.86h0.036c0.132-0.588,0.324-1.212,0.516-1.848l0.948-2.952
				h0.888l0.9,2.904c0.216,0.684,0.384,1.308,0.516,1.896h0.036c0.096-0.588,0.252-1.2,0.444-1.884l0.828-2.916h1.044l-1.872,5.808
				h-0.96l-0.888-2.772c-0.204-0.66-0.372-1.236-0.516-1.92H38.72c-0.144,0.696-0.324,1.308-0.528,1.932l-0.936,2.76h-0.96
				l-1.752-5.808H35.624z"/>
			<path d="M44.036,225.279h1.056v3.624h0.024c0.168-0.3,0.432-0.576,0.756-0.744c0.312-0.192,0.684-0.3,1.08-0.3
				c0.78,0,2.028,0.48,2.028,2.484v3.456h-1.056v-3.336c0-0.948-0.348-1.728-1.344-1.728c-0.684,0-1.212,0.48-1.416,1.056
				c-0.06,0.144-0.072,0.3-0.072,0.504v3.504h-1.056V225.279z"/>
			<path d="M53.06,233.931c-1.56,0-2.784-1.152-2.784-2.988c0-1.944,1.284-3.084,2.88-3.084c1.668,0,2.796,1.212,2.796,2.976
				c0,2.16-1.5,3.096-2.88,3.096H53.06z M53.096,233.139c1.008,0,1.764-0.948,1.764-2.268c0-0.984-0.492-2.22-1.74-2.22
				c-1.236,0-1.776,1.152-1.776,2.256c0,1.272,0.72,2.232,1.74,2.232H53.096z"/>
			<path d="M57.284,225.279h1.056v8.52h-1.056V225.279z"/>
			<path d="M60.692,231.075c0.024,1.428,0.924,2.016,1.98,2.016c0.756,0,1.224-0.132,1.608-0.288l0.192,0.744
				c-0.372,0.168-1.02,0.372-1.944,0.372c-1.776,0-2.856-1.188-2.856-2.928c0-1.764,1.044-3.144,2.736-3.144
				c1.896,0,2.388,1.668,2.388,2.736c0,0.216-0.012,0.384-0.036,0.504L60.692,231.075z M63.776,230.319
				c0.012-0.66-0.276-1.716-1.452-1.716c-1.08,0-1.536,0.984-1.62,1.716H63.776z"/>
			<path d="M68.503,232.731c0.324,0.192,0.876,0.408,1.404,0.408c0.756,0,1.116-0.372,1.116-0.864c0-0.504-0.3-0.78-1.068-1.068
				c-1.056-0.384-1.548-0.948-1.548-1.644c0-0.936,0.768-1.704,2.004-1.704c0.588,0,1.104,0.156,1.416,0.36l-0.252,0.756
				c-0.228-0.132-0.648-0.336-1.188-0.336c-0.624,0-0.96,0.36-0.96,0.792c0,0.492,0.336,0.708,1.092,0.996
				c0.996,0.372,1.524,0.876,1.524,1.752c0,1.032-0.804,1.752-2.16,1.752c-0.636,0-1.224-0.168-1.632-0.408L68.503,232.731z"/>
			<path d="M74.671,226.599v1.392h1.512v0.804h-1.512v3.132c0,0.72,0.204,1.128,0.792,1.128c0.288,0,0.456-0.024,0.612-0.072
				l0.048,0.804c-0.204,0.072-0.528,0.144-0.936,0.144c-0.492,0-0.888-0.168-1.14-0.444c-0.288-0.324-0.408-0.84-0.408-1.524v-3.168
				h-0.9v-0.804h0.9v-1.068L74.671,226.599z"/>
			<path d="M77.899,231.075c0.024,1.428,0.924,2.016,1.98,2.016c0.756,0,1.224-0.132,1.608-0.288l0.192,0.744
				c-0.372,0.168-1.02,0.372-1.944,0.372c-1.776,0-2.856-1.188-2.856-2.928c0-1.764,1.044-3.144,2.736-3.144
				c1.896,0,2.388,1.668,2.388,2.736c0,0.216-0.012,0.384-0.036,0.504L77.899,231.075z M80.983,230.319
				c0.012-0.66-0.276-1.716-1.452-1.716c-1.08,0-1.536,0.984-1.62,1.716H80.983z"/>
			<path d="M83.312,229.887c0-0.744-0.012-1.344-0.048-1.896h0.948l0.06,0.996h0.024c0.42-0.72,1.116-1.128,2.052-1.128
				c1.416,0,2.472,1.188,2.472,2.952c0,2.088-1.284,3.12-2.64,3.12c-0.78,0-1.44-0.336-1.788-0.912h-0.024v3.156h-1.056V229.887z
				 M84.368,231.435c0,0.144,0.012,0.3,0.048,0.432c0.18,0.732,0.828,1.236,1.572,1.236c1.116,0,1.764-0.912,1.764-2.244
				c0-1.164-0.6-2.16-1.716-2.16c-0.72,0-1.404,0.504-1.608,1.296c-0.024,0.144-0.06,0.3-0.06,0.432V231.435z"/>
			<path d="M89.995,232.731c0.324,0.192,0.876,0.408,1.404,0.408c0.756,0,1.116-0.372,1.116-0.864c0-0.504-0.3-0.78-1.068-1.068
				c-1.056-0.384-1.548-0.948-1.548-1.644c0-0.936,0.768-1.704,2.004-1.704c0.588,0,1.104,0.156,1.416,0.36l-0.252,0.756
				c-0.228-0.132-0.648-0.336-1.188-0.336c-0.624,0-0.96,0.36-0.96,0.792c0,0.492,0.336,0.708,1.092,0.996
				c0.996,0.372,1.524,0.876,1.524,1.752c0,1.032-0.804,1.752-2.16,1.752c-0.636,0-1.224-0.168-1.632-0.408L89.995,232.731z"/>
			<path d="M97.435,225.279h1.056v3.624h0.024c0.168-0.3,0.432-0.576,0.756-0.744c0.312-0.192,0.684-0.3,1.08-0.3
				c0.78,0,2.028,0.48,2.028,2.484v3.456h-1.056v-3.336c0-0.948-0.348-1.728-1.344-1.728c-0.684,0-1.212,0.48-1.416,1.056
				c-0.06,0.144-0.072,0.3-0.072,0.504v3.504h-1.056V225.279z"/>
			<path d="M104.599,226.923c-0.396,0-0.66-0.312-0.66-0.684s0.276-0.672,0.684-0.672c0.408,0,0.672,0.3,0.672,0.672
				s-0.264,0.684-0.684,0.684H104.599z M104.095,233.799v-5.808h1.056v5.808H104.095z"/>
			<path d="M111.871,232.947c0,1.344-0.276,2.148-0.828,2.664c-0.576,0.516-1.392,0.696-2.124,0.696
				c-0.696,0-1.464-0.168-1.932-0.48l0.264-0.816c0.384,0.252,0.984,0.468,1.704,0.468c1.08,0,1.872-0.564,1.872-2.04v-0.636h-0.024
				c-0.312,0.54-0.948,0.972-1.848,0.972c-1.44,0-2.472-1.224-2.472-2.844c0-1.968,1.284-3.072,2.628-3.072
				c1.008,0,1.548,0.516,1.812,0.996h0.024l0.036-0.864h0.936c-0.036,0.408-0.048,0.876-0.048,1.584V232.947z M110.815,230.271
				c0-0.168-0.012-0.324-0.06-0.468c-0.192-0.624-0.696-1.128-1.476-1.128c-1.008,0-1.728,0.852-1.728,2.208
				c0,1.128,0.588,2.088,1.716,2.088c0.66,0,1.248-0.408,1.464-1.092c0.06-0.168,0.084-0.372,0.084-0.564V230.271z"/>
			<path d="M113.611,225.279h1.056v3.624h0.024c0.168-0.3,0.432-0.576,0.756-0.744c0.312-0.192,0.684-0.3,1.08-0.3
				c0.78,0,2.028,0.48,2.028,2.484v3.456h-1.056v-3.336c0-0.948-0.348-1.728-1.344-1.728c-0.684,0-1.212,0.48-1.416,1.056
				c-0.06,0.144-0.072,0.3-0.072,0.504v3.504h-1.056V225.279z"/>
			<path d="M120.871,231.075c0.024,1.428,0.924,2.016,1.98,2.016c0.756,0,1.224-0.132,1.608-0.288l0.192,0.744
				c-0.372,0.168-1.02,0.372-1.944,0.372c-1.776,0-2.856-1.188-2.856-2.928c0-1.764,1.044-3.144,2.736-3.144
				c1.896,0,2.388,1.668,2.388,2.736c0,0.216-0.012,0.384-0.036,0.504L120.871,231.075z M123.955,230.319
				c0.012-0.66-0.276-1.716-1.452-1.716c-1.08,0-1.536,0.984-1.62,1.716H123.955z"/>
			<path d="M126.294,229.803c0-0.684-0.012-1.272-0.048-1.812h0.924l0.048,1.14h0.036c0.264-0.78,0.912-1.272,1.62-1.272
				c0.108,0,0.192,0.012,0.288,0.036v0.984c-0.12-0.012-0.228-0.024-0.372-0.024c-0.744,0-1.272,0.564-1.416,1.344
				c-0.024,0.156-0.036,0.324-0.036,0.504v3.096h-1.056L126.294,229.803z"/>
			<path d="M145.386,232.599c0.3,0.18,0.984,0.48,1.728,0.48c1.344,0,1.776-0.852,1.764-1.512c-0.012-1.092-0.996-1.56-2.016-1.56
				h-0.588v-0.792h0.588c0.768,0,1.74-0.396,1.74-1.32c0-0.624-0.396-1.176-1.368-1.176c-0.624,0-1.224,0.276-1.56,0.516
				l-0.288-0.768c0.42-0.3,1.212-0.6,2.052-0.6c1.536,0,2.232,0.912,2.232,1.86c0,0.816-0.492,1.5-1.44,1.848v0.024
				c0.96,0.18,1.74,0.9,1.74,1.992c0,1.248-0.984,2.34-2.844,2.34c-0.876,0-1.644-0.276-2.028-0.528L145.386,232.599z"/>
			<path d="M154.169,225.279h1.056v3.624h0.024c0.168-0.3,0.432-0.576,0.756-0.744c0.312-0.192,0.684-0.3,1.08-0.3
				c0.78,0,2.028,0.48,2.028,2.484v3.456h-1.056v-3.336c0-0.948-0.348-1.728-1.344-1.728c-0.684,0-1.212,0.48-1.416,1.056
				c-0.06,0.144-0.072,0.3-0.072,0.504v3.504h-1.056V225.279z"/>
			<path d="M164.921,232.407c0,0.504,0.024,0.996,0.084,1.392h-0.948l-0.096-0.732h-0.036c-0.312,0.456-0.948,0.864-1.776,0.864
				c-1.176,0-1.776-0.828-1.776-1.668c0-1.404,1.248-2.172,3.492-2.16v-0.12c0-0.48-0.132-1.356-1.32-1.344
				c-0.552,0-1.116,0.156-1.524,0.432l-0.24-0.708c0.48-0.3,1.188-0.504,1.92-0.504c1.788,0,2.22,1.212,2.22,2.376V232.407z
				 M163.89,230.835c-1.152-0.024-2.46,0.18-2.46,1.308c0,0.696,0.456,1.008,0.984,1.008c0.768,0,1.26-0.48,1.428-0.972
				c0.036-0.108,0.048-0.228,0.048-0.336V230.835z"/>
			<path d="M166.613,225.279h1.056v8.52h-1.056V225.279z"/>
			<path d="M169.518,233.799v-5.004h-0.804v-0.804h0.804v-0.276c0-0.816,0.192-1.56,0.684-2.028c0.396-0.384,0.924-0.54,1.404-0.54
				c0.384,0,0.696,0.084,0.9,0.168l-0.132,0.816c-0.168-0.072-0.372-0.132-0.684-0.132c-0.888,0-1.128,0.792-1.128,1.68v0.312h1.404
				v0.804h-1.392v5.004H169.518z"/>
			<path d="M175.325,232.731c0.324,0.192,0.876,0.408,1.404,0.408c0.756,0,1.116-0.372,1.116-0.864c0-0.504-0.3-0.78-1.068-1.068
				c-1.056-0.384-1.548-0.948-1.548-1.644c0-0.936,0.768-1.704,2.004-1.704c0.588,0,1.104,0.156,1.416,0.36l-0.252,0.756
				c-0.228-0.132-0.648-0.336-1.188-0.336c-0.624,0-0.96,0.36-0.96,0.792c0,0.492,0.336,0.708,1.092,0.996
				c0.996,0.372,1.524,0.876,1.524,1.752c0,1.032-0.804,1.752-2.16,1.752c-0.636,0-1.224-0.168-1.632-0.408L175.325,232.731z"/>
			<path d="M181.493,226.599v1.392h1.512v0.804h-1.512v3.132c0,0.72,0.204,1.128,0.792,1.128c0.288,0,0.456-0.024,0.612-0.072
				l0.048,0.804c-0.204,0.072-0.528,0.144-0.936,0.144c-0.492,0-0.888-0.168-1.14-0.444c-0.288-0.324-0.408-0.84-0.408-1.524v-3.168
				h-0.9v-0.804h0.9v-1.068L181.493,226.599z"/>
			<path d="M184.721,231.075c0.024,1.428,0.924,2.016,1.98,2.016c0.756,0,1.224-0.132,1.608-0.288l0.192,0.744
				c-0.372,0.168-1.02,0.372-1.944,0.372c-1.776,0-2.856-1.188-2.856-2.928c0-1.764,1.044-3.144,2.736-3.144
				c1.896,0,2.388,1.668,2.388,2.736c0,0.216-0.012,0.384-0.036,0.504L184.721,231.075z M187.805,230.319
				c0.012-0.66-0.276-1.716-1.452-1.716c-1.08,0-1.536,0.984-1.62,1.716H187.805z"/>
			<path d="M190.133,229.887c0-0.744-0.012-1.344-0.048-1.896h0.948l0.06,0.996h0.024c0.42-0.72,1.116-1.128,2.052-1.128
				c1.416,0,2.472,1.188,2.472,2.952c0,2.088-1.284,3.12-2.64,3.12c-0.78,0-1.44-0.336-1.788-0.912h-0.024v3.156h-1.056V229.887z
				 M191.189,231.435c0,0.144,0.012,0.3,0.048,0.432c0.18,0.732,0.828,1.236,1.572,1.236c1.116,0,1.764-0.912,1.764-2.244
				c0-1.164-0.6-2.16-1.716-2.16c-0.72,0-1.404,0.504-1.608,1.296c-0.024,0.144-0.06,0.3-0.06,0.432V231.435z"/>
			<path d="M196.817,232.731c0.324,0.192,0.876,0.408,1.404,0.408c0.756,0,1.116-0.372,1.116-0.864c0-0.504-0.3-0.78-1.068-1.068
				c-1.056-0.384-1.548-0.948-1.548-1.644c0-0.936,0.768-1.704,2.004-1.704c0.588,0,1.104,0.156,1.416,0.36l-0.252,0.756
				c-0.228-0.132-0.648-0.336-1.188-0.336c-0.624,0-0.96,0.36-0.96,0.792c0,0.492,0.336,0.708,1.092,0.996
				c0.996,0.372,1.524,0.876,1.524,1.752c0,1.032-0.804,1.752-2.16,1.752c-0.636,0-1.224-0.168-1.632-0.408L196.817,232.731z"/>
			<path d="M204.257,225.279h1.056v8.52h-1.056V225.279z"/>
			<path d="M209.429,233.931c-1.56,0-2.784-1.152-2.784-2.988c0-1.944,1.284-3.084,2.88-3.084c1.668,0,2.796,1.212,2.796,2.976
				c0,2.16-1.5,3.096-2.88,3.096H209.429z M209.464,233.139c1.008,0,1.764-0.948,1.764-2.268c0-0.984-0.492-2.22-1.74-2.22
				c-1.236,0-1.776,1.152-1.776,2.256c0,1.272,0.72,2.232,1.74,2.232H209.464z"/>
			<path d="M213.989,227.991l0.78,2.94c0.156,0.648,0.312,1.26,0.42,1.86h0.036c0.132-0.588,0.324-1.212,0.516-1.848l0.948-2.952
				h0.888l0.9,2.904c0.216,0.684,0.384,1.308,0.516,1.896h0.036c0.096-0.588,0.252-1.2,0.444-1.884l0.828-2.916h1.044l-1.872,5.808
				h-0.96l-0.888-2.772c-0.204-0.66-0.372-1.236-0.516-1.92h-0.024c-0.144,0.696-0.324,1.308-0.528,1.932l-0.936,2.76h-0.96
				l-1.752-5.808H213.989z"/>
			<path d="M222.893,231.075c0.024,1.428,0.924,2.016,1.98,2.016c0.756,0,1.224-0.132,1.608-0.288l0.192,0.744
				c-0.372,0.168-1.02,0.372-1.944,0.372c-1.776,0-2.856-1.188-2.856-2.928c0-1.764,1.044-3.144,2.736-3.144
				c1.896,0,2.388,1.668,2.388,2.736c0,0.216-0.012,0.384-0.036,0.504L222.893,231.075z M225.977,230.319
				c0.012-0.66-0.276-1.716-1.452-1.716c-1.08,0-1.536,0.984-1.62,1.716H225.977z"/>
			<path d="M228.316,229.803c0-0.684-0.012-1.272-0.048-1.812h0.924l0.048,1.14h0.036c0.264-0.78,0.912-1.272,1.62-1.272
				c0.108,0,0.192,0.012,0.288,0.036v0.984c-0.12-0.012-0.228-0.024-0.372-0.024c-0.744,0-1.272,0.564-1.416,1.344
				c-0.024,0.156-0.036,0.324-0.036,0.504v3.096h-1.056L228.316,229.803z"/>
			<path d="M264.711,226.983h-0.024l-1.356,0.732l-0.204-0.804l1.704-0.912h0.9v7.8h-1.02V226.983z"/>
			<path d="M271.455,225.279h1.056v3.624h0.024c0.168-0.3,0.432-0.576,0.756-0.744c0.312-0.192,0.684-0.3,1.08-0.3
				c0.78,0,2.028,0.48,2.028,2.484v3.456h-1.056v-3.336c0-0.948-0.348-1.728-1.344-1.728c-0.684,0-1.212,0.48-1.416,1.056
				c-0.06,0.144-0.072,0.3-0.072,0.504v3.504h-1.056V225.279z"/>
			<path d="M282.207,232.407c0,0.504,0.024,0.996,0.084,1.392h-0.947l-0.097-0.732h-0.036c-0.312,0.456-0.947,0.864-1.775,0.864
				c-1.177,0-1.776-0.828-1.776-1.668c0-1.404,1.248-2.172,3.492-2.16v-0.12c0-0.48-0.132-1.356-1.32-1.344
				c-0.552,0-1.116,0.156-1.523,0.432l-0.24-0.708c0.479-0.3,1.188-0.504,1.92-0.504c1.788,0,2.22,1.212,2.22,2.376V232.407z
				 M281.174,230.835c-1.151-0.024-2.46,0.18-2.46,1.308c0,0.696,0.456,1.008,0.984,1.008c0.768,0,1.26-0.48,1.428-0.972
				c0.036-0.108,0.048-0.228,0.048-0.336V230.835z"/>
			<path d="M283.899,225.279h1.056v8.52h-1.056V225.279z"/>
			<path d="M286.802,233.799v-5.004h-0.804v-0.804h0.804v-0.276c0-0.816,0.192-1.56,0.685-2.028c0.396-0.384,0.924-0.54,1.403-0.54
				c0.385,0,0.696,0.084,0.9,0.168l-0.132,0.816c-0.168-0.072-0.372-0.132-0.684-0.132c-0.889,0-1.129,0.792-1.129,1.68v0.312h1.404
				v0.804h-1.392v5.004H286.802z"/>
			<path d="M292.611,232.731c0.323,0.192,0.876,0.408,1.403,0.408c0.756,0,1.116-0.372,1.116-0.864c0-0.504-0.3-0.78-1.068-1.068
				c-1.056-0.384-1.548-0.948-1.548-1.644c0-0.936,0.769-1.704,2.004-1.704c0.589,0,1.104,0.156,1.416,0.36l-0.252,0.756
				c-0.228-0.132-0.647-0.336-1.188-0.336c-0.624,0-0.96,0.36-0.96,0.792c0,0.492,0.336,0.708,1.092,0.996
				c0.996,0.372,1.524,0.876,1.524,1.752c0,1.032-0.805,1.752-2.16,1.752c-0.637,0-1.225-0.168-1.632-0.408L292.611,232.731z"/>
			<path d="M298.779,226.599v1.392h1.512v0.804h-1.512v3.132c0,0.72,0.203,1.128,0.792,1.128c0.288,0,0.456-0.024,0.611-0.072
				l0.048,0.804c-0.203,0.072-0.527,0.144-0.936,0.144c-0.492,0-0.888-0.168-1.14-0.444c-0.288-0.324-0.408-0.84-0.408-1.524v-3.168
				h-0.9v-0.804h0.9v-1.068L298.779,226.599z"/>
			<path d="M302.006,231.075c0.024,1.428,0.924,2.016,1.98,2.016c0.756,0,1.224-0.132,1.607-0.288l0.192,0.744
				c-0.372,0.168-1.021,0.372-1.944,0.372c-1.776,0-2.856-1.188-2.856-2.928c0-1.764,1.045-3.144,2.736-3.144
				c1.896,0,2.389,1.668,2.389,2.736c0,0.216-0.013,0.384-0.036,0.504L302.006,231.075z M305.09,230.319
				c0.012-0.66-0.276-1.716-1.452-1.716c-1.08,0-1.536,0.984-1.62,1.716H305.09z"/>
			<path d="M307.418,229.887c0-0.744-0.013-1.344-0.048-1.896h0.947l0.061,0.996h0.023c0.42-0.72,1.116-1.128,2.053-1.128
				c1.416,0,2.472,1.188,2.472,2.952c0,2.088-1.284,3.12-2.64,3.12c-0.78,0-1.44-0.336-1.788-0.912h-0.024v3.156h-1.056V229.887z
				 M308.474,231.435c0,0.144,0.012,0.3,0.048,0.432c0.181,0.732,0.828,1.236,1.572,1.236c1.116,0,1.764-0.912,1.764-2.244
				c0-1.164-0.6-2.16-1.716-2.16c-0.72,0-1.404,0.504-1.607,1.296c-0.024,0.144-0.061,0.3-0.061,0.432V231.435z"/>
			<path d="M314.102,232.731c0.324,0.192,0.876,0.408,1.404,0.408c0.756,0,1.116-0.372,1.116-0.864c0-0.504-0.301-0.78-1.068-1.068
				c-1.057-0.384-1.548-0.948-1.548-1.644c0-0.936,0.768-1.704,2.004-1.704c0.588,0,1.104,0.156,1.416,0.36l-0.252,0.756
				c-0.229-0.132-0.648-0.336-1.188-0.336c-0.624,0-0.96,0.36-0.96,0.792c0,0.492,0.336,0.708,1.092,0.996
				c0.996,0.372,1.524,0.876,1.524,1.752c0,1.032-0.804,1.752-2.16,1.752c-0.636,0-1.224-0.168-1.632-0.408L314.102,232.731z"/>
			<path d="M321.542,225.279h1.057v3.624h0.023c0.168-0.3,0.433-0.576,0.756-0.744c0.313-0.192,0.685-0.3,1.08-0.3
				c0.78,0,2.028,0.48,2.028,2.484v3.456h-1.056v-3.336c0-0.948-0.349-1.728-1.345-1.728c-0.684,0-1.212,0.48-1.416,1.056
				c-0.06,0.144-0.071,0.3-0.071,0.504v3.504h-1.057V225.279z"/>
			<path d="M328.706,226.923c-0.396,0-0.66-0.312-0.66-0.684s0.276-0.672,0.685-0.672s0.672,0.3,0.672,0.672
				s-0.264,0.684-0.684,0.684H328.706z M328.202,233.799v-5.808h1.056v5.808H328.202z"/>
			<path d="M335.978,232.947c0,1.344-0.276,2.148-0.828,2.664c-0.576,0.516-1.393,0.696-2.124,0.696
				c-0.696,0-1.464-0.168-1.933-0.48l0.265-0.816c0.384,0.252,0.983,0.468,1.704,0.468c1.08,0,1.872-0.564,1.872-2.04v-0.636h-0.024
				c-0.312,0.54-0.948,0.972-1.848,0.972c-1.44,0-2.473-1.224-2.473-2.844c0-1.968,1.284-3.072,2.628-3.072
				c1.009,0,1.549,0.516,1.813,0.996h0.024l0.035-0.864h0.937c-0.036,0.408-0.048,0.876-0.048,1.584V232.947z M334.921,230.271
				c0-0.168-0.012-0.324-0.06-0.468c-0.192-0.624-0.696-1.128-1.476-1.128c-1.009,0-1.729,0.852-1.729,2.208
				c0,1.128,0.588,2.088,1.716,2.088c0.66,0,1.248-0.408,1.464-1.092c0.061-0.168,0.084-0.372,0.084-0.564V230.271z"/>
			<path d="M337.717,225.279h1.057v3.624h0.023c0.168-0.3,0.433-0.576,0.756-0.744c0.313-0.192,0.685-0.3,1.08-0.3
				c0.78,0,2.028,0.48,2.028,2.484v3.456h-1.056v-3.336c0-0.948-0.349-1.728-1.345-1.728c-0.684,0-1.212,0.48-1.416,1.056
				c-0.06,0.144-0.071,0.3-0.071,0.504v3.504h-1.057V225.279z"/>
			<path d="M344.978,231.075c0.023,1.428,0.924,2.016,1.979,2.016c0.756,0,1.224-0.132,1.608-0.288l0.191,0.744
				c-0.372,0.168-1.02,0.372-1.943,0.372c-1.776,0-2.856-1.188-2.856-2.928c0-1.764,1.044-3.144,2.736-3.144
				c1.896,0,2.388,1.668,2.388,2.736c0,0.216-0.012,0.384-0.036,0.504L344.978,231.075z M348.062,230.319
				c0.012-0.66-0.276-1.716-1.452-1.716c-1.08,0-1.536,0.984-1.62,1.716H348.062z"/>
			<path d="M350.402,229.803c0-0.684-0.013-1.272-0.049-1.812h0.925l0.048,1.14h0.036c0.264-0.78,0.911-1.272,1.62-1.272
				c0.107,0,0.191,0.012,0.287,0.036v0.984c-0.119-0.012-0.228-0.024-0.371-0.024c-0.744,0-1.272,0.564-1.416,1.344
				c-0.024,0.156-0.036,0.324-0.036,0.504v3.096h-1.057L350.402,229.803z"/>
			<path d="M379.392,225.999v0.696l-3.396,7.104h-1.08l3.372-6.9v-0.024h-3.816v-0.876H379.392z"/>
			<path d="M383.364,225.279h1.057v3.624h0.023c0.168-0.3,0.433-0.576,0.756-0.744c0.313-0.192,0.685-0.3,1.08-0.3
				c0.78,0,2.028,0.48,2.028,2.484v3.456h-1.056v-3.336c0-0.948-0.349-1.728-1.345-1.728c-0.684,0-1.212,0.48-1.416,1.056
				c-0.06,0.144-0.071,0.3-0.071,0.504v3.504h-1.057V225.279z"/>
			<path d="M394.116,232.407c0,0.504,0.024,0.996,0.084,1.392h-0.947l-0.097-0.732h-0.036c-0.312,0.456-0.947,0.864-1.775,0.864
				c-1.176,0-1.776-0.828-1.776-1.668c0-1.404,1.248-2.172,3.492-2.16v-0.12c0-0.48-0.132-1.356-1.32-1.344
				c-0.552,0-1.115,0.156-1.523,0.432l-0.24-0.708c0.48-0.3,1.188-0.504,1.92-0.504c1.788,0,2.22,1.212,2.22,2.376V232.407z
				 M393.084,230.835c-1.152-0.024-2.46,0.18-2.46,1.308c0,0.696,0.455,1.008,0.983,1.008c0.769,0,1.26-0.48,1.428-0.972
				c0.036-0.108,0.049-0.228,0.049-0.336V230.835z"/>
			<path d="M395.808,225.279h1.056v8.52h-1.056V225.279z"/>
			<path d="M398.712,233.799v-5.004h-0.805v-0.804h0.805v-0.276c0-0.816,0.191-1.56,0.684-2.028c0.396-0.384,0.924-0.54,1.404-0.54
				c0.384,0,0.695,0.084,0.899,0.168l-0.132,0.816c-0.168-0.072-0.372-0.132-0.684-0.132c-0.889,0-1.128,0.792-1.128,1.68v0.312
				h1.403v0.804h-1.392v5.004H398.712z"/>
			<path d="M404.52,232.731c0.323,0.192,0.876,0.408,1.403,0.408c0.757,0,1.116-0.372,1.116-0.864c0-0.504-0.3-0.78-1.067-1.068
				c-1.057-0.384-1.549-0.948-1.549-1.644c0-0.936,0.769-1.704,2.004-1.704c0.589,0,1.104,0.156,1.416,0.36l-0.252,0.756
				c-0.228-0.132-0.647-0.336-1.188-0.336c-0.624,0-0.96,0.36-0.96,0.792c0,0.492,0.336,0.708,1.092,0.996
				c0.996,0.372,1.524,0.876,1.524,1.752c0,1.032-0.805,1.752-2.16,1.752c-0.636,0-1.225-0.168-1.632-0.408L404.52,232.731z"/>
			<path d="M410.688,226.599v1.392h1.512v0.804h-1.512v3.132c0,0.72,0.204,1.128,0.792,1.128c0.288,0,0.456-0.024,0.611-0.072
				l0.049,0.804c-0.204,0.072-0.528,0.144-0.937,0.144c-0.492,0-0.888-0.168-1.14-0.444c-0.288-0.324-0.408-0.84-0.408-1.524v-3.168
				h-0.9v-0.804h0.9v-1.068L410.688,226.599z"/>
			<path d="M413.916,231.075c0.024,1.428,0.924,2.016,1.98,2.016c0.756,0,1.224-0.132,1.607-0.288l0.192,0.744
				c-0.372,0.168-1.021,0.372-1.944,0.372c-1.775,0-2.855-1.188-2.855-2.928c0-1.764,1.044-3.144,2.735-3.144
				c1.896,0,2.389,1.668,2.389,2.736c0,0.216-0.013,0.384-0.036,0.504L413.916,231.075z M417,230.319
				c0.012-0.66-0.275-1.716-1.452-1.716c-1.08,0-1.536,0.984-1.62,1.716H417z"/>
			<path d="M419.328,229.887c0-0.744-0.012-1.344-0.048-1.896h0.948l0.06,0.996h0.024c0.42-0.72,1.115-1.128,2.052-1.128
				c1.416,0,2.472,1.188,2.472,2.952c0,2.088-1.284,3.12-2.64,3.12c-0.78,0-1.44-0.336-1.788-0.912h-0.024v3.156h-1.056V229.887z
				 M420.383,231.435c0,0.144,0.013,0.3,0.048,0.432c0.181,0.732,0.828,1.236,1.572,1.236c1.116,0,1.764-0.912,1.764-2.244
				c0-1.164-0.6-2.16-1.716-2.16c-0.72,0-1.403,0.504-1.607,1.296c-0.024,0.144-0.061,0.3-0.061,0.432V231.435z"/>
			<path d="M426.011,232.731c0.324,0.192,0.876,0.408,1.404,0.408c0.756,0,1.116-0.372,1.116-0.864c0-0.504-0.301-0.78-1.068-1.068
				c-1.056-0.384-1.548-0.948-1.548-1.644c0-0.936,0.768-1.704,2.004-1.704c0.588,0,1.104,0.156,1.416,0.36l-0.252,0.756
				c-0.229-0.132-0.648-0.336-1.188-0.336c-0.624,0-0.96,0.36-0.96,0.792c0,0.492,0.336,0.708,1.093,0.996
				c0.995,0.372,1.523,0.876,1.523,1.752c0,1.032-0.804,1.752-2.16,1.752c-0.636,0-1.224-0.168-1.632-0.408L426.011,232.731z"/>
			<path d="M433.451,225.279h1.057v8.52h-1.057V225.279z"/>
			<path d="M438.624,233.931c-1.561,0-2.784-1.152-2.784-2.988c0-1.944,1.284-3.084,2.88-3.084c1.668,0,2.796,1.212,2.796,2.976
				c0,2.16-1.5,3.096-2.88,3.096H438.624z M438.659,233.139c1.009,0,1.765-0.948,1.765-2.268c0-0.984-0.492-2.22-1.74-2.22
				c-1.236,0-1.776,1.152-1.776,2.256c0,1.272,0.721,2.232,1.74,2.232H438.659z"/>
			<path d="M443.183,227.991l0.78,2.94c0.156,0.648,0.312,1.26,0.42,1.86h0.036c0.132-0.588,0.324-1.212,0.516-1.848l0.948-2.952
				h0.888l0.9,2.904c0.216,0.684,0.384,1.308,0.516,1.896h0.036c0.096-0.588,0.252-1.2,0.444-1.884l0.828-2.916h1.044l-1.872,5.808
				h-0.96l-0.889-2.772c-0.204-0.66-0.372-1.236-0.516-1.92h-0.024c-0.144,0.696-0.323,1.308-0.527,1.932l-0.937,2.76h-0.96
				l-1.752-5.808H443.183z"/>
			<path d="M452.087,231.075c0.023,1.428,0.924,2.016,1.979,2.016c0.757,0,1.225-0.132,1.608-0.288l0.192,0.744
				c-0.372,0.168-1.021,0.372-1.944,0.372c-1.776,0-2.856-1.188-2.856-2.928c0-1.764,1.044-3.144,2.736-3.144
				c1.896,0,2.388,1.668,2.388,2.736c0,0.216-0.012,0.384-0.035,0.504L452.087,231.075z M455.171,230.319
				c0.012-0.66-0.276-1.716-1.452-1.716c-1.08,0-1.536,0.984-1.62,1.716H455.171z"/>
			<path d="M457.511,229.803c0-0.684-0.012-1.272-0.048-1.812h0.924l0.048,1.14h0.036c0.264-0.78,0.912-1.272,1.62-1.272
				c0.107,0,0.191,0.012,0.288,0.036v0.984c-0.12-0.012-0.229-0.024-0.372-0.024c-0.744,0-1.272,0.564-1.416,1.344
				c-0.024,0.156-0.036,0.324-0.036,0.504v3.096H457.5L457.511,229.803z"/>
		</g>
	</g>
</svg>
