<?xml version="1.0" encoding="utf-8"?>
<!-- Generator: Adobe Illustrator 10.0, SVG Export Plug-In . SVG Version: 3.0.0 Build 76)  -->
<!DOCTYPE svg PUBLIC "-//W3C//DTD SVG 1.0//EN"    "http://www.w3.org/TR/2001/REC-SVG-20010904/DTD/svg10.dtd" [
	<!ENTITY ns_flows "http://ns.adobe.com/Flows/1.0/">
	<!ENTITY ns_extend "http://ns.adobe.com/Extensibility/1.0/">
	<!ENTITY ns_ai "http://ns.adobe.com/AdobeIllustrator/10.0/">
	<!ENTITY ns_svg "http://www.w3.org/2000/svg">
	<!ENTITY ns_xlink "http://www.w3.org/1999/xlink">
]>
<svg  xmlns:x="&ns_extend;" xmlns:i="&ns_ai;" xmlns:graph="&ns_graphs;"
	 xmlns="&ns_svg;" xmlns:xlink="&ns_xlink;" xmlns:a="http://ns.adobe.com/AdobeSVGViewerExtensions/3.0/" width="349" height="52"
	 viewBox="-0.375 -0.425 349 52" overflow="visible" enable-background="new -0.375 -0.425 349 52" xml:space="preserve">
	<g id="Layer_1_2_">
		<g>
			<path fill="none" stroke="#000000" d="M0.093,4.579h347.22"/>
			<path fill="none" stroke="#000000" d="M0.093,19.691h347.22"/>
			<path fill="none" stroke="#000000" d="M0.266,26.813h347.22"/>
			<path fill="none" stroke="#000000" d="M0,34.197h347.219"/>
			<path fill="none" stroke="#000000" d="M0,11.833h347.219"/>
		</g>
		<path fill="none" stroke="#0A0A0A" d="M133.234,4.062v29.746"/>
		<g>
			<path d="M77.716,39.347v-3.912h0.696v3.672l2.352-0.768v-3.504h0.696v3.288l0.936-0.312v2.496l-0.936,0.312v3.552l0.936-0.288
				v2.472l-0.936,0.312v3.912h-0.696v-3.696l-2.352,0.768v3.552h-0.696v-3.312l-1.032,0.336v-2.496l1.032-0.336v-3.576l-1.032,0.336
				v-2.472L77.716,39.347z M78.412,41.603v3.576l2.352-0.768v-3.576L78.412,41.603z"/>
		</g>
		<g>
			<path d="M9.818,33.768c-4.944-2.352-5.736-5.376-5.952-8.472c-0.24-3.36,1.896-6.768,3.888-8.664
				c1.152-1.08,2.4-2.136,3.888-3.264c-0.048-0.84-0.24-1.176-0.336-2.376c-0.024-0.504-0.336-2.856,0.168-5.568
				c0.312-1.608,2.328-5.4,3.72-5.424c1.08-0.024,2.736,4.296,2.784,6.456c0.072,3.336-0.72,4.848-1.704,6.576
				c-0.504,0.864-1.032,1.464-1.584,2.136c-0.576,0.696-1.224,1.104-1.824,1.632c0,0,0.768,4.344,0.792,4.656
				c1.536-0.192,3.408,0.36,4.08,0.84c1.704,1.272,2.352,3.024,2.472,4.728c0.216,2.712-1.272,5.568-4.56,6.936
				c0,0,0.504,3.456,0.624,4.176c0.264,1.896,0.216,3.096-0.192,3.864c-0.696,1.296-1.824,2.496-4.008,2.64
				c-1.68,0.096-4.992-0.744-5.16-3.384c-0.096-1.56,0.6-3.24,2.496-3.36c1.152-0.096,2.52,0.864,2.616,2.232
				c0.096,1.176-0.672,2.4-2.664,2.952c0.312,0.432,1.248,0.936,2.592,0.936c1.392,0,2.832-0.936,3.528-2.184
				c0.432-0.816,0.384-2.28,0.216-3.624c-0.072-0.456-0.648-4.08-0.648-4.08C13.274,34.416,10.826,34.248,9.818,33.768z
				 M10.298,28.08c0.048,1.152,1.008,2.496,1.896,2.952c-0.12,0.072-0.24,0.264-0.24,0.264c-0.984-0.48-1.824-1.272-2.04-1.56
				c-0.696-0.936-0.984-1.464-1.08-2.88c-0.096-1.32,0.624-3.096,2.232-4.344c0.84-0.624,1.248-0.768,1.968-0.936l-0.72-4.344
				c-0.744,0.432-3.816,2.904-5.112,4.92c-1.152,1.8-1.848,3.24-1.704,5.016c0.288,4.008,4.68,7.296,9.432,6.168
				c0,0-1.416-8.52-1.392-8.52C10.922,24.912,10.226,26.928,10.298,28.08z M12.242,12.864c2.088-1.632,4.92-4.704,4.752-7.08
				c-0.048-0.744-0.36-2.088-1.44-2.064C13.083,3.744,11.69,8.904,12.242,12.864z M15.506,33.144c2.76-0.936,2.88-3.312,2.784-4.728
				c-0.096-1.176-0.624-3.816-4.128-3.648L15.506,33.144z"/>
		</g>
		<g>
			<path d="M148.904,31.198c2.664,0.024,5.184,1.032,5.376,3.264c0.144,1.632-2.016,3.12-4.68,3.12
				c-2.688-0.024-5.184-1.008-5.4-3.24C144.056,32.686,146.24,31.198,148.904,31.198z M149.552,37.03
				c1.152,0,1.896-1.104,1.776-1.992c-0.264-1.752-0.864-3.168-2.448-3.168c-1.152,0-1.824,1.128-1.68,2.016
				C147.464,35.638,147.968,37.03,149.552,37.03z"/>
		</g>
		<g>
			<g>
				<path d="M48.912,38.035c2.664,0.024,5.184,1.032,5.376,3.264c0.144,1.632-2.016,3.12-4.68,3.12
					c-2.688-0.024-5.184-1.008-5.4-3.24C44.063,39.522,46.248,38.035,48.912,38.035z M49.56,43.867c1.152,0,1.896-1.104,1.776-1.992
					c-0.264-1.752-0.864-3.168-2.448-3.168c-1.152,0-1.824,1.128-1.68,2.016C47.472,42.475,47.976,43.867,49.56,43.867z"/>
			</g>
			<path fill="none" stroke="#000000" d="M42.2,41.747h14.666"/>
		</g>
		<path fill="none" stroke="#0A0A0A" d="M236.567,3.729v29.746"/>
		<path fill="none" stroke="#0A0A0A" d="M347.66,4.556v29.746"/>
		<g>
			<g>
				<path d="M91.578,38.701c2.664,0.024,5.184,1.032,5.376,3.264c0.144,1.632-2.016,3.12-4.68,3.12
					c-2.688-0.024-5.184-1.008-5.4-3.24C86.729,40.189,88.914,38.701,91.578,38.701z M92.226,44.533
					c1.152,0,1.896-1.104,1.776-1.992c-0.264-1.752-0.864-3.168-2.448-3.168c-1.152,0-1.824,1.128-1.68,2.016
					C90.138,43.141,90.642,44.533,92.226,44.533z"/>
			</g>
			<path fill="none" stroke="#000000" d="M84.866,42.413h14.666"/>
		</g>
		<g>
			<path d="M192.237,26.864c2.664,0.024,5.184,1.032,5.376,3.264c0.144,1.632-2.016,3.12-4.68,3.12
				c-2.688-0.024-5.184-1.008-5.4-3.24C187.389,28.352,189.573,26.864,192.237,26.864z M192.885,32.696
				c1.152,0,1.896-1.104,1.776-1.992c-0.264-1.752-0.864-3.168-2.448-3.168c-1.152,0-1.824,1.128-1.68,2.016
				C190.797,31.304,191.301,32.696,192.885,32.696z"/>
		</g>
		<g>
			<path d="M264.904,23.531c2.664,0.024,5.184,1.032,5.376,3.264c0.144,1.632-2.016,3.12-4.68,3.12
				c-2.688-0.024-5.184-1.008-5.4-3.24C260.056,25.019,262.24,23.531,264.904,23.531z M265.552,29.363
				c1.152,0,1.896-1.104,1.776-1.992c-0.264-1.752-0.864-3.168-2.448-3.168c-1.152,0-1.824,1.128-1.68,2.016
				C263.464,27.971,263.968,29.363,265.552,29.363z"/>
		</g>
		<g>
			<path d="M302.549,19.531c2.83,0.024,5.508,1.032,5.712,3.264c0.153,1.632-2.142,3.12-4.973,3.12
				c-2.855-0.024-5.508-1.008-5.737-3.24C297.398,21.019,299.718,19.531,302.549,19.531z M303.238,25.363
				c1.224,0,2.015-1.104,1.887-1.992c-0.28-1.752-0.918-3.168-2.601-3.168c-1.225,0-1.938,1.128-1.785,2.016
				C301.019,23.971,301.555,25.363,303.238,25.363z"/>
		</g>
		<g>
			<path d="M252.716,24.013v-3.912h0.696v3.672l2.352-0.768v-3.504h0.696v3.288l0.936-0.312v2.496l-0.936,0.312v3.552l0.936-0.288
				v2.472l-0.936,0.312v3.912h-0.696v-3.696l-2.352,0.768v3.552h-0.696v-3.312l-1.032,0.336v-2.496l1.032-0.336v-3.576l-1.032,0.336
				v-2.472L252.716,24.013z M253.412,26.27v3.576l2.352-0.768v-3.576L253.412,26.27z"/>
		</g>
		<g>
			<path d="M31.283,29.882v1.584c0,0.96,1.128,0.936,1.128,0.936v0.624h-5.208v-0.624c0,0,1.176,0.048,1.152-0.888v-1.632h-4.44
				l-0.432-0.456c2.904-3.912,2.928-4.632,3.624-8.184h4.152c-0.984,1.824-4.296,5.256-6.624,7.968h3.72v-2.952l2.928-3.216v6.168
				h1.728v0.672H31.283z"/>
		</g>
		<g>
			<path d="M29.422,18.575c-1.896,0-4.44-0.864-4.44-3.096c0-1.536,1.128-2.544,1.776-2.808c-1.2-0.672-1.536-1.776-1.536-2.76
				c0-2.28,2.016-3.192,4.2-3.216c3.192,0,4.08,1.392,4.128,2.976c0.024,0.888-0.432,1.728-1.152,2.328
				c0.864,0.432,1.584,1.296,1.584,2.568C33.982,17.015,31.486,18.575,29.422,18.575z M27.478,13.126
				c-0.792,0.48-1.272,0.912-1.248,1.92c0.024,1.608,0.72,2.76,2.928,2.76c0.72,0,2.376-0.792,2.376-1.944
				C31.534,13.967,28.462,13.295,27.478,13.126z M29.446,7.294c-1.176,0-2.448,0.672-2.256,1.68c0.192,1.008,3.384,2.16,4.392,2.496
				c0.408-0.432,0.84-1.152,0.792-1.8C32.278,8.447,31.63,7.294,29.446,7.294z"/>
		</g>
	</g>
</svg>
