<?xml version="1.0" encoding="utf-8"?>
<!-- Generator: Adobe Illustrator 10.0, SVG Export Plug-In . SVG Version: 3.0.0 Build 76)  -->
<!DOCTYPE svg PUBLIC "-//W3C//DTD SVG 1.0//EN"    "http://www.w3.org/TR/2001/REC-SVG-20010904/DTD/svg10.dtd" [
	<!ENTITY ns_flows "http://ns.adobe.com/Flows/1.0/">
	<!ENTITY ns_extend "http://ns.adobe.com/Extensibility/1.0/">
	<!ENTITY ns_ai "http://ns.adobe.com/AdobeIllustrator/10.0/">
	<!ENTITY ns_svg "http://www.w3.org/2000/svg">
	<!ENTITY ns_xlink "http://www.w3.org/1999/xlink">
]>
<svg  xmlns:x="&ns_extend;" xmlns:i="&ns_ai;" xmlns:graph="&ns_graphs;"
	 xmlns="&ns_svg;" xmlns:xlink="&ns_xlink;" xmlns:a="http://ns.adobe.com/AdobeSVGViewerExtensions/3.0/" width="271" height="124"
	 viewBox="-0.278 0.334 271 124" overflow="visible" enable-background="new -0.278 0.334 271 124" xml:space="preserve">
	<g id="Layer_1_2_">
		<g>
			<path d="M123.754,77.923v-3.912h0.696v3.672l2.352-0.768v-3.504h0.696v3.288l0.936-0.312v2.496l-0.936,0.312v3.552l0.936-0.288
				v2.472l-0.936,0.312v3.912h-0.696v-3.696l-2.352,0.768v3.552h-0.696v-3.312l-1.032,0.336v-2.496l1.032-0.336v-3.576l-1.032,0.336
				v-2.472L123.754,77.923z M124.45,80.18v3.576l2.352-0.768v-3.576L124.45,80.18z"/>
		</g>
		<g>
			<path d="M244.679,76.419c0,0.216,0,1.536,0,1.536c0.912-0.816,1.416-0.984,2.424-1.008c1.2-0.024,1.968,1.176,1.992,2.136
				c0.024,0.504-0.12,1.032-0.312,1.44c-0.216,0.528-0.792,0.936-1.176,1.32c-0.432,0.432-3.552,2.568-3.552,2.616V70.275h0.624
				C244.679,70.275,244.703,73.251,244.679,76.419z M244.943,78.795c-0.312,0.6-0.264,1.632-0.264,2.376v2.064
				c0,0.024,0.864-0.72,1.344-1.176c0.432-0.408,0.768-0.864,0.936-1.584c0.192-0.72,0.12-1.488-0.336-1.992
				C246.311,78.124,245.447,77.835,244.943,78.795z"/>
		</g>
		<g>
			<path d="M187.991,76.296V90h-0.624v-5.136l-3.336,0.864V71.856h0.6v5.352L187.991,76.296z M184.631,79.513v3.768l2.736-0.72
				v-3.768L184.631,79.513z"/>
		</g>
		<g>
			<path d="M124.501,120.396c0.468,0.3,1.14,0.528,1.86,0.528c1.068,0,1.692-0.552,1.692-1.38c0-0.744-0.432-1.188-1.524-1.596
				c-1.32-0.48-2.136-1.176-2.136-2.304c0-1.26,1.044-2.196,2.616-2.196c0.816,0,1.428,0.192,1.776,0.396l-0.288,0.852
				c-0.252-0.156-0.792-0.384-1.524-0.384c-1.104,0-1.524,0.66-1.524,1.212c0,0.756,0.492,1.128,1.608,1.56
				c1.368,0.54,2.052,1.188,2.052,2.376c0,1.248-0.912,2.34-2.82,2.34c-0.78,0-1.632-0.24-2.064-0.528L124.501,120.396z"/>
			<path d="M130.478,113.147h1.056v3.624h0.024c0.168-0.3,0.432-0.576,0.756-0.744c0.312-0.192,0.684-0.3,1.08-0.3
				c0.78,0,2.028,0.48,2.028,2.484v3.456h-1.056v-3.336c0-0.948-0.348-1.728-1.344-1.728c-0.684,0-1.212,0.48-1.416,1.056
				c-0.06,0.144-0.072,0.3-0.072,0.504v3.504h-1.056V113.147z"/>
			<path d="M141.229,120.275c0,0.504,0.024,0.996,0.084,1.392h-0.948l-0.096-0.732h-0.036c-0.312,0.456-0.948,0.864-1.776,0.864
				c-1.176,0-1.776-0.828-1.776-1.668c0-1.404,1.248-2.172,3.492-2.16v-0.12c0-0.48-0.132-1.356-1.32-1.344
				c-0.552,0-1.116,0.156-1.524,0.432l-0.24-0.708c0.48-0.3,1.188-0.504,1.92-0.504c1.788,0,2.22,1.212,2.22,2.376V120.275z
				 M140.198,118.704c-1.152-0.024-2.46,0.18-2.46,1.308c0,0.696,0.456,1.008,0.984,1.008c0.768,0,1.26-0.48,1.428-0.972
				c0.036-0.108,0.048-0.228,0.048-0.336V118.704z"/>
			<path d="M142.934,117.671c0-0.684-0.012-1.272-0.048-1.812h0.924l0.048,1.14h0.036c0.264-0.78,0.912-1.272,1.62-1.272
				c0.108,0,0.192,0.012,0.288,0.036v0.984c-0.12-0.012-0.228-0.024-0.372-0.024c-0.744,0-1.272,0.564-1.416,1.344
				c-0.024,0.156-0.036,0.324-0.036,0.504v3.096h-1.056L142.934,117.671z"/>
			<path d="M146.894,117.755c0-0.744-0.012-1.344-0.048-1.896h0.948l0.06,0.996h0.024c0.42-0.72,1.116-1.128,2.052-1.128
				c1.416,0,2.472,1.188,2.472,2.952c0,2.088-1.284,3.12-2.64,3.12c-0.78,0-1.44-0.336-1.788-0.912h-0.024v3.156h-1.056V117.755z
				 M147.95,119.303c0,0.144,0.012,0.3,0.048,0.432c0.18,0.732,0.828,1.236,1.572,1.236c1.116,0,1.764-0.912,1.764-2.244
				c0-1.164-0.6-2.16-1.716-2.16c-0.72,0-1.404,0.504-1.608,1.296c-0.024,0.144-0.06,0.3-0.06,0.432V119.303z"/>
			<path d="M170.809,121.667v-8.088h1.152l2.58,4.092c0.588,0.948,1.068,1.788,1.44,2.628l0.036-0.012
				c-0.096-1.08-0.12-2.064-0.12-3.312v-3.396h0.984v8.088h-1.056l-2.568-4.104c-0.564-0.9-1.104-1.824-1.5-2.7l-0.036,0.012
				c0.06,1.02,0.072,1.992,0.072,3.336v3.456H170.809z"/>
			<path d="M182.737,120.275c0,0.504,0.024,0.996,0.084,1.392h-0.948l-0.096-0.732h-0.036c-0.312,0.456-0.948,0.864-1.776,0.864
				c-1.176,0-1.776-0.828-1.776-1.668c0-1.404,1.248-2.172,3.492-2.16v-0.12c0-0.48-0.132-1.356-1.32-1.344
				c-0.552,0-1.116,0.156-1.524,0.432l-0.24-0.708c0.48-0.3,1.188-0.504,1.92-0.504c1.788,0,2.22,1.212,2.22,2.376V120.275z
				 M181.705,118.704c-1.152-0.024-2.46,0.18-2.46,1.308c0,0.696,0.456,1.008,0.984,1.008c0.768,0,1.26-0.48,1.428-0.972
				c0.036-0.108,0.048-0.228,0.048-0.336V118.704z"/>
			<path d="M185.653,114.467v1.392h1.512v0.804h-1.512v3.132c0,0.72,0.204,1.128,0.792,1.128c0.288,0,0.456-0.024,0.612-0.072
				l0.048,0.804c-0.204,0.072-0.528,0.144-0.936,0.144c-0.492,0-0.888-0.168-1.14-0.444c-0.288-0.324-0.408-0.84-0.408-1.524v-3.168
				h-0.9v-0.804h0.9v-1.068L185.653,114.467z"/>
			<path d="M193.213,120.083c0,0.6,0.012,1.128,0.048,1.584h-0.936l-0.06-0.948h-0.024c-0.264,0.468-0.888,1.08-1.92,1.08
				c-0.912,0-2.004-0.516-2.004-2.544v-3.396h1.056v3.204c0,1.104,0.348,1.86,1.296,1.86c0.708,0,1.2-0.492,1.392-0.972
				c0.06-0.144,0.096-0.336,0.096-0.54v-3.552h1.056V120.083z"/>
			<path d="M194.977,117.671c0-0.684-0.012-1.272-0.048-1.812h0.924l0.048,1.14h0.036c0.264-0.78,0.912-1.272,1.62-1.272
				c0.108,0,0.192,0.012,0.288,0.036v0.984c-0.12-0.012-0.228-0.024-0.372-0.024c-0.744,0-1.272,0.564-1.416,1.344
				c-0.024,0.156-0.036,0.324-0.036,0.504v3.096h-1.056L194.977,117.671z"/>
			<path d="M202.909,120.275c0,0.504,0.024,0.996,0.084,1.392h-0.948l-0.096-0.732h-0.036c-0.312,0.456-0.948,0.864-1.776,0.864
				c-1.176,0-1.776-0.828-1.776-1.668c0-1.404,1.248-2.172,3.492-2.16v-0.12c0-0.48-0.132-1.356-1.32-1.344
				c-0.552,0-1.116,0.156-1.524,0.432l-0.24-0.708c0.48-0.3,1.188-0.504,1.92-0.504c1.788,0,2.22,1.212,2.22,2.376V120.275z
				 M201.877,118.704c-1.152-0.024-2.46,0.18-2.46,1.308c0,0.696,0.456,1.008,0.984,1.008c0.768,0,1.26-0.48,1.428-0.972
				c0.036-0.108,0.048-0.228,0.048-0.336V118.704z"/>
			<path d="M204.601,113.147h1.056v8.52h-1.056V113.147z"/>
			<path d="M242.797,113.58h4.356v0.876h-3.3v2.688h3.048v0.864h-3.048v3.66h-1.056V113.58z"/>
			<path d="M248.413,113.147h1.056v8.52h-1.056V113.147z"/>
			<path d="M255.313,120.275c0,0.504,0.024,0.996,0.084,1.392h-0.948l-0.096-0.732h-0.036c-0.312,0.456-0.948,0.864-1.776,0.864
				c-1.176,0-1.776-0.828-1.776-1.668c0-1.404,1.248-2.172,3.492-2.16v-0.12c0-0.48-0.132-1.356-1.32-1.344
				c-0.552,0-1.116,0.156-1.524,0.432l-0.24-0.708c0.48-0.3,1.188-0.504,1.92-0.504c1.788,0,2.22,1.212,2.22,2.376V120.275z
				 M254.281,118.704c-1.152-0.024-2.46,0.18-2.46,1.308c0,0.696,0.456,1.008,0.984,1.008c0.768,0,1.26-0.48,1.428-0.972
				c0.036-0.108,0.048-0.228,0.048-0.336V118.704z"/>
			<path d="M258.229,114.467v1.392h1.512v0.804h-1.512v3.132c0,0.72,0.204,1.128,0.792,1.128c0.288,0,0.456-0.024,0.612-0.072
				l0.048,0.804c-0.204,0.072-0.528,0.144-0.936,0.144c-0.492,0-0.888-0.168-1.14-0.444c-0.288-0.324-0.408-0.84-0.408-1.524v-3.168
				h-0.9v-0.804h0.9v-1.068L258.229,114.467z"/>
		</g>
		<g>
			<path fill="none" stroke="#000000" d="M132.013,1v14"/>
			<path fill="none" stroke="#000000" d="M137.679,9.229v5.542"/>
			<path fill="none" stroke="#000000" d="M133.054,9h5.25"/>
			<path fill="none" stroke="#000000" d="M132.721,14h5.25"/>
		</g>
		<g>
			<path fill="none" stroke="#000000" d="M242.388,11.333c0,1.638-1.492,2.964-3.333,2.964c-1.841,0-3.333-1.326-3.333-2.964
				c0-1.636,1.492-2.963,3.333-2.963C240.896,8.37,242.388,9.696,242.388,11.333z"/>
			<path fill="#FFFFFF" stroke="#FFFFFF" d="M235.722,16h-8V5.333h8V16z"/>
			<path fill="none" stroke="#000000" d="M236.722,0v14"/>
		</g>
		<g>
			<path d="M7.02,10.238C6.984,9.266,6.948,8.102,6.948,6.914H6.924c-0.264,1.032-0.6,2.184-0.912,3.132l-0.984,3.156H3.6
				l-0.864-3.12c-0.264-0.96-0.528-2.1-0.732-3.168H1.98c-0.036,1.092-0.084,2.34-0.132,3.348l-0.156,3.072H0l0.516-8.088h2.436
				l0.792,2.712c0.264,0.924,0.504,1.932,0.684,2.88h0.048c0.216-0.936,0.492-1.992,0.768-2.904l0.852-2.688h2.4l0.432,8.088H7.152
				L7.02,10.238z"/>
			<path d="M11.712,10.97c0.06,0.768,0.804,1.128,1.656,1.128c0.624,0,1.128-0.084,1.62-0.252l0.24,1.236
				c-0.6,0.252-1.332,0.372-2.124,0.372c-1.992,0-3.132-1.152-3.132-3c0-1.488,0.936-3.132,2.964-3.132
				c1.896,0,2.616,1.476,2.616,2.928c0,0.312-0.036,0.588-0.06,0.732L11.712,10.97z M13.86,9.722c0-0.432-0.192-1.188-1.02-1.188
				c-0.78,0-1.092,0.708-1.14,1.188H13.86z"/>
			<path d="M22.332,4.814v6.768c0,0.672,0.024,1.356,0.048,1.752h-1.62l-0.072-0.852h-0.036c-0.36,0.648-1.08,0.984-1.836,0.984
				c-1.392,0-2.508-1.188-2.508-3.012c-0.012-1.968,1.224-3.12,2.628-3.12c0.732,0,1.284,0.264,1.548,0.66h0.024v-3.18H22.332z
				 M20.508,9.962c0-0.108,0-0.228-0.024-0.336c-0.108-0.492-0.504-0.888-1.068-0.888c-0.84,0-1.26,0.744-1.26,1.668
				c0,0.984,0.492,1.608,1.248,1.608c0.528,0,0.96-0.36,1.068-0.876c0.024-0.12,0.036-0.264,0.036-0.408V9.962z"/>
			<path d="M24.696,6.698c-0.612,0-1.008-0.432-1.008-0.972c0-0.552,0.408-0.972,1.032-0.972s1.008,0.42,1.02,0.972
				c0,0.54-0.396,0.972-1.032,0.972H24.696z M23.796,13.334V7.466h1.824v5.868H23.796z"/>
			<path d="M28.488,10.97c0.06,0.768,0.804,1.128,1.656,1.128c0.624,0,1.128-0.084,1.62-0.252l0.24,1.236
				c-0.6,0.252-1.332,0.372-2.124,0.372c-1.992,0-3.132-1.152-3.132-3c0-1.488,0.936-3.132,2.964-3.132
				c1.896,0,2.616,1.476,2.616,2.928c0,0.312-0.036,0.588-0.06,0.732L28.488,10.97z M30.636,9.722c0-0.432-0.192-1.188-1.02-1.188
				c-0.78,0-1.092,0.708-1.14,1.188H30.636z"/>
			<path d="M34.644,7.466l0.792,2.724c0.144,0.492,0.24,0.96,0.336,1.428h0.036c0.096-0.48,0.192-0.924,0.324-1.428l0.756-2.724
				h1.92l-2.184,5.868H34.8l-2.136-5.868H34.644z"/>
			<path d="M44.328,11.918c0,0.552,0.024,1.092,0.096,1.416H42.78l-0.108-0.588h-0.036c-0.384,0.468-0.984,0.72-1.68,0.72
				c-1.188,0-1.896-0.864-1.896-1.8c0-1.524,1.368-2.244,3.444-2.244V9.35c0-0.312-0.168-0.756-1.068-0.756
				c-0.6,0-1.236,0.204-1.62,0.432L39.48,7.862c0.408-0.228,1.212-0.528,2.28-0.528c1.956,0,2.568,1.152,2.568,2.532V11.918z
				 M42.564,10.562c-0.96,0-1.704,0.228-1.704,0.924c0,0.468,0.312,0.696,0.72,0.696c0.444,0,0.828-0.3,0.948-0.672
				c0.024-0.096,0.036-0.204,0.036-0.312V10.562z"/>
			<path d="M45.78,4.814h1.824v8.52H45.78V4.814z"/>
			<path d="M51.612,11.462c0.48,0.252,1.248,0.504,2.028,0.504c0.84,0,1.284-0.348,1.284-0.888c0-0.492-0.384-0.792-1.356-1.128
				c-1.344-0.48-2.232-1.224-2.232-2.412c0-1.38,1.164-2.424,3.06-2.424c0.924,0,1.584,0.18,2.064,0.408l-0.408,1.464
				c-0.312-0.156-0.9-0.384-1.68-0.384c-0.792,0-1.176,0.372-1.176,0.78c0,0.516,0.444,0.744,1.5,1.152
				c1.428,0.528,2.088,1.272,2.088,2.424c0,1.356-1.032,2.508-3.252,2.508c-0.924,0-1.836-0.252-2.292-0.504L51.612,11.462z"/>
			<path d="M59.16,7.466l0.876,2.88c0.096,0.348,0.216,0.78,0.288,1.092h0.036c0.084-0.312,0.18-0.756,0.264-1.092l0.72-2.88H63.3
				l-1.368,3.864c-0.84,2.328-1.404,3.252-2.064,3.84c-0.624,0.552-1.296,0.756-1.764,0.804l-0.384-1.536
				c0.228-0.048,0.516-0.156,0.792-0.312c0.276-0.144,0.588-0.444,0.756-0.732c0.06-0.096,0.096-0.18,0.096-0.264
				c0-0.06-0.012-0.156-0.072-0.3l-2.16-5.364H59.16z"/>
			<path d="M64.067,9.338c0-0.732-0.024-1.344-0.048-1.872h1.548L65.64,8.27h0.036c0.252-0.384,0.78-0.936,1.776-0.936
				c0.768,0,1.356,0.396,1.608,1.008h0.024c0.228-0.312,0.48-0.552,0.768-0.72c0.324-0.18,0.684-0.288,1.116-0.288
				c1.128,0,1.98,0.792,1.98,2.544v3.456h-1.776v-3.18c0-0.852-0.276-1.344-0.864-1.344c-0.432,0-0.72,0.288-0.852,0.636
				c-0.036,0.132-0.06,0.312-0.06,0.456v3.432H67.62v-3.288c0-0.732-0.264-1.236-0.852-1.236c-0.468,0-0.744,0.36-0.852,0.648
				c-0.06,0.144-0.072,0.312-0.072,0.468v3.408h-1.776V9.338z"/>
			<path d="M74.387,4.814h1.824v3.348h0.024c0.348-0.504,0.96-0.828,1.776-0.828c1.404,0,2.424,1.164,2.412,2.964
				c0,2.112-1.332,3.168-2.676,3.168c-0.684,0-1.356-0.252-1.764-0.948h-0.024l-0.072,0.816h-1.548
				c0.024-0.384,0.048-1.092,0.048-1.752V4.814z M76.211,10.838c0,0.12,0.012,0.228,0.036,0.324c0.12,0.48,0.54,0.864,1.068,0.864
				c0.78,0,1.26-0.6,1.26-1.656c0-0.912-0.408-1.632-1.26-1.632c-0.492,0-0.948,0.372-1.068,0.9
				c-0.024,0.108-0.036,0.216-0.036,0.336V10.838z"/>
			<path d="M84.299,13.466c-1.716,0-3.036-1.128-3.036-3.024s1.248-3.108,3.144-3.108c1.788,0,2.988,1.236,2.988,3.012
				c0,2.136-1.524,3.12-3.084,3.12H84.299z M84.335,12.158c0.72,0,1.164-0.708,1.164-1.764c0-0.864-0.336-1.752-1.164-1.752
				c-0.864,0-1.2,0.888-1.2,1.764c0,0.996,0.42,1.752,1.188,1.752H84.335z"/>
			<path d="M88.523,4.814h1.824v8.52h-1.824V4.814z"/>
			<path d="M91.799,11.75c0.336,0.204,1.032,0.432,1.572,0.432c0.552,0,0.78-0.18,0.78-0.48c0-0.312-0.18-0.456-0.852-0.684
				c-1.224-0.396-1.692-1.068-1.68-1.752c0-1.104,0.936-1.932,2.388-1.932c0.684,0,1.284,0.168,1.644,0.348L95.339,8.93
				c-0.264-0.132-0.78-0.324-1.272-0.324c-0.444,0-0.696,0.18-0.696,0.468c0,0.288,0.228,0.432,0.948,0.684
				c1.116,0.372,1.572,0.948,1.584,1.8c0,1.104-0.852,1.908-2.532,1.908c-0.768,0-1.452-0.18-1.896-0.42L91.799,11.75z"/>
			<path d="M7.02,82.738c-0.036-0.972-0.072-2.136-0.072-3.324H6.924c-0.264,1.032-0.6,2.184-0.912,3.132l-0.984,3.156H3.6
				l-0.864-3.12c-0.264-0.96-0.528-2.1-0.732-3.168H1.98c-0.036,1.092-0.084,2.34-0.132,3.348l-0.156,3.072H0l0.516-8.088h2.436
				l0.792,2.712c0.264,0.924,0.504,1.932,0.684,2.88h0.048c0.216-0.936,0.492-1.992,0.768-2.904l0.852-2.688h2.4l0.432,8.088H7.152
				L7.02,82.738z"/>
			<path d="M12.996,85.966c-1.716,0-3.036-1.128-3.036-3.024s1.248-3.108,3.144-3.108c1.788,0,2.988,1.236,2.988,3.012
				c0,2.136-1.524,3.12-3.084,3.12H12.996z M13.032,84.658c0.72,0,1.164-0.708,1.164-1.764c0-0.864-0.336-1.752-1.164-1.752
				c-0.864,0-1.2,0.888-1.2,1.764c0,0.996,0.42,1.752,1.188,1.752H13.032z"/>
			<path d="M22.944,77.314v6.768c0,0.672,0.024,1.356,0.048,1.752h-1.62L21.3,84.982h-0.036c-0.36,0.648-1.08,0.984-1.836,0.984
				c-1.392,0-2.508-1.188-2.508-3.012c-0.012-1.968,1.224-3.12,2.628-3.12c0.732,0,1.284,0.264,1.548,0.66h0.024v-3.18H22.944z
				 M21.12,82.462c0-0.108,0-0.228-0.024-0.336c-0.108-0.492-0.504-0.888-1.068-0.888c-0.84,0-1.26,0.744-1.26,1.668
				c0,0.984,0.492,1.608,1.248,1.608c0.528,0,0.96-0.36,1.068-0.876c0.024-0.12,0.036-0.264,0.036-0.408V82.462z"/>
			<path d="M25.812,83.47c0.06,0.768,0.804,1.128,1.656,1.128c0.624,0,1.128-0.084,1.62-0.252l0.24,1.236
				c-0.6,0.252-1.332,0.372-2.124,0.372c-1.992,0-3.132-1.152-3.132-3c0-1.488,0.936-3.132,2.964-3.132
				c1.896,0,2.616,1.476,2.616,2.928c0,0.312-0.036,0.588-0.06,0.732L25.812,83.47z M27.96,82.222c0-0.432-0.192-1.188-1.02-1.188
				c-0.78,0-1.092,0.708-1.14,1.188H27.96z"/>
			<path d="M30.756,81.898c0-0.864-0.012-1.428-0.048-1.932h1.56l0.072,1.092h0.048c0.3-0.864,1.008-1.224,1.584-1.224
				c0.168,0,0.252,0.012,0.384,0.036v1.716c-0.156-0.024-0.3-0.048-0.504-0.048c-0.672,0-1.128,0.348-1.248,0.924
				c-0.024,0.12-0.036,0.252-0.036,0.408v2.964h-1.824L30.756,81.898z"/>
			<path d="M35.292,81.838c0-0.732-0.024-1.344-0.048-1.872h1.584l0.084,0.816h0.036c0.24-0.384,0.828-0.948,1.812-0.948
				c1.2,0,2.1,0.804,2.1,2.532v3.468h-1.824v-3.252c0-0.756-0.264-1.272-0.924-1.272c-0.504,0-0.804,0.348-0.936,0.684
				c-0.048,0.12-0.06,0.288-0.06,0.456v3.384h-1.824V81.838z"/>
			<path d="M44.868,83.962c0.48,0.252,1.248,0.504,2.028,0.504c0.84,0,1.284-0.348,1.284-0.888c0-0.492-0.384-0.792-1.356-1.128
				c-1.344-0.48-2.232-1.224-2.232-2.412c0-1.38,1.164-2.424,3.06-2.424c0.924,0,1.584,0.18,2.064,0.408l-0.408,1.464
				c-0.312-0.156-0.9-0.384-1.68-0.384c-0.792,0-1.176,0.372-1.176,0.78c0,0.516,0.444,0.744,1.5,1.152
				c1.428,0.528,2.088,1.272,2.088,2.424c0,1.356-1.032,2.508-3.252,2.508c-0.924,0-1.836-0.252-2.292-0.504L44.868,83.962z"/>
			<path d="M52.416,79.966l0.876,2.88c0.096,0.348,0.216,0.78,0.288,1.092h0.036c0.084-0.312,0.18-0.756,0.264-1.092l0.72-2.88
				h1.956l-1.368,3.864c-0.84,2.328-1.404,3.252-2.064,3.84c-0.624,0.552-1.296,0.756-1.764,0.804l-0.384-1.536
				c0.228-0.048,0.516-0.156,0.792-0.312c0.276-0.144,0.588-0.444,0.756-0.732c0.06-0.096,0.096-0.18,0.096-0.264
				c0-0.06-0.012-0.156-0.072-0.3l-2.16-5.364H52.416z"/>
			<path d="M57.324,81.838c0-0.732-0.024-1.344-0.048-1.872h1.548l0.072,0.804h0.036c0.252-0.384,0.78-0.936,1.776-0.936
				c0.768,0,1.356,0.396,1.608,1.008h0.024c0.228-0.312,0.48-0.552,0.768-0.72c0.324-0.18,0.684-0.288,1.116-0.288
				c1.128,0,1.98,0.792,1.98,2.544v3.456h-1.776v-3.18c0-0.852-0.276-1.344-0.864-1.344c-0.432,0-0.72,0.288-0.852,0.636
				c-0.036,0.132-0.06,0.312-0.06,0.456v3.432h-1.776v-3.288c0-0.732-0.264-1.236-0.852-1.236c-0.468,0-0.744,0.36-0.852,0.648
				c-0.06,0.144-0.072,0.312-0.072,0.468v3.408h-1.776V81.838z"/>
			<path d="M67.644,77.314h1.824v3.348h0.024c0.348-0.504,0.96-0.828,1.776-0.828c1.404,0,2.424,1.164,2.412,2.964
				c0,2.112-1.332,3.168-2.676,3.168c-0.684,0-1.356-0.252-1.764-0.948h-0.024l-0.072,0.816h-1.548
				c0.024-0.384,0.048-1.092,0.048-1.752V77.314z M69.467,83.338c0,0.12,0.012,0.228,0.036,0.324c0.12,0.48,0.54,0.864,1.068,0.864
				c0.78,0,1.26-0.6,1.26-1.656c0-0.912-0.408-1.632-1.26-1.632c-0.492,0-0.948,0.372-1.068,0.9
				c-0.024,0.108-0.036,0.216-0.036,0.336V83.338z"/>
			<path d="M77.555,85.966c-1.716,0-3.036-1.128-3.036-3.024s1.248-3.108,3.144-3.108c1.788,0,2.988,1.236,2.988,3.012
				c0,2.136-1.524,3.12-3.084,3.12H77.555z M77.591,84.658c0.72,0,1.164-0.708,1.164-1.764c0-0.864-0.336-1.752-1.164-1.752
				c-0.864,0-1.2,0.888-1.2,1.764c0,0.996,0.42,1.752,1.188,1.752H77.591z"/>
			<path d="M81.779,77.314h1.824v8.52h-1.824V77.314z"/>
			<path d="M85.055,84.25c0.336,0.204,1.032,0.432,1.572,0.432c0.552,0,0.78-0.18,0.78-0.48c0-0.312-0.18-0.456-0.852-0.684
				c-1.224-0.396-1.692-1.068-1.68-1.752c0-1.104,0.936-1.932,2.388-1.932c0.684,0,1.284,0.168,1.644,0.348l-0.312,1.248
				c-0.264-0.132-0.78-0.324-1.272-0.324c-0.444,0-0.696,0.18-0.696,0.468c0,0.288,0.228,0.432,0.948,0.684
				c1.116,0.372,1.572,0.948,1.584,1.8c0,1.104-0.852,1.908-2.532,1.908c-0.768,0-1.452-0.18-1.896-0.42L85.055,84.25z"/>
		</g>
		<g>
			<path d="M127.084,23.696l-0.192,2.88h-0.648l-0.192-2.88H127.084z M128.873,23.696l-0.192,2.88h-0.648l-0.192-2.88H128.873z"/>
			<path d="M131.44,23.913v3.384h3.912v-3.384h1.056V32h-1.056v-3.792h-3.912V32h-1.056v-8.088H131.44z"/>
			<path d="M142.276,30.608c0,0.504,0.024,0.996,0.084,1.392h-0.948l-0.096-0.732h-0.036c-0.312,0.456-0.948,0.864-1.776,0.864
				c-1.176,0-1.776-0.828-1.776-1.668c0-1.404,1.248-2.172,3.492-2.16v-0.12c0-0.48-0.132-1.356-1.32-1.344
				c-0.552,0-1.116,0.156-1.524,0.432l-0.24-0.708c0.48-0.3,1.188-0.504,1.92-0.504c1.788,0,2.22,1.212,2.22,2.376V30.608z
				 M141.245,29.037c-1.152-0.024-2.46,0.18-2.46,1.308c0,0.696,0.456,1.008,0.984,1.008c0.768,0,1.26-0.48,1.428-0.972
				c0.036-0.108,0.048-0.228,0.048-0.336V29.037z"/>
			<path d="M143.98,28.004c0-0.684-0.012-1.272-0.048-1.812h0.924l0.048,1.14h0.036c0.264-0.78,0.912-1.272,1.62-1.272
				c0.108,0,0.192,0.012,0.288,0.036v0.984c-0.12-0.012-0.228-0.024-0.372-0.024c-0.744,0-1.272,0.564-1.416,1.344
				c-0.024,0.156-0.036,0.324-0.036,0.504V32h-1.056L143.98,28.004z"/>
			<path d="M152.836,23.48v7.02c0,0.516,0.012,1.104,0.048,1.5h-0.948l-0.048-1.008h-0.024c-0.324,0.648-1.02,1.14-1.968,1.14
				c-1.404,0-2.496-1.188-2.496-2.952c-0.012-1.944,1.2-3.12,2.604-3.12c0.9,0,1.5,0.42,1.752,0.876h0.024V23.48H152.836z
				 M151.78,28.557c0-0.144-0.012-0.312-0.048-0.456c-0.156-0.66-0.732-1.212-1.524-1.212c-1.092,0-1.74,0.96-1.74,2.232
				c0,1.188,0.588,2.16,1.716,2.16c0.708,0,1.356-0.48,1.548-1.26c0.036-0.144,0.048-0.288,0.048-0.456V28.557z"/>
			<path d="M157.168,24.032c0.456-0.108,1.188-0.18,1.908-0.18c1.044,0,1.716,0.18,2.208,0.588c0.42,0.312,0.684,0.792,0.684,1.428
				c0,0.792-0.528,1.476-1.368,1.776v0.036c0.768,0.18,1.668,0.816,1.668,2.016c0,0.696-0.276,1.224-0.696,1.62
				c-0.552,0.516-1.464,0.756-2.784,0.756c-0.72,0-1.272-0.048-1.62-0.096V24.032z M158.212,27.344h0.948
				c1.092,0,1.74-0.588,1.74-1.368c0-0.936-0.708-1.32-1.764-1.32c-0.48,0-0.756,0.036-0.924,0.072V27.344z M158.212,31.208
				c0.216,0.036,0.504,0.048,0.876,0.048c1.08,0,2.076-0.396,2.076-1.572c0-1.092-0.948-1.56-2.088-1.56h-0.864V31.208z"/>
			<path d="M164.404,23.696l-0.192,2.88h-0.648l-0.192-2.88H164.404z M166.192,23.696L166,26.577h-0.648l-0.192-2.88H166.192z"/>
			<path d="M224.523,23.696l-0.192,2.88h-0.648l-0.192-2.88H224.523z M226.312,23.696l-0.192,2.88h-0.648l-0.192-2.88H226.312z"/>
			<path d="M227.703,30.729c0.468,0.3,1.14,0.528,1.86,0.528c1.068,0,1.692-0.552,1.692-1.38c0-0.744-0.432-1.188-1.524-1.596
				c-1.32-0.48-2.136-1.176-2.136-2.304c0-1.26,1.044-2.196,2.616-2.196c0.816,0,1.428,0.192,1.776,0.396l-0.288,0.852
				c-0.252-0.156-0.792-0.384-1.524-0.384c-1.104,0-1.524,0.66-1.524,1.212c0,0.756,0.492,1.128,1.608,1.56
				c1.368,0.54,2.052,1.188,2.052,2.376c0,1.248-0.912,2.34-2.82,2.34c-0.78,0-1.632-0.24-2.064-0.528L227.703,30.729z"/>
			<path d="M236.127,32.132c-1.56,0-2.784-1.152-2.784-2.988c0-1.944,1.284-3.084,2.88-3.084c1.668,0,2.796,1.212,2.796,2.976
				c0,2.16-1.5,3.096-2.88,3.096H236.127z M236.163,31.34c1.008,0,1.764-0.948,1.764-2.268c0-0.984-0.492-2.22-1.74-2.22
				c-1.236,0-1.776,1.152-1.776,2.256c0,1.272,0.72,2.232,1.74,2.232H236.163z"/>
			<path d="M240.447,32v-5.004h-0.804v-0.804h0.804v-0.276c0-0.816,0.192-1.56,0.684-2.028c0.396-0.384,0.924-0.54,1.404-0.54
				c0.384,0,0.696,0.084,0.9,0.168l-0.132,0.816c-0.168-0.072-0.372-0.132-0.684-0.132c-0.888,0-1.128,0.792-1.128,1.68v0.312h1.404
				v0.804h-1.392V32H240.447z"/>
			<path d="M245.259,24.8v1.392h1.512v0.804h-1.512v3.132c0,0.72,0.204,1.128,0.792,1.128c0.288,0,0.456-0.024,0.612-0.072
				l0.048,0.804c-0.204,0.072-0.528,0.144-0.936,0.144c-0.492,0-0.888-0.168-1.14-0.444c-0.288-0.324-0.408-0.84-0.408-1.524v-3.168
				h-0.9v-0.804h0.9v-1.068L245.259,24.8z"/>
			<path d="M250.539,24.032c0.456-0.108,1.188-0.18,1.908-0.18c1.044,0,1.716,0.18,2.208,0.588c0.42,0.312,0.684,0.792,0.684,1.428
				c0,0.792-0.528,1.476-1.368,1.776v0.036c0.768,0.18,1.668,0.816,1.668,2.016c0,0.696-0.276,1.224-0.696,1.62
				c-0.552,0.516-1.464,0.756-2.784,0.756c-0.72,0-1.272-0.048-1.62-0.096V24.032z M251.583,27.344h0.948
				c1.092,0,1.74-0.588,1.74-1.368c0-0.936-0.708-1.32-1.764-1.32c-0.48,0-0.756,0.036-0.924,0.072V27.344z M251.583,31.208
				c0.216,0.036,0.504,0.048,0.876,0.048c1.08,0,2.076-0.396,2.076-1.572c0-1.092-0.948-1.56-2.088-1.56h-0.864V31.208z"/>
			<path d="M257.775,23.696l-0.192,2.88h-0.648l-0.192-2.88H257.775z M259.563,23.696l-0.192,2.88h-0.648l-0.192-2.88H259.563z"/>
			<path d="M115.961,46.632c-1.56,0-2.784-1.152-2.784-2.988c0-1.944,1.284-3.084,2.88-3.084c1.668,0,2.796,1.212,2.796,2.976
				c0,2.16-1.5,3.096-2.88,3.096H115.961z M115.997,45.84c1.008,0,1.764-0.948,1.764-2.268c0-0.984-0.492-2.22-1.74-2.22
				c-1.236,0-1.776,1.152-1.776,2.256c0,1.272,0.72,2.232,1.74,2.232H115.997z"/>
			<path d="M120.197,42.504c0-0.684-0.012-1.272-0.048-1.812h0.924l0.048,1.14h0.036c0.264-0.78,0.912-1.272,1.62-1.272
				c0.108,0,0.192,0.012,0.288,0.036v0.984c-0.12-0.012-0.228-0.024-0.372-0.024c-0.744,0-1.272,0.564-1.416,1.344
				c-0.024,0.156-0.036,0.324-0.036,0.504V46.5h-1.056L120.197,42.504z"/>
			<path d="M127.421,38.196l-0.192,2.88h-0.648l-0.192-2.88H127.421z M129.209,38.196l-0.192,2.88h-0.648l-0.192-2.88H129.209z"/>
			<path d="M130.601,45.229c0.468,0.3,1.14,0.528,1.86,0.528c1.068,0,1.692-0.552,1.692-1.38c0-0.744-0.432-1.188-1.524-1.596
				c-1.32-0.48-2.136-1.176-2.136-2.304c0-1.26,1.044-2.196,2.616-2.196c0.816,0,1.428,0.192,1.776,0.396l-0.288,0.852
				c-0.252-0.156-0.792-0.384-1.524-0.384c-1.104,0-1.524,0.66-1.524,1.212c0,0.756,0.492,1.128,1.608,1.56
				c1.368,0.54,2.052,1.188,2.052,2.376c0,1.248-0.912,2.34-2.82,2.34c-0.78,0-1.632-0.24-2.064-0.528L130.601,45.229z"/>
			<path d="M140.645,45.612h-0.024c-0.312,0.564-0.96,1.02-1.896,1.02c-1.356,0-2.46-1.164-2.46-2.94
				c0-2.172,1.404-3.132,2.628-3.132c0.9,0,1.5,0.444,1.788,1.008h0.024l0.036-0.876h1.008c-0.036,0.48-0.048,0.984-0.048,1.596
				v6.588h-1.056V45.612z M140.645,43.044c0-0.156-0.012-0.312-0.048-0.444c-0.168-0.648-0.72-1.2-1.512-1.2
				c-1.092,0-1.752,0.924-1.752,2.232c0,1.164,0.552,2.16,1.716,2.16c0.684,0,1.272-0.42,1.512-1.152
				c0.048-0.144,0.084-0.348,0.084-0.504V43.044z"/>
			<path d="M148.301,44.917c0,0.6,0.012,1.128,0.048,1.584h-0.936l-0.06-0.948h-0.024c-0.264,0.468-0.888,1.08-1.92,1.08
				c-0.912,0-2.004-0.516-2.004-2.544v-3.396h1.056v3.204c0,1.104,0.348,1.86,1.296,1.86c0.708,0,1.2-0.492,1.392-0.972
				c0.06-0.144,0.096-0.336,0.096-0.54v-3.552h1.056V44.917z"/>
			<path d="M154.145,45.108c0,0.504,0.024,0.996,0.084,1.392h-0.948l-0.096-0.732h-0.036c-0.312,0.456-0.948,0.864-1.776,0.864
				c-1.176,0-1.776-0.828-1.776-1.668c0-1.404,1.248-2.172,3.492-2.16v-0.12c0-0.48-0.132-1.356-1.32-1.344
				c-0.552,0-1.116,0.156-1.524,0.432l-0.24-0.708c0.48-0.3,1.188-0.504,1.92-0.504c1.788,0,2.22,1.212,2.22,2.376V45.108z
				 M153.113,43.537c-1.152-0.024-2.46,0.18-2.46,1.308c0,0.696,0.456,1.008,0.984,1.008c0.768,0,1.26-0.48,1.428-0.972
				c0.036-0.108,0.048-0.228,0.048-0.336V43.537z"/>
			<path d="M155.849,42.504c0-0.684-0.012-1.272-0.048-1.812h0.924l0.048,1.14h0.036c0.264-0.78,0.912-1.272,1.62-1.272
				c0.108,0,0.192,0.012,0.288,0.036v0.984c-0.12-0.012-0.228-0.024-0.372-0.024c-0.744,0-1.272,0.564-1.416,1.344
				c-0.024,0.156-0.036,0.324-0.036,0.504V46.5h-1.056L155.849,42.504z"/>
			<path d="M160.289,43.776c0.024,1.428,0.924,2.016,1.98,2.016c0.756,0,1.224-0.132,1.608-0.288l0.192,0.744
				c-0.372,0.168-1.02,0.372-1.944,0.372c-1.776,0-2.856-1.188-2.856-2.928c0-1.764,1.044-3.144,2.736-3.144
				c1.896,0,2.388,1.668,2.388,2.736c0,0.216-0.012,0.384-0.036,0.504L160.289,43.776z M163.373,43.021
				c0.012-0.66-0.276-1.716-1.452-1.716c-1.08,0-1.536,0.984-1.62,1.716H163.373z"/>
			<path d="M168.28,38.532c0.456-0.108,1.188-0.18,1.908-0.18c1.044,0,1.716,0.18,2.208,0.588c0.42,0.312,0.684,0.792,0.684,1.428
				c0,0.792-0.528,1.476-1.368,1.776v0.036c0.768,0.18,1.668,0.816,1.668,2.016c0,0.696-0.276,1.224-0.696,1.62
				c-0.552,0.516-1.464,0.756-2.784,0.756c-0.72,0-1.272-0.048-1.62-0.096V38.532z M169.324,41.844h0.948
				c1.092,0,1.74-0.588,1.74-1.368c0-0.936-0.708-1.32-1.764-1.32c-0.48,0-0.756,0.036-0.924,0.072V41.844z M169.324,45.708
				c0.216,0.036,0.504,0.048,0.876,0.048c1.08,0,2.076-0.396,2.076-1.572c0-1.092-0.948-1.56-2.088-1.56h-0.864V45.708z"/>
			<path d="M175.516,38.196l-0.192,2.88h-0.648l-0.192-2.88H175.516z M177.304,38.196l-0.192,2.88h-0.648l-0.192-2.88H177.304z"/>
			<path d="M211.683,46.632c-1.56,0-2.784-1.152-2.784-2.988c0-1.944,1.284-3.084,2.88-3.084c1.668,0,2.796,1.212,2.796,2.976
				c0,2.16-1.5,3.096-2.88,3.096H211.683z M211.719,45.84c1.008,0,1.764-0.948,1.764-2.268c0-0.984-0.492-2.22-1.74-2.22
				c-1.236,0-1.776,1.152-1.776,2.256c0,1.272,0.72,2.232,1.74,2.232H211.719z"/>
			<path d="M215.918,42.504c0-0.684-0.012-1.272-0.048-1.812h0.924l0.048,1.14h0.036c0.264-0.78,0.912-1.272,1.62-1.272
				c0.108,0,0.192,0.012,0.288,0.036v0.984c-0.12-0.012-0.228-0.024-0.372-0.024c-0.744,0-1.272,0.564-1.416,1.344
				c-0.024,0.156-0.036,0.324-0.036,0.504V46.5h-1.056L215.918,42.504z"/>
			<path d="M223.143,38.196l-0.192,2.88h-0.648l-0.192-2.88H223.143z M224.931,38.196l-0.192,2.88h-0.648l-0.192-2.88H224.931z"/>
			<path d="M226.455,38.532c0.528-0.108,1.296-0.18,2.004-0.18c1.116,0,1.848,0.216,2.352,0.672c0.396,0.348,0.636,0.9,0.636,1.536
				c0,1.056-0.684,1.764-1.524,2.052v0.036c0.612,0.216,0.984,0.792,1.188,1.632c0.264,1.128,0.456,1.908,0.612,2.22h-1.08
				c-0.132-0.228-0.312-0.924-0.528-1.932c-0.24-1.116-0.684-1.536-1.632-1.572h-0.984V46.5h-1.044V38.532z M227.499,42.205h1.068
				c1.116,0,1.824-0.612,1.824-1.536c0-1.044-0.756-1.5-1.86-1.5c-0.504,0-0.852,0.048-1.032,0.096V42.205z"/>
			<path d="M235.274,46.632c-1.56,0-2.784-1.152-2.784-2.988c0-1.944,1.284-3.084,2.88-3.084c1.668,0,2.796,1.212,2.796,2.976
				c0,2.16-1.5,3.096-2.88,3.096H235.274z M235.31,45.84c1.008,0,1.764-0.948,1.764-2.268c0-0.984-0.492-2.22-1.74-2.22
				c-1.236,0-1.776,1.152-1.776,2.256c0,1.272,0.72,2.232,1.74,2.232H235.31z"/>
			<path d="M244.358,44.917c0,0.6,0.012,1.128,0.048,1.584h-0.936l-0.06-0.948h-0.024c-0.264,0.468-0.888,1.08-1.92,1.08
				c-0.912,0-2.004-0.516-2.004-2.544v-3.396h1.056v3.204c0,1.104,0.348,1.86,1.296,1.86c0.708,0,1.2-0.492,1.392-0.972
				c0.06-0.144,0.096-0.336,0.096-0.54v-3.552h1.056V44.917z"/>
			<path d="M246.11,42.265c0-0.612-0.012-1.092-0.048-1.572h0.936l0.06,0.948h0.024c0.288-0.54,0.96-1.08,1.92-1.08
				c0.804,0,2.052,0.48,2.052,2.472V46.5h-1.056v-3.348c0-0.936-0.348-1.728-1.344-1.728c-0.684,0-1.224,0.492-1.416,1.08
				c-0.048,0.132-0.072,0.324-0.072,0.492V46.5h-1.056V42.265z"/>
			<path d="M257.786,37.98V45c0,0.516,0.012,1.104,0.048,1.5h-0.948l-0.048-1.008h-0.024c-0.324,0.648-1.02,1.14-1.968,1.14
				c-1.404,0-2.496-1.188-2.496-2.952c-0.012-1.944,1.2-3.12,2.604-3.12c0.9,0,1.5,0.42,1.752,0.876h0.024V37.98H257.786z
				 M256.73,43.057c0-0.144-0.012-0.312-0.048-0.456c-0.156-0.66-0.732-1.212-1.524-1.212c-1.092,0-1.74,0.96-1.74,2.232
				c0,1.188,0.588,2.16,1.716,2.16c0.708,0,1.356-0.48,1.548-1.26c0.036-0.144,0.048-0.288,0.048-0.456V43.057z"/>
			<path d="M262.118,38.532c0.456-0.108,1.188-0.18,1.908-0.18c1.044,0,1.716,0.18,2.208,0.588c0.42,0.312,0.684,0.792,0.684,1.428
				c0,0.792-0.528,1.476-1.368,1.776v0.036c0.768,0.18,1.668,0.816,1.668,2.016c0,0.696-0.276,1.224-0.696,1.62
				c-0.552,0.516-1.464,0.756-2.784,0.756c-0.72,0-1.272-0.048-1.62-0.096V38.532z M263.162,41.844h0.948
				c1.092,0,1.74-0.588,1.74-1.368c0-0.936-0.708-1.32-1.764-1.32c-0.48,0-0.756,0.036-0.924,0.072V41.844z M263.162,45.708
				c0.216,0.036,0.504,0.048,0.876,0.048c1.08,0,2.076-0.396,2.076-1.572c0-1.092-0.948-1.56-2.088-1.56h-0.864V45.708z"/>
			<path d="M269.354,38.196l-0.192,2.88h-0.648l-0.192-2.88H269.354z M271.142,38.196l-0.192,2.88h-0.648l-0.192-2.88H271.142z"/>
		</g>
	</g>
</svg>
