<?xml version="1.0" encoding="utf-8"?>
<!-- Generator: Adobe Illustrator 10.0, SVG Export Plug-In . SVG Version: 3.0.0 Build 76)  -->
<!DOCTYPE svg PUBLIC "-//W3C//DTD SVG 1.0//EN"    "http://www.w3.org/TR/2001/REC-SVG-20010904/DTD/svg10.dtd" [
	<!ENTITY ns_flows "http://ns.adobe.com/Flows/1.0/">
	<!ENTITY ns_extend "http://ns.adobe.com/Extensibility/1.0/">
	<!ENTITY ns_ai "http://ns.adobe.com/AdobeIllustrator/10.0/">
	<!ENTITY ns_svg "http://www.w3.org/2000/svg">
	<!ENTITY ns_xlink "http://www.w3.org/1999/xlink">
]>
<svg  xmlns:x="&ns_extend;" xmlns:i="&ns_ai;" xmlns:graph="&ns_graphs;"
	 xmlns="&ns_svg;" xmlns:xlink="&ns_xlink;" xmlns:a="http://ns.adobe.com/AdobeSVGViewerExtensions/3.0/" width="355" height="183"
	 viewBox="-0.494 -0.481 355 183" overflow="visible" enable-background="new -0.494 -0.481 355 183" xml:space="preserve">
	<g id="Layer_1_2_">
		<g>
			<path d="M0.63,173.915h4.932v1.5H2.454v1.848h2.904v1.488H2.454v3.252H0.63V173.915z"/>
			<path d="M12.078,180.119c0,0.768,0.024,1.392,0.048,1.884h-1.584l-0.084-0.828h-0.036c-0.228,0.36-0.78,0.96-1.836,0.96
				c-1.2,0-2.064-0.744-2.064-2.556v-3.444h1.824v3.156c0,0.852,0.276,1.368,0.924,1.368c0.504,0,0.804-0.348,0.912-0.636
				c0.048-0.108,0.072-0.24,0.072-0.396v-3.492h1.824V180.119z"/>
			<path d="M13.542,178.006c0-0.732-0.024-1.344-0.048-1.872h1.584l0.084,0.816h0.036c0.24-0.384,0.828-0.948,1.812-0.948
				c1.2,0,2.1,0.804,2.1,2.532v3.468h-1.824v-3.252c0-0.756-0.264-1.272-0.924-1.272c-0.504,0-0.804,0.348-0.936,0.684
				c-0.048,0.12-0.06,0.288-0.06,0.456v3.384h-1.824V178.006z"/>
			<path d="M26.262,173.482v6.768c0,0.672,0.024,1.356,0.048,1.752h-1.62l-0.072-0.852h-0.036c-0.36,0.648-1.08,0.984-1.836,0.984
				c-1.392,0-2.508-1.188-2.508-3.012c-0.012-1.968,1.224-3.12,2.628-3.12c0.732,0,1.284,0.264,1.548,0.66h0.024v-3.18H26.262z
				 M24.438,178.63c0-0.108,0-0.228-0.024-0.336c-0.108-0.492-0.504-0.888-1.068-0.888c-0.84,0-1.26,0.744-1.26,1.668
				c0,0.984,0.492,1.608,1.248,1.608c0.528,0,0.96-0.36,1.068-0.876c0.024-0.12,0.036-0.264,0.036-0.408V178.63z"/>
			<path d="M32.609,180.586c0,0.552,0.024,1.092,0.096,1.416h-1.644l-0.108-0.588h-0.036c-0.384,0.468-0.984,0.72-1.68,0.72
				c-1.188,0-1.896-0.864-1.896-1.8c0-1.524,1.368-2.244,3.444-2.244v-0.072c0-0.312-0.168-0.756-1.068-0.756
				c-0.6,0-1.236,0.204-1.62,0.432l-0.336-1.164c0.408-0.228,1.212-0.528,2.28-0.528c1.956,0,2.568,1.152,2.568,2.532V180.586z
				 M30.845,179.23c-0.96,0-1.704,0.228-1.704,0.924c0,0.468,0.312,0.696,0.72,0.696c0.444,0,0.828-0.3,0.948-0.672
				c0.024-0.096,0.036-0.204,0.036-0.312V179.23z"/>
			<path d="M34.062,178.006c0-0.732-0.024-1.344-0.048-1.872h1.548l0.072,0.804h0.036c0.252-0.384,0.78-0.936,1.776-0.936
				c0.768,0,1.356,0.396,1.608,1.008h0.024c0.228-0.312,0.48-0.552,0.768-0.72c0.324-0.18,0.684-0.288,1.116-0.288
				c1.128,0,1.98,0.792,1.98,2.544v3.456h-1.776v-3.18c0-0.852-0.276-1.344-0.864-1.344c-0.432,0-0.72,0.288-0.852,0.636
				c-0.036,0.132-0.06,0.312-0.06,0.456v3.432h-1.776v-3.288c0-0.732-0.264-1.236-0.852-1.236c-0.468,0-0.744,0.36-0.852,0.648
				c-0.06,0.144-0.072,0.312-0.072,0.468v3.408h-1.776V178.006z"/>
			<path d="M45.785,179.638c0.06,0.768,0.804,1.128,1.656,1.128c0.624,0,1.128-0.084,1.62-0.252l0.24,1.236
				c-0.6,0.252-1.332,0.372-2.124,0.372c-1.992,0-3.132-1.152-3.132-3c0-1.488,0.936-3.132,2.964-3.132
				c1.896,0,2.616,1.476,2.616,2.928c0,0.312-0.036,0.588-0.06,0.732L45.785,179.638z M47.933,178.391
				c0-0.432-0.192-1.188-1.02-1.188c-0.78,0-1.092,0.708-1.14,1.188H47.933z"/>
			<path d="M50.717,178.006c0-0.732-0.024-1.344-0.048-1.872h1.584l0.084,0.816h0.036c0.24-0.384,0.828-0.948,1.812-0.948
				c1.2,0,2.1,0.804,2.1,2.532v3.468h-1.824v-3.252c0-0.756-0.264-1.272-0.924-1.272c-0.504,0-0.804,0.348-0.936,0.684
				c-0.048,0.12-0.06,0.288-0.06,0.456v3.384h-1.824V178.006z"/>
			<path d="M59.717,174.539v1.596h1.308v1.344h-1.308v2.136c0,0.708,0.18,1.032,0.72,1.032c0.252,0,0.372-0.012,0.54-0.048
				l0.012,1.38c-0.228,0.084-0.672,0.156-1.176,0.156c-0.588,0-1.08-0.204-1.38-0.504c-0.336-0.348-0.504-0.912-0.504-1.74v-2.412
				h-0.78v-1.344h0.78v-1.104L59.717,174.539z"/>
			<path d="M66.965,180.586c0,0.552,0.024,1.092,0.096,1.416h-1.644l-0.108-0.588h-0.036c-0.384,0.468-0.984,0.72-1.68,0.72
				c-1.188,0-1.896-0.864-1.896-1.8c0-1.524,1.368-2.244,3.444-2.244v-0.072c0-0.312-0.168-0.756-1.068-0.756
				c-0.6,0-1.236,0.204-1.62,0.432l-0.336-1.164c0.408-0.228,1.212-0.528,2.28-0.528c1.956,0,2.568,1.152,2.568,2.532V180.586z
				 M65.201,179.23c-0.96,0-1.704,0.228-1.704,0.924c0,0.468,0.312,0.696,0.72,0.696c0.444,0,0.828-0.3,0.948-0.672
				c0.024-0.096,0.036-0.204,0.036-0.312V179.23z"/>
			<path d="M68.417,173.482h1.824v8.52h-1.824V173.482z"/>
		</g>
		<path fill="none" stroke="#000000" d="M4,151.52h278"/>
		<path fill="none" stroke="#000000" d="M0,16.52h278"/>
		<path d="M174.625,17.27c0,1.243-1.176,2.25-2.625,2.25s-2.625-1.007-2.625-2.25s1.176-2.25,2.625-2.25
			S174.625,16.027,174.625,17.27z"/>
		<path d="M174.88,151.27c0,1.243-1.176,2.25-2.625,2.25s-2.625-1.007-2.625-2.25s1.176-2.25,2.625-2.25
			S174.88,150.027,174.88,151.27z"/>
		<g>
			<path d="M13.232,8.52L11.18,0.432h1.104l0.96,4.092c0.24,1.02,0.456,2.016,0.6,2.796h0.024c0.132-0.804,0.384-1.764,0.66-2.808
				l1.08-4.08H16.7l0.984,4.104c0.228,0.972,0.444,1.92,0.564,2.772h0.024C18.44,6.42,18.668,5.52,18.92,4.512l1.068-4.08h1.068
				L18.764,8.52h-1.092l-1.02-4.2c-0.252-1.044-0.42-1.836-0.528-2.652H16.1c-0.132,0.816-0.324,1.596-0.624,2.64L14.324,8.52
				H13.232z"/>
			<path d="M21.968,0h1.056v3.624h0.024c0.168-0.3,0.432-0.576,0.756-0.744c0.312-0.192,0.684-0.3,1.08-0.3
				c0.78,0,2.028,0.48,2.028,2.484V8.52h-1.056V5.184c0-0.948-0.348-1.728-1.344-1.728c-0.684,0-1.212,0.48-1.416,1.056
				c-0.06,0.144-0.072,0.3-0.072,0.504V8.52h-1.056V0z"/>
			<path d="M30.992,8.652c-1.56,0-2.784-1.152-2.784-2.988c0-1.944,1.284-3.084,2.88-3.084c1.668,0,2.796,1.212,2.796,2.976
				c0,2.16-1.5,3.096-2.88,3.096H30.992z M31.028,7.86c1.008,0,1.764-0.948,1.764-2.268c0-0.984-0.492-2.22-1.74-2.22
				c-1.236,0-1.776,1.152-1.776,2.256c0,1.272,0.72,2.232,1.74,2.232H31.028z"/>
			<path d="M35.216,0h1.056v8.52h-1.056V0z"/>
			<path d="M38.624,5.796c0.024,1.428,0.924,2.016,1.98,2.016c0.756,0,1.224-0.132,1.608-0.288l0.192,0.744
				c-0.372,0.168-1.02,0.372-1.944,0.372c-1.776,0-2.856-1.188-2.856-2.928c0-1.764,1.044-3.144,2.736-3.144
				c1.896,0,2.388,1.668,2.388,2.736c0,0.216-0.012,0.384-0.036,0.504L38.624,5.796z M41.708,5.04
				c0.012-0.66-0.276-1.716-1.452-1.716c-1.08,0-1.536,0.984-1.62,1.716H41.708z"/>
			<path d="M84.956,0.432v3.384h3.912V0.432h1.056V8.52h-1.056V4.728h-3.912V8.52H83.9V0.432H84.956z"/>
			<path d="M95.792,7.128c0,0.504,0.024,0.996,0.084,1.392h-0.948l-0.096-0.732h-0.036c-0.312,0.456-0.948,0.864-1.776,0.864
				c-1.176,0-1.776-0.828-1.776-1.668c0-1.404,1.248-2.172,3.492-2.16v-0.12c0-0.48-0.132-1.356-1.32-1.344
				c-0.552,0-1.116,0.156-1.524,0.432l-0.24-0.708c0.48-0.3,1.188-0.504,1.92-0.504c1.788,0,2.22,1.212,2.22,2.376V7.128z
				 M94.76,5.556c-1.152-0.024-2.46,0.18-2.46,1.308c0,0.696,0.456,1.008,0.984,1.008c0.768,0,1.26-0.48,1.428-0.972
				c0.036-0.108,0.048-0.228,0.048-0.336V5.556z"/>
			<path d="M97.484,0h1.056v8.52h-1.056V0z"/>
			<path d="M100.7,2.712l1.14,3.252c0.192,0.54,0.348,1.02,0.468,1.5h0.036c0.132-0.48,0.3-0.96,0.492-1.5l1.128-3.252h1.104
				l-2.28,5.808h-1.008l-2.208-5.808H100.7z"/>
			<path d="M106.532,5.796c0.024,1.428,0.924,2.016,1.98,2.016c0.756,0,1.224-0.132,1.608-0.288l0.192,0.744
				c-0.372,0.168-1.02,0.372-1.944,0.372c-1.776,0-2.856-1.188-2.856-2.928c0-1.764,1.044-3.144,2.736-3.144
				c1.896,0,2.388,1.668,2.388,2.736c0,0.216-0.012,0.384-0.036,0.504L106.532,5.796z M109.616,5.04
				c0.012-0.66-0.276-1.716-1.452-1.716c-1.08,0-1.536,0.984-1.62,1.716H109.616z"/>
			<path d="M111.8,7.452c0.324,0.192,0.876,0.408,1.404,0.408c0.756,0,1.116-0.372,1.116-0.864c0-0.504-0.3-0.78-1.068-1.068
				c-1.056-0.384-1.548-0.948-1.548-1.644c0-0.936,0.768-1.704,2.004-1.704c0.588,0,1.104,0.156,1.416,0.36l-0.252,0.756
				c-0.228-0.132-0.648-0.336-1.188-0.336c-0.624,0-0.96,0.36-0.96,0.792c0,0.492,0.336,0.708,1.092,0.996
				c0.996,0.372,1.524,0.876,1.524,1.752c0,1.032-0.804,1.752-2.16,1.752c-0.636,0-1.224-0.168-1.632-0.408L111.8,7.452z"/>
			<path d="M157.448,1.32h-2.46V0.432h5.988V1.32h-2.472v7.2h-1.056V1.32z"/>
			<path d="M161.756,0h1.056v3.624h0.024c0.168-0.3,0.432-0.576,0.756-0.744c0.312-0.192,0.684-0.3,1.08-0.3
				c0.78,0,2.028,0.48,2.028,2.484V8.52h-1.056V5.184c0-0.948-0.348-1.728-1.344-1.728c-0.684,0-1.212,0.48-1.416,1.056
				c-0.06,0.144-0.072,0.3-0.072,0.504V8.52h-1.056V0z"/>
			<path d="M168.92,1.644c-0.396,0-0.66-0.312-0.66-0.684s0.276-0.672,0.684-0.672c0.408,0,0.672,0.3,0.672,0.672
				s-0.264,0.684-0.684,0.684H168.92z M168.416,8.52V2.712h1.056V8.52H168.416z"/>
			<path d="M171.236,4.524c0-0.684-0.012-1.272-0.048-1.812h0.924l0.048,1.14h0.036c0.264-0.78,0.912-1.272,1.62-1.272
				c0.108,0,0.192,0.012,0.288,0.036V3.6c-0.12-0.012-0.228-0.024-0.372-0.024c-0.744,0-1.272,0.564-1.416,1.344
				c-0.024,0.156-0.036,0.324-0.036,0.504V8.52h-1.056L171.236,4.524z"/>
			<path d="M180.092,0v7.02c0,0.516,0.012,1.104,0.048,1.5h-0.948l-0.048-1.008h-0.024c-0.324,0.648-1.02,1.14-1.968,1.14
				c-1.404,0-2.496-1.188-2.496-2.952c-0.012-1.944,1.2-3.12,2.604-3.12c0.9,0,1.5,0.42,1.752,0.876h0.024V0H180.092z
				 M179.036,5.076c0-0.144-0.012-0.312-0.048-0.456c-0.156-0.66-0.732-1.212-1.524-1.212c-1.092,0-1.74,0.96-1.74,2.232
				c0,1.188,0.588,2.16,1.716,2.16c0.708,0,1.356-0.48,1.548-1.26c0.036-0.144,0.048-0.288,0.048-0.456V5.076z"/>
			<path d="M181.7,7.452c0.324,0.192,0.876,0.408,1.404,0.408c0.756,0,1.116-0.372,1.116-0.864c0-0.504-0.3-0.78-1.068-1.068
				c-1.056-0.384-1.548-0.948-1.548-1.644c0-0.936,0.768-1.704,2.004-1.704c0.588,0,1.104,0.156,1.416,0.36l-0.252,0.756
				c-0.228-0.132-0.648-0.336-1.188-0.336c-0.624,0-0.96,0.36-0.96,0.792c0,0.492,0.336,0.708,1.092,0.996
				c0.996,0.372,1.524,0.876,1.524,1.752c0,1.032-0.804,1.752-2.16,1.752c-0.636,0-1.224-0.168-1.632-0.408L181.7,7.452z"/>
			<path d="M227.9,0.432h4.356v0.876h-3.3v2.688h3.048V4.86h-3.048v3.66H227.9V0.432z"/>
			<path d="M235.724,8.652c-1.56,0-2.784-1.152-2.784-2.988c0-1.944,1.284-3.084,2.88-3.084c1.668,0,2.796,1.212,2.796,2.976
				c0,2.16-1.5,3.096-2.88,3.096H235.724z M235.76,7.86c1.008,0,1.764-0.948,1.764-2.268c0-0.984-0.492-2.22-1.74-2.22
				c-1.236,0-1.776,1.152-1.776,2.256c0,1.272,0.72,2.232,1.74,2.232H235.76z"/>
			<path d="M244.808,6.936c0,0.6,0.012,1.128,0.048,1.584h-0.936l-0.06-0.948h-0.024c-0.264,0.468-0.888,1.08-1.92,1.08
				c-0.912,0-2.004-0.516-2.004-2.544V2.712h1.056v3.204c0,1.104,0.348,1.86,1.296,1.86c0.708,0,1.2-0.492,1.392-0.972
				c0.06-0.144,0.096-0.336,0.096-0.54V2.712h1.056V6.936z"/>
			<path d="M246.572,4.524c0-0.684-0.012-1.272-0.048-1.812h0.924l0.048,1.14h0.036c0.264-0.78,0.912-1.272,1.62-1.272
				c0.108,0,0.192,0.012,0.288,0.036V3.6c-0.12-0.012-0.228-0.024-0.372-0.024c-0.744,0-1.272,0.564-1.416,1.344
				c-0.024,0.156-0.036,0.324-0.036,0.504V8.52h-1.056L246.572,4.524z"/>
			<path d="M252.044,1.32v1.392h1.512v0.804h-1.512v3.132c0,0.72,0.204,1.128,0.792,1.128c0.288,0,0.456-0.024,0.612-0.072
				l0.048,0.804c-0.204,0.072-0.528,0.144-0.936,0.144c-0.492,0-0.888-0.168-1.14-0.444c-0.288-0.324-0.408-0.84-0.408-1.524V3.516
				h-0.9V2.712h0.9V1.644L252.044,1.32z"/>
			<path d="M254.744,0h1.056v3.624h0.024c0.168-0.3,0.432-0.576,0.756-0.744c0.312-0.192,0.684-0.3,1.08-0.3
				c0.78,0,2.028,0.48,2.028,2.484V8.52h-1.056V5.184c0-0.948-0.348-1.728-1.344-1.728c-0.684,0-1.212,0.48-1.416,1.056
				c-0.06,0.144-0.072,0.3-0.072,0.504V8.52h-1.056V0z"/>
			<path d="M261.26,7.452c0.324,0.192,0.876,0.408,1.404,0.408c0.756,0,1.116-0.372,1.116-0.864c0-0.504-0.3-0.78-1.068-1.068
				c-1.056-0.384-1.548-0.948-1.548-1.644c0-0.936,0.768-1.704,2.004-1.704c0.588,0,1.104,0.156,1.417,0.36l-0.252,0.756
				c-0.228-0.132-0.648-0.336-1.188-0.336c-0.624,0-0.96,0.36-0.96,0.792c0,0.492,0.336,0.708,1.092,0.996
				C264.271,5.52,264.8,6.024,264.8,6.9c0,1.032-0.804,1.752-2.16,1.752c-0.636,0-1.224-0.168-1.632-0.408L261.26,7.452z"/>
			<path d="M303.968,7.128c0,0.504,0.024,0.996,0.084,1.392h-0.948l-0.096-0.732h-0.036c-0.312,0.456-0.947,0.864-1.775,0.864
				c-1.177,0-1.776-0.828-1.776-1.668c0-1.404,1.248-2.172,3.492-2.16v-0.12c0-0.48-0.132-1.356-1.32-1.344
				c-0.552,0-1.116,0.156-1.523,0.432l-0.24-0.708c0.479-0.3,1.188-0.504,1.92-0.504c1.788,0,2.22,1.212,2.22,2.376V7.128z
				 M302.936,5.556c-1.151-0.024-2.46,0.18-2.46,1.308c0,0.696,0.456,1.008,0.984,1.008c0.769,0,1.26-0.48,1.428-0.972
				c0.036-0.108,0.048-0.228,0.048-0.336V5.556z"/>
			<path d="M305.66,4.284c0-0.612-0.012-1.092-0.048-1.572h0.936l0.061,0.948h0.023c0.288-0.54,0.96-1.08,1.92-1.08
				c0.804,0,2.052,0.48,2.052,2.472V8.52h-1.056V5.172c0-0.936-0.348-1.728-1.344-1.728c-0.685,0-1.225,0.492-1.416,1.08
				c-0.048,0.132-0.072,0.324-0.072,0.492V8.52h-1.056V4.284z"/>
			<path d="M317.336,0v7.02c0,0.516,0.012,1.104,0.048,1.5h-0.948l-0.048-1.008h-0.023c-0.324,0.648-1.021,1.14-1.969,1.14
				c-1.403,0-2.496-1.188-2.496-2.952c-0.012-1.944,1.2-3.12,2.604-3.12c0.9,0,1.5,0.42,1.752,0.876h0.024V0H317.336z M316.28,5.076
				c0-0.144-0.013-0.312-0.049-0.456c-0.155-0.66-0.731-1.212-1.523-1.212c-1.092,0-1.74,0.96-1.74,2.232
				c0,1.188,0.588,2.16,1.716,2.16c0.708,0,1.356-0.48,1.548-1.26c0.036-0.144,0.049-0.288,0.049-0.456V5.076z"/>
			<path d="M321.487,7.452c0.324,0.192,0.876,0.408,1.404,0.408c0.756,0,1.116-0.372,1.116-0.864c0-0.504-0.3-0.78-1.068-1.068
				c-1.056-0.384-1.548-0.948-1.548-1.644c0-0.936,0.769-1.704,2.004-1.704c0.588,0,1.104,0.156,1.416,0.36l-0.252,0.756
				c-0.228-0.132-0.647-0.336-1.188-0.336c-0.624,0-0.96,0.36-0.96,0.792c0,0.492,0.336,0.708,1.092,0.996
				c0.996,0.372,1.523,0.876,1.523,1.752c0,1.032-0.804,1.752-2.16,1.752c-0.636,0-1.224-0.168-1.632-0.408L321.487,7.452z"/>
			<path d="M328.748,8.652c-1.561,0-2.784-1.152-2.784-2.988c0-1.944,1.284-3.084,2.88-3.084c1.668,0,2.796,1.212,2.796,2.976
				c0,2.16-1.5,3.096-2.88,3.096H328.748z M328.783,7.86c1.009,0,1.765-0.948,1.765-2.268c0-0.984-0.492-2.22-1.74-2.22
				c-1.236,0-1.776,1.152-1.776,2.256c0,1.272,0.721,2.232,1.74,2.232H328.783z"/>
			<path d="M337.88,8.652c-1.561,0-2.784-1.152-2.784-2.988c0-1.944,1.284-3.084,2.88-3.084c1.668,0,2.796,1.212,2.796,2.976
				c0,2.16-1.5,3.096-2.88,3.096H337.88z M337.915,7.86c1.009,0,1.765-0.948,1.765-2.268c0-0.984-0.492-2.22-1.74-2.22
				c-1.236,0-1.776,1.152-1.776,2.256c0,1.272,0.721,2.232,1.74,2.232H337.915z"/>
			<path d="M342.104,4.284c0-0.612-0.012-1.092-0.048-1.572h0.936l0.061,0.948h0.023c0.288-0.54,0.96-1.08,1.92-1.08
				c0.805,0,2.053,0.48,2.053,2.472V8.52h-1.057V5.172c0-0.936-0.348-1.728-1.344-1.728c-0.684,0-1.224,0.492-1.416,1.08
				c-0.048,0.132-0.072,0.324-0.072,0.492V8.52h-1.056V4.284z"/>
			<path d="M349.207,8.652c-0.408,0-0.695-0.324-0.695-0.756s0.3-0.756,0.72-0.756s0.708,0.312,0.708,0.756
				c0,0.432-0.288,0.756-0.72,0.756H349.207z"/>
			<path d="M351.691,8.652c-0.408,0-0.696-0.324-0.696-0.756s0.3-0.756,0.72-0.756s0.708,0.312,0.708,0.756
				c0,0.432-0.288,0.756-0.72,0.756H351.691z"/>
			<path d="M354.175,8.652c-0.408,0-0.696-0.324-0.696-0.756s0.301-0.756,0.721-0.756s0.708,0.312,0.708,0.756
				c0,0.432-0.288,0.756-0.721,0.756H354.175z"/>
		</g>
		<g>
			<path fill="none" stroke="#FF0000" d="M251.978,152.513c-0.872-1.193-1.66-2.097-2.165-2.658c-1.797-2-7.188-8.335-7.188-16.671
				c0-8.335,5.391-14.67,7.188-16.67c1.797-2.001,7.188-8.336,7.188-16.671s-5.391-14.669-7.188-16.67
				c-1.797-2-7.188-8.335-7.188-16.671s5.391-14.67,7.188-16.67S257,41.496,257,33.16c0-8.335-5.391-14.67-7.188-16.67"/>
			<path fill="none" stroke="#000000" d="M247.423,152.824c0.961-1.348,1.842-2.36,2.39-2.97c1.797-2,7.188-8.335,7.188-16.671
				c0-8.335-5.391-14.67-7.188-16.67c-1.797-2.001-7.188-8.336-7.188-16.671s5.391-14.669,7.188-16.67
				c1.797-2,7.188-8.335,7.188-16.671s-5.391-14.67-7.188-16.67s-7.188-8.335-7.188-16.671c0-8.335,5.391-14.67,7.188-16.67"/>
		</g>
		<g>
			<path fill="none" stroke="#FF0000" d="M174.256,149.178c2.181-4.266,4.744-10.909,4.744-18.87c0-11.545-5.391-20.32-7.188-23.091
				s-7.188-11.545-7.188-23.09c0-11.545,5.391-20.32,7.188-23.091c1.797-2.77,7.188-11.544,7.188-23.089
				c0-8.304-2.788-15.175-5.022-19.408"/>
			<path fill="none" stroke="#000000" d="M170.094,150.542c-2.29-4.133-5.469-11.367-5.469-20.233
				c0-11.545,5.391-20.32,7.188-23.091S179,95.672,179,84.127c0-11.545-5.391-20.32-7.188-23.091
				c-1.797-2.77-7.188-11.544-7.188-23.089c0-8.028,2.606-14.716,4.798-18.977"/>
		</g>
		<g>
			<path fill="none" stroke="#000000" d="M96.812,151.508c1.797-4.011,7.188-16.71,7.188-33.417c0-16.71-5.391-29.408-7.188-33.417
				c-1.797-4.011-7.188-16.709-7.188-33.418c0-16.709,5.391-29.407,7.188-33.418c0.32-0.716,0.756-1.71,1.255-2.953"/>
			<path fill="none" stroke="#FF0000" d="M96.812,151.508c-1.797-4.011-7.188-16.71-7.188-33.417c0-16.71,5.391-29.408,7.188-33.417
				C98.609,80.662,104,67.964,104,51.255c0-16.709-5.391-29.407-7.188-33.418c-0.16-0.355-0.348-0.78-0.558-1.27"/>
		</g>
		<path d="M98.958,16.937c0,1.243-1.176,2.25-2.625,2.25s-2.625-1.007-2.625-2.25s1.176-2.25,2.625-2.25
			S98.958,15.694,98.958,16.937z"/>
		<path d="M99.333,151.556c0,1.243-1.176,2.25-2.625,2.25s-2.625-1.007-2.625-2.25s1.176-2.25,2.625-2.25
			S99.333,150.313,99.333,151.556z"/>
		<g>
			<path fill="none" stroke="#000000" d="M34.274,153.21c-0.172-0.789-0.327-1.484-0.462-2.082
				c-1.797-7.96-7.188-33.159-7.188-66.317c0-33.159,5.391-58.358,7.188-66.317c0.187-0.83,0.414-1.848,0.669-3.042"/>
			<path fill="none" stroke="#FF0000" d="M33.319,153.352c0.184-0.847,0.35-1.589,0.493-2.223C35.609,143.168,41,117.97,41,84.812
				c0-33.159-5.391-58.358-7.188-66.317c-0.16-0.706-0.348-1.549-0.558-2.521"/>
		</g>
		<path d="M36.292,151.27c0,1.243-1.176,2.25-2.625,2.25s-2.625-1.007-2.625-2.25s1.176-2.25,2.625-2.25
			S36.292,150.027,36.292,151.27z"/>
		<path d="M252.336,16.941c0,1.243-1.176,2.25-2.625,2.25s-2.625-1.007-2.625-2.25s1.176-2.25,2.625-2.25
			S252.336,15.699,252.336,16.941z"/>
		<path d="M252.021,151.824c0,1.243-1.176,2.25-2.625,2.25s-2.625-1.007-2.625-2.25s1.176-2.25,2.625-2.25
			S252.021,150.582,252.021,151.824z"/>
		<path d="M36.292,16.437c0,1.243-1.176,2.25-2.625,2.25s-2.625-1.007-2.625-2.25s1.176-2.25,2.625-2.25
			S36.292,15.194,36.292,16.437z"/>
		<g>
			<path d="M35.439,163.303h-0.024l-1.356,0.732l-0.204-0.804l1.704-0.912h0.9v7.8h-1.02V163.303z"/>
			<path d="M92.042,170.119v-0.648l0.828-0.804c1.992-1.896,2.904-2.904,2.904-4.08c0-0.792-0.372-1.524-1.536-1.524
				c-0.708,0-1.296,0.36-1.656,0.66l-0.336-0.744c0.528-0.444,1.308-0.792,2.208-0.792c1.668,0,2.376,1.152,2.376,2.268
				c0,1.44-1.044,2.604-2.688,4.188l-0.612,0.576v0.024h3.492v0.876H92.042z"/>
			<path d="M166.838,168.918c0.3,0.18,0.984,0.48,1.728,0.48c1.344,0,1.776-0.852,1.764-1.512c-0.012-1.092-0.996-1.56-2.016-1.56
				h-0.588v-0.792h0.588c0.768,0,1.74-0.396,1.74-1.32c0-0.624-0.396-1.176-1.368-1.176c-0.624,0-1.224,0.276-1.56,0.516
				l-0.288-0.768c0.42-0.3,1.212-0.6,2.052-0.6c1.536,0,2.232,0.912,2.232,1.86c0,0.816-0.492,1.5-1.44,1.848v0.024
				c0.96,0.18,1.74,0.9,1.74,1.992c0,1.248-0.984,2.34-2.844,2.34c-0.876,0-1.644-0.276-2.028-0.528L166.838,168.918z"/>
			<path d="M252.412,170.119v-2.124h-3.624v-0.684l3.48-4.992h1.14v4.86h1.092v0.816h-1.092v2.124H252.412z M252.412,167.179v-2.616
				c0-0.408,0.012-0.816,0.036-1.224h-0.036c-0.24,0.456-0.432,0.792-0.648,1.164l-1.908,2.652v0.024H252.412z"/>
		</g>
	</g>
</svg>
