<?xml version="1.0" encoding="utf-8"?>
<!-- Generator: Adobe Illustrator 10.0, SVG Export Plug-In . SVG Version: 3.0.0 Build 76)  -->
<!DOCTYPE svg PUBLIC "-//W3C//DTD SVG 1.0//EN"    "http://www.w3.org/TR/2001/REC-SVG-20010904/DTD/svg10.dtd" [
	<!ENTITY ns_flows "http://ns.adobe.com/Flows/1.0/">
	<!ENTITY ns_extend "http://ns.adobe.com/Extensibility/1.0/">
	<!ENTITY ns_ai "http://ns.adobe.com/AdobeIllustrator/10.0/">
	<!ENTITY ns_svg "http://www.w3.org/2000/svg">
	<!ENTITY ns_xlink "http://www.w3.org/1999/xlink">
]>
<svg  xmlns:x="&ns_extend;" xmlns:i="&ns_ai;" xmlns:graph="&ns_graphs;"
	 xmlns="&ns_svg;" xmlns:xlink="&ns_xlink;" xmlns:a="http://ns.adobe.com/AdobeSVGViewerExtensions/3.0/" width="305" height="327"
	 viewBox="-0.18 0.011 305 327" overflow="visible" enable-background="new -0.18 0.011 305 327" xml:space="preserve">
	<g id="Layer_1_2_">
		<path fill="none" stroke="#000000" d="M25.82,193.99c2.085-4.125,8.688-16.5,17.375-16.5c8.688,0,15.29,12.375,17.374,16.5
			c2.085,4.125,8.688,16.5,17.375,16.5c8.688,0,15.29-12.375,17.375-16.5c2.085-4.125,8.688-16.5,17.375-16.5
			s15.29,12.375,17.375,16.5c2.085,4.125,8.688,16.5,17.375,16.5s15.29-12.375,17.375-16.5s8.688-16.5,17.375-16.5
			s15.29,12.375,17.375,16.5s8.688,16.5,17.375,16.5s15.29-12.375,17.375-16.5c2.085-4.125,8.688-16.5,17.375-16.5
			c8.688,0,15.29,12.375,17.375,16.5s8.687,16.5,17.375,16.5c8.688,0,15.291-12.375,17.375-16.5"/>
		<path fill="none" stroke="#000000" d="M24.82,134.989c2.79-4.125,11.625-16.5,23.251-16.5c11.624,0,20.459,12.375,23.249,16.5
			c2.79,4.125,11.625,16.5,23.251,16.5c11.625,0,20.459-12.375,23.25-16.5s11.625-16.5,23.25-16.5c11.625,0,20.46,12.375,23.25,16.5
			s11.625,16.5,23.25,16.5c11.625,0,20.459-12.375,23.25-16.5c2.79-4.125,11.625-16.5,23.25-16.5
			c11.625,0,20.461,12.375,23.251,16.5c2.79,4.125,11.625,16.5,23.25,16.5c11.625,0,20.46-12.375,23.25-16.5"/>
		<g>
			<path fill="none" stroke="#000000" d="M246.068,252.987c1.658-4.125,6.908-16.5,13.817-16.5c6.908,0,12.158,12.375,13.817,16.5
				c1.658,4.125,6.908,16.5,13.817,16.5c6.909,0,12.16-12.375,13.817-16.5"/>
			<path fill="none" stroke="#000000" d="M24.82,253.983c1.658-4.125,6.908-16.5,13.817-16.5c6.909,0,12.159,12.375,13.817,16.5
				c1.658,4.125,6.908,16.5,13.817,16.5c6.908,0,12.158-12.375,13.816-16.5c1.659-4.125,6.909-16.5,13.817-16.5
				s12.159,12.375,13.816,16.5c1.658,4.125,6.909,16.5,13.817,16.5c6.909,0,12.158-12.375,13.817-16.5
				c1.658-4.125,6.908-16.5,13.816-16.5s12.159,12.375,13.817,16.5c1.659,4.125,6.909,16.5,13.818,16.5
				c6.908,0,12.159-12.375,13.816-16.5s6.908-16.5,13.816-16.5c6.91,0,12.159,12.375,13.818,16.5
				c1.658,4.125,6.908,16.5,13.816,16.5s12.159-12.375,13.817-16.5"/>
		</g>
		<path fill="none" stroke="#000000" d="M24.82,74.496c4.202-4.125,17.501-16.5,35.001-16.5c17.499,0,30.799,12.375,35,16.5
			c4.2,4.125,17.499,16.5,35,16.5s30.799-12.375,35-16.5c4.2-4.125,17.498-16.5,34.999-16.5s30.799,12.375,35.001,16.5
			c4.199,4.125,17.497,16.5,34.998,16.5c17.5,0,30.801-12.375,35.001-16.5"/>
		<g>
			<path fill="none" stroke="#000000" d="M24.82,310.481c1.392-4.125,5.802-16.5,11.604-16.5s10.211,12.375,11.604,16.5
				c1.393,4.125,5.802,16.5,11.604,16.5c5.802,0,10.211-12.375,11.604-16.5c1.392-4.125,5.802-16.5,11.604-16.5
				s10.211,12.375,11.604,16.5c1.393,4.125,5.803,16.5,11.604,16.5s10.211-12.375,11.604-16.5c1.393-4.125,5.802-16.5,11.604-16.5
				s10.211,12.375,11.604,16.5c1.392,4.125,5.802,16.5,11.604,16.5c5.802,0,10.211-12.375,11.604-16.5
				c1.393-4.125,5.802-16.5,11.604-16.5s10.212,12.375,11.604,16.5s5.802,16.5,11.604,16.5c5.802,0,10.211-12.375,11.604-16.5"/>
			<path fill="none" stroke="#000000" d="M210.929,309.485c1.392-4.125,5.802-16.5,11.604-16.5s10.211,12.375,11.604,16.5
				c1.392,4.125,5.801,16.5,11.603,16.5s10.211-12.375,11.604-16.5c1.392-4.125,5.802-16.5,11.603-16.5
				c5.802,0,10.212,12.375,11.604,16.5c1.392,4.125,5.802,16.5,11.604,16.5c5.801,0,10.211-12.375,11.603-16.5"/>
		</g>
		<path fill="none" stroke="#000000" d="M24.82,17c8.375-4.125,34.877-16.5,69.753-16.5c34.873,0,61.378,12.375,69.749,16.5
			c8.37,4.125,34.872,16.5,69.749,16.5s61.378-12.375,69.75-16.5"/>
		<g>
			<path d="M2.652,16.195H2.628l-1.356,0.732l-0.204-0.804l1.704-0.912h0.9v7.8h-1.02V16.195z"/>
			<path d="M0.36,81.011v-0.648l0.828-0.804c1.992-1.896,2.904-2.904,2.904-4.08c0-0.792-0.372-1.524-1.536-1.524
				c-0.708,0-1.296,0.36-1.656,0.66l-0.336-0.744c0.528-0.444,1.308-0.792,2.208-0.792c1.668,0,2.376,1.152,2.376,2.268
				c0,1.44-1.044,2.604-2.688,4.188l-0.612,0.576v0.024H5.34v0.876H0.36z"/>
			<path d="M0.612,137.811c0.3,0.18,0.984,0.48,1.728,0.48c1.344,0,1.776-0.852,1.764-1.512c-0.012-1.092-0.996-1.56-2.016-1.56H1.5
				v-0.792h0.588c0.768,0,1.74-0.396,1.74-1.32c0-0.624-0.396-1.176-1.368-1.176c-0.624,0-1.224,0.276-1.56,0.516l-0.288-0.768
				c0.42-0.3,1.212-0.6,2.052-0.6c1.536,0,2.232,0.912,2.232,1.86c0,0.816-0.492,1.5-1.44,1.848v0.024
				c0.96,0.18,1.74,0.9,1.74,1.992c0,1.248-0.984,2.34-2.844,2.34c-0.876,0-1.644-0.276-2.028-0.528L0.612,137.811z"/>
			<path d="M3.624,197.011v-2.124H0v-0.684l3.48-4.992h1.14v4.86h1.092v0.816H4.62v2.124H3.624z M3.624,194.071v-2.616
				c0-0.408,0.012-0.816,0.036-1.224H3.624c-0.24,0.456-0.432,0.792-0.648,1.164l-1.908,2.652v0.024H3.624z"/>
			<path d="M5.016,248.099H2.04l-0.3,1.98c0.18-0.024,0.348-0.048,0.636-0.048c0.612,0,1.2,0.132,1.68,0.42
				c0.612,0.336,1.116,1.02,1.116,2.028c0,1.524-1.212,2.664-2.904,2.664c-0.852,0-1.56-0.24-1.944-0.48l0.264-0.804
				c0.324,0.192,0.96,0.432,1.68,0.432c0.984,0,1.848-0.648,1.836-1.704c0-1.032-0.684-1.74-2.232-1.74
				c-0.456,0-0.804,0.036-1.092,0.084l0.504-3.72h3.732V248.099z"/>
			<path d="M4.812,305.943c-0.216-0.012-0.492,0.012-0.792,0.06c-1.668,0.264-2.532,1.476-2.712,2.772h0.024
				c0.372-0.504,1.032-0.912,1.896-0.912c1.38,0,2.352,1.008,2.352,2.52c0,1.44-0.972,2.76-2.604,2.76
				c-1.656,0-2.748-1.296-2.748-3.324c0-1.536,0.54-2.748,1.32-3.528c0.648-0.636,1.512-1.032,2.496-1.152
				c0.312-0.048,0.576-0.06,0.768-0.06V305.943z M3,312.327c0.9,0,1.512-0.756,1.512-1.872c0-1.116-0.636-1.788-1.608-1.788
				c-0.636,0-1.236,0.384-1.524,0.96c-0.06,0.12-0.108,0.264-0.108,0.456c0.012,1.284,0.612,2.244,1.716,2.244H3z"/>
		</g>
	</g>
</svg>
