<?xml version="1.0" encoding="utf-8"?>
<!-- Generator: Adobe Illustrator 10.0, SVG Export Plug-In . SVG Version: 3.0.0 Build 76)  -->
<!DOCTYPE svg PUBLIC "-//W3C//DTD SVG 1.0//EN"    "http://www.w3.org/TR/2001/REC-SVG-20010904/DTD/svg10.dtd" [
	<!ENTITY ns_flows "http://ns.adobe.com/Flows/1.0/">
	<!ENTITY ns_extend "http://ns.adobe.com/Extensibility/1.0/">
	<!ENTITY ns_ai "http://ns.adobe.com/AdobeIllustrator/10.0/">
	<!ENTITY ns_svg "http://www.w3.org/2000/svg">
	<!ENTITY ns_xlink "http://www.w3.org/1999/xlink">
]>
<svg  xmlns:x="&ns_extend;" xmlns:i="&ns_ai;" xmlns:graph="&ns_graphs;"
	 xmlns="&ns_svg;" xmlns:xlink="&ns_xlink;" xmlns:a="http://ns.adobe.com/AdobeSVGViewerExtensions/3.0/" width="477" height="58"
	 viewBox="-0.118 0.25 477 58" overflow="visible" enable-background="new -0.118 0.25 477 58" xml:space="preserve">
	<g id="Layer_1_2_">
		<g>
			<path fill="none" stroke="#000000" d="M0.128,6.38h474.758"/>
			<path fill="none" stroke="#000000" d="M0.128,21.492h474.758"/>
			<path fill="none" stroke="#000000" d="M0.364,28.615h474.76"/>
			<path fill="none" stroke="#000000" d="M0,35.998h474.758"/>
			<path fill="none" stroke="#000000" d="M0,13.634h474.758"/>
		</g>
		<g>
			<path d="M7.876,35.592C2.932,33.24,2.14,30.216,1.924,27.12c-0.24-3.36,1.896-6.768,3.888-8.664
				c1.152-1.08,2.4-2.136,3.888-3.264c-0.048-0.84-0.24-1.176-0.336-2.376C9.34,12.312,9.028,9.96,9.532,7.248
				c0.312-1.608,2.328-5.4,3.72-5.424c1.08-0.024,2.736,4.296,2.784,6.456c0.072,3.336-0.72,4.848-1.704,6.576
				c-0.504,0.864-1.032,1.464-1.584,2.136c-0.576,0.696-1.224,1.104-1.824,1.632c0,0,0.768,4.344,0.792,4.656
				c1.536-0.192,3.408,0.36,4.08,0.84c1.704,1.272,2.352,3.024,2.472,4.728c0.216,2.712-1.272,5.568-4.56,6.936
				c0,0,0.504,3.456,0.624,4.176c0.264,1.896,0.216,3.096-0.192,3.864c-0.696,1.296-1.824,2.496-4.008,2.64
				c-1.68,0.096-4.992-0.744-5.16-3.384c-0.096-1.56,0.6-3.24,2.496-3.36c1.152-0.096,2.52,0.864,2.616,2.232
				c0.096,1.176-0.672,2.4-2.664,2.952c0.312,0.432,1.248,0.936,2.592,0.936c1.392,0,2.832-0.936,3.528-2.184
				c0.432-0.816,0.384-2.28,0.216-3.624c-0.072-0.456-0.648-4.08-0.648-4.08C11.332,36.24,8.884,36.072,7.876,35.592z M8.356,29.904
				c0.048,1.152,1.008,2.496,1.896,2.952c-0.12,0.072-0.24,0.264-0.24,0.264c-0.984-0.48-1.824-1.272-2.04-1.56
				c-0.696-0.936-0.984-1.464-1.08-2.88c-0.096-1.32,0.624-3.096,2.232-4.344c0.84-0.624,1.248-0.768,1.968-0.936l-0.72-4.344
				c-0.744,0.432-3.816,2.904-5.112,4.92c-1.152,1.8-1.848,3.24-1.704,5.016c0.288,4.008,4.68,7.296,9.432,6.168
				c0,0-1.416-8.52-1.392-8.52C8.98,26.736,8.284,28.752,8.356,29.904z M10.3,14.688c2.088-1.632,4.92-4.704,4.752-7.08
				c-0.048-0.744-0.36-2.088-1.44-2.064C11.14,5.568,9.748,10.728,10.3,14.688z M13.564,34.968c2.76-0.936,2.88-3.312,2.784-4.728
				c-0.096-1.176-0.624-3.816-4.128-3.648L13.564,34.968z"/>
		</g>
		<g>
			<path d="M46.594,29c2.664,0.024,5.184,1.032,5.376,3.264c0.144,1.632-2.016,3.12-4.68,3.12c-2.688-0.024-5.184-1.008-5.4-3.24
				C41.746,30.488,43.93,29,46.594,29z M47.242,34.832c1.152,0,1.896-1.104,1.776-1.992c-0.264-1.752-0.864-3.168-2.448-3.168
				c-1.152,0-1.824,1.128-1.68,2.016C45.154,33.44,45.658,34.832,47.242,34.832z"/>
		</g>
		<g>
			<path d="M52.22,51.152h-2.46v-0.888h5.988v0.888h-2.472v7.2H52.22V51.152z"/>
			<path d="M56.528,49.833h1.056v3.624h0.024c0.168-0.3,0.432-0.576,0.756-0.744c0.312-0.192,0.684-0.3,1.08-0.3
				c0.78,0,2.028,0.48,2.028,2.484v3.456h-1.056v-3.336c0-0.948-0.348-1.728-1.344-1.728c-0.684,0-1.212,0.48-1.416,1.056
				c-0.06,0.144-0.072,0.3-0.072,0.504v3.504h-1.056V49.833z"/>
			<path d="M63.692,51.477c-0.396,0-0.66-0.312-0.66-0.684s0.276-0.672,0.684-0.672c0.408,0,0.672,0.3,0.672,0.672
				s-0.264,0.684-0.684,0.684H63.692z M63.188,58.353v-5.808h1.056v5.808H63.188z"/>
			<path d="M66.008,54.356c0-0.684-0.012-1.272-0.048-1.812h0.924l0.048,1.14h0.036c0.264-0.78,0.912-1.272,1.62-1.272
				c0.108,0,0.192,0.012,0.288,0.036v0.984c-0.12-0.012-0.228-0.024-0.372-0.024c-0.744,0-1.272,0.564-1.416,1.344
				c-0.024,0.156-0.036,0.324-0.036,0.504v3.096h-1.056L66.008,54.356z"/>
			<path d="M74.864,49.833v7.02c0,0.516,0.012,1.104,0.048,1.5h-0.948l-0.048-1.008h-0.024c-0.324,0.648-1.02,1.14-1.968,1.14
				c-1.404,0-2.496-1.188-2.496-2.952c-0.012-1.944,1.2-3.12,2.604-3.12c0.9,0,1.5,0.42,1.752,0.876h0.024v-3.456H74.864z
				 M73.808,54.909c0-0.144-0.012-0.312-0.048-0.456c-0.156-0.66-0.732-1.212-1.524-1.212c-1.092,0-1.74,0.96-1.74,2.232
				c0,1.188,0.588,2.16,1.716,2.16c0.708,0,1.356-0.48,1.548-1.26c0.036-0.144,0.048-0.288,0.048-0.456V54.909z"/>
			<path d="M120.62,50.265h4.356v0.876h-3.3v2.688h3.048v0.864h-3.048v3.66h-1.056V50.265z"/>
			<path d="M126.632,51.477c-0.396,0-0.66-0.312-0.66-0.684s0.276-0.672,0.684-0.672c0.408,0,0.672,0.3,0.672,0.672
				s-0.264,0.684-0.684,0.684H126.632z M126.128,58.353v-5.808h1.056v5.808H126.128z"/>
			<path d="M129.032,58.353v-5.004h-0.804v-0.804h0.804v-0.276c0-0.816,0.192-1.56,0.684-2.028c0.396-0.384,0.924-0.54,1.404-0.54
				c0.384,0,0.696,0.084,0.9,0.168l-0.132,0.816c-0.168-0.072-0.372-0.132-0.684-0.132c-0.888,0-1.128,0.792-1.128,1.68v0.312h1.404
				v0.804h-1.392v5.004H129.032z"/>
			<path d="M133.844,51.152v1.392h1.512v0.804h-1.512v3.132c0,0.72,0.204,1.128,0.792,1.128c0.288,0,0.456-0.024,0.612-0.072
				l0.048,0.804c-0.204,0.072-0.528,0.144-0.936,0.144c-0.492,0-0.888-0.168-1.14-0.444c-0.288-0.324-0.408-0.84-0.408-1.524v-3.168
				h-0.9v-0.804h0.9v-1.068L133.844,51.152z"/>
			<path d="M136.544,49.833h1.056v3.624h0.024c0.168-0.3,0.432-0.576,0.756-0.744c0.312-0.192,0.684-0.3,1.08-0.3
				c0.78,0,2.028,0.48,2.028,2.484v3.456h-1.056v-3.336c0-0.948-0.348-1.728-1.344-1.728c-0.684,0-1.212,0.48-1.416,1.056
				c-0.06,0.144-0.072,0.3-0.072,0.504v3.504h-1.056V49.833z"/>
			<path d="M193.244,58.484c-2.148,0-3.636-1.656-3.636-4.104c0-2.568,1.584-4.248,3.744-4.248c2.22,0,3.648,1.692,3.648,4.092
				c0,2.772-1.692,4.26-3.744,4.26H193.244z M193.292,57.632c1.656,0,2.592-1.524,2.592-3.36c0-1.608-0.84-3.288-2.58-3.288
				c-1.74,0-2.604,1.62-2.604,3.372c0,1.704,0.936,3.276,2.58,3.276H193.292z"/>
			<path d="M202.532,58.148c-0.276,0.132-0.888,0.336-1.668,0.336c-1.752,0-2.892-1.188-2.892-2.976c0-1.788,1.224-3.096,3.12-3.096
				c0.624,0,1.176,0.156,1.464,0.312l-0.24,0.804c-0.252-0.132-0.648-0.276-1.224-0.276c-1.332,0-2.052,0.996-2.052,2.208
				c0,1.344,0.864,2.172,2.016,2.172c0.6,0,0.996-0.144,1.296-0.276L202.532,58.148z"/>
			<path d="M205.196,51.152v1.392h1.512v0.804h-1.512v3.132c0,0.72,0.204,1.128,0.792,1.128c0.288,0,0.456-0.024,0.612-0.072
				l0.048,0.804c-0.204,0.072-0.528,0.144-0.936,0.144c-0.492,0-0.888-0.168-1.14-0.444c-0.288-0.324-0.408-0.84-0.408-1.524v-3.168
				h-0.9v-0.804h0.9v-1.068L205.196,51.152z"/>
			<path d="M211.988,56.96c0,0.504,0.024,0.996,0.084,1.392h-0.948l-0.096-0.732h-0.036c-0.312,0.456-0.948,0.864-1.776,0.864
				c-1.176,0-1.776-0.828-1.776-1.668c0-1.404,1.248-2.172,3.492-2.16v-0.12c0-0.48-0.132-1.356-1.32-1.344
				c-0.552,0-1.116,0.156-1.524,0.432l-0.24-0.708c0.48-0.3,1.188-0.504,1.92-0.504c1.788,0,2.22,1.212,2.22,2.376V56.96z
				 M210.956,55.389c-1.152-0.024-2.46,0.18-2.46,1.308c0,0.696,0.456,1.008,0.984,1.008c0.768,0,1.26-0.48,1.428-0.972
				c0.036-0.108,0.048-0.228,0.048-0.336V55.389z"/>
			<path d="M213.932,52.544l1.14,3.252c0.192,0.54,0.348,1.02,0.468,1.5h0.036c0.132-0.48,0.3-0.96,0.492-1.5l1.128-3.252h1.104
				l-2.28,5.808h-1.008l-2.208-5.808H213.932z"/>
			<path d="M219.764,55.628c0.024,1.428,0.924,2.016,1.98,2.016c0.756,0,1.224-0.132,1.608-0.288l0.192,0.744
				c-0.372,0.168-1.02,0.372-1.944,0.372c-1.776,0-2.856-1.188-2.856-2.928c0-1.764,1.044-3.144,2.736-3.144
				c1.896,0,2.388,1.668,2.388,2.736c0,0.216-0.012,0.384-0.036,0.504L219.764,55.628z M222.848,54.873
				c0.012-0.66-0.276-1.716-1.452-1.716c-1.08,0-1.536,0.984-1.62,1.716H222.848z"/>
			<path d="M264.5,57.081c0.468,0.3,1.14,0.528,1.86,0.528c1.068,0,1.692-0.552,1.692-1.38c0-0.744-0.432-1.188-1.524-1.596
				c-1.32-0.48-2.136-1.176-2.136-2.304c0-1.26,1.044-2.196,2.616-2.196c0.816,0,1.428,0.192,1.776,0.396l-0.288,0.852
				c-0.252-0.156-0.792-0.384-1.524-0.384c-1.104,0-1.524,0.66-1.524,1.212c0,0.756,0.492,1.128,1.608,1.56
				c1.368,0.54,2.052,1.188,2.052,2.376c0,1.248-0.912,2.34-2.82,2.34c-0.78,0-1.632-0.24-2.064-0.528L264.5,57.081z"/>
			<path d="M271.184,55.628c0.024,1.428,0.924,2.016,1.98,2.016c0.756,0,1.224-0.132,1.608-0.288l0.192,0.744
				c-0.372,0.168-1.02,0.372-1.944,0.372c-1.776,0-2.856-1.188-2.856-2.928c0-1.764,1.044-3.144,2.736-3.144
				c1.896,0,2.388,1.668,2.388,2.736c0,0.216-0.012,0.384-0.036,0.504L271.184,55.628z M274.268,54.873
				c0.012-0.66-0.276-1.716-1.452-1.716c-1.08,0-1.536,0.984-1.62,1.716H274.268z"/>
			<path d="M280.736,58.148c-0.276,0.132-0.888,0.336-1.668,0.336c-1.752,0-2.892-1.188-2.892-2.976c0-1.788,1.224-3.096,3.12-3.096
				c0.624,0,1.176,0.156,1.464,0.312l-0.24,0.804c-0.252-0.132-0.648-0.276-1.224-0.276c-1.332,0-2.052,0.996-2.052,2.208
				c0,1.344,0.864,2.172,2.016,2.172c0.6,0,0.996-0.144,1.296-0.276L280.736,58.148z"/>
			<path d="M284.264,58.484c-1.56,0-2.784-1.152-2.784-2.988c0-1.944,1.284-3.084,2.88-3.084c1.668,0,2.796,1.212,2.796,2.976
				c0,2.16-1.5,3.096-2.88,3.096H284.264z M284.3,57.692c1.008,0,1.764-0.948,1.764-2.268c0-0.984-0.492-2.22-1.74-2.22
				c-1.236,0-1.776,1.152-1.776,2.256c0,1.272,0.72,2.232,1.74,2.232H284.3z"/>
			<path d="M288.488,54.117c0-0.612-0.012-1.092-0.048-1.572h0.936l0.061,0.948h0.023c0.288-0.54,0.96-1.08,1.92-1.08
				c0.805,0,2.053,0.48,2.053,2.472v3.468h-1.057v-3.348c0-0.936-0.348-1.728-1.344-1.728c-0.684,0-1.224,0.492-1.416,1.08
				c-0.048,0.132-0.072,0.324-0.072,0.492v3.504h-1.056V54.117z"/>
			<path d="M300.164,49.833v7.02c0,0.516,0.012,1.104,0.048,1.5h-0.947l-0.049-1.008h-0.023c-0.324,0.648-1.021,1.14-1.968,1.14
				c-1.404,0-2.496-1.188-2.496-2.952c-0.013-1.944,1.199-3.12,2.604-3.12c0.9,0,1.5,0.42,1.752,0.876h0.024v-3.456H300.164z
				 M299.108,54.909c0-0.144-0.013-0.312-0.048-0.456c-0.156-0.66-0.732-1.212-1.524-1.212c-1.092,0-1.74,0.96-1.74,2.232
				c0,1.188,0.588,2.16,1.716,2.16c0.708,0,1.356-0.48,1.549-1.26c0.035-0.144,0.048-0.288,0.048-0.456V54.909z"/>
			<path d="M341.587,57.081c0.469,0.3,1.141,0.528,1.86,0.528c1.068,0,1.692-0.552,1.692-1.38c0-0.744-0.433-1.188-1.524-1.596
				c-1.32-0.48-2.136-1.176-2.136-2.304c0-1.26,1.044-2.196,2.616-2.196c0.815,0,1.428,0.192,1.775,0.396l-0.288,0.852
				c-0.252-0.156-0.792-0.384-1.523-0.384c-1.104,0-1.524,0.66-1.524,1.212c0,0.756,0.492,1.128,1.608,1.56
				c1.368,0.54,2.052,1.188,2.052,2.376c0,1.248-0.912,2.34-2.82,2.34c-0.779,0-1.632-0.24-2.063-0.528L341.587,57.081z"/>
			<path d="M348.272,55.628c0.023,1.428,0.924,2.016,1.979,2.016c0.756,0,1.225-0.132,1.608-0.288l0.191,0.744
				c-0.372,0.168-1.02,0.372-1.943,0.372c-1.776,0-2.856-1.188-2.856-2.928c0-1.764,1.044-3.144,2.736-3.144
				c1.896,0,2.388,1.668,2.388,2.736c0,0.216-0.012,0.384-0.036,0.504L348.272,55.628z M351.356,54.873
				c0.012-0.66-0.276-1.716-1.452-1.716c-1.08,0-1.536,0.984-1.62,1.716H351.356z"/>
			<path d="M354.068,52.544l1.14,3.252c0.192,0.54,0.348,1.02,0.468,1.5h0.036c0.132-0.48,0.3-0.96,0.492-1.5l1.128-3.252h1.104
				l-2.28,5.808h-1.008l-2.208-5.808H354.068z"/>
			<path d="M359.9,55.628c0.023,1.428,0.924,2.016,1.979,2.016c0.756,0,1.225-0.132,1.608-0.288l0.191,0.744
				c-0.371,0.168-1.02,0.372-1.943,0.372c-1.776,0-2.856-1.188-2.856-2.928c0-1.764,1.044-3.144,2.736-3.144
				c1.896,0,2.388,1.668,2.388,2.736c0,0.216-0.012,0.384-0.036,0.504L359.9,55.628z M362.984,54.873
				c0.012-0.66-0.276-1.716-1.452-1.716c-1.08,0-1.536,0.984-1.62,1.716H362.984z"/>
			<path d="M365.311,54.117c0-0.612-0.012-1.092-0.048-1.572h0.937l0.06,0.948h0.024c0.288-0.54,0.96-1.08,1.92-1.08
				c0.804,0,2.052,0.48,2.052,2.472v3.468H369.2v-3.348c0-0.936-0.349-1.728-1.344-1.728c-0.685,0-1.225,0.492-1.416,1.08
				c-0.049,0.132-0.072,0.324-0.072,0.492v3.504h-1.057V54.117z"/>
			<path d="M373.196,51.152v1.392h1.512v0.804h-1.512v3.132c0,0.72,0.204,1.128,0.792,1.128c0.288,0,0.456-0.024,0.611-0.072
				l0.049,0.804c-0.204,0.072-0.528,0.144-0.937,0.144c-0.492,0-0.888-0.168-1.14-0.444c-0.288-0.324-0.408-0.84-0.408-1.524v-3.168
				h-0.9v-0.804h0.9v-1.068L373.196,51.152z"/>
			<path d="M375.895,49.833h1.057v3.624h0.023c0.168-0.3,0.433-0.576,0.756-0.744c0.313-0.192,0.685-0.3,1.08-0.3
				c0.78,0,2.028,0.48,2.028,2.484v3.456h-1.056v-3.336c0-0.948-0.349-1.728-1.345-1.728c-0.684,0-1.212,0.48-1.416,1.056
				c-0.06,0.144-0.071,0.3-0.071,0.504v3.504h-1.057V49.833z"/>
			<path d="M423.883,50.265h4.356v0.876h-3.301v2.688h3.049v0.864h-3.049v3.66h-1.056V50.265z"/>
			<path d="M431.708,58.484c-1.561,0-2.784-1.152-2.784-2.988c0-1.944,1.284-3.084,2.88-3.084c1.668,0,2.796,1.212,2.796,2.976
				c0,2.16-1.5,3.096-2.88,3.096H431.708z M431.744,57.692c1.008,0,1.764-0.948,1.764-2.268c0-0.984-0.492-2.22-1.74-2.22
				c-1.235,0-1.775,1.152-1.775,2.256c0,1.272,0.72,2.232,1.739,2.232H431.744z"/>
			<path d="M440.792,56.769c0,0.6,0.012,1.128,0.048,1.584h-0.937l-0.06-0.948h-0.024c-0.264,0.468-0.888,1.08-1.92,1.08
				c-0.912,0-2.004-0.516-2.004-2.544v-3.396h1.057v3.204c0,1.104,0.348,1.86,1.296,1.86c0.708,0,1.199-0.492,1.392-0.972
				c0.061-0.144,0.096-0.336,0.096-0.54v-3.552h1.057V56.769z"/>
			<path d="M442.555,54.356c0-0.684-0.012-1.272-0.048-1.812h0.924l0.048,1.14h0.036c0.264-0.78,0.912-1.272,1.62-1.272
				c0.108,0,0.192,0.012,0.288,0.036v0.984c-0.12-0.012-0.229-0.024-0.372-0.024c-0.744,0-1.272,0.564-1.416,1.344
				c-0.024,0.156-0.036,0.324-0.036,0.504v3.096h-1.056L442.555,54.356z"/>
			<path d="M448.027,51.152v1.392h1.512v0.804h-1.512v3.132c0,0.72,0.204,1.128,0.792,1.128c0.288,0,0.456-0.024,0.612-0.072
				l0.048,0.804c-0.204,0.072-0.528,0.144-0.937,0.144c-0.491,0-0.888-0.168-1.14-0.444c-0.288-0.324-0.408-0.84-0.408-1.524v-3.168
				h-0.899v-0.804h0.899v-1.068L448.027,51.152z"/>
			<path d="M450.727,49.833h1.056v3.624h0.024c0.168-0.3,0.432-0.576,0.756-0.744c0.312-0.192,0.684-0.3,1.08-0.3
				c0.78,0,2.028,0.48,2.028,2.484v3.456h-1.057v-3.336c0-0.948-0.348-1.728-1.344-1.728c-0.684,0-1.212,0.48-1.416,1.056
				c-0.061,0.144-0.072,0.3-0.072,0.504v3.504h-1.056V49.833z"/>
		</g>
		<g>
			<path d="M76.594,22c2.664,0.024,5.184,1.032,5.376,3.264c0.144,1.632-2.016,3.12-4.68,3.12c-2.688-0.024-5.184-1.008-5.4-3.24
				C71.746,23.488,73.93,22,76.594,22z M77.242,27.832c1.152,0,1.896-1.104,1.776-1.992c-0.264-1.752-0.864-3.168-2.448-3.168
				c-1.152,0-1.824,1.128-1.68,2.016C75.154,26.44,75.658,27.832,77.242,27.832z"/>
		</g>
		<path fill="none" stroke="#0A0A0A" d="M100.687,6.117v29.746"/>
		<g>
			<path d="M119.594,11c2.664,0.024,5.184,1.032,5.376,3.264c0.144,1.632-2.016,3.12-4.68,3.12c-2.688-0.024-5.184-1.008-5.4-3.24
				C114.746,12.488,116.93,11,119.594,11z M120.242,16.832c1.152,0,1.896-1.104,1.776-1.992c-0.264-1.752-0.864-3.168-2.448-3.168
				c-1.152,0-1.824,1.128-1.68,2.016C118.154,15.44,118.658,16.832,120.242,16.832z"/>
		</g>
		<g>
			<path d="M144.594,25c2.664,0.024,5.184,1.032,5.376,3.264c0.144,1.632-2.016,3.12-4.68,3.12c-2.688-0.024-5.184-1.008-5.4-3.24
				C139.746,26.488,141.93,25,144.594,25z M145.242,30.832c1.152,0,1.896-1.104,1.776-1.992c-0.264-1.752-0.864-3.168-2.448-3.168
				c-1.152,0-1.824,1.128-1.68,2.016C143.154,29.44,143.658,30.832,145.242,30.832z"/>
		</g>
		<path fill="none" stroke="#0A0A0A" d="M170.687,6.117v29.746"/>
		<g>
			<path d="M188.594,36c2.664,0.024,5.184,1.032,5.376,3.264c0.144,1.632-2.016,3.12-4.68,3.12c-2.688-0.024-5.184-1.008-5.4-3.24
				C183.746,37.488,185.93,36,188.594,36z M189.242,41.832c1.152,0,1.896-1.104,1.776-1.992c-0.264-1.752-0.864-3.168-2.448-3.168
				c-1.152,0-1.824,1.128-1.68,2.016C187.154,40.44,187.658,41.832,189.242,41.832z"/>
		</g>
		<g>
			<path d="M220.594,11c2.664,0.024,5.184,1.032,5.376,3.264c0.144,1.632-2.016,3.12-4.68,3.12c-2.688-0.024-5.184-1.008-5.4-3.24
				C215.746,12.488,217.93,11,220.594,11z M221.242,16.832c1.152,0,1.896-1.104,1.776-1.992c-0.264-1.752-0.864-3.168-2.448-3.168
				c-1.152,0-1.824,1.128-1.68,2.016C219.154,15.44,219.658,16.832,221.242,16.832z"/>
		</g>
		<path fill="none" stroke="#0A0A0A" d="M246.687,6.117v29.746"/>
		<g>
			<path d="M266.594,18c2.664,0.024,5.184,1.032,5.376,3.264c0.144,1.632-2.016,3.12-4.68,3.12c-2.688-0.024-5.184-1.008-5.4-3.24
				C261.746,19.488,263.93,18,266.594,18z M267.242,23.832c1.152,0,1.896-1.104,1.776-1.992c-0.264-1.752-0.864-3.168-2.448-3.168
				c-1.152,0-1.824,1.128-1.68,2.016C265.154,22.44,265.658,23.832,267.242,23.832z"/>
		</g>
		<g>
			<path d="M297.594,14c2.664,0.024,5.184,1.032,5.376,3.264c0.144,1.632-2.016,3.12-4.68,3.12c-2.688-0.024-5.185-1.008-5.4-3.24
				C292.747,15.488,294.93,14,297.594,14z M298.242,19.832c1.152,0,1.896-1.104,1.776-1.992c-0.264-1.752-0.864-3.168-2.448-3.168
				c-1.151,0-1.823,1.128-1.68,2.016C296.154,18.44,296.658,19.832,298.242,19.832z"/>
		</g>
		<path fill="none" stroke="#0A0A0A" d="M328.687,6.117v29.746"/>
		<g>
			<path d="M348.594,0c2.664,0.024,5.184,1.032,5.376,3.264c0.144,1.632-2.016,3.12-4.68,3.12c-2.688-0.024-5.185-1.008-5.4-3.24
				C343.747,1.488,345.93,0,348.594,0z M349.242,5.832c1.152,0,1.896-1.104,1.776-1.992c-0.264-1.752-0.864-3.168-2.448-3.168
				c-1.151,0-1.823,1.128-1.68,2.016C347.154,4.44,347.658,5.832,349.242,5.832z"/>
		</g>
		<g>
			<path d="M379.594,22c2.664,0.024,5.184,1.032,5.376,3.264c0.144,1.632-2.016,3.12-4.68,3.12c-2.688-0.024-5.185-1.008-5.4-3.24
				C374.747,23.487,376.93,22,379.594,22z M380.242,27.832c1.152,0,1.896-1.104,1.776-1.992c-0.264-1.752-0.864-3.168-2.448-3.168
				c-1.151,0-1.823,1.128-1.68,2.016C378.154,26.439,378.658,27.832,380.242,27.832z"/>
		</g>
		<path fill="none" stroke="#0A0A0A" d="M401.687,6.117v29.746"/>
		<g>
			<path d="M421.594,18c2.664,0.024,5.184,1.032,5.376,3.264c0.144,1.632-2.016,3.12-4.68,3.12c-2.688-0.024-5.185-1.008-5.4-3.24
				C416.747,19.488,418.93,18,421.594,18z M422.242,23.832c1.152,0,1.896-1.104,1.776-1.992c-0.264-1.752-0.864-3.168-2.448-3.168
				c-1.151,0-1.823,1.128-1.68,2.016C420.154,22.44,420.658,23.832,422.242,23.832z"/>
		</g>
		<g>
			<path d="M452.594,7c2.664,0.024,5.184,1.032,5.376,3.264c0.144,1.632-2.016,3.12-4.68,3.12c-2.688-0.024-5.185-1.008-5.4-3.24
				C447.747,8.487,449.93,7,452.594,7z M453.242,12.832c1.152,0,1.896-1.104,1.776-1.992c-0.264-1.752-0.864-3.168-2.448-3.168
				c-1.151,0-1.823,1.128-1.68,2.016C451.154,11.439,451.658,12.832,453.242,12.832z"/>
		</g>
		<path fill="none" stroke="#0A0A0A" stroke-width="2" d="M475.783,6.703v29.746"/>
		<g>
			<path d="M29.978,31.442v1.584c0,0.96,1.128,0.936,1.128,0.936v0.624h-5.208v-0.624c0,0,1.176,0.048,1.152-0.888v-1.632h-4.44
				l-0.432-0.456c2.904-3.912,2.928-4.632,3.624-8.184h4.152c-0.984,1.824-4.296,5.256-6.624,7.968h3.72v-2.952l2.928-3.216v6.168
				h1.728v0.672H29.978z"/>
		</g>
		<g>
			<path d="M27.45,19.802c-1.896,0-4.44-0.864-4.44-3.096c0-1.536,1.128-2.544,1.776-2.808c-1.2-0.672-1.536-1.776-1.536-2.76
				c0-2.28,2.016-3.192,4.2-3.216c3.192,0,4.08,1.392,4.128,2.976c0.024,0.888-0.432,1.728-1.152,2.328
				c0.864,0.432,1.584,1.296,1.584,2.568C32.01,18.242,29.514,19.802,27.45,19.802z M25.506,14.354
				c-0.792,0.48-1.272,0.912-1.248,1.92c0.024,1.608,0.72,2.76,2.928,2.76c0.72,0,2.376-0.792,2.376-1.944
				C29.562,15.194,26.49,14.522,25.506,14.354z M27.474,8.521c-1.176,0-2.448,0.672-2.256,1.68c0.192,1.008,3.384,2.16,4.392,2.496
				c0.408-0.432,0.84-1.152,0.792-1.8C30.306,9.674,29.658,8.521,27.474,8.521z"/>
		</g>
		<path fill="none" stroke="#0A0A0A" d="M471.783,6.703v29.746"/>
	</g>
</svg>
