<?xml version="1.0" encoding="utf-8"?>
<!-- Generator: Adobe Illustrator 10.0, SVG Export Plug-In . SVG Version: 3.0.0 Build 76)  -->
<!DOCTYPE svg PUBLIC "-//W3C//DTD SVG 1.0//EN"    "http://www.w3.org/TR/2001/REC-SVG-20010904/DTD/svg10.dtd" [
	<!ENTITY ns_flows "http://ns.adobe.com/Flows/1.0/">
	<!ENTITY ns_extend "http://ns.adobe.com/Extensibility/1.0/">
	<!ENTITY ns_ai "http://ns.adobe.com/AdobeIllustrator/10.0/">
	<!ENTITY ns_svg "http://www.w3.org/2000/svg">
	<!ENTITY ns_xlink "http://www.w3.org/1999/xlink">
]>
<svg  xmlns:x="&ns_extend;" xmlns:i="&ns_ai;" xmlns:graph="&ns_graphs;"
	 xmlns="&ns_svg;" xmlns:xlink="&ns_xlink;" xmlns:a="http://ns.adobe.com/AdobeSVGViewerExtensions/3.0/" width="277" height="178"
	 viewBox="-0.007 0.494 277 178" overflow="visible" enable-background="new -0.007 0.494 277 178" xml:space="preserve">
	<g id="Layer_1_2_">
		<g>
			<path fill="none" stroke="#000000" d="M0.074,4.556h275.791"/>
			<path fill="none" stroke="#000000" d="M0.074,19.668h275.791"/>
			<path fill="none" stroke="#000000" d="M0.211,26.791h275.791"/>
			<path fill="none" stroke="#000000" d="M0,34.174h275.791"/>
			<path fill="none" stroke="#000000" d="M0,11.81h275.791"/>
		</g>
		<g>
			<path d="M16.876,33.768c-4.944-2.352-5.736-5.376-5.952-8.472c-0.24-3.36,1.896-6.768,3.888-8.664
				c1.152-1.08,2.4-2.136,3.888-3.264c-0.048-0.84-0.24-1.176-0.336-2.376c-0.024-0.504-0.336-2.856,0.168-5.568
				c0.312-1.608,2.328-5.4,3.72-5.424c1.08-0.024,2.736,4.296,2.784,6.456c0.072,3.336-0.72,4.848-1.704,6.576
				c-0.504,0.864-1.032,1.464-1.584,2.136c-0.576,0.696-1.224,1.104-1.824,1.632c0,0,0.768,4.344,0.792,4.656
				c1.536-0.192,3.408,0.36,4.08,0.84c1.704,1.272,2.352,3.024,2.472,4.728c0.216,2.712-1.272,5.568-4.56,6.936
				c0,0,0.504,3.456,0.624,4.176c0.264,1.896,0.216,3.096-0.192,3.864c-0.696,1.296-1.824,2.496-4.008,2.64
				c-1.68,0.096-4.992-0.744-5.16-3.384c-0.096-1.56,0.6-3.24,2.496-3.36c1.152-0.096,2.52,0.864,2.616,2.232
				c0.096,1.176-0.672,2.4-2.664,2.952c0.312,0.432,1.248,0.936,2.592,0.936c1.392,0,2.832-0.936,3.528-2.184
				c0.432-0.816,0.384-2.28,0.216-3.624c-0.072-0.456-0.648-4.08-0.648-4.08C20.332,34.416,17.884,34.248,16.876,33.768z
				 M17.356,28.08c0.048,1.152,1.008,2.496,1.896,2.952c-0.12,0.072-0.24,0.264-0.24,0.264c-0.984-0.48-1.824-1.272-2.04-1.56
				c-0.696-0.936-0.984-1.464-1.08-2.88c-0.096-1.32,0.624-3.096,2.232-4.344c0.84-0.624,1.248-0.768,1.968-0.936l-0.72-4.344
				c-0.744,0.432-3.816,2.904-5.112,4.92c-1.152,1.8-1.848,3.24-1.704,5.016c0.288,4.008,4.68,7.296,9.432,6.168
				c0,0-1.416-8.52-1.392-8.52C17.98,24.912,17.284,26.928,17.356,28.08z M19.3,12.864c2.088-1.632,4.92-4.704,4.752-7.08
				c-0.048-0.744-0.36-2.088-1.44-2.064C20.14,3.744,18.748,8.904,19.3,12.864z M22.564,33.144c2.76-0.936,2.88-3.312,2.784-4.728
				c-0.096-1.176-0.624-3.816-4.128-3.648L22.564,33.144z"/>
		</g>
		<g>
			<path d="M95.594,16.175c2.664,0.024,5.184,1.032,5.376,3.264c0.144,1.632-2.016,3.12-4.68,3.12
				c-2.688-0.024-5.184-1.008-5.4-3.24C90.746,17.663,92.93,16.175,95.594,16.175z M96.242,22.007c1.152,0,1.896-1.104,1.776-1.992
				c-0.264-1.752-0.864-3.168-2.448-3.168c-1.152,0-1.824,1.128-1.68,2.016C94.154,20.615,94.658,22.007,96.242,22.007z"/>
		</g>
		<g>
			<path d="M48.097,68.276c-0.372,0.192-1.152,0.384-2.136,0.384c-2.28,0-3.984-1.44-3.984-4.104c0-2.544,1.716-4.248,4.224-4.248
				c0.996,0,1.644,0.216,1.92,0.36l-0.264,0.852c-0.384-0.192-0.948-0.336-1.62-0.336c-1.896,0-3.156,1.212-3.156,3.336
				c0,1.992,1.14,3.252,3.096,3.252c0.648,0,1.296-0.132,1.716-0.336L48.097,68.276z"/>
			<path d="M51.588,68.66c-1.56,0-2.784-1.152-2.784-2.988c0-1.944,1.284-3.084,2.88-3.084c1.668,0,2.796,1.212,2.796,2.976
				c0,2.16-1.5,3.096-2.88,3.096H51.588z M51.625,67.868c1.008,0,1.764-0.948,1.764-2.268c0-0.984-0.492-2.22-1.74-2.22
				c-1.236,0-1.776,1.152-1.776,2.256c0,1.272,0.72,2.232,1.74,2.232H51.625z"/>
			<path d="M60.672,66.944c0,0.6,0.012,1.128,0.048,1.584h-0.936l-0.06-0.948H59.7c-0.264,0.468-0.888,1.08-1.92,1.08
				c-0.912,0-2.004-0.516-2.004-2.544V62.72h1.056v3.204c0,1.104,0.348,1.86,1.296,1.86c0.708,0,1.2-0.492,1.392-0.972
				c0.06-0.144,0.096-0.336,0.096-0.54V62.72h1.056V66.944z"/>
			<path d="M62.424,64.292c0-0.612-0.012-1.092-0.048-1.572h0.936l0.06,0.948h0.024c0.288-0.54,0.96-1.08,1.92-1.08
				c0.804,0,2.052,0.48,2.052,2.472v3.468h-1.056V65.18c0-0.936-0.348-1.728-1.344-1.728c-0.684,0-1.224,0.492-1.416,1.08
				c-0.048,0.132-0.072,0.324-0.072,0.492v3.504h-1.056V64.292z"/>
			<path d="M70.308,61.328v1.392h1.512v0.804h-1.512v3.132c0,0.72,0.204,1.128,0.792,1.128c0.288,0,0.456-0.024,0.612-0.072
				l0.048,0.804c-0.204,0.072-0.528,0.144-0.936,0.144c-0.492,0-0.888-0.168-1.14-0.444c-0.288-0.324-0.408-0.84-0.408-1.524v-3.168
				h-0.9V62.72h0.9v-1.068L70.308,61.328z"/>
			<path d="M73.452,68.66c-0.408,0-0.696-0.324-0.696-0.744c0-0.444,0.3-0.756,0.708-0.756c0.432,0,0.708,0.312,0.708,0.756
				c0,0.42-0.276,0.744-0.708,0.744H73.452z M73.464,64.424c-0.408,0-0.696-0.324-0.696-0.744c0-0.444,0.3-0.756,0.708-0.756
				c0.432,0,0.708,0.312,0.708,0.756c0,0.42-0.276,0.744-0.708,0.744H73.464z"/>
			<path d="M104.615,61.712h-0.024l-1.356,0.732l-0.204-0.804l1.704-0.912h0.9v7.8h-1.02V61.712z"/>
			<path d="M123.742,68.528V67.88l0.828-0.804c1.992-1.896,2.904-2.904,2.904-4.08c0-0.792-0.372-1.524-1.536-1.524
				c-0.708,0-1.296,0.36-1.656,0.66l-0.336-0.744c0.528-0.444,1.308-0.792,2.208-0.792c1.668,0,2.376,1.152,2.376,2.268
				c0,1.44-1.044,2.604-2.688,4.188l-0.612,0.576v0.024h3.492v0.876H123.742z"/>
			<path d="M142.869,67.328c0.3,0.18,0.984,0.48,1.728,0.48c1.344,0,1.776-0.852,1.764-1.512c-0.012-1.092-0.996-1.56-2.016-1.56
				h-0.588v-0.792h0.588c0.768,0,1.74-0.396,1.74-1.32c0-0.624-0.396-1.176-1.368-1.176c-0.624,0-1.224,0.276-1.56,0.516
				l-0.288-0.768c0.42-0.3,1.212-0.6,2.052-0.6c1.536,0,2.232,0.912,2.232,1.86c0,0.816-0.492,1.5-1.44,1.848v0.024
				c0.96,0.18,1.74,0.9,1.74,1.992c0,1.248-0.984,2.34-2.844,2.34c-0.876,0-1.644-0.276-2.028-0.528L142.869,67.328z"/>
		</g>
		<g>
			<path d="M152.594,8.175c2.664,0.024,5.184,1.032,5.376,3.264c0.144,1.632-2.016,3.12-4.68,3.12
				c-2.688-0.024-5.184-1.008-5.4-3.24C147.746,9.663,149.93,8.175,152.594,8.175z M153.242,14.007c1.152,0,1.896-1.104,1.776-1.992
				c-0.264-1.752-0.864-3.168-2.448-3.168c-1.152,0-1.824,1.128-1.68,2.016C151.154,12.615,151.658,14.007,153.242,14.007z"/>
		</g>
		<g>
			<path fill="none" stroke="#000000" d="M2.075,106.556h274.792"/>
			<path fill="none" stroke="#000000" d="M2.075,121.668h274.792"/>
			<path fill="none" stroke="#000000" d="M2.209,128.791h274.792"/>
			<path fill="none" stroke="#000000" d="M2,136.174h274.792"/>
			<path fill="none" stroke="#000000" d="M2,113.81h274.792"/>
		</g>
		<g>
			<path d="M70.594,129.175c2.664,0.024,5.184,1.032,5.376,3.264c0.144,1.632-2.016,3.12-4.68,3.12
				c-2.688-0.024-5.184-1.008-5.4-3.24C65.746,130.663,67.93,129.175,70.594,129.175z M71.242,135.007
				c1.152,0,1.896-1.104,1.776-1.992c-0.264-1.752-0.864-3.168-2.448-3.168c-1.152,0-1.824,1.128-1.68,2.016
				C69.154,133.615,69.658,135.007,71.242,135.007z"/>
		</g>
		<g>
			<path d="M197.594,110.175c2.664,0.024,5.184,1.032,5.376,3.264c0.144,1.632-2.016,3.12-4.68,3.12
				c-2.688-0.024-5.184-1.008-5.4-3.24C192.746,111.663,194.93,110.175,197.594,110.175z M198.242,116.007
				c1.152,0,1.896-1.104,1.776-1.992c-0.264-1.752-0.864-3.168-2.448-3.168c-1.152,0-1.824,1.128-1.68,2.016
				C196.154,114.615,196.658,116.007,198.242,116.007z"/>
		</g>
		<g>
			<path fill="none" stroke="#000000" d="M104.94,20.898v30.572"/>
			<path fill="none" stroke="#000000" d="M98.828,28.335l6.112-7.437"/>
			<path fill="none" stroke="#000000" d="M111.054,29.161l-6.113-8.263"/>
		</g>
		<g>
			<path d="M21.543,125.069c-0.937,1.135-1.526,1.76-2.704,2.667c-1.418,1.107-2.382,1.561-4.042,2.242
				c-1.606,0.625-4.31,1.135-4.31,1.135l-0.188-0.426c0,0,4.523-1.447,6.745-3.944c2.917-3.207,4.443-7.094,4.363-12.06
				c-0.027-2.242-0.696-6.442-4.069-6.47c-1.927,0-4.657,1.76-4.47,3.944c0.053,0.313,0.803-0.34,2.275-0.284
				c1.553,0.057,2.382,2.1,2.008,3.689c-0.268,1.249-1.018,2.043-2.382,2.043c-1.74,0-3.292-1.306-3.319-3.462
				c-0.053-3.264,1.66-4.91,2.704-5.59c1.312-0.852,2.73-1.164,3.935-1.164c2.704-0.057,5.702,2.015,6.719,5.023
				c0.589,1.702,0.589,3.604,0.134,5.817c-0.294,1.504-0.669,2.327-1.338,3.689C22.935,123.225,22.454,123.934,21.543,125.069z
				 M27.753,109.461c0.83,0,1.499,0.625,1.499,1.476c0.027,0.852-0.642,1.589-1.445,1.589c-0.803,0.028-1.499-0.681-1.499-1.532
				C26.281,110.114,26.95,109.49,27.753,109.461z M27.78,116.613c0.803,0,1.472,0.624,1.499,1.476c0,0.879-0.642,1.589-1.445,1.589
				c-0.83,0.028-1.499-0.652-1.526-1.532C26.308,117.294,26.95,116.641,27.78,116.613z"/>
		</g>
		<g>
			<path fill="none" stroke="#000000" d="M124.94,15.898v30.572"/>
			<path fill="none" stroke="#000000" d="M118.828,23.335l6.112-7.437"/>
			<path fill="none" stroke="#000000" d="M131.054,24.161l-6.113-8.263"/>
		</g>
		<g>
			<path fill="none" stroke="#000000" d="M143.94,11.898v30.572"/>
			<path fill="none" stroke="#000000" d="M137.828,19.335l6.112-7.437"/>
			<path fill="none" stroke="#000000" d="M150.054,20.161l-6.113-8.263"/>
		</g>
		<g>
			<path fill="none" stroke="#000000" d="M80.94,132.898v30.572"/>
			<path fill="none" stroke="#000000" d="M74.828,140.335l6.112-7.437"/>
			<path fill="none" stroke="#000000" d="M87.054,141.161l-6.113-8.263"/>
		</g>
		<g>
			<path fill="none" stroke="#000000" d="M103.94,128.898v30.572"/>
			<path fill="none" stroke="#000000" d="M97.828,136.335l6.112-7.437"/>
			<path fill="none" stroke="#000000" d="M110.054,137.161l-6.113-8.263"/>
		</g>
		<g>
			<path fill="none" stroke="#000000" d="M124.94,124.898v30.572"/>
			<path fill="none" stroke="#000000" d="M118.828,132.335l6.112-7.437"/>
			<path fill="none" stroke="#000000" d="M131.054,133.161l-6.113-8.263"/>
		</g>
		<g>
			<path fill="none" stroke="#000000" d="M145.94,120.898v30.572"/>
			<path fill="none" stroke="#000000" d="M139.828,128.335l6.112-7.437"/>
			<path fill="none" stroke="#000000" d="M152.054,129.161l-6.113-8.263"/>
		</g>
		<g>
			<path fill="none" stroke="#000000" d="M166.94,117.898v30.572"/>
			<path fill="none" stroke="#000000" d="M160.828,125.335l6.112-7.437"/>
			<path fill="none" stroke="#000000" d="M173.054,126.161l-6.113-8.263"/>
		</g>
		<g>
			<path fill="none" stroke="#000000" d="M188.94,114.898v30.572"/>
			<path fill="none" stroke="#000000" d="M182.828,122.335l6.112-7.437"/>
			<path fill="none" stroke="#000000" d="M195.054,123.161l-6.113-8.263"/>
		</g>
		<g>
			<path d="M47.097,178.276c-0.372,0.192-1.152,0.384-2.136,0.384c-2.28,0-3.984-1.44-3.984-4.104c0-2.544,1.716-4.248,4.224-4.248
				c0.996,0,1.644,0.216,1.92,0.36l-0.264,0.852c-0.384-0.192-0.948-0.336-1.62-0.336c-1.896,0-3.156,1.212-3.156,3.336
				c0,1.992,1.14,3.252,3.096,3.252c0.648,0,1.296-0.132,1.716-0.336L47.097,178.276z"/>
			<path d="M50.588,178.66c-1.56,0-2.784-1.152-2.784-2.988c0-1.944,1.284-3.084,2.88-3.084c1.668,0,2.796,1.212,2.796,2.976
				c0,2.16-1.5,3.096-2.88,3.096H50.588z M50.625,177.868c1.008,0,1.764-0.948,1.764-2.268c0-0.984-0.492-2.22-1.74-2.22
				c-1.236,0-1.776,1.152-1.776,2.256c0,1.272,0.72,2.232,1.74,2.232H50.625z"/>
			<path d="M59.672,176.944c0,0.6,0.012,1.128,0.048,1.584h-0.936l-0.06-0.948H58.7c-0.264,0.468-0.888,1.08-1.92,1.08
				c-0.912,0-2.004-0.516-2.004-2.544v-3.396h1.056v3.204c0,1.104,0.348,1.86,1.296,1.86c0.708,0,1.2-0.492,1.392-0.972
				c0.06-0.144,0.096-0.336,0.096-0.54v-3.552h1.056V176.944z"/>
			<path d="M61.424,174.292c0-0.612-0.012-1.092-0.048-1.572h0.936l0.06,0.948h0.024c0.288-0.54,0.96-1.08,1.92-1.08
				c0.804,0,2.052,0.48,2.052,2.472v3.468h-1.056v-3.348c0-0.936-0.348-1.728-1.344-1.728c-0.684,0-1.224,0.492-1.416,1.08
				c-0.048,0.132-0.072,0.324-0.072,0.492v3.504h-1.056V174.292z"/>
			<path d="M69.308,171.328v1.392h1.512v0.804h-1.512v3.132c0,0.72,0.204,1.128,0.792,1.128c0.288,0,0.456-0.024,0.612-0.072
				l0.048,0.804c-0.204,0.072-0.528,0.144-0.936,0.144c-0.492,0-0.888-0.168-1.14-0.444c-0.288-0.324-0.408-0.84-0.408-1.524v-3.168
				h-0.9v-0.804h0.9v-1.068L69.308,171.328z"/>
			<path d="M72.452,178.66c-0.408,0-0.696-0.324-0.696-0.744c0-0.444,0.3-0.756,0.708-0.756c0.432,0,0.708,0.312,0.708,0.756
				c0,0.42-0.276,0.744-0.708,0.744H72.452z M72.464,174.424c-0.408,0-0.696-0.324-0.696-0.744c0-0.444,0.3-0.756,0.708-0.756
				c0.432,0,0.708,0.312,0.708,0.756c0,0.42-0.276,0.744-0.708,0.744H72.464z"/>
			<path d="M80.72,171.712h-0.024l-1.356,0.732l-0.204-0.804l1.704-0.912h0.9v7.8h-1.02V171.712z"/>
			<path d="M102.391,178.528v-0.648l0.828-0.804c1.992-1.896,2.904-2.904,2.904-4.08c0-0.792-0.372-1.524-1.536-1.524
				c-0.708,0-1.296,0.36-1.656,0.66l-0.336-0.744c0.528-0.444,1.308-0.792,2.208-0.792c1.668,0,2.376,1.152,2.376,2.268
				c0,1.44-1.044,2.604-2.688,4.188l-0.612,0.576v0.024h3.492v0.876H102.391z"/>
			<path d="M124.062,177.328c0.3,0.18,0.984,0.48,1.728,0.48c1.344,0,1.776-0.852,1.764-1.512c-0.012-1.092-0.996-1.56-2.016-1.56
				h-0.588v-0.792h0.588c0.768,0,1.74-0.396,1.74-1.32c0-0.624-0.396-1.176-1.368-1.176c-0.624,0-1.224,0.276-1.56,0.516
				l-0.288-0.768c0.42-0.3,1.212-0.6,2.052-0.6c1.536,0,2.232,0.912,2.232,1.86c0,0.816-0.492,1.5-1.44,1.848v0.024
				c0.96,0.18,1.74,0.9,1.74,1.992c0,1.248-0.984,2.34-2.844,2.34c-0.876,0-1.644-0.276-2.028-0.528L124.062,177.328z"/>
			<path d="M148.493,178.528v-2.124h-3.624v-0.684l3.48-4.992h1.14v4.86h1.092v0.816h-1.092v2.124H148.493z M148.493,175.588v-2.616
				c0-0.408,0.012-0.816,0.036-1.224h-0.036c-0.24,0.456-0.432,0.792-0.648,1.164l-1.908,2.652v0.024H148.493z"/>
			<path d="M171.304,171.616h-2.976l-0.3,1.98c0.18-0.024,0.348-0.048,0.636-0.048c0.612,0,1.2,0.132,1.68,0.42
				c0.612,0.336,1.116,1.02,1.116,2.028c0,1.524-1.212,2.664-2.904,2.664c-0.852,0-1.56-0.24-1.944-0.48l0.264-0.804
				c0.324,0.192,0.96,0.432,1.68,0.432c0.984,0,1.848-0.648,1.836-1.704c0-1.032-0.684-1.74-2.232-1.74
				c-0.456,0-0.804,0.036-1.092,0.084l0.504-3.72h3.732V171.616z"/>
			<path d="M192.52,171.46c-0.216-0.012-0.492,0.012-0.792,0.06c-1.668,0.264-2.532,1.476-2.712,2.772h0.024
				c0.372-0.504,1.032-0.912,1.896-0.912c1.38,0,2.352,1.008,2.352,2.52c0,1.44-0.972,2.76-2.604,2.76
				c-1.656,0-2.748-1.296-2.748-3.324c0-1.536,0.54-2.748,1.32-3.528c0.648-0.636,1.512-1.032,2.496-1.152
				c0.312-0.048,0.576-0.06,0.768-0.06V171.46z M190.708,177.844c0.9,0,1.512-0.756,1.512-1.872c0-1.116-0.636-1.788-1.608-1.788
				c-0.636,0-1.236,0.384-1.524,0.96c-0.06,0.12-0.108,0.264-0.108,0.456c0.012,1.284,0.612,2.244,1.716,2.244H190.708z"/>
		</g>
	</g>
</svg>
