<?xml version="1.0" encoding="utf-8"?>
<!-- Generator: Adobe Illustrator 10.0, SVG Export Plug-In . SVG Version: 3.0.0 Build 76)  -->
<!DOCTYPE svg PUBLIC "-//W3C//DTD SVG 1.0//EN"    "http://www.w3.org/TR/2001/REC-SVG-20010904/DTD/svg10.dtd" [
	<!ENTITY ns_flows "http://ns.adobe.com/Flows/1.0/">
	<!ENTITY ns_extend "http://ns.adobe.com/Extensibility/1.0/">
	<!ENTITY ns_ai "http://ns.adobe.com/AdobeIllustrator/10.0/">
	<!ENTITY ns_svg "http://www.w3.org/2000/svg">
	<!ENTITY ns_xlink "http://www.w3.org/1999/xlink">
]>
<svg  xmlns:x="&ns_extend;" xmlns:i="&ns_ai;" xmlns:graph="&ns_graphs;"
	 xmlns="&ns_svg;" xmlns:xlink="&ns_xlink;" xmlns:a="http://ns.adobe.com/AdobeSVGViewerExtensions/3.0/" width="477" height="60"
	 viewBox="-0.393 0.426 477 60" overflow="visible" enable-background="new -0.393 0.426 477 60" xml:space="preserve">
	<g id="Layer_1_2_">
		<g>
			<path fill="none" stroke="#000000" d="M0.128,4.556h474.758"/>
			<path fill="none" stroke="#000000" d="M0.128,19.668h474.758"/>
			<path fill="none" stroke="#000000" d="M0.364,26.791h474.76"/>
			<path fill="none" stroke="#000000" d="M0,34.174h474.758"/>
			<path fill="none" stroke="#000000" d="M0,11.81h474.758"/>
		</g>
		<g>
			<path d="M7.876,33.768c-4.944-2.352-5.736-5.376-5.952-8.472c-0.24-3.36,1.896-6.768,3.888-8.664
				c1.152-1.08,2.4-2.136,3.888-3.264c-0.048-0.84-0.24-1.176-0.336-2.376C9.34,10.488,9.028,8.136,9.532,5.424
				c0.312-1.608,2.328-5.4,3.72-5.424c1.08-0.024,2.736,4.296,2.784,6.456c0.072,3.336-0.72,4.848-1.704,6.576
				c-0.504,0.864-1.032,1.464-1.584,2.136c-0.576,0.696-1.224,1.104-1.824,1.632c0,0,0.768,4.344,0.792,4.656
				c1.536-0.192,3.408,0.36,4.08,0.84c1.704,1.272,2.352,3.024,2.472,4.728c0.216,2.712-1.272,5.568-4.56,6.936
				c0,0,0.504,3.456,0.624,4.176c0.264,1.896,0.216,3.096-0.192,3.864c-0.696,1.296-1.824,2.496-4.008,2.64
				c-1.68,0.096-4.992-0.744-5.16-3.384c-0.096-1.56,0.6-3.24,2.496-3.36c1.152-0.096,2.52,0.864,2.616,2.232
				c0.096,1.176-0.672,2.4-2.664,2.952c0.312,0.432,1.248,0.936,2.592,0.936c1.392,0,2.832-0.936,3.528-2.184
				c0.432-0.816,0.384-2.28,0.216-3.624c-0.072-0.456-0.648-4.08-0.648-4.08C11.332,34.416,8.884,34.248,7.876,33.768z M8.356,28.08
				c0.048,1.152,1.008,2.496,1.896,2.952c-0.12,0.072-0.24,0.264-0.24,0.264c-0.984-0.48-1.824-1.272-2.04-1.56
				c-0.696-0.936-0.984-1.464-1.08-2.88c-0.096-1.32,0.624-3.096,2.232-4.344c0.84-0.624,1.248-0.768,1.968-0.936l-0.72-4.344
				c-0.744,0.432-3.816,2.904-5.112,4.92c-1.152,1.8-1.848,3.24-1.704,5.016c0.288,4.008,4.68,7.296,9.432,6.168
				c0,0-1.416-8.52-1.392-8.52C8.98,24.912,8.284,26.928,8.356,28.08z M10.3,12.864c2.088-1.632,4.92-4.704,4.752-7.08
				c-0.048-0.744-0.36-2.088-1.44-2.064C11.14,3.744,9.748,8.904,10.3,12.864z M13.564,33.144c2.76-0.936,2.88-3.312,2.784-4.728
				c-0.096-1.176-0.624-3.816-4.128-3.648L13.564,33.144z"/>
		</g>
		<g>
			<path d="M65.658,52.406v4.8c0,1.8,0.804,2.568,1.884,2.568c1.188,0,1.968-0.792,1.968-2.568v-4.8h1.056v4.728
				c0,2.484-1.308,3.492-3.06,3.492c-1.656,0-2.904-0.936-2.904-3.456v-4.764H65.658z"/>
			<path d="M72.33,56.258c0-0.612-0.012-1.092-0.048-1.572h0.936l0.06,0.948h0.024c0.288-0.54,0.96-1.08,1.92-1.08
				c0.804,0,2.052,0.48,2.052,2.472v3.468h-1.056v-3.348c0-0.936-0.348-1.728-1.344-1.728c-0.684,0-1.224,0.492-1.416,1.08
				c-0.048,0.132-0.072,0.324-0.072,0.492v3.504H72.33V56.258z"/>
			<path d="M79.494,53.618c-0.396,0-0.66-0.312-0.66-0.684s0.276-0.672,0.684-0.672c0.408,0,0.672,0.3,0.672,0.672
				s-0.264,0.684-0.684,0.684H79.494z M78.989,60.494v-5.808h1.056v5.808H78.989z"/>
			<path d="M81.653,59.426c0.324,0.192,0.876,0.408,1.404,0.408c0.756,0,1.116-0.372,1.116-0.864c0-0.504-0.3-0.78-1.068-1.068
				c-1.056-0.384-1.548-0.948-1.548-1.644c0-0.936,0.768-1.704,2.004-1.704c0.588,0,1.104,0.156,1.416,0.36l-0.252,0.756
				c-0.228-0.132-0.648-0.336-1.188-0.336c-0.624,0-0.96,0.36-0.96,0.792c0,0.492,0.336,0.708,1.092,0.996
				c0.996,0.372,1.524,0.876,1.524,1.752c0,1.032-0.804,1.752-2.16,1.752c-0.636,0-1.224-0.168-1.632-0.408L81.653,59.426z"/>
			<path d="M88.913,60.625c-1.56,0-2.784-1.152-2.784-2.988c0-1.944,1.284-3.084,2.88-3.084c1.668,0,2.796,1.212,2.796,2.976
				c0,2.16-1.5,3.096-2.88,3.096H88.913z M88.949,59.833c1.008,0,1.764-0.948,1.764-2.268c0-0.984-0.492-2.22-1.74-2.22
				c-1.236,0-1.776,1.152-1.776,2.256c0,1.272,0.72,2.232,1.74,2.232H88.949z"/>
			<path d="M93.137,56.258c0-0.612-0.012-1.092-0.048-1.572h0.936l0.06,0.948h0.024c0.288-0.54,0.96-1.08,1.92-1.08
				c0.804,0,2.052,0.48,2.052,2.472v3.468h-1.056v-3.348c0-0.936-0.348-1.728-1.344-1.728c-0.684,0-1.224,0.492-1.416,1.08
				c-0.048,0.132-0.072,0.324-0.072,0.492v3.504h-1.056V56.258z"/>
			<path d="M175.77,60.625c-2.148,0-3.636-1.656-3.636-4.104c0-2.568,1.584-4.248,3.744-4.248c2.22,0,3.648,1.692,3.648,4.092
				c0,2.772-1.692,4.26-3.744,4.26H175.77z M175.817,59.773c1.656,0,2.592-1.524,2.592-3.36c0-1.608-0.84-3.288-2.58-3.288
				c-1.74,0-2.604,1.62-2.604,3.372c0,1.704,0.936,3.276,2.58,3.276H175.817z"/>
			<path d="M185.058,60.29c-0.276,0.132-0.888,0.336-1.668,0.336c-1.752,0-2.892-1.188-2.892-2.976c0-1.788,1.224-3.096,3.12-3.096
				c0.624,0,1.176,0.156,1.464,0.312l-0.24,0.804c-0.252-0.132-0.648-0.276-1.224-0.276c-1.332,0-2.052,0.996-2.052,2.208
				c0,1.344,0.864,2.172,2.016,2.172c0.6,0,0.996-0.144,1.296-0.276L185.058,60.29z"/>
			<path d="M187.721,53.293v1.392h1.512v0.804h-1.512v3.132c0,0.72,0.204,1.128,0.792,1.128c0.288,0,0.456-0.024,0.612-0.072
				l0.048,0.804c-0.204,0.072-0.528,0.144-0.936,0.144c-0.492,0-0.888-0.168-1.14-0.444c-0.288-0.324-0.408-0.84-0.408-1.524V55.49
				h-0.9v-0.804h0.9v-1.068L187.721,53.293z"/>
			<path d="M194.513,59.102c0,0.504,0.024,0.996,0.084,1.392h-0.948l-0.096-0.732h-0.036c-0.312,0.456-0.948,0.864-1.776,0.864
				c-1.176,0-1.776-0.828-1.776-1.668c0-1.404,1.248-2.172,3.492-2.16v-0.12c0-0.48-0.132-1.356-1.32-1.344
				c-0.552,0-1.116,0.156-1.524,0.432l-0.24-0.708c0.48-0.3,1.188-0.504,1.92-0.504c1.788,0,2.22,1.212,2.22,2.376V59.102z
				 M193.481,57.53c-1.152-0.024-2.46,0.18-2.46,1.308c0,0.696,0.456,1.008,0.984,1.008c0.768,0,1.26-0.48,1.428-0.972
				c0.036-0.108,0.048-0.228,0.048-0.336V57.53z"/>
			<path d="M196.458,54.686l1.14,3.252c0.192,0.54,0.348,1.02,0.468,1.5h0.036c0.132-0.48,0.3-0.96,0.492-1.5l1.128-3.252h1.104
				l-2.28,5.808h-1.008l-2.208-5.808H196.458z"/>
			<path d="M202.289,57.77c0.024,1.428,0.924,2.016,1.98,2.016c0.756,0,1.224-0.132,1.608-0.288l0.192,0.744
				c-0.372,0.168-1.02,0.372-1.944,0.372c-1.776,0-2.856-1.188-2.856-2.928c0-1.764,1.044-3.144,2.736-3.144
				c1.896,0,2.388,1.668,2.388,2.736c0,0.216-0.012,0.384-0.036,0.504L202.289,57.77z M205.374,57.014
				c0.012-0.66-0.276-1.716-1.452-1.716c-1.08,0-1.536,0.984-1.62,1.716H205.374z"/>
			<path d="M262.421,52.514c0.504-0.096,1.164-0.168,2.004-0.168c1.032,0,1.788,0.24,2.268,0.672c0.444,0.384,0.72,0.972,0.72,1.692
				c0,0.732-0.216,1.308-0.636,1.728c-0.552,0.588-1.452,0.888-2.472,0.888c-0.312,0-0.6-0.012-0.84-0.072v3.24h-1.044V52.514z
				 M263.465,56.401c0.228,0.06,0.528,0.084,0.864,0.084c1.272,0,2.028-0.624,2.028-1.716c0-1.08-0.756-1.596-1.908-1.596
				c-0.456,0-0.804,0.048-0.984,0.084V56.401z"/>
			<path d="M269.069,57.77c0.024,1.428,0.924,2.016,1.98,2.016c0.756,0,1.224-0.132,1.608-0.288l0.192,0.744
				c-0.372,0.168-1.02,0.372-1.944,0.372c-1.776,0-2.856-1.188-2.856-2.928c0-1.764,1.044-3.144,2.736-3.144
				c1.896,0,2.388,1.668,2.388,2.736c0,0.216-0.012,0.384-0.036,0.504L269.069,57.77z M272.153,57.014
				c0.012-0.66-0.276-1.716-1.452-1.716c-1.08,0-1.536,0.984-1.62,1.716H272.153z"/>
			<path d="M274.493,56.498c0-0.684-0.012-1.272-0.048-1.812h0.924l0.048,1.14h0.036c0.264-0.78,0.912-1.272,1.62-1.272
				c0.108,0,0.192,0.012,0.288,0.036v0.984c-0.12-0.012-0.228-0.024-0.372-0.024c-0.744,0-1.272,0.564-1.416,1.344
				c-0.024,0.156-0.036,0.324-0.036,0.504v3.096h-1.056L274.493,56.498z"/>
			<path d="M278.861,60.494V55.49h-0.804v-0.804h0.804V54.41c0-0.816,0.192-1.56,0.684-2.028c0.396-0.384,0.924-0.54,1.404-0.54
				c0.384,0,0.696,0.084,0.9,0.168l-0.132,0.816c-0.168-0.072-0.372-0.132-0.684-0.132c-0.888,0-1.128,0.792-1.128,1.68v0.312h1.404
				v0.804h-1.392v5.004H278.861z"/>
			<path d="M282.725,57.77c0.024,1.428,0.924,2.016,1.98,2.016c0.756,0,1.224-0.132,1.608-0.288l0.192,0.744
				c-0.372,0.168-1.02,0.372-1.944,0.372c-1.776,0-2.856-1.188-2.856-2.928c0-1.764,1.044-3.144,2.736-3.144
				c1.896,0,2.388,1.668,2.388,2.736c0,0.216-0.012,0.384-0.036,0.504L282.725,57.77z M285.809,57.014
				c0.012-0.66-0.276-1.716-1.452-1.716c-1.08,0-1.536,0.984-1.62,1.716H285.809z"/>
			<path d="M292.277,60.29c-0.276,0.132-0.889,0.336-1.668,0.336c-1.752,0-2.893-1.188-2.893-2.976c0-1.788,1.224-3.096,3.12-3.096
				c0.624,0,1.176,0.156,1.464,0.312l-0.24,0.804c-0.252-0.132-0.647-0.276-1.224-0.276c-1.332,0-2.052,0.996-2.052,2.208
				c0,1.344,0.864,2.172,2.016,2.172c0.601,0,0.996-0.144,1.296-0.276L292.277,60.29z"/>
			<path d="M294.94,53.293v1.392h1.513v0.804h-1.513v3.132c0,0.72,0.204,1.128,0.792,1.128c0.288,0,0.456-0.024,0.612-0.072
				l0.048,0.804c-0.204,0.072-0.527,0.144-0.936,0.144c-0.492,0-0.889-0.168-1.141-0.444c-0.288-0.324-0.407-0.84-0.407-1.524V55.49
				h-0.9v-0.804h0.9v-1.068L294.94,53.293z"/>
			<path d="M300.208,52.406h4.355v0.876h-3.3v2.688h3.048v0.864h-3.048v3.66h-1.056V52.406z"/>
			<path d="M308.032,60.625c-1.56,0-2.783-1.152-2.783-2.988c0-1.944,1.283-3.084,2.88-3.084c1.668,0,2.796,1.212,2.796,2.976
				c0,2.16-1.5,3.096-2.88,3.096H308.032z M308.068,59.833c1.008,0,1.765-0.948,1.765-2.268c0-0.984-0.492-2.22-1.74-2.22
				c-1.236,0-1.776,1.152-1.776,2.256c0,1.272,0.72,2.232,1.74,2.232H308.068z"/>
			<path d="M317.116,58.91c0,0.6,0.013,1.128,0.049,1.584h-0.937l-0.06-0.948h-0.024c-0.264,0.468-0.888,1.08-1.92,1.08
				c-0.912,0-2.004-0.516-2.004-2.544v-3.396h1.056v3.204c0,1.104,0.349,1.86,1.296,1.86c0.708,0,1.2-0.492,1.393-0.972
				c0.06-0.144,0.096-0.336,0.096-0.54v-3.552h1.056V58.91z"/>
			<path d="M318.88,56.498c0-0.684-0.013-1.272-0.049-1.812h0.925l0.048,1.14h0.036c0.264-0.78,0.912-1.272,1.62-1.272
				c0.107,0,0.191,0.012,0.287,0.036v0.984c-0.119-0.012-0.228-0.024-0.371-0.024c-0.744,0-1.272,0.564-1.416,1.344
				c-0.024,0.156-0.036,0.324-0.036,0.504v3.096h-1.057L318.88,56.498z"/>
			<path d="M324.352,53.293v1.392h1.512v0.804h-1.512v3.132c0,0.72,0.204,1.128,0.792,1.128c0.288,0,0.456-0.024,0.611-0.072
				l0.049,0.804c-0.204,0.072-0.528,0.144-0.937,0.144c-0.492,0-0.888-0.168-1.14-0.444c-0.288-0.324-0.408-0.84-0.408-1.524V55.49
				h-0.9v-0.804h0.9v-1.068L324.352,53.293z"/>
			<path d="M327.051,51.974h1.057v3.624h0.023c0.168-0.3,0.433-0.576,0.757-0.744c0.312-0.192,0.684-0.3,1.079-0.3
				c0.78,0,2.028,0.48,2.028,2.484v3.456h-1.056v-3.336c0-0.948-0.349-1.728-1.344-1.728c-0.685,0-1.213,0.48-1.416,1.056
				c-0.061,0.144-0.072,0.3-0.072,0.504v3.504h-1.057V51.974z"/>
			<path d="M383.526,52.514c0.504-0.096,1.164-0.168,2.004-0.168c1.032,0,1.788,0.24,2.268,0.672
				c0.444,0.384,0.721,0.972,0.721,1.692c0,0.732-0.216,1.308-0.637,1.728c-0.552,0.588-1.451,0.888-2.472,0.888
				c-0.312,0-0.6-0.012-0.84-0.072v3.24h-1.044V52.514z M384.57,56.401c0.228,0.06,0.528,0.084,0.864,0.084
				c1.271,0,2.027-0.624,2.027-1.716c0-1.08-0.756-1.596-1.907-1.596c-0.456,0-0.805,0.048-0.984,0.084V56.401z"/>
			<path d="M390.173,57.77c0.024,1.428,0.925,2.016,1.98,2.016c0.756,0,1.224-0.132,1.608-0.288l0.191,0.744
				c-0.372,0.168-1.02,0.372-1.943,0.372c-1.776,0-2.856-1.188-2.856-2.928c0-1.764,1.044-3.144,2.736-3.144
				c1.896,0,2.388,1.668,2.388,2.736c0,0.216-0.012,0.384-0.036,0.504L390.173,57.77z M393.258,57.014
				c0.012-0.66-0.276-1.716-1.452-1.716c-1.08,0-1.536,0.984-1.62,1.716H393.258z"/>
			<path d="M395.598,56.498c0-0.684-0.013-1.272-0.049-1.812h0.925l0.048,1.14h0.036c0.264-0.78,0.912-1.272,1.619-1.272
				c0.108,0,0.192,0.012,0.288,0.036v0.984c-0.119-0.012-0.228-0.024-0.372-0.024c-0.743,0-1.271,0.564-1.416,1.344
				c-0.023,0.156-0.035,0.324-0.035,0.504v3.096h-1.057L395.598,56.498z"/>
			<path d="M399.965,60.494V55.49h-0.804v-0.804h0.804V54.41c0-0.816,0.192-1.56,0.685-2.028c0.396-0.384,0.924-0.54,1.403-0.54
				c0.385,0,0.696,0.084,0.9,0.168l-0.132,0.816c-0.168-0.072-0.372-0.132-0.685-0.132c-0.888,0-1.128,0.792-1.128,1.68v0.312h1.404
				v0.804h-1.392v5.004H399.965z"/>
			<path d="M403.83,57.77c0.024,1.428,0.924,2.016,1.98,2.016c0.756,0,1.224-0.132,1.607-0.288l0.192,0.744
				c-0.372,0.168-1.021,0.372-1.944,0.372c-1.775,0-2.855-1.188-2.855-2.928c0-1.764,1.044-3.144,2.735-3.144
				c1.896,0,2.389,1.668,2.389,2.736c0,0.216-0.013,0.384-0.036,0.504L403.83,57.77z M406.914,57.014
				c0.012-0.66-0.276-1.716-1.452-1.716c-1.08,0-1.536,0.984-1.62,1.716H406.914z"/>
			<path d="M413.381,60.29c-0.275,0.132-0.888,0.336-1.668,0.336c-1.752,0-2.892-1.188-2.892-2.976c0-1.788,1.224-3.096,3.12-3.096
				c0.624,0,1.176,0.156,1.464,0.312l-0.24,0.804c-0.252-0.132-0.648-0.276-1.224-0.276c-1.332,0-2.053,0.996-2.053,2.208
				c0,1.344,0.864,2.172,2.017,2.172c0.6,0,0.996-0.144,1.296-0.276L413.381,60.29z"/>
			<path d="M416.045,53.293v1.392h1.512v0.804h-1.512v3.132c0,0.72,0.204,1.128,0.792,1.128c0.288,0,0.456-0.024,0.612-0.072
				l0.048,0.804c-0.204,0.072-0.528,0.144-0.937,0.144c-0.491,0-0.888-0.168-1.14-0.444c-0.288-0.324-0.408-0.84-0.408-1.524V55.49
				h-0.899v-0.804h0.899v-1.068L416.045,53.293z"/>
			<path d="M421.313,52.406h4.356v0.876h-3.301v2.688h3.049v0.864h-3.049v3.66h-1.056V52.406z"/>
			<path d="M427.326,53.618c-0.396,0-0.66-0.312-0.66-0.684s0.275-0.672,0.684-0.672s0.672,0.3,0.672,0.672
				s-0.264,0.684-0.684,0.684H427.326z M426.822,60.494v-5.808h1.056v5.808H426.822z"/>
			<path d="M429.725,60.494V55.49h-0.804v-0.804h0.804V54.41c0-0.816,0.192-1.56,0.685-2.028c0.396-0.384,0.924-0.54,1.403-0.54
				c0.384,0,0.696,0.084,0.9,0.168l-0.132,0.816c-0.168-0.072-0.372-0.132-0.685-0.132c-0.888,0-1.128,0.792-1.128,1.68v0.312h1.404
				v0.804h-1.393v5.004H429.725z"/>
			<path d="M434.537,53.293v1.392h1.513v0.804h-1.513v3.132c0,0.72,0.204,1.128,0.792,1.128c0.288,0,0.456-0.024,0.612-0.072
				l0.048,0.804c-0.204,0.072-0.527,0.144-0.936,0.144c-0.492,0-0.889-0.168-1.141-0.444c-0.288-0.324-0.407-0.84-0.407-1.524V55.49
				h-0.9v-0.804h0.9v-1.068L434.537,53.293z"/>
			<path d="M437.237,51.974h1.056v3.624h0.024c0.168-0.3,0.432-0.576,0.756-0.744c0.313-0.192,0.685-0.3,1.08-0.3
				c0.78,0,2.028,0.48,2.028,2.484v3.456h-1.057v-3.336c0-0.948-0.348-1.728-1.344-1.728c-0.684,0-1.212,0.48-1.416,1.056
				c-0.06,0.144-0.072,0.3-0.072,0.504v3.504h-1.056V51.974z"/>
		</g>
		<path fill="none" stroke="#0A0A0A" d="M133.79,4.292v29.746"/>
		<g>
			<path d="M203.594,13.176c2.664,0.024,5.184,1.032,5.376,3.264c0.144,1.632-2.016,3.12-4.68,3.12
				c-2.688-0.024-5.184-1.008-5.4-3.24C198.746,14.664,200.93,13.176,203.594,13.176z M204.242,19.008
				c1.152,0,1.896-1.104,1.776-1.992c-0.264-1.752-0.864-3.168-2.448-3.168c-1.152,0-1.824,1.128-1.68,2.016
				C202.154,17.616,202.658,19.008,204.242,19.008z"/>
		</g>
		<path fill="none" stroke="#0A0A0A" d="M240.066,4.292v29.746"/>
		<g>
			<path d="M316.594,27.176c2.664,0.024,5.184,1.032,5.376,3.264c0.144,1.632-2.016,3.12-4.68,3.12
				c-2.688-0.024-5.185-1.008-5.4-3.24C311.747,28.664,313.93,27.176,316.594,27.176z M317.242,33.008
				c1.152,0,1.896-1.104,1.776-1.992c-0.264-1.752-0.864-3.168-2.448-3.168c-1.151,0-1.823,1.128-1.68,2.016
				C315.154,31.616,315.658,33.008,317.242,33.008z"/>
		</g>
		<path fill="none" stroke="#0A0A0A" d="M358.412,5.017v29.746"/>
		<g>
			<path d="M439.147,22.831c2.664,0.024,5.184,1.032,5.376,3.264c0.144,1.632-2.016,3.12-4.68,3.12
				c-2.688-0.024-5.185-1.008-5.4-3.24C434.299,24.318,436.483,22.831,439.147,22.831z M439.794,28.663
				c1.152,0,1.896-1.104,1.776-1.992c-0.264-1.752-0.864-3.168-2.448-3.168c-1.151,0-1.823,1.128-1.68,2.016
				C437.707,27.271,438.21,28.663,439.794,28.663z"/>
		</g>
		<path fill="none" stroke="#0A0A0A" stroke-width="2" d="M475.783,4.879v29.746"/>
		<g>
			<path d="M29.978,29.618v1.584c0,0.96,1.128,0.936,1.128,0.936v0.624h-5.208v-0.624c0,0,1.176,0.048,1.152-0.888v-1.632h-4.44
				l-0.432-0.456c2.904-3.912,2.928-4.632,3.624-8.184h4.152c-0.984,1.824-4.296,5.256-6.624,7.968h3.72v-2.952l2.928-3.216v6.168
				h1.728v0.672H29.978z"/>
		</g>
		<g>
			<path d="M27.45,17.978c-1.896,0-4.44-0.864-4.44-3.096c0-1.536,1.128-2.544,1.776-2.808c-1.2-0.672-1.536-1.776-1.536-2.76
				c0-2.28,2.016-3.192,4.2-3.216c3.192,0,4.08,1.392,4.128,2.976c0.024,0.888-0.432,1.728-1.152,2.328
				c0.864,0.432,1.584,1.296,1.584,2.568C32.01,16.417,29.514,17.978,27.45,17.978z M25.506,12.529
				c-0.792,0.48-1.272,0.912-1.248,1.92c0.024,1.608,0.72,2.76,2.928,2.76c0.72,0,2.376-0.792,2.376-1.944
				C29.562,13.37,26.49,12.698,25.506,12.529z M27.474,6.697c-1.176,0-2.448,0.672-2.256,1.68c0.192,1.008,3.384,2.16,4.392,2.496
				c0.408-0.432,0.84-1.152,0.792-1.8C30.306,7.85,29.658,6.697,27.474,6.697z"/>
		</g>
		<path fill="none" stroke="#0A0A0A" d="M471.783,4.879v29.746"/>
		<g>
			<g>
				<path d="M58.985,37.714c2.664,0.024,5.184,1.032,5.376,3.264c0.144,1.632-2.016,3.12-4.68,3.12
					c-2.688-0.024-5.184-1.008-5.4-3.24C54.137,39.202,56.321,37.714,58.985,37.714z M59.633,43.546
					c1.152,0,1.896-1.104,1.776-1.992c-0.264-1.752-0.864-3.168-2.448-3.168c-1.152,0-1.824,1.128-1.68,2.016
					C57.545,42.154,58.049,43.546,59.633,43.546z"/>
			</g>
			<path fill="none" stroke="#000000" d="M52.273,41.426H66.94"/>
		</g>
		<g>
			<g>
				<path d="M164.985,37.714c2.664,0.024,5.184,1.032,5.376,3.264c0.144,1.632-2.016,3.12-4.68,3.12
					c-2.688-0.024-5.184-1.008-5.4-3.24C160.137,39.202,162.321,37.714,164.985,37.714z M165.633,43.546
					c1.152,0,1.896-1.104,1.776-1.992c-0.264-1.752-0.864-3.168-2.448-3.168c-1.152,0-1.824,1.128-1.68,2.016
					C163.545,42.154,164.049,43.546,165.633,43.546z"/>
			</g>
			<path fill="none" stroke="#000000" d="M158.273,41.426h14.667"/>
		</g>
		<g>
			<g>
				<path d="M273.985,37.714c2.664,0.024,5.184,1.032,5.376,3.264c0.144,1.632-2.016,3.12-4.68,3.12
					c-2.688-0.024-5.184-1.008-5.4-3.24C269.137,39.202,271.321,37.714,273.985,37.714z M274.633,43.546
					c1.152,0,1.896-1.104,1.776-1.992c-0.264-1.752-0.864-3.168-2.448-3.168c-1.152,0-1.824,1.128-1.68,2.016
					C272.545,42.154,273.049,43.546,274.633,43.546z"/>
			</g>
			<path fill="none" stroke="#000000" d="M267.273,41.426h14.667"/>
		</g>
		<g>
			<g>
				<path d="M385.985,37.714c2.664,0.024,5.184,1.032,5.376,3.264c0.144,1.632-2.016,3.12-4.68,3.12
					c-2.688-0.024-5.185-1.008-5.4-3.24C381.137,39.202,383.321,37.714,385.985,37.714z M386.632,43.546
					c1.152,0,1.896-1.104,1.776-1.992c-0.264-1.752-0.864-3.168-2.448-3.168c-1.151,0-1.823,1.128-1.68,2.016
					C384.544,42.154,385.048,43.546,386.632,43.546z"/>
			</g>
			<path fill="none" stroke="#000000" d="M379.273,41.426h14.667"/>
		</g>
		<g>
			<g>
				<path d="M101.985,37.714c2.664,0.024,5.184,1.032,5.376,3.264c0.144,1.632-2.016,3.12-4.68,3.12
					c-2.688-0.024-5.184-1.008-5.4-3.24C97.137,39.202,99.321,37.714,101.985,37.714z M102.633,43.546
					c1.152,0,1.896-1.104,1.776-1.992c-0.264-1.752-0.864-3.168-2.448-3.168c-1.152,0-1.824,1.128-1.68,2.016
					C100.545,42.154,101.049,43.546,102.633,43.546z"/>
			</g>
			<path fill="none" stroke="#000000" d="M95.273,41.426h14.667"/>
		</g>
	</g>
</svg>
