<?xml version="1.0" encoding="utf-8"?>
<!-- Generator: Adobe Illustrator 10.0, SVG Export Plug-In . SVG Version: 3.0.0 Build 76)  -->
<!DOCTYPE svg PUBLIC "-//W3C//DTD SVG 1.0//EN"    "http://www.w3.org/TR/2001/REC-SVG-20010904/DTD/svg10.dtd" [
	<!ENTITY ns_flows "http://ns.adobe.com/Flows/1.0/">
	<!ENTITY ns_extend "http://ns.adobe.com/Extensibility/1.0/">
	<!ENTITY ns_ai "http://ns.adobe.com/AdobeIllustrator/10.0/">
	<!ENTITY ns_svg "http://www.w3.org/2000/svg">
	<!ENTITY ns_xlink "http://www.w3.org/1999/xlink">
]>
<svg  xmlns:x="&ns_extend;" xmlns:i="&ns_ai;" xmlns:graph="&ns_graphs;"
	 xmlns="&ns_svg;" xmlns:xlink="&ns_xlink;" xmlns:a="http://ns.adobe.com/AdobeSVGViewerExtensions/3.0/" width="479" height="240"
	 viewBox="0 0.281 479 240" overflow="visible" enable-background="new 0 0.281 479 240" xml:space="preserve">
	<g id="Layer_1_2_">
		<g>
			<path fill="none" stroke="#000000" d="M0.128,4.556h474.758"/>
			<path fill="none" stroke="#000000" d="M0.128,19.668h474.758"/>
			<path fill="none" stroke="#000000" d="M0.364,26.791h474.76"/>
			<path fill="none" stroke="#000000" d="M0,34.174h474.759"/>
			<path fill="none" stroke="#000000" d="M0,11.81h474.759"/>
		</g>
		<g>
			<path d="M7.876,33.768c-4.944-2.352-5.736-5.376-5.952-8.472c-0.24-3.36,1.896-6.768,3.888-8.664
				c1.152-1.08,2.4-2.136,3.888-3.264c-0.048-0.84-0.24-1.176-0.336-2.376C9.34,10.488,9.028,8.136,9.532,5.424
				c0.312-1.608,2.328-5.4,3.72-5.424c1.08-0.024,2.736,4.296,2.784,6.456c0.072,3.336-0.72,4.848-1.704,6.576
				c-0.504,0.864-1.032,1.464-1.584,2.136c-0.576,0.696-1.224,1.104-1.824,1.632c0,0,0.768,4.344,0.792,4.656
				c1.536-0.192,3.408,0.36,4.08,0.84c1.704,1.272,2.352,3.024,2.472,4.728c0.216,2.712-1.272,5.568-4.56,6.936
				c0,0,0.504,3.456,0.624,4.176c0.264,1.896,0.216,3.096-0.192,3.864c-0.696,1.296-1.824,2.496-4.008,2.64
				c-1.68,0.096-4.992-0.744-5.16-3.384c-0.096-1.56,0.6-3.24,2.496-3.36c1.152-0.096,2.52,0.864,2.616,2.232
				c0.096,1.176-0.672,2.4-2.664,2.952c0.312,0.432,1.248,0.936,2.592,0.936c1.392,0,2.832-0.936,3.528-2.184
				c0.432-0.816,0.384-2.28,0.216-3.624c-0.072-0.456-0.648-4.08-0.648-4.08C11.332,34.416,8.884,34.248,7.876,33.768z M8.356,28.08
				c0.048,1.152,1.008,2.496,1.896,2.952c-0.12,0.072-0.24,0.264-0.24,0.264c-0.984-0.48-1.824-1.272-2.04-1.56
				c-0.696-0.936-0.984-1.464-1.08-2.88c-0.096-1.32,0.624-3.096,2.232-4.344c0.84-0.624,1.248-0.768,1.968-0.936l-0.72-4.344
				c-0.744,0.432-3.816,2.904-5.112,4.92c-1.152,1.8-1.848,3.24-1.704,5.016c0.288,4.008,4.68,7.296,9.432,6.168
				c0,0-1.416-8.52-1.392-8.52C8.98,24.912,8.284,26.928,8.356,28.08z M10.3,12.864c2.088-1.632,4.92-4.704,4.752-7.08
				c-0.048-0.744-0.36-2.088-1.44-2.064C11.14,3.744,9.748,8.904,10.3,12.864z M13.564,33.144c2.76-0.936,2.88-3.312,2.784-4.728
				c-0.096-1.176-0.624-3.816-4.128-3.648L13.564,33.144z"/>
		</g>
		<g>
			<path d="M56.594,20.176c2.664,0.024,5.184,1.032,5.376,3.264c0.144,1.632-2.016,3.12-4.68,3.12
				c-2.688-0.024-5.184-1.008-5.4-3.24C51.746,21.664,53.93,20.176,56.594,20.176z M57.242,26.008c1.152,0,1.896-1.104,1.776-1.992
				c-0.264-1.752-0.864-3.168-2.448-3.168c-1.152,0-1.824,1.128-1.68,2.016C55.154,24.616,55.658,26.008,57.242,26.008z"/>
		</g>
		<g>
			<path d="M96.594,16.677c2.664,0.024,5.184,1.032,5.376,3.264c0.144,1.632-2.016,3.12-4.68,3.12
				c-2.688-0.024-5.184-1.008-5.4-3.24C91.746,18.165,93.93,16.677,96.594,16.677z M97.242,22.509c1.152,0,1.896-1.104,1.776-1.992
				c-0.264-1.752-0.864-3.168-2.448-3.168c-1.152,0-1.824,1.128-1.68,2.016C95.154,21.117,95.658,22.509,97.242,22.509z"/>
		</g>
		<path fill="none" stroke="#0A0A0A" d="M133.79,4.292v29.746"/>
		<g>
			<path d="M204.093,20.177c2.664,0.024,5.184,1.032,5.376,3.264c0.144,1.632-2.016,3.12-4.68,3.12
				c-2.688-0.024-5.184-1.008-5.4-3.24C199.245,21.665,201.429,20.177,204.093,20.177z M204.741,26.009
				c1.152,0,1.896-1.104,1.776-1.992c-0.264-1.752-0.864-3.168-2.448-3.168c-1.152,0-1.824,1.128-1.68,2.016
				C202.653,24.617,203.157,26.009,204.741,26.009z"/>
		</g>
		<path fill="none" stroke="#0A0A0A" d="M240.065,4.292v29.746"/>
		<g>
			<path d="M318.594,5.176c2.664,0.024,5.184,1.032,5.376,3.264c0.144,1.632-2.016,3.12-4.68,3.12
				c-2.688-0.024-5.185-1.008-5.4-3.24C313.746,6.664,315.93,5.176,318.594,5.176z M319.241,11.008c1.152,0,1.896-1.104,1.776-1.992
				c-0.264-1.752-0.864-3.168-2.448-3.168c-1.151,0-1.823,1.128-1.68,2.016C317.153,9.616,317.657,11.008,319.241,11.008z"/>
		</g>
		<path fill="none" stroke="#0A0A0A" d="M358.411,5.017v29.746"/>
		<path fill="none" stroke="#0A0A0A" stroke-width="2" d="M475.782,4.879v29.746"/>
		<g>
			<path d="M29.978,29.618v1.584c0,0.96,1.128,0.936,1.128,0.936v0.624h-5.208v-0.624c0,0,1.176,0.048,1.152-0.888v-1.632h-4.44
				l-0.432-0.456c2.904-3.912,2.928-4.632,3.624-8.184h4.152c-0.984,1.824-4.296,5.256-6.624,7.968h3.72v-2.952l2.928-3.216v6.168
				h1.728v0.672H29.978z"/>
		</g>
		<g>
			<path d="M27.45,17.978c-1.896,0-4.44-0.864-4.44-3.096c0-1.536,1.128-2.544,1.776-2.808c-1.2-0.672-1.536-1.776-1.536-2.76
				c0-2.28,2.016-3.192,4.2-3.216c3.192,0,4.08,1.392,4.128,2.976c0.024,0.888-0.432,1.728-1.152,2.328
				c0.864,0.432,1.584,1.296,1.584,2.568C32.01,16.417,29.514,17.978,27.45,17.978z M25.506,12.529
				c-0.792,0.48-1.272,0.912-1.248,1.92c0.024,1.608,0.72,2.76,2.928,2.76c0.72,0,2.376-0.792,2.376-1.944
				C29.562,13.37,26.49,12.698,25.506,12.529z M27.474,6.697c-1.176,0-2.448,0.672-2.256,1.68c0.192,1.008,3.384,2.16,4.392,2.496
				c0.408-0.432,0.84-1.152,0.792-1.8C30.306,7.85,29.658,6.697,27.474,6.697z"/>
		</g>
		<path fill="none" stroke="#0A0A0A" d="M471.782,4.879v29.746"/>
		<g>
			<path d="M159.594,12.677c2.664,0.024,5.184,1.032,5.376,3.264c0.144,1.632-2.016,3.12-4.68,3.12
				c-2.688-0.024-5.184-1.008-5.4-3.24C154.746,14.165,156.93,12.677,159.594,12.677z M160.242,18.509
				c1.152,0,1.896-1.104,1.776-1.992c-0.264-1.752-0.864-3.168-2.448-3.168c-1.152,0-1.824,1.128-1.68,2.016
				C158.154,17.117,158.658,18.509,160.242,18.509z"/>
		</g>
		<g>
			<path d="M268.594,20.177c2.664,0.024,5.184,1.032,5.376,3.264c0.144,1.632-2.016,3.12-4.68,3.12
				c-2.688-0.024-5.185-1.008-5.4-3.24C263.746,21.665,265.93,20.177,268.594,20.177z M269.241,26.009
				c1.152,0,1.896-1.104,1.776-1.992c-0.264-1.752-0.864-3.168-2.448-3.168c-1.151,0-1.823,1.128-1.68,2.016
				C267.153,24.617,267.657,26.009,269.241,26.009z"/>
		</g>
		<g>
			<path d="M383.096,27.176c2.664,0.024,5.184,1.032,5.376,3.264c0.144,1.632-2.016,3.12-4.68,3.12
				c-2.688-0.024-5.185-1.008-5.4-3.24C378.248,28.664,380.432,27.176,383.096,27.176z M383.743,33.008
				c1.152,0,1.896-1.104,1.776-1.992c-0.264-1.752-0.864-3.168-2.448-3.168c-1.151,0-1.823,1.128-1.68,2.016
				C381.655,31.616,382.159,33.008,383.743,33.008z"/>
		</g>
		<g>
			<path fill="none" stroke="#000000" d="M1.128,100.556h474.758"/>
			<path fill="none" stroke="#000000" d="M1.128,115.669h474.758"/>
			<path fill="none" stroke="#000000" d="M1.364,122.792h474.76"/>
			<path fill="none" stroke="#000000" d="M1,130.175h474.759"/>
			<path fill="none" stroke="#000000" d="M1,107.81h474.759"/>
		</g>
		<g>
			<path d="M8.876,129.769c-4.944-2.352-5.736-5.376-5.952-8.472c-0.24-3.36,1.896-6.768,3.888-8.664
				c1.152-1.08,2.4-2.136,3.888-3.264c-0.048-0.84-0.24-1.176-0.336-2.376c-0.024-0.504-0.336-2.856,0.168-5.568
				c0.312-1.608,2.328-5.4,3.72-5.424c1.08-0.024,2.736,4.296,2.784,6.456c0.072,3.336-0.72,4.848-1.704,6.576
				c-0.504,0.864-1.032,1.464-1.584,2.136c-0.576,0.696-1.224,1.104-1.824,1.632c0,0,0.768,4.344,0.792,4.656
				c1.536-0.192,3.408,0.36,4.08,0.84c1.704,1.272,2.352,3.024,2.472,4.728c0.216,2.712-1.272,5.568-4.56,6.936
				c0,0,0.504,3.456,0.624,4.176c0.264,1.896,0.216,3.096-0.192,3.864c-0.696,1.296-1.824,2.496-4.008,2.64
				c-1.68,0.096-4.992-0.744-5.16-3.384c-0.096-1.56,0.6-3.24,2.496-3.36c1.152-0.096,2.52,0.864,2.616,2.232
				c0.096,1.176-0.672,2.4-2.664,2.952c0.312,0.432,1.248,0.936,2.592,0.936c1.392,0,2.832-0.936,3.528-2.184
				c0.432-0.816,0.384-2.28,0.216-3.624c-0.072-0.456-0.648-4.08-0.648-4.08C12.332,130.417,9.884,130.249,8.876,129.769z
				 M9.356,124.081c0.048,1.152,1.008,2.496,1.896,2.952c-0.12,0.072-0.24,0.264-0.24,0.264c-0.984-0.48-1.824-1.272-2.04-1.56
				c-0.696-0.936-0.984-1.464-1.08-2.88c-0.096-1.32,0.624-3.096,2.232-4.344c0.84-0.624,1.248-0.768,1.968-0.936l-0.72-4.344
				c-0.744,0.432-3.816,2.904-5.112,4.92c-1.152,1.8-1.848,3.24-1.704,5.016c0.288,4.008,4.68,7.296,9.432,6.168
				c0,0-1.416-8.52-1.392-8.52C9.98,120.913,9.284,122.929,9.356,124.081z M11.3,108.865c2.088-1.632,4.92-4.704,4.752-7.08
				c-0.048-0.744-0.36-2.088-1.44-2.064C12.14,99.745,10.748,104.905,11.3,108.865z M14.564,129.145
				c2.76-0.936,2.88-3.312,2.784-4.728c-0.096-1.176-0.624-3.816-4.128-3.648L14.564,129.145z"/>
		</g>
		<g>
			<path d="M56.594,130.176c2.664,0.024,5.184,1.032,5.376,3.264c0.144,1.632-2.016,3.12-4.68,3.12
				c-2.688-0.024-5.184-1.008-5.4-3.24C51.746,131.664,53.93,130.176,56.594,130.176z M57.242,136.008
				c1.152,0,1.896-1.104,1.776-1.992c-0.264-1.752-0.864-3.168-2.448-3.168c-1.152,0-1.824,1.128-1.68,2.016
				C55.154,134.616,55.658,136.008,57.242,136.008z"/>
		</g>
		<g>
			<path d="M96.594,105.176c2.664,0.024,5.184,1.032,5.376,3.264c0.144,1.632-2.016,3.12-4.68,3.12
				c-2.688-0.024-5.184-1.008-5.4-3.24C91.746,106.664,93.93,105.176,96.594,105.176z M97.242,111.008
				c1.152,0,1.896-1.104,1.776-1.992c-0.264-1.752-0.864-3.168-2.448-3.168c-1.152,0-1.824,1.128-1.68,2.016
				C95.154,109.616,95.658,111.008,97.242,111.008z"/>
		</g>
		<path fill="none" stroke="#0A0A0A" d="M134.79,100.292v29.746"/>
		<g>
			<path d="M200.594,123.176c2.664,0.024,5.184,1.032,5.376,3.264c0.144,1.632-2.016,3.12-4.68,3.12
				c-2.688-0.024-5.184-1.008-5.4-3.24C195.746,124.664,197.93,123.176,200.594,123.176z M201.242,129.008
				c1.152,0,1.896-1.104,1.776-1.992c-0.264-1.752-0.864-3.168-2.448-3.168c-1.152,0-1.824,1.128-1.68,2.016
				C199.154,127.616,199.658,129.008,201.242,129.008z"/>
		</g>
		<path fill="none" stroke="#0A0A0A" d="M241.065,100.292v29.746"/>
		<g>
			<path d="M319.594,101.176c2.664,0.024,5.184,1.032,5.376,3.264c0.144,1.632-2.016,3.12-4.68,3.12
				c-2.688-0.024-5.185-1.008-5.4-3.24C314.746,102.664,316.93,101.176,319.594,101.176z M320.241,107.008
				c1.152,0,1.896-1.104,1.776-1.992c-0.264-1.752-0.864-3.168-2.448-3.168c-1.151,0-1.823,1.128-1.68,2.016
				C318.153,105.616,318.657,107.008,320.241,107.008z"/>
		</g>
		<path fill="none" stroke="#0A0A0A" d="M359.411,101.017v29.746"/>
		<g>
			<path d="M430.146,96.83c2.664,0.024,5.184,1.032,5.376,3.264c0.144,1.632-2.016,3.12-4.68,3.12
				c-2.688-0.024-5.185-1.008-5.4-3.24C425.299,98.318,427.482,96.83,430.146,96.83z M430.794,102.662
				c1.152,0,1.896-1.104,1.776-1.992c-0.264-1.752-0.864-3.168-2.448-3.168c-1.151,0-1.823,1.128-1.68,2.016
				C428.706,101.27,429.21,102.662,430.794,102.662z"/>
		</g>
		<path fill="none" stroke="#0A0A0A" stroke-width="2" d="M476.782,100.88v29.746"/>
		<g>
			<path d="M30.978,125.618v1.584c0,0.96,1.128,0.936,1.128,0.936v0.624h-5.208v-0.624c0,0,1.176,0.048,1.152-0.888v-1.632h-4.44
				l-0.432-0.456c2.904-3.912,2.928-4.632,3.624-8.184h4.152c-0.984,1.824-4.296,5.256-6.624,7.968h3.72v-2.952l2.928-3.216v6.168
				h1.728v0.672H30.978z"/>
		</g>
		<g>
			<path d="M28.45,113.978c-1.896,0-4.44-0.864-4.44-3.096c0-1.536,1.128-2.544,1.776-2.808c-1.2-0.672-1.536-1.776-1.536-2.76
				c0-2.28,2.016-3.192,4.2-3.216c3.192,0,4.08,1.392,4.128,2.976c0.024,0.888-0.432,1.728-1.152,2.328
				c0.864,0.432,1.584,1.296,1.584,2.568C33.01,112.417,30.514,113.978,28.45,113.978z M26.506,108.529
				c-0.792,0.48-1.272,0.912-1.248,1.92c0.024,1.608,0.72,2.76,2.928,2.76c0.72,0,2.376-0.792,2.376-1.944
				C30.562,109.37,27.49,108.698,26.506,108.529z M28.474,102.697c-1.176,0-2.448,0.672-2.256,1.68
				c0.192,1.008,3.384,2.16,4.392,2.496c0.408-0.432,0.84-1.152,0.792-1.8C31.306,103.85,30.658,102.697,28.474,102.697z"/>
		</g>
		<path fill="none" stroke="#0A0A0A" d="M472.782,100.88v29.746"/>
		<g>
			<path d="M160.594,105.176c2.664,0.024,5.184,1.032,5.376,3.264c0.144,1.632-2.016,3.12-4.68,3.12
				c-2.688-0.024-5.184-1.008-5.4-3.24C155.746,106.664,157.93,105.176,160.594,105.176z M161.242,111.008
				c1.152,0,1.896-1.104,1.776-1.992c-0.264-1.752-0.864-3.168-2.448-3.168c-1.152,0-1.824,1.128-1.68,2.016
				C159.154,109.616,159.658,111.008,161.242,111.008z"/>
		</g>
		<g>
			<path d="M272.594,101.176c2.664,0.024,5.184,1.032,5.376,3.264c0.144,1.632-2.016,3.12-4.68,3.12
				c-2.688-0.024-5.185-1.008-5.4-3.24C267.746,102.664,269.93,101.176,272.594,101.176z M273.241,107.008
				c1.152,0,1.896-1.104,1.776-1.992c-0.264-1.752-0.864-3.168-2.448-3.168c-1.151,0-1.823,1.128-1.68,2.016
				C271.153,105.616,271.657,107.008,273.241,107.008z"/>
		</g>
		<g>
			<path d="M387.594,120.176c2.664,0.024,5.184,1.032,5.376,3.264c0.144,1.632-2.016,3.12-4.68,3.12
				c-2.688-0.024-5.185-1.008-5.4-3.24C382.746,121.664,384.93,120.176,387.594,120.176z M388.241,126.008
				c1.152,0,1.896-1.104,1.776-1.992c-0.264-1.752-0.864-3.168-2.448-3.168c-1.151,0-1.823,1.128-1.68,2.016
				C386.153,124.616,386.657,126.008,388.241,126.008z"/>
		</g>
		<g>
			<path d="M189.106,124.317v-3.912h0.696v3.672l2.352-0.768v-3.504h0.696v3.288l0.936-0.312v2.496l-0.936,0.312v3.552l0.936-0.288
				v2.472l-0.936,0.312v3.912h-0.696v-3.696l-2.352,0.768v3.552h-0.696v-3.312l-1.032,0.336v-2.496l1.032-0.336v-3.576l-1.032,0.336
				v-2.472L189.106,124.317z M189.802,126.574v3.576l2.352-0.768v-3.576L189.802,126.574z"/>
		</g>
		<g>
			<path d="M375.697,118.813c0,0.216,0,1.536,0,1.536c0.912-0.816,1.416-0.984,2.424-1.008c1.2-0.024,1.968,1.176,1.992,2.136
				c0.024,0.504-0.12,1.032-0.313,1.44c-0.216,0.528-0.792,0.936-1.176,1.32c-0.432,0.432-3.552,2.568-3.552,2.616v-14.184h0.624
				C375.697,112.669,375.722,115.646,375.697,118.813z M375.961,121.189c-0.312,0.6-0.264,1.632-0.264,2.376v2.064
				c0,0.024,0.864-0.72,1.344-1.176c0.433-0.408,0.769-0.864,0.937-1.584c0.191-0.72,0.12-1.488-0.336-1.992
				C377.329,120.518,376.465,120.229,375.961,121.189z"/>
		</g>
		<g>
			<g>
				<path d="M426.834,37.914c2.664,0.024,5.184,1.032,5.376,3.264c0.144,1.632-2.016,3.12-4.68,3.12
					c-2.688-0.024-5.185-1.008-5.4-3.24C421.986,39.402,424.17,37.914,426.834,37.914z M427.481,43.746
					c1.152,0,1.896-1.104,1.776-1.992c-0.264-1.752-0.864-3.168-2.448-3.168c-1.151,0-1.823,1.128-1.68,2.016
					C425.394,42.354,425.897,43.746,427.481,43.746z"/>
			</g>
			<path fill="none" stroke="#000000" d="M420.122,41.626h14.667"/>
		</g>
		<g>
			<path fill="none" stroke="#000000" d="M2.128,199.556h474.758"/>
			<path fill="none" stroke="#000000" d="M2.128,214.669h474.758"/>
			<path fill="none" stroke="#000000" d="M2.364,221.792h474.76"/>
			<path fill="none" stroke="#000000" d="M2,229.175h474.759"/>
			<path fill="none" stroke="#000000" d="M2,206.81h474.759"/>
		</g>
		<g>
			<path d="M61.594,222.176c2.664,0.024,5.184,1.032,5.376,3.264c0.144,1.632-2.016,3.12-4.68,3.12
				c-2.688-0.024-5.184-1.008-5.4-3.24C56.746,223.664,58.93,222.176,61.594,222.176z M62.242,228.008
				c1.152,0,1.896-1.104,1.776-1.992c-0.264-1.752-0.864-3.168-2.448-3.168c-1.152,0-1.824,1.128-1.68,2.016
				C60.154,226.616,60.658,228.008,62.242,228.008z"/>
		</g>
		<g>
			<path d="M97.594,204.176c2.664,0.024,5.184,1.032,5.376,3.264c0.144,1.632-2.016,3.12-4.68,3.12
				c-2.688-0.024-5.184-1.008-5.4-3.24C92.746,205.664,94.93,204.176,97.594,204.176z M98.242,210.008
				c1.152,0,1.896-1.104,1.776-1.992c-0.264-1.752-0.864-3.168-2.448-3.168c-1.152,0-1.824,1.128-1.68,2.016
				C96.154,208.616,96.658,210.008,98.242,210.008z"/>
		</g>
		<path fill="none" stroke="#0A0A0A" d="M135.79,199.292v29.746"/>
		<g>
			<path d="M201.594,229.176c2.664,0.024,5.184,1.032,5.376,3.264c0.144,1.632-2.016,3.12-4.68,3.12
				c-2.688-0.024-5.184-1.008-5.4-3.24C196.746,230.664,198.93,229.176,201.594,229.176z M202.242,235.008
				c1.152,0,1.896-1.104,1.776-1.992c-0.264-1.752-0.864-3.168-2.448-3.168c-1.152,0-1.824,1.128-1.68,2.016
				C200.154,233.616,200.658,235.008,202.242,235.008z"/>
		</g>
		<path fill="none" stroke="#0A0A0A" d="M242.065,199.292v29.746"/>
		<g>
			<path d="M319.594,208.176c2.664,0.024,5.184,1.032,5.376,3.264c0.144,1.632-2.016,3.12-4.68,3.12
				c-2.688-0.024-5.185-1.008-5.4-3.24C314.746,209.664,316.93,208.176,319.594,208.176z M320.241,214.008
				c1.152,0,1.896-1.104,1.776-1.992c-0.264-1.752-0.864-3.168-2.448-3.168c-1.151,0-1.823,1.128-1.68,2.016
				C318.153,212.616,318.657,214.008,320.241,214.008z"/>
		</g>
		<path fill="none" stroke="#0A0A0A" d="M360.411,200.017v29.746"/>
		<path fill="none" stroke="#0A0A0A" stroke-width="2" d="M477.782,199.88v29.746"/>
		<g>
			<path d="M34.978,224.618v1.584c0,0.96,1.128,0.936,1.128,0.936v0.624h-5.208v-0.624c0,0,1.176,0.048,1.152-0.888v-1.632h-4.44
				l-0.432-0.456c2.904-3.912,2.928-4.632,3.624-8.184h4.152c-0.984,1.824-4.296,5.256-6.624,7.968h3.72v-2.952l2.928-3.216v6.168
				h1.728v0.672H34.978z"/>
		</g>
		<g>
			<path d="M32.45,212.978c-1.896,0-4.44-0.864-4.44-3.096c0-1.536,1.128-2.544,1.776-2.808c-1.2-0.672-1.536-1.776-1.536-2.76
				c0-2.28,2.016-3.192,4.2-3.216c3.192,0,4.08,1.392,4.128,2.976c0.024,0.888-0.432,1.728-1.152,2.328
				c0.864,0.432,1.584,1.296,1.584,2.568C37.01,211.417,34.514,212.978,32.45,212.978z M30.506,207.529
				c-0.792,0.48-1.272,0.912-1.248,1.92c0.024,1.608,0.72,2.76,2.928,2.76c0.72,0,2.376-0.792,2.376-1.944
				C34.562,208.37,31.49,207.698,30.506,207.529z M32.474,201.697c-1.176,0-2.448,0.672-2.256,1.68
				c0.192,1.008,3.384,2.16,4.392,2.496c0.408-0.432,0.84-1.152,0.792-1.8C35.306,202.85,34.658,201.697,32.474,201.697z"/>
		</g>
		<path fill="none" stroke="#0A0A0A" d="M473.782,199.88v29.746"/>
		<g>
			<path d="M163.594,208.176c2.664,0.024,5.184,1.032,5.376,3.264c0.144,1.632-2.016,3.12-4.68,3.12
				c-2.688-0.024-5.184-1.008-5.4-3.24C158.746,209.664,160.93,208.176,163.594,208.176z M164.242,214.008
				c1.152,0,1.896-1.104,1.776-1.992c-0.264-1.752-0.864-3.168-2.448-3.168c-1.152,0-1.824,1.128-1.68,2.016
				C162.154,212.616,162.658,214.008,164.242,214.008z"/>
		</g>
		<g>
			<path d="M278.594,215.176c2.664,0.024,5.184,1.032,5.376,3.264c0.144,1.632-2.016,3.12-4.68,3.12
				c-2.688-0.024-5.185-1.008-5.4-3.24C273.746,216.664,275.93,215.176,278.594,215.176z M279.241,221.008
				c1.152,0,1.896-1.104,1.776-1.992c-0.264-1.752-0.864-3.168-2.448-3.168c-1.151,0-1.823,1.128-1.68,2.016
				C277.153,219.616,277.657,221.008,279.241,221.008z"/>
		</g>
		<g>
			<path d="M391.594,193.176c2.664,0.024,5.184,1.032,5.376,3.264c0.144,1.632-2.016,3.12-4.68,3.12
				c-2.688-0.024-5.185-1.008-5.4-3.24C386.746,194.664,388.93,193.176,391.594,193.176z M392.241,199.008
				c1.152,0,1.896-1.104,1.776-1.992c-0.264-1.752-0.864-3.168-2.448-3.168c-1.151,0-1.823,1.128-1.68,2.016
				C390.153,197.616,390.657,199.008,392.241,199.008z"/>
		</g>
		<g>
			<path d="M190.106,228.317v-3.912h0.696v3.672l2.352-0.768v-3.504h0.696v3.288l0.936-0.312v2.496l-0.936,0.312v3.552l0.936-0.288
				v2.472l-0.936,0.312v3.912h-0.696v-3.696l-2.352,0.768v3.552h-0.696v-3.312l-1.032,0.336v-2.496l1.032-0.336v-3.576l-1.032,0.336
				v-2.472L190.106,228.317z M190.802,230.574v3.576l2.352-0.768v-3.576L190.802,230.574z"/>
		</g>
		<g>
			<path d="M48.624,222.033c0,0.216,0,1.536,0,1.536c0.912-0.816,1.416-0.984,2.424-1.008c1.2-0.024,1.968,1.176,1.992,2.136
				c0.024,0.504-0.12,1.032-0.312,1.44c-0.216,0.528-0.792,0.936-1.176,1.32C51.12,227.889,48,230.025,48,230.073v-14.184h0.624
				C48.624,215.889,48.648,218.865,48.624,222.033z M48.888,224.409c-0.312,0.6-0.264,1.632-0.264,2.376v2.064
				c0,0.024,0.864-0.72,1.344-1.176c0.432-0.408,0.768-0.864,0.936-1.584c0.192-0.72,0.12-1.488-0.336-1.992
				C50.256,223.737,49.392,223.449,48.888,224.409z"/>
		</g>
		<g>
			<path d="M14.55,217.856c-0.937,1.135-1.526,1.76-2.704,2.667c-1.418,1.107-2.382,1.561-4.042,2.242
				c-1.606,0.625-4.31,1.135-4.31,1.135l-0.188-0.426c0,0,4.523-1.447,6.745-3.944c2.917-3.207,4.443-7.094,4.363-12.06
				c-0.027-2.242-0.696-6.442-4.069-6.47c-1.927,0-4.657,1.76-4.47,3.944c0.053,0.313,0.803-0.34,2.275-0.284
				c1.553,0.057,2.382,2.1,2.008,3.689c-0.268,1.249-1.018,2.043-2.382,2.043c-1.74,0-3.292-1.306-3.319-3.462
				c-0.053-3.264,1.66-4.91,2.704-5.59c1.312-0.852,2.73-1.164,3.935-1.164c2.704-0.057,5.702,2.015,6.719,5.023
				c0.589,1.702,0.589,3.604,0.134,5.817c-0.294,1.504-0.669,2.327-1.338,3.689C15.942,216.012,15.46,216.721,14.55,217.856z
				 M20.76,202.249c0.83,0,1.499,0.625,1.499,1.476c0.027,0.852-0.642,1.589-1.445,1.589c-0.803,0.028-1.499-0.681-1.499-1.532
				C19.288,202.901,19.957,202.277,20.76,202.249z M20.787,209.4c0.803,0,1.472,0.624,1.499,1.476c0,0.879-0.642,1.589-1.445,1.589
				c-0.83,0.028-1.499-0.652-1.526-1.532C19.314,210.081,19.957,209.428,20.787,209.4z"/>
		</g>
		<g>
			<g>
				<path d="M434.834,188.914c2.664,0.024,5.184,1.032,5.376,3.264c0.144,1.632-2.016,3.12-4.68,3.12
					c-2.688-0.024-5.185-1.008-5.4-3.24C429.986,190.402,432.17,188.914,434.834,188.914z M435.481,194.746
					c1.152,0,1.896-1.104,1.776-1.992c-0.264-1.752-0.864-3.168-2.448-3.168c-1.151,0-1.823,1.128-1.68,2.016
					C433.394,193.354,433.897,194.746,435.481,194.746z"/>
			</g>
			<path fill="none" stroke="#000000" d="M428.122,192.626h14.667"/>
		</g>
	</g>
</svg>
