<?xml version="1.0" encoding="utf-8"?>
<!-- Generator: Adobe Illustrator 10.0, SVG Export Plug-In . SVG Version: 3.0.0 Build 76)  -->
<!DOCTYPE svg PUBLIC "-//W3C//DTD SVG 1.0//EN"    "http://www.w3.org/TR/2001/REC-SVG-20010904/DTD/svg10.dtd" [
	<!ENTITY ns_flows "http://ns.adobe.com/Flows/1.0/">
	<!ENTITY ns_extend "http://ns.adobe.com/Extensibility/1.0/">
	<!ENTITY ns_ai "http://ns.adobe.com/AdobeIllustrator/10.0/">
	<!ENTITY ns_svg "http://www.w3.org/2000/svg">
	<!ENTITY ns_xlink "http://www.w3.org/1999/xlink">
]>
<svg  xmlns:x="&ns_extend;" xmlns:i="&ns_ai;" xmlns:graph="&ns_graphs;"
	 xmlns="&ns_svg;" xmlns:xlink="&ns_xlink;" xmlns:a="http://ns.adobe.com/AdobeSVGViewerExtensions/3.0/" width="477" height="46"
	 viewBox="0.227 -0.026 477 46" overflow="visible" enable-background="new 0.227 -0.026 477 46" xml:space="preserve">
	<g id="Layer_1_2_">
		<g>
			<path fill="none" stroke="#000000" d="M0.128,6.38h474.758"/>
			<path fill="none" stroke="#000000" d="M0.128,21.492h474.758"/>
			<path fill="none" stroke="#000000" d="M0.364,28.615h474.76"/>
			<path fill="none" stroke="#000000" d="M0,35.998h474.758"/>
			<path fill="none" stroke="#000000" d="M0,13.634h474.758"/>
		</g>
		<g>
			<path d="M7.876,35.592C2.932,33.24,2.14,30.216,1.924,27.12c-0.24-3.36,1.896-6.768,3.888-8.664
				c1.152-1.08,2.4-2.136,3.888-3.264c-0.048-0.84-0.24-1.176-0.336-2.376C9.34,12.312,9.028,9.959,9.532,7.248
				c0.312-1.608,2.328-5.4,3.72-5.424c1.08-0.024,2.736,4.296,2.784,6.456c0.072,3.336-0.72,4.848-1.704,6.576
				c-0.504,0.864-1.032,1.464-1.584,2.136c-0.576,0.696-1.224,1.104-1.824,1.632c0,0,0.768,4.344,0.792,4.656
				c1.536-0.192,3.408,0.36,4.08,0.84c1.704,1.272,2.352,3.024,2.472,4.728c0.216,2.712-1.272,5.568-4.56,6.936
				c0,0,0.504,3.456,0.624,4.176c0.264,1.896,0.216,3.096-0.192,3.864c-0.696,1.296-1.824,2.496-4.008,2.64
				c-1.68,0.096-4.992-0.744-5.16-3.384c-0.096-1.56,0.6-3.24,2.496-3.36c1.152-0.096,2.52,0.864,2.616,2.232
				c0.096,1.176-0.672,2.4-2.664,2.952c0.312,0.432,1.248,0.936,2.592,0.936c1.392,0,2.832-0.936,3.528-2.184
				c0.432-0.816,0.384-2.28,0.216-3.624c-0.072-0.456-0.648-4.08-0.648-4.08C11.332,36.24,8.884,36.072,7.876,35.592z M8.356,29.904
				c0.048,1.152,1.008,2.496,1.896,2.952c-0.12,0.072-0.24,0.264-0.24,0.264c-0.984-0.48-1.824-1.272-2.04-1.56
				c-0.696-0.936-0.984-1.464-1.08-2.88c-0.096-1.32,0.624-3.096,2.232-4.344c0.84-0.624,1.248-0.768,1.968-0.936l-0.72-4.344
				c-0.744,0.432-3.816,2.904-5.112,4.92c-1.152,1.8-1.848,3.24-1.704,5.016c0.288,4.008,4.68,7.296,9.432,6.168
				c0,0-1.416-8.52-1.392-8.52C8.98,26.736,8.284,28.752,8.356,29.904z M10.3,14.688c2.088-1.632,4.92-4.704,4.752-7.08
				c-0.048-0.744-0.36-2.088-1.44-2.064C11.14,5.567,9.748,10.728,10.3,14.688z M13.564,34.968c2.76-0.936,2.88-3.312,2.784-4.728
				c-0.096-1.176-0.624-3.816-4.128-3.648L13.564,34.968z"/>
		</g>
		<g>
			<path d="M46.594,29c2.664,0.024,5.184,1.032,5.376,3.264c0.144,1.632-2.016,3.12-4.68,3.12c-2.688-0.024-5.184-1.008-5.4-3.24
				C41.746,30.488,43.93,29,46.594,29z M47.242,34.833c1.152,0,1.896-1.104,1.776-1.992c-0.264-1.752-0.864-3.168-2.448-3.168
				c-1.152,0-1.824,1.128-1.68,2.016C45.154,33.44,45.658,34.833,47.242,34.833z"/>
		</g>
		<g>
			<path d="M76.594,22c2.664,0.024,5.184,1.032,5.376,3.264c0.144,1.632-2.016,3.12-4.68,3.12c-2.688-0.024-5.184-1.008-5.4-3.24
				C71.746,23.488,73.93,22,76.594,22z M77.242,27.833c1.152,0,1.896-1.104,1.776-1.992c-0.264-1.752-0.864-3.168-2.448-3.168
				c-1.152,0-1.824,1.128-1.68,2.016C75.154,26.44,75.658,27.833,77.242,27.833z"/>
		</g>
		<path fill="none" stroke="#0A0A0A" d="M100.687,6.117v29.746"/>
		<g>
			<path d="M119.594,11c2.664,0.024,5.184,1.032,5.376,3.264c0.144,1.632-2.016,3.12-4.68,3.12c-2.688-0.024-5.184-1.008-5.4-3.24
				C114.746,12.488,116.93,11,119.594,11z M120.242,16.832c1.152,0,1.896-1.104,1.776-1.992c-0.264-1.752-0.864-3.168-2.448-3.168
				c-1.152,0-1.824,1.128-1.68,2.016C118.154,15.44,118.658,16.832,120.242,16.832z"/>
		</g>
		<g>
			<path d="M144.594,25c2.664,0.024,5.184,1.032,5.376,3.264c0.144,1.632-2.016,3.12-4.68,3.12c-2.688-0.024-5.184-1.008-5.4-3.24
				C139.746,26.488,141.93,25,144.594,25z M145.242,30.833c1.152,0,1.896-1.104,1.776-1.992c-0.264-1.752-0.864-3.168-2.448-3.168
				c-1.152,0-1.824,1.128-1.68,2.016C143.154,29.44,143.658,30.833,145.242,30.833z"/>
		</g>
		<path fill="none" stroke="#0A0A0A" d="M170.687,6.117v29.746"/>
		<g>
			<path d="M188.594,36c2.664,0.024,5.184,1.032,5.376,3.264c0.144,1.632-2.016,3.12-4.68,3.12c-2.688-0.024-5.184-1.008-5.4-3.24
				C183.746,37.488,185.93,36,188.594,36z M189.242,41.833c1.152,0,1.896-1.104,1.776-1.992c-0.264-1.752-0.864-3.168-2.448-3.168
				c-1.152,0-1.824,1.128-1.68,2.016C187.154,40.44,187.658,41.833,189.242,41.833z"/>
		</g>
		<g>
			<path d="M220.594,11c2.664,0.024,5.184,1.032,5.376,3.264c0.144,1.632-2.016,3.12-4.68,3.12c-2.688-0.024-5.184-1.008-5.4-3.24
				C215.746,12.488,217.93,11,220.594,11z M221.242,16.832c1.152,0,1.896-1.104,1.776-1.992c-0.264-1.752-0.864-3.168-2.448-3.168
				c-1.152,0-1.824,1.128-1.68,2.016C219.154,15.44,219.658,16.832,221.242,16.832z"/>
		</g>
		<path fill="none" stroke="#0A0A0A" d="M246.687,6.117v29.746"/>
		<g>
			<path d="M266.594,18c2.664,0.024,5.184,1.032,5.376,3.264c0.144,1.632-2.016,3.12-4.68,3.12c-2.688-0.024-5.184-1.008-5.4-3.24
				C261.746,19.488,263.93,18,266.594,18z M267.242,23.832c1.152,0,1.896-1.104,1.776-1.992c-0.264-1.752-0.864-3.168-2.448-3.168
				c-1.152,0-1.824,1.128-1.68,2.016C265.154,22.44,265.658,23.832,267.242,23.832z"/>
		</g>
		<g>
			<path d="M297.594,14c2.664,0.024,5.184,1.032,5.376,3.264c0.144,1.632-2.016,3.12-4.68,3.12c-2.688-0.024-5.185-1.008-5.4-3.24
				C292.747,15.488,294.93,14,297.594,14z M298.242,19.832c1.152,0,1.896-1.104,1.776-1.992c-0.264-1.752-0.864-3.168-2.448-3.168
				c-1.151,0-1.823,1.128-1.68,2.016C296.154,18.44,296.658,19.832,298.242,19.832z"/>
		</g>
		<path fill="none" stroke="#0A0A0A" d="M328.687,6.117v29.746"/>
		<g>
			<path d="M348.594,0c2.664,0.024,5.184,1.032,5.376,3.264c0.144,1.632-2.016,3.12-4.68,3.12c-2.688-0.024-5.185-1.008-5.4-3.24
				C343.747,1.488,345.93,0,348.594,0z M349.242,5.832c1.152,0,1.896-1.104,1.776-1.992c-0.264-1.752-0.864-3.168-2.448-3.168
				c-1.151,0-1.823,1.128-1.68,2.016C347.154,4.44,347.658,5.832,349.242,5.832z"/>
		</g>
		<g>
			<path d="M379.594,22c2.664,0.024,5.184,1.032,5.376,3.264c0.144,1.632-2.016,3.12-4.68,3.12c-2.688-0.024-5.185-1.008-5.4-3.24
				C374.747,23.487,376.93,22,379.594,22z M380.242,27.832c1.152,0,1.896-1.104,1.776-1.992c-0.264-1.752-0.864-3.168-2.448-3.168
				c-1.151,0-1.823,1.128-1.68,2.016C378.154,26.439,378.658,27.832,380.242,27.832z"/>
		</g>
		<path fill="none" stroke="#0A0A0A" d="M401.687,6.117v29.746"/>
		<g>
			<path d="M421.594,18c2.664,0.024,5.184,1.032,5.376,3.264c0.144,1.632-2.016,3.12-4.68,3.12c-2.688-0.024-5.185-1.008-5.4-3.24
				C416.747,19.488,418.93,18,421.594,18z M422.242,23.832c1.152,0,1.896-1.104,1.776-1.992c-0.264-1.752-0.864-3.168-2.448-3.168
				c-1.151,0-1.823,1.128-1.68,2.016C420.154,22.44,420.658,23.832,422.242,23.832z"/>
		</g>
		<g>
			<path d="M452.594,7c2.664,0.024,5.184,1.032,5.376,3.264c0.144,1.632-2.016,3.12-4.68,3.12c-2.688-0.024-5.185-1.008-5.4-3.24
				C447.747,8.487,449.93,7,452.594,7z M453.242,12.832c1.152,0,1.896-1.104,1.776-1.992c-0.264-1.752-0.864-3.168-2.448-3.168
				c-1.151,0-1.823,1.128-1.68,2.016C451.154,11.439,451.658,12.832,453.242,12.832z"/>
		</g>
		<path fill="none" stroke="#0A0A0A" stroke-width="2" d="M475.783,6.703v29.746"/>
		<g>
			<path d="M29.978,31.442v1.584c0,0.96,1.128,0.936,1.128,0.936v0.624h-5.208v-0.624c0,0,1.176,0.048,1.152-0.888v-1.632h-4.44
				l-0.432-0.456c2.904-3.912,2.928-4.632,3.624-8.184h4.152c-0.984,1.824-4.296,5.256-6.624,7.968h3.72v-2.952l2.928-3.216v6.168
				h1.728v0.672H29.978z"/>
		</g>
		<g>
			<path d="M27.45,19.802c-1.896,0-4.44-0.864-4.44-3.096c0-1.536,1.128-2.544,1.776-2.808c-1.2-0.672-1.536-1.776-1.536-2.76
				c0-2.28,2.016-3.192,4.2-3.216c3.192,0,4.08,1.392,4.128,2.976c0.024,0.888-0.432,1.728-1.152,2.328
				c0.864,0.432,1.584,1.296,1.584,2.568C32.01,18.242,29.514,19.802,27.45,19.802z M25.506,14.354
				c-0.792,0.48-1.272,0.912-1.248,1.92c0.024,1.608,0.72,2.76,2.928,2.76c0.72,0,2.376-0.792,2.376-1.944
				C29.562,15.194,26.49,14.522,25.506,14.354z M27.474,8.521c-1.176,0-2.448,0.672-2.256,1.68c0.192,1.008,3.384,2.16,4.392,2.496
				c0.408-0.432,0.84-1.152,0.792-1.8C30.306,9.674,29.658,8.521,27.474,8.521z"/>
		</g>
		<path fill="none" stroke="#0A0A0A" d="M471.783,6.703v29.746"/>
	</g>
</svg>
