<?xml version="1.0" encoding="utf-8"?>
<!-- Generator: Adobe Illustrator 10.0, SVG Export Plug-In . SVG Version: 3.0.0 Build 76)  -->
<!DOCTYPE svg PUBLIC "-//W3C//DTD SVG 1.0//EN"    "http://www.w3.org/TR/2001/REC-SVG-20010904/DTD/svg10.dtd" [
	<!ENTITY ns_flows "http://ns.adobe.com/Flows/1.0/">
	<!ENTITY ns_extend "http://ns.adobe.com/Extensibility/1.0/">
	<!ENTITY ns_ai "http://ns.adobe.com/AdobeIllustrator/10.0/">
	<!ENTITY ns_svg "http://www.w3.org/2000/svg">
	<!ENTITY ns_xlink "http://www.w3.org/1999/xlink">
]>
<svg  xmlns:x="&ns_extend;" xmlns:i="&ns_ai;" xmlns:graph="&ns_graphs;"
	 xmlns="&ns_svg;" xmlns:xlink="&ns_xlink;" xmlns:a="http://ns.adobe.com/AdobeSVGViewerExtensions/3.0/" width="333" height="168"
	 viewBox="0.027 0.391 333 168" overflow="visible" enable-background="new 0.027 0.391 333 168" xml:space="preserve">
	<g id="Layer_1_2_">
		<g>
			<path fill="none" stroke="#000000" d="M0.027,4.556h99.926"/>
			<path fill="none" stroke="#000000" d="M0.027,19.668h99.926"/>
			<path fill="none" stroke="#000000" d="M0.077,26.791h99.926"/>
			<path fill="none" stroke="#000000" d="M0,34.174h99.926"/>
			<path fill="none" stroke="#000000" d="M0,11.81h99.926"/>
		</g>
		<g>
			<path d="M302.06,121.646v-3.912h0.695v3.672l2.353-0.768v-3.504h0.696v3.288l0.936-0.312v2.496l-0.936,0.312v3.552l0.936-0.288
				v2.472l-0.936,0.312v3.912h-0.696v-3.696l-2.353,0.768v3.552h-0.695v-3.312l-1.032,0.336v-2.496l1.032-0.336v-3.576l-1.032,0.336
				v-2.472L302.06,121.646z M302.755,123.903v3.576l2.353-0.768v-3.576L302.755,123.903z"/>
		</g>
		<g>
			<path d="M16.876,33.768c-4.944-2.352-5.736-5.376-5.952-8.472c-0.24-3.36,1.896-6.768,3.888-8.664
				c1.152-1.08,2.4-2.136,3.888-3.264c-0.048-0.84-0.24-1.176-0.336-2.376c-0.024-0.504-0.336-2.856,0.168-5.568
				c0.312-1.608,2.328-5.4,3.72-5.424c1.08-0.024,2.736,4.296,2.784,6.456c0.072,3.336-0.72,4.848-1.704,6.576
				c-0.504,0.864-1.032,1.464-1.584,2.136c-0.576,0.696-1.224,1.104-1.824,1.632c0,0,0.768,4.344,0.792,4.656
				c1.536-0.192,3.408,0.36,4.08,0.84c1.704,1.272,2.352,3.024,2.472,4.728c0.216,2.712-1.272,5.568-4.56,6.936
				c0,0,0.504,3.456,0.624,4.176c0.264,1.896,0.216,3.096-0.192,3.864c-0.696,1.296-1.824,2.496-4.008,2.64
				c-1.68,0.096-4.992-0.744-5.16-3.384c-0.096-1.56,0.6-3.24,2.496-3.36c1.152-0.096,2.52,0.864,2.616,2.232
				c0.096,1.176-0.672,2.4-2.664,2.952c0.312,0.432,1.248,0.936,2.592,0.936c1.392,0,2.832-0.936,3.528-2.184
				c0.432-0.816,0.384-2.28,0.216-3.624c-0.072-0.456-0.648-4.08-0.648-4.08C20.332,34.416,17.884,34.248,16.876,33.768z
				 M17.356,28.08c0.048,1.152,1.008,2.496,1.896,2.952c-0.12,0.072-0.24,0.264-0.24,0.264c-0.984-0.48-1.824-1.272-2.04-1.56
				c-0.696-0.936-0.984-1.464-1.08-2.88c-0.096-1.32,0.624-3.096,2.232-4.344c0.84-0.624,1.248-0.768,1.968-0.936l-0.72-4.344
				c-0.744,0.432-3.816,2.904-5.112,4.92c-1.152,1.8-1.848,3.24-1.704,5.016c0.288,4.008,4.68,7.296,9.432,6.168
				c0,0-1.416-8.52-1.392-8.52C17.98,24.912,17.284,26.928,17.356,28.08z M19.3,12.864c2.088-1.632,4.92-4.704,4.752-7.08
				c-0.048-0.744-0.36-2.088-1.44-2.064C20.14,3.744,18.748,8.904,19.3,12.864z M22.564,33.144c2.76-0.936,2.88-3.312,2.784-4.728
				c-0.096-1.176-0.624-3.816-4.128-3.648L22.564,33.144z"/>
		</g>
		<g>
			<path d="M47.594,24.175c2.664,0.024,5.184,1.032,5.376,3.264c0.144,1.632-2.016,3.12-4.68,3.12
				c-2.688-0.024-5.184-1.008-5.4-3.24C42.746,25.663,44.93,24.175,47.594,24.175z M48.242,30.007c1.152,0,1.896-1.104,1.776-1.992
				c-0.264-1.752-0.864-3.168-2.448-3.168c-1.152,0-1.824,1.128-1.68,2.016C46.154,28.615,46.658,30.007,48.242,30.007z"/>
		</g>
		<g>
			<path d="M299.651,13.143c0,0.216,0,1.536,0,1.536c0.912-0.816,1.416-0.984,2.424-1.008c1.2-0.024,1.968,1.176,1.992,2.136
				c0.024,0.504-0.12,1.032-0.312,1.44c-0.217,0.528-0.793,0.936-1.177,1.32c-0.432,0.432-3.552,2.568-3.552,2.616V6.999h0.624
				C299.651,6.999,299.676,9.975,299.651,13.143z M299.915,15.519c-0.312,0.6-0.264,1.632-0.264,2.376v2.064
				c0,0.024,0.864-0.72,1.344-1.176c0.433-0.408,0.769-0.864,0.937-1.584c0.191-0.72,0.12-1.488-0.336-1.992
				C301.283,14.847,300.419,14.559,299.915,15.519z"/>
		</g>
		<g>
			<path d="M32.272,62.976c-0.06-1.128-0.132-2.496-0.132-3.492h-0.024c-0.288,0.936-0.612,1.956-1.02,3.072l-1.428,3.924h-0.792
				l-1.32-3.852c-0.384-1.152-0.696-2.184-0.924-3.144h-0.024c-0.024,1.008-0.084,2.352-0.156,3.576l-0.216,3.468H25.24l0.564-8.088
				h1.332l1.38,3.912c0.336,0.996,0.6,1.884,0.816,2.724h0.024c0.216-0.816,0.504-1.704,0.864-2.724l1.44-3.912h1.332l0.504,8.088
				h-1.032L32.272,62.976z"/>
			<path d="M39.232,65.136c0,0.504,0.024,0.996,0.084,1.392h-0.948l-0.096-0.732h-0.036c-0.312,0.456-0.948,0.864-1.776,0.864
				c-1.176,0-1.776-0.828-1.776-1.668c0-1.404,1.248-2.172,3.492-2.16v-0.12c0-0.48-0.132-1.356-1.32-1.344
				c-0.552,0-1.116,0.156-1.524,0.432l-0.24-0.708c0.48-0.3,1.188-0.504,1.92-0.504c1.788,0,2.22,1.212,2.22,2.376V65.136z
				 M38.2,63.564c-1.152-0.024-2.46,0.18-2.46,1.308c0,0.696,0.456,1.008,0.984,1.008c0.768,0,1.26-0.48,1.428-0.972
				C38.188,64.8,38.2,64.68,38.2,64.572V63.564z"/>
			<path d="M39.496,68.232c0.492-0.036,0.9-0.168,1.152-0.444c0.288-0.324,0.408-0.792,0.408-2.184V60.72h1.056v5.292
				c0,1.128-0.18,1.86-0.696,2.388c-0.468,0.468-1.236,0.66-1.8,0.66L39.496,68.232z M41.56,59.652c-0.396,0-0.66-0.312-0.66-0.684
				s0.276-0.672,0.684-0.672c0.408,0,0.672,0.3,0.672,0.672s-0.252,0.684-0.684,0.684H41.56z"/>
			<path d="M46.204,66.66c-1.56,0-2.784-1.152-2.784-2.988c0-1.944,1.284-3.084,2.88-3.084c1.668,0,2.796,1.212,2.796,2.976
				c0,2.16-1.5,3.096-2.88,3.096H46.204z M46.24,65.868c1.008,0,1.764-0.948,1.764-2.268c0-0.984-0.492-2.22-1.74-2.22
				c-1.236,0-1.776,1.152-1.776,2.256c0,1.272,0.72,2.232,1.74,2.232H46.24z"/>
			<path d="M50.44,62.532c0-0.684-0.012-1.272-0.048-1.812h0.924l0.048,1.14H51.4c0.264-0.78,0.912-1.272,1.62-1.272
				c0.108,0,0.192,0.012,0.288,0.036v0.984c-0.12-0.012-0.228-0.024-0.372-0.024c-0.744,0-1.272,0.564-1.416,1.344
				c-0.024,0.156-0.036,0.324-0.036,0.504v3.096h-1.056L50.44,62.532z"/>
			<path d="M57.976,59.328h-2.46V58.44h5.988v0.888h-2.472v7.2h-1.056V59.328z"/>
			<path d="M62.284,58.008h1.056v3.624h0.024c0.168-0.3,0.432-0.576,0.756-0.744c0.312-0.192,0.684-0.3,1.08-0.3
				c0.78,0,2.028,0.48,2.028,2.484v3.456h-1.056v-3.336c0-0.948-0.348-1.728-1.344-1.728c-0.684,0-1.212,0.48-1.416,1.056
				c-0.06,0.144-0.072,0.3-0.072,0.504v3.504h-1.056V58.008z"/>
			<path d="M69.448,59.652c-0.396,0-0.66-0.312-0.66-0.684s0.276-0.672,0.684-0.672c0.408,0,0.672,0.3,0.672,0.672
				s-0.264,0.684-0.684,0.684H69.448z M68.944,66.528V60.72H70v5.808H68.944z"/>
			<path d="M71.764,62.532c0-0.684-0.012-1.272-0.048-1.812h0.924l0.048,1.14h0.036c0.264-0.78,0.912-1.272,1.62-1.272
				c0.108,0,0.192,0.012,0.288,0.036v0.984c-0.12-0.012-0.228-0.024-0.372-0.024c-0.744,0-1.272,0.564-1.416,1.344
				c-0.024,0.156-0.036,0.324-0.036,0.504v3.096h-1.056L71.764,62.532z"/>
			<path d="M80.62,58.008v7.02c0,0.516,0.012,1.104,0.048,1.5H79.72l-0.048-1.008h-0.024c-0.324,0.648-1.02,1.14-1.968,1.14
				c-1.404,0-2.496-1.188-2.496-2.952c-0.012-1.944,1.2-3.12,2.604-3.12c0.9,0,1.5,0.42,1.752,0.876h0.024v-3.456H80.62z
				 M79.564,63.084c0-0.144-0.012-0.312-0.048-0.456c-0.156-0.66-0.732-1.212-1.524-1.212c-1.092,0-1.74,0.96-1.74,2.232
				c0,1.188,0.588,2.16,1.716,2.16c0.708,0,1.356-0.48,1.548-1.26c0.036-0.144,0.048-0.288,0.048-0.456V63.084z"/>
			<path d="M112.754,65.46c0.324,0.192,0.876,0.408,1.404,0.408c0.756,0,1.116-0.372,1.116-0.864c0-0.504-0.3-0.78-1.068-1.068
				c-1.056-0.384-1.548-0.948-1.548-1.644c0-0.936,0.768-1.704,2.004-1.704c0.588,0,1.104,0.156,1.416,0.36l-0.252,0.756
				c-0.228-0.132-0.648-0.336-1.188-0.336c-0.624,0-0.96,0.36-0.96,0.792c0,0.492,0.336,0.708,1.092,0.996
				c0.996,0.372,1.524,0.876,1.524,1.752c0,1.032-0.804,1.752-2.16,1.752c-0.636,0-1.224-0.168-1.632-0.408L112.754,65.46z"/>
			<path d="M120.015,66.66c-1.56,0-2.784-1.152-2.784-2.988c0-1.944,1.284-3.084,2.88-3.084c1.668,0,2.796,1.212,2.796,2.976
				c0,2.16-1.5,3.096-2.88,3.096H120.015z M120.05,65.868c1.008,0,1.764-0.948,1.764-2.268c0-0.984-0.492-2.22-1.74-2.22
				c-1.236,0-1.776,1.152-1.776,2.256c0,1.272,0.72,2.232,1.74,2.232H120.05z"/>
			<path d="M129.099,64.944c0,0.6,0.012,1.128,0.048,1.584h-0.936l-0.06-0.948h-0.024c-0.264,0.468-0.888,1.08-1.92,1.08
				c-0.912,0-2.004-0.516-2.004-2.544V60.72h1.056v3.204c0,1.104,0.348,1.86,1.296,1.86c0.708,0,1.2-0.492,1.392-0.972
				c0.06-0.144,0.096-0.336,0.096-0.54V60.72h1.056V64.944z"/>
			<path d="M130.851,62.292c0-0.612-0.012-1.092-0.048-1.572h0.936l0.06,0.948h0.024c0.288-0.54,0.96-1.08,1.92-1.08
				c0.804,0,2.052,0.48,2.052,2.472v3.468h-1.056V63.18c0-0.936-0.348-1.728-1.344-1.728c-0.684,0-1.224,0.492-1.416,1.08
				c-0.048,0.132-0.072,0.324-0.072,0.492v3.504h-1.056V62.292z"/>
			<path d="M142.526,58.008v7.02c0,0.516,0.012,1.104,0.048,1.5h-0.948l-0.048-1.008h-0.024c-0.324,0.648-1.02,1.14-1.968,1.14
				c-1.404,0-2.496-1.188-2.496-2.952c-0.012-1.944,1.2-3.12,2.604-3.12c0.9,0,1.5,0.42,1.752,0.876h0.024v-3.456H142.526z
				 M141.47,63.084c0-0.144-0.012-0.312-0.048-0.456c-0.156-0.66-0.732-1.212-1.524-1.212c-1.092,0-1.74,0.96-1.74,2.232
				c0,1.188,0.588,2.16,1.716,2.16c0.708,0,1.356-0.48,1.548-1.26c0.036-0.144,0.048-0.288,0.048-0.456V63.084z"/>
			<path d="M144.134,65.46c0.324,0.192,0.876,0.408,1.404,0.408c0.756,0,1.116-0.372,1.116-0.864c0-0.504-0.3-0.78-1.068-1.068
				c-1.056-0.384-1.548-0.948-1.548-1.644c0-0.936,0.768-1.704,2.004-1.704c0.588,0,1.104,0.156,1.416,0.36l-0.252,0.756
				c-0.228-0.132-0.648-0.336-1.188-0.336c-0.624,0-0.96,0.36-0.96,0.792c0,0.492,0.336,0.708,1.092,0.996
				c0.996,0.372,1.524,0.876,1.524,1.752c0,1.032-0.804,1.752-2.16,1.752c-0.636,0-1.224-0.168-1.632-0.408L144.134,65.46z"/>
			<path d="M152.846,59.328v1.392h1.512v0.804h-1.512v3.132c0,0.72,0.204,1.128,0.792,1.128c0.288,0,0.456-0.024,0.612-0.072
				l0.048,0.804c-0.204,0.072-0.528,0.144-0.936,0.144c-0.492,0-0.888-0.168-1.14-0.444c-0.288-0.324-0.408-0.84-0.408-1.524v-3.168
				h-0.9V60.72h0.9v-1.068L152.846,59.328z"/>
			<path d="M155.546,58.008h1.056v3.624h0.024c0.168-0.3,0.432-0.576,0.756-0.744c0.312-0.192,0.684-0.3,1.08-0.3
				c0.78,0,2.028,0.48,2.028,2.484v3.456h-1.056v-3.336c0-0.948-0.348-1.728-1.344-1.728c-0.684,0-1.212,0.48-1.416,1.056
				c-0.06,0.144-0.072,0.3-0.072,0.504v3.504h-1.056V58.008z"/>
			<path d="M162.806,63.804c0.024,1.428,0.924,2.016,1.98,2.016c0.756,0,1.224-0.132,1.608-0.288l0.192,0.744
				c-0.372,0.168-1.02,0.372-1.944,0.372c-1.776,0-2.856-1.188-2.856-2.928c0-1.764,1.044-3.144,2.736-3.144
				c1.896,0,2.388,1.668,2.388,2.736c0,0.216-0.012,0.384-0.036,0.504L162.806,63.804z M165.89,63.048
				c0.012-0.66-0.276-1.716-1.452-1.716c-1.08,0-1.536,0.984-1.62,1.716H165.89z"/>
			<path d="M170.618,65.46c0.324,0.192,0.876,0.408,1.404,0.408c0.756,0,1.116-0.372,1.116-0.864c0-0.504-0.3-0.78-1.068-1.068
				c-1.056-0.384-1.548-0.948-1.548-1.644c0-0.936,0.768-1.704,2.004-1.704c0.588,0,1.104,0.156,1.416,0.36l-0.252,0.756
				c-0.228-0.132-0.648-0.336-1.188-0.336c-0.624,0-0.96,0.36-0.96,0.792c0,0.492,0.336,0.708,1.092,0.996
				c0.996,0.372,1.524,0.876,1.524,1.752c0,1.032-0.804,1.752-2.16,1.752c-0.636,0-1.224-0.168-1.632-0.408L170.618,65.46z"/>
			<path d="M179.605,65.136c0,0.504,0.024,0.996,0.084,1.392h-0.948l-0.096-0.732h-0.036c-0.312,0.456-0.948,0.864-1.776,0.864
				c-1.176,0-1.776-0.828-1.776-1.668c0-1.404,1.248-2.172,3.492-2.16v-0.12c0-0.48-0.132-1.356-1.32-1.344
				c-0.552,0-1.116,0.156-1.524,0.432l-0.24-0.708c0.48-0.3,1.188-0.504,1.92-0.504c1.788,0,2.22,1.212,2.22,2.376V65.136z
				 M178.574,63.564c-1.152-0.024-2.46,0.18-2.46,1.308c0,0.696,0.456,1.008,0.984,1.008c0.768,0,1.26-0.48,1.428-0.972
				c0.036-0.108,0.048-0.228,0.048-0.336V63.564z"/>
			<path d="M181.297,62.292c0-0.612-0.024-1.092-0.048-1.572h0.924l0.048,0.936h0.036c0.324-0.552,0.864-1.068,1.836-1.068
				c0.78,0,1.38,0.48,1.632,1.164h0.024c0.18-0.336,0.42-0.576,0.66-0.756c0.348-0.264,0.72-0.408,1.272-0.408
				c0.78,0,1.92,0.504,1.92,2.52v3.42h-1.032V63.24c0-1.128-0.42-1.788-1.26-1.788c-0.612,0-1.068,0.444-1.26,0.948
				c-0.048,0.156-0.084,0.348-0.084,0.528v3.6h-1.032v-3.48c0-0.936-0.408-1.596-1.212-1.596c-0.648,0-1.14,0.528-1.308,1.056
				c-0.06,0.156-0.084,0.336-0.084,0.516v3.504h-1.032V62.292z"/>
			<path d="M191.906,63.804c0.024,1.428,0.924,2.016,1.98,2.016c0.756,0,1.224-0.132,1.608-0.288l0.192,0.744
				c-0.372,0.168-1.02,0.372-1.944,0.372c-1.776,0-2.856-1.188-2.856-2.928c0-1.764,1.044-3.144,2.736-3.144
				c1.896,0,2.388,1.668,2.388,2.736c0,0.216-0.012,0.384-0.036,0.504L191.906,63.804z M194.99,63.048
				c0.012-0.66-0.276-1.716-1.452-1.716c-1.08,0-1.536,0.984-1.62,1.716H194.99z"/>
			<path d="M203.954,65.136c0,0.504,0.024,0.996,0.084,1.392h-0.948l-0.096-0.732h-0.036c-0.312,0.456-0.948,0.864-1.776,0.864
				c-1.176,0-1.776-0.828-1.776-1.668c0-1.404,1.248-2.172,3.492-2.16v-0.12c0-0.48-0.132-1.356-1.32-1.344
				c-0.552,0-1.116,0.156-1.524,0.432l-0.24-0.708c0.48-0.3,1.188-0.504,1.92-0.504c1.788,0,2.22,1.212,2.22,2.376V65.136z
				 M202.921,63.564c-1.152-0.024-2.46,0.18-2.46,1.308c0,0.696,0.456,1.008,0.984,1.008c0.768,0,1.26-0.48,1.428-0.972
				c0.036-0.108,0.048-0.228,0.048-0.336V63.564z"/>
			<path d="M205.501,65.46c0.324,0.192,0.876,0.408,1.404,0.408c0.756,0,1.116-0.372,1.116-0.864c0-0.504-0.3-0.78-1.068-1.068
				c-1.056-0.384-1.548-0.948-1.548-1.644c0-0.936,0.768-1.704,2.004-1.704c0.588,0,1.104,0.156,1.416,0.36l-0.252,0.756
				c-0.228-0.132-0.648-0.336-1.188-0.336c-0.624,0-0.96,0.36-0.96,0.792c0,0.492,0.336,0.708,1.092,0.996
				c0.996,0.372,1.524,0.876,1.524,1.752c0,1.032-0.804,1.752-2.16,1.752c-0.636,0-1.224-0.168-1.632-0.408L205.501,65.46z"/>
			<path d="M241.444,58.548c0.648-0.096,1.404-0.168,2.232-0.168c1.5,0,2.568,0.336,3.276,0.996c0.732,0.66,1.152,1.608,1.152,2.916
				c0,1.32-0.42,2.4-1.164,3.144c-0.768,0.756-2.016,1.164-3.588,1.164c-0.756,0-1.368-0.024-1.908-0.096V58.548z M242.5,65.712
				c0.264,0.048,0.648,0.048,1.056,0.048c2.232,0.012,3.444-1.248,3.444-3.432c0.012-1.932-1.068-3.12-3.276-3.12
				c-0.54,0-0.948,0.048-1.224,0.108V65.712z"/>
			<path d="M249.94,59.652c-0.396,0-0.66-0.312-0.66-0.684s0.276-0.672,0.684-0.672c0.408,0,0.672,0.3,0.672,0.672
				s-0.264,0.684-0.684,0.684H249.94z M249.436,66.528V60.72h1.056v5.808H249.436z"/>
			<path d="M252.244,62.292c0-0.612-0.024-1.092-0.048-1.572h0.924l0.048,0.936h0.036c0.324-0.552,0.864-1.068,1.836-1.068
				c0.78,0,1.38,0.48,1.632,1.164h0.024c0.18-0.336,0.42-0.576,0.66-0.756c0.348-0.264,0.72-0.408,1.272-0.408
				c0.78,0,1.92,0.504,1.92,2.52v3.42h-1.032V63.24c0-1.128-0.42-1.788-1.26-1.788c-0.612,0-1.068,0.444-1.26,0.948
				c-0.048,0.156-0.084,0.348-0.084,0.528v3.6h-1.032v-3.48c0-0.936-0.408-1.596-1.212-1.596c-0.648,0-1.14,0.528-1.308,1.056
				c-0.06,0.156-0.084,0.336-0.084,0.516v3.504h-1.032V62.292z"/>
			<path d="M262.756,59.652c-0.396,0-0.66-0.312-0.66-0.684s0.276-0.672,0.684-0.672c0.408,0,0.672,0.3,0.672,0.672
				s-0.264,0.684-0.684,0.684H262.756z M262.252,66.528V60.72h1.056v5.808H262.252z"/>
			<path d="M265.061,62.292c0-0.612-0.013-1.092-0.048-1.572h0.936l0.06,0.948h0.024c0.288-0.54,0.96-1.08,1.92-1.08
				c0.804,0,2.052,0.48,2.052,2.472v3.468h-1.056V63.18c0-0.936-0.348-1.728-1.344-1.728c-0.685,0-1.225,0.492-1.416,1.08
				c-0.049,0.132-0.072,0.324-0.072,0.492v3.504h-1.056V62.292z"/>
			<path d="M272.224,59.652c-0.396,0-0.659-0.312-0.659-0.684s0.275-0.672,0.684-0.672s0.672,0.3,0.672,0.672
				s-0.264,0.684-0.684,0.684H272.224z M271.72,66.528V60.72h1.057v5.808H271.72z"/>
			<path d="M274.384,65.46c0.324,0.192,0.876,0.408,1.404,0.408c0.756,0,1.116-0.372,1.116-0.864c0-0.504-0.301-0.78-1.068-1.068
				c-1.056-0.384-1.548-0.948-1.548-1.644c0-0.936,0.768-1.704,2.004-1.704c0.588,0,1.104,0.156,1.416,0.36l-0.252,0.756
				c-0.229-0.132-0.648-0.336-1.188-0.336c-0.624,0-0.96,0.36-0.96,0.792c0,0.492,0.336,0.708,1.093,0.996
				c0.995,0.372,1.523,0.876,1.523,1.752c0,1.032-0.804,1.752-2.16,1.752c-0.636,0-1.224-0.168-1.632-0.408L274.384,65.46z"/>
			<path d="M279.28,58.008h1.056v3.624h0.024c0.168-0.3,0.432-0.576,0.756-0.744c0.312-0.192,0.684-0.3,1.08-0.3
				c0.779,0,2.027,0.48,2.027,2.484v3.456h-1.056v-3.336c0-0.948-0.348-1.728-1.344-1.728c-0.685,0-1.212,0.48-1.416,1.056
				c-0.061,0.144-0.072,0.3-0.072,0.504v3.504h-1.056V58.008z"/>
			<path d="M286.54,63.804c0.023,1.428,0.924,2.016,1.979,2.016c0.756,0,1.225-0.132,1.608-0.288l0.192,0.744
				c-0.372,0.168-1.021,0.372-1.944,0.372c-1.776,0-2.856-1.188-2.856-2.928c0-1.764,1.044-3.144,2.736-3.144
				c1.896,0,2.388,1.668,2.388,2.736c0,0.216-0.012,0.384-0.036,0.504L286.54,63.804z M289.624,63.048
				c0.012-0.66-0.276-1.716-1.452-1.716c-1.08,0-1.536,0.984-1.62,1.716H289.624z"/>
			<path d="M296.968,58.008v7.02c0,0.516,0.012,1.104,0.048,1.5h-0.948l-0.048-1.008h-0.023c-0.324,0.648-1.021,1.14-1.969,1.14
				c-1.403,0-2.496-1.188-2.496-2.952c-0.012-1.944,1.2-3.12,2.604-3.12c0.9,0,1.5,0.42,1.752,0.876h0.024v-3.456H296.968z
				 M295.912,63.084c0-0.144-0.013-0.312-0.049-0.456c-0.155-0.66-0.731-1.212-1.523-1.212c-1.092,0-1.74,0.96-1.74,2.232
				c0,1.188,0.588,2.16,1.716,2.16c0.708,0,1.356-0.48,1.548-1.26c0.036-0.144,0.049-0.288,0.049-0.456V63.084z"/>
			<path d="M301.287,58.44h4.356v0.876h-3.3v2.688h3.048v0.864h-3.048v3.66h-1.057V58.44z"/>
			<path d="M309.111,66.66c-1.56,0-2.784-1.152-2.784-2.988c0-1.944,1.284-3.084,2.88-3.084c1.669,0,2.797,1.212,2.797,2.976
				c0,2.16-1.5,3.096-2.881,3.096H309.111z M309.147,65.868c1.008,0,1.764-0.948,1.764-2.268c0-0.984-0.491-2.22-1.739-2.22
				c-1.236,0-1.776,1.152-1.776,2.256c0,1.272,0.72,2.232,1.74,2.232H309.147z"/>
			<path d="M318.195,64.944c0,0.6,0.012,1.128,0.048,1.584h-0.936l-0.061-0.948h-0.023c-0.264,0.468-0.888,1.08-1.92,1.08
				c-0.912,0-2.004-0.516-2.004-2.544V60.72h1.056v3.204c0,1.104,0.348,1.86,1.296,1.86c0.708,0,1.2-0.492,1.393-0.972
				c0.06-0.144,0.096-0.336,0.096-0.54V60.72h1.056V64.944z"/>
			<path d="M319.959,62.532c0-0.684-0.012-1.272-0.048-1.812h0.924l0.049,1.14h0.036c0.264-0.78,0.911-1.272,1.619-1.272
				c0.108,0,0.192,0.012,0.288,0.036v0.984c-0.12-0.012-0.228-0.024-0.372-0.024c-0.744,0-1.271,0.564-1.416,1.344
				c-0.023,0.156-0.035,0.324-0.035,0.504v3.096h-1.057L319.959,62.532z"/>
			<path d="M325.432,59.328v1.392h1.512v0.804h-1.512v3.132c0,0.72,0.203,1.128,0.792,1.128c0.288,0,0.456-0.024,0.611-0.072
				l0.048,0.804c-0.203,0.072-0.527,0.144-0.936,0.144c-0.492,0-0.888-0.168-1.14-0.444c-0.288-0.324-0.408-0.84-0.408-1.524v-3.168
				h-0.9V60.72h0.9v-1.068L325.432,59.328z"/>
			<path d="M328.131,58.008h1.057v3.624h0.023c0.168-0.3,0.433-0.576,0.756-0.744c0.313-0.192,0.685-0.3,1.08-0.3
				c0.78,0,2.028,0.48,2.028,2.484v3.456h-1.056v-3.336c0-0.948-0.349-1.728-1.345-1.728c-0.684,0-1.212,0.48-1.416,1.056
				c-0.06,0.144-0.071,0.3-0.071,0.504v3.504h-1.057V58.008z"/>
		</g>
		<g>
			<path d="M29.1,162.7c-0.06-1.128-0.132-2.496-0.132-3.492h-0.024c-0.288,0.936-0.612,1.956-1.02,3.072l-1.428,3.924h-0.792
				l-1.32-3.852c-0.384-1.152-0.696-2.184-0.924-3.144h-0.024c-0.024,1.008-0.084,2.352-0.156,3.576l-0.216,3.468h-0.996
				l0.564-8.088h1.332l1.38,3.912c0.336,0.996,0.6,1.884,0.816,2.724h0.024c0.216-0.816,0.504-1.704,0.864-2.724l1.44-3.912h1.332
				l0.504,8.088h-1.032L29.1,162.7z"/>
			<path d="M32.556,159.376c-0.396,0-0.66-0.312-0.66-0.684s0.276-0.672,0.684-0.672c0.408,0,0.672,0.3,0.672,0.672
				s-0.264,0.684-0.684,0.684H32.556z M32.052,166.252v-5.808h1.056v5.808H32.052z"/>
			<path d="M34.86,162.016c0-0.612-0.012-1.092-0.048-1.572h0.936l0.06,0.948h0.024c0.288-0.54,0.96-1.08,1.92-1.08
				c0.804,0,2.052,0.48,2.052,2.472v3.468h-1.056v-3.348c0-0.936-0.348-1.728-1.344-1.728c-0.684,0-1.224,0.492-1.416,1.08
				c-0.048,0.132-0.072,0.324-0.072,0.492v3.504H34.86V162.016z"/>
			<path d="M43.884,166.384c-1.56,0-2.784-1.152-2.784-2.988c0-1.944,1.284-3.084,2.88-3.084c1.668,0,2.796,1.212,2.796,2.976
				c0,2.16-1.5,3.096-2.88,3.096H43.884z M43.919,165.592c1.008,0,1.764-0.948,1.764-2.268c0-0.984-0.492-2.22-1.74-2.22
				c-1.236,0-1.776,1.152-1.776,2.256c0,1.272,0.72,2.232,1.74,2.232H43.919z"/>
			<path d="M48.12,162.256c0-0.684-0.012-1.272-0.048-1.812h0.924l0.048,1.14h0.036c0.264-0.78,0.912-1.272,1.62-1.272
				c0.108,0,0.192,0.012,0.288,0.036v0.984c-0.12-0.012-0.228-0.024-0.372-0.024c-0.744,0-1.272,0.564-1.416,1.344
				c-0.024,0.156-0.036,0.324-0.036,0.504v3.096h-1.056L48.12,162.256z"/>
			<path d="M54.479,164.98c0.468,0.3,1.14,0.528,1.86,0.528c1.068,0,1.692-0.552,1.692-1.38c0-0.744-0.432-1.188-1.524-1.596
				c-1.32-0.48-2.136-1.176-2.136-2.304c0-1.26,1.044-2.196,2.616-2.196c0.816,0,1.428,0.192,1.776,0.396l-0.288,0.852
				c-0.252-0.156-0.792-0.384-1.524-0.384c-1.104,0-1.524,0.66-1.524,1.212c0,0.756,0.492,1.128,1.608,1.56
				c1.368,0.54,2.052,1.188,2.052,2.376c0,1.248-0.912,2.34-2.82,2.34c-0.78,0-1.632-0.24-2.064-0.528L54.479,164.98z"/>
			<path d="M61.163,163.528c0.024,1.428,0.924,2.016,1.98,2.016c0.756,0,1.224-0.132,1.608-0.288L64.943,166
				c-0.372,0.168-1.02,0.372-1.944,0.372c-1.776,0-2.856-1.188-2.856-2.928c0-1.764,1.044-3.144,2.736-3.144
				c1.896,0,2.388,1.668,2.388,2.736c0,0.216-0.012,0.384-0.036,0.504L61.163,163.528z M64.247,162.772
				c0.012-0.66-0.276-1.716-1.452-1.716c-1.08,0-1.536,0.984-1.62,1.716H64.247z"/>
			<path d="M70.715,166.048c-0.276,0.132-0.888,0.336-1.668,0.336c-1.752,0-2.892-1.188-2.892-2.976c0-1.788,1.224-3.096,3.12-3.096
				c0.624,0,1.176,0.156,1.464,0.312l-0.24,0.804c-0.252-0.132-0.648-0.276-1.224-0.276c-1.332,0-2.052,0.996-2.052,2.208
				c0,1.344,0.864,2.172,2.016,2.172c0.6,0,0.996-0.144,1.296-0.276L70.715,166.048z"/>
			<path d="M74.243,166.384c-1.56,0-2.784-1.152-2.784-2.988c0-1.944,1.284-3.084,2.88-3.084c1.668,0,2.796,1.212,2.796,2.976
				c0,2.16-1.5,3.096-2.88,3.096H74.243z M74.279,165.592c1.008,0,1.764-0.948,1.764-2.268c0-0.984-0.492-2.22-1.74-2.22
				c-1.236,0-1.776,1.152-1.776,2.256c0,1.272,0.72,2.232,1.74,2.232H74.279z"/>
			<path d="M78.467,162.016c0-0.612-0.012-1.092-0.048-1.572h0.936l0.06,0.948h0.024c0.288-0.54,0.96-1.08,1.92-1.08
				c0.804,0,2.052,0.48,2.052,2.472v3.468h-1.056v-3.348c0-0.936-0.348-1.728-1.344-1.728c-0.684,0-1.224,0.492-1.416,1.08
				c-0.048,0.132-0.072,0.324-0.072,0.492v3.504h-1.056V162.016z"/>
			<path d="M90.143,157.732v7.02c0,0.516,0.012,1.104,0.048,1.5h-0.948l-0.048-1.008h-0.024c-0.324,0.648-1.02,1.14-1.968,1.14
				c-1.404,0-2.496-1.188-2.496-2.952c-0.012-1.944,1.2-3.12,2.604-3.12c0.9,0,1.5,0.42,1.752,0.876h0.024v-3.456H90.143z
				 M89.087,162.808c0-0.144-0.012-0.312-0.048-0.456c-0.156-0.66-0.732-1.212-1.524-1.212c-1.092,0-1.74,0.96-1.74,2.232
				c0,1.188,0.588,2.16,1.716,2.16c0.708,0,1.356-0.48,1.548-1.26c0.036-0.144,0.048-0.288,0.048-0.456V162.808z"/>
			<path d="M112.102,165.184c0.324,0.192,0.876,0.408,1.404,0.408c0.756,0,1.116-0.372,1.116-0.864c0-0.504-0.3-0.78-1.068-1.068
				c-1.056-0.384-1.548-0.948-1.548-1.644c0-0.936,0.768-1.704,2.004-1.704c0.588,0,1.104,0.156,1.416,0.36l-0.252,0.756
				c-0.228-0.132-0.648-0.336-1.188-0.336c-0.624,0-0.96,0.36-0.96,0.792c0,0.492,0.336,0.708,1.092,0.996
				c0.996,0.372,1.524,0.876,1.524,1.752c0,1.032-0.804,1.752-2.16,1.752c-0.636,0-1.224-0.168-1.632-0.408L112.102,165.184z"/>
			<path d="M119.362,166.384c-1.56,0-2.784-1.152-2.784-2.988c0-1.944,1.284-3.084,2.88-3.084c1.668,0,2.796,1.212,2.796,2.976
				c0,2.16-1.5,3.096-2.88,3.096H119.362z M119.398,165.592c1.008,0,1.764-0.948,1.764-2.268c0-0.984-0.492-2.22-1.74-2.22
				c-1.236,0-1.776,1.152-1.776,2.256c0,1.272,0.72,2.232,1.74,2.232H119.398z"/>
			<path d="M128.446,164.668c0,0.6,0.012,1.128,0.048,1.584h-0.936l-0.06-0.948h-0.024c-0.264,0.468-0.888,1.08-1.92,1.08
				c-0.912,0-2.004-0.516-2.004-2.544v-3.396h1.056v3.204c0,1.104,0.348,1.86,1.296,1.86c0.708,0,1.2-0.492,1.392-0.972
				c0.06-0.144,0.096-0.336,0.096-0.54v-3.552h1.056V164.668z"/>
			<path d="M130.198,162.016c0-0.612-0.012-1.092-0.048-1.572h0.936l0.06,0.948h0.024c0.288-0.54,0.96-1.08,1.92-1.08
				c0.804,0,2.052,0.48,2.052,2.472v3.468h-1.056v-3.348c0-0.936-0.348-1.728-1.344-1.728c-0.684,0-1.224,0.492-1.416,1.08
				c-0.048,0.132-0.072,0.324-0.072,0.492v3.504h-1.056V162.016z"/>
			<path d="M141.874,157.732v7.02c0,0.516,0.012,1.104,0.048,1.5h-0.948l-0.048-1.008h-0.024c-0.324,0.648-1.02,1.14-1.968,1.14
				c-1.404,0-2.496-1.188-2.496-2.952c-0.012-1.944,1.2-3.12,2.604-3.12c0.9,0,1.5,0.42,1.752,0.876h0.024v-3.456H141.874z
				 M140.818,162.808c0-0.144-0.012-0.312-0.048-0.456c-0.156-0.66-0.732-1.212-1.524-1.212c-1.092,0-1.74,0.96-1.74,2.232
				c0,1.188,0.588,2.16,1.716,2.16c0.708,0,1.356-0.48,1.548-1.26c0.036-0.144,0.048-0.288,0.048-0.456V162.808z"/>
			<path d="M143.482,165.184c0.324,0.192,0.876,0.408,1.404,0.408c0.756,0,1.116-0.372,1.116-0.864c0-0.504-0.3-0.78-1.068-1.068
				c-1.056-0.384-1.548-0.948-1.548-1.644c0-0.936,0.768-1.704,2.004-1.704c0.588,0,1.104,0.156,1.416,0.36l-0.252,0.756
				c-0.228-0.132-0.648-0.336-1.188-0.336c-0.624,0-0.96,0.36-0.96,0.792c0,0.492,0.336,0.708,1.092,0.996
				c0.996,0.372,1.524,0.876,1.524,1.752c0,1.032-0.804,1.752-2.16,1.752c-0.636,0-1.224-0.168-1.632-0.408L143.482,165.184z"/>
			<path d="M152.193,159.052v1.392h1.512v0.804h-1.512v3.132c0,0.72,0.204,1.128,0.792,1.128c0.288,0,0.456-0.024,0.612-0.072
				l0.048,0.804c-0.204,0.072-0.528,0.144-0.936,0.144c-0.492,0-0.888-0.168-1.14-0.444c-0.288-0.324-0.408-0.84-0.408-1.524v-3.168
				h-0.9v-0.804h0.9v-1.068L152.193,159.052z"/>
			<path d="M154.894,157.732h1.056v3.624h0.024c0.168-0.3,0.432-0.576,0.756-0.744c0.312-0.192,0.684-0.3,1.08-0.3
				c0.78,0,2.028,0.48,2.028,2.484v3.456h-1.056v-3.336c0-0.948-0.348-1.728-1.344-1.728c-0.684,0-1.212,0.48-1.416,1.056
				c-0.06,0.144-0.072,0.3-0.072,0.504v3.504h-1.056V157.732z"/>
			<path d="M162.153,163.528c0.024,1.428,0.924,2.016,1.98,2.016c0.756,0,1.224-0.132,1.608-0.288l0.192,0.744
				c-0.372,0.168-1.02,0.372-1.944,0.372c-1.776,0-2.856-1.188-2.856-2.928c0-1.764,1.044-3.144,2.736-3.144
				c1.896,0,2.388,1.668,2.388,2.736c0,0.216-0.012,0.384-0.036,0.504L162.153,163.528z M165.237,162.772
				c0.012-0.66-0.276-1.716-1.452-1.716c-1.08,0-1.536,0.984-1.62,1.716H165.237z"/>
			<path d="M169.965,165.184c0.324,0.192,0.876,0.408,1.404,0.408c0.756,0,1.116-0.372,1.116-0.864c0-0.504-0.3-0.78-1.068-1.068
				c-1.056-0.384-1.548-0.948-1.548-1.644c0-0.936,0.768-1.704,2.004-1.704c0.588,0,1.104,0.156,1.416,0.36l-0.252,0.756
				c-0.228-0.132-0.648-0.336-1.188-0.336c-0.624,0-0.96,0.36-0.96,0.792c0,0.492,0.336,0.708,1.092,0.996
				c0.996,0.372,1.524,0.876,1.524,1.752c0,1.032-0.804,1.752-2.16,1.752c-0.636,0-1.224-0.168-1.632-0.408L169.965,165.184z"/>
			<path d="M178.953,164.86c0,0.504,0.024,0.996,0.084,1.392h-0.948l-0.096-0.732h-0.036c-0.312,0.456-0.948,0.864-1.776,0.864
				c-1.176,0-1.776-0.828-1.776-1.668c0-1.404,1.248-2.172,3.492-2.16v-0.12c0-0.48-0.132-1.356-1.32-1.344
				c-0.552,0-1.116,0.156-1.524,0.432l-0.24-0.708c0.48-0.3,1.188-0.504,1.92-0.504c1.788,0,2.22,1.212,2.22,2.376V164.86z
				 M177.921,163.288c-1.152-0.024-2.46,0.18-2.46,1.308c0,0.696,0.456,1.008,0.984,1.008c0.768,0,1.26-0.48,1.428-0.972
				c0.036-0.108,0.048-0.228,0.048-0.336V163.288z"/>
			<path d="M180.645,162.016c0-0.612-0.024-1.092-0.048-1.572h0.924l0.048,0.936h0.036c0.324-0.552,0.864-1.068,1.836-1.068
				c0.78,0,1.38,0.48,1.632,1.164h0.024c0.18-0.336,0.42-0.576,0.66-0.756c0.348-0.264,0.72-0.408,1.272-0.408
				c0.78,0,1.92,0.504,1.92,2.52v3.42h-1.032v-3.288c0-1.128-0.42-1.788-1.26-1.788c-0.612,0-1.068,0.444-1.26,0.948
				c-0.048,0.156-0.084,0.348-0.084,0.528v3.6h-1.032v-3.48c0-0.936-0.408-1.596-1.212-1.596c-0.648,0-1.14,0.528-1.308,1.056
				c-0.06,0.156-0.084,0.336-0.084,0.516v3.504h-1.032V162.016z"/>
			<path d="M191.253,163.528c0.024,1.428,0.924,2.016,1.98,2.016c0.756,0,1.224-0.132,1.608-0.288l0.192,0.744
				c-0.372,0.168-1.02,0.372-1.944,0.372c-1.776,0-2.856-1.188-2.856-2.928c0-1.764,1.044-3.144,2.736-3.144
				c1.896,0,2.388,1.668,2.388,2.736c0,0.216-0.012,0.384-0.036,0.504L191.253,163.528z M194.337,162.772
				c0.012-0.66-0.276-1.716-1.452-1.716c-1.08,0-1.536,0.984-1.62,1.716H194.337z"/>
			<path d="M203.301,164.86c0,0.504,0.024,0.996,0.084,1.392h-0.948l-0.096-0.732h-0.036c-0.312,0.456-0.948,0.864-1.776,0.864
				c-1.176,0-1.776-0.828-1.776-1.668c0-1.404,1.248-2.172,3.492-2.16v-0.12c0-0.48-0.132-1.356-1.32-1.344
				c-0.552,0-1.116,0.156-1.524,0.432l-0.24-0.708c0.48-0.3,1.188-0.504,1.92-0.504c1.788,0,2.22,1.212,2.22,2.376V164.86z
				 M202.269,163.288c-1.152-0.024-2.46,0.18-2.46,1.308c0,0.696,0.456,1.008,0.984,1.008c0.768,0,1.26-0.48,1.428-0.972
				c0.036-0.108,0.048-0.228,0.048-0.336V163.288z"/>
			<path d="M204.849,165.184c0.324,0.192,0.876,0.408,1.404,0.408c0.756,0,1.116-0.372,1.116-0.864c0-0.504-0.3-0.78-1.068-1.068
				c-1.056-0.384-1.548-0.948-1.548-1.644c0-0.936,0.768-1.704,2.004-1.704c0.588,0,1.104,0.156,1.416,0.36l-0.252,0.756
				c-0.228-0.132-0.648-0.336-1.188-0.336c-0.624,0-0.96,0.36-0.96,0.792c0,0.492,0.336,0.708,1.092,0.996
				c0.996,0.372,1.524,0.876,1.524,1.752c0,1.032-0.804,1.752-2.16,1.752c-0.636,0-1.224-0.168-1.632-0.408L204.849,165.184z"/>
			<path d="M239.592,163.708l-0.84,2.544h-1.08l2.748-8.088h1.26l2.76,8.088h-1.116l-0.864-2.544H239.592z M242.244,162.892
				l-0.804-2.328c-0.168-0.528-0.288-1.008-0.408-1.476h-0.036c-0.108,0.468-0.24,0.972-0.396,1.464l-0.792,2.34H242.244z"/>
			<path d="M250.308,164.668c0,0.6,0.012,1.128,0.048,1.584h-0.936l-0.06-0.948h-0.024c-0.264,0.468-0.888,1.08-1.92,1.08
				c-0.912,0-2.004-0.516-2.004-2.544v-3.396h1.056v3.204c0,1.104,0.348,1.86,1.296,1.86c0.708,0,1.2-0.492,1.392-0.972
				c0.06-0.144,0.096-0.336,0.096-0.54v-3.552h1.056V164.668z"/>
			<path d="M257.028,165.4c0,1.344-0.276,2.148-0.828,2.664c-0.576,0.516-1.392,0.696-2.124,0.696c-0.696,0-1.464-0.168-1.932-0.48
				l0.264-0.816c0.384,0.252,0.984,0.468,1.704,0.468c1.08,0,1.872-0.564,1.872-2.04v-0.636h-0.024
				c-0.312,0.54-0.948,0.972-1.848,0.972c-1.44,0-2.472-1.224-2.472-2.844c0-1.968,1.284-3.072,2.628-3.072
				c1.008,0,1.548,0.516,1.812,0.996h0.024l0.036-0.864h0.936c-0.036,0.408-0.048,0.876-0.048,1.584V165.4z M255.972,162.724
				c0-0.168-0.012-0.324-0.06-0.468c-0.192-0.624-0.696-1.128-1.476-1.128c-1.008,0-1.728,0.852-1.728,2.208
				c0,1.128,0.588,2.088,1.716,2.088c0.66,0,1.248-0.408,1.464-1.092c0.06-0.168,0.084-0.372,0.084-0.564V162.724z"/>
			<path d="M258.768,162.016c0-0.612-0.024-1.092-0.048-1.572h0.924l0.048,0.936h0.036c0.324-0.552,0.864-1.068,1.836-1.068
				c0.78,0,1.38,0.48,1.632,1.164h0.024c0.18-0.336,0.42-0.576,0.66-0.756c0.348-0.264,0.72-0.408,1.272-0.408
				c0.779,0,1.92,0.504,1.92,2.52v3.42h-1.032v-3.288c0-1.128-0.42-1.788-1.26-1.788c-0.612,0-1.068,0.444-1.26,0.948
				c-0.048,0.156-0.084,0.348-0.084,0.528v3.6h-1.032v-3.48c0-0.936-0.408-1.596-1.212-1.596c-0.648,0-1.14,0.528-1.308,1.056
				c-0.06,0.156-0.084,0.336-0.084,0.516v3.504h-1.032V162.016z"/>
			<path d="M269.376,163.528c0.024,1.428,0.924,2.016,1.98,2.016c0.756,0,1.224-0.132,1.607-0.288l0.192,0.744
				c-0.372,0.168-1.021,0.372-1.944,0.372c-1.776,0-2.856-1.188-2.856-2.928c0-1.764,1.045-3.144,2.736-3.144
				c1.896,0,2.389,1.668,2.389,2.736c0,0.216-0.013,0.384-0.036,0.504L269.376,163.528z M272.46,162.772
				c0.012-0.66-0.276-1.716-1.452-1.716c-1.08,0-1.536,0.984-1.62,1.716H272.46z"/>
			<path d="M274.788,162.016c0-0.612-0.013-1.092-0.048-1.572h0.936l0.061,0.948h0.023c0.288-0.54,0.96-1.08,1.92-1.08
				c0.805,0,2.052,0.48,2.052,2.472v3.468h-1.056v-3.348c0-0.936-0.348-1.728-1.344-1.728c-0.685,0-1.225,0.492-1.416,1.08
				c-0.048,0.132-0.072,0.324-0.072,0.492v3.504h-1.056V162.016z"/>
			<path d="M282.672,159.052v1.392h1.512v0.804h-1.512v3.132c0,0.72,0.204,1.128,0.792,1.128c0.288,0,0.456-0.024,0.612-0.072
				l0.048,0.804c-0.204,0.072-0.528,0.144-0.937,0.144c-0.492,0-0.888-0.168-1.14-0.444c-0.288-0.324-0.408-0.84-0.408-1.524v-3.168
				h-0.899v-0.804h0.899v-1.068L282.672,159.052z"/>
			<path d="M285.899,163.528c0.024,1.428,0.925,2.016,1.98,2.016c0.756,0,1.224-0.132,1.608-0.288L289.68,166
				c-0.372,0.168-1.02,0.372-1.944,0.372c-1.775,0-2.855-1.188-2.855-2.928c0-1.764,1.044-3.144,2.736-3.144
				c1.896,0,2.388,1.668,2.388,2.736c0,0.216-0.012,0.384-0.036,0.504L285.899,163.528z M288.983,162.772
				c0.013-0.66-0.275-1.716-1.451-1.716c-1.08,0-1.536,0.984-1.62,1.716H288.983z"/>
			<path d="M296.328,157.732v7.02c0,0.516,0.012,1.104,0.048,1.5h-0.948l-0.048-1.008h-0.024c-0.324,0.648-1.02,1.14-1.968,1.14
				c-1.404,0-2.496-1.188-2.496-2.952c-0.012-1.944,1.2-3.12,2.604-3.12c0.899,0,1.5,0.42,1.752,0.876h0.023v-3.456H296.328z
				 M295.271,162.808c0-0.144-0.012-0.312-0.048-0.456c-0.156-0.66-0.731-1.212-1.524-1.212c-1.092,0-1.739,0.96-1.739,2.232
				c0,1.188,0.588,2.16,1.716,2.16c0.708,0,1.355-0.48,1.548-1.26c0.036-0.144,0.048-0.288,0.048-0.456V162.808z"/>
			<path d="M300.659,158.272c0.504-0.096,1.164-0.168,2.004-0.168c1.032,0,1.788,0.24,2.269,0.672
				c0.444,0.384,0.72,0.972,0.72,1.692c0,0.732-0.216,1.308-0.636,1.728c-0.552,0.588-1.452,0.888-2.472,0.888
				c-0.313,0-0.601-0.012-0.841-0.072v3.24h-1.044V158.272z M301.703,162.16c0.229,0.06,0.528,0.084,0.864,0.084
				c1.272,0,2.028-0.624,2.028-1.716c0-1.08-0.756-1.596-1.908-1.596c-0.456,0-0.804,0.048-0.984,0.084V162.16z"/>
			<path d="M306.815,162.256c0-0.684-0.012-1.272-0.048-1.812h0.924l0.048,1.14h0.036c0.264-0.78,0.912-1.272,1.62-1.272
				c0.108,0,0.192,0.012,0.288,0.036v0.984c-0.12-0.012-0.229-0.024-0.372-0.024c-0.744,0-1.272,0.564-1.416,1.344
				c-0.024,0.156-0.036,0.324-0.036,0.504v3.096h-1.056L306.815,162.256z"/>
			<path d="M311.279,159.376c-0.396,0-0.66-0.312-0.66-0.684s0.276-0.672,0.685-0.672c0.407,0,0.672,0.3,0.672,0.672
				s-0.265,0.684-0.685,0.684H311.279z M310.775,166.252v-5.808h1.056v5.808H310.775z"/>
			<path d="M313.583,162.016c0-0.612-0.023-1.092-0.048-1.572h0.924l0.049,0.936h0.035c0.324-0.552,0.864-1.068,1.836-1.068
				c0.78,0,1.381,0.48,1.633,1.164h0.023c0.181-0.336,0.42-0.576,0.66-0.756c0.348-0.264,0.72-0.408,1.272-0.408
				c0.779,0,1.92,0.504,1.92,2.52v3.42h-1.032v-3.288c0-1.128-0.42-1.788-1.26-1.788c-0.612,0-1.068,0.444-1.261,0.948
				c-0.048,0.156-0.084,0.348-0.084,0.528v3.6h-1.031v-3.48c0-0.936-0.408-1.596-1.212-1.596c-0.648,0-1.141,0.528-1.309,1.056
				c-0.06,0.156-0.084,0.336-0.084,0.516v3.504h-1.032V162.016z"/>
			<path d="M324.191,163.528c0.023,1.428,0.924,2.016,1.979,2.016c0.757,0,1.225-0.132,1.608-0.288l0.192,0.744
				c-0.372,0.168-1.021,0.372-1.944,0.372c-1.776,0-2.856-1.188-2.856-2.928c0-1.764,1.044-3.144,2.736-3.144
				c1.896,0,2.388,1.668,2.388,2.736c0,0.216-0.012,0.384-0.035,0.504L324.191,163.528z M327.275,162.772
				c0.012-0.66-0.276-1.716-1.452-1.716c-1.08,0-1.536,0.984-1.62,1.716H327.275z"/>
		</g>
		<g>
			<path d="M82.594,16.175c2.664,0.024,5.184,1.032,5.376,3.264c0.144,1.632-2.016,3.12-4.68,3.12
				c-2.688-0.024-5.184-1.008-5.4-3.24C77.746,17.663,79.93,16.175,82.594,16.175z M83.242,22.007c1.152,0,1.896-1.104,1.776-1.992
				c-0.264-1.752-0.864-3.168-2.448-3.168c-1.152,0-1.824,1.128-1.68,2.016C81.154,20.615,81.658,22.007,83.242,22.007z"/>
		</g>
		<g>
			<path fill="none" stroke="#000000" d="M229.027,5.556h99.926"/>
			<path fill="none" stroke="#000000" d="M229.027,20.668h99.926"/>
			<path fill="none" stroke="#000000" d="M229.077,27.791h99.925"/>
			<path fill="none" stroke="#000000" d="M229,35.174h99.926"/>
			<path fill="none" stroke="#000000" d="M229,12.81h99.926"/>
		</g>
		<g>
			<path d="M245.876,34.768c-4.944-2.352-5.736-5.376-5.952-8.472c-0.24-3.36,1.896-6.768,3.888-8.664
				c1.152-1.08,2.4-2.136,3.888-3.264c-0.048-0.84-0.24-1.176-0.336-2.376c-0.024-0.504-0.336-2.856,0.168-5.568
				c0.312-1.608,2.328-5.4,3.72-5.424c1.08-0.024,2.736,4.296,2.784,6.456c0.072,3.336-0.72,4.848-1.704,6.576
				c-0.504,0.864-1.032,1.464-1.584,2.136c-0.576,0.696-1.224,1.104-1.824,1.632c0,0,0.768,4.344,0.792,4.656
				c1.536-0.192,3.408,0.36,4.08,0.84c1.704,1.272,2.352,3.024,2.472,4.728c0.216,2.712-1.272,5.568-4.56,6.936
				c0,0,0.504,3.456,0.624,4.176c0.264,1.896,0.216,3.096-0.192,3.864c-0.696,1.296-1.824,2.496-4.008,2.64
				c-1.68,0.096-4.992-0.744-5.16-3.384c-0.096-1.56,0.6-3.24,2.496-3.36c1.152-0.096,2.52,0.864,2.616,2.232
				c0.096,1.176-0.672,2.4-2.664,2.952c0.312,0.432,1.248,0.936,2.592,0.936c1.392,0,2.832-0.936,3.528-2.184
				c0.432-0.816,0.384-2.28,0.216-3.624c-0.072-0.456-0.648-4.08-0.648-4.08C249.332,35.416,246.884,35.248,245.876,34.768z
				 M246.356,29.08c0.048,1.152,1.008,2.496,1.896,2.952c-0.12,0.072-0.24,0.264-0.24,0.264c-0.984-0.48-1.824-1.272-2.04-1.56
				c-0.696-0.936-0.984-1.464-1.08-2.88c-0.096-1.32,0.624-3.096,2.232-4.344c0.84-0.624,1.248-0.768,1.968-0.936l-0.72-4.344
				c-0.744,0.432-3.816,2.904-5.112,4.92c-1.152,1.8-1.848,3.24-1.704,5.016c0.288,4.008,4.68,7.296,9.432,6.168
				c0,0-1.416-8.52-1.392-8.52C246.98,25.912,246.284,27.928,246.356,29.08z M248.3,13.864c2.088-1.632,4.92-4.704,4.752-7.08
				c-0.048-0.744-0.36-2.088-1.44-2.064C249.14,4.744,247.748,9.904,248.3,13.864z M251.564,34.144
				c2.76-0.936,2.88-3.312,2.784-4.728c-0.096-1.176-0.624-3.816-4.128-3.648L251.564,34.144z"/>
		</g>
		<g>
			<path d="M275.594,25.175c2.664,0.024,5.184,1.032,5.376,3.264c0.144,1.632-2.016,3.12-4.68,3.12
				c-2.688-0.024-5.185-1.008-5.4-3.24C270.746,26.663,272.93,25.175,275.594,25.175z M276.241,31.007
				c1.152,0,1.896-1.104,1.776-1.992c-0.264-1.752-0.864-3.168-2.448-3.168c-1.151,0-1.823,1.128-1.68,2.016
				C274.153,29.615,274.657,31.007,276.241,31.007z"/>
		</g>
		<g>
			<path d="M311.594,13.175c2.664,0.024,5.184,1.032,5.376,3.264c0.144,1.632-2.016,3.12-4.68,3.12
				c-2.688-0.024-5.185-1.008-5.4-3.24C306.746,14.663,308.93,13.175,311.594,13.175z M312.241,19.007
				c1.152,0,1.896-1.104,1.776-1.992c-0.264-1.752-0.864-3.168-2.448-3.168c-1.151,0-1.823,1.128-1.68,2.016
				C310.153,17.615,310.657,19.007,312.241,19.007z"/>
		</g>
		<g>
			<path fill="none" stroke="#000000" d="M2.027,111.556h99.926"/>
			<path fill="none" stroke="#000000" d="M2.027,126.668h99.926"/>
			<path fill="none" stroke="#000000" d="M2.077,133.791h99.926"/>
			<path fill="none" stroke="#000000" d="M2,141.174h99.926"/>
			<path fill="none" stroke="#000000" d="M2,118.81h99.926"/>
		</g>
		<g>
			<path d="M18.876,140.768c-4.944-2.352-5.736-5.376-5.952-8.472c-0.24-3.36,1.896-6.768,3.888-8.664
				c1.152-1.08,2.4-2.136,3.888-3.264c-0.048-0.84-0.24-1.176-0.336-2.376c-0.024-0.504-0.336-2.856,0.168-5.568
				c0.312-1.608,2.328-5.4,3.72-5.424c1.08-0.024,2.736,4.296,2.784,6.456c0.072,3.336-0.72,4.848-1.704,6.576
				c-0.504,0.864-1.032,1.464-1.584,2.136c-0.576,0.696-1.224,1.104-1.824,1.632c0,0,0.768,4.344,0.792,4.656
				c1.536-0.192,3.408,0.36,4.08,0.84c1.704,1.272,2.352,3.024,2.472,4.728c0.216,2.712-1.272,5.568-4.56,6.936
				c0,0,0.504,3.456,0.624,4.176c0.264,1.896,0.216,3.096-0.192,3.864c-0.696,1.296-1.824,2.496-4.008,2.64
				c-1.68,0.096-4.992-0.744-5.16-3.384c-0.096-1.56,0.6-3.24,2.496-3.36c1.152-0.096,2.52,0.864,2.616,2.232
				c0.096,1.176-0.672,2.4-2.664,2.952c0.312,0.432,1.248,0.936,2.592,0.936c1.392,0,2.832-0.936,3.528-2.184
				c0.432-0.816,0.384-2.28,0.216-3.624c-0.072-0.456-0.648-4.08-0.648-4.08C22.332,141.416,19.884,141.248,18.876,140.768z
				 M19.356,135.08c0.048,1.152,1.008,2.496,1.896,2.952c-0.12,0.072-0.24,0.264-0.24,0.264c-0.984-0.48-1.824-1.272-2.04-1.56
				c-0.696-0.936-0.984-1.464-1.08-2.88c-0.096-1.32,0.624-3.096,2.232-4.344c0.84-0.624,1.248-0.768,1.968-0.936l-0.72-4.344
				c-0.744,0.432-3.816,2.904-5.112,4.92c-1.152,1.8-1.848,3.24-1.704,5.016c0.288,4.008,4.68,7.296,9.432,6.168
				c0,0-1.416-8.52-1.392-8.52C19.98,131.912,19.284,133.928,19.356,135.08z M21.3,119.864c2.088-1.632,4.92-4.704,4.752-7.08
				c-0.048-0.744-0.36-2.088-1.44-2.064C22.14,110.744,20.748,115.904,21.3,119.864z M24.564,140.144
				c2.76-0.936,2.88-3.312,2.784-4.728c-0.096-1.176-0.624-3.816-4.128-3.648L24.564,140.144z"/>
		</g>
		<g>
			<path d="M49.594,123.175c2.664,0.024,5.184,1.032,5.376,3.264c0.144,1.632-2.016,3.12-4.68,3.12
				c-2.688-0.024-5.184-1.008-5.4-3.24C44.746,124.663,46.93,123.175,49.594,123.175z M50.242,129.007
				c1.152,0,1.896-1.104,1.776-1.992c-0.264-1.752-0.864-3.168-2.448-3.168c-1.152,0-1.824,1.128-1.68,2.016
				C48.154,127.615,48.658,129.007,50.242,129.007z"/>
		</g>
		<g>
			<path d="M84.594,119.175c2.664,0.024,5.184,1.032,5.376,3.264c0.144,1.632-2.016,3.12-4.68,3.12
				c-2.688-0.024-5.184-1.008-5.4-3.24C79.746,120.663,81.93,119.175,84.594,119.175z M85.242,125.007
				c1.152,0,1.896-1.104,1.776-1.992c-0.264-1.752-0.864-3.168-2.448-3.168c-1.152,0-1.824,1.128-1.68,2.016
				C83.154,123.615,83.658,125.007,85.242,125.007z"/>
		</g>
		<g>
			<path fill="none" stroke="#000000" d="M231.027,109.556h99.926"/>
			<path fill="none" stroke="#000000" d="M231.027,124.668h99.926"/>
			<path fill="none" stroke="#000000" d="M231.077,131.791h99.925"/>
			<path fill="none" stroke="#000000" d="M231,139.174h99.926"/>
			<path fill="none" stroke="#000000" d="M231,116.81h99.926"/>
		</g>
		<g>
			<path d="M247.876,138.768c-4.944-2.352-5.736-5.376-5.952-8.472c-0.24-3.36,1.896-6.768,3.888-8.664
				c1.152-1.08,2.4-2.136,3.888-3.264c-0.048-0.84-0.24-1.176-0.336-2.376c-0.024-0.504-0.336-2.856,0.168-5.568
				c0.312-1.608,2.328-5.4,3.72-5.424c1.08-0.024,2.736,4.296,2.784,6.456c0.072,3.336-0.72,4.848-1.704,6.576
				c-0.504,0.864-1.032,1.464-1.584,2.136c-0.576,0.696-1.224,1.104-1.824,1.632c0,0,0.768,4.344,0.792,4.656
				c1.536-0.192,3.408,0.36,4.08,0.84c1.704,1.272,2.352,3.024,2.472,4.728c0.216,2.712-1.272,5.568-4.56,6.936
				c0,0,0.504,3.456,0.624,4.176c0.264,1.896,0.216,3.096-0.192,3.864c-0.696,1.296-1.824,2.496-4.008,2.64
				c-1.68,0.096-4.992-0.744-5.16-3.384c-0.096-1.56,0.6-3.24,2.496-3.36c1.152-0.096,2.52,0.864,2.616,2.232
				c0.096,1.176-0.672,2.4-2.664,2.952c0.312,0.432,1.248,0.936,2.592,0.936c1.392,0,2.832-0.936,3.528-2.184
				c0.432-0.816,0.384-2.28,0.216-3.624c-0.072-0.456-0.648-4.08-0.648-4.08C251.332,139.416,248.884,139.248,247.876,138.768z
				 M248.356,133.08c0.048,1.152,1.008,2.496,1.896,2.952c-0.12,0.072-0.24,0.264-0.24,0.264c-0.984-0.48-1.824-1.272-2.04-1.56
				c-0.696-0.936-0.984-1.464-1.08-2.88c-0.096-1.32,0.624-3.096,2.232-4.344c0.84-0.624,1.248-0.768,1.968-0.936l-0.72-4.344
				c-0.744,0.432-3.816,2.904-5.112,4.92c-1.152,1.8-1.848,3.24-1.704,5.016c0.288,4.008,4.68,7.296,9.432,6.168
				c0,0-1.416-8.52-1.392-8.52C248.98,129.912,248.284,131.928,248.356,133.08z M250.3,117.864c2.088-1.632,4.92-4.704,4.752-7.08
				c-0.048-0.744-0.36-2.088-1.44-2.064C251.14,108.744,249.748,113.904,250.3,117.864z M253.564,138.144
				c2.76-0.936,2.88-3.312,2.784-4.728c-0.096-1.176-0.624-3.816-4.128-3.648L253.564,138.144z"/>
		</g>
		<g>
			<path d="M278.594,121.175c2.664,0.024,5.184,1.032,5.376,3.264c0.144,1.632-2.016,3.12-4.68,3.12
				c-2.688-0.024-5.185-1.008-5.4-3.24C273.746,122.663,275.93,121.175,278.594,121.175z M279.241,127.007
				c1.152,0,1.896-1.104,1.776-1.992c-0.264-1.752-0.864-3.168-2.448-3.168c-1.151,0-1.823,1.128-1.68,2.016
				C277.153,125.615,277.657,127.007,279.241,127.007z"/>
		</g>
		<g>
			<path d="M313.594,121.175c2.664,0.024,5.184,1.032,5.376,3.264c0.144,1.632-2.016,3.12-4.68,3.12
				c-2.688-0.024-5.185-1.008-5.4-3.24C308.746,122.663,310.93,121.175,313.594,121.175z M314.241,127.007
				c1.152,0,1.896-1.104,1.776-1.992c-0.264-1.752-0.864-3.168-2.448-3.168c-1.151,0-1.823,1.128-1.68,2.016
				C312.153,125.615,312.657,127.007,314.241,127.007z"/>
		</g>
	</g>
</svg>
