<?xml version="1.0" encoding="utf-8"?>
<!-- Generator: Adobe Illustrator 10.0, SVG Export Plug-In . SVG Version: 3.0.0 Build 76)  -->
<!DOCTYPE svg PUBLIC "-//W3C//DTD SVG 1.0//EN"    "http://www.w3.org/TR/2001/REC-SVG-20010904/DTD/svg10.dtd" [
	<!ENTITY ns_flows "http://ns.adobe.com/Flows/1.0/">
	<!ENTITY ns_extend "http://ns.adobe.com/Extensibility/1.0/">
	<!ENTITY ns_ai "http://ns.adobe.com/AdobeIllustrator/10.0/">
	<!ENTITY ns_svg "http://www.w3.org/2000/svg">
	<!ENTITY ns_xlink "http://www.w3.org/1999/xlink">
]>
<svg  xmlns:x="&ns_extend;" xmlns:i="&ns_ai;" xmlns:graph="&ns_graphs;"
	 xmlns="&ns_svg;" xmlns:xlink="&ns_xlink;" xmlns:a="http://ns.adobe.com/AdobeSVGViewerExtensions/3.0/" width="215" height="209"
	 viewBox="0.158 -0.068 215 209" overflow="visible" enable-background="new 0.158 -0.068 215 209" xml:space="preserve">
	<g id="Layer_1_2_">
		<path fill="none" stroke="#000000" stroke-width="3" d="M71.068,45.943v161.43"/>
		<path fill="none" stroke="#000000" stroke-width="3" d="M91.996,141.374v65.999"/>
		<path fill="none" stroke="#000000" stroke-width="3" d="M112.051,141.374v65.107"/>
		<path fill="none" stroke="#000000" stroke-width="3" d="M132.107,46.835v161.43"/>
		<path fill="none" stroke="#000000" stroke-width="3" d="M153.035,140.482v66.891"/>
		<path fill="none" stroke="#000000" stroke-width="3" d="M173.361,141.374l-0.252,63.918"/>
		<path fill="none" stroke="#000000" stroke-width="3" d="M192.273,140.482v66.891"/>
		<path fill="none" stroke="#000000" stroke-width="3" d="M212.329,46.835l0.872,160.538"/>
		<path fill="none" stroke="#000000" stroke-width="3" d="M71.068,207.373h143.423"/>
		<path stroke="#000000" stroke-width="3" d="M98.1,139.59H85.892V47.727H98.1V139.59z"/>
		<path stroke="#000000" stroke-width="3" d="M118.155,139.59h-12.208V47.727h12.208V139.59z"/>
		<path stroke="#000000" stroke-width="3" d="M158.267,139.59h-12.208V47.727h12.208V139.59z"/>
		<path stroke="#000000" stroke-width="3" d="M179.194,139.59h-12.208V47.727h12.208V139.59z"/>
		<path stroke="#000000" stroke-width="3" d="M198.377,139.59H186.17V47.727h12.208V139.59z"/>
		<g>
			<path d="M81.577,192.382c-0.364,0.192-1.126,0.384-2.088,0.384c-2.229,0-3.895-1.44-3.895-4.104c0-2.544,1.678-4.248,4.13-4.248
				c0.974,0,1.607,0.216,1.877,0.36l-0.258,0.852c-0.375-0.192-0.927-0.336-1.584-0.336c-1.854,0-3.085,1.212-3.085,3.336
				c0,1.992,1.114,3.252,3.027,3.252c0.633,0,1.267-0.132,1.678-0.336L81.577,192.382z"/>
		</g>
		<g>
			<path d="M96.084,184.801c0.634-0.096,1.373-0.168,2.182-0.168c1.467,0,2.511,0.336,3.203,0.996
				c0.716,0.66,1.126,1.608,1.126,2.916c0,1.32-0.411,2.4-1.138,3.144c-0.751,0.756-1.971,1.164-3.508,1.164
				c-0.739,0-1.337-0.024-1.865-0.096V184.801z M97.117,191.965c0.258,0.048,0.633,0.048,1.032,0.048
				c2.182,0.012,3.367-1.248,3.367-3.432c0.012-1.932-1.044-3.12-3.203-3.12c-0.528,0-0.927,0.048-1.196,0.108V191.965z"/>
		</g>
		<g>
			<path d="M121.421,188.825h-3.062v2.916h3.426v0.876h-4.458v-8.088h4.282v0.876h-3.25v2.556h3.062V188.825z"/>
		</g>
		<g>
			<path d="M138.253,184.267h4.259v0.876h-3.226v2.688h2.98v0.864h-2.98v3.66h-1.033V184.267z"/>
		</g>
		<g>
			<path d="M163.06,192.257c-0.458,0.18-1.373,0.444-2.44,0.444c-1.197,0-2.183-0.312-2.957-1.068
				c-0.681-0.672-1.103-1.752-1.103-3.012c0-2.412,1.631-4.176,4.282-4.176c0.915,0,1.643,0.204,1.983,0.372l-0.258,0.852
				c-0.422-0.204-0.95-0.348-1.748-0.348c-1.924,0-3.179,1.224-3.179,3.252c0,2.052,1.196,3.264,3.05,3.264
				c0.668,0,1.126-0.096,1.361-0.216v-2.412h-1.596v-0.84h2.604V192.257z"/>
		</g>
		<g>
			<path d="M178.655,189.072l-0.821,2.544h-1.056l2.687-8.088h1.232l2.698,8.088h-1.091l-0.845-2.544H178.655z M181.248,188.256
				l-0.786-2.328c-0.164-0.528-0.281-1.008-0.399-1.476h-0.035c-0.105,0.468-0.234,0.972-0.387,1.464l-0.774,2.34H181.248z"/>
		</g>
		<g>
			<path d="M197.303,184.054c0.446-0.108,1.162-0.18,1.866-0.18c1.021,0,1.677,0.18,2.159,0.588
				c0.411,0.312,0.668,0.792,0.668,1.428c0,0.792-0.516,1.476-1.337,1.776v0.036c0.751,0.18,1.631,0.816,1.631,2.016
				c0,0.696-0.27,1.224-0.681,1.62c-0.54,0.516-1.431,0.756-2.722,0.756c-0.704,0-1.244-0.048-1.584-0.096V184.054z
				 M198.324,187.366h0.927c1.067,0,1.701-0.588,1.701-1.368c0-0.936-0.692-1.32-1.725-1.32c-0.469,0-0.739,0.036-0.903,0.072
				V187.366z M198.324,191.23c0.211,0.036,0.493,0.048,0.856,0.048c1.056,0,2.029-0.396,2.029-1.572c0-1.092-0.927-1.56-2.041-1.56
				h-0.845V191.23z"/>
		</g>
		<g>
			<path d="M2.006,178.841L0,170.753h1.08l0.938,4.092c0.235,1.02,0.446,2.016,0.587,2.796h0.023
				c0.129-0.804,0.375-1.764,0.645-2.808l1.056-4.08h1.067l0.962,4.104c0.223,0.972,0.435,1.92,0.552,2.772h0.023
				c0.164-0.888,0.387-1.788,0.633-2.796l1.044-4.08h1.044l-2.241,8.088H6.347l-0.997-4.2c-0.246-1.044-0.411-1.836-0.516-2.652
				H4.811c-0.129,0.816-0.317,1.596-0.61,2.64l-1.126,4.212H2.006z"/>
			<path d="M10.547,170.321h1.033v3.624h0.023c0.164-0.3,0.422-0.576,0.739-0.744c0.305-0.192,0.668-0.3,1.056-0.3
				c0.763,0,1.983,0.48,1.983,2.484v3.456h-1.033v-3.336c0-0.948-0.34-1.728-1.314-1.728c-0.668,0-1.185,0.48-1.384,1.056
				c-0.059,0.144-0.07,0.3-0.07,0.504v3.504h-1.033V170.321z"/>
			<path d="M17.552,171.965c-0.387,0-0.646-0.312-0.646-0.684s0.27-0.672,0.669-0.672s0.657,0.3,0.657,0.672
				s-0.258,0.684-0.668,0.684H17.552z M17.059,178.841v-5.808h1.032v5.808H17.059z"/>
			<path d="M21.048,171.641v1.392h1.478v0.804h-1.478v3.132c0,0.72,0.199,1.128,0.774,1.128c0.281,0,0.446-0.024,0.598-0.072
				l0.047,0.804c-0.199,0.072-0.516,0.144-0.915,0.144c-0.481,0-0.868-0.168-1.115-0.444c-0.281-0.324-0.399-0.84-0.399-1.524
				v-3.168h-0.88v-0.804h0.88v-1.068L21.048,171.641z"/>
			<path d="M24.204,176.117c0.023,1.428,0.903,2.016,1.936,2.016c0.739,0,1.197-0.132,1.572-0.288l0.188,0.744
				c-0.364,0.168-0.997,0.372-1.901,0.372c-1.736,0-2.792-1.188-2.792-2.928c0-1.764,1.021-3.144,2.675-3.144
				c1.854,0,2.335,1.668,2.335,2.736c0,0.216-0.012,0.384-0.035,0.504L24.204,176.117z M27.219,175.361
				c0.012-0.66-0.27-1.716-1.419-1.716c-1.056,0-1.502,0.984-1.584,1.716H27.219z"/>
			<path d="M32.017,170.753h1.021v3.9h0.035c0.211-0.312,0.422-0.6,0.622-0.864l2.417-3.036h1.267l-2.863,3.432l3.086,4.656h-1.208
				l-2.593-3.972l-0.762,0.888v3.084h-1.021V170.753z"/>
			<path d="M38.927,176.117c0.023,1.428,0.904,2.016,1.936,2.016c0.739,0,1.197-0.132,1.572-0.288l0.188,0.744
				c-0.364,0.168-0.997,0.372-1.9,0.372c-1.736,0-2.792-1.188-2.792-2.928c0-1.764,1.021-3.144,2.675-3.144
				c1.854,0,2.335,1.668,2.335,2.736c0,0.216-0.012,0.384-0.035,0.504L38.927,176.117z M41.943,175.361
				c0.012-0.66-0.27-1.716-1.42-1.716c-1.056,0-1.501,0.984-1.584,1.716H41.943z"/>
			<path d="M44.571,173.033l1.231,3.432c0.141,0.384,0.282,0.84,0.375,1.188h0.023c0.106-0.348,0.223-0.792,0.364-1.212l1.126-3.408
				h1.091l-1.549,4.14c-0.739,1.992-1.244,3.012-1.948,3.648c-0.516,0.444-1.009,0.624-1.267,0.672l-0.258-0.888
				c0.258-0.072,0.598-0.24,0.903-0.516c0.281-0.228,0.622-0.636,0.868-1.176c0.047-0.108,0.082-0.18,0.082-0.252
				c0-0.06-0.023-0.144-0.082-0.264l-2.088-5.364H44.571z"/>
			<path d="M49.533,177.773c0.317,0.192,0.856,0.408,1.373,0.408c0.739,0,1.091-0.372,1.091-0.864c0-0.504-0.293-0.78-1.044-1.068
				c-1.033-0.384-1.514-0.948-1.514-1.644c0-0.936,0.751-1.704,1.959-1.704c0.575,0,1.079,0.156,1.384,0.36l-0.247,0.756
				c-0.223-0.132-0.633-0.336-1.161-0.336c-0.61,0-0.939,0.36-0.939,0.792c0,0.492,0.329,0.708,1.068,0.996
				c0.974,0.372,1.49,0.876,1.49,1.752c0,1.032-0.786,1.752-2.112,1.752c-0.622,0-1.196-0.168-1.595-0.408L49.533,177.773z"/>
			<path d="M54.754,178.973c-0.399,0-0.68-0.324-0.68-0.744c0-0.444,0.293-0.756,0.692-0.756c0.422,0,0.692,0.312,0.692,0.756
				c0,0.42-0.27,0.744-0.692,0.744H54.754z M54.766,174.737c-0.399,0-0.68-0.324-0.68-0.744c0-0.444,0.293-0.756,0.692-0.756
				c0.422,0,0.692,0.312,0.692,0.756c0,0.42-0.27,0.744-0.692,0.744H54.766z"/>
			<path d="M0.716,193.341v-8.088h1.126l2.522,4.092c0.575,0.948,1.044,1.788,1.408,2.628l0.035-0.012
				c-0.094-1.08-0.117-2.064-0.117-3.312v-3.396h0.962v8.088H5.62l-2.511-4.104c-0.552-0.9-1.08-1.824-1.467-2.7l-0.035,0.012
				c0.059,1.02,0.07,1.992,0.07,3.336v3.456H0.716z"/>
			<path d="M12.377,191.949c0,0.504,0.023,0.996,0.083,1.392h-0.927l-0.094-0.732h-0.035c-0.305,0.456-0.927,0.864-1.736,0.864
				c-1.15,0-1.736-0.828-1.736-1.668c0-1.404,1.22-2.172,3.414-2.16v-0.12c0-0.48-0.129-1.356-1.291-1.344
				c-0.54,0-1.091,0.156-1.49,0.432l-0.234-0.708c0.469-0.3,1.162-0.504,1.877-0.504c1.748,0,2.17,1.212,2.17,2.376V191.949z
				 M11.369,190.377c-1.126-0.024-2.405,0.18-2.405,1.308c0,0.696,0.446,1.008,0.962,1.008c0.75,0,1.232-0.48,1.396-0.972
				c0.035-0.108,0.047-0.228,0.047-0.336V190.377z"/>
			<path d="M15.229,186.141v1.392h1.479v0.804h-1.479v3.132c0,0.72,0.2,1.128,0.774,1.128c0.282,0,0.446-0.024,0.598-0.072
				l0.047,0.804c-0.199,0.072-0.516,0.144-0.915,0.144c-0.481,0-0.868-0.168-1.114-0.444c-0.282-0.324-0.399-0.84-0.399-1.524
				v-3.168h-0.88v-0.804h0.88v-1.068L15.229,186.141z"/>
			<path d="M22.62,191.757c0,0.6,0.012,1.128,0.047,1.584h-0.916l-0.059-0.948h-0.023c-0.258,0.468-0.868,1.08-1.877,1.08
				c-0.892,0-1.959-0.516-1.959-2.544v-3.396h1.033v3.204c0,1.104,0.34,1.86,1.267,1.86c0.692,0,1.173-0.492,1.361-0.972
				c0.059-0.144,0.094-0.336,0.094-0.54v-3.552h1.032V191.757z"/>
			<path d="M24.344,189.345c0-0.684-0.012-1.272-0.047-1.812h0.903l0.047,1.14h0.036c0.258-0.78,0.892-1.272,1.583-1.272
				c0.106,0,0.188,0.012,0.282,0.036v0.984c-0.117-0.012-0.223-0.024-0.364-0.024c-0.728,0-1.244,0.564-1.384,1.344
				c-0.023,0.156-0.035,0.324-0.035,0.504v3.096h-1.033L24.344,189.345z"/>
			<path d="M32.1,191.949c0,0.504,0.023,0.996,0.082,1.392h-0.927l-0.094-0.732h-0.035c-0.305,0.456-0.927,0.864-1.736,0.864
				c-1.149,0-1.736-0.828-1.736-1.668c0-1.404,1.22-2.172,3.414-2.16v-0.12c0-0.48-0.129-1.356-1.291-1.344
				c-0.54,0-1.091,0.156-1.49,0.432l-0.235-0.708c0.469-0.3,1.162-0.504,1.877-0.504c1.748,0,2.17,1.212,2.17,2.376V191.949z
				 M31.09,190.377c-1.126-0.024-2.405,0.18-2.405,1.308c0,0.696,0.446,1.008,0.962,1.008c0.751,0,1.232-0.48,1.396-0.972
				c0.035-0.108,0.047-0.228,0.047-0.336V190.377z"/>
			<path d="M33.753,184.821h1.033v8.52h-1.033V184.821z"/>
			<path d="M39.021,193.341v-8.088h1.126l2.522,4.092c0.575,0.948,1.044,1.788,1.408,2.628l0.036-0.012
				c-0.094-1.08-0.118-2.064-0.118-3.312v-3.396h0.962v8.088h-1.033l-2.511-4.104c-0.551-0.9-1.079-1.824-1.466-2.7l-0.035,0.012
				c0.059,1.02,0.07,1.992,0.07,3.336v3.456H39.021z"/>
			<path d="M49.005,193.473c-1.525,0-2.722-1.152-2.722-2.988c0-1.944,1.255-3.084,2.815-3.084c1.631,0,2.734,1.212,2.734,2.976
				c0,2.16-1.467,3.096-2.816,3.096H49.005z M49.041,192.681c0.985,0,1.725-0.948,1.725-2.268c0-0.984-0.481-2.22-1.701-2.22
				c-1.208,0-1.736,1.152-1.736,2.256c0,1.272,0.704,2.232,1.701,2.232H49.041z"/>
			<path d="M54.379,186.141v1.392h1.478v0.804h-1.478v3.132c0,0.72,0.199,1.128,0.774,1.128c0.282,0,0.446-0.024,0.599-0.072
				l0.047,0.804c-0.2,0.072-0.516,0.144-0.915,0.144c-0.481,0-0.868-0.168-1.115-0.444c-0.282-0.324-0.399-0.84-0.399-1.524v-3.168
				h-0.88v-0.804h0.88v-1.068L54.379,186.141z"/>
			<path d="M57.535,190.617c0.023,1.428,0.903,2.016,1.936,2.016c0.739,0,1.196-0.132,1.572-0.288l0.188,0.744
				c-0.364,0.168-0.998,0.372-1.901,0.372c-1.736,0-2.792-1.188-2.792-2.928c0-1.764,1.021-3.144,2.675-3.144
				c1.854,0,2.334,1.668,2.334,2.736c0,0.216-0.012,0.384-0.035,0.504L57.535,190.617z M60.55,189.861
				c0.012-0.66-0.27-1.716-1.419-1.716c-1.056,0-1.502,0.984-1.584,1.716H60.55z"/>
			<path d="M62.685,192.273c0.317,0.192,0.856,0.408,1.373,0.408c0.739,0,1.091-0.372,1.091-0.864c0-0.504-0.293-0.78-1.044-1.068
				c-1.032-0.384-1.513-0.948-1.513-1.644c0-0.936,0.75-1.704,1.959-1.704c0.575,0,1.08,0.156,1.385,0.36l-0.247,0.756
				c-0.223-0.132-0.633-0.336-1.162-0.336c-0.61,0-0.938,0.36-0.938,0.792c0,0.492,0.329,0.708,1.068,0.996
				c0.974,0.372,1.49,0.876,1.49,1.752c0,1.032-0.786,1.752-2.112,1.752c-0.622,0-1.197-0.168-1.596-0.408L62.685,192.273z"/>
		</g>
		<g>
			<path d="M15.88,0.552c0.446-0.108,1.162-0.18,1.866-0.18c1.021,0,1.678,0.18,2.159,0.588c0.411,0.312,0.668,0.792,0.668,1.428
				c0,0.792-0.516,1.476-1.337,1.776V4.2c0.751,0.18,1.631,0.816,1.631,2.016c0,0.696-0.27,1.224-0.681,1.62
				c-0.54,0.516-1.431,0.756-2.722,0.756c-0.704,0-1.244-0.048-1.584-0.096V0.552z M16.901,3.864h0.927
				c1.067,0,1.701-0.588,1.701-1.368c0-0.936-0.692-1.32-1.725-1.32c-0.469,0-0.739,0.036-0.903,0.072V3.864z M16.901,7.728
				c0.211,0.036,0.493,0.048,0.856,0.048c1.056,0,2.029-0.396,2.029-1.572c0-1.092-0.927-1.56-2.041-1.56h-0.845V7.728z"/>
			<path d="M22.215,0h1.032v8.52h-1.032V0z"/>
			<path d="M28.961,7.128c0,0.504,0.024,0.996,0.083,1.392h-0.927l-0.094-0.732h-0.035c-0.305,0.456-0.927,0.864-1.736,0.864
				c-1.15,0-1.736-0.828-1.736-1.668c0-1.404,1.22-2.172,3.414-2.16v-0.12c0-0.48-0.129-1.356-1.291-1.344
				c-0.54,0-1.091,0.156-1.49,0.432l-0.234-0.708c0.469-0.3,1.162-0.504,1.877-0.504c1.748,0,2.17,1.212,2.17,2.376V7.128z
				 M27.952,5.556c-1.126-0.024-2.405,0.18-2.405,1.308c0,0.696,0.446,1.008,0.962,1.008c0.75,0,1.232-0.48,1.396-0.972
				c0.035-0.108,0.047-0.228,0.047-0.336V5.556z"/>
			<path d="M34.663,8.316c-0.27,0.132-0.868,0.336-1.631,0.336c-1.713,0-2.828-1.188-2.828-2.976c0-1.788,1.197-3.096,3.05-3.096
				c0.61,0,1.15,0.156,1.432,0.312l-0.235,0.804c-0.246-0.132-0.633-0.276-1.197-0.276c-1.302,0-2.006,0.996-2.006,2.208
				c0,1.344,0.845,2.172,1.971,2.172c0.587,0,0.974-0.144,1.267-0.276L34.663,8.316z"/>
			<path d="M36.904,5.376h0.023c0.141-0.204,0.329-0.468,0.493-0.66l1.678-2.004h1.232L38.136,5.1l2.499,3.42h-1.255l-1.948-2.796
				l-0.528,0.612V8.52h-1.032V0h1.032V5.376z"/>
			<path d="M43.896,0.432h1.021v3.9h0.035c0.211-0.312,0.422-0.6,0.622-0.864l2.417-3.036h1.267l-2.863,3.432L49.48,8.52h-1.208
				l-2.593-3.972l-0.762,0.888V8.52h-1.021V0.432z"/>
			<path d="M50.806,5.796c0.023,1.428,0.903,2.016,1.936,2.016c0.739,0,1.197-0.132,1.572-0.288l0.188,0.744
				c-0.364,0.168-0.997,0.372-1.9,0.372c-1.737,0-2.792-1.188-2.792-2.928c0-1.764,1.021-3.144,2.675-3.144
				c1.854,0,2.335,1.668,2.335,2.736c0,0.216-0.012,0.384-0.035,0.504L50.806,5.796z M53.821,5.04
				c0.012-0.66-0.27-1.716-1.419-1.716c-1.056,0-1.501,0.984-1.584,1.716H53.821z"/>
			<path d="M56.449,2.712l1.232,3.432c0.141,0.384,0.282,0.84,0.375,1.188h0.023c0.106-0.348,0.223-0.792,0.364-1.212l1.126-3.408
				h1.091l-1.548,4.14c-0.739,1.992-1.244,3.012-1.948,3.648c-0.516,0.444-1.009,0.624-1.267,0.672l-0.258-0.888
				c0.258-0.072,0.598-0.24,0.903-0.516c0.281-0.228,0.622-0.636,0.868-1.176c0.047-0.108,0.082-0.18,0.082-0.252
				c0-0.06-0.023-0.144-0.082-0.264l-2.088-5.364H56.449z"/>
			<path d="M61.412,7.452c0.317,0.192,0.856,0.408,1.373,0.408c0.739,0,1.091-0.372,1.091-0.864c0-0.504-0.293-0.78-1.044-1.068
				c-1.032-0.384-1.513-0.948-1.513-1.644c0-0.936,0.751-1.704,1.959-1.704c0.575,0,1.08,0.156,1.385,0.36l-0.247,0.756
				c-0.223-0.132-0.633-0.336-1.162-0.336c-0.61,0-0.938,0.36-0.938,0.792c0,0.492,0.329,0.708,1.068,0.996
				c0.974,0.372,1.49,0.876,1.49,1.752c0,1.032-0.786,1.752-2.112,1.752c-0.622,0-1.197-0.168-1.596-0.408L61.412,7.452z"/>
			<path d="M66.633,8.652c-0.399,0-0.68-0.324-0.68-0.744c0-0.444,0.293-0.756,0.692-0.756c0.422,0,0.692,0.312,0.692,0.756
				c0,0.42-0.27,0.744-0.692,0.744H66.633z M66.645,4.416c-0.399,0-0.68-0.324-0.68-0.744c0-0.444,0.293-0.756,0.692-0.756
				c0.422,0,0.692,0.312,0.692,0.756c0,0.42-0.27,0.744-0.692,0.744H66.645z"/>
			<path fill="#FF0000" d="M15.751,21.748c0.458,0.3,1.114,0.528,1.818,0.528c1.044,0,1.654-0.552,1.654-1.38
				c0-0.744-0.422-1.188-1.49-1.596c-1.291-0.48-2.088-1.176-2.088-2.304c0-1.26,1.021-2.196,2.558-2.196
				c0.797,0,1.396,0.192,1.736,0.396l-0.282,0.852c-0.247-0.156-0.774-0.384-1.49-0.384c-1.08,0-1.49,0.66-1.49,1.212
				c0,0.756,0.481,1.128,1.572,1.56c1.337,0.54,2.006,1.188,2.006,2.376c0,1.248-0.892,2.34-2.757,2.34
				c-0.763,0-1.596-0.24-2.018-0.528L15.751,21.748z"/>
			<path fill="#FF0000" d="M21.594,14.5h1.032v3.624h0.023c0.165-0.3,0.422-0.576,0.739-0.744c0.305-0.192,0.669-0.3,1.056-0.3
				c0.763,0,1.983,0.48,1.983,2.484v3.456h-1.032v-3.336c0-0.948-0.34-1.728-1.314-1.728c-0.669,0-1.185,0.48-1.385,1.056
				c-0.059,0.144-0.07,0.3-0.07,0.504v3.504h-1.032V14.5z"/>
			<path fill="#FF0000" d="M32.105,21.628c0,0.504,0.023,0.996,0.083,1.392h-0.927l-0.094-0.732h-0.035
				c-0.305,0.456-0.927,0.864-1.736,0.864c-1.15,0-1.736-0.828-1.736-1.668c0-1.404,1.22-2.172,3.414-2.16v-0.12
				c0-0.48-0.129-1.356-1.291-1.344c-0.54,0-1.091,0.156-1.49,0.432l-0.234-0.708c0.469-0.3,1.162-0.504,1.877-0.504
				c1.748,0,2.17,1.212,2.17,2.376V21.628z M31.097,20.056c-1.126-0.024-2.405,0.18-2.405,1.308c0,0.696,0.446,1.008,0.962,1.008
				c0.75,0,1.232-0.48,1.396-0.972c0.035-0.108,0.047-0.228,0.047-0.336V20.056z"/>
			<path fill="#FF0000" d="M33.771,19.024c0-0.684-0.012-1.272-0.047-1.812h0.903l0.047,1.14h0.035
				c0.258-0.78,0.892-1.272,1.584-1.272c0.105,0,0.188,0.012,0.282,0.036V18.1c-0.117-0.012-0.223-0.024-0.364-0.024
				c-0.728,0-1.244,0.564-1.384,1.344c-0.023,0.156-0.035,0.324-0.035,0.504v3.096H33.76L33.771,19.024z"/>
			<path fill="#FF0000" d="M37.643,19.108c0-0.744-0.012-1.344-0.047-1.896h0.927l0.059,0.996h0.023
				c0.411-0.72,1.091-1.128,2.006-1.128c1.384,0,2.417,1.188,2.417,2.952c0,2.088-1.255,3.12-2.581,3.12
				c-0.763,0-1.408-0.336-1.748-0.912h-0.023v3.156h-1.033V19.108z M38.676,20.656c0,0.144,0.012,0.3,0.047,0.432
				c0.176,0.732,0.81,1.236,1.537,1.236c1.091,0,1.725-0.912,1.725-2.244c0-1.164-0.586-2.16-1.678-2.16
				c-0.704,0-1.373,0.504-1.572,1.296c-0.023,0.144-0.059,0.3-0.059,0.432V20.656z"/>
			<path fill="#FF0000" d="M46.841,23.02v-8.088h1.126l2.522,4.092c0.575,0.948,1.044,1.788,1.408,2.628l0.035-0.012
				c-0.094-1.08-0.117-2.064-0.117-3.312v-3.396h0.962v8.088h-1.032l-2.511-4.104c-0.551-0.9-1.08-1.824-1.466-2.7l-0.036,0.012
				c0.059,1.02,0.071,1.992,0.071,3.336v3.456H46.841z"/>
			<path fill="#FF0000" d="M56.825,23.152c-1.525,0-2.722-1.152-2.722-2.988c0-1.944,1.255-3.084,2.816-3.084
				c1.631,0,2.734,1.212,2.734,2.976c0,2.16-1.467,3.096-2.816,3.096H56.825z M56.86,22.36c0.985,0,1.725-0.948,1.725-2.268
				c0-0.984-0.481-2.22-1.701-2.22c-1.208,0-1.736,1.152-1.736,2.256c0,1.272,0.704,2.232,1.701,2.232H56.86z"/>
			<path fill="#FF0000" d="M62.198,15.82v1.392h1.479v0.804h-1.479v3.132c0,0.72,0.2,1.128,0.774,1.128
				c0.282,0,0.446-0.024,0.599-0.072l0.047,0.804c-0.2,0.072-0.516,0.144-0.915,0.144c-0.481,0-0.868-0.168-1.115-0.444
				c-0.282-0.324-0.399-0.84-0.399-1.524v-3.168h-0.88v-0.804h0.88v-1.068L62.198,15.82z"/>
			<path fill="#FF0000" d="M65.354,20.296c0.023,1.428,0.903,2.016,1.936,2.016c0.739,0,1.197-0.132,1.572-0.288l0.188,0.744
				c-0.364,0.168-0.998,0.372-1.901,0.372c-1.736,0-2.792-1.188-2.792-2.928c0-1.764,1.021-3.144,2.675-3.144
				c1.854,0,2.334,1.668,2.334,2.736c0,0.216-0.012,0.384-0.035,0.504L65.354,20.296z M68.37,19.54
				c0.012-0.66-0.27-1.716-1.419-1.716c-1.056,0-1.502,0.984-1.584,1.716H68.37z"/>
			<path fill="#FF0000" d="M70.505,21.952c0.317,0.192,0.856,0.408,1.373,0.408c0.739,0,1.091-0.372,1.091-0.864
				c0-0.504-0.293-0.78-1.044-1.068c-1.032-0.384-1.513-0.948-1.513-1.644c0-0.936,0.75-1.704,1.959-1.704
				c0.575,0,1.08,0.156,1.384,0.36l-0.246,0.756c-0.223-0.132-0.634-0.336-1.162-0.336c-0.61,0-0.938,0.36-0.938,0.792
				c0,0.492,0.329,0.708,1.067,0.996c0.974,0.372,1.49,0.876,1.49,1.752c0,1.032-0.786,1.752-2.112,1.752
				c-0.622,0-1.197-0.168-1.596-0.408L70.505,21.952z"/>
			<path fill="#FF0000" d="M93.394,22.768c-0.364,0.192-1.126,0.384-2.088,0.384c-2.229,0-3.895-1.44-3.895-4.104
				c0-2.544,1.678-4.248,4.13-4.248c0.974,0,1.607,0.216,1.877,0.36l-0.258,0.852c-0.375-0.192-0.927-0.336-1.584-0.336
				c-1.854,0-3.085,1.212-3.085,3.336c0,1.992,1.114,3.252,3.027,3.252c0.633,0,1.267-0.132,1.678-0.336L93.394,22.768z"/>
			<path fill="#FF0000" d="M107.108,15.04c0.633-0.096,1.373-0.168,2.182-0.168c1.467,0,2.511,0.336,3.203,0.996
				c0.715,0.66,1.126,1.608,1.126,2.916c0,1.32-0.411,2.4-1.138,3.144c-0.751,0.756-1.971,1.164-3.508,1.164
				c-0.739,0-1.337-0.024-1.865-0.096V15.04z M108.141,22.204c0.258,0.048,0.634,0.048,1.033,0.048
				c2.182,0.012,3.367-1.248,3.367-3.432c0.012-1.932-1.044-3.12-3.203-3.12c-0.528,0-0.927,0.048-1.197,0.108V22.204z"/>
			<path fill="#FF0000" d="M147.254,14.932h4.259v0.876h-3.227v2.688h2.98v0.864h-2.98v3.66h-1.033V14.932z"/>
			<path fill="#FF0000" d="M171.446,22.66c-0.458,0.18-1.373,0.444-2.44,0.444c-1.197,0-2.182-0.312-2.957-1.068
				c-0.681-0.672-1.103-1.752-1.103-3.012c0-2.412,1.631-4.176,4.282-4.176c0.915,0,1.643,0.204,1.983,0.372l-0.258,0.852
				c-0.422-0.204-0.95-0.348-1.748-0.348c-1.924,0-3.179,1.224-3.179,3.252c0,2.052,1.197,3.264,3.05,3.264
				c0.669,0,1.126-0.096,1.361-0.216v-2.412h-1.596v-0.84h2.605V22.66z"/>
			<path fill="#FF0000" d="M186.709,20.476l-0.821,2.544h-1.056l2.687-8.088h1.232l2.699,8.088h-1.091l-0.845-2.544H186.709z
				 M189.302,19.66l-0.786-2.328c-0.165-0.528-0.282-1.008-0.399-1.476h-0.035c-0.106,0.468-0.235,0.972-0.387,1.464l-0.774,2.34
				H189.302z"/>
			<path fill="#0A50A1" d="M15.868,29.432h4.259v0.876h-3.226v2.688h2.98v0.864h-2.98v3.66h-1.033V29.432z"/>
			<path fill="#0A50A1" d="M21.359,29h1.032v8.52h-1.032V29z"/>
			<path fill="#0A50A1" d="M28.105,36.128c0,0.504,0.023,0.996,0.082,1.392H27.26l-0.094-0.732h-0.035
				c-0.305,0.456-0.927,0.864-1.737,0.864c-1.149,0-1.736-0.828-1.736-1.668c0-1.404,1.22-2.172,3.414-2.16v-0.12
				c0-0.48-0.129-1.356-1.291-1.344c-0.54,0-1.091,0.156-1.49,0.432l-0.235-0.708c0.469-0.3,1.162-0.504,1.877-0.504
				c1.748,0,2.17,1.212,2.17,2.376V36.128z M27.096,34.556c-1.126-0.024-2.405,0.18-2.405,1.308c0,0.696,0.446,1.008,0.962,1.008
				c0.751,0,1.232-0.48,1.396-0.972c0.035-0.108,0.047-0.228,0.047-0.336V34.556z"/>
			<path fill="#0A50A1" d="M30.956,30.32v1.392h1.479v0.804h-1.479v3.132c0,0.72,0.2,1.128,0.774,1.128
				c0.282,0,0.446-0.024,0.599-0.072l0.047,0.804c-0.2,0.072-0.516,0.144-0.915,0.144c-0.481,0-0.868-0.168-1.115-0.444
				c-0.282-0.324-0.399-0.84-0.399-1.524v-3.168h-0.88v-0.804h0.88v-1.068L30.956,30.32z"/>
			<path fill="#0A50A1" d="M36.118,37.52v-8.088h1.126l2.522,4.092c0.575,0.948,1.044,1.788,1.408,2.628l0.035-0.012
				c-0.094-1.08-0.117-2.064-0.117-3.312v-3.396h0.962v8.088h-1.032l-2.511-4.104c-0.551-0.9-1.08-1.824-1.467-2.7l-0.035,0.012
				c0.059,1.02,0.071,1.992,0.071,3.336v3.456H36.118z"/>
			<path fill="#0A50A1" d="M46.102,37.652c-1.525,0-2.722-1.152-2.722-2.988c0-1.944,1.255-3.084,2.816-3.084
				c1.631,0,2.734,1.212,2.734,2.976c0,2.16-1.467,3.096-2.816,3.096H46.102z M46.137,36.86c0.985,0,1.725-0.948,1.725-2.268
				c0-0.984-0.481-2.22-1.701-2.22c-1.208,0-1.736,1.152-1.736,2.256c0,1.272,0.704,2.232,1.701,2.232H46.137z"/>
			<path fill="#0A50A1" d="M51.475,30.32v1.392h1.479v0.804h-1.479v3.132c0,0.72,0.2,1.128,0.774,1.128
				c0.282,0,0.446-0.024,0.599-0.072l0.047,0.804c-0.2,0.072-0.516,0.144-0.915,0.144c-0.481,0-0.868-0.168-1.115-0.444
				c-0.282-0.324-0.399-0.84-0.399-1.524v-3.168h-0.88v-0.804h0.88v-1.068L51.475,30.32z"/>
			<path fill="#0A50A1" d="M54.631,34.796c0.023,1.428,0.903,2.016,1.936,2.016c0.739,0,1.197-0.132,1.572-0.288l0.188,0.744
				c-0.364,0.168-0.998,0.372-1.901,0.372c-1.736,0-2.792-1.188-2.792-2.928c0-1.764,1.021-3.144,2.675-3.144
				c1.854,0,2.334,1.668,2.334,2.736c0,0.216-0.012,0.384-0.035,0.504L54.631,34.796z M57.646,34.04
				c0.012-0.66-0.27-1.716-1.419-1.716c-1.056,0-1.502,0.984-1.584,1.716H57.646z"/>
			<path fill="#0A50A1" d="M59.782,36.452c0.317,0.192,0.856,0.408,1.373,0.408c0.739,0,1.091-0.372,1.091-0.864
				c0-0.504-0.293-0.78-1.044-1.068c-1.032-0.384-1.513-0.948-1.513-1.644c0-0.936,0.75-1.704,1.959-1.704
				c0.575,0,1.08,0.156,1.385,0.36l-0.247,0.756c-0.223-0.132-0.634-0.336-1.162-0.336c-0.61,0-0.938,0.36-0.938,0.792
				c0,0.492,0.329,0.708,1.067,0.996c0.974,0.372,1.49,0.876,1.49,1.752c0,1.032-0.786,1.752-2.112,1.752
				c-0.622,0-1.197-0.168-1.596-0.408L59.782,36.452z"/>
			<path fill="#0A50A1" d="M86.976,29.54c0.633-0.096,1.373-0.168,2.182-0.168c1.466,0,2.511,0.336,3.203,0.996
				c0.715,0.66,1.126,1.608,1.126,2.916c0,1.32-0.411,2.4-1.138,3.144c-0.751,0.756-1.971,1.164-3.508,1.164
				c-0.739,0-1.337-0.024-1.865-0.096V29.54z M88.008,36.704c0.258,0.048,0.634,0.048,1.033,0.048
				c2.182,0.012,3.367-1.248,3.367-3.432c0.012-1.932-1.044-3.12-3.203-3.12c-0.528,0-0.927,0.048-1.197,0.108V36.704z"/>
			<path fill="#0A50A1" d="M111.32,33.728h-3.062v2.916h3.426v0.876h-4.458v-8.088h4.282v0.876h-3.25v2.556h3.062V33.728z"/>
			<path fill="#0A50A1" d="M151.372,37.16c-0.458,0.18-1.373,0.444-2.44,0.444c-1.196,0-2.182-0.312-2.957-1.068
				c-0.68-0.672-1.103-1.752-1.103-3.012c0-2.412,1.631-4.176,4.282-4.176c0.915,0,1.643,0.204,1.983,0.372l-0.258,0.852
				c-0.422-0.204-0.95-0.348-1.748-0.348c-1.924,0-3.18,1.224-3.18,3.252c0,2.052,1.197,3.264,3.051,3.264
				c0.668,0,1.126-0.096,1.361-0.216v-2.412h-1.596v-0.84h2.604V37.16z"/>
			<path fill="#0A50A1" d="M166.635,34.976l-0.821,2.544h-1.056l2.687-8.088h1.232l2.698,8.088h-1.091l-0.845-2.544H166.635z
				 M169.228,34.16l-0.786-2.328c-0.164-0.528-0.281-1.008-0.399-1.476h-0.035c-0.105,0.468-0.234,0.972-0.387,1.464l-0.774,2.34
				H169.228z"/>
			<path fill="#0A50A1" d="M184.972,29.552c0.446-0.108,1.162-0.18,1.866-0.18c1.021,0,1.678,0.18,2.159,0.588
				c0.411,0.312,0.668,0.792,0.668,1.428c0,0.792-0.516,1.476-1.337,1.776V33.2c0.751,0.18,1.631,0.816,1.631,2.016
				c0,0.696-0.27,1.224-0.681,1.62c-0.54,0.516-1.431,0.756-2.722,0.756c-0.704,0-1.244-0.048-1.584-0.096V29.552z M185.993,32.864
				h0.927c1.067,0,1.701-0.588,1.701-1.368c0-0.936-0.692-1.32-1.725-1.32c-0.469,0-0.739,0.036-0.903,0.072V32.864z
				 M185.993,36.728c0.211,0.036,0.493,0.048,0.856,0.048c1.056,0,2.029-0.396,2.029-1.572c0-1.092-0.927-1.56-2.041-1.56h-0.845
				V36.728z"/>
		</g>
		<g>
			<path fill="#FF0000" d="M95.458,12.448V9.359h0.367v2.899l1.238-0.606V8.885h0.367v2.596l0.493-0.247v1.971l-0.493,0.247v2.804
				l0.493-0.227v1.952l-0.493,0.246v3.089h-0.367v-2.918l-1.238,0.606v2.804h-0.367v-2.615l-0.543,0.265v-1.971l0.543-0.265v-2.824
				l-0.543,0.265v-1.952L95.458,12.448z M95.825,14.229v2.823l1.238-0.606v-2.823L95.825,14.229z"/>
		</g>
		<g>
			<path fill="#FF0000" d="M153.459,12.447V9.358h0.367v2.899l1.238-0.606V8.885h0.367v2.596l0.493-0.247v1.971l-0.493,0.247v2.804
				l0.493-0.227v1.952l-0.493,0.246v3.089h-0.367v-2.918l-1.238,0.606v2.804h-0.367v-2.615l-0.543,0.265v-1.971l0.543-0.265v-2.824
				l-0.543,0.265v-1.952L153.459,12.447z M153.826,14.229v2.823l1.238-0.606v-2.823L153.826,14.229z"/>
		</g>
		<g>
			<path fill="#FF0000" d="M116.125,13.114v-3.089h0.367v2.899l1.238-0.606V9.551h0.367v2.596l0.493-0.247v1.971l-0.493,0.247v2.804
				l0.493-0.227v1.952l-0.493,0.246v3.089h-0.367v-2.918l-1.238,0.606v2.804h-0.367V19.86l-0.543,0.265v-1.971l0.543-0.265v-2.824
				l-0.543,0.265v-1.952L116.125,13.114z M116.492,14.895v2.823l1.238-0.606v-2.823L116.492,14.895z"/>
		</g>
		<g>
			<path fill="#FF0000" d="M173.458,13.114v-3.089h0.367v2.899l1.238-0.606V9.552h0.367v2.596l0.493-0.247v1.971l-0.493,0.247v2.804
				l0.493-0.227v1.952l-0.493,0.246v3.089h-0.367v-2.918l-1.238,0.606v2.804h-0.367V19.86l-0.543,0.265v-1.971l0.543-0.265v-2.824
				l-0.543,0.265v-1.952L173.458,13.114z M173.825,14.896v2.823l1.238-0.606v-2.823L173.825,14.896z"/>
		</g>
		<g>
			<path fill="#FF0000" d="M193.676,12.721V9.632h0.367v2.899l1.238-0.606V9.158h0.367v2.596l0.493-0.247v1.971l-0.493,0.247v2.804
				l0.493-0.227v1.952l-0.493,0.246v3.089h-0.367v-2.918l-1.238,0.606v2.804h-0.367v-2.615l-0.543,0.265v-1.971l0.543-0.265v-2.824
				l-0.543,0.265v-1.952L193.676,12.721z M194.042,14.502v2.823l1.238-0.606v-2.823L194.042,14.502z"/>
		</g>
		<g>
			<path fill="#0A50A1" d="M172.881,28.221c0,0.188,0,1.342,0,1.342c0.57-0.713,0.885-0.86,1.515-0.881
				c0.75-0.021,1.23,1.028,1.245,1.867c0.015,0.44-0.075,0.901-0.195,1.258c-0.135,0.461-0.495,0.818-0.735,1.153
				c-0.27,0.377-2.22,2.244-2.22,2.286V22.852h0.39C172.881,22.852,172.896,25.453,172.881,28.221z M173.046,30.296
				c-0.195,0.524-0.165,1.426-0.165,2.076v1.803c0,0.021,0.54-0.629,0.84-1.027c0.27-0.356,0.48-0.755,0.585-1.384
				c0.12-0.629,0.075-1.3-0.21-1.74C173.901,29.709,173.361,29.458,173.046,30.296z"/>
		</g>
		<g>
			<path fill="#0A50A1" d="M114.381,27.887c0,0.189,0,1.342,0,1.342c0.57-0.713,0.885-0.86,1.515-0.881
				c0.75-0.021,1.23,1.028,1.245,1.867c0.015,0.44-0.075,0.901-0.195,1.258c-0.135,0.461-0.495,0.818-0.735,1.153
				c-0.27,0.377-2.22,2.244-2.22,2.286V22.519h0.39C114.381,22.519,114.396,25.119,114.381,27.887z M114.546,29.963
				c-0.195,0.524-0.165,1.426-0.165,2.076v1.803c0,0.021,0.54-0.629,0.84-1.027c0.27-0.356,0.48-0.755,0.585-1.384
				c0.12-0.629,0.075-1.3-0.21-1.74C115.401,29.376,114.861,29.124,114.546,29.963z"/>
		</g>
		<g>
			<path fill="#0A50A1" d="M95.931,28.827c0,0.188,0,1.342,0,1.342c0.57-0.713,0.885-0.86,1.515-0.881
				c0.75-0.021,1.23,1.028,1.245,1.867c0.015,0.44-0.075,0.901-0.195,1.258C98.36,32.874,98,33.23,97.76,33.566
				c-0.27,0.377-2.22,2.244-2.22,2.286V23.458h0.39C95.931,23.458,95.945,26.059,95.931,28.827z M96.096,30.903
				c-0.195,0.524-0.165,1.426-0.165,2.076v1.803c0,0.021,0.54-0.629,0.84-1.027c0.27-0.356,0.48-0.755,0.585-1.384
				c0.12-0.629,0.075-1.3-0.21-1.74C96.951,30.316,96.411,30.064,96.096,30.903z"/>
		</g>
		<g>
			<path fill="#0A50A1" d="M192.381,27.887c0,0.189,0,1.342,0,1.342c0.57-0.713,0.885-0.86,1.515-0.881
				c0.75-0.021,1.23,1.028,1.245,1.867c0.015,0.44-0.075,0.901-0.195,1.258c-0.135,0.461-0.495,0.818-0.735,1.153
				c-0.27,0.377-2.22,2.244-2.22,2.286V22.519h0.39C192.381,22.519,192.396,25.119,192.381,27.887z M192.546,29.963
				c-0.195,0.524-0.165,1.426-0.165,2.076v1.803c0,0.021,0.54-0.629,0.84-1.027c0.27-0.356,0.48-0.755,0.585-1.384
				c0.12-0.629,0.075-1.3-0.21-1.74C193.401,29.376,192.861,29.124,192.546,29.963z"/>
		</g>
		<g>
			<path fill="#0A50A1" d="M153.547,27.554c0,0.188,0,1.342,0,1.342c0.57-0.713,0.885-0.86,1.515-0.881
				c0.75-0.021,1.23,1.028,1.245,1.867c0.015,0.44-0.075,0.901-0.195,1.258c-0.135,0.461-0.495,0.818-0.735,1.153
				c-0.27,0.377-2.22,2.244-2.22,2.286V22.185h0.39C153.547,22.185,153.562,24.786,153.547,27.554z M153.712,29.629
				c-0.195,0.524-0.165,1.426-0.165,2.076v1.803c0,0.021,0.54-0.629,0.84-1.027c0.27-0.356,0.48-0.755,0.585-1.384
				c0.12-0.629,0.075-1.3-0.21-1.74C154.567,29.042,154.027,28.791,153.712,29.629z"/>
		</g>
		<g>
			<path d="M87.76,180.895v13.704h-0.624v-5.136l-3.336,0.864v-13.872h0.6v5.352L87.76,180.895z M84.4,184.111v3.768l2.736-0.72
				v-3.768L84.4,184.111z"/>
		</g>
		<g>
			<path d="M108.094,180.228v13.704h-0.624v-5.136l-3.336,0.864v-13.872h0.6v5.352L108.094,180.228z M104.734,183.444v3.768
				l2.736-0.72v-3.768L104.734,183.444z"/>
		</g>
		<g>
			<path d="M128.094,180.228v13.704h-0.624v-5.136l-3.336,0.864v-13.872h0.6v5.352L128.094,180.228z M124.734,183.444v3.768
				l2.736-0.72v-3.768L124.734,183.444z"/>
		</g>
		<g>
			<path d="M148.76,180.228v13.704h-0.624v-5.136l-3.336,0.864v-13.872h0.6v5.352L148.76,180.228z M145.4,183.444v3.768l2.736-0.72
				v-3.768L145.4,183.444z"/>
		</g>
		<g>
			<path d="M169.094,179.561v13.704h-0.624v-5.136l-3.336,0.864v-13.872h0.6v5.352L169.094,179.561z M165.734,182.777v3.768
				l2.736-0.72v-3.768L165.734,182.777z"/>
		</g>
		<g>
			<path d="M188.427,179.561v13.704h-0.624v-5.136l-3.336,0.864v-13.872h0.6v5.352L188.427,179.561z M185.067,182.777v3.768
				l2.736-0.72v-3.768L185.067,182.777z"/>
		</g>
		<g>
			<path d="M208.094,178.894v13.704h-0.624v-5.136l-3.336,0.864v-13.872h0.6v5.352L208.094,178.894z M204.734,182.11v3.768
				l2.736-0.72v-3.768L204.734,182.11z"/>
		</g>
	</g>
</svg>
