<?xml version="1.0" encoding="utf-8"?>
<!-- Generator: Adobe Illustrator 10.0, SVG Export Plug-In . SVG Version: 3.0.0 Build 76)  -->
<!DOCTYPE svg PUBLIC "-//W3C//DTD SVG 1.0//EN"    "http://www.w3.org/TR/2001/REC-SVG-20010904/DTD/svg10.dtd" [
	<!ENTITY ns_flows "http://ns.adobe.com/Flows/1.0/">
	<!ENTITY ns_extend "http://ns.adobe.com/Extensibility/1.0/">
	<!ENTITY ns_ai "http://ns.adobe.com/AdobeIllustrator/10.0/">
	<!ENTITY ns_svg "http://www.w3.org/2000/svg">
	<!ENTITY ns_xlink "http://www.w3.org/1999/xlink">
]>
<svg  xmlns:x="&ns_extend;" xmlns:i="&ns_ai;" xmlns:graph="&ns_graphs;"
	 xmlns="&ns_svg;" xmlns:xlink="&ns_xlink;" xmlns:a="http://ns.adobe.com/AdobeSVGViewerExtensions/3.0/" width="326" height="56"
	 viewBox="-0.241 -0.202 326 56" overflow="visible" enable-background="new -0.241 -0.202 326 56" xml:space="preserve">
	<g id="Layer_1_2_">
		<g>
			<path fill="none" stroke="#000000" d="M0.087,12.584h325.604"/>
			<path fill="none" stroke="#000000" d="M0.087,27.696h325.604"/>
			<path fill="none" stroke="#000000" d="M0.249,34.818h325.604"/>
			<path fill="none" stroke="#000000" d="M0,42.202h325.604"/>
			<path fill="none" stroke="#000000" d="M0,19.838h325.604"/>
		</g>
		<g>
			<path d="M9.324,41.796c-4.944-2.352-5.736-5.376-5.952-8.472c-0.24-3.36,1.896-6.768,3.888-8.664
				c1.152-1.08,2.4-2.136,3.888-3.264c-0.048-0.84-0.24-1.176-0.336-2.376c-0.024-0.504-0.336-2.856,0.168-5.568
				c0.312-1.608,2.328-5.4,3.72-5.424c1.08-0.024,2.736,4.296,2.784,6.456c0.072,3.336-0.72,4.848-1.704,6.576
				c-0.504,0.864-1.032,1.464-1.584,2.136c-0.576,0.696-1.224,1.104-1.824,1.632c0,0,0.768,4.344,0.792,4.656
				c1.536-0.192,3.408,0.36,4.08,0.84c1.704,1.272,2.352,3.024,2.472,4.728c0.216,2.712-1.272,5.568-4.56,6.936
				c0,0,0.504,3.456,0.624,4.176c0.264,1.896,0.216,3.096-0.192,3.864c-0.696,1.296-1.824,2.496-4.008,2.64
				c-1.68,0.096-4.992-0.744-5.16-3.384c-0.096-1.56,0.6-3.24,2.496-3.36c1.152-0.096,2.52,0.864,2.616,2.232
				c0.096,1.176-0.672,2.4-2.664,2.952c0.312,0.432,1.248,0.936,2.592,0.936c1.392,0,2.832-0.936,3.528-2.184
				c0.432-0.816,0.384-2.28,0.216-3.624c-0.072-0.456-0.648-4.08-0.648-4.08C12.78,42.444,10.332,42.276,9.324,41.796z
				 M9.804,36.108c0.048,1.152,1.008,2.496,1.896,2.952c-0.12,0.072-0.24,0.264-0.24,0.264c-0.984-0.48-1.824-1.272-2.04-1.56
				c-0.696-0.936-0.984-1.464-1.08-2.88c-0.096-1.32,0.624-3.096,2.232-4.344c0.84-0.624,1.248-0.768,1.968-0.936l-0.72-4.344
				c-0.744,0.432-3.816,2.904-5.112,4.92c-1.152,1.8-1.848,3.24-1.704,5.016c0.288,4.008,4.68,7.296,9.432,6.168
				c0,0-1.416-8.52-1.392-8.52C10.428,32.94,9.732,34.957,9.804,36.108z M11.748,20.892c2.088-1.632,4.92-4.704,4.752-7.08
				c-0.048-0.744-0.36-2.088-1.44-2.064C12.588,11.772,11.196,16.932,11.748,20.892z M15.012,41.172
				c2.76-0.936,2.88-3.312,2.784-4.728c-0.096-1.176-0.624-3.816-4.128-3.648L15.012,41.172z"/>
		</g>
		<g>
			<path d="M59.582,16.181c2.04,0.024,3.144,1.416,2.52,3.12c-0.624,1.728-2.784,3.096-4.8,3.072
				c-0.984-0.024-1.776-0.384-2.232-0.936v19.08h-0.456c0-24.216,0-20.4,0-20.4c0-0.288,0.072-0.576,0.192-0.888
				C55.429,17.501,57.565,16.157,59.582,16.181z"/>
		</g>
		<g>
			<path d="M86.582,16.181c2.04,0.024,3.144,1.416,2.52,3.12c-0.624,1.728-2.784,3.096-4.8,3.072
				c-0.984-0.024-1.776-0.384-2.232-0.936v19.08h-0.456c0-24.216,0-20.4,0-20.4c0-0.288,0.072-0.576,0.192-0.888
				C82.429,17.501,84.565,16.157,86.582,16.181z"/>
		</g>
		<g>
			<path d="M113.582,16.181c2.04,0.024,3.144,1.416,2.52,3.12c-0.624,1.728-2.784,3.096-4.8,3.072
				c-0.984-0.024-1.776-0.384-2.232-0.936v19.08h-0.456c0-24.216,0-20.4,0-20.4c0-0.288,0.072-0.576,0.192-0.888
				C109.429,17.501,111.565,16.157,113.582,16.181z"/>
		</g>
		<g>
			<path d="M239.582,16.181c2.04,0.024,3.144,1.416,2.52,3.12c-0.624,1.728-2.784,3.096-4.8,3.072
				c-0.984-0.024-1.776-0.384-2.232-0.936v19.08h-0.456c0-24.216,0-20.4,0-20.4c0-0.288,0.072-0.576,0.192-0.888
				C235.429,17.501,237.565,16.157,239.582,16.181z"/>
		</g>
		<g>
			<path d="M268.582,16.181c2.04,0.024,3.144,1.416,2.52,3.12c-0.624,1.728-2.784,3.096-4.8,3.072
				c-0.984-0.024-1.776-0.384-2.232-0.936v19.08h-0.456c0-24.216,0-20.4,0-20.4c0-0.288,0.072-0.576,0.192-0.888
				C264.429,17.501,266.565,16.157,268.582,16.181z"/>
		</g>
		<g>
			<path d="M295.581,16.181c2.04,0.024,3.145,1.416,2.521,3.12c-0.624,1.728-2.784,3.096-4.8,3.072
				c-0.984-0.024-1.776-0.384-2.232-0.936v19.08h-0.456c0-24.216,0-20.4,0-20.4c0-0.288,0.072-0.576,0.192-0.888
				C291.43,17.501,293.565,16.157,295.581,16.181z"/>
		</g>
		<path fill="none" stroke="#0A0A0A" d="M135.97,12.009v29.746"/>
		<g>
			<path d="M33.517,25.598c-2.448,0-4.272-1.2-4.272-3.168c0-0.84,0.816-1.728,1.68-1.728c0.888,0,1.824,0.528,1.824,1.536
				c0,1.224-0.936,1.368-0.864,2.232c0.024,0.216,0.72,0.6,0.96,0.6c1.608,0,2.376-1.848,2.376-2.928
				c0-2.064-1.896-1.848-3.432-2.16c0-0.048,0.024-0.648,0.024-0.624c1.56-0.192,3.072-0.72,3.048-2.52
				c-0.024-2.52-2.016-2.352-2.328-2.352c-0.168,0-0.696,0.336-0.672,0.6c0.072,0.528,0.816,0.768,1.128,1.704
				c0.312,0.912-0.768,1.92-1.68,1.92c-1.056,0-1.848-1.176-1.848-1.776c0-1.392,1.104-3.144,4.848-3.144
				c1.632,0,3.432,1.128,3.432,2.904c0,2.352-2.76,2.52-2.76,2.856c1.392,0.144,3.24,0.672,3.24,2.52
				C38.221,24.519,35.269,25.598,33.517,25.598z"/>
		</g>
		<g>
			<path d="M36.261,37.334v1.584c0,0.96,1.128,0.936,1.128,0.936v0.624h-5.208v-0.624c0,0,1.176,0.048,1.152-0.888v-1.632h-4.44
				l-0.432-0.456c2.904-3.912,2.928-4.632,3.624-8.184h4.152c-0.984,1.824-4.296,5.256-6.624,7.968h3.72V33.71l2.928-3.216v6.168
				h1.728v0.672H36.261z"/>
		</g>
		<path fill="none" stroke="#0A0A0A" d="M221.971,12.009v29.746"/>
		<path fill="none" stroke="#0A0A0A" d="M324.979,13.135v29.746"/>
		<path fill="none" stroke="#000000" d="M53.269,6.694h12"/>
		<path fill="none" stroke="#000000" d="M80.269,6.694h12"/>
		<path fill="none" stroke="#000000" d="M106.269,6.694h12"/>
		<path fill="none" stroke="#000000" d="M150.269,46.694h12"/>
		<path fill="none" stroke="#000000" d="M174,46.694h12"/>
		<path fill="none" stroke="#000000" d="M197,46.694h12"/>
		<g>
			<path d="M156.896,31.526c0.984,0,1.776,0.36,2.232,0.912V13.214h0.456v20.4c0,0.336-0.048,0.672-0.168,1.056
				c-0.648,1.704-2.784,3.072-4.8,3.048c-2.016-0.024-3.144-1.44-2.52-3.144S154.88,31.502,156.896,31.526z"/>
		</g>
		<g>
			<path d="M181.896,31.526c0.984,0,1.776,0.36,2.232,0.912V13.214h0.456v20.4c0,0.336-0.048,0.672-0.168,1.056
				c-0.648,1.704-2.784,3.072-4.8,3.048c-2.016-0.024-3.144-1.44-2.52-3.144S179.88,31.502,181.896,31.526z"/>
		</g>
		<g>
			<path d="M203.896,31.526c0.984,0,1.776,0.36,2.232,0.912V13.214h0.456v20.4c0,0.336-0.048,0.672-0.168,1.056
				c-0.648,1.704-2.784,3.072-4.8,3.048c-2.016-0.024-3.144-1.44-2.52-3.144S201.88,31.502,203.896,31.526z"/>
		</g>
		<g>
			<path d="M235.054,5.928c-0.072,0.288-0.216,0.744-0.216,1.032c0,0.144,0.012,0.432,0.216,0.432c0.348,0,0.732-0.924,0.84-1.224
				l0.276,0.084c-0.288,0.804-0.864,1.932-1.848,1.932c-0.564,0-0.864-0.36-0.864-0.924c0-0.372,0.132-0.864,0.228-1.236l1.08-4.02
				c0.072-0.252,0.228-0.84,0.228-1.08c0-0.408-0.624-0.408-0.912-0.408l0.096-0.36L236.722,0L235.054,5.928z"/>
			<path d="M240.586,6.624c-0.552,0.816-1.32,1.56-2.352,1.56c-1.092,0-1.728-0.684-1.728-1.788c0-1.788,1.32-3.54,3.18-3.54
				c0.624,0,1.464,0.252,1.464,1.008c0,1.356-2.124,1.812-3.168,2.076c-0.036,0.228-0.072,0.456-0.072,0.684
				c0,0.468,0.252,0.9,0.768,0.9c0.672,0,1.212-0.648,1.608-1.128L240.586,6.624z M240.01,3.708c0-0.276-0.156-0.492-0.444-0.492
				c-0.864,0-1.308,1.68-1.476,2.34C238.894,5.316,240.01,4.656,240.01,3.708z"/>
			<path d="M244.666,9.804c0-1.392-3.6-0.396-3.6-2.16c0-0.756,0.684-1.14,1.344-1.272c-0.456-0.288-0.78-0.696-0.78-1.26
				c0-1.404,1.212-2.256,2.52-2.256c0.492,0,0.972,0.096,1.368,0.408c0.24-0.276,0.612-0.576,0.996-0.576
				c0.324,0,0.612,0.192,0.612,0.552c0,0.24-0.204,0.408-0.444,0.408c-0.324,0-0.396-0.276-0.6-0.276
				c-0.108,0-0.228,0.096-0.312,0.168c0.204,0.288,0.3,0.6,0.3,0.948c0,0.936-0.648,1.824-1.548,2.088
				c-0.288,0.084-0.6,0.108-0.936,0.108h-0.552c-0.264,0-0.948,0-0.948,0.408c0,0.42,0.684,0.456,0.96,0.492
				c1.104,0.144,2.76,0.3,2.76,1.764c0,1.356-1.476,1.92-2.628,1.92c-0.924,0-2.7-0.324-2.7-1.536c0-0.456,0.312-0.804,0.768-0.804
				c0.264,0,0.48,0.12,0.636,0.324c-0.264,0.036-0.48,0.276-0.48,0.552c0,0.828,1.092,1.056,1.728,1.056
				C243.802,10.86,244.666,10.632,244.666,9.804z M242.962,5.592c0,0.336,0.18,0.684,0.564,0.684c0.852,0,1.212-1.668,1.212-2.304
				c0-0.336-0.108-0.756-0.516-0.756C243.322,3.156,242.962,5.1,242.962,5.592z"/>
			<path d="M250.978,2.868h1.248l-0.9,3.216c-0.06,0.204-0.192,0.696-0.192,0.888c0,0.144,0.06,0.42,0.228,0.42
				c0.372,0,0.72-0.804,0.888-1.08l0.252,0.108c-0.324,0.756-0.96,1.764-1.872,1.764c-0.456,0-0.768-0.36-0.768-0.804l0.036-0.432
				l-0.024-0.024c-0.36,0.672-0.984,1.26-1.8,1.26c-1.008,0-1.488-0.804-1.488-1.74c0-1.548,1.212-3.588,2.94-3.588
				c0.564,0,0.972,0.276,1.188,0.78L250.978,2.868z M248.026,6.684c0,0.348,0.168,0.78,0.576,0.78c1.092,0,1.824-2.4,1.824-3.264
				c0-0.384-0.216-0.684-0.636-0.684C248.734,3.516,248.026,5.832,248.026,6.684z"/>
			<path d="M255.298,3.096h1.14l-0.132,0.48h-1.14l-0.552,2.076c-0.096,0.336-0.3,1.056-0.3,1.392c0,0.18,0.048,0.42,0.276,0.42
				c0.408,0,0.816-0.732,0.984-1.02l0.096-0.168l0.228,0.12c-0.372,0.744-1.02,1.788-1.944,1.788c-0.54,0-0.972-0.396-0.972-0.936
				c0-0.516,0.228-1.296,0.36-1.8l0.504-1.872h-0.948l0.108-0.48h0.96l0.612-1.884h1.224L255.298,3.096z"/>
			<path d="M256.186,6.12c0-1.68,1.26-3.264,2.988-3.264c1.224,0,1.992,0.9,1.992,2.076c0,1.62-1.308,3.252-2.988,3.252
				C256.954,8.184,256.186,7.32,256.186,6.12z M257.985,4.788c-0.216,0.6-0.468,1.512-0.468,2.16c0,0.372,0.144,0.828,0.6,0.828
				c1.104,0,1.716-2.904,1.716-3.756c0-0.384-0.18-0.756-0.612-0.756C258.514,3.264,258.166,4.236,257.985,4.788z"/>
		</g>
	</g>
</svg>
