<?xml version="1.0" encoding="utf-8"?>
<!-- Generator: Adobe Illustrator 10.0, SVG Export Plug-In . SVG Version: 3.0.0 Build 76)  -->
<!DOCTYPE svg PUBLIC "-//W3C//DTD SVG 1.0//EN"    "http://www.w3.org/TR/2001/REC-SVG-20010904/DTD/svg10.dtd" [
	<!ENTITY ns_flows "http://ns.adobe.com/Flows/1.0/">
	<!ENTITY ns_extend "http://ns.adobe.com/Extensibility/1.0/">
	<!ENTITY ns_ai "http://ns.adobe.com/AdobeIllustrator/10.0/">
	<!ENTITY ns_svg "http://www.w3.org/2000/svg">
	<!ENTITY ns_xlink "http://www.w3.org/1999/xlink">
]>
<svg  xmlns:x="&ns_extend;" xmlns:i="&ns_ai;" xmlns:graph="&ns_graphs;"
	 xmlns="&ns_svg;" xmlns:xlink="&ns_xlink;" xmlns:a="http://ns.adobe.com/AdobeSVGViewerExtensions/3.0/" width="223" height="165"
	 viewBox="-0.375 -0.104 223 165" overflow="visible" enable-background="new -0.375 -0.104 223 165" xml:space="preserve">
	<g id="Layer_1_2_">
		<path fill="none" stroke="#000000" stroke-width="3" d="M1.5,3.784v161.429"/>
		<path fill="none" stroke="#000000" stroke-width="3" d="M81.723,1.784l0.871,160.539"/>
		<path fill="none" stroke="#000000" stroke-width="3" d="M141.889,0.892l0.872,161.431"/>
		<path fill="none" stroke="#000000" stroke-width="3" d="M221.239,0v162.323"/>
		<path stroke="#000000" stroke-width="3" d="M27.66,94.54H15.452V2.676H27.66V94.54z"/>
		<path stroke="#000000" stroke-width="3" d="M48.587,94.54H36.379V2.676h12.208V94.54z"/>
		<path stroke="#000000" stroke-width="3" d="M67.771,94.54H55.563V2.676h12.208V94.54z"/>
		<path stroke="#000000" stroke-width="3" d="M107.591,94.243H95.383V2.379h12.208V94.243z"/>
		<path stroke="#000000" stroke-width="3" d="M127.938,94.54h-12.208V2.676h12.208V94.54z"/>
		<path stroke="#000000" stroke-width="3" d="M167.177,94.54h-12.208V2.676h12.208V94.54z"/>
		<path stroke="#000000" stroke-width="3" d="M187.232,94.54h-12.208V2.676h12.208V94.54z"/>
		<path stroke="#000000" stroke-width="3" d="M207.288,94.54h-12.207V2.676h12.207V94.54z"/>
		<path fill="#FFFFFF" d="M171.625,73.965H4.384v-33h167.242V73.965z"/>
		<g>
			<path fill="#0A50A1" d="M165.016,63.185c0,0.189,0,1.342,0,1.342c0.57-0.713,0.885-0.86,1.515-0.881
				c0.75-0.021,1.23,1.028,1.245,1.867c0.015,0.44-0.075,0.901-0.195,1.258c-0.135,0.461-0.495,0.818-0.735,1.153
				c-0.27,0.377-2.22,2.244-2.22,2.286V57.816h0.39C165.016,57.816,165.03,60.417,165.016,63.185z M165.181,65.261
				c-0.195,0.524-0.165,1.426-0.165,2.076v1.803c0,0.021,0.54-0.629,0.84-1.027c0.27-0.356,0.48-0.755,0.585-1.384
				c0.12-0.629,0.075-1.3-0.21-1.74C166.036,64.674,165.496,64.422,165.181,65.261z"/>
		</g>
		<path fill="none" stroke="#000000" stroke-width="3" d="M22.428,95.432v66.891"/>
		<path fill="none" stroke="#000000" stroke-width="3" d="M42.754,96.323l-0.252,63.918"/>
		<path fill="none" stroke="#000000" stroke-width="3" d="M61.666,95.432v66.891"/>
		<path fill="none" stroke="#000000" stroke-width="3" d="M101.777,92.756v69.566"/>
		<path fill="none" stroke="#000000" stroke-width="3" d="M121.834,96.323v65.107"/>
		<path fill="none" stroke="#000000" stroke-width="3" d="M161.072,96.323v66.891"/>
		<path fill="none" stroke="#000000" stroke-width="3" d="M181.128,96.323l-0.872,66"/>
		<path fill="none" stroke="#000000" stroke-width="3" d="M202.055,96.323l-0.871,66.891"/>
		<path fill="none" stroke="#000000" stroke-width="3" d="M0.384,162.323h220.855"/>
		<g>
			<path fill="#FF0000" d="M67.257,104.597c0.446-0.108,1.161-0.18,1.865-0.18c1.021,0,1.678,0.18,2.159,0.588
				c0.411,0.312,0.669,0.792,0.669,1.428c0,0.792-0.516,1.476-1.337,1.776v0.036c0.75,0.18,1.631,0.816,1.631,2.016
				c0,0.696-0.27,1.224-0.681,1.62c-0.54,0.516-1.431,0.756-2.722,0.756c-0.704,0-1.243-0.048-1.583-0.096V104.597z M68.277,107.909
				h0.927c1.068,0,1.701-0.588,1.701-1.368c0-0.936-0.692-1.32-1.725-1.32c-0.469,0-0.739,0.036-0.903,0.072V107.909z
				 M68.277,111.773c0.211,0.036,0.493,0.048,0.856,0.048c1.056,0,2.03-0.396,2.03-1.572c0-1.092-0.927-1.56-2.042-1.56h-0.845
				V111.773z"/>
			<path fill="#FF0000" d="M150.801,108.773h-3.062v2.916h3.426v0.876h-4.458v-8.088h4.282v0.876h-3.25v2.556h3.062V108.773z"/>
		</g>
		<g>
			<path fill="#FF0000" d="M18.646,49.217h4.259v0.876h-3.226v2.688h2.98v0.864h-2.98v3.66h-1.033V49.217z"/>
			<path fill="#FF0000" d="M42.838,56.945c-0.458,0.18-1.373,0.444-2.44,0.444c-1.197,0-2.182-0.312-2.957-1.068
				c-0.68-0.672-1.103-1.752-1.103-3.012c0-2.412,1.631-4.176,4.282-4.176c0.915,0,1.643,0.204,1.983,0.372l-0.258,0.852
				c-0.422-0.204-0.95-0.348-1.748-0.348c-1.924,0-3.18,1.224-3.18,3.252c0,2.052,1.197,3.264,3.05,3.264
				c0.669,0,1.126-0.096,1.361-0.216v-2.412h-1.596v-0.84h2.604V56.945z"/>
			<path fill="#FF0000" d="M58.101,54.761l-0.821,2.544h-1.056l2.687-8.088h1.232l2.698,8.088H61.75l-0.845-2.544H58.101z
				 M60.694,53.945l-0.786-2.328c-0.164-0.528-0.282-1.008-0.399-1.476h-0.035c-0.105,0.468-0.234,0.972-0.387,1.464l-0.774,2.34
				H60.694z"/>
			<path fill="#FF0000" d="M101.146,57.053c-0.363,0.192-1.126,0.384-2.088,0.384c-2.229,0-3.895-1.44-3.895-4.104
				c0-2.544,1.678-4.248,4.13-4.248c0.974,0,1.607,0.216,1.877,0.36l-0.258,0.852c-0.375-0.192-0.927-0.336-1.584-0.336
				c-1.854,0-3.085,1.212-3.085,3.336c0,1.992,1.114,3.252,3.027,3.252c0.633,0,1.267-0.132,1.678-0.336L101.146,57.053z"/>
			<path fill="#FF0000" d="M117.348,49.325c0.633-0.096,1.373-0.168,2.182-0.168c1.467,0,2.511,0.336,3.203,0.996
				c0.715,0.66,1.126,1.608,1.126,2.916c0,1.32-0.411,2.4-1.138,3.144c-0.751,0.756-1.971,1.164-3.508,1.164
				c-0.739,0-1.337-0.024-1.865-0.096V49.325z M118.38,56.489c0.258,0.048,0.634,0.048,1.033,0.048
				c2.182,0.012,3.367-1.248,3.367-3.432c0.012-1.932-1.044-3.12-3.203-3.12c-0.528,0-0.927,0.048-1.197,0.108V56.489z"/>
			<path fill="#FF0000" d="M157.494,49.217h4.259v0.876h-3.227v2.688h2.98v0.864h-2.98v3.66h-1.033V49.217z"/>
		</g>
		<g>
			<path fill="#FF0000" d="M164.926,45.746v-3.089h0.367v2.899l1.238-0.606v-2.767h0.367v2.596l0.493-0.247v1.971l-0.493,0.247
				v2.804l0.493-0.227v1.952l-0.493,0.246v3.089h-0.367v-2.918l-1.238,0.606v2.804h-0.367v-2.615l-0.543,0.265v-1.971l0.543-0.265
				v-2.824l-0.543,0.265v-1.952L164.926,45.746z M165.293,47.527v2.823l1.238-0.606V46.92L165.293,47.527z"/>
		</g>
		<g>
			<path fill="#0A50A1" d="M23.825,70.828c-0.458,0.18-1.373,0.444-2.44,0.444c-1.197,0-2.183-0.312-2.957-1.068
				c-0.681-0.672-1.103-1.752-1.103-3.012c0-2.412,1.631-4.176,4.282-4.176c0.915,0,1.643,0.204,1.983,0.372l-0.258,0.852
				c-0.422-0.204-0.95-0.348-1.748-0.348c-1.924,0-3.179,1.224-3.179,3.252c0,2.052,1.196,3.264,3.05,3.264
				c0.668,0,1.126-0.096,1.361-0.216v-2.412h-1.596v-0.84h2.604V70.828z"/>
			<path fill="#0A50A1" d="M39.088,68.644l-0.821,2.544h-1.056l2.687-8.088h1.232l2.698,8.088h-1.091l-0.845-2.544H39.088z
				 M41.681,67.828L40.895,65.5c-0.164-0.528-0.281-1.008-0.399-1.476h-0.035c-0.105,0.468-0.234,0.972-0.387,1.464l-0.774,2.34
				H41.681z"/>
			<path fill="#0A50A1" d="M57.425,63.219c0.446-0.108,1.162-0.18,1.866-0.18c1.021,0,1.678,0.18,2.159,0.588
				c0.411,0.312,0.668,0.792,0.668,1.428c0,0.792-0.516,1.476-1.337,1.776v0.036c0.751,0.18,1.631,0.816,1.631,2.016
				c0,0.696-0.27,1.224-0.681,1.62c-0.54,0.516-1.431,0.756-2.722,0.756c-0.704,0-1.244-0.048-1.584-0.096V63.219z M58.446,66.531
				h0.927c1.067,0,1.701-0.588,1.701-1.368c0-0.936-0.692-1.32-1.725-1.32c-0.469,0-0.739,0.036-0.903,0.072V66.531z M58.446,70.396
				c0.211,0.036,0.493,0.048,0.856,0.048c1.056,0,2.03-0.396,2.03-1.572c0-1.092-0.927-1.56-2.042-1.56h-0.845V70.396z"/>
			<path fill="#0A50A1" d="M96.105,63.208c0.634-0.096,1.373-0.168,2.183-0.168c1.466,0,2.511,0.336,3.203,0.996
				c0.716,0.66,1.126,1.608,1.126,2.916c0,1.32-0.411,2.4-1.138,3.144c-0.751,0.756-1.971,1.164-3.508,1.164
				c-0.739,0-1.337-0.024-1.866-0.096V63.208z M97.138,70.372c0.258,0.048,0.633,0.048,1.032,0.048
				c2.182,0.012,3.367-1.248,3.367-3.432c0.012-1.932-1.044-3.12-3.203-3.12c-0.528,0-0.927,0.048-1.197,0.108V70.372z"/>
			<path fill="#0A50A1" d="M122.936,67.396h-3.062v2.916h3.426v0.876h-4.458V63.1h4.282v0.876h-3.25v2.556h3.062V67.396z"/>
			<path fill="#0A50A1" d="M162.988,70.828c-0.458,0.18-1.373,0.444-2.44,0.444c-1.197,0-2.183-0.312-2.957-1.068
				c-0.681-0.672-1.103-1.752-1.103-3.012c0-2.412,1.631-4.176,4.282-4.176c0.915,0,1.643,0.204,1.983,0.372l-0.258,0.852
				c-0.422-0.204-0.95-0.348-1.748-0.348c-1.924,0-3.179,1.224-3.179,3.252c0,2.052,1.196,3.264,3.05,3.264
				c0.668,0,1.126-0.096,1.361-0.216v-2.412h-1.596v-0.84h2.604V70.828z"/>
		</g>
		<g>
			<path fill="#FF0000" d="M44.736,44.669v-3.089h0.367v2.899l1.238-0.606v-2.767h0.367v2.596l0.493-0.247v1.971l-0.493,0.247v2.804
				l0.493-0.227v1.952l-0.493,0.246v3.089h-0.367V50.62l-1.238,0.606v2.804h-0.367v-2.615l-0.543,0.265V49.71l0.543-0.265v-2.824
				l-0.543,0.265v-1.952L44.736,44.669z M45.103,46.451v2.823l1.238-0.606v-2.823L45.103,46.451z"/>
		</g>
		<g>
			<path fill="#FF0000" d="M64.778,46.116v-3.089h0.367v2.899l1.238-0.606v-2.767h0.367v2.596l0.493-0.247v1.971l-0.493,0.247v2.804
				l0.493-0.227v1.952l-0.493,0.246v3.089h-0.367v-2.918l-1.238,0.606v2.804h-0.367v-2.615l-0.543,0.265v-1.971l0.543-0.265v-2.824
				l-0.543,0.265v-1.952L64.778,46.116z M65.145,47.897v2.823l1.238-0.606v-2.823L65.145,47.897z"/>
		</g>
		<g>
			<path fill="#FF0000" d="M26.186,45.729v-3.089h0.367v2.899l1.238-0.606v-2.767h0.367v2.596l0.493-0.247v1.971l-0.493,0.247v2.804
				l0.493-0.227v1.952l-0.493,0.246v3.089H27.79V51.68l-1.238,0.606v2.804h-0.367v-2.615l-0.543,0.265V50.77l0.543-0.265v-2.824
				l-0.543,0.265v-1.952L26.186,45.729z M26.552,47.511v2.823l1.238-0.606v-2.823L26.552,47.511z"/>
		</g>
		<g>
			<path fill="#0A50A1" d="M65.275,61.836c0,0.188,0,1.342,0,1.342c0.57-0.713,0.885-0.86,1.515-0.881
				c0.75-0.021,1.23,1.028,1.245,1.867c0.015,0.44-0.075,0.901-0.195,1.258c-0.135,0.461-0.495,0.818-0.735,1.153
				c-0.27,0.377-2.22,2.244-2.22,2.286V56.467h0.39C65.275,56.467,65.29,59.068,65.275,61.836z M65.44,63.912
				c-0.195,0.524-0.165,1.426-0.165,2.076v1.803c0,0.021,0.54-0.629,0.84-1.027c0.27-0.356,0.48-0.755,0.585-1.384
				c0.12-0.629,0.075-1.3-0.21-1.74C66.295,63.325,65.755,63.073,65.44,63.912z"/>
		</g>
		<g>
			<path fill="#0A50A1" d="M126.607,62.503c0,0.188,0,1.342,0,1.342c0.57-0.713,0.885-0.86,1.515-0.881
				c0.75-0.021,1.23,1.028,1.245,1.867c0.015,0.44-0.075,0.901-0.195,1.258c-0.135,0.461-0.495,0.818-0.735,1.153
				c-0.27,0.377-2.22,2.244-2.22,2.286V57.134h0.39C126.607,57.134,126.622,59.735,126.607,62.503z M126.772,64.579
				c-0.195,0.524-0.165,1.426-0.165,2.076v1.803c0,0.021,0.54-0.629,0.84-1.027c0.27-0.356,0.48-0.755,0.585-1.384
				c0.12-0.629,0.075-1.3-0.21-1.74C127.627,63.992,127.087,63.74,126.772,64.579z"/>
		</g>
		<path stroke="#000000" d="M34.384,61.965l20-9"/>
		<path stroke="#000000" d="M12.384,62.965l20-9"/>
		<path stroke="#000000" d="M91.384,62.965l20-9"/>
		<path stroke="#000000" d="M115.383,61.965l20-9"/>
		<path stroke="#000000" d="M152.124,63.314l20-9"/>
		<g>
			<path fill="#FF0000" d="M106.778,46.116v-3.089h0.367v2.899l1.238-0.606v-2.767h0.367v2.596l0.493-0.247v1.971l-0.493,0.247
				v2.804l0.493-0.227v1.952l-0.493,0.246v3.089h-0.367v-2.918l-1.238,0.606v2.804h-0.367v-2.615l-0.543,0.265v-1.971l0.543-0.265
				v-2.824l-0.543,0.265v-1.952L106.778,46.116z M107.145,47.897v2.823l1.238-0.606v-2.823L107.145,47.897z"/>
		</g>
		<g>
			<path fill="#0A50A1" d="M26.016,62.185c0,0.189,0,1.342,0,1.342c0.57-0.713,0.885-0.86,1.515-0.881
				c0.75-0.021,1.23,1.028,1.245,1.867c0.015,0.44-0.075,0.901-0.195,1.258c-0.135,0.461-0.495,0.818-0.735,1.153
				c-0.27,0.377-2.22,2.244-2.22,2.286V56.816h0.39C26.016,56.816,26.03,59.417,26.016,62.185z M26.181,64.261
				c-0.195,0.524-0.165,1.426-0.165,2.076v1.803c0,0.021,0.54-0.629,0.84-1.027c0.27-0.356,0.48-0.755,0.585-1.384
				c0.12-0.629,0.075-1.3-0.21-1.74C27.036,63.674,26.496,63.422,26.181,64.261z"/>
		</g>
		<g>
			<path fill="#0A50A1" d="M45.275,61.836c0,0.188,0,1.342,0,1.342c0.57-0.713,0.885-0.86,1.515-0.881
				c0.75-0.021,1.23,1.028,1.245,1.867c0.015,0.44-0.075,0.901-0.195,1.258c-0.135,0.461-0.495,0.818-0.735,1.153
				c-0.27,0.377-2.22,2.244-2.22,2.286V56.467h0.39C45.275,56.467,45.29,59.068,45.275,61.836z M45.44,63.912
				c-0.195,0.524-0.165,1.426-0.165,2.076v1.803c0,0.021,0.54-0.629,0.84-1.027c0.27-0.356,0.48-0.755,0.585-1.384
				c0.12-0.629,0.075-1.3-0.21-1.74C46.295,63.325,45.755,63.073,45.44,63.912z"/>
		</g>
		<g>
			<path fill="#FF0000" d="M126.186,45.396v-3.089h0.367v2.899l1.238-0.606v-2.767h0.367v2.596l0.493-0.247v1.971l-0.493,0.247
				v2.804l0.493-0.227v1.952l-0.493,0.246v3.089h-0.367v-2.918l-1.238,0.606v2.804h-0.367v-2.615l-0.543,0.265v-1.971l0.543-0.265
				v-2.824l-0.543,0.265v-1.952L126.186,45.396z M126.553,47.178v2.823l1.238-0.606v-2.823L126.553,47.178z"/>
		</g>
		<g>
			<path fill="#0A50A1" d="M108.275,61.836c0,0.188,0,1.342,0,1.342c0.57-0.713,0.885-0.86,1.515-0.881
				c0.75-0.021,1.23,1.028,1.245,1.867c0.015,0.44-0.075,0.901-0.195,1.258c-0.135,0.461-0.495,0.818-0.735,1.153
				c-0.27,0.377-2.22,2.244-2.22,2.286V56.467h0.39C108.275,56.467,108.29,59.068,108.275,61.836z M108.44,63.912
				c-0.195,0.524-0.165,1.426-0.165,2.076v1.803c0,0.021,0.54-0.629,0.84-1.027c0.27-0.356,0.48-0.755,0.585-1.384
				c0.12-0.629,0.075-1.3-0.21-1.74C109.295,63.325,108.755,63.073,108.44,63.912z"/>
		</g>
		<path stroke="#000000" d="M56.124,62.314l20-9"/>
		<path stroke="#000000" d="M61.384,119.965l20-9"/>
		<path stroke="#000000" d="M141.384,119.965l20-9"/>
		<g>
			<path fill="#0A50A1" d="M73.031,130.645c-0.364,0.192-1.126,0.384-2.088,0.384c-2.229,0-3.895-1.44-3.895-4.104
				c0-2.544,1.678-4.248,4.13-4.248c0.974,0,1.607,0.216,1.877,0.36l-0.258,0.852c-0.375-0.192-0.927-0.336-1.584-0.336
				c-1.854,0-3.085,1.212-3.085,3.336c0,1.992,1.114,3.252,3.027,3.252c0.633,0,1.267-0.132,1.678-0.336L73.031,130.645z"/>
			<path fill="#0A50A1" d="M146.967,122.809h4.259v0.876h-3.227v2.688h2.98v0.864h-2.98v3.66h-1.032V122.809z"/>
		</g>
		<g>
			<path fill="#0A50A1" d="M75.275,118.836c0,0.188,0,1.342,0,1.342c0.57-0.713,0.885-0.86,1.515-0.881
				c0.75-0.021,1.23,1.028,1.245,1.867c0.015,0.44-0.075,0.901-0.195,1.258c-0.135,0.461-0.495,0.818-0.735,1.153
				c-0.27,0.377-2.22,2.244-2.22,2.286v-12.393h0.39C75.275,113.467,75.29,116.068,75.275,118.836z M75.44,120.912
				c-0.195,0.524-0.165,1.426-0.165,2.076v1.803c0,0.021,0.54-0.629,0.84-1.027c0.27-0.356,0.48-0.755,0.585-1.384
				c0.12-0.629,0.075-1.3-0.21-1.74C76.295,120.325,75.755,120.073,75.44,120.912z"/>
		</g>
		<g>
			<path fill="#FF0000" d="M154.186,102.396v-3.089h0.367v2.899l1.238-0.606v-2.767h0.367v2.596l0.493-0.247v1.971l-0.493,0.247
				v2.804l0.493-0.227v1.952l-0.493,0.246v3.089h-0.367v-2.918l-1.238,0.606v2.804h-0.367v-2.615l-0.543,0.265v-1.971l0.543-0.265
				v-2.824l-0.543,0.265v-1.952L154.186,102.396z M154.553,104.178v2.823l1.238-0.606v-2.823L154.553,104.178z"/>
		</g>
	</g>
</svg>
