<?xml version="1.0" encoding="utf-8"?>
<!-- Generator: Adobe Illustrator 10.0, SVG Export Plug-In . SVG Version: 3.0.0 Build 76)  -->
<!DOCTYPE svg PUBLIC "-//W3C//DTD SVG 1.0//EN"    "http://www.w3.org/TR/2001/REC-SVG-20010904/DTD/svg10.dtd" [
	<!ENTITY ns_flows "http://ns.adobe.com/Flows/1.0/">
	<!ENTITY ns_extend "http://ns.adobe.com/Extensibility/1.0/">
	<!ENTITY ns_ai "http://ns.adobe.com/AdobeIllustrator/10.0/">
	<!ENTITY ns_svg "http://www.w3.org/2000/svg">
	<!ENTITY ns_xlink "http://www.w3.org/1999/xlink">
]>
<svg  xmlns:x="&ns_extend;" xmlns:i="&ns_ai;" xmlns:graph="&ns_graphs;"
	 xmlns="&ns_svg;" xmlns:xlink="&ns_xlink;" xmlns:a="http://ns.adobe.com/AdobeSVGViewerExtensions/3.0/" width="414" height="208"
	 viewBox="0.2 -0.334 414 208" overflow="visible" enable-background="new 0.2 -0.334 414 208" xml:space="preserve">
	<g id="Layer_1_2_">
		<g>
			<path fill="none" stroke="#000000" d="M0.108,3.832h404.121"/>
			<path fill="none" stroke="#000000" d="M0.108,18.943h404.121"/>
			<path fill="none" stroke="#000000" d="M0.309,26.066H404.43"/>
			<path fill="none" stroke="#000000" d="M0,33.45h404.12"/>
			<path fill="none" stroke="#000000" d="M0,11.085h404.12"/>
		</g>
		<g>
			<path d="M311.3,101.094v-3.912h0.695v3.672l2.353-0.768v-3.504h0.696v3.288l0.936-0.312v2.496l-0.936,0.312v3.552l0.936-0.288
				v2.472l-0.936,0.312v3.912h-0.696v-3.696l-2.353,0.768v3.552H311.3v-3.312l-1.032,0.336v-2.496l1.032-0.336v-3.576l-1.032,0.336
				v-2.472L311.3,101.094z M311.996,103.351v3.576l2.353-0.768v-3.576L311.996,103.351z"/>
		</g>
		<g>
			<path d="M11.048,33.768c-4.944-2.352-5.736-5.376-5.952-8.472c-0.24-3.36,1.896-6.768,3.888-8.664
				c1.152-1.08,2.4-2.136,3.888-3.264c-0.048-0.84-0.24-1.176-0.336-2.376c-0.024-0.504-0.336-2.856,0.168-5.568
				c0.312-1.608,2.328-5.4,3.72-5.424c1.08-0.024,2.736,4.296,2.784,6.456c0.072,3.336-0.72,4.848-1.704,6.576
				c-0.504,0.864-1.032,1.464-1.584,2.136c-0.576,0.696-1.224,1.104-1.824,1.632c0,0,0.768,4.344,0.792,4.656
				c1.536-0.192,3.408,0.36,4.08,0.84c1.704,1.272,2.352,3.024,2.472,4.728c0.216,2.712-1.272,5.568-4.56,6.936
				c0,0,0.504,3.456,0.624,4.176c0.264,1.896,0.216,3.096-0.192,3.864c-0.696,1.296-1.824,2.496-4.008,2.64
				c-1.68,0.096-4.992-0.744-5.16-3.384c-0.096-1.56,0.6-3.24,2.496-3.36c1.152-0.096,2.52,0.864,2.616,2.232
				c0.096,1.176-0.672,2.4-2.664,2.952c0.312,0.432,1.248,0.936,2.592,0.936c1.392,0,2.832-0.936,3.528-2.184
				c0.432-0.816,0.384-2.28,0.216-3.624c-0.072-0.456-0.648-4.08-0.648-4.08C14.504,34.416,12.056,34.248,11.048,33.768z
				 M11.528,28.08c0.048,1.152,1.008,2.496,1.896,2.952c-0.12,0.072-0.24,0.264-0.24,0.264c-0.984-0.48-1.824-1.272-2.04-1.56
				c-0.696-0.936-0.984-1.464-1.08-2.88c-0.096-1.32,0.624-3.096,2.232-4.344c0.84-0.624,1.248-0.768,1.968-0.936l-0.72-4.344
				c-0.744,0.432-3.816,2.904-5.112,4.92c-1.152,1.8-1.848,3.24-1.704,5.016c0.288,4.008,4.68,7.296,9.432,6.168
				c0,0-1.416-8.52-1.392-8.52C12.152,24.912,11.456,26.928,11.528,28.08z M13.472,12.864c2.088-1.632,4.92-4.704,4.752-7.08
				c-0.048-0.744-0.36-2.088-1.44-2.064C14.312,3.744,12.92,8.904,13.472,12.864z M16.736,33.144c2.76-0.936,2.88-3.312,2.784-4.728
				c-0.096-1.176-0.624-3.816-4.128-3.648L16.736,33.144z"/>
		</g>
		<g>
			<path d="M325.582,15.533c2.04,0.024,3.145,1.416,2.521,3.12c-0.624,1.728-2.784,3.096-4.8,3.072
				c-0.984-0.024-1.776-0.384-2.232-0.936v19.08h-0.456c0-24.216,0-20.4,0-20.4c0-0.288,0.072-0.576,0.192-0.888
				C321.43,16.853,323.566,15.509,325.582,15.533z"/>
		</g>
		<g>
			<path d="M91.439,34.291c0.984,0,1.776,0.36,2.232,0.912V15.979h0.456v20.4c0,0.336-0.048,0.672-0.168,1.056
				c-0.648,1.704-2.784,3.072-4.8,3.048c-2.016-0.024-3.144-1.44-2.52-3.144S89.423,34.267,91.439,34.291z"/>
		</g>
		<g>
			<g>
				<path d="M44.157,37.021c0.984,0,1.776,0.36,2.232,0.912V18.708h0.456v20.4c0,0.336-0.048,0.672-0.168,1.056
					c-0.648,1.704-2.784,3.072-4.8,3.048c-2.016-0.024-3.144-1.44-2.52-3.144S42.141,36.997,44.157,37.021z"/>
			</g>
			<path fill="none" stroke="#000000" stroke-miterlimit="1" d="M37.054,40.177h11.644"/>
		</g>
		<g>
			<path fill="none" stroke="#000000" d="M3.109,93.832h406.257"/>
			<path fill="none" stroke="#000000" d="M3.109,108.943h406.257"/>
			<path fill="none" stroke="#000000" d="M3.311,116.066h406.258"/>
			<path fill="none" stroke="#000000" d="M3,123.45h406.257"/>
			<path fill="none" stroke="#000000" d="M3,101.085h406.257"/>
		</g>
		<g>
			<path d="M14.048,123.768c-4.944-2.352-5.736-5.376-5.952-8.472c-0.24-3.36,1.896-6.768,3.888-8.664
				c1.152-1.08,2.4-2.136,3.888-3.264c-0.048-0.84-0.24-1.176-0.336-2.376c-0.024-0.504-0.336-2.856,0.168-5.568
				c0.312-1.608,2.328-5.4,3.72-5.424c1.08-0.024,2.736,4.296,2.784,6.456c0.072,3.336-0.72,4.848-1.704,6.576
				c-0.504,0.864-1.032,1.464-1.584,2.136c-0.576,0.696-1.224,1.104-1.824,1.632c0,0,0.768,4.344,0.792,4.656
				c1.536-0.192,3.408,0.36,4.08,0.84c1.704,1.272,2.352,3.024,2.472,4.728c0.216,2.712-1.272,5.568-4.56,6.936
				c0,0,0.504,3.456,0.624,4.176c0.264,1.896,0.216,3.096-0.192,3.864c-0.696,1.296-1.824,2.496-4.008,2.64
				c-1.68,0.096-4.992-0.744-5.16-3.384c-0.096-1.56,0.6-3.24,2.496-3.36c1.152-0.096,2.52,0.864,2.616,2.232
				c0.096,1.176-0.672,2.4-2.664,2.952c0.312,0.432,1.248,0.936,2.592,0.936c1.392,0,2.832-0.936,3.528-2.184
				c0.432-0.816,0.384-2.28,0.216-3.624c-0.072-0.456-0.648-4.08-0.648-4.08C17.504,124.416,15.056,124.248,14.048,123.768z
				 M14.528,118.08c0.048,1.152,1.008,2.496,1.896,2.952c-0.12,0.072-0.24,0.264-0.24,0.264c-0.984-0.48-1.824-1.272-2.04-1.56
				c-0.696-0.936-0.984-1.464-1.08-2.88c-0.096-1.32,0.624-3.096,2.232-4.344c0.84-0.624,1.248-0.768,1.968-0.936l-0.72-4.344
				c-0.744,0.432-3.816,2.904-5.112,4.92c-1.152,1.8-1.848,3.24-1.704,5.016c0.288,4.008,4.68,7.296,9.432,6.168
				c0,0-1.416-8.52-1.392-8.52C15.152,114.912,14.456,116.928,14.528,118.08z M16.472,102.864c2.088-1.632,4.92-4.704,4.752-7.08
				c-0.048-0.744-0.36-2.088-1.44-2.064C17.312,93.744,15.92,98.904,16.472,102.864z M19.736,123.144
				c2.76-0.936,2.88-3.312,2.784-4.728c-0.096-1.176-0.624-3.816-4.128-3.648L19.736,123.144z"/>
		</g>
		<g>
			<path fill="none" stroke="#000000" d="M2.111,171.832h412.253"/>
			<path fill="none" stroke="#000000" d="M2.111,186.943h412.253"/>
			<path fill="none" stroke="#000000" d="M2.315,194.066h412.253"/>
			<path fill="none" stroke="#000000" d="M2,201.45h412.252"/>
			<path fill="none" stroke="#000000" d="M2,179.085h412.252"/>
		</g>
		<g>
			<path d="M134.268,30.395c0.984,0,1.776,0.36,2.232,0.912V12.083h0.456v20.4c0,0.336-0.048,0.672-0.168,1.056
				c-0.648,1.704-2.784,3.072-4.8,3.048c-2.016-0.024-3.144-1.44-2.52-3.144S132.251,30.371,134.268,30.395z"/>
		</g>
		<g>
			<path d="M54.765,66l-2.052-8.088h1.104l0.96,4.092c0.24,1.02,0.456,2.016,0.6,2.796h0.024c0.132-0.804,0.384-1.764,0.66-2.808
				l1.08-4.08h1.092l0.984,4.104c0.228,0.972,0.444,1.92,0.564,2.772h0.024c0.168-0.888,0.396-1.788,0.648-2.796l1.068-4.08h1.068
				L60.297,66h-1.092l-1.02-4.2c-0.252-1.044-0.42-1.836-0.528-2.652h-0.024c-0.132,0.816-0.324,1.596-0.624,2.64L55.857,66H54.765z
				"/>
			<path d="M63.501,57.479h1.056v3.624h0.024c0.168-0.3,0.432-0.576,0.756-0.744c0.312-0.192,0.684-0.3,1.08-0.3
				c0.78,0,2.028,0.48,2.028,2.484V66h-1.056v-3.336c0-0.948-0.348-1.728-1.344-1.728c-0.684,0-1.212,0.48-1.416,1.056
				c-0.06,0.144-0.072,0.3-0.072,0.504V66h-1.056V57.479z"/>
			<path d="M72.525,66.131c-1.56,0-2.784-1.152-2.784-2.988c0-1.944,1.284-3.084,2.88-3.084c1.668,0,2.796,1.212,2.796,2.976
				c0,2.16-1.5,3.096-2.88,3.096H72.525z M72.561,65.339c1.008,0,1.764-0.948,1.764-2.268c0-0.984-0.492-2.22-1.74-2.22
				c-1.236,0-1.776,1.152-1.776,2.256c0,1.272,0.72,2.232,1.74,2.232H72.561z"/>
			<path d="M76.749,57.479h1.056V66h-1.056V57.479z"/>
			<path d="M80.157,63.275c0.024,1.428,0.924,2.016,1.98,2.016c0.756,0,1.224-0.132,1.608-0.288l0.192,0.744
				c-0.372,0.168-1.02,0.372-1.944,0.372c-1.776,0-2.856-1.188-2.856-2.928c0-1.764,1.044-3.144,2.736-3.144
				c1.896,0,2.388,1.668,2.388,2.736c0,0.216-0.012,0.384-0.036,0.504L80.157,63.275z M83.241,62.52
				c0.012-0.66-0.276-1.716-1.452-1.716c-1.08,0-1.536,0.984-1.62,1.716H83.241z"/>
			<path d="M55.857,79.228c0.468,0.3,1.14,0.528,1.86,0.528c1.068,0,1.692-0.552,1.692-1.38c0-0.744-0.432-1.188-1.524-1.596
				c-1.32-0.48-2.136-1.176-2.136-2.304c0-1.26,1.044-2.196,2.616-2.196c0.816,0,1.428,0.192,1.776,0.396l-0.288,0.852
				c-0.252-0.156-0.792-0.384-1.524-0.384c-1.104,0-1.524,0.66-1.524,1.212c0,0.756,0.492,1.128,1.608,1.56
				c1.368,0.54,2.052,1.188,2.052,2.376c0,1.248-0.912,2.34-2.82,2.34c-0.78,0-1.632-0.24-2.064-0.528L55.857,79.228z"/>
			<path d="M63.093,73.299v1.392h1.512v0.804h-1.512v3.132c0,0.72,0.204,1.128,0.792,1.128c0.288,0,0.456-0.024,0.612-0.072
				l0.048,0.804c-0.204,0.072-0.528,0.144-0.936,0.144c-0.492,0-0.888-0.168-1.14-0.444c-0.288-0.324-0.408-0.84-0.408-1.524v-3.168
				h-0.9v-0.804h0.9v-1.068L63.093,73.299z"/>
			<path d="M66.321,77.775c0.024,1.428,0.924,2.016,1.98,2.016c0.756,0,1.224-0.132,1.608-0.288l0.192,0.744
				c-0.372,0.168-1.02,0.372-1.944,0.372c-1.776,0-2.856-1.188-2.856-2.928c0-1.764,1.044-3.144,2.736-3.144
				c1.896,0,2.388,1.668,2.388,2.736c0,0.216-0.012,0.384-0.036,0.504L66.321,77.775z M69.405,77.02
				c0.012-0.66-0.276-1.716-1.452-1.716c-1.08,0-1.536,0.984-1.62,1.716H69.405z"/>
			<path d="M71.733,76.587c0-0.744-0.012-1.344-0.048-1.896h0.948l0.06,0.996h0.024c0.42-0.72,1.116-1.128,2.052-1.128
				c1.416,0,2.472,1.188,2.472,2.952c0,2.088-1.284,3.12-2.64,3.12c-0.78,0-1.44-0.336-1.788-0.912h-0.024v3.156h-1.056V76.587z
				 M72.789,78.135c0,0.144,0.012,0.3,0.048,0.432c0.18,0.732,0.828,1.236,1.572,1.236c1.116,0,1.764-0.912,1.764-2.244
				c0-1.164-0.6-2.16-1.716-2.16c-0.72,0-1.404,0.504-1.608,1.296c-0.024,0.144-0.06,0.3-0.06,0.432V78.135z"/>
		</g>
		<g>
			<path d="M146.489,57.912v3.384h3.912v-3.384h1.056V66h-1.056v-3.792h-3.912V66h-1.056v-8.088H146.489z"/>
			<path d="M157.325,64.607c0,0.504,0.024,0.996,0.084,1.392h-0.948l-0.096-0.732h-0.036c-0.312,0.456-0.948,0.864-1.776,0.864
				c-1.176,0-1.776-0.828-1.776-1.668c0-1.404,1.248-2.172,3.492-2.16v-0.12c0-0.48-0.132-1.356-1.32-1.344
				c-0.552,0-1.116,0.156-1.524,0.432l-0.24-0.708c0.48-0.3,1.188-0.504,1.92-0.504c1.788,0,2.22,1.212,2.22,2.376V64.607z
				 M156.293,63.036c-1.152-0.024-2.46,0.18-2.46,1.308c0,0.696,0.456,1.008,0.984,1.008c0.768,0,1.26-0.48,1.428-0.972
				c0.036-0.108,0.048-0.228,0.048-0.336V63.036z"/>
			<path d="M159.017,57.479h1.056V66h-1.056V57.479z"/>
			<path d="M161.921,66v-5.004h-0.804v-0.804h0.804v-0.276c0-0.816,0.192-1.56,0.684-2.028c0.396-0.384,0.924-0.54,1.404-0.54
				c0.384,0,0.696,0.084,0.9,0.168l-0.132,0.816c-0.168-0.072-0.372-0.132-0.684-0.132c-0.888,0-1.128,0.792-1.128,1.68v0.312h1.404
				v0.804h-1.392V66H161.921z"/>
			<path d="M145.313,79.228c0.468,0.3,1.14,0.528,1.86,0.528c1.068,0,1.692-0.552,1.692-1.38c0-0.744-0.432-1.188-1.524-1.596
				c-1.32-0.48-2.136-1.176-2.136-2.304c0-1.26,1.044-2.196,2.616-2.196c0.816,0,1.428,0.192,1.776,0.396l-0.288,0.852
				c-0.252-0.156-0.792-0.384-1.524-0.384c-1.104,0-1.524,0.66-1.524,1.212c0,0.756,0.492,1.128,1.608,1.56
				c1.368,0.54,2.052,1.188,2.052,2.376c0,1.248-0.912,2.34-2.82,2.34c-0.78,0-1.632-0.24-2.064-0.528L145.313,79.228z"/>
			<path d="M152.549,73.299v1.392h1.512v0.804h-1.512v3.132c0,0.72,0.204,1.128,0.792,1.128c0.288,0,0.456-0.024,0.612-0.072
				l0.048,0.804c-0.204,0.072-0.528,0.144-0.936,0.144c-0.492,0-0.888-0.168-1.14-0.444c-0.288-0.324-0.408-0.84-0.408-1.524v-3.168
				h-0.9v-0.804h0.9v-1.068L152.549,73.299z"/>
			<path d="M155.777,77.775c0.024,1.428,0.924,2.016,1.98,2.016c0.756,0,1.224-0.132,1.608-0.288l0.192,0.744
				c-0.372,0.168-1.02,0.372-1.944,0.372c-1.776,0-2.856-1.188-2.856-2.928c0-1.764,1.044-3.144,2.736-3.144
				c1.896,0,2.388,1.668,2.388,2.736c0,0.216-0.012,0.384-0.036,0.504L155.777,77.775z M158.861,77.02
				c0.012-0.66-0.276-1.716-1.452-1.716c-1.08,0-1.536,0.984-1.62,1.716H158.861z"/>
			<path d="M161.189,76.587c0-0.744-0.012-1.344-0.048-1.896h0.948l0.06,0.996h0.024c0.42-0.72,1.116-1.128,2.052-1.128
				c1.416,0,2.472,1.188,2.472,2.952c0,2.088-1.284,3.12-2.64,3.12c-0.78,0-1.44-0.336-1.788-0.912h-0.024v3.156h-1.056V76.587z
				 M162.245,78.135c0,0.144,0.012,0.3,0.048,0.432c0.18,0.732,0.828,1.236,1.572,1.236c1.116,0,1.764-0.912,1.764-2.244
				c0-1.164-0.6-2.16-1.716-2.16c-0.72,0-1.404,0.504-1.608,1.296c-0.024,0.144-0.06,0.3-0.06,0.432V78.135z"/>
		</g>
		<g>
			<path d="M99.765,66l-2.052-8.088h1.104l0.96,4.092c0.24,1.02,0.456,2.016,0.6,2.796h0.024c0.132-0.804,0.384-1.764,0.66-2.808
				l1.08-4.08h1.092l0.984,4.104c0.228,0.972,0.444,1.92,0.564,2.772h0.024c0.168-0.888,0.396-1.788,0.648-2.796l1.068-4.08h1.068
				L105.297,66h-1.092l-1.02-4.2c-0.252-1.044-0.42-1.836-0.528-2.652h-0.024c-0.132,0.816-0.324,1.596-0.624,2.64L100.857,66
				H99.765z"/>
			<path d="M108.501,57.479h1.056v3.624h0.024c0.168-0.3,0.432-0.576,0.756-0.744c0.312-0.192,0.684-0.3,1.08-0.3
				c0.78,0,2.028,0.48,2.028,2.484V66h-1.056v-3.336c0-0.948-0.348-1.728-1.344-1.728c-0.684,0-1.212,0.48-1.416,1.056
				c-0.06,0.144-0.072,0.3-0.072,0.504V66h-1.056V57.479z"/>
			<path d="M117.525,66.131c-1.56,0-2.784-1.152-2.784-2.988c0-1.944,1.284-3.084,2.88-3.084c1.668,0,2.796,1.212,2.796,2.976
				c0,2.16-1.5,3.096-2.88,3.096H117.525z M117.561,65.339c1.008,0,1.764-0.948,1.764-2.268c0-0.984-0.492-2.22-1.74-2.22
				c-1.236,0-1.776,1.152-1.776,2.256c0,1.272,0.72,2.232,1.74,2.232H117.561z"/>
			<path d="M121.749,57.479h1.056V66h-1.056V57.479z"/>
			<path d="M125.157,63.275c0.024,1.428,0.924,2.016,1.98,2.016c0.756,0,1.224-0.132,1.608-0.288l0.192,0.744
				c-0.372,0.168-1.02,0.372-1.944,0.372c-1.776,0-2.856-1.188-2.856-2.928c0-1.764,1.044-3.144,2.736-3.144
				c1.896,0,2.388,1.668,2.388,2.736c0,0.216-0.012,0.384-0.036,0.504L125.157,63.275z M128.241,62.52
				c0.012-0.66-0.276-1.716-1.452-1.716c-1.08,0-1.536,0.984-1.62,1.716H128.241z"/>
			<path d="M100.857,79.228c0.468,0.3,1.14,0.528,1.86,0.528c1.068,0,1.692-0.552,1.692-1.38c0-0.744-0.432-1.188-1.524-1.596
				c-1.32-0.48-2.136-1.176-2.136-2.304c0-1.26,1.044-2.196,2.616-2.196c0.816,0,1.428,0.192,1.776,0.396l-0.288,0.852
				c-0.252-0.156-0.792-0.384-1.524-0.384c-1.104,0-1.524,0.66-1.524,1.212c0,0.756,0.492,1.128,1.608,1.56
				c1.368,0.54,2.052,1.188,2.052,2.376c0,1.248-0.912,2.34-2.82,2.34c-0.78,0-1.632-0.24-2.064-0.528L100.857,79.228z"/>
			<path d="M108.093,73.299v1.392h1.512v0.804h-1.512v3.132c0,0.72,0.204,1.128,0.792,1.128c0.288,0,0.456-0.024,0.612-0.072
				l0.048,0.804c-0.204,0.072-0.528,0.144-0.936,0.144c-0.492,0-0.888-0.168-1.14-0.444c-0.288-0.324-0.408-0.84-0.408-1.524v-3.168
				h-0.9v-0.804h0.9v-1.068L108.093,73.299z"/>
			<path d="M111.321,77.775c0.024,1.428,0.924,2.016,1.98,2.016c0.756,0,1.224-0.132,1.608-0.288l0.192,0.744
				c-0.372,0.168-1.02,0.372-1.944,0.372c-1.776,0-2.856-1.188-2.856-2.928c0-1.764,1.044-3.144,2.736-3.144
				c1.896,0,2.388,1.668,2.388,2.736c0,0.216-0.012,0.384-0.036,0.504L111.321,77.775z M114.405,77.02
				c0.012-0.66-0.276-1.716-1.452-1.716c-1.08,0-1.536,0.984-1.62,1.716H114.405z"/>
			<path d="M116.733,76.587c0-0.744-0.012-1.344-0.048-1.896h0.948l0.06,0.996h0.024c0.42-0.72,1.116-1.128,2.052-1.128
				c1.416,0,2.472,1.188,2.472,2.952c0,2.088-1.284,3.12-2.64,3.12c-0.78,0-1.44-0.336-1.788-0.912h-0.024v3.156h-1.056V76.587z
				 M117.789,78.135c0,0.144,0.012,0.3,0.048,0.432c0.18,0.732,0.828,1.236,1.572,1.236c1.116,0,1.764-0.912,1.764-2.244
				c0-1.164-0.6-2.16-1.716-2.16c-0.72,0-1.404,0.504-1.608,1.296c-0.024,0.144-0.06,0.3-0.06,0.432V78.135z"/>
		</g>
		<g>
			<path d="M192.765,66l-2.052-8.088h1.104l0.96,4.092c0.24,1.02,0.456,2.016,0.6,2.796h0.024c0.132-0.804,0.384-1.764,0.66-2.808
				l1.08-4.08h1.092l0.984,4.104c0.228,0.972,0.444,1.92,0.564,2.772h0.024c0.168-0.888,0.396-1.788,0.648-2.796l1.068-4.08h1.068
				L198.297,66h-1.092l-1.02-4.2c-0.252-1.044-0.42-1.836-0.528-2.652h-0.024c-0.132,0.816-0.324,1.596-0.624,2.64L193.857,66
				H192.765z"/>
			<path d="M201.501,57.479h1.056v3.624h0.024c0.168-0.3,0.432-0.576,0.756-0.744c0.312-0.192,0.684-0.3,1.08-0.3
				c0.78,0,2.028,0.48,2.028,2.484V66h-1.056v-3.336c0-0.948-0.348-1.728-1.344-1.728c-0.684,0-1.212,0.48-1.416,1.056
				c-0.06,0.144-0.072,0.3-0.072,0.504V66h-1.056V57.479z"/>
			<path d="M210.525,66.131c-1.56,0-2.784-1.152-2.784-2.988c0-1.944,1.284-3.084,2.88-3.084c1.668,0,2.796,1.212,2.796,2.976
				c0,2.16-1.5,3.096-2.88,3.096H210.525z M210.561,65.339c1.008,0,1.764-0.948,1.764-2.268c0-0.984-0.492-2.22-1.74-2.22
				c-1.236,0-1.776,1.152-1.776,2.256c0,1.272,0.72,2.232,1.74,2.232H210.561z"/>
			<path d="M214.749,57.479h1.056V66h-1.056V57.479z"/>
			<path d="M218.157,63.275c0.024,1.428,0.924,2.016,1.98,2.016c0.756,0,1.224-0.132,1.608-0.288l0.192,0.744
				c-0.372,0.168-1.02,0.372-1.944,0.372c-1.776,0-2.856-1.188-2.856-2.928c0-1.764,1.044-3.144,2.736-3.144
				c1.896,0,2.388,1.668,2.388,2.736c0,0.216-0.012,0.384-0.036,0.504L218.157,63.275z M221.241,62.52
				c0.012-0.66-0.276-1.716-1.452-1.716c-1.08,0-1.536,0.984-1.62,1.716H221.241z"/>
			<path d="M193.857,79.228c0.468,0.3,1.14,0.528,1.86,0.528c1.068,0,1.692-0.552,1.692-1.38c0-0.744-0.432-1.188-1.524-1.596
				c-1.32-0.48-2.136-1.176-2.136-2.304c0-1.26,1.044-2.196,2.616-2.196c0.816,0,1.428,0.192,1.776,0.396l-0.288,0.852
				c-0.252-0.156-0.792-0.384-1.524-0.384c-1.104,0-1.524,0.66-1.524,1.212c0,0.756,0.492,1.128,1.608,1.56
				c1.368,0.54,2.052,1.188,2.052,2.376c0,1.248-0.912,2.34-2.82,2.34c-0.78,0-1.632-0.24-2.064-0.528L193.857,79.228z"/>
			<path d="M201.093,73.299v1.392h1.512v0.804h-1.512v3.132c0,0.72,0.204,1.128,0.792,1.128c0.288,0,0.456-0.024,0.612-0.072
				l0.048,0.804c-0.204,0.072-0.528,0.144-0.936,0.144c-0.492,0-0.888-0.168-1.14-0.444c-0.288-0.324-0.408-0.84-0.408-1.524v-3.168
				h-0.9v-0.804h0.9v-1.068L201.093,73.299z"/>
			<path d="M204.321,77.775c0.024,1.428,0.924,2.016,1.98,2.016c0.756,0,1.224-0.132,1.608-0.288l0.192,0.744
				c-0.372,0.168-1.02,0.372-1.944,0.372c-1.776,0-2.856-1.188-2.856-2.928c0-1.764,1.044-3.144,2.736-3.144
				c1.896,0,2.388,1.668,2.388,2.736c0,0.216-0.012,0.384-0.036,0.504L204.321,77.775z M207.405,77.02
				c0.012-0.66-0.276-1.716-1.452-1.716c-1.08,0-1.536,0.984-1.62,1.716H207.405z"/>
			<path d="M209.733,76.587c0-0.744-0.012-1.344-0.048-1.896h0.948l0.06,0.996h0.024c0.42-0.72,1.116-1.128,2.052-1.128
				c1.416,0,2.472,1.188,2.472,2.952c0,2.088-1.284,3.12-2.64,3.12c-0.78,0-1.44-0.336-1.788-0.912h-0.024v3.156h-1.056V76.587z
				 M210.789,78.135c0,0.144,0.012,0.3,0.048,0.432c0.18,0.732,0.828,1.236,1.572,1.236c1.116,0,1.764-0.912,1.764-2.244
				c0-1.164-0.6-2.16-1.716-2.16c-0.72,0-1.404,0.504-1.608,1.296c-0.024,0.144-0.06,0.3-0.06,0.432V78.135z"/>
		</g>
		<g>
			<path d="M242.766,66l-2.053-8.088h1.104l0.96,4.092c0.24,1.02,0.456,2.016,0.6,2.796h0.024c0.132-0.804,0.384-1.764,0.66-2.808
				l1.08-4.08h1.092l0.983,4.104c0.229,0.972,0.444,1.92,0.564,2.772h0.024c0.168-0.888,0.396-1.788,0.647-2.796l1.068-4.08h1.067
				L248.297,66h-1.092l-1.02-4.2c-0.252-1.044-0.42-1.836-0.528-2.652h-0.024c-0.132,0.816-0.323,1.596-0.624,2.64L243.858,66
				H242.766z"/>
			<path d="M251.501,57.479h1.057v3.624h0.023c0.168-0.3,0.433-0.576,0.756-0.744c0.313-0.192,0.685-0.3,1.08-0.3
				c0.78,0,2.028,0.48,2.028,2.484V66h-1.056v-3.336c0-0.948-0.349-1.728-1.345-1.728c-0.684,0-1.212,0.48-1.416,1.056
				c-0.06,0.144-0.071,0.3-0.071,0.504V66h-1.057V57.479z"/>
			<path d="M260.526,66.131c-1.561,0-2.784-1.152-2.784-2.988c0-1.944,1.284-3.084,2.88-3.084c1.668,0,2.796,1.212,2.796,2.976
				c0,2.16-1.5,3.096-2.88,3.096H260.526z M260.562,65.339c1.008,0,1.764-0.948,1.764-2.268c0-0.984-0.492-2.22-1.74-2.22
				c-1.235,0-1.775,1.152-1.775,2.256c0,1.272,0.72,2.232,1.739,2.232H260.562z"/>
			<path d="M264.75,57.479h1.056V66h-1.056V57.479z"/>
			<path d="M268.158,63.275c0.023,1.428,0.924,2.016,1.979,2.016c0.756,0,1.225-0.132,1.608-0.288l0.192,0.744
				c-0.372,0.168-1.021,0.372-1.944,0.372c-1.776,0-2.856-1.188-2.856-2.928c0-1.764,1.044-3.144,2.736-3.144
				c1.896,0,2.388,1.668,2.388,2.736c0,0.216-0.012,0.384-0.036,0.504L268.158,63.275z M271.242,62.52
				c0.012-0.66-0.276-1.716-1.452-1.716c-1.08,0-1.536,0.984-1.62,1.716H271.242z"/>
			<path d="M243.858,79.228c0.468,0.3,1.14,0.528,1.859,0.528c1.068,0,1.692-0.552,1.692-1.38c0-0.744-0.432-1.188-1.524-1.596
				c-1.319-0.48-2.136-1.176-2.136-2.304c0-1.26,1.044-2.196,2.616-2.196c0.815,0,1.428,0.192,1.775,0.396l-0.287,0.852
				c-0.252-0.156-0.792-0.384-1.524-0.384c-1.104,0-1.524,0.66-1.524,1.212c0,0.756,0.492,1.128,1.608,1.56
				c1.368,0.54,2.052,1.188,2.052,2.376c0,1.248-0.912,2.34-2.819,2.34c-0.78,0-1.633-0.24-2.064-0.528L243.858,79.228z"/>
			<path d="M251.093,73.299v1.392h1.513v0.804h-1.513v3.132c0,0.72,0.204,1.128,0.792,1.128c0.288,0,0.456-0.024,0.612-0.072
				l0.048,0.804c-0.204,0.072-0.527,0.144-0.936,0.144c-0.492,0-0.889-0.168-1.141-0.444c-0.288-0.324-0.407-0.84-0.407-1.524
				v-3.168h-0.9v-0.804h0.9v-1.068L251.093,73.299z"/>
			<path d="M254.322,77.775c0.023,1.428,0.924,2.016,1.979,2.016c0.756,0,1.225-0.132,1.608-0.288l0.191,0.744
				c-0.371,0.168-1.02,0.372-1.943,0.372c-1.776,0-2.856-1.188-2.856-2.928c0-1.764,1.044-3.144,2.736-3.144
				c1.896,0,2.388,1.668,2.388,2.736c0,0.216-0.012,0.384-0.036,0.504L254.322,77.775z M257.406,77.02
				c0.012-0.66-0.276-1.716-1.452-1.716c-1.08,0-1.536,0.984-1.62,1.716H257.406z"/>
			<path d="M259.734,76.587c0-0.744-0.013-1.344-0.049-1.896h0.948l0.061,0.996h0.023c0.42-0.72,1.116-1.128,2.052-1.128
				c1.416,0,2.473,1.188,2.473,2.952c0,2.088-1.284,3.12-2.641,3.12c-0.779,0-1.439-0.336-1.788-0.912h-0.023v3.156h-1.056V76.587z
				 M260.79,78.135c0,0.144,0.012,0.3,0.048,0.432c0.18,0.732,0.828,1.236,1.572,1.236c1.116,0,1.764-0.912,1.764-2.244
				c0-1.164-0.6-2.16-1.716-2.16c-0.72,0-1.404,0.504-1.608,1.296c-0.023,0.144-0.06,0.3-0.06,0.432V78.135z"/>
		</g>
		<g>
			<path d="M286.766,66l-2.053-8.088h1.104l0.96,4.092c0.24,1.02,0.456,2.016,0.6,2.796h0.024c0.132-0.804,0.384-1.764,0.66-2.808
				l1.08-4.08h1.092l0.983,4.104c0.229,0.972,0.444,1.92,0.564,2.772h0.024c0.168-0.888,0.396-1.788,0.647-2.796l1.068-4.08h1.067
				L292.297,66h-1.092l-1.02-4.2c-0.252-1.044-0.42-1.836-0.528-2.652h-0.024c-0.132,0.816-0.323,1.596-0.624,2.64L287.858,66
				H286.766z"/>
			<path d="M295.501,57.479h1.057v3.624h0.023c0.168-0.3,0.433-0.576,0.756-0.744c0.313-0.192,0.685-0.3,1.08-0.3
				c0.78,0,2.028,0.48,2.028,2.484V66h-1.056v-3.336c0-0.948-0.349-1.728-1.345-1.728c-0.684,0-1.212,0.48-1.416,1.056
				c-0.06,0.144-0.071,0.3-0.071,0.504V66h-1.057V57.479z"/>
			<path d="M304.526,66.131c-1.561,0-2.784-1.152-2.784-2.988c0-1.944,1.284-3.084,2.88-3.084c1.668,0,2.796,1.212,2.796,2.976
				c0,2.16-1.5,3.096-2.88,3.096H304.526z M304.562,65.339c1.008,0,1.764-0.948,1.764-2.268c0-0.984-0.492-2.22-1.74-2.22
				c-1.235,0-1.775,1.152-1.775,2.256c0,1.272,0.72,2.232,1.739,2.232H304.562z"/>
			<path d="M308.75,57.479h1.056V66h-1.056V57.479z"/>
			<path d="M312.158,63.275c0.023,1.428,0.924,2.016,1.979,2.016c0.756,0,1.225-0.132,1.608-0.288l0.192,0.744
				c-0.372,0.168-1.021,0.372-1.944,0.372c-1.776,0-2.856-1.188-2.856-2.928c0-1.764,1.044-3.144,2.736-3.144
				c1.896,0,2.388,1.668,2.388,2.736c0,0.216-0.012,0.384-0.036,0.504L312.158,63.275z M315.242,62.52
				c0.012-0.66-0.276-1.716-1.452-1.716c-1.08,0-1.536,0.984-1.62,1.716H315.242z"/>
			<path d="M287.858,79.228c0.468,0.3,1.14,0.528,1.859,0.528c1.068,0,1.692-0.552,1.692-1.38c0-0.744-0.432-1.188-1.524-1.596
				c-1.319-0.48-2.136-1.176-2.136-2.304c0-1.26,1.044-2.196,2.616-2.196c0.815,0,1.428,0.192,1.775,0.396l-0.287,0.852
				c-0.252-0.156-0.792-0.384-1.524-0.384c-1.104,0-1.524,0.66-1.524,1.212c0,0.756,0.492,1.128,1.608,1.56
				c1.368,0.54,2.052,1.188,2.052,2.376c0,1.248-0.912,2.34-2.819,2.34c-0.78,0-1.633-0.24-2.064-0.528L287.858,79.228z"/>
			<path d="M295.093,73.299v1.392h1.513v0.804h-1.513v3.132c0,0.72,0.204,1.128,0.792,1.128c0.288,0,0.456-0.024,0.612-0.072
				l0.048,0.804c-0.204,0.072-0.527,0.144-0.936,0.144c-0.492,0-0.889-0.168-1.141-0.444c-0.288-0.324-0.407-0.84-0.407-1.524
				v-3.168h-0.9v-0.804h0.9v-1.068L295.093,73.299z"/>
			<path d="M298.322,77.775c0.023,1.428,0.924,2.016,1.979,2.016c0.756,0,1.225-0.132,1.608-0.288l0.191,0.744
				c-0.371,0.168-1.02,0.372-1.943,0.372c-1.776,0-2.856-1.188-2.856-2.928c0-1.764,1.044-3.144,2.736-3.144
				c1.896,0,2.388,1.668,2.388,2.736c0,0.216-0.012,0.384-0.036,0.504L298.322,77.775z M301.406,77.02
				c0.012-0.66-0.276-1.716-1.452-1.716c-1.08,0-1.536,0.984-1.62,1.716H301.406z"/>
			<path d="M303.734,76.587c0-0.744-0.013-1.344-0.049-1.896h0.948l0.061,0.996h0.023c0.42-0.72,1.116-1.128,2.052-1.128
				c1.416,0,2.473,1.188,2.473,2.952c0,2.088-1.284,3.12-2.641,3.12c-0.779,0-1.439-0.336-1.788-0.912h-0.023v3.156h-1.056V76.587z
				 M304.79,78.135c0,0.144,0.012,0.3,0.048,0.432c0.18,0.732,0.828,1.236,1.572,1.236c1.116,0,1.764-0.912,1.764-2.244
				c0-1.164-0.6-2.16-1.716-2.16c-0.72,0-1.404,0.504-1.608,1.296c-0.023,0.144-0.06,0.3-0.06,0.432V78.135z"/>
		</g>
		<g>
			<path d="M335.49,57.912v3.384h3.912v-3.384h1.056V66h-1.056v-3.792h-3.912V66h-1.056v-8.088H335.49z"/>
			<path d="M346.326,64.607c0,0.504,0.024,0.996,0.084,1.392h-0.948l-0.096-0.732h-0.036c-0.312,0.456-0.948,0.864-1.776,0.864
				c-1.176,0-1.775-0.828-1.775-1.668c0-1.404,1.248-2.172,3.492-2.16v-0.12c0-0.48-0.133-1.356-1.32-1.344
				c-0.552,0-1.116,0.156-1.524,0.432l-0.239-0.708c0.479-0.3,1.188-0.504,1.92-0.504c1.788,0,2.22,1.212,2.22,2.376V64.607z
				 M345.293,63.036c-1.151-0.024-2.46,0.18-2.46,1.308c0,0.696,0.456,1.008,0.984,1.008c0.768,0,1.26-0.48,1.428-0.972
				c0.036-0.108,0.048-0.228,0.048-0.336V63.036z"/>
			<path d="M348.017,57.479h1.057V66h-1.057V57.479z"/>
			<path d="M350.921,66v-5.004h-0.804v-0.804h0.804v-0.276c0-0.816,0.192-1.56,0.685-2.028c0.396-0.384,0.924-0.54,1.403-0.54
				c0.384,0,0.696,0.084,0.9,0.168l-0.132,0.816c-0.168-0.072-0.372-0.132-0.685-0.132c-0.888,0-1.128,0.792-1.128,1.68v0.312h1.404
				v0.804h-1.393V66H350.921z"/>
			<path d="M334.314,79.228c0.468,0.3,1.14,0.528,1.859,0.528c1.068,0,1.692-0.552,1.692-1.38c0-0.744-0.432-1.188-1.524-1.596
				c-1.319-0.48-2.136-1.176-2.136-2.304c0-1.26,1.044-2.196,2.616-2.196c0.816,0,1.428,0.192,1.776,0.396l-0.288,0.852
				c-0.252-0.156-0.792-0.384-1.524-0.384c-1.104,0-1.524,0.66-1.524,1.212c0,0.756,0.492,1.128,1.608,1.56
				c1.368,0.54,2.052,1.188,2.052,2.376c0,1.248-0.912,2.34-2.819,2.34c-0.78,0-1.633-0.24-2.064-0.528L334.314,79.228z"/>
			<path d="M341.549,73.299v1.392h1.513v0.804h-1.513v3.132c0,0.72,0.204,1.128,0.792,1.128c0.288,0,0.456-0.024,0.612-0.072
				l0.048,0.804c-0.204,0.072-0.527,0.144-0.936,0.144c-0.492,0-0.889-0.168-1.141-0.444c-0.288-0.324-0.407-0.84-0.407-1.524
				v-3.168h-0.9v-0.804h0.9v-1.068L341.549,73.299z"/>
			<path d="M344.778,77.775c0.023,1.428,0.924,2.016,1.979,2.016c0.756,0,1.225-0.132,1.608-0.288l0.192,0.744
				c-0.372,0.168-1.021,0.372-1.944,0.372c-1.776,0-2.856-1.188-2.856-2.928c0-1.764,1.044-3.144,2.736-3.144
				c1.896,0,2.388,1.668,2.388,2.736c0,0.216-0.012,0.384-0.036,0.504L344.778,77.775z M347.862,77.02
				c0.012-0.66-0.276-1.716-1.452-1.716c-1.08,0-1.536,0.984-1.62,1.716H347.862z"/>
			<path d="M350.19,76.587c0-0.744-0.013-1.344-0.049-1.896h0.948l0.061,0.996h0.023c0.42-0.72,1.116-1.128,2.052-1.128
				c1.416,0,2.473,1.188,2.473,2.952c0,2.088-1.284,3.12-2.641,3.12c-0.779,0-1.439-0.336-1.787-0.912h-0.024v3.156h-1.056V76.587z
				 M351.246,78.135c0,0.144,0.012,0.3,0.048,0.432c0.18,0.732,0.828,1.236,1.572,1.236c1.116,0,1.764-0.912,1.764-2.244
				c0-1.164-0.6-2.16-1.716-2.16c-0.72,0-1.404,0.504-1.608,1.296c-0.023,0.144-0.06,0.3-0.06,0.432V78.135z"/>
		</g>
		<g>
			<path d="M180.268,26.395c0.984,0,1.776,0.36,2.232,0.912V8.083h0.456v20.4c0,0.336-0.048,0.672-0.168,1.056
				c-0.648,1.704-2.784,3.072-4.8,3.048c-2.016-0.024-3.144-1.44-2.52-3.144S178.251,26.371,180.268,26.395z"/>
		</g>
		<g>
			<path d="M229.268,23.395c0.984,0,1.776,0.36,2.232,0.912V5.083h0.456v20.4c0,0.336-0.048,0.672-0.168,1.056
				c-0.648,1.704-2.784,3.072-4.8,3.048c-2.016-0.024-3.144-1.44-2.52-3.144S227.251,23.371,229.268,23.395z"/>
		</g>
		<g>
			<path d="M275.268,19.395c0.983,0,1.775,0.36,2.231,0.912V1.083h0.456v20.4c0,0.336-0.048,0.672-0.168,1.056
				c-0.648,1.704-2.784,3.072-4.8,3.048c-2.017-0.024-3.145-1.44-2.521-3.144S273.251,19.371,275.268,19.395z"/>
		</g>
		<g>
			<path d="M40.268,124.395c0.984,0,1.776,0.36,2.232,0.912v-19.224h0.456v20.4c0,0.336-0.048,0.672-0.168,1.056
				c-0.648,1.704-2.784,3.072-4.8,3.048c-2.016-0.024-3.144-1.44-2.52-3.144S38.251,124.371,40.268,124.395z"/>
		</g>
		<g>
			<path d="M371.582,11.533c2.04,0.024,3.145,1.416,2.521,3.12c-0.624,1.728-2.784,3.096-4.8,3.072
				c-0.984-0.024-1.776-0.384-2.232-0.936v19.08h-0.456c0-24.216,0-20.4,0-20.4c0-0.288,0.072-0.576,0.192-0.888
				C367.43,12.853,369.566,11.509,371.582,11.533z"/>
		</g>
		<g>
			<path d="M89.268,120.395c0.984,0,1.776,0.36,2.232,0.912v-19.224h0.456v20.4c0,0.336-0.048,0.672-0.168,1.056
				c-0.648,1.704-2.784,3.072-4.8,3.048c-2.016-0.024-3.144-1.44-2.52-3.144S87.251,120.371,89.268,120.395z"/>
		</g>
		<g>
			<path d="M135.268,116.395c0.984,0,1.776,0.36,2.232,0.912V98.083h0.456v20.4c0,0.336-0.048,0.672-0.168,1.056
				c-0.648,1.704-2.784,3.072-4.8,3.048c-2.016-0.024-3.144-1.44-2.52-3.144S133.251,116.371,135.268,116.395z"/>
		</g>
		<g>
			<path d="M181.268,113.395c0.984,0,1.776,0.36,2.232,0.912V95.083h0.456v20.4c0,0.336-0.048,0.672-0.168,1.056
				c-0.648,1.704-2.784,3.072-4.8,3.048c-2.016-0.024-3.144-1.44-2.52-3.144S179.251,113.371,181.268,113.395z"/>
		</g>
		<g>
			<path d="M230.268,109.395c0.983,0,1.775,0.36,2.231,0.912V91.083h0.456v20.4c0,0.336-0.048,0.672-0.168,1.056
				c-0.648,1.704-2.784,3.072-4.8,3.048c-2.016-0.024-3.144-1.44-2.52-3.144S228.251,109.371,230.268,109.395z"/>
		</g>
		<g>
			<path d="M42.268,191.395c0.984,0,1.776,0.36,2.232,0.912v-19.224h0.456v20.4c0,0.336-0.048,0.672-0.168,1.056
				c-0.648,1.704-2.784,3.072-4.8,3.048c-2.016-0.024-3.144-1.44-2.52-3.144S40.251,191.371,42.268,191.395z"/>
		</g>
		<g>
			<path d="M16.75,189.241c-0.937,1.135-1.526,1.76-2.704,2.667c-1.418,1.107-2.382,1.561-4.042,2.242
				c-1.606,0.625-4.31,1.135-4.31,1.135l-0.188-0.426c0,0,4.523-1.447,6.745-3.944c2.917-3.207,4.443-7.094,4.363-12.06
				c-0.027-2.242-0.696-6.442-4.069-6.47c-1.927,0-4.657,1.76-4.47,3.944c0.053,0.313,0.803-0.34,2.275-0.284
				c1.553,0.057,2.382,2.1,2.008,3.689c-0.268,1.249-1.018,2.043-2.382,2.043c-1.74,0-3.292-1.306-3.319-3.462
				c-0.053-3.264,1.66-4.91,2.704-5.59c1.312-0.852,2.73-1.164,3.935-1.164c2.704-0.057,5.702,2.015,6.719,5.023
				c0.589,1.702,0.589,3.604,0.134,5.817c-0.294,1.504-0.669,2.327-1.338,3.689C18.142,187.396,17.66,188.106,16.75,189.241z
				 M22.96,173.633c0.83,0,1.499,0.625,1.499,1.476c0.027,0.852-0.642,1.589-1.445,1.589c-0.803,0.028-1.499-0.681-1.499-1.532
				C21.488,174.286,22.157,173.662,22.96,173.633z M22.986,180.785c0.803,0,1.472,0.624,1.499,1.476
				c0,0.879-0.642,1.589-1.445,1.589c-0.83,0.028-1.499-0.652-1.526-1.532C21.514,181.466,22.157,180.813,22.986,180.785z"/>
		</g>
		<g>
			<path d="M88.268,187.395c0.984,0,1.776,0.36,2.232,0.912v-19.224h0.456v20.4c0,0.336-0.048,0.672-0.168,1.056
				c-0.648,1.704-2.784,3.072-4.8,3.048c-2.016-0.024-3.144-1.44-2.52-3.144S86.251,187.371,88.268,187.395z"/>
		</g>
		<g>
			<path d="M276.582,105.533c2.04,0.024,3.145,1.416,2.521,3.12c-0.624,1.728-2.784,3.096-4.8,3.072
				c-0.984-0.024-1.776-0.384-2.232-0.936v19.08h-0.456c0-24.216,0-20.4,0-20.4c0-0.288,0.072-0.576,0.192-0.888
				C272.43,106.853,274.566,105.509,276.582,105.533z"/>
		</g>
		<g>
			<path d="M325.582,101.533c2.04,0.024,3.145,1.416,2.521,3.12c-0.624,1.728-2.784,3.096-4.8,3.072
				c-0.984-0.024-1.776-0.384-2.232-0.936v19.08h-0.456c0-24.216,0-20.4,0-20.4c0-0.288,0.072-0.576,0.192-0.888
				C321.43,102.853,323.566,101.509,325.582,101.533z"/>
		</g>
		<g>
			<path d="M373.582,97.533c2.04,0.024,3.145,1.416,2.521,3.12c-0.624,1.728-2.784,3.096-4.8,3.072
				c-0.984-0.024-1.776-0.384-2.232-0.936v19.08h-0.456c0-24.216,0-20.4,0-20.4c0-0.288,0.072-0.576,0.192-0.888
				C369.43,98.853,371.566,97.509,373.582,97.533z"/>
		</g>
		<g>
			<path d="M134.582,183.533c2.04,0.024,3.144,1.416,2.52,3.12c-0.624,1.728-2.784,3.096-4.8,3.072
				c-0.984-0.024-1.776-0.384-2.232-0.936v19.08h-0.456c0-24.216,0-20.4,0-20.4c0-0.288,0.072-0.576,0.192-0.888
				C130.43,184.853,132.566,183.509,134.582,183.533z"/>
		</g>
		<g>
			<path d="M180.582,179.533c2.04,0.024,3.144,1.416,2.52,3.12c-0.624,1.728-2.784,3.096-4.8,3.072
				c-0.984-0.024-1.776-0.384-2.232-0.936v19.08h-0.456c0-24.216,0-20.4,0-20.4c0-0.288,0.072-0.576,0.192-0.888
				C176.43,180.853,178.566,179.509,180.582,179.533z"/>
		</g>
		<g>
			<path d="M232.582,176.533c2.04,0.024,3.145,1.416,2.521,3.12c-0.624,1.728-2.784,3.096-4.8,3.072
				c-0.984-0.024-1.776-0.384-2.232-0.936v19.08h-0.456c0-24.216,0-20.4,0-20.4c0-0.288,0.072-0.576,0.192-0.888
				C228.43,177.853,230.566,176.509,232.582,176.533z"/>
		</g>
		<g>
			<path d="M274.582,172.533c2.04,0.024,3.145,1.416,2.521,3.12c-0.624,1.728-2.784,3.096-4.8,3.072
				c-0.984-0.024-1.776-0.384-2.232-0.936v19.08h-0.456c0-24.216,0-20.4,0-20.4c0-0.288,0.072-0.576,0.192-0.888
				C270.43,173.853,272.566,172.509,274.582,172.533z"/>
		</g>
		<g>
			<path d="M328.582,168.533c2.04,0.024,3.145,1.416,2.521,3.12c-0.624,1.728-2.784,3.096-4.8,3.072
				c-0.984-0.024-1.776-0.384-2.232-0.936v19.08h-0.456c0-24.216,0-20.4,0-20.4c0-0.288,0.072-0.576,0.192-0.888
				C324.43,169.853,326.566,168.509,328.582,168.533z"/>
		</g>
		<g>
			<path d="M373.582,164.533c2.04,0.024,3.145,1.416,2.521,3.12c-0.624,1.728-2.784,3.096-4.8,3.072
				c-0.984-0.024-1.776-0.384-2.232-0.936v19.08h-0.456c0-24.216,0-20.4,0-20.4c0-0.288,0.072-0.576,0.192-0.888
				C369.43,165.853,371.566,164.509,373.582,164.533z"/>
		</g>
		<g>
			<path d="M30.824,190.418c0,0.216,0,1.536,0,1.536c0.912-0.816,1.416-0.984,2.424-1.008c1.2-0.024,1.968,1.176,1.992,2.136
				c0.024,0.504-0.12,1.032-0.312,1.44c-0.216,0.528-0.792,0.936-1.176,1.32c-0.432,0.432-3.552,2.568-3.552,2.616v-14.184h0.624
				C30.824,184.274,30.848,187.25,30.824,190.418z M31.088,192.794c-0.312,0.6-0.264,1.632-0.264,2.376v2.064
				c0,0.024,0.864-0.72,1.344-1.176c0.432-0.408,0.768-0.864,0.936-1.584c0.192-0.72,0.12-1.488-0.336-1.992
				C32.456,192.122,31.592,191.834,31.088,192.794z"/>
		</g>
		<g>
			<path d="M121.301,116.094v-3.912h0.696v3.672l2.352-0.768v-3.504h0.696v3.288l0.936-0.312v2.496l-0.936,0.312v3.552l0.936-0.288
				v2.472l-0.936,0.312v3.912h-0.696v-3.696l-2.352,0.768v3.552h-0.696v-3.312l-1.032,0.336v-2.496l1.032-0.336v-3.576l-1.032,0.336
				v-2.472L121.301,116.094z M121.997,118.351v3.576l2.352-0.768v-3.576L121.997,118.351z"/>
		</g>
		<g>
			<path d="M60.432,154.666l-2.052-8.088h1.104l0.96,4.092c0.24,1.02,0.456,2.016,0.6,2.796h0.024
				c0.132-0.804,0.384-1.764,0.66-2.808l1.08-4.08H63.9l0.984,4.104c0.228,0.972,0.444,1.92,0.564,2.772h0.024
				c0.168-0.888,0.396-1.788,0.648-2.796l1.068-4.08h1.068l-2.292,8.088h-1.092l-1.02-4.2c-0.252-1.044-0.42-1.836-0.528-2.652H63.3
				c-0.132,0.816-0.324,1.596-0.624,2.64l-1.152,4.212H60.432z"/>
			<path d="M106.175,154.666l-2.052-8.088h1.104l0.96,4.092c0.24,1.02,0.456,2.016,0.6,2.796h0.024
				c0.132-0.804,0.384-1.764,0.66-2.808l1.08-4.08h1.092l0.984,4.104c0.228,0.972,0.444,1.92,0.564,2.772h0.024
				c0.168-0.888,0.396-1.788,0.648-2.796l1.068-4.08H114l-2.292,8.088h-1.092l-1.02-4.2c-0.252-1.044-0.42-1.836-0.528-2.652h-0.024
				c-0.132,0.816-0.324,1.596-0.624,2.64l-1.152,4.212H106.175z"/>
			<path d="M152.507,146.578v3.384h3.912v-3.384h1.056v8.088h-1.056v-3.792h-3.912v3.792h-1.056v-8.088H152.507z"/>
			<path d="M200.877,154.666l-2.052-8.088h1.104l0.96,4.092c0.24,1.02,0.456,2.016,0.6,2.796h0.024
				c0.132-0.804,0.384-1.764,0.66-2.808l1.08-4.08h1.092l0.984,4.104c0.228,0.972,0.444,1.92,0.564,2.772h0.024
				c0.168-0.888,0.396-1.788,0.648-2.796l1.068-4.08h1.068l-2.292,8.088h-1.092l-1.02-4.2c-0.252-1.044-0.42-1.836-0.528-2.652
				h-0.024c-0.132,0.816-0.324,1.596-0.624,2.64l-1.152,4.212H200.877z"/>
			<path d="M248.755,154.666l-2.052-8.088h1.104l0.96,4.092c0.24,1.02,0.456,2.016,0.6,2.796h0.024
				c0.132-0.804,0.384-1.764,0.66-2.808l1.08-4.08h1.092l0.984,4.104c0.228,0.972,0.443,1.92,0.563,2.772h0.024
				c0.168-0.888,0.396-1.788,0.647-2.796l1.068-4.08h1.068l-2.292,8.088h-1.093l-1.02-4.2c-0.252-1.044-0.42-1.836-0.528-2.652
				h-0.023c-0.133,0.816-0.324,1.596-0.624,2.64l-1.152,4.212H248.755z"/>
			<path d="M294.089,154.666l-2.052-8.088h1.104l0.96,4.092c0.24,1.02,0.456,2.016,0.601,2.796h0.023
				c0.133-0.804,0.385-1.764,0.66-2.808l1.08-4.08h1.092l0.984,4.104c0.229,0.972,0.444,1.92,0.564,2.772h0.023
				c0.168-0.888,0.396-1.788,0.648-2.796l1.067-4.08h1.068l-2.292,8.088h-1.092l-1.021-4.2c-0.252-1.044-0.42-1.836-0.527-2.652
				h-0.024c-0.132,0.816-0.324,1.596-0.624,2.64l-1.152,4.212H294.089z"/>
			<path d="M344.667,146.578v3.384h3.912v-3.384h1.056v8.088h-1.056v-3.792h-3.912v3.792h-1.056v-8.088H344.667z"/>
		</g>
		<g>
			<path d="M164.824,178.418c0,0.216,0,1.536,0,1.536c0.912-0.816,1.416-0.984,2.424-1.008c1.2-0.024,1.968,1.176,1.992,2.136
				c0.024,0.504-0.12,1.032-0.312,1.44c-0.216,0.528-0.792,0.936-1.176,1.32c-0.432,0.432-3.552,2.568-3.552,2.616v-14.184h0.624
				C164.824,172.274,164.848,175.25,164.824,178.418z M165.088,180.794c-0.312,0.6-0.264,1.632-0.264,2.376v2.064
				c0,0.024,0.864-0.72,1.344-1.176c0.432-0.408,0.768-0.864,0.936-1.584c0.192-0.72,0.12-1.488-0.336-1.992
				C166.456,180.122,165.592,179.834,165.088,180.794z"/>
		</g>
		<path fill="#FF0000" stroke="#FF0000" d="M57.2,42.666l10,10"/>
		<path fill="#FF0000" stroke="#FF0000" d="M79.2,42.666l-10,10"/>
		<path fill="#FF0000" stroke="#FF0000" d="M100.2,42.666l10,10"/>
		<path fill="#FF0000" stroke="#FF0000" d="M122.2,42.666l-10,10"/>
		<path fill="#FF0000" stroke="#FF0000" d="M145.2,42.666l10,10"/>
		<path fill="#FF0000" stroke="#FF0000" d="M167.2,42.666l-10,10"/>
		<path fill="#FF0000" stroke="#FF0000" d="M193.2,42.666l10,10"/>
		<path fill="#FF0000" stroke="#FF0000" d="M215.2,42.666l-10,10"/>
		<path fill="#FF0000" stroke="#FF0000" d="M241.2,41.666l10,10"/>
		<path fill="#FF0000" stroke="#FF0000" d="M263.2,41.666l-10,10"/>
		<path fill="#FF0000" stroke="#FF0000" d="M286.2,42.666l10,10"/>
		<path fill="#FF0000" stroke="#FF0000" d="M308.2,42.666l-10,10"/>
		<path fill="#FF0000" stroke="#FF0000" d="M333.2,42.666l10,10"/>
		<path fill="#FF0000" stroke="#FF0000" d="M355.2,42.666l-10,10"/>
		<path fill="#FF0000" stroke="#FF0000" d="M53.2,129.666l10,10"/>
		<path fill="#FF0000" stroke="#FF0000" d="M75.2,129.666l-10,10"/>
		<path fill="#FF0000" stroke="#FF0000" d="M97.2,130.666l10,10"/>
		<path fill="#FF0000" stroke="#FF0000" d="M119.2,130.666l-10,10"/>
		<path fill="#FF0000" stroke="#FF0000" d="M144.2,130.666l10,10"/>
		<path fill="#FF0000" stroke="#FF0000" d="M166.2,130.666l-10,10"/>
		<path fill="#FF0000" stroke="#FF0000" d="M193.2,128.666l10,10"/>
		<path fill="#FF0000" stroke="#FF0000" d="M215.2,128.666l-10,10"/>
		<path fill="#FF0000" stroke="#FF0000" d="M241.2,128.666l10,10"/>
		<path fill="#FF0000" stroke="#FF0000" d="M263.2,128.666l-10,10"/>
		<path fill="#FF0000" stroke="#FF0000" d="M285.2,129.666l10,10"/>
		<path fill="#FF0000" stroke="#FF0000" d="M307.2,129.666l-10,10"/>
		<path fill="#FF0000" stroke="#FF0000" d="M334.2,130.666l10,10"/>
		<path fill="#FF0000" stroke="#FF0000" d="M356.2,130.666l-10,10"/>
		<g>
			<path d="M361.824,163.418c0,0.216,0,1.536,0,1.536c0.912-0.816,1.416-0.984,2.424-1.008c1.2-0.024,1.968,1.176,1.992,2.136
				c0.024,0.504-0.12,1.032-0.312,1.44c-0.217,0.528-0.793,0.936-1.177,1.32c-0.432,0.432-3.552,2.568-3.552,2.616v-14.184h0.624
				C361.824,157.274,361.848,160.25,361.824,163.418z M362.087,165.794c-0.312,0.6-0.264,1.632-0.264,2.376v2.064
				c0,0.024,0.864-0.72,1.344-1.176c0.433-0.408,0.769-0.864,0.937-1.584c0.191-0.72,0.12-1.488-0.336-1.992
				C363.456,165.122,362.591,164.834,362.087,165.794z"/>
		</g>
	</g>
</svg>
