<?xml version="1.0" encoding="utf-8"?>
<!-- Generator: Adobe Illustrator 10.0, SVG Export Plug-In . SVG Version: 3.0.0 Build 76)  -->
<!DOCTYPE svg PUBLIC "-//W3C//DTD SVG 1.0//EN"    "http://www.w3.org/TR/2001/REC-SVG-20010904/DTD/svg10.dtd" [
	<!ENTITY ns_flows "http://ns.adobe.com/Flows/1.0/">
	<!ENTITY ns_extend "http://ns.adobe.com/Extensibility/1.0/">
	<!ENTITY ns_ai "http://ns.adobe.com/AdobeIllustrator/10.0/">
	<!ENTITY ns_svg "http://www.w3.org/2000/svg">
	<!ENTITY ns_xlink "http://www.w3.org/1999/xlink">
]>
<svg  xmlns:x="&ns_extend;" xmlns:i="&ns_ai;" xmlns:graph="&ns_graphs;"
	 xmlns="&ns_svg;" xmlns:xlink="&ns_xlink;" xmlns:a="http://ns.adobe.com/AdobeSVGViewerExtensions/3.0/" width="331" height="505"
	 viewBox="-0.582 -0.016 331 505" overflow="visible" enable-background="new -0.582 -0.016 331 505" xml:space="preserve">
	<g id="Layer_1_2_">
		<g>
			<path fill="none" stroke="#000000" d="M3.75,14.132h323.218"/>
			<path fill="none" stroke="#000000" d="M3.75,29.244h323.218"/>
			<path fill="none" stroke="#000000" d="M3.91,36.366h323.218"/>
			<path fill="none" stroke="#000000" d="M3.663,43.75h323.216"/>
			<path fill="none" stroke="#000000" d="M3.663,21.386h323.216"/>
		</g>
		<g>
			<path d="M39.267,292.878v-3.912h0.696v3.672l2.352-0.768v-3.504h0.696v3.288l0.936-0.312v2.496l-0.936,0.312v3.552l0.936-0.288
				v2.472l-0.936,0.312v3.912h-0.696v-3.696l-2.352,0.768v3.552h-0.696v-3.312l-1.032,0.336v-2.496l1.032-0.336v-3.576l-1.032,0.336
				v-2.472L39.267,292.878z M39.962,295.134v3.576l2.352-0.768v-3.576L39.962,295.134z"/>
		</g>
		<g>
			<path d="M16.405,43.344c-4.944-2.352-5.736-5.376-5.952-8.472c-0.24-3.36,1.896-6.768,3.888-8.664
				c1.152-1.08,2.4-2.136,3.888-3.264c-0.048-0.84-0.24-1.176-0.336-2.376c-0.024-0.504-0.336-2.856,0.168-5.568
				c0.312-1.608,2.328-5.4,3.72-5.424c1.08-0.024,2.736,4.296,2.784,6.456c0.072,3.336-0.72,4.848-1.704,6.576
				c-0.504,0.864-1.032,1.464-1.584,2.136c-0.576,0.696-1.224,1.104-1.824,1.632c0,0,0.768,4.344,0.792,4.656
				c1.536-0.192,3.408,0.36,4.08,0.84c1.704,1.272,2.352,3.024,2.472,4.728c0.216,2.712-1.272,5.568-4.56,6.936
				c0,0,0.504,3.456,0.624,4.176c0.264,1.896,0.216,3.096-0.192,3.864c-0.696,1.296-1.824,2.496-4.008,2.64
				c-1.68,0.096-4.992-0.744-5.16-3.384c-0.096-1.56,0.6-3.24,2.496-3.36c1.152-0.096,2.52,0.864,2.616,2.232
				c0.096,1.176-0.672,2.4-2.664,2.952c0.312,0.432,1.248,0.936,2.592,0.936c1.392,0,2.832-0.936,3.528-2.184
				c0.432-0.816,0.384-2.28,0.216-3.624c-0.072-0.456-0.648-4.08-0.648-4.08C19.861,43.992,17.413,43.824,16.405,43.344z
				 M16.885,37.656c0.048,1.152,1.008,2.496,1.896,2.952c-0.12,0.072-0.24,0.264-0.24,0.264c-0.984-0.48-1.824-1.272-2.04-1.56
				c-0.696-0.936-0.984-1.464-1.08-2.88c-0.096-1.32,0.624-3.096,2.232-4.344c0.84-0.624,1.248-0.768,1.968-0.936l-0.72-4.344
				c-0.744,0.432-3.816,2.904-5.112,4.92c-1.152,1.8-1.848,3.24-1.704,5.016c0.288,4.008,4.68,7.296,9.432,6.168
				c0,0-1.416-8.52-1.392-8.52C17.509,34.488,16.813,36.504,16.885,37.656z M18.829,22.44c2.088-1.632,4.92-4.704,4.752-7.08
				c-0.048-0.744-0.36-2.088-1.44-2.064C19.668,13.32,18.277,18.48,18.829,22.44z M22.093,42.72c2.76-0.936,2.88-3.312,2.784-4.728
				c-0.096-1.176-0.624-3.816-4.128-3.648L22.093,42.72z"/>
		</g>
		<g>
			<path d="M43.739,36.798c0.984,0,1.776,0.36,2.232,0.912V18.486h0.456v20.4c0,0.336-0.048,0.672-0.168,1.056
				c-0.648,1.704-2.784,3.072-4.8,3.048c-2.016-0.024-3.144-1.44-2.52-3.144S41.723,36.774,43.739,36.798z"/>
		</g>
		<g>
			<path d="M39.375,159.086c0,0.216,0,1.536,0,1.536c0.912-0.816,1.416-0.984,2.424-1.008c1.2-0.024,1.968,1.176,1.992,2.136
				c0.024,0.504-0.12,1.032-0.312,1.44c-0.216,0.528-0.792,0.936-1.176,1.32c-0.432,0.432-3.552,2.568-3.552,2.616v-14.184h0.624
				C39.375,152.942,39.399,155.918,39.375,159.086z M39.64,161.462c-0.312,0.6-0.264,1.632-0.264,2.376v2.064
				c0,0.024,0.864-0.72,1.344-1.176c0.432-0.408,0.768-0.864,0.936-1.584c0.192-0.72,0.12-1.488-0.336-1.992
				C41.007,160.79,40.144,160.502,39.64,161.462z"/>
		</g>
		<g>
			<g>
				<path d="M43.417,250.721c-2.04-0.024-3.144-1.416-2.52-3.12c0.624-1.728,2.784-3.096,4.8-3.072
					c0.984,0.024,1.776,0.384,2.232,0.936v-19.08h0.456c0,24.216,0,20.4,0,20.4c0,0.288-0.072,0.576-0.192,0.888
					C47.569,249.401,45.433,250.745,43.417,250.721z"/>
			</g>
			<path fill="none" stroke="#000000" d="M38.512,243.887h11.999"/>
		</g>
		<g>
			<path d="M19.187,422.415c-0.937,1.135-1.526,1.759-2.704,2.667c-1.418,1.106-2.382,1.561-4.042,2.242
				c-1.606,0.624-4.31,1.135-4.31,1.135l-0.188-0.426c0,0,4.523-1.447,6.745-3.944c2.918-3.206,4.443-7.094,4.363-12.061
				c-0.027-2.241-0.696-6.441-4.069-6.47c-1.927,0-4.657,1.76-4.47,3.944c0.053,0.313,0.803-0.34,2.275-0.283
				c1.553,0.057,2.382,2.1,2.008,3.688c-0.268,1.249-1.018,2.043-2.382,2.043c-1.74,0-3.292-1.305-3.319-3.462
				c-0.053-3.263,1.66-4.909,2.704-5.59c1.312-0.852,2.73-1.164,3.935-1.164c2.704-0.057,5.702,2.016,6.719,5.023
				c0.589,1.702,0.589,3.604,0.134,5.817c-0.294,1.504-0.669,2.326-1.338,3.688C20.579,420.57,20.097,421.279,19.187,422.415z
				 M25.397,406.807c0.83,0,1.499,0.624,1.499,1.476c0.027,0.851-0.642,1.589-1.445,1.589c-0.803,0.028-1.499-0.681-1.499-1.532
				C23.925,407.459,24.594,406.835,25.397,406.807z M25.423,413.958c0.803,0,1.472,0.625,1.499,1.476c0,0.88-0.642,1.59-1.445,1.59
				c-0.83,0.028-1.499-0.653-1.526-1.533C23.951,414.639,24.594,413.986,25.423,413.958z"/>
		</g>
		<g>
			<path fill="none" stroke="#000000" d="M4.027,79.982h323.219"/>
			<path fill="none" stroke="#000000" d="M4.027,95.094h323.219"/>
			<path fill="none" stroke="#000000" d="M4.188,102.217h323.218"/>
			<path fill="none" stroke="#000000" d="M3.94,109.601h323.216"/>
			<path fill="none" stroke="#000000" d="M3.94,87.236h323.216"/>
		</g>
		<g>
			<path d="M20.025,109.195c-4.944-2.352-5.736-5.376-5.952-8.472c-0.24-3.36,1.896-6.768,3.888-8.664
				c1.152-1.08,2.4-2.136,3.888-3.264c-0.048-0.84-0.24-1.176-0.336-2.376c-0.024-0.504-0.336-2.856,0.168-5.568
				c0.312-1.608,2.328-5.4,3.72-5.424c1.08-0.024,2.736,4.296,2.784,6.456c0.072,3.336-0.72,4.848-1.704,6.576
				c-0.504,0.864-1.032,1.464-1.584,2.136c-0.576,0.696-1.224,1.104-1.824,1.632c0,0,0.768,4.344,0.792,4.656
				c1.536-0.192,3.408,0.36,4.08,0.84c1.704,1.272,2.352,3.024,2.472,4.728c0.216,2.712-1.272,5.568-4.56,6.936
				c0,0,0.504,3.456,0.624,4.176c0.264,1.896,0.216,3.096-0.192,3.864c-0.696,1.296-1.824,2.496-4.008,2.64
				c-1.68,0.096-4.992-0.744-5.16-3.384c-0.096-1.56,0.6-3.24,2.496-3.36c1.152-0.096,2.52,0.864,2.616,2.232
				c0.096,1.176-0.672,2.4-2.664,2.952c0.312,0.432,1.248,0.936,2.592,0.936c1.392,0,2.832-0.936,3.528-2.184
				c0.432-0.816,0.384-2.28,0.216-3.624c-0.072-0.456-0.648-4.08-0.648-4.08C23.481,109.843,21.033,109.675,20.025,109.195z
				 M20.505,103.507c0.048,1.152,1.008,2.496,1.896,2.952c-0.12,0.072-0.24,0.264-0.24,0.264c-0.984-0.48-1.824-1.272-2.04-1.56
				c-0.696-0.936-0.984-1.464-1.08-2.88c-0.096-1.32,0.624-3.096,2.232-4.344c0.84-0.624,1.248-0.768,1.968-0.936l-0.72-4.344
				c-0.744,0.432-3.816,2.904-5.112,4.92c-1.152,1.8-1.848,3.24-1.704,5.016c0.288,4.008,4.68,7.296,9.432,6.168
				c0,0-1.416-8.52-1.392-8.52C21.129,100.339,20.433,102.355,20.505,103.507z M22.449,88.291c2.088-1.632,4.92-4.704,4.752-7.08
				c-0.048-0.744-0.36-2.088-1.44-2.064C23.289,79.17,21.897,84.331,22.449,88.291z M25.713,108.571
				c2.76-0.936,2.88-3.312,2.784-4.728c-0.096-1.176-0.624-3.816-4.128-3.648L25.713,108.571z"/>
		</g>
		<g>
			<path d="M47.693,99.315c0.984,0,1.776,0.36,2.232,0.912V81.003h0.456v20.4c0,0.336-0.048,0.672-0.168,1.056
				c-0.648,1.704-2.784,3.072-4.8,3.048c-2.016-0.024-3.144-1.44-2.52-3.144S45.677,99.292,47.693,99.315z"/>
		</g>
		<g>
			<path fill="none" stroke="#000000" d="M4.989,144.833h323.223"/>
			<path fill="none" stroke="#000000" d="M4.989,159.945h323.223"/>
			<path fill="none" stroke="#000000" d="M5.152,167.067h323.219"/>
			<path fill="none" stroke="#000000" d="M4.905,174.451h323.214"/>
			<path fill="none" stroke="#000000" d="M4.905,152.087h323.214"/>
		</g>
		<g>
			<path d="M20.646,174.045c-4.944-2.352-5.736-5.376-5.952-8.472c-0.24-3.36,1.896-6.768,3.888-8.664
				c1.152-1.08,2.4-2.136,3.888-3.264c-0.048-0.84-0.24-1.176-0.336-2.376c-0.024-0.504-0.336-2.856,0.168-5.568
				c0.312-1.608,2.328-5.4,3.72-5.424c1.08-0.024,2.736,4.296,2.784,6.456c0.072,3.336-0.72,4.848-1.704,6.576
				c-0.504,0.864-1.032,1.464-1.584,2.136c-0.576,0.696-1.224,1.104-1.824,1.632c0,0,0.768,4.344,0.792,4.656
				c1.536-0.192,3.408,0.36,4.08,0.84c1.704,1.272,2.352,3.024,2.472,4.728c0.216,2.712-1.272,5.568-4.56,6.936
				c0,0,0.504,3.456,0.624,4.176c0.264,1.896,0.216,3.096-0.192,3.864c-0.696,1.296-1.824,2.496-4.008,2.64
				c-1.68,0.096-4.992-0.744-5.16-3.384c-0.096-1.56,0.6-3.24,2.496-3.36c1.152-0.096,2.52,0.864,2.616,2.232
				c0.096,1.176-0.672,2.4-2.664,2.952c0.312,0.432,1.248,0.936,2.592,0.936c1.392,0,2.832-0.936,3.528-2.184
				c0.432-0.816,0.384-2.28,0.216-3.624c-0.072-0.456-0.648-4.08-0.648-4.08C24.102,174.693,21.654,174.525,20.646,174.045z
				 M21.126,168.357c0.048,1.152,1.008,2.496,1.896,2.952c-0.12,0.072-0.24,0.264-0.24,0.264c-0.984-0.48-1.824-1.272-2.04-1.56
				c-0.696-0.936-0.984-1.464-1.08-2.88c-0.096-1.32,0.624-3.096,2.232-4.344c0.84-0.624,1.248-0.768,1.968-0.936l-0.72-4.344
				c-0.744,0.432-3.816,2.904-5.112,4.92c-1.152,1.8-1.848,3.24-1.704,5.016c0.288,4.008,4.68,7.296,9.432,6.168
				c0,0-1.416-8.52-1.392-8.52C21.75,165.189,21.054,167.206,21.126,168.357z M23.07,153.141c2.088-1.632,4.92-4.704,4.752-7.08
				c-0.048-0.744-0.36-2.088-1.44-2.064C23.91,144.021,22.518,149.181,23.07,153.141z M26.334,173.421
				c2.76-0.936,2.88-3.312,2.784-4.728c-0.096-1.176-0.624-3.816-4.128-3.648L26.334,173.421z"/>
		</g>
		<g>
			<path d="M52.313,160.833c0.984,0,1.776,0.36,2.232,0.912v-19.224h0.456v20.4c0,0.336-0.048,0.672-0.168,1.056
				c-0.648,1.704-2.784,3.072-4.8,3.048c-2.016-0.024-3.144-1.44-2.52-3.144S50.297,160.809,52.313,160.833z"/>
		</g>
		<g>
			<path d="M5.733,0.984H5.709L4.353,1.716L4.149,0.912L5.853,0h0.9v7.8h-1.02V0.984z"/>
			<path d="M10.376,7.932c-0.408,0-0.696-0.324-0.696-0.756s0.3-0.756,0.72-0.756c0.42,0,0.708,0.312,0.708,0.756
				c0,0.432-0.288,0.756-0.72,0.756H10.376z"/>
		</g>
		<g>
			<path d="M9.728,73.984v-0.648l0.828-0.804c1.992-1.896,2.904-2.904,2.904-4.08c0-0.792-0.372-1.524-1.536-1.524
				c-0.708,0-1.296,0.36-1.656,0.66l-0.336-0.744c0.528-0.444,1.308-0.792,2.208-0.792c1.668,0,2.376,1.152,2.376,2.268
				c0,1.44-1.044,2.604-2.688,4.188l-0.612,0.576v0.024h3.492v0.876H9.728z"/>
			<path d="M16.664,74.116c-0.408,0-0.696-0.324-0.696-0.756s0.3-0.756,0.72-0.756c0.42,0,0.708,0.312,0.708,0.756
				c0,0.432-0.288,0.756-0.72,0.756H16.664z"/>
		</g>
		<g>
			<path d="M9.268,138.301c0.3,0.18,0.984,0.48,1.728,0.48c1.344,0,1.776-0.852,1.764-1.512c-0.012-1.092-0.996-1.56-2.016-1.56
				h-0.588v-0.792h0.588c0.768,0,1.74-0.396,1.74-1.32c0-0.624-0.396-1.176-1.368-1.176c-0.624,0-1.224,0.276-1.56,0.516
				l-0.288-0.768c0.42-0.3,1.212-0.6,2.052-0.6c1.536,0,2.232,0.912,2.232,1.86c0,0.816-0.492,1.5-1.44,1.848v0.024
				c0.96,0.18,1.74,0.9,1.74,1.992c0,1.248-0.984,2.34-2.844,2.34c-0.876,0-1.644-0.276-2.028-0.528L9.268,138.301z"/>
			<path d="M15.952,139.633c-0.408,0-0.696-0.324-0.696-0.756s0.3-0.756,0.72-0.756c0.42,0,0.708,0.312,0.708,0.756
				c0,0.432-0.288,0.756-0.72,0.756H15.952z"/>
		</g>
		<g>
			<path d="M35.973,356.281c0,0.216,0,1.536,0,1.536c0.912-0.816,1.416-0.984,2.424-1.008c1.2-0.024,1.968,1.176,1.992,2.136
				c0.024,0.504-0.12,1.032-0.312,1.44c-0.216,0.528-0.792,0.936-1.176,1.32c-0.432,0.432-3.552,2.568-3.552,2.616v-14.184h0.624
				C35.973,350.137,35.997,353.113,35.973,356.281z M36.237,358.657c-0.312,0.6-0.264,1.632-0.264,2.376v2.064
				c0,0.024,0.864-0.72,1.344-1.176c0.432-0.408,0.768-0.864,0.936-1.584c0.192-0.72,0.12-1.488-0.336-1.992
				C37.605,357.985,36.741,357.697,36.237,358.657z"/>
		</g>
		<g>
			<path fill="none" stroke="#000000" d="M6.229,207.569h323.214"/>
			<path fill="none" stroke="#000000" d="M6.229,222.681h323.214"/>
			<path fill="none" stroke="#000000" d="M6.388,229.803h323.218"/>
			<path fill="none" stroke="#000000" d="M6.141,237.187h323.218"/>
			<path fill="none" stroke="#000000" d="M6.141,214.823h323.218"/>
		</g>
		<g>
			<path d="M18.6,236.781c-4.944-2.352-5.736-5.376-5.952-8.472c-0.24-3.36,1.896-6.768,3.888-8.664
				c1.152-1.08,2.4-2.136,3.888-3.264c-0.048-0.84-0.24-1.176-0.336-2.376c-0.024-0.504-0.336-2.856,0.168-5.568
				c0.312-1.608,2.328-5.4,3.72-5.424c1.08-0.024,2.736,4.296,2.784,6.456c0.072,3.336-0.72,4.848-1.704,6.576
				c-0.504,0.864-1.032,1.464-1.584,2.136c-0.576,0.696-1.224,1.104-1.824,1.632c0,0,0.768,4.344,0.792,4.656
				c1.536-0.192,3.408,0.36,4.08,0.84c1.704,1.272,2.352,3.024,2.472,4.728c0.216,2.712-1.272,5.568-4.56,6.936
				c0,0,0.504,3.456,0.624,4.176c0.264,1.896,0.216,3.096-0.192,3.864c-0.696,1.296-1.824,2.496-4.008,2.64
				c-1.68,0.096-4.992-0.744-5.16-3.384c-0.096-1.56,0.6-3.24,2.496-3.36c1.152-0.096,2.52,0.864,2.616,2.232
				c0.096,1.176-0.672,2.4-2.664,2.952c0.312,0.432,1.248,0.936,2.592,0.936c1.392,0,2.832-0.936,3.528-2.184
				c0.432-0.816,0.384-2.28,0.216-3.624c-0.072-0.456-0.648-4.08-0.648-4.08C22.056,237.429,19.608,237.261,18.6,236.781z
				 M19.08,231.093c0.048,1.152,1.008,2.496,1.896,2.952c-0.12,0.072-0.24,0.264-0.24,0.264c-0.984-0.48-1.824-1.272-2.04-1.56
				c-0.696-0.936-0.984-1.464-1.08-2.88c-0.096-1.32,0.624-3.096,2.232-4.344c0.84-0.624,1.248-0.768,1.968-0.936l-0.72-4.344
				c-0.744,0.432-3.816,2.904-5.112,4.92c-1.152,1.8-1.848,3.24-1.704,5.016c0.288,4.008,4.68,7.296,9.432,6.168
				c0,0-1.416-8.52-1.392-8.52C19.704,227.925,19.008,229.941,19.08,231.093z M21.024,215.877c2.088-1.632,4.92-4.704,4.752-7.08
				c-0.048-0.744-0.36-2.088-1.44-2.064C21.864,206.757,20.472,211.917,21.024,215.877z M24.288,236.157
				c2.76-0.936,2.88-3.312,2.784-4.728c-0.096-1.176-0.624-3.816-4.128-3.648L24.288,236.157z"/>
		</g>
		<g>
			<path d="M10.233,202.237v-2.124H6.609v-0.684l3.48-4.992h1.14v4.86h1.092v0.816h-1.092v2.124H10.233z M10.233,199.297v-2.616
				c0-0.408,0.012-0.816,0.036-1.224h-0.036c-0.24,0.456-0.432,0.792-0.648,1.164l-1.908,2.652v0.024H10.233z"/>
			<path d="M13.905,202.369c-0.408,0-0.696-0.324-0.696-0.756s0.3-0.756,0.72-0.756c0.42,0,0.708,0.312,0.708,0.756
				c0,0.432-0.288,0.756-0.72,0.756H13.905z"/>
		</g>
		<g>
			<path fill="none" stroke="#000000" d="M5.523,270.788h323.219"/>
			<path fill="none" stroke="#000000" d="M5.523,285.899h323.219"/>
			<path fill="none" stroke="#000000" d="M5.684,293.022h323.219"/>
			<path fill="none" stroke="#000000" d="M5.437,300.405h323.216"/>
			<path fill="none" stroke="#000000" d="M5.437,278.042h323.216"/>
		</g>
		<g>
			<path d="M20.129,300c-4.944-2.352-5.736-5.376-5.952-8.472c-0.24-3.36,1.896-6.768,3.888-8.664c1.152-1.08,2.4-2.136,3.888-3.264
				c-0.048-0.84-0.24-1.176-0.336-2.376c-0.024-0.504-0.336-2.856,0.168-5.568c0.312-1.608,2.328-5.4,3.72-5.424
				c1.08-0.024,2.736,4.296,2.784,6.456c0.072,3.336-0.72,4.848-1.704,6.576c-0.504,0.864-1.032,1.464-1.584,2.136
				c-0.576,0.696-1.224,1.104-1.824,1.632c0,0,0.768,4.344,0.792,4.656c1.536-0.192,3.408,0.36,4.08,0.84
				c1.704,1.272,2.352,3.024,2.472,4.728c0.216,2.712-1.272,5.568-4.56,6.936c0,0,0.504,3.456,0.624,4.176
				c0.264,1.896,0.216,3.096-0.192,3.864c-0.696,1.296-1.824,2.496-4.008,2.64c-1.68,0.096-4.992-0.744-5.16-3.384
				c-0.096-1.56,0.6-3.24,2.496-3.36c1.152-0.096,2.52,0.864,2.616,2.232c0.096,1.176-0.672,2.4-2.664,2.952
				c0.312,0.432,1.248,0.936,2.592,0.936c1.392,0,2.832-0.936,3.528-2.184c0.432-0.816,0.384-2.28,0.216-3.624
				c-0.072-0.456-0.648-4.08-0.648-4.08C23.585,300.647,21.137,300.479,20.129,300z M20.609,294.312
				c0.048,1.152,1.008,2.496,1.896,2.952c-0.12,0.072-0.24,0.264-0.24,0.264c-0.984-0.48-1.824-1.272-2.04-1.56
				c-0.696-0.936-0.984-1.464-1.08-2.88c-0.096-1.32,0.624-3.096,2.232-4.344c0.84-0.624,1.248-0.768,1.968-0.936l-0.72-4.344
				c-0.744,0.432-3.816,2.904-5.112,4.92c-1.152,1.8-1.848,3.24-1.704,5.016c0.288,4.008,4.68,7.296,9.432,6.168
				c0,0-1.416-8.52-1.392-8.52C21.233,291.144,20.537,293.16,20.609,294.312z M22.553,279.095c2.088-1.632,4.92-4.704,4.752-7.08
				c-0.048-0.744-0.36-2.088-1.44-2.064C23.393,269.975,22.001,275.135,22.553,279.095z M25.817,299.375
				c2.76-0.936,2.88-3.312,2.784-4.728c-0.096-1.176-0.624-3.816-4.128-3.648L25.817,299.375z"/>
		</g>
		<g>
			<path d="M53.13,293.454c0.984,0,1.776,0.36,2.232,0.912v-19.224h0.456v20.4c0,0.336-0.048,0.672-0.168,1.056
				c-0.648,1.704-2.784,3.072-4.8,3.048c-2.016-0.024-3.144-1.44-2.52-3.144S51.114,293.43,53.13,293.454z"/>
		</g>
		<g>
			<path d="M34.825,483.65c0,0.216,0,1.536,0,1.536c0.912-0.816,1.416-0.984,2.424-1.008c1.2-0.024,1.968,1.176,1.992,2.136
				c0.024,0.504-0.12,1.032-0.312,1.44c-0.216,0.527-0.792,0.936-1.176,1.319c-0.432,0.433-3.552,2.568-3.552,2.616v-14.184h0.624
				C34.825,477.506,34.849,480.482,34.825,483.65z M35.089,486.026c-0.312,0.6-0.264,1.632-0.264,2.376v2.064
				c0,0.023,0.864-0.721,1.344-1.177c0.432-0.407,0.768-0.863,0.936-1.584c0.192-0.72,0.12-1.487-0.336-1.991
				C36.457,485.354,35.593,485.066,35.089,486.026z"/>
		</g>
		<g>
			<path fill="none" stroke="#000000" d="M7.115,338.361h323.219"/>
			<path fill="none" stroke="#000000" d="M7.115,353.472h323.219"/>
			<path fill="none" stroke="#000000" d="M7.275,360.595h323.218"/>
			<path fill="none" stroke="#000000" d="M7.029,367.98h323.216"/>
			<path fill="none" stroke="#000000" d="M7.029,345.615h323.216"/>
		</g>
		<g>
			<path d="M18.577,367.574c-4.944-2.352-5.736-5.376-5.952-8.472c-0.24-3.36,1.896-6.768,3.888-8.664
				c1.152-1.08,2.4-2.136,3.888-3.264c-0.048-0.84-0.24-1.176-0.336-2.376c-0.024-0.504-0.336-2.856,0.168-5.568
				c0.312-1.608,2.328-5.4,3.72-5.424c1.08-0.024,2.736,4.296,2.784,6.456c0.072,3.336-0.72,4.848-1.704,6.576
				c-0.504,0.864-1.032,1.464-1.584,2.136c-0.576,0.696-1.224,1.104-1.824,1.632c0,0,0.768,4.344,0.792,4.656
				c1.536-0.192,3.408,0.36,4.08,0.84c1.704,1.272,2.352,3.024,2.472,4.728c0.216,2.712-1.272,5.568-4.56,6.936
				c0,0,0.504,3.456,0.624,4.176c0.264,1.896,0.216,3.096-0.192,3.864c-0.696,1.296-1.824,2.496-4.008,2.64
				c-1.68,0.096-4.992-0.744-5.16-3.384c-0.096-1.56,0.6-3.24,2.496-3.36c1.152-0.096,2.52,0.864,2.616,2.232
				c0.096,1.176-0.672,2.4-2.664,2.952c0.312,0.432,1.248,0.936,2.592,0.936c1.392,0,2.832-0.936,3.528-2.184
				c0.432-0.816,0.384-2.28,0.216-3.624c-0.072-0.456-0.648-4.08-0.648-4.08C22.033,368.222,19.584,368.054,18.577,367.574z
				 M19.057,361.886c0.048,1.152,1.008,2.496,1.896,2.952c-0.12,0.072-0.24,0.264-0.24,0.264c-0.984-0.48-1.824-1.272-2.04-1.56
				c-0.696-0.936-0.984-1.464-1.08-2.88c-0.096-1.32,0.624-3.096,2.232-4.344c0.84-0.624,1.248-0.768,1.968-0.936l-0.72-4.344
				c-0.744,0.432-3.816,2.904-5.112,4.92c-1.152,1.8-1.848,3.24-1.704,5.016c0.288,4.008,4.68,7.296,9.432,6.168
				c0,0-1.416-8.52-1.392-8.52C19.681,358.718,18.984,360.734,19.057,361.886z M21,346.67c2.088-1.632,4.92-4.704,4.752-7.08
				c-0.048-0.744-0.36-2.088-1.44-2.064C21.84,337.55,20.449,342.71,21,346.67z M24.265,366.95c2.76-0.936,2.88-3.312,2.784-4.728
				c-0.096-1.176-0.624-3.816-4.128-3.648L24.265,366.95z"/>
		</g>
		<g>
			<path d="M49.578,357.695c0.984,0,1.776,0.36,2.232,0.912v-19.224h0.456v20.4c0,0.336-0.048,0.672-0.168,1.056
				c-0.648,1.704-2.784,3.072-4.8,3.048c-2.016-0.024-3.144-1.44-2.52-3.144S47.562,357.671,49.578,357.695z"/>
		</g>
		<g>
			<path fill="none" stroke="#000000" d="M2.077,404.937H325.3"/>
			<path fill="none" stroke="#000000" d="M2.077,420.047H325.3"/>
			<path fill="none" stroke="#000000" d="M2.24,427.17h323.219"/>
			<path fill="none" stroke="#000000" d="M1.993,434.553h323.214"/>
			<path fill="none" stroke="#000000" d="M1.993,412.191h323.214"/>
		</g>
		<g>
			<path d="M40.865,427.602c0.984,0,1.776,0.36,2.232,0.912V409.29h0.456v20.4c0,0.336-0.048,0.672-0.168,1.056
				c-0.648,1.704-2.784,3.072-4.8,3.049c-2.016-0.024-3.144-1.44-2.52-3.145S38.849,427.578,40.865,427.602z"/>
		</g>
		<g>
			<path d="M11.821,257.544H8.845l-0.3,1.98c0.18-0.024,0.348-0.048,0.636-0.048c0.612,0,1.2,0.132,1.68,0.42
				c0.612,0.336,1.116,1.02,1.116,2.028c0,1.524-1.212,2.664-2.904,2.664c-0.852,0-1.56-0.24-1.944-0.48l0.264-0.804
				c0.324,0.192,0.96,0.432,1.68,0.432c0.984,0,1.848-0.648,1.836-1.704c0-1.032-0.684-1.74-2.232-1.74
				c-0.456,0-0.804,0.036-1.092,0.084l0.504-3.72h3.732V257.544z"/>
			<path d="M14.101,264.588c-0.408,0-0.696-0.324-0.696-0.756s0.3-0.756,0.72-0.756c0.42,0,0.708,0.312,0.708,0.756
				c0,0.432-0.288,0.756-0.72,0.756H14.101z"/>
		</g>
		<g>
			<path d="M12.732,325.295c-0.216-0.012-0.492,0.012-0.792,0.06c-1.668,0.264-2.532,1.476-2.712,2.772h0.024
				c0.372-0.504,1.032-0.912,1.896-0.912c1.38,0,2.352,1.008,2.352,2.52c0,1.44-0.972,2.76-2.604,2.76
				c-1.656,0-2.748-1.296-2.748-3.324c0-1.536,0.54-2.748,1.32-3.528c0.648-0.636,1.512-1.032,2.496-1.152
				c0.312-0.048,0.576-0.06,0.768-0.06V325.295z M10.92,331.679c0.9,0,1.512-0.756,1.512-1.872c0-1.116-0.636-1.788-1.608-1.788
				c-0.636,0-1.236,0.384-1.524,0.96c-0.06,0.12-0.108,0.264-0.108,0.456c0.012,1.284,0.612,2.244,1.716,2.244H10.92z"/>
			<path d="M15.215,332.495c-0.408,0-0.696-0.324-0.696-0.756s0.3-0.756,0.72-0.756c0.42,0,0.708,0.312,0.708,0.756
				c0,0.432-0.288,0.756-0.72,0.756H15.215z"/>
		</g>
		<g>
			<path d="M12.632,391.805v0.695l-3.396,7.104h-1.08l3.372-6.9v-0.023H7.712v-0.876H12.632z"/>
			<path d="M14.503,399.737c-0.408,0-0.696-0.324-0.696-0.756s0.3-0.756,0.72-0.756c0.42,0,0.708,0.312,0.708,0.756
				c0,0.432-0.288,0.756-0.72,0.756H14.503z"/>
		</g>
		<g>
			<path fill="none" stroke="#000000" d="M0.088,469.396h323.217"/>
			<path fill="none" stroke="#000000" d="M0.088,484.509h323.217"/>
			<path fill="none" stroke="#000000" d="M0.247,491.63h323.216"/>
			<path fill="none" stroke="#000000" d="M0,499.015h323.221"/>
			<path fill="none" stroke="#000000" d="M0,476.65h323.221"/>
		</g>
		<g>
			<path d="M6.413,456.134c1.512,0,2.28,0.936,2.28,1.92c0,0.66-0.336,1.38-1.296,1.823v0.036c0.972,0.385,1.572,1.08,1.572,2.017
				c0,1.368-1.164,2.268-2.652,2.268c-1.632,0-2.616-0.96-2.616-2.1c0-0.984,0.588-1.692,1.536-2.101v-0.036
				c-0.876-0.407-1.248-1.079-1.248-1.752c0-1.235,1.044-2.075,2.412-2.075H6.413z M6.353,463.43c0.948,0,1.56-0.588,1.56-1.393
				c0-0.936-0.66-1.403-1.716-1.704c-0.912,0.265-1.404,0.876-1.404,1.62c-0.036,0.78,0.564,1.477,1.548,1.477H6.353z M6.377,456.89
				c-0.876,0-1.356,0.576-1.356,1.248c-0.012,0.779,0.588,1.199,1.488,1.439c0.672-0.228,1.188-0.708,1.188-1.416
				c0-0.624-0.372-1.271-1.308-1.271H6.377z"/>
			<path d="M10.733,464.198c-0.408,0-0.696-0.324-0.696-0.756s0.3-0.756,0.72-0.756c0.42,0,0.708,0.312,0.708,0.756
				c0,0.432-0.288,0.756-0.72,0.756H10.733z"/>
		</g>
		<g>
			<path d="M47.095,484.73c0.984,0,1.776,0.36,2.232,0.912v-19.225h0.456v20.4c0,0.336-0.048,0.672-0.168,1.056
				c-0.648,1.704-2.784,3.072-4.8,3.049c-2.016-0.024-3.144-1.44-2.52-3.145S45.079,484.706,47.095,484.73z"/>
		</g>
		<g>
			<path d="M18.75,487.875c-0.937,1.135-1.526,1.759-2.704,2.667c-1.418,1.106-2.382,1.561-4.042,2.242
				c-1.606,0.624-4.31,1.135-4.31,1.135l-0.188-0.426c0,0,4.523-1.447,6.745-3.944c2.917-3.206,4.443-7.094,4.363-12.061
				c-0.027-2.241-0.696-6.441-4.069-6.47c-1.927,0-4.657,1.76-4.47,3.944c0.053,0.313,0.803-0.34,2.275-0.283
				c1.553,0.057,2.382,2.1,2.008,3.688c-0.268,1.249-1.018,2.043-2.382,2.043c-1.74,0-3.292-1.305-3.319-3.462
				c-0.053-3.263,1.66-4.909,2.704-5.59c1.312-0.852,2.73-1.164,3.935-1.164c2.704-0.057,5.702,2.016,6.719,5.023
				c0.589,1.702,0.589,3.604,0.134,5.817c-0.294,1.504-0.669,2.326-1.338,3.688C20.142,486.031,19.66,486.74,18.75,487.875z
				 M24.96,472.268c0.83,0,1.499,0.624,1.499,1.476c0.027,0.851-0.642,1.589-1.445,1.589c-0.803,0.028-1.499-0.681-1.499-1.532
				C23.488,472.92,24.157,472.296,24.96,472.268z M24.986,479.418c0.803,0,1.472,0.625,1.499,1.476c0,0.88-0.642,1.59-1.445,1.59
				c-0.83,0.028-1.499-0.653-1.526-1.533C23.514,480.1,24.157,479.447,24.986,479.418z"/>
		</g>
		<g>
			<path d="M72.739,33.798c0.984,0,1.776,0.36,2.232,0.912V15.486h0.456v20.4c0,0.336-0.048,0.672-0.168,1.056
				c-0.648,1.704-2.784,3.072-4.8,3.048c-2.016-0.024-3.144-1.44-2.52-3.144S70.723,33.774,72.739,33.798z"/>
		</g>
		<g>
			<path d="M101.739,29.798c0.984,0,1.776,0.36,2.232,0.912V11.486h0.456v20.4c0,0.336-0.048,0.672-0.168,1.056
				c-0.648,1.704-2.784,3.072-4.8,3.048c-2.016-0.024-3.144-1.44-2.52-3.144S99.723,29.774,101.739,29.798z"/>
		</g>
		<g>
			<path d="M76.739,94.798c0.984,0,1.776,0.36,2.232,0.912V76.486h0.456v20.4c0,0.336-0.048,0.672-0.168,1.056
				c-0.648,1.704-2.784,3.072-4.8,3.048c-2.016-0.024-3.144-1.44-2.52-3.144S74.723,94.774,76.739,94.798z"/>
		</g>
		<g>
			<path d="M89.739,289.798c0.984,0,1.776,0.36,2.232,0.912v-19.224h0.456v20.4c0,0.336-0.048,0.672-0.168,1.056
				c-0.648,1.704-2.784,3.072-4.8,3.048c-2.016-0.024-3.144-1.44-2.52-3.144S87.723,289.774,89.739,289.798z"/>
		</g>
		<g>
			<path d="M126.739,285.798c0.984,0,1.776,0.36,2.232,0.912v-19.224h0.456v20.4c0,0.336-0.048,0.672-0.168,1.056
				c-0.648,1.704-2.784,3.072-4.8,3.048c-2.016-0.024-3.144-1.44-2.52-3.144S124.723,285.774,126.739,285.798z"/>
		</g>
		<g>
			<path d="M84.739,353.798c0.984,0,1.776,0.36,2.232,0.912v-19.224h0.456v20.4c0,0.336-0.048,0.672-0.168,1.056
				c-0.648,1.704-2.784,3.072-4.8,3.048c-2.016-0.024-3.144-1.44-2.52-3.144S82.723,353.774,84.739,353.798z"/>
		</g>
		<g>
			<path d="M71.739,423.798c0.984,0,1.776,0.36,2.232,0.912v-19.225h0.456v20.4c0,0.336-0.048,0.672-0.168,1.056
				c-0.648,1.704-2.784,3.072-4.8,3.049c-2.016-0.024-3.144-1.44-2.52-3.145S69.723,423.774,71.739,423.798z"/>
		</g>
		<g>
			<path d="M102.314,420.816c0.984,0,1.776,0.36,2.232,0.912v-19.225h0.456v20.4c0,0.336-0.048,0.672-0.168,1.056
				c-0.648,1.704-2.784,3.072-4.8,3.049c-2.016-0.024-3.144-1.44-2.52-3.145S100.298,420.792,102.314,420.816z"/>
		</g>
		<g>
			<path d="M109.739,237.798c0.984,0,1.776,0.36,2.232,0.912v-19.224h0.456v20.4c0,0.336-0.048,0.672-0.168,1.056
				c-0.648,1.704-2.784,3.072-4.8,3.048c-2.016-0.024-3.144-1.44-2.52-3.144S107.723,237.774,109.739,237.798z"/>
		</g>
		<g>
			<path d="M137.739,233.798c0.984,0,1.776,0.36,2.232,0.912v-19.224h0.456v20.4c0,0.336-0.048,0.672-0.168,1.056
				c-0.648,1.704-2.784,3.072-4.8,3.048c-2.016-0.024-3.144-1.44-2.52-3.144S135.723,233.774,137.739,233.798z"/>
		</g>
		<g>
			<path d="M171.739,230.798c0.984,0,1.776,0.36,2.232,0.912v-19.224h0.456v20.4c0,0.336-0.048,0.672-0.168,1.056
				c-0.648,1.704-2.784,3.072-4.8,3.048c-2.016-0.024-3.144-1.44-2.52-3.144S169.723,230.774,171.739,230.798z"/>
		</g>
		<g>
			<path d="M205.739,226.798c0.984,0,1.776,0.36,2.232,0.912v-19.224h0.456v20.4c0,0.336-0.048,0.672-0.168,1.056
				c-0.648,1.704-2.784,3.072-4.8,3.048c-2.016-0.024-3.144-1.44-2.52-3.144S203.723,226.774,205.739,226.798z"/>
		</g>
		<g>
			<path d="M239.739,222.798c0.984,0,1.776,0.36,2.232,0.912v-19.224h0.456v20.4c0,0.336-0.048,0.672-0.168,1.056
				c-0.648,1.704-2.784,3.072-4.8,3.048c-2.016-0.024-3.144-1.44-2.52-3.144S237.723,222.774,239.739,222.798z"/>
		</g>
		<g>
			<path d="M135.387,25.816c2.04,0.024,3.144,1.416,2.52,3.12c-0.624,1.728-2.784,3.096-4.8,3.072
				c-0.984-0.024-1.776-0.384-2.232-0.936v19.08h-0.456c0-24.216,0-20.4,0-20.4c0-0.288,0.072-0.576,0.192-0.888
				C131.234,27.136,133.371,25.792,135.387,25.816z"/>
		</g>
		<g>
			<path d="M270.094,133.981c2.04,0.024,3.144,1.416,2.52,3.12c-0.624,1.728-2.784,3.096-4.8,3.072
				c-0.984-0.024-1.776-0.384-2.232-0.936v19.08h-0.456c0-24.216,0-20.4,0-20.4c0-0.288,0.072-0.576,0.192-0.888
				C265.941,135.301,268.078,133.958,270.094,133.981z"/>
		</g>
		<path fill="none" stroke="#000000" d="M262.418,136.484h12"/>
		<g>
			<g>
				<path d="M75.687,240.994c0.984,0,1.776,0.36,2.232,0.912v-19.224h0.456v20.4c0,0.336-0.048,0.672-0.168,1.056
					c-0.648,1.704-2.784,3.072-4.8,3.048c-2.016-0.024-3.144-1.44-2.52-3.144S73.67,240.97,75.687,240.994z"/>
			</g>
			<path fill="none" stroke="#000000" stroke-miterlimit="1" d="M68.583,244.15h11.644"/>
		</g>
		<g>
			<path d="M163.387,21.816c2.04,0.024,3.144,1.416,2.52,3.12c-0.624,1.728-2.784,3.096-4.8,3.072
				c-0.984-0.024-1.776-0.384-2.232-0.936v19.08h-0.456c0-24.216,0-20.4,0-20.4c0-0.288,0.072-0.576,0.192-0.888
				C159.234,23.136,161.371,21.792,163.387,21.816z"/>
		</g>
		<g>
			<path d="M193.387,18.816c2.04,0.024,3.144,1.416,2.52,3.12c-0.624,1.728-2.784,3.096-4.8,3.072
				c-0.984-0.024-1.776-0.384-2.232-0.936v19.08h-0.456c0-24.216,0-20.4,0-20.4c0-0.288,0.072-0.576,0.192-0.888
				C189.234,20.136,191.371,18.792,193.387,18.816z"/>
		</g>
		<g>
			<path d="M223.387,14.816c2.04,0.024,3.144,1.416,2.52,3.12c-0.624,1.728-2.784,3.096-4.8,3.072
				c-0.984-0.024-1.776-0.384-2.232-0.936v19.08h-0.456c0-24.216,0-20.4,0-20.4c0-0.288,0.072-0.576,0.192-0.888
				C219.234,16.136,221.371,14.792,223.387,14.816z"/>
		</g>
		<g>
			<path d="M255.387,10.816c2.04,0.024,3.144,1.416,2.52,3.12c-0.624,1.728-2.784,3.096-4.8,3.072
				c-0.984-0.024-1.776-0.384-2.232-0.936v19.08h-0.456c0-24.216,0-20.4,0-20.4c0-0.288,0.072-0.576,0.192-0.888
				C251.234,12.136,253.371,10.792,255.387,10.816z"/>
		</g>
		<g>
			<path d="M105.387,91.816c2.04,0.024,3.144,1.416,2.52,3.12c-0.624,1.728-2.784,3.096-4.8,3.072
				c-0.984-0.024-1.776-0.384-2.232-0.936v19.08h-0.456c0-24.216,0-20.4,0-20.4c0-0.288,0.072-0.576,0.192-0.888
				C101.234,93.136,103.371,91.792,105.387,91.816z"/>
		</g>
		<g>
			<path d="M136.387,87.816c2.04,0.024,3.144,1.416,2.52,3.12c-0.624,1.728-2.784,3.096-4.8,3.072
				c-0.984-0.024-1.776-0.384-2.232-0.936v19.08h-0.456c0-24.216,0-20.4,0-20.4c0-0.288,0.072-0.576,0.192-0.888
				C132.234,89.136,134.371,87.792,136.387,87.816z"/>
		</g>
		<g>
			<path d="M167.387,83.816c2.04,0.024,3.144,1.416,2.52,3.12c-0.624,1.728-2.784,3.096-4.8,3.072
				c-0.984-0.024-1.776-0.384-2.232-0.936v19.08h-0.456c0-24.216,0-20.4,0-20.4c0-0.288,0.072-0.576,0.192-0.888
				C163.234,85.136,165.371,83.792,167.387,83.816z"/>
		</g>
		<g>
			<path d="M198.387,80.816c2.04,0.024,3.144,1.416,2.52,3.12c-0.624,1.728-2.784,3.096-4.8,3.072
				c-0.984-0.024-1.776-0.384-2.232-0.936v19.08h-0.456c0-24.216,0-20.4,0-20.4c0-0.288,0.072-0.576,0.192-0.888
				C194.234,82.136,196.371,80.792,198.387,80.816z"/>
		</g>
		<g>
			<path d="M234.387,76.816c2.04,0.024,3.144,1.416,2.52,3.12c-0.624,1.728-2.784,3.096-4.8,3.072
				c-0.984-0.024-1.776-0.384-2.232-0.936v19.08h-0.456c0-24.216,0-20.4,0-20.4c0-0.288,0.072-0.576,0.192-0.888
				C230.234,78.136,232.371,76.792,234.387,76.816z"/>
		</g>
		<g>
			<path d="M268.387,73.816c2.04,0.024,3.144,1.416,2.52,3.12c-0.624,1.728-2.784,3.096-4.8,3.072
				c-0.984-0.024-1.776-0.384-2.232-0.936v19.08h-0.456c0-24.216,0-20.4,0-20.4c0-0.288,0.072-0.576,0.192-0.888
				C264.234,75.136,266.371,73.792,268.387,73.816z"/>
		</g>
		<g>
			<path d="M87.387,156.816c2.04,0.024,3.144,1.416,2.52,3.12c-0.624,1.728-2.784,3.096-4.8,3.072
				c-0.984-0.024-1.776-0.384-2.232-0.936v19.08h-0.456c0-24.216,0-20.4,0-20.4c0-0.288,0.072-0.576,0.192-0.888
				C83.234,158.136,85.371,156.792,87.387,156.816z"/>
		</g>
		<g>
			<path d="M114.387,152.816c2.04,0.024,3.144,1.416,2.52,3.12c-0.624,1.728-2.784,3.096-4.8,3.072
				c-0.984-0.024-1.776-0.384-2.232-0.936v19.08h-0.456c0-24.216,0-20.4,0-20.4c0-0.288,0.072-0.576,0.192-0.888
				C110.234,154.136,112.371,152.792,114.387,152.816z"/>
		</g>
		<g>
			<path d="M146.387,148.816c2.04,0.024,3.144,1.416,2.52,3.12c-0.624,1.728-2.784,3.096-4.8,3.072
				c-0.984-0.024-1.776-0.384-2.232-0.936v19.08h-0.456c0-24.216,0-20.4,0-20.4c0-0.288,0.072-0.576,0.192-0.888
				C142.234,150.136,144.371,148.792,146.387,148.816z"/>
		</g>
		<g>
			<path d="M175.387,144.816c2.04,0.024,3.144,1.416,2.52,3.12c-0.624,1.728-2.784,3.096-4.8,3.072
				c-0.984-0.024-1.776-0.384-2.232-0.936v19.08h-0.456c0-24.216,0-20.4,0-20.4c0-0.288,0.072-0.576,0.192-0.888
				C171.234,146.136,173.371,144.792,175.387,144.816z"/>
		</g>
		<g>
			<path d="M207.387,141.816c2.04,0.024,3.144,1.416,2.52,3.12c-0.624,1.728-2.784,3.096-4.8,3.072
				c-0.984-0.024-1.776-0.384-2.232-0.936v19.08h-0.456c0-24.216,0-20.4,0-20.4c0-0.288,0.072-0.576,0.192-0.888
				C203.234,143.136,205.371,141.792,207.387,141.816z"/>
		</g>
		<g>
			<path d="M240.387,137.816c2.04,0.024,3.144,1.416,2.52,3.12c-0.624,1.728-2.784,3.096-4.8,3.072
				c-0.984-0.024-1.776-0.384-2.232-0.936v19.08h-0.456c0-24.216,0-20.4,0-20.4c0-0.288,0.072-0.576,0.192-0.888
				C236.234,139.136,238.371,137.792,240.387,137.816z"/>
		</g>
		<g>
			<path d="M270.387,219.816c2.04,0.024,3.144,1.416,2.52,3.12c-0.624,1.728-2.784,3.096-4.8,3.072
				c-0.984-0.024-1.776-0.384-2.232-0.936v19.08h-0.456c0-24.216,0-20.4,0-20.4c0-0.288,0.072-0.576,0.192-0.888
				C266.234,221.136,268.371,219.792,270.387,219.816z"/>
		</g>
		<g>
			<path d="M155.387,282.816c2.04,0.024,3.144,1.416,2.52,3.12c-0.624,1.728-2.784,3.096-4.8,3.072
				c-0.984-0.024-1.776-0.384-2.232-0.936v19.08h-0.456c0-24.216,0-20.4,0-20.4c0-0.288,0.072-0.576,0.192-0.888
				C151.234,284.136,153.371,282.792,155.387,282.816z"/>
		</g>
		<g>
			<path d="M188.387,278.816c2.04,0.024,3.144,1.416,2.52,3.12c-0.624,1.728-2.784,3.096-4.8,3.072
				c-0.984-0.024-1.776-0.384-2.232-0.936v19.08h-0.456c0-24.216,0-20.4,0-20.4c0-0.288,0.072-0.576,0.192-0.888
				C184.234,280.136,186.371,278.792,188.387,278.816z"/>
		</g>
		<g>
			<path d="M219.387,274.816c2.04,0.024,3.144,1.416,2.52,3.12c-0.624,1.728-2.784,3.096-4.8,3.072
				c-0.984-0.024-1.776-0.384-2.232-0.936v19.08h-0.456c0-24.216,0-20.4,0-20.4c0-0.288,0.072-0.576,0.192-0.888
				C215.234,276.136,217.371,274.792,219.387,274.816z"/>
		</g>
		<g>
			<path d="M252.387,271.816c2.04,0.024,3.144,1.416,2.52,3.12c-0.624,1.728-2.784,3.096-4.8,3.072
				c-0.984-0.024-1.776-0.384-2.232-0.936v19.08h-0.456c0-24.216,0-20.4,0-20.4c0-0.288,0.072-0.576,0.192-0.888
				C248.234,273.136,250.371,271.792,252.387,271.816z"/>
		</g>
		<g>
			<path d="M283.387,267.816c2.04,0.024,3.144,1.416,2.52,3.12c-0.624,1.728-2.784,3.096-4.8,3.072
				c-0.984-0.024-1.776-0.384-2.232-0.936v19.08h-0.456c0-24.216,0-20.4,0-20.4c0-0.288,0.072-0.576,0.192-0.888
				C279.234,269.136,281.371,267.792,283.387,267.816z"/>
		</g>
		<g>
			<path d="M115.387,349.816c2.04,0.024,3.144,1.416,2.52,3.12c-0.624,1.728-2.784,3.096-4.8,3.072
				c-0.984-0.024-1.776-0.384-2.232-0.936v19.08h-0.456c0-24.216,0-20.4,0-20.4c0-0.288,0.072-0.576,0.192-0.888
				C111.234,351.136,113.371,349.792,115.387,349.816z"/>
		</g>
		<g>
			<path d="M147.387,346.816c2.04,0.024,3.144,1.416,2.52,3.12c-0.624,1.728-2.784,3.096-4.8,3.072
				c-0.984-0.024-1.776-0.384-2.232-0.936v19.08h-0.456c0-24.216,0-20.4,0-20.4c0-0.288,0.072-0.576,0.192-0.888
				C143.234,348.136,145.371,346.792,147.387,346.816z"/>
		</g>
		<g>
			<path d="M183.387,342.816c2.04,0.024,3.144,1.416,2.52,3.12c-0.624,1.728-2.784,3.096-4.8,3.072
				c-0.984-0.024-1.776-0.384-2.232-0.936v19.08h-0.456c0-24.216,0-20.4,0-20.4c0-0.288,0.072-0.576,0.192-0.888
				C179.234,344.136,181.371,342.792,183.387,342.816z"/>
		</g>
		<g>
			<path d="M214.387,338.816c2.04,0.024,3.144,1.416,2.52,3.12c-0.624,1.728-2.784,3.096-4.8,3.072
				c-0.984-0.024-1.776-0.384-2.232-0.936v19.08h-0.456c0-24.216,0-20.4,0-20.4c0-0.288,0.072-0.576,0.192-0.888
				C210.234,340.136,212.371,338.792,214.387,338.816z"/>
		</g>
		<g>
			<path d="M247.387,335.816c2.04,0.024,3.144,1.416,2.52,3.12c-0.624,1.728-2.784,3.096-4.8,3.072
				c-0.984-0.024-1.776-0.384-2.232-0.936v19.08h-0.456c0-24.216,0-20.4,0-20.4c0-0.288,0.072-0.576,0.192-0.888
				C243.234,337.136,245.371,335.792,247.387,335.816z"/>
		</g>
		<g>
			<path d="M280.387,331.816c2.04,0.024,3.144,1.416,2.52,3.12c-0.624,1.728-2.784,3.096-4.8,3.072
				c-0.984-0.024-1.776-0.384-2.232-0.936v19.08h-0.456c0-24.216,0-20.4,0-20.4c0-0.288,0.072-0.576,0.192-0.888
				C276.234,333.136,278.371,331.792,280.387,331.816z"/>
		</g>
		<g>
			<path d="M135.387,416.816c2.04,0.023,3.144,1.416,2.52,3.12c-0.624,1.728-2.784,3.096-4.8,3.072
				c-0.984-0.024-1.776-0.385-2.232-0.937v19.08h-0.456c0-24.216,0-20.4,0-20.4c0-0.287,0.072-0.575,0.192-0.888
				C131.234,418.136,133.371,416.792,135.387,416.816z"/>
		</g>
		<g>
			<path d="M167.387,412.816c2.04,0.023,3.144,1.416,2.52,3.12c-0.624,1.728-2.784,3.096-4.8,3.072
				c-0.984-0.024-1.776-0.385-2.232-0.937v19.08h-0.456c0-24.216,0-20.4,0-20.4c0-0.287,0.072-0.575,0.192-0.888
				C163.234,414.136,165.371,412.792,167.387,412.816z"/>
		</g>
		<g>
			<path d="M200.387,408.816c2.04,0.023,3.144,1.416,2.52,3.12c-0.624,1.728-2.784,3.096-4.8,3.072
				c-0.984-0.024-1.776-0.385-2.232-0.937v19.08h-0.456c0-24.216,0-20.4,0-20.4c0-0.287,0.072-0.575,0.192-0.888
				C196.234,410.136,198.371,408.792,200.387,408.816z"/>
		</g>
		<g>
			<path d="M233.387,404.816c2.04,0.023,3.144,1.416,2.52,3.12c-0.624,1.728-2.784,3.096-4.8,3.072
				c-0.984-0.024-1.776-0.385-2.232-0.937v19.08h-0.456c0-24.216,0-20.4,0-20.4c0-0.287,0.072-0.575,0.192-0.888
				C229.234,406.136,231.371,404.792,233.387,404.816z"/>
		</g>
		<g>
			<path d="M267.387,401.816c2.04,0.023,3.144,1.416,2.52,3.12c-0.624,1.728-2.784,3.096-4.8,3.072
				c-0.984-0.024-1.776-0.385-2.232-0.937v19.08h-0.456c0-24.216,0-20.4,0-20.4c0-0.287,0.072-0.575,0.192-0.888
				C263.234,403.136,265.371,401.792,267.387,401.816z"/>
		</g>
		<g>
			<path d="M79.387,480.816c2.04,0.023,3.144,1.416,2.52,3.12c-0.624,1.728-2.784,3.096-4.8,3.072
				c-0.984-0.024-1.776-0.385-2.232-0.937v19.08h-0.456c0-24.216,0-20.4,0-20.4c0-0.287,0.072-0.575,0.192-0.888
				C75.234,482.136,77.371,480.792,79.387,480.816z"/>
		</g>
		<g>
			<path d="M110.387,477.816c2.04,0.023,3.144,1.416,2.52,3.12c-0.624,1.728-2.784,3.096-4.8,3.072
				c-0.984-0.024-1.776-0.385-2.232-0.937v19.08h-0.456c0-24.216,0-20.4,0-20.4c0-0.287,0.072-0.575,0.192-0.888
				C106.234,479.136,108.371,477.792,110.387,477.816z"/>
		</g>
		<g>
			<path d="M147.387,473.816c2.04,0.023,3.144,1.416,2.52,3.12c-0.624,1.728-2.784,3.096-4.8,3.072
				c-0.984-0.024-1.776-0.385-2.232-0.937v19.08h-0.456c0-24.216,0-20.4,0-20.4c0-0.287,0.072-0.575,0.192-0.888
				C143.234,475.136,145.371,473.792,147.387,473.816z"/>
		</g>
		<g>
			<path d="M181.387,469.816c2.04,0.023,3.144,1.416,2.52,3.12c-0.624,1.728-2.784,3.096-4.8,3.072
				c-0.984-0.024-1.776-0.385-2.232-0.937v19.08h-0.456c0-24.216,0-20.4,0-20.4c0-0.287,0.072-0.575,0.192-0.888
				C177.234,471.136,179.371,469.792,181.387,469.816z"/>
		</g>
		<g>
			<path d="M213.387,466.816c2.04,0.023,3.144,1.416,2.52,3.12c-0.624,1.728-2.784,3.096-4.8,3.072
				c-0.984-0.024-1.776-0.385-2.232-0.937v19.08h-0.456c0-24.216,0-20.4,0-20.4c0-0.287,0.072-0.575,0.192-0.888
				C209.234,468.136,211.371,466.792,213.387,466.816z"/>
		</g>
		<g>
			<path d="M245.387,462.816c2.04,0.023,3.144,1.416,2.52,3.12c-0.624,1.728-2.784,3.096-4.8,3.072
				c-0.984-0.024-1.776-0.385-2.232-0.937v19.08h-0.456c0-24.216,0-20.4,0-20.4c0-0.287,0.072-0.575,0.192-0.888
				C241.234,464.136,243.371,462.792,245.387,462.816z"/>
		</g>
		<g>
			<path d="M276.094,458.982c2.04,0.023,3.144,1.416,2.52,3.12c-0.624,1.728-2.784,3.096-4.8,3.072
				c-0.984-0.024-1.776-0.385-2.232-0.937v19.08h-0.456c0-24.216,0-20.4,0-20.4c0-0.287,0.072-0.575,0.192-0.888
				C271.941,460.302,274.078,458.958,276.094,458.982z"/>
		</g>
		<path fill="none" stroke="#000000" d="M268.418,461.484h12"/>
		<g>
			<path d="M121.375,26.086c0,0.216,0,1.536,0,1.536c0.912-0.816,1.416-0.984,2.424-1.008c1.2-0.024,1.968,1.176,1.992,2.136
				c0.024,0.504-0.12,1.032-0.312,1.44c-0.216,0.528-0.792,0.936-1.176,1.32c-0.432,0.432-3.552,2.568-3.552,2.616V19.942h0.624
				C121.375,19.942,121.399,22.918,121.375,26.086z M121.64,28.462c-0.312,0.6-0.264,1.632-0.264,2.376v2.064
				c0,0.024,0.864-0.72,1.344-1.176c0.432-0.408,0.768-0.864,0.936-1.584c0.192-0.72,0.12-1.488-0.336-1.992
				C123.007,27.79,122.144,27.502,121.64,28.462z"/>
		</g>
		<g>
			<path d="M220.267,75.878v-3.912h0.696v3.672l2.352-0.768v-3.504h0.696v3.288l0.936-0.312v2.496l-0.936,0.312v3.552l0.936-0.288
				v2.472l-0.936,0.312v3.912h-0.696v-3.696l-2.352,0.768v3.552h-0.696v-3.312l-1.032,0.336v-2.496l1.032-0.336V78.35l-1.032,0.336
				v-2.472L220.267,75.878z M220.963,78.134v3.576l2.352-0.768v-3.576L220.963,78.134z"/>
		</g>
		<g>
			<path d="M73.375,156.086c0,0.216,0,1.536,0,1.536c0.912-0.816,1.416-0.984,2.424-1.008c1.2-0.024,1.968,1.176,1.992,2.136
				c0.024,0.504-0.12,1.032-0.312,1.44c-0.216,0.528-0.792,0.936-1.176,1.32c-0.432,0.432-3.552,2.568-3.552,2.616v-14.184h0.624
				C73.375,149.942,73.399,152.918,73.375,156.086z M73.64,158.462c-0.312,0.6-0.264,1.632-0.264,2.376v2.064
				c0,0.024,0.864-0.72,1.344-1.176c0.432-0.408,0.768-0.864,0.936-1.584c0.192-0.72,0.12-1.488-0.336-1.992
				C75.007,157.79,74.144,157.502,73.64,158.462z"/>
		</g>
		<g>
			<path d="M131.375,148.086c0,0.216,0,1.536,0,1.536c0.912-0.816,1.416-0.984,2.424-1.008c1.2-0.024,1.968,1.176,1.992,2.136
				c0.024,0.504-0.12,1.032-0.312,1.44c-0.216,0.528-0.792,0.936-1.176,1.32c-0.432,0.432-3.552,2.568-3.552,2.616v-14.184h0.624
				C131.375,141.942,131.399,144.918,131.375,148.086z M131.64,150.462c-0.312,0.6-0.264,1.632-0.264,2.376v2.064
				c0,0.024,0.864-0.72,1.344-1.176c0.432-0.408,0.768-0.864,0.936-1.584c0.192-0.72,0.12-1.488-0.336-1.992
				C133.007,149.79,132.144,149.502,131.64,150.462z"/>
		</g>
		<g>
			<path d="M162.375,145.086c0,0.216,0,1.536,0,1.536c0.912-0.816,1.416-0.984,2.424-1.008c1.2-0.024,1.968,1.176,1.992,2.136
				c0.024,0.504-0.12,1.032-0.312,1.44c-0.216,0.528-0.792,0.936-1.176,1.32c-0.432,0.432-3.552,2.568-3.552,2.616v-14.184h0.624
				C162.375,138.942,162.399,141.918,162.375,145.086z M162.64,147.462c-0.312,0.6-0.264,1.632-0.264,2.376v2.064
				c0,0.024,0.864-0.72,1.344-1.176c0.432-0.408,0.768-0.864,0.936-1.584c0.192-0.72,0.12-1.488-0.336-1.992
				C164.007,146.79,163.144,146.502,162.64,147.462z"/>
		</g>
		<g>
			<path d="M254.375,134.086c0,0.216,0,1.536,0,1.536c0.912-0.816,1.416-0.984,2.424-1.008c1.2-0.024,1.968,1.176,1.992,2.136
				c0.024,0.504-0.12,1.032-0.312,1.44c-0.216,0.528-0.792,0.936-1.176,1.32c-0.432,0.432-3.552,2.568-3.552,2.616v-14.184h0.624
				C254.375,127.942,254.399,130.918,254.375,134.086z M254.64,136.462c-0.312,0.6-0.264,1.632-0.264,2.376v2.064
				c0,0.024,0.864-0.72,1.344-1.176c0.432-0.408,0.768-0.864,0.936-1.584c0.192-0.72,0.12-1.488-0.336-1.992
				C256.007,135.79,255.144,135.502,254.64,136.462z"/>
		</g>
		<g>
			<path d="M62.267,239.878v-3.912h0.696v3.672l2.352-0.768v-3.504h0.696v3.288l0.936-0.312v2.496l-0.936,0.312v3.552l0.936-0.288
				v2.472l-0.936,0.312v3.912h-0.696v-3.696l-2.352,0.768v3.552h-0.696v-3.312l-1.032,0.336v-2.496l1.032-0.336v-3.576l-1.032,0.336
				v-2.472L62.267,239.878z M62.963,242.134v3.576l2.352-0.768v-3.576L62.963,242.134z"/>
		</g>
		<g>
			<path d="M96.692,236.86v-3.912h0.696v3.672l2.352-0.768v-3.504h0.696v3.288l0.936-0.312v2.496l-0.936,0.312v3.552l0.936-0.288
				v2.472l-0.936,0.312v3.912H99.74v-3.696l-2.352,0.768v3.552h-0.696v-3.312l-1.032,0.336v-2.496l1.032-0.336v-3.576l-1.032,0.336
				v-2.472L96.692,236.86z M97.388,239.117v3.576l2.352-0.768v-3.576L97.388,239.117z"/>
		</g>
		<g>
			<path d="M159.267,229.878v-3.912h0.696v3.672l2.352-0.768v-3.504h0.696v3.288l0.936-0.312v2.496l-0.936,0.312v3.552l0.936-0.288
				v2.472l-0.936,0.312v3.912h-0.696v-3.696l-2.352,0.768v3.552h-0.696v-3.312l-1.032,0.336v-2.496l1.032-0.336v-3.576l-1.032,0.336
				v-2.472L159.267,229.878z M159.963,232.134v3.576l2.352-0.768v-3.576L159.963,232.134z"/>
		</g>
		<g>
			<path d="M191.267,225.878v-3.912h0.696v3.672l2.352-0.768v-3.504h0.696v3.288l0.936-0.312v2.496l-0.936,0.312v3.552l0.936-0.288
				v2.472l-0.936,0.312v3.912h-0.696v-3.696l-2.352,0.768v3.552h-0.696v-3.312l-1.032,0.336v-2.496l1.032-0.336v-3.576l-1.032,0.336
				v-2.472L191.267,225.878z M191.963,228.134v3.576l2.352-0.768v-3.576L191.963,228.134z"/>
		</g>
		<g>
			<path d="M228.692,222.86v-3.912h0.696v3.672l2.352-0.768v-3.504h0.696v3.288l0.936-0.312v2.496l-0.936,0.312v3.552l0.936-0.288
				v2.472l-0.936,0.312v3.912h-0.696v-3.696l-2.352,0.768v3.552h-0.696v-3.312l-1.032,0.336v-2.496l1.032-0.336v-3.576l-1.032,0.336
				v-2.472L228.692,222.86z M229.388,225.117v3.576l2.352-0.768v-3.576L229.388,225.117z"/>
		</g>
		<g>
			<path d="M76.267,288.878v-3.912h0.696v3.672l2.352-0.768v-3.504h0.696v3.288l0.936-0.312v2.496l-0.936,0.312v3.552l0.936-0.288
				v2.472l-0.936,0.312v3.912h-0.696v-3.696l-2.352,0.768v3.552h-0.696v-3.312l-1.032,0.336v-2.496l1.032-0.336v-3.576l-1.032,0.336
				v-2.472L76.267,288.878z M76.963,291.134v3.576l2.352-0.768v-3.576L76.963,291.134z"/>
		</g>
		<g>
			<path d="M113.267,284.878v-3.912h0.696v3.672l2.352-0.768v-3.504h0.696v3.288l0.936-0.312v2.496l-0.936,0.312v3.552l0.936-0.288
				v2.472l-0.936,0.312v3.912h-0.696v-3.696l-2.352,0.768v3.552h-0.696v-3.312l-1.032,0.336v-2.496l1.032-0.336v-3.576l-1.032,0.336
				v-2.472L113.267,284.878z M113.963,287.134v3.576l2.352-0.768v-3.576L113.963,287.134z"/>
		</g>
		<g>
			<path d="M173.451,278.24v-3.912h0.696V278l2.352-0.768v-3.504h0.696v3.288l0.936-0.312v2.496l-0.936,0.312v3.552l0.936-0.288
				v2.472l-0.936,0.312v3.912h-0.696v-3.696l-2.352,0.768v3.552h-0.696v-3.312l-1.032,0.336v-2.496l1.032-0.336v-3.576l-1.032,0.336
				v-2.472L173.451,278.24z M174.146,280.496v3.576l2.352-0.768v-3.576L174.146,280.496z"/>
		</g>
		<g>
			<path d="M205.267,273.878v-3.912h0.696v3.672l2.352-0.768v-3.504h0.696v3.288l0.936-0.312v2.496l-0.936,0.312v3.552l0.936-0.288
				v2.472l-0.936,0.312v3.912h-0.696v-3.696l-2.352,0.768v3.552h-0.696v-3.312l-1.032,0.336v-2.496l1.032-0.336v-3.576l-1.032,0.336
				v-2.472L205.267,273.878z M205.963,276.134v3.576l2.352-0.768v-3.576L205.963,276.134z"/>
		</g>
		<g>
			<path d="M269.451,266.24v-3.912h0.696V266l2.352-0.768v-3.504h0.696v3.288l0.936-0.312v2.496l-0.936,0.312v3.552l0.936-0.288
				v2.472l-0.936,0.312v3.912h-0.696v-3.696l-2.352,0.768v3.552h-0.696v-3.312l-1.032,0.336v-2.496l1.032-0.336v-3.576l-1.032,0.336
				v-2.472L269.451,266.24z M270.146,268.496v3.576l2.352-0.768v-3.576L270.146,268.496z"/>
		</g>
		<g>
			<path d="M238.267,269.878v-3.912h0.696v3.672l2.352-0.768v-3.504h0.696v3.288l0.936-0.312v2.496l-0.936,0.312v3.552l0.936-0.288
				v2.472l-0.936,0.312v3.912h-0.696v-3.696l-2.352,0.768v3.552h-0.696v-3.312l-1.032,0.336v-2.496l1.032-0.336v-3.576l-1.032,0.336
				v-2.472L238.267,269.878z M238.963,272.134v3.576l2.352-0.768v-3.576L238.963,272.134z"/>
		</g>
		<g>
			<path d="M71.973,352.281c0,0.216,0,1.536,0,1.536c0.912-0.816,1.416-0.984,2.424-1.008c1.2-0.024,1.968,1.176,1.992,2.136
				c0.024,0.504-0.12,1.032-0.312,1.44c-0.216,0.528-0.792,0.936-1.176,1.32c-0.432,0.432-3.552,2.568-3.552,2.616v-14.184h0.624
				C71.973,346.137,71.997,349.113,71.973,352.281z M72.237,354.657c-0.312,0.6-0.264,1.632-0.264,2.376v2.064
				c0,0.024,0.864-0.72,1.344-1.176c0.432-0.408,0.768-0.864,0.936-1.584c0.192-0.72,0.12-1.488-0.336-1.992
				C73.605,353.985,72.741,353.697,72.237,354.657z"/>
		</g>
		<g>
			<path d="M103.973,349.281c0,0.216,0,1.536,0,1.536c0.912-0.816,1.416-0.984,2.424-1.008c1.2-0.024,1.968,1.176,1.992,2.136
				c0.024,0.504-0.12,1.032-0.312,1.44c-0.216,0.528-0.792,0.936-1.176,1.32c-0.432,0.432-3.552,2.568-3.552,2.616v-14.184h0.624
				C103.973,343.137,103.997,346.113,103.973,349.281z M104.237,351.657c-0.312,0.6-0.264,1.632-0.264,2.376v2.064
				c0,0.024,0.864-0.72,1.344-1.176c0.432-0.408,0.768-0.864,0.936-1.584c0.192-0.72,0.12-1.488-0.336-1.992
				C105.605,350.985,104.741,350.697,104.237,351.657z"/>
		</g>
		<g>
			<path d="M134.973,346.281c0,0.216,0,1.536,0,1.536c0.912-0.816,1.416-0.984,2.424-1.008c1.2-0.024,1.968,1.176,1.992,2.136
				c0.024,0.504-0.12,1.032-0.312,1.44c-0.216,0.528-0.792,0.936-1.176,1.32c-0.432,0.432-3.552,2.568-3.552,2.616v-14.184h0.624
				C134.973,340.137,134.997,343.113,134.973,346.281z M135.237,348.657c-0.312,0.6-0.264,1.632-0.264,2.376v2.064
				c0,0.024,0.864-0.72,1.344-1.176c0.432-0.408,0.768-0.864,0.936-1.584c0.192-0.72,0.12-1.488-0.336-1.992
				C136.605,347.985,135.741,347.697,135.237,348.657z"/>
		</g>
		<g>
			<path d="M169.042,341.736c0,0.216,0,1.536,0,1.536c0.912-0.816,1.416-0.984,2.424-1.008c1.2-0.024,1.968,1.176,1.992,2.136
				c0.024,0.504-0.12,1.032-0.312,1.44c-0.216,0.528-0.792,0.936-1.176,1.32c-0.432,0.432-3.552,2.568-3.552,2.616v-14.184h0.624
				C169.042,335.592,169.066,338.568,169.042,341.736z M169.307,344.112c-0.312,0.6-0.264,1.632-0.264,2.376v2.064
				c0,0.024,0.864-0.72,1.344-1.176c0.432-0.408,0.768-0.864,0.936-1.584c0.192-0.72,0.12-1.488-0.336-1.992
				C170.674,343.44,169.811,343.152,169.307,344.112z"/>
		</g>
		<g>
			<path d="M201.973,338.281c0,0.216,0,1.536,0,1.536c0.912-0.816,1.416-0.984,2.424-1.008c1.2-0.024,1.968,1.176,1.992,2.136
				c0.024,0.504-0.12,1.032-0.312,1.44c-0.216,0.528-0.792,0.936-1.176,1.32c-0.432,0.432-3.552,2.568-3.552,2.616v-14.184h0.624
				C201.973,332.137,201.997,335.113,201.973,338.281z M202.237,340.657c-0.312,0.6-0.264,1.632-0.264,2.376v2.064
				c0,0.024,0.864-0.72,1.344-1.176c0.432-0.408,0.768-0.864,0.936-1.584c0.192-0.72,0.12-1.488-0.336-1.992
				C203.605,339.985,202.741,339.697,202.237,340.657z"/>
		</g>
		<g>
			<path d="M268.973,330.281c0,0.216,0,1.536,0,1.536c0.912-0.816,1.416-0.984,2.424-1.008c1.2-0.024,1.968,1.176,1.992,2.136
				c0.024,0.504-0.12,1.032-0.312,1.44c-0.216,0.528-0.792,0.936-1.176,1.32c-0.432,0.432-3.552,2.568-3.552,2.616v-14.184h0.624
				C268.973,324.137,268.997,327.113,268.973,330.281z M269.237,332.657c-0.312,0.6-0.264,1.632-0.264,2.376v2.064
				c0,0.024,0.864-0.72,1.344-1.176c0.432-0.408,0.768-0.864,0.936-1.584c0.192-0.72,0.12-1.488-0.336-1.992
				C270.605,331.985,269.741,331.697,269.237,332.657z"/>
		</g>
		<g>
			<path d="M63.973,480.281c0,0.216,0,1.536,0,1.536c0.912-0.816,1.416-0.984,2.424-1.008c1.2-0.024,1.968,1.176,1.992,2.136
				c0.024,0.504-0.12,1.032-0.312,1.44c-0.216,0.527-0.792,0.936-1.176,1.319c-0.432,0.433-3.552,2.568-3.552,2.616v-14.184h0.624
				C63.973,474.137,63.997,477.113,63.973,480.281z M64.237,482.657c-0.312,0.6-0.264,1.632-0.264,2.376v2.064
				c0,0.023,0.864-0.721,1.344-1.177c0.432-0.407,0.768-0.863,0.936-1.584c0.192-0.72,0.12-1.487-0.336-1.991
				C65.605,481.985,64.741,481.697,64.237,482.657z"/>
		</g>
		<g>
			<path d="M97.973,477.281c0,0.216,0,1.536,0,1.536c0.912-0.816,1.416-0.984,2.424-1.008c1.2-0.024,1.968,1.176,1.992,2.136
				c0.024,0.504-0.12,1.032-0.312,1.44c-0.216,0.527-0.792,0.936-1.176,1.319c-0.432,0.433-3.552,2.568-3.552,2.616v-14.184h0.624
				C97.973,471.137,97.997,474.113,97.973,477.281z M98.237,479.657c-0.312,0.6-0.264,1.632-0.264,2.376v2.064
				c0,0.023,0.864-0.721,1.344-1.177c0.432-0.407,0.768-0.863,0.936-1.584c0.192-0.72,0.12-1.487-0.336-1.991
				C99.605,478.985,98.741,478.697,98.237,479.657z"/>
		</g>
		<g>
			<path d="M130.973,473.281c0,0.216,0,1.536,0,1.536c0.912-0.816,1.416-0.984,2.424-1.008c1.2-0.024,1.968,1.176,1.992,2.136
				c0.024,0.504-0.12,1.032-0.312,1.44c-0.216,0.527-0.792,0.936-1.176,1.319c-0.432,0.433-3.552,2.568-3.552,2.616v-14.184h0.624
				C130.973,467.137,130.997,470.113,130.973,473.281z M131.237,475.657c-0.312,0.6-0.264,1.632-0.264,2.376v2.064
				c0,0.023,0.864-0.721,1.344-1.177c0.432-0.407,0.768-0.863,0.936-1.584c0.192-0.72,0.12-1.487-0.336-1.991
				C132.605,474.985,131.741,474.697,131.237,475.657z"/>
		</g>
		<g>
			<path d="M165.973,468.281c0,0.216,0,1.536,0,1.536c0.912-0.816,1.416-0.984,2.424-1.008c1.2-0.024,1.968,1.176,1.992,2.136
				c0.024,0.504-0.12,1.032-0.312,1.44c-0.216,0.527-0.792,0.936-1.176,1.319c-0.432,0.433-3.552,2.568-3.552,2.616v-14.184h0.624
				C165.973,462.137,165.997,465.113,165.973,468.281z M166.237,470.657c-0.312,0.6-0.264,1.632-0.264,2.376v2.064
				c0,0.023,0.864-0.721,1.344-1.177c0.432-0.407,0.768-0.863,0.936-1.584c0.192-0.72,0.12-1.487-0.336-1.991
				C167.605,469.985,166.741,469.697,166.237,470.657z"/>
		</g>
		<g>
			<path d="M199.973,466.281c0,0.216,0,1.536,0,1.536c0.912-0.816,1.416-0.984,2.424-1.008c1.2-0.024,1.968,1.176,1.992,2.136
				c0.024,0.504-0.12,1.032-0.312,1.44c-0.216,0.527-0.792,0.936-1.176,1.319c-0.432,0.433-3.552,2.568-3.552,2.616v-14.184h0.624
				C199.973,460.137,199.997,463.113,199.973,466.281z M200.237,468.657c-0.312,0.6-0.264,1.632-0.264,2.376v2.064
				c0,0.023,0.864-0.721,1.344-1.177c0.432-0.407,0.768-0.863,0.936-1.584c0.192-0.72,0.12-1.487-0.336-1.991
				C201.605,467.985,200.741,467.697,200.237,468.657z"/>
		</g>
		<g>
			<path d="M232.973,459.281c0,0.216,0,1.536,0,1.536c0.912-0.816,1.416-0.984,2.424-1.008c1.2-0.024,1.968,1.176,1.992,2.136
				c0.024,0.504-0.12,1.032-0.312,1.44c-0.216,0.527-0.792,0.936-1.176,1.319c-0.432,0.433-3.552,2.568-3.552,2.616v-14.184h0.624
				C232.973,453.137,232.997,456.113,232.973,459.281z M233.237,461.657c-0.312,0.6-0.264,1.632-0.264,2.376v2.064
				c0,0.023,0.864-0.721,1.344-1.177c0.432-0.407,0.768-0.863,0.936-1.584c0.192-0.72,0.12-1.487-0.336-1.991
				C234.605,460.985,233.741,460.697,233.237,461.657z"/>
		</g>
		<g>
			<path d="M259.973,456.281c0,0.216,0,1.536,0,1.536c0.912-0.816,1.416-0.984,2.424-1.008c1.2-0.024,1.968,1.176,1.992,2.136
				c0.024,0.504-0.12,1.032-0.312,1.44c-0.216,0.527-0.792,0.936-1.176,1.319c-0.432,0.433-3.552,2.568-3.552,2.616v-14.184h0.624
				C259.973,450.137,259.997,453.113,259.973,456.281z M260.237,458.657c-0.312,0.6-0.264,1.632-0.264,2.376v2.064
				c0,0.023,0.864-0.721,1.344-1.177c0.432-0.407,0.768-0.863,0.936-1.584c0.192-0.72,0.12-1.487-0.336-1.991
				C261.605,457.985,260.741,457.697,260.237,458.657z"/>
		</g>
		<g>
			<path d="M88.267,418.878v-3.912h0.696v3.672l2.352-0.768v-3.504h0.696v3.288l0.936-0.313v2.496l-0.936,0.313v3.552l0.936-0.288
				v2.472l-0.936,0.313v3.912h-0.696v-3.696l-2.352,0.768v3.553h-0.696v-3.313l-1.032,0.336v-2.496l1.032-0.336v-3.576l-1.032,0.337
				v-2.473L88.267,418.878z M88.963,421.134v3.576l2.352-0.768v-3.576L88.963,421.134z"/>
		</g>
		<g>
			<path d="M186.267,408.878v-3.912h0.696v3.672l2.352-0.768v-3.504h0.696v3.288l0.936-0.313v2.496l-0.936,0.313v3.552l0.936-0.288
				v2.472l-0.936,0.313v3.912h-0.696v-3.696l-2.352,0.768v3.553h-0.696v-3.313l-1.032,0.336v-2.496l1.032-0.336v-3.576l-1.032,0.337
				v-2.473L186.267,408.878z M186.963,411.134v3.576l2.352-0.768v-3.576L186.963,411.134z"/>
		</g>
		<g>
			<path d="M218.267,404.878v-3.912h0.696v3.672l2.352-0.768v-3.504h0.696v3.288l0.936-0.313v2.496l-0.936,0.313v3.552l0.936-0.288
				v2.472l-0.936,0.313v3.912h-0.696v-3.696l-2.352,0.768v3.553h-0.696v-3.313l-1.032,0.336v-2.496l1.032-0.336v-3.576l-1.032,0.337
				v-2.473L218.267,404.878z M218.963,407.134v3.576l2.352-0.768v-3.576L218.963,407.134z"/>
		</g>
	</g>
</svg>
