<?xml version="1.0" encoding="utf-8"?>
<!-- Generator: Adobe Illustrator 10.0, SVG Export Plug-In . SVG Version: 3.0.0 Build 76)  -->
<!DOCTYPE svg PUBLIC "-//W3C//DTD SVG 1.0//EN"    "http://www.w3.org/TR/2001/REC-SVG-20010904/DTD/svg10.dtd" [
	<!ENTITY ns_flows "http://ns.adobe.com/Flows/1.0/">
	<!ENTITY ns_extend "http://ns.adobe.com/Extensibility/1.0/">
	<!ENTITY ns_ai "http://ns.adobe.com/AdobeIllustrator/10.0/">
	<!ENTITY ns_svg "http://www.w3.org/2000/svg">
	<!ENTITY ns_xlink "http://www.w3.org/1999/xlink">
]>
<svg  xmlns:x="&ns_extend;" xmlns:i="&ns_ai;" xmlns:graph="&ns_graphs;"
	 xmlns="&ns_svg;" xmlns:xlink="&ns_xlink;" xmlns:a="http://ns.adobe.com/AdobeSVGViewerExtensions/3.0/" width="428" height="236"
	 viewBox="0.2 0.232 428 236" overflow="visible" enable-background="new 0.2 0.232 428 236" xml:space="preserve">
	<g id="Layer_1_2_">
		<g>
			<path fill="none" stroke="#000000" d="M0.114,20.397h426.111"/>
			<path fill="none" stroke="#000000" d="M0.114,34.509h426.111"/>
			<path fill="none" stroke="#000000" d="M0.326,41.632h426.111"/>
			<path fill="none" stroke="#000000" d="M0,49.016h426.11"/>
			<path fill="none" stroke="#000000" d="M0,27.651h426.11"/>
		</g>
		<path fill="none" stroke="#0A0A0A" d="M140.9,20.547v29.746"/>
		<g>
			<path d="M66.62,33.789c-0.713,0-1.217-0.536-1.217-1.25s0.524-1.25,1.259-1.25s1.238,0.516,1.238,1.25
				c0,0.714-0.503,1.25-1.259,1.25H66.62z"/>
		</g>
		<g>
			<path d="M46.614,112.469v3.072c2.448,0.096,4.464,1.32,4.464,3.552c0,0.96-1.2,1.8-1.848,1.8s-2.04-0.36-2.04-1.8
				c0-0.936,0.672-1.632,1.512-1.632c0.552,0,0.504-0.36,0.312-0.576c-0.48-0.504-1.344-0.912-2.4-0.696v10.512
				c0.072,0,0.144,0,0.216,0c1.608,0,3.456-1.488,3.408-3.528h0.672c-0.024,0.624-0.432,1.92-0.84,2.424
				c-0.816,0.984-2.304,1.824-3.456,1.848v3.912h-0.672v-3.96c-2.832-0.336-4.8-3.024-4.8-5.952c0-2.952,1.92-5.664,4.8-5.88v-3.096
				H46.614z M45.942,116.405c-1.536,0.744-1.872,2.856-1.872,5.04c0,2.256,0.336,4.512,1.872,5.112V116.405z"/>
		</g>
		<g>
			<path d="M56.294,207.372c-2.448,0-4.272-1.2-4.272-3.168c0-0.84,0.816-1.728,1.68-1.728c0.888,0,1.824,0.528,1.824,1.536
				c0,1.224-0.936,1.368-0.864,2.232c0.024,0.216,0.72,0.6,0.96,0.6c1.608,0,2.376-1.848,2.376-2.928
				c0-2.064-1.896-1.848-3.432-2.16c0-0.048,0.024-0.648,0.024-0.624c1.56-0.192,3.072-0.72,3.048-2.52
				c-0.024-2.52-2.016-2.352-2.328-2.352c-0.168,0-0.696,0.336-0.672,0.6c0.072,0.528,0.816,0.768,1.128,1.704
				c0.312,0.912-0.768,1.92-1.68,1.92c-1.056,0-1.848-1.176-1.848-1.776c0-1.392,1.104-3.144,4.848-3.144
				c1.632,0,3.432,1.128,3.432,2.904c0,2.352-2.76,2.52-2.76,2.856c1.392,0.144,3.24,0.672,3.24,2.52
				C60.999,206.292,58.046,207.372,56.294,207.372z"/>
		</g>
		<g>
			<path d="M38.192,29.872v1.584c0,0.96,1.128,0.936,1.128,0.936v0.624h-5.208v-0.624c0,0,1.176,0.048,1.152-0.888v-1.632h-4.44
				l-0.432-0.456c2.904-3.912,2.928-4.632,3.624-8.184h4.152c-0.984,1.824-4.296,5.256-6.624,7.968h3.72v-2.952l2.928-3.216V29.2
				h1.728v0.672H38.192z"/>
		</g>
		<g>
			<path d="M22.079,103.725v-3.912h0.696v3.672l2.352-0.768v-3.504h0.696v3.288l0.936-0.312v2.496l-0.936,0.312v3.552l0.936-0.288
				v2.472l-0.936,0.312v3.912h-0.696v-3.696l-2.352,0.768v3.552h-0.696v-3.312l-1.032,0.336v-2.496l1.032-0.336v-3.576l-1.032,0.336
				v-2.472L22.079,103.725z M22.774,105.981v3.576l2.352-0.768v-3.576L22.774,105.981z"/>
		</g>
		<g>
			<path d="M9.152,48.92c-4.944-2.352-5.736-5.376-5.952-8.472c-0.24-3.36,1.896-6.768,3.888-8.664
				c1.152-1.08,2.4-2.136,3.888-3.264c-0.048-0.84-0.24-1.176-0.336-2.376c-0.024-0.504-0.336-2.856,0.168-5.568
				c0.312-1.608,2.328-5.4,3.72-5.424c1.08-0.024,2.736,4.296,2.784,6.456c0.072,3.336-0.72,4.848-1.704,6.576
				c-0.504,0.864-1.032,1.464-1.584,2.136c-0.576,0.696-1.224,1.104-1.824,1.632c0,0,0.768,4.344,0.792,4.656
				c1.536-0.192,3.408,0.36,4.08,0.84c1.704,1.272,2.352,3.024,2.472,4.728c0.216,2.712-1.272,5.568-4.56,6.936
				c0,0,0.504,3.456,0.624,4.176c0.264,1.896,0.216,3.096-0.192,3.864c-0.696,1.296-1.824,2.496-4.008,2.64
				c-1.68,0.096-4.992-0.744-5.16-3.384c-0.096-1.56,0.6-3.24,2.496-3.36c1.152-0.096,2.52,0.864,2.616,2.232
				c0.096,1.176-0.672,2.4-2.664,2.952c0.312,0.432,1.248,0.936,2.592,0.936c1.392,0,2.832-0.936,3.528-2.184
				c0.432-0.816,0.384-2.28,0.216-3.624c-0.072-0.456-0.648-4.08-0.648-4.08C12.608,49.568,10.16,49.4,9.152,48.92z M9.632,43.232
				c0.048,1.152,1.008,2.496,1.896,2.952c-0.12,0.072-0.24,0.264-0.24,0.264c-0.984-0.48-1.824-1.272-2.04-1.56
				c-0.696-0.936-0.984-1.464-1.08-2.88c-0.096-1.32,0.624-3.096,2.232-4.344c0.84-0.624,1.248-0.768,1.968-0.936l-0.72-4.344
				c-0.744,0.432-3.816,2.904-5.112,4.92c-1.152,1.8-1.848,3.24-1.704,5.016c0.288,4.008,4.68,7.296,9.432,6.168
				c0,0-1.416-8.52-1.392-8.52C10.256,40.064,9.56,42.08,9.632,43.232z M11.576,28.016c2.088-1.632,4.92-4.704,4.752-7.08
				c-0.048-0.744-0.36-2.088-1.44-2.064C12.416,18.896,11.024,24.056,11.576,28.016z M14.84,48.296
				c2.76-0.936,2.88-3.312,2.784-4.728c-0.096-1.176-0.624-3.816-4.128-3.648L14.84,48.296z"/>
		</g>
		<g>
			<path d="M58.168,32.064c2.04,0.024,3.144,1.416,2.52,3.12c-0.624,1.728-2.784,3.096-4.8,3.072
				c-0.984-0.024-1.776-0.384-2.232-0.936V56.4H53.2c0-24.216,0-20.4,0-20.4c0-0.288,0.072-0.576,0.192-0.888
				C54.016,33.384,56.152,32.04,58.168,32.064z"/>
		</g>
		<g>
			<path d="M213.763,35.064c0.984,0,1.776,0.36,2.232,0.912V16.752h0.456v20.4c0,0.336-0.048,0.672-0.168,1.056
				c-0.648,1.704-2.784,3.072-4.8,3.048c-2.016-0.024-3.144-1.44-2.52-3.144S211.747,35.04,213.763,35.064z"/>
		</g>
		<g>
			<path d="M83.144,35.04c1.008,0.024,1.776,0.36,2.232,0.912V16.608h0.456c0,1.176,0.552,2.568,1.248,3.552
				c0.792,1.08,1.752,2.352,2.688,3.888c0.792,1.344,1.44,3.456,1.56,4.416c0.144,0.984,0.216,1.968,0.192,2.928
				c-0.024,1.44-0.24,2.808-0.72,4.08l-0.288-0.144c0.432-1.08,0.648-2.664,0.648-4.032c0-1.128-0.192-2.64-0.6-3.792
				c-0.72-2.136-1.92-3.384-2.616-3.864c-1.08-0.696-2.112-0.744-2.112-0.744v14.16c0.024,0.36-0.024,0.744-0.168,1.128
				c-0.624,1.704-2.784,3.072-4.8,3.048s-3.144-1.416-2.496-3.144C78.992,36.384,81.128,35.016,83.144,35.04z"/>
		</g>
		<g>
			<path d="M91.287,135.084c0.456-1.248,1.488-2.256,2.256-2.64c0.768-0.36,1.752-0.552,2.88-0.456
				c0.576,0.048,1.584,0.216,2.16,0.816v-19.224h0.456v20.496c0,0.096-0.024,0.168-0.024,0.24c-0.048,0.432-0.168,0.792-0.264,1.032
				c-0.456,1.248-1.44,2.088-2.184,2.52s-1.872,0.744-3.24,0.6c-0.528-0.072-1.68-0.168-2.16-1.032
				C90.782,136.789,91.118,135.565,91.287,135.084z M94.167,137.101c0.552-0.288,0.96-0.528,1.464-0.792
				c0.48-0.288,0.912-0.552,1.44-0.888c0.72-0.456,1.656-1.248,1.176-2.064c-0.48-0.816-1.656-0.408-2.4-0.048
				c-0.576,0.288-1.032,0.528-1.512,0.816c-0.48,0.264-0.912,0.504-1.416,0.84c-0.72,0.456-1.656,1.272-1.152,2.088
				C92.222,137.869,93.398,137.461,94.167,137.101z"/>
		</g>
		<g>
			<path d="M200.727,208.3c-0.456,1.248-1.488,2.256-2.232,2.64c-0.768,0.384-1.776,0.576-2.88,0.456
				c-0.6-0.048-1.608-0.216-2.16-0.792v19.225h-0.456v-20.497c0-0.096,0-0.168,0-0.264c0.048-0.408,0.192-0.792,0.288-1.032
				c0.456-1.224,1.416-2.088,2.16-2.496c0.744-0.432,1.896-0.744,3.264-0.6c0.504,0.048,1.656,0.168,2.136,1.008
				C201.23,206.62,200.918,207.844,200.727,208.3z M197.871,206.308c-0.552,0.288-0.984,0.504-1.464,0.792s-0.936,0.528-1.464,0.888
				c-0.696,0.456-1.632,1.248-1.152,2.064s1.632,0.408,2.4,0.024c0.552-0.264,1.008-0.504,1.488-0.792
				c0.504-0.288,0.912-0.504,1.44-0.84c0.696-0.456,1.632-1.272,1.152-2.088C199.791,205.54,198.614,205.924,197.871,206.308z"/>
		</g>
		<g>
			<path d="M22.824,30.984c0,0.216,0,1.536,0,1.536c0.912-0.816,1.416-0.984,2.424-1.008c1.2-0.024,1.968,1.176,1.992,2.136
				c0.024,0.504-0.12,1.032-0.312,1.44c-0.216,0.528-0.792,0.936-1.176,1.32C25.32,36.84,22.2,38.976,22.2,39.024V24.84h0.624
				C22.824,24.84,22.848,27.816,22.824,30.984z M23.088,33.36c-0.312,0.6-0.264,1.632-0.264,2.376V37.8
				c0,0.024,0.864-0.72,1.344-1.176c0.432-0.408,0.768-0.864,0.936-1.584c0.192-0.72,0.12-1.488-0.336-1.992
				C24.456,32.688,23.592,32.4,23.088,33.36z"/>
		</g>
		<g>
			<path fill="none" stroke="#000000" d="M234.045,142.135h12"/>
			<g>
				<path d="M241.48,138.645c0.983,0,1.775,0.36,2.231,0.912v-19.224h0.456v20.4c0,0.336-0.048,0.672-0.168,1.056
					c-0.648,1.704-2.784,3.072-4.8,3.048c-2.017-0.024-3.145-1.44-2.521-3.144S239.463,138.621,241.48,138.645z"/>
			</g>
		</g>
		<g>
			<g>
				<path d="M69.424,149.121c-2.04-0.024-3.144-1.416-2.52-3.12c0.624-1.728,2.784-3.096,4.8-3.072
					c0.984,0.024,1.776,0.384,2.232,0.936v-19.08h0.456c0,24.216,0,20.4,0,20.4c0,0.288-0.072,0.576-0.192,0.888
					C73.576,147.801,71.44,149.145,69.424,149.121z"/>
			</g>
			<path fill="none" stroke="#000000" d="M64.519,142.287h12"/>
		</g>
		<g>
			<path fill="none" stroke="#000000" d="M202.574,112.517l2.958,2.637"/>
			<path fill="none" stroke="#000000" stroke-width="4" d="M201.861,121.159l4.538-5.852"/>
			<path fill="none" stroke="#000000" d="M201.523,120.485l5.313,3.841"/>
			<path fill="none" stroke="#000000" d="M204.693,129.517l-2.493-3.285"/>
			<g>
				<g>
					<path fill="none" d="M206.639,124.566c-1.48-0.457-3.169-0.31-4.221,1.15"/>
					<path d="M206.984,123.636c-2.036-0.582-4.036-0.217-5.378,1.512c-0.787,1.013,0.843,2.146,1.625,1.138
						c0.763-0.981,1.924-1.114,3.063-0.788C207.52,125.848,208.213,123.988,206.984,123.636z"/>
				</g>
			</g>
		</g>
		<g>
			<path d="M38.192,44.872v1.584c0,0.96,1.128,0.936,1.128,0.936v0.624h-5.208v-0.624c0,0,1.176,0.048,1.152-0.888v-1.632h-4.44
				l-0.432-0.456c2.904-3.912,2.928-4.632,3.624-8.184h4.152c-0.984,1.824-4.296,5.256-6.624,7.968h3.72v-2.952l2.928-3.216V44.2
				h1.728v0.672H38.192z"/>
		</g>
		<g>
			<path d="M105.168,32.064c2.04,0.024,3.144,1.416,2.52,3.12c-0.624,1.728-2.784,3.096-4.8,3.072
				c-0.984-0.024-1.776-0.384-2.232-0.936V56.4H100.2c0-24.216,0-20.4,0-20.4c0-0.288,0.072-0.576,0.192-0.888
				C101.016,33.384,103.152,32.04,105.168,32.064z"/>
		</g>
		<g>
			<path d="M125.168,28.064c2.04,0.024,3.144,1.416,2.52,3.12c-0.624,1.728-2.784,3.096-4.8,3.072
				c-0.984-0.024-1.776-0.384-2.232-0.936V52.4H120.2c0-24.216,0-20.4,0-20.4c0-0.288,0.072-0.576,0.192-0.888
				C121.016,29.384,123.152,28.04,125.168,28.064z"/>
		</g>
		<g>
			<path d="M159.168,25.064c2.04,0.024,3.144,1.416,2.52,3.12c-0.624,1.728-2.784,3.096-4.8,3.072
				c-0.984-0.024-1.776-0.384-2.232-0.936V49.4H154.2c0-24.216,0-20.4,0-20.4c0-0.288,0.072-0.576,0.192-0.888
				C155.016,26.384,157.152,25.04,159.168,25.064z"/>
		</g>
		<g>
			<path d="M178.168,28.064c2.04,0.024,3.144,1.416,2.52,3.12c-0.624,1.728-2.784,3.096-4.8,3.072
				c-0.984-0.024-1.776-0.384-2.232-0.936V52.4H173.2c0-24.216,0-20.4,0-20.4c0-0.288,0.072-0.576,0.192-0.888
				C174.016,29.384,176.152,28.04,178.168,28.064z"/>
		</g>
		<g>
			<path d="M195.168,32.064c2.04,0.024,3.144,1.416,2.52,3.12c-0.624,1.728-2.784,3.096-4.8,3.072
				c-0.984-0.024-1.776-0.384-2.232-0.936V56.4H190.2c0-24.216,0-20.4,0-20.4c0-0.288,0.072-0.576,0.192-0.888
				C191.016,33.384,193.152,32.04,195.168,32.064z"/>
		</g>
		<path fill="none" stroke="#0A0A0A" d="M228.9,19.547v29.746"/>
		<path fill="none" stroke="#0A0A0A" d="M325.555,18.947v29.746"/>
		<path fill="none" stroke="#0A0A0A" d="M425.901,19.547v29.746"/>
		<g>
			<path d="M241.167,32.064c2.04,0.024,3.145,1.416,2.521,3.12c-0.624,1.728-2.784,3.096-4.8,3.072
				c-0.984-0.024-1.776-0.384-2.232-0.936V56.4H236.2c0-24.216,0-20.4,0-20.4c0-0.288,0.072-0.576,0.192-0.888
				C237.016,33.384,239.152,32.04,241.167,32.064z"/>
		</g>
		<g>
			<path d="M261.096,35.064c0.983,0,1.775,0.36,2.231,0.912V16.752h0.456v20.4c0,0.336-0.048,0.672-0.168,1.056
				c-0.648,1.704-2.784,3.072-4.8,3.048c-2.017-0.024-3.145-1.44-2.521-3.144S259.08,35.04,261.096,35.064z"/>
		</g>
		<g>
			<path d="M284.763,39.064c0.983,0,1.775,0.36,2.231,0.912V20.752h0.456v20.4c0,0.336-0.048,0.672-0.168,1.056
				c-0.648,1.704-2.784,3.072-4.8,3.048c-2.017-0.024-3.145-1.44-2.521-3.144S282.747,39.04,284.763,39.064z"/>
		</g>
		<g>
			<path d="M306.763,42.064c0.983,0,1.775,0.36,2.231,0.912V23.752h0.456v20.4c0,0.336-0.048,0.672-0.168,1.056
				c-0.648,1.704-2.784,3.072-4.8,3.048c-2.017-0.024-3.145-1.44-2.521-3.144S304.747,42.04,306.763,42.064z"/>
		</g>
		<g>
			<path d="M335.763,35.064c0.983,0,1.775,0.36,2.231,0.912V16.752h0.456v20.4c0,0.336-0.048,0.672-0.168,1.056
				c-0.648,1.704-2.784,3.072-4.8,3.048c-2.017-0.024-3.145-1.44-2.521-3.144S333.747,35.04,335.763,35.064z"/>
		</g>
		<g>
			<path d="M363.144,39.04c1.008,0.024,1.775,0.36,2.231,0.912V20.608h0.456c0,1.176,0.552,2.568,1.248,3.552
				c0.792,1.08,1.752,2.352,2.688,3.888c0.792,1.344,1.439,3.456,1.56,4.416c0.145,0.984,0.216,1.968,0.192,2.928
				c-0.024,1.44-0.24,2.808-0.721,4.08l-0.287-0.144c0.432-1.08,0.647-2.664,0.647-4.032c0-1.128-0.191-2.64-0.6-3.792
				c-0.721-2.136-1.92-3.384-2.616-3.864c-1.08-0.696-2.112-0.744-2.112-0.744v14.16c0.024,0.36-0.023,0.744-0.168,1.128
				c-0.624,1.704-2.784,3.072-4.8,3.048s-3.145-1.416-2.496-3.144C358.992,40.384,361.127,39.016,363.144,39.04z"/>
		</g>
		<g>
			<path d="M384.763,42.064c0.983,0,1.775,0.36,2.231,0.912V23.752h0.456v20.4c0,0.336-0.048,0.672-0.168,1.056
				c-0.648,1.704-2.784,3.072-4.8,3.048c-2.017-0.024-3.145-1.44-2.521-3.144S382.747,42.04,384.763,42.064z"/>
		</g>
		<g>
			<path d="M406.763,46.064c0.983,0,1.775,0.36,2.231,0.912V27.752h0.456v20.4c0,0.336-0.048,0.672-0.168,1.056
				c-0.648,1.704-2.784,3.072-4.8,3.048c-2.017-0.024-3.145-1.44-2.521-3.144S404.747,46.04,406.763,46.064z"/>
		</g>
		<g>
			<path fill="none" stroke="#000000" d="M1.114,106.397h426.111"/>
			<path fill="none" stroke="#000000" d="M1.114,120.509h426.111"/>
			<path fill="none" stroke="#000000" d="M1.326,127.632h426.111"/>
			<path fill="none" stroke="#000000" d="M1,135.016h426.11"/>
			<path fill="none" stroke="#000000" d="M1,113.651h426.11"/>
		</g>
		<g>
			<path d="M10.152,134.92c-4.944-2.352-5.736-5.376-5.952-8.472c-0.24-3.36,1.896-6.768,3.888-8.664
				c1.152-1.08,2.4-2.136,3.888-3.264c-0.048-0.84-0.24-1.176-0.336-2.376c-0.024-0.504-0.336-2.856,0.168-5.568
				c0.312-1.608,2.328-5.4,3.72-5.424c1.08-0.024,2.736,4.296,2.784,6.456c0.072,3.336-0.72,4.848-1.704,6.576
				c-0.504,0.864-1.032,1.464-1.584,2.136c-0.576,0.696-1.224,1.104-1.824,1.632c0,0,0.768,4.344,0.792,4.656
				c1.536-0.192,3.408,0.36,4.08,0.84c1.704,1.272,2.352,3.024,2.472,4.728c0.216,2.712-1.272,5.568-4.56,6.936
				c0,0,0.504,3.456,0.624,4.176c0.264,1.896,0.216,3.096-0.192,3.864c-0.696,1.296-1.824,2.496-4.008,2.64
				c-1.68,0.096-4.992-0.744-5.16-3.384c-0.096-1.56,0.6-3.24,2.496-3.36c1.152-0.096,2.52,0.864,2.616,2.232
				c0.096,1.176-0.672,2.4-2.664,2.952c0.312,0.432,1.248,0.936,2.592,0.936c1.392,0,2.832-0.936,3.528-2.184
				c0.432-0.816,0.384-2.28,0.216-3.624c-0.072-0.456-0.648-4.08-0.648-4.08C13.608,135.568,11.16,135.4,10.152,134.92z
				 M10.632,129.232c0.048,1.152,1.008,2.496,1.896,2.952c-0.12,0.072-0.24,0.264-0.24,0.264c-0.984-0.48-1.824-1.272-2.04-1.56
				c-0.696-0.936-0.984-1.464-1.08-2.88c-0.096-1.32,0.624-3.096,2.232-4.344c0.84-0.624,1.248-0.768,1.968-0.936l-0.72-4.344
				c-0.744,0.432-3.816,2.904-5.112,4.92c-1.152,1.8-1.848,3.24-1.704,5.016c0.288,4.008,4.68,7.296,9.432,6.168
				c0,0-1.416-8.52-1.392-8.52C11.256,126.064,10.56,128.08,10.632,129.232z M12.576,114.016c2.088-1.632,4.92-4.704,4.752-7.08
				c-0.048-0.744-0.36-2.088-1.44-2.064C13.416,104.896,12.024,110.056,12.576,114.016z M15.84,134.296
				c2.76-0.936,2.88-3.312,2.784-4.728c-0.096-1.176-0.624-3.816-4.128-3.648L15.84,134.296z"/>
		</g>
		<g>
			<path d="M31.079,113.725v-3.912h0.696v3.672l2.352-0.768v-3.504h0.696v3.288l0.936-0.312v2.496l-0.936,0.312v3.552l0.936-0.288
				v2.472l-0.936,0.312v3.912h-0.696v-3.696l-2.352,0.768v3.552h-0.696v-3.312l-1.032,0.336v-2.496l1.032-0.336v-3.576l-1.032,0.336
				v-2.472L31.079,113.725z M31.774,115.981v3.576l2.352-0.768v-3.576L31.774,115.981z"/>
		</g>
		<g>
			<g>
				<path d="M129.424,149.121c-2.04-0.024-3.144-1.416-2.52-3.12c0.624-1.728,2.784-3.096,4.8-3.072
					c0.984,0.024,1.776,0.384,2.232,0.936v-19.08h0.456c0,24.216,0,20.4,0,20.4c0,0.288-0.072,0.576-0.192,0.888
					C133.576,147.801,131.44,149.145,129.424,149.121z"/>
			</g>
			<path fill="none" stroke="#000000" d="M124.519,142.287h12"/>
		</g>
		<path fill="none" stroke="#0A0A0A" d="M143.9,105.547v29.746"/>
		<g>
			<path d="M158.287,135.084c0.456-1.248,1.488-2.256,2.256-2.64c0.768-0.36,1.752-0.552,2.88-0.456
				c0.576,0.048,1.584,0.216,2.16,0.816v-19.224h0.456v20.496c0,0.096-0.024,0.168-0.024,0.24c-0.048,0.432-0.168,0.792-0.264,1.032
				c-0.456,1.248-1.44,2.088-2.184,2.52s-1.872,0.744-3.24,0.6c-0.528-0.072-1.68-0.168-2.16-1.032
				C157.782,136.789,158.118,135.565,158.287,135.084z M161.167,137.101c0.552-0.288,0.96-0.528,1.464-0.792
				c0.48-0.288,0.912-0.552,1.44-0.888c0.72-0.456,1.656-1.248,1.176-2.064c-0.48-0.816-1.656-0.408-2.4-0.048
				c-0.576,0.288-1.032,0.528-1.512,0.816c-0.48,0.264-0.912,0.504-1.416,0.84c-0.72,0.456-1.656,1.272-1.152,2.088
				C159.222,137.869,160.398,137.461,161.167,137.101z"/>
		</g>
		<g>
			<path d="M171.507,133.45c-0.713,0-1.217-0.536-1.217-1.25s0.524-1.25,1.259-1.25s1.238,0.516,1.238,1.25
				c0,0.714-0.503,1.25-1.259,1.25H171.507z"/>
		</g>
		<path fill="none" stroke="#0A0A0A" d="M225.9,105.547v29.746"/>
		<path fill="none" stroke="#0A0A0A" d="M322.901,105.547v29.746"/>
		<path fill="none" stroke="#0A0A0A" d="M426.926,105.824v29.746"/>
		<g>
			<path d="M304.763,132.064c0.983,0,1.775,0.36,2.231,0.912v-19.224h0.456v20.4c0,0.336-0.048,0.672-0.168,1.056
				c-0.648,1.704-2.784,3.072-4.8,3.048c-2.017-0.024-3.145-1.44-2.521-3.144S302.747,132.04,304.763,132.064z"/>
		</g>
		<g>
			<path d="M335.287,124.084c0.456-1.248,1.487-2.256,2.256-2.64c0.768-0.36,1.752-0.552,2.88-0.456
				c0.576,0.048,1.584,0.216,2.16,0.816v-19.224h0.456v20.496c0,0.096-0.024,0.168-0.024,0.24c-0.048,0.432-0.168,0.792-0.264,1.032
				c-0.456,1.248-1.44,2.088-2.184,2.52c-0.744,0.432-1.872,0.744-3.24,0.6c-0.528-0.072-1.681-0.168-2.16-1.032
				C334.783,125.789,335.119,124.565,335.287,124.084z M338.167,126.101c0.552-0.288,0.96-0.528,1.464-0.792
				c0.48-0.288,0.912-0.552,1.44-0.888c0.72-0.456,1.655-1.248,1.176-2.064c-0.48-0.816-1.656-0.408-2.4-0.048
				c-0.576,0.288-1.032,0.528-1.512,0.816c-0.48,0.264-0.912,0.504-1.416,0.84c-0.72,0.456-1.656,1.272-1.152,2.088
				C336.222,126.869,337.398,126.461,338.167,126.101z"/>
		</g>
		<g>
			<path d="M348.507,126.45c-0.713,0-1.217-0.536-1.217-1.25s0.524-1.25,1.259-1.25s1.237,0.516,1.237,1.25
				c0,0.714-0.503,1.25-1.258,1.25H348.507z"/>
		</g>
		<g>
			<path fill="none" stroke="#000000" d="M407.574,112.517l2.958,2.637"/>
			<path fill="none" stroke="#000000" stroke-width="4" d="M406.861,121.159l4.538-5.852"/>
			<path fill="none" stroke="#000000" d="M406.523,120.485l5.313,3.841"/>
			<path fill="none" stroke="#000000" d="M409.693,129.517l-2.493-3.285"/>
			<g>
				<g>
					<path fill="none" d="M411.639,124.566c-1.48-0.457-3.169-0.31-4.221,1.15"/>
					<path d="M411.983,123.636c-2.035-0.583-4.035-0.217-5.377,1.511c-0.787,1.013,0.843,2.146,1.625,1.139
						c0.762-0.981,1.924-1.115,3.064-0.789C412.52,125.847,413.213,123.988,411.983,123.636z"/>
				</g>
			</g>
		</g>
		<g>
			<path d="M260.287,124.084c0.456-1.248,1.487-2.256,2.256-2.64c0.768-0.36,1.752-0.552,2.88-0.456
				c0.576,0.048,1.584,0.216,2.16,0.816v-19.224h0.456v20.496c0,0.096-0.024,0.168-0.024,0.24c-0.048,0.432-0.168,0.792-0.264,1.032
				c-0.456,1.248-1.44,2.088-2.184,2.52c-0.744,0.432-1.872,0.744-3.24,0.6c-0.528-0.072-1.681-0.168-2.16-1.032
				C259.783,125.789,260.119,124.565,260.287,124.084z M263.167,126.101c0.552-0.288,0.96-0.528,1.464-0.792
				c0.48-0.288,0.912-0.552,1.44-0.888c0.72-0.456,1.655-1.248,1.176-2.064c-0.48-0.816-1.656-0.408-2.4-0.048
				c-0.576,0.288-1.032,0.528-1.512,0.816c-0.48,0.264-0.912,0.504-1.416,0.84c-0.72,0.456-1.656,1.272-1.152,2.088
				C261.222,126.869,262.398,126.461,263.167,126.101z"/>
		</g>
		<g>
			<path fill="none" stroke="#000000" d="M2.114,194.398h425.113"/>
			<path fill="none" stroke="#000000" d="M2.114,208.509h425.113"/>
			<path fill="none" stroke="#000000" d="M2.324,215.632h425.113"/>
			<path fill="none" stroke="#000000" d="M2,223.015h425.11"/>
			<path fill="none" stroke="#000000" d="M2,201.652h425.11"/>
		</g>
		<g>
			<path d="M11.152,222.92c-4.944-2.352-5.736-5.376-5.952-8.472c-0.24-3.36,1.896-6.768,3.888-8.664
				c1.152-1.08,2.4-2.136,3.888-3.264c-0.048-0.84-0.24-1.176-0.336-2.376c-0.024-0.504-0.336-2.856,0.168-5.568
				c0.312-1.608,2.328-5.4,3.72-5.424c1.08-0.024,2.736,4.296,2.784,6.456c0.072,3.336-0.72,4.848-1.704,6.576
				c-0.504,0.864-1.032,1.464-1.584,2.136c-0.576,0.696-1.224,1.104-1.824,1.632c0,0,0.768,4.344,0.792,4.656
				c1.536-0.192,3.408,0.36,4.08,0.84c1.704,1.272,2.352,3.024,2.472,4.728c0.216,2.712-1.272,5.568-4.56,6.936
				c0,0,0.504,3.456,0.624,4.176c0.264,1.896,0.216,3.096-0.192,3.864c-0.696,1.296-1.824,2.496-4.008,2.64
				c-1.68,0.096-4.992-0.744-5.16-3.384c-0.096-1.56,0.6-3.24,2.496-3.36c1.152-0.096,2.52,0.864,2.616,2.232
				c0.096,1.176-0.672,2.4-2.664,2.952c0.312,0.432,1.248,0.936,2.592,0.936c1.392,0,2.832-0.936,3.528-2.184
				c0.432-0.816,0.384-2.28,0.216-3.624c-0.072-0.456-0.648-4.08-0.648-4.08C14.608,223.568,12.16,223.4,11.152,222.92z
				 M11.632,217.232c0.048,1.152,1.008,2.496,1.896,2.952c-0.12,0.072-0.24,0.264-0.24,0.264c-0.984-0.48-1.824-1.272-2.04-1.56
				c-0.696-0.936-0.984-1.464-1.08-2.88c-0.096-1.32,0.624-3.096,2.232-4.344c0.84-0.624,1.248-0.768,1.968-0.936l-0.72-4.344
				c-0.744,0.432-3.816,2.904-5.112,4.92c-1.152,1.8-1.848,3.24-1.704,5.016c0.288,4.008,4.68,7.296,9.432,6.168
				c0,0-1.416-8.52-1.392-8.52C12.256,214.064,11.56,216.08,11.632,217.232z M13.576,202.016c2.088-1.632,4.92-4.704,4.752-7.08
				c-0.048-0.744-0.36-2.088-1.44-2.064C14.416,192.896,13.024,198.056,13.576,202.016z M16.84,222.296
				c2.76-0.936,2.88-3.312,2.784-4.728c-0.096-1.176-0.624-3.816-4.128-3.648L16.84,222.296z"/>
		</g>
		<g>
			<path d="M26.824,204.984c0,0.216,0,1.536,0,1.536c0.912-0.816,1.416-0.984,2.424-1.008c1.2-0.024,1.968,1.176,1.992,2.136
				c0.024,0.504-0.12,1.032-0.312,1.44c-0.216,0.528-0.792,0.936-1.176,1.32c-0.432,0.432-3.552,2.568-3.552,2.616V198.84h0.624
				C26.824,198.84,26.848,201.816,26.824,204.984z M27.088,207.36c-0.312,0.6-0.264,1.632-0.264,2.376v2.064
				c0,0.024,0.864-0.72,1.344-1.176c0.432-0.408,0.768-0.864,0.936-1.584c0.192-0.72,0.12-1.488-0.336-1.992
				C28.456,206.688,27.592,206.4,27.088,207.36z"/>
		</g>
		<g>
			<path d="M32.824,194.984c0,0.216,0,1.536,0,1.536c0.912-0.816,1.416-0.984,2.424-1.008c1.2-0.024,1.968,1.176,1.992,2.136
				c0.024,0.504-0.12,1.032-0.312,1.44c-0.216,0.528-0.792,0.936-1.176,1.32c-0.432,0.432-3.552,2.568-3.552,2.616V188.84h0.624
				C32.824,188.84,32.848,191.816,32.824,194.984z M33.088,197.36c-0.312,0.6-0.264,1.632-0.264,2.376v2.064
				c0,0.024,0.864-0.72,1.344-1.176c0.432-0.408,0.768-0.864,0.936-1.584c0.192-0.72,0.12-1.488-0.336-1.992
				C34.456,196.688,33.592,196.4,33.088,197.36z"/>
		</g>
		<g>
			<path d="M38.824,208.984c0,0.216,0,1.536,0,1.536c0.912-0.816,1.416-0.984,2.424-1.008c1.2-0.024,1.968,1.176,1.992,2.136
				c0.024,0.504-0.12,1.032-0.312,1.44c-0.216,0.528-0.792,0.936-1.176,1.32c-0.432,0.432-3.552,2.568-3.552,2.616V202.84h0.624
				C38.824,202.84,38.848,205.816,38.824,208.984z M39.088,211.36c-0.312,0.6-0.264,1.632-0.264,2.376v2.064
				c0,0.024,0.864-0.72,1.344-1.176c0.432-0.408,0.768-0.864,0.936-1.584c0.192-0.72,0.12-1.488-0.336-1.992
				C40.456,210.688,39.592,210.4,39.088,211.36z"/>
		</g>
		<g>
			<path d="M59.192,218.872v1.584c0,0.96,1.128,0.936,1.128,0.936v0.624h-5.208v-0.624c0,0,1.176,0.048,1.152-0.888v-1.632h-4.44
				l-0.432-0.456c2.904-3.912,2.928-4.632,3.624-8.184h4.152c-0.984,1.824-4.296,5.256-6.624,7.968h3.72v-2.952l2.928-3.216v6.168
				h1.728v0.672H59.192z"/>
		</g>
		<g>
			<g>
				<path d="M76.424,236.121c-2.04-0.024-3.144-1.416-2.52-3.12c0.624-1.728,2.784-3.096,4.8-3.072
					c0.984,0.024,1.776,0.384,2.232,0.936v-19.08h0.456c0,24.216,0,20.4,0,20.4c0,0.288-0.072,0.576-0.192,0.888
					C80.576,234.801,78.44,236.145,76.424,236.121z"/>
			</g>
			<path fill="none" stroke="#000000" d="M71.519,229.287h12"/>
		</g>
		<g>
			<path fill="none" stroke="#000000" d="M87.045,230.135h12"/>
			<g>
				<path d="M94.479,226.645c0.984,0,1.776,0.36,2.232,0.912v-19.224h0.456v20.4c0,0.336-0.048,0.672-0.168,1.056
					c-0.648,1.704-2.784,3.072-4.8,3.048c-2.016-0.024-3.144-1.44-2.52-3.144S92.463,226.621,94.479,226.645z"/>
			</g>
		</g>
		<g>
			<path fill="none" stroke="#000000" d="M129.045,230.135h12"/>
			<g>
				<path d="M136.479,226.645c0.984,0,1.776,0.36,2.232,0.912v-19.224h0.456v20.4c0,0.336-0.048,0.672-0.168,1.056
					c-0.648,1.704-2.784,3.072-4.8,3.048c-2.016-0.024-3.144-1.44-2.52-3.144S134.463,226.621,136.479,226.645z"/>
			</g>
		</g>
		<g>
			<path d="M114.763,220.064c0.984,0,1.776,0.36,2.232,0.912v-19.224h0.456v20.4c0,0.336-0.048,0.672-0.168,1.056
				c-0.648,1.704-2.784,3.072-4.8,3.048c-2.016-0.024-3.144-1.44-2.52-3.144S112.747,220.04,114.763,220.064z"/>
		</g>
		<g>
			<path d="M165.763,223.064c0.984,0,1.776,0.36,2.232,0.912v-19.224h0.456v20.4c0,0.336-0.048,0.672-0.168,1.056
				c-0.648,1.704-2.784,3.072-4.8,3.048c-2.016-0.024-3.144-1.44-2.52-3.144S163.747,223.04,165.763,223.064z"/>
		</g>
		<path fill="none" stroke="#000000" stroke-width="2" d="M80.2,211.232l17-3"/>
		<path fill="none" stroke="#000000" stroke-width="2" d="M89.993,214.616l6.413-1.769"/>
		<g>
			<path d="M84.507,234.45c-0.713,0-1.217-0.536-1.217-1.25s0.524-1.25,1.259-1.25s1.238,0.516,1.238,1.25
				c0,0.714-0.503,1.25-1.259,1.25H84.507z"/>
		</g>
		<path fill="none" stroke="#0A0A0A" d="M150.9,193.547v29.746"/>
		<g>
			<g>
				<path d="M259.424,235.121c-2.04-0.024-3.145-1.416-2.521-3.12c0.624-1.728,2.784-3.096,4.8-3.072
					c0.984,0.024,1.776,0.384,2.232,0.936v-19.08h0.456c0,24.216,0,20.4,0,20.4c0,0.288-0.072,0.576-0.192,0.888
					C263.576,233.801,261.44,235.145,259.424,235.121z"/>
			</g>
			<path fill="none" stroke="#000000" d="M254.519,228.287h12"/>
		</g>
		<g>
			<path fill="none" stroke="#000000" d="M270.045,229.135h12"/>
			<g>
				<path d="M277.48,225.645c0.983,0,1.775,0.36,2.231,0.912v-19.224h0.456v20.4c0,0.336-0.048,0.672-0.168,1.056
					c-0.648,1.704-2.784,3.072-4.8,3.048c-2.017-0.024-3.145-1.44-2.521-3.144S275.463,225.621,277.48,225.645z"/>
			</g>
		</g>
		<g>
			<path d="M297.763,223.064c0.983,0,1.775,0.36,2.231,0.912v-19.224h0.456v20.4c0,0.336-0.048,0.672-0.168,1.056
				c-0.648,1.704-2.784,3.072-4.8,3.048c-2.017-0.024-3.145-1.44-2.521-3.144S295.747,223.04,297.763,223.064z"/>
		</g>
		<g>
			<path d="M321.763,209.064c0.983,0,1.775,0.36,2.231,0.912v-19.224h0.456v20.4c0,0.336-0.048,0.672-0.168,1.056
				c-0.648,1.704-2.784,3.072-4.8,3.048c-2.017-0.024-3.145-1.44-2.521-3.144S319.747,209.04,321.763,209.064z"/>
		</g>
		<path fill="none" stroke="#000000" stroke-width="2" d="M263.2,210.232l17-3"/>
		<path fill="none" stroke="#000000" stroke-width="2" d="M272.993,213.616l6.414-1.769"/>
		<g>
			<path d="M267.507,233.45c-0.713,0-1.217-0.536-1.217-1.25s0.524-1.25,1.259-1.25s1.237,0.516,1.237,1.25
				c0,0.714-0.503,1.25-1.258,1.25H267.507z"/>
		</g>
		<path fill="none" stroke="#0A0A0A" d="M338.901,192.547v29.746"/>
		<g>
			<path d="M356.287,216.084c0.456-1.248,1.487-2.256,2.256-2.64c0.768-0.36,1.752-0.552,2.88-0.456
				c0.576,0.048,1.584,0.216,2.16,0.816v-19.224h0.456v20.496c0,0.096-0.024,0.168-0.024,0.24c-0.048,0.432-0.168,0.792-0.264,1.032
				c-0.456,1.248-1.44,2.088-2.184,2.52c-0.744,0.432-1.872,0.744-3.24,0.6c-0.528-0.072-1.681-0.168-2.16-1.032
				C355.783,217.789,356.119,216.565,356.287,216.084z M359.167,218.101c0.552-0.288,0.96-0.528,1.464-0.792
				c0.48-0.288,0.912-0.552,1.44-0.888c0.72-0.456,1.655-1.248,1.176-2.064c-0.48-0.816-1.656-0.408-2.4-0.048
				c-0.576,0.288-1.032,0.528-1.512,0.816c-0.48,0.264-0.912,0.504-1.416,0.84c-0.72,0.456-1.656,1.272-1.152,2.088
				C357.222,218.869,358.398,218.461,359.167,218.101z"/>
		</g>
		<g>
			<path d="M369.507,214.45c-0.713,0-1.217-0.536-1.217-1.25s0.524-1.25,1.259-1.25s1.237,0.516,1.237,1.25
				c0,0.714-0.503,1.25-1.258,1.25H369.507z"/>
		</g>
		<path fill="none" stroke="#0A0A0A" d="M239.901,193.547v29.746"/>
		<path fill="none" stroke="#0A0A0A" d="M427.901,193.547v29.746"/>
		<g>
			<path d="M7.752,7.98C7.38,8.172,6.6,8.364,5.616,8.364c-2.28,0-3.984-1.44-3.984-4.104c0-2.544,1.716-4.248,4.224-4.248
				c0.996,0,1.644,0.216,1.92,0.36L7.512,1.224c-0.384-0.192-0.948-0.336-1.62-0.336c-1.896,0-3.156,1.212-3.156,3.336
				c0,1.992,1.14,3.252,3.096,3.252c0.648,0,1.296-0.132,1.716-0.336L7.752,7.98z"/>
			<path d="M11.244,8.364c-1.56,0-2.784-1.152-2.784-2.988c0-1.944,1.284-3.084,2.88-3.084c1.668,0,2.796,1.212,2.796,2.976
				c0,2.16-1.5,3.096-2.88,3.096H11.244z M11.28,7.572c1.008,0,1.764-0.948,1.764-2.268c0-0.984-0.492-2.22-1.74-2.22
				c-1.236,0-1.776,1.152-1.776,2.256c0,1.272,0.72,2.232,1.74,2.232H11.28z"/>
			<path d="M15.468,3.996c0-0.612-0.012-1.092-0.048-1.572h0.936l0.06,0.948h0.024c0.288-0.54,0.96-1.08,1.92-1.08
				c0.804,0,2.052,0.48,2.052,2.472v3.468h-1.056V4.884c0-0.936-0.348-1.728-1.344-1.728c-0.684,0-1.224,0.492-1.416,1.08
				c-0.048,0.132-0.072,0.324-0.072,0.492v3.504h-1.056V3.996z"/>
			<path d="M20.7,9.936c0.492-0.036,0.9-0.168,1.152-0.444C22.14,9.168,22.26,8.7,22.26,7.308V2.424h1.056v5.292
				c0,1.128-0.18,1.86-0.696,2.388c-0.468,0.468-1.236,0.66-1.8,0.66L20.7,9.936z M22.764,1.356c-0.396,0-0.66-0.312-0.66-0.684
				S22.379,0,22.788,0s0.672,0.3,0.672,0.672s-0.252,0.684-0.684,0.684H22.764z"/>
			<path d="M29.904,6.648c0,0.6,0.012,1.128,0.048,1.584h-0.936l-0.06-0.948h-0.024c-0.264,0.468-0.888,1.08-1.92,1.08
				c-0.912,0-2.004-0.516-2.004-2.544V2.424h1.056v3.204c0,1.104,0.348,1.86,1.296,1.86c0.708,0,1.2-0.492,1.392-0.972
				c0.06-0.144,0.096-0.336,0.096-0.54V2.424h1.056V6.648z"/>
			<path d="M31.655,3.996c0-0.612-0.012-1.092-0.048-1.572h0.936l0.06,0.948h0.024c0.288-0.54,0.96-1.08,1.92-1.08
				c0.804,0,2.052,0.48,2.052,2.472v3.468h-1.056V4.884c0-0.936-0.348-1.728-1.344-1.728c-0.684,0-1.224,0.492-1.416,1.08
				c-0.048,0.132-0.072,0.324-0.072,0.492v3.504h-1.056V3.996z"/>
			<path d="M42.456,8.028c-0.276,0.132-0.888,0.336-1.668,0.336c-1.752,0-2.892-1.188-2.892-2.976c0-1.788,1.224-3.096,3.12-3.096
				c0.624,0,1.176,0.156,1.464,0.312l-0.24,0.804c-0.252-0.132-0.648-0.276-1.224-0.276c-1.332,0-2.052,0.996-2.052,2.208
				c0,1.344,0.864,2.172,2.016,2.172c0.6,0,0.996-0.144,1.296-0.276L42.456,8.028z"/>
			<path d="M45.119,1.032v1.392h1.512v0.804h-1.512V6.36c0,0.72,0.204,1.128,0.792,1.128c0.288,0,0.456-0.024,0.612-0.072
				l0.048,0.804c-0.204,0.072-0.528,0.144-0.936,0.144c-0.492,0-0.888-0.168-1.14-0.444c-0.288-0.324-0.408-0.84-0.408-1.524V3.228
				h-0.9V2.424h0.9V1.356L45.119,1.032z"/>
		</g>
		<g>
			<path d="M1.1,84.252c0.648-0.096,1.404-0.168,2.232-0.168c1.5,0,2.568,0.336,3.276,0.996c0.732,0.66,1.152,1.608,1.152,2.916
				c0,1.32-0.42,2.4-1.164,3.144c-0.768,0.756-2.016,1.164-3.588,1.164c-0.756,0-1.368-0.024-1.908-0.096V84.252z M2.156,91.416
				c0.264,0.048,0.648,0.048,1.056,0.048c2.232,0.012,3.444-1.248,3.444-3.432c0.012-1.932-1.068-3.12-3.276-3.12
				c-0.54,0-0.948,0.048-1.224,0.108V91.416z"/>
			<path d="M9.596,85.356c-0.396,0-0.66-0.312-0.66-0.684S9.211,84,9.62,84c0.408,0,0.672,0.3,0.672,0.672s-0.264,0.684-0.684,0.684
				H9.596z M9.091,92.232v-5.808h1.056v5.808H9.091z"/>
			<path d="M11.755,91.164c0.324,0.192,0.876,0.408,1.404,0.408c0.756,0,1.116-0.372,1.116-0.864c0-0.504-0.3-0.78-1.068-1.068
				c-1.056-0.384-1.548-0.948-1.548-1.644c0-0.936,0.768-1.704,2.004-1.704c0.588,0,1.104,0.156,1.416,0.36l-0.252,0.756
				c-0.228-0.132-0.648-0.336-1.188-0.336c-0.624,0-0.96,0.36-0.96,0.792c0,0.492,0.336,0.708,1.092,0.996
				c0.996,0.372,1.524,0.876,1.524,1.752c0,1.032-0.804,1.752-2.16,1.752c-0.636,0-1.224-0.168-1.632-0.408L11.755,91.164z"/>
			<path d="M15.223,93.936c0.492-0.036,0.9-0.168,1.152-0.444c0.288-0.324,0.408-0.792,0.408-2.184v-4.884h1.056v5.292
				c0,1.128-0.18,1.86-0.696,2.388c-0.468,0.468-1.236,0.66-1.8,0.66L15.223,93.936z M17.288,85.356c-0.396,0-0.66-0.312-0.66-0.684
				S16.903,84,17.312,84c0.408,0,0.672,0.3,0.672,0.672s-0.252,0.684-0.684,0.684H17.288z"/>
			<path d="M24.427,90.648c0,0.6,0.012,1.128,0.048,1.584H23.54l-0.06-0.948h-0.024c-0.264,0.468-0.888,1.08-1.92,1.08
				c-0.912,0-2.004-0.516-2.004-2.544v-3.396h1.056v3.204c0,1.104,0.348,1.86,1.296,1.86c0.708,0,1.2-0.492,1.392-0.972
				c0.06-0.144,0.096-0.336,0.096-0.54v-3.552h1.056V90.648z"/>
			<path d="M26.179,87.996c0-0.612-0.012-1.092-0.048-1.572h0.936l0.06,0.948h0.024c0.288-0.54,0.96-1.08,1.92-1.08
				c0.804,0,2.052,0.48,2.052,2.472v3.468h-1.056v-3.348c0-0.936-0.348-1.728-1.344-1.728c-0.684,0-1.224,0.492-1.416,1.08
				c-0.048,0.132-0.072,0.324-0.072,0.492v3.504h-1.056V87.996z"/>
			<path d="M36.979,92.028c-0.276,0.132-0.888,0.336-1.668,0.336c-1.752,0-2.892-1.188-2.892-2.976c0-1.788,1.224-3.096,3.12-3.096
				c0.624,0,1.176,0.156,1.464,0.312l-0.24,0.804c-0.252-0.132-0.648-0.276-1.224-0.276c-1.332,0-2.052,0.996-2.052,2.208
				c0,1.344,0.864,2.172,2.016,2.172c0.6,0,0.996-0.144,1.296-0.276L36.979,92.028z"/>
			<path d="M39.643,85.032v1.392h1.512v0.804h-1.512v3.132c0,0.72,0.204,1.128,0.792,1.128c0.288,0,0.456-0.024,0.612-0.072
				l0.048,0.804c-0.204,0.072-0.528,0.144-0.936,0.144c-0.492,0-0.888-0.168-1.14-0.444c-0.288-0.324-0.408-0.84-0.408-1.524v-3.168
				h-0.9v-0.804h0.9v-1.068L39.643,85.032z"/>
		</g>
		<g>
			<path d="M9.928,178.68c-0.06-1.128-0.132-2.496-0.132-3.492H9.772c-0.288,0.936-0.612,1.956-1.02,3.072l-1.428,3.924H6.532
				l-1.32-3.852c-0.384-1.152-0.696-2.184-0.924-3.144H4.264c-0.024,1.008-0.084,2.352-0.156,3.576l-0.216,3.468H2.896l0.564-8.088
				h1.332l1.38,3.912c0.336,0.996,0.6,1.884,0.816,2.724h0.024c0.216-0.816,0.504-1.704,0.864-2.724l1.44-3.912h1.332l0.504,8.088
				H10.12L9.928,178.68z"/>
			<path d="M13.383,175.356c-0.396,0-0.66-0.312-0.66-0.684S13,174,13.407,174c0.408,0,0.672,0.3,0.672,0.672
				s-0.264,0.684-0.684,0.684H13.383z M12.879,182.232v-5.808h1.056v5.808H12.879z"/>
			<path d="M16.179,176.424l0.828,1.236c0.216,0.336,0.396,0.624,0.588,0.948h0.036c0.192-0.336,0.384-0.636,0.588-0.948
				l0.804-1.236h1.152l-1.98,2.808l2.028,3h-1.2l-0.852-1.308c-0.228-0.336-0.42-0.66-0.624-1.008h-0.024
				c-0.192,0.348-0.396,0.66-0.612,1.008l-0.84,1.308h-1.164l2.064-2.964l-1.968-2.844H16.179z"/>
			<path d="M21.663,179.508c0.024,1.428,0.924,2.016,1.98,2.016c0.756,0,1.224-0.132,1.608-0.288l0.192,0.744
				c-0.372,0.168-1.02,0.372-1.944,0.372c-1.776,0-2.856-1.188-2.856-2.928c0-1.764,1.044-3.144,2.736-3.144
				c1.896,0,2.388,1.668,2.388,2.736c0,0.216-0.012,0.384-0.036,0.504L21.663,179.508z M24.747,178.752
				c0.012-0.66-0.276-1.716-1.452-1.716c-1.08,0-1.536,0.984-1.62,1.716H24.747z"/>
			<path d="M32.091,173.712v7.02c0,0.516,0.012,1.104,0.048,1.5h-0.948l-0.048-1.008h-0.024c-0.324,0.648-1.02,1.14-1.968,1.14
				c-1.404,0-2.496-1.188-2.496-2.952c-0.012-1.944,1.2-3.12,2.604-3.12c0.9,0,1.5,0.42,1.752,0.876h0.024v-3.456H32.091z
				 M31.035,178.788c0-0.144-0.012-0.312-0.048-0.456c-0.156-0.66-0.732-1.212-1.524-1.212c-1.092,0-1.74,0.96-1.74,2.232
				c0,1.188,0.588,2.16,1.716,2.16c0.708,0,1.356-0.48,1.548-1.26c0.036-0.144,0.048-0.288,0.048-0.456V178.788z"/>
		</g>
		<g>
			<path d="M343.507,39.45c-0.713,0-1.217-0.536-1.217-1.25s0.524-1.25,1.259-1.25s1.237,0.516,1.237,1.25
				c0,0.714-0.503,1.25-1.258,1.25H343.507z"/>
		</g>
	</g>
</svg>
