<?xml version="1.0" encoding="utf-8"?>
<!-- Generator: Adobe Illustrator 10.0, SVG Export Plug-In . SVG Version: 3.0.0 Build 76)  -->
<!DOCTYPE svg PUBLIC "-//W3C//DTD SVG 1.0//EN"    "http://www.w3.org/TR/2001/REC-SVG-20010904/DTD/svg10.dtd" [
	<!ENTITY ns_flows "http://ns.adobe.com/Flows/1.0/">
	<!ENTITY ns_extend "http://ns.adobe.com/Extensibility/1.0/">
	<!ENTITY ns_ai "http://ns.adobe.com/AdobeIllustrator/10.0/">
	<!ENTITY ns_svg "http://www.w3.org/2000/svg">
	<!ENTITY ns_xlink "http://www.w3.org/1999/xlink">
]>
<svg  xmlns:x="&ns_extend;" xmlns:i="&ns_ai;" xmlns:graph="&ns_graphs;"
	 xmlns="&ns_svg;" xmlns:xlink="&ns_xlink;" xmlns:a="http://ns.adobe.com/AdobeSVGViewerExtensions/3.0/" width="223" height="54"
	 viewBox="0.2 0.048 223 54" overflow="visible" enable-background="new 0.2 0.048 223 54" xml:space="preserve">
	<g id="Layer_1_2_">
		<g>
			<path fill="none" stroke="#000000" d="M0.06,15.213h222.191"/>
			<path fill="none" stroke="#000000" d="M0.06,29.325h222.191"/>
			<path fill="none" stroke="#000000" d="M0.17,36.448h222.192"/>
			<path fill="none" stroke="#000000" d="M0,43.832h222.191"/>
			<path fill="none" stroke="#000000" d="M0,22.467h222.191"/>
		</g>
		<path fill="none" stroke="#0A0A0A" d="M152.2,15.302v29.746"/>
		<g>
			<path d="M56.032,26.952c-1.68,0-2.352-1.32-3.552-1.32c-0.864,0-1.608,0.624-1.824,1.344c-0.216,0-0.504,0-0.456,0
				c-0.12-0.912,0.144-1.656,0.216-1.848c0.528-1.392,1.56-2.328,2.352-2.808c3.192-2.016,3.6-2.496,3.6-4.008
				c0.024-1.512-1.008-2.688-2.16-2.688c-0.336,0-1.752,0.576-1.8,1.2C52.36,17.28,53.68,17.4,54.016,18.6
				c0.288,0.912-0.432,2.088-1.584,2.088c-1.632,0-2.016-1.464-1.992-2.424c0.096-1.848,2.424-3.192,4.44-3.192
				c1.608,0,4.656,0.144,4.656,3.624c0,1.104-0.912,2.04-2.088,2.52c-0.936,0.384-4.68,1.464-4.92,2.232
				c1.992-0.888,4.416,0.576,4.656,0.576c0.864,0,1.368-0.528,1.656-1.344c0.264,0,0.144,0.12,0.432,0.12
				C58.936,24.672,58,26.952,56.032,26.952z"/>
		</g>
		<g>
			<path d="M58.192,39.688v1.584c0,0.96,1.128,0.936,1.128,0.936v0.624h-5.208v-0.624c0,0,1.176,0.048,1.152-0.888v-1.632h-4.44
				l-0.432-0.456c2.904-3.912,2.928-4.632,3.624-8.184h4.152c-0.984,1.824-4.296,5.256-6.624,7.968h3.72v-2.952l2.928-3.216v6.168
				h1.728v0.672H58.192z"/>
		</g>
		<g>
			<path d="M10.152,42.736C5.208,40.384,4.416,37.36,4.2,34.264c-0.24-3.36,1.896-6.768,3.888-8.664
				c1.152-1.08,2.4-2.136,3.888-3.264c-0.048-0.84-0.24-1.176-0.336-2.376c-0.024-0.504-0.336-2.856,0.168-5.568
				c0.312-1.608,2.328-5.4,3.72-5.424c1.08-0.024,2.736,4.296,2.784,6.456c0.072,3.336-0.72,4.848-1.704,6.576
				c-0.504,0.864-1.032,1.464-1.584,2.136c-0.576,0.696-1.224,1.104-1.824,1.632c0,0,0.768,4.344,0.792,4.656
				c1.536-0.192,3.408,0.36,4.08,0.84c1.704,1.272,2.352,3.024,2.472,4.728c0.216,2.712-1.272,5.568-4.56,6.936
				c0,0,0.504,3.456,0.624,4.176c0.264,1.896,0.216,3.096-0.192,3.864c-0.696,1.296-1.824,2.496-4.008,2.64
				c-1.68,0.096-4.992-0.744-5.16-3.384c-0.096-1.56,0.6-3.24,2.496-3.36c1.152-0.096,2.52,0.864,2.616,2.232
				c0.096,1.176-0.672,2.4-2.664,2.952c0.312,0.432,1.248,0.936,2.592,0.936c1.392,0,2.832-0.936,3.528-2.184
				c0.432-0.816,0.384-2.28,0.216-3.624c-0.072-0.456-0.648-4.08-0.648-4.08C13.608,43.384,11.16,43.216,10.152,42.736z
				 M10.632,37.048C10.68,38.2,11.64,39.544,12.528,40c-0.12,0.072-0.24,0.264-0.24,0.264c-0.984-0.48-1.824-1.272-2.04-1.56
				c-0.696-0.936-0.984-1.464-1.08-2.88c-0.096-1.32,0.624-3.096,2.232-4.344c0.84-0.624,1.248-0.768,1.968-0.936l-0.72-4.344
				c-0.744,0.432-3.816,2.904-5.112,4.92c-1.152,1.8-1.848,3.24-1.704,5.016c0.288,4.008,4.68,7.296,9.432,6.168
				c0,0-1.416-8.52-1.392-8.52C11.256,33.88,10.56,35.896,10.632,37.048z M12.576,21.832c2.088-1.632,4.92-4.704,4.752-7.08
				c-0.048-0.744-0.36-2.088-1.44-2.064C13.416,12.712,12.024,17.872,12.576,21.832z M15.84,42.112
				c2.76-0.936,2.88-3.312,2.784-4.728c-0.096-1.176-0.624-3.816-4.128-3.648L15.84,42.112z"/>
		</g>
		<g>
			<path d="M186.752,9.072c-1.464-5.352-5.472-5.952-7.56-5.952c-2.088,0-6.12,0.6-7.584,5.952c-0.096,0-0.384,0-0.36,0
				c0-4.056,3.576-9.072,7.944-9.072c4.368,0,7.944,5.016,7.944,9.072H186.752z M179.216,9.576c-0.984,0-1.752-0.768-1.752-1.752
				c0-0.96,0.768-1.752,1.752-1.752c0.96,0,1.752,0.792,1.752,1.752C180.968,8.808,180.176,9.576,179.216,9.576z"/>
		</g>
		<g>
			<path d="M94.763,33.88c0.984,0,1.776,0.36,2.232,0.912V15.568h0.456v20.4c0,0.336-0.048,0.672-0.168,1.056
				c-0.648,1.704-2.784,3.072-4.8,3.048c-2.016-0.024-3.144-1.44-2.52-3.144S92.747,33.856,94.763,33.88z"/>
		</g>
		<g>
			<path d="M174.44,43.664c0.456-1.248,1.488-2.256,2.256-2.64c0.768-0.36,1.752-0.552,2.88-0.456
				c0.576,0.048,1.584,0.216,2.16,0.816V22.16h0.456v20.496c0,0.096-0.024,0.168-0.024,0.24c-0.048,0.432-0.168,0.792-0.264,1.032
				c-0.456,1.248-1.44,2.088-2.184,2.52s-1.872,0.744-3.24,0.6c-0.528-0.072-1.68-0.168-2.16-1.032
				C173.936,45.368,174.271,44.144,174.44,43.664z M177.32,45.68c0.552-0.288,0.96-0.528,1.464-0.792
				c0.48-0.288,0.912-0.552,1.44-0.888c0.72-0.456,1.656-1.248,1.176-2.064c-0.48-0.816-1.656-0.408-2.4-0.048
				c-0.576,0.288-1.032,0.528-1.512,0.816c-0.48,0.264-0.912,0.504-1.416,0.84c-0.72,0.456-1.656,1.272-1.152,2.088
				C175.375,46.448,176.552,46.04,177.32,45.68z"/>
		</g>
		<g>
			<path d="M25.824,25.8c0,0.216,0,1.536,0,1.536c0.912-0.816,1.416-0.984,2.424-1.008c1.2-0.024,1.968,1.176,1.992,2.136
				c0.024,0.504-0.12,1.032-0.312,1.44c-0.216,0.528-0.792,0.936-1.176,1.32C28.32,31.656,25.2,33.792,25.2,33.84V19.656h0.624
				C25.824,19.656,25.848,22.632,25.824,25.8z M26.088,28.176c-0.312,0.6-0.264,1.632-0.264,2.376v2.064
				c0,0.024,0.864-0.72,1.344-1.176c0.432-0.408,0.768-0.864,0.936-1.584c0.192-0.72,0.12-1.488-0.336-1.992
				C27.456,27.504,26.592,27.216,26.088,28.176z"/>
		</g>
		<g>
			<g>
				<path d="M74.353,24.811c0,0.859-0.392,1.555-0.877,1.555c-0.482,0-0.876-0.696-0.876-1.555c0-0.858,0.394-1.555,0.876-1.555
					C73.961,23.256,74.353,23.953,74.353,24.811z"/>
				<g>
					<g>
						<path fill="none" d="M74.003,23.774c1.752,2.073,3.154,2.073,4.558-0.518"/>
						<path d="M73.625,24.095c0.703,0.807,1.59,1.694,2.74,1.664c1.249-0.034,2.055-1.247,2.602-2.218
							c0.312-0.553-0.498-1.127-0.813-0.569c-0.379,0.673-0.851,1.56-1.657,1.779c-0.831,0.226-1.654-0.768-2.116-1.297
							C73.961,22.972,73.204,23.612,73.625,24.095z"/>
					</g>
				</g>
				<g>
					<g>
						<path fill="none" d="M73.301,35.696c1.403-4.146,3.507-7.775,4.908-11.922"/>
						<path d="M73.766,35.869c1.43-4.061,3.481-7.861,4.908-11.922c0.213-0.604-0.718-0.948-0.93-0.345
							c-1.428,4.062-3.479,7.861-4.908,11.922C72.624,36.128,73.554,36.472,73.766,35.869z"/>
					</g>
				</g>
			</g>
			<path stroke="#000000" stroke-width="0.5" d="M74.353,24.811c0,0.915-0.66,1.656-1.477,1.656c-0.815,0-1.477-0.742-1.477-1.656
				s0.661-1.656,1.477-1.656C73.693,23.155,74.353,23.896,74.353,24.811z"/>
		</g>
		<g>
			<path d="M32.824,15.8c0,0.216,0,1.536,0,1.536c0.912-0.816,1.416-0.984,2.424-1.008c1.2-0.024,1.968,1.176,1.992,2.136
				c0.024,0.504-0.12,1.032-0.312,1.44c-0.216,0.528-0.792,0.936-1.176,1.32C35.32,21.656,32.2,23.792,32.2,23.84V9.656h0.624
				C32.824,9.656,32.848,12.632,32.824,15.8z M33.088,18.176c-0.312,0.6-0.264,1.632-0.264,2.376v2.064
				c0,0.024,0.864-0.72,1.344-1.176c0.432-0.408,0.768-0.864,0.936-1.584c0.192-0.72,0.12-1.488-0.336-1.992
				C34.456,17.504,33.592,17.216,33.088,18.176z"/>
		</g>
		<g>
			<path d="M39.824,28.8c0,0.216,0,1.536,0,1.536c0.912-0.816,1.416-0.984,2.424-1.008c1.2-0.024,1.968,1.176,1.992,2.136
				c0.024,0.504-0.12,1.032-0.312,1.44c-0.216,0.528-0.792,0.936-1.176,1.32C42.32,34.656,39.2,36.792,39.2,36.84V22.656h0.624
				C39.824,22.656,39.848,25.632,39.824,28.8z M40.088,31.176c-0.312,0.6-0.264,1.632-0.264,2.376v2.064
				c0,0.024,0.864-0.72,1.344-1.176c0.432-0.408,0.768-0.864,0.936-1.584c0.192-0.72,0.12-1.488-0.336-1.992
				C41.456,30.504,40.592,30.216,40.088,31.176z"/>
		</g>
		<g>
			<path d="M113.763,33.88c0.984,0,1.776,0.36,2.232,0.912V15.568h0.456v20.4c0,0.336-0.048,0.672-0.168,1.056
				c-0.648,1.704-2.784,3.072-4.8,3.048c-2.016-0.024-3.144-1.44-2.52-3.144S111.747,33.856,113.763,33.88z"/>
		</g>
		<g>
			<path d="M132.763,33.88c0.984,0,1.776,0.36,2.232,0.912V15.568h0.456v20.4c0,0.336-0.048,0.672-0.168,1.056
				c-0.648,1.704-2.784,3.072-4.8,3.048c-2.016-0.024-3.144-1.44-2.52-3.144S130.747,33.856,132.763,33.88z"/>
		</g>
		<path fill="none" stroke="#0A0A0A" d="M222.362,14.702v29.746"/>
		<path fill="none" stroke="#000000" stroke-width="2" d="M96.2,16.048h39"/>
	</g>
</svg>
