<?xml version="1.0" encoding="utf-8"?>
<!-- Generator: Adobe Illustrator 10.0, SVG Export Plug-In . SVG Version: 3.0.0 Build 76)  -->
<!DOCTYPE svg PUBLIC "-//W3C//DTD SVG 1.0//EN"    "http://www.w3.org/TR/2001/REC-SVG-20010904/DTD/svg10.dtd" [
	<!ENTITY ns_flows "http://ns.adobe.com/Flows/1.0/">
	<!ENTITY ns_extend "http://ns.adobe.com/Extensibility/1.0/">
	<!ENTITY ns_ai "http://ns.adobe.com/AdobeIllustrator/10.0/">
	<!ENTITY ns_svg "http://www.w3.org/2000/svg">
	<!ENTITY ns_xlink "http://www.w3.org/1999/xlink">
]>
<svg  xmlns:x="&ns_extend;" xmlns:i="&ns_ai;" xmlns:graph="&ns_graphs;"
	 xmlns="&ns_svg;" xmlns:xlink="&ns_xlink;" xmlns:a="http://ns.adobe.com/AdobeSVGViewerExtensions/3.0/" width="478" height="44"
	 viewBox="-0.496 0.307 478 44" overflow="visible" enable-background="new -0.496 0.307 478 44" xml:space="preserve">
	<g id="Layer_1_2_">
		<g>
			<path d="M436.905,12.865c2.664,0.024,5.184,1.032,5.376,3.264c0.144,1.632-2.016,3.12-4.68,3.12
				c-2.688-0.024-5.185-1.008-5.4-3.24C432.058,14.353,434.241,12.865,436.905,12.865z M437.553,18.697
				c1.152,0,1.896-1.104,1.776-1.992c-0.264-1.752-0.864-3.168-2.448-3.168c-1.151,0-1.823,1.128-1.68,2.016
				C435.465,17.305,435.969,18.697,437.553,18.697z"/>
		</g>
		<g>
			<path fill="none" stroke="#000000" d="M0.128,5.246h476.489"/>
			<path fill="none" stroke="#000000" d="M0.128,19.358h476.489"/>
			<path fill="none" stroke="#000000" d="M0.364,26.48h476.491"/>
			<path fill="none" stroke="#000000" d="M0,33.865h476.488"/>
			<path fill="none" stroke="#000000" d="M0,12.5h476.488"/>
		</g>
		<g>
			<path d="M30.232,16.705c0,0.96-1.2,1.8-1.848,1.8s-2.04-0.36-2.04-1.8c0-0.936,0.672-1.632,1.512-1.632
				c0.576,0,0.528-0.36,0.336-0.576c-0.528-0.552-1.488-0.96-2.664-0.624c-1.896,0.504-2.304,2.808-2.304,5.184
				c0,2.64,0.456,5.256,2.76,5.256c1.632,0,3.456-1.488,3.408-3.528h0.672c-0.024,0.624-0.432,1.92-0.84,2.424
				c-0.816,1.008-2.328,1.848-3.504,1.848c-3.168,0-5.424-2.856-5.424-6c0-3.072,2.112-5.904,5.184-5.904
				C28.072,13.152,30.232,14.376,30.232,16.705z"/>
		</g>
		<g>
			<path d="M426.233,26.336v-3.912h0.695v3.672l2.353-0.768v-3.504h0.696v3.288l0.936-0.312v2.496l-0.936,0.312v3.552l0.936-0.288
				v2.472l-0.936,0.312v3.912h-0.696v-3.696l-2.353,0.768v3.552h-0.695V34.88l-1.032,0.336V32.72l1.032-0.336v-3.576l-1.032,0.336
				v-2.472L426.233,26.336z M426.929,28.592v3.576l2.353-0.768v-3.576L426.929,28.592z"/>
		</g>
		<g>
			<path d="M7.152,33.768c-4.944-2.352-5.736-5.376-5.952-8.472c-0.24-3.36,1.896-6.768,3.888-8.664
				c1.152-1.08,2.4-2.136,3.888-3.264c-0.048-0.84-0.24-1.176-0.336-2.376c-0.024-0.504-0.336-2.856,0.168-5.568
				c0.312-1.608,2.328-5.4,3.72-5.424c1.08-0.024,2.736,4.296,2.784,6.456c0.072,3.336-0.72,4.848-1.704,6.576
				c-0.504,0.864-1.032,1.464-1.584,2.136C11.448,15.864,10.8,16.272,10.2,16.8c0,0,0.768,4.344,0.792,4.656
				c1.536-0.192,3.408,0.36,4.08,0.84c1.704,1.272,2.352,3.024,2.472,4.728c0.216,2.712-1.272,5.568-4.56,6.936
				c0,0,0.504,3.456,0.624,4.176c0.264,1.896,0.216,3.096-0.192,3.864c-0.696,1.296-1.824,2.496-4.008,2.64
				c-1.68,0.096-4.992-0.744-5.16-3.384c-0.096-1.56,0.6-3.24,2.496-3.36c1.152-0.096,2.52,0.864,2.616,2.232
				c0.096,1.176-0.672,2.4-2.664,2.952c0.312,0.432,1.248,0.936,2.592,0.936c1.392,0,2.832-0.936,3.528-2.184
				c0.432-0.816,0.384-2.28,0.216-3.624c-0.072-0.456-0.648-4.08-0.648-4.08C10.608,34.416,8.16,34.248,7.152,33.768z M7.632,28.08
				c0.048,1.152,1.008,2.496,1.896,2.952c-0.12,0.072-0.24,0.264-0.24,0.264c-0.984-0.48-1.824-1.272-2.04-1.56
				c-0.696-0.936-0.984-1.464-1.08-2.88c-0.096-1.32,0.624-3.096,2.232-4.344c0.84-0.624,1.248-0.768,1.968-0.936l-0.72-4.344
				c-0.744,0.432-3.816,2.904-5.112,4.92c-1.152,1.8-1.848,3.24-1.704,5.016c0.288,4.008,4.68,7.296,9.432,6.168
				c0,0-1.416-8.52-1.392-8.52C8.256,24.912,7.56,26.928,7.632,28.08z M9.576,12.864c2.088-1.632,4.92-4.704,4.752-7.08
				c-0.048-0.744-0.36-2.088-1.44-2.064C10.416,3.744,9.024,8.904,9.576,12.864z M12.84,33.144c2.76-0.936,2.88-3.312,2.784-4.728
				C15.528,27.24,15,24.6,11.496,24.768L12.84,33.144z"/>
		</g>
		<g>
			<path d="M51.904,26.864c2.664,0.024,5.184,1.032,5.376,3.264c0.144,1.632-2.016,3.12-4.68,3.12
				c-2.688-0.024-5.184-1.008-5.4-3.24C47.056,28.352,49.24,26.864,51.904,26.864z M52.552,32.696c1.152,0,1.896-1.104,1.776-1.992
				c-0.264-1.752-0.864-3.168-2.448-3.168c-1.152,0-1.824,1.128-1.68,2.016C50.464,31.304,50.968,32.696,52.552,32.696z"/>
		</g>
		<g>
			<path d="M224.824,29.832c0,0.216,0,1.536,0,1.536c0.912-0.816,1.416-0.984,2.424-1.008c1.2-0.024,1.968,1.176,1.992,2.136
				c0.024,0.504-0.12,1.032-0.312,1.44c-0.216,0.528-0.792,0.936-1.176,1.32c-0.432,0.432-3.552,2.568-3.552,2.616V23.688h0.624
				C224.824,23.688,224.848,26.664,224.824,29.832z M225.088,32.208c-0.312,0.6-0.264,1.632-0.264,2.376v2.064
				c0,0.024,0.864-0.72,1.344-1.176c0.432-0.408,0.768-0.864,0.936-1.584c0.192-0.72,0.12-1.488-0.336-1.992
				C226.456,31.536,225.592,31.248,225.088,32.208z"/>
		</g>
		<path fill="none" stroke="#0A0A0A" d="M476.527,4.338v29.746"/>
		<path fill="none" stroke="#0A0A0A" d="M206.525,4.338v29.746"/>
		<path fill="none" stroke="#0A0A0A" d="M270.527,4.338v29.746"/>
		<path fill="none" stroke="#0A0A0A" d="M335.527,4.338v29.746"/>
		<path fill="none" stroke="#0A0A0A" d="M143.525,4.338v29.746"/>
		<path fill="none" stroke="#0A0A0A" d="M83.525,4.338v29.746"/>
		<path fill="none" stroke="#0A0A0A" d="M406.527,5.338v29.746"/>
		<g>
			<path d="M110.904,15.865c2.664,0.024,5.184,1.032,5.376,3.264c0.144,1.632-2.016,3.12-4.68,3.12
				c-2.688-0.024-5.184-1.008-5.4-3.24C106.056,17.353,108.24,15.865,110.904,15.865z M111.552,21.697
				c1.152,0,1.896-1.104,1.776-1.992c-0.264-1.752-0.864-3.168-2.448-3.168c-1.152,0-1.824,1.128-1.68,2.016
				C109.464,20.305,109.968,21.697,111.552,21.697z"/>
		</g>
		<g>
			<path d="M169.904,33.864c2.664,0.024,5.184,1.032,5.376,3.264c0.144,1.632-2.016,3.12-4.68,3.12
				c-2.688-0.024-5.184-1.008-5.4-3.24C165.056,35.352,167.24,33.864,169.904,33.864z M170.552,39.696
				c1.152,0,1.896-1.104,1.776-1.992c-0.264-1.752-0.864-3.168-2.448-3.168c-1.152,0-1.824,1.128-1.68,2.016
				C168.464,38.304,168.968,39.696,170.552,39.696z"/>
		</g>
		<g>
			<path d="M234.905,29.864c2.664,0.024,5.184,1.032,5.376,3.264c0.144,1.632-2.016,3.12-4.68,3.12
				c-2.688-0.024-5.184-1.008-5.4-3.24C230.057,31.352,232.241,29.864,234.905,29.864z M235.553,35.696
				c1.152,0,1.896-1.104,1.776-1.992c-0.264-1.752-0.864-3.168-2.448-3.168c-1.152,0-1.824,1.128-1.68,2.016
				C233.465,34.304,233.969,35.696,235.553,35.696z"/>
		</g>
		<g>
			<path d="M297.905,33.864c2.664,0.024,5.184,1.032,5.376,3.264c0.144,1.632-2.016,3.12-4.68,3.12
				c-2.688-0.024-5.185-1.008-5.4-3.24C293.058,35.352,295.241,33.864,297.905,33.864z M298.553,39.696
				c1.152,0,1.896-1.104,1.776-1.992c-0.264-1.752-0.864-3.168-2.448-3.168c-1.151,0-1.823,1.128-1.68,2.016
				C296.465,38.304,296.969,39.696,298.553,39.696z"/>
		</g>
		<g>
			<path d="M367.905,22.864c2.664,0.024,5.184,1.032,5.376,3.264c0.144,1.632-2.016,3.12-4.68,3.12
				c-2.688-0.024-5.185-1.008-5.4-3.24C363.058,24.352,365.241,22.864,367.905,22.864z M368.553,28.696
				c1.152,0,1.896-1.104,1.776-1.992c-0.264-1.752-0.864-3.168-2.448-3.168c-1.151,0-1.823,1.128-1.68,2.016
				C366.465,27.304,366.969,28.696,368.553,28.696z"/>
		</g>
		<g>
			<path d="M436.905,26.864c2.664,0.024,5.184,1.032,5.376,3.264c0.144,1.632-2.016,3.12-4.68,3.12
				c-2.688-0.024-5.185-1.008-5.4-3.24C432.058,28.352,434.241,26.864,436.905,26.864z M437.553,32.696
				c1.152,0,1.896-1.104,1.776-1.992c-0.264-1.752-0.864-3.168-2.448-3.168c-1.151,0-1.823,1.128-1.68,2.016
				C435.465,31.304,435.969,32.696,437.553,32.696z"/>
		</g>
		<g>
			<path d="M218.45,22.775c0,0.216,0,1.536,0,1.536c0.912-0.816,1.416-0.984,2.424-1.008c1.2-0.024,1.968,1.176,1.992,2.136
				c0.024,0.504-0.12,1.032-0.312,1.44c-0.216,0.528-0.792,0.936-1.176,1.32c-0.432,0.432-3.552,2.568-3.552,2.616V16.631h0.624
				C218.45,16.631,218.474,19.607,218.45,22.775z M218.714,25.151c-0.312,0.6-0.264,1.632-0.264,2.376v2.064
				c0,0.024,0.864-0.72,1.344-1.176c0.432-0.408,0.768-0.864,0.936-1.584c0.192-0.72,0.12-1.488-0.336-1.992
				C220.082,24.479,219.218,24.191,218.714,25.151z"/>
		</g>
		<g>
			<path d="M51.904,18.864c2.664,0.024,5.184,1.032,5.376,3.264c0.144,1.632-2.016,3.12-4.68,3.12
				c-2.688-0.024-5.184-1.008-5.4-3.24C47.056,20.352,49.24,18.864,51.904,18.864z M52.552,24.696c1.152,0,1.896-1.104,1.776-1.992
				c-0.264-1.752-0.864-3.168-2.448-3.168c-1.152,0-1.824,1.128-1.68,2.016C50.464,23.304,50.968,24.696,52.552,24.696z"/>
		</g>
		<g>
			<path d="M51.904,12.865c2.664,0.024,5.184,1.032,5.376,3.264c0.144,1.632-2.016,3.12-4.68,3.12
				c-2.688-0.024-5.184-1.008-5.4-3.24C47.056,14.353,49.24,12.865,51.904,12.865z M52.552,18.697c1.152,0,1.896-1.104,1.776-1.992
				c-0.264-1.752-0.864-3.168-2.448-3.168c-1.152,0-1.824,1.128-1.68,2.016C50.464,17.305,50.968,18.697,52.552,18.697z"/>
		</g>
		<g>
			<path d="M110.904,8.865c2.664,0.024,5.184,1.032,5.376,3.264c0.144,1.632-2.016,3.12-4.68,3.12
				c-2.688-0.024-5.184-1.008-5.4-3.24C106.056,10.353,108.24,8.865,110.904,8.865z M111.552,14.697
				c1.152,0,1.896-1.104,1.776-1.992c-0.264-1.752-0.864-3.168-2.448-3.168c-1.152,0-1.824,1.128-1.68,2.016
				C109.464,13.305,109.968,14.697,111.552,14.697z"/>
		</g>
		<g>
			<path d="M110.904,1.865c2.664,0.024,5.184,1.032,5.376,3.264c0.144,1.632-2.016,3.12-4.68,3.12
				c-2.688-0.024-5.184-1.008-5.4-3.24C106.056,3.353,108.24,1.865,110.904,1.865z M111.552,7.697c1.152,0,1.896-1.104,1.776-1.992
				c-0.264-1.752-0.864-3.168-2.448-3.168c-1.152,0-1.824,1.128-1.68,2.016C109.464,6.305,109.968,7.697,111.552,7.697z"/>
		</g>
		<g>
			<path d="M169.904,26.864c2.664,0.024,5.184,1.032,5.376,3.264c0.144,1.632-2.016,3.12-4.68,3.12
				c-2.688-0.024-5.184-1.008-5.4-3.24C165.056,28.352,167.24,26.864,169.904,26.864z M170.552,32.696
				c1.152,0,1.896-1.104,1.776-1.992c-0.264-1.752-0.864-3.168-2.448-3.168c-1.152,0-1.824,1.128-1.68,2.016
				C168.464,31.304,168.968,32.696,170.552,32.696z"/>
		</g>
		<g>
			<path d="M169.904,19.864c2.664,0.024,5.184,1.032,5.376,3.264c0.144,1.632-2.016,3.12-4.68,3.12
				c-2.688-0.024-5.184-1.008-5.4-3.24C165.056,21.352,167.24,19.864,169.904,19.864z M170.552,25.696
				c1.152,0,1.896-1.104,1.776-1.992c-0.264-1.752-0.864-3.168-2.448-3.168c-1.152,0-1.824,1.128-1.68,2.016
				C168.464,24.304,168.968,25.696,170.552,25.696z"/>
		</g>
		<g>
			<path d="M234.905,22.864c2.664,0.024,5.184,1.032,5.376,3.264c0.144,1.632-2.016,3.12-4.68,3.12
				c-2.688-0.024-5.184-1.008-5.4-3.24C230.057,24.352,232.241,22.864,234.905,22.864z M235.553,28.696
				c1.152,0,1.896-1.104,1.776-1.992c-0.264-1.752-0.864-3.168-2.448-3.168c-1.152,0-1.824,1.128-1.68,2.016
				C233.465,27.304,233.969,28.696,235.553,28.696z"/>
		</g>
		<g>
			<path d="M234.905,15.865c2.664,0.024,5.184,1.032,5.376,3.264c0.144,1.632-2.016,3.12-4.68,3.12
				c-2.688-0.024-5.184-1.008-5.4-3.24C230.057,17.353,232.241,15.865,234.905,15.865z M235.553,21.697
				c1.152,0,1.896-1.104,1.776-1.992c-0.264-1.752-0.864-3.168-2.448-3.168c-1.152,0-1.824,1.128-1.68,2.016
				C233.465,20.305,233.969,21.697,235.553,21.697z"/>
		</g>
		<g>
			<path d="M297.905,26.864c2.664,0.024,5.184,1.032,5.376,3.264c0.144,1.632-2.016,3.12-4.68,3.12
				c-2.688-0.024-5.185-1.008-5.4-3.24C293.058,28.352,295.241,26.864,297.905,26.864z M298.553,32.696
				c1.152,0,1.896-1.104,1.776-1.992c-0.264-1.752-0.864-3.168-2.448-3.168c-1.151,0-1.823,1.128-1.68,2.016
				C296.465,31.304,296.969,32.696,298.553,32.696z"/>
		</g>
		<g>
			<path d="M297.905,18.864c2.664,0.024,5.184,1.032,5.376,3.264c0.144,1.632-2.016,3.12-4.68,3.12
				c-2.688-0.024-5.185-1.008-5.4-3.24C293.058,20.352,295.241,18.864,297.905,18.864z M298.553,24.696
				c1.152,0,1.896-1.104,1.776-1.992c-0.264-1.752-0.864-3.168-2.448-3.168c-1.151,0-1.823,1.128-1.68,2.016
				C296.465,23.304,296.969,24.696,298.553,24.696z"/>
		</g>
		<g>
			<path d="M367.905,15.865c2.664,0.024,5.184,1.032,5.376,3.264c0.144,1.632-2.016,3.12-4.68,3.12
				c-2.688-0.024-5.185-1.008-5.4-3.24C363.058,17.353,365.241,15.865,367.905,15.865z M368.553,21.697
				c1.152,0,1.896-1.104,1.776-1.992c-0.264-1.752-0.864-3.168-2.448-3.168c-1.151,0-1.823,1.128-1.68,2.016
				C366.465,20.305,366.969,21.697,368.553,21.697z"/>
		</g>
		<g>
			<path d="M367.905,8.865c2.664,0.024,5.184,1.032,5.376,3.264c0.144,1.632-2.016,3.12-4.68,3.12
				c-2.688-0.024-5.185-1.008-5.4-3.24C363.058,10.353,365.241,8.865,367.905,8.865z M368.553,14.697
				c1.152,0,1.896-1.104,1.776-1.992c-0.264-1.752-0.864-3.168-2.448-3.168c-1.151,0-1.823,1.128-1.68,2.016
				C366.465,13.305,366.969,14.697,368.553,14.697z"/>
		</g>
		<g>
			<path d="M436.905,19.864c2.664,0.024,5.184,1.032,5.376,3.264c0.144,1.632-2.016,3.12-4.68,3.12
				c-2.688-0.024-5.185-1.008-5.4-3.24C432.058,21.352,434.241,19.864,436.905,19.864z M437.553,25.696
				c1.152,0,1.896-1.104,1.776-1.992c-0.264-1.752-0.864-3.168-2.448-3.168c-1.151,0-1.823,1.128-1.68,2.016
				C435.465,24.304,435.969,25.696,437.553,25.696z"/>
		</g>
		<g>
			<path d="M37.825,18.832c0,0.216,0,1.536,0,1.536c0.912-0.816,1.416-0.984,2.424-1.008c1.2-0.024,1.968,1.176,1.992,2.136
				c0.024,0.504-0.12,1.032-0.312,1.44c-0.216,0.528-0.792,0.936-1.176,1.32c-0.432,0.432-3.552,2.568-3.552,2.616V12.688h0.624
				C37.825,12.688,37.849,15.664,37.825,18.832z M38.089,21.208c-0.312,0.6-0.264,1.632-0.264,2.376v2.064
				c0,0.024,0.864-0.72,1.344-1.176c0.432-0.408,0.768-0.864,0.936-1.584c0.192-0.72,0.12-1.488-0.336-1.992
				C39.457,20.536,38.593,20.248,38.089,21.208z"/>
		</g>
		<g>
			<path d="M354.978,15.002c0,0.216,0,1.536,0,1.536c0.912-0.816,1.416-0.984,2.424-1.008c1.2-0.024,1.968,1.176,1.992,2.136
				c0.024,0.504-0.12,1.032-0.312,1.44c-0.217,0.528-0.793,0.936-1.177,1.32c-0.432,0.432-3.552,2.568-3.552,2.616V8.858h0.624
				C354.978,8.858,355.002,11.834,354.978,15.002z M355.241,17.378c-0.312,0.6-0.264,1.632-0.264,2.376v2.064
				c0,0.024,0.864-0.72,1.344-1.176c0.433-0.408,0.769-0.864,0.937-1.584c0.191-0.72,0.12-1.488-0.336-1.992
				C356.609,16.706,355.745,16.418,355.241,17.378z"/>
		</g>
		<g>
			<path d="M287.823,33.832c0,0.216,0,1.536,0,1.536c0.912-0.816,1.416-0.984,2.425-1.008c1.199-0.024,1.968,1.176,1.991,2.136
				c0.024,0.504-0.119,1.032-0.312,1.44c-0.216,0.528-0.792,0.936-1.176,1.32c-0.433,0.432-3.552,2.568-3.552,2.616V27.688h0.624
				C287.823,27.688,287.848,30.664,287.823,33.832z M288.088,36.208c-0.313,0.6-0.265,1.632-0.265,2.376v2.064
				c0,0.024,0.864-0.72,1.345-1.176c0.432-0.408,0.768-0.864,0.936-1.584c0.192-0.72,0.12-1.488-0.336-1.992
				C289.456,35.536,288.592,35.248,288.088,36.208z"/>
		</g>
		<g>
			<path d="M281.45,26.775c0,0.216,0,1.536,0,1.536c0.912-0.816,1.416-0.984,2.424-1.008c1.2-0.024,1.968,1.176,1.992,2.136
				c0.024,0.504-0.12,1.032-0.312,1.44c-0.216,0.528-0.792,0.936-1.176,1.32c-0.432,0.432-3.552,2.568-3.552,2.616V20.631h0.624
				C281.45,20.631,281.474,23.607,281.45,26.775z M281.714,29.151c-0.312,0.6-0.264,1.632-0.264,2.376v2.064
				c0,0.024,0.864-0.72,1.344-1.176c0.432-0.408,0.768-0.864,0.936-1.584c0.192-0.72,0.12-1.488-0.336-1.992
				C283.082,28.479,282.218,28.191,281.714,29.151z"/>
		</g>
		<g>
			<path d="M358.825,9.002c0,0.216,0,1.536,0,1.536c0.912-0.816,1.416-0.984,2.424-1.008c1.2-0.024,1.968,1.176,1.992,2.136
				c0.024,0.504-0.12,1.032-0.312,1.44c-0.217,0.528-0.793,0.936-1.177,1.32c-0.432,0.432-3.552,2.568-3.552,2.616V2.858h0.624
				C358.825,2.858,358.85,5.834,358.825,9.002z M359.089,11.378c-0.312,0.6-0.264,1.632-0.264,2.376v2.064
				c0,0.024,0.864-0.72,1.344-1.176c0.433-0.408,0.769-0.864,0.937-1.584c0.191-0.72,0.12-1.488-0.336-1.992
				C360.457,10.706,359.593,10.418,359.089,11.378z"/>
		</g>
		<g>
			<path d="M41.825,10.832c0,0.216,0,1.536,0,1.536c0.912-0.816,1.416-0.984,2.424-1.008c1.2-0.024,1.968,1.176,1.992,2.136
				c0.024,0.504-0.12,1.032-0.312,1.44c-0.216,0.528-0.792,0.936-1.176,1.32c-0.432,0.432-3.552,2.568-3.552,2.616V4.688h0.624
				C41.825,4.688,41.849,7.664,41.825,10.832z M42.089,13.208c-0.312,0.6-0.264,1.632-0.264,2.376v2.064
				c0,0.024,0.864-0.72,1.344-1.176c0.432-0.408,0.768-0.864,0.936-1.584c0.192-0.72,0.12-1.488-0.336-1.992
				C43.457,12.536,42.593,12.248,42.089,13.208z"/>
		</g>
		<g>
			<path d="M159.825,18.832c0,0.216,0,1.536,0,1.536c0.912-0.816,1.416-0.984,2.424-1.008c1.2-0.024,1.968,1.176,1.992,2.136
				c0.024,0.504-0.12,1.032-0.312,1.44c-0.216,0.528-0.792,0.936-1.176,1.32c-0.432,0.432-3.552,2.568-3.552,2.616V12.688h0.624
				C159.825,12.688,159.849,15.664,159.825,18.832z M160.089,21.208c-0.312,0.6-0.264,1.632-0.264,2.376v2.064
				c0,0.024,0.864-0.72,1.344-1.176c0.432-0.408,0.768-0.864,0.936-1.584c0.192-0.72,0.12-1.488-0.336-1.992
				C161.457,20.536,160.593,20.248,160.089,21.208z"/>
		</g>
		<g>
			<g>
				<path d="M223.128,16.059c0,0.216,0,1.536,0,1.536c0.912-0.816,1.416-0.984,2.424-1.008c1.2-0.024,1.968,1.176,1.992,2.136
					c0.024,0.504-0.12,1.032-0.312,1.44c-0.216,0.528-0.792,0.936-1.176,1.32c-0.432,0.432-3.552,2.568-3.552,2.616V9.915h0.624
					C223.128,9.915,223.152,12.891,223.128,16.059z M223.392,18.435c-0.312,0.6-0.264,1.632-0.264,2.376v2.064
					c0,0.024,0.864-0.72,1.344-1.176c0.432-0.408,0.768-0.864,0.936-1.584c0.192-0.72,0.12-1.488-0.336-1.992
					C224.76,17.763,223.896,17.475,223.392,18.435z"/>
			</g>
			<g>
				<path d="M226.128,15.059c0,0.216,0,1.536,0,1.536c0.912-0.816,1.416-0.984,2.424-1.008c1.2-0.024,1.968,1.176,1.992,2.136
					c0.024,0.504-0.12,1.032-0.312,1.44c-0.216,0.528-0.792,0.936-1.176,1.32c-0.432,0.432-3.552,2.568-3.552,2.616V8.915h0.624
					C226.128,8.915,226.152,11.891,226.128,15.059z M226.392,17.435c-0.312,0.6-0.264,1.632-0.264,2.376v2.064
					c0,0.024,0.864-0.72,1.344-1.176c0.432-0.408,0.768-0.864,0.936-1.584c0.192-0.72,0.12-1.488-0.336-1.992
					C227.76,16.763,226.896,16.475,226.392,17.435z"/>
			</g>
		</g>
		<g>
			<g>
				<path d="M285.128,20.059c0,0.216,0,1.536,0,1.536c0.912-0.816,1.416-0.984,2.424-1.008c1.2-0.024,1.968,1.176,1.992,2.136
					c0.024,0.504-0.12,1.032-0.312,1.44c-0.217,0.528-0.793,0.936-1.177,1.32c-0.432,0.432-3.552,2.568-3.552,2.616V13.915h0.624
					C285.128,13.915,285.152,16.891,285.128,20.059z M285.392,22.435c-0.312,0.6-0.264,1.632-0.264,2.376v2.064
					c0,0.024,0.864-0.72,1.344-1.176c0.432-0.408,0.768-0.864,0.936-1.584c0.192-0.72,0.121-1.488-0.336-1.992
					C286.76,21.763,285.896,21.475,285.392,22.435z"/>
			</g>
			<g>
				<path d="M288.128,19.059c0,0.216,0,1.536,0,1.536c0.912-0.816,1.416-0.984,2.424-1.008c1.2-0.024,1.968,1.176,1.992,2.136
					c0.024,0.504-0.12,1.032-0.312,1.44c-0.217,0.528-0.793,0.936-1.177,1.32c-0.432,0.432-3.552,2.568-3.552,2.616V12.915h0.624
					C288.128,12.915,288.152,15.891,288.128,19.059z M288.392,21.435c-0.312,0.6-0.264,1.632-0.264,2.376v2.064
					c0,0.024,0.864-0.72,1.344-1.176c0.433-0.408,0.769-0.864,0.937-1.584c0.191-0.72,0.12-1.488-0.336-1.992
					C289.76,20.763,288.896,20.475,288.392,21.435z"/>
			</g>
		</g>
	</g>
</svg>
