<?xml version="1.0" encoding="utf-8"?>
<!-- Generator: Adobe Illustrator 10.0, SVG Export Plug-In . SVG Version: 3.0.0 Build 76)  -->
<!DOCTYPE svg PUBLIC "-//W3C//DTD SVG 1.0//EN"    "http://www.w3.org/TR/2001/REC-SVG-20010904/DTD/svg10.dtd" [
	<!ENTITY ns_flows "http://ns.adobe.com/Flows/1.0/">
	<!ENTITY ns_extend "http://ns.adobe.com/Extensibility/1.0/">
	<!ENTITY ns_ai "http://ns.adobe.com/AdobeIllustrator/10.0/">
	<!ENTITY ns_svg "http://www.w3.org/2000/svg">
	<!ENTITY ns_xlink "http://www.w3.org/1999/xlink">
]>
<svg  xmlns:x="&ns_extend;" xmlns:i="&ns_ai;" xmlns:graph="&ns_graphs;"
	 xmlns="&ns_svg;" xmlns:xlink="&ns_xlink;" xmlns:a="http://ns.adobe.com/AdobeSVGViewerExtensions/3.0/" width="477" height="48"
	 viewBox="0.089 -0.292 477 48" overflow="visible" enable-background="new 0.089 -0.292 477 48" xml:space="preserve">
	<g id="Layer_1_2_">
		<g>
			<path fill="none" stroke="#000000" d="M0.128,8.421h476.488"/>
			<path fill="none" stroke="#000000" d="M0.128,22.533h476.488"/>
			<path fill="none" stroke="#000000" d="M0.364,29.656h476.49"/>
			<path fill="none" stroke="#000000" d="M0,37.04h476.487"/>
			<path fill="none" stroke="#000000" d="M0,15.675h476.487"/>
		</g>
		<g>
			<path d="M30.232,19.88c0,0.96-1.2,1.8-1.848,1.8s-2.04-0.36-2.04-1.8c0-0.936,0.672-1.632,1.512-1.632
				c0.576,0,0.528-0.36,0.336-0.576c-0.528-0.552-1.488-0.96-2.664-0.624c-1.896,0.504-2.304,2.808-2.304,5.184
				c0,2.64,0.456,5.256,2.76,5.256c1.632,0,3.456-1.488,3.408-3.528h0.672c-0.024,0.624-0.432,1.92-0.84,2.424
				c-0.816,1.008-2.328,1.848-3.504,1.848c-3.168,0-5.424-2.856-5.424-6c0-3.072,2.112-5.904,5.184-5.904
				C28.072,16.328,30.232,17.552,30.232,19.88z"/>
		</g>
		<g>
			<path d="M423.232,28.512V24.6h0.695v3.672l2.353-0.768V24h0.696v3.288l0.936-0.312v2.496l-0.936,0.312v3.552l0.936-0.288v2.472
				l-0.936,0.312v3.912h-0.696v-3.696l-2.353,0.768v3.552h-0.695v-3.312l-1.032,0.336v-2.496l1.032-0.336v-3.576L422.2,31.32v-2.472
				L423.232,28.512z M423.928,30.768v3.576l2.353-0.768V30L423.928,30.768z"/>
		</g>
		<g>
			<path d="M7.152,36.944c-4.944-2.352-5.736-5.376-5.952-8.472c-0.24-3.36,1.896-6.768,3.888-8.664
				c1.152-1.08,2.4-2.136,3.888-3.264c-0.048-0.84-0.24-1.176-0.336-2.376C8.616,13.664,8.304,11.312,8.808,8.6
				c0.312-1.608,2.328-5.4,3.72-5.424c1.08-0.024,2.736,4.296,2.784,6.456c0.072,3.336-0.72,4.848-1.704,6.576
				c-0.504,0.864-1.032,1.464-1.584,2.136c-0.576,0.696-1.224,1.104-1.824,1.632c0,0,0.768,4.344,0.792,4.656
				c1.536-0.192,3.408,0.36,4.08,0.84c1.704,1.272,2.352,3.024,2.472,4.728c0.216,2.712-1.272,5.568-4.56,6.936
				c0,0,0.504,3.456,0.624,4.176c0.264,1.896,0.216,3.096-0.192,3.864c-0.696,1.296-1.824,2.496-4.008,2.64
				c-1.68,0.096-4.992-0.744-5.16-3.384c-0.096-1.56,0.6-3.24,2.496-3.36c1.152-0.096,2.52,0.864,2.616,2.232
				c0.096,1.176-0.672,2.4-2.664,2.952c0.312,0.432,1.248,0.936,2.592,0.936c1.392,0,2.832-0.936,3.528-2.184
				c0.432-0.816,0.384-2.28,0.216-3.624c-0.072-0.456-0.648-4.08-0.648-4.08C10.608,37.592,8.16,37.424,7.152,36.944z M7.632,31.256
				c0.048,1.152,1.008,2.496,1.896,2.952c-0.12,0.072-0.24,0.264-0.24,0.264c-0.984-0.48-1.824-1.272-2.04-1.56
				c-0.696-0.936-0.984-1.464-1.08-2.88c-0.096-1.32,0.624-3.096,2.232-4.344c0.84-0.624,1.248-0.768,1.968-0.936l-0.72-4.344
				c-0.744,0.432-3.816,2.904-5.112,4.92c-1.152,1.8-1.848,3.24-1.704,5.016c0.288,4.008,4.68,7.296,9.432,6.168
				c0,0-1.416-8.52-1.392-8.52C8.256,28.088,7.56,30.104,7.632,31.256z M9.576,16.04c2.088-1.632,4.92-4.704,4.752-7.08
				c-0.048-0.744-0.36-2.088-1.44-2.064C10.416,6.92,9.024,12.08,9.576,16.04z M12.84,36.32c2.76-0.936,2.88-3.312,2.784-4.728
				c-0.096-1.176-0.624-3.816-4.128-3.648L12.84,36.32z"/>
		</g>
		<g>
			<path d="M51.904,30.04c2.664,0.024,5.184,1.032,5.376,3.264c0.144,1.632-2.016,3.12-4.68,3.12c-2.688-0.024-5.184-1.008-5.4-3.24
				C47.056,31.528,49.24,30.04,51.904,30.04z M52.552,35.872c1.152,0,1.896-1.104,1.776-1.992c-0.264-1.752-0.864-3.168-2.448-3.168
				c-1.152,0-1.824,1.128-1.68,2.016C50.464,34.48,50.968,35.872,52.552,35.872z"/>
		</g>
		<g>
			<path d="M222.824,33.008c0,0.216,0,1.536,0,1.536c0.912-0.816,1.416-0.984,2.424-1.008c1.2-0.024,1.968,1.176,1.992,2.136
				c0.024,0.504-0.12,1.032-0.312,1.44c-0.216,0.528-0.792,0.936-1.176,1.32C225.32,38.864,222.2,41,222.2,41.048V26.864h0.624
				C222.824,26.864,222.848,29.84,222.824,33.008z M223.088,35.384c-0.312,0.6-0.264,1.632-0.264,2.376v2.064
				c0,0.024,0.864-0.72,1.344-1.176c0.432-0.408,0.768-0.864,0.936-1.584c0.192-0.72,0.12-1.488-0.336-1.992
				C224.456,34.712,223.592,34.424,223.088,35.384z"/>
		</g>
		<path fill="none" stroke="#0A0A0A" d="M476.526,7.513v29.746"/>
		<path fill="none" stroke="#0A0A0A" d="M206.525,7.513v29.746"/>
		<path fill="none" stroke="#0A0A0A" d="M270.526,7.513v29.746"/>
		<path fill="none" stroke="#0A0A0A" d="M335.526,7.513v29.746"/>
		<path fill="none" stroke="#0A0A0A" d="M143.525,7.513v29.746"/>
		<path fill="none" stroke="#0A0A0A" d="M83.525,7.513v29.746"/>
		<path fill="none" stroke="#0A0A0A" d="M406.526,8.513v29.746"/>
		<g>
			<path d="M110.904,19.04c2.664,0.024,5.184,1.032,5.376,3.264c0.144,1.632-2.016,3.12-4.68,3.12
				c-2.688-0.024-5.184-1.008-5.4-3.24C106.056,20.528,108.24,19.04,110.904,19.04z M111.552,24.872
				c1.152,0,1.896-1.104,1.776-1.992c-0.264-1.752-0.864-3.168-2.448-3.168c-1.152,0-1.824,1.128-1.68,2.016
				C109.464,23.48,109.968,24.872,111.552,24.872z"/>
		</g>
		<g>
			<path d="M169.904,37.04c2.664,0.024,5.184,1.032,5.376,3.264c0.144,1.632-2.016,3.12-4.68,3.12
				c-2.688-0.024-5.184-1.008-5.4-3.24C165.056,38.528,167.24,37.04,169.904,37.04z M170.552,42.872
				c1.152,0,1.896-1.104,1.776-1.992c-0.264-1.752-0.864-3.168-2.448-3.168c-1.152,0-1.824,1.128-1.68,2.016
				C168.464,41.48,168.968,42.872,170.552,42.872z"/>
		</g>
		<g>
			<path d="M234.904,33.04c2.664,0.024,5.184,1.032,5.376,3.264c0.144,1.632-2.016,3.12-4.68,3.12
				c-2.688-0.024-5.184-1.008-5.4-3.24C230.056,34.528,232.24,33.04,234.904,33.04z M235.552,38.872
				c1.152,0,1.896-1.104,1.776-1.992c-0.264-1.752-0.864-3.168-2.448-3.168c-1.152,0-1.824,1.128-1.68,2.016
				C233.464,37.48,233.968,38.872,235.552,38.872z"/>
		</g>
		<g>
			<path d="M297.904,37.04c2.664,0.024,5.184,1.032,5.376,3.264c0.144,1.632-2.016,3.12-4.68,3.12
				c-2.688-0.024-5.185-1.008-5.4-3.24C293.057,38.528,295.24,37.04,297.904,37.04z M298.552,42.872
				c1.152,0,1.896-1.104,1.776-1.992c-0.264-1.752-0.864-3.168-2.448-3.168c-1.151,0-1.823,1.128-1.68,2.016
				C296.464,41.48,296.968,42.872,298.552,42.872z"/>
		</g>
		<g>
			<path d="M367.904,26.04c2.664,0.024,5.184,1.032,5.376,3.264c0.144,1.632-2.016,3.12-4.68,3.12
				c-2.688-0.024-5.185-1.008-5.4-3.24C363.057,27.528,365.24,26.04,367.904,26.04z M368.552,31.872
				c1.152,0,1.896-1.104,1.776-1.992c-0.264-1.752-0.864-3.168-2.448-3.168c-1.151,0-1.823,1.128-1.68,2.016
				C366.464,30.48,366.968,31.872,368.552,31.872z"/>
		</g>
		<g>
			<path d="M436.904,30.04c2.664,0.024,5.184,1.032,5.376,3.264c0.144,1.632-2.016,3.12-4.68,3.12
				c-2.688-0.024-5.185-1.008-5.4-3.24C432.057,31.528,434.24,30.04,436.904,30.04z M437.552,35.872
				c1.152,0,1.896-1.104,1.776-1.992c-0.264-1.752-0.864-3.168-2.448-3.168c-1.151,0-1.823,1.128-1.68,2.016
				C435.464,34.48,435.968,35.872,437.552,35.872z"/>
		</g>
		<g>
			<path d="M286.449,36.95c0,0.216,0,1.536,0,1.536c0.912-0.816,1.416-0.984,2.424-1.008c1.2-0.024,1.968,1.176,1.992,2.136
				c0.024,0.504-0.12,1.032-0.312,1.44c-0.217,0.528-0.793,0.936-1.177,1.32c-0.432,0.432-3.552,2.568-3.552,2.616V30.806h0.624
				C286.449,30.806,286.474,33.782,286.449,36.95z M286.713,39.326c-0.312,0.6-0.264,1.632-0.264,2.376v2.064
				c0,0.024,0.864-0.72,1.344-1.176c0.433-0.408,0.769-0.864,0.937-1.584c0.191-0.72,0.12-1.488-0.336-1.992
				C288.081,38.654,287.217,38.366,286.713,39.326z"/>
		</g>
		<g>
			<path d="M51.904,22.04c2.664,0.024,5.184,1.032,5.376,3.264c0.144,1.632-2.016,3.12-4.68,3.12c-2.688-0.024-5.184-1.008-5.4-3.24
				C47.056,23.528,49.24,22.04,51.904,22.04z M52.552,27.872c1.152,0,1.896-1.104,1.776-1.992c-0.264-1.752-0.864-3.168-2.448-3.168
				c-1.152,0-1.824,1.128-1.68,2.016C50.464,26.48,50.968,27.872,52.552,27.872z"/>
		</g>
		<g>
			<path d="M51.904,16.04c2.664,0.024,5.184,1.032,5.376,3.264c0.144,1.632-2.016,3.12-4.68,3.12c-2.688-0.024-5.184-1.008-5.4-3.24
				C47.056,17.528,49.24,16.04,51.904,16.04z M52.552,21.872c1.152,0,1.896-1.104,1.776-1.992c-0.264-1.752-0.864-3.168-2.448-3.168
				c-1.152,0-1.824,1.128-1.68,2.016C50.464,20.48,50.968,21.872,52.552,21.872z"/>
		</g>
		<g>
			<path d="M110.904,12.04c2.664,0.024,5.184,1.032,5.376,3.264c0.144,1.632-2.016,3.12-4.68,3.12
				c-2.688-0.024-5.184-1.008-5.4-3.24C106.056,13.528,108.24,12.04,110.904,12.04z M111.552,17.872
				c1.152,0,1.896-1.104,1.776-1.992c-0.264-1.752-0.864-3.168-2.448-3.168c-1.152,0-1.824,1.128-1.68,2.016
				C109.464,16.48,109.968,17.872,111.552,17.872z"/>
		</g>
		<g>
			<path d="M110.904,5.04c2.664,0.024,5.184,1.032,5.376,3.264c0.144,1.632-2.016,3.12-4.68,3.12c-2.688-0.024-5.184-1.008-5.4-3.24
				C106.056,6.528,108.24,5.04,110.904,5.04z M111.552,10.872c1.152,0,1.896-1.104,1.776-1.992
				c-0.264-1.752-0.864-3.168-2.448-3.168c-1.152,0-1.824,1.128-1.68,2.016C109.464,9.48,109.968,10.872,111.552,10.872z"/>
		</g>
		<g>
			<path d="M169.904,30.04c2.664,0.024,5.184,1.032,5.376,3.264c0.144,1.632-2.016,3.12-4.68,3.12
				c-2.688-0.024-5.184-1.008-5.4-3.24C165.056,31.528,167.24,30.04,169.904,30.04z M170.552,35.872
				c1.152,0,1.896-1.104,1.776-1.992c-0.264-1.752-0.864-3.168-2.448-3.168c-1.152,0-1.824,1.128-1.68,2.016
				C168.464,34.48,168.968,35.872,170.552,35.872z"/>
		</g>
		<g>
			<path d="M169.904,22.04c2.664,0.024,5.184,1.032,5.376,3.264c0.144,1.632-2.016,3.12-4.68,3.12
				c-2.688-0.024-5.184-1.008-5.4-3.24C165.056,23.528,167.24,22.04,169.904,22.04z M170.552,27.872
				c1.152,0,1.896-1.104,1.776-1.992c-0.264-1.752-0.864-3.168-2.448-3.168c-1.152,0-1.824,1.128-1.68,2.016
				C168.464,26.48,168.968,27.872,170.552,27.872z"/>
		</g>
		<g>
			<path d="M234.904,26.04c2.664,0.024,5.184,1.032,5.376,3.264c0.144,1.632-2.016,3.12-4.68,3.12
				c-2.688-0.024-5.184-1.008-5.4-3.24C230.056,27.528,232.24,26.04,234.904,26.04z M235.552,31.872
				c1.152,0,1.896-1.104,1.776-1.992c-0.264-1.752-0.864-3.168-2.448-3.168c-1.152,0-1.824,1.128-1.68,2.016
				C233.464,30.48,233.968,31.872,235.552,31.872z"/>
		</g>
		<g>
			<path d="M234.904,19.04c2.664,0.024,5.184,1.032,5.376,3.264c0.144,1.632-2.016,3.12-4.68,3.12
				c-2.688-0.024-5.184-1.008-5.4-3.24C230.056,20.528,232.24,19.04,234.904,19.04z M235.552,24.872
				c1.152,0,1.896-1.104,1.776-1.992c-0.264-1.752-0.864-3.168-2.448-3.168c-1.152,0-1.824,1.128-1.68,2.016
				C233.464,23.48,233.968,24.872,235.552,24.872z"/>
		</g>
		<g>
			<path d="M297.904,30.04c2.664,0.024,5.184,1.032,5.376,3.264c0.144,1.632-2.016,3.12-4.68,3.12
				c-2.688-0.024-5.185-1.008-5.4-3.24C293.057,31.528,295.24,30.04,297.904,30.04z M298.552,35.872
				c1.152,0,1.896-1.104,1.776-1.992c-0.264-1.752-0.864-3.168-2.448-3.168c-1.151,0-1.823,1.128-1.68,2.016
				C296.464,34.48,296.968,35.872,298.552,35.872z"/>
		</g>
		<g>
			<path d="M297.904,22.04c2.664,0.024,5.184,1.032,5.376,3.264c0.144,1.632-2.016,3.12-4.68,3.12
				c-2.688-0.024-5.185-1.008-5.4-3.24C293.057,23.528,295.24,22.04,297.904,22.04z M298.552,27.872
				c1.152,0,1.896-1.104,1.776-1.992c-0.264-1.752-0.864-3.168-2.448-3.168c-1.151,0-1.823,1.128-1.68,2.016
				C296.464,26.48,296.968,27.872,298.552,27.872z"/>
		</g>
		<g>
			<path d="M367.904,19.04c2.664,0.024,5.184,1.032,5.376,3.264c0.144,1.632-2.016,3.12-4.68,3.12
				c-2.688-0.024-5.185-1.008-5.4-3.24C363.057,20.528,365.24,19.04,367.904,19.04z M368.552,24.872
				c1.152,0,1.896-1.104,1.776-1.992c-0.264-1.752-0.864-3.168-2.448-3.168c-1.151,0-1.823,1.128-1.68,2.016
				C366.464,23.48,366.968,24.872,368.552,24.872z"/>
		</g>
		<g>
			<path d="M367.904,12.04c2.664,0.024,5.184,1.032,5.376,3.264c0.144,1.632-2.016,3.12-4.68,3.12
				c-2.688-0.024-5.185-1.008-5.4-3.24C363.057,13.528,365.24,12.04,367.904,12.04z M368.552,17.872
				c1.152,0,1.896-1.104,1.776-1.992c-0.264-1.752-0.864-3.168-2.448-3.168c-1.151,0-1.823,1.128-1.68,2.016
				C366.464,16.48,366.968,17.872,368.552,17.872z"/>
		</g>
		<g>
			<path d="M436.904,22.04c2.664,0.024,5.184,1.032,5.376,3.264c0.144,1.632-2.016,3.12-4.68,3.12
				c-2.688-0.024-5.185-1.008-5.4-3.24C432.057,23.528,434.24,22.04,436.904,22.04z M437.552,27.872
				c1.152,0,1.896-1.104,1.776-1.992c-0.264-1.752-0.864-3.168-2.448-3.168c-1.151,0-1.823,1.128-1.68,2.016
				C435.464,26.48,435.968,27.872,437.552,27.872z"/>
		</g>
		<g>
			<path d="M436.904,16.04c2.664,0.024,5.184,1.032,5.376,3.264c0.144,1.632-2.016,3.12-4.68,3.12
				c-2.688-0.024-5.185-1.008-5.4-3.24C432.057,17.528,434.24,16.04,436.904,16.04z M437.552,21.872
				c1.152,0,1.896-1.104,1.776-1.992c-0.264-1.752-0.864-3.168-2.448-3.168c-1.151,0-1.823,1.128-1.68,2.016
				C435.464,20.48,435.968,21.872,437.552,21.872z"/>
		</g>
		<g>
			<path d="M223.824,18.008c0,0.216,0,1.536,0,1.536c0.912-0.816,1.416-0.984,2.424-1.008c1.2-0.024,1.968,1.176,1.992,2.136
				c0.024,0.504-0.12,1.032-0.312,1.44c-0.216,0.528-0.792,0.936-1.176,1.32C226.32,23.864,223.2,26,223.2,26.048V11.864h0.624
				C223.824,11.864,223.848,14.84,223.824,18.008z M224.088,20.384c-0.312,0.6-0.264,1.632-0.264,2.376v2.064
				c0,0.024,0.864-0.72,1.344-1.176c0.432-0.408,0.768-0.864,0.936-1.584c0.192-0.72,0.12-1.488-0.336-1.992
				C225.456,19.712,224.592,19.424,224.088,20.384z"/>
		</g>
		<g>
			<path d="M287.824,22.008c0,0.216,0,1.536,0,1.536c0.912-0.816,1.416-0.984,2.424-1.008c1.2-0.024,1.968,1.176,1.992,2.136
				c0.024,0.504-0.12,1.032-0.312,1.44c-0.217,0.528-0.793,0.936-1.177,1.32C290.32,27.864,287.2,30,287.2,30.048V15.864h0.624
				C287.824,15.864,287.849,18.84,287.824,22.008z M288.088,24.384c-0.312,0.6-0.264,1.632-0.264,2.376v2.064
				c0,0.024,0.864-0.72,1.344-1.176c0.433-0.408,0.769-0.864,0.937-1.584c0.191-0.72,0.12-1.488-0.336-1.992
				C289.456,23.712,288.592,23.424,288.088,24.384z"/>
		</g>
		<g>
			<path d="M95.232,4.512V0.6h0.696v3.672l2.352-0.768V0h0.696v3.288l0.936-0.312v2.496l-0.936,0.312v3.552l0.936-0.288v2.472
				l-0.936,0.312v3.912H98.28v-3.696l-2.352,0.768v3.552h-0.696v-3.312L94.2,13.392v-2.496l1.032-0.336V6.984L94.2,7.32V4.848
				L95.232,4.512z M95.928,6.768v3.576l2.352-0.768V6L95.928,6.768z"/>
		</g>
		<g>
			<path d="M101.232,11.512V7.6h0.696v3.672l2.352-0.768V7h0.696v3.288l0.936-0.312v2.496l-0.936,0.312v3.552l0.936-0.288v2.472
				l-0.936,0.312v3.912h-0.696v-3.696l-2.352,0.768v3.552h-0.696v-3.312l-1.032,0.336v-2.496l1.032-0.336v-3.576L100.2,14.32v-2.472
				L101.232,11.512z M101.928,13.768v3.576l2.352-0.768V13L101.928,13.768z"/>
		</g>
		<g>
			<path d="M158.232,29.512V25.6h0.696v3.672l2.352-0.768V25h0.696v3.288l0.936-0.312v2.496l-0.936,0.312v3.552l0.936-0.288v2.472
				l-0.936,0.312v3.912h-0.696v-3.696l-2.352,0.768v3.552h-0.696v-3.312l-1.032,0.336v-2.496l1.032-0.336v-3.576L157.2,32.32v-2.472
				L158.232,29.512z M158.928,31.768v3.576l2.352-0.768V31L158.928,31.768z"/>
		</g>
		<g>
			<path d="M417.232,22.512V18.6h0.695v3.672l2.353-0.768V18h0.696v3.288l0.936-0.312v2.496l-0.936,0.312v3.552l0.936-0.288v2.472
				l-0.936,0.312v3.912h-0.696v-3.696l-2.353,0.768v3.552h-0.695v-3.312l-1.032,0.336v-2.496l1.032-0.336v-3.576L416.2,25.32v-2.472
				L417.232,22.512z M417.928,24.768v3.576l2.353-0.768V24L417.928,24.768z"/>
		</g>
		<g>
			<path d="M427.232,15.512V11.6h0.695v3.672l2.353-0.768V11h0.696v3.288l0.936-0.312v2.496l-0.936,0.312v3.552l0.936-0.288v2.472
				l-0.936,0.312v3.912h-0.696v-3.696l-2.353,0.768v3.552h-0.695v-3.312l-1.032,0.336v-2.496l1.032-0.336v-3.576L426.2,18.32v-2.472
				L427.232,15.512z M427.928,17.768v3.576l2.353-0.768V17L427.928,17.768z"/>
		</g>
	</g>
</svg>
