<?xml version="1.0" encoding="utf-8"?>
<!-- Generator: Adobe Illustrator 10.0, SVG Export Plug-In . SVG Version: 3.0.0 Build 76)  -->
<!DOCTYPE svg PUBLIC "-//W3C//DTD SVG 1.0//EN"    "http://www.w3.org/TR/2001/REC-SVG-20010904/DTD/svg10.dtd" [
	<!ENTITY ns_flows "http://ns.adobe.com/Flows/1.0/">
	<!ENTITY ns_extend "http://ns.adobe.com/Extensibility/1.0/">
	<!ENTITY ns_ai "http://ns.adobe.com/AdobeIllustrator/10.0/">
	<!ENTITY ns_svg "http://www.w3.org/2000/svg">
	<!ENTITY ns_xlink "http://www.w3.org/1999/xlink">
]>
<svg  xmlns:x="&ns_extend;" xmlns:i="&ns_ai;" xmlns:graph="&ns_graphs;"
	 xmlns="&ns_svg;" xmlns:xlink="&ns_xlink;" xmlns:a="http://ns.adobe.com/AdobeSVGViewerExtensions/3.0/" width="372" height="178"
	 viewBox="0 0.482 372 178" overflow="visible" enable-background="new 0 0.482 372 178" xml:space="preserve">
	<g id="Layer_1_2_">
		<g>
			<path d="M228.703,4.512V0.6h0.696v3.672l2.352-0.768V0h0.696v3.288l0.936-0.312v2.496l-0.936,0.312v3.552l0.936-0.288v2.472
				l-0.936,0.312v3.912h-0.696v-3.696l-2.352,0.768v3.552h-0.696v-3.312l-1.032,0.336v-2.496l1.032-0.336V6.984L227.67,7.32V4.848
				L228.703,4.512z M229.398,6.768v3.576l2.352-0.768V6L229.398,6.768z"/>
		</g>
		<g>
			<path fill="none" stroke="#000000" d="M0.1,8.535h370.684"/>
			<path fill="none" stroke="#000000" d="M0.1,22.646h370.684"/>
			<path fill="none" stroke="#000000" d="M0.283,29.769h370.686"/>
			<path fill="none" stroke="#000000" d="M0,37.154h370.683"/>
			<path fill="none" stroke="#000000" d="M0,15.789h370.683"/>
		</g>
		<g>
			<path d="M30.232,19.993c0,0.96-1.2,1.8-1.848,1.8s-2.04-0.36-2.04-1.8c0-0.936,0.672-1.632,1.512-1.632
				c0.576,0,0.528-0.36,0.336-0.576c-0.528-0.552-1.488-0.96-2.664-0.624c-1.896,0.504-2.304,2.808-2.304,5.184
				c0,2.64,0.456,5.256,2.76,5.256c1.632,0,3.456-1.488,3.408-3.528h0.672c-0.024,0.624-0.432,1.92-0.84,2.424
				c-0.816,1.008-2.328,1.848-3.504,1.848c-3.168,0-5.424-2.856-5.424-6c0-3.072,2.112-5.904,5.184-5.904
				C28.072,16.441,30.232,17.665,30.232,19.993z"/>
		</g>
		<g>
			<path d="M7.152,37.057c-4.944-2.352-5.736-5.376-5.952-8.472c-0.24-3.36,1.896-6.768,3.888-8.664
				c1.152-1.08,2.4-2.136,3.888-3.264c-0.048-0.84-0.24-1.176-0.336-2.376c-0.024-0.504-0.336-2.856,0.168-5.568
				c0.312-1.608,2.328-5.4,3.72-5.424c1.08-0.024,2.736,4.296,2.784,6.456c0.072,3.336-0.72,4.848-1.704,6.576
				c-0.504,0.864-1.032,1.464-1.584,2.136c-0.576,0.696-1.224,1.104-1.824,1.632c0,0,0.768,4.344,0.792,4.656
				c1.536-0.192,3.408,0.36,4.08,0.84c1.704,1.272,2.352,3.024,2.472,4.728c0.216,2.712-1.272,5.568-4.56,6.936
				c0,0,0.504,3.456,0.624,4.176c0.264,1.896,0.216,3.096-0.192,3.864c-0.696,1.296-1.824,2.496-4.008,2.64
				c-1.68,0.096-4.992-0.744-5.16-3.384c-0.096-1.56,0.6-3.24,2.496-3.36c1.152-0.096,2.52,0.864,2.616,2.232
				c0.096,1.176-0.672,2.4-2.664,2.952c0.312,0.432,1.248,0.936,2.592,0.936c1.392,0,2.832-0.936,3.528-2.184
				c0.432-0.816,0.384-2.28,0.216-3.624c-0.072-0.456-0.648-4.08-0.648-4.08C10.608,37.705,8.16,37.537,7.152,37.057z M7.632,31.369
				c0.048,1.152,1.008,2.496,1.896,2.952c-0.12,0.072-0.24,0.264-0.24,0.264c-0.984-0.48-1.824-1.272-2.04-1.56
				c-0.696-0.936-0.984-1.464-1.08-2.88c-0.096-1.32,0.624-3.096,2.232-4.344c0.84-0.624,1.248-0.768,1.968-0.936l-0.72-4.344
				c-0.744,0.432-3.816,2.904-5.112,4.92c-1.152,1.8-1.848,3.24-1.704,5.016c0.288,4.008,4.68,7.296,9.432,6.168
				c0,0-1.416-8.52-1.392-8.52C8.256,28.201,7.56,30.217,7.632,31.369z M9.576,16.152c2.088-1.632,4.92-4.704,4.752-7.08
				c-0.048-0.744-0.36-2.088-1.44-2.064C10.416,7.033,9.024,12.192,9.576,16.152z M12.84,36.433c2.76-0.936,2.88-3.312,2.784-4.728
				c-0.096-1.176-0.624-3.816-4.128-3.648L12.84,36.433z"/>
		</g>
		<g>
			<path d="M70.904,34.153c2.664,0.024,5.184,1.032,5.376,3.264c0.144,1.632-2.016,3.12-4.68,3.12
				c-2.688-0.024-5.184-1.008-5.4-3.24C66.056,35.641,68.24,34.153,70.904,34.153z M71.552,39.985c1.152,0,1.896-1.104,1.776-1.992
				c-0.264-1.752-0.864-3.168-2.448-3.168c-1.152,0-1.824,1.128-1.68,2.016C69.464,38.593,69.968,39.985,71.552,39.985z"/>
		</g>
		<g>
			<path d="M61.624,132.234c0,0.216,0,1.536,0,1.536c0.912-0.816,1.416-0.984,2.424-1.008c1.2-0.024,1.968,1.176,1.992,2.136
				c0.024,0.504-0.12,1.032-0.312,1.44c-0.216,0.528-0.792,0.936-1.176,1.32C64.12,138.09,61,140.226,61,140.274V126.09h0.624
				C61.624,126.09,61.648,129.066,61.624,132.234z M61.888,134.61c-0.312,0.6-0.264,1.632-0.264,2.376v2.064
				c0,0.024,0.864-0.72,1.344-1.176c0.432-0.408,0.768-0.864,0.936-1.584c0.192-0.72,0.12-1.488-0.336-1.992
				C63.256,133.938,62.392,133.65,61.888,134.61z"/>
		</g>
		<path fill="none" stroke="#0A0A0A" d="M280.525,7.626v29.746"/>
		<path fill="none" stroke="#0A0A0A" d="M370.527,7.626v29.746"/>
		<path fill="none" stroke="#0A0A0A" d="M198.525,7.626v29.746"/>
		<path fill="none" stroke="#0A0A0A" d="M116.525,7.626v29.746"/>
		<g>
			<path d="M157.904,34.153c2.664,0.024,5.184,1.032,5.376,3.264c0.144,1.632-2.016,3.12-4.68,3.12
				c-2.688-0.024-5.184-1.008-5.4-3.24C153.056,35.641,155.24,34.153,157.904,34.153z M158.552,39.985
				c1.152,0,1.896-1.104,1.776-1.992c-0.264-1.752-0.864-3.168-2.448-3.168c-1.152,0-1.824,1.128-1.68,2.016
				C156.464,38.593,156.968,39.985,158.552,39.985z"/>
		</g>
		<g>
			<path d="M238.904,19.153c2.664,0.024,5.184,1.032,5.376,3.264c0.144,1.632-2.016,3.12-4.68,3.12
				c-2.688-0.024-5.184-1.008-5.4-3.24C234.056,20.641,236.24,19.153,238.904,19.153z M239.552,24.985
				c1.152,0,1.896-1.104,1.776-1.992c-0.264-1.752-0.864-3.168-2.448-3.168c-1.152,0-1.824,1.128-1.68,2.016
				C237.464,23.593,237.968,24.985,239.552,24.985z"/>
		</g>
		<g>
			<path d="M322.905,26.153c2.664,0.024,5.184,1.032,5.376,3.264c0.144,1.632-2.016,3.12-4.68,3.12
				c-2.688-0.024-5.185-1.008-5.4-3.24C318.058,27.641,320.241,26.153,322.905,26.153z M323.553,31.985
				c1.152,0,1.896-1.104,1.776-1.992c-0.264-1.752-0.864-3.168-2.448-3.168c-1.151,0-1.823,1.128-1.68,2.016
				C321.465,30.593,321.969,31.985,323.553,31.985z"/>
		</g>
		<g>
			<path d="M227.45,19.064c0,0.216,0,1.536,0,1.536c0.912-0.816,1.416-0.984,2.424-1.008c1.2-0.024,1.968,1.176,1.992,2.136
				c0.024,0.504-0.12,1.032-0.312,1.44c-0.216,0.528-0.792,0.936-1.176,1.32c-0.432,0.432-3.552,2.568-3.552,2.616V12.92h0.624
				C227.45,12.92,227.474,15.896,227.45,19.064z M227.714,21.44c-0.312,0.6-0.264,1.632-0.264,2.376v2.064
				c0,0.024,0.864-0.72,1.344-1.176c0.432-0.408,0.768-0.864,0.936-1.584c0.192-0.72,0.12-1.488-0.336-1.992
				C229.082,20.768,228.218,20.48,227.714,21.44z"/>
		</g>
		<g>
			<path d="M70.904,26.153c2.664,0.024,5.184,1.032,5.376,3.264c0.144,1.632-2.016,3.12-4.68,3.12
				c-2.688-0.024-5.184-1.008-5.4-3.24C66.056,27.641,68.24,26.153,70.904,26.153z M71.552,31.985c1.152,0,1.896-1.104,1.776-1.992
				c-0.264-1.752-0.864-3.168-2.448-3.168c-1.152,0-1.824,1.128-1.68,2.016C69.464,30.593,69.968,31.985,71.552,31.985z"/>
		</g>
		<g>
			<path d="M157.904,26.153c2.664,0.024,5.184,1.032,5.376,3.264c0.144,1.632-2.016,3.12-4.68,3.12
				c-2.688-0.024-5.184-1.008-5.4-3.24C153.056,27.641,155.24,26.153,157.904,26.153z M158.552,31.985
				c1.152,0,1.896-1.104,1.776-1.992c-0.264-1.752-0.864-3.168-2.448-3.168c-1.152,0-1.824,1.128-1.68,2.016
				C156.464,30.593,156.968,31.985,158.552,31.985z"/>
		</g>
		<g>
			<path d="M157.904,19.153c2.664,0.024,5.184,1.032,5.376,3.264c0.144,1.632-2.016,3.12-4.68,3.12
				c-2.688-0.024-5.184-1.008-5.4-3.24C153.056,20.641,155.24,19.153,157.904,19.153z M158.552,24.985
				c1.152,0,1.896-1.104,1.776-1.992c-0.264-1.752-0.864-3.168-2.448-3.168c-1.152,0-1.824,1.128-1.68,2.016
				C156.464,23.593,156.968,24.985,158.552,24.985z"/>
		</g>
		<g>
			<path d="M238.904,12.153c2.664,0.024,5.184,1.032,5.376,3.264c0.144,1.632-2.016,3.12-4.68,3.12
				c-2.688-0.024-5.184-1.008-5.4-3.24C234.056,13.641,236.24,12.153,238.904,12.153z M239.552,17.985
				c1.152,0,1.896-1.104,1.776-1.992c-0.264-1.752-0.864-3.168-2.448-3.168c-1.152,0-1.824,1.128-1.68,2.016
				C237.464,16.593,237.968,17.985,239.552,17.985z"/>
		</g>
		<g>
			<path d="M238.904,5.153c2.664,0.024,5.184,1.032,5.376,3.264c0.144,1.632-2.016,3.12-4.68,3.12
				c-2.688-0.024-5.184-1.008-5.4-3.24C234.056,6.641,236.24,5.153,238.904,5.153z M239.552,10.985c1.152,0,1.896-1.104,1.776-1.992
				c-0.264-1.752-0.864-3.168-2.448-3.168c-1.152,0-1.824,1.128-1.68,2.016C237.464,9.593,237.968,10.985,239.552,10.985z"/>
		</g>
		<g>
			<path d="M322.905,19.153c2.664,0.024,5.184,1.032,5.376,3.264c0.144,1.632-2.016,3.12-4.68,3.12
				c-2.688-0.024-5.185-1.008-5.4-3.24C318.058,20.641,320.241,19.153,322.905,19.153z M323.553,24.985
				c1.152,0,1.896-1.104,1.776-1.992c-0.264-1.752-0.864-3.168-2.448-3.168c-1.151,0-1.823,1.128-1.68,2.016
				C321.465,23.593,321.969,24.985,323.553,24.985z"/>
		</g>
		<g>
			<path d="M322.905,12.153c2.664,0.024,5.184,1.032,5.376,3.264c0.144,1.632-2.016,3.12-4.68,3.12
				c-2.688-0.024-5.185-1.008-5.4-3.24C318.058,13.641,320.241,12.153,322.905,12.153z M323.553,17.985
				c1.152,0,1.896-1.104,1.776-1.992c-0.264-1.752-0.864-3.168-2.448-3.168c-1.151,0-1.823,1.128-1.68,2.016
				C321.465,16.593,321.969,17.985,323.553,17.985z"/>
		</g>
		<g>
			<path d="M233.825,61.291c0,0.216,0,1.536,0,1.536c0.912-0.816,1.416-0.984,2.424-1.008c1.2-0.024,1.968,1.176,1.992,2.136
				c0.024,0.504-0.12,1.032-0.312,1.44c-0.216,0.528-0.792,0.936-1.176,1.32c-0.432,0.432-3.552,2.568-3.552,2.616V55.146h0.624
				C233.825,55.146,233.849,58.123,233.825,61.291z M234.089,63.667c-0.312,0.6-0.264,1.632-0.264,2.376v2.064
				c0,0.024,0.864-0.72,1.344-1.176c0.432-0.408,0.768-0.864,0.936-1.584c0.192-0.72,0.12-1.488-0.336-1.992
				C235.457,62.995,234.593,62.707,234.089,63.667z"/>
		</g>
		<g>
			<path d="M58.094,139.121c0,0.216,0,1.536,0,1.536c0.912-0.816,1.416-0.984,2.424-1.008c1.2-0.024,1.968,1.176,1.992,2.136
				c0.024,0.504-0.12,1.032-0.312,1.44c-0.216,0.528-0.792,0.936-1.176,1.32c-0.432,0.432-3.552,2.568-3.552,2.616v-14.184h0.624
				C58.094,132.977,58.118,135.953,58.094,139.121z M58.358,141.497c-0.312,0.6-0.264,1.632-0.264,2.376v2.064
				c0,0.024,0.864-0.72,1.344-1.176c0.432-0.408,0.768-0.864,0.936-1.584c0.192-0.72,0.12-1.488-0.336-1.992
				C59.726,140.825,58.862,140.537,58.358,141.497z"/>
		</g>
		<g>
			<path d="M60.232,25.625v-3.912h0.696v3.672l2.352-0.768v-3.504h0.696v3.288l0.936-0.312v2.496l-0.936,0.312v3.552l0.936-0.288
				v2.472l-0.936,0.312v3.912H63.28v-3.696l-2.352,0.768v3.552h-0.696v-3.312L59.2,34.505v-2.496l1.032-0.336v-3.576L59.2,28.433
				v-2.472L60.232,25.625z M60.928,27.881v3.576l2.352-0.768v-3.576L60.928,27.881z"/>
		</g>
		<g>
			<path d="M311.233,60.625v-3.912h0.695v3.672l2.353-0.768v-3.504h0.696V59.4l0.936-0.312v2.496l-0.936,0.312v3.552l0.936-0.288
				v2.472l-0.936,0.312v3.912h-0.696v-3.696l-2.353,0.768v3.552h-0.695v-3.312l-1.032,0.336v-2.496l1.032-0.336v-3.576l-1.032,0.336
				V60.96L311.233,60.625z M311.929,62.881v3.576l2.353-0.768v-3.576L311.929,62.881z"/>
		</g>
		<g>
			<path d="M147.232,25.625v-3.912h0.696v3.672l2.352-0.768v-3.504h0.696v3.288l0.936-0.312v2.496l-0.936,0.312v3.552l0.936-0.288
				v2.472l-0.936,0.312v3.912h-0.696v-3.696l-2.352,0.768v3.552h-0.696v-3.312l-1.032,0.336v-2.496l1.032-0.336v-3.576l-1.032,0.336
				v-2.472L147.232,25.625z M147.928,27.881v3.576l2.352-0.768v-3.576L147.928,27.881z"/>
		</g>
		<g>
			<path d="M141.233,18.625v-3.912h0.696v3.672l2.352-0.768v-3.504h0.696v3.288l0.936-0.312v2.496l-0.936,0.312v3.552l0.936-0.288
				v2.472l-0.936,0.312v3.912h-0.696v-3.696l-2.352,0.768v3.552h-0.696v-3.312l-1.032,0.336v-2.496l1.032-0.336v-3.576l-1.032,0.336
				v-2.472L141.233,18.625z M141.929,20.881v3.576l2.352-0.768v-3.576L141.929,20.881z"/>
		</g>
		<g>
			<path d="M43.451,72.266c-0.324,0.156-1.092,0.348-2.064,0.348c-2.796,0-4.236-1.752-4.236-4.068c0-2.76,1.968-4.284,4.416-4.284
				c0.948,0,1.668,0.192,1.992,0.36l-0.384,1.44c-0.36-0.156-0.876-0.3-1.536-0.3c-1.44,0-2.568,0.876-2.568,2.688
				c0,1.62,0.96,2.64,2.58,2.64c0.564,0,1.164-0.108,1.536-0.264L43.451,72.266z"/>
			<path d="M51.91,71.066c0,0.552,0.024,1.092,0.096,1.416h-1.644l-0.108-0.588h-0.036c-0.384,0.468-0.984,0.72-1.68,0.72
				c-1.188,0-1.896-0.864-1.896-1.8c0-1.524,1.368-2.244,3.444-2.244v-0.072c0-0.312-0.168-0.756-1.068-0.756
				c-0.6,0-1.236,0.204-1.62,0.432l-0.336-1.164c0.408-0.228,1.212-0.528,2.28-0.528c1.956,0,2.568,1.152,2.568,2.532V71.066z
				 M50.146,69.71c-0.96,0-1.704,0.228-1.704,0.924c0,0.468,0.312,0.696,0.72,0.696c0.444,0,0.828-0.3,0.948-0.672
				c0.024-0.096,0.036-0.204,0.036-0.312V69.71z"/>
			<path d="M58.895,70.598c0,0.768,0.024,1.392,0.048,1.884h-1.584l-0.084-0.828h-0.036c-0.228,0.36-0.78,0.96-1.836,0.96
				c-1.2,0-2.064-0.744-2.064-2.556v-3.444h1.824v3.156c0,0.852,0.276,1.368,0.924,1.368c0.504,0,0.804-0.348,0.912-0.636
				c0.048-0.108,0.072-0.24,0.072-0.396v-3.492h1.824V70.598z"/>
			<path d="M65.914,71.63c0,1.128-0.228,2.052-0.9,2.64c-0.636,0.552-1.512,0.72-2.376,0.72c-0.78,0-1.584-0.156-2.112-0.444
				l0.36-1.392c0.372,0.216,1.008,0.444,1.704,0.444c0.864,0,1.524-0.456,1.524-1.548v-0.372H64.09
				c-0.348,0.48-0.912,0.756-1.584,0.756c-1.452,0-2.484-1.176-2.484-2.856c0-1.896,1.212-3.096,2.664-3.096
				c0.804,0,1.308,0.348,1.608,0.828h0.024l0.06-0.696h1.584c-0.024,0.384-0.048,0.876-0.048,1.752V71.63z M64.09,69.002
				c0-0.108-0.012-0.228-0.036-0.336c-0.132-0.48-0.48-0.804-0.984-0.804c-0.672,0-1.2,0.6-1.2,1.668c0,0.876,0.432,1.56,1.188,1.56
				c0.48,0,0.852-0.312,0.972-0.732c0.048-0.144,0.06-0.336,0.06-0.492V69.002z"/>
			<path d="M67.378,68.486c0-0.732-0.024-1.344-0.048-1.872h1.548l0.072,0.804h0.036c0.252-0.384,0.78-0.936,1.776-0.936
				c0.768,0,1.356,0.396,1.608,1.008h0.024c0.228-0.312,0.48-0.552,0.768-0.72c0.324-0.18,0.684-0.288,1.116-0.288
				c1.128,0,1.98,0.792,1.98,2.544v3.456h-1.776v-3.18c0-0.852-0.276-1.344-0.864-1.344c-0.432,0-0.72,0.288-0.852,0.636
				c-0.036,0.132-0.06,0.312-0.06,0.456v3.432H70.93v-3.288c0-0.732-0.264-1.236-0.852-1.236c-0.468,0-0.744,0.36-0.852,0.648
				c-0.06,0.144-0.072,0.312-0.072,0.468v3.408h-1.776V68.486z"/>
			<path d="M79.102,70.118c0.06,0.768,0.804,1.128,1.656,1.128c0.624,0,1.128-0.084,1.62-0.252l0.24,1.236
				c-0.6,0.252-1.332,0.372-2.124,0.372c-1.992,0-3.132-1.152-3.132-3c0-1.488,0.936-3.132,2.964-3.132
				c1.896,0,2.616,1.476,2.616,2.928c0,0.312-0.036,0.588-0.06,0.732L79.102,70.118z M81.25,68.87c0-0.432-0.192-1.188-1.02-1.188
				c-0.78,0-1.092,0.708-1.14,1.188H81.25z"/>
			<path d="M84.034,68.486c0-0.732-0.024-1.344-0.048-1.872h1.584l0.084,0.816h0.036c0.24-0.384,0.828-0.948,1.812-0.948
				c1.2,0,2.1,0.804,2.1,2.532v3.468h-1.824V69.23c0-0.756-0.264-1.272-0.924-1.272c-0.504,0-0.804,0.348-0.936,0.684
				c-0.048,0.12-0.06,0.288-0.06,0.456v3.384h-1.824V68.486z"/>
			<path d="M93.034,65.018v1.596h1.308v1.344h-1.308v2.136c0,0.708,0.18,1.032,0.72,1.032c0.252,0,0.372-0.012,0.54-0.048
				l0.012,1.38c-0.228,0.084-0.672,0.156-1.176,0.156c-0.588,0-1.08-0.204-1.38-0.504c-0.336-0.348-0.504-0.912-0.504-1.74v-2.412
				h-0.78v-1.344h0.78V65.51L93.034,65.018z"/>
			<path d="M96.742,70.118c0.06,0.768,0.804,1.128,1.656,1.128c0.624,0,1.128-0.084,1.62-0.252l0.24,1.236
				c-0.6,0.252-1.332,0.372-2.124,0.372c-1.992,0-3.132-1.152-3.132-3c0-1.488,0.936-3.132,2.964-3.132
				c1.896,0,2.616,1.476,2.616,2.928c0,0.312-0.036,0.588-0.06,0.732L96.742,70.118z M98.89,68.87c0-0.432-0.192-1.188-1.02-1.188
				c-0.78,0-1.092,0.708-1.14,1.188H98.89z"/>
			<path d="M107.362,63.962v6.768c0,0.672,0.024,1.356,0.048,1.752h-1.62l-0.072-0.852h-0.036c-0.36,0.648-1.08,0.984-1.836,0.984
				c-1.392,0-2.508-1.188-2.508-3.012c-0.012-1.968,1.224-3.12,2.628-3.12c0.732,0,1.284,0.264,1.548,0.66h0.024v-3.18H107.362z
				 M105.538,69.11c0-0.108,0-0.228-0.024-0.336c-0.108-0.492-0.504-0.888-1.068-0.888c-0.84,0-1.26,0.744-1.26,1.668
				c0,0.984,0.492,1.608,1.248,1.608c0.528,0,0.96-0.36,1.068-0.876c0.024-0.12,0.036-0.264,0.036-0.408V69.11z"/>
			<path d="M145.209,69.062h-2.976v1.92h3.324v1.5h-5.148v-8.088h4.98v1.5h-3.156v1.68h2.976V69.062z"/>
			<path d="M154.053,71.066c0,0.552,0.024,1.092,0.096,1.416h-1.644l-0.108-0.588h-0.036c-0.384,0.468-0.984,0.72-1.68,0.72
				c-1.188,0-1.896-0.864-1.896-1.8c0-1.524,1.368-2.244,3.444-2.244v-0.072c0-0.312-0.168-0.756-1.068-0.756
				c-0.6,0-1.236,0.204-1.62,0.432l-0.336-1.164c0.408-0.228,1.212-0.528,2.28-0.528c1.956,0,2.568,1.152,2.568,2.532V71.066z
				 M152.289,69.71c-0.96,0-1.704,0.228-1.704,0.924c0,0.468,0.312,0.696,0.72,0.696c0.444,0,0.828-0.3,0.948-0.672
				c0.024-0.096,0.036-0.204,0.036-0.312V69.71z"/>
			<path d="M161.037,70.598c0,0.768,0.024,1.392,0.048,1.884h-1.584l-0.084-0.828h-0.036c-0.228,0.36-0.78,0.96-1.836,0.96
				c-1.2,0-2.064-0.744-2.064-2.556v-3.444h1.824v3.156c0,0.852,0.276,1.368,0.924,1.368c0.504,0,0.804-0.348,0.912-0.636
				c0.048-0.108,0.072-0.24,0.072-0.396v-3.492h1.824V70.598z"/>
			<path d="M168.057,71.63c0,1.128-0.228,2.052-0.9,2.64c-0.636,0.552-1.512,0.72-2.376,0.72c-0.78,0-1.584-0.156-2.112-0.444
				l0.36-1.392c0.372,0.216,1.008,0.444,1.704,0.444c0.864,0,1.524-0.456,1.524-1.548v-0.372h-0.024
				c-0.348,0.48-0.912,0.756-1.584,0.756c-1.452,0-2.484-1.176-2.484-2.856c0-1.896,1.212-3.096,2.664-3.096
				c0.804,0,1.308,0.348,1.608,0.828h0.024l0.06-0.696h1.584c-0.024,0.384-0.048,0.876-0.048,1.752V71.63z M166.233,69.002
				c0-0.108-0.012-0.228-0.036-0.336c-0.132-0.48-0.48-0.804-0.984-0.804c-0.672,0-1.2,0.6-1.2,1.668c0,0.876,0.432,1.56,1.188,1.56
				c0.48,0,0.852-0.312,0.972-0.732c0.048-0.144,0.06-0.336,0.06-0.492V69.002z"/>
			<path d="M170.097,72.614c-0.612,0-1.056-0.468-1.056-1.104c0-0.66,0.444-1.116,1.08-1.116c0.624,0,1.056,0.444,1.068,1.116
				c0,0.636-0.432,1.104-1.08,1.104H170.097z"/>
			<path d="M224.794,64.514c0.48-0.096,1.44-0.18,2.364-0.18c1.116,0,1.8,0.108,2.388,0.456c0.564,0.3,0.96,0.852,0.96,1.596
				c0,0.708-0.42,1.368-1.32,1.716v0.024c0.924,0.24,1.608,0.948,1.608,1.992c0,0.744-0.336,1.32-0.84,1.716
				c-0.588,0.468-1.572,0.732-3.18,0.732c-0.9,0-1.572-0.06-1.98-0.12V64.514z M226.606,67.598h0.6c0.972,0,1.476-0.396,1.476-0.996
				c0-0.612-0.468-0.936-1.296-0.936c-0.408,0-0.636,0.024-0.78,0.06V67.598z M226.606,71.186c0.18,0.036,0.396,0.036,0.708,0.036
				c0.828,0,1.56-0.324,1.56-1.176c0-0.816-0.732-1.14-1.644-1.14h-0.624V71.186z"/>
			<path d="M246.562,71.066c0,0.552,0.024,1.092,0.096,1.416h-1.644l-0.108-0.588h-0.036c-0.384,0.468-0.984,0.72-1.68,0.72
				c-1.188,0-1.896-0.864-1.896-1.8c0-1.524,1.368-2.244,3.444-2.244v-0.072c0-0.312-0.168-0.756-1.068-0.756
				c-0.6,0-1.236,0.204-1.62,0.432l-0.336-1.164c0.408-0.228,1.212-0.528,2.28-0.528c1.956,0,2.568,1.152,2.568,2.532V71.066z
				 M244.798,69.71c-0.96,0-1.704,0.228-1.704,0.924c0,0.468,0.312,0.696,0.72,0.696c0.444,0,0.828-0.3,0.948-0.672
				c0.024-0.096,0.036-0.204,0.036-0.312V69.71z"/>
			<path d="M253.546,70.598c0,0.768,0.024,1.392,0.048,1.884h-1.584l-0.084-0.828h-0.036c-0.228,0.36-0.78,0.96-1.836,0.96
				c-1.2,0-2.064-0.744-2.064-2.556v-3.444h1.824v3.156c0,0.852,0.276,1.368,0.924,1.368c0.504,0,0.804-0.348,0.912-0.636
				c0.048-0.108,0.072-0.24,0.072-0.396v-3.492h1.824V70.598z"/>
			<path d="M260.566,71.63c0,1.128-0.228,2.052-0.9,2.64c-0.636,0.552-1.512,0.72-2.376,0.72c-0.78,0-1.584-0.156-2.112-0.444
				l0.36-1.392c0.372,0.216,1.008,0.444,1.704,0.444c0.864,0,1.524-0.456,1.524-1.548v-0.372h-0.024
				c-0.348,0.48-0.912,0.756-1.584,0.756c-1.452,0-2.484-1.176-2.484-2.856c0-1.896,1.212-3.096,2.664-3.096
				c0.804,0,1.308,0.348,1.608,0.828h0.024l0.06-0.696h1.584c-0.024,0.384-0.048,0.876-0.048,1.752V71.63z M258.742,69.002
				c0-0.108-0.012-0.228-0.036-0.336c-0.132-0.48-0.48-0.804-0.984-0.804c-0.672,0-1.2,0.6-1.2,1.668c0,0.876,0.432,1.56,1.188,1.56
				c0.48,0,0.852-0.312,0.972-0.732c0.048-0.144,0.06-0.336,0.06-0.492V69.002z"/>
			<path d="M262.606,72.614c-0.612,0-1.056-0.468-1.056-1.104c0-0.66,0.444-1.116,1.08-1.116c0.624,0,1.056,0.444,1.068,1.116
				c0,0.636-0.432,1.104-1.08,1.104H262.606z"/>
			<path d="M308.398,72.11c-0.564,0.192-1.632,0.456-2.7,0.456c-1.476,0-2.544-0.372-3.288-1.08c-0.732-0.708-1.14-1.764-1.14-2.952
				c0.012-2.688,1.968-4.224,4.62-4.224c1.044,0,1.848,0.204,2.244,0.384l-0.385,1.476c-0.443-0.204-0.983-0.348-1.872-0.348
				c-1.523,0-2.688,0.864-2.688,2.616c0,1.68,1.056,2.652,2.556,2.652c0.408,0,0.744-0.048,0.888-0.108v-1.704h-1.247V67.85h3.012
				V72.11z"/>
			<path d="M324.346,71.066c0,0.552,0.024,1.092,0.097,1.416h-1.645l-0.108-0.588h-0.035c-0.385,0.468-0.984,0.72-1.681,0.72
				c-1.188,0-1.896-0.864-1.896-1.8c0-1.524,1.368-2.244,3.443-2.244v-0.072c0-0.312-0.168-0.756-1.067-0.756
				c-0.601,0-1.236,0.204-1.62,0.432l-0.336-1.164c0.408-0.228,1.212-0.528,2.28-0.528c1.956,0,2.567,1.152,2.567,2.532V71.066z
				 M322.582,69.71c-0.96,0-1.704,0.228-1.704,0.924c0,0.468,0.312,0.696,0.72,0.696c0.444,0,0.828-0.3,0.948-0.672
				c0.024-0.096,0.036-0.204,0.036-0.312V69.71z"/>
			<path d="M331.33,70.598c0,0.768,0.023,1.392,0.048,1.884h-1.584l-0.084-0.828h-0.036c-0.228,0.36-0.78,0.96-1.836,0.96
				c-1.2,0-2.064-0.744-2.064-2.556v-3.444h1.824v3.156c0,0.852,0.276,1.368,0.924,1.368c0.505,0,0.805-0.348,0.912-0.636
				c0.049-0.108,0.072-0.24,0.072-0.396v-3.492h1.824V70.598z"/>
			<path d="M338.35,71.63c0,1.128-0.228,2.052-0.899,2.64c-0.637,0.552-1.513,0.72-2.376,0.72c-0.78,0-1.584-0.156-2.112-0.444
				l0.36-1.392c0.371,0.216,1.008,0.444,1.703,0.444c0.864,0,1.524-0.456,1.524-1.548v-0.372h-0.024
				c-0.348,0.48-0.911,0.756-1.584,0.756c-1.451,0-2.483-1.176-2.483-2.856c0-1.896,1.212-3.096,2.664-3.096
				c0.804,0,1.308,0.348,1.607,0.828h0.024l0.06-0.696h1.584c-0.023,0.384-0.048,0.876-0.048,1.752V71.63z M336.525,69.002
				c0-0.108-0.012-0.228-0.035-0.336c-0.133-0.48-0.48-0.804-0.984-0.804c-0.672,0-1.2,0.6-1.2,1.668c0,0.876,0.433,1.56,1.188,1.56
				c0.479,0,0.852-0.312,0.972-0.732c0.048-0.144,0.06-0.336,0.06-0.492V69.002z"/>
			<path d="M340.39,72.614c-0.612,0-1.056-0.468-1.056-1.104c0-0.66,0.443-1.116,1.08-1.116c0.624,0,1.056,0.444,1.067,1.116
				c0,0.636-0.432,1.104-1.08,1.104H340.39z"/>
		</g>
		<g>
			<g>
				<path d="M71.109,40.77c2.664,0.024,5.184,1.032,5.376,3.264c0.144,1.632-2.016,3.12-4.68,3.12
					c-2.688-0.024-5.184-1.008-5.4-3.24C66.261,42.258,68.445,40.77,71.109,40.77z M71.757,46.602c1.152,0,1.896-1.104,1.776-1.992
					c-0.264-1.752-0.864-3.168-2.448-3.168c-1.152,0-1.824,1.128-1.68,2.016C69.669,45.21,70.173,46.602,71.757,46.602z"/>
			</g>
			<path fill="none" stroke="#000000" d="M64.397,44.482h14.667"/>
		</g>
		<g>
			<path d="M312.233,26.625v-3.912h0.695v3.672l2.353-0.768v-3.504h0.696v3.288l0.936-0.312v2.496l-0.936,0.312v3.552l0.936-0.288
				v2.472l-0.936,0.312v3.912h-0.696v-3.696l-2.353,0.768v3.552h-0.695v-3.312l-1.032,0.336v-2.496l1.032-0.336v-3.576l-1.032,0.336
				v-2.472L312.233,26.625z M312.929,28.881v3.576l2.353-0.768v-3.576L312.929,28.881z"/>
		</g>
		<g>
			<path d="M305.233,19.625v-3.912h0.695v3.672l2.353-0.768v-3.504h0.696v3.288l0.936-0.312v2.496l-0.936,0.312v3.552l0.936-0.288
				v2.472l-0.936,0.312v3.912h-0.696v-3.696l-2.353,0.768v3.552h-0.695v-3.312l-1.032,0.336v-2.496l1.032-0.336v-3.576l-1.032,0.336
				v-2.472L305.233,19.625z M305.929,21.881v3.576l2.353-0.768v-3.576L305.929,21.881z"/>
		</g>
		<g>
			<path stroke="#000000" d="M311.566,14.188h-1.127v-1.275h1.127V14.188z"/>
			<path stroke="#000000" d="M312.318,18.836h-1.879v-1.435h1.879V18.836z"/>
			<path stroke="#000000" d="M317.299,14.295h-1.795v-1.276h1.795V14.295z"/>
			<path stroke="#000000" d="M316.73,18.757h-1.795v-1.275h1.795V18.757z"/>
			<g>
				<g>
					<path fill="none" d="M312.506,13.657"/>
					<path d="M312.501,13.707c0.063,0,0.074-0.1,0.01-0.1C312.447,13.607,312.437,13.707,312.501,13.707z"/>
				</g>
			</g>
			<path fill="none" stroke="#000000" d="M311.566,12.913l5.164,4.569"/>
			<path fill="none" stroke="#000000" d="M316.4,14.083l-5.716,2.894"/>
		</g>
		<g>
			<path fill="none" stroke="#000000" d="M1.1,114.535h370.684"/>
			<path fill="none" stroke="#000000" d="M1.1,128.646h370.684"/>
			<path fill="none" stroke="#000000" d="M1.283,135.769h370.686"/>
			<path fill="none" stroke="#000000" d="M1,143.154h370.683"/>
			<path fill="none" stroke="#000000" d="M1,121.789h370.683"/>
		</g>
		<g>
			<path d="M31.232,125.993c0,0.96-1.2,1.8-1.848,1.8s-2.04-0.36-2.04-1.8c0-0.936,0.672-1.632,1.512-1.632
				c0.576,0,0.528-0.36,0.336-0.576c-0.528-0.552-1.488-0.96-2.664-0.624c-1.896,0.504-2.304,2.808-2.304,5.184
				c0,2.64,0.456,5.256,2.76,5.256c1.632,0,3.456-1.488,3.408-3.528h0.672c-0.024,0.624-0.432,1.92-0.84,2.424
				c-0.816,1.008-2.328,1.848-3.504,1.848c-3.168,0-5.424-2.856-5.424-6c0-3.072,2.112-5.904,5.184-5.904
				C29.072,122.441,31.232,123.665,31.232,125.993z"/>
		</g>
		<g>
			<path d="M8.152,143.057c-4.944-2.352-5.736-5.376-5.952-8.472c-0.24-3.36,1.896-6.768,3.888-8.664
				c1.152-1.08,2.4-2.136,3.888-3.264c-0.048-0.84-0.24-1.176-0.336-2.376c-0.024-0.504-0.336-2.856,0.168-5.568
				c0.312-1.608,2.328-5.4,3.72-5.424c1.08-0.024,2.736,4.296,2.784,6.456c0.072,3.336-0.72,4.848-1.704,6.576
				c-0.504,0.864-1.032,1.464-1.584,2.136c-0.576,0.696-1.224,1.104-1.824,1.632c0,0,0.768,4.344,0.792,4.656
				c1.536-0.192,3.408,0.36,4.08,0.84c1.704,1.272,2.352,3.024,2.472,4.728c0.216,2.712-1.272,5.568-4.56,6.936
				c0,0,0.504,3.456,0.624,4.176c0.264,1.896,0.216,3.096-0.192,3.864c-0.696,1.296-1.824,2.496-4.008,2.64
				c-1.68,0.096-4.992-0.744-5.16-3.384c-0.096-1.56,0.6-3.24,2.496-3.36c1.152-0.096,2.52,0.864,2.616,2.232
				c0.096,1.176-0.672,2.4-2.664,2.952c0.312,0.432,1.248,0.936,2.592,0.936c1.392,0,2.832-0.936,3.528-2.184
				c0.432-0.816,0.384-2.28,0.216-3.624c-0.072-0.456-0.648-4.08-0.648-4.08C11.608,143.705,9.16,143.537,8.152,143.057z
				 M8.632,137.369c0.048,1.152,1.008,2.496,1.896,2.952c-0.12,0.072-0.24,0.264-0.24,0.264c-0.984-0.48-1.824-1.272-2.04-1.56
				c-0.696-0.936-0.984-1.464-1.08-2.88c-0.096-1.32,0.624-3.096,2.232-4.344c0.84-0.624,1.248-0.768,1.968-0.936l-0.72-4.344
				c-0.744,0.432-3.816,2.904-5.112,4.92c-1.152,1.8-1.848,3.24-1.704,5.016c0.288,4.008,4.68,7.296,9.432,6.168
				c0,0-1.416-8.52-1.392-8.52C9.256,134.201,8.56,136.217,8.632,137.369z M10.576,122.152c2.088-1.632,4.92-4.704,4.752-7.08
				c-0.048-0.744-0.36-2.088-1.44-2.064C11.416,113.033,10.024,118.192,10.576,122.152z M13.84,142.433
				c2.76-0.936,2.88-3.312,2.784-4.728c-0.096-1.176-0.624-3.816-4.128-3.648L13.84,142.433z"/>
		</g>
		<g>
			<path d="M71.904,140.153c2.664,0.024,5.184,1.032,5.376,3.264c0.144,1.632-2.016,3.12-4.68,3.12
				c-2.688-0.024-5.184-1.008-5.4-3.24C67.056,141.641,69.24,140.153,71.904,140.153z M72.552,145.985
				c1.152,0,1.896-1.104,1.776-1.992c-0.264-1.752-0.864-3.168-2.448-3.168c-1.152,0-1.824,1.128-1.68,2.016
				C70.464,144.593,70.968,145.985,72.552,145.985z"/>
		</g>
		<path fill="none" stroke="#0A0A0A" d="M281.525,113.626v29.746"/>
		<path fill="none" stroke="#0A0A0A" d="M371.527,113.626v29.746"/>
		<path fill="none" stroke="#0A0A0A" d="M199.525,113.626v29.746"/>
		<path fill="none" stroke="#0A0A0A" d="M117.525,113.626v29.746"/>
		<g>
			<path d="M158.904,140.153c2.664,0.024,5.184,1.032,5.376,3.264c0.144,1.632-2.016,3.12-4.68,3.12
				c-2.688-0.024-5.184-1.008-5.4-3.24C154.056,141.641,156.24,140.153,158.904,140.153z M159.552,145.985
				c1.152,0,1.896-1.104,1.776-1.992c-0.264-1.752-0.864-3.168-2.448-3.168c-1.152,0-1.824,1.128-1.68,2.016
				C157.464,144.593,157.968,145.985,159.552,145.985z"/>
		</g>
		<g>
			<path d="M239.903,125.153c2.664,0.024,5.184,1.032,5.376,3.264c0.144,1.632-2.016,3.12-4.68,3.12
				c-2.688-0.024-5.184-1.008-5.4-3.24C235.055,126.641,237.239,125.153,239.903,125.153z M240.551,130.985
				c1.152,0,1.896-1.104,1.776-1.992c-0.264-1.752-0.864-3.168-2.448-3.168c-1.152,0-1.824,1.128-1.68,2.016
				C238.463,129.593,238.967,130.985,240.551,130.985z"/>
		</g>
		<g>
			<path d="M323.905,132.153c2.664,0.024,5.184,1.032,5.376,3.264c0.144,1.632-2.016,3.12-4.68,3.12
				c-2.688-0.024-5.185-1.008-5.4-3.24C319.058,133.641,321.241,132.153,323.905,132.153z M324.553,137.985
				c1.152,0,1.896-1.104,1.776-1.992c-0.264-1.752-0.864-3.168-2.448-3.168c-1.151,0-1.823,1.128-1.68,2.016
				C322.465,136.593,322.969,137.985,324.553,137.985z"/>
		</g>
		<g>
			<path d="M147.45,125.064c0,0.216,0,1.536,0,1.536c0.912-0.816,1.416-0.984,2.424-1.008c1.2-0.024,1.968,1.176,1.992,2.136
				c0.024,0.504-0.12,1.032-0.312,1.44c-0.216,0.528-0.792,0.936-1.176,1.32c-0.432,0.432-3.552,2.568-3.552,2.616V118.92h0.624
				C147.45,118.92,147.474,121.896,147.45,125.064z M147.714,127.44c-0.312,0.6-0.264,1.632-0.264,2.376v2.064
				c0,0.024,0.864-0.72,1.344-1.176c0.432-0.408,0.768-0.864,0.936-1.584c0.192-0.72,0.12-1.488-0.336-1.992
				C149.082,126.768,148.218,126.48,147.714,127.44z"/>
		</g>
		<g>
			<path d="M71.904,132.153c2.664,0.024,5.184,1.032,5.376,3.264c0.144,1.632-2.016,3.12-4.68,3.12
				c-2.688-0.024-5.184-1.008-5.4-3.24C67.056,133.641,69.24,132.153,71.904,132.153z M72.552,137.985
				c1.152,0,1.896-1.104,1.776-1.992c-0.264-1.752-0.864-3.168-2.448-3.168c-1.152,0-1.824,1.128-1.68,2.016
				C70.464,136.593,70.968,137.985,72.552,137.985z"/>
		</g>
		<g>
			<path d="M158.904,132.153c2.664,0.024,5.184,1.032,5.376,3.264c0.144,1.632-2.016,3.12-4.68,3.12
				c-2.688-0.024-5.184-1.008-5.4-3.24C154.056,133.641,156.24,132.153,158.904,132.153z M159.552,137.985
				c1.152,0,1.896-1.104,1.776-1.992c-0.264-1.752-0.864-3.168-2.448-3.168c-1.152,0-1.824,1.128-1.68,2.016
				C157.464,136.593,157.968,137.985,159.552,137.985z"/>
		</g>
		<g>
			<path d="M158.904,125.153c2.664,0.024,5.184,1.032,5.376,3.264c0.144,1.632-2.016,3.12-4.68,3.12
				c-2.688-0.024-5.184-1.008-5.4-3.24C154.056,126.641,156.24,125.153,158.904,125.153z M159.552,130.985
				c1.152,0,1.896-1.104,1.776-1.992c-0.264-1.752-0.864-3.168-2.448-3.168c-1.152,0-1.824,1.128-1.68,2.016
				C157.464,129.593,157.968,130.985,159.552,130.985z"/>
		</g>
		<g>
			<path d="M239.903,118.153c2.664,0.024,5.184,1.032,5.376,3.264c0.144,1.632-2.016,3.12-4.68,3.12
				c-2.688-0.024-5.184-1.008-5.4-3.24C235.055,119.641,237.239,118.153,239.903,118.153z M240.551,123.985
				c1.152,0,1.896-1.104,1.776-1.992c-0.264-1.752-0.864-3.168-2.448-3.168c-1.152,0-1.824,1.128-1.68,2.016
				C238.463,122.593,238.967,123.985,240.551,123.985z"/>
		</g>
		<g>
			<path d="M239.903,111.153c2.664,0.024,5.184,1.032,5.376,3.264c0.144,1.632-2.016,3.12-4.68,3.12
				c-2.688-0.024-5.184-1.008-5.4-3.24C235.055,112.641,237.239,111.153,239.903,111.153z M240.551,116.985
				c1.152,0,1.896-1.104,1.776-1.992c-0.264-1.752-0.864-3.168-2.448-3.168c-1.152,0-1.824,1.128-1.68,2.016
				C238.463,115.593,238.967,116.985,240.551,116.985z"/>
		</g>
		<g>
			<path d="M323.905,125.153c2.664,0.024,5.184,1.032,5.376,3.264c0.144,1.632-2.016,3.12-4.68,3.12
				c-2.688-0.024-5.185-1.008-5.4-3.24C319.058,126.641,321.241,125.153,323.905,125.153z M324.553,130.985
				c1.152,0,1.896-1.104,1.776-1.992c-0.264-1.752-0.864-3.168-2.448-3.168c-1.151,0-1.823,1.128-1.68,2.016
				C322.465,129.593,322.969,130.985,324.553,130.985z"/>
		</g>
		<g>
			<path d="M323.905,118.153c2.664,0.024,5.184,1.032,5.376,3.264c0.144,1.632-2.016,3.12-4.68,3.12
				c-2.688-0.024-5.185-1.008-5.4-3.24C319.058,119.641,321.241,118.153,323.905,118.153z M324.553,123.985
				c1.152,0,1.896-1.104,1.776-1.992c-0.264-1.752-0.864-3.168-2.448-3.168c-1.151,0-1.823,1.128-1.68,2.016
				C322.465,122.593,322.969,123.985,324.553,123.985z"/>
		</g>
		<g>
			<path d="M235.825,168.291c0,0.216,0,1.536,0,1.536c0.912-0.816,1.416-0.984,2.424-1.008c1.2-0.024,1.968,1.176,1.992,2.136
				c0.024,0.504-0.12,1.032-0.312,1.44c-0.216,0.528-0.792,0.936-1.176,1.32c-0.432,0.432-3.552,2.568-3.552,2.616v-14.184h0.624
				C235.825,162.146,235.849,165.123,235.825,168.291z M236.089,170.667c-0.312,0.6-0.264,1.632-0.264,2.376v2.064
				c0,0.024,0.864-0.72,1.344-1.176c0.432-0.408,0.768-0.864,0.936-1.584c0.192-0.72,0.12-1.488-0.336-1.992
				C237.457,169.995,236.593,169.707,236.089,170.667z"/>
		</g>
		<g>
			<path d="M313.233,165.625v-3.912h0.695v3.672l2.353-0.768v-3.504h0.696v3.288l0.936-0.312v2.496l-0.936,0.312v3.552l0.936-0.288
				v2.472l-0.936,0.312v3.912h-0.696v-3.696l-2.353,0.768v3.552h-0.695v-3.312l-1.032,0.336v-2.496l1.032-0.336v-3.576l-1.032,0.336
				v-2.472L313.233,165.625z M313.929,167.881v3.576l2.353-0.768v-3.576L313.929,167.881z"/>
		</g>
		<g>
			<path d="M45.451,178.266c-0.324,0.156-1.092,0.348-2.064,0.348c-2.796,0-4.236-1.752-4.236-4.068c0-2.76,1.968-4.284,4.416-4.284
				c0.948,0,1.668,0.192,1.992,0.36l-0.384,1.44c-0.36-0.156-0.876-0.3-1.536-0.3c-1.44,0-2.568,0.876-2.568,2.688
				c0,1.62,0.96,2.64,2.58,2.64c0.564,0,1.164-0.108,1.536-0.264L45.451,178.266z"/>
			<path d="M54.714,169.962v6.768c0,0.672,0.024,1.356,0.048,1.752h-1.62l-0.072-0.852h-0.036c-0.36,0.648-1.08,0.984-1.836,0.984
				c-1.392,0-2.508-1.188-2.508-3.012c-0.012-1.968,1.224-3.12,2.628-3.12c0.732,0,1.284,0.264,1.548,0.66h0.024v-3.18H54.714z
				 M52.89,175.11c0-0.108,0-0.228-0.024-0.336c-0.108-0.492-0.504-0.888-1.068-0.888c-0.84,0-1.26,0.744-1.26,1.668
				c0,0.984,0.492,1.608,1.248,1.608c0.528,0,0.96-0.36,1.068-0.876c0.024-0.12,0.036-0.264,0.036-0.408V175.11z"/>
			<path d="M57.078,171.846c-0.612,0-1.008-0.432-1.008-0.972c0-0.552,0.408-0.972,1.032-0.972s1.008,0.42,1.02,0.972
				c0,0.54-0.396,0.972-1.032,0.972H57.078z M56.178,178.482v-5.868h1.824v5.868H56.178z"/>
			<path d="M59.466,174.486c0-0.732-0.024-1.344-0.048-1.872h1.548l0.072,0.804h0.036c0.252-0.384,0.78-0.936,1.776-0.936
				c0.768,0,1.356,0.396,1.608,1.008h0.024c0.228-0.312,0.48-0.552,0.768-0.72c0.324-0.18,0.684-0.288,1.116-0.288
				c1.128,0,1.98,0.792,1.98,2.544v3.456H66.57v-3.18c0-0.852-0.276-1.344-0.864-1.344c-0.432,0-0.72,0.288-0.852,0.636
				c-0.036,0.132-0.06,0.312-0.06,0.456v3.432h-1.776v-3.288c0-0.732-0.264-1.236-0.852-1.236c-0.468,0-0.744,0.36-0.852,0.648
				c-0.06,0.144-0.072,0.312-0.072,0.468v3.408h-1.776V174.486z"/>
			<path d="M70.686,171.846c-0.612,0-1.008-0.432-1.008-0.972c0-0.552,0.408-0.972,1.032-0.972s1.008,0.42,1.02,0.972
				c0,0.54-0.396,0.972-1.032,0.972H70.686z M69.786,178.482v-5.868h1.824v5.868H69.786z"/>
			<path d="M73.074,174.486c0-0.732-0.024-1.344-0.048-1.872h1.584l0.084,0.816h0.036c0.24-0.384,0.828-0.948,1.812-0.948
				c1.2,0,2.1,0.804,2.1,2.532v3.468h-1.824v-3.252c0-0.756-0.264-1.272-0.924-1.272c-0.504,0-0.804,0.348-0.936,0.684
				c-0.048,0.12-0.06,0.288-0.06,0.456v3.384h-1.824V174.486z"/>
			<path d="M81.006,171.846c-0.612,0-1.008-0.432-1.008-0.972c0-0.552,0.408-0.972,1.032-0.972s1.008,0.42,1.02,0.972
				c0,0.54-0.396,0.972-1.032,0.972H81.006z M80.105,178.482v-5.868h1.824v5.868H80.105z"/>
			<path d="M83.381,176.898c0.336,0.204,1.032,0.432,1.572,0.432c0.552,0,0.78-0.18,0.78-0.48c0-0.312-0.18-0.456-0.852-0.684
				c-1.224-0.396-1.692-1.068-1.68-1.752c0-1.104,0.936-1.932,2.388-1.932c0.684,0,1.284,0.168,1.644,0.348l-0.312,1.248
				c-0.264-0.132-0.78-0.324-1.272-0.324c-0.444,0-0.696,0.18-0.696,0.468c0,0.288,0.228,0.432,0.948,0.684
				c1.116,0.372,1.572,0.948,1.584,1.8c0,1.104-0.852,1.908-2.532,1.908c-0.768,0-1.452-0.18-1.896-0.42L83.381,176.898z"/>
			<path d="M88.602,169.962h1.824v3.36h0.024c0.192-0.264,0.432-0.468,0.72-0.612c0.276-0.144,0.612-0.228,0.948-0.228
				c1.164,0,2.052,0.804,2.052,2.58v3.42h-1.824v-3.228c0-0.768-0.264-1.296-0.948-1.296c-0.48,0-0.78,0.312-0.912,0.648
				c-0.048,0.108-0.06,0.264-0.06,0.396v3.48h-1.824V169.962z"/>
			<path d="M97.038,176.118c0.06,0.768,0.804,1.128,1.656,1.128c0.624,0,1.128-0.084,1.62-0.252l0.24,1.236
				c-0.6,0.252-1.332,0.372-2.124,0.372c-1.992,0-3.132-1.152-3.132-3c0-1.488,0.936-3.132,2.964-3.132
				c1.896,0,2.616,1.476,2.616,2.928c0,0.312-0.036,0.588-0.06,0.732L97.038,176.118z M99.186,174.87
				c0-0.432-0.192-1.188-1.02-1.188c-0.78,0-1.092,0.708-1.14,1.188H99.186z"/>
			<path d="M107.657,169.962v6.768c0,0.672,0.024,1.356,0.048,1.752h-1.62l-0.072-0.852h-0.036c-0.36,0.648-1.08,0.984-1.836,0.984
				c-1.392,0-2.508-1.188-2.508-3.012c-0.012-1.968,1.224-3.12,2.628-3.12c0.732,0,1.284,0.264,1.548,0.66h0.024v-3.18H107.657z
				 M105.833,175.11c0-0.108,0-0.228-0.024-0.336c-0.108-0.492-0.504-0.888-1.068-0.888c-0.84,0-1.26,0.744-1.26,1.668
				c0,0.984,0.492,1.608,1.248,1.608c0.528,0,0.96-0.36,1.068-0.876c0.024-0.12,0.036-0.264,0.036-0.408V175.11z"/>
			<path d="M147.846,175.062h-2.976v1.92h3.324v1.5h-5.148v-8.088h4.98v1.5h-3.156v1.68h2.976V175.062z"/>
			<path d="M157.494,169.962v6.768c0,0.672,0.024,1.356,0.048,1.752h-1.62l-0.072-0.852h-0.036c-0.36,0.648-1.08,0.984-1.836,0.984
				c-1.392,0-2.508-1.188-2.508-3.012c-0.012-1.968,1.224-3.12,2.628-3.12c0.732,0,1.284,0.264,1.548,0.66h0.024v-3.18H157.494z
				 M155.67,175.11c0-0.108,0-0.228-0.024-0.336c-0.108-0.492-0.504-0.888-1.068-0.888c-0.84,0-1.26,0.744-1.26,1.668
				c0,0.984,0.492,1.608,1.248,1.608c0.528,0,0.96-0.36,1.068-0.876c0.024-0.12,0.036-0.264,0.036-0.408V175.11z"/>
			<path d="M159.857,171.846c-0.612,0-1.008-0.432-1.008-0.972c0-0.552,0.408-0.972,1.032-0.972s1.008,0.42,1.02,0.972
				c0,0.54-0.396,0.972-1.032,0.972H159.857z M158.958,178.482v-5.868h1.824v5.868H158.958z"/>
			<path d="M162.246,174.486c0-0.732-0.024-1.344-0.048-1.872h1.548l0.072,0.804h0.036c0.252-0.384,0.78-0.936,1.776-0.936
				c0.768,0,1.356,0.396,1.608,1.008h0.024c0.228-0.312,0.48-0.552,0.768-0.72c0.324-0.18,0.684-0.288,1.116-0.288
				c1.128,0,1.98,0.792,1.98,2.544v3.456h-1.776v-3.18c0-0.852-0.276-1.344-0.864-1.344c-0.432,0-0.72,0.288-0.852,0.636
				c-0.036,0.132-0.06,0.312-0.06,0.456v3.432h-1.776v-3.288c0-0.732-0.264-1.236-0.852-1.236c-0.468,0-0.744,0.36-0.852,0.648
				c-0.06,0.144-0.072,0.312-0.072,0.468v3.408h-1.776V174.486z"/>
			<path d="M173.489,178.614c-0.612,0-1.056-0.468-1.056-1.104c0-0.66,0.444-1.116,1.08-1.116c0.624,0,1.056,0.444,1.068,1.116
				c0,0.636-0.432,1.104-1.08,1.104H173.489z"/>
			<path d="M226.794,170.514c0.48-0.096,1.44-0.18,2.364-0.18c1.116,0,1.8,0.108,2.388,0.456c0.564,0.3,0.96,0.852,0.96,1.596
				c0,0.708-0.42,1.368-1.32,1.716v0.024c0.924,0.24,1.608,0.948,1.608,1.992c0,0.744-0.336,1.32-0.84,1.716
				c-0.588,0.468-1.572,0.732-3.18,0.732c-0.9,0-1.572-0.06-1.98-0.12V170.514z M228.606,173.598h0.6
				c0.972,0,1.476-0.396,1.476-0.996c0-0.612-0.468-0.936-1.296-0.936c-0.408,0-0.636,0.024-0.78,0.06V173.598z M228.606,177.186
				c0.18,0.036,0.396,0.036,0.708,0.036c0.828,0,1.56-0.324,1.56-1.176c0-0.816-0.732-1.14-1.644-1.14h-0.624V177.186z"/>
			<path d="M246.942,169.962v6.768c0,0.672,0.024,1.356,0.048,1.752h-1.62l-0.072-0.852h-0.036c-0.36,0.648-1.08,0.984-1.836,0.984
				c-1.392,0-2.508-1.188-2.508-3.012c-0.012-1.968,1.224-3.12,2.628-3.12c0.732,0,1.284,0.264,1.548,0.66h0.024v-3.18H246.942z
				 M245.118,175.11c0-0.108,0-0.228-0.024-0.336c-0.108-0.492-0.504-0.888-1.068-0.888c-0.84,0-1.26,0.744-1.26,1.668
				c0,0.984,0.492,1.608,1.248,1.608c0.528,0,0.96-0.36,1.068-0.876c0.024-0.12,0.036-0.264,0.036-0.408V175.11z"/>
			<path d="M249.306,171.846c-0.612,0-1.008-0.432-1.008-0.972c0-0.552,0.408-0.972,1.032-0.972s1.008,0.42,1.02,0.972
				c0,0.54-0.396,0.972-1.032,0.972H249.306z M248.406,178.482v-5.868h1.824v5.868H248.406z"/>
			<path d="M251.694,174.486c0-0.732-0.024-1.344-0.048-1.872h1.548l0.072,0.804h0.036c0.252-0.384,0.78-0.936,1.776-0.936
				c0.768,0,1.356,0.396,1.608,1.008h0.024c0.228-0.312,0.48-0.552,0.768-0.72c0.324-0.18,0.684-0.288,1.116-0.288
				c1.128,0,1.98,0.792,1.98,2.544v3.456h-1.776v-3.18c0-0.852-0.276-1.344-0.864-1.344c-0.432,0-0.72,0.288-0.852,0.636
				c-0.036,0.132-0.06,0.312-0.06,0.456v3.432h-1.776v-3.288c0-0.732-0.264-1.236-0.852-1.236c-0.468,0-0.744,0.36-0.852,0.648
				c-0.06,0.144-0.072,0.312-0.072,0.468v3.408h-1.776V174.486z"/>
			<path d="M262.938,178.614c-0.612,0-1.056-0.468-1.056-1.104c0-0.66,0.444-1.116,1.08-1.116c0.624,0,1.056,0.444,1.068,1.116
				c0,0.636-0.432,1.104-1.08,1.104H262.938z"/>
			<path d="M310.398,178.11c-0.564,0.192-1.632,0.456-2.7,0.456c-1.476,0-2.544-0.372-3.288-1.08
				c-0.732-0.708-1.14-1.764-1.14-2.952c0.012-2.688,1.968-4.224,4.62-4.224c1.044,0,1.848,0.204,2.244,0.384l-0.385,1.476
				c-0.443-0.204-0.983-0.348-1.872-0.348c-1.523,0-2.688,0.864-2.688,2.616c0,1.68,1.056,2.652,2.556,2.652
				c0.408,0,0.744-0.048,0.888-0.108v-1.704h-1.247v-1.428h3.012V178.11z"/>
			<path d="M327.15,169.962v6.768c0,0.672,0.023,1.356,0.048,1.752h-1.62l-0.072-0.852h-0.036c-0.359,0.648-1.08,0.984-1.836,0.984
				c-1.392,0-2.508-1.188-2.508-3.012c-0.012-1.968,1.224-3.12,2.628-3.12c0.732,0,1.284,0.264,1.548,0.66h0.024v-3.18H327.15z
				 M325.326,175.11c0-0.108,0-0.228-0.024-0.336c-0.107-0.492-0.504-0.888-1.067-0.888c-0.841,0-1.261,0.744-1.261,1.668
				c0,0.984,0.492,1.608,1.248,1.608c0.528,0,0.96-0.36,1.068-0.876c0.024-0.12,0.036-0.264,0.036-0.408V175.11z"/>
			<path d="M329.514,171.846c-0.611,0-1.008-0.432-1.008-0.972c0-0.552,0.408-0.972,1.032-0.972s1.008,0.42,1.02,0.972
				c0,0.54-0.396,0.972-1.032,0.972H329.514z M328.614,178.482v-5.868h1.823v5.868H328.614z"/>
			<path d="M331.901,174.486c0-0.732-0.023-1.344-0.048-1.872h1.548l0.072,0.804h0.036c0.252-0.384,0.78-0.936,1.776-0.936
				c0.768,0,1.355,0.396,1.607,1.008h0.024c0.228-0.312,0.479-0.552,0.768-0.72c0.324-0.18,0.685-0.288,1.116-0.288
				c1.128,0,1.979,0.792,1.979,2.544v3.456h-1.775v-3.18c0-0.852-0.276-1.344-0.864-1.344c-0.432,0-0.72,0.288-0.852,0.636
				c-0.036,0.132-0.061,0.312-0.061,0.456v3.432h-1.775v-3.288c0-0.732-0.265-1.236-0.853-1.236c-0.468,0-0.744,0.36-0.852,0.648
				c-0.061,0.144-0.072,0.312-0.072,0.468v3.408h-1.776V174.486z"/>
			<path d="M343.146,178.614c-0.612,0-1.056-0.468-1.056-1.104c0-0.66,0.443-1.116,1.08-1.116c0.624,0,1.056,0.444,1.067,1.116
				c0,0.636-0.432,1.104-1.08,1.104H343.146z"/>
		</g>
		<g>
			<g>
				<path d="M72.109,146.77c2.664,0.024,5.184,1.032,5.376,3.264c0.144,1.632-2.016,3.12-4.68,3.12
					c-2.688-0.024-5.184-1.008-5.4-3.24C67.261,148.258,69.445,146.77,72.109,146.77z M72.757,152.602
					c1.152,0,1.896-1.104,1.776-1.992c-0.264-1.752-0.864-3.168-2.448-3.168c-1.152,0-1.824,1.128-1.68,2.016
					C70.669,151.21,71.173,152.602,72.757,152.602z"/>
			</g>
			<path fill="none" stroke="#000000" d="M65.397,150.482h14.667"/>
		</g>
		<g>
			<path d="M312.233,132.625v-3.912h0.695v3.672l2.353-0.768v-3.504h0.696v3.288l0.936-0.312v2.496l-0.936,0.312v3.552l0.936-0.288
				v2.472l-0.936,0.312v3.912h-0.696v-3.696l-2.353,0.768v3.552h-0.695v-3.312l-1.032,0.336v-2.496l1.032-0.336v-3.576l-1.032,0.336
				v-2.472L312.233,132.625z M312.929,134.881v3.576l2.353-0.768v-3.576L312.929,134.881z"/>
		</g>
		<g>
			<path d="M224.624,125.234c0,0.216,0,1.536,0,1.536c0.912-0.816,1.416-0.984,2.424-1.008c1.2-0.024,1.968,1.176,1.992,2.136
				c0.024,0.504-0.12,1.032-0.312,1.44c-0.216,0.528-0.792,0.936-1.176,1.32c-0.432,0.432-3.552,2.568-3.552,2.616V119.09h0.624
				C224.624,119.09,224.648,122.066,224.624,125.234z M224.888,127.61c-0.312,0.6-0.264,1.632-0.264,2.376v2.064
				c0,0.024,0.864-0.72,1.344-1.176c0.432-0.408,0.768-0.864,0.936-1.584c0.192-0.72,0.12-1.488-0.336-1.992
				C226.256,126.938,225.392,126.65,224.888,127.61z"/>
		</g>
		<g>
			<path d="M230.45,118.064c0,0.216,0,1.536,0,1.536c0.912-0.816,1.416-0.984,2.424-1.008c1.2-0.024,1.968,1.176,1.992,2.136
				c0.024,0.504-0.12,1.032-0.312,1.44c-0.216,0.528-0.792,0.936-1.176,1.32c-0.432,0.432-3.552,2.568-3.552,2.616V111.92h0.624
				C230.45,111.92,230.474,114.896,230.45,118.064z M230.714,120.44c-0.312,0.6-0.264,1.632-0.264,2.376v2.064
				c0,0.024,0.864-0.72,1.344-1.176c0.432-0.408,0.768-0.864,0.936-1.584c0.192-0.72,0.12-1.488-0.336-1.992
				C232.082,119.768,231.218,119.48,230.714,120.44z"/>
		</g>
		<g>
			<path d="M225.45,110.064c0,0.216,0,1.536,0,1.536c0.912-0.816,1.416-0.984,2.424-1.008c1.2-0.024,1.968,1.176,1.992,2.136
				c0.024,0.504-0.12,1.032-0.312,1.44c-0.216,0.528-0.792,0.936-1.176,1.32c-0.432,0.432-3.552,2.568-3.552,2.616V103.92h0.624
				C225.45,103.92,225.474,106.896,225.45,110.064z M225.714,112.44c-0.312,0.6-0.264,1.632-0.264,2.376v2.064
				c0,0.024,0.864-0.72,1.344-1.176c0.432-0.408,0.768-0.864,0.936-1.584c0.192-0.72,0.12-1.488-0.336-1.992
				C227.082,111.768,226.218,111.48,225.714,112.44z"/>
		</g>
	</g>
</svg>
