<?xml version="1.0" encoding="utf-8"?>
<!-- Generator: Adobe Illustrator 10.0, SVG Export Plug-In . SVG Version: 3.0.0 Build 76)  -->
<!DOCTYPE svg PUBLIC "-//W3C//DTD SVG 1.0//EN"    "http://www.w3.org/TR/2001/REC-SVG-20010904/DTD/svg10.dtd" [
	<!ENTITY ns_flows "http://ns.adobe.com/Flows/1.0/">
	<!ENTITY ns_extend "http://ns.adobe.com/Extensibility/1.0/">
	<!ENTITY ns_ai "http://ns.adobe.com/AdobeIllustrator/10.0/">
	<!ENTITY ns_svg "http://www.w3.org/2000/svg">
	<!ENTITY ns_xlink "http://www.w3.org/1999/xlink">
]>
<svg  xmlns:x="&ns_extend;" xmlns:i="&ns_ai;" xmlns:graph="&ns_graphs;"
	 xmlns="&ns_svg;" xmlns:xlink="&ns_xlink;" xmlns:a="http://ns.adobe.com/AdobeSVGViewerExtensions/3.0/" width="438" height="45"
	 viewBox="0.483 -0.392 438 45" overflow="visible" enable-background="new 0.483 -0.392 438 45" xml:space="preserve">
	<g id="Layer_1_2_">
		<g>
			<path fill="none" stroke="#000000" d="M0.117,5.246h436.371"/>
			<path fill="none" stroke="#000000" d="M0.117,19.357h436.371"/>
			<path fill="none" stroke="#000000" d="M0.333,26.48h436.372"/>
			<path fill="none" stroke="#000000" d="M0,33.863h436.371"/>
			<path fill="none" stroke="#000000" d="M0,12.5h436.371"/>
		</g>
		<path fill="none" stroke="#0A0A0A" d="M325.604,4.118v29.746"/>
		<g>
			<path d="M34.232,16.704c0,0.96-1.2,1.8-1.848,1.8s-2.04-0.36-2.04-1.8c0-0.936,0.672-1.632,1.512-1.632
				c0.576,0,0.528-0.36,0.336-0.576c-0.528-0.552-1.488-0.96-2.664-0.624c-1.896,0.504-2.304,2.808-2.304,5.184
				c0,2.64,0.456,5.256,2.76,5.256c1.632,0,3.456-1.488,3.408-3.528h0.672c-0.024,0.624-0.432,1.92-0.84,2.424
				c-0.816,1.008-2.328,1.848-3.504,1.848c-3.168,0-5.424-2.856-5.424-6c0-3.072,2.112-5.904,5.184-5.904
				C32.072,13.152,34.232,14.376,34.232,16.704z"/>
		</g>
		<g>
			<path d="M9.152,33.768c-4.944-2.352-5.736-5.376-5.952-8.472c-0.24-3.36,1.896-6.768,3.888-8.664
				c1.152-1.08,2.4-2.136,3.888-3.264c-0.048-0.84-0.24-1.176-0.336-2.376c-0.024-0.504-0.336-2.856,0.168-5.568
				c0.312-1.608,2.328-5.4,3.72-5.424c1.08-0.024,2.736,4.296,2.784,6.456c0.072,3.336-0.72,4.848-1.704,6.576
				c-0.504,0.864-1.032,1.464-1.584,2.136C13.448,15.864,12.8,16.272,12.2,16.8c0,0,0.768,4.344,0.792,4.656
				c1.536-0.192,3.408,0.36,4.08,0.84c1.704,1.272,2.352,3.024,2.472,4.728c0.216,2.712-1.272,5.568-4.56,6.936
				c0,0,0.504,3.456,0.624,4.176c0.264,1.896,0.216,3.096-0.192,3.864c-0.696,1.296-1.824,2.496-4.008,2.64
				c-1.68,0.096-4.992-0.744-5.16-3.384c-0.096-1.56,0.6-3.24,2.496-3.36c1.152-0.096,2.52,0.864,2.616,2.232
				c0.096,1.176-0.672,2.4-2.664,2.952c0.312,0.432,1.248,0.936,2.592,0.936c1.392,0,2.832-0.936,3.528-2.184
				c0.432-0.816,0.384-2.28,0.216-3.624c-0.072-0.456-0.648-4.08-0.648-4.08C12.608,34.416,10.16,34.248,9.152,33.768z M9.632,28.08
				c0.048,1.152,1.008,2.496,1.896,2.952c-0.12,0.072-0.24,0.264-0.24,0.264c-0.984-0.48-1.824-1.272-2.04-1.56
				c-0.696-0.936-0.984-1.464-1.08-2.88c-0.096-1.32,0.624-3.096,2.232-4.344c0.84-0.624,1.248-0.768,1.968-0.936l-0.72-4.344
				c-0.744,0.432-3.816,2.904-5.112,4.92c-1.152,1.8-1.848,3.24-1.704,5.016c0.288,4.008,4.68,7.296,9.432,6.168
				c0,0-1.416-8.52-1.392-8.52C10.256,24.912,9.56,26.928,9.632,28.08z M11.576,12.864c2.088-1.632,4.92-4.704,4.752-7.08
				c-0.048-0.744-0.36-2.088-1.44-2.064C12.416,3.744,11.024,8.904,11.576,12.864z M14.84,33.144c2.76-0.936,2.88-3.312,2.784-4.728
				C17.528,27.24,17,24.6,13.496,24.768L14.84,33.144z"/>
		</g>
		<path fill="none" stroke="#0A0A0A" d="M211.604,4.118v29.746"/>
		<path fill="none" stroke="#0A0A0A" d="M107.604,5.118v29.746"/>
		<g>
			<path d="M61.904,15.864c2.664,0.024,5.184,1.032,5.376,3.264c0.144,1.632-2.016,3.12-4.68,3.12
				c-2.688-0.024-5.184-1.008-5.4-3.24C57.056,17.352,59.24,15.864,61.904,15.864z M62.552,21.696c1.152,0,1.896-1.104,1.776-1.992
				c-0.264-1.752-0.864-3.168-2.448-3.168c-1.152,0-1.824,1.128-1.68,2.016C60.464,20.304,60.968,21.696,62.552,21.696z"/>
		</g>
		<g>
			<path d="M61.904,9.864c2.664,0.024,5.184,1.032,5.376,3.264c0.144,1.632-2.016,3.12-4.68,3.12c-2.688-0.024-5.184-1.008-5.4-3.24
				C57.056,11.352,59.24,9.864,61.904,9.864z M62.552,15.696c1.152,0,1.896-1.104,1.776-1.992c-0.264-1.752-0.864-3.168-2.448-3.168
				c-1.152,0-1.824,1.128-1.68,2.016C60.464,14.304,60.968,15.696,62.552,15.696z"/>
		</g>
		<g>
			<path d="M61.904,22.864c2.664,0.024,5.184,1.032,5.376,3.264c0.144,1.632-2.016,3.12-4.68,3.12
				c-2.688-0.024-5.184-1.008-5.4-3.24C57.056,24.352,59.24,22.864,61.904,22.864z M62.552,28.696c1.152,0,1.896-1.104,1.776-1.992
				c-0.264-1.752-0.864-3.168-2.448-3.168c-1.152,0-1.824,1.128-1.68,2.016C60.464,27.304,60.968,28.696,62.552,28.696z"/>
		</g>
		<g>
			<path d="M155.904,16.864c2.664,0.024,5.184,1.032,5.376,3.264c0.144,1.632-2.016,3.12-4.68,3.12
				c-2.688-0.024-5.184-1.008-5.4-3.24C151.056,18.352,153.24,16.864,155.904,16.864z M156.552,22.696
				c1.152,0,1.896-1.104,1.776-1.992c-0.264-1.752-0.864-3.168-2.448-3.168c-1.152,0-1.824,1.128-1.68,2.016
				C154.464,21.304,154.968,22.696,156.552,22.696z"/>
		</g>
		<g>
			<path d="M155.187,9.393c2.664,0.024,5.184,1.032,5.376,3.264c0.144,1.632-2.016,3.12-4.68,3.12
				c-2.688-0.024-5.184-1.008-5.4-3.24C150.339,10.88,152.523,9.393,155.187,9.393z M155.835,15.225
				c1.152,0,1.896-1.104,1.776-1.992c-0.264-1.752-0.864-3.168-2.448-3.168c-1.152,0-1.824,1.128-1.68,2.016
				C153.747,13.833,154.251,15.225,155.835,15.225z"/>
		</g>
		<g>
			<path d="M155.904,23.864c2.664,0.024,5.184,1.032,5.376,3.264c0.144,1.632-2.016,3.12-4.68,3.12
				c-2.688-0.024-5.184-1.008-5.4-3.24C151.056,25.352,153.24,23.864,155.904,23.864z M156.552,29.696
				c1.152,0,1.896-1.104,1.776-1.992c-0.264-1.752-0.864-3.168-2.448-3.168c-1.152,0-1.824,1.128-1.68,2.016
				C154.464,28.304,154.968,29.696,156.552,29.696z"/>
		</g>
		<g>
			<path d="M261.904,9.864c2.664,0.024,5.184,1.032,5.376,3.264c0.144,1.632-2.016,3.12-4.68,3.12
				c-2.688-0.024-5.184-1.008-5.4-3.24C257.056,11.352,259.24,9.864,261.904,9.864z M262.552,15.696
				c1.152,0,1.896-1.104,1.776-1.992c-0.264-1.752-0.864-3.168-2.448-3.168c-1.152,0-1.824,1.128-1.68,2.016
				C260.464,14.304,260.968,15.696,262.552,15.696z"/>
		</g>
		<g>
			<path d="M261.904,23.864c2.664,0.024,5.184,1.032,5.376,3.264c0.144,1.632-2.016,3.12-4.68,3.12
				c-2.688-0.024-5.184-1.008-5.4-3.24C257.056,25.352,259.24,23.864,261.904,23.864z M262.552,29.696
				c1.152,0,1.896-1.104,1.776-1.992c-0.264-1.752-0.864-3.168-2.448-3.168c-1.152,0-1.824,1.128-1.68,2.016
				C260.464,28.304,260.968,29.696,262.552,29.696z"/>
		</g>
		<g>
			<path d="M261.904,16.864c2.664,0.024,5.184,1.032,5.376,3.264c0.144,1.632-2.016,3.12-4.68,3.12
				c-2.688-0.024-5.184-1.008-5.4-3.24C257.056,18.352,259.24,16.864,261.904,16.864z M262.552,22.696
				c1.152,0,1.896-1.104,1.776-1.992c-0.264-1.752-0.864-3.168-2.448-3.168c-1.152,0-1.824,1.128-1.68,2.016
				C260.464,21.304,260.968,22.696,262.552,22.696z"/>
		</g>
		<g>
			<path d="M363.107,15.36c0,0.216,0,1.536,0,1.536c0.912-0.816,1.416-0.984,2.424-1.008c1.2-0.024,1.968,1.176,1.992,2.136
				c0.024,0.504-0.12,1.032-0.312,1.44c-0.217,0.528-0.793,0.936-1.177,1.32c-0.432,0.432-3.552,2.568-3.552,2.616V9.216h0.624
				C363.107,9.216,363.131,12.192,363.107,15.36z M363.371,17.736c-0.312,0.6-0.264,1.632-0.264,2.376v2.064
				c0,0.024,0.864-0.72,1.344-1.176c0.433-0.408,0.769-0.864,0.937-1.584c0.191-0.72,0.12-1.488-0.336-1.992
				C364.739,17.064,363.875,16.776,363.371,17.736z"/>
		</g>
		<g>
			<path d="M249.424,9.07l-0.081-3.911l0.696-0.014l0.076,3.671L252.451,8l-0.072-3.503l0.696-0.015l0.068,3.288l0.929-0.331
				l0.051,2.495l-0.929,0.332l0.073,3.551l0.93-0.307l0.051,2.471l-0.93,0.332l0.081,3.911l-0.696,0.014l-0.076-3.695l-2.335,0.816
				l0.073,3.551l-0.696,0.015l-0.068-3.312l-1.025,0.357l-0.052-2.495l1.025-0.357l-0.074-3.575l-1.024,0.357l-0.051-2.471
				L249.424,9.07z M250.167,11.312l0.074,3.575l2.336-0.816l-0.074-3.576L250.167,11.312z"/>
		</g>
		<g>
			<path d="M144.043,15.225c0.005,0.216,0.032,1.536,0.032,1.536c0.895-0.835,1.396-1.013,2.403-1.058
				c1.199-0.048,1.992,1.135,2.036,2.095c0.034,0.503-0.099,1.034-0.282,1.446c-0.205,0.532-0.772,0.952-1.148,1.344
				c-0.423,0.441-3.499,2.641-3.498,2.689l-0.292-14.182l0.624-0.013C143.917,9.083,144.002,12.058,144.043,15.225z M144.356,17.595
				c-0.299,0.606-0.23,1.637-0.215,2.381l0.042,2.063c0,0.024,0.849-0.738,1.319-1.204c0.424-0.417,0.75-0.879,0.903-1.603
				c0.177-0.724,0.089-1.49-0.377-1.984C145.71,16.896,144.841,16.625,144.356,17.595z"/>
		</g>
		<path fill="none" stroke="#0A0A0A" d="M437.604,4.118v29.746"/>
		<g>
			<path d="M376.904,15.864c2.664,0.024,5.184,1.032,5.376,3.264c0.144,1.632-2.016,3.12-4.68,3.12
				c-2.688-0.024-5.185-1.008-5.4-3.24C372.056,17.352,374.24,15.864,376.904,15.864z M377.551,21.696
				c1.152,0,1.896-1.104,1.776-1.992c-0.264-1.752-0.864-3.168-2.448-3.168c-1.151,0-1.823,1.128-1.68,2.016
				C375.463,20.304,375.967,21.696,377.551,21.696z"/>
		</g>
		<g>
			<path d="M376.904,9.864c2.664,0.024,5.184,1.032,5.376,3.264c0.144,1.632-2.016,3.12-4.68,3.12
				c-2.688-0.024-5.185-1.008-5.4-3.24C372.056,11.352,374.24,9.864,376.904,9.864z M377.551,15.696
				c1.152,0,1.896-1.104,1.776-1.992c-0.264-1.752-0.864-3.168-2.448-3.168c-1.151,0-1.823,1.128-1.68,2.016
				C375.463,14.304,375.967,15.696,377.551,15.696z"/>
		</g>
		<g>
			<path d="M376.904,22.864c2.664,0.024,5.184,1.032,5.376,3.264c0.144,1.632-2.016,3.12-4.68,3.12
				c-2.688-0.024-5.185-1.008-5.4-3.24C372.056,24.352,374.24,22.864,376.904,22.864z M377.551,28.696
				c1.152,0,1.896-1.104,1.776-1.992c-0.264-1.752-0.864-3.168-2.448-3.168c-1.151,0-1.823,1.128-1.68,2.016
				C375.463,27.304,375.967,28.696,377.551,28.696z"/>
		</g>
		<g>
			<path d="M366.107,8.36c0,0.216,0,1.536,0,1.536c0.912-0.816,1.416-0.984,2.424-1.008c1.2-0.024,1.968,1.176,1.992,2.136
				c0.024,0.504-0.12,1.032-0.312,1.44c-0.217,0.528-0.793,0.936-1.177,1.32c-0.432,0.432-3.552,2.568-3.552,2.616V2.216h0.624
				C366.107,2.216,366.131,5.192,366.107,8.36z M366.371,10.736c-0.312,0.6-0.264,1.632-0.264,2.376v2.064
				c0,0.024,0.864-0.72,1.344-1.176c0.433-0.408,0.769-0.864,0.937-1.584c0.191-0.72,0.12-1.488-0.336-1.992
				C367.739,10.064,366.875,9.776,366.371,10.736z"/>
		</g>
	</g>
</svg>
