<?xml version="1.0" encoding="utf-8"?>
<!-- Generator: Adobe Illustrator 10.0, SVG Export Plug-In . SVG Version: 3.0.0 Build 76)  -->
<!DOCTYPE svg PUBLIC "-//W3C//DTD SVG 1.0//EN"    "http://www.w3.org/TR/2001/REC-SVG-20010904/DTD/svg10.dtd" [
	<!ENTITY ns_flows "http://ns.adobe.com/Flows/1.0/">
	<!ENTITY ns_extend "http://ns.adobe.com/Extensibility/1.0/">
	<!ENTITY ns_ai "http://ns.adobe.com/AdobeIllustrator/10.0/">
	<!ENTITY ns_svg "http://www.w3.org/2000/svg">
	<!ENTITY ns_xlink "http://www.w3.org/1999/xlink">
]>
<svg  xmlns:x="&ns_extend;" xmlns:i="&ns_ai;" xmlns:graph="&ns_graphs;"
	 xmlns="&ns_svg;" xmlns:xlink="&ns_xlink;" xmlns:a="http://ns.adobe.com/AdobeSVGViewerExtensions/3.0/" width="475" height="81"
	 viewBox="-0.111 -0.48 475 81" overflow="visible" enable-background="new -0.111 -0.48 475 81" xml:space="preserve">
	<g id="Layer_1_2_">
		<g>
			<path fill="none" stroke="#000000" d="M0.127,29.444h474.49"/>
			<path fill="none" stroke="#000000" d="M0.127,43.556h474.49"/>
			<path fill="none" stroke="#000000" d="M0.363,50.679h474.491"/>
			<path fill="none" stroke="#000000" d="M0,58.062h474.49"/>
			<path fill="none" stroke="#000000" d="M0,36.698h474.49"/>
		</g>
		<path fill="none" stroke="#11100F" stroke-width="2" d="M473.901,28.594v29.746"/>
		<g>
			<path d="M36.232,40.903c0,0.96-1.2,1.8-1.848,1.8s-2.04-0.36-2.04-1.8c0-0.936,0.672-1.632,1.512-1.632
				c0.576,0,0.528-0.36,0.336-0.576c-0.528-0.552-1.488-0.96-2.664-0.624c-1.896,0.504-2.304,2.808-2.304,5.184
				c0,2.64,0.456,5.256,2.76,5.256c1.632,0,3.456-1.488,3.408-3.528h0.672c-0.024,0.624-0.432,1.92-0.84,2.424
				c-0.816,1.008-2.328,1.848-3.504,1.848c-3.168,0-5.424-2.856-5.424-6c0-3.072,2.112-5.904,5.184-5.904
				C34.072,37.351,36.232,38.575,36.232,40.903z"/>
		</g>
		<g>
			<path d="M10.152,56.967c-4.944-2.352-5.736-5.376-5.952-8.472c-0.24-3.36,1.896-6.768,3.888-8.664
				c1.152-1.08,2.4-2.136,3.888-3.264c-0.048-0.84-0.24-1.176-0.336-2.376c-0.024-0.504-0.336-2.856,0.168-5.568
				c0.312-1.608,2.328-5.4,3.72-5.424c1.08-0.024,2.736,4.296,2.784,6.456c0.072,3.336-0.72,4.848-1.704,6.576
				c-0.504,0.864-1.032,1.464-1.584,2.136c-0.576,0.696-1.224,1.104-1.824,1.632c0,0,0.768,4.344,0.792,4.656
				c1.536-0.192,3.408,0.36,4.08,0.84c1.704,1.272,2.352,3.024,2.472,4.728c0.216,2.712-1.272,5.568-4.56,6.936
				c0,0,0.504,3.456,0.624,4.176c0.264,1.896,0.216,3.096-0.192,3.864c-0.696,1.296-1.824,2.496-4.008,2.64
				c-1.68,0.096-4.992-0.744-5.16-3.384c-0.096-1.56,0.6-3.24,2.496-3.36c1.152-0.096,2.52,0.864,2.616,2.232
				c0.096,1.176-0.672,2.4-2.664,2.952c0.312,0.432,1.248,0.936,2.592,0.936c1.392,0,2.832-0.936,3.528-2.184
				c0.432-0.816,0.384-2.28,0.216-3.624c-0.072-0.456-0.648-4.08-0.648-4.08C13.608,57.615,11.16,57.447,10.152,56.967z
				 M10.632,51.279c0.048,1.152,1.008,2.496,1.896,2.952c-0.12,0.072-0.24,0.264-0.24,0.264c-0.984-0.48-1.824-1.272-2.04-1.56
				c-0.696-0.936-0.984-1.464-1.08-2.88c-0.096-1.32,0.624-3.096,2.232-4.344c0.84-0.624,1.248-0.768,1.968-0.936l-0.72-4.344
				c-0.744,0.432-3.816,2.904-5.112,4.92c-1.152,1.8-1.848,3.24-1.704,5.016c0.288,4.008,4.68,7.296,9.432,6.168
				c0,0-1.416-8.52-1.392-8.52C11.256,48.111,10.56,50.127,10.632,51.279z M12.576,36.063c2.088-1.632,4.92-4.704,4.752-7.08
				c-0.048-0.744-0.36-2.088-1.44-2.064C13.416,26.943,12.024,32.103,12.576,36.063z M15.84,56.343
				c2.76-0.936,2.88-3.312,2.784-4.728c-0.096-1.176-0.624-3.816-4.128-3.648L15.84,56.343z"/>
		</g>
		<g>
			<path d="M367.904,72.063c2.664,0.024,5.184,1.032,5.376,3.264c0.144,1.632-2.016,3.12-4.68,3.12
				c-2.688-0.024-5.185-1.008-5.4-3.24C363.056,73.551,365.24,72.063,367.904,72.063z M368.551,77.895
				c1.152,0,1.896-1.104,1.776-1.992c-0.264-1.752-0.864-3.168-2.448-3.168c-1.151,0-1.823,1.128-1.68,2.016
				C366.463,76.503,366.967,77.895,368.551,77.895z"/>
		</g>
		<g>
			<path fill="none" stroke="#000000" d="M116.2,71.279h12"/>
			<path fill="none" stroke="#000000" d="M115.866,64.279h12"/>
		</g>
		<g>
			<path d="M306.245,62.567c2.664,0.024,5.184,1.032,5.376,3.264c0.144,1.632-2.016,3.12-4.68,3.12
				c-2.688-0.024-5.185-1.008-5.4-3.24C301.397,64.055,303.581,62.567,306.245,62.567z M306.892,68.399
				c1.152,0,1.896-1.104,1.776-1.992c-0.264-1.752-0.864-3.168-2.448-3.168c-1.151,0-1.823,1.128-1.68,2.016
				C304.804,67.007,305.308,68.399,306.892,68.399z"/>
		</g>
		<path fill="none" stroke="#000000" d="M298.534,65.279H313.2"/>
		<path fill="none" stroke="#11100F" d="M468.901,28.594v29.746"/>
		<path fill="none" stroke="#11100F" d="M405.901,29.594v29.746"/>
		<path fill="none" stroke="#11100F" d="M340.901,28.594v29.746"/>
		<path fill="none" stroke="#11100F" d="M215.901,28.594v29.746"/>
		<path fill="none" stroke="#11100F" d="M154.901,28.594v29.746"/>
		<path fill="none" stroke="#11100F" d="M93.901,28.594v29.746"/>
		<path fill="none" stroke="#11100F" d="M277.901,28.594v29.746"/>
		<g>
			<path fill="none" stroke="#000000" d="M179.2,71.279h12"/>
			<path fill="none" stroke="#000000" d="M178.866,64.279h12"/>
		</g>
		<g>
			<path fill="none" stroke="#000000" d="M362.2,71.279h12"/>
			<path fill="none" stroke="#000000" d="M361.866,64.279h12"/>
		</g>
		<g>
			<path d="M433.904,51.063c2.664,0.024,5.184,1.032,5.376,3.264c0.144,1.632-2.016,3.12-4.68,3.12
				c-2.688-0.024-5.185-1.008-5.4-3.24C429.056,52.551,431.24,51.063,433.904,51.063z M434.551,56.895
				c1.152,0,1.896-1.104,1.776-1.992c-0.264-1.752-0.864-3.168-2.448-3.168c-1.151,0-1.823,1.128-1.68,2.016
				C432.463,55.503,432.967,56.895,434.551,56.895z"/>
		</g>
		<g>
			<path d="M433.904,44.063c2.664,0.024,5.184,1.032,5.376,3.264c0.144,1.632-2.016,3.12-4.68,3.12
				c-2.688-0.024-5.185-1.008-5.4-3.24C429.056,45.551,431.24,44.063,433.904,44.063z M434.551,49.895
				c1.152,0,1.896-1.104,1.776-1.992c-0.264-1.752-0.864-3.168-2.448-3.168c-1.151,0-1.823,1.128-1.68,2.016
				C432.463,48.503,432.967,49.895,434.551,49.895z"/>
		</g>
		<g>
			<path d="M432.904,37.063c2.664,0.024,5.184,1.032,5.376,3.264c0.144,1.632-2.016,3.12-4.68,3.12
				c-2.688-0.024-5.185-1.008-5.4-3.24C428.056,38.551,430.24,37.063,432.904,37.063z M433.551,42.895
				c1.152,0,1.896-1.104,1.776-1.992c-0.264-1.752-0.864-3.168-2.448-3.168c-1.151,0-1.823,1.128-1.68,2.016
				C431.463,41.503,431.967,42.895,433.551,42.895z"/>
		</g>
		<g>
			<path d="M439.904,33.063c2.664,0.024,5.184,1.032,5.376,3.264c0.144,1.632-2.016,3.12-4.68,3.12
				c-2.688-0.024-5.185-1.008-5.4-3.24C435.056,34.551,437.24,33.063,439.904,33.063z M440.551,38.895
				c1.152,0,1.896-1.104,1.776-1.992c-0.264-1.752-0.864-3.168-2.448-3.168c-1.151,0-1.823,1.128-1.68,2.016
				C438.463,37.503,438.967,38.895,440.551,38.895z"/>
		</g>
		<g>
			<path d="M367.904,44.063c2.664,0.024,5.184,1.032,5.376,3.264c0.144,1.632-2.016,3.12-4.68,3.12
				c-2.688-0.024-5.185-1.008-5.4-3.24C363.056,45.551,365.24,44.063,367.904,44.063z M368.551,49.895
				c1.152,0,1.896-1.104,1.776-1.992c-0.264-1.752-0.864-3.168-2.448-3.168c-1.151,0-1.823,1.128-1.68,2.016
				C366.463,48.503,366.967,49.895,368.551,49.895z"/>
		</g>
		<g>
			<path d="M367.904,37.063c2.664,0.024,5.184,1.032,5.376,3.264c0.144,1.632-2.016,3.12-4.68,3.12
				c-2.688-0.024-5.185-1.008-5.4-3.24C363.056,38.551,365.24,37.063,367.904,37.063z M368.551,42.895
				c1.152,0,1.896-1.104,1.776-1.992c-0.264-1.752-0.864-3.168-2.448-3.168c-1.151,0-1.823,1.128-1.68,2.016
				C366.463,41.503,366.967,42.895,368.551,42.895z"/>
		</g>
		<g>
			<path d="M367.904,30.063c2.664,0.024,5.184,1.032,5.376,3.264c0.144,1.632-2.016,3.12-4.68,3.12
				c-2.688-0.024-5.185-1.008-5.4-3.24C363.056,31.551,365.24,30.063,367.904,30.063z M368.551,35.895
				c1.152,0,1.896-1.104,1.776-1.992c-0.264-1.752-0.864-3.168-2.448-3.168c-1.151,0-1.823,1.128-1.68,2.016
				C366.463,34.503,366.967,35.895,368.551,35.895z"/>
		</g>
		<g>
			<path d="M305.904,51.063c2.664,0.024,5.184,1.032,5.376,3.264c0.144,1.632-2.016,3.12-4.68,3.12
				c-2.688-0.024-5.185-1.008-5.4-3.24C301.056,52.551,303.24,51.063,305.904,51.063z M306.551,56.895
				c1.152,0,1.896-1.104,1.776-1.992c-0.264-1.752-0.864-3.168-2.448-3.168c-1.151,0-1.823,1.128-1.68,2.016
				C304.463,55.503,304.967,56.895,306.551,56.895z"/>
		</g>
		<g>
			<path d="M305.904,44.063c2.664,0.024,5.184,1.032,5.376,3.264c0.144,1.632-2.016,3.12-4.68,3.12
				c-2.688-0.024-5.185-1.008-5.4-3.24C301.056,45.551,303.24,44.063,305.904,44.063z M306.551,49.895
				c1.152,0,1.896-1.104,1.776-1.992c-0.264-1.752-0.864-3.168-2.448-3.168c-1.151,0-1.823,1.128-1.68,2.016
				C304.463,48.503,304.967,49.895,306.551,49.895z"/>
		</g>
		<g>
			<path d="M305.904,26.063c2.664,0.024,5.184,1.032,5.376,3.264c0.144,1.632-2.016,3.12-4.68,3.12
				c-2.688-0.024-5.185-1.008-5.4-3.24C301.056,27.551,303.24,26.063,305.904,26.063z M306.551,31.895
				c1.152,0,1.896-1.104,1.776-1.992c-0.264-1.752-0.864-3.168-2.448-3.168c-1.151,0-1.823,1.128-1.68,2.016
				C304.463,30.503,304.967,31.895,306.551,31.895z"/>
		</g>
		<g>
			<path d="M244.904,44.063c2.664,0.024,5.184,1.032,5.376,3.264c0.144,1.632-2.016,3.12-4.68,3.12
				c-2.688-0.024-5.184-1.008-5.4-3.24C240.056,45.551,242.24,44.063,244.904,44.063z M245.552,49.895
				c1.152,0,1.896-1.104,1.776-1.992c-0.264-1.752-0.864-3.168-2.448-3.168c-1.152,0-1.824,1.128-1.68,2.016
				C243.464,48.503,243.968,49.895,245.552,49.895z"/>
		</g>
		<g>
			<path d="M243.904,33.063c2.664,0.024,5.184,1.032,5.376,3.264c0.144,1.632-2.016,3.12-4.68,3.12
				c-2.688-0.024-5.184-1.008-5.4-3.24C239.056,34.551,241.24,33.063,243.904,33.063z M244.552,38.895
				c1.152,0,1.896-1.104,1.776-1.992c-0.264-1.752-0.864-3.168-2.448-3.168c-1.152,0-1.824,1.128-1.68,2.016
				C242.464,37.503,242.968,38.895,244.552,38.895z"/>
		</g>
		<g>
			<path d="M250.904,30.063c2.664,0.024,5.184,1.032,5.376,3.264c0.144,1.632-2.016,3.12-4.68,3.12
				c-2.688-0.024-5.184-1.008-5.4-3.24C246.056,31.551,248.24,30.063,250.904,30.063z M251.552,35.895
				c1.152,0,1.896-1.104,1.776-1.992c-0.264-1.752-0.864-3.168-2.448-3.168c-1.152,0-1.824,1.128-1.68,2.016
				C249.464,34.503,249.968,35.895,251.552,35.895z"/>
		</g>
		<g>
			<path d="M184.904,72.063c2.664,0.024,5.184,1.032,5.376,3.264c0.144,1.632-2.016,3.12-4.68,3.12
				c-2.688-0.024-5.184-1.008-5.4-3.24C180.056,73.551,182.24,72.063,184.904,72.063z M185.552,77.895
				c1.152,0,1.896-1.104,1.776-1.992c-0.264-1.752-0.864-3.168-2.448-3.168c-1.152,0-1.824,1.128-1.68,2.016
				C183.464,76.503,183.968,77.895,185.552,77.895z"/>
		</g>
		<g>
			<path d="M184.904,58.063c2.664,0.024,5.184,1.032,5.376,3.264c0.144,1.632-2.016,3.12-4.68,3.12
				c-2.688-0.024-5.184-1.008-5.4-3.24C180.056,59.551,182.24,58.063,184.904,58.063z M185.552,63.895
				c1.152,0,1.896-1.104,1.776-1.992c-0.264-1.752-0.864-3.168-2.448-3.168c-1.152,0-1.824,1.128-1.68,2.016
				C183.464,62.503,183.968,63.895,185.552,63.895z"/>
		</g>
		<g>
			<path d="M121.904,33.063c2.664,0.024,5.184,1.032,5.376,3.264c0.144,1.632-2.016,3.12-4.68,3.12
				c-2.688-0.024-5.184-1.008-5.4-3.24C117.056,34.551,119.24,33.063,121.904,33.063z M122.552,38.895
				c1.152,0,1.896-1.104,1.776-1.992c-0.264-1.752-0.864-3.168-2.448-3.168c-1.152,0-1.824,1.128-1.68,2.016
				C120.464,37.503,120.968,38.895,122.552,38.895z"/>
		</g>
		<g>
			<path d="M184.904,26.063c2.664,0.024,5.184,1.032,5.376,3.264c0.144,1.632-2.016,3.12-4.68,3.12
				c-2.688-0.024-5.184-1.008-5.4-3.24C180.056,27.551,182.24,26.063,184.904,26.063z M185.552,31.895
				c1.152,0,1.896-1.104,1.776-1.992c-0.264-1.752-0.864-3.168-2.448-3.168c-1.152,0-1.824,1.128-1.68,2.016
				C183.464,30.503,183.968,31.895,185.552,31.895z"/>
		</g>
		<g>
			<path d="M184.904,40.063c2.664,0.024,5.184,1.032,5.376,3.264c0.144,1.632-2.016,3.12-4.68,3.12
				c-2.688-0.024-5.184-1.008-5.4-3.24C180.056,41.551,182.24,40.063,184.904,40.063z M185.552,45.895
				c1.152,0,1.896-1.104,1.776-1.992c-0.264-1.752-0.864-3.168-2.448-3.168c-1.152,0-1.824,1.128-1.68,2.016
				C183.464,44.503,183.968,45.895,185.552,45.895z"/>
		</g>
		<g>
			<g>
				<path d="M184.934,17.808c2.664,0.024,5.184,1.032,5.376,3.264c0.144,1.632-2.016,3.12-4.68,3.12
					c-2.688-0.024-5.184-1.008-5.4-3.24C180.086,19.296,182.27,17.808,184.934,17.808z M185.582,23.64
					c1.152,0,1.896-1.104,1.776-1.992c-0.264-1.752-0.864-3.168-2.448-3.168c-1.152,0-1.824,1.128-1.68,2.016
					C183.494,22.248,183.998,23.64,185.582,23.64z"/>
			</g>
			<path fill="none" stroke="#000000" d="M178.223,21.52h14.666"/>
		</g>
		<g>
			<path d="M121.904,68.063c2.664,0.024,5.184,1.032,5.376,3.264c0.144,1.632-2.016,3.12-4.68,3.12
				c-2.688-0.024-5.184-1.008-5.4-3.24C117.056,69.551,119.24,68.063,121.904,68.063z M122.552,73.895
				c1.152,0,1.896-1.104,1.776-1.992c-0.264-1.752-0.864-3.168-2.448-3.168c-1.152,0-1.824,1.128-1.68,2.016
				C120.464,72.503,120.968,73.895,122.552,73.895z"/>
		</g>
		<g>
			<path d="M121.904,40.063c2.664,0.024,5.184,1.032,5.376,3.264c0.144,1.632-2.016,3.12-4.68,3.12
				c-2.688-0.024-5.184-1.008-5.4-3.24C117.056,41.551,119.24,40.063,121.904,40.063z M122.552,45.895
				c1.152,0,1.896-1.104,1.776-1.992c-0.264-1.752-0.864-3.168-2.448-3.168c-1.152,0-1.824,1.128-1.68,2.016
				C120.464,44.503,120.968,45.895,122.552,45.895z"/>
		</g>
		<g>
			<g>
				<path d="M122.245,74.567c2.664,0.024,5.184,1.032,5.376,3.264c0.144,1.632-2.016,3.12-4.68,3.12
					c-2.688-0.024-5.184-1.008-5.4-3.24C117.396,76.055,119.581,74.567,122.245,74.567z M122.893,80.399
					c1.152,0,1.896-1.104,1.776-1.992c-0.264-1.752-0.864-3.168-2.448-3.168c-1.152,0-1.824,1.128-1.68,2.016
					C120.805,79.007,121.309,80.399,122.893,80.399z"/>
			</g>
			<path fill="none" stroke="#000000" d="M115.534,78.279H130.2"/>
		</g>
		<g>
			<path d="M121.904,61.063c2.664,0.024,5.184,1.032,5.376,3.264c0.144,1.632-2.016,3.12-4.68,3.12
				c-2.688-0.024-5.184-1.008-5.4-3.24C117.056,62.551,119.24,61.063,121.904,61.063z M122.552,66.895
				c1.152,0,1.896-1.104,1.776-1.992c-0.264-1.752-0.864-3.168-2.448-3.168c-1.152,0-1.824,1.128-1.68,2.016
				C120.464,65.503,120.968,66.895,122.552,66.895z"/>
		</g>
		<g>
			<path d="M121.904,47.063c2.664,0.024,5.184,1.032,5.376,3.264c0.144,1.632-2.016,3.12-4.68,3.12
				c-2.688-0.024-5.184-1.008-5.4-3.24C117.056,48.551,119.24,47.063,121.904,47.063z M122.552,52.895
				c1.152,0,1.896-1.104,1.776-1.992c-0.264-1.752-0.864-3.168-2.448-3.168c-1.152,0-1.824,1.128-1.68,2.016
				C120.464,51.503,120.968,52.895,122.552,52.895z"/>
		</g>
		<g>
			<path d="M61.245,54.567c2.664,0.024,5.184,1.032,5.376,3.264c0.144,1.632-2.016,3.12-4.68,3.12
				c-2.688-0.024-5.184-1.008-5.4-3.24C56.396,56.055,58.581,54.567,61.245,54.567z M61.893,60.399c1.152,0,1.896-1.104,1.776-1.992
				c-0.264-1.752-0.864-3.168-2.448-3.168c-1.152,0-1.824,1.128-1.68,2.016C59.805,59.007,60.309,60.399,61.893,60.399z"/>
		</g>
		<g>
			<path d="M60.904,40.063c2.664,0.024,5.184,1.032,5.376,3.264c0.144,1.632-2.016,3.12-4.68,3.12
				c-2.688-0.024-5.184-1.008-5.4-3.24C56.056,41.551,58.24,40.063,60.904,40.063z M61.552,45.895c1.152,0,1.896-1.104,1.776-1.992
				c-0.264-1.752-0.864-3.168-2.448-3.168c-1.152,0-1.824,1.128-1.68,2.016C59.464,44.503,59.968,45.895,61.552,45.895z"/>
		</g>
		<g>
			<path d="M60.904,47.063c2.664,0.024,5.184,1.032,5.376,3.264c0.144,1.632-2.016,3.12-4.68,3.12
				c-2.688-0.024-5.184-1.008-5.4-3.24C56.056,48.551,58.24,47.063,60.904,47.063z M61.552,52.895c1.152,0,1.896-1.104,1.776-1.992
				c-0.264-1.752-0.864-3.168-2.448-3.168c-1.152,0-1.824,1.128-1.68,2.016C59.464,51.503,59.968,52.895,61.552,52.895z"/>
		</g>
		<g>
			<path d="M121.904,54.063c2.664,0.024,5.184,1.032,5.376,3.264c0.144,1.632-2.016,3.12-4.68,3.12
				c-2.688-0.024-5.184-1.008-5.4-3.24C117.056,55.551,119.24,54.063,121.904,54.063z M122.552,59.895
				c1.152,0,1.896-1.104,1.776-1.992c-0.264-1.752-0.864-3.168-2.448-3.168c-1.152,0-1.824,1.128-1.68,2.016
				C120.464,58.503,120.968,59.895,122.552,59.895z"/>
		</g>
		<g>
			<path fill="#FF0000" d="M30.493,5.1h-2.976v1.92h3.324v1.5h-5.148V0.432h4.98v1.5h-3.156v1.68h2.976V5.1z"/>
			<path fill="#FF0000" d="M32.053,4.524c0-0.732-0.024-1.344-0.048-1.872h1.548l0.072,0.804h0.036
				c0.252-0.384,0.78-0.936,1.776-0.936c0.768,0,1.356,0.396,1.608,1.008h0.024c0.228-0.312,0.48-0.552,0.768-0.72
				c0.324-0.18,0.684-0.288,1.116-0.288c1.128,0,1.98,0.792,1.98,2.544V8.52h-1.776V5.34c0-0.852-0.276-1.344-0.864-1.344
				c-0.432,0-0.72,0.288-0.852,0.636c-0.036,0.132-0.06,0.312-0.06,0.456V8.52h-1.776V5.232c0-0.732-0.264-1.236-0.852-1.236
				c-0.468,0-0.744,0.36-0.852,0.648c-0.06,0.144-0.072,0.312-0.072,0.468V8.52h-1.776V4.524z"/>
			<path fill="#FF0000" d="M45.001,0.228c-0.672,1.104-1.212,2.712-1.212,4.86c0,2.112,0.54,3.708,1.212,4.836h-1.272
				c-0.636-0.936-1.368-2.52-1.368-4.836c0.012-2.34,0.732-3.924,1.368-4.86H45.001z"/>
			<path fill="#FF0000" d="M51.025,7.104c0,0.552,0.024,1.092,0.096,1.416h-1.644l-0.108-0.588h-0.036
				c-0.384,0.468-0.984,0.72-1.68,0.72c-1.188,0-1.896-0.864-1.896-1.8c0-1.524,1.368-2.244,3.444-2.244V4.536
				c0-0.312-0.168-0.756-1.068-0.756c-0.6,0-1.236,0.204-1.62,0.432l-0.336-1.164c0.408-0.228,1.212-0.528,2.28-0.528
				c1.956,0,2.568,1.152,2.568,2.532V7.104z M49.261,5.748c-0.96,0-1.704,0.228-1.704,0.924c0,0.468,0.312,0.696,0.72,0.696
				c0.444,0,0.828-0.3,0.948-0.672c0.024-0.096,0.036-0.204,0.036-0.312V5.748z"/>
			<path fill="#FF0000" d="M58.165,0v6.768c0,0.672,0.024,1.356,0.048,1.752h-1.62l-0.072-0.852h-0.036
				c-0.36,0.648-1.08,0.984-1.836,0.984c-1.392,0-2.508-1.188-2.508-3.012c-0.012-1.968,1.224-3.12,2.628-3.12
				c0.732,0,1.284,0.264,1.548,0.66h0.024V0H58.165z M56.341,5.148c0-0.108,0-0.228-0.024-0.336
				c-0.108-0.492-0.504-0.888-1.068-0.888c-0.84,0-1.26,0.744-1.26,1.668c0,0.984,0.492,1.608,1.248,1.608
				c0.528,0,0.96-0.36,1.068-0.876c0.024-0.12,0.036-0.264,0.036-0.408V5.148z"/>
			<path fill="#FF0000" d="M65.317,0v6.768c0,0.672,0.024,1.356,0.048,1.752h-1.62l-0.072-0.852h-0.036
				c-0.36,0.648-1.08,0.984-1.836,0.984c-1.392,0-2.508-1.188-2.508-3.012c-0.012-1.968,1.224-3.12,2.628-3.12
				c0.732,0,1.284,0.264,1.548,0.66h0.024V0H65.317z M63.493,5.148c0-0.108,0-0.228-0.024-0.336
				c-0.108-0.492-0.504-0.888-1.068-0.888c-0.84,0-1.26,0.744-1.26,1.668c0,0.984,0.492,1.608,1.248,1.608
				c0.528,0,0.96-0.36,1.068-0.876c0.024-0.12,0.036-0.264,0.036-0.408V5.148z"/>
			<path fill="#FF0000" d="M71.305,2.34h-0.024l-1.488,0.708l-0.3-1.368l2.076-0.96h1.5v7.8h-1.764V2.34z"/>
			<path fill="#FF0000" d="M77.964,2.34H77.94l-1.488,0.708l-0.3-1.368l2.076-0.96h1.5v7.8h-1.764V2.34z"/>
			<path fill="#FF0000" d="M82.212,9.924c0.672-1.116,1.212-2.736,1.212-4.86s-0.54-3.72-1.212-4.836h1.272
				c0.636,0.924,1.368,2.508,1.368,4.848c-0.012,2.328-0.732,3.9-1.368,4.848H82.212z"/>
			<path fill="#FF0000" d="M112.237,0.432h4.932v1.5h-3.108V3.78h2.904v1.488h-2.904V8.52h-1.824V0.432z"/>
			<path fill="#FF0000" d="M120.589,2.34h-0.024l-1.488,0.708l-0.3-1.368l2.076-0.96h1.5v7.8h-1.764V2.34z"/>
			<path fill="#FF0000" d="M125.245,6.732c0.324,0.18,1.068,0.48,1.812,0.48c0.948,0,1.428-0.456,1.428-1.032
				c0-0.78-0.768-1.128-1.56-1.128h-0.744V3.744h0.708c0.612,0,1.38-0.24,1.38-0.9c0-0.468-0.372-0.816-1.152-0.816
				c-0.636,0-1.308,0.276-1.62,0.468l-0.372-1.32c0.468-0.3,1.392-0.588,2.412-0.588c1.656,0,2.58,0.876,2.58,1.944
				c0,0.828-0.468,1.488-1.428,1.812v0.024c0.936,0.168,1.692,0.876,1.692,1.908c0,1.368-1.212,2.376-3.192,2.376
				c-1.008,0-1.86-0.264-2.316-0.54L125.245,6.732z"/>
			<path fill="#FF0000" d="M184.068,8.148c-0.564,0.192-1.632,0.456-2.7,0.456c-1.476,0-2.544-0.372-3.288-1.08
				c-0.732-0.708-1.14-1.764-1.14-2.952c0.012-2.688,1.968-4.224,4.62-4.224c1.044,0,1.848,0.204,2.244,0.384l-0.384,1.476
				c-0.444-0.204-0.984-0.348-1.872-0.348c-1.524,0-2.688,0.864-2.688,2.616c0,1.68,1.056,2.652,2.556,2.652
				c0.408,0,0.744-0.048,0.888-0.108V5.316h-1.248V3.888h3.012V8.148z"/>
			<path fill="#FF0000" d="M185.772,7.2c0.24,0.036,0.432,0.024,0.792,0c0.564-0.024,1.128-0.192,1.548-0.48
				c0.516-0.336,0.852-0.852,0.984-1.44l-0.024-0.012c-0.36,0.36-0.864,0.564-1.584,0.564c-1.32,0-2.424-0.912-2.424-2.436
				s1.224-2.808,2.94-2.808c2.004,0,2.952,1.536,2.952,3.36c0,1.632-0.516,2.808-1.356,3.588c-0.744,0.684-1.776,1.044-3,1.092
				c-0.3,0.024-0.612,0.012-0.828,0V7.2z M187.944,1.92c-0.612,0-1.068,0.552-1.068,1.368c0,0.672,0.372,1.248,1.104,1.248
				c0.516,0,0.852-0.228,1.032-0.504c0.06-0.12,0.084-0.24,0.084-0.468c0.012-0.828-0.312-1.644-1.14-1.644H187.944z"/>
			<path fill="#FF0000" d="M231.792,6.444l-0.564,2.076h-1.896l2.472-8.088h2.388l2.52,8.088h-1.968l-0.624-2.076H231.792z
				 M233.845,5.076l-0.504-1.716c-0.132-0.48-0.276-1.092-0.396-1.56h-0.036c-0.108,0.48-0.24,1.092-0.36,1.56l-0.492,1.716H233.845
				z"/>
			<path fill="#FF0000" d="M237.685,6.936c0.336,0.204,1.032,0.432,1.572,0.432c0.552,0,0.78-0.18,0.78-0.48
				c0-0.312-0.18-0.456-0.852-0.684c-1.224-0.396-1.692-1.068-1.68-1.752c0-1.104,0.936-1.932,2.388-1.932
				c0.684,0,1.284,0.168,1.644,0.348l-0.312,1.248c-0.264-0.132-0.78-0.324-1.272-0.324c-0.444,0-0.696,0.18-0.696,0.468
				c0,0.288,0.228,0.432,0.948,0.684c1.116,0.372,1.572,0.948,1.584,1.8c0,1.104-0.852,1.908-2.532,1.908
				c-0.768,0-1.452-0.18-1.896-0.42L237.685,6.936z"/>
			<path fill="#FF0000" d="M248.437,6.636c0,0.768,0.024,1.392,0.048,1.884H246.9l-0.084-0.828h-0.036
				c-0.228,0.36-0.78,0.96-1.836,0.96c-1.2,0-2.064-0.744-2.064-2.556V2.652h1.824v3.156c0,0.852,0.276,1.368,0.924,1.368
				c0.504,0,0.804-0.348,0.912-0.636c0.048-0.108,0.072-0.24,0.072-0.396V2.652h1.824V6.636z"/>
			<path fill="#FF0000" d="M249.889,6.936c0.336,0.204,1.032,0.432,1.572,0.432c0.552,0,0.78-0.18,0.78-0.48
				c0-0.312-0.18-0.456-0.852-0.684c-1.224-0.396-1.692-1.068-1.68-1.752c0-1.104,0.936-1.932,2.388-1.932
				c0.684,0,1.284,0.168,1.644,0.348l-0.312,1.248c-0.264-0.132-0.78-0.324-1.272-0.324c-0.444,0-0.696,0.18-0.696,0.468
				c0,0.288,0.228,0.432,0.948,0.684c1.116,0.372,1.572,0.948,1.584,1.8c0,1.104-0.852,1.908-2.532,1.908
				c-0.768,0-1.452-0.18-1.896-0.42L249.889,6.936z"/>
			<path fill="#FF0000" d="M258.108,8.52V6.66h-3.456V5.472l2.94-4.752h2.244v4.572h0.924V6.66h-0.924v1.86H258.108z M258.108,5.292
				V3.564c0-0.468,0.024-0.948,0.048-1.452h-0.036c-0.252,0.504-0.468,0.96-0.732,1.452l-1.032,1.704l-0.012,0.024H258.108z"/>
			<path fill="#FF0000" d="M297.084,0.432h4.933v1.5h-3.108V3.78h2.904v1.488h-2.904V8.52h-1.824V0.432z"/>
			<path fill="#FF0000" d="M302.796,9l2.568-8.7h1.212L304.008,9H302.796z"/>
			<path fill="#FF0000" d="M313.296,8.304c-0.323,0.156-1.092,0.348-2.063,0.348c-2.796,0-4.236-1.752-4.236-4.068
				c0-2.76,1.968-4.284,4.416-4.284c0.948,0,1.668,0.192,1.992,0.36l-0.384,1.44c-0.36-0.156-0.876-0.3-1.536-0.3
				c-1.44,0-2.568,0.876-2.568,2.688c0,1.62,0.96,2.64,2.58,2.64c0.564,0,1.164-0.108,1.536-0.264L313.296,8.304z"/>
			<path fill="#FF0000" d="M356.401,6.444l-0.563,2.076h-1.896l2.472-8.088h2.389l2.52,8.088h-1.968l-0.624-2.076H356.401z
				 M358.453,5.076l-0.504-1.716c-0.132-0.48-0.275-1.092-0.396-1.56h-0.036c-0.108,0.48-0.24,1.092-0.36,1.56l-0.491,1.716H358.453
				z"/>
			<path fill="#FF0000" d="M362.269,4.524c0-0.732-0.024-1.344-0.048-1.872h1.548l0.072,0.804h0.036
				c0.252-0.384,0.779-0.936,1.775-0.936c0.769,0,1.356,0.396,1.608,1.008h0.023c0.229-0.312,0.48-0.552,0.769-0.72
				c0.324-0.18,0.684-0.288,1.116-0.288c1.128,0,1.979,0.792,1.979,2.544V8.52h-1.775V5.34c0-0.852-0.276-1.344-0.864-1.344
				c-0.433,0-0.721,0.288-0.853,0.636c-0.036,0.132-0.06,0.312-0.06,0.456V8.52h-1.776V5.232c0-0.732-0.264-1.236-0.852-1.236
				c-0.468,0-0.744,0.36-0.853,0.648c-0.06,0.144-0.071,0.312-0.071,0.468V8.52h-1.776V4.524z"/>
			<path fill="#FF0000" d="M372.049,9l2.567-8.7h1.212L373.261,9H372.049z"/>
			<path fill="#FF0000" d="M383.376,8.148c-0.563,0.192-1.632,0.456-2.7,0.456c-1.476,0-2.544-0.372-3.287-1.08
				c-0.732-0.708-1.141-1.764-1.141-2.952c0.012-2.688,1.968-4.224,4.62-4.224c1.044,0,1.849,0.204,2.244,0.384l-0.384,1.476
				c-0.444-0.204-0.984-0.348-1.872-0.348c-1.524,0-2.688,0.864-2.688,2.616c0,1.68,1.057,2.652,2.557,2.652
				c0.407,0,0.744-0.048,0.888-0.108V5.316h-1.248V3.888h3.012V8.148z"/>
			<path fill="#FF0000" d="M429.325,0.432h4.932v1.5h-3.108V3.78h2.904v1.488h-2.904V8.52h-1.823V0.432z"/>
			<path fill="#FF0000" d="M440.329,2.016c-0.204-0.012-0.42,0-0.708,0.024C438,2.16,437.28,3,437.077,3.9h0.035
				c0.385-0.384,0.937-0.612,1.656-0.612c1.309,0,2.412,0.924,2.412,2.544c0,1.548-1.188,2.82-2.868,2.82
				c-2.088,0-3.107-1.548-3.107-3.408c0-1.464,0.54-2.688,1.392-3.48c0.768-0.708,1.788-1.08,3-1.14
				c0.336-0.036,0.564-0.024,0.732-0.012V2.016z M438.289,7.308c0.636,0,1.044-0.588,1.044-1.38c0-0.72-0.385-1.344-1.164-1.344
				c-0.492,0-0.9,0.3-1.068,0.684c-0.06,0.108-0.084,0.252-0.084,0.468c0.036,0.828,0.432,1.572,1.26,1.572H438.289z"/>
		</g>
		<g>
			<path d="M60.245,20.567c2.664,0.024,5.184,1.032,5.376,3.264c0.144,1.632-2.016,3.12-4.68,3.12
				c-2.688-0.024-5.184-1.008-5.4-3.24C55.396,22.055,57.581,20.567,60.245,20.567z M60.893,26.399c1.152,0,1.896-1.104,1.776-1.992
				c-0.264-1.752-0.864-3.168-2.448-3.168c-1.152,0-1.824,1.128-1.68,2.016C58.805,25.007,59.309,26.399,60.893,26.399z"/>
		</g>
		<path fill="none" stroke="#000000" d="M53.534,23.279H68.2"/>
		<g>
			<path d="M109.513,54.272c0,0.216,0,1.536,0,1.536c0.912-0.816,1.416-0.984,2.424-1.008c1.2-0.024,1.968,1.176,1.992,2.136
				c0.024,0.504-0.12,1.032-0.312,1.44c-0.216,0.528-0.792,0.936-1.176,1.32c-0.432,0.432-3.552,2.568-3.552,2.616V48.128h0.624
				C109.513,48.128,109.537,51.104,109.513,54.272z M109.777,56.648c-0.312,0.6-0.264,1.632-0.264,2.376v2.064
				c0,0.024,0.864-0.72,1.344-1.176c0.432-0.408,0.768-0.864,0.936-1.584c0.192-0.72,0.12-1.488-0.336-1.992
				C111.145,55.976,110.281,55.688,109.777,56.648z"/>
		</g>
		<g>
			<path d="M111.513,39.272c0,0.216,0,1.536,0,1.536c0.912-0.816,1.416-0.984,2.424-1.008c1.2-0.024,1.968,1.176,1.992,2.136
				c0.024,0.504-0.12,1.032-0.312,1.44c-0.216,0.528-0.792,0.936-1.176,1.32c-0.432,0.432-3.552,2.568-3.552,2.616V33.128h0.624
				C111.513,33.128,111.537,36.104,111.513,39.272z M111.777,41.648c-0.312,0.6-0.264,1.632-0.264,2.376v2.064
				c0,0.024,0.864-0.72,1.344-1.176c0.432-0.408,0.768-0.864,0.936-1.584c0.192-0.72,0.12-1.488-0.336-1.992
				C113.145,40.976,112.281,40.688,111.777,41.648z"/>
		</g>
	</g>
</svg>
