<?xml version="1.0" encoding="utf-8"?>
<!-- Generator: Adobe Illustrator 10.0, SVG Export Plug-In . SVG Version: 3.0.0 Build 76)  -->
<!DOCTYPE svg PUBLIC "-//W3C//DTD SVG 1.0//EN"    "http://www.w3.org/TR/2001/REC-SVG-20010904/DTD/svg10.dtd" [
	<!ENTITY ns_flows "http://ns.adobe.com/Flows/1.0/">
	<!ENTITY ns_extend "http://ns.adobe.com/Extensibility/1.0/">
	<!ENTITY ns_ai "http://ns.adobe.com/AdobeIllustrator/10.0/">
	<!ENTITY ns_svg "http://www.w3.org/2000/svg">
	<!ENTITY ns_xlink "http://www.w3.org/1999/xlink">
]>
<svg  xmlns:x="&ns_extend;" xmlns:i="&ns_ai;" xmlns:graph="&ns_graphs;"
	 xmlns="&ns_svg;" xmlns:xlink="&ns_xlink;" xmlns:a="http://ns.adobe.com/AdobeSVGViewerExtensions/3.0/" width="485" height="165"
	 viewBox="0.428 -0.316 485 165" overflow="visible" enable-background="new 0.428 -0.316 485 165" xml:space="preserve">
	<g id="Layer_1_2_">
		<g>
			<path d="M314.234,27.336v-3.912h0.695v3.672l2.353-0.768v-3.504h0.696v3.288l0.936-0.312v2.496l-0.936,0.312v3.552l0.936-0.288
				v2.472l-0.936,0.312v3.912h-0.696v-3.696l-2.353,0.768v3.552h-0.695V35.88l-1.032,0.336V33.72l1.032-0.336v-3.576l-1.032,0.336
				v-2.472L314.234,27.336z M314.929,29.592v3.576l2.353-0.768v-3.576L314.929,29.592z"/>
		</g>
		<g>
			<path d="M305.234,20.336v-3.912h0.695v3.672l2.353-0.768v-3.504h0.696v3.288l0.936-0.312v2.496l-0.936,0.312v3.552l0.936-0.288
				v2.472l-0.936,0.312v3.912h-0.696v-3.696l-2.353,0.768v3.552h-0.695V28.88l-1.032,0.336V26.72l1.032-0.336v-3.576l-1.032,0.336
				v-2.472L305.234,20.336z M305.929,22.592v3.576l2.353-0.768v-3.576L305.929,22.592z"/>
		</g>
		<g>
			<path d="M384.906,19.865c2.664,0.024,5.184,1.032,5.376,3.264c0.144,1.632-2.016,3.12-4.68,3.12
				c-2.688-0.024-5.185-1.008-5.4-3.24C380.058,21.353,382.242,19.865,384.906,19.865z M385.553,25.697
				c1.152,0,1.896-1.104,1.776-1.992c-0.264-1.752-0.864-3.168-2.448-3.168c-1.151,0-1.823,1.128-1.68,2.016
				C383.465,24.305,383.969,25.697,385.553,25.697z"/>
		</g>
		<g>
			<path fill="none" stroke="#000000" d="M0.13,5.246h483.295"/>
			<path fill="none" stroke="#000000" d="M0.13,19.358h483.295"/>
			<path fill="none" stroke="#000000" d="M0.37,26.48h483.297"/>
			<path fill="none" stroke="#000000" d="M0,33.865h483.294"/>
			<path fill="none" stroke="#000000" d="M0,12.5h483.294"/>
		</g>
		<g>
			<path d="M30.232,16.705c0,0.96-1.2,1.8-1.848,1.8s-2.04-0.36-2.04-1.8c0-0.936,0.672-1.632,1.512-1.632
				c0.576,0,0.528-0.36,0.336-0.576c-0.528-0.552-1.488-0.96-2.664-0.624c-1.896,0.504-2.304,2.808-2.304,5.184
				c0,2.64,0.456,5.256,2.76,5.256c1.632,0,3.456-1.488,3.408-3.528h0.672c-0.024,0.624-0.432,1.92-0.84,2.424
				c-0.816,1.008-2.328,1.848-3.504,1.848c-3.168,0-5.424-2.856-5.424-6c0-3.072,2.112-5.904,5.184-5.904
				C28.072,13.152,30.232,14.376,30.232,16.705z"/>
		</g>
		<g>
			<path d="M147.234,23.336v-3.912h0.696v3.672l2.352-0.768v-3.504h0.696v3.288l0.936-0.312v2.496l-0.936,0.312v3.552l0.936-0.288
				v2.472l-0.936,0.312v3.912h-0.696v-3.696l-2.352,0.768v3.552h-0.696V31.88l-1.032,0.336V29.72l1.032-0.336v-3.576l-1.032,0.336
				v-2.472L147.234,23.336z M147.93,25.592v3.576l2.352-0.768v-3.576L147.93,25.592z"/>
		</g>
		<g>
			<path d="M7.152,33.768c-4.944-2.352-5.736-5.376-5.952-8.472c-0.24-3.36,1.896-6.768,3.888-8.664
				c1.152-1.08,2.4-2.136,3.888-3.264c-0.048-0.84-0.24-1.176-0.336-2.376c-0.024-0.504-0.336-2.856,0.168-5.568
				c0.312-1.608,2.328-5.4,3.72-5.424c1.08-0.024,2.736,4.296,2.784,6.456c0.072,3.336-0.72,4.848-1.704,6.576
				c-0.504,0.864-1.032,1.464-1.584,2.136C11.448,15.864,10.8,16.272,10.2,16.8c0,0,0.768,4.344,0.792,4.656
				c1.536-0.192,3.408,0.36,4.08,0.84c1.704,1.272,2.352,3.024,2.472,4.728c0.216,2.712-1.272,5.568-4.56,6.936
				c0,0,0.504,3.456,0.624,4.176c0.264,1.896,0.216,3.096-0.192,3.864c-0.696,1.296-1.824,2.496-4.008,2.64
				c-1.68,0.096-4.992-0.744-5.16-3.384c-0.096-1.56,0.6-3.24,2.496-3.36c1.152-0.096,2.52,0.864,2.616,2.232
				c0.096,1.176-0.672,2.4-2.664,2.952c0.312,0.432,1.248,0.936,2.592,0.936c1.392,0,2.832-0.936,3.528-2.184
				c0.432-0.816,0.384-2.28,0.216-3.624c-0.072-0.456-0.648-4.08-0.648-4.08C10.608,34.416,8.16,34.248,7.152,33.768z M7.632,28.08
				c0.048,1.152,1.008,2.496,1.896,2.952c-0.12,0.072-0.24,0.264-0.24,0.264c-0.984-0.48-1.824-1.272-2.04-1.56
				c-0.696-0.936-0.984-1.464-1.08-2.88c-0.096-1.32,0.624-3.096,2.232-4.344c0.84-0.624,1.248-0.768,1.968-0.936l-0.72-4.344
				c-0.744,0.432-3.816,2.904-5.112,4.92c-1.152,1.8-1.848,3.24-1.704,5.016c0.288,4.008,4.68,7.296,9.432,6.168
				c0,0-1.416-8.52-1.392-8.52C8.256,24.912,7.56,26.928,7.632,28.08z M9.576,12.864c2.088-1.632,4.92-4.704,4.752-7.08
				c-0.048-0.744-0.36-2.088-1.44-2.064C10.416,3.744,9.024,8.904,9.576,12.864z M12.84,33.144c2.76-0.936,2.88-3.312,2.784-4.728
				C15.528,27.24,15,24.6,11.496,24.768L12.84,33.144z"/>
		</g>
		<g>
			<path d="M51.904,27.864c2.664,0.024,5.184,1.032,5.376,3.264c0.144,1.632-2.016,3.12-4.68,3.12
				c-2.688-0.024-5.184-1.008-5.4-3.24C47.056,29.352,49.24,27.864,51.904,27.864z M52.552,33.696c1.152,0,1.896-1.104,1.776-1.992
				c-0.264-1.752-0.864-3.168-2.448-3.168c-1.152,0-1.824,1.128-1.68,2.016C50.464,32.304,50.968,33.696,52.552,33.696z"/>
		</g>
		<path fill="none" stroke="#0A0A0A" d="M483.528,4.338v29.746"/>
		<path fill="none" stroke="#0A0A0A" d="M187.525,4.338v29.746"/>
		<path fill="none" stroke="#0A0A0A" d="M244.527,4.338v29.746"/>
		<path fill="none" stroke="#0A0A0A" d="M298.528,4.338v29.746"/>
		<path fill="none" stroke="#0A0A0A" d="M132.525,4.338v29.746"/>
		<path fill="none" stroke="#0A0A0A" d="M78.525,4.338v29.746"/>
		<path fill="none" stroke="#0A0A0A" d="M354.528,5.338v29.746"/>
		<g>
			<path d="M100.904,30.865c2.664,0.024,5.184,1.032,5.376,3.264c0.144,1.632-2.016,3.12-4.68,3.12
				c-2.688-0.024-5.184-1.008-5.4-3.24C96.056,32.353,98.24,30.865,100.904,30.865z M101.552,36.697
				c1.152,0,1.896-1.104,1.776-1.992c-0.264-1.752-0.864-3.168-2.448-3.168c-1.152,0-1.824,1.128-1.68,2.016
				C99.464,35.305,99.968,36.697,101.552,36.697z"/>
		</g>
		<g>
			<path d="M158.904,23.864c2.664,0.024,5.184,1.032,5.376,3.264c0.144,1.632-2.016,3.12-4.68,3.12
				c-2.688-0.024-5.184-1.008-5.4-3.24C154.056,25.352,156.24,23.864,158.904,23.864z M159.552,29.696
				c1.152,0,1.896-1.104,1.776-1.992c-0.264-1.752-0.864-3.168-2.448-3.168c-1.152,0-1.824,1.128-1.68,2.016
				C157.464,28.304,157.968,29.696,159.552,29.696z"/>
		</g>
		<g>
			<path d="M271.906,33.864c2.664,0.024,5.184,1.032,5.376,3.264c0.144,1.632-2.016,3.12-4.68,3.12
				c-2.688-0.024-5.184-1.008-5.4-3.24C267.058,35.352,269.242,33.864,271.906,33.864z M272.554,39.696
				c1.152,0,1.896-1.104,1.776-1.992c-0.264-1.752-0.864-3.168-2.448-3.168c-1.152,0-1.824,1.128-1.68,2.016
				C270.466,38.304,270.97,39.696,272.554,39.696z"/>
		</g>
		<g>
			<path d="M385.906,51.864c2.664,0.024,5.184,1.032,5.376,3.264c0.144,1.632-2.016,3.12-4.68,3.12
				c-2.688-0.024-5.185-1.008-5.4-3.24C381.058,53.352,383.242,51.864,385.906,51.864z M386.553,57.696
				c1.152,0,1.896-1.104,1.776-1.992c-0.264-1.752-0.864-3.168-2.448-3.168c-1.151,0-1.823,1.128-1.68,2.016
				C384.465,56.304,384.969,57.696,386.553,57.696z"/>
		</g>
		<g>
			<path d="M384.906,34.864c2.664,0.024,5.184,1.032,5.376,3.264c0.144,1.632-2.016,3.12-4.68,3.12
				c-2.688-0.024-5.185-1.008-5.4-3.24C380.058,36.352,382.242,34.864,384.906,34.864z M385.553,40.696
				c1.152,0,1.896-1.104,1.776-1.992c-0.264-1.752-0.864-3.168-2.448-3.168c-1.151,0-1.823,1.128-1.68,2.016
				C383.465,39.304,383.969,40.696,385.553,40.696z"/>
		</g>
		<g>
			<path d="M51.904,34.864c2.664,0.024,5.184,1.032,5.376,3.264c0.144,1.632-2.016,3.12-4.68,3.12
				c-2.688-0.024-5.184-1.008-5.4-3.24C47.056,36.352,49.24,34.864,51.904,34.864z M52.552,40.696c1.152,0,1.896-1.104,1.776-1.992
				c-0.264-1.752-0.864-3.168-2.448-3.168c-1.152,0-1.824,1.128-1.68,2.016C50.464,39.304,50.968,40.696,52.552,40.696z"/>
		</g>
		<g>
			<path d="M51.904,44.865c2.664,0.024,5.184,1.032,5.376,3.264c0.144,1.632-2.016,3.12-4.68,3.12
				c-2.688-0.024-5.184-1.008-5.4-3.24C47.056,46.353,49.24,44.865,51.904,44.865z M52.552,50.697c1.152,0,1.896-1.104,1.776-1.992
				c-0.264-1.752-0.864-3.168-2.448-3.168c-1.152,0-1.824,1.128-1.68,2.016C50.464,49.305,50.968,50.697,52.552,50.697z"/>
		</g>
		<g>
			<path d="M100.904,23.865c2.664,0.024,5.184,1.032,5.376,3.264c0.144,1.632-2.016,3.12-4.68,3.12
				c-2.688-0.024-5.184-1.008-5.4-3.24C96.056,25.353,98.24,23.865,100.904,23.865z M101.552,29.697
				c1.152,0,1.896-1.104,1.776-1.992c-0.264-1.752-0.864-3.168-2.448-3.168c-1.152,0-1.824,1.128-1.68,2.016
				C99.464,28.305,99.968,29.697,101.552,29.697z"/>
		</g>
		<g>
			<path d="M100.904,40.865c2.664,0.024,5.184,1.032,5.376,3.264c0.144,1.632-2.016,3.12-4.68,3.12
				c-2.688-0.024-5.184-1.008-5.4-3.24C96.056,42.353,98.24,40.865,100.904,40.865z M101.552,46.697
				c1.152,0,1.896-1.104,1.776-1.992c-0.264-1.752-0.864-3.168-2.448-3.168c-1.152,0-1.824,1.128-1.68,2.016
				C99.464,45.305,99.968,46.697,101.552,46.697z"/>
		</g>
		<g>
			<path d="M158.904,12.864c2.664,0.024,5.184,1.032,5.376,3.264c0.144,1.632-2.016,3.12-4.68,3.12
				c-2.688-0.024-5.184-1.008-5.4-3.24C154.056,14.352,156.24,12.864,158.904,12.864z M159.552,18.696
				c1.152,0,1.896-1.104,1.776-1.992c-0.264-1.752-0.864-3.168-2.448-3.168c-1.152,0-1.824,1.128-1.68,2.016
				C157.464,17.304,157.968,18.696,159.552,18.696z"/>
		</g>
		<g>
			<path d="M158.904,30.864c2.664,0.024,5.184,1.032,5.376,3.264c0.144,1.632-2.016,3.12-4.68,3.12
				c-2.688-0.024-5.184-1.008-5.4-3.24C154.056,32.352,156.24,30.864,158.904,30.864z M159.552,36.696
				c1.152,0,1.896-1.104,1.776-1.992c-0.264-1.752-0.864-3.168-2.448-3.168c-1.152,0-1.824,1.128-1.68,2.016
				C157.464,35.304,157.968,36.696,159.552,36.696z"/>
		</g>
		<g>
			<path d="M272.132,9.469c2.664,0.024,5.184,1.032,5.376,3.264c0.144,1.632-2.016,3.12-4.68,3.12
				c-2.688-0.024-5.184-1.008-5.4-3.24C267.284,10.957,269.468,9.469,272.132,9.469z M272.78,15.301
				c1.152,0,1.896-1.104,1.776-1.992c-0.264-1.752-0.864-3.168-2.448-3.168c-1.152,0-1.824,1.128-1.68,2.016
				C270.692,13.909,271.196,15.301,272.78,15.301z"/>
		</g>
		<g>
			<path d="M271.906,26.864c2.664,0.024,5.184,1.032,5.376,3.264c0.144,1.632-2.016,3.12-4.68,3.12
				c-2.688-0.024-5.184-1.008-5.4-3.24C267.058,28.352,269.242,26.864,271.906,26.864z M272.554,32.696
				c1.152,0,1.896-1.104,1.776-1.992c-0.264-1.752-0.864-3.168-2.448-3.168c-1.152,0-1.824,1.128-1.68,2.016
				C270.466,31.304,270.97,32.696,272.554,32.696z"/>
		</g>
		<g>
			<path d="M271.906,16.864c2.664,0.024,5.184,1.032,5.376,3.264c0.144,1.632-2.016,3.12-4.68,3.12
				c-2.688-0.024-5.184-1.008-5.4-3.24C267.058,18.352,269.242,16.864,271.906,16.864z M272.554,22.696
				c1.152,0,1.896-1.104,1.776-1.992c-0.264-1.752-0.864-3.168-2.448-3.168c-1.152,0-1.824,1.128-1.68,2.016
				C270.466,21.304,270.97,22.696,272.554,22.696z"/>
		</g>
		<g>
			<path d="M323.906,12.865c2.664,0.024,5.184,1.032,5.376,3.264c0.144,1.632-2.016,3.12-4.68,3.12
				c-2.688-0.024-5.185-1.008-5.4-3.24C319.058,14.353,321.242,12.865,323.906,12.865z M324.553,18.697
				c1.152,0,1.896-1.104,1.776-1.992c-0.264-1.752-0.864-3.168-2.448-3.168c-1.151,0-1.823,1.128-1.68,2.016
				C322.465,17.305,322.969,18.697,324.553,18.697z"/>
		</g>
		<g>
			<path d="M434.052,41.436c0,0.216,0,1.536,0,1.536c0.912-0.816,1.416-0.984,2.424-1.008c1.2-0.024,1.968,1.176,1.992,2.136
				c0.024,0.504-0.12,1.032-0.312,1.44c-0.217,0.528-0.793,0.936-1.177,1.32c-0.432,0.432-3.552,2.568-3.552,2.616V35.292h0.624
				C434.052,35.292,434.077,38.268,434.052,41.436z M434.316,43.812c-0.312,0.6-0.264,1.632-0.264,2.376v2.064
				c0,0.024,0.864-0.72,1.344-1.176c0.433-0.408,0.769-0.864,0.937-1.584c0.191-0.72,0.12-1.488-0.336-1.992
				C435.684,43.14,434.82,42.852,434.316,43.812z"/>
		</g>
		<g>
			<path d="M437.052,33.436c0,0.216,0,1.536,0,1.536c0.912-0.816,1.416-0.984,2.424-1.008c1.2-0.024,1.968,1.176,1.992,2.136
				c0.024,0.504-0.12,1.032-0.312,1.44c-0.217,0.528-0.793,0.936-1.177,1.32c-0.432,0.432-3.552,2.568-3.552,2.616V27.292h0.624
				C437.052,27.292,437.077,30.268,437.052,33.436z M437.316,35.812c-0.312,0.6-0.264,1.632-0.264,2.376v2.064
				c0,0.024,0.864-0.72,1.344-1.176c0.433-0.408,0.769-0.864,0.937-1.584c0.191-0.72,0.12-1.488-0.336-1.992
				C438.684,35.14,437.82,34.852,437.316,35.812z"/>
		</g>
		<g>
			<path d="M434.825,16.832c0,0.216,0,1.536,0,1.536c0.912-0.816,1.416-0.984,2.424-1.008c1.2-0.024,1.968,1.176,1.992,2.136
				c0.024,0.504-0.12,1.032-0.313,1.44c-0.216,0.528-0.792,0.936-1.176,1.32c-0.432,0.432-3.552,2.568-3.552,2.616V10.688h0.624
				C434.825,10.688,434.849,13.664,434.825,16.832z M435.088,19.208c-0.312,0.6-0.264,1.632-0.264,2.376v2.064
				c0,0.024,0.864-0.72,1.344-1.176c0.433-0.408,0.769-0.864,0.937-1.584c0.191-0.72,0.12-1.488-0.336-1.992
				C436.457,18.536,435.592,18.248,435.088,19.208z"/>
		</g>
		<path fill="none" stroke="#0A0A0A" d="M414.528,5.338v29.746"/>
		<g>
			<path d="M90.46,22.94v-3.912h0.696V22.7l2.352-0.768v-3.504h0.696v3.288l0.936-0.312V23.9l-0.936,0.312v3.552l0.936-0.288v2.472
				l-0.936,0.312v3.912h-0.696v-3.696l-2.352,0.768v3.552H90.46v-3.312l-1.032,0.336v-2.496l1.032-0.336v-3.576l-1.032,0.336v-2.472
				L90.46,22.94z M91.156,25.196v3.576l2.352-0.768v-3.576L91.156,25.196z"/>
		</g>
		<g>
			<path d="M101.132,16.468c2.664,0.024,5.184,1.032,5.376,3.264c0.144,1.632-2.016,3.12-4.68,3.12
				c-2.688-0.024-5.184-1.008-5.4-3.24C96.284,17.956,98.468,16.468,101.132,16.468z M101.78,22.3c1.152,0,1.896-1.104,1.776-1.992
				c-0.264-1.752-0.864-3.168-2.448-3.168c-1.152,0-1.824,1.128-1.68,2.016C99.692,20.908,100.196,22.3,101.78,22.3z"/>
		</g>
		<path fill="none" stroke="#000000" stroke-miterlimit="1" d="M95.785,39.684h11.644"/>
		<g>
			<path fill="none" stroke="#000000" d="M379.428,54.684h12"/>
			<path fill="none" stroke="#000000" d="M379.094,47.684h12"/>
			<path fill="none" stroke="#000000" d="M379.094,41.018h12"/>
		</g>
		<g>
			<path fill="none" stroke="#000000" d="M46.428,47.684h12"/>
			<path fill="none" stroke="#000000" d="M46.094,40.684h12"/>
		</g>
		<g>
			<g>
				<path d="M159.806,36.972c2.664,0.024,5.184,1.032,5.376,3.264c0.144,1.632-2.016,3.12-4.68,3.12
					c-2.688-0.024-5.184-1.008-5.4-3.24C154.958,38.46,157.142,36.972,159.806,36.972z M160.454,42.804
					c1.152,0,1.896-1.104,1.776-1.992c-0.264-1.752-0.864-3.168-2.448-3.168c-1.152,0-1.824,1.128-1.68,2.016
					C158.366,41.412,158.87,42.804,160.454,42.804z"/>
			</g>
			<path fill="none" stroke="#000000" d="M153.094,40.684h14.667"/>
		</g>
		<g>
			<path stroke="#000000" d="M310.311,39.896h-1.127v-1.275h1.127V39.896z"/>
			<path stroke="#000000" d="M311.062,44.544h-1.878V43.11h1.878V44.544z"/>
			<path stroke="#000000" d="M316.043,40.003h-1.795v-1.276h1.795V40.003z"/>
			<path stroke="#000000" d="M315.474,44.465h-1.795V43.19h1.795V44.465z"/>
			<g>
				<g>
					<path fill="none" d="M311.25,39.365"/>
					<path d="M311.245,39.415c0.064,0,0.074-0.1,0.01-0.1S311.18,39.415,311.245,39.415z"/>
				</g>
			</g>
			<path fill="none" stroke="#000000" d="M310.311,38.621l5.163,4.569"/>
			<path fill="none" stroke="#000000" d="M315.145,39.791l-5.717,2.894"/>
		</g>
		<g>
			<path d="M213.904,19.864c2.664,0.024,5.184,1.032,5.376,3.264c0.144,1.632-2.016,3.12-4.68,3.12
				c-2.688-0.024-5.184-1.008-5.4-3.24C209.056,21.352,211.24,19.864,213.904,19.864z M214.552,25.696
				c1.152,0,1.896-1.104,1.776-1.992c-0.264-1.752-0.864-3.168-2.448-3.168c-1.152,0-1.824,1.128-1.68,2.016
				C212.464,24.304,212.968,25.696,214.552,25.696z"/>
		</g>
		<g>
			<path d="M213.904,30.864c2.664,0.024,5.184,1.032,5.376,3.264c0.144,1.632-2.016,3.12-4.68,3.12
				c-2.688-0.024-5.184-1.008-5.4-3.24C209.056,32.352,211.24,30.864,213.904,30.864z M214.552,36.696
				c1.152,0,1.896-1.104,1.776-1.992c-0.264-1.752-0.864-3.168-2.448-3.168c-1.152,0-1.824,1.128-1.68,2.016
				C212.464,35.304,212.968,36.696,214.552,36.696z"/>
		</g>
		<g>
			<g>
				<path d="M214.806,36.972c2.664,0.024,5.184,1.032,5.376,3.264c0.144,1.632-2.016,3.12-4.68,3.12
					c-2.688-0.024-5.184-1.008-5.4-3.24C209.958,38.46,212.142,36.972,214.806,36.972z M215.454,42.804
					c1.152,0,1.896-1.104,1.776-1.992c-0.264-1.752-0.864-3.168-2.448-3.168c-1.152,0-1.824,1.128-1.68,2.016
					C213.366,41.412,213.87,42.804,215.454,42.804z"/>
			</g>
			<path fill="none" stroke="#000000" d="M208.094,40.684h14.667"/>
		</g>
		<g>
			<path d="M202.234,37.336v-3.912h0.696v3.672l2.352-0.768v-3.504h0.696v3.288l0.936-0.312v2.496l-0.936,0.312v3.552l0.936-0.288
				v2.472l-0.936,0.312v3.912h-0.696v-3.696l-2.352,0.768v3.552h-0.696V45.88l-1.032,0.336V43.72l1.032-0.336v-3.576l-1.032,0.336
				v-2.472L202.234,37.336z M202.93,39.592v3.576l2.352-0.768v-3.576L202.93,39.592z"/>
		</g>
		<g>
			<path d="M323.904,27.864c2.664,0.024,5.184,1.032,5.376,3.264c0.144,1.632-2.016,3.12-4.68,3.12
				c-2.688-0.024-5.185-1.008-5.4-3.24C319.056,29.352,321.24,27.864,323.904,27.864z M324.551,33.696
				c1.152,0,1.896-1.104,1.776-1.992c-0.264-1.752-0.864-3.168-2.448-3.168c-1.151,0-1.823,1.128-1.68,2.016
				C322.463,32.304,322.967,33.696,324.551,33.696z"/>
		</g>
		<g>
			<path d="M323.904,19.864c2.664,0.024,5.184,1.032,5.376,3.264c0.144,1.632-2.016,3.12-4.68,3.12
				c-2.688-0.024-5.185-1.008-5.4-3.24C319.056,21.352,321.24,19.864,323.904,19.864z M324.551,25.696
				c1.152,0,1.896-1.104,1.776-1.992c-0.264-1.752-0.864-3.168-2.448-3.168c-1.151,0-1.823,1.128-1.68,2.016
				C322.463,24.304,322.967,25.696,324.551,25.696z"/>
		</g>
		<g>
			<g>
				<path d="M324.806,36.972c2.664,0.024,5.184,1.032,5.376,3.264c0.144,1.632-2.016,3.12-4.68,3.12
					c-2.688-0.024-5.185-1.008-5.4-3.24C319.958,38.46,322.142,36.972,324.806,36.972z M325.454,42.804
					c1.152,0,1.896-1.104,1.776-1.992c-0.264-1.752-0.864-3.168-2.448-3.168c-1.151,0-1.823,1.128-1.68,2.016
					C323.366,41.412,323.87,42.804,325.454,42.804z"/>
			</g>
			<path fill="none" stroke="#000000" d="M318.094,40.684h14.667"/>
		</g>
		<g>
			<path stroke="#000000" d="M312.265,14.39h-1.127v-1.275h1.127V14.39z"/>
			<path stroke="#000000" d="M313.016,19.039h-1.878v-1.435h1.878V19.039z"/>
			<path stroke="#000000" d="M317.998,14.497h-1.795v-1.276h1.795V14.497z"/>
			<path stroke="#000000" d="M317.428,18.959h-1.795v-1.275h1.795V18.959z"/>
			<g>
				<g>
					<path fill="none" d="M313.204,13.859"/>
					<path d="M313.199,13.909c0.063,0,0.074-0.1,0.01-0.1C313.145,13.809,313.134,13.909,313.199,13.909z"/>
				</g>
			</g>
			<path fill="none" stroke="#000000" d="M312.265,13.115l5.163,4.569"/>
			<path fill="none" stroke="#000000" d="M317.099,14.285l-5.717,2.894"/>
		</g>
		<g>
			<path d="M373.46,51.94v-3.912h0.695V51.7l2.353-0.768v-3.504h0.696v3.288l0.936-0.312V52.9l-0.936,0.312v3.552l0.936-0.288v2.472
				l-0.936,0.312v3.912h-0.696v-3.696l-2.353,0.768v3.552h-0.695v-3.312l-1.032,0.336v-2.496l1.032-0.336v-3.576l-1.032,0.336
				v-2.472L373.46,51.94z M374.156,54.196v3.576l2.353-0.768v-3.576L374.156,54.196z"/>
		</g>
		<g>
			<path d="M446.904,33.865c2.664,0.024,5.184,1.032,5.376,3.264c0.144,1.632-2.016,3.12-4.68,3.12
				c-2.688-0.024-5.185-1.008-5.4-3.24C442.056,35.353,444.24,33.865,446.904,33.865z M447.551,39.697
				c1.152,0,1.896-1.104,1.776-1.992c-0.264-1.752-0.864-3.168-2.448-3.168c-1.151,0-1.823,1.128-1.68,2.016
				C445.463,38.305,445.967,39.697,447.551,39.697z"/>
		</g>
		<g>
			<path d="M446.904,16.865c2.664,0.024,5.184,1.032,5.376,3.264c0.144,1.632-2.016,3.12-4.68,3.12
				c-2.688-0.024-5.185-1.008-5.4-3.24C442.056,18.353,444.24,16.865,446.904,16.865z M447.551,22.697
				c1.152,0,1.896-1.104,1.776-1.992c-0.264-1.752-0.864-3.168-2.448-3.168c-1.151,0-1.823,1.128-1.68,2.016
				C445.463,21.305,445.967,22.697,447.551,22.697z"/>
		</g>
		<g>
			<path d="M446.904,41.865c2.664,0.024,5.184,1.032,5.376,3.264c0.144,1.632-2.016,3.12-4.68,3.12
				c-2.688-0.024-5.185-1.008-5.4-3.24C442.056,43.353,444.24,41.865,446.904,41.865z M447.551,47.697
				c1.152,0,1.896-1.104,1.776-1.992c-0.264-1.752-0.864-3.168-2.448-3.168c-1.151,0-1.823,1.128-1.68,2.016
				C445.463,46.305,445.967,47.697,447.551,47.697z"/>
		</g>
		<g>
			<path d="M447.132,26.468c2.664,0.024,5.184,1.032,5.376,3.264c0.144,1.632-2.016,3.12-4.68,3.12
				c-2.688-0.024-5.185-1.008-5.4-3.24C442.285,27.956,444.468,26.468,447.132,26.468z M447.78,32.3
				c1.152,0,1.896-1.104,1.776-1.992c-0.264-1.752-0.864-3.168-2.448-3.168c-1.151,0-1.823,1.128-1.68,2.016
				C445.692,30.908,446.196,32.3,447.78,32.3z"/>
		</g>
		<path fill="none" stroke="#000000" stroke-miterlimit="1" d="M441.785,40.684h11.644"/>
		<g>
			<path d="M258.46,135.94v-3.912h0.696v3.672l2.352-0.768v-3.504h0.696v3.288l0.936-0.312v2.496l-0.936,0.312v3.552l0.936-0.288
				v2.472l-0.936,0.312v3.912h-0.696v-3.696l-2.352,0.768v3.552h-0.696v-3.312l-1.032,0.336v-2.496l1.032-0.336v-3.576l-1.032,0.336
				v-2.472L258.46,135.94z M259.156,138.196v3.576l2.352-0.768v-3.576L259.156,138.196z"/>
		</g>
		<g>
			<path d="M257.234,117.336v-3.912h0.696v3.672l2.352-0.768v-3.504h0.696v3.288l0.936-0.312v2.496l-0.936,0.312v3.552l0.936-0.288
				v2.472l-0.936,0.312v3.912h-0.696v-3.696l-2.352,0.768v3.552h-0.696v-3.312l-1.032,0.336v-2.496l1.032-0.336v-3.576l-1.032,0.336
				v-2.472L257.234,117.336z M257.93,119.592v3.576l2.352-0.768v-3.576L257.93,119.592z"/>
		</g>
		<g>
			<path d="M383.906,124.865c2.664,0.024,5.184,1.032,5.376,3.264c0.144,1.632-2.016,3.12-4.68,3.12
				c-2.688-0.024-5.185-1.008-5.4-3.24C379.058,126.353,381.242,124.865,383.906,124.865z M384.553,130.697
				c1.152,0,1.896-1.104,1.776-1.992c-0.264-1.752-0.864-3.168-2.448-3.168c-1.151,0-1.823,1.128-1.68,2.016
				C382.465,129.305,382.969,130.697,384.553,130.697z"/>
		</g>
		<g>
			<path fill="none" stroke="#000000" d="M1.13,110.246h483.295"/>
			<path fill="none" stroke="#000000" d="M1.13,124.358h483.295"/>
			<path fill="none" stroke="#000000" d="M1.37,131.48h483.297"/>
			<path fill="none" stroke="#000000" d="M1,138.865h483.294"/>
			<path fill="none" stroke="#000000" d="M1,117.5h483.294"/>
		</g>
		<g>
			<path d="M148.234,142.336v-3.912h0.696v3.672l2.352-0.768v-3.504h0.696v3.288l0.936-0.312v2.496l-0.936,0.312v3.552l0.936-0.288
				v2.472l-0.936,0.312v3.912h-0.696v-3.696l-2.352,0.768v3.552h-0.696v-3.312l-1.032,0.336v-2.496l1.032-0.336v-3.576l-1.032,0.336
				v-2.472L148.234,142.336z M148.93,144.592v3.576l2.352-0.768v-3.576L148.93,144.592z"/>
		</g>
		<g>
			<path d="M8.152,138.768c-4.944-2.352-5.736-5.376-5.952-8.472c-0.24-3.36,1.896-6.768,3.888-8.664
				c1.152-1.08,2.4-2.136,3.888-3.264c-0.048-0.84-0.24-1.176-0.336-2.376c-0.024-0.504-0.336-2.856,0.168-5.568
				c0.312-1.608,2.328-5.4,3.72-5.424c1.08-0.024,2.736,4.296,2.784,6.456c0.072,3.336-0.72,4.848-1.704,6.576
				c-0.504,0.864-1.032,1.464-1.584,2.136c-0.576,0.696-1.224,1.104-1.824,1.632c0,0,0.768,4.344,0.792,4.656
				c1.536-0.192,3.408,0.36,4.08,0.84c1.704,1.272,2.352,3.024,2.472,4.728c0.216,2.712-1.272,5.568-4.56,6.936
				c0,0,0.504,3.456,0.624,4.176c0.264,1.896,0.216,3.096-0.192,3.864c-0.696,1.296-1.824,2.496-4.008,2.64
				c-1.68,0.096-4.992-0.744-5.16-3.384c-0.096-1.56,0.6-3.24,2.496-3.36c1.152-0.096,2.52,0.864,2.616,2.232
				c0.096,1.176-0.672,2.4-2.664,2.952c0.312,0.432,1.248,0.936,2.592,0.936c1.392,0,2.832-0.936,3.528-2.184
				c0.432-0.816,0.384-2.28,0.216-3.624c-0.072-0.456-0.648-4.08-0.648-4.08C11.608,139.416,9.16,139.248,8.152,138.768z
				 M8.632,133.08c0.048,1.152,1.008,2.496,1.896,2.952c-0.12,0.072-0.24,0.264-0.24,0.264c-0.984-0.48-1.824-1.272-2.04-1.56
				c-0.696-0.936-0.984-1.464-1.08-2.88c-0.096-1.32,0.624-3.096,2.232-4.344c0.84-0.624,1.248-0.768,1.968-0.936l-0.72-4.344
				c-0.744,0.432-3.816,2.904-5.112,4.92c-1.152,1.8-1.848,3.24-1.704,5.016c0.288,4.008,4.68,7.296,9.432,6.168
				c0,0-1.416-8.52-1.392-8.52C9.256,129.912,8.56,131.928,8.632,133.08z M10.576,117.864c2.088-1.632,4.92-4.704,4.752-7.08
				c-0.048-0.744-0.36-2.088-1.44-2.064C11.416,108.744,10.024,113.904,10.576,117.864z M13.84,138.144
				c2.76-0.936,2.88-3.312,2.784-4.728c-0.096-1.176-0.624-3.816-4.128-3.648L13.84,138.144z"/>
		</g>
		<g>
			<path d="M52.904,128.864c2.664,0.024,5.184,1.032,5.376,3.264c0.144,1.632-2.016,3.12-4.68,3.12
				c-2.688-0.024-5.184-1.008-5.4-3.24C48.056,130.352,50.24,128.864,52.904,128.864z M53.552,134.696
				c1.152,0,1.896-1.104,1.776-1.992c-0.264-1.752-0.864-3.168-2.448-3.168c-1.152,0-1.824,1.128-1.68,2.016
				C51.464,133.304,51.968,134.696,53.552,134.696z"/>
		</g>
		<path fill="none" stroke="#0A0A0A" d="M484.528,109.338v29.746"/>
		<path fill="none" stroke="#0A0A0A" d="M188.525,109.338v29.746"/>
		<path fill="none" stroke="#0A0A0A" d="M245.527,109.338v29.746"/>
		<path fill="none" stroke="#0A0A0A" d="M299.528,109.338v29.746"/>
		<path fill="none" stroke="#0A0A0A" d="M133.525,109.338v29.746"/>
		<path fill="none" stroke="#0A0A0A" d="M79.525,109.338v29.746"/>
		<path fill="none" stroke="#0A0A0A" d="M355.528,110.338v29.746"/>
		<g>
			<path d="M101.904,135.865c2.664,0.024,5.184,1.032,5.376,3.264c0.144,1.632-2.016,3.12-4.68,3.12
				c-2.688-0.024-5.184-1.008-5.4-3.24C97.056,137.353,99.24,135.865,101.904,135.865z M102.552,141.697
				c1.152,0,1.896-1.104,1.776-1.992c-0.264-1.752-0.864-3.168-2.448-3.168c-1.152,0-1.824,1.128-1.68,2.016
				C100.464,140.305,100.968,141.697,102.552,141.697z"/>
		</g>
		<g>
			<path d="M159.904,131.864c2.664,0.024,5.184,1.032,5.376,3.264c0.144,1.632-2.016,3.12-4.68,3.12
				c-2.688-0.024-5.184-1.008-5.4-3.24C155.056,133.352,157.24,131.864,159.904,131.864z M160.552,137.696
				c1.152,0,1.896-1.104,1.776-1.992c-0.264-1.752-0.864-3.168-2.448-3.168c-1.152,0-1.824,1.128-1.68,2.016
				C158.464,136.304,158.968,137.696,160.552,137.696z"/>
		</g>
		<g>
			<path d="M268.906,135.864c2.664,0.024,5.184,1.032,5.376,3.264c0.144,1.632-2.016,3.12-4.68,3.12
				c-2.688-0.024-5.184-1.008-5.4-3.24C264.058,137.352,266.242,135.864,268.906,135.864z M269.554,141.696
				c1.152,0,1.896-1.104,1.776-1.992c-0.264-1.752-0.864-3.168-2.448-3.168c-1.152,0-1.824,1.128-1.68,2.016
				C267.466,140.304,267.97,141.696,269.554,141.696z"/>
		</g>
		<g>
			<path d="M383.906,149.864c2.664,0.024,5.184,1.032,5.376,3.264c0.144,1.632-2.016,3.12-4.68,3.12
				c-2.688-0.024-5.185-1.008-5.4-3.24C379.058,151.352,381.242,149.864,383.906,149.864z M384.553,155.696
				c1.152,0,1.896-1.104,1.776-1.992c-0.264-1.752-0.864-3.168-2.448-3.168c-1.151,0-1.823,1.128-1.68,2.016
				C382.465,154.304,382.969,155.696,384.553,155.696z"/>
		</g>
		<g>
			<path d="M383.906,139.864c2.664,0.024,5.184,1.032,5.376,3.264c0.144,1.632-2.016,3.12-4.68,3.12
				c-2.688-0.024-5.185-1.008-5.4-3.24C379.058,141.352,381.242,139.864,383.906,139.864z M384.553,145.696
				c1.152,0,1.896-1.104,1.776-1.992c-0.264-1.752-0.864-3.168-2.448-3.168c-1.151,0-1.823,1.128-1.68,2.016
				C382.465,144.304,382.969,145.696,384.553,145.696z"/>
		</g>
		<g>
			<path d="M52.904,121.864c2.664,0.024,5.184,1.032,5.376,3.264c0.144,1.632-2.016,3.12-4.68,3.12
				c-2.688-0.024-5.184-1.008-5.4-3.24C48.056,123.352,50.24,121.864,52.904,121.864z M53.552,127.696
				c1.152,0,1.896-1.104,1.776-1.992c-0.264-1.752-0.864-3.168-2.448-3.168c-1.152,0-1.824,1.128-1.68,2.016
				C51.464,126.304,51.968,127.696,53.552,127.696z"/>
		</g>
		<g>
			<path d="M52.904,114.865c2.664,0.024,5.184,1.032,5.376,3.264c0.144,1.632-2.016,3.12-4.68,3.12
				c-2.688-0.024-5.184-1.008-5.4-3.24C48.056,116.353,50.24,114.865,52.904,114.865z M53.552,120.697
				c1.152,0,1.896-1.104,1.776-1.992c-0.264-1.752-0.864-3.168-2.448-3.168c-1.152,0-1.824,1.128-1.68,2.016
				C51.464,119.305,51.968,120.697,53.552,120.697z"/>
		</g>
		<g>
			<path d="M101.904,124.865c2.664,0.024,5.184,1.032,5.376,3.264c0.144,1.632-2.016,3.12-4.68,3.12
				c-2.688-0.024-5.184-1.008-5.4-3.24C97.056,126.353,99.24,124.865,101.904,124.865z M102.552,130.697
				c1.152,0,1.896-1.104,1.776-1.992c-0.264-1.752-0.864-3.168-2.448-3.168c-1.152,0-1.824,1.128-1.68,2.016
				C100.464,129.305,100.968,130.697,102.552,130.697z"/>
		</g>
		<g>
			<path d="M269.132,117.468c2.664,0.024,5.184,1.032,5.376,3.264c0.144,1.632-2.016,3.12-4.68,3.12
				c-2.688-0.024-5.184-1.008-5.4-3.24C264.284,118.956,266.468,117.468,269.132,117.468z M269.78,123.3
				c1.152,0,1.896-1.104,1.776-1.992c-0.264-1.752-0.864-3.168-2.448-3.168c-1.152,0-1.824,1.128-1.68,2.016
				C267.692,121.908,268.196,123.3,269.78,123.3z"/>
		</g>
		<g>
			<path d="M159.904,117.864c2.664,0.024,5.184,1.032,5.376,3.264c0.144,1.632-2.016,3.12-4.68,3.12
				c-2.688-0.024-5.184-1.008-5.4-3.24C155.056,119.352,157.24,117.864,159.904,117.864z M160.552,123.696
				c1.152,0,1.896-1.104,1.776-1.992c-0.264-1.752-0.864-3.168-2.448-3.168c-1.152,0-1.824,1.128-1.68,2.016
				C158.464,122.304,158.968,123.696,160.552,123.696z"/>
		</g>
		<g>
			<path d="M159.904,107.864c2.664,0.024,5.184,1.032,5.376,3.264c0.144,1.632-2.016,3.12-4.68,3.12
				c-2.688-0.024-5.184-1.008-5.4-3.24C155.056,109.352,157.24,107.864,159.904,107.864z M160.552,113.696
				c1.152,0,1.896-1.104,1.776-1.992c-0.264-1.752-0.864-3.168-2.448-3.168c-1.152,0-1.824,1.128-1.68,2.016
				C158.464,112.304,158.968,113.696,160.552,113.696z"/>
		</g>
		<g>
			<path d="M270.132,152.469c2.664,0.024,5.184,1.032,5.376,3.264c0.144,1.632-2.016,3.12-4.68,3.12
				c-2.688-0.024-5.184-1.008-5.4-3.24C265.284,153.957,267.468,152.469,270.132,152.469z M270.78,158.301
				c1.152,0,1.896-1.104,1.776-1.992c-0.264-1.752-0.864-3.168-2.448-3.168c-1.152,0-1.824,1.128-1.68,2.016
				C268.692,156.909,269.196,158.301,270.78,158.301z"/>
		</g>
		<g>
			<path d="M214.906,117.864c2.664,0.024,5.184,1.032,5.376,3.264c0.144,1.632-2.016,3.12-4.68,3.12
				c-2.688-0.024-5.184-1.008-5.4-3.24C210.058,119.352,212.242,117.864,214.906,117.864z M215.554,123.696
				c1.152,0,1.896-1.104,1.776-1.992c-0.264-1.752-0.864-3.168-2.448-3.168c-1.152,0-1.824,1.128-1.68,2.016
				C213.466,122.304,213.97,123.696,215.554,123.696z"/>
		</g>
		<g>
			<path d="M159.906,124.864c2.664,0.024,5.184,1.032,5.376,3.264c0.144,1.632-2.016,3.12-4.68,3.12
				c-2.688-0.024-5.184-1.008-5.4-3.24C155.058,126.352,157.242,124.864,159.906,124.864z M160.554,130.696
				c1.152,0,1.896-1.104,1.776-1.992c-0.264-1.752-0.864-3.168-2.448-3.168c-1.152,0-1.824,1.128-1.68,2.016
				C158.466,129.304,158.97,130.696,160.554,130.696z"/>
		</g>
		<g>
			<path d="M324.906,114.865c2.664,0.024,5.184,1.032,5.376,3.264c0.144,1.632-2.016,3.12-4.68,3.12
				c-2.688-0.024-5.185-1.008-5.4-3.24C320.058,116.353,322.242,114.865,324.906,114.865z M325.553,120.697
				c1.152,0,1.896-1.104,1.776-1.992c-0.264-1.752-0.864-3.168-2.448-3.168c-1.151,0-1.823,1.128-1.68,2.016
				C323.465,119.305,323.969,120.697,325.553,120.697z"/>
		</g>
		<g>
			<path d="M90.052,135.436c0,0.216,0,1.536,0,1.536c0.912-0.816,1.416-0.984,2.424-1.008c1.2-0.024,1.968,1.176,1.992,2.136
				c0.024,0.504-0.12,1.032-0.312,1.44c-0.216,0.528-0.792,0.936-1.176,1.32c-0.432,0.432-3.552,2.568-3.552,2.616v-14.184h0.624
				C90.052,129.292,90.076,132.268,90.052,135.436z M90.316,137.812c-0.312,0.6-0.264,1.632-0.264,2.376v2.064
				c0,0.024,0.864-0.72,1.344-1.176c0.432-0.408,0.768-0.864,0.936-1.584c0.192-0.72,0.12-1.488-0.336-1.992
				C91.684,137.14,90.82,136.852,90.316,137.812z"/>
		</g>
		<g>
			<path d="M43.052,113.436c0,0.216,0,1.536,0,1.536c0.912-0.816,1.416-0.984,2.424-1.008c1.2-0.024,1.968,1.176,1.992,2.136
				c0.024,0.504-0.12,1.032-0.312,1.44c-0.216,0.528-0.792,0.936-1.176,1.32c-0.432,0.432-3.552,2.568-3.552,2.616v-14.184h0.624
				C43.052,107.292,43.076,110.268,43.052,113.436z M43.316,115.812c-0.312,0.6-0.264,1.632-0.264,2.376v2.064
				c0,0.024,0.864-0.72,1.344-1.176c0.432-0.408,0.768-0.864,0.936-1.584c0.192-0.72,0.12-1.488-0.336-1.992
				C44.684,115.14,43.82,114.852,43.316,115.812z"/>
		</g>
		<g>
			<path d="M37.825,120.832c0,0.216,0,1.536,0,1.536c0.912-0.816,1.416-0.984,2.424-1.008c1.2-0.024,1.968,1.176,1.992,2.136
				c0.024,0.504-0.12,1.032-0.312,1.44c-0.216,0.528-0.792,0.936-1.176,1.32c-0.432,0.432-3.552,2.568-3.552,2.616v-14.184h0.624
				C37.825,114.688,37.849,117.664,37.825,120.832z M38.089,123.208c-0.312,0.6-0.264,1.632-0.264,2.376v2.064
				c0,0.024,0.864-0.72,1.344-1.176c0.432-0.408,0.768-0.864,0.936-1.584c0.192-0.72,0.12-1.488-0.336-1.992
				C39.457,122.536,38.593,122.248,38.089,123.208z"/>
		</g>
		<path fill="none" stroke="#0A0A0A" d="M415.528,110.338v29.746"/>
		<g>
			<path d="M251.46,141.94v-3.912h0.696v3.672l2.352-0.768v-3.504h0.696v3.288l0.936-0.312v2.496l-0.936,0.312v3.552l0.936-0.288
				v2.472l-0.936,0.312v3.912h-0.696v-3.696l-2.352,0.768v3.552h-0.696v-3.312l-1.032,0.336v-2.496l1.032-0.336v-3.576l-1.032,0.336
				v-2.472L251.46,141.94z M252.156,144.196v3.576l2.352-0.768v-3.576L252.156,144.196z"/>
		</g>
		<g>
			<path d="M102.132,110.468c2.664,0.024,5.184,1.032,5.376,3.264c0.144,1.632-2.016,3.12-4.68,3.12
				c-2.688-0.024-5.184-1.008-5.4-3.24C97.284,111.956,99.468,110.468,102.132,110.468z M102.78,116.3
				c1.152,0,1.896-1.104,1.776-1.992c-0.264-1.752-0.864-3.168-2.448-3.168c-1.152,0-1.824,1.128-1.68,2.016
				C100.692,114.908,101.196,116.3,102.78,116.3z"/>
		</g>
		<path fill="none" stroke="#000000" stroke-miterlimit="1" d="M264.785,151.684h11.644"/>
		<g>
			<path fill="none" stroke="#000000" d="M378.428,152.684h12"/>
			<path fill="none" stroke="#000000" d="M378.094,145.684h12"/>
		</g>
		<g>
			<g>
				<path d="M102.806,140.972c2.664,0.024,5.184,1.032,5.376,3.264c0.144,1.632-2.016,3.12-4.68,3.12
					c-2.688-0.024-5.184-1.008-5.4-3.24C97.958,142.46,100.142,140.972,102.806,140.972z M103.454,146.804
					c1.152,0,1.896-1.104,1.776-1.992c-0.264-1.752-0.864-3.168-2.448-3.168c-1.152,0-1.824,1.128-1.68,2.016
					C101.366,145.412,101.87,146.804,103.454,146.804z"/>
			</g>
			<path fill="none" stroke="#000000" d="M96.094,144.684h14.667"/>
		</g>
		<g>
			<path d="M214.904,124.864c2.664,0.024,5.184,1.032,5.376,3.264c0.144,1.632-2.016,3.12-4.68,3.12
				c-2.688-0.024-5.184-1.008-5.4-3.24C210.056,126.352,212.24,124.864,214.904,124.864z M215.552,130.696
				c1.152,0,1.896-1.104,1.776-1.992c-0.264-1.752-0.864-3.168-2.448-3.168c-1.152,0-1.824,1.128-1.68,2.016
				C213.464,129.304,213.968,130.696,215.552,130.696z"/>
		</g>
		<g>
			<path d="M214.904,135.864c2.664,0.024,5.184,1.032,5.376,3.264c0.144,1.632-2.016,3.12-4.68,3.12
				c-2.688-0.024-5.184-1.008-5.4-3.24C210.056,137.352,212.24,135.864,214.904,135.864z M215.552,141.696
				c1.152,0,1.896-1.104,1.776-1.992c-0.264-1.752-0.864-3.168-2.448-3.168c-1.152,0-1.824,1.128-1.68,2.016
				C213.464,140.304,213.968,141.696,215.552,141.696z"/>
		</g>
		<g>
			<g>
				<path d="M160.806,141.972c2.664,0.024,5.184,1.032,5.376,3.264c0.144,1.632-2.016,3.12-4.68,3.12
					c-2.688-0.024-5.184-1.008-5.4-3.24C155.958,143.46,158.142,141.972,160.806,141.972z M161.454,147.804
					c1.152,0,1.896-1.104,1.776-1.992c-0.264-1.752-0.864-3.168-2.448-3.168c-1.152,0-1.824,1.128-1.68,2.016
					C159.366,146.412,159.87,147.804,161.454,147.804z"/>
			</g>
			<path fill="none" stroke="#000000" d="M154.094,145.684h14.667"/>
		</g>
		<g>
			<path d="M147.234,117.336v-3.912h0.696v3.672l2.352-0.768v-3.504h0.696v3.288l0.936-0.312v2.496l-0.936,0.312v3.552l0.936-0.288
				v2.472l-0.936,0.312v3.912h-0.696v-3.696l-2.352,0.768v3.552h-0.696v-3.312l-1.032,0.336v-2.496l1.032-0.336v-3.576l-1.032,0.336
				v-2.472L147.234,117.336z M147.93,119.592v3.576l2.352-0.768v-3.576L147.93,119.592z"/>
		</g>
		<g>
			<path d="M324.904,128.864c2.664,0.024,5.184,1.032,5.376,3.264c0.144,1.632-2.016,3.12-4.68,3.12
				c-2.688-0.024-5.185-1.008-5.4-3.24C320.056,130.352,322.24,128.864,324.904,128.864z M325.551,134.696
				c1.152,0,1.896-1.104,1.776-1.992c-0.264-1.752-0.864-3.168-2.448-3.168c-1.151,0-1.823,1.128-1.68,2.016
				C323.463,133.304,323.967,134.696,325.551,134.696z"/>
		</g>
		<g>
			<path d="M324.904,121.864c2.664,0.024,5.184,1.032,5.376,3.264c0.144,1.632-2.016,3.12-4.68,3.12
				c-2.688-0.024-5.185-1.008-5.4-3.24C320.056,123.352,322.24,121.864,324.904,121.864z M325.551,127.696
				c1.152,0,1.896-1.104,1.776-1.992c-0.264-1.752-0.864-3.168-2.448-3.168c-1.151,0-1.823,1.128-1.68,2.016
				C323.463,126.304,323.967,127.696,325.551,127.696z"/>
		</g>
		<g>
			<path d="M257.46,152.94v-3.912h0.696v3.672l2.352-0.768v-3.504h0.696v3.288l0.936-0.312v2.496l-0.936,0.312v3.552l0.936-0.288
				v2.472l-0.936,0.312v3.912h-0.696v-3.696l-2.352,0.768v3.552h-0.696v-3.312l-1.032,0.336v-2.496l1.032-0.336v-3.576l-1.032,0.336
				v-2.472L257.46,152.94z M258.156,155.196v3.576l2.352-0.768v-3.576L258.156,155.196z"/>
		</g>
		<g>
			<path d="M447.904,139.865c2.664,0.024,5.184,1.032,5.376,3.264c0.144,1.632-2.016,3.12-4.68,3.12
				c-2.688-0.024-5.185-1.008-5.4-3.24C443.056,141.353,445.24,139.865,447.904,139.865z M448.551,145.697
				c1.152,0,1.896-1.104,1.776-1.992c-0.264-1.752-0.864-3.168-2.448-3.168c-1.151,0-1.823,1.128-1.68,2.016
				C446.463,144.305,446.967,145.697,448.551,145.697z"/>
		</g>
		<g>
			<path d="M447.904,121.865c2.664,0.024,5.184,1.032,5.376,3.264c0.144,1.632-2.016,3.12-4.68,3.12
				c-2.688-0.024-5.185-1.008-5.4-3.24C443.056,123.353,445.24,121.865,447.904,121.865z M448.551,127.697
				c1.152,0,1.896-1.104,1.776-1.992c-0.264-1.752-0.864-3.168-2.448-3.168c-1.151,0-1.823,1.128-1.68,2.016
				C446.463,126.305,446.967,127.697,448.551,127.697z"/>
		</g>
		<g>
			<path d="M447.904,132.865c2.664,0.024,5.184,1.032,5.376,3.264c0.144,1.632-2.016,3.12-4.68,3.12
				c-2.688-0.024-5.185-1.008-5.4-3.24C443.056,134.353,445.24,132.865,447.904,132.865z M448.551,138.697
				c1.152,0,1.896-1.104,1.776-1.992c-0.264-1.752-0.864-3.168-2.448-3.168c-1.151,0-1.823,1.128-1.68,2.016
				C446.463,137.305,446.967,138.697,448.551,138.697z"/>
		</g>
		<g>
			<path d="M384.132,132.468c2.664,0.024,5.184,1.032,5.376,3.264c0.144,1.632-2.016,3.12-4.68,3.12
				c-2.688-0.024-5.185-1.008-5.4-3.24C379.285,133.956,381.468,132.468,384.132,132.468z M384.78,138.3
				c1.152,0,1.896-1.104,1.776-1.992c-0.264-1.752-0.864-3.168-2.448-3.168c-1.151,0-1.823,1.128-1.68,2.016
				C382.692,136.908,383.196,138.3,384.78,138.3z"/>
		</g>
		<g>
			<path d="M90.052,109.436c0,0.216,0,1.536,0,1.536c0.912-0.816,1.416-0.984,2.424-1.008c1.2-0.024,1.968,1.176,1.992,2.136
				c0.024,0.504-0.12,1.032-0.312,1.44c-0.216,0.528-0.792,0.936-1.176,1.32c-0.432,0.432-3.552,2.568-3.552,2.616v-14.184h0.624
				C90.052,103.292,90.076,106.268,90.052,109.436z M90.316,111.812c-0.312,0.6-0.264,1.632-0.264,2.376v2.064
				c0,0.024,0.864-0.72,1.344-1.176c0.432-0.408,0.768-0.864,0.936-1.584c0.192-0.72,0.12-1.488-0.336-1.992
				C91.684,111.14,90.82,110.852,90.316,111.812z"/>
		</g>
		<g>
			<path d="M199.825,123.832c0,0.216,0,1.536,0,1.536c0.912-0.816,1.416-0.984,2.424-1.008c1.2-0.024,1.968,1.176,1.992,2.136
				c0.024,0.504-0.12,1.032-0.312,1.44c-0.216,0.528-0.792,0.936-1.176,1.32c-0.432,0.432-3.552,2.568-3.552,2.616v-14.184h0.624
				C199.825,117.688,199.849,120.664,199.825,123.832z M200.089,126.208c-0.312,0.6-0.264,1.632-0.264,2.376v2.064
				c0,0.024,0.864-0.72,1.344-1.176c0.432-0.408,0.768-0.864,0.936-1.584c0.192-0.72,0.12-1.488-0.336-1.992
				C201.457,125.536,200.593,125.248,200.089,126.208z"/>
		</g>
		<g>
			<path d="M205.052,117.436c0,0.216,0,1.536,0,1.536c0.912-0.816,1.416-0.984,2.424-1.008c1.2-0.024,1.968,1.176,1.992,2.136
				c0.024,0.504-0.12,1.032-0.312,1.44c-0.216,0.528-0.792,0.936-1.176,1.32c-0.432,0.432-3.552,2.568-3.552,2.616v-14.184h0.624
				C205.052,111.292,205.076,114.268,205.052,117.436z M205.316,119.812c-0.312,0.6-0.264,1.632-0.264,2.376v2.064
				c0,0.024,0.864-0.72,1.344-1.176c0.432-0.408,0.768-0.864,0.936-1.584c0.192-0.72,0.12-1.488-0.336-1.992
				C206.684,119.14,205.82,118.852,205.316,119.812z"/>
		</g>
		<g>
			<path d="M204.825,135.832c0,0.216,0,1.536,0,1.536c0.912-0.816,1.416-0.984,2.424-1.008c1.2-0.024,1.968,1.176,1.992,2.136
				c0.024,0.504-0.12,1.032-0.312,1.44c-0.216,0.528-0.792,0.936-1.176,1.32c-0.432,0.432-3.552,2.568-3.552,2.616v-14.184h0.624
				C204.825,129.688,204.849,132.664,204.825,135.832z M205.089,138.208c-0.312,0.6-0.264,1.632-0.264,2.376v2.064
				c0,0.024,0.864-0.72,1.344-1.176c0.432-0.408,0.768-0.864,0.936-1.584c0.192-0.72,0.12-1.488-0.336-1.992
				C206.457,137.536,205.593,137.248,205.089,138.208z"/>
		</g>
		<g>
			<g>
				<path d="M269.806,141.972c2.664,0.024,5.184,1.032,5.376,3.264c0.144,1.632-2.016,3.12-4.68,3.12
					c-2.688-0.024-5.184-1.008-5.4-3.24C264.958,143.46,267.142,141.972,269.806,141.972z M270.454,147.804
					c1.152,0,1.896-1.104,1.776-1.992c-0.264-1.752-0.864-3.168-2.448-3.168c-1.152,0-1.824,1.128-1.68,2.016
					C268.366,146.412,268.87,147.804,270.454,147.804z"/>
			</g>
			<path fill="none" stroke="#000000" d="M263.094,145.684h14.667"/>
		</g>
		<g>
			<path d="M314.46,127.94v-3.912h0.695v3.672l2.353-0.768v-3.504h0.696v3.288l0.936-0.312v2.496l-0.936,0.312v3.552l0.936-0.288
				v2.472l-0.936,0.312v3.912h-0.696v-3.696l-2.353,0.768v3.552h-0.695v-3.312l-1.032,0.336v-2.496l1.032-0.336v-3.576l-1.032,0.336
				v-2.472L314.46,127.94z M315.156,130.196v3.576l2.353-0.768v-3.576L315.156,130.196z"/>
		</g>
		<g>
			<path d="M312.234,114.336v-3.912h0.695v3.672l2.353-0.768v-3.504h0.696v3.288l0.936-0.312v2.496l-0.936,0.312v3.552l0.936-0.288
				v2.472l-0.936,0.312v3.912h-0.696v-3.696l-2.353,0.768v3.552h-0.695v-3.312l-1.032,0.336v-2.496l1.032-0.336v-3.576l-1.032,0.336
				v-2.472L312.234,114.336z M312.929,116.592v3.576l2.353-0.768v-3.576L312.929,116.592z"/>
		</g>
		<g>
			<path d="M372.718,139.436c0,0.216,0,1.536,0,1.536c0.912-0.816,1.416-0.984,2.424-1.008c1.2-0.024,1.968,1.176,1.992,2.136
				c0.024,0.504-0.12,1.032-0.312,1.44c-0.217,0.528-0.793,0.936-1.177,1.32c-0.432,0.432-3.552,2.568-3.552,2.616v-14.184h0.624
				C372.718,133.292,372.743,136.268,372.718,139.436z M372.982,141.812c-0.312,0.6-0.264,1.632-0.264,2.376v2.064
				c0,0.024,0.864-0.72,1.344-1.176c0.433-0.408,0.769-0.864,0.937-1.584c0.191-0.72,0.12-1.488-0.336-1.992
				C374.35,141.14,373.486,140.852,372.982,141.812z"/>
		</g>
		<g>
			<path d="M438.052,138.436c0,0.216,0,1.536,0,1.536c0.912-0.816,1.416-0.984,2.424-1.008c1.2-0.024,1.968,1.176,1.992,2.136
				c0.024,0.504-0.12,1.032-0.312,1.44c-0.217,0.528-0.793,0.936-1.177,1.32c-0.432,0.432-3.552,2.568-3.552,2.616v-14.184h0.624
				C438.052,132.292,438.077,135.268,438.052,138.436z M438.316,140.812c-0.312,0.6-0.264,1.632-0.264,2.376v2.064
				c0,0.024,0.864-0.72,1.344-1.176c0.433-0.408,0.769-0.864,0.937-1.584c0.191-0.72,0.12-1.488-0.336-1.992
				C439.684,140.14,438.82,139.852,438.316,140.812z"/>
		</g>
		<g>
			<path d="M431.052,131.436c0,0.216,0,1.536,0,1.536c0.912-0.816,1.416-0.984,2.424-1.008c1.2-0.024,1.968,1.176,1.992,2.136
				c0.024,0.504-0.12,1.032-0.312,1.44c-0.217,0.528-0.793,0.936-1.177,1.32c-0.432,0.432-3.552,2.568-3.552,2.616v-14.184h0.624
				C431.052,125.292,431.077,128.268,431.052,131.436z M431.316,133.812c-0.312,0.6-0.264,1.632-0.264,2.376v2.064
				c0,0.024,0.864-0.72,1.344-1.176c0.433-0.408,0.769-0.864,0.937-1.584c0.191-0.72,0.12-1.488-0.336-1.992
				C432.684,133.14,431.82,132.852,431.316,133.812z"/>
		</g>
		<g>
			<path d="M436.052,120.436c0,0.216,0,1.536,0,1.536c0.912-0.816,1.416-0.984,2.424-1.008c1.2-0.024,1.968,1.176,1.992,2.136
				c0.024,0.504-0.12,1.032-0.312,1.44c-0.217,0.528-0.793,0.936-1.177,1.32c-0.432,0.432-3.552,2.568-3.552,2.616v-14.184h0.624
				C436.052,114.292,436.077,117.268,436.052,120.436z M436.316,122.812c-0.312,0.6-0.264,1.632-0.264,2.376v2.064
				c0,0.024,0.864-0.72,1.344-1.176c0.433-0.408,0.769-0.864,0.937-1.584c0.191-0.72,0.12-1.488-0.336-1.992
				C437.684,122.14,436.82,121.852,436.316,122.812z"/>
		</g>
	</g>
</svg>
