<?xml version="1.0" encoding="utf-8"?>
<!-- Generator: Adobe Illustrator 10.0, SVG Export Plug-In . SVG Version: 3.0.0 Build 76)  -->
<!DOCTYPE svg PUBLIC "-//W3C//DTD SVG 1.0//EN"    "http://www.w3.org/TR/2001/REC-SVG-20010904/DTD/svg10.dtd" [
	<!ENTITY ns_flows "http://ns.adobe.com/Flows/1.0/">
	<!ENTITY ns_extend "http://ns.adobe.com/Extensibility/1.0/">
	<!ENTITY ns_ai "http://ns.adobe.com/AdobeIllustrator/10.0/">
	<!ENTITY ns_svg "http://www.w3.org/2000/svg">
	<!ENTITY ns_xlink "http://www.w3.org/1999/xlink">
]>
<svg  xmlns:x="&ns_extend;" xmlns:i="&ns_ai;" xmlns:graph="&ns_graphs;"
	 xmlns="&ns_svg;" xmlns:xlink="&ns_xlink;" xmlns:a="http://ns.adobe.com/AdobeSVGViewerExtensions/3.0/" width="477" height="45"
	 viewBox="-0.175 0.022 477 45" overflow="visible" enable-background="new -0.175 0.022 477 45" xml:space="preserve">
	<g id="Layer_1_2_">
		<g>
			<path fill="none" stroke="#000000" d="M0.128,5.246h476.489"/>
			<path fill="none" stroke="#000000" d="M0.128,19.357h476.489"/>
			<path fill="none" stroke="#000000" d="M0.364,26.48h476.49"/>
			<path fill="none" stroke="#000000" d="M0,33.864h476.488"/>
			<path fill="none" stroke="#000000" d="M0,12.5h476.488"/>
		</g>
		<g>
			<path d="M30.232,16.704c0,0.96-1.2,1.8-1.848,1.8s-2.04-0.36-2.04-1.8c0-0.936,0.672-1.632,1.512-1.632
				c0.576,0,0.528-0.36,0.336-0.576c-0.528-0.552-1.488-0.96-2.664-0.624c-1.896,0.504-2.304,2.808-2.304,5.184
				c0,2.64,0.456,5.256,2.76,5.256c1.632,0,3.456-1.488,3.408-3.528h0.672c-0.024,0.624-0.432,1.92-0.84,2.424
				c-0.816,1.008-2.328,1.848-3.504,1.848c-3.168,0-5.424-2.856-5.424-6c0-3.072,2.112-5.904,5.184-5.904
				C28.072,13.152,30.232,14.376,30.232,16.704z"/>
		</g>
		<g>
			<path d="M424.232,25.336v-3.912h0.695v3.672l2.353-0.768v-3.504h0.696v3.288l0.936-0.312v2.496l-0.936,0.312v3.552l0.936-0.288
				v2.472l-0.936,0.312v3.912h-0.696v-3.696l-2.353,0.768v3.552h-0.695V33.88l-1.032,0.336V31.72l1.032-0.336v-3.576l-1.032,0.336
				v-2.472L424.232,25.336z M424.927,27.592v3.576l2.353-0.768v-3.576L424.927,27.592z"/>
		</g>
		<g>
			<path d="M7.152,33.768c-4.944-2.352-5.736-5.376-5.952-8.472c-0.24-3.36,1.896-6.768,3.888-8.664
				c1.152-1.08,2.4-2.136,3.888-3.264c-0.048-0.84-0.24-1.176-0.336-2.376c-0.024-0.504-0.336-2.856,0.168-5.568
				c0.312-1.608,2.328-5.4,3.72-5.424c1.08-0.024,2.736,4.296,2.784,6.456c0.072,3.336-0.72,4.848-1.704,6.576
				c-0.504,0.864-1.032,1.464-1.584,2.136C11.448,15.864,10.8,16.272,10.2,16.8c0,0,0.768,4.344,0.792,4.656
				c1.536-0.192,3.408,0.36,4.08,0.84c1.704,1.272,2.352,3.024,2.472,4.728c0.216,2.712-1.272,5.568-4.56,6.936
				c0,0,0.504,3.456,0.624,4.176c0.264,1.896,0.216,3.096-0.192,3.864c-0.696,1.296-1.824,2.496-4.008,2.64
				c-1.68,0.096-4.992-0.744-5.16-3.384c-0.096-1.56,0.6-3.24,2.496-3.36c1.152-0.096,2.52,0.864,2.616,2.232
				c0.096,1.176-0.672,2.4-2.664,2.952c0.312,0.432,1.248,0.936,2.592,0.936c1.392,0,2.832-0.936,3.528-2.184
				c0.432-0.816,0.384-2.28,0.216-3.624c-0.072-0.456-0.648-4.08-0.648-4.08C10.608,34.416,8.16,34.248,7.152,33.768z M7.632,28.08
				c0.048,1.152,1.008,2.496,1.896,2.952c-0.12,0.072-0.24,0.264-0.24,0.264c-0.984-0.48-1.824-1.272-2.04-1.56
				c-0.696-0.936-0.984-1.464-1.08-2.88c-0.096-1.32,0.624-3.096,2.232-4.344c0.84-0.624,1.248-0.768,1.968-0.936l-0.72-4.344
				c-0.744,0.432-3.816,2.904-5.112,4.92c-1.152,1.8-1.848,3.24-1.704,5.016c0.288,4.008,4.68,7.296,9.432,6.168
				c0,0-1.416-8.52-1.392-8.52C8.256,24.912,7.56,26.928,7.632,28.08z M9.576,12.864c2.088-1.632,4.92-4.704,4.752-7.08
				c-0.048-0.744-0.36-2.088-1.44-2.064C10.416,3.744,9.024,8.904,9.576,12.864z M12.84,33.144c2.76-0.936,2.88-3.312,2.784-4.728
				C15.528,27.24,15,24.6,11.496,24.768L12.84,33.144z"/>
		</g>
		<g>
			<path d="M51.904,26.864c2.664,0.024,5.184,1.032,5.376,3.264c0.144,1.632-2.016,3.12-4.68,3.12
				c-2.688-0.024-5.184-1.008-5.4-3.24C47.056,28.352,49.24,26.864,51.904,26.864z M52.552,32.696c1.152,0,1.896-1.104,1.776-1.992
				c-0.264-1.752-0.864-3.168-2.448-3.168c-1.152,0-1.824,1.128-1.68,2.016C50.464,31.304,50.968,32.696,52.552,32.696z"/>
		</g>
		<g>
			<path d="M222.824,29.832c0,0.216,0,1.536,0,1.536c0.912-0.816,1.416-0.984,2.424-1.008c1.2-0.024,1.968,1.176,1.992,2.136
				c0.024,0.504-0.12,1.032-0.312,1.44c-0.216,0.528-0.792,0.936-1.176,1.32c-0.432,0.432-3.552,2.568-3.552,2.616V23.688h0.624
				C222.824,23.688,222.848,26.664,222.824,29.832z M223.088,32.208c-0.312,0.6-0.264,1.632-0.264,2.376v2.064
				c0,0.024,0.864-0.72,1.344-1.176c0.432-0.408,0.768-0.864,0.936-1.584c0.192-0.72,0.12-1.488-0.336-1.992
				C224.456,31.536,223.592,31.248,223.088,32.208z"/>
		</g>
		<path fill="none" stroke="#0A0A0A" d="M476.526,4.337v29.746"/>
		<path fill="none" stroke="#0A0A0A" d="M206.525,4.337v29.746"/>
		<path fill="none" stroke="#0A0A0A" d="M270.526,4.337v29.746"/>
		<path fill="none" stroke="#0A0A0A" d="M335.526,4.337v29.746"/>
		<path fill="none" stroke="#0A0A0A" d="M143.525,4.337v29.746"/>
		<path fill="none" stroke="#0A0A0A" d="M83.525,4.337v29.746"/>
		<path fill="none" stroke="#0A0A0A" d="M406.526,5.337v29.746"/>
		<g>
			<path d="M110.904,15.864c2.664,0.024,5.184,1.032,5.376,3.264c0.144,1.632-2.016,3.12-4.68,3.12
				c-2.688-0.024-5.184-1.008-5.4-3.24C106.056,17.352,108.24,15.864,110.904,15.864z M111.552,21.696
				c1.152,0,1.896-1.104,1.776-1.992c-0.264-1.752-0.864-3.168-2.448-3.168c-1.152,0-1.824,1.128-1.68,2.016
				C109.464,20.304,109.968,21.696,111.552,21.696z"/>
		</g>
		<g>
			<path d="M169.904,33.864c2.664,0.024,5.184,1.032,5.376,3.264c0.144,1.632-2.016,3.12-4.68,3.12
				c-2.688-0.024-5.184-1.008-5.4-3.24C165.056,35.352,167.24,33.864,169.904,33.864z M170.552,39.696
				c1.152,0,1.896-1.104,1.776-1.992c-0.264-1.752-0.864-3.168-2.448-3.168c-1.152,0-1.824,1.128-1.68,2.016
				C168.464,38.304,168.968,39.696,170.552,39.696z"/>
		</g>
		<g>
			<path d="M234.904,30.864c2.664,0.024,5.184,1.032,5.376,3.264c0.144,1.632-2.016,3.12-4.68,3.12
				c-2.688-0.024-5.184-1.008-5.4-3.24C230.056,32.352,232.24,30.864,234.904,30.864z M235.552,36.696
				c1.152,0,1.896-1.104,1.776-1.992c-0.264-1.752-0.864-3.168-2.448-3.168c-1.152,0-1.824,1.128-1.68,2.016
				C233.464,35.304,233.968,36.696,235.552,36.696z"/>
		</g>
		<g>
			<path d="M297.904,33.864c2.664,0.024,5.184,1.032,5.376,3.264c0.144,1.632-2.016,3.12-4.68,3.12
				c-2.688-0.024-5.185-1.008-5.4-3.24C293.056,35.352,295.24,33.864,297.904,33.864z M298.551,39.696
				c1.152,0,1.896-1.104,1.776-1.992c-0.264-1.752-0.864-3.168-2.448-3.168c-1.151,0-1.823,1.128-1.68,2.016
				C296.463,38.304,296.967,39.696,298.551,39.696z"/>
		</g>
		<g>
			<path d="M368.904,23.864c2.664,0.024,5.184,1.032,5.376,3.264c0.144,1.632-2.016,3.12-4.68,3.12
				c-2.688-0.024-5.185-1.008-5.4-3.24C364.056,25.352,366.24,23.864,368.904,23.864z M369.551,29.696
				c1.152,0,1.896-1.104,1.776-1.992c-0.264-1.752-0.864-3.168-2.448-3.168c-1.151,0-1.823,1.128-1.68,2.016
				C367.463,28.304,367.967,29.696,369.551,29.696z"/>
		</g>
		<g>
			<path d="M436.904,26.864c2.664,0.024,5.184,1.032,5.376,3.264c0.144,1.632-2.016,3.12-4.68,3.12
				c-2.688-0.024-5.185-1.008-5.4-3.24C432.056,28.352,434.24,26.864,436.904,26.864z M437.551,32.696
				c1.152,0,1.896-1.104,1.776-1.992c-0.264-1.752-0.864-3.168-2.448-3.168c-1.151,0-1.823,1.128-1.68,2.016
				C435.463,31.304,435.967,32.696,437.551,32.696z"/>
		</g>
		<g>
			<path d="M286.449,33.774c0,0.216,0,1.536,0,1.536c0.912-0.816,1.416-0.984,2.424-1.008c1.2-0.024,1.968,1.176,1.992,2.136
				c0.024,0.504-0.12,1.032-0.312,1.44c-0.217,0.528-0.793,0.936-1.177,1.32c-0.432,0.432-3.552,2.568-3.552,2.616V27.63h0.624
				C286.449,27.63,286.473,30.606,286.449,33.774z M286.713,36.15c-0.312,0.6-0.264,1.632-0.264,2.376v2.064
				c0,0.024,0.864-0.72,1.344-1.176c0.433-0.408,0.769-0.864,0.937-1.584c0.191-0.72,0.12-1.488-0.336-1.992
				C288.081,35.479,287.217,35.19,286.713,36.15z"/>
		</g>
	</g>
</svg>
