<?xml version="1.0" encoding="utf-8"?>
<!-- Generator: Adobe Illustrator 10.0, SVG Export Plug-In . SVG Version: 3.0.0 Build 76)  -->
<!DOCTYPE svg PUBLIC "-//W3C//DTD SVG 1.0//EN"    "http://www.w3.org/TR/2001/REC-SVG-20010904/DTD/svg10.dtd" [
	<!ENTITY ns_flows "http://ns.adobe.com/Flows/1.0/">
	<!ENTITY ns_extend "http://ns.adobe.com/Extensibility/1.0/">
	<!ENTITY ns_ai "http://ns.adobe.com/AdobeIllustrator/10.0/">
	<!ENTITY ns_svg "http://www.w3.org/2000/svg">
	<!ENTITY ns_xlink "http://www.w3.org/1999/xlink">
]>
<svg  xmlns:x="&ns_extend;" xmlns:i="&ns_ai;" xmlns:graph="&ns_graphs;"
	 xmlns="&ns_svg;" xmlns:xlink="&ns_xlink;" xmlns:a="http://ns.adobe.com/AdobeSVGViewerExtensions/3.0/" width="483" height="130"
	 viewBox="-5.612 -0.48 483 130" overflow="visible" enable-background="new -5.612 -0.48 483 130" xml:space="preserve">
	<g id="Layer_1_2_">
		<g>
			<path fill="none" stroke="#000000" d="M0.128,20.723h476.489"/>
			<path fill="none" stroke="#000000" d="M0.128,34.835h476.489"/>
			<path fill="none" stroke="#000000" d="M0.364,41.957h476.491"/>
			<path fill="none" stroke="#000000" d="M0,49.342h476.488"/>
			<path fill="none" stroke="#000000" d="M0,27.977h476.488"/>
		</g>
		<path fill="#FFFFFF" stroke="#FFFFFF" d="M301.888,60.52h-15v-24h15V60.52z"/>
		<g>
			<path d="M30.232,32.182c0,0.96-1.2,1.8-1.848,1.8s-2.04-0.36-2.04-1.8c0-0.936,0.672-1.632,1.512-1.632
				c0.576,0,0.528-0.36,0.336-0.576c-0.528-0.552-1.488-0.96-2.664-0.624c-1.896,0.504-2.304,2.808-2.304,5.184
				c0,2.64,0.456,5.256,2.76,5.256c1.632,0,3.456-1.488,3.408-3.528h0.672c-0.024,0.624-0.432,1.92-0.84,2.424
				c-0.816,1.008-2.328,1.848-3.504,1.848c-3.168,0-5.424-2.856-5.424-6c0-3.072,2.112-5.904,5.184-5.904
				C28.072,28.629,30.232,29.854,30.232,32.182z"/>
		</g>
		<g>
			<path d="M7.152,49.246C2.208,46.894,1.416,43.87,1.2,40.773c-0.24-3.36,1.896-6.768,3.888-8.664
				c1.152-1.08,2.4-2.136,3.888-3.264c-0.048-0.84-0.24-1.176-0.336-2.376c-0.024-0.504-0.336-2.856,0.168-5.568
				c0.312-1.608,2.328-5.4,3.72-5.424c1.08-0.024,2.736,4.296,2.784,6.456c0.072,3.336-0.72,4.848-1.704,6.576
				c-0.504,0.864-1.032,1.464-1.584,2.136c-0.576,0.696-1.224,1.104-1.824,1.632c0,0,0.768,4.344,0.792,4.656
				c1.536-0.192,3.408,0.36,4.08,0.84c1.704,1.272,2.352,3.024,2.472,4.728c0.216,2.712-1.272,5.568-4.56,6.936
				c0,0,0.504,3.456,0.624,4.176c0.264,1.896,0.216,3.096-0.192,3.864c-0.696,1.296-1.824,2.496-4.008,2.64
				c-1.68,0.096-4.992-0.744-5.16-3.384c-0.096-1.56,0.6-3.24,2.496-3.36c1.152-0.096,2.52,0.864,2.616,2.232
				c0.096,1.176-0.672,2.4-2.664,2.952c0.312,0.432,1.248,0.936,2.592,0.936c1.392,0,2.832-0.936,3.528-2.184
				c0.432-0.816,0.384-2.28,0.216-3.624c-0.072-0.456-0.648-4.08-0.648-4.08C10.608,49.894,8.16,49.726,7.152,49.246z M7.632,43.558
				c0.048,1.152,1.008,2.496,1.896,2.952c-0.12,0.072-0.24,0.264-0.24,0.264c-0.984-0.48-1.824-1.272-2.04-1.56
				c-0.696-0.936-0.984-1.464-1.08-2.88c-0.096-1.32,0.624-3.096,2.232-4.344c0.84-0.624,1.248-0.768,1.968-0.936l-0.72-4.344
				c-0.744,0.432-3.816,2.904-5.112,4.92c-1.152,1.8-1.848,3.24-1.704,5.016c0.288,4.008,4.68,7.296,9.432,6.168
				c0,0-1.416-8.52-1.392-8.52C8.256,40.39,7.56,42.406,7.632,43.558z M9.576,28.341c2.088-1.632,4.92-4.704,4.752-7.08
				c-0.048-0.744-0.36-2.088-1.44-2.064C10.416,19.221,9.024,24.381,9.576,28.341z M12.84,48.622c2.76-0.936,2.88-3.312,2.784-4.728
				c-0.096-1.176-0.624-3.816-4.128-3.648L12.84,48.622z"/>
		</g>
		<path fill="none" stroke="#0A0A0A" d="M476.527,19.815v29.746"/>
		<path fill="none" stroke="#0A0A0A" d="M242.525,19.815v29.746"/>
		<path fill="none" stroke="#0A0A0A" d="M356.527,19.815v29.746"/>
		<path fill="none" stroke="#0A0A0A" d="M125.525,19.815v29.746"/>
		<g>
			<path d="M143.45,45.252c0,0.216,0,1.536,0,1.536c0.912-0.816,1.416-0.984,2.424-1.008c1.2-0.024,1.968,1.176,1.992,2.136
				c0.024,0.504-0.12,1.032-0.312,1.44c-0.216,0.528-0.792,0.936-1.176,1.32c-0.432,0.432-3.552,2.568-3.552,2.616V39.108h0.624
				C143.45,39.108,143.474,42.084,143.45,45.252z M143.714,47.628c-0.312,0.6-0.264,1.632-0.264,2.376v2.064
				c0,0.024,0.864-0.72,1.344-1.176c0.432-0.408,0.768-0.864,0.936-1.584c0.192-0.72,0.12-1.488-0.336-1.992
				C145.082,46.956,144.218,46.668,143.714,47.628z"/>
		</g>
		<g>
			<path d="M48.904,39.342c2.664,0.024,5.184,1.032,5.376,3.264c0.144,1.632-2.016,3.12-4.68,3.12
				c-2.688-0.024-5.184-1.008-5.4-3.24C44.056,40.83,46.24,39.342,48.904,39.342z M49.552,45.174c1.152,0,1.896-1.104,1.776-1.992
				c-0.264-1.752-0.864-3.168-2.448-3.168c-1.152,0-1.824,1.128-1.68,2.016C47.464,43.782,47.968,45.174,49.552,45.174z"/>
		</g>
		<g>
			<path d="M48.904,46.342c2.664,0.024,5.184,1.032,5.376,3.264c0.144,1.632-2.016,3.12-4.68,3.12
				c-2.688-0.024-5.184-1.008-5.4-3.24C44.056,47.83,46.24,46.342,48.904,46.342z M49.552,52.174c1.152,0,1.896-1.104,1.776-1.992
				c-0.264-1.752-0.864-3.168-2.448-3.168c-1.152,0-1.824,1.128-1.68,2.016C47.464,50.782,47.968,52.174,49.552,52.174z"/>
		</g>
		<g>
			<path d="M365.637,45.347c0,0.216,0,1.536,0,1.536c0.912-0.816,1.416-0.984,2.424-1.008c1.2-0.024,1.968,1.176,1.992,2.136
				c0.024,0.504-0.12,1.032-0.312,1.44c-0.217,0.528-0.793,0.936-1.177,1.32c-0.432,0.432-3.552,2.568-3.552,2.616V39.203h0.624
				C365.637,39.203,365.662,42.179,365.637,45.347z M365.901,47.723c-0.312,0.6-0.264,1.632-0.264,2.376v2.064
				c0,0.024,0.864-0.72,1.344-1.176c0.433-0.408,0.769-0.864,0.937-1.584c0.191-0.72,0.12-1.488-0.336-1.992
				C367.269,47.051,366.405,46.763,365.901,47.723z"/>
		</g>
		<g>
			<path d="M370.825,38.31c0,0.216,0,1.536,0,1.536c0.912-0.816,1.416-0.984,2.424-1.008c1.2-0.024,1.968,1.176,1.992,2.136
				c0.024,0.504-0.12,1.032-0.312,1.44c-0.217,0.528-0.793,0.936-1.177,1.32c-0.432,0.432-3.552,2.568-3.552,2.616V32.166h0.624
				C370.825,32.166,370.849,35.142,370.825,38.31z M371.088,40.686c-0.312,0.6-0.264,1.632-0.264,2.376v2.064
				c0,0.024,0.864-0.72,1.344-1.176c0.433-0.408,0.769-0.864,0.937-1.584c0.191-0.72,0.12-1.488-0.336-1.992
				C372.457,40.014,371.592,39.726,371.088,40.686z"/>
		</g>
		<g>
			<path d="M255.42,37.776v-3.912h0.696v3.672l2.352-0.768v-3.504h0.696v3.288l0.936-0.312v2.496l-0.936,0.312V42.6l0.936-0.288
				v2.472l-0.936,0.312v3.912h-0.696v-3.696l-2.352,0.768v3.552h-0.696V46.32l-1.032,0.336V44.16l1.032-0.336v-3.576l-1.032,0.336
				v-2.472L255.42,37.776z M256.116,40.032v3.576l2.352-0.768v-3.576L256.116,40.032z"/>
		</g>
		<g>
			<g>
				<path d="M49.767,52.808c2.664,0.024,5.184,1.032,5.376,3.264c0.144,1.632-2.016,3.12-4.68,3.12
					c-2.688-0.024-5.184-1.008-5.4-3.24C44.918,54.296,47.103,52.808,49.767,52.808z M50.415,58.64c1.152,0,1.896-1.104,1.776-1.992
					c-0.264-1.752-0.864-3.168-2.448-3.168c-1.152,0-1.824,1.128-1.68,2.016C48.327,57.248,48.831,58.64,50.415,58.64z"/>
			</g>
			<path fill="none" stroke="#000000" d="M43.055,56.52h14.667"/>
		</g>
		<g>
			<path d="M154.904,39.342c2.664,0.024,5.184,1.032,5.376,3.264c0.144,1.632-2.016,3.12-4.68,3.12
				c-2.688-0.024-5.184-1.008-5.4-3.24C150.056,40.83,152.24,39.342,154.904,39.342z M155.552,45.174
				c1.152,0,1.896-1.104,1.776-1.992c-0.264-1.752-0.864-3.168-2.448-3.168c-1.152,0-1.824,1.128-1.68,2.016
				C153.464,43.782,153.968,45.174,155.552,45.174z"/>
		</g>
		<g>
			<path d="M154.904,46.342c2.664,0.024,5.184,1.032,5.376,3.264c0.144,1.632-2.016,3.12-4.68,3.12
				c-2.688-0.024-5.184-1.008-5.4-3.24C150.056,47.83,152.24,46.342,154.904,46.342z M155.552,52.174
				c1.152,0,1.896-1.104,1.776-1.992c-0.264-1.752-0.864-3.168-2.448-3.168c-1.152,0-1.824,1.128-1.68,2.016
				C153.464,50.782,153.968,52.174,155.552,52.174z"/>
		</g>
		<g>
			<g>
				<path d="M155.767,52.808c2.664,0.024,5.184,1.032,5.376,3.264c0.144,1.632-2.016,3.12-4.68,3.12
					c-2.688-0.024-5.184-1.008-5.4-3.24C150.918,54.296,153.103,52.808,155.767,52.808z M156.415,58.64
					c1.152,0,1.896-1.104,1.776-1.992c-0.264-1.752-0.864-3.168-2.448-3.168c-1.152,0-1.824,1.128-1.68,2.016
					C154.327,57.248,154.831,58.64,156.415,58.64z"/>
			</g>
			<path fill="none" stroke="#000000" d="M149.055,56.52h14.667"/>
		</g>
		<g>
			<path d="M267.904,39.342c2.664,0.024,5.184,1.032,5.376,3.264c0.144,1.632-2.016,3.12-4.68,3.12
				c-2.688-0.024-5.184-1.008-5.4-3.24C263.056,40.83,265.24,39.342,267.904,39.342z M268.552,45.174
				c1.152,0,1.896-1.104,1.776-1.992c-0.264-1.752-0.864-3.168-2.448-3.168c-1.152,0-1.824,1.128-1.68,2.016
				C266.464,43.782,266.968,45.174,268.552,45.174z"/>
		</g>
		<g>
			<path d="M267.904,46.342c2.664,0.024,5.184,1.032,5.376,3.264c0.144,1.632-2.016,3.12-4.68,3.12
				c-2.688-0.024-5.184-1.008-5.4-3.24C263.056,47.83,265.24,46.342,267.904,46.342z M268.552,52.174
				c1.152,0,1.896-1.104,1.776-1.992c-0.264-1.752-0.864-3.168-2.448-3.168c-1.152,0-1.824,1.128-1.68,2.016
				C266.464,50.782,266.968,52.174,268.552,52.174z"/>
		</g>
		<g>
			<g>
				<path d="M268.766,52.808c2.664,0.024,5.184,1.032,5.376,3.264c0.144,1.632-2.016,3.12-4.68,3.12
					c-2.688-0.024-5.184-1.008-5.4-3.24C263.918,54.296,266.102,52.808,268.766,52.808z M269.414,58.64
					c1.152,0,1.896-1.104,1.776-1.992c-0.264-1.752-0.864-3.168-2.448-3.168c-1.152,0-1.824,1.128-1.68,2.016
					C267.326,57.248,267.83,58.64,269.414,58.64z"/>
			</g>
			<path fill="none" stroke="#000000" d="M262.054,56.52h14.667"/>
		</g>
		<g>
			<path d="M380.904,39.342c2.664,0.024,5.184,1.032,5.376,3.264c0.144,1.632-2.016,3.12-4.68,3.12
				c-2.688-0.024-5.185-1.008-5.4-3.24C376.056,40.83,378.24,39.342,380.904,39.342z M381.551,45.174
				c1.152,0,1.896-1.104,1.776-1.992c-0.264-1.752-0.864-3.168-2.448-3.168c-1.151,0-1.823,1.128-1.68,2.016
				C379.463,43.782,379.967,45.174,381.551,45.174z"/>
		</g>
		<g>
			<path d="M380.904,46.342c2.664,0.024,5.184,1.032,5.376,3.264c0.144,1.632-2.016,3.12-4.68,3.12
				c-2.688-0.024-5.185-1.008-5.4-3.24C376.056,47.83,378.24,46.342,380.904,46.342z M381.551,52.174
				c1.152,0,1.896-1.104,1.776-1.992c-0.264-1.752-0.864-3.168-2.448-3.168c-1.151,0-1.823,1.128-1.68,2.016
				C379.463,50.782,379.967,52.174,381.551,52.174z"/>
		</g>
		<g>
			<g>
				<path d="M381.766,52.808c2.664,0.024,5.184,1.032,5.376,3.264c0.144,1.632-2.016,3.12-4.68,3.12
					c-2.688-0.024-5.185-1.008-5.4-3.24C376.918,54.296,379.102,52.808,381.766,52.808z M382.414,58.64
					c1.152,0,1.896-1.104,1.776-1.992c-0.264-1.752-0.864-3.168-2.448-3.168c-1.151,0-1.823,1.128-1.68,2.016
					C380.326,57.248,380.83,58.64,382.414,58.64z"/>
			</g>
			<path fill="none" stroke="#000000" d="M375.054,56.52h14.667"/>
		</g>
		<g>
			<path fill="#FF0000" d="M149.116,103.968c-0.06-1.128-0.132-2.496-0.132-3.492h-0.024c-0.288,0.936-0.612,1.956-1.02,3.072
				l-1.428,3.924h-0.792l-1.32-3.852c-0.384-1.152-0.696-2.184-0.924-3.144h-0.024c-0.024,1.008-0.084,2.352-0.156,3.576
				l-0.216,3.468h-0.996l0.564-8.088h1.332l1.38,3.912c0.336,0.996,0.6,1.884,0.816,2.724h0.024
				c0.216-0.816,0.504-1.704,0.864-2.724l1.44-3.912h1.332l0.504,8.088h-1.032L149.116,103.968z"/>
			<path fill="#FF0000" d="M151.828,106.32c0.3,0.18,0.984,0.48,1.728,0.48c1.344,0,1.776-0.852,1.764-1.512
				c-0.012-1.092-0.996-1.56-2.016-1.56h-0.588v-0.792h0.588c0.768,0,1.74-0.396,1.74-1.32c0-0.624-0.396-1.176-1.368-1.176
				c-0.624,0-1.224,0.276-1.56,0.516l-0.288-0.768c0.42-0.3,1.212-0.6,2.052-0.6c1.536,0,2.232,0.912,2.232,1.86
				c0,0.816-0.492,1.5-1.44,1.848v0.024c0.96,0.18,1.74,0.9,1.74,1.992c0,1.248-0.984,2.34-2.844,2.34
				c-0.876,0-1.644-0.276-2.028-0.528L151.828,106.32z"/>
			<path fill="#FF0000" d="M160.216,103.476v-0.72h6.192v0.72H160.216z M160.216,105.828v-0.72h6.192v0.72H160.216z"/>
			<path fill="#FF0000" d="M170.308,103.284c0-0.612-0.024-1.092-0.048-1.572h0.924l0.048,0.936h0.036
				c0.324-0.552,0.864-1.068,1.836-1.068c0.78,0,1.38,0.48,1.632,1.164h0.024c0.18-0.336,0.42-0.576,0.66-0.756
				c0.348-0.264,0.72-0.408,1.272-0.408c0.78,0,1.92,0.504,1.92,2.52v3.42h-1.032v-3.288c0-1.128-0.42-1.788-1.26-1.788
				c-0.612,0-1.068,0.444-1.26,0.948c-0.048,0.156-0.084,0.348-0.084,0.528v3.6h-1.032v-3.48c0-0.936-0.408-1.596-1.212-1.596
				c-0.648,0-1.14,0.528-1.308,1.056c-0.06,0.156-0.084,0.336-0.084,0.516v3.504h-1.032V103.284z"/>
			<path fill="#FF0000" d="M184.408,106.128c0,0.504,0.024,0.996,0.084,1.392h-0.948l-0.096-0.732h-0.036
				c-0.312,0.456-0.948,0.864-1.776,0.864c-1.176,0-1.776-0.828-1.776-1.668c0-1.404,1.248-2.172,3.492-2.16v-0.12
				c0-0.48-0.132-1.356-1.32-1.344c-0.552,0-1.116,0.156-1.524,0.432l-0.24-0.708c0.48-0.3,1.188-0.504,1.92-0.504
				c1.788,0,2.22,1.212,2.22,2.376V106.128z M183.375,104.556c-1.152-0.024-2.46,0.18-2.46,1.308c0,0.696,0.456,1.008,0.984,1.008
				c0.768,0,1.26-0.48,1.428-0.972c0.036-0.108,0.048-0.228,0.048-0.336V104.556z"/>
			<path fill="#FF0000" d="M184.671,109.224c0.492-0.036,0.9-0.168,1.152-0.444c0.288-0.324,0.408-0.792,0.408-2.184v-4.884h1.056
				v5.292c0,1.128-0.18,1.86-0.696,2.388c-0.468,0.468-1.236,0.66-1.8,0.66L184.671,109.224z M186.735,100.644
				c-0.396,0-0.66-0.312-0.66-0.684s0.276-0.672,0.684-0.672c0.408,0,0.672,0.3,0.672,0.672s-0.252,0.684-0.684,0.684H186.735z"/>
			<path fill="#FF0000" d="M191.379,107.652c-1.56,0-2.784-1.152-2.784-2.988c0-1.944,1.284-3.084,2.88-3.084
				c1.668,0,2.796,1.212,2.796,2.976c0,2.16-1.5,3.096-2.88,3.096H191.379z M191.416,106.86c1.008,0,1.764-0.948,1.764-2.268
				c0-0.984-0.492-2.22-1.74-2.22c-1.236,0-1.776,1.152-1.776,2.256c0,1.272,0.72,2.232,1.74,2.232H191.416z"/>
			<path fill="#FF0000" d="M195.615,103.524c0-0.684-0.012-1.272-0.048-1.812h0.924l0.048,1.14h0.036
				c0.264-0.78,0.912-1.272,1.62-1.272c0.108,0,0.192,0.012,0.288,0.036v0.984c-0.12-0.012-0.228-0.024-0.372-0.024
				c-0.744,0-1.272,0.564-1.416,1.344c-0.024,0.156-0.036,0.324-0.036,0.504v3.096h-1.056L195.615,103.524z"/>
			<path fill="#FF0000" d="M203.343,100.32v1.392h1.512v0.804h-1.512v3.132c0,0.72,0.204,1.128,0.792,1.128
				c0.288,0,0.456-0.024,0.612-0.072l0.048,0.804c-0.204,0.072-0.528,0.144-0.936,0.144c-0.492,0-0.888-0.168-1.14-0.444
				c-0.288-0.324-0.408-0.84-0.408-1.524v-3.168h-0.9v-0.804h0.9v-1.068L203.343,100.32z"/>
			<path fill="#FF0000" d="M206.043,99h1.056v3.624h0.024c0.168-0.3,0.432-0.576,0.756-0.744c0.312-0.192,0.684-0.3,1.08-0.3
				c0.78,0,2.028,0.48,2.028,2.484v3.456h-1.056v-3.336c0-0.948-0.348-1.728-1.344-1.728c-0.684,0-1.212,0.48-1.416,1.056
				c-0.06,0.144-0.072,0.3-0.072,0.504v3.504h-1.056V99z"/>
			<path fill="#FF0000" d="M213.207,100.644c-0.396,0-0.66-0.312-0.66-0.684s0.276-0.672,0.684-0.672c0.408,0,0.672,0.3,0.672,0.672
				s-0.264,0.684-0.684,0.684H213.207z M212.703,107.52v-5.808h1.056v5.808H212.703z"/>
			<path fill="#FF0000" d="M215.523,103.524c0-0.684-0.012-1.272-0.048-1.812h0.924l0.048,1.14h0.036
				c0.264-0.78,0.912-1.272,1.62-1.272c0.108,0,0.192,0.012,0.288,0.036v0.984c-0.12-0.012-0.228-0.024-0.372-0.024
				c-0.744,0-1.272,0.564-1.416,1.344c-0.024,0.156-0.036,0.324-0.036,0.504v3.096h-1.056L215.523,103.524z"/>
			<path fill="#FF0000" d="M224.379,99v7.02c0,0.516,0.012,1.104,0.048,1.5h-0.948l-0.048-1.008h-0.024
				c-0.324,0.648-1.02,1.14-1.968,1.14c-1.404,0-2.496-1.188-2.496-2.952c-0.012-1.944,1.2-3.12,2.604-3.12
				c0.9,0,1.5,0.42,1.752,0.876h0.024V99H224.379z M223.323,104.076c0-0.144-0.012-0.312-0.048-0.456
				c-0.156-0.66-0.732-1.212-1.524-1.212c-1.092,0-1.74,0.96-1.74,2.232c0,1.188,0.588,2.16,1.716,2.16
				c0.708,0,1.356-0.48,1.548-1.26c0.036-0.144,0.048-0.288,0.048-0.456V104.076z"/>
			<path fill="#0A50A1" d="M142.264,117.784c0-0.612-0.024-1.092-0.048-1.572h0.924l0.048,0.936h0.036
				c0.324-0.552,0.864-1.068,1.836-1.068c0.78,0,1.38,0.48,1.632,1.164h0.024c0.18-0.336,0.42-0.576,0.66-0.756
				c0.348-0.264,0.72-0.408,1.272-0.408c0.78,0,1.92,0.504,1.92,2.52v3.42h-1.032v-3.288c0-1.128-0.42-1.788-1.26-1.788
				c-0.612,0-1.068,0.444-1.26,0.948c-0.048,0.156-0.084,0.348-0.084,0.528v3.6H145.9v-3.48c0-0.936-0.408-1.596-1.212-1.596
				c-0.648,0-1.14,0.528-1.308,1.056c-0.06,0.156-0.084,0.336-0.084,0.516v3.504h-1.032V117.784z"/>
			<path fill="#0A50A1" d="M152.188,120.82c0.3,0.18,0.984,0.48,1.728,0.48c1.344,0,1.776-0.852,1.764-1.512
				c-0.012-1.092-0.996-1.56-2.016-1.56h-0.588v-0.792h0.588c0.768,0,1.74-0.396,1.74-1.32c0-0.624-0.396-1.176-1.368-1.176
				c-0.624,0-1.224,0.276-1.56,0.516l-0.288-0.768c0.42-0.3,1.212-0.6,2.052-0.6c1.536,0,2.232,0.912,2.232,1.86
				c0,0.816-0.492,1.5-1.44,1.848v0.024c0.96,0.18,1.74,0.9,1.74,1.992c0,1.248-0.984,2.34-2.844,2.34
				c-0.876,0-1.644-0.276-2.028-0.528L152.188,120.82z"/>
			<path fill="#0A50A1" d="M160.576,117.976v-0.72h6.192v0.72H160.576z M160.576,120.328v-0.72h6.192v0.72H160.576z"/>
			<path fill="#0A50A1" d="M170.667,117.784c0-0.612-0.024-1.092-0.048-1.572h0.924l0.048,0.936h0.036
				c0.324-0.552,0.864-1.068,1.836-1.068c0.78,0,1.38,0.48,1.632,1.164h0.024c0.18-0.336,0.42-0.576,0.66-0.756
				c0.348-0.264,0.72-0.408,1.272-0.408c0.78,0,1.92,0.504,1.92,2.52v3.42h-1.032v-3.288c0-1.128-0.42-1.788-1.26-1.788
				c-0.612,0-1.068,0.444-1.26,0.948c-0.048,0.156-0.084,0.348-0.084,0.528v3.6h-1.032v-3.48c0-0.936-0.408-1.596-1.212-1.596
				c-0.648,0-1.14,0.528-1.308,1.056c-0.06,0.156-0.084,0.336-0.084,0.516v3.504h-1.032V117.784z"/>
			<path fill="#0A50A1" d="M181.18,115.144c-0.396,0-0.66-0.312-0.66-0.684s0.276-0.672,0.684-0.672c0.408,0,0.672,0.3,0.672,0.672
				s-0.264,0.684-0.684,0.684H181.18z M180.676,122.02v-5.808h1.056v5.808H180.676z"/>
			<path fill="#0A50A1" d="M183.483,117.784c0-0.612-0.012-1.092-0.048-1.572h0.936l0.06,0.948h0.024
				c0.288-0.54,0.96-1.08,1.92-1.08c0.804,0,2.052,0.48,2.052,2.472v3.468h-1.056v-3.348c0-0.936-0.348-1.728-1.344-1.728
				c-0.684,0-1.224,0.492-1.416,1.08c-0.048,0.132-0.072,0.324-0.072,0.492v3.504h-1.056V117.784z"/>
			<path fill="#0A50A1" d="M192.507,122.152c-1.56,0-2.784-1.152-2.784-2.988c0-1.944,1.284-3.084,2.88-3.084
				c1.668,0,2.796,1.212,2.796,2.976c0,2.16-1.5,3.096-2.88,3.096H192.507z M192.543,121.36c1.008,0,1.764-0.948,1.764-2.268
				c0-0.984-0.492-2.22-1.74-2.22c-1.236,0-1.776,1.152-1.776,2.256c0,1.272,0.72,2.232,1.74,2.232H192.543z"/>
			<path fill="#0A50A1" d="M196.744,118.024c0-0.684-0.012-1.272-0.048-1.812h0.924l0.048,1.14h0.036
				c0.264-0.78,0.912-1.272,1.62-1.272c0.108,0,0.192,0.012,0.288,0.036v0.984c-0.12-0.012-0.228-0.024-0.372-0.024
				c-0.744,0-1.272,0.564-1.416,1.344c-0.024,0.156-0.036,0.324-0.036,0.504v3.096h-1.056L196.744,118.024z"/>
			<path fill="#0A50A1" d="M204.471,114.82v1.392h1.512v0.804h-1.512v3.132c0,0.72,0.204,1.128,0.792,1.128
				c0.288,0,0.456-0.024,0.612-0.072l0.048,0.804c-0.204,0.072-0.528,0.144-0.936,0.144c-0.492,0-0.888-0.168-1.14-0.444
				c-0.288-0.324-0.408-0.84-0.408-1.524v-3.168h-0.9v-0.804h0.9v-1.068L204.471,114.82z"/>
			<path fill="#0A50A1" d="M207.171,113.5h1.056v3.624h0.024c0.168-0.3,0.432-0.576,0.756-0.744c0.312-0.192,0.684-0.3,1.08-0.3
				c0.78,0,2.028,0.48,2.028,2.484v3.456h-1.056v-3.336c0-0.948-0.348-1.728-1.344-1.728c-0.684,0-1.212,0.48-1.416,1.056
				c-0.06,0.144-0.072,0.3-0.072,0.504v3.504h-1.056V113.5z"/>
			<path fill="#0A50A1" d="M214.335,115.144c-0.396,0-0.66-0.312-0.66-0.684s0.276-0.672,0.684-0.672c0.408,0,0.672,0.3,0.672,0.672
				s-0.264,0.684-0.684,0.684H214.335z M213.831,122.02v-5.808h1.056v5.808H213.831z"/>
			<path fill="#0A50A1" d="M216.651,118.024c0-0.684-0.012-1.272-0.048-1.812h0.924l0.048,1.14h0.036
				c0.264-0.78,0.912-1.272,1.62-1.272c0.108,0,0.192,0.012,0.288,0.036v0.984c-0.12-0.012-0.228-0.024-0.372-0.024
				c-0.744,0-1.272,0.564-1.416,1.344c-0.024,0.156-0.036,0.324-0.036,0.504v3.096h-1.056L216.651,118.024z"/>
			<path fill="#0A50A1" d="M225.507,113.5v7.02c0,0.516,0.012,1.104,0.048,1.5h-0.948l-0.048-1.008h-0.024
				c-0.324,0.648-1.02,1.14-1.968,1.14c-1.404,0-2.496-1.188-2.496-2.952c-0.012-1.944,1.2-3.12,2.604-3.12
				c0.9,0,1.5,0.42,1.752,0.876h0.024V113.5H225.507z M224.451,118.576c0-0.144-0.012-0.312-0.048-0.456
				c-0.156-0.66-0.732-1.212-1.524-1.212c-1.092,0-1.74,0.96-1.74,2.232c0,1.188,0.588,2.16,1.716,2.16
				c0.708,0,1.356-0.48,1.548-1.26c0.036-0.144,0.048-0.288,0.048-0.456V118.576z"/>
		</g>
		<g>
			<path fill="#FF0000" d="M241.3,92.54c0.504-0.096,1.164-0.168,2.004-0.168c1.032,0,1.788,0.24,2.268,0.672
				c0.444,0.384,0.72,0.972,0.72,1.692c0,0.732-0.216,1.308-0.636,1.728c-0.552,0.588-1.452,0.888-2.472,0.888
				c-0.312,0-0.6-0.012-0.84-0.072v3.24H241.3V92.54z M242.344,96.428c0.228,0.06,0.528,0.084,0.864,0.084
				c1.272,0,2.028-0.624,2.028-1.716c0-1.08-0.756-1.596-1.908-1.596c-0.456,0-0.804,0.048-0.984,0.084V96.428z"/>
			<path fill="#FF0000" d="M251.968,93.608h-2.976l-0.3,1.98c0.18-0.024,0.348-0.048,0.636-0.048c0.612,0,1.2,0.132,1.68,0.42
				c0.612,0.336,1.116,1.02,1.116,2.028c0,1.524-1.212,2.664-2.904,2.664c-0.852,0-1.56-0.24-1.944-0.48l0.264-0.804
				c0.324,0.192,0.96,0.432,1.68,0.432c0.984,0,1.848-0.648,1.836-1.704c0-1.032-0.684-1.74-2.232-1.74
				c-0.456,0-0.804,0.036-1.092,0.084l0.504-3.72h3.732V93.608z"/>
			<path fill="#FF0000" d="M255.952,96.476v-0.72h6.192v0.72H255.952z M255.952,98.828v-0.72h6.192v0.72H255.952z"/>
			<path fill="#FF0000" d="M266.043,96.608c0-0.744-0.012-1.344-0.048-1.896h0.948l0.06,0.996h0.024
				c0.42-0.72,1.116-1.128,2.052-1.128c1.416,0,2.472,1.188,2.472,2.952c0,2.088-1.284,3.12-2.64,3.12
				c-0.78,0-1.44-0.336-1.788-0.912H267.1v3.156h-1.056V96.608z M267.1,98.156c0,0.144,0.012,0.3,0.048,0.432
				c0.18,0.732,0.828,1.236,1.572,1.236c1.116,0,1.764-0.912,1.764-2.244c0-1.164-0.6-2.16-1.716-2.16
				c-0.72,0-1.404,0.504-1.608,1.296c-0.024,0.144-0.06,0.3-0.06,0.432V98.156z"/>
			<path fill="#FF0000" d="M273.483,97.796c0.024,1.428,0.924,2.016,1.98,2.016c0.756,0,1.224-0.132,1.608-0.288l0.192,0.744
				c-0.372,0.168-1.02,0.372-1.944,0.372c-1.776,0-2.856-1.188-2.856-2.928c0-1.764,1.044-3.144,2.736-3.144
				c1.896,0,2.388,1.668,2.388,2.736c0,0.216-0.012,0.384-0.036,0.504L273.483,97.796z M276.567,97.04
				c0.012-0.66-0.276-1.716-1.452-1.716c-1.08,0-1.536,0.984-1.62,1.716H276.567z"/>
			<path fill="#FF0000" d="M278.907,96.524c0-0.684-0.012-1.272-0.048-1.812h0.924l0.048,1.14h0.036
				c0.264-0.78,0.912-1.272,1.62-1.272c0.108,0,0.192,0.012,0.288,0.036V95.6c-0.12-0.012-0.228-0.024-0.372-0.024
				c-0.744,0-1.272,0.564-1.416,1.344c-0.024,0.156-0.036,0.324-0.036,0.504v3.096h-1.056L278.907,96.524z"/>
			<path fill="#FF0000" d="M283.275,100.52v-5.004h-0.804v-0.804h0.804v-0.276c0-0.816,0.192-1.56,0.684-2.028
				c0.396-0.384,0.924-0.54,1.404-0.54c0.384,0,0.696,0.084,0.9,0.168l-0.132,0.816c-0.168-0.072-0.372-0.132-0.684-0.132
				c-0.888,0-1.128,0.792-1.128,1.68v0.312h1.404v0.804h-1.392v5.004H283.275z"/>
			<path fill="#FF0000" d="M287.139,97.796c0.024,1.428,0.924,2.016,1.98,2.016c0.756,0,1.224-0.132,1.608-0.288l0.192,0.744
				c-0.372,0.168-1.021,0.372-1.944,0.372c-1.776,0-2.856-1.188-2.856-2.928c0-1.764,1.044-3.144,2.736-3.144
				c1.896,0,2.389,1.668,2.389,2.736c0,0.216-0.013,0.384-0.036,0.504L287.139,97.796z M290.223,97.04
				c0.012-0.66-0.276-1.716-1.452-1.716c-1.08,0-1.536,0.984-1.62,1.716H290.223z"/>
			<path fill="#FF0000" d="M296.691,100.316c-0.275,0.132-0.888,0.336-1.668,0.336c-1.752,0-2.892-1.188-2.892-2.976
				c0-1.788,1.224-3.096,3.12-3.096c0.624,0,1.176,0.156,1.464,0.312l-0.24,0.804c-0.252-0.132-0.648-0.276-1.224-0.276
				c-1.332,0-2.053,0.996-2.053,2.208c0,1.344,0.864,2.172,2.017,2.172c0.6,0,0.996-0.144,1.296-0.276L296.691,100.316z"/>
			<path fill="#FF0000" d="M299.355,93.32v1.392h1.512v0.804h-1.512v3.132c0,0.72,0.204,1.128,0.792,1.128
				c0.288,0,0.456-0.024,0.612-0.072l0.048,0.804c-0.204,0.072-0.528,0.144-0.937,0.144c-0.491,0-0.888-0.168-1.14-0.444
				c-0.288-0.324-0.408-0.84-0.408-1.524v-3.168h-0.899v-0.804h0.899v-1.068L299.355,93.32z"/>
			<path fill="#FF0000" d="M304.695,100.52v-5.004h-0.804v-0.804h0.804v-0.276c0-0.816,0.191-1.56,0.684-2.028
				c0.396-0.384,0.924-0.54,1.404-0.54c0.384,0,0.696,0.084,0.9,0.168l-0.133,0.816c-0.168-0.072-0.371-0.132-0.684-0.132
				c-0.888,0-1.128,0.792-1.128,1.68v0.312h1.404v0.804h-1.393v5.004H304.695z"/>
			<path fill="#FF0000" d="M308.607,93.644c-0.396,0-0.66-0.312-0.66-0.684s0.275-0.672,0.684-0.672s0.672,0.3,0.672,0.672
				s-0.264,0.684-0.684,0.684H308.607z M308.103,100.52v-5.808h1.056v5.808H308.103z"/>
			<path fill="#FF0000" d="M311.006,100.52v-5.004h-0.804v-0.804h0.804v-0.276c0-0.816,0.192-1.56,0.685-2.028
				c0.396-0.384,0.924-0.54,1.403-0.54c0.385,0,0.696,0.084,0.9,0.168l-0.132,0.816c-0.168-0.072-0.372-0.132-0.685-0.132
				c-0.888,0-1.128,0.792-1.128,1.68v0.312h1.404v0.804h-1.392v5.004H311.006z"/>
			<path fill="#FF0000" d="M315.818,93.32v1.392h1.513v0.804h-1.513v3.132c0,0.72,0.204,1.128,0.792,1.128
				c0.288,0,0.456-0.024,0.612-0.072l0.048,0.804c-0.204,0.072-0.527,0.144-0.936,0.144c-0.492,0-0.888-0.168-1.141-0.444
				c-0.287-0.324-0.407-0.84-0.407-1.524v-3.168h-0.9v-0.804h0.9v-1.068L315.818,93.32z"/>
			<path fill="#FF0000" d="M318.518,92h1.056v3.624h0.024c0.168-0.3,0.432-0.576,0.756-0.744c0.313-0.192,0.685-0.3,1.08-0.3
				c0.78,0,2.028,0.48,2.028,2.484v3.456h-1.057v-3.336c0-0.948-0.348-1.728-1.344-1.728c-0.684,0-1.212,0.48-1.416,1.056
				c-0.06,0.144-0.072,0.3-0.072,0.504v3.504h-1.056V92z"/>
			<path fill="#0A50A1" d="M242.608,112.476l-0.84,2.544h-1.08l2.748-8.088h1.26l2.76,8.088h-1.116l-0.864-2.544H242.608z
				 M245.26,111.66l-0.804-2.328c-0.168-0.528-0.288-1.008-0.408-1.476h-0.036c-0.108,0.468-0.24,0.972-0.396,1.464l-0.792,2.34
				H245.26z"/>
			<path fill="#0A50A1" d="M252.928,108.108h-2.976l-0.3,1.98c0.18-0.024,0.348-0.048,0.636-0.048c0.612,0,1.2,0.132,1.68,0.42
				c0.612,0.336,1.116,1.02,1.116,2.028c0,1.524-1.212,2.664-2.904,2.664c-0.852,0-1.56-0.24-1.944-0.48l0.264-0.804
				c0.324,0.192,0.96,0.432,1.68,0.432c0.984,0,1.848-0.648,1.836-1.704c0-1.032-0.684-1.74-2.232-1.74
				c-0.456,0-0.804,0.036-1.092,0.084l0.504-3.72h3.732V108.108z"/>
			<path fill="#0A50A1" d="M256.912,110.976v-0.72h6.192v0.72H256.912z M256.912,113.328v-0.72h6.192v0.72H256.912z"/>
			<path fill="#0A50A1" d="M271.096,113.628c0,0.504,0.024,0.996,0.084,1.392h-0.948l-0.096-0.732H270.1
				c-0.312,0.456-0.948,0.864-1.776,0.864c-1.176,0-1.776-0.828-1.776-1.668c0-1.404,1.248-2.172,3.492-2.16v-0.12
				c0-0.48-0.132-1.356-1.32-1.344c-0.552,0-1.116,0.156-1.524,0.432l-0.24-0.708c0.48-0.3,1.188-0.504,1.92-0.504
				c1.788,0,2.22,1.212,2.22,2.376V113.628z M270.063,112.056c-1.152-0.024-2.46,0.18-2.46,1.308c0,0.696,0.456,1.008,0.984,1.008
				c0.768,0,1.26-0.48,1.428-0.972c0.036-0.108,0.048-0.228,0.048-0.336V112.056z"/>
			<path fill="#0A50A1" d="M277.647,113.436c0,0.6,0.012,1.128,0.048,1.584h-0.936l-0.06-0.948h-0.024
				c-0.264,0.468-0.888,1.08-1.92,1.08c-0.912,0-2.004-0.516-2.004-2.544v-3.396h1.056v3.204c0,1.104,0.348,1.86,1.296,1.86
				c0.708,0,1.2-0.492,1.392-0.972c0.06-0.144,0.096-0.336,0.096-0.54v-3.552h1.056V113.436z"/>
			<path fill="#0A50A1" d="M284.368,114.168c0,1.344-0.276,2.148-0.828,2.664c-0.576,0.516-1.392,0.696-2.124,0.696
				c-0.696,0-1.464-0.168-1.932-0.48l0.264-0.816c0.384,0.252,0.984,0.468,1.704,0.468c1.08,0,1.872-0.564,1.872-2.04v-0.636H283.3
				c-0.312,0.54-0.948,0.972-1.848,0.972c-1.44,0-2.472-1.224-2.472-2.844c0-1.968,1.284-3.072,2.628-3.072
				c1.008,0,1.548,0.516,1.812,0.996h0.024l0.036-0.864h0.936c-0.036,0.408-0.048,0.876-0.048,1.584V114.168z M283.312,111.492
				c0-0.168-0.012-0.324-0.06-0.468c-0.192-0.624-0.696-1.128-1.476-1.128c-1.008,0-1.728,0.852-1.728,2.208
				c0,1.128,0.588,2.088,1.716,2.088c0.66,0,1.248-0.408,1.464-1.092c0.06-0.168,0.084-0.372,0.084-0.564V111.492z"/>
			<path fill="#0A50A1" d="M286.107,110.784c0-0.612-0.024-1.092-0.048-1.572h0.924l0.048,0.936h0.036
				c0.324-0.552,0.864-1.068,1.836-1.068c0.78,0,1.38,0.48,1.632,1.164h0.023c0.181-0.336,0.42-0.576,0.66-0.756
				c0.349-0.264,0.721-0.408,1.272-0.408c0.78,0,1.92,0.504,1.92,2.52v3.42h-1.032v-3.288c0-1.128-0.42-1.788-1.26-1.788
				c-0.612,0-1.068,0.444-1.26,0.948c-0.049,0.156-0.084,0.348-0.084,0.528v3.6h-1.032v-3.48c0-0.936-0.408-1.596-1.212-1.596
				c-0.648,0-1.14,0.528-1.308,1.056c-0.06,0.156-0.084,0.336-0.084,0.516v3.504h-1.032V110.784z"/>
			<path fill="#0A50A1" d="M296.715,112.296c0.024,1.428,0.924,2.016,1.98,2.016c0.756,0,1.224-0.132,1.607-0.288l0.192,0.744
				c-0.372,0.168-1.021,0.372-1.944,0.372c-1.775,0-2.855-1.188-2.855-2.928c0-1.764,1.044-3.144,2.735-3.144
				c1.896,0,2.389,1.668,2.389,2.736c0,0.216-0.013,0.384-0.036,0.504L296.715,112.296z M299.799,111.54
				c0.012-0.66-0.275-1.716-1.452-1.716c-1.08,0-1.536,0.984-1.62,1.716H299.799z"/>
			<path fill="#0A50A1" d="M302.127,110.784c0-0.612-0.012-1.092-0.048-1.572h0.936l0.061,0.948h0.023
				c0.288-0.54,0.96-1.08,1.92-1.08c0.805,0,2.053,0.48,2.053,2.472v3.468h-1.057v-3.348c0-0.936-0.348-1.728-1.344-1.728
				c-0.684,0-1.224,0.492-1.416,1.08c-0.048,0.132-0.072,0.324-0.072,0.492v3.504h-1.056V110.784z"/>
			<path fill="#0A50A1" d="M310.011,107.82v1.392h1.512v0.804h-1.512v3.132c0,0.72,0.204,1.128,0.792,1.128
				c0.288,0,0.456-0.024,0.612-0.072l0.048,0.804c-0.204,0.072-0.528,0.144-0.937,0.144c-0.491,0-0.888-0.168-1.14-0.444
				c-0.288-0.324-0.408-0.84-0.408-1.524v-3.168h-0.899v-0.804h0.899v-1.068L310.011,107.82z"/>
			<path fill="#0A50A1" d="M313.239,112.296c0.024,1.428,0.925,2.016,1.98,2.016c0.756,0,1.224-0.132,1.608-0.288l0.191,0.744
				c-0.372,0.168-1.02,0.372-1.943,0.372c-1.776,0-2.856-1.188-2.856-2.928c0-1.764,1.044-3.144,2.736-3.144
				c1.896,0,2.388,1.668,2.388,2.736c0,0.216-0.012,0.384-0.036,0.504L313.239,112.296z M316.324,111.54
				c0.012-0.66-0.276-1.716-1.452-1.716c-1.08,0-1.536,0.984-1.62,1.716H316.324z"/>
			<path fill="#0A50A1" d="M323.667,106.5v7.02c0,0.516,0.012,1.104,0.048,1.5h-0.948l-0.048-1.008h-0.024
				c-0.323,0.648-1.02,1.14-1.968,1.14c-1.404,0-2.496-1.188-2.496-2.952c-0.012-1.944,1.2-3.12,2.604-3.12
				c0.899,0,1.5,0.42,1.752,0.876h0.023V106.5H323.667z M322.611,111.576c0-0.144-0.012-0.312-0.048-0.456
				c-0.156-0.66-0.731-1.212-1.523-1.212c-1.093,0-1.74,0.96-1.74,2.232c0,1.188,0.588,2.16,1.716,2.16
				c0.708,0,1.356-0.48,1.548-1.26c0.036-0.144,0.048-0.288,0.048-0.456V111.576z"/>
			<path fill="#0A50A1" d="M328.059,115.02v-5.004h-0.804v-0.804h0.804v-0.276c0-0.816,0.192-1.56,0.684-2.028
				c0.396-0.384,0.925-0.54,1.404-0.54c0.384,0,0.696,0.084,0.9,0.168l-0.133,0.816c-0.168-0.072-0.371-0.132-0.684-0.132
				c-0.888,0-1.128,0.792-1.128,1.68v0.312h1.404v0.804h-1.393v5.004H328.059z"/>
			<path fill="#0A50A1" d="M331.971,108.144c-0.396,0-0.66-0.312-0.66-0.684s0.275-0.672,0.684-0.672s0.672,0.3,0.672,0.672
				s-0.264,0.684-0.684,0.684H331.971z M331.467,115.02v-5.808h1.056v5.808H331.467z"/>
			<path fill="#0A50A1" d="M334.371,115.02v-5.004h-0.804v-0.804h0.804v-0.276c0-0.816,0.192-1.56,0.685-2.028
				c0.396-0.384,0.924-0.54,1.403-0.54c0.385,0,0.696,0.084,0.9,0.168l-0.132,0.816c-0.168-0.072-0.372-0.132-0.685-0.132
				c-0.888,0-1.128,0.792-1.128,1.68v0.312h1.404v0.804h-1.392v5.004H334.371z"/>
			<path fill="#0A50A1" d="M339.182,107.82v1.392h1.513v0.804h-1.513v3.132c0,0.72,0.204,1.128,0.792,1.128
				c0.288,0,0.456-0.024,0.612-0.072l0.048,0.804c-0.204,0.072-0.527,0.144-0.936,0.144c-0.492,0-0.889-0.168-1.141-0.444
				c-0.287-0.324-0.407-0.84-0.407-1.524v-3.168h-0.9v-0.804h0.9v-1.068L339.182,107.82z"/>
			<path fill="#0A50A1" d="M341.882,106.5h1.057v3.624h0.023c0.168-0.3,0.432-0.576,0.756-0.744c0.313-0.192,0.685-0.3,1.08-0.3
				c0.78,0,2.028,0.48,2.028,2.484v3.456h-1.057v-3.336c0-0.948-0.348-1.728-1.344-1.728c-0.684,0-1.212,0.48-1.416,1.056
				c-0.06,0.144-0.071,0.3-0.071,0.504v3.504h-1.057V106.5z"/>
			<path fill="#0A50A1" d="M241.288,121.54c0.648-0.096,1.404-0.168,2.232-0.168c1.5,0,2.568,0.336,3.276,0.996
				c0.732,0.66,1.152,1.608,1.152,2.916c0,1.32-0.42,2.4-1.164,3.144c-0.768,0.756-2.016,1.164-3.588,1.164
				c-0.756,0-1.368-0.024-1.908-0.096V121.54z M242.344,128.704c0.264,0.048,0.648,0.048,1.056,0.048
				c2.232,0.012,3.444-1.248,3.444-3.432c0.012-1.932-1.068-3.12-3.276-3.12c-0.54,0-0.948,0.048-1.224,0.108V128.704z"/>
			<path fill="#0A50A1" d="M253.576,122.608H250.6l-0.3,1.98c0.18-0.024,0.348-0.048,0.636-0.048c0.612,0,1.2,0.132,1.68,0.42
				c0.612,0.336,1.116,1.02,1.116,2.028c0,1.524-1.212,2.664-2.904,2.664c-0.852,0-1.56-0.24-1.944-0.48l0.264-0.804
				c0.324,0.192,0.96,0.432,1.68,0.432c0.984,0,1.848-0.648,1.836-1.704c0-1.032-0.684-1.74-2.232-1.74
				c-0.456,0-0.804,0.036-1.092,0.084l0.504-3.72h3.732V122.608z"/>
			<path fill="#0A50A1" d="M257.56,125.476v-0.72h6.192v0.72H257.56z M257.56,127.828v-0.72h6.192v0.72H257.56z"/>
			<path fill="#0A50A1" d="M272.667,121v7.02c0,0.516,0.012,1.104,0.048,1.5h-0.948l-0.048-1.008h-0.024
				c-0.324,0.648-1.02,1.14-1.968,1.14c-1.404,0-2.496-1.188-2.496-2.952c-0.012-1.944,1.2-3.12,2.604-3.12
				c0.9,0,1.5,0.42,1.752,0.876h0.024V121H272.667z M271.611,126.076c0-0.144-0.012-0.312-0.048-0.456
				c-0.156-0.66-0.732-1.212-1.524-1.212c-1.092,0-1.74,0.96-1.74,2.232c0,1.188,0.588,2.16,1.716,2.16
				c0.708,0,1.356-0.48,1.548-1.26c0.036-0.144,0.048-0.288,0.048-0.456V126.076z"/>
			<path fill="#0A50A1" d="M274.923,122.644c-0.396,0-0.66-0.312-0.66-0.684s0.276-0.672,0.684-0.672c0.408,0,0.672,0.3,0.672,0.672
				s-0.264,0.684-0.684,0.684H274.923z M274.419,129.52v-5.808h1.056v5.808H274.419z"/>
			<path fill="#0A50A1" d="M277.228,125.284c0-0.612-0.024-1.092-0.048-1.572h0.924l0.048,0.936h0.036
				c0.324-0.552,0.864-1.068,1.836-1.068c0.78,0,1.38,0.48,1.632,1.164h0.024c0.18-0.336,0.42-0.576,0.66-0.756
				c0.348-0.264,0.72-0.408,1.272-0.408c0.78,0,1.92,0.504,1.92,2.52v3.42H284.5v-3.288c0-1.128-0.42-1.788-1.26-1.788
				c-0.612,0-1.068,0.444-1.26,0.948c-0.048,0.156-0.084,0.348-0.084,0.528v3.6h-1.032v-3.48c0-0.936-0.408-1.596-1.212-1.596
				c-0.648,0-1.14,0.528-1.308,1.056c-0.06,0.156-0.084,0.336-0.084,0.516v3.504h-1.032V125.284z"/>
			<path fill="#0A50A1" d="M287.739,122.644c-0.396,0-0.66-0.312-0.66-0.684s0.276-0.672,0.684-0.672c0.408,0,0.672,0.3,0.672,0.672
				s-0.264,0.684-0.684,0.684H287.739z M287.235,129.52v-5.808h1.056v5.808H287.235z"/>
			<path fill="#0A50A1" d="M290.043,125.284c0-0.612-0.012-1.092-0.048-1.572h0.936l0.061,0.948h0.023
				c0.288-0.54,0.96-1.08,1.92-1.08c0.805,0,2.053,0.48,2.053,2.472v3.468h-1.057v-3.348c0-0.936-0.348-1.728-1.344-1.728
				c-0.685,0-1.224,0.492-1.416,1.08c-0.048,0.132-0.072,0.324-0.072,0.492v3.504h-1.056V125.284z"/>
			<path fill="#0A50A1" d="M297.208,122.644c-0.396,0-0.66-0.312-0.66-0.684s0.275-0.672,0.684-0.672s0.672,0.3,0.672,0.672
				s-0.264,0.684-0.684,0.684H297.208z M296.704,129.52v-5.808h1.056v5.808H296.704z"/>
			<path fill="#0A50A1" d="M299.367,128.452c0.324,0.192,0.876,0.408,1.404,0.408c0.756,0,1.116-0.372,1.116-0.864
				c0-0.504-0.3-0.78-1.068-1.068c-1.056-0.384-1.548-0.948-1.548-1.644c0-0.936,0.769-1.704,2.004-1.704
				c0.588,0,1.104,0.156,1.416,0.36l-0.252,0.756c-0.228-0.132-0.647-0.336-1.188-0.336c-0.624,0-0.96,0.36-0.96,0.792
				c0,0.492,0.336,0.708,1.092,0.996c0.996,0.372,1.523,0.876,1.523,1.752c0,1.032-0.804,1.752-2.159,1.752
				c-0.637,0-1.225-0.168-1.633-0.408L299.367,128.452z"/>
			<path fill="#0A50A1" d="M304.263,121h1.056v3.624h0.024c0.168-0.3,0.432-0.576,0.756-0.744c0.312-0.192,0.684-0.3,1.08-0.3
				c0.78,0,2.028,0.48,2.028,2.484v3.456h-1.057v-3.336c0-0.948-0.348-1.728-1.344-1.728c-0.684,0-1.212,0.48-1.416,1.056
				c-0.06,0.144-0.072,0.3-0.072,0.504v3.504h-1.056V121z"/>
			<path fill="#0A50A1" d="M311.523,126.796c0.024,1.428,0.924,2.016,1.98,2.016c0.756,0,1.224-0.132,1.607-0.288l0.192,0.744
				c-0.372,0.168-1.021,0.372-1.944,0.372c-1.775,0-2.855-1.188-2.855-2.928c0-1.764,1.044-3.144,2.735-3.144
				c1.896,0,2.389,1.668,2.389,2.736c0,0.216-0.013,0.384-0.036,0.504L311.523,126.796z M314.607,126.04
				c0.012-0.66-0.276-1.716-1.452-1.716c-1.08,0-1.536,0.984-1.62,1.716H314.607z"/>
			<path fill="#0A50A1" d="M321.951,121v7.02c0,0.516,0.013,1.104,0.048,1.5h-0.947l-0.048-1.008h-0.024
				c-0.324,0.648-1.021,1.14-1.968,1.14c-1.404,0-2.496-1.188-2.496-2.952c-0.013-1.944,1.2-3.12,2.604-3.12
				c0.9,0,1.5,0.42,1.752,0.876h0.024V121H321.951z M320.895,126.076c0-0.144-0.012-0.312-0.048-0.456
				c-0.156-0.66-0.732-1.212-1.524-1.212c-1.092,0-1.74,0.96-1.74,2.232c0,1.188,0.589,2.16,1.717,2.16
				c0.708,0,1.355-0.48,1.548-1.26c0.036-0.144,0.048-0.288,0.048-0.456V126.076z"/>
			<path fill="#0A50A1" d="M326.342,129.52v-5.004h-0.804v-0.804h0.804v-0.276c0-0.816,0.192-1.56,0.685-2.028
				c0.396-0.384,0.924-0.54,1.404-0.54c0.384,0,0.695,0.084,0.899,0.168l-0.132,0.816c-0.168-0.072-0.372-0.132-0.684-0.132
				c-0.889,0-1.128,0.792-1.128,1.68v0.312h1.403v0.804h-1.392v5.004H326.342z"/>
			<path fill="#0A50A1" d="M330.254,122.644c-0.396,0-0.66-0.312-0.66-0.684s0.276-0.672,0.685-0.672s0.672,0.3,0.672,0.672
				s-0.264,0.684-0.684,0.684H330.254z M329.75,129.52v-5.808h1.056v5.808H329.75z"/>
			<path fill="#0A50A1" d="M332.655,129.52v-5.004h-0.805v-0.804h0.805v-0.276c0-0.816,0.191-1.56,0.684-2.028
				c0.396-0.384,0.924-0.54,1.404-0.54c0.384,0,0.696,0.084,0.899,0.168l-0.132,0.816c-0.168-0.072-0.372-0.132-0.684-0.132
				c-0.888,0-1.128,0.792-1.128,1.68v0.312h1.404v0.804h-1.393v5.004H332.655z"/>
			<path fill="#0A50A1" d="M337.466,122.32v1.392h1.512v0.804h-1.512v3.132c0,0.72,0.204,1.128,0.792,1.128
				c0.288,0,0.456-0.024,0.612-0.072l0.048,0.804c-0.204,0.072-0.528,0.144-0.937,0.144c-0.491,0-0.888-0.168-1.14-0.444
				c-0.288-0.324-0.408-0.84-0.408-1.524v-3.168h-0.899v-0.804h0.899v-1.068L337.466,122.32z"/>
			<path fill="#0A50A1" d="M340.167,121h1.056v3.624h0.024c0.168-0.3,0.432-0.576,0.756-0.744c0.312-0.192,0.684-0.3,1.08-0.3
				c0.779,0,2.027,0.48,2.027,2.484v3.456h-1.056v-3.336c0-0.948-0.348-1.728-1.344-1.728c-0.685,0-1.212,0.48-1.416,1.056
				c-0.061,0.144-0.072,0.3-0.072,0.504v3.504h-1.056V121z"/>
		</g>
		<g>
			<path fill="#FF0000" d="M294.117,43.968c-0.061-1.128-0.133-2.496-0.133-3.492h-0.023c-0.288,0.936-0.612,1.956-1.021,3.072
				l-1.428,3.924h-0.792l-1.32-3.852c-0.384-1.152-0.696-2.184-0.924-3.144h-0.024c-0.024,1.008-0.084,2.352-0.156,3.576
				l-0.216,3.468h-0.996l0.564-8.088h1.332l1.38,3.912c0.336,0.996,0.601,1.884,0.816,2.724h0.024
				c0.216-0.816,0.504-1.704,0.863-2.724l1.44-3.912h1.332l0.504,8.088h-1.032L294.117,43.968z"/>
			<path fill="#FF0000" d="M296.828,46.32c0.301,0.18,0.984,0.48,1.729,0.48c1.344,0,1.775-0.852,1.764-1.512
				c-0.012-1.092-0.996-1.56-2.016-1.56h-0.588v-0.792h0.588c0.768,0,1.74-0.396,1.74-1.32c0-0.624-0.396-1.176-1.368-1.176
				c-0.624,0-1.225,0.276-1.561,0.516l-0.288-0.768c0.42-0.3,1.212-0.6,2.053-0.6c1.536,0,2.231,0.912,2.231,1.86
				c0,0.816-0.492,1.5-1.439,1.848v0.024c0.96,0.18,1.739,0.9,1.739,1.992c0,1.248-0.983,2.34-2.844,2.34
				c-0.876,0-1.644-0.276-2.028-0.528L296.828,46.32z"/>
		</g>
		<path fill="#FFFFFF" stroke="#FFFFFF" d="M80.388,61.52h-15v-24h15V61.52z"/>
		<path fill="#FFFFFF" stroke="#FFFFFF" d="M105.888,61.52h-15v-24h15V61.52z"/>
		<path fill="#FFFFFF" stroke="#FFFFFF" d="M186.888,61.52h-15v-24h15V61.52z"/>
		<path fill="#FFFFFF" stroke="#FFFFFF" d="M213.388,61.52h-15v-24h15V61.52z"/>
		<path fill="#FFFFFF" stroke="#FFFFFF" d="M330.388,59.52h-15v-24h15V59.52z"/>
		<path fill="#FFFFFF" stroke="#FFFFFF" d="M414.388,61.52h-15v-24h15V61.52z"/>
		<path fill="#FFFFFF" stroke="#FFFFFF" d="M439.888,60.52h-15v-24h15V60.52z"/>
		<g>
			<path fill="#0A50A1" d="M66.264,43.284c0-0.612-0.024-1.092-0.048-1.572h0.924l0.048,0.936h0.036
				c0.324-0.552,0.864-1.068,1.836-1.068c0.78,0,1.38,0.48,1.632,1.164h0.024c0.18-0.336,0.42-0.576,0.66-0.756
				c0.348-0.264,0.72-0.408,1.272-0.408c0.78,0,1.92,0.504,1.92,2.52v3.42h-1.032v-3.288c0-1.128-0.42-1.788-1.26-1.788
				c-0.612,0-1.068,0.444-1.26,0.948c-0.048,0.156-0.084,0.348-0.084,0.528v3.6H69.9v-3.48c0-0.936-0.408-1.596-1.212-1.596
				c-0.648,0-1.14,0.528-1.308,1.056c-0.06,0.156-0.084,0.336-0.084,0.516v3.504h-1.032V43.284z"/>
			<path fill="#0A50A1" d="M76.188,46.32c0.3,0.18,0.984,0.48,1.728,0.48c1.344,0,1.776-0.852,1.764-1.512
				c-0.012-1.092-0.996-1.56-2.016-1.56h-0.588v-0.792h0.588c0.768,0,1.74-0.396,1.74-1.32c0-0.624-0.396-1.176-1.368-1.176
				c-0.624,0-1.224,0.276-1.56,0.516l-0.288-0.768c0.42-0.3,1.212-0.6,2.052-0.6c1.536,0,2.232,0.912,2.232,1.86
				c0,0.816-0.492,1.5-1.44,1.848v0.024c0.96,0.18,1.74,0.9,1.74,1.992c0,1.248-0.984,2.34-2.844,2.34
				c-0.876,0-1.644-0.276-2.028-0.528L76.188,46.32z"/>
		</g>
		<g>
			<path fill="#0A50A1" d="M172.264,55.284c0-0.612-0.024-1.092-0.048-1.572h0.924l0.048,0.936h0.036
				c0.324-0.552,0.864-1.068,1.836-1.068c0.78,0,1.38,0.48,1.632,1.164h0.024c0.18-0.336,0.42-0.576,0.66-0.756
				c0.348-0.264,0.72-0.408,1.272-0.408c0.78,0,1.92,0.504,1.92,2.52v3.42h-1.032v-3.288c0-1.128-0.42-1.788-1.26-1.788
				c-0.612,0-1.068,0.444-1.26,0.948c-0.048,0.156-0.084,0.348-0.084,0.528v3.6H175.9v-3.48c0-0.936-0.408-1.596-1.212-1.596
				c-0.648,0-1.14,0.528-1.308,1.056c-0.06,0.156-0.084,0.336-0.084,0.516v3.504h-1.032V55.284z"/>
			<path fill="#0A50A1" d="M182.188,58.32c0.3,0.18,0.984,0.48,1.728,0.48c1.344,0,1.776-0.852,1.764-1.512
				c-0.012-1.092-0.996-1.56-2.016-1.56h-0.588v-0.792h0.588c0.768,0,1.74-0.396,1.74-1.32c0-0.624-0.396-1.176-1.368-1.176
				c-0.624,0-1.224,0.276-1.56,0.516l-0.288-0.768c0.42-0.3,1.212-0.6,2.052-0.6c1.536,0,2.232,0.912,2.232,1.86
				c0,0.816-0.492,1.5-1.44,1.848v0.024c0.96,0.18,1.74,0.9,1.74,1.992c0,1.248-0.984,2.34-2.844,2.34
				c-0.876,0-1.644-0.276-2.028-0.528L182.188,58.32z"/>
		</g>
		<g>
			<path fill="#0A50A1" d="M400.264,54.284c0-0.612-0.024-1.092-0.048-1.572h0.924l0.048,0.936h0.036
				c0.324-0.552,0.864-1.068,1.836-1.068c0.78,0,1.38,0.48,1.632,1.164h0.024c0.18-0.336,0.42-0.576,0.66-0.756
				c0.348-0.264,0.72-0.408,1.271-0.408c0.78,0,1.92,0.504,1.92,2.52v3.42h-1.031v-3.288c0-1.128-0.42-1.788-1.261-1.788
				c-0.611,0-1.067,0.444-1.26,0.948c-0.048,0.156-0.084,0.348-0.084,0.528v3.6H403.9v-3.48c0-0.936-0.407-1.596-1.212-1.596
				c-0.647,0-1.14,0.528-1.308,1.056c-0.061,0.156-0.084,0.336-0.084,0.516v3.504h-1.032V54.284z"/>
			<path fill="#0A50A1" d="M410.188,57.32c0.3,0.18,0.984,0.48,1.729,0.48c1.344,0,1.775-0.852,1.764-1.512
				c-0.012-1.092-0.996-1.56-2.016-1.56h-0.588v-0.792h0.588c0.768,0,1.739-0.396,1.739-1.32c0-0.624-0.396-1.176-1.367-1.176
				c-0.624,0-1.225,0.276-1.561,0.516l-0.288-0.768c0.42-0.3,1.212-0.6,2.052-0.6c1.536,0,2.232,0.912,2.232,1.86
				c0,0.816-0.492,1.5-1.44,1.848v0.024c0.961,0.18,1.74,0.9,1.74,1.992c0,1.248-0.983,2.34-2.844,2.34
				c-0.876,0-1.644-0.276-2.028-0.528L410.188,57.32z"/>
		</g>
		<g>
			<path fill="#0A50A1" d="M399.264,43.284c0-0.612-0.024-1.092-0.048-1.572h0.924l0.048,0.936h0.036
				c0.324-0.552,0.864-1.068,1.836-1.068c0.78,0,1.38,0.48,1.632,1.164h0.024c0.18-0.336,0.42-0.576,0.66-0.756
				c0.348-0.264,0.72-0.408,1.271-0.408c0.78,0,1.92,0.504,1.92,2.52v3.42h-1.031v-3.288c0-1.128-0.42-1.788-1.261-1.788
				c-0.611,0-1.067,0.444-1.26,0.948c-0.048,0.156-0.084,0.348-0.084,0.528v3.6H402.9v-3.48c0-0.936-0.407-1.596-1.212-1.596
				c-0.647,0-1.14,0.528-1.308,1.056c-0.061,0.156-0.084,0.336-0.084,0.516v3.504h-1.032V43.284z"/>
			<path fill="#0A50A1" d="M409.188,46.32c0.3,0.18,0.984,0.48,1.729,0.48c1.344,0,1.775-0.852,1.764-1.512
				c-0.012-1.092-0.996-1.56-2.016-1.56h-0.588v-0.792h0.588c0.768,0,1.739-0.396,1.739-1.32c0-0.624-0.396-1.176-1.367-1.176
				c-0.624,0-1.225,0.276-1.561,0.516l-0.288-0.768c0.42-0.3,1.212-0.6,2.052-0.6c1.536,0,2.232,0.912,2.232,1.86
				c0,0.816-0.492,1.5-1.44,1.848v0.024c0.961,0.18,1.74,0.9,1.74,1.992c0,1.248-0.983,2.34-2.844,2.34
				c-0.876,0-1.644-0.276-2.028-0.528L409.188,46.32z"/>
		</g>
		<g>
			<path fill="#0A50A1" d="M318.608,46.976l-0.84,2.544h-1.08l2.748-8.088h1.26l2.761,8.088h-1.116l-0.864-2.544H318.608z
				 M321.26,46.16l-0.804-2.328c-0.168-0.528-0.288-1.008-0.408-1.476h-0.036c-0.108,0.468-0.24,0.972-0.396,1.464l-0.792,2.34
				H321.26z"/>
			<path fill="#0A50A1" d="M328.928,42.608h-2.976l-0.301,1.98c0.181-0.024,0.349-0.048,0.637-0.048c0.611,0,1.199,0.132,1.68,0.42
				c0.612,0.336,1.116,1.02,1.116,2.028c0,1.524-1.212,2.664-2.904,2.664c-0.852,0-1.56-0.24-1.944-0.48l0.265-0.804
				c0.323,0.192,0.96,0.432,1.68,0.432c0.984,0,1.848-0.648,1.836-1.704c0-1.032-0.684-1.74-2.231-1.74
				c-0.456,0-0.805,0.036-1.093,0.084l0.504-3.72h3.732V42.608z"/>
		</g>
		<g>
			<path fill="#0A50A1" d="M426.289,41.54c0.647-0.096,1.403-0.168,2.231-0.168c1.5,0,2.568,0.336,3.276,0.996
				c0.731,0.66,1.151,1.608,1.151,2.916c0,1.32-0.42,2.4-1.163,3.144c-0.769,0.756-2.017,1.164-3.589,1.164
				c-0.756,0-1.367-0.024-1.907-0.096V41.54z M427.344,48.704c0.264,0.048,0.647,0.048,1.056,0.048
				c2.232,0.012,3.444-1.248,3.444-3.432c0.012-1.932-1.068-3.12-3.276-3.12c-0.54,0-0.947,0.048-1.224,0.108V48.704z"/>
			<path fill="#0A50A1" d="M438.576,42.608H435.6l-0.3,1.98c0.18-0.024,0.348-0.048,0.636-0.048c0.612,0,1.2,0.132,1.68,0.42
				c0.612,0.336,1.116,1.02,1.116,2.028c0,1.524-1.212,2.664-2.904,2.664c-0.852,0-1.56-0.24-1.943-0.48l0.264-0.804
				c0.324,0.192,0.96,0.432,1.68,0.432c0.984,0,1.849-0.648,1.836-1.704c0-1.032-0.684-1.74-2.231-1.74
				c-0.456,0-0.804,0.036-1.092,0.084l0.504-3.72h3.731V42.608z"/>
		</g>
		<g>
			<path fill="#FF0000" d="M93.3,41.54c0.504-0.096,1.164-0.168,2.004-0.168c1.032,0,1.788,0.24,2.268,0.672
				c0.444,0.384,0.72,0.972,0.72,1.692c0,0.732-0.216,1.308-0.636,1.728c-0.552,0.588-1.452,0.888-2.472,0.888
				c-0.312,0-0.6-0.012-0.84-0.072v3.24H93.3V41.54z M94.344,45.428c0.228,0.06,0.528,0.084,0.864,0.084
				c1.272,0,2.028-0.624,2.028-1.716c0-1.08-0.756-1.596-1.908-1.596c-0.456,0-0.804,0.048-0.984,0.084V45.428z"/>
			<path fill="#FF0000" d="M103.968,42.608h-2.976l-0.3,1.98c0.18-0.024,0.348-0.048,0.636-0.048c0.612,0,1.2,0.132,1.68,0.42
				c0.612,0.336,1.116,1.02,1.116,2.028c0,1.524-1.212,2.664-2.904,2.664c-0.852,0-1.56-0.24-1.944-0.48l0.264-0.804
				c0.324,0.192,0.96,0.432,1.68,0.432c0.984,0,1.848-0.648,1.836-1.704c0-1.032-0.684-1.74-2.232-1.74
				c-0.456,0-0.804,0.036-1.092,0.084l0.504-3.72h3.732V42.608z"/>
		</g>
		<g>
			<path fill="#FF0000" d="M200.3,40.54c0.504-0.096,1.164-0.168,2.004-0.168c1.032,0,1.788,0.24,2.268,0.672
				c0.444,0.384,0.72,0.972,0.72,1.692c0,0.732-0.216,1.308-0.636,1.728c-0.552,0.588-1.452,0.888-2.472,0.888
				c-0.312,0-0.6-0.012-0.84-0.072v3.24H200.3V40.54z M201.344,44.428c0.228,0.06,0.528,0.084,0.864,0.084
				c1.272,0,2.028-0.624,2.028-1.716c0-1.08-0.756-1.596-1.908-1.596c-0.456,0-0.804,0.048-0.984,0.084V44.428z"/>
			<path fill="#FF0000" d="M210.968,41.608h-2.976l-0.3,1.98c0.18-0.024,0.348-0.048,0.636-0.048c0.612,0,1.2,0.132,1.68,0.42
				c0.612,0.336,1.116,1.02,1.116,2.028c0,1.524-1.212,2.664-2.904,2.664c-0.852,0-1.56-0.24-1.944-0.48l0.264-0.804
				c0.324,0.192,0.96,0.432,1.68,0.432c0.984,0,1.848-0.648,1.836-1.704c0-1.032-0.684-1.74-2.232-1.74
				c-0.456,0-0.804,0.036-1.092,0.084l0.504-3.72h3.732V41.608z"/>
		</g>
		<g>
			<path fill="#FF0000" d="M73.116,56.968c-0.06-1.128-0.132-2.496-0.132-3.492H72.96c-0.288,0.936-0.612,1.956-1.02,3.072
				l-1.428,3.924H69.72L68.4,56.62c-0.384-1.152-0.696-2.184-0.924-3.144h-0.024c-0.024,1.008-0.084,2.352-0.156,3.576L67.08,60.52
				h-0.996l0.564-8.088h1.332l1.38,3.912c0.336,0.996,0.6,1.884,0.816,2.724H70.2c0.216-0.816,0.504-1.704,0.864-2.724l1.44-3.912
				h1.332l0.504,8.088h-1.032L73.116,56.968z"/>
			<path fill="#FF0000" d="M75.828,59.32c0.3,0.18,0.984,0.48,1.728,0.48c1.344,0,1.776-0.852,1.764-1.512
				c-0.012-1.092-0.996-1.56-2.016-1.56h-0.588v-0.792h0.588c0.768,0,1.74-0.396,1.74-1.32c0-0.624-0.396-1.176-1.368-1.176
				c-0.624,0-1.224,0.276-1.56,0.516l-0.288-0.768c0.42-0.3,1.212-0.6,2.052-0.6c1.536,0,2.232,0.912,2.232,1.86
				c0,0.816-0.492,1.5-1.44,1.848v0.024c0.96,0.18,1.74,0.9,1.74,1.992c0,1.248-0.984,2.34-2.844,2.34
				c-0.876,0-1.644-0.276-2.028-0.528L75.828,59.32z"/>
		</g>
		<g>
			<path fill="#FF0000" d="M179.116,43.968c-0.06-1.128-0.132-2.496-0.132-3.492h-0.024c-0.288,0.936-0.612,1.956-1.02,3.072
				l-1.428,3.924h-0.792l-1.32-3.852c-0.384-1.152-0.696-2.184-0.924-3.144h-0.024c-0.024,1.008-0.084,2.352-0.156,3.576
				l-0.216,3.468h-0.996l0.564-8.088h1.332l1.38,3.912c0.336,0.996,0.6,1.884,0.816,2.724h0.024
				c0.216-0.816,0.504-1.704,0.864-2.724l1.44-3.912h1.332l0.504,8.088h-1.032L179.116,43.968z"/>
			<path fill="#FF0000" d="M181.828,46.32c0.3,0.18,0.984,0.48,1.728,0.48c1.344,0,1.776-0.852,1.764-1.512
				c-0.012-1.092-0.996-1.56-2.016-1.56h-0.588v-0.792h0.588c0.768,0,1.74-0.396,1.74-1.32c0-0.624-0.396-1.176-1.368-1.176
				c-0.624,0-1.224,0.276-1.56,0.516l-0.288-0.768c0.42-0.3,1.212-0.6,2.052-0.6c1.536,0,2.232,0.912,2.232,1.86
				c0,0.816-0.492,1.5-1.44,1.848v0.024c0.96,0.18,1.74,0.9,1.74,1.992c0,1.248-0.984,2.34-2.844,2.34
				c-0.876,0-1.644-0.276-2.028-0.528L181.828,46.32z"/>
		</g>
		<g>
			<path fill="#FF0000" d="M294.617,56.968c-0.061-1.128-0.133-2.496-0.133-3.492h-0.023c-0.288,0.936-0.612,1.956-1.021,3.072
				l-1.428,3.924h-0.792l-1.32-3.852c-0.384-1.152-0.696-2.184-0.924-3.144h-0.024c-0.024,1.008-0.084,2.352-0.156,3.576
				l-0.216,3.468h-0.996l0.564-8.088h1.332l1.38,3.912c0.336,0.996,0.601,1.884,0.816,2.724h0.024
				c0.216-0.816,0.504-1.704,0.863-2.724l1.44-3.912h1.332l0.504,8.088h-1.032L294.617,56.968z"/>
			<path fill="#FF0000" d="M297.328,59.32c0.301,0.18,0.984,0.48,1.729,0.48c1.344,0,1.775-0.852,1.764-1.512
				c-0.012-1.092-0.996-1.56-2.016-1.56h-0.588v-0.792h0.588c0.768,0,1.74-0.396,1.74-1.32c0-0.624-0.396-1.176-1.368-1.176
				c-0.624,0-1.225,0.276-1.561,0.516l-0.288-0.768c0.42-0.3,1.212-0.6,2.053-0.6c1.536,0,2.231,0.912,2.231,1.86
				c0,0.816-0.492,1.5-1.439,1.848v0.024c0.96,0.18,1.739,0.9,1.739,1.992c0,1.248-0.983,2.34-2.844,2.34
				c-0.876,0-1.644-0.276-2.028-0.528L297.328,59.32z"/>
		</g>
		<g>
			<path d="M50.116,4.968c-0.06-1.128-0.132-2.496-0.132-3.492H49.96c-0.288,0.936-0.612,1.956-1.02,3.072l-1.428,3.924H46.72
				L45.4,4.62c-0.384-1.152-0.696-2.184-0.924-3.144h-0.024c-0.024,1.008-0.084,2.352-0.156,3.576L44.08,8.52h-0.996l0.564-8.088
				h1.332l1.38,3.912c0.336,0.996,0.6,1.884,0.816,2.724H47.2c0.216-0.816,0.504-1.704,0.864-2.724l1.44-3.912h1.332L51.34,8.52
				h-1.032L50.116,4.968z"/>
			<path d="M57.076,7.128c0,0.504,0.024,0.996,0.084,1.392h-0.948l-0.096-0.732H56.08c-0.312,0.456-0.948,0.864-1.776,0.864
				c-1.176,0-1.776-0.828-1.776-1.668c0-1.404,1.248-2.172,3.492-2.16v-0.12c0-0.48-0.132-1.356-1.32-1.344
				c-0.552,0-1.116,0.156-1.524,0.432l-0.24-0.708c0.48-0.3,1.188-0.504,1.92-0.504c1.788,0,2.22,1.212,2.22,2.376V7.128z
				 M56.044,5.556c-1.152-0.024-2.46,0.18-2.46,1.308c0,0.696,0.456,1.008,0.984,1.008c0.768,0,1.26-0.48,1.428-0.972
				c0.036-0.108,0.048-0.228,0.048-0.336V5.556z"/>
			<path d="M57.34,10.224c0.492-0.036,0.9-0.168,1.152-0.444C58.78,9.456,58.9,8.988,58.9,7.596V2.712h1.056v5.292
				c0,1.128-0.18,1.86-0.696,2.388c-0.468,0.468-1.236,0.66-1.8,0.66L57.34,10.224z M59.404,1.644c-0.396,0-0.66-0.312-0.66-0.684
				s0.276-0.672,0.684-0.672c0.408,0,0.672,0.3,0.672,0.672s-0.252,0.684-0.684,0.684H59.404z"/>
			<path d="M64.048,8.652c-1.56,0-2.784-1.152-2.784-2.988c0-1.944,1.284-3.084,2.88-3.084c1.668,0,2.796,1.212,2.796,2.976
				c0,2.16-1.5,3.096-2.88,3.096H64.048z M64.084,7.86c1.008,0,1.764-0.948,1.764-2.268c0-0.984-0.492-2.22-1.74-2.22
				c-1.236,0-1.776,1.152-1.776,2.256c0,1.272,0.72,2.232,1.74,2.232H64.084z"/>
			<path d="M68.284,4.524c0-0.684-0.012-1.272-0.048-1.812h0.924l0.048,1.14h0.036c0.264-0.78,0.912-1.272,1.62-1.272
				c0.108,0,0.192,0.012,0.288,0.036V3.6c-0.12-0.012-0.228-0.024-0.372-0.024c-0.744,0-1.272,0.564-1.416,1.344
				c-0.024,0.156-0.036,0.324-0.036,0.504V8.52h-1.056L68.284,4.524z"/>
			<path d="M80.416,8.268c-0.372,0.192-1.152,0.384-2.136,0.384c-2.28,0-3.984-1.44-3.984-4.104c0-2.544,1.716-4.248,4.224-4.248
				c0.996,0,1.644,0.216,1.92,0.36l-0.264,0.852c-0.384-0.192-0.948-0.336-1.62-0.336c-1.896,0-3.156,1.212-3.156,3.336
				c0,1.992,1.14,3.252,3.096,3.252c0.648,0,1.296-0.132,1.716-0.336L80.416,8.268z"/>
			<path d="M81.664,0h1.056v3.624h0.024c0.168-0.3,0.432-0.576,0.756-0.744c0.312-0.192,0.684-0.3,1.08-0.3
				c0.78,0,2.028,0.48,2.028,2.484V8.52h-1.056V5.184c0-0.948-0.348-1.728-1.344-1.728c-0.684,0-1.212,0.48-1.416,1.056
				c-0.06,0.144-0.072,0.3-0.072,0.504V8.52h-1.056V0z"/>
			<path d="M90.688,8.652c-1.56,0-2.784-1.152-2.784-2.988c0-1.944,1.284-3.084,2.88-3.084c1.668,0,2.796,1.212,2.796,2.976
				c0,2.16-1.5,3.096-2.88,3.096H90.688z M90.724,7.86c1.008,0,1.764-0.948,1.764-2.268c0-0.984-0.492-2.22-1.74-2.22
				c-1.236,0-1.776,1.152-1.776,2.256c0,1.272,0.72,2.232,1.74,2.232H90.724z"/>
			<path d="M94.923,4.524c0-0.684-0.012-1.272-0.048-1.812h0.924l0.048,1.14h0.036c0.264-0.78,0.912-1.272,1.62-1.272
				c0.108,0,0.192,0.012,0.288,0.036V3.6c-0.12-0.012-0.228-0.024-0.372-0.024c-0.744,0-1.272,0.564-1.416,1.344
				c-0.024,0.156-0.036,0.324-0.036,0.504V8.52h-1.056L94.923,4.524z"/>
			<path d="M103.779,0v7.02c0,0.516,0.012,1.104,0.048,1.5h-0.948l-0.048-1.008h-0.024c-0.324,0.648-1.02,1.14-1.968,1.14
				c-1.404,0-2.496-1.188-2.496-2.952c-0.012-1.944,1.2-3.12,2.604-3.12c0.9,0,1.5,0.42,1.752,0.876h0.024V0H103.779z
				 M102.724,5.076c0-0.144-0.012-0.312-0.048-0.456c-0.156-0.66-0.732-1.212-1.524-1.212c-1.092,0-1.74,0.96-1.74,2.232
				c0,1.188,0.588,2.16,1.716,2.16c0.708,0,1.356-0.48,1.548-1.26c0.036-0.144,0.048-0.288,0.048-0.456V5.076z"/>
			<path d="M158.116,4.968c-0.06-1.128-0.132-2.496-0.132-3.492h-0.024c-0.288,0.936-0.612,1.956-1.02,3.072l-1.428,3.924h-0.792
				L153.4,4.62c-0.384-1.152-0.696-2.184-0.924-3.144h-0.024c-0.024,1.008-0.084,2.352-0.156,3.576L152.08,8.52h-0.996l0.564-8.088
				h1.332l1.38,3.912c0.336,0.996,0.6,1.884,0.816,2.724h0.024c0.216-0.816,0.504-1.704,0.864-2.724l1.44-3.912h1.332l0.504,8.088
				h-1.032L158.116,4.968z"/>
			<path d="M161.572,1.644c-0.396,0-0.66-0.312-0.66-0.684s0.276-0.672,0.684-0.672c0.408,0,0.672,0.3,0.672,0.672
				s-0.264,0.684-0.684,0.684H161.572z M161.068,8.52V2.712h1.056V8.52H161.068z"/>
			<path d="M163.876,4.284c0-0.612-0.012-1.092-0.048-1.572h0.936l0.06,0.948h0.024c0.288-0.54,0.96-1.08,1.92-1.08
				c0.804,0,2.052,0.48,2.052,2.472V8.52h-1.056V5.172c0-0.936-0.348-1.728-1.344-1.728c-0.684,0-1.224,0.492-1.416,1.08
				c-0.048,0.132-0.072,0.324-0.072,0.492V8.52h-1.056V4.284z"/>
			<path d="M172.9,8.652c-1.56,0-2.784-1.152-2.784-2.988c0-1.944,1.284-3.084,2.88-3.084c1.668,0,2.796,1.212,2.796,2.976
				c0,2.16-1.5,3.096-2.88,3.096H172.9z M172.936,7.86c1.008,0,1.764-0.948,1.764-2.268c0-0.984-0.492-2.22-1.74-2.22
				c-1.236,0-1.776,1.152-1.776,2.256c0,1.272,0.72,2.232,1.74,2.232H172.936z"/>
			<path d="M177.136,4.524c0-0.684-0.012-1.272-0.048-1.812h0.924l0.048,1.14h0.036c0.264-0.78,0.912-1.272,1.62-1.272
				c0.108,0,0.192,0.012,0.288,0.036V3.6c-0.12-0.012-0.228-0.024-0.372-0.024c-0.744,0-1.272,0.564-1.416,1.344
				c-0.024,0.156-0.036,0.324-0.036,0.504V8.52h-1.056L177.136,4.524z"/>
			<path d="M189.268,8.268c-0.372,0.192-1.152,0.384-2.136,0.384c-2.28,0-3.984-1.44-3.984-4.104c0-2.544,1.716-4.248,4.224-4.248
				c0.996,0,1.644,0.216,1.92,0.36l-0.264,0.852c-0.384-0.192-0.948-0.336-1.62-0.336c-1.896,0-3.156,1.212-3.156,3.336
				c0,1.992,1.14,3.252,3.096,3.252c0.648,0,1.296-0.132,1.716-0.336L189.268,8.268z"/>
			<path d="M190.516,0h1.056v3.624h0.024c0.168-0.3,0.432-0.576,0.756-0.744c0.312-0.192,0.684-0.3,1.08-0.3
				c0.78,0,2.028,0.48,2.028,2.484V8.52h-1.056V5.184c0-0.948-0.348-1.728-1.344-1.728c-0.684,0-1.212,0.48-1.416,1.056
				c-0.06,0.144-0.072,0.3-0.072,0.504V8.52h-1.056V0z"/>
			<path d="M199.54,8.652c-1.56,0-2.784-1.152-2.784-2.988c0-1.944,1.284-3.084,2.88-3.084c1.668,0,2.796,1.212,2.796,2.976
				c0,2.16-1.5,3.096-2.88,3.096H199.54z M199.575,7.86c1.008,0,1.764-0.948,1.764-2.268c0-0.984-0.492-2.22-1.74-2.22
				c-1.236,0-1.776,1.152-1.776,2.256c0,1.272,0.72,2.232,1.74,2.232H199.575z"/>
			<path d="M203.775,4.524c0-0.684-0.012-1.272-0.048-1.812h0.924l0.048,1.14h0.036c0.264-0.78,0.912-1.272,1.62-1.272
				c0.108,0,0.192,0.012,0.288,0.036V3.6c-0.12-0.012-0.228-0.024-0.372-0.024c-0.744,0-1.272,0.564-1.416,1.344
				c-0.024,0.156-0.036,0.324-0.036,0.504V8.52h-1.056L203.775,4.524z"/>
			<path d="M212.631,0v7.02c0,0.516,0.012,1.104,0.048,1.5h-0.948l-0.048-1.008h-0.024c-0.324,0.648-1.02,1.14-1.968,1.14
				c-1.404,0-2.496-1.188-2.496-2.952c-0.012-1.944,1.2-3.12,2.604-3.12c0.9,0,1.5,0.42,1.752,0.876h0.024V0H212.631z
				 M211.575,5.076c0-0.144-0.012-0.312-0.048-0.456c-0.156-0.66-0.732-1.212-1.524-1.212c-1.092,0-1.74,0.96-1.74,2.232
				c0,1.188,0.588,2.16,1.716,2.16c0.708,0,1.356-0.48,1.548-1.26c0.036-0.144,0.048-0.288,0.048-0.456V5.076z"/>
			<path d="M252.591,5.976l-0.84,2.544h-1.08l2.748-8.088h1.26l2.76,8.088h-1.116l-0.864-2.544H252.591z M255.243,5.16l-0.804-2.328
				c-0.168-0.528-0.288-1.008-0.408-1.476h-0.036c-0.108,0.468-0.24,0.972-0.396,1.464l-0.792,2.34H255.243z"/>
			<path d="M263.307,6.936c0,0.6,0.012,1.128,0.048,1.584h-0.936l-0.06-0.948h-0.024c-0.264,0.468-0.888,1.08-1.92,1.08
				c-0.912,0-2.004-0.516-2.004-2.544V2.712h1.056v3.204c0,1.104,0.348,1.86,1.296,1.86c0.708,0,1.2-0.492,1.392-0.972
				c0.06-0.144,0.096-0.336,0.096-0.54V2.712h1.056V6.936z"/>
			<path d="M270.027,7.668c0,1.344-0.276,2.148-0.828,2.664c-0.576,0.516-1.392,0.696-2.124,0.696c-0.696,0-1.464-0.168-1.932-0.48
				l0.264-0.816c0.384,0.252,0.984,0.468,1.704,0.468c1.08,0,1.872-0.564,1.872-2.04V7.524h-0.024
				c-0.312,0.54-0.948,0.972-1.848,0.972c-1.44,0-2.472-1.224-2.472-2.844c0-1.968,1.284-3.072,2.628-3.072
				c1.008,0,1.548,0.516,1.812,0.996h0.024l0.036-0.864h0.936c-0.036,0.408-0.048,0.876-0.048,1.584V7.668z M268.971,4.992
				c0-0.168-0.012-0.324-0.06-0.468c-0.192-0.624-0.696-1.128-1.476-1.128c-1.008,0-1.728,0.852-1.728,2.208
				c0,1.128,0.588,2.088,1.716,2.088c0.66,0,1.248-0.408,1.464-1.092c0.06-0.168,0.084-0.372,0.084-0.564V4.992z"/>
			<path d="M271.767,4.284c0-0.612-0.024-1.092-0.048-1.572h0.924l0.048,0.936h0.036c0.324-0.552,0.864-1.068,1.836-1.068
				c0.78,0,1.38,0.48,1.632,1.164h0.024c0.18-0.336,0.42-0.576,0.66-0.756c0.348-0.264,0.72-0.408,1.272-0.408
				c0.78,0,1.92,0.504,1.92,2.52v3.42h-1.032V5.232c0-1.128-0.42-1.788-1.26-1.788c-0.612,0-1.068,0.444-1.26,0.948
				c-0.048,0.156-0.084,0.348-0.084,0.528v3.6h-1.032V5.04c0-0.936-0.408-1.596-1.212-1.596c-0.648,0-1.14,0.528-1.308,1.056
				c-0.06,0.156-0.084,0.336-0.084,0.516V8.52h-1.032V4.284z"/>
			<path d="M282.375,5.796c0.024,1.428,0.924,2.016,1.98,2.016c0.756,0,1.224-0.132,1.608-0.288l0.192,0.744
				c-0.372,0.168-1.02,0.372-1.944,0.372c-1.776,0-2.856-1.188-2.856-2.928c0-1.764,1.044-3.144,2.736-3.144
				c1.896,0,2.388,1.668,2.388,2.736c0,0.216-0.012,0.384-0.036,0.504L282.375,5.796z M285.459,5.04
				c0.012-0.66-0.276-1.716-1.452-1.716c-1.08,0-1.536,0.984-1.62,1.716H285.459z"/>
			<path d="M287.787,4.284c0-0.612-0.012-1.092-0.048-1.572h0.936l0.06,0.948h0.024c0.288-0.54,0.959-1.08,1.92-1.08
				c0.804,0,2.052,0.48,2.052,2.472V8.52h-1.057V5.172c0-0.936-0.348-1.728-1.344-1.728c-0.684,0-1.224,0.492-1.416,1.08
				c-0.048,0.132-0.072,0.324-0.072,0.492V8.52h-1.056V4.284z"/>
			<path d="M295.67,1.32v1.392h1.513v0.804h-1.513v3.132c0,0.72,0.204,1.128,0.792,1.128c0.288,0,0.456-0.024,0.612-0.072
				l0.048,0.804c-0.204,0.072-0.528,0.144-0.936,0.144c-0.492,0-0.889-0.168-1.141-0.444c-0.288-0.324-0.408-0.84-0.408-1.524V3.516
				h-0.899V2.712h0.899V1.644L295.67,1.32z"/>
			<path d="M298.899,5.796c0.023,1.428,0.924,2.016,1.979,2.016c0.756,0,1.225-0.132,1.608-0.288l0.191,0.744
				c-0.372,0.168-1.02,0.372-1.943,0.372c-1.776,0-2.856-1.188-2.856-2.928c0-1.764,1.044-3.144,2.736-3.144
				c1.896,0,2.388,1.668,2.388,2.736c0,0.216-0.012,0.384-0.036,0.504L298.899,5.796z M301.983,5.04
				c0.012-0.66-0.276-1.716-1.452-1.716c-1.08,0-1.536,0.984-1.62,1.716H301.983z"/>
			<path d="M309.327,0v7.02c0,0.516,0.012,1.104,0.048,1.5h-0.948l-0.048-1.008h-0.023c-0.324,0.648-1.021,1.14-1.969,1.14
				c-1.403,0-2.496-1.188-2.496-2.952c-0.012-1.944,1.2-3.12,2.604-3.12c0.899,0,1.5,0.42,1.752,0.876h0.024V0H309.327z
				 M308.271,5.076c0-0.144-0.013-0.312-0.049-0.456c-0.155-0.66-0.731-1.212-1.523-1.212c-1.092,0-1.74,0.96-1.74,2.232
				c0,1.188,0.588,2.16,1.716,2.16c0.708,0,1.356-0.48,1.548-1.26c0.036-0.144,0.049-0.288,0.049-0.456V5.076z"/>
			<path d="M319.298,8.268c-0.372,0.192-1.152,0.384-2.136,0.384c-2.28,0-3.984-1.44-3.984-4.104c0-2.544,1.716-4.248,4.224-4.248
				c0.996,0,1.645,0.216,1.921,0.36l-0.265,0.852c-0.384-0.192-0.947-0.336-1.62-0.336c-1.896,0-3.155,1.212-3.155,3.336
				c0,1.992,1.14,3.252,3.096,3.252c0.648,0,1.296-0.132,1.716-0.336L319.298,8.268z"/>
			<path d="M320.546,0h1.056v3.624h0.024c0.168-0.3,0.432-0.576,0.756-0.744c0.312-0.192,0.684-0.3,1.08-0.3
				c0.78,0,2.028,0.48,2.028,2.484V8.52h-1.057V5.184c0-0.948-0.348-1.728-1.344-1.728c-0.684,0-1.212,0.48-1.416,1.056
				c-0.06,0.144-0.072,0.3-0.072,0.504V8.52h-1.056V0z"/>
			<path d="M329.57,8.652c-1.56,0-2.783-1.152-2.783-2.988c0-1.944,1.283-3.084,2.88-3.084c1.668,0,2.796,1.212,2.796,2.976
				c0,2.16-1.5,3.096-2.88,3.096H329.57z M329.606,7.86c1.008,0,1.765-0.948,1.765-2.268c0-0.984-0.492-2.22-1.74-2.22
				c-1.236,0-1.776,1.152-1.776,2.256c0,1.272,0.72,2.232,1.74,2.232H329.606z"/>
			<path d="M333.806,4.524c0-0.684-0.012-1.272-0.048-1.812h0.924l0.048,1.14h0.036c0.264-0.78,0.912-1.272,1.62-1.272
				c0.108,0,0.192,0.012,0.288,0.036V3.6c-0.12-0.012-0.229-0.024-0.372-0.024c-0.744,0-1.272,0.564-1.416,1.344
				c-0.024,0.156-0.036,0.324-0.036,0.504V8.52h-1.056L333.806,4.524z"/>
			<path d="M342.663,0v7.02c0,0.516,0.012,1.104,0.048,1.5h-0.948l-0.048-1.008h-0.024c-0.324,0.648-1.02,1.14-1.968,1.14
				c-1.404,0-2.496-1.188-2.496-2.952c-0.012-1.944,1.2-3.12,2.604-3.12c0.899,0,1.5,0.42,1.752,0.876h0.023V0H342.663z
				 M341.606,5.076c0-0.144-0.012-0.312-0.048-0.456c-0.156-0.66-0.732-1.212-1.523-1.212c-1.093,0-1.74,0.96-1.74,2.232
				c0,1.188,0.588,2.16,1.716,2.16c0.708,0,1.355-0.48,1.548-1.26c0.036-0.144,0.048-0.288,0.048-0.456V5.076z"/>
			<path d="M367.289,0.54c0.647-0.096,1.403-0.168,2.231-0.168c1.5,0,2.568,0.336,3.276,0.996c0.731,0.66,1.152,1.608,1.152,2.916
				c0,1.32-0.421,2.4-1.164,3.144c-0.769,0.756-2.017,1.164-3.589,1.164c-0.756,0-1.367-0.024-1.907-0.096V0.54z M368.344,7.704
				c0.264,0.048,0.647,0.048,1.056,0.048c2.232,0.012,3.444-1.248,3.444-3.432c0.012-1.932-1.068-3.12-3.276-3.12
				c-0.54,0-0.947,0.048-1.224,0.108V7.704z"/>
			<path d="M375.784,1.644c-0.396,0-0.66-0.312-0.66-0.684s0.276-0.672,0.685-0.672s0.672,0.3,0.672,0.672s-0.264,0.684-0.684,0.684
				H375.784z M375.28,8.52V2.712h1.057V8.52H375.28z"/>
			<path d="M378.087,4.284c0-0.612-0.023-1.092-0.048-1.572h0.925l0.048,0.936h0.036c0.323-0.552,0.863-1.068,1.836-1.068
				c0.779,0,1.38,0.48,1.632,1.164h0.023c0.181-0.336,0.421-0.576,0.66-0.756c0.349-0.264,0.721-0.408,1.272-0.408
				c0.779,0,1.92,0.504,1.92,2.52v3.42h-1.032V5.232c0-1.128-0.42-1.788-1.26-1.788c-0.612,0-1.068,0.444-1.26,0.948
				c-0.049,0.156-0.084,0.348-0.084,0.528v3.6h-1.032V5.04c0-0.936-0.408-1.596-1.212-1.596c-0.648,0-1.141,0.528-1.309,1.056
				c-0.06,0.156-0.084,0.336-0.084,0.516V8.52h-1.032V4.284z"/>
			<path d="M388.6,1.644c-0.396,0-0.66-0.312-0.66-0.684s0.276-0.672,0.684-0.672c0.408,0,0.673,0.3,0.673,0.672
				s-0.265,0.684-0.685,0.684H388.6z M388.096,8.52V2.712h1.056V8.52H388.096z"/>
			<path d="M390.904,4.284c0-0.612-0.012-1.092-0.048-1.572h0.936l0.061,0.948h0.023c0.288-0.54,0.96-1.08,1.92-1.08
				c0.805,0,2.053,0.48,2.053,2.472V8.52h-1.057V5.172c0-0.936-0.348-1.728-1.344-1.728c-0.684,0-1.224,0.492-1.416,1.08
				c-0.048,0.132-0.072,0.324-0.072,0.492V8.52h-1.056V4.284z"/>
			<path d="M398.068,1.644c-0.396,0-0.66-0.312-0.66-0.684s0.276-0.672,0.684-0.672c0.408,0,0.673,0.3,0.673,0.672
				s-0.265,0.684-0.685,0.684H398.068z M397.564,8.52V2.712h1.056V8.52H397.564z"/>
			<path d="M400.228,7.452c0.323,0.192,0.876,0.408,1.403,0.408c0.757,0,1.116-0.372,1.116-0.864c0-0.504-0.3-0.78-1.068-1.068
				c-1.056-0.384-1.548-0.948-1.548-1.644c0-0.936,0.769-1.704,2.004-1.704c0.589,0,1.104,0.156,1.416,0.36l-0.252,0.756
				c-0.228-0.132-0.647-0.336-1.188-0.336c-0.624,0-0.96,0.36-0.96,0.792c0,0.492,0.336,0.708,1.092,0.996
				c0.996,0.372,1.524,0.876,1.524,1.752c0,1.032-0.805,1.752-2.16,1.752c-0.636,0-1.225-0.168-1.632-0.408L400.228,7.452z"/>
			<path d="M405.124,0h1.056v3.624h0.024c0.168-0.3,0.432-0.576,0.756-0.744c0.313-0.192,0.685-0.3,1.08-0.3
				c0.78,0,2.028,0.48,2.028,2.484V8.52h-1.057V5.184c0-0.948-0.348-1.728-1.344-1.728c-0.684,0-1.212,0.48-1.416,1.056
				c-0.06,0.144-0.072,0.3-0.072,0.504V8.52h-1.056V0z"/>
			<path d="M412.383,5.796c0.024,1.428,0.924,2.016,1.98,2.016c0.756,0,1.224-0.132,1.607-0.288l0.192,0.744
				c-0.372,0.168-1.02,0.372-1.944,0.372c-1.775,0-2.855-1.188-2.855-2.928c0-1.764,1.044-3.144,2.735-3.144
				c1.896,0,2.389,1.668,2.389,2.736c0,0.216-0.012,0.384-0.036,0.504L412.383,5.796z M415.467,5.04
				c0.013-0.66-0.275-1.716-1.452-1.716c-1.08,0-1.535,0.984-1.619,1.716H415.467z"/>
			<path d="M422.811,0v7.02c0,0.516,0.013,1.104,0.049,1.5h-0.948l-0.048-1.008h-0.024c-0.324,0.648-1.02,1.14-1.968,1.14
				c-1.404,0-2.496-1.188-2.496-2.952c-0.012-1.944,1.2-3.12,2.604-3.12c0.9,0,1.5,0.42,1.753,0.876h0.023V0H422.811z
				 M421.755,5.076c0-0.144-0.012-0.312-0.048-0.456c-0.156-0.66-0.732-1.212-1.524-1.212c-1.092,0-1.739,0.96-1.739,2.232
				c0,1.188,0.588,2.16,1.716,2.16c0.708,0,1.355-0.48,1.548-1.26c0.036-0.144,0.048-0.288,0.048-0.456V5.076z"/>
			<path d="M432.784,8.268c-0.372,0.192-1.152,0.384-2.137,0.384c-2.279,0-3.983-1.44-3.983-4.104c0-2.544,1.716-4.248,4.224-4.248
				c0.996,0,1.645,0.216,1.92,0.36l-0.264,0.852c-0.384-0.192-0.948-0.336-1.62-0.336c-1.896,0-3.156,1.212-3.156,3.336
				c0,1.992,1.141,3.252,3.096,3.252c0.648,0,1.297-0.132,1.717-0.336L432.784,8.268z"/>
			<path d="M434.031,0h1.057v3.624h0.023c0.168-0.3,0.433-0.576,0.757-0.744c0.312-0.192,0.684-0.3,1.079-0.3
				c0.78,0,2.028,0.48,2.028,2.484V8.52h-1.056V5.184c0-0.948-0.349-1.728-1.344-1.728c-0.685,0-1.213,0.48-1.416,1.056
				c-0.061,0.144-0.072,0.3-0.072,0.504V8.52h-1.057V0z"/>
			<path d="M443.055,8.652c-1.56,0-2.784-1.152-2.784-2.988c0-1.944,1.284-3.084,2.88-3.084c1.668,0,2.796,1.212,2.796,2.976
				c0,2.16-1.5,3.096-2.88,3.096H443.055z M443.091,7.86c1.008,0,1.764-0.948,1.764-2.268c0-0.984-0.492-2.22-1.74-2.22
				c-1.235,0-1.775,1.152-1.775,2.256c0,1.272,0.72,2.232,1.74,2.232H443.091z"/>
			<path d="M447.292,4.524c0-0.684-0.013-1.272-0.049-1.812h0.925l0.048,1.14h0.036c0.264-0.78,0.912-1.272,1.619-1.272
				c0.108,0,0.192,0.012,0.288,0.036V3.6c-0.119-0.012-0.228-0.024-0.372-0.024c-0.743,0-1.271,0.564-1.416,1.344
				c-0.023,0.156-0.035,0.324-0.035,0.504V8.52h-1.057L447.292,4.524z"/>
			<path d="M456.147,0v7.02c0,0.516,0.012,1.104,0.048,1.5h-0.947l-0.049-1.008h-0.023c-0.324,0.648-1.021,1.14-1.968,1.14
				c-1.404,0-2.496-1.188-2.496-2.952c-0.013-1.944,1.199-3.12,2.604-3.12c0.9,0,1.5,0.42,1.752,0.876h0.024V0H456.147z
				 M455.091,5.076c0-0.144-0.012-0.312-0.048-0.456c-0.156-0.66-0.732-1.212-1.524-1.212c-1.092,0-1.74,0.96-1.74,2.232
				c0,1.188,0.588,2.16,1.716,2.16c0.708,0,1.356-0.48,1.549-1.26c0.036-0.144,0.048-0.288,0.048-0.456V5.076z"/>
		</g>
	</g>
</svg>
