<?xml version="1.0" encoding="utf-8"?>
<!-- Generator: Adobe Illustrator 10.0, SVG Export Plug-In . SVG Version: 3.0.0 Build 76)  -->
<!DOCTYPE svg PUBLIC "-//W3C//DTD SVG 1.0//EN"    "http://www.w3.org/TR/2001/REC-SVG-20010904/DTD/svg10.dtd" [
	<!ENTITY ns_flows "http://ns.adobe.com/Flows/1.0/">
	<!ENTITY ns_extend "http://ns.adobe.com/Extensibility/1.0/">
	<!ENTITY ns_ai "http://ns.adobe.com/AdobeIllustrator/10.0/">
	<!ENTITY ns_svg "http://www.w3.org/2000/svg">
	<!ENTITY ns_xlink "http://www.w3.org/1999/xlink">
]>
<svg  xmlns:x="&ns_extend;" xmlns:i="&ns_ai;" xmlns:graph="&ns_graphs;"
	 xmlns="&ns_svg;" xmlns:xlink="&ns_xlink;" xmlns:a="http://ns.adobe.com/AdobeSVGViewerExtensions/3.0/" width="220" height="143"
	 viewBox="0.085 -0.294 220 143" overflow="visible" enable-background="new 0.085 -0.294 220 143" xml:space="preserve">
	<g id="Layer_1_2_">
		<path fill="none" stroke="#FF0000" d="M1.999,61.332c9.618-10.237,9.618-10.237,9.618-10.237l4.81-2.925l4.809-1.462h4.809
			l4.81,1.462l4.809,2.925l9.618,10.237"/>
		<path fill="none" stroke="#FF0000" d="M88.565,61.332c-9.619,10.237-9.619,10.237-9.619,10.237l-4.809,2.925l-4.81,1.462h-4.809
			l-4.809-1.462L54.9,71.569l-9.619-10.237"/>
		<path fill="none" stroke="#FF0000" d="M88.565,61.332c9.618-10.237,9.618-10.237,9.618-10.237l4.809-2.925l4.809-1.462h4.81
			l4.809,1.462l4.809,2.925l9.618,10.237"/>
		<path fill="none" stroke="#FF0000" d="M175.13,61.332c-9.619,10.237-9.619,10.237-9.619,10.237l-4.809,2.925l-4.809,1.462h-4.809
			l-4.81-1.462l-4.809-2.925l-9.619-10.237"/>
		<path fill="none" stroke="#FA0000" d="M175.13,61.332c9.618-10.237,9.618-10.237,9.618-10.237l4.809-2.925l4.81-1.462h4.809
			l4.809,1.462l4.81,2.925l9.618,10.237"/>
		<path fill="none" stroke="#0A50A0" d="M1.999,62.082c9.618,10.237,9.618,10.237,9.618,10.237l4.81,2.925l4.809,1.462h4.809
			l4.81-1.462l4.809-2.925l9.618-10.237"/>
		<path fill="none" stroke="#0A50A0" d="M88.565,62.082c-9.619-10.237-9.619-10.237-9.619-10.237l-4.809-2.925l-4.81-1.462h-4.809
			l-4.809,1.462L54.9,51.844l-9.619,10.237"/>
		<path fill="none" stroke="#0A50A0" d="M88.565,62.082c9.618,10.237,9.618,10.237,9.618,10.237l4.809,2.925l4.809,1.462h4.81
			l4.809-1.462l4.809-2.925l9.618-10.237"/>
		<path fill="none" stroke="#0A50A0" d="M175.13,62.082c-9.619-10.237-9.619-10.237-9.619-10.237l-4.809-2.925l-4.809-1.462h-4.809
			l-4.81,1.462l-4.809,2.925l-9.619,10.237"/>
		<path fill="none" stroke="#0A50A0" d="M175.13,62.082c9.618,10.237,9.618,10.237,9.618,10.237l4.809,2.925l4.81,1.462h4.809
			l4.809-1.462l4.81-2.925l9.618-10.237"/>
		<path stroke="#000000" d="M90.07,61.716c0,1.204-1.036,2.18-2.313,2.18s-2.314-0.977-2.314-2.18c0-1.205,1.036-2.181,2.314-2.181
			S90.07,60.511,90.07,61.716z"/>
		<path fill="#0A50A1" stroke="#0A50A1" d="M111.868,76.707c0,1.464-0.752,2.652-1.681,2.652s-1.681-1.188-1.681-2.652
			c0-1.465,0.753-2.652,1.681-2.652S111.868,75.242,111.868,76.707z"/>
		<path fill="none" stroke="#000000" d="M45.31,54.888l15.151-40.736"/>
		<path fill="none" stroke="#000000" d="M74.073,14.234l15.624,39.571"/>
		<path fill="none" stroke="#FF0000" d="M67.385,83.52l15,45"/>
		<path fill="none" stroke="#0A50A1" d="M107.385,84.52l-14,45"/>
		<g>
			<path d="M51.297,8.52V0.432h1.152l2.58,4.092c0.588,0.948,1.068,1.788,1.44,2.628l0.036-0.012c-0.096-1.08-0.12-2.064-0.12-3.312
				V0.432h0.984V8.52h-1.056l-2.568-4.104c-0.564-0.9-1.104-1.824-1.5-2.7l-0.036,0.012c0.06,1.02,0.072,1.992,0.072,3.336V8.52
				H51.297z"/>
			<path d="M61.509,8.652c-1.56,0-2.784-1.152-2.784-2.988c0-1.944,1.284-3.084,2.88-3.084c1.668,0,2.796,1.212,2.796,2.976
				c0,2.16-1.5,3.096-2.88,3.096H61.509z M61.545,7.86c1.008,0,1.764-0.948,1.764-2.268c0-0.984-0.492-2.22-1.74-2.22
				c-1.236,0-1.776,1.152-1.776,2.256c0,1.272,0.72,2.232,1.74,2.232H61.545z"/>
			<path d="M70.761,0v7.02c0,0.516,0.012,1.104,0.048,1.5h-0.948l-0.048-1.008h-0.024c-0.324,0.648-1.02,1.14-1.968,1.14
				c-1.404,0-2.496-1.188-2.496-2.952c-0.012-1.944,1.2-3.12,2.604-3.12c0.9,0,1.5,0.42,1.752,0.876h0.024V0H70.761z M69.705,5.076
				c0-0.144-0.012-0.312-0.048-0.456c-0.156-0.66-0.732-1.212-1.524-1.212c-1.092,0-1.74,0.96-1.74,2.232
				c0,1.188,0.588,2.16,1.716,2.16c0.708,0,1.356-0.48,1.548-1.26c0.036-0.144,0.048-0.288,0.048-0.456V5.076z"/>
			<path d="M73.113,5.796c0.024,1.428,0.924,2.016,1.98,2.016c0.756,0,1.224-0.132,1.608-0.288l0.192,0.744
				c-0.372,0.168-1.02,0.372-1.944,0.372c-1.776,0-2.856-1.188-2.856-2.928c0-1.764,1.044-3.144,2.736-3.144
				c1.896,0,2.388,1.668,2.388,2.736c0,0.216-0.012,0.384-0.036,0.504L73.113,5.796z M76.197,5.04
				c0.012-0.66-0.276-1.716-1.452-1.716c-1.08,0-1.536,0.984-1.62,1.716H76.197z"/>
			<path d="M78.381,7.452c0.324,0.192,0.876,0.408,1.404,0.408c0.756,0,1.116-0.372,1.116-0.864c0-0.504-0.3-0.78-1.068-1.068
				c-1.056-0.384-1.548-0.948-1.548-1.644c0-0.936,0.768-1.704,2.004-1.704c0.588,0,1.104,0.156,1.416,0.36l-0.252,0.756
				c-0.228-0.132-0.648-0.336-1.188-0.336c-0.624,0-0.96,0.36-0.96,0.792c0,0.492,0.336,0.708,1.092,0.996
				c0.996,0.372,1.524,0.876,1.524,1.752c0,1.032-0.804,1.752-2.16,1.752c-0.636,0-1.224-0.168-1.632-0.408L78.381,7.452z"/>
		</g>
		<g>
			<path d="M68.605,139.976l-0.84,2.544h-1.08l2.748-8.088h1.26l2.76,8.088h-1.116l-0.864-2.544H68.605z M71.257,139.16
				l-0.804-2.328c-0.168-0.528-0.288-1.008-0.408-1.476h-0.036c-0.108,0.468-0.24,0.972-0.396,1.464l-0.792,2.34H71.257z"/>
			<path d="M74.569,138.284c0-0.612-0.012-1.092-0.048-1.572h0.936l0.06,0.948h0.024c0.288-0.54,0.96-1.08,1.92-1.08
				c0.804,0,2.052,0.48,2.052,2.472v3.468h-1.056v-3.348c0-0.936-0.348-1.728-1.344-1.728c-0.684,0-1.224,0.492-1.416,1.08
				c-0.048,0.132-0.072,0.324-0.072,0.492v3.504h-1.056V138.284z"/>
			<path d="M82.453,135.32v1.392h1.512v0.804h-1.512v3.132c0,0.72,0.204,1.128,0.792,1.128c0.288,0,0.456-0.024,0.612-0.072
				l0.048,0.804c-0.204,0.072-0.528,0.144-0.936,0.144c-0.492,0-0.888-0.168-1.14-0.444c-0.288-0.324-0.408-0.84-0.408-1.524v-3.168
				h-0.9v-0.804h0.9v-1.068L82.453,135.32z"/>
			<path d="M85.657,135.644c-0.396,0-0.66-0.312-0.66-0.684s0.276-0.672,0.684-0.672c0.408,0,0.672,0.3,0.672,0.672
				s-0.264,0.684-0.684,0.684H85.657z M85.153,142.52v-5.808h1.056v5.808H85.153z"/>
			<path d="M87.961,138.284c0-0.612-0.012-1.092-0.048-1.572h0.936l0.06,0.948h0.024c0.288-0.54,0.96-1.08,1.92-1.08
				c0.804,0,2.052,0.48,2.052,2.472v3.468h-1.056v-3.348c0-0.936-0.348-1.728-1.344-1.728c-0.684,0-1.224,0.492-1.416,1.08
				c-0.048,0.132-0.072,0.324-0.072,0.492v3.504h-1.056V138.284z"/>
			<path d="M96.985,142.652c-1.56,0-2.784-1.152-2.784-2.988c0-1.944,1.284-3.084,2.88-3.084c1.668,0,2.796,1.212,2.796,2.976
				c0,2.16-1.5,3.096-2.88,3.096H96.985z M97.021,141.86c1.008,0,1.764-0.948,1.764-2.268c0-0.984-0.492-2.22-1.74-2.22
				c-1.236,0-1.776,1.152-1.776,2.256c0,1.272,0.72,2.232,1.74,2.232H97.021z"/>
			<path d="M106.237,134v7.02c0,0.516,0.012,1.104,0.048,1.5h-0.948l-0.048-1.008h-0.024c-0.324,0.648-1.02,1.14-1.968,1.14
				c-1.404,0-2.496-1.188-2.496-2.952c-0.012-1.944,1.2-3.12,2.604-3.12c0.9,0,1.5,0.42,1.752,0.876h0.024V134H106.237z
				 M105.181,139.076c0-0.144-0.012-0.312-0.048-0.456c-0.156-0.66-0.732-1.212-1.524-1.212c-1.092,0-1.74,0.96-1.74,2.232
				c0,1.188,0.588,2.16,1.716,2.16c0.708,0,1.356-0.48,1.548-1.26c0.036-0.144,0.048-0.288,0.048-0.456V139.076z"/>
			<path d="M108.589,139.796c0.024,1.428,0.924,2.016,1.98,2.016c0.756,0,1.224-0.132,1.608-0.288l0.192,0.744
				c-0.372,0.168-1.02,0.372-1.944,0.372c-1.776,0-2.856-1.188-2.856-2.928c0-1.764,1.044-3.144,2.736-3.144
				c1.896,0,2.388,1.668,2.388,2.736c0,0.216-0.012,0.384-0.036,0.504L108.589,139.796z M111.673,139.04
				c0.012-0.66-0.276-1.716-1.452-1.716c-1.08,0-1.536,0.984-1.62,1.716H111.673z"/>
			<path d="M113.857,141.452c0.324,0.192,0.876,0.408,1.404,0.408c0.756,0,1.116-0.372,1.116-0.864c0-0.504-0.3-0.78-1.068-1.068
				c-1.056-0.384-1.548-0.948-1.548-1.644c0-0.936,0.768-1.704,2.004-1.704c0.588,0,1.104,0.156,1.416,0.36l-0.252,0.756
				c-0.228-0.132-0.648-0.336-1.188-0.336c-0.624,0-0.96,0.36-0.96,0.792c0,0.492,0.336,0.708,1.092,0.996
				c0.996,0.372,1.524,0.876,1.524,1.752c0,1.032-0.804,1.752-2.16,1.752c-0.636,0-1.224-0.168-1.632-0.408L113.857,141.452z"/>
		</g>
		<path stroke="#000000" d="M134.847,62.082c0,1.204-1.036,2.18-2.313,2.18s-2.314-0.977-2.314-2.18
			c0-1.205,1.036-2.181,2.314-2.181S134.847,60.877,134.847,62.082z"/>
		<path stroke="#000000" d="M177.13,62.082c0,1.204-1.036,2.18-2.313,2.18s-2.314-0.977-2.314-2.18c0-1.205,1.036-2.181,2.314-2.181
			S177.13,60.877,177.13,62.082z"/>
		<path stroke="#000000" d="M219.413,62.082c0,1.204-1.036,2.18-2.313,2.18s-2.314-0.977-2.314-2.18
			c0-1.205,1.036-2.181,2.314-2.181S219.413,60.877,219.413,62.082z"/>
		<path stroke="#000000" d="M48.282,62.082c0,1.204-1.036,2.18-2.313,2.18s-2.314-0.977-2.314-2.18c0-1.205,1.036-2.181,2.314-2.181
			S48.282,60.877,48.282,62.082z"/>
		<path stroke="#000000" d="M5.085,62.706c0,1.204-1.036,2.18-2.313,2.18s-2.314-0.977-2.314-2.18c0-1.205,1.036-2.181,2.314-2.181
			S5.085,61.501,5.085,62.706z"/>
		<path fill="#0A50A1" stroke="#0A50A1" d="M155.574,48.109c0,1.464-0.752,2.652-1.681,2.652s-1.681-1.188-1.681-2.652
			c0-1.465,0.753-2.652,1.681-2.652S155.574,46.644,155.574,48.109z"/>
		<path fill="#0A50A1" stroke="#0A50A1" d="M198.857,77.055c0,1.464-0.752,2.652-1.681,2.652s-1.681-1.188-1.681-2.652
			c0-1.465,0.753-2.652,1.681-2.652S198.857,75.59,198.857,77.055z"/>
		<path fill="#0A50A1" stroke="#0A50A1" d="M67.88,47.457c0,1.464-0.752,2.652-1.681,2.652s-1.681-1.188-1.681-2.652
			c0-1.465,0.753-2.652,1.681-2.652S67.88,45.992,67.88,47.457z"/>
		<path fill="#0A50A1" stroke="#0A50A1" d="M25.045,76.707c0,1.464-0.752,2.652-1.681,2.652s-1.681-1.188-1.681-2.652
			c0-1.465,0.753-2.652,1.681-2.652S25.045,75.242,25.045,76.707z"/>
		<path fill="#FF0000" stroke="#FF0000" d="M24.766,47.054c0,1.464-0.752,2.652-1.681,2.652s-1.681-1.188-1.681-2.652
			c0-1.465,0.753-2.652,1.681-2.652S24.766,45.589,24.766,47.054z"/>
		<path fill="#FF0000" stroke="#FF0000" d="M68.085,75.706c0,1.464-0.752,2.652-1.681,2.652s-1.681-1.188-1.681-2.652
			c0-1.465,0.753-2.652,1.681-2.652S68.085,74.241,68.085,75.706z"/>
		<path fill="#FF0000" stroke="#FF0000" d="M111.766,47.054c0,1.464-0.752,2.652-1.681,2.652s-1.681-1.188-1.681-2.652
			c0-1.465,0.753-2.652,1.681-2.652S111.766,45.589,111.766,47.054z"/>
		<path fill="#FF0000" stroke="#FF0000" d="M155.894,75.957c0,1.464-0.752,2.652-1.681,2.652s-1.681-1.188-1.681-2.652
			c0-1.465,0.753-2.652,1.681-2.652S155.894,74.492,155.894,75.957z"/>
		<path fill="#FF0000" stroke="#FF0000" d="M198.766,47.054c0,1.464-0.752,2.652-1.681,2.652s-1.681-1.188-1.681-2.652
			c0-1.465,0.753-2.652,1.681-2.652S198.766,45.589,198.766,47.054z"/>
	</g>
</svg>
