<?xml version="1.0" encoding="utf-8"?>
<!-- Generator: Adobe Illustrator 10.0, SVG Export Plug-In . SVG Version: 3.0.0 Build 76)  -->
<!DOCTYPE svg PUBLIC "-//W3C//DTD SVG 1.0//EN"    "http://www.w3.org/TR/2001/REC-SVG-20010904/DTD/svg10.dtd" [
	<!ENTITY ns_flows "http://ns.adobe.com/Flows/1.0/">
	<!ENTITY ns_extend "http://ns.adobe.com/Extensibility/1.0/">
	<!ENTITY ns_ai "http://ns.adobe.com/AdobeIllustrator/10.0/">
	<!ENTITY ns_svg "http://www.w3.org/2000/svg">
	<!ENTITY ns_xlink "http://www.w3.org/1999/xlink">
]>
<svg  xmlns:x="&ns_extend;" xmlns:i="&ns_ai;" xmlns:graph="&ns_graphs;"
	 xmlns="&ns_svg;" xmlns:xlink="&ns_xlink;" xmlns:a="http://ns.adobe.com/AdobeSVGViewerExtensions/3.0/" width="329" height="112"
	 viewBox="-0.373 0.411 329 112" overflow="visible" enable-background="new -0.373 0.411 329 112" xml:space="preserve">
	<g id="Layer_1_2_">
		<g>
			<path d="M218.321,86.93c2.146,0.05,3.781,0.751,4.751,1.903V48.463h0.971c0,2.454,1.175,5.359,2.657,7.413
				c1.686,2.254,3.73,4.909,5.723,8.114c1.686,2.805,3.065,7.212,3.321,9.216c0.307,2.054,0.46,4.107,0.409,6.111
				c-0.051,3.005-0.511,5.86-1.533,8.515l-0.613-0.301c0.919-2.254,1.379-5.56,1.379-8.415c0-2.354-0.409-5.51-1.277-7.914
				c-1.533-4.458-4.087-7.063-5.569-8.064c-2.299-1.453-4.496-1.553-4.496-1.553v29.552c0.051,0.751-0.051,1.553-0.357,2.354
				c-1.329,3.556-5.927,6.412-10.219,6.361s-6.693-2.955-5.314-6.562C209.482,89.735,214.029,86.88,218.321,86.93z"/>
		</g>
		<g>
			<path d="M102.778,51.067c-0.971,2.605-3.167,4.708-4.751,5.51c-1.635,0.801-3.781,1.202-6.131,0.952
				c-1.277-0.1-3.423-0.451-4.598-1.653v40.121h-0.971V53.221c0-0.2,0-0.351,0-0.551c0.102-0.852,0.409-1.653,0.613-2.154
				c0.971-2.555,3.015-4.357,4.599-5.209c1.584-0.902,4.036-1.553,6.949-1.252c1.073,0.1,3.525,0.351,4.547,2.104
				C103.851,47.561,103.187,50.115,102.778,51.067z M96.698,46.91c-1.175,0.601-2.095,1.052-3.117,1.653
				c-1.021,0.601-1.992,1.102-3.117,1.854c-1.481,0.952-3.474,2.604-2.452,4.308c1.022,1.703,3.474,0.852,5.109,0.05
				c1.175-0.551,2.146-1.052,3.167-1.653c1.073-0.601,1.942-1.052,3.066-1.753c1.481-0.952,3.474-2.655,2.452-4.358
				C100.785,45.307,98.282,46.108,96.698,46.91z"/>
		</g>
		<g>
			<path fill="#0A50A1" stroke="#0A50A1" d="M111.185,51.365c-0.771,0-1.314-0.567-1.314-1.323c0-0.756,0.567-1.323,1.36-1.323
				s1.337,0.546,1.337,1.323c0,0.756-0.544,1.323-1.359,1.323H111.185z"/>
		</g>
		<g>
			<path fill="#0A50A1" d="M110.119,0v7.02c0,0.516,0.012,1.104,0.048,1.5h-0.948l-0.048-1.008h-0.024
				c-0.324,0.648-1.02,1.14-1.968,1.14c-1.404,0-2.496-1.188-2.496-2.952c-0.012-1.944,1.2-3.12,2.604-3.12
				c0.9,0,1.5,0.42,1.752,0.876h0.024V0H110.119z M109.063,5.076c0-0.144-0.012-0.312-0.048-0.456
				c-0.156-0.66-0.732-1.212-1.524-1.212c-1.092,0-1.74,0.96-1.74,2.232c0,1.188,0.588,2.16,1.716,2.16
				c0.708,0,1.356-0.48,1.548-1.26c0.036-0.144,0.048-0.288,0.048-0.456V5.076z"/>
			<path fill="#0A50A1" d="M114.234,8.652c-1.56,0-2.784-1.152-2.784-2.988c0-1.944,1.284-3.084,2.88-3.084
				c1.668,0,2.796,1.212,2.796,2.976c0,2.16-1.5,3.096-2.88,3.096H114.234z M114.271,7.86c1.008,0,1.764-0.948,1.764-2.268
				c0-0.984-0.492-2.22-1.74-2.22c-1.236,0-1.776,1.152-1.776,2.256c0,1.272,0.72,2.232,1.74,2.232H114.271z"/>
			<path fill="#0A50A1" d="M119.73,1.32v1.392h1.512v0.804h-1.512v3.132c0,0.72,0.204,1.128,0.792,1.128
				c0.288,0,0.456-0.024,0.612-0.072l0.048,0.804c-0.204,0.072-0.528,0.144-0.936,0.144c-0.492,0-0.888-0.168-1.14-0.444
				c-0.288-0.324-0.408-0.84-0.408-1.524V3.516h-0.9V2.712h0.9V1.644L119.73,1.32z"/>
		</g>
		<g>
			<path d="M257.357,36.351v-5.004h-0.804v-0.804h0.804v-0.276c0-0.816,0.192-1.56,0.684-2.028c0.396-0.384,0.924-0.54,1.404-0.54
				c0.384,0,0.696,0.084,0.9,0.168l-0.132,0.816c-0.168-0.072-0.372-0.132-0.684-0.132c-0.888,0-1.128,0.792-1.128,1.68v0.312h1.404
				v0.804h-1.392v5.004H257.357z"/>
			<path d="M260.765,27.831h1.056v8.52h-1.056V27.831z"/>
			<path d="M267.665,34.959c0,0.504,0.024,0.996,0.084,1.392h-0.948l-0.096-0.732h-0.036c-0.312,0.456-0.948,0.864-1.776,0.864
				c-1.176,0-1.776-0.828-1.776-1.668c0-1.404,1.248-2.172,3.492-2.16v-0.12c0-0.48-0.132-1.356-1.32-1.344
				c-0.552,0-1.116,0.156-1.524,0.432l-0.24-0.708c0.48-0.3,1.188-0.504,1.92-0.504c1.788,0,2.22,1.212,2.22,2.376V34.959z
				 M266.633,33.387c-1.152-0.024-2.46,0.18-2.46,1.308c0,0.696,0.456,1.008,0.984,1.008c0.768,0,1.26-0.48,1.428-0.972
				c0.036-0.108,0.048-0.228,0.048-0.336V33.387z"/>
			<path d="M274.325,35.499c0,1.344-0.276,2.148-0.828,2.664c-0.576,0.516-1.392,0.696-2.124,0.696c-0.696,0-1.464-0.168-1.932-0.48
				l0.264-0.816c0.384,0.252,0.984,0.468,1.704,0.468c1.08,0,1.872-0.564,1.872-2.04v-0.636h-0.024
				c-0.312,0.54-0.948,0.972-1.848,0.972c-1.44,0-2.472-1.224-2.472-2.844c0-1.968,1.284-3.072,2.628-3.072
				c1.008,0,1.548,0.516,1.812,0.996h0.024l0.036-0.864h0.936c-0.036,0.408-0.048,0.876-0.048,1.584V35.499z M273.269,32.823
				c0-0.168-0.012-0.324-0.06-0.468c-0.192-0.624-0.696-1.128-1.476-1.128c-1.008,0-1.728,0.852-1.728,2.208
				c0,1.128,0.588,2.088,1.716,2.088c0.66,0,1.248-0.408,1.464-1.092c0.06-0.168,0.084-0.372,0.084-0.564V32.823z"/>
		</g>
		<g>
			<path d="M0.108,49.498h1.056v3.624h0.024c0.168-0.3,0.432-0.576,0.756-0.744c0.312-0.192,0.684-0.3,1.08-0.3
				c0.78,0,2.028,0.48,2.028,2.484v3.456H3.996v-3.336c0-0.948-0.348-1.728-1.344-1.728c-0.684,0-1.212,0.48-1.416,1.056
				c-0.06,0.144-0.072,0.3-0.072,0.504v3.504H0.108V49.498z"/>
			<path d="M7.368,55.293c0.024,1.428,0.924,2.016,1.98,2.016c0.756,0,1.224-0.132,1.608-0.288l0.192,0.744
				c-0.372,0.168-1.02,0.372-1.944,0.372c-1.776,0-2.856-1.188-2.856-2.928c0-1.764,1.044-3.144,2.736-3.144
				c1.896,0,2.388,1.668,2.388,2.736c0,0.216-0.012,0.384-0.036,0.504L7.368,55.293z M10.452,54.538
				c0.012-0.66-0.276-1.716-1.452-1.716c-1.08,0-1.536,0.984-1.62,1.716H10.452z"/>
			<path d="M16.872,56.625c0,0.504,0.024,0.996,0.084,1.392h-0.948l-0.096-0.732h-0.036c-0.312,0.456-0.948,0.864-1.776,0.864
				c-1.176,0-1.776-0.828-1.776-1.668c0-1.404,1.248-2.172,3.492-2.16v-0.12c0-0.48-0.132-1.356-1.32-1.344
				c-0.552,0-1.116,0.156-1.524,0.432l-0.24-0.708c0.48-0.3,1.188-0.504,1.92-0.504c1.788,0,2.22,1.212,2.22,2.376V56.625z
				 M15.84,55.054c-1.152-0.024-2.46,0.18-2.46,1.308c0,0.696,0.456,1.008,0.984,1.008c0.768,0,1.26-0.48,1.428-0.972
				c0.036-0.108,0.048-0.228,0.048-0.336V55.054z"/>
			<path d="M23.58,49.498v7.02c0,0.516,0.012,1.104,0.048,1.5H22.68l-0.048-1.008h-0.024c-0.324,0.648-1.02,1.14-1.968,1.14
				c-1.404,0-2.496-1.188-2.496-2.952c-0.012-1.944,1.2-3.12,2.604-3.12c0.9,0,1.5,0.42,1.752,0.876h0.024v-3.456H23.58z
				 M22.524,54.574c0-0.144-0.012-0.312-0.048-0.456c-0.156-0.66-0.732-1.212-1.524-1.212c-1.092,0-1.74,0.96-1.74,2.232
				c0,1.188,0.588,2.16,1.716,2.16c0.708,0,1.356-0.48,1.548-1.26c0.036-0.144,0.048-0.288,0.048-0.456V54.574z"/>
			<path d="M2.388,64.189c-0.876,1.188-1.5,2.736-1.5,4.92c0,2.136,0.66,3.66,1.5,4.86H1.572C0.816,72.974,0,71.438,0,69.098
				c0.012-2.352,0.816-3.9,1.572-4.908H2.388z"/>
			<path d="M3.516,68.282c0-0.612-0.012-1.092-0.048-1.572h0.936l0.06,0.948h0.024c0.288-0.54,0.96-1.08,1.92-1.08
				c0.804,0,2.052,0.48,2.052,2.472v3.468H7.404v-3.348c0-0.936-0.348-1.728-1.344-1.728c-0.684,0-1.224,0.492-1.416,1.08
				c-0.048,0.132-0.072,0.324-0.072,0.492v3.504H3.516V68.282z"/>
			<path d="M12.54,72.649c-1.56,0-2.784-1.152-2.784-2.988c0-1.944,1.284-3.084,2.88-3.084c1.668,0,2.796,1.212,2.796,2.976
				c0,2.16-1.5,3.096-2.88,3.096H12.54z M12.576,71.857c1.008,0,1.764-0.948,1.764-2.268c0-0.984-0.492-2.22-1.74-2.22
				c-1.236,0-1.776,1.152-1.776,2.256c0,1.272,0.72,2.232,1.74,2.232H12.576z"/>
			<path d="M18.036,65.317v1.392h1.512v0.804h-1.512v3.132c0,0.72,0.204,1.128,0.792,1.128c0.288,0,0.456-0.024,0.612-0.072
				l0.048,0.804c-0.204,0.072-0.528,0.144-0.936,0.144c-0.492,0-0.888-0.168-1.14-0.444c-0.288-0.324-0.408-0.84-0.408-1.524v-3.168
				h-0.9v-0.804h0.9v-1.068L18.036,65.317z"/>
			<path d="M23.375,72.518v-5.004h-0.804v-0.804h0.804v-0.276c0-0.816,0.192-1.56,0.684-2.028c0.396-0.384,0.924-0.54,1.404-0.54
				c0.384,0,0.696,0.084,0.9,0.168l-0.132,0.816c-0.168-0.072-0.372-0.132-0.684-0.132c-0.888,0-1.128,0.792-1.128,1.68v0.312h1.404
				v0.804h-1.392v5.004H23.375z"/>
			<path d="M27.288,65.642c-0.396,0-0.66-0.312-0.66-0.684s0.276-0.672,0.684-0.672s0.672,0.3,0.672,0.672s-0.264,0.684-0.684,0.684
				H27.288z M26.784,72.518v-5.808h1.056v5.808H26.784z"/>
			<path d="M29.591,63.998h1.056v8.52h-1.056V63.998z"/>
			<path d="M32.399,63.998h1.056v8.52h-1.056V63.998z"/>
			<path d="M35.807,69.793c0.024,1.428,0.924,2.016,1.98,2.016c0.756,0,1.224-0.132,1.608-0.288l0.192,0.744
				c-0.372,0.168-1.02,0.372-1.944,0.372c-1.776,0-2.856-1.188-2.856-2.928c0-1.764,1.044-3.144,2.736-3.144
				c1.896,0,2.388,1.668,2.388,2.736c0,0.216-0.012,0.384-0.036,0.504L35.807,69.793z M38.891,69.038
				c0.012-0.66-0.276-1.716-1.452-1.716c-1.08,0-1.536,0.984-1.62,1.716H38.891z"/>
			<path d="M46.235,63.998v7.02c0,0.516,0.012,1.104,0.048,1.5h-0.948l-0.048-1.008h-0.024c-0.324,0.648-1.02,1.14-1.968,1.14
				c-1.404,0-2.496-1.188-2.496-2.952c-0.012-1.944,1.2-3.12,2.604-3.12c0.9,0,1.5,0.42,1.752,0.876h0.024v-3.456H46.235z
				 M45.179,69.074c0-0.144-0.012-0.312-0.048-0.456c-0.156-0.66-0.732-1.212-1.524-1.212c-1.092,0-1.74,0.96-1.74,2.232
				c0,1.188,0.588,2.16,1.716,2.16c0.708,0,1.356-0.48,1.548-1.26c0.036-0.144,0.048-0.288,0.048-0.456V69.074z"/>
			<path d="M51.035,65.642c-0.396,0-0.66-0.312-0.66-0.684s0.276-0.672,0.684-0.672c0.408,0,0.672,0.3,0.672,0.672
				s-0.264,0.684-0.684,0.684H51.035z M50.531,72.518v-5.808h1.056v5.808H50.531z"/>
			<path d="M53.339,68.282c0-0.612-0.012-1.092-0.048-1.572h0.936l0.06,0.948h0.024c0.288-0.54,0.96-1.08,1.92-1.08
				c0.804,0,2.052,0.48,2.052,2.472v3.468h-1.056v-3.348c0-0.936-0.348-1.728-1.344-1.728c-0.684,0-1.224,0.492-1.416,1.08
				c-0.048,0.132-0.072,0.324-0.072,0.492v3.504h-1.056V68.282z"/>
			<path d="M59.363,73.97c0.84-1.188,1.5-2.736,1.5-4.896c0-2.16-0.648-3.684-1.5-4.884h0.816c0.756,0.984,1.572,2.532,1.572,4.884
				c-0.012,2.352-0.816,3.876-1.572,4.896H59.363z"/>
		</g>
		<g>
			<path fill="#FF0000" d="M145.457,79.447c0.324,0.192,0.876,0.408,1.404,0.408c0.756,0,1.116-0.372,1.116-0.864
				c0-0.504-0.3-0.78-1.068-1.068c-1.056-0.384-1.548-0.948-1.548-1.644c0-0.936,0.768-1.704,2.004-1.704
				c0.588,0,1.104,0.156,1.416,0.36l-0.252,0.756c-0.228-0.132-0.648-0.336-1.188-0.336c-0.624,0-0.96,0.36-0.96,0.792
				c0,0.492,0.336,0.708,1.092,0.996c0.996,0.372,1.524,0.876,1.524,1.752c0,1.032-0.804,1.752-2.16,1.752
				c-0.636,0-1.224-0.168-1.632-0.408L145.457,79.447z"/>
			<path fill="#FF0000" d="M151.625,73.315v1.392h1.512v0.804h-1.512v3.132c0,0.72,0.204,1.128,0.792,1.128
				c0.288,0,0.456-0.024,0.612-0.072l0.048,0.804c-0.204,0.072-0.528,0.144-0.936,0.144c-0.492,0-0.888-0.168-1.14-0.444
				c-0.288-0.324-0.408-0.84-0.408-1.524v-3.168h-0.9v-0.804h0.9v-1.068L151.625,73.315z"/>
			<path fill="#FF0000" d="M154.853,77.791c0.024,1.428,0.924,2.016,1.98,2.016c0.756,0,1.224-0.132,1.608-0.288l0.192,0.744
				c-0.372,0.168-1.02,0.372-1.944,0.372c-1.776,0-2.856-1.188-2.856-2.928c0-1.764,1.044-3.144,2.736-3.144
				c1.896,0,2.388,1.668,2.388,2.736c0,0.216-0.012,0.384-0.036,0.504L154.853,77.791z M157.937,77.035
				c0.012-0.66-0.276-1.716-1.452-1.716c-1.08,0-1.536,0.984-1.62,1.716H157.937z"/>
			<path fill="#FF0000" d="M160.265,76.279c0-0.612-0.024-1.092-0.048-1.572h0.924l0.048,0.936h0.036
				c0.324-0.552,0.864-1.068,1.836-1.068c0.78,0,1.38,0.48,1.632,1.164h0.024c0.18-0.336,0.42-0.576,0.66-0.756
				c0.348-0.264,0.72-0.408,1.272-0.408c0.78,0,1.92,0.504,1.92,2.52v3.42h-1.032v-3.288c0-1.128-0.42-1.788-1.26-1.788
				c-0.612,0-1.068,0.444-1.26,0.948c-0.048,0.156-0.084,0.348-0.084,0.528v3.6H163.9v-3.48c0-0.936-0.408-1.596-1.212-1.596
				c-0.648,0-1.14,0.528-1.308,1.056c-0.06,0.156-0.084,0.336-0.084,0.516v3.504h-1.032V76.279z"/>
		</g>
		<g>
			<path fill="none" stroke="#000000" d="M233.973,60.892l19.881-23.225"/>
			<path fill="none" stroke="#000000" d="M243.452,59.218l-9.479,1.674"/>
			<path fill="none" stroke="#000000" d="M234.702,50.64l-0.729,10.252"/>
		</g>
		<g>
			<path fill="none" stroke="#000000" d="M225.719,97.679l29.764,6.986"/>
			<path fill="none" stroke="#000000" d="M231.561,105.329l-5.842-7.65"/>
			<path fill="none" stroke="#000000" d="M235.159,93.616l-9.44,4.063"/>
		</g>
		<g>
			<path fill="none" stroke="#000000" d="M68.871,52.042L38.32,53.207"/>
			<path fill="none" stroke="#000000" d="M61.208,46.218l7.664,5.824"/>
			<path fill="none" stroke="#000000" d="M60.847,58.466l8.024-6.424"/>
		</g>
		<g>
			<path fill="#FF0000" stroke="#F63134" d="M105.153,76.263l30.571-0.247"/>
			<path fill="#FF0000" stroke="#F63134" d="M112.638,82.315l-7.485-6.052"/>
			<path fill="#FF0000" stroke="#F63134" d="M113.366,70.083l-8.213,6.18"/>
		</g>
		<g>
			<path fill="#FF0000" stroke="#F63134" d="M210.721,76.016l-30.572-0.229"/>
			<path fill="#FF0000" stroke="#F63134" d="M203.331,69.848l7.39,6.168"/>
			<path fill="#FF0000" stroke="#F63134" d="M202.414,82.067l8.308-6.051"/>
		</g>
		<g>
			<path fill="#0A50A1" stroke="#0A50A1" d="M111.542,43.011l1.527-30.534"/>
			<path fill="#0A50A1" stroke="#0A50A1" d="M118.018,35.89l-6.476,7.122"/>
			<path fill="#0A50A1" stroke="#0A50A1" d="M105.849,34.454l5.693,8.558"/>
		</g>
		<g>
			<path d="M258.945,102.34h1.056v3.624h0.024c0.168-0.3,0.432-0.576,0.756-0.744c0.312-0.192,0.684-0.3,1.08-0.3
				c0.78,0,2.028,0.48,2.028,2.484v3.456h-1.056v-3.336c0-0.948-0.348-1.728-1.344-1.728c-0.684,0-1.212,0.48-1.416,1.056
				c-0.06,0.144-0.072,0.3-0.072,0.504v3.504h-1.056V102.34z"/>
			<path d="M266.205,108.136c0.024,1.428,0.924,2.016,1.98,2.016c0.756,0,1.224-0.132,1.608-0.288l0.192,0.744
				c-0.372,0.168-1.02,0.372-1.944,0.372c-1.776,0-2.856-1.188-2.856-2.928c0-1.764,1.044-3.144,2.736-3.144
				c1.896,0,2.388,1.668,2.388,2.736c0,0.216-0.012,0.384-0.036,0.504L266.205,108.136z M269.289,107.38
				c0.012-0.66-0.276-1.716-1.452-1.716c-1.08,0-1.536,0.984-1.62,1.716H269.289z"/>
			<path d="M275.708,109.468c0,0.504,0.024,0.996,0.084,1.392h-0.948l-0.096-0.732h-0.036c-0.312,0.456-0.948,0.864-1.776,0.864
				c-1.176,0-1.776-0.828-1.776-1.668c0-1.404,1.248-2.172,3.492-2.16v-0.12c0-0.48-0.132-1.356-1.32-1.344
				c-0.552,0-1.116,0.156-1.524,0.432l-0.24-0.708c0.48-0.3,1.188-0.504,1.92-0.504c1.788,0,2.22,1.212,2.22,2.376V109.468z
				 M274.677,107.896c-1.152-0.024-2.46,0.18-2.46,1.308c0,0.696,0.456,1.008,0.984,1.008c0.768,0,1.26-0.48,1.428-0.972
				c0.036-0.108,0.048-0.228,0.048-0.336V107.896z"/>
			<path d="M282.417,102.34v7.02c0,0.516,0.012,1.104,0.048,1.5h-0.948l-0.048-1.008h-0.024c-0.324,0.648-1.02,1.14-1.968,1.14
				c-1.404,0-2.496-1.188-2.496-2.952c-0.012-1.944,1.2-3.12,2.604-3.12c0.9,0,1.5,0.42,1.752,0.876h0.024v-3.456H282.417z
				 M281.361,107.416c0-0.144-0.012-0.312-0.048-0.456c-0.156-0.66-0.732-1.212-1.524-1.212c-1.092,0-1.74,0.96-1.74,2.232
				c0,1.188,0.588,2.16,1.716,2.16c0.708,0,1.356-0.48,1.548-1.26c0.036-0.144,0.048-0.288,0.048-0.456V107.416z"/>
			<path d="M288.992,102.532c-0.876,1.188-1.5,2.736-1.5,4.92c0,2.136,0.66,3.66,1.5,4.86h-0.815
				c-0.756-0.996-1.572-2.532-1.572-4.872c0.012-2.352,0.816-3.9,1.572-4.908H288.992z"/>
			<path d="M290.217,110.86v-5.004h-0.805v-0.804h0.805v-0.276c0-0.816,0.191-1.56,0.684-2.028c0.396-0.384,0.924-0.54,1.404-0.54
				c0.384,0,0.695,0.084,0.899,0.168l-0.132,0.816c-0.168-0.072-0.372-0.132-0.684-0.132c-0.889,0-1.128,0.792-1.128,1.68v0.312
				h1.403v0.804h-1.392v5.004H290.217z"/>
			<path d="M294.128,103.984c-0.396,0-0.659-0.312-0.659-0.684s0.275-0.672,0.684-0.672s0.672,0.3,0.672,0.672
				s-0.264,0.684-0.684,0.684H294.128z M293.624,110.86v-5.808h1.057v5.808H293.624z"/>
			<path d="M296.433,102.34h1.056v8.52h-1.056V102.34z"/>
			<path d="M299.24,102.34h1.056v8.52h-1.056V102.34z"/>
			<path d="M302.648,108.136c0.023,1.428,0.924,2.016,1.979,2.016c0.756,0,1.225-0.132,1.608-0.288l0.191,0.744
				c-0.372,0.168-1.02,0.372-1.943,0.372c-1.776,0-2.856-1.188-2.856-2.928c0-1.764,1.044-3.144,2.736-3.144
				c1.896,0,2.388,1.668,2.388,2.736c0,0.216-0.012,0.384-0.036,0.504L302.648,108.136z M305.732,107.38
				c0.012-0.66-0.276-1.716-1.452-1.716c-1.08,0-1.536,0.984-1.62,1.716H305.732z"/>
			<path d="M313.076,102.34v7.02c0,0.516,0.012,1.104,0.048,1.5h-0.948l-0.048-1.008h-0.024c-0.323,0.648-1.02,1.14-1.968,1.14
				c-1.403,0-2.496-1.188-2.496-2.952c-0.012-1.944,1.2-3.12,2.604-3.12c0.899,0,1.5,0.42,1.752,0.876h0.023v-3.456H313.076z
				 M312.02,107.416c0-0.144-0.012-0.312-0.048-0.456c-0.155-0.66-0.731-1.212-1.523-1.212c-1.092,0-1.74,0.96-1.74,2.232
				c0,1.188,0.588,2.16,1.716,2.16c0.708,0,1.356-0.48,1.548-1.26c0.036-0.144,0.048-0.288,0.048-0.456V107.416z"/>
			<path d="M317.876,103.984c-0.396,0-0.66-0.312-0.66-0.684s0.276-0.672,0.684-0.672c0.408,0,0.673,0.3,0.673,0.672
				s-0.265,0.684-0.685,0.684H317.876z M317.372,110.86v-5.808h1.056v5.808H317.372z"/>
			<path d="M320.18,106.624c0-0.612-0.012-1.092-0.048-1.572h0.936l0.061,0.948h0.023c0.288-0.54,0.96-1.08,1.92-1.08
				c0.805,0,2.053,0.48,2.053,2.472v3.468h-1.057v-3.348c0-0.936-0.348-1.728-1.344-1.728c-0.684,0-1.224,0.492-1.416,1.08
				c-0.048,0.132-0.072,0.324-0.072,0.492v3.504h-1.056V106.624z"/>
			<path d="M326.203,112.312c0.841-1.188,1.501-2.736,1.501-4.896c0-2.16-0.648-3.684-1.501-4.884h0.816
				c0.756,0.984,1.572,2.532,1.572,4.884c-0.012,2.352-0.816,3.876-1.572,4.896H326.203z"/>
		</g>
		<path fill="#FF0000" stroke="#DE2109" stroke-width="2" d="M87.561,54.185v43.498"/>
		<path fill="#FF0000" stroke="#DE2109" stroke-width="2" d="M223.56,47.851v43.498"/>
	</g>
</svg>
