<?xml version="1.0" encoding="utf-8"?>
<!-- Generator: Adobe Illustrator 10.0, SVG Export Plug-In . SVG Version: 3.0.0 Build 76)  -->
<!DOCTYPE svg PUBLIC "-//W3C//DTD SVG 1.0//EN"    "http://www.w3.org/TR/2001/REC-SVG-20010904/DTD/svg10.dtd" [
	<!ENTITY ns_flows "http://ns.adobe.com/Flows/1.0/">
	<!ENTITY ns_extend "http://ns.adobe.com/Extensibility/1.0/">
	<!ENTITY ns_ai "http://ns.adobe.com/AdobeIllustrator/10.0/">
	<!ENTITY ns_svg "http://www.w3.org/2000/svg">
	<!ENTITY ns_xlink "http://www.w3.org/1999/xlink">
]>
<svg  xmlns:x="&ns_extend;" xmlns:i="&ns_ai;" xmlns:graph="&ns_graphs;"
	 xmlns="&ns_svg;" xmlns:xlink="&ns_xlink;" xmlns:a="http://ns.adobe.com/AdobeSVGViewerExtensions/3.0/" width="281" height="185"
	 viewBox="-0.189 -0.367 281 185" overflow="visible" enable-background="new -0.189 -0.367 281 185" xml:space="preserve">
	<g id="Layer_1_2_">
		<g>
			<path d="M7.034,176.623c1.167,0,2.105,0.438,2.646,1.108v-23.358h0.541v24.787c0,0.408-0.057,0.816-0.199,1.283
				c-0.768,2.07-3.301,3.732-5.69,3.704c-2.39-0.029-3.728-1.75-2.988-3.82S4.644,176.594,7.034,176.623z"/>
		</g>
		<g>
			<path d="M8.871,38.008c3.158,0.029,6.146,1.254,6.374,3.966c0.171,1.983-2.39,3.791-5.548,3.791
				c-3.187-0.029-6.146-1.225-6.402-3.937C3.123,39.816,5.712,38.008,8.871,38.008z M9.639,45.095c1.366,0,2.248-1.341,2.105-2.42
				c-0.313-2.129-1.024-3.85-2.902-3.85c-1.366,0-2.163,1.371-1.992,2.45C7.164,43.403,7.761,45.095,9.639,45.095z"/>
		</g>
		<g>
			<path d="M177.826,175.621c1.195,0.029,2.105,0.437,2.646,1.108v-23.504h0.541c0,1.429,0.655,3.12,1.479,4.315
				c0.939,1.313,2.077,2.858,3.187,4.725c0.939,1.633,1.707,4.199,1.849,5.366c0.171,1.195,0.256,2.391,0.228,3.558
				c-0.029,1.75-0.285,3.412-0.854,4.958l-0.341-0.175c0.512-1.312,0.769-3.237,0.769-4.899c0-1.371-0.228-3.208-0.711-4.607
				c-0.854-2.596-2.276-4.112-3.102-4.695c-1.28-0.846-2.504-0.904-2.504-0.904v17.205c0.029,0.438-0.028,0.904-0.199,1.371
				c-0.74,2.071-3.3,3.733-5.69,3.704s-3.727-1.721-2.959-3.82C172.903,177.254,175.436,175.592,177.826,175.621z"/>
		</g>
		<g>
			<path d="M40.521,35.648h-8.719v-1.656h8.719V35.648z M40.521,38.992h-8.719v-1.656h8.719V38.992z"/>
		</g>
		<g>
			<path d="M36.022,96.148h-8.719v-1.656h8.719V96.148z M36.022,99.492h-8.719v-1.656h8.719V99.492z"/>
		</g>
		<g>
			<path d="M57.539,46.076c0.541-1.517,1.764-2.741,2.674-3.208c0.911-0.438,2.077-0.671,3.415-0.554
				c0.683,0.058,1.878,0.262,2.561,0.991V19.947h0.541v24.904c0,0.117-0.028,0.204-0.028,0.292
				c-0.057,0.525-0.199,0.962-0.313,1.254c-0.541,1.517-1.707,2.537-2.589,3.062c-0.882,0.525-2.219,0.904-3.841,0.729
				c-0.626-0.087-1.992-0.204-2.561-1.254C56.941,48.146,57.339,46.659,57.539,46.076z M60.953,48.525
				c0.655-0.35,1.138-0.642,1.736-0.962c0.569-0.35,1.081-0.671,1.707-1.079c0.854-0.554,1.963-1.516,1.394-2.508
				c-0.569-0.991-1.963-0.496-2.845-0.058c-0.683,0.35-1.223,0.641-1.792,0.991c-0.569,0.321-1.081,0.612-1.679,1.021
				c-0.854,0.554-1.963,1.546-1.366,2.537C58.648,49.458,60.042,48.963,60.953,48.525z"/>
		</g>
		<g>
			<path d="M0.143,107.852c0.541-1.516,1.764-2.741,2.674-3.208c0.911-0.438,2.077-0.671,3.415-0.554
				c0.683,0.058,1.878,0.262,2.561,0.991V81.723h0.541v24.904c0,0.117-0.028,0.204-0.028,0.292
				c-0.057,0.525-0.199,0.962-0.313,1.254c-0.541,1.517-1.707,2.537-2.589,3.062c-0.882,0.525-2.219,0.904-3.841,0.729
				c-0.626-0.087-1.992-0.204-2.561-1.254C-0.455,109.922-0.057,108.435,0.143,107.852z M3.557,110.301
				c0.655-0.35,1.138-0.642,1.736-0.962c0.569-0.35,1.081-0.671,1.707-1.079c0.854-0.554,1.963-1.516,1.394-2.508
				c-0.569-0.992-1.963-0.496-2.845-0.058c-0.683,0.35-1.223,0.642-1.792,0.991c-0.569,0.321-1.081,0.612-1.679,1.021
				c-0.854,0.554-1.963,1.546-1.366,2.537C1.252,111.234,2.646,110.739,3.557,110.301z"/>
		</g>
		<g>
			<path d="M58.315,104.751c1.167,0,2.105,0.438,2.646,1.108V82.501h0.541v24.787c0,0.408-0.057,0.816-0.199,1.283
				c-0.768,2.07-3.301,3.732-5.69,3.704c-2.39-0.029-3.728-1.75-2.988-3.82S55.925,104.722,58.315,104.751z"/>
		</g>
		<g>
			<path d="M38.247,158.686h-8.719v-1.656h8.719V158.686z M38.247,162.03h-8.719v-1.656h8.719V162.03z"/>
		</g>
		<g>
			<path d="M53.701,175.289c1.167,0,2.105,0.438,2.646,1.108v-23.358h0.541v24.787c0,0.408-0.057,0.816-0.199,1.283
				c-0.768,2.07-3.301,3.732-5.69,3.704c-2.39-0.029-3.728-1.75-2.988-3.82S51.311,175.26,53.701,175.289z"/>
		</g>
		<g>
			<path d="M78.607,46.076c0.541-1.517,1.764-2.741,2.674-3.208c0.911-0.438,2.077-0.671,3.415-0.554
				c0.683,0.058,1.878,0.262,2.561,0.991V19.947h0.541v24.904c0,0.117-0.028,0.204-0.028,0.292
				c-0.057,0.525-0.199,0.962-0.313,1.254c-0.541,1.517-1.707,2.537-2.589,3.062c-0.882,0.525-2.219,0.904-3.841,0.729
				c-0.626-0.087-1.992-0.204-2.561-1.254C78.009,48.146,78.408,46.659,78.607,46.076z M82.021,48.525
				c0.655-0.35,1.138-0.642,1.736-0.962c0.569-0.35,1.081-0.671,1.707-1.079c0.854-0.554,1.963-1.516,1.394-2.508
				c-0.569-0.991-1.963-0.496-2.845-0.058c-0.683,0.35-1.223,0.641-1.792,0.991c-0.569,0.321-1.081,0.612-1.679,1.021
				c-0.854,0.554-1.963,1.546-1.366,2.537C79.716,49.458,81.111,48.963,82.021,48.525z"/>
		</g>
		<g>
			<path d="M101.021,46.076c0.541-1.517,1.764-2.741,2.674-3.208c0.911-0.438,2.077-0.671,3.415-0.554
				c0.683,0.058,1.878,0.262,2.561,0.991V19.947h0.541v24.904c0,0.117-0.028,0.204-0.028,0.292
				c-0.057,0.525-0.199,0.962-0.313,1.254c-0.541,1.517-1.707,2.537-2.589,3.062c-0.882,0.525-2.219,0.904-3.841,0.729
				c-0.626-0.087-1.992-0.204-2.561-1.254C100.424,48.146,100.822,46.659,101.021,46.076z M104.436,48.525
				c0.655-0.35,1.138-0.642,1.736-0.962c0.569-0.35,1.081-0.671,1.707-1.079c0.854-0.554,1.963-1.516,1.394-2.508
				c-0.569-0.991-1.963-0.496-2.845-0.058c-0.683,0.35-1.223,0.641-1.792,0.991c-0.569,0.321-1.081,0.612-1.679,1.021
				c-0.854,0.554-1.963,1.546-1.366,2.537C102.131,49.458,103.525,48.963,104.436,48.525z"/>
		</g>
		<g>
			<path d="M80.66,103.854c1.167,0,2.105,0.438,2.646,1.108V81.604h0.541v24.787c0,0.408-0.057,0.816-0.199,1.283
				c-0.768,2.07-3.301,3.732-5.69,3.704c-2.39-0.029-3.728-1.75-2.988-3.82S78.27,103.825,80.66,103.854z"/>
		</g>
		<g>
			<path d="M103.073,105.578c1.167,0,2.105,0.438,2.646,1.108V83.328h0.541v24.787c0,0.408-0.057,0.816-0.199,1.283
				c-0.768,2.07-3.301,3.732-5.69,3.704c-2.39-0.029-3.728-1.75-2.988-3.82S100.684,105.549,103.073,105.578z"/>
		</g>
		<g>
			<path d="M137.866,34.579h-8.719v-1.656h8.719V34.579z M137.866,37.922h-8.719v-1.656h8.719V37.922z"/>
		</g>
		<g>
			<path d="M138.09,90.182h-8.719v-1.656h8.719V90.182z M138.09,93.525h-8.719v-1.656h8.719V93.525z"/>
		</g>
		<g>
			<path d="M128.114,167.533h-8.719v-1.656h8.719V167.533z M128.114,170.877h-8.719v-1.656h8.719V170.877z"/>
		</g>
		<g>
			<path d="M210.768,163.447h-8.719v-1.656h8.719V163.447z M210.768,166.791h-8.719v-1.656h8.719V166.791z"/>
		</g>
		<path fill="none" stroke="#000000" stroke-width="2" d="M156.967,82.289h108.621"/>
		<path fill="none" stroke="#000000" stroke-width="2" d="M56.023,152.393h39.655"/>
		<g>
			<path d="M163.419,41.903c1.167,0,2.105,0.438,2.646,1.108V19.653h0.541V44.44c0,0.408-0.057,0.816-0.199,1.283
				c-0.768,2.07-3.301,3.732-5.69,3.704c-2.39-0.029-3.728-1.75-2.988-3.82S161.029,41.874,163.419,41.903z"/>
		</g>
		<g>
			<path d="M188.891,41.236c1.167,0,2.105,0.438,2.646,1.108V18.986h0.541v24.787c0,0.408-0.057,0.816-0.199,1.283
				c-0.768,2.07-3.301,3.732-5.69,3.704c-2.39-0.029-3.728-1.75-2.988-3.82S186.501,41.208,188.891,41.236z"/>
		</g>
		<g>
			<path d="M216.752,41.513c1.167,0,2.105,0.438,2.646,1.108V19.263h0.541V44.05c0,0.408-0.057,0.816-0.199,1.283
				c-0.768,2.07-3.301,3.732-5.69,3.704c-2.39-0.029-3.728-1.75-2.988-3.82S214.363,41.484,216.752,41.513z"/>
		</g>
		<g>
			<path d="M245.006,41.903c1.167,0,2.105,0.438,2.646,1.108V19.653h0.541V44.44c0,0.408-0.057,0.816-0.199,1.283
				c-0.768,2.07-3.301,3.732-5.69,3.704c-2.39-0.029-3.728-1.75-2.988-3.82S242.616,41.875,245.006,41.903z"/>
		</g>
		<g>
			<path d="M272.591,41.903c1.167,0,2.105,0.438,2.646,1.108V19.653h0.54V44.44c0,0.408-0.057,0.816-0.199,1.283
				c-0.768,2.07-3.3,3.732-5.69,3.704c-2.39-0.029-3.728-1.75-2.988-3.82S270.202,41.875,272.591,41.903z"/>
		</g>
		<g>
			<path d="M146.729,175.116c1.167,0,2.105,0.438,2.646,1.108v-23.358h0.541v24.787c0,0.408-0.057,0.816-0.199,1.283
				c-0.768,2.07-3.301,3.732-5.69,3.704c-2.39-0.029-3.728-1.75-2.988-3.82S144.339,175.087,146.729,175.116z"/>
		</g>
		<g>
			<path d="M153.368,105.622c1.167,0,2.105,0.438,2.646,1.108V83.372h0.541v24.787c0,0.408-0.057,0.816-0.199,1.283
				c-0.768,2.07-3.301,3.732-5.69,3.704c-2.39-0.029-3.728-1.75-2.988-3.82S150.979,105.593,153.368,105.622z"/>
		</g>
		<g>
			<path d="M169.702,105.622c1.167,0,2.105,0.438,2.646,1.108V83.372h0.541v24.787c0,0.408-0.057,0.816-0.199,1.283
				c-0.768,2.07-3.301,3.732-5.69,3.704c-2.39-0.029-3.728-1.75-2.988-3.82S167.312,105.593,169.702,105.622z"/>
		</g>
		<g>
			<path d="M186.702,105.622c1.167,0,2.105,0.438,2.646,1.108V83.372h0.541v24.787c0,0.408-0.057,0.816-0.199,1.283
				c-0.768,2.07-3.301,3.732-5.69,3.704c-2.39-0.029-3.728-1.75-2.988-3.82S184.312,105.593,186.702,105.622z"/>
		</g>
		<g>
			<path d="M203.702,105.289c1.167,0,2.105,0.438,2.646,1.108V83.039h0.541v24.787c0,0.408-0.057,0.816-0.199,1.283
				c-0.768,2.07-3.301,3.732-5.69,3.704c-2.39-0.029-3.728-1.75-2.988-3.82S201.312,105.26,203.702,105.289z"/>
		</g>
		<g>
			<path d="M222.702,104.622c1.167,0,2.105,0.438,2.646,1.108V82.372h0.541v24.787c0,0.408-0.057,0.816-0.199,1.283
				c-0.768,2.07-3.301,3.732-5.69,3.704c-2.39-0.029-3.728-1.75-2.988-3.82S220.312,104.593,222.702,104.622z"/>
		</g>
		<g>
			<path d="M241.702,104.622c1.167,0,2.105,0.438,2.646,1.108V82.372h0.541v24.787c0,0.408-0.057,0.816-0.199,1.283
				c-0.768,2.07-3.301,3.732-5.69,3.704c-2.39-0.029-3.728-1.75-2.988-3.82S239.312,104.593,241.702,104.622z"/>
		</g>
		<g>
			<path d="M262.702,104.622c1.167,0,2.105,0.438,2.646,1.108V82.372h0.541v24.787c0,0.408-0.057,0.816-0.199,1.283
				c-0.768,2.07-3.301,3.732-5.69,3.704c-2.39-0.029-3.728-1.75-2.988-3.82S260.312,104.593,262.702,104.622z"/>
		</g>
		<g>
			<path d="M72.034,175.623c1.167,0,2.105,0.438,2.646,1.108v-23.358h0.541v24.787c0,0.408-0.057,0.816-0.199,1.283
				c-0.768,2.07-3.301,3.732-5.69,3.704c-2.39-0.029-3.728-1.75-2.988-3.82S69.644,175.594,72.034,175.623z"/>
		</g>
		<g>
			<path d="M92.7,174.956c1.167,0,2.105,0.438,2.646,1.108v-23.358h0.541v24.787c0,0.408-0.057,0.816-0.199,1.283
				c-0.768,2.07-3.301,3.732-5.69,3.704c-2.39-0.029-3.728-1.75-2.988-3.82S90.311,174.927,92.7,174.956z"/>
		</g>
		<g>
			<path d="M229.492,174.621c1.195,0.029,2.105,0.437,2.646,1.108v-23.504h0.541c0,1.429,0.655,3.12,1.479,4.315
				c0.939,1.313,2.077,2.858,3.187,4.725c0.939,1.633,1.707,4.199,1.85,5.366c0.17,1.195,0.256,2.391,0.228,3.558
				c-0.029,1.75-0.285,3.412-0.854,4.958l-0.342-0.175c0.512-1.312,0.769-3.237,0.769-4.899c0-1.371-0.228-3.208-0.711-4.607
				c-0.854-2.596-2.276-4.112-3.102-4.695c-1.28-0.846-2.504-0.904-2.504-0.904v17.205c0.029,0.438-0.028,0.904-0.199,1.371
				c-0.74,2.071-3.3,3.733-5.69,3.704s-3.727-1.721-2.959-3.82C224.57,176.254,227.102,174.592,229.492,174.621z"/>
		</g>
		<g>
			<path d="M270.159,176.288c1.195,0.029,2.105,0.437,2.646,1.108v-23.504h0.54c0,1.429,0.654,3.12,1.479,4.315
				c0.939,1.313,2.077,2.858,3.187,4.725c0.939,1.633,1.708,4.199,1.85,5.366c0.171,1.195,0.256,2.391,0.228,3.558
				c-0.028,1.75-0.284,3.412-0.854,4.958l-0.341-0.175c0.512-1.312,0.768-3.237,0.768-4.899c0-1.371-0.228-3.208-0.711-4.607
				c-0.854-2.596-2.276-4.112-3.102-4.695c-1.28-0.846-2.504-0.904-2.504-0.904v17.205c0.028,0.438-0.028,0.904-0.199,1.371
				c-0.739,2.071-3.3,3.733-5.69,3.704s-3.727-1.721-2.959-3.82C265.236,177.921,267.769,176.259,270.159,176.288z"/>
		</g>
		<g>
			<path d="M71.806,144.179c0.324,0.18,1.068,0.48,1.812,0.48c0.948,0,1.428-0.456,1.428-1.032c0-0.78-0.768-1.128-1.56-1.128
				h-0.744v-1.308h0.708c0.612,0,1.38-0.24,1.38-0.9c0-0.468-0.372-0.816-1.152-0.816c-0.636,0-1.308,0.276-1.62,0.468l-0.372-1.32
				c0.468-0.3,1.392-0.588,2.412-0.588c1.656,0,2.58,0.876,2.58,1.944c0,0.828-0.468,1.488-1.428,1.812v0.024
				c0.936,0.168,1.692,0.876,1.692,1.908c0,1.368-1.212,2.376-3.192,2.376c-1.008,0-1.86-0.264-2.316-0.54L71.806,144.179z"/>
		</g>
		<g>
			<path d="M220.856,1.5h-3.024l-0.168,1.188c0.168-0.012,0.312-0.024,0.504-0.024c0.744,0,1.512,0.168,2.052,0.564
				c0.588,0.396,0.948,1.044,0.948,1.968c0,1.452-1.248,2.736-3.348,2.736c-0.948,0-1.74-0.216-2.172-0.444l0.336-1.368
				c0.336,0.168,1.044,0.384,1.752,0.384c0.756,0,1.56-0.36,1.56-1.188c0-0.816-0.636-1.308-2.196-1.308
				c-0.432,0-0.732,0.024-1.044,0.072L216.561,0h4.296V1.5z"/>
		</g>
		<g>
			<path d="M84.306,9.012c0.324,0.18,1.068,0.48,1.812,0.48c0.948,0,1.428-0.456,1.428-1.032c0-0.78-0.768-1.128-1.56-1.128h-0.744
				V6.024h0.708c0.612,0,1.38-0.24,1.38-0.9c0-0.468-0.372-0.816-1.152-0.816c-0.636,0-1.308,0.276-1.62,0.468l-0.372-1.32
				c0.468-0.3,1.392-0.588,2.412-0.588c1.656,0,2.58,0.876,2.58,1.944c0,0.828-0.468,1.488-1.428,1.812v0.024
				c0.936,0.168,1.692,0.876,1.692,1.908c0,1.368-1.212,2.376-3.192,2.376c-1.008,0-1.86-0.264-2.316-0.54L84.306,9.012z"/>
		</g>
		<g>
			<path d="M207.242,65.834v1.14l-3.216,6.66h-1.932l3.216-6.276v-0.024h-3.576v-1.5H207.242z"/>
		</g>
		<g>
			<g>
				<path d="M253.179,164.98c0,1.163-0.465,2.104-1.042,2.104c-0.573,0-1.042-0.942-1.042-2.104c0-1.162,0.469-2.104,1.042-2.104
					C252.714,162.876,253.179,163.818,253.179,164.98z"/>
				<g>
					<g>
						<path fill="none" d="M252.764,163.578c2.083,2.806,3.75,2.806,5.418-0.701"/>
						<path d="M252.386,163.898c0.741,0.97,1.853,2.328,3.237,2.19c1.562-0.154,2.409-1.791,3.024-3.04
							c0.283-0.575-0.651-0.912-0.931-0.345c-0.43,0.874-1.027,2.153-2.083,2.39c-1.014,0.227-1.987-1.176-2.492-1.837
							C252.754,162.748,251.998,163.391,252.386,163.898z"/>
					</g>
				</g>
				<g>
					<g>
						<path fill="none" d="M251.929,179.71c1.668-5.61,4.169-10.521,5.835-16.133"/>
						<path d="M252.395,179.883c1.692-5.471,4.145-10.662,5.835-16.133c0.188-0.61-0.742-0.956-0.931-0.345
							c-1.69,5.472-4.143,10.662-5.835,16.133C251.275,180.148,252.206,180.494,252.395,179.883z"/>
					</g>
				</g>
			</g>
			<path stroke="#000000" stroke-width="0.5" d="M253.179,164.98c0,1.238-0.784,2.242-1.755,2.242c-0.97,0-1.756-1.004-1.756-2.242
				c0-1.237,0.786-2.241,1.756-2.241C252.395,162.739,253.179,163.743,253.179,164.98z"/>
		</g>
		<path fill="none" stroke="#000000" stroke-width="2" d="M64.145,4.134v9.333"/>
		<path fill="none" stroke="#000000" stroke-width="2" d="M111.478,4.134V12.8"/>
		<path fill="none" stroke="#000000" stroke-width="2" d="M63.478,4.8h15"/>
		<path fill="none" stroke="#000000" stroke-width="2" d="M97.477,4.134h15"/>
		<g>
			<path d="M163.64,145.178c0.324,0.18,1.068,0.48,1.812,0.48c0.948,0,1.428-0.456,1.428-1.032c0-0.78-0.768-1.128-1.56-1.128
				h-0.744v-1.308h0.708c0.612,0,1.38-0.24,1.38-0.9c0-0.468-0.372-0.816-1.152-0.816c-0.636,0-1.308,0.276-1.62,0.468l-0.372-1.32
				c0.468-0.3,1.392-0.588,2.412-0.588c1.656,0,2.58,0.876,2.58,1.944c0,0.828-0.468,1.488-1.428,1.812v0.024
				c0.936,0.168,1.692,0.876,1.692,1.908c0,1.368-1.212,2.376-3.192,2.376c-1.008,0-1.86-0.264-2.316-0.54L163.64,145.178z"/>
		</g>
		<path fill="none" stroke="#000000" stroke-width="2" d="M143.479,140.3v9.333"/>
		<path fill="none" stroke="#000000" stroke-width="2" d="M190.812,140.3v8.667"/>
		<path fill="none" stroke="#000000" stroke-width="2" d="M142.812,140.966h15"/>
		<path fill="none" stroke="#000000" stroke-width="2" d="M176.811,140.3h15"/>
		<g>
			<path d="M250.306,141.179c0.324,0.18,1.068,0.48,1.812,0.48c0.948,0,1.428-0.456,1.428-1.032c0-0.78-0.768-1.128-1.56-1.128
				h-0.744v-1.308h0.708c0.612,0,1.38-0.24,1.38-0.9c0-0.468-0.372-0.816-1.152-0.816c-0.636,0-1.308,0.276-1.62,0.468l-0.372-1.32
				c0.468-0.3,1.392-0.588,2.412-0.588c1.656,0,2.58,0.876,2.58,1.944c0,0.828-0.468,1.488-1.428,1.812v0.024
				c0.936,0.168,1.692,0.876,1.692,1.908c0,1.368-1.212,2.376-3.192,2.376c-1.008,0-1.86-0.264-2.316-0.54L250.306,141.179z"/>
		</g>
		<path fill="none" stroke="#000000" stroke-width="2" d="M230.145,137.3v9.333"/>
		<path fill="none" stroke="#000000" stroke-width="2" d="M277.478,137.3v8.667"/>
		<path fill="none" stroke="#000000" stroke-width="2" d="M229.478,137.967h15"/>
		<path fill="none" stroke="#000000" stroke-width="2" d="M263.477,137.3h15"/>
		<path fill="none" stroke="#000000" stroke-width="2" d="M163.478,3.134v9.333"/>
		<path fill="none" stroke="#000000" stroke-width="2" d="M280.144,4.467v8.667"/>
		<path fill="none" stroke="#000000" stroke-width="2" d="M162.811,3.8h47.667"/>
		<path fill="none" stroke="#000000" stroke-width="2" d="M227.145,4.467h53.999"/>
		<g>
			<path d="M80.806,73.179c0.324,0.18,1.068,0.48,1.812,0.48c0.948,0,1.428-0.456,1.428-1.032c0-0.78-0.768-1.128-1.56-1.128h-0.744
				v-1.308h0.708c0.612,0,1.38-0.24,1.38-0.9c0-0.468-0.372-0.816-1.152-0.816c-0.636,0-1.308,0.276-1.62,0.468l-0.372-1.32
				c0.468-0.3,1.392-0.588,2.412-0.588c1.656,0,2.58,0.876,2.58,1.944c0,0.828-0.468,1.488-1.428,1.812v0.024
				c0.936,0.168,1.692,0.876,1.692,1.908c0,1.368-1.212,2.376-3.192,2.376c-1.008,0-1.86-0.264-2.316-0.54L80.806,73.179z"/>
		</g>
		<path fill="none" stroke="#000000" stroke-width="2" d="M56.645,69.634v9.333"/>
		<path fill="none" stroke="#000000" stroke-width="2" d="M107.978,70.3v8.667"/>
		<path fill="none" stroke="#000000" stroke-width="2" d="M56.478,70.3h21"/>
		<path fill="none" stroke="#000000" stroke-width="2" d="M93.477,70.3h15"/>
	</g>
</svg>
