<?xml version="1.0" encoding="utf-8"?>
<!-- Generator: Adobe Illustrator 10.0, SVG Export Plug-In . SVG Version: 3.0.0 Build 76)  -->
<!DOCTYPE svg PUBLIC "-//W3C//DTD SVG 1.0//EN"    "http://www.w3.org/TR/2001/REC-SVG-20010904/DTD/svg10.dtd" [
	<!ENTITY ns_flows "http://ns.adobe.com/Flows/1.0/">
	<!ENTITY ns_extend "http://ns.adobe.com/Extensibility/1.0/">
	<!ENTITY ns_ai "http://ns.adobe.com/AdobeIllustrator/10.0/">
	<!ENTITY ns_svg "http://www.w3.org/2000/svg">
	<!ENTITY ns_xlink "http://www.w3.org/1999/xlink">
]>
<svg  xmlns:x="&ns_extend;" xmlns:i="&ns_ai;" xmlns:graph="&ns_graphs;"
	 xmlns="&ns_svg;" xmlns:xlink="&ns_xlink;" xmlns:a="http://ns.adobe.com/AdobeSVGViewerExtensions/3.0/" width="404" height="220"
	 viewBox="0.063 -0.465 404 220" overflow="visible" enable-background="new 0.063 -0.465 404 220" xml:space="preserve">
	<g id="Layer_1_2_">
		<g>
			<path d="M9.232,16.892c3.158,0.029,6.146,1.254,6.374,3.966c0.171,1.983-2.39,3.791-5.548,3.791
				c-3.187-0.029-6.146-1.225-6.402-3.937C3.484,18.7,6.074,16.892,9.232,16.892z M10,23.978c1.366,0,2.248-1.342,2.105-2.42
				c-0.313-2.129-1.024-3.85-2.902-3.85c-1.366,0-2.163,1.371-1.992,2.45C7.525,22.287,8.123,23.978,10,23.978z"/>
		</g>
		<g>
			<path d="M42.693,208.457c0.541-1.517,1.764-2.741,2.674-3.208c0.911-0.438,2.077-0.671,3.415-0.554
				c0.683,0.058,1.878,0.262,2.561,0.991v-23.358h0.541v24.904c0,0.117-0.028,0.204-0.028,0.292
				c-0.057,0.525-0.199,0.962-0.313,1.254c-0.541,1.517-1.707,2.537-2.589,3.062c-0.882,0.525-2.219,0.904-3.841,0.729
				c-0.626-0.087-1.992-0.204-2.561-1.254C42.096,210.527,42.494,209.04,42.693,208.457z M46.107,210.906
				c0.655-0.35,1.138-0.642,1.736-0.962c0.569-0.35,1.081-0.671,1.707-1.079c0.854-0.554,1.963-1.516,1.394-2.508
				c-0.569-0.991-1.963-0.496-2.845-0.058c-0.683,0.35-1.223,0.641-1.792,0.991c-0.569,0.321-1.081,0.612-1.679,1.021
				c-0.854,0.554-1.963,1.546-1.366,2.537C43.803,211.839,45.197,211.344,46.107,210.906z"/>
		</g>
		<g>
			<path d="M5.577,88.203c3.158,0.029,6.146,1.254,6.374,3.966c0.171,1.983-2.39,3.791-5.548,3.791
				C3.215,95.931,0.256,94.735,0,92.023C-0.171,90.011,2.418,88.203,5.577,88.203z M6.345,95.289c1.366,0,2.248-1.341,2.105-2.42
				c-0.313-2.129-1.024-3.85-2.902-3.85c-1.366,0-2.163,1.371-1.992,2.45C3.87,93.598,4.467,95.289,6.345,95.289z"/>
		</g>
		<g>
			<path d="M45.262,19.393h-8.719v-1.656h8.719V19.393z M45.262,22.737h-8.719v-1.656h8.719V22.737z"/>
		</g>
		<path fill="none" stroke="#000000" d="M166.546,43.604H109.65V0.5h56.896V43.604z"/>
		<path fill="none" stroke="#000000" d="M403.476,45.259h-48.69V2.155h48.69V45.259z"/>
		<path fill="none" stroke="#000000" d="M168.995,102.154h-48.276V59.051h48.276V102.154z"/>
		<path fill="none" stroke="#000000" d="M403.477,102.154h-68.966V59.051h68.966V102.154z"/>
		<path fill="none" stroke="#000000" d="M147.304,162.432H99.028v-43.104h48.276V162.432z"/>
		<path fill="none" stroke="#000000" d="M402.856,160.052H328.72v-43.104h74.137V160.052z"/>
		<g>
			<path d="M263.538,17.875h-8.718v-1.656h8.718V17.875z M263.538,21.219h-8.718v-1.656h8.718V21.219z"/>
		</g>
		<g>
			<path d="M277.331,81.668h-8.719v-1.656h8.719V81.668z M277.331,85.012h-8.719v-1.656h8.719V85.012z"/>
		</g>
		<g>
			<path d="M301.124,135.393h-8.719v-1.656h8.719V135.393z M301.124,138.736h-8.719v-1.656h8.719V138.736z"/>
		</g>
		<g>
			<path d="M84.227,78.221h-8.719v-1.656h8.719V78.221z M84.227,81.564h-8.719v-1.656h8.719V81.564z"/>
		</g>
		<g>
			<path d="M70.435,142.014h-8.719v-1.656h8.719V142.014z M70.435,145.357h-8.719v-1.656h8.719V145.357z"/>
		</g>
		<g>
			<path d="M220.765,91.041c1.167,0,2.105,0.438,2.646,1.108V68.791h0.541v24.787c0,0.408-0.057,0.816-0.199,1.283
				c-0.768,2.07-3.301,3.732-5.69,3.704c-2.39-0.029-3.728-1.75-2.988-3.82S218.375,91.012,220.765,91.041z"/>
		</g>
		<g>
			<path d="M245.902,92.041c1.167,0,2.105,0.438,2.646,1.108V69.791h0.541v24.787c0,0.408-0.057,0.816-0.199,1.283
				c-0.768,2.07-3.301,3.732-5.69,3.704c-2.39-0.029-3.728-1.75-2.988-3.82S243.513,92.012,245.902,92.041z"/>
		</g>
		<path fill="none" stroke="#000000" stroke-width="2" d="M222.721,68.75h26.827"/>
		<g>
			<path d="M78.21,27.135c1.167,0,2.105,0.438,2.646,1.108V4.885h0.541v24.787c0,0.408-0.057,0.816-0.199,1.283
				c-0.768,2.07-3.301,3.732-5.69,3.704c-2.39-0.029-3.728-1.75-2.988-3.82S75.82,27.106,78.21,27.135z"/>
		</g>
		<g>
			<path d="M334.54,25.813c1.195,0.029,2.105,0.437,2.646,1.108V3.417h0.54c0,1.429,0.654,3.12,1.479,4.316
				c0.939,1.312,2.077,2.857,3.187,4.724c0.939,1.633,1.708,4.199,1.85,5.366c0.171,1.195,0.256,2.391,0.228,3.558
				c-0.028,1.75-0.284,3.412-0.854,4.958l-0.341-0.175c0.512-1.312,0.768-3.237,0.768-4.899c0-1.371-0.228-3.208-0.711-4.607
				c-0.854-2.596-2.276-4.112-3.102-4.695c-1.28-0.846-2.504-0.904-2.504-0.904v17.205c0.028,0.438-0.028,0.904-0.199,1.371
				c-0.739,2.071-3.301,3.733-5.69,3.704s-3.728-1.721-2.959-3.82C329.617,27.446,332.15,25.784,334.54,25.813z"/>
		</g>
		<g>
			<path d="M173.636,148.501l-0.313-0.146c0.484-1.283,0.854-2.712,0.797-3.85c-0.057-1.341-0.427-2.653-0.854-3.878
				c-0.598-1.808-1.707-3.266-3.044-4.199c-1.395-0.991-3.585-1.779-3.585-1.779c0,14.348,0,12.073,0,12.073
				c0,0.379-0.057,0.758-0.199,1.167c-0.769,2.071-3.301,3.733-5.691,3.704c-2.39-0.029-3.727-1.75-2.987-3.82
				c0.74-2.07,3.3-3.732,5.69-3.703c1.195,0,2.105,0.437,2.646,1.108v-14.26v-7.874h0.541c0,2.071,0.91,2.392,1.878,3.208
				c0.796,0.612,2.503,2.1,3.926,4.083c0.967,1.313,1.508,1.983,1.878,3.5c0.228,1.021,0.228,2.158,0,3.033
				c-0.398,1.517-0.541,1.691-0.882,2.246c0.256,0.642,0.484,1.195,0.626,1.837c0.228,1.05,0.398,1.662,0.484,3.179
				C174.66,146.081,173.92,147.889,173.636,148.501z M173.75,134.504c-0.854-2.945-2.959-4.17-4.068-4.783
				c-1.024-0.583-2.248-0.788-2.931-0.816c0,0.146,0,0.292,0.028,0.408c0.114,1.371,0.626,1.691,1.622,2.799
				c1.195,1.371,2.476,2.683,3.898,4.666c0.313,0.466,0.768,1.371,0.967,1.808c0.37-0.7,0.598-1.546,0.626-2.129
				C173.978,135.496,174.12,135.758,173.75,134.504z"/>
		</g>
		<g>
			<path d="M33.899,87.997c1.167,0,2.105,0.438,2.646,1.108V65.747h0.541v24.787c0,0.408-0.057,0.816-0.199,1.283
				c-0.768,2.07-3.301,3.732-5.69,3.704c-2.39-0.029-3.728-1.75-2.988-3.82S31.51,87.968,33.899,87.997z"/>
		</g>
		<g>
			<path d="M57.971,88.592c1.167,0,2.105,0.438,2.646,1.108V66.342h0.541v24.787c0,0.408-0.057,0.816-0.199,1.283
				c-0.768,2.07-3.301,3.732-5.69,3.704c-2.39-0.029-3.728-1.75-2.988-3.82S55.582,88.563,57.971,88.592z"/>
		</g>
		<path fill="none" stroke="#000000" d="M169.409,219.362h-58.62v-43.103h58.62V219.362z"/>
		<g>
			<path d="M85.643,198.944h-8.719v-1.656h8.719V198.944z M85.643,202.288h-8.719v-1.656h8.719V202.288z"/>
		</g>
		<g>
			<path d="M13.21,205.238c1.167,0,2.105,0.438,2.646,1.108v-23.358h0.541v24.787c0,0.408-0.057,0.816-0.199,1.283
				c-0.768,2.07-3.301,3.732-5.69,3.704c-2.39-0.029-3.728-1.75-2.988-3.82S10.82,205.209,13.21,205.238z"/>
		</g>
		<g>
			<path d="M33.833,147.212c1.167,0,2.105,0.438,2.646,1.108v-23.358h0.541v24.787c0,0.408-0.057,0.816-0.199,1.283
				c-0.768,2.07-3.301,3.732-5.69,3.704c-2.39-0.029-3.728-1.75-2.988-3.82S31.443,147.184,33.833,147.212z"/>
		</g>
		<path fill="none" stroke="#000000" d="M391.375,216.949h-58.621v-43.104h58.621V216.949z"/>
		<g>
			<path d="M307.608,196.531h-8.719v-1.656h8.719V196.531z M307.608,199.875h-8.719v-1.656h8.719V199.875z"/>
		</g>
		<g>
			<path d="M226.749,17.616c3.158,0.029,6.146,1.254,6.374,3.966c0.171,1.983-2.39,3.791-5.548,3.791
				c-3.187-0.029-6.146-1.225-6.402-3.937C221.001,19.424,223.591,17.616,226.749,17.616z M227.518,24.703
				c1.366,0,2.248-1.342,2.105-2.42c-0.313-2.129-1.024-3.85-2.902-3.85c-1.366,0-2.163,1.371-1.992,2.45
				C225.042,23.011,225.64,24.703,227.518,24.703z"/>
		</g>
		<g>
			<path d="M285.247,27.729c1.166,0,2.105,0.438,2.646,1.108V5.479h0.541v24.787c0,0.408-0.057,0.816-0.199,1.283
				c-0.769,2.07-3.301,3.732-5.69,3.704c-2.391-0.029-3.728-1.75-2.987-3.82C280.296,29.363,282.856,27.701,285.247,27.729z"/>
		</g>
		<g>
			<path d="M311.42,28.247c1.166,0,2.105,0.438,2.646,1.108V5.997h0.541v24.787c0,0.408-0.057,0.816-0.199,1.283
				c-0.769,2.07-3.301,3.732-5.69,3.704c-2.391-0.029-3.728-1.75-2.987-3.82C306.469,29.88,309.029,28.218,311.42,28.247z"/>
		</g>
		<g>
			<path d="M310.085,90.64l-0.313-0.146c0.483-1.283,0.854-2.712,0.797-3.85c-0.057-1.341-0.427-2.653-0.854-3.878
				c-0.598-1.808-1.707-3.266-3.045-4.199c-1.394-0.991-3.585-1.779-3.585-1.779c0,14.348,0,12.073,0,12.073
				c0,0.379-0.057,0.758-0.199,1.167c-0.768,2.071-3.3,3.733-5.69,3.704c-2.39-0.029-3.728-1.75-2.987-3.82
				c0.739-2.07,3.301-3.732,5.69-3.703c1.195,0,2.105,0.437,2.646,1.108v-14.26v-7.874h0.54c0,2.071,0.911,2.392,1.878,3.208
				c0.797,0.612,2.504,2.1,3.927,4.083c0.968,1.313,1.508,1.983,1.878,3.5c0.228,1.021,0.228,2.158,0,3.033
				c-0.398,1.517-0.541,1.691-0.882,2.246c0.256,0.642,0.483,1.195,0.626,1.837c0.228,1.05,0.398,1.662,0.483,3.179
				C311.109,88.22,310.369,90.028,310.085,90.64z M310.198,76.643c-0.854-2.945-2.959-4.17-4.068-4.783
				c-1.024-0.583-2.248-0.788-2.931-0.816c0,0.146,0,0.292,0.028,0.408c0.114,1.371,0.626,1.691,1.622,2.799
				c1.194,1.371,2.476,2.683,3.897,4.666c0.313,0.466,0.769,1.371,0.968,1.808c0.37-0.7,0.598-1.546,0.626-2.129
				C310.426,77.634,310.568,77.897,310.198,76.643z"/>
		</g>
		<g>
			<g>
				<path d="M272.467,194.409c0,1.129-0.523,2.044-1.174,2.044c-0.644,0-1.17-0.915-1.17-2.044c0-1.128,0.526-2.043,1.17-2.043
					C271.943,192.366,272.467,193.281,272.467,194.409z"/>
				<g>
					<g>
						<path fill="none" d="M271.999,193.046c2.343,2.726,4.22,2.726,6.096-0.681"/>
						<path d="M271.62,193.367c0.922,1.039,2.064,2.171,3.555,2.132c1.586-0.042,2.627-1.629,3.326-2.849
							c0.316-0.551-0.494-1.125-0.813-0.569c-0.54,0.942-1.197,2.101-2.324,2.403c-1.176,0.314-2.318-1.004-2.986-1.758
							C271.954,192.248,271.194,192.887,271.62,193.367z"/>
					</g>
				</g>
				<g>
					<g>
						<path fill="none" d="M271.062,208.717c1.876-5.45,4.689-10.22,6.564-15.671"/>
						<path d="M271.526,208.89c1.912-5.341,4.654-10.33,6.564-15.671c0.217-0.604-0.715-0.947-0.93-0.345
							c-1.912,5.342-4.652,10.33-6.564,15.671C270.38,209.148,271.312,209.492,271.526,208.89z"/>
					</g>
				</g>
			</g>
			<path stroke="#000000" stroke-width="0.5" d="M272.467,194.409c0,1.203-0.883,2.177-1.975,2.177
				c-1.091,0-1.975-0.975-1.975-2.177c0-1.202,0.884-2.177,1.975-2.177C271.584,192.232,272.467,193.208,272.467,194.409z"/>
			<path d="M270.492,199.721c0,1.13-0.524,2.045-1.173,2.045c-0.646,0-1.172-0.915-1.172-2.045c0-1.128,0.526-2.043,1.172-2.043
				C269.968,197.677,270.492,198.593,270.492,199.721z"/>
			<g>
				<g>
					<path fill="none" d="M270.024,198.359c2.344,2.725,4.219,2.725,6.097-0.682"/>
					<path d="M269.646,198.68c0.922,1.038,2.064,2.171,3.555,2.132c1.586-0.042,2.628-1.63,3.327-2.85
						c0.315-0.551-0.494-1.125-0.813-0.569c-0.54,0.942-1.197,2.102-2.325,2.403c-1.176,0.315-2.318-1.004-2.986-1.757
						C269.979,197.561,269.22,198.2,269.646,198.68z"/>
				</g>
			</g>
		</g>
		<g>
			<g>
				<path d="M270.432,129.881c0,1.163-0.465,2.104-1.042,2.104c-0.573,0-1.042-0.942-1.042-2.104c0-1.162,0.469-2.104,1.042-2.104
					C269.967,127.778,270.432,128.72,270.432,129.881z"/>
				<g>
					<g>
						<path fill="none" d="M270.017,128.479c2.083,2.806,3.75,2.806,5.418-0.701"/>
						<path d="M269.638,128.8c0.741,0.97,1.854,2.328,3.238,2.19c1.562-0.154,2.408-1.791,3.023-3.04
							c0.283-0.575-0.65-0.912-0.93-0.345c-0.431,0.874-1.027,2.153-2.083,2.39c-1.014,0.227-1.987-1.177-2.491-1.837
							C270.007,127.649,269.251,128.292,269.638,128.8z"/>
					</g>
				</g>
				<g>
					<g>
						<path fill="none" d="M269.182,144.612c1.668-5.61,4.169-10.521,5.835-16.133"/>
						<path d="M269.647,144.784c1.691-5.471,4.145-10.662,5.834-16.133c0.189-0.61-0.741-0.956-0.93-0.345
							c-1.69,5.472-4.144,10.662-5.836,16.133C268.528,145.05,269.458,145.396,269.647,144.784z"/>
					</g>
				</g>
			</g>
			<path stroke="#000000" stroke-width="0.5" d="M270.432,129.881c0,1.238-0.784,2.242-1.755,2.242c-0.97,0-1.756-1.004-1.756-2.242
				c0-1.237,0.786-2.241,1.756-2.241C269.647,127.64,270.432,128.644,270.432,129.881z"/>
		</g>
		<g>
			<path fill="none" stroke="#000000" d="M240.381,123.472l3.944,3.811"/>
			<path fill="none" stroke="#000000" stroke-width="4" d="M239.431,135.959l6.051-8.455"/>
			<path fill="none" stroke="#000000" d="M238.979,134.985l7.084,5.55"/>
			<path fill="none" stroke="#000000" d="M243.206,148.035l-3.323-4.746"/>
			<g>
				<g>
					<path fill="none" d="M245.8,140.882c-1.973-0.661-4.224-0.447-5.627,1.661"/>
					<path d="M246.145,139.952c-2.597-0.809-5.156-0.256-6.784,2.022c-0.745,1.043,0.882,2.18,1.626,1.139
						c1.095-1.533,2.731-1.841,4.47-1.3C246.675,142.193,247.367,140.333,246.145,139.952z"/>
				</g>
			</g>
		</g>
		<g>
			<g>
				<path d="M244.432,191.881c0,1.163-0.465,2.104-1.042,2.104c-0.573,0-1.042-0.942-1.042-2.104c0-1.162,0.469-2.104,1.042-2.104
					C243.967,189.778,244.432,190.72,244.432,191.881z"/>
				<g>
					<g>
						<path fill="none" d="M244.017,190.479c2.083,2.806,3.75,2.806,5.418-0.701"/>
						<path d="M243.638,190.8c0.741,0.97,1.853,2.328,3.237,2.19c1.562-0.154,2.409-1.791,3.024-3.04
							c0.283-0.575-0.651-0.912-0.931-0.345c-0.43,0.874-1.027,2.153-2.083,2.39c-1.014,0.227-1.987-1.177-2.492-1.837
							C244.006,189.649,243.25,190.292,243.638,190.8z"/>
					</g>
				</g>
				<g>
					<g>
						<path fill="none" d="M243.182,206.612c1.668-5.61,4.169-10.521,5.835-16.133"/>
						<path d="M243.647,206.784c1.692-5.471,4.145-10.661,5.835-16.132c0.188-0.61-0.742-0.956-0.931-0.345
							c-1.69,5.472-4.143,10.662-5.835,16.133C242.528,207.049,243.458,207.395,243.647,206.784z"/>
					</g>
				</g>
			</g>
			<path stroke="#000000" stroke-width="0.5" d="M244.432,191.881c0,1.238-0.784,2.242-1.755,2.242c-0.97,0-1.756-1.004-1.756-2.242
				c0-1.237,0.786-2.241,1.756-2.241C243.647,189.64,244.432,190.644,244.432,191.881z"/>
		</g>
	</g>
</svg>
