<?xml version="1.0" encoding="utf-8"?>
<!-- Generator: Adobe Illustrator 10.0, SVG Export Plug-In . SVG Version: 3.0.0 Build 76)  -->
<!DOCTYPE svg PUBLIC "-//W3C//DTD SVG 1.0//EN"    "http://www.w3.org/TR/2001/REC-SVG-20010904/DTD/svg10.dtd" [
	<!ENTITY ns_flows "http://ns.adobe.com/Flows/1.0/">
	<!ENTITY ns_extend "http://ns.adobe.com/Extensibility/1.0/">
	<!ENTITY ns_ai "http://ns.adobe.com/AdobeIllustrator/10.0/">
	<!ENTITY ns_svg "http://www.w3.org/2000/svg">
	<!ENTITY ns_xlink "http://www.w3.org/1999/xlink">
]>
<svg  xmlns:x="&ns_extend;" xmlns:i="&ns_ai;" xmlns:graph="&ns_graphs;"
	 xmlns="&ns_svg;" xmlns:xlink="&ns_xlink;" xmlns:a="http://ns.adobe.com/AdobeSVGViewerExtensions/3.0/" width="398" height="48"
	 viewBox="-0.385 -0.127 398 48" overflow="visible" enable-background="new -0.385 -0.127 398 48" xml:space="preserve">
	<g id="Layer_1_2_">
		<g>
			<path fill="none" stroke="#000000" d="M0.107,4.246h397.472"/>
			<path fill="none" stroke="#000000" d="M0.107,19.357h397.472"/>
			<path fill="none" stroke="#000000" d="M0.304,26.48h397.473"/>
			<path fill="none" stroke="#000000" d="M0,33.864h397.472"/>
			<path fill="none" stroke="#000000" d="M0,11.5h397.472"/>
		</g>
		<path fill="none" stroke="#0A0A0A" d="M100.9,3.395v29.746"/>
		<g>
			<path d="M41.192,14.72v1.584c0,0.96,1.128,0.936,1.128,0.936v0.624h-5.208V17.24c0,0,1.176,0.048,1.152-0.888V14.72h-4.44
				l-0.432-0.456c2.904-3.912,2.928-4.632,3.624-8.184h4.152c-0.984,1.824-4.296,5.256-6.624,7.968h3.72v-2.952l2.928-3.216v6.168
				h1.728v0.672H41.192z"/>
		</g>
		<g>
			<path d="M14.152,33.768c-4.944-2.352-5.736-5.376-5.952-8.472c-0.24-3.36,1.896-6.768,3.888-8.664
				c1.152-1.08,2.4-2.136,3.888-3.264c-0.048-0.84-0.24-1.176-0.336-2.376c-0.024-0.504-0.336-2.856,0.168-5.568
				c0.312-1.608,2.328-5.4,3.72-5.424c1.08-0.024,2.736,4.296,2.784,6.456c0.072,3.336-0.72,4.848-1.704,6.576
				c-0.504,0.864-1.032,1.464-1.584,2.136C18.448,15.864,17.8,16.272,17.2,16.8c0,0,0.768,4.344,0.792,4.656
				c1.536-0.192,3.408,0.36,4.08,0.84c1.704,1.272,2.352,3.024,2.472,4.728c0.216,2.712-1.272,5.568-4.56,6.936
				c0,0,0.504,3.456,0.624,4.176c0.264,1.896,0.216,3.096-0.192,3.864c-0.696,1.296-1.824,2.496-4.008,2.64
				c-1.68,0.096-4.992-0.744-5.16-3.384c-0.096-1.56,0.6-3.24,2.496-3.36c1.152-0.096,2.52,0.864,2.616,2.232
				c0.096,1.176-0.672,2.4-2.664,2.952c0.312,0.432,1.248,0.936,2.592,0.936c1.392,0,2.832-0.936,3.528-2.184
				c0.432-0.816,0.384-2.28,0.216-3.624c-0.072-0.456-0.648-4.08-0.648-4.08C17.608,34.416,15.16,34.248,14.152,33.768z
				 M14.632,28.08c0.048,1.152,1.008,2.496,1.896,2.952c-0.12,0.072-0.24,0.264-0.24,0.264c-0.984-0.48-1.824-1.272-2.04-1.56
				c-0.696-0.936-0.984-1.464-1.08-2.88c-0.096-1.32,0.624-3.096,2.232-4.344c0.84-0.624,1.248-0.768,1.968-0.936l-0.72-4.344
				c-0.744,0.432-3.816,2.904-5.112,4.92c-1.152,1.8-1.848,3.24-1.704,5.016c0.288,4.008,4.68,7.296,9.432,6.168
				c0,0-1.416-8.52-1.392-8.52C15.256,24.912,14.56,26.928,14.632,28.08z M16.576,12.864c2.088-1.632,4.92-4.704,4.752-7.08
				c-0.048-0.744-0.36-2.088-1.44-2.064C17.416,3.744,16.024,8.904,16.576,12.864z M19.84,33.144c2.76-0.936,2.88-3.312,2.784-4.728
				C22.528,27.24,22,24.6,18.496,24.768L19.84,33.144z"/>
		</g>
		<g>
			<path d="M221.096,22.912c0.984,0,1.776,0.36,2.232,0.912V4.6h0.456V25c0,0.336-0.048,0.672-0.168,1.056
				c-0.648,1.704-2.784,3.072-4.8,3.048c-2.016-0.024-3.144-1.44-2.52-3.144S219.08,22.888,221.096,22.912z"/>
		</g>
		<g>
			<path d="M69.904,19.864c2.664,0.024,5.184,1.032,5.376,3.264c0.144,1.632-2.016,3.12-4.68,3.12
				c-2.688-0.024-5.184-1.008-5.4-3.24C65.056,21.352,67.24,19.864,69.904,19.864z M70.552,25.696c1.152,0,1.896-1.104,1.776-1.992
				c-0.264-1.752-0.864-3.168-2.448-3.168c-1.152,0-1.824,1.128-1.68,2.016C68.464,24.304,68.968,25.696,70.552,25.696z"/>
		</g>
		<g>
			<path d="M176.44,29.696c0.456-1.248,1.488-2.256,2.256-2.64c0.768-0.36,1.752-0.552,2.88-0.456
				c0.576,0.048,1.584,0.216,2.16,0.816V8.192h0.456v20.496c0,0.096-0.024,0.168-0.024,0.24c-0.048,0.432-0.168,0.792-0.264,1.032
				c-0.456,1.248-1.44,2.088-2.184,2.52s-1.872,0.744-3.24,0.6c-0.528-0.072-1.68-0.168-2.16-1.032
				C175.936,31.4,176.271,30.176,176.44,29.696z M179.32,31.712c0.552-0.288,0.96-0.528,1.464-0.792
				c0.48-0.288,0.912-0.552,1.44-0.888c0.72-0.456,1.656-1.248,1.176-2.064c-0.48-0.816-1.656-0.408-2.4-0.048
				c-0.576,0.288-1.032,0.528-1.512,0.816c-0.48,0.264-0.912,0.504-1.416,0.84c-0.72,0.456-1.656,1.272-1.152,2.088
				C177.375,32.48,178.552,32.072,179.32,31.712z"/>
		</g>
		<g>
			<path d="M75.391,27.788c8.71,2.167,17.428,3.25,26.156,3.25c3.43,0,6.841-0.155,10.233-0.468
				c2.722-0.253,5.335-0.601,7.839-1.043c1.615-0.282,4.31-0.862,8.084-1.739v1.375c-4.555,1.368-9.128,2.38-13.718,3.034
				c-3.956,0.561-8.093,0.841-12.411,0.841c-4.899,0-9.636-0.374-14.208-1.124c-4.571-0.75-8.563-1.667-11.976-2.751V27.788z"/>
		</g>
		<g>
			<path d="M190.922,31.091c-0.713,0-1.217-0.536-1.217-1.25s0.524-1.25,1.259-1.25s1.238,0.516,1.238,1.25
				c0,0.714-0.503,1.25-1.259,1.25H190.922z"/>
		</g>
		<g>
			<path d="M42.192,30.72v1.584c0,0.96,1.128,0.936,1.128,0.936v0.624h-5.208V33.24c0,0,1.176,0.048,1.152-0.888V30.72h-4.44
				l-0.432-0.456c2.904-3.912,2.928-4.632,3.624-8.184h4.152c-0.984,1.824-4.296,5.256-6.624,7.968h3.72v-2.952l2.928-3.216v6.168
				h1.728v0.672H42.192z"/>
		</g>
		<path fill="none" stroke="#0A0A0A" d="M164.9,4.395v29.746"/>
		<path fill="none" stroke="#0A0A0A" d="M238.9,3.395v29.746"/>
		<path fill="none" stroke="#0A0A0A" d="M327.615,5.126v29.746"/>
		<path fill="none" stroke="#0A0A0A" d="M396.864,2.88v29.746"/>
		<g>
			<path d="M130.904,19.864c2.664,0.024,5.184,1.032,5.376,3.264c0.144,1.632-2.016,3.12-4.68,3.12
				c-2.688-0.024-5.184-1.008-5.4-3.24C126.056,21.352,128.24,19.864,130.904,19.864z M131.552,25.696
				c1.152,0,1.896-1.104,1.776-1.992c-0.264-1.752-0.864-3.168-2.448-3.168c-1.152,0-1.824,1.128-1.68,2.016
				C129.464,24.304,129.968,25.696,131.552,25.696z"/>
		</g>
		<g>
			<path d="M359.904,19.864c2.664,0.024,5.184,1.032,5.376,3.264c0.144,1.632-2.016,3.12-4.68,3.12
				c-2.688-0.024-5.185-1.008-5.4-3.24C355.056,21.352,357.24,19.864,359.904,19.864z M360.551,25.696
				c1.152,0,1.896-1.104,1.776-1.992c-0.264-1.752-0.864-3.168-2.448-3.168c-1.151,0-1.823,1.128-1.68,2.016
				C358.463,24.304,358.967,25.696,360.551,25.696z"/>
		</g>
		<g>
			<path d="M249.44,26.696c0.456-1.248,1.488-2.256,2.256-2.64c0.768-0.36,1.752-0.552,2.88-0.456
				c0.576,0.048,1.584,0.216,2.16,0.816V5.192h0.456v20.496c0,0.096-0.024,0.168-0.024,0.24c-0.048,0.432-0.168,0.792-0.264,1.032
				c-0.456,1.248-1.44,2.088-2.184,2.52s-1.872,0.744-3.24,0.6c-0.528-0.072-1.68-0.168-2.16-1.032
				C248.936,28.4,249.271,27.176,249.44,26.696z M252.32,28.712c0.552-0.288,0.96-0.528,1.464-0.792
				c0.48-0.288,0.912-0.552,1.44-0.888c0.72-0.456,1.656-1.248,1.176-2.064c-0.48-0.816-1.656-0.408-2.4-0.048
				c-0.576,0.288-1.032,0.528-1.512,0.816c-0.48,0.264-0.912,0.504-1.416,0.84c-0.72,0.456-1.656,1.272-1.152,2.088
				C250.375,29.48,251.552,29.072,252.32,28.712z"/>
		</g>
		<g>
			<path d="M287.096,19.912c0.984,0,1.776,0.36,2.232,0.912V1.6h0.456V22c0,0.336-0.048,0.672-0.168,1.056
				c-0.648,1.704-2.784,3.072-4.8,3.048c-2.016-0.024-3.144-1.44-2.52-3.144S285.08,19.888,287.096,19.912z"/>
		</g>
		<g>
			<path d="M311.096,19.912c0.983,0,1.775,0.36,2.231,0.912V1.6h0.456V22c0,0.336-0.048,0.672-0.168,1.056
				c-0.648,1.704-2.784,3.072-4.8,3.048c-2.017-0.024-3.145-1.44-2.521-3.144S309.08,19.888,311.096,19.912z"/>
		</g>
		<g>
			<path d="M223.317,30.757c4.459,2.167,8.922,3.25,13.391,3.25c1.755,0,3.502-0.156,5.239-0.467
				c1.393-0.253,2.731-0.601,4.013-1.043c0.826-0.282,2.206-0.862,4.138-1.739v1.406c-2.332,1.368-4.673,2.38-7.023,3.035
				c-2.025,0.561-4.143,0.84-6.354,0.84c-2.508,0-4.933-0.375-7.274-1.124c-2.34-0.75-4.384-1.667-6.131-2.751V30.757z"/>
		</g>
		<g>
			<path d="M314.387,28.788c7.295,2.167,14.596,3.25,21.906,3.25c2.872,0,5.729-0.155,8.571-0.468
				c2.279-0.253,4.467-0.601,6.564-1.043c1.353-0.282,3.609-0.862,6.771-1.739v1.375c-3.814,1.368-7.645,2.38-11.489,3.034
				c-3.313,0.561-6.777,0.841-10.395,0.841c-4.104,0-8.069-0.374-11.899-1.124c-3.829-0.75-7.172-1.667-10.029-2.751V28.788z"/>
		</g>
	</g>
</svg>
