<?xml version="1.0" encoding="utf-8"?>
<!-- Generator: Adobe Illustrator 10.0, SVG Export Plug-In . SVG Version: 3.0.0 Build 76)  -->
<!DOCTYPE svg PUBLIC "-//W3C//DTD SVG 1.0//EN"    "http://www.w3.org/TR/2001/REC-SVG-20010904/DTD/svg10.dtd" [
	<!ENTITY ns_flows "http://ns.adobe.com/Flows/1.0/">
	<!ENTITY ns_extend "http://ns.adobe.com/Extensibility/1.0/">
	<!ENTITY ns_ai "http://ns.adobe.com/AdobeIllustrator/10.0/">
	<!ENTITY ns_svg "http://www.w3.org/2000/svg">
	<!ENTITY ns_xlink "http://www.w3.org/1999/xlink">
]>
<svg  xmlns:x="&ns_extend;" xmlns:i="&ns_ai;" xmlns:graph="&ns_graphs;"
	 xmlns="&ns_svg;" xmlns:xlink="&ns_xlink;" xmlns:a="http://ns.adobe.com/AdobeSVGViewerExtensions/3.0/" width="257" height="50"
	 viewBox="-0.32 -0.068 257 50" overflow="visible" enable-background="new -0.32 -0.068 257 50" xml:space="preserve">
	<g id="Layer_1_2_">
		<g>
			<path fill="none" stroke="#000000" d="M0.069,11.736h256.657"/>
			<path fill="none" stroke="#000000" d="M0.069,25.848h256.657"/>
			<path fill="none" stroke="#000000" d="M0.196,32.971h256.657"/>
			<path fill="none" stroke="#000000" d="M0,40.354h256.656"/>
			<path fill="none" stroke="#000000" d="M0,18.99h256.656"/>
		</g>
		<g>
			<path d="M33.664,39.571c-1.896,0-4.44-0.864-4.44-3.096c0-1.536,1.128-2.544,1.776-2.808c-1.2-0.672-1.536-1.776-1.536-2.76
				c0-2.28,2.016-3.192,4.2-3.216c3.192,0,4.08,1.392,4.128,2.976c0.024,0.888-0.432,1.728-1.152,2.328
				c0.864,0.432,1.584,1.296,1.584,2.568C38.224,38.011,35.728,39.571,33.664,39.571z M31.72,34.123
				c-0.792,0.48-1.272,0.912-1.248,1.92c0.024,1.608,0.72,2.76,2.928,2.76c0.72,0,2.376-0.792,2.376-1.944
				C35.776,34.963,32.704,34.291,31.72,34.123z M33.688,28.291c-1.176,0-2.448,0.672-2.256,1.68c0.192,1.008,3.384,2.16,4.392,2.496
				c0.408-0.432,0.84-1.152,0.792-1.8C36.52,29.443,35.872,28.291,33.688,28.291z"/>
		</g>
		<g>
			<path d="M33.616,24.691c-0.672,0-2.424-0.624-3.168-1.656c-0.576-0.792-1.272-2.088-1.296-3.84
				c-0.048-2.136,0.96-4.152,1.704-4.896c1.008-0.984,1.824-1.416,3.504-1.416c1.296,0,3.336,0.816,3.36,2.376
				c0.024,0.696-0.384,1.728-1.392,1.728c-1.464,0-1.944-1.344-1.776-1.848c0.264-0.84,0.504-0.408,0.528-1.128
				c0.024-0.216-0.408-0.576-0.888-0.576c-0.792,0-1.488,0.432-1.752,2.04c-0.12,0.648-0.432,2.064-0.36,3.216
				c1.128-0.792,1.896-0.888,3.24-0.888c1.656,0,2.88,1.584,2.88,3C38.176,23.347,35.92,24.691,33.616,24.691z M33.688,24.115
				c1.296,0,1.68-2.136,1.632-3.192c-0.024-0.576-0.408-2.16-1.68-1.992c-1.416,0.168-1.392,2.184-1.392,2.736
				C32.248,22.243,32.632,24.115,33.688,24.115z"/>
		</g>
		<g>
			<path d="M10.152,39.259c-4.944-2.352-5.736-5.376-5.952-8.472c-0.24-3.36,1.896-6.768,3.888-8.664
				c1.152-1.08,2.4-2.136,3.888-3.264c-0.048-0.84-0.24-1.176-0.336-2.376c-0.024-0.504-0.336-2.856,0.168-5.568
				c0.312-1.608,2.328-5.4,3.72-5.424c1.08-0.024,2.736,4.296,2.784,6.456c0.072,3.336-0.72,4.848-1.704,6.576
				c-0.504,0.864-1.032,1.464-1.584,2.136c-0.576,0.696-1.224,1.104-1.824,1.632c0,0,0.768,4.344,0.792,4.656
				c1.536-0.192,3.408,0.36,4.08,0.84c1.704,1.272,2.352,3.024,2.472,4.728c0.216,2.712-1.272,5.568-4.56,6.936
				c0,0,0.504,3.456,0.624,4.176c0.264,1.896,0.216,3.096-0.192,3.864c-0.696,1.296-1.824,2.496-4.008,2.64
				c-1.68,0.096-4.992-0.744-5.16-3.384c-0.096-1.56,0.6-3.24,2.496-3.36c1.152-0.096,2.52,0.864,2.616,2.232
				c0.096,1.176-0.672,2.4-2.664,2.952c0.312,0.432,1.248,0.936,2.592,0.936c1.392,0,2.832-0.936,3.528-2.184
				c0.432-0.816,0.384-2.28,0.216-3.624c-0.072-0.456-0.648-4.08-0.648-4.08C13.608,39.907,11.16,39.739,10.152,39.259z
				 M10.632,33.571c0.048,1.152,1.008,2.496,1.896,2.952c-0.12,0.072-0.24,0.264-0.24,0.264c-0.984-0.48-1.824-1.272-2.04-1.56
				c-0.696-0.936-0.984-1.464-1.08-2.88c-0.096-1.32,0.624-3.096,2.232-4.344c0.84-0.624,1.248-0.768,1.968-0.936l-0.72-4.344
				c-0.744,0.432-3.816,2.904-5.112,4.92c-1.152,1.8-1.848,3.24-1.704,5.016c0.288,4.008,4.68,7.296,9.432,6.168
				c0,0-1.416-8.52-1.392-8.52C11.256,30.403,10.56,32.419,10.632,33.571z M12.576,18.354c2.088-1.632,4.92-4.704,4.752-7.08
				c-0.048-0.744-0.36-2.088-1.44-2.064C13.416,9.235,12.024,14.395,12.576,18.354z M15.84,38.635
				c2.76-0.936,2.88-3.312,2.784-4.728c-0.096-1.176-0.624-3.816-4.128-3.648L15.84,38.635z"/>
		</g>
		<g>
			<path d="M53.763,33.403c0.984,0,1.776,0.36,2.232,0.912V15.091h0.456v20.4c0,0.336-0.048,0.672-0.168,1.056
				c-0.648,1.704-2.784,3.072-4.8,3.048c-2.016-0.024-3.144-1.44-2.52-3.144S51.747,33.379,53.763,33.403z"/>
		</g>
		<g>
			<path d="M68.576,33.764c0.984,0,1.776,0.36,2.232,0.912V15.452h0.456v20.4c0,0.336-0.048,0.672-0.168,1.056
				c-0.648,1.704-2.784,3.072-4.8,3.048c-2.016-0.024-3.144-1.44-2.52-3.144S66.56,33.74,68.576,33.764z"/>
		</g>
		<g>
			<path d="M83.763,33.403c0.984,0,1.776,0.36,2.232,0.912V15.091h0.456v20.4c0,0.336-0.048,0.672-0.168,1.056
				c-0.648,1.704-2.784,3.072-4.8,3.048c-2.016-0.024-3.144-1.44-2.52-3.144S81.747,33.379,83.763,33.403z"/>
		</g>
		<path fill="none" stroke="#0A0A0A" d="M150.38,10.247v29.746"/>
		<g>
			<path d="M103.243,33.764c0.984,0,1.776,0.36,2.232,0.912V15.452h0.456v20.4c0,0.336-0.048,0.672-0.168,1.056
				c-0.648,1.704-2.784,3.072-4.8,3.048c-2.016-0.024-3.144-1.44-2.52-3.144S101.227,33.74,103.243,33.764z"/>
		</g>
		<g>
			<path d="M131.624,33.74c1.008,0.024,1.776,0.36,2.232,0.912V15.308h0.456c0,1.176,0.552,2.568,1.248,3.552
				c0.792,1.08,1.752,2.352,2.688,3.888c0.792,1.344,1.44,3.456,1.56,4.416c0.144,0.984,0.216,1.968,0.192,2.928
				c-0.024,1.44-0.24,2.808-0.72,4.08l-0.288-0.144c0.432-1.08,0.648-2.664,0.648-4.032c0-1.128-0.192-2.64-0.6-3.792
				c-0.72-2.136-1.92-3.384-2.616-3.864c-1.08-0.696-2.112-0.744-2.112-0.744v14.16c0.024,0.36-0.024,0.744-0.168,1.128
				c-0.624,1.704-2.784,3.072-4.8,3.048s-3.144-1.416-2.496-3.144C127.472,35.084,129.608,33.716,131.624,33.74z"/>
		</g>
		<path fill="none" stroke="#0A0A0A" stroke-width="2" d="M55.68,14.932h31"/>
		<g>
			<path d="M209.763,33.403c0.984,0,1.776,0.36,2.232,0.912V15.091h0.456v20.4c0,0.336-0.048,0.672-0.168,1.056
				c-0.648,1.704-2.784,3.072-4.8,3.048c-2.016-0.024-3.144-1.44-2.52-3.144S207.747,33.379,209.763,33.403z"/>
		</g>
		<g>
			<path d="M224.576,33.764c0.984,0,1.776,0.36,2.232,0.912V15.452h0.456v20.4c0,0.336-0.048,0.672-0.168,1.056
				c-0.648,1.704-2.784,3.072-4.8,3.048c-2.016-0.024-3.144-1.44-2.52-3.144S222.56,33.74,224.576,33.764z"/>
		</g>
		<g>
			<path d="M239.763,33.403c0.984,0,1.776,0.36,2.232,0.912V15.091h0.456v20.4c0,0.336-0.048,0.672-0.168,1.056
				c-0.648,1.704-2.784,3.072-4.8,3.048c-2.016-0.024-3.144-1.44-2.52-3.144S237.747,33.379,239.763,33.403z"/>
		</g>
		<path fill="none" stroke="#0A0A0A" stroke-width="2" d="M211.68,14.932h31"/>
		<g>
			<path d="M168.763,33.403c0.984,0,1.776,0.36,2.232,0.912V15.091h0.456v20.4c0,0.336-0.048,0.672-0.168,1.056
				c-0.648,1.704-2.784,3.072-4.8,3.048c-2.016-0.024-3.144-1.44-2.52-3.144S166.747,33.379,168.763,33.403z"/>
		</g>
		<g>
			<path d="M183.576,33.764c0.984,0,1.776,0.36,2.232,0.912V15.452h0.456v20.4c0,0.336-0.048,0.672-0.168,1.056
				c-0.648,1.704-2.784,3.072-4.8,3.048c-2.016-0.024-3.144-1.44-2.52-3.144S181.56,33.74,183.576,33.764z"/>
		</g>
		<path fill="none" stroke="#0A0A0A" stroke-width="2" d="M170.68,14.932h16"/>
		<g>
			<path d="M176.196,7.932V6.828l0.996-0.9c1.716-1.536,2.544-2.412,2.556-3.324c0-0.636-0.372-1.14-1.272-1.14
				c-0.672,0-1.26,0.336-1.668,0.636l-0.516-1.296C176.868,0.36,177.792,0,178.836,0c1.776,0,2.736,1.032,2.736,2.448
				c0,1.308-0.936,2.352-2.076,3.36l-0.72,0.6v0.024h2.952v1.5H176.196z"/>
		</g>
		<path fill="none" stroke="#0A0A0A" d="M256.554,11.286v29.746"/>
	</g>
</svg>
