<?xml version="1.0" encoding="utf-8"?>
<!-- Generator: Adobe Illustrator 10.0, SVG Export Plug-In . SVG Version: 3.0.0 Build 76)  -->
<!DOCTYPE svg PUBLIC "-//W3C//DTD SVG 1.0//EN"    "http://www.w3.org/TR/2001/REC-SVG-20010904/DTD/svg10.dtd" [
	<!ENTITY ns_flows "http://ns.adobe.com/Flows/1.0/">
	<!ENTITY ns_extend "http://ns.adobe.com/Extensibility/1.0/">
	<!ENTITY ns_ai "http://ns.adobe.com/AdobeIllustrator/10.0/">
	<!ENTITY ns_svg "http://www.w3.org/2000/svg">
	<!ENTITY ns_xlink "http://www.w3.org/1999/xlink">
]>
<svg  xmlns:x="&ns_extend;" xmlns:i="&ns_ai;" xmlns:graph="&ns_graphs;"
	 xmlns="&ns_svg;" xmlns:xlink="&ns_xlink;" xmlns:a="http://ns.adobe.com/AdobeSVGViewerExtensions/3.0/" width="400" height="72"
	 viewBox="-0.04 -0.143 400 72" overflow="visible" enable-background="new -0.04 -0.143 400 72" xml:space="preserve">
	<g id="Layer_1_2_">
		<g>
			<path d="M151.348,22.25c1.167,0,2.105,0.438,2.646,1.108V0h0.541v24.787c0,0.408-0.057,0.816-0.199,1.283
				c-0.768,2.07-3.301,3.732-5.69,3.704c-2.39-0.029-3.728-1.75-2.988-3.82S148.958,22.221,151.348,22.25z"/>
		</g>
		<g>
			<path d="M5.577,22.007c3.158,0.029,6.146,1.254,6.374,3.966c0.171,1.983-2.39,3.791-5.548,3.791
				C3.215,29.735,0.256,28.54,0,25.828C-0.171,23.815,2.418,22.007,5.577,22.007z M6.345,29.094c1.366,0,2.248-1.341,2.105-2.42
				c-0.313-2.129-1.024-3.85-2.902-3.85c-1.366,0-2.163,1.371-1.992,2.45C3.87,27.402,4.467,29.094,6.345,29.094z"/>
		</g>
		<g>
			<path d="M150.61,62.583c1.195,0.029,2.105,0.437,2.646,1.108V40.187h0.541c0,1.429,0.655,3.12,1.479,4.315
				c0.939,1.313,2.077,2.858,3.187,4.725c0.939,1.633,1.707,4.199,1.85,5.366c0.17,1.195,0.256,2.391,0.228,3.558
				c-0.029,1.75-0.285,3.412-0.854,4.958l-0.342-0.175c0.512-1.312,0.769-3.237,0.769-4.899c0-1.371-0.228-3.208-0.711-4.607
				c-0.854-2.596-2.276-4.112-3.102-4.695c-1.28-0.846-2.504-0.904-2.504-0.904v17.205c0.029,0.438-0.028,0.904-0.199,1.371
				c-0.74,2.071-3.3,3.733-5.69,3.704s-3.727-1.721-2.959-3.82C145.688,64.216,148.22,62.554,150.61,62.583z"/>
		</g>
		<g>
			<path d="M2.349,65.351c0.541-1.516,1.764-2.741,2.674-3.208c0.911-0.438,2.077-0.671,3.415-0.554
				c0.683,0.058,1.878,0.262,2.561,0.991V39.222h0.541v24.904c0,0.117-0.028,0.204-0.028,0.292
				c-0.057,0.525-0.199,0.962-0.313,1.254c-0.541,1.517-1.707,2.537-2.589,3.062c-0.882,0.525-2.219,0.904-3.841,0.729
				c-0.626-0.087-1.992-0.204-2.561-1.254C1.751,67.421,2.149,65.934,2.349,65.351z M5.763,67.8c0.655-0.35,1.138-0.642,1.736-0.962
				c0.569-0.35,1.081-0.671,1.707-1.079c0.854-0.554,1.963-1.516,1.394-2.508c-0.569-0.992-1.963-0.496-2.845-0.058
				c-0.683,0.35-1.223,0.642-1.792,0.991c-0.569,0.321-1.081,0.612-1.679,1.021C3.43,65.759,2.32,66.75,2.917,67.742
				C3.458,68.733,4.853,68.238,5.763,67.8z"/>
		</g>
		<g>
			<path d="M288.152,28.1l-0.313-0.146c0.483-1.283,0.854-2.712,0.796-3.85c-0.057-1.341-0.427-2.653-0.854-3.878
				c-0.597-1.808-1.707-3.266-3.044-4.199c-1.395-0.991-3.585-1.779-3.585-1.779c0,14.348,0,12.073,0,12.073
				c0,0.379-0.057,0.758-0.199,1.167c-0.769,2.071-3.301,3.733-5.691,3.704c-2.39-0.029-3.727-1.75-2.987-3.82
				c0.74-2.07,3.3-3.732,5.691-3.703c1.194,0,2.105,0.437,2.646,1.108v-14.26V2.642h0.541c0,2.07,0.91,2.391,1.878,3.208
				c0.797,0.612,2.504,2.1,3.926,4.083c0.968,1.313,1.509,1.983,1.878,3.5c0.229,1.021,0.229,2.158,0,3.033
				c-0.397,1.517-0.54,1.691-0.882,2.246c0.256,0.642,0.484,1.195,0.626,1.837c0.228,1.05,0.398,1.662,0.484,3.179
				C289.177,25.679,288.438,27.487,288.152,28.1z M288.267,14.102c-0.854-2.945-2.959-4.17-4.069-4.782
				c-1.024-0.583-2.247-0.788-2.931-0.816c0,0.146,0,0.292,0.028,0.408c0.114,1.371,0.626,1.691,1.622,2.799
				c1.195,1.371,2.476,2.683,3.898,4.666c0.313,0.466,0.768,1.371,0.967,1.808c0.37-0.7,0.598-1.546,0.626-2.129
				C288.494,15.094,288.636,15.356,288.267,14.102z"/>
		</g>
		<g>
			<g>
				<path d="M287.843,66.998l-0.313-0.146c0.483-1.283,0.854-2.712,0.797-3.85c-0.057-1.341-0.427-2.653-0.854-3.878
					c-0.598-1.808-1.707-3.266-3.045-4.199c-1.394-0.991-3.585-1.779-3.585-1.779c0,14.348,0,12.073,0,12.073
					c0,0.379-0.057,0.758-0.199,1.167c-0.768,2.071-3.3,3.733-5.69,3.704c-2.39-0.029-3.727-1.75-2.987-3.82
					c0.74-2.07,3.3-3.732,5.69-3.703c1.195,0,2.105,0.437,2.646,1.108v-14.26v-7.874h0.54c0,2.07,0.911,2.391,1.878,3.208
					c0.797,0.612,2.504,2.1,3.927,4.083c0.968,1.313,1.508,1.983,1.878,3.5c0.228,1.021,0.228,2.158,0,3.033
					c-0.398,1.517-0.541,1.691-0.882,2.246c0.256,0.642,0.483,1.195,0.626,1.837c0.228,1.05,0.398,1.662,0.483,3.179
					C288.867,64.578,288.127,66.386,287.843,66.998z M287.956,53c-0.854-2.945-2.959-4.17-4.068-4.782
					c-1.024-0.583-2.248-0.788-2.931-0.816c0,0.146,0,0.292,0.028,0.408c0.114,1.371,0.626,1.691,1.622,2.799
					c1.194,1.371,2.476,2.683,3.897,4.666c0.313,0.466,0.769,1.371,0.968,1.808c0.37-0.7,0.598-1.546,0.626-2.129
					C288.184,53.992,288.326,54.255,287.956,53z"/>
			</g>
			<path fill="none" stroke="#000000" stroke-width="0.5" d="M281.006,55.626c0.597,1.945,3.107,3.122,4.313,5.089
				c1.588,2.596,1.927,5.87,1.221,8.075"/>
			<path d="M281.006,58.462c1.92,0.816,4.026,2.002,5.138,3.645"/>
			<path d="M281.797,58.057c1.33,0.499,2.623,1.449,3.161,2.43"/>
			<path d="M281.797,58.057c0.619,0.635,1.322,0.995,1.646,1.956c0.664-0.106,0.795,0.24,1.119,0.474"/>
			<path fill="none" stroke="#000000" stroke-width="0.5" d="M281.203,57.854c0.184,0.088,0.616-0.012,0.838,0.053
				c0.298,0.96,0.846,0.928,1.533,1.467"/>
			<path fill="none" stroke="#000000" stroke-width="0.5" d="M280.611,56.335c1.318,0.183,1.841,1.464,2.667,2.43"/>
			<path fill="none" stroke="#000000" stroke-width="0.5" d="M281.203,57.55c0.578,0.267,1.166,0.466,1.69,0.85
				c-0.7-0.126-1.206-0.229-1.883-0.561c0.753,0.316,0.763,0.443,1.349,0.88c-0.605,0.048-0.742-0.354-1.156-0.562"/>
			<path fill="none" stroke="#000000" stroke-width="0.5" d="M280.809,56.842c0.136,0.201,0.498,0.105,0.52,0.621
				c0,0-0.496-0.049-0.495-0.049c0.138-0.313,0.355-0.539,0.577-0.905c-0.065,0.262-0.019,0.639-0.038,0.909
				c-0.526-0.36-0.236,0.083-0.409-0.358c0.063,0.427,0.066,0.729,0.252,1.138c-0.021-0.481-0.122-0.691-0.219-1.082
				c0.022,0.362-0.053,0.569-0.109,0.905c0.287,0.077,0.52,0.289,0.688,0.405c-0.586-0.488-0.66-0.01-0.963,0.036"/>
			<path fill="none" stroke="#000000" stroke-width="0.5" d="M282.982,59.069c0.777,0.221,1.477,0.662,1.777,1.417"/>
		</g>
		<g>
			<path d="M35.794,29.464l-2.052-8.088h1.104l0.96,4.092c0.24,1.02,0.456,2.016,0.6,2.796h0.024
				c0.132-0.804,0.384-1.764,0.66-2.808l1.08-4.08h1.092l0.984,4.104c0.228,0.972,0.444,1.92,0.564,2.772h0.024
				c0.168-0.888,0.396-1.788,0.648-2.796l1.068-4.08h1.068l-2.292,8.088h-1.092l-1.02-4.2c-0.252-1.044-0.42-1.836-0.528-2.652
				h-0.024c-0.132,0.816-0.324,1.596-0.624,2.64l-1.152,4.212H35.794z"/>
			<path d="M44.53,20.944h1.056v3.624h0.024c0.168-0.3,0.432-0.576,0.756-0.744c0.312-0.192,0.684-0.3,1.08-0.3
				c0.78,0,2.028,0.48,2.028,2.484v3.456h-1.056v-3.336c0-0.948-0.348-1.728-1.344-1.728c-0.684,0-1.212,0.48-1.416,1.056
				c-0.06,0.144-0.072,0.3-0.072,0.504v3.504H44.53V20.944z"/>
			<path d="M53.554,29.596c-1.56,0-2.784-1.152-2.784-2.988c0-1.944,1.284-3.084,2.88-3.084c1.668,0,2.796,1.212,2.796,2.976
				c0,2.16-1.5,3.096-2.88,3.096H53.554z M53.59,28.804c1.008,0,1.764-0.948,1.764-2.268c0-0.984-0.492-2.22-1.74-2.22
				c-1.236,0-1.776,1.152-1.776,2.256c0,1.272,0.72,2.232,1.74,2.232H53.59z"/>
			<path d="M57.778,20.944h1.056v8.52h-1.056V20.944z"/>
			<path d="M61.186,26.74c0.024,1.428,0.924,2.016,1.98,2.016c0.756,0,1.224-0.132,1.608-0.288l0.192,0.744
				c-0.372,0.168-1.02,0.372-1.944,0.372c-1.776,0-2.856-1.188-2.856-2.928c0-1.764,1.044-3.144,2.736-3.144
				c1.896,0,2.388,1.668,2.388,2.736c0,0.216-0.012,0.384-0.036,0.504L61.186,26.74z M64.27,25.984
				c0.012-0.66-0.276-1.716-1.452-1.716c-1.08,0-1.536,0.984-1.62,1.716H64.27z"/>
			<path d="M69.142,25.229c0-0.612-0.012-1.092-0.048-1.572h0.936l0.06,0.948h0.024c0.288-0.54,0.96-1.08,1.92-1.08
				c0.804,0,2.052,0.48,2.052,2.472v3.468H73.03v-3.348c0-0.936-0.348-1.728-1.344-1.728c-0.684,0-1.224,0.492-1.416,1.08
				c-0.048,0.132-0.072,0.324-0.072,0.492v3.504h-1.056V25.229z"/>
			<path d="M78.166,29.596c-1.56,0-2.784-1.152-2.784-2.988c0-1.944,1.284-3.084,2.88-3.084c1.668,0,2.796,1.212,2.796,2.976
				c0,2.16-1.5,3.096-2.88,3.096H78.166z M78.202,28.804c1.008,0,1.764-0.948,1.764-2.268c0-0.984-0.492-2.22-1.74-2.22
				c-1.236,0-1.776,1.152-1.776,2.256c0,1.272,0.72,2.232,1.74,2.232H78.202z"/>
			<path d="M83.662,22.264v1.392h1.512v0.804h-1.512v3.132c0,0.72,0.204,1.128,0.792,1.128c0.288,0,0.456-0.024,0.612-0.072
				l0.048,0.804c-0.204,0.072-0.528,0.144-0.936,0.144c-0.492,0-0.888-0.168-1.14-0.444c-0.288-0.324-0.408-0.84-0.408-1.524V24.46
				h-0.9v-0.804h0.9v-1.068L83.662,22.264z"/>
			<path d="M86.89,26.74c0.024,1.428,0.924,2.016,1.98,2.016c0.756,0,1.224-0.132,1.608-0.288l0.192,0.744
				c-0.372,0.168-1.02,0.372-1.944,0.372c-1.776,0-2.856-1.188-2.856-2.928c0-1.764,1.044-3.144,2.736-3.144
				c1.896,0,2.388,1.668,2.388,2.736c0,0.216-0.012,0.384-0.036,0.504L86.89,26.74z M89.974,25.984
				c0.012-0.66-0.276-1.716-1.452-1.716c-1.08,0-1.536,0.984-1.62,1.716H89.974z"/>
		</g>
		<g>
			<path d="M35.518,60.875v3.384h3.912v-3.384h1.056v8.088H39.43V65.17h-3.912v3.792h-1.056v-8.088H35.518z"/>
			<path d="M46.354,67.57c0,0.504,0.024,0.996,0.084,1.392h-0.948l-0.096-0.732h-0.036c-0.312,0.456-0.948,0.864-1.776,0.864
				c-1.176,0-1.776-0.828-1.776-1.668c0-1.404,1.248-2.172,3.492-2.16v-0.12c0-0.48-0.132-1.356-1.32-1.344
				c-0.552,0-1.116,0.156-1.524,0.432l-0.24-0.708c0.48-0.3,1.188-0.504,1.92-0.504c1.788,0,2.22,1.212,2.22,2.376V67.57z
				 M45.321,65.999c-1.152-0.024-2.46,0.18-2.46,1.308c0,0.696,0.456,1.008,0.984,1.008c0.768,0,1.26-0.48,1.428-0.972
				c0.036-0.108,0.048-0.228,0.048-0.336V65.999z"/>
			<path d="M48.045,60.442h1.056v8.52h-1.056V60.442z"/>
			<path d="M50.949,68.962v-5.004h-0.804v-0.804h0.804v-0.276c0-0.816,0.192-1.56,0.684-2.028c0.396-0.384,0.924-0.54,1.404-0.54
				c0.384,0,0.696,0.084,0.9,0.168l-0.132,0.816c-0.168-0.072-0.372-0.132-0.684-0.132c-0.888,0-1.128,0.792-1.128,1.68v0.312h1.404
				v0.804h-1.392v5.004H50.949z"/>
			<path d="M56.937,68.962v-8.088h1.152l2.58,4.092c0.588,0.948,1.068,1.788,1.44,2.628l0.036-0.012
				c-0.096-1.08-0.12-2.064-0.12-3.312v-3.396h0.984v8.088h-1.056l-2.568-4.104c-0.564-0.9-1.104-1.824-1.5-2.7l-0.036,0.012
				c0.06,1.02,0.072,1.992,0.072,3.336v3.456H56.937z"/>
			<path d="M67.149,69.094c-1.56,0-2.784-1.152-2.784-2.988c0-1.944,1.284-3.084,2.88-3.084c1.668,0,2.796,1.212,2.796,2.976
				c0,2.16-1.5,3.096-2.88,3.096H67.149z M67.185,68.302c1.008,0,1.764-0.948,1.764-2.268c0-0.984-0.492-2.22-1.74-2.22
				c-1.236,0-1.776,1.152-1.776,2.256c0,1.272,0.72,2.232,1.74,2.232H67.185z"/>
			<path d="M72.645,61.762v1.392h1.512v0.804h-1.512v3.132c0,0.72,0.204,1.128,0.792,1.128c0.288,0,0.456-0.024,0.612-0.072
				l0.048,0.804c-0.204,0.072-0.528,0.144-0.936,0.144c-0.492,0-0.888-0.168-1.14-0.444c-0.288-0.324-0.408-0.84-0.408-1.524v-3.168
				h-0.9v-0.804h0.9v-1.068L72.645,61.762z"/>
			<path d="M75.873,66.238c0.024,1.428,0.924,2.016,1.98,2.016c0.756,0,1.224-0.132,1.608-0.288l0.192,0.744
				c-0.372,0.168-1.02,0.372-1.944,0.372c-1.776,0-2.856-1.188-2.856-2.928c0-1.764,1.044-3.144,2.736-3.144
				c1.896,0,2.388,1.668,2.388,2.736c0,0.216-0.012,0.384-0.036,0.504L75.873,66.238z M78.957,65.482
				c0.012-0.66-0.276-1.716-1.452-1.716c-1.08,0-1.536,0.984-1.62,1.716H78.957z"/>
		</g>
		<g>
			<path d="M171.64,30.652c-1.092-0.288-2.16-0.612-3.096-0.936c-0.18-0.06-0.336-0.12-0.492-0.12
				c-1.932-0.072-3.564-1.488-3.564-4.092c0-2.592,1.572-4.26,3.756-4.26c2.208,0,3.636,1.704,3.636,4.092
				c0,2.076-0.96,3.396-2.304,3.876v0.048c0.804,0.204,1.68,0.396,2.364,0.516L171.64,30.652z M168.184,28.744
				c1.656,0,2.592-1.524,2.592-3.36c0-1.62-0.84-3.288-2.556-3.288c-1.764,0-2.628,1.632-2.628,3.384
				c0,1.716,0.936,3.264,2.58,3.264H168.184z"/>
			<path d="M178.072,27.88c0,0.6,0.012,1.128,0.048,1.584h-0.936l-0.06-0.948H177.1c-0.264,0.468-0.888,1.08-1.92,1.08
				c-0.912,0-2.004-0.516-2.004-2.544v-3.396h1.056v3.204c0,1.104,0.348,1.86,1.296,1.86c0.708,0,1.2-0.492,1.392-0.972
				c0.06-0.144,0.096-0.336,0.096-0.54v-3.552h1.056V27.88z"/>
			<path d="M183.916,28.072c0,0.504,0.024,0.996,0.084,1.392h-0.948l-0.096-0.732h-0.036c-0.312,0.456-0.948,0.864-1.776,0.864
				c-1.176,0-1.776-0.828-1.776-1.668c0-1.404,1.248-2.172,3.492-2.16v-0.12c0-0.48-0.132-1.356-1.32-1.344
				c-0.552,0-1.116,0.156-1.524,0.432l-0.24-0.708c0.48-0.3,1.188-0.504,1.92-0.504c1.788,0,2.22,1.212,2.22,2.376V28.072z
				 M182.883,26.5c-1.152-0.024-2.46,0.18-2.46,1.308c0,0.696,0.456,1.008,0.984,1.008c0.768,0,1.26-0.48,1.428-0.972
				c0.036-0.108,0.048-0.228,0.048-0.336V26.5z"/>
			<path d="M185.619,25.468c0-0.684-0.012-1.272-0.048-1.812h0.924l0.048,1.14h0.036c0.264-0.78,0.912-1.272,1.62-1.272
				c0.108,0,0.192,0.012,0.288,0.036v0.984c-0.12-0.012-0.228-0.024-0.372-0.024c-0.744,0-1.272,0.564-1.416,1.344
				c-0.024,0.156-0.036,0.324-0.036,0.504v3.096h-1.056L185.619,25.468z"/>
			<path d="M191.091,22.264v1.392h1.512v0.804h-1.512v3.132c0,0.72,0.204,1.128,0.792,1.128c0.288,0,0.456-0.024,0.612-0.072
				l0.048,0.804c-0.204,0.072-0.528,0.144-0.936,0.144c-0.492,0-0.888-0.168-1.14-0.444c-0.288-0.324-0.408-0.84-0.408-1.524V24.46
				h-0.9v-0.804h0.9v-1.068L191.091,22.264z"/>
			<path d="M194.319,26.74c0.024,1.428,0.924,2.016,1.98,2.016c0.756,0,1.224-0.132,1.608-0.288l0.192,0.744
				c-0.372,0.168-1.02,0.372-1.944,0.372c-1.776,0-2.856-1.188-2.856-2.928c0-1.764,1.044-3.144,2.736-3.144
				c1.896,0,2.388,1.668,2.388,2.736c0,0.216-0.012,0.384-0.036,0.504L194.319,26.74z M197.403,25.984
				c0.012-0.66-0.276-1.716-1.452-1.716c-1.08,0-1.536,0.984-1.62,1.716H197.403z"/>
			<path d="M199.743,25.468c0-0.684-0.012-1.272-0.048-1.812h0.924l0.048,1.14h0.036c0.264-0.78,0.912-1.272,1.62-1.272
				c0.108,0,0.192,0.012,0.288,0.036v0.984c-0.12-0.012-0.228-0.024-0.372-0.024c-0.744,0-1.272,0.564-1.416,1.344
				c-0.024,0.156-0.036,0.324-0.036,0.504v3.096h-1.056L199.743,25.468z"/>
			<path d="M206.199,25.229c0-0.612-0.012-1.092-0.048-1.572h0.936l0.06,0.948h0.024c0.288-0.54,0.96-1.08,1.92-1.08
				c0.804,0,2.052,0.48,2.052,2.472v3.468h-1.056v-3.348c0-0.936-0.348-1.728-1.344-1.728c-0.684,0-1.224,0.492-1.416,1.08
				c-0.048,0.132-0.072,0.324-0.072,0.492v3.504h-1.056V25.229z"/>
			<path d="M215.223,29.596c-1.56,0-2.784-1.152-2.784-2.988c0-1.944,1.284-3.084,2.88-3.084c1.668,0,2.796,1.212,2.796,2.976
				c0,2.16-1.5,3.096-2.88,3.096H215.223z M215.259,28.804c1.008,0,1.764-0.948,1.764-2.268c0-0.984-0.492-2.22-1.74-2.22
				c-1.236,0-1.776,1.152-1.776,2.256c0,1.272,0.72,2.232,1.74,2.232H215.259z"/>
			<path d="M220.719,22.264v1.392h1.512v0.804h-1.512v3.132c0,0.72,0.204,1.128,0.792,1.128c0.288,0,0.456-0.024,0.612-0.072
				l0.048,0.804c-0.204,0.072-0.528,0.144-0.936,0.144c-0.492,0-0.888-0.168-1.14-0.444c-0.288-0.324-0.408-0.84-0.408-1.524V24.46
				h-0.9v-0.804h0.9v-1.068L220.719,22.264z"/>
			<path d="M223.947,26.74c0.024,1.428,0.924,2.016,1.98,2.016c0.756,0,1.224-0.132,1.608-0.288l0.192,0.744
				c-0.372,0.168-1.02,0.372-1.944,0.372c-1.776,0-2.856-1.188-2.856-2.928c0-1.764,1.044-3.144,2.736-3.144
				c1.896,0,2.388,1.668,2.388,2.736c0,0.216-0.012,0.384-0.036,0.504L223.947,26.74z M227.031,25.984
				c0.012-0.66-0.276-1.716-1.452-1.716c-1.08,0-1.536,0.984-1.62,1.716H227.031z"/>
		</g>
		<g>
			<path d="M169.644,65.17h-3.132v2.916h3.504v0.876h-4.56v-8.088h4.38v0.876h-3.324v2.556h3.132V65.17z"/>
			<path d="M171.804,62.086c-0.396,0-0.66-0.312-0.66-0.684s0.276-0.672,0.684-0.672s0.672,0.3,0.672,0.672
				s-0.264,0.684-0.684,0.684H171.804z M171.3,68.962v-5.808h1.056v5.808H171.3z"/>
			<path d="M179.076,68.11c0,1.344-0.276,2.148-0.828,2.664c-0.576,0.516-1.392,0.696-2.124,0.696c-0.696,0-1.464-0.168-1.932-0.48
				l0.264-0.816c0.384,0.252,0.984,0.468,1.704,0.468c1.08,0,1.872-0.564,1.872-2.04v-0.636h-0.024
				c-0.312,0.54-0.948,0.972-1.848,0.972c-1.44,0-2.472-1.224-2.472-2.844c0-1.968,1.284-3.072,2.628-3.072
				c1.008,0,1.548,0.516,1.812,0.996h0.024l0.036-0.864h0.936c-0.036,0.408-0.048,0.876-0.048,1.584V68.11z M178.02,65.435
				c0-0.168-0.012-0.324-0.06-0.468c-0.192-0.624-0.696-1.128-1.476-1.128c-1.008,0-1.728,0.852-1.728,2.208
				c0,1.128,0.588,2.088,1.716,2.088c0.66,0,1.248-0.408,1.464-1.092c0.06-0.168,0.084-0.372,0.084-0.564V65.435z"/>
			<path d="M180.815,60.442h1.056v3.624h0.024c0.168-0.3,0.432-0.576,0.756-0.744c0.312-0.192,0.684-0.3,1.08-0.3
				c0.78,0,2.028,0.48,2.028,2.484v3.456h-1.056v-3.336c0-0.948-0.348-1.728-1.344-1.728c-0.684,0-1.212,0.48-1.416,1.056
				c-0.06,0.144-0.072,0.3-0.072,0.504v3.504h-1.056V60.442z"/>
			<path d="M188.699,61.762v1.392h1.512v0.804h-1.512v3.132c0,0.72,0.204,1.128,0.792,1.128c0.288,0,0.456-0.024,0.612-0.072
				l0.048,0.804c-0.204,0.072-0.528,0.144-0.936,0.144c-0.492,0-0.888-0.168-1.14-0.444c-0.288-0.324-0.408-0.84-0.408-1.524v-3.168
				h-0.9v-0.804h0.9v-1.068L188.699,61.762z"/>
			<path d="M191.399,60.442h1.056v3.624h0.024c0.168-0.3,0.432-0.576,0.756-0.744c0.312-0.192,0.684-0.3,1.08-0.3
				c0.78,0,2.028,0.48,2.028,2.484v3.456h-1.056v-3.336c0-0.948-0.348-1.728-1.344-1.728c-0.684,0-1.212,0.48-1.416,1.056
				c-0.06,0.144-0.072,0.3-0.072,0.504v3.504h-1.056V60.442z"/>
			<path d="M200.603,64.727c0-0.612-0.012-1.092-0.048-1.572h0.936l0.06,0.948h0.024c0.288-0.54,0.96-1.08,1.92-1.08
				c0.804,0,2.052,0.48,2.052,2.472v3.468h-1.056v-3.348c0-0.936-0.348-1.728-1.344-1.728c-0.684,0-1.224,0.492-1.416,1.08
				c-0.048,0.132-0.072,0.324-0.072,0.492v3.504h-1.056V64.727z"/>
			<path d="M209.627,69.094c-1.56,0-2.784-1.152-2.784-2.988c0-1.944,1.284-3.084,2.88-3.084c1.668,0,2.796,1.212,2.796,2.976
				c0,2.16-1.5,3.096-2.88,3.096H209.627z M209.663,68.302c1.008,0,1.764-0.948,1.764-2.268c0-0.984-0.492-2.22-1.74-2.22
				c-1.236,0-1.776,1.152-1.776,2.256c0,1.272,0.72,2.232,1.74,2.232H209.663z"/>
			<path d="M215.123,61.762v1.392h1.512v0.804h-1.512v3.132c0,0.72,0.204,1.128,0.792,1.128c0.288,0,0.456-0.024,0.612-0.072
				l0.048,0.804c-0.204,0.072-0.528,0.144-0.936,0.144c-0.492,0-0.888-0.168-1.14-0.444c-0.288-0.324-0.408-0.84-0.408-1.524v-3.168
				h-0.9v-0.804h0.9v-1.068L215.123,61.762z"/>
			<path d="M218.351,66.238c0.024,1.428,0.924,2.016,1.98,2.016c0.756,0,1.224-0.132,1.608-0.288l0.192,0.744
				c-0.372,0.168-1.02,0.372-1.944,0.372c-1.776,0-2.856-1.188-2.856-2.928c0-1.764,1.044-3.144,2.736-3.144
				c1.896,0,2.388,1.668,2.388,2.736c0,0.216-0.012,0.384-0.036,0.504L218.351,66.238z M221.435,65.482
				c0.012-0.66-0.276-1.716-1.452-1.716c-1.08,0-1.536,0.984-1.62,1.716H221.435z"/>
		</g>
		<g>
			<path d="M305.828,27.692c0.468,0.3,1.14,0.528,1.859,0.528c1.068,0,1.692-0.552,1.692-1.38c0-0.744-0.432-1.188-1.524-1.596
				c-1.319-0.48-2.136-1.176-2.136-2.304c0-1.26,1.044-2.196,2.616-2.196c0.816,0,1.428,0.192,1.776,0.396l-0.288,0.852
				c-0.252-0.156-0.792-0.384-1.524-0.384c-1.104,0-1.524,0.66-1.524,1.212c0,0.756,0.492,1.128,1.608,1.56
				c1.368,0.54,2.052,1.188,2.052,2.376c0,1.248-0.912,2.34-2.819,2.34c-0.78,0-1.633-0.24-2.064-0.528L305.828,27.692z"/>
			<path d="M312.332,22.088c-0.396,0-0.66-0.312-0.66-0.684s0.276-0.672,0.684-0.672c0.408,0,0.673,0.3,0.673,0.672
				s-0.265,0.684-0.685,0.684H312.332z M311.828,28.964v-5.808h1.056v5.808H311.828z"/>
			<path d="M315.128,23.156l0.828,1.236c0.216,0.336,0.396,0.624,0.588,0.948h0.036c0.191-0.336,0.384-0.636,0.588-0.948
				l0.804-1.236h1.152l-1.98,2.808l2.028,3h-1.2l-0.852-1.308c-0.229-0.336-0.42-0.66-0.624-1.008h-0.024
				c-0.191,0.348-0.396,0.66-0.612,1.008l-0.84,1.308h-1.164L315.92,26l-1.968-2.844H315.128z"/>
			<path d="M321.62,21.764v1.392h1.512v0.804h-1.512v3.132c0,0.72,0.203,1.128,0.792,1.128c0.287,0,0.455-0.024,0.611-0.072
				l0.048,0.804c-0.204,0.072-0.527,0.144-0.936,0.144c-0.492,0-0.888-0.168-1.14-0.444c-0.288-0.324-0.408-0.84-0.408-1.524V23.96
				h-0.9v-0.804h0.9v-1.068L321.62,21.764z"/>
			<path d="M324.848,26.24c0.024,1.428,0.924,2.016,1.979,2.016c0.757,0,1.225-0.132,1.608-0.288l0.192,0.744
				c-0.372,0.168-1.021,0.372-1.944,0.372c-1.776,0-2.856-1.188-2.856-2.928c0-1.764,1.045-3.144,2.736-3.144
				c1.896,0,2.388,1.668,2.388,2.736c0,0.216-0.012,0.384-0.035,0.504L324.848,26.24z M327.932,25.484
				c0.012-0.66-0.276-1.716-1.452-1.716c-1.08,0-1.536,0.984-1.62,1.716H327.932z"/>
			<path d="M330.859,26.24c0.024,1.428,0.924,2.016,1.98,2.016c0.756,0,1.224-0.132,1.607-0.288l0.192,0.744
				c-0.372,0.168-1.021,0.372-1.944,0.372c-1.775,0-2.855-1.188-2.855-2.928c0-1.764,1.044-3.144,2.735-3.144
				c1.896,0,2.389,1.668,2.389,2.736c0,0.216-0.013,0.384-0.036,0.504L330.859,26.24z M333.943,25.484
				c0.012-0.66-0.275-1.716-1.452-1.716c-1.08,0-1.536,0.984-1.62,1.716H333.943z"/>
			<path d="M336.271,24.729c0-0.612-0.012-1.092-0.048-1.572h0.936l0.061,0.948h0.023c0.288-0.54,0.96-1.08,1.92-1.08
				c0.805,0,2.053,0.48,2.053,2.472v3.468h-1.057v-3.348c0-0.936-0.348-1.728-1.344-1.728c-0.684,0-1.224,0.492-1.416,1.08
				c-0.048,0.132-0.072,0.324-0.072,0.492v3.504h-1.056V24.729z"/>
			<path d="M344.155,21.764v1.392h1.512v0.804h-1.512v3.132c0,0.72,0.204,1.128,0.792,1.128c0.288,0,0.456-0.024,0.612-0.072
				l0.048,0.804c-0.204,0.072-0.528,0.144-0.937,0.144c-0.491,0-0.888-0.168-1.14-0.444c-0.288-0.324-0.408-0.84-0.408-1.524V23.96
				h-0.899v-0.804h0.899v-1.068L344.155,21.764z"/>
			<path d="M346.855,20.444h1.056v3.624h0.024c0.168-0.3,0.432-0.576,0.756-0.744c0.312-0.192,0.684-0.3,1.08-0.3
				c0.78,0,2.027,0.48,2.027,2.484v3.456h-1.056v-3.336c0-0.948-0.348-1.728-1.344-1.728c-0.685,0-1.212,0.48-1.416,1.056
				c-0.061,0.144-0.072,0.3-0.072,0.504v3.504h-1.056V20.444z"/>
			<path d="M356.059,24.729c0-0.612-0.012-1.092-0.048-1.572h0.937l0.06,0.948h0.024c0.288-0.54,0.96-1.08,1.92-1.08
				c0.804,0,2.052,0.48,2.052,2.472v3.468h-1.056v-3.348c0-0.936-0.349-1.728-1.344-1.728c-0.685,0-1.225,0.492-1.416,1.08
				c-0.049,0.132-0.072,0.324-0.072,0.492v3.504h-1.057V24.729z"/>
			<path d="M365.083,29.096c-1.56,0-2.784-1.152-2.784-2.988c0-1.944,1.284-3.084,2.88-3.084c1.668,0,2.796,1.212,2.796,2.976
				c0,2.16-1.5,3.096-2.88,3.096H365.083z M365.119,28.304c1.008,0,1.764-0.948,1.764-2.268c0-0.984-0.492-2.22-1.74-2.22
				c-1.235,0-1.775,1.152-1.775,2.256c0,1.272,0.72,2.232,1.74,2.232H365.119z"/>
			<path d="M370.579,21.764v1.392h1.512v0.804h-1.512v3.132c0,0.72,0.204,1.128,0.792,1.128c0.288,0,0.456-0.024,0.612-0.072
				l0.048,0.804c-0.204,0.072-0.528,0.144-0.937,0.144c-0.492,0-0.888-0.168-1.14-0.444c-0.288-0.324-0.408-0.84-0.408-1.524V23.96
				h-0.9v-0.804h0.9v-1.068L370.579,21.764z"/>
			<path d="M373.807,26.24c0.024,1.428,0.924,2.016,1.98,2.016c0.756,0,1.224-0.132,1.607-0.288l0.192,0.744
				c-0.372,0.168-1.02,0.372-1.944,0.372c-1.775,0-2.855-1.188-2.855-2.928c0-1.764,1.044-3.144,2.735-3.144
				c1.896,0,2.389,1.668,2.389,2.736c0,0.216-0.013,0.384-0.036,0.504L373.807,26.24z M376.891,25.484
				c0.013-0.66-0.275-1.716-1.452-1.716c-1.08,0-1.535,0.984-1.619,1.716H376.891z"/>
		</g>
		<g>
			<path d="M307.998,61.762h-2.46v-0.888h5.987v0.888h-2.472v7.2h-1.056V61.762z"/>
			<path d="M312.306,60.442h1.057v3.624h0.023c0.168-0.3,0.433-0.576,0.756-0.744c0.313-0.192,0.685-0.3,1.08-0.3
				c0.78,0,2.028,0.48,2.028,2.484v3.456h-1.056v-3.336c0-0.948-0.349-1.728-1.345-1.728c-0.684,0-1.212,0.48-1.416,1.056
				c-0.06,0.144-0.071,0.3-0.071,0.504v3.504h-1.057V60.442z"/>
			<path d="M319.47,62.086c-0.396,0-0.66-0.312-0.66-0.684s0.276-0.672,0.685-0.672c0.407,0,0.672,0.3,0.672,0.672
				s-0.265,0.684-0.685,0.684H319.47z M318.966,68.962v-5.808h1.056v5.808H318.966z"/>
			<path d="M321.786,64.966c0-0.684-0.013-1.272-0.049-1.812h0.925l0.048,1.14h0.036c0.264-0.78,0.911-1.272,1.62-1.272
				c0.107,0,0.191,0.012,0.287,0.036v0.984c-0.119-0.012-0.228-0.024-0.372-0.024c-0.743,0-1.271,0.564-1.416,1.344
				c-0.023,0.156-0.035,0.324-0.035,0.504v3.096h-1.057L321.786,64.966z"/>
			<path d="M327.258,61.762v1.392h1.512v0.804h-1.512v3.132c0,0.72,0.204,1.128,0.792,1.128c0.288,0,0.456-0.024,0.611-0.072
				l0.049,0.804c-0.204,0.072-0.528,0.144-0.937,0.144c-0.492,0-0.888-0.168-1.14-0.444c-0.288-0.324-0.408-0.84-0.408-1.524v-3.168
				h-0.9v-0.804h0.9v-1.068L327.258,61.762z"/>
			<path d="M330.449,63.154l1.26,3.432c0.145,0.384,0.288,0.84,0.385,1.188h0.023c0.108-0.348,0.229-0.792,0.372-1.212l1.152-3.408
				h1.115l-1.584,4.14c-0.756,1.992-1.271,3.012-1.991,3.648c-0.528,0.444-1.032,0.624-1.296,0.672l-0.265-0.888
				c0.265-0.072,0.612-0.24,0.924-0.516c0.288-0.228,0.637-0.636,0.889-1.176c0.048-0.108,0.084-0.18,0.084-0.252
				c0-0.06-0.024-0.144-0.084-0.264l-2.137-5.364H330.449z"/>
			<path d="M338.165,65.338v0.768h-2.964v-0.768H338.165z"/>
			<path d="M339.257,67.895c0.324,0.192,0.876,0.408,1.404,0.408c0.756,0,1.116-0.372,1.116-0.864c0-0.504-0.3-0.78-1.068-1.068
				c-1.056-0.384-1.548-0.948-1.548-1.644c0-0.936,0.768-1.704,2.004-1.704c0.588,0,1.104,0.156,1.416,0.36l-0.252,0.756
				c-0.228-0.132-0.648-0.336-1.188-0.336c-0.624,0-0.96,0.36-0.96,0.792c0,0.492,0.336,0.708,1.093,0.996
				c0.996,0.372,1.523,0.876,1.523,1.752c0,1.032-0.804,1.752-2.16,1.752c-0.636,0-1.224-0.168-1.632-0.408L339.257,67.895z"/>
			<path d="M344.753,66.238c0.024,1.428,0.924,2.016,1.98,2.016c0.756,0,1.224-0.132,1.607-0.288l0.192,0.744
				c-0.372,0.168-1.021,0.372-1.944,0.372c-1.775,0-2.855-1.188-2.855-2.928c0-1.764,1.044-3.144,2.735-3.144
				c1.896,0,2.389,1.668,2.389,2.736c0,0.216-0.013,0.384-0.036,0.504L344.753,66.238z M347.837,65.482
				c0.012-0.66-0.275-1.716-1.452-1.716c-1.08,0-1.536,0.984-1.62,1.716H347.837z"/>
			<path d="M354.305,68.758c-0.275,0.132-0.888,0.336-1.668,0.336c-1.752,0-2.892-1.188-2.892-2.976c0-1.788,1.224-3.096,3.12-3.096
				c0.624,0,1.176,0.156,1.464,0.312l-0.24,0.804c-0.252-0.132-0.647-0.276-1.224-0.276c-1.332,0-2.053,0.996-2.053,2.208
				c0,1.344,0.864,2.172,2.017,2.172c0.6,0,0.996-0.144,1.296-0.276L354.305,68.758z"/>
			<path d="M357.833,69.094c-1.56,0-2.784-1.152-2.784-2.988c0-1.944,1.284-3.084,2.88-3.084c1.668,0,2.796,1.212,2.796,2.976
				c0,2.16-1.5,3.096-2.88,3.096H357.833z M357.869,68.302c1.008,0,1.764-0.948,1.764-2.268c0-0.984-0.492-2.22-1.74-2.22
				c-1.235,0-1.775,1.152-1.775,2.256c0,1.272,0.72,2.232,1.74,2.232H357.869z"/>
			<path d="M362.057,64.727c0-0.612-0.012-1.092-0.048-1.572h0.937l0.06,0.948h0.024c0.288-0.54,0.96-1.08,1.92-1.08
				c0.804,0,2.052,0.48,2.052,2.472v3.468h-1.056v-3.348c0-0.936-0.349-1.728-1.345-1.728c-0.684,0-1.224,0.492-1.416,1.08
				c-0.048,0.132-0.071,0.324-0.071,0.492v3.504h-1.057V64.727z"/>
			<path d="M373.732,60.442v7.02c0,0.516,0.013,1.104,0.049,1.5h-0.948l-0.048-1.008h-0.024c-0.324,0.648-1.02,1.14-1.968,1.14
				c-1.404,0-2.496-1.188-2.496-2.952c-0.012-1.944,1.2-3.12,2.604-3.12c0.9,0,1.5,0.42,1.753,0.876h0.023v-3.456H373.732z
				 M372.677,65.519c0-0.144-0.012-0.312-0.048-0.456c-0.156-0.66-0.732-1.212-1.524-1.212c-1.092,0-1.739,0.96-1.739,2.232
				c0,1.188,0.588,2.16,1.716,2.16c0.708,0,1.355-0.48,1.548-1.26c0.036-0.144,0.048-0.288,0.048-0.456V65.519z"/>
			<path d="M378.028,64.727c0-0.612-0.012-1.092-0.048-1.572h0.937l0.06,0.948h0.024c0.288-0.54,0.96-1.08,1.92-1.08
				c0.804,0,2.052,0.48,2.052,2.472v3.468h-1.056v-3.348c0-0.936-0.349-1.728-1.345-1.728c-0.684,0-1.224,0.492-1.416,1.08
				c-0.048,0.132-0.071,0.324-0.071,0.492v3.504h-1.057V64.727z"/>
			<path d="M387.053,69.094c-1.561,0-2.784-1.152-2.784-2.988c0-1.944,1.284-3.084,2.88-3.084c1.668,0,2.796,1.212,2.796,2.976
				c0,2.16-1.5,3.096-2.88,3.096H387.053z M387.089,68.302c1.008,0,1.764-0.948,1.764-2.268c0-0.984-0.492-2.22-1.74-2.22
				c-1.235,0-1.775,1.152-1.775,2.256c0,1.272,0.72,2.232,1.739,2.232H387.089z"/>
			<path d="M392.549,61.762v1.392h1.512v0.804h-1.512v3.132c0,0.72,0.204,1.128,0.792,1.128c0.288,0,0.456-0.024,0.611-0.072
				l0.049,0.804c-0.204,0.072-0.528,0.144-0.937,0.144c-0.492,0-0.888-0.168-1.14-0.444c-0.288-0.324-0.408-0.84-0.408-1.524v-3.168
				h-0.9v-0.804h0.9v-1.068L392.549,61.762z"/>
			<path d="M395.776,66.238c0.024,1.428,0.924,2.016,1.98,2.016c0.756,0,1.224-0.132,1.607-0.288l0.192,0.744
				c-0.372,0.168-1.021,0.372-1.944,0.372c-1.775,0-2.855-1.188-2.855-2.928c0-1.764,1.044-3.144,2.735-3.144
				c1.896,0,2.389,1.668,2.389,2.736c0,0.216-0.013,0.384-0.036,0.504L395.776,66.238z M398.86,65.482
				c0.012-0.66-0.275-1.716-1.452-1.716c-1.08,0-1.536,0.984-1.62,1.716H398.86z"/>
		</g>
	</g>
</svg>
