<?xml version="1.0" encoding="utf-8"?>
<!-- Generator: Adobe Illustrator 10.0, SVG Export Plug-In . SVG Version: 3.0.0 Build 76)  -->
<!DOCTYPE svg PUBLIC "-//W3C//DTD SVG 1.0//EN"    "http://www.w3.org/TR/2001/REC-SVG-20010904/DTD/svg10.dtd" [
	<!ENTITY ns_flows "http://ns.adobe.com/Flows/1.0/">
	<!ENTITY ns_extend "http://ns.adobe.com/Extensibility/1.0/">
	<!ENTITY ns_ai "http://ns.adobe.com/AdobeIllustrator/10.0/">
	<!ENTITY ns_svg "http://www.w3.org/2000/svg">
	<!ENTITY ns_xlink "http://www.w3.org/1999/xlink">
]>
<svg  xmlns:x="&ns_extend;" xmlns:i="&ns_ai;" xmlns:graph="&ns_graphs;"
	 xmlns="&ns_svg;" xmlns:xlink="&ns_xlink;" xmlns:a="http://ns.adobe.com/AdobeSVGViewerExtensions/3.0/" width="118" height="51"
	 viewBox="0.2 0.056 118 51" overflow="visible" enable-background="new 0.2 0.056 118 51" xml:space="preserve">
	<g id="Layer_1_2_">
		<g>
			<path fill="none" stroke="#000000" d="M0.032,5.222h117.764"/>
			<path fill="none" stroke="#000000" d="M0.032,19.333h117.764"/>
			<path fill="none" stroke="#000000" d="M0.09,26.456h117.764"/>
			<path fill="none" stroke="#000000" d="M0,33.84h117.764"/>
			<path fill="none" stroke="#000000" d="M0,12.476h117.764"/>
		</g>
		<g>
			<path d="M12.864,49.704c0-0.984,0.72-1.56,1.368-1.872c-0.528-0.264-1.128-0.792-1.104-1.512c0-0.792,0.456-1.44,1.08-1.776
				c-1.728-0.216-3.84-1.152-3.984-3.312c-0.096-1.536,0.6-3.24,2.52-3.36c1.128-0.072,2.52,0.864,2.616,2.232
				c0.096,1.176-0.696,2.4-2.664,2.952c0.288,0.456,1.248,0.96,2.592,0.96c1.392-0.024,2.832-0.96,3.504-2.208
				c0.432-0.792,0.408-2.28,0.216-3.624c-0.048-0.456-0.648-4.08-0.624-4.08c-1.8,0.312-4.224,0.12-5.232-0.36
				c-4.944-2.328-5.736-5.376-5.952-8.448c-0.24-3.36,1.872-6.792,3.888-8.688c1.152-1.08,2.376-2.112,3.888-3.264
				c-0.048-0.816-0.264-1.176-0.336-2.376c-0.048-0.504-0.336-2.856,0.168-5.544c0.312-1.632,2.304-5.4,3.72-5.424
				c1.08-0.024,2.712,4.248,2.76,6.432c0.096,3.336-0.696,4.848-1.704,6.576c-0.48,0.864-1.008,1.464-1.584,2.16
				c-0.552,0.672-1.2,1.08-1.8,1.608c0,0,0.744,4.344,0.768,4.68c1.56-0.216,3.432,0.336,4.104,0.84
				c1.704,1.248,2.352,3,2.472,4.704c0.192,2.712-1.296,5.568-4.584,6.936c0,0,0.528,3.48,0.624,4.176
				c0.288,1.896,0.24,3.096-0.168,3.864c-0.528,0.96-1.296,1.872-2.544,2.352L16.056,44.4c0.768,0.264,1.392,0.912,1.368,1.776
				c0,0.576-0.48,1.176-0.936,1.44c0.504,0.312,1.248,0.96,1.224,1.92c-0.024,1.152-1.2,2.04-2.4,2.016
				C13.776,51.528,12.888,50.64,12.864,49.704z M16.848,24.792c-2.616,0.096-3.288,2.112-3.24,3.264
				c0.072,1.152,1.032,2.496,1.896,2.952c-0.096,0.072-0.216,0.264-0.216,0.264c-1.008-0.48-1.848-1.248-2.064-1.56
				c-0.672-0.912-0.96-1.464-1.08-2.88c-0.096-1.32,0.648-3.096,2.256-4.344c0.816-0.624,1.248-0.744,1.944-0.936l-0.72-4.344
				c-0.72,0.456-3.792,2.904-5.088,4.92c-1.152,1.8-1.848,3.264-1.728,5.016c0.312,4.032,4.68,7.296,9.432,6.168
				C18.264,33.312,16.824,24.792,16.848,24.792z M14.808,48.192c-0.576,0.12-1.008,0.792-1.008,1.416
				c-0.024,0.744,0.696,1.464,1.512,1.464c0.936,0.024,1.248-0.624,1.272-1.248c0-0.696-0.552-1.08-1.152-1.344L14.808,48.192z
				 M14.136,45.84c0,0.528,0.432,0.84,0.888,1.056c0.12,0.048,0.216,0.096,0.312,0.12l0.624,0.264
				c0.456-0.216,0.696-0.696,0.696-1.152c0-0.672-0.576-1.368-1.296-1.392C14.616,44.712,14.16,45.216,14.136,45.84z M18.888,3.696
				c-2.472,0.024-3.864,5.184-3.312,9.168c2.064-1.656,4.92-4.728,4.752-7.08C20.28,5.016,19.944,3.672,18.888,3.696z
				 M17.472,24.768l1.368,8.352c2.76-0.912,2.88-3.312,2.784-4.704C21.528,27.216,21,24.6,17.472,24.768z"/>
		</g>
	</g>
</svg>
