<?xml version="1.0" encoding="utf-8"?>
<!-- Generator: Adobe Illustrator 10.0, SVG Export Plug-In . SVG Version: 3.0.0 Build 76)  -->
<!DOCTYPE svg PUBLIC "-//W3C//DTD SVG 1.0//EN"    "http://www.w3.org/TR/2001/REC-SVG-20010904/DTD/svg10.dtd" [
	<!ENTITY ns_flows "http://ns.adobe.com/Flows/1.0/">
	<!ENTITY ns_extend "http://ns.adobe.com/Extensibility/1.0/">
	<!ENTITY ns_ai "http://ns.adobe.com/AdobeIllustrator/10.0/">
	<!ENTITY ns_svg "http://www.w3.org/2000/svg">
	<!ENTITY ns_xlink "http://www.w3.org/1999/xlink">
]>
<svg  xmlns:x="&ns_extend;" xmlns:i="&ns_ai;" xmlns:graph="&ns_graphs;"
	 xmlns="&ns_svg;" xmlns:xlink="&ns_xlink;" xmlns:a="http://ns.adobe.com/AdobeSVGViewerExtensions/3.0/" width="222" height="164"
	 viewBox="0.384 -0.035 222 164" overflow="visible" enable-background="new 0.384 -0.035 222 164" xml:space="preserve">
	<g id="Layer_1_2_">
		<path fill="none" stroke="#000000" stroke-width="3" d="M1.5,1.784v161.43"/>
		<path fill="none" stroke="#000000" stroke-width="3" d="M22.428,95.432v66.891"/>
		<path fill="none" stroke="#000000" stroke-width="3" d="M42.754,96.323l-0.252,63.918"/>
		<path fill="none" stroke="#000000" stroke-width="3" d="M61.666,95.432v66.891"/>
		<path fill="none" stroke="#000000" stroke-width="3" d="M81.723,1.784l0.871,160.538"/>
		<path fill="none" stroke="#000000" stroke-width="3" d="M101.777,92.756v69.566"/>
		<path fill="none" stroke="#000000" stroke-width="3" d="M121.834,96.323v65.106"/>
		<path fill="none" stroke="#000000" stroke-width="3" d="M141.889,0.892l0.872,161.43"/>
		<path fill="none" stroke="#000000" stroke-width="3" d="M161.072,96.323v66.891"/>
		<path fill="none" stroke="#000000" stroke-width="3" d="M181.128,96.323l-0.872,65.999"/>
		<path fill="none" stroke="#000000" stroke-width="3" d="M202.056,96.323l-0.872,66.891"/>
		<path fill="none" stroke="#000000" stroke-width="3" d="M221.239,0v162.322"/>
		<path fill="none" stroke="#000000" stroke-width="3" d="M0.384,162.322h220.855"/>
		<path stroke="#000000" stroke-width="3" d="M27.66,94.539H15.452V2.676H27.66V94.539z"/>
		<path stroke="#000000" stroke-width="3" d="M48.587,94.539H36.379V2.676h12.208V94.539z"/>
		<path stroke="#000000" stroke-width="3" d="M67.771,94.539H55.563V2.676h12.208V94.539z"/>
		<path stroke="#000000" stroke-width="3" d="M107.591,94.242H95.383V2.379h12.208V94.242z"/>
		<path stroke="#000000" stroke-width="3" d="M127.938,94.539h-12.208V2.676h12.208V94.539z"/>
		<path stroke="#000000" stroke-width="3" d="M167.177,94.539h-12.208V2.676h12.208V94.539z"/>
		<path stroke="#000000" stroke-width="3" d="M187.232,94.539h-12.208V2.676h12.208V94.539z"/>
		<path stroke="#000000" stroke-width="3" d="M207.287,94.539H195.08V2.676h12.207V94.539z"/>
		<g>
			<path d="M50.048,129.021l-0.821,2.544h-1.056l2.687-8.088h1.232l2.698,8.088h-1.091l-0.845-2.544H50.048z M52.641,128.206
				l-0.786-2.328c-0.164-0.528-0.281-1.008-0.399-1.476h-0.035c-0.105,0.468-0.234,0.972-0.387,1.464l-0.774,2.34H52.641z"/>
			<path d="M68.385,123.597c0.446-0.108,1.162-0.18,1.866-0.18c1.021,0,1.678,0.18,2.159,0.588c0.411,0.312,0.668,0.792,0.668,1.428
				c0,0.792-0.516,1.476-1.337,1.776v0.036c0.751,0.18,1.631,0.816,1.631,2.016c0,0.696-0.27,1.224-0.681,1.62
				c-0.54,0.516-1.431,0.756-2.722,0.756c-0.704,0-1.244-0.048-1.584-0.096V123.597z M69.406,126.909h0.927
				c1.067,0,1.701-0.588,1.701-1.368c0-0.936-0.692-1.32-1.725-1.32c-0.469,0-0.739,0.036-0.903,0.072V126.909z M69.406,130.773
				c0.211,0.036,0.493,0.048,0.856,0.048c1.056,0,2.03-0.396,2.03-1.572c0-1.092-0.927-1.56-2.042-1.56h-0.845V130.773z"/>
			<path d="M95.181,131.313c-0.364,0.192-1.126,0.384-2.088,0.384c-2.229,0-3.895-1.44-3.895-4.104c0-2.544,1.678-4.248,4.13-4.248
				c0.974,0,1.607,0.216,1.877,0.36l-0.258,0.852c-0.375-0.192-0.927-0.336-1.583-0.336c-1.854,0-3.086,1.212-3.086,3.336
				c0,1.992,1.115,3.252,3.027,3.252c0.633,0,1.267-0.132,1.678-0.336L95.181,131.313z"/>
			<path d="M108.896,123.585c0.633-0.096,1.373-0.168,2.182-0.168c1.466,0,2.511,0.336,3.203,0.996
				c0.715,0.66,1.126,1.608,1.126,2.916c0,1.32-0.411,2.4-1.138,3.144c-0.751,0.756-1.971,1.164-3.508,1.164
				c-0.739,0-1.337-0.024-1.865-0.096V123.585z M109.928,130.75c0.258,0.048,0.634,0.048,1.033,0.048
				c2.182,0.012,3.367-1.248,3.367-3.432c0.012-1.932-1.044-3.12-3.203-3.12c-0.528,0-0.927,0.048-1.197,0.108V130.75z"/>
			<path d="M133.239,127.773h-3.062v2.916h3.426v0.876h-4.458v-8.088h4.282v0.876h-3.25v2.556h3.062V127.773z"/>
			<path d="M149.839,123.478h4.259v0.876h-3.226v2.688h2.98v0.864h-2.98v3.66h-1.033V123.478z"/>
			<path d="M174.031,131.206c-0.458,0.18-1.373,0.444-2.44,0.444c-1.197,0-2.183-0.312-2.957-1.068
				c-0.681-0.672-1.103-1.752-1.103-3.012c0-2.412,1.631-4.176,4.282-4.176c0.915,0,1.643,0.204,1.983,0.372l-0.258,0.852
				c-0.422-0.204-0.95-0.348-1.748-0.348c-1.924,0-3.179,1.224-3.179,3.252c0,2.052,1.196,3.264,3.05,3.264
				c0.668,0,1.126-0.096,1.361-0.216v-2.412h-1.596v-0.84h2.604V131.206z"/>
			<path d="M189.294,129.021l-0.821,2.544h-1.056l2.687-8.088h1.232l2.698,8.088h-1.091l-0.845-2.544H189.294z M191.887,128.206
				l-0.786-2.328c-0.164-0.528-0.281-1.008-0.398-1.476h-0.036c-0.105,0.468-0.234,0.972-0.387,1.464l-0.774,2.34H191.887z"/>
		</g>
		<path fill="#FFFFFF" d="M191.384,77.965h-139v-33h139V77.965z"/>
		<g>
			<path fill="#FF0000" d="M56.937,55.761l-0.821,2.544H55.06l2.687-8.088h1.232l2.698,8.088h-1.091l-0.845-2.544H56.937z
				 M59.53,54.945l-0.786-2.328c-0.164-0.528-0.281-1.008-0.399-1.476H58.31c-0.105,0.468-0.234,0.972-0.387,1.464l-0.774,2.34
				H59.53z"/>
			<path fill="#FF0000" d="M99.66,58.053c-0.364,0.192-1.126,0.384-2.088,0.384c-2.229,0-3.895-1.44-3.895-4.104
				c0-2.544,1.678-4.248,4.129-4.248c0.974,0,1.607,0.216,1.877,0.36l-0.258,0.852c-0.375-0.192-0.927-0.336-1.584-0.336
				c-1.854,0-3.085,1.212-3.085,3.336c0,1.992,1.115,3.252,3.027,3.252c0.634,0,1.267-0.132,1.678-0.336L99.66,58.053z"/>
			<path fill="#FF0000" d="M113.374,50.325c0.633-0.096,1.373-0.168,2.182-0.168c1.466,0,2.511,0.336,3.203,0.996
				c0.716,0.66,1.126,1.608,1.126,2.916c0,1.32-0.411,2.4-1.138,3.144c-0.75,0.756-1.971,1.164-3.508,1.164
				c-0.739,0-1.337-0.024-1.865-0.096V50.325z M114.406,57.489c0.258,0.048,0.634,0.048,1.033,0.048
				c2.182,0.012,3.367-1.248,3.367-3.432c0.012-1.932-1.044-3.12-3.203-3.12c-0.528,0-0.927,0.048-1.197,0.108V57.489z"/>
			<path fill="#FF0000" d="M156.007,50.217h4.259v0.876h-3.227v2.688h2.98v0.864h-2.98v3.66h-1.032V50.217z"/>
			<path fill="#FF0000" d="M180.199,57.945c-0.458,0.18-1.373,0.444-2.44,0.444c-1.197,0-2.182-0.312-2.957-1.068
				c-0.681-0.672-1.103-1.752-1.103-3.012c0-2.412,1.631-4.176,4.283-4.176c0.915,0,1.642,0.204,1.982,0.372l-0.258,0.852
				c-0.422-0.204-0.951-0.348-1.749-0.348c-1.924,0-3.179,1.224-3.179,3.252c0,2.052,1.197,3.264,3.05,3.264
				c0.669,0,1.126-0.096,1.361-0.216v-2.412h-1.595v-0.84h2.604V57.945z"/>
		</g>
		<g>
			<path fill="#0A50A1" d="M61.795,67.219c0.446-0.108,1.162-0.18,1.866-0.18c1.021,0,1.677,0.18,2.159,0.588
				c0.411,0.312,0.668,0.792,0.668,1.428c0,0.792-0.516,1.476-1.337,1.776v0.036c0.751,0.18,1.631,0.816,1.631,2.016
				c0,0.696-0.27,1.224-0.681,1.62c-0.54,0.516-1.431,0.756-2.722,0.756c-0.704,0-1.244-0.048-1.584-0.096V67.219z M62.816,70.531
				h0.927c1.067,0,1.701-0.588,1.701-1.368c0-0.936-0.692-1.32-1.725-1.32c-0.469,0-0.739,0.036-0.903,0.072V70.531z M62.816,74.396
				c0.211,0.036,0.493,0.048,0.856,0.048c1.056,0,2.029-0.396,2.029-1.572c0-1.092-0.927-1.56-2.041-1.56h-0.845V74.396z"/>
			<path fill="#0A50A1" d="M97.988,67.208c0.633-0.096,1.373-0.168,2.182-0.168c1.466,0,2.511,0.336,3.203,0.996
				c0.716,0.66,1.126,1.608,1.126,2.916c0,1.32-0.411,2.4-1.138,3.144c-0.75,0.756-1.971,1.164-3.508,1.164
				c-0.739,0-1.337-0.024-1.865-0.096V67.208z M99.02,74.372c0.258,0.048,0.634,0.048,1.032,0.048
				c2.183,0.012,3.367-1.248,3.367-3.432c0.012-1.932-1.044-3.12-3.203-3.12c-0.528,0-0.927,0.048-1.197,0.108V74.372z"/>
			<path fill="#0A50A1" d="M122.332,71.396h-3.063v2.916h3.426v0.876h-4.458V67.1h4.282v0.876h-3.25v2.556h3.063V71.396z"/>
			<path fill="#0A50A1" d="M167.358,74.828c-0.458,0.18-1.373,0.444-2.44,0.444c-1.196,0-2.182-0.312-2.957-1.068
				c-0.68-0.672-1.103-1.752-1.103-3.012c0-2.412,1.631-4.176,4.282-4.176c0.915,0,1.643,0.204,1.983,0.372l-0.258,0.852
				c-0.422-0.204-0.95-0.348-1.748-0.348c-1.924,0-3.18,1.224-3.18,3.252c0,2.052,1.197,3.264,3.051,3.264
				c0.668,0,1.126-0.096,1.361-0.216v-2.412h-1.596v-0.84h2.604V74.828z"/>
			<path fill="#0A50A1" d="M180.134,72.644l-0.821,2.544h-1.056l2.687-8.088h1.232l2.699,8.088h-1.091l-0.845-2.544H180.134z
				 M182.727,71.828l-0.786-2.328c-0.165-0.528-0.282-1.008-0.399-1.476h-0.035c-0.106,0.468-0.235,0.972-0.387,1.464l-0.774,2.34
				H182.727z"/>
		</g>
		<g>
			<path fill="#0A50A1" d="M68.107,64.502c0,0.188,0,1.342,0,1.342c0.57-0.713,0.885-0.86,1.515-0.881
				c0.75-0.021,1.23,1.028,1.245,1.867c0.015,0.44-0.075,0.901-0.195,1.258c-0.135,0.461-0.495,0.818-0.735,1.153
				c-0.27,0.377-2.22,2.244-2.22,2.286V59.134h0.39C68.107,59.134,68.122,61.734,68.107,64.502z M68.272,66.578
				c-0.195,0.524-0.165,1.426-0.165,2.076v1.803c0,0.021,0.54-0.629,0.84-1.027c0.27-0.356,0.48-0.755,0.585-1.384
				c0.12-0.629,0.075-1.3-0.21-1.74C69.127,65.991,68.587,65.739,68.272,66.578z"/>
		</g>
		<g>
			<path fill="#FF0000" d="M183.186,47.396v-3.089h0.367v2.899l1.238-0.606v-2.767h0.367v2.596l0.493-0.247v1.971l-0.493,0.247
				v2.804l0.493-0.227v1.952l-0.493,0.246v3.089h-0.367v-2.918l-1.238,0.606v2.804h-0.367v-2.615l-0.543,0.265v-1.971l0.543-0.265
				v-2.824l-0.543,0.265v-1.952L183.186,47.396z M183.552,49.178v2.823l1.238-0.606v-2.823L183.552,49.178z"/>
		</g>
		<g>
			<path fill="#FF0000" d="M62.736,46.669v-3.089h0.367v2.899l1.238-0.606v-2.767h0.367v2.596l0.493-0.247v1.971l-0.493,0.247v2.804
				l0.493-0.227v1.952l-0.493,0.246v3.089h-0.367V52.62l-1.238,0.606v2.804h-0.367v-2.615l-0.543,0.265V51.71l0.543-0.265v-2.824
				l-0.543,0.265v-1.952L62.736,46.669z M63.103,48.451v2.823l1.238-0.606v-2.823L63.103,48.451z"/>
		</g>
		<g>
			<path fill="#FF0000" d="M121.778,46.116v-3.089h0.367v2.899l1.238-0.606v-2.767h0.367v2.596l0.493-0.247v1.971l-0.493,0.247
				v2.804l0.493-0.227v1.952l-0.493,0.246v3.089h-0.367v-2.918l-1.238,0.606v2.804h-0.367v-2.615l-0.543,0.265v-1.971l0.543-0.265
				v-2.824l-0.543,0.265v-1.952L121.778,46.116z M122.145,47.897v2.823l1.238-0.606v-2.823L122.145,47.897z"/>
		</g>
		<g>
			<path fill="#FF0000" d="M102.186,46.729v-3.089h0.367v2.899l1.238-0.606v-2.767h0.367v2.596l0.493-0.247v1.971l-0.493,0.247
				v2.804l0.493-0.227v1.952l-0.493,0.246v3.089h-0.367V52.68l-1.238,0.606v2.804h-0.367v-2.615l-0.543,0.265V51.77l0.543-0.265
				v-2.824l-0.543,0.265v-1.952L102.186,46.729z M102.552,48.511v2.823l1.238-0.606v-2.823L102.552,48.511z"/>
		</g>
		<g>
			<path fill="#0A50A1" d="M125.275,63.835c0,0.189,0,1.342,0,1.342c0.57-0.713,0.885-0.86,1.515-0.881
				c0.75-0.021,1.23,1.028,1.245,1.867c0.015,0.44-0.075,0.901-0.195,1.258c-0.135,0.461-0.495,0.818-0.735,1.153
				c-0.27,0.377-2.22,2.244-2.22,2.286V58.467h0.39C125.275,58.467,125.29,61.068,125.275,63.835z M125.44,65.912
				c-0.195,0.524-0.165,1.426-0.165,2.076v1.803c0,0.021,0.54-0.629,0.84-1.027c0.27-0.356,0.48-0.755,0.585-1.384
				c0.12-0.629,0.075-1.3-0.21-1.74C126.295,65.325,125.755,65.073,125.44,65.912z"/>
		</g>
		<g>
			<path fill="#0A50A1" d="M186.607,64.502c0,0.189,0,1.342,0,1.342c0.57-0.713,0.885-0.86,1.515-0.881
				c0.75-0.021,1.23,1.028,1.245,1.867c0.015,0.44-0.075,0.901-0.195,1.258c-0.135,0.461-0.495,0.818-0.735,1.153
				c-0.27,0.377-2.22,2.244-2.22,2.286V59.134h0.39C186.607,59.134,186.622,61.735,186.607,64.502z M186.772,66.579
				c-0.195,0.524-0.165,1.426-0.165,2.076v1.803c0,0.021,0.54-0.629,0.84-1.027c0.27-0.356,0.48-0.755,0.585-1.384
				c0.12-0.629,0.075-1.3-0.21-1.74C187.627,65.992,187.087,65.74,186.772,66.579z"/>
		</g>
		<g>
			<path fill="#0A50A1" d="M105.775,63.169c0,0.188,0,1.342,0,1.342c0.57-0.713,0.885-0.86,1.515-0.881
				c0.75-0.021,1.23,1.028,1.245,1.867c0.015,0.44-0.075,0.901-0.195,1.258c-0.135,0.461-0.495,0.818-0.735,1.153
				c-0.27,0.377-2.22,2.244-2.22,2.286V57.801h0.39C105.775,57.801,105.79,60.401,105.775,63.169z M105.94,65.245
				c-0.195,0.524-0.165,1.426-0.165,2.076v1.803c0,0.021,0.54-0.629,0.84-1.027c0.27-0.356,0.48-0.755,0.585-1.384
				c0.12-0.629,0.075-1.3-0.21-1.74C106.795,64.658,106.255,64.406,105.94,65.245z"/>
		</g>
		<g>
			<path fill="#0A50A1" d="M169.325,64.776c0,0.189,0,1.342,0,1.342c0.57-0.713,0.885-0.86,1.515-0.881
				c0.75-0.021,1.23,1.028,1.245,1.867c0.015,0.44-0.075,0.901-0.195,1.258c-0.135,0.461-0.495,0.818-0.735,1.153
				c-0.27,0.377-2.22,2.244-2.22,2.286V59.408h0.39C169.325,59.408,169.339,62.008,169.325,64.776z M169.49,66.852
				c-0.195,0.524-0.165,1.426-0.165,2.076v1.803c0,0.021,0.54-0.629,0.84-1.027c0.27-0.356,0.48-0.755,0.585-1.384
				c0.12-0.629,0.075-1.3-0.21-1.74C170.345,66.265,169.805,66.013,169.49,66.852z"/>
		</g>
		<path stroke="#000000" d="M53.384,63.965l20-9"/>
		<path stroke="#000000" d="M88.384,65.965l20-9"/>
		<path stroke="#000000" d="M112.384,63.965l20-9"/>
		<path stroke="#000000" d="M151.384,65.965l20-9"/>
		<path stroke="#000000" d="M171.384,64.965l20-9"/>
		<g>
			<path fill="#FF0000" d="M163.778,47.116v-3.089h0.367v2.899l1.238-0.606v-2.767h0.367v2.596l0.493-0.247v1.971l-0.493,0.247
				v2.804l0.493-0.227v1.952l-0.493,0.246v3.089h-0.367v-2.918l-1.238,0.606v2.804h-0.367v-2.615l-0.543,0.265v-1.971l0.543-0.265
				v-2.824l-0.543,0.265v-1.952L163.778,47.116z M164.145,48.897v2.823l1.238-0.606v-2.823L164.145,48.897z"/>
		</g>
		<g>
			<path fill="#FF0000" d="M51.153,145.149h-0.024l-1.326,0.732l-0.199-0.804l1.666-0.912h0.88v7.8h-0.997V145.149z"/>
			<path fill="#FF0000" d="M67.366,151.965v-0.648l0.81-0.804c1.948-1.896,2.839-2.904,2.839-4.08c0-0.792-0.364-1.524-1.502-1.524
				c-0.692,0-1.267,0.36-1.619,0.66l-0.329-0.744c0.516-0.444,1.279-0.792,2.159-0.792c1.631,0,2.323,1.152,2.323,2.268
				c0,1.44-1.021,2.604-2.628,4.188l-0.598,0.576v0.024h3.414v0.876H67.366z"/>
			<path fill="#FF0000" d="M91.041,150.765c0.293,0.18,0.962,0.48,1.689,0.48c1.314,0,1.736-0.852,1.725-1.512
				c-0.012-1.092-0.974-1.56-1.971-1.56h-0.575v-0.792h0.575c0.75,0,1.701-0.396,1.701-1.32c0-0.624-0.387-1.176-1.337-1.176
				c-0.61,0-1.197,0.276-1.525,0.516l-0.282-0.768c0.411-0.3,1.185-0.6,2.006-0.6c1.502,0,2.182,0.912,2.182,1.86
				c0,0.816-0.481,1.5-1.408,1.848v0.024c0.938,0.18,1.701,0.9,1.701,1.992c0,1.248-0.962,2.34-2.781,2.34
				c-0.856,0-1.607-0.276-1.982-0.528L91.041,150.765z"/>
			<path fill="#FF0000" d="M112.439,151.965v-2.124h-3.543v-0.684l3.402-4.992h1.115v4.86h1.067v0.816h-1.067v2.124H112.439z
				 M112.439,149.025v-2.616c0-0.408,0.012-0.816,0.035-1.224h-0.035c-0.234,0.456-0.422,0.792-0.633,1.164l-1.866,2.652v0.024
				H112.439z"/>
			<path fill="#FF0000" d="M134.742,145.053h-2.91l-0.293,1.98c0.176-0.024,0.34-0.048,0.622-0.048c0.599,0,1.173,0.132,1.643,0.42
				c0.598,0.336,1.091,1.02,1.091,2.028c0,1.524-1.185,2.664-2.839,2.664c-0.833,0-1.525-0.24-1.901-0.48l0.258-0.804
				c0.317,0.192,0.938,0.432,1.643,0.432c0.962,0,1.807-0.648,1.795-1.704c0-1.032-0.668-1.74-2.182-1.74
				c-0.446,0-0.786,0.036-1.068,0.084l0.493-3.72h3.648V145.053z"/>
			<path fill="#FF0000" d="M152.997,144.897c-0.211-0.012-0.481,0.012-0.774,0.06c-1.631,0.264-2.476,1.476-2.651,2.772h0.023
				c0.364-0.504,1.009-0.912,1.854-0.912c1.349,0,2.3,1.008,2.3,2.52c0,1.44-0.951,2.76-2.546,2.76
				c-1.619,0-2.687-1.296-2.687-3.324c0-1.536,0.528-2.748,1.291-3.528c0.634-0.636,1.479-1.032,2.44-1.152
				c0.305-0.048,0.563-0.06,0.751-0.06V144.897z M151.225,151.281c0.88,0,1.478-0.756,1.478-1.872c0-1.116-0.622-1.788-1.572-1.788
				c-0.622,0-1.208,0.384-1.49,0.96c-0.059,0.12-0.105,0.264-0.105,0.456c0.012,1.284,0.598,2.244,1.678,2.244H151.225z"/>
			<path fill="#FF0000" d="M174.536,144.165v0.696l-3.32,7.104h-1.056l3.296-6.9v-0.024h-3.731v-0.876H174.536z"/>
			<path fill="#FF0000" d="M190.597,144.033c1.479,0,2.229,0.936,2.229,1.92c0,0.66-0.329,1.38-1.267,1.824v0.036
				c0.95,0.384,1.537,1.08,1.537,2.016c0,1.368-1.138,2.268-2.593,2.268c-1.596,0-2.558-0.96-2.558-2.1
				c0-0.984,0.575-1.692,1.502-2.1v-0.036c-0.856-0.408-1.22-1.08-1.22-1.752c0-1.236,1.021-2.076,2.358-2.076H190.597z
				 M190.538,151.329c0.927,0,1.525-0.588,1.525-1.392c0-0.936-0.646-1.404-1.678-1.704c-0.892,0.264-1.373,0.876-1.373,1.62
				c-0.035,0.78,0.551,1.476,1.513,1.476H190.538z M190.562,144.789c-0.856,0-1.326,0.576-1.326,1.248
				c-0.012,0.78,0.575,1.2,1.455,1.44c0.657-0.228,1.161-0.708,1.161-1.416c0-0.624-0.364-1.272-1.279-1.272H190.562z"/>
		</g>
	</g>
</svg>
