<?xml version="1.0" encoding="utf-8"?>
<!-- Generator: Adobe Illustrator 10.0, SVG Export Plug-In . SVG Version: 3.0.0 Build 76)  -->
<!DOCTYPE svg PUBLIC "-//W3C//DTD SVG 1.0//EN"    "http://www.w3.org/TR/2001/REC-SVG-20010904/DTD/svg10.dtd" [
	<!ENTITY ns_flows "http://ns.adobe.com/Flows/1.0/">
	<!ENTITY ns_extend "http://ns.adobe.com/Extensibility/1.0/">
	<!ENTITY ns_ai "http://ns.adobe.com/AdobeIllustrator/10.0/">
	<!ENTITY ns_svg "http://www.w3.org/2000/svg">
	<!ENTITY ns_xlink "http://www.w3.org/1999/xlink">
]>
<svg  xmlns:x="&ns_extend;" xmlns:i="&ns_ai;" xmlns:graph="&ns_graphs;"
	 xmlns="&ns_svg;" xmlns:xlink="&ns_xlink;" xmlns:a="http://ns.adobe.com/AdobeSVGViewerExtensions/3.0/" width="224" height="153"
	 viewBox="0.492 0 224 153" overflow="visible" enable-background="new 0.492 0 224 153" xml:space="preserve">
	<g id="Layer_1_2_">
		<path fill="#FFFFFF" stroke="#000000" d="M2.454,51.623c1.656-4.717,6.898-18.868,13.797-18.868
			c6.898,0,12.141,14.151,13.797,18.868S36.947,70.49,43.846,70.49c6.898,0,12.141-14.151,13.797-18.868s6.899-18.868,13.797-18.868
			s12.142,14.151,13.797,18.868c1.656,4.717,6.899,18.868,13.797,18.868s12.142-14.151,13.797-18.868
			c1.655-4.717,6.898-18.868,13.797-18.868s12.142,14.151,13.797,18.868c1.655,4.717,6.898,18.868,13.797,18.868
			s12.142-14.151,13.797-18.868s6.898-18.868,13.797-18.868c6.899,0,12.142,14.151,13.797,18.868s6.898,18.868,13.797,18.868
			c6.899,0,12.142-14.151,13.797-18.868"/>
		<g>
			<path fill="#FFFFFF" stroke="#000000" d="M111.801,111c0.838-4.717,3.49-18.868,6.981-18.868c3.49,0,6.143,14.151,6.98,18.868
				s3.49,18.868,6.981,18.868c3.49,0,6.143-14.151,6.98-18.868c0.837-4.717,3.49-18.868,6.98-18.868s6.143,14.151,6.981,18.868
				c0.837,4.717,3.49,18.868,6.98,18.868s6.143-14.151,6.981-18.868c0.837-4.717,3.49-18.868,6.98-18.868s6.143,14.151,6.981,18.868
				c0.837,4.717,3.49,18.868,6.98,18.868s6.143-14.151,6.98-18.868c0.838-4.717,3.49-18.868,6.981-18.868
				c3.49,0,6.143,14.151,6.98,18.868c0.838,4.717,3.49,18.868,6.98,18.868c3.491,0,6.143-14.151,6.981-18.868"/>
			<path fill="#FFFFFF" stroke="#000000" d="M0.492,109c0.838-4.717,3.49-18.868,6.981-18.868c3.49,0,6.143,14.151,6.98,18.868
				c0.837,4.717,3.49,18.868,6.98,18.868c3.491,0,6.143-14.151,6.981-18.868c0.837-4.717,3.49-18.868,6.98-18.868
				s6.143,14.151,6.98,18.868c0.838,4.717,3.491,18.868,6.981,18.868S55.5,113.717,56.337,109c0.837-4.717,3.49-18.868,6.98-18.868
				s6.143,14.151,6.98,18.868c0.838,4.717,3.491,18.868,6.981,18.868s6.143-14.151,6.98-18.868c0.838-4.717,3.49-18.868,6.98-18.868
				c3.491,0,6.143,14.151,6.981,18.868s3.49,18.868,6.98,18.868c3.491,0,6.143-14.151,6.981-18.868"/>
		</g>
		<path fill="none" stroke="#FF0000" d="M1.492,0v151.423"/>
		<path fill="none" stroke="#FF0000" d="M57.492,0v151.423"/>
		<path fill="none" stroke="#FF0000" d="M113.492,1.577V153"/>
		<path fill="none" stroke="#FF0000" d="M167.492,1.577V153"/>
		<path fill="none" stroke="#FF0000" d="M223.492,1.577V153"/>
	</g>
</svg>
