<?xml version="1.0" encoding="utf-8"?>
<!-- Generator: Adobe Illustrator 10.0, SVG Export Plug-In . SVG Version: 3.0.0 Build 76)  -->
<!DOCTYPE svg PUBLIC "-//W3C//DTD SVG 1.0//EN"    "http://www.w3.org/TR/2001/REC-SVG-20010904/DTD/svg10.dtd" [
	<!ENTITY ns_flows "http://ns.adobe.com/Flows/1.0/">
	<!ENTITY ns_extend "http://ns.adobe.com/Extensibility/1.0/">
	<!ENTITY ns_ai "http://ns.adobe.com/AdobeIllustrator/10.0/">
	<!ENTITY ns_svg "http://www.w3.org/2000/svg">
	<!ENTITY ns_xlink "http://www.w3.org/1999/xlink">
]>
<svg  xmlns:x="&ns_extend;" xmlns:i="&ns_ai;" xmlns:graph="&ns_graphs;"
	 xmlns="&ns_svg;" xmlns:xlink="&ns_xlink;" xmlns:a="http://ns.adobe.com/AdobeSVGViewerExtensions/3.0/" width="267" height="61"
	 viewBox="0.2 -0.253 267 61" overflow="visible" enable-background="new 0.2 -0.253 267 61" xml:space="preserve">
	<g id="Layer_1_2_">
		<g>
			<path d="M69.335,60.337l-1.792-8.088h0.964l0.838,4.092c0.209,1.02,0.398,2.016,0.524,2.796h0.021
				c0.115-0.804,0.335-1.764,0.576-2.808l0.943-4.08h0.954l0.859,4.104c0.199,0.972,0.388,1.92,0.492,2.772h0.021
				c0.147-0.888,0.346-1.788,0.566-2.796l0.933-4.08h0.933l-2.001,8.088h-0.954l-0.891-4.2c-0.22-1.044-0.367-1.836-0.461-2.652
				H71.84c-0.115,0.816-0.283,1.596-0.545,2.64l-1.006,4.212H69.335z"/>
		</g>
		<g>
			<path d="M104.095,51.583v3.384h3.416v-3.384h0.922v8.088h-0.922v-3.792h-3.416v3.792h-0.922v-8.088H104.095z"/>
		</g>
		<g>
			<path d="M182.761,50.916v3.384h3.416v-3.384h0.922v8.088h-0.922v-3.792h-3.416v3.792h-0.922v-8.088H182.761z"/>
		</g>
		<g>
			<path d="M147.968,56.284c-0.053-1.128-0.115-2.496-0.115-3.492h-0.021c-0.251,0.936-0.535,1.956-0.891,3.072l-1.247,3.924h-0.691
				l-1.153-3.852c-0.335-1.152-0.607-2.184-0.807-3.144h-0.021c-0.021,1.008-0.073,2.352-0.136,3.576l-0.188,3.468h-0.87
				l0.492-8.088h1.163l1.205,3.912c0.293,0.996,0.524,1.884,0.712,2.724h0.021c0.188-0.816,0.44-1.704,0.754-2.724l1.257-3.912
				h1.163l0.44,8.088h-0.901L147.968,56.284z"/>
			<path d="M150.335,58.636c0.262,0.18,0.859,0.48,1.509,0.48c1.173,0,1.551-0.852,1.541-1.512c-0.011-1.092-0.87-1.56-1.761-1.56
				h-0.513v-0.792h0.513c0.671,0,1.52-0.396,1.52-1.32c0-0.624-0.346-1.176-1.194-1.176c-0.545,0-1.069,0.276-1.362,0.516
				l-0.251-0.768c0.367-0.3,1.058-0.6,1.792-0.6c1.341,0,1.949,0.912,1.949,1.86c0,0.816-0.43,1.5-1.257,1.848v0.024
				c0.838,0.18,1.519,0.9,1.519,1.992c0,1.248-0.859,2.34-2.483,2.34c-0.765,0-1.436-0.276-1.771-0.528L150.335,58.636z"/>
		</g>
		<g>
			<path d="M223.301,55.284c-0.053-1.128-0.115-2.496-0.115-3.492h-0.021c-0.251,0.936-0.535,1.956-0.891,3.072l-1.247,3.924h-0.691
				l-1.153-3.852c-0.335-1.152-0.607-2.184-0.807-3.144h-0.021c-0.021,1.008-0.073,2.352-0.136,3.576l-0.188,3.468h-0.87
				l0.492-8.088h1.163l1.205,3.912c0.293,0.996,0.524,1.884,0.712,2.724h0.021c0.188-0.816,0.44-1.704,0.754-2.724l1.257-3.912
				h1.163l0.44,8.088h-0.901L223.301,55.284z"/>
			<path d="M225.669,57.636c0.262,0.18,0.859,0.48,1.509,0.48c1.173,0,1.551-0.852,1.541-1.512c-0.011-1.092-0.87-1.56-1.761-1.56
				h-0.513v-0.792h0.513c0.671,0,1.52-0.396,1.52-1.32c0-0.624-0.346-1.176-1.194-1.176c-0.545,0-1.069,0.276-1.362,0.516
				l-0.251-0.768c0.367-0.3,1.058-0.6,1.792-0.6c1.341,0,1.949,0.912,1.949,1.86c0,0.816-0.43,1.5-1.257,1.848v0.024
				c0.838,0.18,1.519,0.9,1.519,1.992c0,1.248-0.859,2.34-2.483,2.34c-0.765,0-1.436-0.276-1.771-0.528L225.669,57.636z"/>
		</g>
		<g>
			<path fill="none" stroke="#000000" d="M0.072,4.579h267.157"/>
			<path fill="none" stroke="#000000" d="M0.072,19.69h267.157"/>
			<path fill="none" stroke="#000000" d="M0.204,26.813h267.158"/>
			<path fill="none" stroke="#000000" d="M0,34.197h267.157"/>
			<path fill="none" stroke="#000000" d="M0,11.833h267.157"/>
		</g>
		<g>
			<path d="M11.818,33.768c-4.944-2.352-5.736-5.376-5.952-8.472c-0.24-3.36,1.896-6.768,3.888-8.664
				c1.152-1.08,2.4-2.136,3.888-3.264c-0.048-0.84-0.24-1.176-0.336-2.376c-0.024-0.504-0.336-2.856,0.168-5.568
				c0.312-1.608,2.328-5.4,3.72-5.424c1.08-0.024,2.736,4.296,2.784,6.456c0.072,3.336-0.72,4.848-1.704,6.576
				c-0.504,0.864-1.032,1.464-1.584,2.136c-0.576,0.696-1.224,1.104-1.824,1.632c0,0,0.768,4.344,0.792,4.656
				c1.536-0.192,3.408,0.36,4.08,0.84c1.704,1.272,2.352,3.024,2.472,4.728c0.216,2.712-1.272,5.568-4.56,6.936
				c0,0,0.504,3.456,0.624,4.176c0.264,1.896,0.216,3.096-0.192,3.864c-0.696,1.296-1.824,2.496-4.008,2.64
				c-1.68,0.096-4.992-0.744-5.16-3.384c-0.096-1.56,0.6-3.24,2.496-3.36c1.152-0.096,2.52,0.864,2.616,2.232
				c0.096,1.176-0.672,2.4-2.664,2.952c0.312,0.432,1.248,0.936,2.592,0.936c1.392,0,2.832-0.936,3.528-2.184
				c0.432-0.816,0.384-2.28,0.216-3.624c-0.072-0.456-0.648-4.08-0.648-4.08C15.274,34.416,12.826,34.248,11.818,33.768z
				 M12.298,28.08c0.048,1.152,1.008,2.496,1.896,2.952c-0.12,0.072-0.24,0.264-0.24,0.264c-0.984-0.48-1.824-1.272-2.04-1.56
				c-0.696-0.936-0.984-1.464-1.08-2.88c-0.096-1.32,0.624-3.096,2.232-4.344c0.84-0.624,1.248-0.768,1.968-0.936l-0.72-4.344
				c-0.744,0.432-3.816,2.904-5.112,4.92c-1.152,1.8-1.848,3.24-1.704,5.016c0.288,4.008,4.68,7.296,9.432,6.168
				c0,0-1.416-8.52-1.392-8.52C12.922,24.912,12.226,26.928,12.298,28.08z M14.242,12.864c2.088-1.632,4.92-4.704,4.752-7.08
				c-0.048-0.744-0.36-2.088-1.44-2.064C15.083,3.744,13.69,8.904,14.242,12.864z M17.506,33.144c2.76-0.936,2.88-3.312,2.784-4.728
				c-0.096-1.176-0.624-3.816-4.128-3.648L17.506,33.144z"/>
		</g>
		<g>
			<path d="M87.904,34.197c2.664,0.024,5.184,1.032,5.376,3.264c0.144,1.632-2.016,3.12-4.68,3.12
				c-2.688-0.024-5.184-1.008-5.4-3.24C83.056,35.685,85.24,34.197,87.904,34.197z M88.552,40.029c1.152,0,1.896-1.104,1.776-1.992
				c-0.264-1.752-0.864-3.168-2.448-3.168c-1.152,0-1.824,1.128-1.68,2.016C86.464,38.637,86.968,40.029,88.552,40.029z"/>
		</g>
		<g>
			<path d="M127.904,30.864c2.664,0.024,5.184,1.032,5.376,3.264c0.144,1.632-2.016,3.12-4.68,3.12
				c-2.688-0.024-5.184-1.008-5.4-3.24C123.056,32.352,125.24,30.864,127.904,30.864z M128.552,36.696
				c1.152,0,1.896-1.104,1.776-1.992c-0.264-1.752-0.864-3.168-2.448-3.168c-1.152,0-1.824,1.128-1.68,2.016
				C126.464,35.304,126.968,36.696,128.552,36.696z"/>
		</g>
		<g>
			<path d="M163.571,23.198c2.664,0.024,5.184,1.032,5.376,3.264c0.144,1.632-2.016,3.12-4.68,3.12
				c-2.688-0.024-5.184-1.008-5.4-3.24C158.723,24.686,160.907,23.198,163.571,23.198z M164.219,29.03
				c1.152,0,1.896-1.104,1.776-1.992c-0.264-1.752-0.864-3.168-2.448-3.168c-1.152,0-1.824,1.128-1.68,2.016
				C162.131,27.638,162.635,29.03,164.219,29.03z"/>
		</g>
		<g>
			<path d="M203.237,19.865c2.664,0.024,5.184,1.032,5.376,3.264c0.144,1.632-2.016,3.12-4.68,3.12
				c-2.688-0.024-5.184-1.008-5.4-3.24C198.389,21.353,200.573,19.865,203.237,19.865z M203.885,25.697
				c1.152,0,1.896-1.104,1.776-1.992c-0.264-1.752-0.864-3.168-2.448-3.168c-1.152,0-1.824,1.128-1.68,2.016
				C201.797,24.305,202.301,25.697,203.885,25.697z"/>
		</g>
		<g>
			<path d="M239.237,12.531c2.664,0.024,5.184,1.032,5.376,3.264c0.144,1.632-2.016,3.12-4.68,3.12
				c-2.688-0.024-5.184-1.008-5.4-3.24C234.389,14.019,236.573,12.531,239.237,12.531z M239.885,18.363
				c1.152,0,1.896-1.104,1.776-1.992c-0.264-1.752-0.864-3.168-2.448-3.168c-1.152,0-1.824,1.128-1.68,2.016
				C237.797,16.971,238.301,18.363,239.885,18.363z"/>
		</g>
		<g>
			<path d="M191.157,20.012c0,0.216,0,1.536,0,1.536c0.912-0.816,1.416-0.984,2.424-1.008c1.2-0.024,1.968,1.176,1.992,2.136
				c0.024,0.504-0.12,1.032-0.312,1.44c-0.216,0.528-0.792,0.936-1.176,1.32c-0.432,0.432-3.552,2.568-3.552,2.616V13.868h0.624
				C191.157,13.868,191.181,16.844,191.157,20.012z M191.421,22.388c-0.312,0.6-0.264,1.632-0.264,2.376v2.064
				c0,0.024,0.864-0.72,1.344-1.176c0.432-0.408,0.768-0.864,0.936-1.584c0.192-0.72,0.12-1.488-0.336-1.992
				C192.789,21.716,191.925,21.428,191.421,22.388z"/>
		</g>
		<g>
			<g>
				<path d="M48.912,39.214c2.664,0.024,5.184,1.032,5.376,3.264c0.144,1.632-2.016,3.12-4.68,3.12
					c-2.688-0.024-5.184-1.008-5.4-3.24C44.063,40.702,46.248,39.214,48.912,39.214z M49.56,45.046c1.152,0,1.896-1.104,1.776-1.992
					c-0.264-1.752-0.864-3.168-2.448-3.168c-1.152,0-1.824,1.128-1.68,2.016C47.472,43.654,47.976,45.046,49.56,45.046z"/>
			</g>
			<path fill="none" stroke="#000000" d="M42.2,42.926h14.667"/>
		</g>
		<g>
			<path d="M115.491,30.678c0,0.216,0,1.536,0,1.536c0.912-0.816,1.416-0.984,2.424-1.008c1.2-0.024,1.968,1.176,1.992,2.136
				c0.024,0.504-0.12,1.032-0.312,1.44c-0.216,0.528-0.792,0.936-1.176,1.32c-0.432,0.432-3.552,2.568-3.552,2.616V24.534h0.624
				C115.491,24.534,115.515,27.51,115.491,30.678z M115.755,33.054c-0.312,0.6-0.264,1.632-0.264,2.376v2.064
				c0,0.024,0.864-0.72,1.344-1.176c0.432-0.408,0.768-0.864,0.936-1.584c0.192-0.72,0.12-1.488-0.336-1.992
				C117.123,32.382,116.259,32.094,115.755,33.054z"/>
		</g>
	</g>
</svg>
