<?xml version="1.0" encoding="utf-8"?>
<!-- Generator: Adobe Illustrator 10.0, SVG Export Plug-In . SVG Version: 3.0.0 Build 76)  -->
<!DOCTYPE svg PUBLIC "-//W3C//DTD SVG 1.0//EN"    "http://www.w3.org/TR/2001/REC-SVG-20010904/DTD/svg10.dtd" [
	<!ENTITY ns_flows "http://ns.adobe.com/Flows/1.0/">
	<!ENTITY ns_extend "http://ns.adobe.com/Extensibility/1.0/">
	<!ENTITY ns_ai "http://ns.adobe.com/AdobeIllustrator/10.0/">
	<!ENTITY ns_svg "http://www.w3.org/2000/svg">
	<!ENTITY ns_xlink "http://www.w3.org/1999/xlink">
]>
<svg  xmlns:x="&ns_extend;" xmlns:i="&ns_ai;" xmlns:graph="&ns_graphs;"
	 xmlns="&ns_svg;" xmlns:xlink="&ns_xlink;" xmlns:a="http://ns.adobe.com/AdobeSVGViewerExtensions/3.0/" width="268" height="62"
	 viewBox="-0.467 -0.274 268 62" overflow="visible" enable-background="new -0.467 -0.274 268 62" xml:space="preserve">
	<g id="Layer_1_2_">
		<g>
			<path d="M67.335,61.983l-1.792-8.088h0.964l0.838,4.092c0.209,1.02,0.398,2.016,0.524,2.796h0.021
				c0.115-0.804,0.335-1.764,0.576-2.808l0.943-4.08h0.954L71.223,58c0.199,0.972,0.388,1.92,0.492,2.772h0.021
				c0.147-0.888,0.346-1.788,0.566-2.796l0.933-4.08h0.933l-2.001,8.088h-0.954l-0.891-4.2c-0.22-1.044-0.367-1.836-0.461-2.652
				H69.84c-0.115,0.816-0.283,1.596-0.545,2.64l-1.006,4.212H67.335z"/>
		</g>
		<g>
			<path d="M105.336,61.984l-1.792-8.088h0.964l0.838,4.092c0.209,1.02,0.398,2.016,0.524,2.796h0.021
				c0.115-0.804,0.335-1.764,0.576-2.808l0.943-4.08h0.954L109.224,58c0.199,0.972,0.388,1.92,0.492,2.772h0.021
				c0.147-0.888,0.346-1.788,0.566-2.796l0.933-4.08h0.933l-2.001,8.088h-0.954l-0.891-4.2c-0.22-1.044-0.367-1.836-0.461-2.652
				h-0.021c-0.115,0.816-0.283,1.596-0.545,2.64l-1.006,4.212H105.336z"/>
		</g>
		<g>
			<path d="M185.002,59.983l-1.792-8.088h0.964l0.838,4.092c0.209,1.02,0.398,2.016,0.524,2.796h0.021
				c0.115-0.804,0.335-1.764,0.576-2.808l0.943-4.08h0.954L188.89,56c0.199,0.972,0.388,1.92,0.492,2.772h0.021
				c0.147-0.888,0.346-1.788,0.566-2.796l0.933-4.08h0.933l-2.001,8.088h-0.954l-0.891-4.2c-0.22-1.044-0.367-1.836-0.461-2.652
				h-0.021c-0.115,0.816-0.283,1.596-0.545,2.64l-1.006,4.212H185.002z"/>
		</g>
		<g>
			<path d="M139.651,55.247c0-0.612-0.021-1.092-0.042-1.572h0.807l0.042,0.936h0.031c0.283-0.552,0.754-1.068,1.603-1.068
				c0.681,0,1.205,0.48,1.425,1.164h0.021c0.157-0.336,0.367-0.576,0.576-0.756c0.304-0.264,0.629-0.408,1.111-0.408
				c0.681,0,1.676,0.504,1.676,2.52v3.42h-0.901v-3.288c0-1.128-0.367-1.788-1.101-1.788c-0.534,0-0.932,0.444-1.1,0.948
				c-0.042,0.156-0.073,0.348-0.073,0.528v3.6h-0.901v-3.48c0-0.936-0.356-1.596-1.059-1.596c-0.566,0-0.995,0.528-1.142,1.056
				c-0.052,0.156-0.073,0.336-0.073,0.516v3.504h-0.901V55.247z"/>
			<path d="M148.317,58.282c0.262,0.18,0.859,0.48,1.509,0.48c1.174,0,1.551-0.852,1.541-1.512c-0.011-1.092-0.87-1.56-1.761-1.56
				h-0.513v-0.792h0.513c0.671,0,1.52-0.396,1.52-1.32c0-0.624-0.346-1.176-1.194-1.176c-0.545,0-1.069,0.276-1.362,0.516
				l-0.251-0.768c0.367-0.3,1.058-0.6,1.792-0.6c1.341,0,1.949,0.912,1.949,1.86c0,0.816-0.43,1.5-1.257,1.848v0.024
				c0.838,0.18,1.519,0.9,1.519,1.992c0,1.248-0.859,2.34-2.483,2.34c-0.765,0-1.436-0.276-1.771-0.528L148.317,58.282z"/>
		</g>
		<g>
			<path d="M217.984,55.581c0-0.612-0.021-1.092-0.042-1.572h0.807l0.042,0.936h0.031c0.283-0.552,0.754-1.068,1.603-1.068
				c0.681,0,1.205,0.48,1.425,1.164h0.021c0.157-0.336,0.367-0.576,0.576-0.756c0.304-0.264,0.629-0.408,1.111-0.408
				c0.681,0,1.676,0.504,1.676,2.52v3.42h-0.901v-3.288c0-1.128-0.367-1.788-1.101-1.788c-0.534,0-0.932,0.444-1.1,0.948
				c-0.042,0.156-0.073,0.348-0.073,0.528v3.6h-0.901v-3.48c0-0.936-0.356-1.596-1.059-1.596c-0.566,0-0.995,0.528-1.142,1.056
				c-0.052,0.156-0.073,0.336-0.073,0.516v3.504h-0.901V55.581z"/>
			<path d="M226.65,58.616c0.262,0.18,0.859,0.48,1.509,0.48c1.174,0,1.551-0.852,1.541-1.512c-0.011-1.092-0.87-1.56-1.761-1.56
				h-0.513v-0.792h0.513c0.671,0,1.52-0.396,1.52-1.32c0-0.624-0.346-1.176-1.194-1.176c-0.545,0-1.069,0.276-1.362,0.516
				l-0.251-0.768c0.367-0.3,1.058-0.6,1.792-0.6c1.341,0,1.949,0.912,1.949,1.86c0,0.816-0.43,1.5-1.257,1.848v0.024
				c0.838,0.18,1.519,0.9,1.519,1.992c0,1.248-0.859,2.34-2.483,2.34c-0.765,0-1.436-0.276-1.771-0.528L226.65,58.616z"/>
		</g>
		<g>
			<path fill="none" stroke="#000000" d="M0.072,6.225h267.157"/>
			<path fill="none" stroke="#000000" d="M0.072,21.337h267.157"/>
			<path fill="none" stroke="#000000" d="M0.204,28.459h267.158"/>
			<path fill="none" stroke="#000000" d="M0,35.843h267.157"/>
			<path fill="none" stroke="#000000" d="M0,13.479h267.157"/>
		</g>
		<g>
			<path d="M11.818,35.415c-4.944-2.352-5.736-5.376-5.952-8.472c-0.24-3.36,1.896-6.768,3.888-8.664
				c1.152-1.08,2.4-2.136,3.888-3.264c-0.048-0.84-0.24-1.176-0.336-2.376c-0.024-0.504-0.336-2.856,0.168-5.568
				c0.312-1.608,2.328-5.4,3.72-5.424c1.08-0.024,2.736,4.296,2.784,6.456c0.072,3.336-0.72,4.848-1.704,6.576
				c-0.504,0.864-1.032,1.464-1.584,2.136c-0.576,0.696-1.224,1.104-1.824,1.632c0,0,0.768,4.344,0.792,4.656
				c1.536-0.192,3.408,0.36,4.08,0.84c1.704,1.272,2.352,3.024,2.472,4.728c0.216,2.712-1.272,5.568-4.56,6.936
				c0,0,0.504,3.456,0.624,4.176c0.264,1.896,0.216,3.096-0.192,3.864c-0.696,1.296-1.824,2.496-4.008,2.64
				c-1.68,0.096-4.992-0.744-5.16-3.384c-0.096-1.56,0.6-3.24,2.496-3.36c1.152-0.096,2.52,0.864,2.616,2.232
				c0.096,1.176-0.672,2.4-2.664,2.952c0.312,0.432,1.248,0.936,2.592,0.936c1.392,0,2.832-0.936,3.528-2.184
				c0.432-0.816,0.384-2.28,0.216-3.624c-0.072-0.456-0.648-4.08-0.648-4.08C15.274,36.063,12.826,35.895,11.818,35.415z
				 M12.298,29.727c0.048,1.152,1.008,2.496,1.896,2.952c-0.12,0.072-0.24,0.264-0.24,0.264c-0.984-0.48-1.824-1.272-2.04-1.56
				c-0.696-0.936-0.984-1.464-1.08-2.88c-0.096-1.32,0.624-3.096,2.232-4.344c0.84-0.624,1.248-0.768,1.968-0.936l-0.72-4.344
				c-0.744,0.432-3.816,2.904-5.112,4.92c-1.152,1.8-1.848,3.24-1.704,5.016c0.288,4.008,4.68,7.296,9.432,6.168
				c0,0-1.416-8.52-1.392-8.52C12.922,26.559,12.226,28.575,12.298,29.727z M14.242,14.51c2.088-1.632,4.92-4.704,4.752-7.08
				c-0.048-0.744-0.36-2.088-1.44-2.064C15.082,5.39,13.69,10.55,14.242,14.51z M17.506,34.791c2.76-0.936,2.88-3.312,2.784-4.728
				c-0.096-1.176-0.624-3.816-4.128-3.648L17.506,34.791z"/>
		</g>
		<g>
			<path d="M202.236,13.511c2.664,0.024,5.184,1.032,5.376,3.264c0.144,1.632-2.016,3.12-4.68,3.12
				c-2.688-0.024-5.184-1.008-5.4-3.24C197.388,14.999,199.572,13.511,202.236,13.511z M202.884,19.343
				c1.152,0,1.896-1.104,1.776-1.992c-0.264-1.752-0.864-3.168-2.448-3.168c-1.152,0-1.824,1.128-1.68,2.016
				C200.796,17.951,201.3,19.343,202.884,19.343z"/>
		</g>
		<g>
			<path d="M123.904,24.845c2.664,0.024,5.184,1.032,5.376,3.264c0.144,1.632-2.016,3.12-4.68,3.12
				c-2.688-0.024-5.184-1.008-5.4-3.24C119.056,26.333,121.24,24.845,123.904,24.845z M124.552,30.677
				c1.152,0,1.896-1.104,1.776-1.992c-0.264-1.752-0.864-3.168-2.448-3.168c-1.152,0-1.824,1.128-1.68,2.016
				C122.464,29.285,122.968,30.677,124.552,30.677z"/>
		</g>
		<g>
			<path d="M166.57,17.511c2.664,0.024,5.184,1.032,5.376,3.264c0.144,1.632-2.016,3.12-4.68,3.12
				c-2.688-0.024-5.184-1.008-5.4-3.24C161.722,18.999,163.906,17.511,166.57,17.511z M167.218,23.343
				c1.152,0,1.896-1.104,1.776-1.992c-0.264-1.752-0.864-3.168-2.448-3.168c-1.152,0-1.824,1.128-1.68,2.016
				C165.13,21.951,165.634,23.343,167.218,23.343z"/>
		</g>
		<g>
			<path d="M240.571,6.511c2.664,0.024,5.184,1.032,5.376,3.264c0.144,1.632-2.016,3.12-4.68,3.12
				c-2.688-0.024-5.184-1.008-5.4-3.24C235.723,7.999,237.907,6.511,240.571,6.511z M241.219,12.343
				c1.152,0,1.896-1.104,1.776-1.992c-0.264-1.752-0.864-3.168-2.448-3.168c-1.152,0-1.824,1.128-1.68,2.016
				C239.131,10.951,239.635,12.343,241.219,12.343z"/>
		</g>
		<g>
			<path d="M37.824,31.811c0,0.216,0,1.536,0,1.536c0.912-0.816,1.416-0.984,2.424-1.008c1.2-0.024,1.968,1.176,1.992,2.136
				c0.024,0.504-0.12,1.032-0.312,1.44c-0.216,0.528-0.792,0.936-1.176,1.32c-0.432,0.432-3.552,2.568-3.552,2.616V25.667h0.624
				C37.824,25.667,37.848,28.643,37.824,31.811z M38.088,34.187c-0.312,0.6-0.264,1.632-0.264,2.376v2.064
				c0,0.024,0.864-0.72,1.344-1.176c0.432-0.408,0.768-0.864,0.936-1.584c0.192-0.72,0.12-1.488-0.336-1.992
				C39.456,33.515,38.592,33.227,38.088,34.187z"/>
		</g>
		<g>
			<path d="M50.578,32.347c2.664,0.024,5.184,1.032,5.376,3.264c0.144,1.632-2.016,3.12-4.68,3.12
				c-2.688-0.024-5.184-1.008-5.4-3.24C45.73,33.835,47.914,32.347,50.578,32.347z M51.226,38.179c1.152,0,1.896-1.104,1.776-1.992
				c-0.264-1.752-0.864-3.168-2.448-3.168c-1.152,0-1.824,1.128-1.68,2.016C49.138,36.787,49.642,38.179,51.226,38.179z"/>
		</g>
		<g>
			<path d="M153.49,17.811c0,0.216,0,1.536,0,1.536c0.912-0.816,1.416-0.984,2.424-1.008c1.2-0.024,1.968,1.176,1.992,2.136
				c0.024,0.504-0.12,1.032-0.312,1.44c-0.216,0.528-0.792,0.936-1.176,1.32c-0.432,0.432-3.552,2.568-3.552,2.616V11.667h0.624
				C153.49,11.667,153.514,14.643,153.49,17.811z M153.754,20.187c-0.312,0.6-0.264,1.632-0.264,2.376v2.064
				c0,0.024,0.864-0.72,1.344-1.176c0.432-0.408,0.768-0.864,0.936-1.584c0.192-0.72,0.12-1.488-0.336-1.992
				C155.122,19.515,154.258,19.227,153.754,20.187z"/>
		</g>
		<g>
			<path d="M227.824,6.144c0,0.216,0,1.536,0,1.536c0.912-0.816,1.416-0.984,2.424-1.008c1.2-0.024,1.968,1.176,1.992,2.136
				c0.024,0.504-0.12,1.032-0.312,1.44c-0.216,0.528-0.792,0.936-1.176,1.32C230.32,12,227.2,14.136,227.2,14.184V0h0.624
				C227.824,0,227.848,2.976,227.824,6.144z M228.088,8.52c-0.312,0.6-0.264,1.632-0.264,2.376v2.064
				c0,0.024,0.864-0.72,1.344-1.176c0.432-0.408,0.768-0.864,0.936-1.584c0.192-0.72,0.12-1.488-0.336-1.992
				C229.456,7.848,228.592,7.56,228.088,8.52z"/>
		</g>
		<g>
			<path d="M86.237,28.844c2.664,0.024,5.184,1.032,5.376,3.264c0.144,1.632-2.016,3.12-4.68,3.12
				c-2.688-0.024-5.184-1.008-5.4-3.24C81.389,30.332,83.573,28.844,86.237,28.844z M86.885,34.676c1.152,0,1.896-1.104,1.776-1.992
				c-0.264-1.752-0.864-3.168-2.448-3.168c-1.152,0-1.824,1.128-1.68,2.016C84.797,33.284,85.301,34.676,86.885,34.676z"/>
		</g>
	</g>
</svg>
