<?xml version="1.0" encoding="utf-8"?>
<!-- Generator: Adobe Illustrator 10.0, SVG Export Plug-In . SVG Version: 3.0.0 Build 76)  -->
<!DOCTYPE svg PUBLIC "-//W3C//DTD SVG 1.0//EN"    "http://www.w3.org/TR/2001/REC-SVG-20010904/DTD/svg10.dtd" [
	<!ENTITY ns_flows "http://ns.adobe.com/Flows/1.0/">
	<!ENTITY ns_extend "http://ns.adobe.com/Extensibility/1.0/">
	<!ENTITY ns_ai "http://ns.adobe.com/AdobeIllustrator/10.0/">
	<!ENTITY ns_svg "http://www.w3.org/2000/svg">
	<!ENTITY ns_xlink "http://www.w3.org/1999/xlink">
]>
<svg  xmlns:x="&ns_extend;" xmlns:i="&ns_ai;" xmlns:graph="&ns_graphs;"
	 xmlns="&ns_svg;" xmlns:xlink="&ns_xlink;" xmlns:a="http://ns.adobe.com/AdobeSVGViewerExtensions/3.0/" width="426" height="284"
	 viewBox="0.189 0.088 426 284" overflow="visible" enable-background="new 0.189 0.088 426 284" xml:space="preserve">
	<g id="Layer_1_2_">
		<g>
			<path fill="none" stroke="#000000" d="M4.444,13.633h408.434"/>
			<path fill="none" stroke="#000000" d="M4.444,28.745h408.434"/>
			<path fill="none" stroke="#000000" d="M4.646,35.867h408.435"/>
			<path fill="none" stroke="#000000" d="M4.334,43.251h408.433"/>
			<path fill="none" stroke="#000000" d="M4.334,20.887h408.433"/>
		</g>
		<g>
			<path fill="#FF0000" d="M343.276,48.978c-0.713,0-1.217-0.536-1.217-1.25s0.524-1.25,1.259-1.25s1.237,0.516,1.237,1.25
				c0,0.714-0.503,1.25-1.258,1.25H343.276z"/>
		</g>
		<g>
			<path d="M43.848,24.062v1.584c0,0.96,1.128,0.936,1.128,0.936v0.624h-5.208v-0.624c0,0,1.176,0.048,1.152-0.888v-1.632h-4.44
				l-0.432-0.456c2.904-3.912,2.928-4.632,3.624-8.184h4.152c-0.984,1.824-4.296,5.256-6.624,7.968h3.72v-2.952l2.928-3.216v6.168
				h1.728v0.672H43.848z"/>
		</g>
		<g>
			<path d="M28.166,10.166V6.254h0.696v3.672l2.352-0.768V5.654h0.696v3.288l0.936-0.312v2.496l-0.936,0.312v3.552l0.936-0.288
				v2.472l-0.936,0.312v3.912h-0.696v-3.696l-2.352,0.768v3.552h-0.696V18.71l-1.032,0.336V16.55l1.032-0.336v-3.576l-1.032,0.336
				v-2.472L28.166,10.166z M28.861,12.422v3.576l2.352-0.768v-3.576L28.861,12.422z"/>
		</g>
		<g>
			<path d="M14.658,42.81c-4.944-2.352-5.736-5.376-5.952-8.472c-0.24-3.36,1.896-6.768,3.888-8.664
				c1.152-1.08,2.4-2.136,3.888-3.264c-0.048-0.84-0.24-1.176-0.336-2.376c-0.024-0.504-0.336-2.856,0.168-5.568
				c0.312-1.608,2.328-5.4,3.72-5.424c1.08-0.024,2.736,4.296,2.784,6.456c0.072,3.336-0.72,4.848-1.704,6.576
				c-0.504,0.864-1.032,1.464-1.584,2.136c-0.576,0.696-1.224,1.104-1.824,1.632c0,0,0.768,4.344,0.792,4.656
				c1.536-0.192,3.408,0.36,4.08,0.84c1.704,1.272,2.352,3.024,2.472,4.728c0.216,2.712-1.272,5.568-4.56,6.936
				c0,0,0.504,3.456,0.624,4.176c0.264,1.896,0.216,3.096-0.192,3.864c-0.696,1.296-1.824,2.496-4.008,2.64
				c-1.68,0.096-4.992-0.744-5.16-3.384c-0.096-1.56,0.6-3.24,2.496-3.36c1.152-0.096,2.52,0.864,2.616,2.232
				c0.096,1.176-0.672,2.4-2.664,2.952c0.312,0.432,1.248,0.936,2.592,0.936c1.392,0,2.832-0.936,3.528-2.184
				c0.432-0.816,0.384-2.28,0.216-3.624c-0.072-0.456-0.648-4.08-0.648-4.08C18.114,43.458,15.666,43.29,14.658,42.81z
				 M15.138,37.122c0.048,1.152,1.008,2.496,1.896,2.952c-0.12,0.072-0.24,0.264-0.24,0.264c-0.984-0.48-1.824-1.272-2.04-1.56
				c-0.696-0.936-0.984-1.464-1.08-2.88c-0.096-1.32,0.624-3.096,2.232-4.344c0.84-0.624,1.248-0.768,1.968-0.936l-0.72-4.344
				c-0.744,0.432-3.816,2.904-5.112,4.92c-1.152,1.8-1.848,3.24-1.704,5.016c0.288,4.008,4.68,7.296,9.432,6.168
				c0,0-1.416-8.52-1.392-8.52C15.762,33.954,15.066,35.97,15.138,37.122z M17.082,21.906c2.088-1.632,4.92-4.704,4.752-7.08
				c-0.048-0.744-0.36-2.088-1.44-2.064C17.922,12.786,16.53,17.946,17.082,21.906z M20.346,42.186
				c2.76-0.936,2.88-3.312,2.784-4.728c-0.096-1.176-0.624-3.816-4.128-3.648L20.346,42.186z"/>
		</g>
		<g>
			<path fill="#FF0000" d="M52.751,43.92c0.984,0,1.776,0.36,2.232,0.912V25.608h0.456v20.4c0,0.336-0.048,0.672-0.168,1.056
				c-0.648,1.704-2.784,3.072-4.8,3.048c-2.016-0.024-3.144-1.44-2.52-3.144S50.735,43.896,52.751,43.92z"/>
		</g>
		<g>
			<path fill="#FF0000" d="M191.428,36.037c0.456-1.248,1.488-2.256,2.256-2.64c0.768-0.36,1.752-0.552,2.88-0.456
				c0.576,0.048,1.584,0.216,2.16,0.816V14.533h0.456v20.496c0,0.096-0.024,0.168-0.024,0.24c-0.048,0.432-0.168,0.792-0.264,1.032
				c-0.456,1.248-1.44,2.088-2.184,2.52s-1.872,0.744-3.24,0.6c-0.528-0.072-1.68-0.168-2.16-1.032
				C190.924,37.741,191.26,36.518,191.428,36.037z M194.309,38.053c0.552-0.288,0.96-0.528,1.464-0.792
				c0.48-0.288,0.912-0.552,1.44-0.888c0.72-0.456,1.656-1.248,1.176-2.064c-0.48-0.816-1.656-0.408-2.4-0.048
				c-0.576,0.288-1.032,0.528-1.512,0.816c-0.48,0.264-0.912,0.504-1.416,0.84c-0.72,0.456-1.656,1.272-1.152,2.088
				C192.364,38.821,193.541,38.414,194.309,38.053z"/>
		</g>
		<g>
			<path fill="none" stroke="#000000" d="M0.113,84.633h420.091"/>
			<path fill="none" stroke="#000000" d="M0.113,99.745h420.091"/>
			<path fill="none" stroke="#000000" d="M0.321,106.868h420.091"/>
			<path fill="none" stroke="#000000" d="M0,114.251h420.088"/>
			<path fill="none" stroke="#000000" d="M0,91.887h420.088"/>
		</g>
		<g>
			<path d="M23.832,81.167v-3.912h0.696v3.672l2.352-0.768v-3.504h0.696v3.288l0.936-0.312v2.496l-0.936,0.312v3.552l0.936-0.288
				v2.472l-0.936,0.312v3.912h-0.696v-3.696l-2.352,0.768v3.552h-0.696V89.71l-1.032,0.336v-2.496l1.032-0.336v-3.576l-1.032,0.336
				v-2.472L23.832,81.167z M24.527,83.423v3.576l2.352-0.768v-3.576L24.527,83.423z"/>
		</g>
		<g>
			<path d="M10.324,113.811c-4.944-2.352-5.736-5.376-5.952-8.472c-0.24-3.36,1.896-6.768,3.888-8.664
				c1.152-1.08,2.4-2.136,3.888-3.264c-0.048-0.84-0.24-1.176-0.336-2.376c-0.024-0.504-0.336-2.856,0.168-5.568
				c0.312-1.608,2.328-5.4,3.72-5.424c1.08-0.024,2.736,4.296,2.784,6.456c0.072,3.336-0.72,4.848-1.704,6.576
				c-0.504,0.864-1.032,1.464-1.584,2.136c-0.576,0.696-1.224,1.104-1.824,1.632c0,0,0.768,4.344,0.792,4.656
				c1.536-0.192,3.408,0.36,4.08,0.84c1.704,1.272,2.352,3.024,2.472,4.728c0.216,2.712-1.272,5.568-4.56,6.936
				c0,0,0.504,3.456,0.624,4.176c0.264,1.896,0.216,3.096-0.192,3.864c-0.696,1.296-1.824,2.496-4.008,2.64
				c-1.68,0.096-4.992-0.744-5.16-3.384c-0.096-1.56,0.6-3.24,2.496-3.36c1.152-0.096,2.52,0.864,2.616,2.232
				c0.096,1.176-0.672,2.4-2.664,2.952c0.312,0.432,1.248,0.936,2.592,0.936c1.392,0,2.832-0.936,3.528-2.184
				c0.432-0.816,0.384-2.28,0.216-3.624c-0.072-0.456-0.648-4.08-0.648-4.08C13.78,114.458,11.332,114.291,10.324,113.811z
				 M10.804,108.123c0.048,1.152,1.008,2.496,1.896,2.952c-0.12,0.072-0.24,0.264-0.24,0.264c-0.984-0.48-1.824-1.272-2.04-1.56
				c-0.696-0.936-0.984-1.464-1.08-2.88c-0.096-1.32,0.624-3.096,2.232-4.344c0.84-0.624,1.248-0.768,1.968-0.936l-0.72-4.344
				c-0.744,0.432-3.816,2.904-5.112,4.92c-1.152,1.8-1.848,3.24-1.704,5.016c0.288,4.008,4.68,7.296,9.432,6.168
				c0,0-1.416-8.52-1.392-8.52C11.428,104.955,10.732,106.971,10.804,108.123z M12.748,92.906c2.088-1.632,4.92-4.704,4.752-7.08
				c-0.048-0.744-0.36-2.088-1.44-2.064C13.588,83.786,12.196,88.946,12.748,92.906z M16.012,113.187
				c2.76-0.936,2.88-3.312,2.784-4.728c-0.096-1.176-0.624-3.816-4.128-3.648L16.012,113.187z"/>
		</g>
		<g>
			<path fill="#FF0000" d="M84.084,43.92c0.984,0,1.776,0.36,2.232,0.912V25.608h0.456v20.4c0,0.336-0.048,0.672-0.168,1.056
				c-0.648,1.704-2.784,3.072-4.8,3.048c-2.016-0.024-3.144-1.44-2.52-3.144S82.068,43.896,84.084,43.92z"/>
		</g>
		<path stroke="#000000" d="M68.189,13.421v30"/>
		<g>
			<path fill="#FF0000" d="M105.418,43.92c0.984,0,1.776,0.36,2.232,0.912V25.608h0.456v20.4c0,0.336-0.048,0.672-0.168,1.056
				c-0.648,1.704-2.784,3.072-4.8,3.048c-2.016-0.024-3.144-1.44-2.52-3.144S103.402,43.896,105.418,43.92z"/>
		</g>
		<g>
			<path fill="#FF0000" d="M127.417,43.92c0.984,0,1.776,0.36,2.232,0.912V25.608h0.456v20.4c0,0.336-0.048,0.672-0.168,1.056
				c-0.648,1.704-2.784,3.072-4.8,3.048c-2.016-0.024-3.144-1.44-2.52-3.144S125.401,43.896,127.417,43.92z"/>
		</g>
		<g>
			<path fill="#FF0000" d="M146.751,43.92c0.984,0,1.776,0.36,2.232,0.912V25.608h0.456v20.4c0,0.336-0.048,0.672-0.168,1.056
				c-0.648,1.704-2.784,3.072-4.8,3.048c-2.016-0.024-3.144-1.44-2.52-3.144S144.735,43.896,146.751,43.92z"/>
		</g>
		<path stroke="#000000" d="M161.855,13.088v30"/>
		<g>
			<path fill="#FF0000" d="M80.033,63.903c0,1.344-0.276,2.148-0.828,2.664c-0.576,0.516-1.392,0.696-2.124,0.696
				c-0.696,0-1.464-0.168-1.932-0.48l0.264-0.816c0.384,0.252,0.984,0.468,1.704,0.468c1.08,0,1.872-0.564,1.872-2.04v-0.636h-0.024
				c-0.312,0.54-0.948,0.972-1.848,0.972c-1.44,0-2.472-1.224-2.472-2.844c0-1.968,1.284-3.072,2.628-3.072
				c1.008,0,1.548,0.516,1.812,0.996h0.024l0.036-0.864h0.936c-0.036,0.408-0.048,0.876-0.048,1.584V63.903z M78.977,61.227
				c0-0.168-0.012-0.324-0.06-0.468c-0.192-0.624-0.696-1.128-1.476-1.128c-1.008,0-1.728,0.852-1.728,2.208
				c0,1.128,0.588,2.088,1.716,2.088c0.66,0,1.248-0.408,1.464-1.092c0.06-0.168,0.084-0.372,0.084-0.564V61.227z"/>
			<path fill="#FF0000" d="M85.864,63.363c0,0.504,0.024,0.996,0.084,1.392H85l-0.096-0.732h-0.036
				c-0.312,0.456-0.948,0.864-1.776,0.864c-1.176,0-1.776-0.828-1.776-1.668c0-1.404,1.248-2.172,3.492-2.16v-0.12
				c0-0.48-0.132-1.356-1.32-1.344c-0.552,0-1.116,0.156-1.524,0.432l-0.24-0.708c0.48-0.3,1.188-0.504,1.92-0.504
				c1.788,0,2.22,1.212,2.22,2.376V63.363z M84.833,61.791c-1.152-0.024-2.46,0.18-2.46,1.308c0,0.696,0.456,1.008,0.984,1.008
				c0.768,0,1.26-0.48,1.428-0.972c0.036-0.108,0.048-0.228,0.048-0.336V61.791z"/>
			<path fill="#FF0000" d="M87.809,58.947l1.14,3.252c0.192,0.54,0.348,1.02,0.468,1.5h0.036c0.132-0.48,0.3-0.96,0.492-1.5
				l1.128-3.252h1.104l-2.28,5.808h-1.008l-2.208-5.808H87.809z"/>
			<path fill="#FF0000" d="M93.641,62.031c0.024,1.428,0.924,2.016,1.98,2.016c0.756,0,1.224-0.132,1.608-0.288l0.192,0.744
				c-0.372,0.168-1.02,0.372-1.944,0.372c-1.776,0-2.856-1.188-2.856-2.928c0-1.764,1.044-3.144,2.736-3.144
				c1.896,0,2.388,1.668,2.388,2.736c0,0.216-0.012,0.384-0.036,0.504L93.641,62.031z M96.725,61.275
				c0.012-0.66-0.276-1.716-1.452-1.716c-1.08,0-1.536,0.984-1.62,1.716H96.725z"/>
			<path fill="#FF0000" d="M104.14,60.519c0-0.612-0.024-1.092-0.048-1.572h0.924l0.048,0.936h0.036
				c0.324-0.552,0.864-1.068,1.836-1.068c0.78,0,1.38,0.48,1.632,1.164h0.024c0.18-0.336,0.42-0.576,0.66-0.756
				c0.348-0.264,0.72-0.408,1.272-0.408c0.78,0,1.92,0.504,1.92,2.52v3.42h-1.032v-3.288c0-1.128-0.42-1.788-1.26-1.788
				c-0.612,0-1.068,0.444-1.26,0.948c-0.048,0.156-0.084,0.348-0.084,0.528v3.6h-1.032v-3.48c0-0.936-0.408-1.596-1.212-1.596
				c-0.648,0-1.14,0.528-1.308,1.056c-0.06,0.156-0.084,0.336-0.084,0.516v3.504h-1.032V60.519z"/>
			<path fill="#FF0000" d="M114.376,58.947l1.26,3.432c0.144,0.384,0.288,0.84,0.384,1.188h0.024
				c0.108-0.348,0.228-0.792,0.372-1.212l1.152-3.408h1.116l-1.584,4.14c-0.756,1.992-1.272,3.012-1.992,3.648
				c-0.528,0.444-1.032,0.624-1.296,0.672l-0.264-0.888c0.264-0.072,0.612-0.24,0.924-0.516c0.288-0.228,0.636-0.636,0.888-1.176
				c0.048-0.108,0.084-0.18,0.084-0.252c0-0.06-0.024-0.144-0.084-0.264l-2.136-5.364H114.376z"/>
			<path fill="#FF0000" d="M124.732,56.235h1.056v8.52h-1.056V56.235z"/>
			<path fill="#FF0000" d="M129.904,64.887c-1.56,0-2.784-1.152-2.784-2.988c0-1.944,1.284-3.084,2.88-3.084
				c1.668,0,2.796,1.212,2.796,2.976c0,2.16-1.5,3.096-2.88,3.096H129.904z M129.94,64.095c1.008,0,1.764-0.948,1.764-2.268
				c0-0.984-0.492-2.22-1.74-2.22c-1.236,0-1.776,1.152-1.776,2.256c0,1.272,0.72,2.232,1.74,2.232H129.94z"/>
			<path fill="#FF0000" d="M134.428,58.947l1.14,3.252c0.192,0.54,0.348,1.02,0.468,1.5h0.036c0.132-0.48,0.3-0.96,0.492-1.5
				l1.128-3.252h1.104l-2.28,5.808h-1.008l-2.208-5.808H134.428z"/>
			<path fill="#FF0000" d="M140.26,62.031c0.024,1.428,0.924,2.016,1.98,2.016c0.756,0,1.224-0.132,1.608-0.288l0.192,0.744
				c-0.372,0.168-1.02,0.372-1.944,0.372c-1.776,0-2.856-1.188-2.856-2.928c0-1.764,1.044-3.144,2.736-3.144
				c1.896,0,2.388,1.668,2.388,2.736c0,0.216-0.012,0.384-0.036,0.504L140.26,62.031z M143.344,61.275
				c0.012-0.66-0.276-1.716-1.452-1.716c-1.08,0-1.536,0.984-1.62,1.716H143.344z"/>
			<path fill="#FF0000" d="M154.852,63.363c0,0.504,0.024,0.996,0.084,1.392h-0.948l-0.096-0.732h-0.036
				c-0.312,0.456-0.948,0.864-1.776,0.864c-1.176,0-1.776-0.828-1.776-1.668c0-1.404,1.248-2.172,3.492-2.16v-0.12
				c0-0.48-0.132-1.356-1.32-1.344c-0.552,0-1.116,0.156-1.524,0.432l-0.24-0.708c0.48-0.3,1.188-0.504,1.92-0.504
				c1.788,0,2.22,1.212,2.22,2.376V63.363z M153.82,61.791c-1.152-0.024-2.46,0.18-2.46,1.308c0,0.696,0.456,1.008,0.984,1.008
				c0.768,0,1.26-0.48,1.428-0.972c0.036-0.108,0.048-0.228,0.048-0.336V61.791z"/>
			<path fill="#FF0000" d="M175.947,64.551c-0.276,0.132-0.888,0.336-1.668,0.336c-1.752,0-2.892-1.188-2.892-2.976
				c0-1.788,1.224-3.096,3.12-3.096c0.624,0,1.176,0.156,1.464,0.312l-0.24,0.804c-0.252-0.132-0.648-0.276-1.224-0.276
				c-1.332,0-2.052,0.996-2.052,2.208c0,1.344,0.864,2.172,2.016,2.172c0.6,0,0.996-0.144,1.296-0.276L175.947,64.551z"/>
			<path fill="#FF0000" d="M177.183,56.235h1.056v3.624h0.024c0.168-0.3,0.432-0.576,0.756-0.744c0.312-0.192,0.684-0.3,1.08-0.3
				c0.78,0,2.028,0.48,2.028,2.484v3.456h-1.056v-3.336c0-0.948-0.348-1.728-1.344-1.728c-0.684,0-1.212,0.48-1.416,1.056
				c-0.06,0.144-0.072,0.3-0.072,0.504v3.504h-1.056V56.235z"/>
			<path fill="#FF0000" d="M184.443,62.031c0.024,1.428,0.924,2.016,1.98,2.016c0.756,0,1.224-0.132,1.608-0.288l0.192,0.744
				c-0.372,0.168-1.02,0.372-1.944,0.372c-1.776,0-2.856-1.188-2.856-2.928c0-1.764,1.044-3.144,2.736-3.144
				c1.896,0,2.388,1.668,2.388,2.736c0,0.216-0.012,0.384-0.036,0.504L184.443,62.031z M187.527,61.275
				c0.012-0.66-0.276-1.716-1.452-1.716c-1.08,0-1.536,0.984-1.62,1.716H187.527z"/>
			<path fill="#FF0000" d="M189.867,60.759c0-0.684-0.012-1.272-0.048-1.812h0.924l0.048,1.14h0.036
				c0.264-0.78,0.912-1.272,1.62-1.272c0.108,0,0.192,0.012,0.288,0.036v0.984c-0.12-0.012-0.228-0.024-0.372-0.024
				c-0.744,0-1.272,0.564-1.416,1.344c-0.024,0.156-0.036,0.324-0.036,0.504v3.096h-1.056L189.867,60.759z"/>
			<path fill="#FF0000" d="M196.227,61.131v0.768h-2.964v-0.768H196.227z"/>
			<path fill="#FF0000" d="M202.563,60.759c0-0.684-0.012-1.272-0.048-1.812h0.924l0.048,1.14h0.036
				c0.264-0.78,0.912-1.272,1.62-1.272c0.108,0,0.192,0.012,0.288,0.036v0.984c-0.12-0.012-0.228-0.024-0.372-0.024
				c-0.744,0-1.272,0.564-1.416,1.344c-0.024,0.156-0.036,0.324-0.036,0.504v3.096h-1.056L202.563,60.759z"/>
			<path fill="#FF0000" d="M207.146,58.947l1.26,3.432c0.144,0.384,0.288,0.84,0.384,1.188h0.024
				c0.108-0.348,0.228-0.792,0.372-1.212l1.152-3.408h1.116l-1.584,4.14c-0.756,1.992-1.272,3.012-1.992,3.648
				c-0.528,0.444-1.032,0.624-1.296,0.672l-0.264-0.888c0.264-0.072,0.612-0.24,0.924-0.516c0.288-0.228,0.636-0.636,0.888-1.176
				c0.048-0.108,0.084-0.18,0.084-0.252c0-0.06-0.024-0.144-0.084-0.264l-2.136-5.364H207.146z"/>
			<path fill="#FF0000" d="M221.318,57.555v1.392h1.512v0.804h-1.512v3.132c0,0.72,0.204,1.128,0.792,1.128
				c0.288,0,0.456-0.024,0.612-0.072l0.048,0.804c-0.204,0.072-0.528,0.144-0.936,0.144c-0.492,0-0.888-0.168-1.14-0.444
				c-0.288-0.324-0.408-0.84-0.408-1.524v-3.168h-0.9v-0.804h0.9v-1.068L221.318,57.555z"/>
			<path fill="#FF0000" d="M224.018,56.235h1.056v3.624h0.024c0.168-0.3,0.432-0.576,0.756-0.744c0.312-0.192,0.684-0.3,1.08-0.3
				c0.78,0,2.028,0.48,2.028,2.484v3.456h-1.056v-3.336c0-0.948-0.348-1.728-1.344-1.728c-0.684,0-1.212,0.48-1.416,1.056
				c-0.06,0.144-0.072,0.3-0.072,0.504v3.504h-1.056V56.235z"/>
			<path fill="#FF0000" d="M234.77,63.363c0,0.504,0.024,0.996,0.084,1.392h-0.948l-0.096-0.732h-0.036
				c-0.312,0.456-0.948,0.864-1.776,0.864c-1.176,0-1.776-0.828-1.776-1.668c0-1.404,1.248-2.172,3.492-2.16v-0.12
				c0-0.48-0.132-1.356-1.32-1.344c-0.552,0-1.116,0.156-1.524,0.432l-0.24-0.708c0.48-0.3,1.188-0.504,1.92-0.504
				c1.788,0,2.22,1.212,2.22,2.376V63.363z M233.738,61.791c-1.152-0.024-2.46,0.18-2.46,1.308c0,0.696,0.456,1.008,0.984,1.008
				c0.768,0,1.26-0.48,1.428-0.972c0.036-0.108,0.048-0.228,0.048-0.336V61.791z"/>
			<path fill="#FF0000" d="M237.686,57.555v1.392h1.512v0.804h-1.512v3.132c0,0.72,0.204,1.128,0.792,1.128
				c0.288,0,0.456-0.024,0.612-0.072l0.048,0.804c-0.204,0.072-0.528,0.144-0.936,0.144c-0.492,0-0.888-0.168-1.14-0.444
				c-0.288-0.324-0.408-0.84-0.408-1.524v-3.168h-0.9v-0.804h0.9v-1.068L237.686,57.555z"/>
			<path fill="#FF0000" d="M255.064,56.235h1.056v3.624h0.024c0.168-0.3,0.432-0.576,0.756-0.744c0.312-0.192,0.684-0.3,1.08-0.3
				c0.78,0,2.028,0.48,2.028,2.484v3.456h-1.056v-3.336c0-0.948-0.348-1.728-1.344-1.728c-0.684,0-1.212,0.48-1.416,1.056
				c-0.06,0.144-0.072,0.3-0.072,0.504v3.504h-1.056V56.235z"/>
			<path fill="#FF0000" d="M265.816,63.363c0,0.504,0.024,0.996,0.084,1.392h-0.948l-0.096-0.732h-0.036
				c-0.312,0.456-0.948,0.864-1.776,0.864c-1.176,0-1.776-0.828-1.776-1.668c0-1.404,1.248-2.172,3.492-2.16v-0.12
				c0-0.48-0.132-1.356-1.32-1.344c-0.552,0-1.116,0.156-1.524,0.432l-0.24-0.708c0.48-0.3,1.188-0.504,1.92-0.504
				c1.788,0,2.22,1.212,2.22,2.376V63.363z M264.784,61.791c-1.152-0.024-2.46,0.18-2.46,1.308c0,0.696,0.456,1.008,0.984,1.008
				c0.768,0,1.26-0.48,1.428-0.972c0.036-0.108,0.048-0.228,0.048-0.336V61.791z"/>
			<path fill="#FF0000" d="M267.364,63.687c0.324,0.192,0.876,0.408,1.404,0.408c0.756,0,1.116-0.372,1.116-0.864
				c0-0.504-0.3-0.78-1.068-1.068c-1.056-0.384-1.548-0.948-1.548-1.644c0-0.936,0.768-1.704,2.004-1.704
				c0.588,0,1.104,0.156,1.416,0.36l-0.252,0.756c-0.228-0.132-0.648-0.336-1.188-0.336c-0.624,0-0.96,0.36-0.96,0.792
				c0,0.492,0.336,0.708,1.092,0.996c0.996,0.372,1.524,0.876,1.524,1.752c0,1.032-0.804,1.752-2.16,1.752
				c-0.636,0-1.224-0.168-1.632-0.408L267.364,63.687z"/>
			<path fill="#FF0000" d="M291.064,60.519c0-0.612-0.012-1.092-0.048-1.572h0.936l0.06,0.948h0.024c0.288-0.54,0.96-1.08,1.92-1.08
				c0.804,0,2.052,0.48,2.052,2.472v3.468h-1.056v-3.348c0-0.936-0.348-1.728-1.344-1.728c-0.685,0-1.225,0.492-1.416,1.08
				c-0.048,0.132-0.072,0.324-0.072,0.492v3.504h-1.056V60.519z"/>
			<path fill="#FF0000" d="M300.088,64.887c-1.56,0-2.784-1.152-2.784-2.988c0-1.944,1.284-3.084,2.88-3.084
				c1.668,0,2.796,1.212,2.796,2.976c0,2.16-1.5,3.096-2.88,3.096H300.088z M300.125,64.095c1.008,0,1.764-0.948,1.764-2.268
				c0-0.984-0.492-2.22-1.74-2.22c-1.235,0-1.775,1.152-1.775,2.256c0,1.272,0.72,2.232,1.74,2.232H300.125z"/>
			<path fill="#FF0000" d="M326.92,63.687c0.324,0.192,0.876,0.408,1.404,0.408c0.756,0,1.116-0.372,1.116-0.864
				c0-0.504-0.301-0.78-1.068-1.068c-1.056-0.384-1.548-0.948-1.548-1.644c0-0.936,0.768-1.704,2.004-1.704
				c0.588,0,1.104,0.156,1.416,0.36l-0.252,0.756c-0.229-0.132-0.648-0.336-1.188-0.336c-0.624,0-0.96,0.36-0.96,0.792
				c0,0.492,0.336,0.708,1.092,0.996c0.996,0.372,1.524,0.876,1.524,1.752c0,1.032-0.804,1.752-2.16,1.752
				c-0.636,0-1.224-0.168-1.632-0.408L326.92,63.687z"/>
			<path fill="#FF0000" d="M333.088,57.555v1.392h1.512v0.804h-1.512v3.132c0,0.72,0.204,1.128,0.792,1.128
				c0.288,0,0.456-0.024,0.612-0.072l0.048,0.804c-0.204,0.072-0.528,0.144-0.937,0.144c-0.491,0-0.888-0.168-1.14-0.444
				c-0.288-0.324-0.408-0.84-0.408-1.524v-3.168h-0.899v-0.804h0.899v-1.068L333.088,57.555z"/>
			<path fill="#FF0000" d="M338.081,64.887c-1.561,0-2.784-1.152-2.784-2.988c0-1.944,1.284-3.084,2.88-3.084
				c1.668,0,2.796,1.212,2.796,2.976c0,2.16-1.5,3.096-2.88,3.096H338.081z M338.117,64.095c1.008,0,1.764-0.948,1.764-2.268
				c0-0.984-0.492-2.22-1.74-2.22c-1.235,0-1.775,1.152-1.775,2.256c0,1.272,0.72,2.232,1.739,2.232H338.117z"/>
			<path fill="#FF0000" d="M342.304,60.519c0-0.612-0.012-1.092-0.048-1.572h0.936l0.061,0.948h0.024
				c0.287-0.54,0.96-1.08,1.92-1.08c0.804,0,2.052,0.48,2.052,2.472v3.468h-1.056v-3.348c0-0.936-0.349-1.728-1.345-1.728
				c-0.684,0-1.224,0.492-1.416,1.08c-0.048,0.132-0.071,0.324-0.071,0.492v3.504h-1.057V60.519z"/>
			<path fill="#FF0000" d="M349.564,62.031c0.024,1.428,0.924,2.016,1.98,2.016c0.756,0,1.224-0.132,1.607-0.288l0.192,0.744
				c-0.372,0.168-1.02,0.372-1.944,0.372c-1.775,0-2.855-1.188-2.855-2.928c0-1.764,1.044-3.144,2.736-3.144
				c1.896,0,2.388,1.668,2.388,2.736c0,0.216-0.012,0.384-0.036,0.504L349.564,62.031z M352.648,61.275
				c0.013-0.66-0.275-1.716-1.451-1.716c-1.08,0-1.536,0.984-1.62,1.716H352.648z"/>
			<path fill="#FF0000" d="M355.276,64.887c-0.407,0-0.695-0.324-0.695-0.756s0.3-0.756,0.72-0.756s0.708,0.312,0.708,0.756
				c0,0.432-0.288,0.756-0.72,0.756H355.276z"/>
		</g>
		<g>
			<path fill="#FF0000" d="M51.478,57v8.088h-1.056V57H51.478z"/>
		</g>
		<g>
			<path fill="#FF0000" d="M175.084,40.587c0.984,0,1.776,0.36,2.232,0.912V22.275h0.456v20.4c0,0.336-0.048,0.672-0.168,1.056
				c-0.648,1.704-2.784,3.072-4.8,3.048c-2.016-0.024-3.144-1.44-2.52-3.144S173.068,40.563,175.084,40.587z"/>
		</g>
		<g>
			<path fill="#FF0000" d="M226.417,29.254c0.984,0,1.776,0.36,2.232,0.912V10.942h0.456v20.4c0,0.336-0.048,0.672-0.168,1.056
				c-0.648,1.704-2.784,3.072-4.8,3.048c-2.016-0.024-3.144-1.44-2.52-3.144S224.401,29.23,226.417,29.254z"/>
		</g>
		<g>
			<path fill="#FF0000" d="M258.761,36.37c0.456-1.248,1.488-2.256,2.256-2.64c0.768-0.36,1.752-0.552,2.88-0.456
				c0.576,0.048,1.584,0.216,2.16,0.816V14.866h0.456v20.496c0,0.096-0.024,0.168-0.024,0.24c-0.048,0.432-0.168,0.792-0.264,1.032
				c-0.456,1.248-1.44,2.088-2.184,2.52s-1.872,0.744-3.24,0.6c-0.528-0.072-1.68-0.168-2.16-1.032
				C258.257,38.074,258.593,36.851,258.761,36.37z M261.642,38.386c0.552-0.288,0.96-0.528,1.464-0.792
				c0.48-0.288,0.912-0.552,1.44-0.888c0.72-0.456,1.656-1.248,1.176-2.064c-0.48-0.816-1.656-0.408-2.4-0.048
				c-0.576,0.288-1.032,0.528-1.512,0.816c-0.48,0.264-0.912,0.504-1.416,0.84c-0.72,0.456-1.656,1.272-1.152,2.088
				C259.697,39.154,260.874,38.747,261.642,38.386z"/>
		</g>
		<g>
			<path fill="#FF0000" d="M292.095,43.037c0.456-1.248,1.487-2.256,2.256-2.64c0.768-0.36,1.752-0.552,2.88-0.456
				c0.576,0.048,1.584,0.216,2.16,0.816V21.533h0.456v20.496c0,0.096-0.024,0.168-0.024,0.24c-0.048,0.432-0.168,0.792-0.264,1.032
				c-0.456,1.248-1.44,2.088-2.184,2.52c-0.744,0.432-1.872,0.744-3.24,0.6c-0.528-0.072-1.681-0.168-2.16-1.032
				C291.591,44.741,291.927,43.518,292.095,43.037z M294.975,45.053c0.552-0.288,0.96-0.528,1.464-0.792
				c0.48-0.288,0.912-0.552,1.44-0.888c0.72-0.456,1.655-1.248,1.176-2.064c-0.48-0.816-1.656-0.408-2.4-0.048
				c-0.576,0.288-1.032,0.528-1.512,0.816c-0.48,0.264-0.912,0.504-1.416,0.84c-0.72,0.456-1.656,1.272-1.152,2.088
				C293.031,45.821,294.207,45.414,294.975,45.053z"/>
		</g>
		<g>
			<path fill="#FF0000" d="M331.429,46.371c0.456-1.248,1.487-2.256,2.256-2.64c0.768-0.36,1.752-0.552,2.88-0.456
				c0.576,0.048,1.584,0.216,2.16,0.816V24.867h0.456v20.496c0,0.096-0.024,0.168-0.024,0.24c-0.048,0.432-0.168,0.792-0.264,1.032
				c-0.456,1.248-1.44,2.088-2.184,2.52c-0.744,0.432-1.872,0.744-3.24,0.6c-0.528-0.072-1.681-0.168-2.16-1.032
				C330.925,48.075,331.261,46.851,331.429,46.371z M334.309,48.387c0.552-0.288,0.96-0.528,1.464-0.792
				c0.48-0.288,0.912-0.552,1.44-0.888c0.72-0.456,1.655-1.248,1.176-2.064c-0.48-0.816-1.656-0.408-2.4-0.048
				c-0.576,0.288-1.032,0.528-1.512,0.816c-0.48,0.264-0.912,0.504-1.416,0.84c-0.72,0.456-1.656,1.272-1.152,2.088
				C332.365,49.155,333.541,48.747,334.309,48.387z"/>
		</g>
		<path stroke="#000000" d="M242.522,12.421v30"/>
		<path stroke="#000000" d="M317.189,13.754v30"/>
		<g>
			<path fill="#0A50A1" d="M386.813,56v8.088h-1.056V56H386.813z"/>
		</g>
		<g>
			<path fill="#0A50A1" d="M385.751,33.254c0.983,0,1.775,0.36,2.231,0.912V14.942h0.456v20.4c0,0.336-0.048,0.672-0.168,1.056
				c-0.648,1.704-2.784,3.072-4.8,3.048c-2.017-0.024-3.145-1.44-2.521-3.144S383.735,33.23,385.751,33.254z"/>
		</g>
		<g>
			<path d="M44.515,40.062v1.584c0,0.96,1.128,0.936,1.128,0.936v0.624h-5.208v-0.624c0,0,1.176,0.048,1.152-0.888v-1.632h-4.44
				l-0.432-0.456c2.904-3.912,2.928-4.632,3.624-8.184h4.152c-0.984,1.824-4.296,5.256-6.624,7.968h3.72v-2.952l2.928-3.216v6.168
				h1.728v0.672H44.515z"/>
		</g>
		<path stroke="#000000" d="M413.189,13.754v30"/>
		<g>
			<path fill="#0A50A1" d="M49.75,99.588c0.984,0,1.776,0.36,2.232,0.912V81.276h0.456v20.4c0,0.336-0.048,0.672-0.168,1.056
				c-0.648,1.704-2.784,3.072-4.8,3.048c-2.016-0.024-3.144-1.44-2.52-3.144S47.734,99.564,49.75,99.588z"/>
		</g>
		<g>
			<path fill="#0A50A1" d="M190.281,92.473c-0.456,1.248-1.488,2.256-2.256,2.64c-0.768,0.36-1.752,0.552-2.88,0.456
				c-0.576-0.048-1.584-0.216-2.16-0.816v19.224h-0.456V93.481c0-0.096,0.024-0.168,0.024-0.24c0.048-0.432,0.168-0.792,0.264-1.032
				c0.456-1.248,1.44-2.088,2.184-2.52s1.872-0.744,3.24-0.6c0.528,0.072,1.68,0.168,2.16,1.032
				C190.785,90.769,190.449,91.993,190.281,92.473z M187.401,90.457c-0.552,0.288-0.96,0.528-1.464,0.792
				c-0.48,0.288-0.912,0.552-1.44,0.888c-0.72,0.456-1.656,1.248-1.176,2.064c0.48,0.816,1.656,0.408,2.4,0.048
				c0.576-0.288,1.032-0.528,1.512-0.816c0.48-0.264,0.912-0.504,1.416-0.84c0.72-0.456,1.656-1.272,1.152-2.088
				C189.345,89.689,188.169,90.097,187.401,90.457z"/>
		</g>
		<g>
			<path fill="#0A50A1" d="M43.366,128.57c0,1.344-0.276,2.148-0.828,2.664c-0.576,0.516-1.392,0.696-2.124,0.696
				c-0.696,0-1.464-0.168-1.932-0.48l0.264-0.816c0.384,0.252,0.984,0.468,1.704,0.468c1.08,0,1.872-0.564,1.872-2.04v-0.636h-0.024
				c-0.312,0.54-0.948,0.972-1.848,0.972c-1.44,0-2.472-1.224-2.472-2.844c0-1.968,1.284-3.072,2.628-3.072
				c1.008,0,1.548,0.516,1.812,0.996h0.024l0.036-0.864h0.936c-0.036,0.408-0.048,0.876-0.048,1.584V128.57z M42.31,125.895
				c0-0.168-0.012-0.324-0.06-0.468c-0.192-0.624-0.696-1.128-1.476-1.128c-1.008,0-1.728,0.852-1.728,2.208
				c0,1.128,0.588,2.088,1.716,2.088c0.66,0,1.248-0.408,1.464-1.092c0.06-0.168,0.084-0.372,0.084-0.564V125.895z"/>
			<path fill="#0A50A1" d="M49.198,128.03c0,0.504,0.024,0.996,0.084,1.392h-0.948l-0.096-0.732h-0.036
				c-0.312,0.456-0.948,0.864-1.776,0.864c-1.176,0-1.776-0.828-1.776-1.668c0-1.404,1.248-2.172,3.492-2.16v-0.12
				c0-0.48-0.132-1.356-1.32-1.344c-0.552,0-1.116,0.156-1.524,0.432l-0.24-0.708c0.48-0.3,1.188-0.504,1.92-0.504
				c1.788,0,2.22,1.212,2.22,2.376V128.03z M48.166,126.458c-1.152-0.024-2.46,0.18-2.46,1.308c0,0.696,0.456,1.008,0.984,1.008
				c0.768,0,1.26-0.48,1.428-0.972c0.036-0.108,0.048-0.228,0.048-0.336V126.458z"/>
			<path fill="#0A50A1" d="M51.142,123.614l1.14,3.252c0.192,0.54,0.348,1.02,0.468,1.5h0.036c0.132-0.48,0.3-0.96,0.492-1.5
				l1.128-3.252h1.104l-2.28,5.808h-1.008l-2.208-5.808H51.142z"/>
			<path fill="#0A50A1" d="M56.974,126.698c0.024,1.428,0.924,2.016,1.98,2.016c0.756,0,1.224-0.132,1.608-0.288l0.192,0.744
				c-0.372,0.168-1.02,0.372-1.944,0.372c-1.776,0-2.856-1.188-2.856-2.928c0-1.764,1.044-3.144,2.736-3.144
				c1.896,0,2.388,1.668,2.388,2.736c0,0.216-0.012,0.384-0.036,0.504L56.974,126.698z M60.058,125.942
				c0.012-0.66-0.276-1.716-1.452-1.716c-1.08,0-1.536,0.984-1.62,1.716H60.058z"/>
			<path fill="#0A50A1" d="M70.018,125.187c0-0.612-0.024-1.092-0.048-1.572h0.924l0.048,0.936h0.036
				c0.324-0.552,0.864-1.068,1.836-1.068c0.78,0,1.38,0.48,1.632,1.164h0.024c0.18-0.336,0.42-0.576,0.66-0.756
				c0.348-0.264,0.72-0.408,1.272-0.408c0.78,0,1.92,0.504,1.92,2.52v3.42H77.29v-3.288c0-1.128-0.42-1.788-1.26-1.788
				c-0.612,0-1.068,0.444-1.26,0.948c-0.048,0.156-0.084,0.348-0.084,0.528v3.6h-1.032v-3.48c0-0.936-0.408-1.596-1.212-1.596
				c-0.648,0-1.14,0.528-1.308,1.056c-0.06,0.156-0.084,0.336-0.084,0.516v3.504h-1.032V125.187z"/>
			<path fill="#0A50A1" d="M80.254,123.614l1.26,3.432c0.144,0.384,0.288,0.84,0.384,1.188h0.024
				c0.108-0.348,0.228-0.792,0.372-1.212l1.152-3.408h1.116l-1.584,4.14c-0.756,1.992-1.272,3.012-1.992,3.648
				c-0.528,0.444-1.032,0.624-1.296,0.672l-0.264-0.888c0.264-0.072,0.612-0.24,0.924-0.516c0.288-0.228,0.636-0.636,0.888-1.176
				c0.048-0.108,0.084-0.18,0.084-0.252c0-0.06-0.024-0.144-0.084-0.264l-2.136-5.364H80.254z"/>
			<path fill="#0A50A1" d="M93.153,120.902h1.056v8.52h-1.056V120.902z"/>
			<path fill="#0A50A1" d="M98.325,129.554c-1.56,0-2.784-1.152-2.784-2.988c0-1.944,1.284-3.084,2.88-3.084
				c1.668,0,2.796,1.212,2.796,2.976c0,2.16-1.5,3.096-2.88,3.096H98.325z M98.361,128.762c1.008,0,1.764-0.948,1.764-2.268
				c0-0.984-0.492-2.22-1.74-2.22c-1.236,0-1.776,1.152-1.776,2.256c0,1.272,0.72,2.232,1.74,2.232H98.361z"/>
			<path fill="#0A50A1" d="M102.849,123.614l1.14,3.252c0.192,0.54,0.348,1.02,0.468,1.5h0.036c0.132-0.48,0.3-0.96,0.492-1.5
				l1.128-3.252h1.104l-2.28,5.808h-1.008l-2.208-5.808H102.849z"/>
			<path fill="#0A50A1" d="M108.681,126.698c0.024,1.428,0.924,2.016,1.98,2.016c0.756,0,1.224-0.132,1.608-0.288l0.192,0.744
				c-0.372,0.168-1.02,0.372-1.944,0.372c-1.776,0-2.856-1.188-2.856-2.928c0-1.764,1.044-3.144,2.736-3.144
				c1.896,0,2.388,1.668,2.388,2.736c0,0.216-0.012,0.384-0.036,0.504L108.681,126.698z M111.765,125.942
				c0.012-0.66-0.276-1.716-1.452-1.716c-1.08,0-1.536,0.984-1.62,1.716H111.765z"/>
			<path fill="#0A50A1" d="M125.817,128.03c0,0.504,0.024,0.996,0.084,1.392h-0.948l-0.096-0.732h-0.036
				c-0.312,0.456-0.948,0.864-1.776,0.864c-1.176,0-1.776-0.828-1.776-1.668c0-1.404,1.248-2.172,3.492-2.16v-0.12
				c0-0.48-0.132-1.356-1.32-1.344c-0.552,0-1.116,0.156-1.524,0.432l-0.24-0.708c0.48-0.3,1.188-0.504,1.92-0.504
				c1.788,0,2.22,1.212,2.22,2.376V128.03z M124.785,126.458c-1.152-0.024-2.46,0.18-2.46,1.308c0,0.696,0.456,1.008,0.984,1.008
				c0.768,0,1.26-0.48,1.428-0.972c0.036-0.108,0.048-0.228,0.048-0.336V126.458z"/>
			<path fill="#0A50A1" d="M152,129.218c-0.276,0.132-0.888,0.336-1.668,0.336c-1.752,0-2.892-1.188-2.892-2.976
				c0-1.788,1.224-3.096,3.12-3.096c0.624,0,1.176,0.156,1.464,0.312l-0.24,0.804c-0.252-0.132-0.648-0.276-1.224-0.276
				c-1.332,0-2.052,0.996-2.052,2.208c0,1.344,0.864,2.172,2.016,2.172c0.6,0,0.996-0.144,1.296-0.276L152,129.218z"/>
			<path fill="#0A50A1" d="M153.236,120.902h1.056v3.624h0.024c0.168-0.3,0.432-0.576,0.756-0.744c0.312-0.192,0.684-0.3,1.08-0.3
				c0.78,0,2.028,0.48,2.028,2.484v3.456h-1.056v-3.336c0-0.948-0.348-1.728-1.344-1.728c-0.684,0-1.212,0.48-1.416,1.056
				c-0.06,0.144-0.072,0.3-0.072,0.504v3.504h-1.056V120.902z"/>
			<path fill="#0A50A1" d="M160.4,122.546c-0.396,0-0.66-0.312-0.66-0.684s0.276-0.672,0.684-0.672c0.408,0,0.672,0.3,0.672,0.672
				s-0.264,0.684-0.684,0.684H160.4z M159.896,129.422v-5.808h1.056v5.808H159.896z"/>
			<path fill="#0A50A1" d="M166.844,129.218c-0.276,0.132-0.888,0.336-1.668,0.336c-1.752,0-2.892-1.188-2.892-2.976
				c0-1.788,1.224-3.096,3.12-3.096c0.624,0,1.176,0.156,1.464,0.312l-0.24,0.804c-0.252-0.132-0.648-0.276-1.224-0.276
				c-1.332,0-2.052,0.996-2.052,2.208c0,1.344,0.864,2.172,2.016,2.172c0.6,0,0.996-0.144,1.296-0.276L166.844,129.218z"/>
			<path fill="#0A50A1" d="M170.528,125.798v0.768h-2.964v-0.768H170.528z"/>
			<path fill="#0A50A1" d="M177.907,126.278h0.024c0.144-0.204,0.336-0.468,0.504-0.66l1.716-2.004h1.26l-2.244,2.388l2.556,3.42
				h-1.284l-1.992-2.796l-0.54,0.612v2.184h-1.056v-8.52h1.056V126.278z"/>
			<path fill="#0A50A1" d="M183.163,126.698c0.024,1.428,0.924,2.016,1.98,2.016c0.756,0,1.224-0.132,1.608-0.288l0.192,0.744
				c-0.372,0.168-1.02,0.372-1.944,0.372c-1.776,0-2.856-1.188-2.856-2.928c0-1.764,1.044-3.144,2.736-3.144
				c1.896,0,2.388,1.668,2.388,2.736c0,0.216-0.012,0.384-0.036,0.504L183.163,126.698z M186.247,125.942
				c0.012-0.66-0.276-1.716-1.452-1.716c-1.08,0-1.536,0.984-1.62,1.716H186.247z"/>
			<path fill="#0A50A1" d="M188.575,125.187c0-0.612-0.012-1.092-0.048-1.572h0.936l0.06,0.948h0.024
				c0.288-0.54,0.96-1.08,1.92-1.08c0.804,0,2.052,0.48,2.052,2.472v3.468h-1.056v-3.348c0-0.936-0.348-1.728-1.344-1.728
				c-0.684,0-1.224,0.492-1.416,1.08c-0.048,0.132-0.072,0.324-0.072,0.492v3.504h-1.056V125.187z"/>
			<path fill="#0A50A1" d="M211.77,122.222v1.392h1.512v0.804h-1.512v3.132c0,0.72,0.204,1.128,0.792,1.128
				c0.288,0,0.456-0.024,0.612-0.072l0.048,0.804c-0.204,0.072-0.528,0.144-0.936,0.144c-0.492,0-0.888-0.168-1.14-0.444
				c-0.288-0.324-0.408-0.84-0.408-1.524v-3.168h-0.9v-0.804h0.9v-1.068L211.77,122.222z"/>
			<path fill="#0A50A1" d="M214.47,120.902h1.056v3.624h0.024c0.168-0.3,0.432-0.576,0.756-0.744c0.312-0.192,0.684-0.3,1.08-0.3
				c0.78,0,2.028,0.48,2.028,2.484v3.456h-1.056v-3.336c0-0.948-0.348-1.728-1.344-1.728c-0.684,0-1.212,0.48-1.416,1.056
				c-0.06,0.144-0.072,0.3-0.072,0.504v3.504h-1.056V120.902z"/>
			<path fill="#0A50A1" d="M225.222,128.03c0,0.504,0.024,0.996,0.084,1.392h-0.948l-0.096-0.732h-0.036
				c-0.312,0.456-0.948,0.864-1.776,0.864c-1.176,0-1.776-0.828-1.776-1.668c0-1.404,1.248-2.172,3.492-2.16v-0.12
				c0-0.48-0.132-1.356-1.32-1.344c-0.552,0-1.116,0.156-1.524,0.432l-0.24-0.708c0.48-0.3,1.188-0.504,1.92-0.504
				c1.788,0,2.22,1.212,2.22,2.376V128.03z M224.19,126.458c-1.152-0.024-2.46,0.18-2.46,1.308c0,0.696,0.456,1.008,0.984,1.008
				c0.768,0,1.26-0.48,1.428-0.972c0.036-0.108,0.048-0.228,0.048-0.336V126.458z"/>
			<path fill="#0A50A1" d="M228.138,122.222v1.392h1.512v0.804h-1.512v3.132c0,0.72,0.204,1.128,0.792,1.128
				c0.288,0,0.456-0.024,0.612-0.072l0.048,0.804c-0.204,0.072-0.528,0.144-0.936,0.144c-0.492,0-0.888-0.168-1.14-0.444
				c-0.288-0.324-0.408-0.84-0.408-1.524v-3.168h-0.9v-0.804h0.9v-1.068L228.138,122.222z"/>
			<path fill="#0A50A1" d="M243.558,120.902h1.056v3.624h0.024c0.168-0.3,0.432-0.576,0.756-0.744c0.312-0.192,0.684-0.3,1.08-0.3
				c0.78,0,2.028,0.48,2.028,2.484v3.456h-1.056v-3.336c0-0.948-0.348-1.728-1.344-1.728c-0.684,0-1.212,0.48-1.416,1.056
				c-0.06,0.144-0.072,0.3-0.072,0.504v3.504h-1.056V120.902z"/>
			<path fill="#0A50A1" d="M254.31,128.03c0,0.504,0.024,0.996,0.084,1.392h-0.948l-0.096-0.732h-0.036
				c-0.312,0.456-0.948,0.864-1.776,0.864c-1.176,0-1.776-0.828-1.776-1.668c0-1.404,1.248-2.172,3.492-2.16v-0.12
				c0-0.48-0.132-1.356-1.32-1.344c-0.552,0-1.116,0.156-1.524,0.432l-0.24-0.708c0.48-0.3,1.188-0.504,1.92-0.504
				c1.788,0,2.22,1.212,2.22,2.376V128.03z M253.277,126.458c-1.152-0.024-2.46,0.18-2.46,1.308c0,0.696,0.456,1.008,0.984,1.008
				c0.768,0,1.26-0.48,1.428-0.972c0.036-0.108,0.048-0.228,0.048-0.336V126.458z"/>
			<path fill="#0A50A1" d="M255.857,128.354c0.324,0.192,0.876,0.408,1.404,0.408c0.756,0,1.116-0.372,1.116-0.864
				c0-0.504-0.3-0.78-1.068-1.068c-1.056-0.384-1.548-0.948-1.548-1.644c0-0.936,0.768-1.704,2.004-1.704
				c0.588,0,1.104,0.156,1.416,0.36l-0.252,0.756c-0.228-0.132-0.648-0.336-1.188-0.336c-0.624,0-0.96,0.36-0.96,0.792
				c0,0.492,0.336,0.708,1.092,0.996c0.996,0.372,1.524,0.876,1.524,1.752c0,1.032-0.804,1.752-2.16,1.752
				c-0.636,0-1.224-0.168-1.632-0.408L255.857,128.354z"/>
			<path fill="#0A50A1" d="M278.561,125.187c0-0.612-0.012-1.092-0.048-1.572h0.936l0.06,0.948h0.024
				c0.288-0.54,0.96-1.08,1.92-1.08c0.804,0,2.052,0.48,2.052,2.472v3.468h-1.056v-3.348c0-0.936-0.348-1.728-1.344-1.728
				c-0.684,0-1.224,0.492-1.416,1.08c-0.048,0.132-0.072,0.324-0.072,0.492v3.504h-1.056V125.187z"/>
			<path fill="#0A50A1" d="M287.584,129.554c-1.56,0-2.784-1.152-2.784-2.988c0-1.944,1.284-3.084,2.88-3.084
				c1.668,0,2.796,1.212,2.796,2.976c0,2.16-1.5,3.096-2.88,3.096H287.584z M287.62,128.762c1.008,0,1.764-0.948,1.764-2.268
				c0-0.984-0.492-2.22-1.74-2.22c-1.236,0-1.776,1.152-1.776,2.256c0,1.272,0.72,2.232,1.74,2.232H287.62z"/>
			<path fill="#0A50A1" d="M326.398,120.902h1.056v3.636h0.024c0.372-0.648,1.044-1.056,1.98-1.056c1.439,0,2.447,1.2,2.447,2.952
				c0,2.088-1.319,3.12-2.616,3.12c-0.84,0-1.5-0.324-1.943-1.092h-0.024l-0.06,0.96h-0.912c0.036-0.396,0.048-0.984,0.048-1.5
				V120.902z M327.454,127.094c0,0.132,0.013,0.264,0.036,0.384c0.204,0.732,0.828,1.236,1.584,1.236c1.116,0,1.765-0.9,1.765-2.232
				c0-1.176-0.601-2.172-1.729-2.172c-0.72,0-1.392,0.504-1.596,1.296c-0.036,0.132-0.061,0.276-0.061,0.444V127.094z"/>
			<path fill="#0A50A1" d="M335.602,129.554c-1.561,0-2.784-1.152-2.784-2.988c0-1.944,1.284-3.084,2.88-3.084
				c1.668,0,2.796,1.212,2.796,2.976c0,2.16-1.5,3.096-2.88,3.096H335.602z M335.638,128.762c1.008,0,1.764-0.948,1.764-2.268
				c0-0.984-0.492-2.22-1.74-2.22c-1.236,0-1.776,1.152-1.776,2.256c0,1.272,0.721,2.232,1.74,2.232H335.638z"/>
			<path fill="#0A50A1" d="M339.826,125.187c0-0.612-0.012-1.092-0.048-1.572h0.936l0.061,0.948h0.023
				c0.288-0.54,0.96-1.08,1.92-1.08c0.805,0,2.053,0.48,2.053,2.472v3.468h-1.057v-3.348c0-0.936-0.348-1.728-1.344-1.728
				c-0.684,0-1.224,0.492-1.416,1.08c-0.048,0.132-0.072,0.324-0.072,0.492v3.504h-1.056V125.187z"/>
			<path fill="#0A50A1" d="M347.085,126.698c0.024,1.428,0.924,2.016,1.98,2.016c0.756,0,1.224-0.132,1.607-0.288l0.192,0.744
				c-0.372,0.168-1.021,0.372-1.944,0.372c-1.775,0-2.855-1.188-2.855-2.928c0-1.764,1.044-3.144,2.735-3.144
				c1.896,0,2.389,1.668,2.389,2.736c0,0.216-0.013,0.384-0.036,0.504L347.085,126.698z M350.169,125.942
				c0.012-0.66-0.275-1.716-1.452-1.716c-1.08,0-1.536,0.984-1.62,1.716H350.169z"/>
			<path fill="#0A50A1" d="M352.797,129.554c-0.408,0-0.696-0.324-0.696-0.756s0.301-0.756,0.721-0.756s0.708,0.312,0.708,0.756
				c0,0.432-0.288,0.756-0.721,0.756H352.797z"/>
		</g>
		<path stroke="#000000" d="M140.188,83.422v30"/>
		<path stroke="#000000" d="M237.855,84.422v30"/>
		<path stroke="#000000" d="M316.522,83.755v30"/>
		<path stroke="#000000" d="M419.854,83.755v30"/>
		<g>
			<path fill="#0A50A1" d="M75.084,99.588c0.984,0,1.776,0.36,2.232,0.912V81.276h0.456v20.4c0,0.336-0.048,0.672-0.168,1.056
				c-0.648,1.704-2.784,3.072-4.8,3.048c-2.016-0.024-3.144-1.44-2.52-3.144S73.068,99.564,75.084,99.588z"/>
		</g>
		<g>
			<path fill="#0A50A1" d="M103.084,99.588c0.984,0,1.776,0.36,2.232,0.912V81.276h0.456v20.4c0,0.336-0.048,0.672-0.168,1.056
				c-0.648,1.704-2.784,3.072-4.8,3.048c-2.016-0.024-3.144-1.44-2.52-3.144S101.068,99.564,103.084,99.588z"/>
		</g>
		<g>
			<path fill="#0A50A1" d="M127.084,100.254c0.984,0,1.776,0.36,2.232,0.912V81.942h0.456v20.4c0,0.336-0.048,0.672-0.168,1.056
				c-0.648,1.704-2.784,3.072-4.8,3.048c-2.016-0.024-3.144-1.44-2.52-3.144S125.068,100.23,127.084,100.254z"/>
		</g>
		<g>
			<path fill="#008837" d="M392.418,103.588c0.983,0,1.775,0.36,2.231,0.912V85.276h0.456v20.4c0,0.336-0.048,0.672-0.168,1.056
				c-0.648,1.704-2.784,3.072-4.8,3.048c-2.017-0.024-3.145-1.44-2.521-3.144S390.402,103.564,392.418,103.588z"/>
		</g>
		<g>
			<path fill="#0A50A0" d="M222.156,84.587c2.04,0.024,3.144,1.416,2.52,3.12c-0.624,1.728-2.784,3.096-4.8,3.072
				c-0.984-0.024-1.776-0.384-2.232-0.936v19.08h-0.456c0-24.216,0-20.4,0-20.4c0-0.288,0.072-0.576,0.192-0.888
				C218.003,85.907,220.14,84.563,222.156,84.587z"/>
		</g>
		<g>
			<path fill="#0A50A1" d="M256.281,91.807c-0.456,1.248-1.488,2.256-2.256,2.64c-0.768,0.36-1.752,0.552-2.88,0.456
				c-0.576-0.048-1.584-0.216-2.16-0.816v19.224h-0.456V92.814c0-0.096,0.024-0.168,0.024-0.24c0.048-0.432,0.168-0.792,0.264-1.032
				c0.456-1.248,1.44-2.088,2.184-2.52s1.872-0.744,3.24-0.6c0.528,0.072,1.68,0.168,2.16,1.032
				C256.785,90.103,256.449,91.326,256.281,91.807z M253.401,89.791c-0.552,0.288-0.96,0.528-1.464,0.792
				c-0.48,0.288-0.912,0.552-1.44,0.888c-0.72,0.456-1.656,1.248-1.176,2.064c0.48,0.816,1.656,0.408,2.4,0.048
				c0.576-0.288,1.032-0.528,1.512-0.816c0.48-0.264,0.912-0.504,1.416-0.84c0.72-0.456,1.656-1.272,1.152-2.088
				C255.345,89.022,254.169,89.43,253.401,89.791z"/>
		</g>
		<g>
			<path fill="#0A50A1" d="M290.948,99.807c-0.456,1.248-1.488,2.256-2.256,2.64c-0.768,0.36-1.752,0.552-2.88,0.456
				c-0.576-0.048-1.584-0.216-2.16-0.816v19.224h-0.456v-20.496c0-0.096,0.024-0.168,0.024-0.24
				c0.048-0.432,0.168-0.792,0.264-1.032c0.456-1.248,1.44-2.088,2.184-2.52s1.872-0.744,3.24-0.6
				c0.528,0.072,1.68,0.168,2.16,1.032C291.452,98.103,291.116,99.326,290.948,99.807z M288.067,97.791
				c-0.552,0.288-0.96,0.528-1.464,0.792c-0.48,0.288-0.912,0.552-1.44,0.888c-0.72,0.456-1.656,1.248-1.176,2.064
				c0.48,0.816,1.656,0.408,2.4,0.048c0.576-0.288,1.032-0.528,1.512-0.816c0.48-0.264,0.912-0.504,1.416-0.84
				c0.72-0.456,1.656-1.272,1.152-2.088C290.012,97.022,288.835,97.43,288.067,97.791z"/>
		</g>
		<g>
			<path fill="#0A50A1" d="M336.094,102.372c0.456-1.248,1.487-2.256,2.256-2.64c0.768-0.36,1.752-0.552,2.88-0.456
				c0.576,0.048,1.584,0.216,2.16,0.816V80.868h0.456v20.496c0,0.096-0.024,0.168-0.024,0.24c-0.048,0.432-0.168,0.792-0.264,1.032
				c-0.456,1.248-1.44,2.088-2.184,2.52c-0.744,0.432-1.872,0.744-3.24,0.6c-0.528-0.072-1.681-0.168-2.16-1.032
				C335.59,104.076,335.926,102.852,336.094,102.372z M338.974,104.388c0.552-0.288,0.96-0.528,1.464-0.792
				c0.48-0.288,0.912-0.552,1.44-0.888c0.72-0.456,1.655-1.248,1.176-2.064c-0.48-0.816-1.656-0.408-2.4-0.048
				c-0.576,0.288-1.032,0.528-1.512,0.816c-0.48,0.264-0.912,0.504-1.416,0.84c-0.72,0.456-1.656,1.272-1.152,2.088
				C337.03,105.156,338.206,104.748,338.974,104.388z"/>
		</g>
		<g>
			<path fill="#63C5DC" d="M347.941,104.646c-0.713,0-1.217-0.536-1.217-1.25s0.524-1.25,1.259-1.25s1.237,0.516,1.237,1.25
				c0,0.714-0.503,1.25-1.258,1.25H347.941z"/>
		</g>
		<g>
			<path fill="none" stroke="#000000" d="M5.779,161.633h420.09"/>
			<path fill="none" stroke="#000000" d="M5.779,176.745h420.09"/>
			<path fill="none" stroke="#000000" d="M5.988,183.868h420.091"/>
			<path fill="none" stroke="#000000" d="M5.667,191.251h420.088"/>
			<path fill="none" stroke="#000000" d="M5.667,168.887h420.088"/>
		</g>
		<g>
			<path d="M29.498,158.167v-3.912h0.696v3.672l2.352-0.768v-3.504h0.696v3.288l0.936-0.312v2.496l-0.936,0.312v3.552l0.936-0.288
				v2.472l-0.936,0.312v3.912h-0.696v-3.696l-2.352,0.768v3.552h-0.696v-3.312l-1.032,0.336v-2.496l1.032-0.336v-3.576l-1.032,0.336
				v-2.472L29.498,158.167z M30.194,160.423v3.576l2.352-0.768v-3.576L30.194,160.423z"/>
		</g>
		<g>
			<path d="M15.991,190.811c-4.944-2.352-5.736-5.376-5.952-8.472c-0.24-3.36,1.896-6.768,3.888-8.664
				c1.152-1.08,2.4-2.136,3.888-3.264c-0.048-0.84-0.24-1.176-0.336-2.376c-0.024-0.504-0.336-2.856,0.168-5.568
				c0.312-1.608,2.328-5.4,3.72-5.424c1.08-0.024,2.736,4.296,2.784,6.456c0.072,3.336-0.72,4.848-1.704,6.576
				c-0.504,0.864-1.032,1.464-1.584,2.136c-0.576,0.696-1.224,1.104-1.824,1.632c0,0,0.768,4.344,0.792,4.656
				c1.536-0.192,3.408,0.36,4.08,0.84c1.704,1.272,2.352,3.024,2.472,4.728c0.216,2.712-1.272,5.568-4.56,6.936
				c0,0,0.504,3.456,0.624,4.176c0.264,1.896,0.216,3.096-0.192,3.864c-0.696,1.296-1.824,2.496-4.008,2.64
				c-1.68,0.096-4.992-0.744-5.16-3.384c-0.096-1.56,0.6-3.24,2.496-3.36c1.152-0.096,2.52,0.864,2.616,2.232
				c0.096,1.176-0.672,2.4-2.664,2.952c0.312,0.432,1.248,0.936,2.592,0.936c1.392,0,2.832-0.936,3.528-2.184
				c0.432-0.816,0.384-2.28,0.216-3.624c-0.072-0.456-0.648-4.08-0.648-4.08C19.447,191.458,16.999,191.291,15.991,190.811z
				 M16.471,185.123c0.048,1.152,1.008,2.496,1.896,2.952c-0.12,0.072-0.24,0.264-0.24,0.264c-0.984-0.48-1.824-1.272-2.04-1.56
				c-0.696-0.936-0.984-1.464-1.08-2.88c-0.096-1.32,0.624-3.096,2.232-4.344c0.84-0.624,1.248-0.768,1.968-0.936l-0.72-4.344
				c-0.744,0.432-3.816,2.904-5.112,4.92c-1.152,1.8-1.848,3.24-1.704,5.016c0.288,4.008,4.68,7.296,9.432,6.168
				c0,0-1.416-8.52-1.392-8.52C17.095,181.955,16.398,183.971,16.471,185.123z M18.415,169.906c2.088-1.632,4.92-4.704,4.752-7.08
				c-0.048-0.744-0.36-2.088-1.44-2.064C19.254,160.786,17.863,165.946,18.415,169.906z M21.679,190.187
				c2.76-0.936,2.88-3.312,2.784-4.728c-0.096-1.176-0.624-3.816-4.128-3.648L21.679,190.187z"/>
		</g>
		<g>
			<path fill="#138230" d="M187.614,168.473c-0.456,1.248-1.488,2.256-2.256,2.64c-0.768,0.36-1.752,0.552-2.88,0.456
				c-0.576-0.048-1.584-0.216-2.16-0.816v19.224h-0.456v-20.496c0-0.096,0.024-0.168,0.024-0.24
				c0.048-0.432,0.168-0.792,0.264-1.032c0.456-1.248,1.44-2.088,2.184-2.52s1.872-0.744,3.24-0.6
				c0.528,0.072,1.68,0.168,2.16,1.032C188.118,166.769,187.782,167.993,187.614,168.473z M184.734,166.457
				c-0.552,0.288-0.96,0.528-1.464,0.792c-0.48,0.288-0.912,0.552-1.44,0.888c-0.72,0.456-1.656,1.248-1.176,2.064
				c0.48,0.816,1.656,0.408,2.4,0.048c0.576-0.288,1.032-0.528,1.512-0.816c0.48-0.264,0.912-0.504,1.416-0.84
				c0.72-0.456,1.656-1.272,1.152-2.088C186.678,165.689,185.502,166.097,184.734,166.457z"/>
		</g>
		<g>
			<path fill="#008837" d="M43.367,205.903c0,1.344-0.276,2.148-0.828,2.664c-0.576,0.516-1.392,0.696-2.124,0.696
				c-0.696,0-1.464-0.168-1.932-0.48l0.264-0.816c0.384,0.252,0.984,0.468,1.704,0.468c1.08,0,1.872-0.564,1.872-2.04v-0.636h-0.024
				c-0.312,0.54-0.948,0.972-1.848,0.972c-1.44,0-2.472-1.224-2.472-2.844c0-1.968,1.284-3.072,2.628-3.072
				c1.008,0,1.548,0.516,1.812,0.996h0.024l0.036-0.864h0.936c-0.036,0.408-0.048,0.876-0.048,1.584V205.903z M42.311,203.228
				c0-0.168-0.012-0.324-0.06-0.468c-0.192-0.624-0.696-1.128-1.476-1.128c-1.008,0-1.728,0.852-1.728,2.208
				c0,1.128,0.588,2.088,1.716,2.088c0.66,0,1.248-0.408,1.464-1.092c0.06-0.168,0.084-0.372,0.084-0.564V203.228z"/>
			<path fill="#008837" d="M49.198,205.363c0,0.504,0.024,0.996,0.084,1.392h-0.948l-0.096-0.732h-0.036
				c-0.312,0.456-0.948,0.864-1.776,0.864c-1.176,0-1.776-0.828-1.776-1.668c0-1.404,1.248-2.172,3.492-2.16v-0.12
				c0-0.48-0.132-1.356-1.32-1.344c-0.552,0-1.116,0.156-1.524,0.432l-0.24-0.708c0.48-0.3,1.188-0.504,1.92-0.504
				c1.788,0,2.22,1.212,2.22,2.376V205.363z M48.167,203.792c-1.152-0.024-2.46,0.18-2.46,1.308c0,0.696,0.456,1.008,0.984,1.008
				c0.768,0,1.26-0.48,1.428-0.972c0.036-0.108,0.048-0.228,0.048-0.336V203.792z"/>
			<path fill="#008837" d="M51.143,200.947l1.14,3.252c0.192,0.54,0.348,1.02,0.468,1.5h0.036c0.132-0.48,0.3-0.96,0.492-1.5
				l1.128-3.252h1.104l-2.28,5.808h-1.008l-2.208-5.808H51.143z"/>
			<path fill="#008837" d="M56.975,204.031c0.024,1.428,0.924,2.016,1.98,2.016c0.756,0,1.224-0.132,1.608-0.288l0.192,0.744
				c-0.372,0.168-1.02,0.372-1.944,0.372c-1.776,0-2.856-1.188-2.856-2.928c0-1.764,1.044-3.144,2.736-3.144
				c1.896,0,2.388,1.668,2.388,2.736c0,0.216-0.012,0.384-0.036,0.504L56.975,204.031z M60.059,203.275
				c0.012-0.66-0.276-1.716-1.452-1.716c-1.08,0-1.536,0.984-1.62,1.716H60.059z"/>
			<path fill="#008837" d="M72.562,202.52c0-0.612-0.024-1.092-0.048-1.572h0.924l0.048,0.936h0.036
				c0.324-0.552,0.864-1.068,1.836-1.068c0.78,0,1.38,0.48,1.632,1.164h0.024c0.18-0.336,0.42-0.576,0.66-0.756
				c0.348-0.264,0.72-0.408,1.272-0.408c0.78,0,1.92,0.504,1.92,2.52v3.42h-1.032v-3.288c0-1.128-0.42-1.788-1.26-1.788
				c-0.612,0-1.068,0.444-1.26,0.948c-0.048,0.156-0.084,0.348-0.084,0.528v3.6h-1.032v-3.48c0-0.936-0.408-1.596-1.212-1.596
				c-0.648,0-1.14,0.528-1.308,1.056c-0.06,0.156-0.084,0.336-0.084,0.516v3.504h-1.032V202.52z"/>
			<path fill="#008837" d="M82.798,200.947l1.26,3.432c0.144,0.384,0.288,0.84,0.384,1.188h0.024
				c0.108-0.348,0.228-0.792,0.372-1.212l1.152-3.408h1.116l-1.584,4.14c-0.756,1.992-1.272,3.012-1.992,3.648
				c-0.528,0.444-1.032,0.624-1.296,0.672l-0.264-0.888c0.264-0.072,0.612-0.24,0.924-0.516c0.288-0.228,0.636-0.636,0.888-1.176
				c0.048-0.108,0.084-0.18,0.084-0.252c0-0.06-0.024-0.144-0.084-0.264l-2.136-5.364H82.798z"/>
			<path fill="#008837" d="M98.242,198.235h1.056v8.52h-1.056V198.235z"/>
			<path fill="#008837" d="M103.414,206.887c-1.56,0-2.784-1.152-2.784-2.988c0-1.944,1.284-3.084,2.88-3.084
				c1.668,0,2.796,1.212,2.796,2.976c0,2.16-1.5,3.096-2.88,3.096H103.414z M103.45,206.095c1.008,0,1.764-0.948,1.764-2.268
				c0-0.984-0.492-2.22-1.74-2.22c-1.236,0-1.776,1.152-1.776,2.256c0,1.272,0.72,2.232,1.74,2.232H103.45z"/>
			<path fill="#008837" d="M107.938,200.947l1.14,3.252c0.192,0.54,0.348,1.02,0.468,1.5h0.036c0.132-0.48,0.3-0.96,0.492-1.5
				l1.128-3.252h1.104l-2.28,5.808h-1.008l-2.208-5.808H107.938z"/>
			<path fill="#008837" d="M113.77,204.031c0.024,1.428,0.924,2.016,1.98,2.016c0.756,0,1.224-0.132,1.608-0.288l0.192,0.744
				c-0.372,0.168-1.02,0.372-1.944,0.372c-1.776,0-2.856-1.188-2.856-2.928c0-1.764,1.044-3.144,2.736-3.144
				c1.896,0,2.388,1.668,2.388,2.736c0,0.216-0.012,0.384-0.036,0.504L113.77,204.031z M116.854,203.275
				c0.012-0.66-0.276-1.716-1.452-1.716c-1.08,0-1.536,0.984-1.62,1.716H116.854z"/>
			<path fill="#008837" d="M130.905,205.363c0,0.504,0.024,0.996,0.084,1.392h-0.948l-0.096-0.732h-0.036
				c-0.312,0.456-0.948,0.864-1.776,0.864c-1.176,0-1.776-0.828-1.776-1.668c0-1.404,1.248-2.172,3.492-2.16v-0.12
				c0-0.48-0.132-1.356-1.32-1.344c-0.552,0-1.116,0.156-1.524,0.432l-0.24-0.708c0.48-0.3,1.188-0.504,1.92-0.504
				c1.788,0,2.22,1.212,2.22,2.376V205.363z M129.873,203.792c-1.152-0.024-2.46,0.18-2.46,1.308c0,0.696,0.456,1.008,0.984,1.008
				c0.768,0,1.26-0.48,1.428-0.972c0.036-0.108,0.048-0.228,0.048-0.336V203.792z"/>
			<path fill="#008837" d="M154.042,202.759c0-0.684-0.012-1.272-0.048-1.812h0.924l0.048,1.14h0.036
				c0.264-0.78,0.912-1.272,1.62-1.272c0.108,0,0.192,0.012,0.288,0.036v0.984c-0.12-0.012-0.228-0.024-0.372-0.024
				c-0.744,0-1.272,0.564-1.416,1.344c-0.024,0.156-0.036,0.324-0.036,0.504v3.096h-1.056L154.042,202.759z"/>
			<path fill="#008837" d="M158.506,199.879c-0.396,0-0.66-0.312-0.66-0.684s0.276-0.672,0.684-0.672c0.408,0,0.672,0.3,0.672,0.672
				s-0.264,0.684-0.684,0.684H158.506z M158.002,206.755v-5.808h1.056v5.808H158.002z"/>
			<path fill="#008837" d="M160.81,202.52c0-0.612-0.012-1.092-0.048-1.572h0.936l0.06,0.948h0.024c0.288-0.54,0.96-1.08,1.92-1.08
				c0.804,0,2.052,0.48,2.052,2.472v3.468h-1.056v-3.348c0-0.936-0.348-1.728-1.344-1.728c-0.684,0-1.224,0.492-1.416,1.08
				c-0.048,0.132-0.072,0.324-0.072,0.492v3.504h-1.056V202.52z"/>
			<path fill="#008837" d="M172.438,205.903c0,1.344-0.276,2.148-0.828,2.664c-0.576,0.516-1.392,0.696-2.124,0.696
				c-0.696,0-1.464-0.168-1.932-0.48l0.264-0.816c0.384,0.252,0.984,0.468,1.704,0.468c1.08,0,1.872-0.564,1.872-2.04v-0.636h-0.024
				c-0.312,0.54-0.948,0.972-1.848,0.972c-1.44,0-2.472-1.224-2.472-2.844c0-1.968,1.284-3.072,2.628-3.072
				c1.008,0,1.548,0.516,1.812,0.996h0.024l0.036-0.864h0.936c-0.036,0.408-0.048,0.876-0.048,1.584V205.903z M171.382,203.228
				c0-0.168-0.012-0.324-0.06-0.468c-0.192-0.624-0.696-1.128-1.476-1.128c-1.008,0-1.728,0.852-1.728,2.208
				c0,1.128,0.588,2.088,1.716,2.088c0.66,0,1.248-0.408,1.464-1.092c0.06-0.168,0.084-0.372,0.084-0.564V203.228z"/>
			<path fill="#008837" d="M186.801,203.131v0.768h-2.964v-0.768H186.801z"/>
			<path fill="#008837" d="M193.029,203.131v0.768h-2.964v-0.768H193.029z"/>
			<path fill="#008837" d="M219.67,199.555v1.392h1.512v0.804h-1.512v3.132c0,0.72,0.204,1.128,0.792,1.128
				c0.288,0,0.456-0.024,0.612-0.072l0.048,0.804c-0.204,0.072-0.528,0.144-0.936,0.144c-0.492,0-0.888-0.168-1.14-0.444
				c-0.288-0.324-0.408-0.84-0.408-1.524v-3.168h-0.9v-0.804h0.9v-1.068L219.67,199.555z"/>
			<path fill="#008837" d="M222.371,198.235h1.056v3.624h0.024c0.168-0.3,0.432-0.576,0.756-0.744c0.312-0.192,0.684-0.3,1.08-0.3
				c0.78,0,2.028,0.48,2.028,2.484v3.456h-1.056v-3.336c0-0.948-0.348-1.728-1.344-1.728c-0.684,0-1.212,0.48-1.416,1.056
				c-0.06,0.144-0.072,0.3-0.072,0.504v3.504h-1.056V198.235z"/>
			<path fill="#008837" d="M233.123,205.363c0,0.504,0.024,0.996,0.084,1.392h-0.948l-0.096-0.732h-0.036
				c-0.312,0.456-0.948,0.864-1.776,0.864c-1.176,0-1.776-0.828-1.776-1.668c0-1.404,1.248-2.172,3.492-2.16v-0.12
				c0-0.48-0.132-1.356-1.32-1.344c-0.552,0-1.116,0.156-1.524,0.432l-0.24-0.708c0.48-0.3,1.188-0.504,1.92-0.504
				c1.788,0,2.22,1.212,2.22,2.376V205.363z M232.09,203.792c-1.152-0.024-2.46,0.18-2.46,1.308c0,0.696,0.456,1.008,0.984,1.008
				c0.768,0,1.26-0.48,1.428-0.972c0.036-0.108,0.048-0.228,0.048-0.336V203.792z"/>
			<path fill="#008837" d="M236.038,199.555v1.392h1.512v0.804h-1.512v3.132c0,0.72,0.204,1.128,0.792,1.128
				c0.288,0,0.456-0.024,0.612-0.072l0.048,0.804c-0.204,0.072-0.528,0.144-0.936,0.144c-0.492,0-0.888-0.168-1.14-0.444
				c-0.288-0.324-0.408-0.84-0.408-1.524v-3.168h-0.9v-0.804h0.9v-1.068L236.038,199.555z"/>
			<path fill="#008837" d="M254.398,198.235h1.056v3.624h0.024c0.168-0.3,0.432-0.576,0.756-0.744c0.312-0.192,0.684-0.3,1.08-0.3
				c0.78,0,2.028,0.48,2.028,2.484v3.456h-1.056v-3.336c0-0.948-0.348-1.728-1.344-1.728c-0.684,0-1.212,0.48-1.416,1.056
				c-0.06,0.144-0.072,0.3-0.072,0.504v3.504h-1.056V198.235z"/>
			<path fill="#008837" d="M265.15,205.363c0,0.504,0.024,0.996,0.084,1.392h-0.948l-0.096-0.732h-0.036
				c-0.312,0.456-0.948,0.864-1.776,0.864c-1.176,0-1.776-0.828-1.776-1.668c0-1.404,1.248-2.172,3.492-2.16v-0.12
				c0-0.48-0.132-1.356-1.32-1.344c-0.552,0-1.116,0.156-1.524,0.432l-0.24-0.708c0.48-0.3,1.188-0.504,1.92-0.504
				c1.788,0,2.22,1.212,2.22,2.376V205.363z M264.118,203.792c-1.152-0.024-2.46,0.18-2.46,1.308c0,0.696,0.456,1.008,0.984,1.008
				c0.768,0,1.26-0.48,1.428-0.972c0.036-0.108,0.048-0.228,0.048-0.336V203.792z"/>
			<path fill="#008837" d="M266.698,205.688c0.324,0.192,0.876,0.408,1.404,0.408c0.756,0,1.116-0.372,1.116-0.864
				c0-0.504-0.3-0.78-1.068-1.068c-1.056-0.384-1.548-0.948-1.548-1.644c0-0.936,0.768-1.704,2.004-1.704
				c0.588,0,1.104,0.156,1.416,0.36l-0.252,0.756c-0.228-0.132-0.648-0.336-1.188-0.336c-0.624,0-0.96,0.36-0.96,0.792
				c0,0.492,0.336,0.708,1.092,0.996c0.996,0.372,1.524,0.876,1.524,1.752c0,1.032-0.804,1.752-2.16,1.752
				c-0.636,0-1.224-0.168-1.632-0.408L266.698,205.688z"/>
			<path fill="#008837" d="M290.398,202.52c0-0.612-0.012-1.092-0.048-1.572h0.936l0.06,0.948h0.024c0.288-0.54,0.96-1.08,1.92-1.08
				c0.804,0,2.052,0.48,2.052,2.472v3.468h-1.056v-3.348c0-0.936-0.348-1.728-1.344-1.728c-0.685,0-1.225,0.492-1.417,1.08
				c-0.048,0.132-0.072,0.324-0.072,0.492v3.504h-1.056V202.52z"/>
			<path fill="#008837" d="M299.422,206.887c-1.56,0-2.784-1.152-2.784-2.988c0-1.944,1.284-3.084,2.88-3.084
				c1.668,0,2.796,1.212,2.796,2.976c0,2.16-1.5,3.096-2.88,3.096H299.422z M299.458,206.095c1.008,0,1.764-0.948,1.764-2.268
				c0-0.984-0.492-2.22-1.74-2.22c-1.235,0-1.775,1.152-1.775,2.256c0,1.272,0.72,2.232,1.74,2.232H299.458z"/>
			<path fill="#008837" d="M334.63,204.031c0.023,1.428,0.924,2.016,1.979,2.016c0.756,0,1.225-0.132,1.608-0.288l0.191,0.744
				c-0.371,0.168-1.02,0.372-1.943,0.372c-1.776,0-2.856-1.188-2.856-2.928c0-1.764,1.044-3.144,2.736-3.144
				c1.896,0,2.388,1.668,2.388,2.736c0,0.216-0.012,0.384-0.036,0.504L334.63,204.031z M337.714,203.275
				c0.012-0.66-0.276-1.716-1.452-1.716c-1.08,0-1.536,0.984-1.62,1.716H337.714z"/>
			<path fill="#008837" d="M340.042,202.52c0-0.612-0.013-1.092-0.049-1.572h0.937l0.06,0.948h0.024c0.288-0.54,0.96-1.08,1.92-1.08
				c0.804,0,2.052,0.48,2.052,2.472v3.468h-1.056v-3.348c0-0.936-0.349-1.728-1.344-1.728c-0.685,0-1.225,0.492-1.416,1.08
				c-0.049,0.132-0.072,0.324-0.072,0.492v3.504h-1.056V202.52z"/>
			<path fill="#008837" d="M351.718,198.235v7.02c0,0.516,0.012,1.104,0.048,1.5h-0.948l-0.048-1.008h-0.024
				c-0.323,0.648-1.02,1.14-1.968,1.14c-1.404,0-2.496-1.188-2.496-2.952c-0.012-1.944,1.2-3.12,2.604-3.12
				c0.899,0,1.5,0.42,1.752,0.876h0.023v-3.456H351.718z M350.662,203.312c0-0.144-0.012-0.312-0.048-0.456
				c-0.156-0.66-0.731-1.212-1.523-1.212c-1.093,0-1.74,0.96-1.74,2.232c0,1.188,0.588,2.16,1.716,2.16
				c0.708,0,1.356-0.48,1.548-1.26c0.036-0.144,0.048-0.288,0.048-0.456V203.312z"/>
			<path fill="#008837" d="M353.674,206.887c-0.408,0-0.696-0.324-0.696-0.756s0.3-0.756,0.72-0.756s0.708,0.312,0.708,0.756
				c0,0.432-0.288,0.756-0.72,0.756H353.674z"/>
		</g>
		<g>
			<path fill="#008837" d="M48.75,176.921c0.984,0,1.776,0.36,2.232,0.912v-19.224h0.456v20.4c0,0.336-0.048,0.672-0.168,1.056
				c-0.648,1.704-2.784,3.072-4.8,3.048c-2.016-0.024-3.144-1.44-2.52-3.144S46.734,176.897,48.75,176.921z"/>
		</g>
		<g>
			<path fill="#008837" d="M74.084,176.921c0.984,0,1.776,0.36,2.232,0.912v-19.224h0.456v20.4c0,0.336-0.048,0.672-0.168,1.056
				c-0.648,1.704-2.784,3.072-4.8,3.048c-2.016-0.024-3.144-1.44-2.52-3.144S72.068,176.897,74.084,176.921z"/>
		</g>
		<g>
			<path fill="#008837" d="M99.417,176.921c0.984,0,1.776,0.36,2.232,0.912v-19.224h0.456v20.4c0,0.336-0.048,0.672-0.168,1.056
				c-0.648,1.704-2.784,3.072-4.8,3.048c-2.016-0.024-3.144-1.44-2.52-3.144S97.401,176.897,99.417,176.921z"/>
		</g>
		<g>
			<path fill="#008837" d="M124.084,176.922c0.984,0,1.776,0.36,2.232,0.912V158.61h0.456v20.4c0,0.336-0.048,0.672-0.168,1.056
				c-0.648,1.704-2.784,3.072-4.8,3.048c-2.016-0.024-3.144-1.44-2.52-3.144S122.068,176.898,124.084,176.922z"/>
		</g>
		<g>
			<path fill="#008837" d="M392.146,121.334v8.088h-1.056v-8.088H392.146z"/>
		</g>
		<path stroke="#000000" d="M137.188,161.755v30"/>
		<path stroke="#000000" d="M238.522,161.088v30"/>
		<path stroke="#000000" d="M317.856,161.755v30"/>
		<path stroke="#000000" d="M425.856,161.088v30"/>
		<g>
			<path fill="#008837" d="M154.292,179.924c-0.984,0-1.776-0.36-2.232-0.912v19.224h-0.456v-20.4c0-0.336,0.048-0.672,0.168-1.056
				c0.648-1.704,2.784-3.072,4.8-3.048c2.016,0.024,3.144,1.44,2.52,3.144S156.308,179.948,154.292,179.924z"/>
		</g>
		<g>
			<path fill="#008837" d="M218.292,168.258c-0.984,0-1.776-0.36-2.232-0.912v19.224h-0.456v-20.4c0-0.336,0.048-0.672,0.168-1.056
				c0.648-1.704,2.784-3.072,4.8-3.048c2.016,0.024,3.144,1.44,2.52,3.144S220.308,168.282,218.292,168.258z"/>
		</g>
		<g>
			<path fill="#138230" d="M258.614,168.473c-0.456,1.248-1.488,2.256-2.256,2.64c-0.768,0.36-1.752,0.552-2.88,0.456
				c-0.576-0.048-1.584-0.216-2.16-0.816v19.224h-0.456v-20.496c0-0.096,0.024-0.168,0.024-0.24
				c0.048-0.432,0.168-0.792,0.264-1.032c0.456-1.248,1.44-2.088,2.184-2.52s1.872-0.744,3.24-0.6
				c0.528,0.072,1.68,0.168,2.16,1.032C259.118,166.769,258.782,167.993,258.614,168.473z M255.734,166.457
				c-0.552,0.288-0.96,0.528-1.464,0.792c-0.48,0.288-0.912,0.552-1.44,0.888c-0.72,0.456-1.656,1.248-1.176,2.064
				c0.48,0.816,1.656,0.408,2.4,0.048c0.576-0.288,1.032-0.528,1.512-0.816c0.48-0.264,0.912-0.504,1.416-0.84
				c0.72-0.456,1.656-1.272,1.152-2.088C257.678,165.689,256.502,166.097,255.734,166.457z"/>
		</g>
		<g>
			<path fill="#008837" d="M293.281,176.473c-0.456,1.248-1.488,2.256-2.256,2.64c-0.768,0.36-1.752,0.552-2.88,0.456
				c-0.576-0.048-1.584-0.216-2.16-0.816v19.224h-0.456v-20.496c0-0.096,0.024-0.168,0.024-0.24
				c0.048-0.432,0.168-0.792,0.264-1.032c0.456-1.248,1.44-2.088,2.184-2.52s1.872-0.744,3.24-0.6
				c0.528,0.072,1.68,0.168,2.16,1.032C293.785,174.769,293.449,175.993,293.281,176.473z M290.401,174.457
				c-0.552,0.288-0.96,0.528-1.464,0.792c-0.48,0.288-0.912,0.552-1.44,0.888c-0.72,0.456-1.656,1.248-1.176,2.064
				c0.48,0.816,1.656,0.408,2.4,0.048c0.576-0.288,1.032-0.528,1.512-0.816c0.48-0.264,0.912-0.504,1.416-0.84
				c0.72-0.456,1.656-1.272,1.152-2.088C292.345,173.689,291.169,174.097,290.401,174.457z"/>
		</g>
		<g>
			<path fill="#008837" d="M335.094,180.371c0.456-1.248,1.487-2.256,2.256-2.64c0.768-0.36,1.752-0.552,2.88-0.456
				c0.576,0.048,1.584,0.216,2.16,0.816v-19.224h0.456v20.496c0,0.096-0.024,0.168-0.024,0.24c-0.048,0.432-0.168,0.792-0.264,1.032
				c-0.456,1.248-1.44,2.088-2.184,2.52c-0.744,0.432-1.872,0.744-3.24,0.6c-0.528-0.072-1.681-0.168-2.16-1.032
				C334.59,182.075,334.926,180.852,335.094,180.371z M337.974,182.387c0.552-0.288,0.96-0.528,1.464-0.792
				c0.48-0.288,0.912-0.552,1.44-0.888c0.72-0.456,1.655-1.248,1.176-2.064c-0.48-0.816-1.656-0.408-2.4-0.048
				c-0.576,0.288-1.032,0.528-1.512,0.816c-0.48,0.264-0.912,0.504-1.416,0.84c-0.72,0.456-1.656,1.272-1.152,2.088
				C336.03,183.155,337.206,182.748,337.974,182.387z"/>
		</g>
		<g>
			<path fill="#138F34" d="M348.941,180.646c-0.713,0-1.217-0.536-1.217-1.25s0.524-1.25,1.259-1.25s1.237,0.516,1.237,1.25
				c0,0.714-0.503,1.25-1.258,1.25H348.941z"/>
		</g>
		<g>
			<path fill="#81017E" d="M396.084,173.588c0.983,0,1.775,0.36,2.231,0.912v-19.224h0.456v20.4c0,0.336-0.048,0.672-0.168,1.056
				c-0.648,1.704-2.784,3.072-4.8,3.048c-2.017-0.024-3.145-1.44-2.521-3.144S394.068,173.564,396.084,173.588z"/>
		</g>
		<g>
			<path fill="#81017E" d="M183.095,255.705c0.456-1.248,1.488-2.256,2.256-2.64c0.768-0.36,1.752-0.552,2.88-0.456
				c0.576,0.048,1.584,0.216,2.16,0.816v-19.224h0.456v20.496c0,0.096-0.024,0.168-0.024,0.24c-0.048,0.432-0.168,0.792-0.264,1.032
				c-0.456,1.248-1.44,2.088-2.184,2.52s-1.872,0.744-3.24,0.6c-0.528-0.072-1.68-0.168-2.16-1.032
				C182.591,257.409,182.927,256.185,183.095,255.705z M185.976,257.721c0.552-0.288,0.96-0.528,1.464-0.792
				c0.48-0.288,0.912-0.552,1.44-0.888c0.72-0.456,1.656-1.248,1.176-2.064c-0.48-0.816-1.656-0.408-2.4-0.048
				c-0.576,0.288-1.032,0.528-1.512,0.816c-0.48,0.264-0.912,0.504-1.416,0.84c-0.72,0.456-1.656,1.272-1.152,2.088
				C184.031,258.489,185.208,258.081,185.976,257.721z"/>
		</g>
		<g>
			<path fill="#81017E" d="M38.033,280.57c0,1.344-0.276,2.148-0.828,2.664c-0.576,0.516-1.392,0.696-2.124,0.696
				c-0.696,0-1.464-0.168-1.932-0.48l0.264-0.816c0.384,0.252,0.984,0.468,1.704,0.468c1.08,0,1.872-0.564,1.872-2.04v-0.636h-0.024
				c-0.312,0.54-0.948,0.972-1.848,0.972c-1.44,0-2.472-1.224-2.472-2.844c0-1.968,1.284-3.072,2.628-3.072
				c1.008,0,1.548,0.516,1.812,0.996h0.024l0.036-0.864h0.936c-0.036,0.408-0.048,0.876-0.048,1.584V280.57z M36.977,277.895
				c0-0.168-0.012-0.324-0.06-0.468c-0.192-0.624-0.696-1.128-1.476-1.128c-1.008,0-1.728,0.852-1.728,2.208
				c0,1.128,0.588,2.088,1.716,2.088c0.66,0,1.248-0.408,1.464-1.092c0.06-0.168,0.084-0.372,0.084-0.564V277.895z"/>
			<path fill="#81017E" d="M43.864,280.03c0,0.504,0.024,0.996,0.084,1.392H43l-0.096-0.732h-0.036
				c-0.312,0.456-0.948,0.864-1.776,0.864c-1.176,0-1.776-0.828-1.776-1.668c0-1.404,1.248-2.172,3.492-2.16v-0.12
				c0-0.48-0.132-1.356-1.32-1.344c-0.552,0-1.116,0.156-1.524,0.432l-0.24-0.708c0.48-0.3,1.188-0.504,1.92-0.504
				c1.788,0,2.22,1.212,2.22,2.376V280.03z M42.833,278.458c-1.152-0.024-2.46,0.18-2.46,1.308c0,0.696,0.456,1.008,0.984,1.008
				c0.768,0,1.26-0.48,1.428-0.972c0.036-0.108,0.048-0.228,0.048-0.336V278.458z"/>
			<path fill="#81017E" d="M45.809,275.614l1.14,3.252c0.192,0.54,0.348,1.02,0.468,1.5h0.036c0.132-0.48,0.3-0.96,0.492-1.5
				l1.128-3.252h1.104l-2.28,5.808h-1.008l-2.208-5.808H45.809z"/>
			<path fill="#81017E" d="M51.641,278.698c0.024,1.428,0.924,2.016,1.98,2.016c0.756,0,1.224-0.132,1.608-0.288l0.192,0.744
				c-0.372,0.168-1.02,0.372-1.944,0.372c-1.776,0-2.856-1.188-2.856-2.928c0-1.764,1.044-3.144,2.736-3.144
				c1.896,0,2.388,1.668,2.388,2.736c0,0.216-0.012,0.384-0.036,0.504L51.641,278.698z M54.725,277.942
				c0.012-0.66-0.276-1.716-1.452-1.716c-1.08,0-1.536,0.984-1.62,1.716H54.725z"/>
			<path fill="#81017E" d="M64.684,277.187c0-0.612-0.024-1.092-0.048-1.572h0.924l0.048,0.936h0.036
				c0.324-0.552,0.864-1.068,1.836-1.068c0.78,0,1.38,0.48,1.632,1.164h0.024c0.18-0.336,0.42-0.576,0.66-0.756
				c0.348-0.264,0.72-0.408,1.272-0.408c0.78,0,1.92,0.504,1.92,2.52v3.42h-1.032v-3.288c0-1.128-0.42-1.788-1.26-1.788
				c-0.612,0-1.068,0.444-1.26,0.948c-0.048,0.156-0.084,0.348-0.084,0.528v3.6H68.32v-3.48c0-0.936-0.408-1.596-1.212-1.596
				c-0.648,0-1.14,0.528-1.308,1.056c-0.06,0.156-0.084,0.336-0.084,0.516v3.504h-1.032V277.187z"/>
			<path fill="#81017E" d="M74.92,275.614l1.26,3.432c0.144,0.384,0.288,0.84,0.384,1.188h0.024
				c0.108-0.348,0.228-0.792,0.372-1.212l1.152-3.408h1.116l-1.584,4.14c-0.756,1.992-1.272,3.012-1.992,3.648
				c-0.528,0.444-1.032,0.624-1.296,0.672l-0.264-0.888c0.264-0.072,0.612-0.24,0.924-0.516c0.288-0.228,0.636-0.636,0.888-1.176
				c0.048-0.108,0.084-0.18,0.084-0.252c0-0.06-0.024-0.144-0.084-0.264l-2.136-5.364H74.92z"/>
			<path fill="#81017E" d="M92.908,272.902h1.056v8.52h-1.056V272.902z"/>
			<path fill="#81017E" d="M98.08,281.554c-1.56,0-2.784-1.152-2.784-2.988c0-1.944,1.284-3.084,2.88-3.084
				c1.668,0,2.796,1.212,2.796,2.976c0,2.16-1.5,3.096-2.88,3.096H98.08z M98.116,280.762c1.008,0,1.764-0.948,1.764-2.268
				c0-0.984-0.492-2.22-1.74-2.22c-1.236,0-1.776,1.152-1.776,2.256c0,1.272,0.72,2.232,1.74,2.232H98.116z"/>
			<path fill="#81017E" d="M102.604,275.614l1.14,3.252c0.192,0.54,0.348,1.02,0.468,1.5h0.036c0.132-0.48,0.3-0.96,0.492-1.5
				l1.128-3.252h1.104l-2.28,5.808h-1.008l-2.208-5.808H102.604z"/>
			<path fill="#81017E" d="M108.436,278.698c0.024,1.428,0.924,2.016,1.98,2.016c0.756,0,1.224-0.132,1.608-0.288l0.192,0.744
				c-0.372,0.168-1.02,0.372-1.944,0.372c-1.776,0-2.856-1.188-2.856-2.928c0-1.764,1.044-3.144,2.736-3.144
				c1.896,0,2.388,1.668,2.388,2.736c0,0.216-0.012,0.384-0.036,0.504L108.436,278.698z M111.52,277.942
				c0.012-0.66-0.276-1.716-1.452-1.716c-1.08,0-1.536,0.984-1.62,1.716H111.52z"/>
			<path fill="#81017E" d="M130.659,280.03c0,0.504,0.024,0.996,0.084,1.392h-0.948l-0.096-0.732h-0.036
				c-0.312,0.456-0.948,0.864-1.776,0.864c-1.176,0-1.776-0.828-1.776-1.668c0-1.404,1.248-2.172,3.492-2.16v-0.12
				c0-0.48-0.132-1.356-1.32-1.344c-0.552,0-1.116,0.156-1.524,0.432l-0.24-0.708c0.48-0.3,1.188-0.504,1.92-0.504
				c1.788,0,2.22,1.212,2.22,2.376V280.03z M129.627,278.458c-1.152-0.024-2.46,0.18-2.46,1.308c0,0.696,0.456,1.008,0.984,1.008
				c0.768,0,1.26-0.48,1.428-0.972c0.036-0.108,0.048-0.228,0.048-0.336V278.458z"/>
			<path fill="#81017E" d="M155.246,272.902h1.056v3.636h0.024c0.372-0.648,1.044-1.056,1.98-1.056c1.44,0,2.448,1.2,2.448,2.952
				c0,2.088-1.32,3.12-2.616,3.12c-0.84,0-1.5-0.324-1.944-1.092h-0.024l-0.06,0.96h-0.912c0.036-0.396,0.048-0.984,0.048-1.5
				V272.902z M156.302,279.094c0,0.132,0.012,0.264,0.036,0.384c0.204,0.732,0.828,1.236,1.584,1.236c1.116,0,1.764-0.9,1.764-2.232
				c0-1.176-0.6-2.172-1.728-2.172c-0.72,0-1.392,0.504-1.596,1.296c-0.036,0.132-0.06,0.276-0.06,0.444V279.094z"/>
			<path fill="#81017E" d="M166.166,280.03c0,0.504,0.024,0.996,0.084,1.392h-0.948l-0.096-0.732h-0.036
				c-0.312,0.456-0.948,0.864-1.776,0.864c-1.176,0-1.776-0.828-1.776-1.668c0-1.404,1.248-2.172,3.492-2.16v-0.12
				c0-0.48-0.132-1.356-1.32-1.344c-0.552,0-1.116,0.156-1.524,0.432l-0.24-0.708c0.48-0.3,1.188-0.504,1.92-0.504
				c1.788,0,2.22,1.212,2.22,2.376V280.03z M165.134,278.458c-1.152-0.024-2.46,0.18-2.46,1.308c0,0.696,0.456,1.008,0.984,1.008
				c0.768,0,1.26-0.48,1.428-0.972c0.036-0.108,0.048-0.228,0.048-0.336V278.458z"/>
			<path fill="#81017E" d="M170.306,277.798v0.768h-2.964v-0.768H170.306z"/>
			<path fill="#81017E" d="M182.152,272.902h1.056v3.636h0.024c0.372-0.648,1.044-1.056,1.98-1.056c1.44,0,2.448,1.2,2.448,2.952
				c0,2.088-1.32,3.12-2.616,3.12c-0.84,0-1.5-0.324-1.944-1.092h-0.024l-0.06,0.96h-0.912c0.036-0.396,0.048-0.984,0.048-1.5
				V272.902z M183.208,279.094c0,0.132,0.012,0.264,0.036,0.384c0.204,0.732,0.828,1.236,1.584,1.236c1.116,0,1.764-0.9,1.764-2.232
				c0-1.176-0.6-2.172-1.728-2.172c-0.72,0-1.392,0.504-1.596,1.296c-0.036,0.132-0.06,0.276-0.06,0.444V279.094z"/>
			<path fill="#81017E" d="M189.268,275.614l1.26,3.432c0.144,0.384,0.288,0.84,0.384,1.188h0.024
				c0.108-0.348,0.228-0.792,0.372-1.212l1.152-3.408h1.116l-1.584,4.14c-0.756,1.992-1.272,3.012-1.992,3.648
				c-0.528,0.444-1.032,0.624-1.296,0.672l-0.264-0.888c0.264-0.072,0.612-0.24,0.924-0.516c0.288-0.228,0.636-0.636,0.888-1.176
				c0.048-0.108,0.084-0.18,0.084-0.252c0-0.06-0.024-0.144-0.084-0.264l-2.136-5.364H189.268z"/>
			<path fill="#81017E" d="M213.484,275.614l0.78,2.94c0.156,0.648,0.312,1.26,0.42,1.86h0.036c0.132-0.588,0.324-1.212,0.516-1.848
				l0.948-2.952h0.888l0.9,2.904c0.216,0.684,0.384,1.308,0.516,1.896h0.036c0.096-0.588,0.252-1.2,0.444-1.884l0.828-2.916h1.044
				l-1.872,5.808h-0.96l-0.888-2.772c-0.204-0.66-0.372-1.236-0.516-1.92h-0.024c-0.144,0.696-0.324,1.308-0.528,1.932l-0.936,2.76
				h-0.96l-1.752-5.808H213.484z"/>
			<path fill="#81017E" d="M222.4,274.546c-0.396,0-0.66-0.312-0.66-0.684s0.276-0.672,0.684-0.672c0.408,0,0.672,0.3,0.672,0.672
				s-0.264,0.684-0.684,0.684H222.4z M221.896,281.422v-5.808h1.056v5.808H221.896z"/>
			<path fill="#81017E" d="M225.976,274.222v1.392h1.512v0.804h-1.512v3.132c0,0.72,0.204,1.128,0.792,1.128
				c0.288,0,0.456-0.024,0.612-0.072l0.048,0.804c-0.204,0.072-0.528,0.144-0.936,0.144c-0.492,0-0.888-0.168-1.14-0.444
				c-0.288-0.324-0.408-0.84-0.408-1.524v-3.168h-0.9v-0.804h0.9v-1.068L225.976,274.222z"/>
			<path fill="#81017E" d="M228.676,272.902h1.056v3.624h0.024c0.168-0.3,0.432-0.576,0.756-0.744c0.312-0.192,0.684-0.3,1.08-0.3
				c0.78,0,2.028,0.48,2.028,2.484v3.456h-1.056v-3.336c0-0.948-0.348-1.728-1.344-1.728c-0.684,0-1.212,0.48-1.416,1.056
				c-0.06,0.144-0.072,0.3-0.072,0.504v3.504h-1.056V272.902z"/>
			<path fill="#81017E" d="M249.064,277.187c0-0.612-0.012-1.092-0.048-1.572h0.936l0.06,0.948h0.024
				c0.288-0.54,0.96-1.08,1.92-1.08c0.804,0,2.052,0.48,2.052,2.472v3.468h-1.056v-3.348c0-0.936-0.348-1.728-1.344-1.728
				c-0.684,0-1.224,0.492-1.416,1.08c-0.048,0.132-0.072,0.324-0.072,0.492v3.504h-1.056V277.187z"/>
			<path fill="#81017E" d="M258.088,281.554c-1.56,0-2.784-1.152-2.784-2.988c0-1.944,1.284-3.084,2.88-3.084
				c1.668,0,2.796,1.212,2.796,2.976c0,2.16-1.5,3.096-2.88,3.096H258.088z M258.125,280.762c1.008,0,1.764-0.948,1.764-2.268
				c0-0.984-0.492-2.22-1.74-2.22c-1.236,0-1.776,1.152-1.776,2.256c0,1.272,0.72,2.232,1.74,2.232H258.125z"/>
			<path fill="#81017E" d="M289.205,281.218c-0.276,0.132-0.888,0.336-1.668,0.336c-1.752,0-2.892-1.188-2.892-2.976
				c0-1.788,1.224-3.096,3.12-3.096c0.624,0,1.176,0.156,1.464,0.312l-0.24,0.804c-0.252-0.132-0.648-0.276-1.224-0.276
				c-1.332,0-2.052,0.996-2.052,2.208c0,1.344,0.864,2.172,2.016,2.172c0.6,0,0.996-0.144,1.296-0.276L289.205,281.218z"/>
			<path fill="#81017E" d="M290.453,277.426c0-0.684-0.012-1.272-0.048-1.812h0.924l0.048,1.14h0.036
				c0.264-0.78,0.912-1.272,1.62-1.272c0.107,0,0.191,0.012,0.288,0.036v0.984c-0.12-0.012-0.229-0.024-0.372-0.024
				c-0.744,0-1.272,0.564-1.416,1.344c-0.024,0.156-0.036,0.324-0.036,0.504v3.096h-1.056L290.453,277.426z"/>
			<path fill="#81017E" d="M295.037,275.614l1.26,3.432c0.144,0.384,0.288,0.84,0.384,1.188h0.024
				c0.107-0.348,0.228-0.792,0.372-1.212l1.151-3.408h1.116l-1.584,4.14c-0.756,1.992-1.272,3.012-1.992,3.648
				c-0.528,0.444-1.032,0.624-1.296,0.672l-0.264-0.888c0.264-0.072,0.611-0.24,0.924-0.516c0.288-0.228,0.636-0.636,0.888-1.176
				c0.048-0.108,0.084-0.18,0.084-0.252c0-0.06-0.023-0.144-0.084-0.264l-2.136-5.364H295.037z"/>
			<path fill="#81017E" d="M302.752,277.798v0.768h-2.964v-0.768H302.752z"/>
			<path fill="#81017E" d="M336.832,274.546c-0.396,0-0.66-0.312-0.66-0.684s0.276-0.672,0.685-0.672s0.672,0.3,0.672,0.672
				s-0.264,0.684-0.684,0.684H336.832z M336.328,281.422v-5.808h1.057v5.808H336.328z"/>
			<path fill="#81017E" d="M339.135,277.187c0-0.612-0.012-1.092-0.048-1.572h0.937l0.06,0.948h0.024
				c0.288-0.54,0.96-1.08,1.92-1.08c0.804,0,2.052,0.48,2.052,2.472v3.468h-1.056v-3.348c0-0.936-0.349-1.728-1.344-1.728
				c-0.685,0-1.225,0.492-1.416,1.08c-0.049,0.132-0.072,0.324-0.072,0.492v3.504h-1.057V277.187z"/>
			<path fill="#81017E" d="M346.564,273.118l-0.192,2.88h-0.647l-0.192-2.88H346.564z"/>
			<path fill="#81017E" d="M348.496,281.554c-0.408,0-0.696-0.324-0.696-0.756s0.3-0.756,0.72-0.756
				c0.421,0,0.708,0.312,0.708,0.756c0,0.432-0.287,0.756-0.72,0.756H348.496z"/>
		</g>
		<g>
			<path fill="#81017E" d="M396.144,197.334v8.088h-1.056v-8.088H396.144z"/>
		</g>
		<g>
			<path fill="none" stroke="#000000" d="M4.113,232.966h420.091"/>
			<path fill="none" stroke="#000000" d="M4.113,248.078h420.091"/>
			<path fill="none" stroke="#000000" d="M4.321,255.201h420.091"/>
			<path fill="none" stroke="#000000" d="M4,262.584h420.088"/>
			<path fill="none" stroke="#000000" d="M4,240.22h420.088"/>
		</g>
		<g>
			<path d="M27.832,229.5v-3.912h0.696v3.672l2.352-0.768v-3.504h0.696v3.288l0.936-0.312v2.496l-0.936,0.312v3.552l0.936-0.288
				v2.472l-0.936,0.312v3.912h-0.696v-3.696l-2.352,0.768v3.552h-0.696v-3.312l-1.032,0.336v-2.496l1.032-0.336v-3.576l-1.032,0.336
				v-2.472L27.832,229.5z M28.527,231.756v3.576l2.352-0.768v-3.576L28.527,231.756z"/>
		</g>
		<g>
			<path d="M14.324,262.144c-4.944-2.352-5.736-5.376-5.952-8.472c-0.24-3.36,1.896-6.768,3.888-8.664
				c1.152-1.08,2.4-2.136,3.888-3.264c-0.048-0.84-0.24-1.176-0.336-2.376c-0.024-0.504-0.336-2.856,0.168-5.568
				c0.312-1.608,2.328-5.4,3.72-5.424c1.08-0.024,2.736,4.296,2.784,6.456c0.072,3.336-0.72,4.848-1.704,6.576
				c-0.504,0.864-1.032,1.464-1.584,2.136c-0.576,0.696-1.224,1.104-1.824,1.632c0,0,0.768,4.344,0.792,4.656
				c1.536-0.192,3.408,0.36,4.08,0.84c1.704,1.272,2.352,3.024,2.472,4.728c0.216,2.712-1.272,5.568-4.56,6.936
				c0,0,0.504,3.456,0.624,4.176c0.264,1.896,0.216,3.096-0.192,3.864c-0.696,1.296-1.824,2.496-4.008,2.64
				c-1.68,0.096-4.992-0.744-5.16-3.384c-0.096-1.56,0.6-3.24,2.496-3.36c1.152-0.096,2.52,0.864,2.616,2.232
				c0.096,1.176-0.672,2.4-2.664,2.952c0.312,0.432,1.248,0.936,2.592,0.936c1.392,0,2.832-0.936,3.528-2.184
				c0.432-0.816,0.384-2.28,0.216-3.624c-0.072-0.456-0.648-4.08-0.648-4.08C17.78,262.792,15.332,262.624,14.324,262.144z
				 M14.804,256.456c0.048,1.152,1.008,2.496,1.896,2.952c-0.12,0.072-0.24,0.264-0.24,0.264c-0.984-0.48-1.824-1.272-2.04-1.56
				c-0.696-0.936-0.984-1.464-1.08-2.88c-0.096-1.32,0.624-3.096,2.232-4.344c0.84-0.624,1.248-0.768,1.968-0.936l-0.72-4.344
				c-0.744,0.432-3.816,2.904-5.112,4.92c-1.152,1.8-1.848,3.24-1.704,5.016c0.288,4.008,4.68,7.296,9.432,6.168
				c0,0-1.416-8.52-1.392-8.52C15.428,253.288,14.732,255.304,14.804,256.456z M16.748,241.239c2.088-1.632,4.92-4.704,4.752-7.08
				c-0.048-0.744-0.36-2.088-1.44-2.064C17.588,232.119,16.196,237.279,16.748,241.239z M20.012,261.52
				c2.76-0.936,2.88-3.312,2.784-4.728c-0.096-1.176-0.624-3.816-4.128-3.648L20.012,261.52z"/>
		</g>
		<g>
			<path fill="#81017E" d="M45.418,248.255c0.984,0,1.776,0.36,2.232,0.912v-19.224h0.456v20.4c0,0.336-0.048,0.672-0.168,1.056
				c-0.648,1.704-2.784,3.072-4.8,3.048c-2.016-0.024-3.144-1.44-2.52-3.144S43.402,248.231,45.418,248.255z"/>
		</g>
		<g>
			<path fill="#81017E" d="M70.084,251.588c0.984,0,1.776,0.36,2.232,0.912v-19.224h0.456v20.4c0,0.336-0.048,0.672-0.168,1.056
				c-0.648,1.704-2.784,3.072-4.8,3.048c-2.016-0.024-3.144-1.44-2.52-3.144S68.068,251.564,70.084,251.588z"/>
		</g>
		<g>
			<path fill="#81017E" d="M100.084,258.921c0.984,0,1.776,0.36,2.232,0.912v-19.224h0.456v20.4c0,0.336-0.048,0.672-0.168,1.056
				c-0.648,1.704-2.784,3.072-4.8,3.048c-2.016-0.024-3.144-1.44-2.52-3.144S98.068,258.897,100.084,258.921z"/>
		</g>
		<g>
			<path fill="#81017E" d="M126.751,262.922c0.984,0,1.776,0.36,2.232,0.912V244.61h0.456v20.4c0,0.336-0.048,0.672-0.168,1.056
				c-0.648,1.704-2.784,3.072-4.8,3.048c-2.016-0.024-3.144-1.44-2.52-3.144S124.735,262.898,126.751,262.922z"/>
		</g>
		<g>
			<path fill="#81017E" d="M159.417,259.588c0.984,0,1.776,0.36,2.232,0.912v-19.224h0.456v20.4c0,0.336-0.048,0.672-0.168,1.056
				c-0.648,1.704-2.784,3.072-4.8,3.048c-2.016-0.024-3.144-1.44-2.52-3.144S157.401,259.564,159.417,259.588z"/>
		</g>
		<g>
			<path fill="#81017E" d="M250.428,255.037c0.456-1.248,1.488-2.256,2.256-2.64c0.768-0.36,1.752-0.552,2.88-0.456
				c0.576,0.048,1.584,0.216,2.16,0.816v-19.224h0.456v20.496c0,0.096-0.024,0.168-0.024,0.24c-0.048,0.432-0.168,0.792-0.264,1.032
				c-0.456,1.248-1.44,2.088-2.184,2.52s-1.872,0.744-3.24,0.6c-0.528-0.072-1.68-0.168-2.16-1.032
				C249.924,256.741,250.26,255.518,250.428,255.037z M253.309,257.053c0.552-0.288,0.96-0.528,1.464-0.792
				c0.48-0.288,0.912-0.552,1.44-0.888c0.72-0.456,1.656-1.248,1.176-2.064c-0.48-0.816-1.656-0.408-2.4-0.048
				c-0.576,0.288-1.032,0.528-1.512,0.816c-0.48,0.264-0.912,0.504-1.416,0.84c-0.72,0.456-1.656,1.272-1.152,2.088
				C251.364,257.821,252.541,257.414,253.309,257.053z"/>
		</g>
		<g>
			<path fill="#81017E" d="M287.761,262.372c0.456-1.248,1.488-2.256,2.256-2.64c0.768-0.36,1.752-0.552,2.88-0.456
				c0.575,0.048,1.584,0.216,2.159,0.816v-19.224h0.456v20.496c0,0.096-0.023,0.168-0.023,0.24
				c-0.048,0.432-0.168,0.792-0.265,1.032c-0.456,1.248-1.439,2.088-2.184,2.52s-1.872,0.744-3.24,0.6
				c-0.528-0.072-1.68-0.168-2.16-1.032C287.257,264.076,287.593,262.852,287.761,262.372z M290.642,264.388
				c0.552-0.288,0.96-0.528,1.464-0.792c0.48-0.288,0.912-0.552,1.44-0.888c0.72-0.456,1.656-1.248,1.176-2.064
				c-0.479-0.816-1.655-0.408-2.399-0.048c-0.576,0.288-1.032,0.528-1.512,0.816c-0.48,0.264-0.912,0.504-1.416,0.84
				c-0.72,0.456-1.656,1.272-1.152,2.088C288.697,265.156,289.874,264.748,290.642,264.388z"/>
		</g>
		<g>
			<path fill="#81017E" d="M335.094,265.705c0.456-1.248,1.487-2.256,2.256-2.64c0.768-0.36,1.752-0.552,2.88-0.456
				c0.576,0.048,1.584,0.216,2.16,0.816v-19.224h0.456v20.496c0,0.096-0.024,0.168-0.024,0.24c-0.048,0.432-0.168,0.792-0.264,1.032
				c-0.456,1.248-1.44,2.088-2.184,2.52c-0.744,0.432-1.872,0.744-3.24,0.6c-0.528-0.072-1.681-0.168-2.16-1.032
				C334.59,267.409,334.926,266.185,335.094,265.705z M337.974,267.721c0.552-0.288,0.96-0.528,1.464-0.792
				c0.48-0.288,0.912-0.552,1.44-0.888c0.72-0.456,1.655-1.248,1.176-2.064c-0.48-0.816-1.656-0.408-2.4-0.048
				c-0.576,0.288-1.032,0.528-1.512,0.816c-0.48,0.264-0.912,0.504-1.416,0.84c-0.72,0.456-1.656,1.272-1.152,2.088
				C336.03,268.489,337.206,268.081,337.974,267.721z"/>
		</g>
		<path stroke="#000000" d="M138.521,231.755v30"/>
		<path stroke="#000000" d="M239.188,231.755v30"/>
		<path stroke="#000000" d="M323.188,233.088v30"/>
		<path stroke="#000000" d="M423.413,232.201v30"/>
		<g>
			<path fill="#E53C9B" d="M348.275,267.313c-0.713,0-1.217-0.536-1.217-1.25s0.524-1.25,1.259-1.25s1.237,0.516,1.237,1.25
				c0,0.714-0.503,1.25-1.258,1.25H348.275z"/>
		</g>
		<g>
			<path fill="#0A50A0" d="M161.156,96.254c2.04,0.024,3.144,1.416,2.52,3.12c-0.624,1.728-2.784,3.096-4.8,3.072
				c-0.984-0.024-1.776-0.384-2.232-0.936v19.08h-0.456c0-24.216,0-20.4,0-20.4c0-0.288,0.072-0.576,0.192-0.888
				C157.003,97.574,159.14,96.23,161.156,96.254z"/>
		</g>
		<g>
			<path fill="#81017E" d="M221.084,248.588c0.984,0,1.776,0.36,2.232,0.912v-19.224h0.456v20.4c0,0.336-0.048,0.672-0.168,1.056
				c-0.648,1.704-2.784,3.072-4.8,3.048c-2.016-0.024-3.144-1.44-2.52-3.144S219.068,248.564,221.084,248.588z"/>
		</g>
		<g>
			<path fill="#FF0000" d="M53.853,6.012l-0.564,2.076h-1.896L53.865,0h2.388l2.52,8.088h-1.968l-0.624-2.076H53.853z M55.905,4.644
				l-0.504-1.716c-0.132-0.48-0.276-1.092-0.396-1.56h-0.036c-0.108,0.48-0.24,1.092-0.36,1.56l-0.492,1.716H55.905z"/>
		</g>
		<g>
			<path fill="#0A50A1" d="M385.981,2.12c0.48-0.096,1.44-0.18,2.364-0.18c1.116,0,1.8,0.108,2.388,0.456
				c0.564,0.3,0.96,0.852,0.96,1.596c0,0.708-0.42,1.368-1.32,1.716v0.024c0.925,0.24,1.608,0.948,1.608,1.992
				c0,0.744-0.336,1.32-0.84,1.716c-0.588,0.468-1.572,0.732-3.18,0.732c-0.9,0-1.572-0.06-1.98-0.12V2.12z M387.792,5.204h0.601
				c0.972,0,1.476-0.396,1.476-0.996c0-0.612-0.468-0.936-1.296-0.936c-0.408,0-0.636,0.024-0.78,0.06V5.204z M387.792,8.792
				c0.181,0.036,0.396,0.036,0.709,0.036c0.827,0,1.56-0.324,1.56-1.176c0-0.816-0.732-1.14-1.645-1.14h-0.624V8.792z"/>
		</g>
		<g>
			<path fill="#008837" d="M396.909,80.872c-0.323,0.156-1.092,0.348-2.063,0.348c-2.796,0-4.236-1.752-4.236-4.068
				c0-2.76,1.968-4.284,4.416-4.284c0.948,0,1.668,0.192,1.992,0.36l-0.384,1.44c-0.36-0.156-0.876-0.3-1.536-0.3
				c-1.44,0-2.568,0.876-2.568,2.688c0,1.62,0.96,2.64,2.58,2.64c0.564,0,1.164-0.108,1.536-0.264L396.909,80.872z"/>
		</g>
		<g>
			<path fill="#81017E" d="M394.981,145.12c0.672-0.12,1.548-0.18,2.46-0.18c1.548,0,2.556,0.252,3.324,0.84
				c0.84,0.624,1.368,1.632,1.368,3.072c0,1.548-0.564,2.616-1.332,3.276c-0.853,0.708-2.16,1.044-3.744,1.044
				c-0.948,0-1.632-0.06-2.076-0.12V145.12z M396.805,151.708c0.156,0.036,0.42,0.036,0.636,0.036c1.668,0.012,2.76-0.9,2.76-2.832
				c0-1.74-0.983-2.568-2.567-2.568c-0.396,0-0.672,0.036-0.828,0.072V151.708z"/>
		</g>
	</g>
</svg>
