<?xml version="1.0" encoding="utf-8"?>
<!-- Generator: Adobe Illustrator 10.0, SVG Export Plug-In . SVG Version: 3.0.0 Build 76)  -->
<!DOCTYPE svg PUBLIC "-//W3C//DTD SVG 1.0//EN"    "http://www.w3.org/TR/2001/REC-SVG-20010904/DTD/svg10.dtd" [
	<!ENTITY ns_flows "http://ns.adobe.com/Flows/1.0/">
	<!ENTITY ns_extend "http://ns.adobe.com/Extensibility/1.0/">
	<!ENTITY ns_ai "http://ns.adobe.com/AdobeIllustrator/10.0/">
	<!ENTITY ns_svg "http://www.w3.org/2000/svg">
	<!ENTITY ns_xlink "http://www.w3.org/1999/xlink">
]>
<svg  xmlns:x="&ns_extend;" xmlns:i="&ns_ai;" xmlns:graph="&ns_graphs;"
	 xmlns="&ns_svg;" xmlns:xlink="&ns_xlink;" xmlns:a="http://ns.adobe.com/AdobeSVGViewerExtensions/3.0/" width="489" height="47"
	 viewBox="0.087 0.392 489 47" overflow="visible" enable-background="new 0.087 0.392 489 47" xml:space="preserve">
	<g id="Layer_1_2_">
		<g>
			<path fill="none" stroke="#000000" d="M268.092,5.629h194.993"/>
			<path fill="none" stroke="#000000" d="M268.092,19.741h194.993"/>
			<path fill="none" stroke="#000000" d="M268.178,26.863h195.008"/>
			<path fill="none" stroke="#000000" d="M268.034,34.247h195.008"/>
			<path fill="none" stroke="#000000" d="M268.034,12.883h195.008"/>
		</g>
		<g>
			<path d="M468.18,23.613c-0.713,0-1.217-0.536-1.217-1.25s0.524-1.25,1.259-1.25s1.237,0.516,1.237,1.25
				c0,0.714-0.503,1.25-1.258,1.25H468.18z"/>
		</g>
		<g>
			<path fill="none" stroke="#000000" d="M0.061,5.629h227.931"/>
			<path fill="none" stroke="#000000" d="M0.061,19.741h227.931"/>
			<path fill="none" stroke="#000000" d="M0.175,26.863h227.931"/>
			<path fill="none" stroke="#000000" d="M0,34.247h227.931"/>
			<path fill="none" stroke="#000000" d="M0,12.883h227.931"/>
		</g>
		<path fill="none" stroke="#0A0A0A" d="M93.788,4.707v29.746"/>
		<g>
			<path d="M34.919,19.296c-1.68,0-2.352-1.32-3.552-1.32c-0.864,0-1.608,0.624-1.824,1.344c-0.216,0-0.504,0-0.456,0
				c-0.12-0.912,0.144-1.656,0.216-1.848c0.528-1.392,1.56-2.328,2.352-2.808c3.192-2.016,3.6-2.496,3.6-4.008
				c0.024-1.512-1.008-2.688-2.16-2.688c-0.336,0-1.752,0.576-1.8,1.2c-0.048,0.456,1.272,0.576,1.608,1.776
				c0.288,0.912-0.432,2.088-1.584,2.088c-1.632,0-2.016-1.464-1.992-2.424c0.096-1.848,2.424-3.192,4.44-3.192
				c1.608,0,4.656,0.144,4.656,3.624c0,1.104-0.912,2.04-2.088,2.52c-0.936,0.384-4.68,1.464-4.92,2.232
				c1.992-0.888,4.416,0.576,4.656,0.576c0.864,0,1.368-0.528,1.656-1.344c0.264,0,0.144,0.12,0.432,0.12
				C37.823,17.016,36.887,19.296,34.919,19.296z"/>
		</g>
		<g>
			<path d="M36.08,30.032v1.584c0,0.96,1.128,0.936,1.128,0.936v0.624H32v-0.624c0,0,1.176,0.048,1.152-0.888v-1.632h-4.44
				l-0.432-0.456c2.904-3.912,2.928-4.632,3.624-8.184h4.152c-0.984,1.824-4.296,5.256-6.624,7.968h3.72v-2.952l2.928-3.216v6.168
				h1.728v0.672H36.08z"/>
		</g>
		<g>
			<path d="M11.683,33.794c-4.944-2.352-5.736-5.376-5.952-8.472c-0.24-3.36,1.896-6.768,3.888-8.664
				c1.152-1.08,2.4-2.136,3.888-3.264c-0.048-0.84-0.24-1.176-0.336-2.376c-0.024-0.504-0.336-2.856,0.168-5.568
				c0.312-1.608,2.328-5.4,3.72-5.424c1.08-0.024,2.736,4.296,2.784,6.456c0.072,3.336-0.72,4.848-1.704,6.576
				c-0.504,0.864-1.032,1.464-1.584,2.136c-0.576,0.696-1.224,1.104-1.824,1.632c0,0,0.768,4.344,0.792,4.656
				c1.536-0.192,3.408,0.36,4.08,0.84c1.704,1.272,2.352,3.024,2.472,4.728c0.216,2.712-1.272,5.568-4.56,6.936
				c0,0,0.504,3.456,0.624,4.176c0.264,1.896,0.216,3.096-0.192,3.864c-0.696,1.296-1.824,2.496-4.008,2.64
				c-1.68,0.096-4.992-0.744-5.16-3.384c-0.096-1.56,0.6-3.24,2.496-3.36c1.152-0.096,2.52,0.864,2.616,2.232
				c0.096,1.176-0.672,2.4-2.664,2.952c0.312,0.432,1.248,0.936,2.592,0.936c1.392,0,2.832-0.936,3.528-2.184
				c0.432-0.816,0.384-2.28,0.216-3.624c-0.072-0.456-0.648-4.08-0.648-4.08C15.139,34.442,12.69,34.274,11.683,33.794z
				 M12.163,28.106c0.048,1.152,1.008,2.496,1.896,2.952c-0.12,0.072-0.24,0.264-0.24,0.264c-0.984-0.48-1.824-1.272-2.04-1.56
				c-0.696-0.936-0.984-1.464-1.08-2.88c-0.096-1.32,0.624-3.096,2.232-4.344c0.84-0.624,1.248-0.768,1.968-0.936l-0.72-4.344
				c-0.744,0.432-3.816,2.904-5.112,4.92c-1.152,1.8-1.848,3.24-1.704,5.016c0.288,4.008,4.68,7.296,9.432,6.168
				c0,0-1.416-8.52-1.392-8.52C12.787,24.938,12.09,26.955,12.163,28.106z M14.106,12.89c2.088-1.632,4.92-4.704,4.752-7.08
				c-0.048-0.744-0.36-2.088-1.44-2.064C14.947,3.77,13.555,8.93,14.106,12.89z M17.371,33.17c2.76-0.936,2.88-3.312,2.784-4.728
				c-0.096-1.176-0.624-3.816-4.128-3.648L17.371,33.17z"/>
		</g>
		<g>
			<path d="M45.711,16.144c0,0.216,0,1.536,0,1.536c0.912-0.816,1.416-0.984,2.424-1.008c1.2-0.024,1.968,1.176,1.992,2.136
				c0.024,0.504-0.12,1.032-0.312,1.44c-0.216,0.528-0.792,0.936-1.176,1.32c-0.432,0.432-3.552,2.568-3.552,2.616V10h0.624
				C45.711,10,45.735,12.976,45.711,16.144z M45.976,18.52c-0.312,0.6-0.264,1.632-0.264,2.376v2.064
				c0,0.024,0.864-0.72,1.344-1.176c0.432-0.408,0.768-0.864,0.936-1.584c0.192-0.72,0.12-1.488-0.336-1.992
				C47.343,17.848,46.479,17.56,45.976,18.52z"/>
		</g>
		<g>
			<g>
				<path d="M151.465,47.044c-2.04-0.024-3.144-1.416-2.52-3.12c0.624-1.728,2.784-3.096,4.8-3.072
					c0.984,0.024,1.776,0.384,2.232,0.936v-19.08h0.456c0,24.216,0,20.4,0,20.4c0,0.288-0.072,0.576-0.192,0.888
					C155.617,45.725,153.481,47.068,151.465,47.044z"/>
			</g>
			<path fill="none" stroke="#000000" d="M146.56,40.21h12"/>
		</g>
		<g>
			<path d="M52.711,6.144c0,0.216,0,1.536,0,1.536c0.912-0.816,1.416-0.984,2.424-1.008c1.2-0.024,1.968,1.176,1.992,2.136
				c0.024,0.504-0.12,1.032-0.312,1.44c-0.216,0.528-0.792,0.936-1.176,1.32c-0.432,0.432-3.552,2.568-3.552,2.616V0h0.624
				C52.711,0,52.735,2.976,52.711,6.144z M52.976,8.52c-0.312,0.6-0.264,1.632-0.264,2.376v2.064c0,0.024,0.864-0.72,1.344-1.176
				c0.432-0.408,0.768-0.864,0.936-1.584c0.192-0.72,0.12-1.488-0.336-1.992C54.343,7.848,53.479,7.56,52.976,8.52z"/>
		</g>
		<g>
			<path d="M66.65,27.224c0.984,0,1.776,0.36,2.232,0.912V8.912h0.456v20.4c0,0.336-0.048,0.672-0.168,1.056
				c-0.648,1.704-2.784,3.072-4.8,3.048c-2.016-0.024-3.144-1.44-2.52-3.144S64.634,27.2,66.65,27.224z"/>
		</g>
		<g>
			<path fill="none" stroke="#000000" d="M164.086,40.059h12"/>
			<g>
				<path d="M171.521,37.568c0.984,0,1.776,0.36,2.232,0.912V19.256h0.456v20.4c0,0.336-0.048,0.672-0.168,1.056
					c-0.648,1.704-2.784,3.072-4.8,3.048c-2.016-0.024-3.144-1.44-2.52-3.144S169.504,37.544,171.521,37.568z"/>
			</g>
		</g>
		<g>
			<g>
				<path d="M106.465,47.044c-2.04-0.024-3.144-1.416-2.52-3.12c0.624-1.728,2.784-3.096,4.8-3.072
					c0.984,0.024,1.776,0.384,2.232,0.936v-19.08h0.456c0,24.216,0,20.4,0,20.4c0,0.288-0.072,0.576-0.192,0.888
					C110.617,45.724,108.481,47.068,106.465,47.044z"/>
			</g>
			<path fill="none" stroke="#000000" d="M101.56,40.21h12"/>
		</g>
		<g>
			<path d="M80.983,34.224c0.984,0,1.776,0.36,2.232,0.912V15.912h0.456v20.4c0,0.336-0.048,0.672-0.168,1.056
				c-0.648,1.704-2.784,3.072-4.8,3.048c-2.016-0.024-3.144-1.44-2.52-3.144S78.967,34.2,80.983,34.224z"/>
		</g>
		<path fill="none" stroke="#000000" stroke-width="2" d="M68.087,8.392l16,6"/>
		<path fill="none" stroke="#000000" stroke-width="2" d="M68.087,12.392l16,6"/>
		<path fill="none" stroke="#0A0A0A" stroke-width="2" d="M323.087,19.392l18-4"/>
		<g>
			<path d="M187.983,34.224c0.984,0,1.776,0.36,2.232,0.912V15.912h0.456v20.4c0,0.336-0.048,0.672-0.168,1.056
				c-0.648,1.704-2.784,3.072-4.8,3.048c-2.016-0.024-3.144-1.44-2.52-3.144S185.967,34.2,187.983,34.224z"/>
		</g>
		<g>
			<g>
				<path d="M129.465,47.044c-2.04-0.024-3.144-1.416-2.52-3.12c0.624-1.728,2.784-3.096,4.8-3.072
					c0.984,0.024,1.776,0.384,2.232,0.936v-19.08h0.456c0,24.216,0,20.4,0,20.4c0,0.288-0.072,0.576-0.192,0.888
					C133.617,45.724,131.481,47.068,129.465,47.044z"/>
			</g>
			<path fill="none" stroke="#000000" d="M124.56,40.21h12"/>
		</g>
		<path fill="none" stroke="#000000" stroke-width="2" d="M110.087,21.392h24"/>
		<g>
			<path d="M204.983,31.224c0.984,0,1.776,0.36,2.232,0.912V12.912h0.456v20.4c0,0.336-0.048,0.672-0.168,1.056
				c-0.648,1.704-2.784,3.072-4.8,3.048c-2.016-0.024-3.144-1.44-2.52-3.144S202.967,31.2,204.983,31.224z"/>
		</g>
		<path fill="none" stroke="#0A0A0A" stroke-width="2" d="M155.087,21.392l53-9"/>
		<path fill="none" stroke="#0A0A0A" stroke-width="2" d="M155.087,25.392l53-9"/>
		<path fill="none" stroke="#0A0A0A" d="M217.788,4.707v29.746"/>
		<path fill="none" stroke="#0A0A0A" d="M275.789,5.707v29.746"/>
		<g>
			<path d="M288.984,27.224c0.983,0,1.775,0.36,2.231,0.912V8.912h0.456v20.4c0,0.336-0.048,0.672-0.168,1.056
				c-0.648,1.704-2.784,3.072-4.8,3.048c-2.017-0.024-3.145-1.44-2.521-3.144S286.967,27.2,288.984,27.224z"/>
		</g>
		<g>
			<path d="M296.508,31.949c-0.713,0-1.217-0.536-1.217-1.25s0.524-1.25,1.259-1.25s1.237,0.516,1.237,1.25
				c0,0.714-0.503,1.25-1.258,1.25H296.508z"/>
		</g>
		<g>
			<path fill="none" stroke="#000000" d="M314.086,40.059h12"/>
			<g>
				<path d="M321.521,37.568c0.983,0,1.775,0.36,2.231,0.912V19.256h0.456v20.4c0,0.336-0.048,0.672-0.168,1.056
					c-0.648,1.704-2.784,3.072-4.8,3.048c-2.017-0.024-3.145-1.44-2.521-3.144S319.504,37.544,321.521,37.568z"/>
			</g>
		</g>
		<g>
			<path d="M337.984,34.224c0.983,0,1.775,0.36,2.231,0.912V15.912h0.456v20.4c0,0.336-0.048,0.672-0.168,1.056
				c-0.648,1.704-2.784,3.072-4.8,3.048c-2.017-0.024-3.145-1.44-2.521-3.144S335.967,34.2,337.984,34.224z"/>
		</g>
		<path fill="none" stroke="#0A0A0A" stroke-width="2" d="M323.087,23.392l18-4"/>
		<path fill="none" stroke="#0A0A0A" d="M347.789,5.707v29.746"/>
		<g>
			<g>
				<path d="M360.12,47.56c-2.04-0.024-3.145-1.416-2.521-3.12c0.624-1.728,2.784-3.096,4.8-3.072
					c0.984,0.024,1.776,0.384,2.232,0.936v-19.08h0.456c0,24.216,0,20.4,0,20.4c0,0.288-0.072,0.576-0.192,0.888
					C364.271,46.24,362.135,47.584,360.12,47.56z"/>
			</g>
			<path fill="none" stroke="#000000" d="M355.214,40.726h12"/>
		</g>
		<g>
			<g>
				<path d="M384.241,15.155c0,0.859-0.392,1.555-0.877,1.555c-0.482,0-0.876-0.696-0.876-1.555c0-0.858,0.394-1.555,0.876-1.555
					C383.849,13.601,384.241,14.297,384.241,15.155z"/>
				<g>
					<g>
						<path fill="none" d="M383.891,14.119c1.752,2.073,3.154,2.073,4.558-0.518"/>
						<path d="M383.513,14.439c0.703,0.807,1.59,1.694,2.74,1.664c1.25-0.034,2.055-1.247,2.602-2.218
							c0.312-0.553-0.498-1.127-0.813-0.569c-0.379,0.673-0.85,1.56-1.656,1.779c-0.832,0.226-1.654-0.768-2.117-1.297
							C383.849,13.316,383.091,13.956,383.513,14.439z"/>
					</g>
				</g>
				<g>
					<g>
						<path fill="none" d="M383.189,26.041c1.403-4.146,3.507-7.775,4.908-11.922"/>
						<path d="M383.654,26.213c1.43-4.061,3.48-7.861,4.908-11.922c0.213-0.604-0.719-0.948-0.93-0.345
							c-1.428,4.062-3.479,7.861-4.908,11.922C382.511,26.473,383.442,26.816,383.654,26.213z"/>
					</g>
				</g>
			</g>
			<path stroke="#000000" stroke-width="0.5" d="M384.241,15.155c0,0.915-0.66,1.656-1.477,1.656c-0.815,0-1.477-0.742-1.477-1.656
				s0.661-1.656,1.477-1.656C383.581,13.499,384.241,14.241,384.241,15.155z"/>
		</g>
		<path fill="none" stroke="#0A0A0A" d="M403.7,4.846v29.746"/>
		<path fill="none" stroke="#0A0A0A" stroke-width="2" d="M407.7,4.846v29.746"/>
		<g>
			<path d="M398.589,17.344c-0.713,0-1.217-0.536-1.217-1.25s0.524-1.25,1.259-1.25s1.237,0.516,1.237,1.25
				c0,0.714-0.503,1.25-1.258,1.25H398.589z"/>
		</g>
		<g>
			<path d="M398.589,25.344c-0.713,0-1.217-0.536-1.217-1.25s0.524-1.25,1.259-1.25s1.237,0.516,1.237,1.25
				c0,0.714-0.503,1.25-1.258,1.25H398.589z"/>
		</g>
		<g>
			<path d="M422.984,27.224c0.983,0,1.775,0.36,2.231,0.912V8.912h0.456v20.4c0,0.336-0.048,0.672-0.168,1.056
				c-0.648,1.704-2.784,3.072-4.8,3.048c-2.017-0.024-3.145-1.44-2.521-3.144S420.967,27.2,422.984,27.224z"/>
		</g>
		<g>
			<path d="M440.984,27.224c0.983,0,1.775,0.36,2.231,0.912V8.912h0.456v20.4c0,0.336-0.048,0.672-0.168,1.056
				c-0.648,1.704-2.784,3.072-4.8,3.048c-2.017-0.024-3.145-1.44-2.521-3.144S438.967,27.2,440.984,27.224z"/>
		</g>
		<path fill="none" stroke="#0A0A0A" d="M453.789,5.707v29.746"/>
		<path fill="none" stroke="#0A0A0A" stroke-width="2" d="M425.087,8.392h19"/>
		<path fill="none" stroke="#0A0A0A" stroke-width="2" d="M425.087,11.392h19"/>
		<g>
			<path d="M477.18,23.613c-0.713,0-1.217-0.536-1.217-1.25s0.524-1.25,1.259-1.25s1.237,0.516,1.237,1.25
				c0,0.714-0.503,1.25-1.258,1.25H477.18z"/>
		</g>
		<g>
			<path d="M487.395,23.61c-0.713,0-1.217-0.536-1.217-1.25s0.524-1.25,1.259-1.25s1.237,0.516,1.237,1.25
				c0,0.714-0.503,1.25-1.258,1.25H487.395z"/>
		</g>
		<g>
			<path d="M238.18,23.613c-0.713,0-1.217-0.536-1.217-1.25s0.524-1.25,1.259-1.25s1.238,0.516,1.238,1.25
				c0,0.714-0.503,1.25-1.259,1.25H238.18z"/>
		</g>
		<g>
			<path d="M247.18,23.613c-0.713,0-1.217-0.536-1.217-1.25s0.524-1.25,1.259-1.25s1.238,0.516,1.238,1.25
				c0,0.714-0.503,1.25-1.259,1.25H247.18z"/>
		</g>
		<g>
			<path d="M257.395,23.61c-0.713,0-1.217-0.536-1.217-1.25s0.524-1.25,1.259-1.25s1.238,0.516,1.238,1.25
				c0,0.714-0.503,1.25-1.259,1.25H257.395z"/>
		</g>
	</g>
</svg>
