<?xml version="1.0" encoding="utf-8"?>
<!-- Generator: Adobe Illustrator 10.0, SVG Export Plug-In . SVG Version: 3.0.0 Build 76)  -->
<!DOCTYPE svg PUBLIC "-//W3C//DTD SVG 1.0//EN"    "http://www.w3.org/TR/2001/REC-SVG-20010904/DTD/svg10.dtd" [
	<!ENTITY ns_flows "http://ns.adobe.com/Flows/1.0/">
	<!ENTITY ns_extend "http://ns.adobe.com/Extensibility/1.0/">
	<!ENTITY ns_ai "http://ns.adobe.com/AdobeIllustrator/10.0/">
	<!ENTITY ns_svg "http://www.w3.org/2000/svg">
	<!ENTITY ns_xlink "http://www.w3.org/1999/xlink">
]>
<svg  xmlns:x="&ns_extend;" xmlns:i="&ns_ai;" xmlns:graph="&ns_graphs;"
	 xmlns="&ns_svg;" xmlns:xlink="&ns_xlink;" xmlns:a="http://ns.adobe.com/AdobeSVGViewerExtensions/3.0/" width="472" height="130"
	 viewBox="-0.352 -0.196 472 130" overflow="visible" enable-background="new -0.352 -0.196 472 130" xml:space="preserve">
	<g id="Layer_1_2_">
		<g>
			<path fill="none" stroke="#000000" d="M0.061,4.556h227.68"/>
			<path fill="none" stroke="#000000" d="M0.061,19.667h227.68"/>
			<path fill="none" stroke="#000000" d="M0.174,26.79h227.68"/>
			<path fill="none" stroke="#000000" d="M0,34.174h227.679"/>
			<path fill="none" stroke="#000000" d="M0,11.81h227.679"/>
		</g>
		<path fill="none" stroke="#0A0A0A" d="M78.9,4.705v29.746"/>
		<g>
			<path d="M241.62,20.947c-0.713,0-1.217-0.536-1.217-1.25s0.524-1.25,1.259-1.25s1.238,0.516,1.238,1.25
				c0,0.714-0.503,1.25-1.259,1.25H241.62z"/>
		</g>
		<g>
			<path d="M45.853,16.807c0,0.96-1.2,1.8-1.848,1.8s-2.04-0.36-2.04-1.8c0-0.936,0.672-1.632,1.512-1.632
				c0.576,0,0.528-0.36,0.336-0.576c-0.528-0.552-1.488-0.96-2.664-0.624c-1.896,0.504-2.304,2.808-2.304,5.184
				c0,2.64,0.456,5.256,2.76,5.256c1.632,0,3.456-1.488,3.408-3.528h0.672c-0.024,0.624-0.432,1.92-0.84,2.424
				c-0.816,1.008-2.328,1.848-3.504,1.848c-3.168,0-5.424-2.856-5.424-6c0-3.072,2.112-5.904,5.184-5.904
				C43.692,13.255,45.853,14.479,45.853,16.807z"/>
		</g>
		<g>
			<path d="M54.083,102.463c-2.448,0-4.272-1.2-4.272-3.168c0-0.84,0.816-1.728,1.68-1.728c0.888,0,1.824,0.528,1.824,1.536
				c0,1.224-0.936,1.368-0.864,2.232c0.024,0.216,0.72,0.6,0.96,0.6c1.608,0,2.376-1.848,2.376-2.928
				c0-2.064-1.896-1.848-3.432-2.16c0-0.048,0.024-0.648,0.024-0.624c1.56-0.192,3.072-0.72,3.048-2.52
				c-0.024-2.52-2.016-2.352-2.328-2.352c-0.168,0-0.696,0.336-0.672,0.6c0.072,0.528,0.816,0.768,1.128,1.704
				c0.312,0.912-0.768,1.92-1.68,1.92c-1.056,0-1.848-1.176-1.848-1.776c0-1.392,1.104-3.144,4.848-3.144
				c1.632,0,3.432,1.128,3.432,2.904c0,2.352-2.76,2.52-2.76,2.856c1.392,0.144,3.24,0.672,3.24,2.52
				C58.788,101.384,55.835,102.463,54.083,102.463z"/>
		</g>
		<g>
			<path d="M57.828,114.2v1.584c0,0.96,1.128,0.936,1.128,0.936v0.624h-5.208v-0.624c0,0,1.176,0.048,1.152-0.888V114.2h-4.44
				l-0.432-0.456c2.904-3.912,2.928-4.632,3.624-8.184h4.152c-0.984,1.824-4.296,5.256-6.624,7.968h3.72v-2.952l2.928-3.216v6.168
				h1.728v0.672H57.828z"/>
		</g>
		<g>
			<path d="M16.876,33.768c-4.944-2.352-5.736-5.376-5.952-8.472c-0.24-3.36,1.896-6.768,3.888-8.664
				c1.152-1.08,2.4-2.136,3.888-3.264c-0.048-0.84-0.24-1.176-0.336-2.376c-0.024-0.504-0.336-2.856,0.168-5.568
				c0.312-1.608,2.328-5.4,3.72-5.424c1.08-0.024,2.736,4.296,2.784,6.456c0.072,3.336-0.72,4.848-1.704,6.576
				c-0.504,0.864-1.032,1.464-1.584,2.136c-0.576,0.696-1.224,1.104-1.824,1.632c0,0,0.768,4.344,0.792,4.656
				c1.536-0.192,3.408,0.36,4.08,0.84c1.704,1.272,2.352,3.024,2.472,4.728c0.216,2.712-1.272,5.568-4.56,6.936
				c0,0,0.504,3.456,0.624,4.176c0.264,1.896,0.216,3.096-0.192,3.864c-0.696,1.296-1.824,2.496-4.008,2.64
				c-1.68,0.096-4.992-0.744-5.16-3.384c-0.096-1.56,0.6-3.24,2.496-3.36c1.152-0.096,2.52,0.864,2.616,2.232
				c0.096,1.176-0.672,2.4-2.664,2.952c0.312,0.432,1.248,0.936,2.592,0.936c1.392,0,2.832-0.936,3.528-2.184
				c0.432-0.816,0.384-2.28,0.216-3.624c-0.072-0.456-0.648-4.08-0.648-4.08C20.332,34.416,17.884,34.248,16.876,33.768z
				 M17.356,28.08c0.048,1.152,1.008,2.496,1.896,2.952c-0.12,0.072-0.24,0.264-0.24,0.264c-0.984-0.48-1.824-1.272-2.04-1.56
				c-0.696-0.936-0.984-1.464-1.08-2.88c-0.096-1.32,0.624-3.096,2.232-4.344c0.84-0.624,1.248-0.768,1.968-0.936l-0.72-4.344
				c-0.744,0.432-3.816,2.904-5.112,4.92c-1.152,1.8-1.848,3.24-1.704,5.016c0.288,4.008,4.68,7.296,9.432,6.168
				c0,0-1.416-8.52-1.392-8.52C17.98,24.912,17.284,26.928,17.356,28.08z M19.3,12.864c2.088-1.632,4.92-4.704,4.752-7.08
				c-0.048-0.744-0.36-2.088-1.44-2.064C20.14,3.744,18.748,8.904,19.3,12.864z M22.564,33.144c2.76-0.936,2.88-3.312,2.784-4.728
				c-0.096-1.176-0.624-3.816-4.128-3.648L22.564,33.144z"/>
		</g>
		<g>
			<path d="M191.096,34.222c0.984,0,1.776,0.36,2.232,0.912V15.91h0.456v20.4c0,0.336-0.048,0.672-0.168,1.056
				c-0.648,1.704-2.784,3.072-4.8,3.048c-2.016-0.024-3.144-1.44-2.52-3.144S189.08,34.198,191.096,34.222z"/>
		</g>
		<g>
			<path d="M182.779,108.368c1.008,0.024,1.776,0.36,2.232,0.912V89.936h0.456c0,1.176,0.552,2.568,1.248,3.552
				c0.792,1.08,1.752,2.352,2.688,3.888c0.792,1.344,1.44,3.456,1.56,4.416c0.144,0.984,0.216,1.968,0.192,2.928
				c-0.024,1.44-0.24,2.808-0.72,4.08l-0.288-0.144c0.432-1.08,0.648-2.664,0.648-4.032c0-1.128-0.192-2.64-0.6-3.792
				c-0.72-2.136-1.92-3.384-2.616-3.864c-1.08-0.696-2.112-0.744-2.112-0.744v14.16c0.024,0.36-0.024,0.744-0.168,1.128
				c-0.624,1.704-2.784,3.072-4.8,3.048s-3.144-1.416-2.496-3.144C178.627,109.711,180.764,108.344,182.779,108.368z"/>
		</g>
		<g>
			<path d="M208.44,30.006c0.456-1.248,1.488-2.256,2.256-2.64c0.768-0.36,1.752-0.552,2.88-0.456
				c0.576,0.048,1.584,0.216,2.16,0.816V8.502h0.456v20.496c0,0.096-0.024,0.168-0.024,0.24c-0.048,0.432-0.168,0.792-0.264,1.032
				c-0.456,1.248-1.44,2.088-2.184,2.52s-1.872,0.744-3.24,0.6c-0.528-0.072-1.68-0.168-2.16-1.032
				C207.936,31.71,208.271,30.486,208.44,30.006z M211.32,32.022c0.552-0.288,0.96-0.528,1.464-0.792
				c0.48-0.288,0.912-0.552,1.44-0.888c0.72-0.456,1.656-1.248,1.176-2.064c-0.48-0.816-1.656-0.408-2.4-0.048
				c-0.576,0.288-1.032,0.528-1.512,0.816c-0.48,0.264-0.912,0.504-1.416,0.84c-0.72,0.456-1.656,1.272-1.152,2.088
				C209.375,32.79,210.552,32.382,211.32,32.022z"/>
		</g>
		<g>
			<path d="M35.459,100.312c0,0.216,0,1.536,0,1.536c0.912-0.816,1.416-0.984,2.424-1.008c1.2-0.024,1.968,1.176,1.992,2.136
				c0.024,0.504-0.12,1.032-0.312,1.44c-0.216,0.528-0.792,0.936-1.176,1.32c-0.432,0.432-3.552,2.568-3.552,2.616V94.167h0.624
				C35.459,94.167,35.483,97.144,35.459,100.312z M35.724,102.688c-0.312,0.6-0.264,1.632-0.264,2.376v2.064
				c0,0.024,0.864-0.72,1.344-1.176c0.432-0.408,0.768-0.864,0.936-1.584c0.192-0.72,0.12-1.488-0.336-1.992
				C37.091,102.016,36.228,101.728,35.724,102.688z"/>
		</g>
		<g>
			<path d="M414.268,44.266c-0.713,0-1.217-0.536-1.217-1.25s0.524-1.25,1.259-1.25s1.237,0.516,1.237,1.25
				c0,0.714-0.503,1.25-1.258,1.25H414.268z"/>
		</g>
		<g>
			<g>
				<path d="M61.468,36.4c0.984,0,1.776,0.36,2.232,0.912V18.088h0.456v20.4c0,0.336-0.048,0.672-0.168,1.056
					c-0.648,1.704-2.784,3.072-4.8,3.048c-2.016-0.024-3.144-1.44-2.52-3.144S59.452,36.376,61.468,36.4z"/>
			</g>
			<path fill="none" stroke="#000000" stroke-miterlimit="1" d="M54.365,39.557h11.644"/>
		</g>
		<g>
			<path fill="none" stroke="#000000" stroke-miterlimit="1" d="M397.273,43.387h11.645"/>
			<g>
				<path d="M399.663,43.269c0.456-1.248,1.487-2.256,2.256-2.64c0.768-0.36,1.752-0.552,2.88-0.456
					c0.576,0.048,1.584,0.216,2.16,0.816V21.764h0.456V42.26c0,0.096-0.024,0.168-0.024,0.24c-0.048,0.432-0.168,0.792-0.264,1.032
					c-0.456,1.248-1.44,2.088-2.184,2.52c-0.744,0.432-1.872,0.744-3.24,0.6c-0.528-0.072-1.681-0.168-2.16-1.032
					C399.159,44.972,399.495,43.749,399.663,43.269z M402.542,45.284c0.552-0.288,0.96-0.528,1.464-0.792
					c0.48-0.288,0.912-0.552,1.44-0.888c0.72-0.456,1.655-1.248,1.176-2.064c-0.48-0.816-1.656-0.408-2.4-0.048
					c-0.576,0.288-1.032,0.528-1.512,0.816c-0.48,0.264-0.912,0.504-1.416,0.84c-0.72,0.456-1.656,1.272-1.152,2.088
					C400.598,46.052,401.774,45.645,402.542,45.284z"/>
			</g>
		</g>
		<g>
			<path fill="none" stroke="#000000" d="M69.243,126.099h12"/>
			<g>
				<path d="M76.28,122.367c1.008,0.024,1.776,0.36,2.232,0.912v-19.344h0.456c0,1.176,0.552,2.568,1.248,3.552
					c0.792,1.08,1.752,2.352,2.688,3.888c0.792,1.344,1.44,3.456,1.56,4.416c0.144,0.984,0.216,1.968,0.192,2.928
					c-0.024,1.44-0.24,2.808-0.72,4.08l-0.288-0.144c0.432-1.08,0.648-2.664,0.648-4.032c0-1.128-0.192-2.64-0.6-3.792
					c-0.72-2.136-1.92-3.384-2.616-3.864c-1.08-0.696-2.112-0.744-2.112-0.744v14.16c0.024,0.36-0.024,0.744-0.168,1.128
					c-0.624,1.704-2.784,3.072-4.8,3.048s-3.144-1.416-2.496-3.144C72.128,123.711,74.265,122.343,76.28,122.367z"/>
			</g>
		</g>
		<g>
			<g>
				<path d="M94.468,37.4c0.984,0,1.776,0.36,2.232,0.912V19.088h0.456v20.4c0,0.336-0.048,0.672-0.168,1.056
					c-0.648,1.704-2.784,3.072-4.8,3.048c-2.016-0.024-3.144-1.44-2.52-3.144S92.452,37.376,94.468,37.4z"/>
			</g>
			<path fill="none" stroke="#000000" stroke-miterlimit="1" d="M87.365,40.557h11.644"/>
		</g>
		<g>
			<g>
				<path d="M116.468,37.4c0.984,0,1.776,0.36,2.232,0.912V19.088h0.456v20.4c0,0.336-0.048,0.672-0.168,1.056
					c-0.648,1.704-2.784,3.072-4.8,3.048c-2.016-0.024-3.144-1.44-2.52-3.144S114.452,37.376,116.468,37.4z"/>
			</g>
			<path fill="none" stroke="#000000" stroke-miterlimit="1" d="M109.365,40.557h11.644"/>
		</g>
		<g>
			<g>
				<path d="M138.468,37.4c0.984,0,1.776,0.36,2.232,0.912V19.088h0.456v20.4c0,0.336-0.048,0.672-0.168,1.056
					c-0.648,1.704-2.784,3.072-4.8,3.048c-2.016-0.024-3.144-1.44-2.52-3.144S136.452,37.376,138.468,37.4z"/>
			</g>
			<path fill="none" stroke="#000000" stroke-miterlimit="1" d="M131.365,40.557h11.644"/>
		</g>
		<g>
			<g>
				<path d="M159.468,37.4c0.984,0,1.776,0.36,2.232,0.912V19.088h0.456v20.4c0,0.336-0.048,0.672-0.168,1.056
					c-0.648,1.704-2.784,3.072-4.8,3.048c-2.016-0.024-3.144-1.44-2.52-3.144S157.452,37.376,159.468,37.4z"/>
			</g>
			<path fill="none" stroke="#000000" stroke-miterlimit="1" d="M152.365,40.557h11.644"/>
		</g>
		<path fill="none" stroke="#0A0A0A" d="M175.9,3.705v29.746"/>
		<g>
			<path d="M254.62,20.947c-0.713,0-1.217-0.536-1.217-1.25s0.524-1.25,1.259-1.25s1.238,0.516,1.238,1.25
				c0,0.714-0.503,1.25-1.259,1.25H254.62z"/>
		</g>
		<g>
			<path d="M269.62,20.947c-0.713,0-1.217-0.536-1.217-1.25s0.524-1.25,1.259-1.25s1.238,0.516,1.238,1.25
				c0,0.714-0.503,1.25-1.259,1.25H269.62z"/>
		</g>
		<g>
			<path fill="none" stroke="#000000" d="M2.065,89.556h242.668"/>
			<path fill="none" stroke="#000000" d="M2.065,104.667h242.668"/>
			<path fill="none" stroke="#000000" d="M2.186,111.79h242.668"/>
			<path fill="none" stroke="#000000" d="M2,119.174h242.667"/>
			<path fill="none" stroke="#000000" d="M2,96.81h242.667"/>
		</g>
		<g>
			<path d="M18.876,118.768c-4.944-2.352-5.736-5.376-5.952-8.472c-0.24-3.36,1.896-6.768,3.888-8.664
				c1.152-1.08,2.4-2.136,3.888-3.264c-0.048-0.84-0.24-1.176-0.336-2.376c-0.024-0.504-0.336-2.856,0.168-5.568
				c0.312-1.608,2.328-5.4,3.72-5.424c1.08-0.024,2.736,4.296,2.784,6.456c0.072,3.336-0.72,4.848-1.704,6.576
				c-0.504,0.864-1.032,1.464-1.584,2.136c-0.576,0.696-1.224,1.104-1.824,1.632c0,0,0.768,4.344,0.792,4.656
				c1.536-0.192,3.408,0.36,4.08,0.84c1.704,1.272,2.352,3.024,2.472,4.728c0.216,2.712-1.272,5.568-4.56,6.936
				c0,0,0.504,3.456,0.624,4.176c0.264,1.896,0.216,3.096-0.192,3.864c-0.696,1.296-1.824,2.496-4.008,2.64
				c-1.68,0.096-4.992-0.744-5.16-3.384c-0.096-1.56,0.6-3.24,2.496-3.36c1.152-0.096,2.52,0.864,2.616,2.232
				c0.096,1.176-0.672,2.4-2.664,2.952c0.312,0.432,1.248,0.936,2.592,0.936c1.392,0,2.832-0.936,3.528-2.184
				c0.432-0.816,0.384-2.28,0.216-3.624c-0.072-0.456-0.648-4.08-0.648-4.08C22.332,119.416,19.884,119.248,18.876,118.768z
				 M19.356,113.08c0.048,1.152,1.008,2.496,1.896,2.952c-0.12,0.072-0.24,0.264-0.24,0.264c-0.984-0.48-1.824-1.272-2.04-1.56
				c-0.696-0.936-0.984-1.464-1.08-2.88c-0.096-1.32,0.624-3.096,2.232-4.344c0.84-0.624,1.248-0.768,1.968-0.936l-0.72-4.344
				c-0.744,0.432-3.816,2.904-5.112,4.92c-1.152,1.8-1.848,3.24-1.704,5.016c0.288,4.008,4.68,7.296,9.432,6.168
				c0,0-1.416-8.52-1.392-8.52C19.98,109.912,19.284,111.928,19.356,113.08z M21.3,97.864c2.088-1.632,4.92-4.704,4.752-7.08
				c-0.048-0.744-0.36-2.088-1.44-2.064C22.14,88.744,20.748,93.904,21.3,97.864z M24.564,118.144
				c2.76-0.936,2.88-3.312,2.784-4.728c-0.096-1.176-0.624-3.816-4.128-3.648L24.564,118.144z"/>
		</g>
		<g>
			<path fill="none" stroke="#000000" d="M292.048,88.556h178.717"/>
			<path fill="none" stroke="#000000" d="M292.048,103.667h178.717"/>
			<path fill="none" stroke="#000000" d="M292.137,110.79h178.717"/>
			<path fill="none" stroke="#000000" d="M292,118.174h178.717"/>
			<path fill="none" stroke="#000000" d="M292,95.81h178.717"/>
		</g>
		<g>
			<path fill="none" stroke="#000000" d="M290.632,6.556h171.137"/>
			<path fill="none" stroke="#000000" d="M290.632,21.667h171.137"/>
			<path fill="none" stroke="#000000" d="M290.718,28.79h171.136"/>
			<path fill="none" stroke="#000000" d="M290.587,36.174h171.135"/>
			<path fill="none" stroke="#000000" d="M290.587,13.81h171.135"/>
		</g>
		<g>
			<path d="M303.096,25.222c0.983,0,1.775,0.36,2.231,0.912V6.91h0.456v20.4c0,0.336-0.048,0.672-0.168,1.056
				c-0.648,1.704-2.784,3.072-4.8,3.048c-2.017-0.024-3.145-1.44-2.521-3.144S301.08,25.198,303.096,25.222z"/>
		</g>
		<path fill="none" stroke="#0A0A0A" d="M324.9,5.705v29.746"/>
		<g>
			<path d="M336.44,32.006c0.456-1.248,1.487-2.256,2.256-2.64c0.768-0.36,1.752-0.552,2.88-0.456
				c0.576,0.048,1.584,0.216,2.16,0.816V10.502h0.456v20.496c0,0.096-0.024,0.168-0.024,0.24c-0.048,0.432-0.168,0.792-0.264,1.032
				c-0.456,1.248-1.44,2.088-2.184,2.52c-0.744,0.432-1.872,0.744-3.24,0.6c-0.528-0.072-1.681-0.168-2.16-1.032
				C335.936,33.71,336.272,32.486,336.44,32.006z M339.32,34.022c0.552-0.288,0.96-0.528,1.464-0.792
				c0.48-0.288,0.912-0.552,1.44-0.888c0.72-0.456,1.655-1.248,1.176-2.064c-0.48-0.816-1.656-0.408-2.4-0.048
				c-0.576,0.288-1.032,0.528-1.512,0.816c-0.48,0.264-0.912,0.504-1.416,0.84c-0.72,0.456-1.656,1.272-1.152,2.088
				C337.375,34.79,338.551,34.382,339.32,34.022z"/>
		</g>
		<g>
			<path d="M362.44,39.006c0.456-1.248,1.487-2.256,2.256-2.64c0.768-0.36,1.752-0.552,2.88-0.456
				c0.576,0.048,1.584,0.216,2.16,0.816V17.502h0.456v20.496c0,0.096-0.024,0.168-0.024,0.24c-0.048,0.432-0.168,0.792-0.264,1.032
				c-0.456,1.248-1.44,2.088-2.184,2.52c-0.744,0.432-1.872,0.744-3.24,0.6c-0.528-0.072-1.681-0.168-2.16-1.032
				C361.936,40.71,362.272,39.486,362.44,39.006z M365.32,41.022c0.552-0.288,0.96-0.528,1.464-0.792
				c0.48-0.288,0.912-0.552,1.44-0.888c0.72-0.456,1.655-1.248,1.176-2.064c-0.48-0.816-1.656-0.408-2.4-0.048
				c-0.576,0.288-1.032,0.528-1.512,0.816c-0.48,0.264-0.912,0.504-1.416,0.84c-0.72,0.456-1.656,1.272-1.152,2.088
				C363.375,41.79,364.551,41.382,365.32,41.022z"/>
		</g>
		<path fill="none" stroke="#0A0A0A" d="M387.9,6.705v29.746"/>
		<path fill="none" stroke="#0A0A0A" stroke-width="2" d="M461.9,5.705v29.746"/>
		<path fill="none" stroke="#0A0A0A" stroke-width="2" d="M457.9,5.705v29.746"/>
		<path fill="none" stroke="#0A0A0A" stroke-width="2" d="M470.9,87.705v29.746"/>
		<path fill="none" stroke="#0A0A0A" stroke-width="2" d="M466.9,87.705v29.746"/>
		<g>
			<path d="M99.808,112.972c0.984,0,1.776,0.36,2.232,0.912V94.66h0.456v20.4c0,0.336-0.048,0.672-0.168,1.056
				c-0.648,1.704-2.784,3.072-4.8,3.048c-2.016-0.024-3.144-1.44-2.52-3.144S97.792,112.948,99.808,112.972z"/>
		</g>
		<g>
			<path d="M121.809,108.638c0.984,0,1.776,0.36,2.232,0.912V90.326h0.456v20.4c0,0.336-0.048,0.672-0.168,1.056
				c-0.648,1.704-2.784,3.072-4.8,3.048c-2.016-0.024-3.144-1.44-2.52-3.144S119.792,108.614,121.809,108.638z"/>
		</g>
		<path fill="none" stroke="#000000" stroke-width="2" d="M101.982,93.804l22-2.667"/>
		<g>
			<g>
				<path d="M201.544,112.636c0.984,0,1.776,0.36,2.232,0.912V94.324h0.456v20.4c0,0.336-0.048,0.672-0.168,1.056
					c-0.648,1.704-2.784,3.072-4.8,3.048c-2.016-0.024-3.144-1.44-2.52-3.144S199.528,112.612,201.544,112.636z"/>
			</g>
			<g>
				<path d="M226.21,119.97c0.984,0,1.776,0.36,2.232,0.912v-19.224h0.456v20.4c0,0.336-0.048,0.672-0.168,1.056
					c-0.648,1.704-2.784,3.072-4.8,3.048c-2.016-0.024-3.144-1.44-2.52-3.144S224.194,119.946,226.21,119.97z"/>
			</g>
			<path fill="none" stroke="#000000" stroke-width="2" d="M204.482,95.138l25.333,5.333"/>
		</g>
		<path fill="none" stroke="#000000" stroke-width="2" d="M356.648,104.2l36-7.793"/>
		<path fill="none" stroke="#0A0A0A" d="M139.9,89.705v29.746"/>
		<g>
			<path d="M153.096,104.222c0.984,0,1.776,0.36,2.232,0.912V85.91h0.456v20.4c0,0.336-0.048,0.672-0.168,1.056
				c-0.648,1.704-2.784,3.072-4.8,3.048c-2.016-0.024-3.144-1.44-2.52-3.144S151.08,104.198,153.096,104.222z"/>
		</g>
		<g>
			<path d="M162.268,109.266c-0.713,0-1.217-0.536-1.217-1.25s0.524-1.25,1.259-1.25s1.238,0.516,1.238,1.25
				c0,0.714-0.503,1.25-1.259,1.25H162.268z"/>
		</g>
		<path fill="none" stroke="#0A0A0A" d="M244.9,88.705v29.746"/>
		<g>
			<path d="M253.956,104.022c-0.713,0-1.217-0.536-1.217-1.25s0.524-1.25,1.259-1.25s1.238,0.516,1.238,1.25
				c0,0.714-0.503,1.25-1.259,1.25H253.956z"/>
		</g>
		<g>
			<path d="M266.956,104.022c-0.713,0-1.217-0.536-1.217-1.25s0.524-1.25,1.259-1.25s1.238,0.516,1.238,1.25
				c0,0.714-0.503,1.25-1.259,1.25H266.956z"/>
		</g>
		<g>
			<path d="M281.956,104.022c-0.713,0-1.217-0.536-1.217-1.25s0.524-1.25,1.259-1.25s1.238,0.516,1.238,1.25
				c0,0.714-0.503,1.25-1.259,1.25H281.956z"/>
		</g>
		<g>
			<g>
				<path d="M307.468,121.4c0.983,0,1.775,0.36,2.231,0.912v-19.224h0.456v20.4c0,0.336-0.048,0.672-0.168,1.056
					c-0.648,1.704-2.784,3.072-4.8,3.048c-2.017-0.024-3.145-1.44-2.521-3.144S305.452,121.376,307.468,121.4z"/>
			</g>
			<path fill="none" stroke="#000000" stroke-miterlimit="1" d="M300.365,124.557h11.644"/>
		</g>
		<g>
			<path d="M316.268,126.266c-0.713,0-1.217-0.536-1.217-1.25s0.524-1.25,1.259-1.25s1.237,0.516,1.237,1.25
				c0,0.714-0.503,1.25-1.258,1.25H316.268z"/>
		</g>
		<g>
			<path fill="none" stroke="#000000" d="M328.243,125.099h12"/>
			<g>
				<path d="M335.281,121.367c1.008,0.024,1.775,0.36,2.231,0.912v-19.344h0.456c0,1.176,0.552,2.568,1.248,3.552
					c0.792,1.08,1.752,2.352,2.688,3.888c0.792,1.344,1.439,3.456,1.56,4.416c0.145,0.984,0.216,1.968,0.192,2.928
					c-0.024,1.44-0.24,2.808-0.721,4.08l-0.287-0.144c0.432-1.08,0.647-2.664,0.647-4.032c0-1.128-0.191-2.64-0.6-3.792
					c-0.721-2.136-1.92-3.384-2.616-3.864c-1.08-0.696-2.112-0.744-2.112-0.744v14.16c0.024,0.36-0.023,0.744-0.168,1.128
					c-0.624,1.704-2.784,3.072-4.8,3.048s-3.145-1.416-2.496-3.144C331.128,122.711,333.264,121.343,335.281,121.367z"/>
			</g>
		</g>
		<g>
			<g>
				<path d="M354.468,121.4c0.983,0,1.775,0.36,2.231,0.912v-19.224h0.456v20.4c0,0.336-0.048,0.672-0.168,1.056
					c-0.648,1.704-2.784,3.072-4.8,3.048c-2.017-0.024-3.145-1.44-2.521-3.144S352.452,121.376,354.468,121.4z"/>
			</g>
			<path fill="none" stroke="#000000" stroke-miterlimit="1" d="M347.365,124.557h11.644"/>
		</g>
		<g>
			<path d="M373.096,118.222c0.983,0,1.775,0.36,2.231,0.912V99.91h0.456v20.4c0,0.336-0.048,0.672-0.168,1.056
				c-0.648,1.704-2.784,3.072-4.8,3.048c-2.017-0.024-3.145-1.44-2.521-3.144S371.08,118.198,373.096,118.222z"/>
		</g>
		<g>
			<path d="M389.096,114.222c0.983,0,1.775,0.36,2.231,0.912V95.91h0.456v20.4c0,0.336-0.048,0.672-0.168,1.056
				c-0.648,1.704-2.784,3.072-4.8,3.048c-2.017-0.024-3.145-1.44-2.521-3.144S387.08,114.198,389.096,114.222z"/>
		</g>
		<path fill="none" stroke="#0A0A0A" d="M401.9,87.705v29.746"/>
		<g>
			<path d="M420.096,110.222c0.983,0,1.775,0.36,2.231,0.912V91.91h0.456v20.4c0,0.336-0.048,0.672-0.168,1.056
				c-0.648,1.704-2.784,3.072-4.8,3.048c-2.017-0.024-3.145-1.44-2.521-3.144S418.08,110.198,420.096,110.222z"/>
		</g>
		<path fill="none" stroke="#000000" stroke-width="2" d="M375.267,105.559l16.762-4.511"/>
		<g>
			<g>
				<path d="M445.648,99.804c0,0.859-0.392,1.555-0.877,1.555c-0.482,0-0.876-0.696-0.876-1.555c0-0.858,0.394-1.555,0.876-1.555
					C445.256,98.249,445.648,98.945,445.648,99.804z"/>
				<g>
					<g>
						<path fill="none" d="M445.298,98.767c1.752,2.073,3.154,2.073,4.558-0.518"/>
						<path d="M444.919,99.088c0.704,0.807,1.591,1.694,2.742,1.664c1.248-0.034,2.054-1.247,2.601-2.218
							c0.312-0.553-0.499-1.127-0.813-0.569c-0.379,0.673-0.851,1.56-1.657,1.779c-0.831,0.226-1.654-0.768-2.115-1.297
							C445.257,97.965,444.498,98.604,444.919,99.088z"/>
					</g>
				</g>
				<g>
					<g>
						<path fill="none" d="M444.596,110.689c1.403-4.146,3.507-7.775,4.908-11.922"/>
						<path d="M445.062,110.861c1.429-4.061,3.48-7.861,4.908-11.922c0.212-0.604-0.719-0.948-0.932-0.345
							c-1.428,4.062-3.479,7.861-4.908,11.922C443.917,111.121,444.849,111.464,445.062,110.861z"/>
					</g>
				</g>
			</g>
			<path stroke="#000000" stroke-width="0.5" d="M445.648,99.804c0,0.915-0.66,1.656-1.477,1.656c-0.815,0-1.477-0.742-1.477-1.656
				s0.661-1.656,1.477-1.656C444.988,98.147,445.648,98.889,445.648,99.804z"/>
		</g>
	</g>
</svg>
