<?xml version="1.0" encoding="utf-8"?>
<!-- Generator: Adobe Illustrator 10.0, SVG Export Plug-In . SVG Version: 3.0.0 Build 76)  -->
<!DOCTYPE svg PUBLIC "-//W3C//DTD SVG 1.0//EN"    "http://www.w3.org/TR/2001/REC-SVG-20010904/DTD/svg10.dtd" [
	<!ENTITY ns_flows "http://ns.adobe.com/Flows/1.0/">
	<!ENTITY ns_extend "http://ns.adobe.com/Extensibility/1.0/">
	<!ENTITY ns_ai "http://ns.adobe.com/AdobeIllustrator/10.0/">
	<!ENTITY ns_svg "http://www.w3.org/2000/svg">
	<!ENTITY ns_xlink "http://www.w3.org/1999/xlink">
]>
<svg  xmlns:x="&ns_extend;" xmlns:i="&ns_ai;" xmlns:graph="&ns_graphs;"
	 xmlns="&ns_svg;" xmlns:xlink="&ns_xlink;" xmlns:a="http://ns.adobe.com/AdobeSVGViewerExtensions/3.0/" width="271" height="236"
	 viewBox="-0.211 0.46 271 236" overflow="visible" enable-background="new -0.211 0.46 271 236" xml:space="preserve">
	<g id="Layer_1_2_">
		<path fill="none" stroke="#000000" stroke-width="3" d="M27.983,0v161.43"/>
		<path fill="none" stroke="#000000" stroke-width="3" d="M48.911,95.432v65.998"/>
		<path fill="none" stroke="#000000" stroke-width="3" d="M68.966,95.432v65.105"/>
		<path fill="none" stroke="#000000" stroke-width="3" d="M89.021,0.892v161.43"/>
		<path fill="none" stroke="#000000" stroke-width="3" d="M109.949,94.539v66.891"/>
		<path fill="none" stroke="#000000" stroke-width="3" d="M130.276,95.432l-0.252,63.918"/>
		<path fill="none" stroke="#000000" stroke-width="3" d="M149.188,94.539v66.891"/>
		<path fill="none" stroke="#000000" stroke-width="3" d="M169.245,0.892l0.871,160.538"/>
		<path fill="none" stroke="#000000" stroke-width="3" d="M27.983,161.43H170.76"/>
		<path stroke="#000000" stroke-width="3" d="M55.014,93.646H42.807V1.784h12.208V93.646z"/>
		<path stroke="#000000" stroke-width="3" d="M75.07,93.646H62.862V1.784H75.07V93.646z"/>
		<path stroke="#000000" stroke-width="3" d="M115.181,93.646h-12.208V1.784h12.208V93.646z"/>
		<path stroke="#000000" stroke-width="3" d="M136.108,93.646h-12.208V1.784h12.208V93.646z"/>
		<path stroke="#000000" stroke-width="3" d="M155.292,93.646h-12.208V1.784h12.208V93.646z"/>
		<g>
			<path d="M80.496,142.899h-3.062v2.916h3.426v0.876h-4.458v-8.088h4.282v0.876h-3.25v2.556h3.062V142.899z"/>
			<path d="M97.096,138.604h4.259v0.876h-3.227v2.688h2.98v0.864h-2.98v3.66h-1.033V138.604z"/>
			<path d="M123.774,146.332c-0.458,0.18-1.373,0.444-2.44,0.444c-1.196,0-2.182-0.312-2.957-1.068
				c-0.68-0.672-1.103-1.752-1.103-3.012c0-2.412,1.631-4.176,4.282-4.176c0.915,0,1.643,0.204,1.983,0.372l-0.258,0.852
				c-0.422-0.204-0.95-0.348-1.748-0.348c-1.924,0-3.18,1.224-3.18,3.252c0,2.052,1.197,3.264,3.051,3.264
				c0.668,0,1.126-0.096,1.361-0.216v-2.412h-1.596v-0.84h2.604V146.332z"/>
			<path d="M139.038,144.147l-0.821,2.544h-1.056l2.687-8.088h1.232l2.698,8.088h-1.091l-0.845-2.544H139.038z M141.63,143.332
				l-0.786-2.328c-0.164-0.528-0.282-1.008-0.399-1.476h-0.035c-0.105,0.468-0.234,0.972-0.387,1.464l-0.774,2.34H141.63z"/>
		</g>
		<g>
			<path d="M4.764,186.668H1.702v2.916h3.426v0.876H0.669v-8.088h4.282v0.876h-3.25v2.556h3.062V186.668z"/>
			<path d="M8.905,186.225c0-0.612-0.012-1.092-0.047-1.572h0.915l0.059,0.948h0.023c0.282-0.54,0.939-1.08,1.877-1.08
				c0.786,0,2.006,0.48,2.006,2.472v3.468h-1.032v-3.348c0-0.936-0.34-1.728-1.314-1.728c-0.669,0-1.197,0.492-1.384,1.08
				c-0.047,0.132-0.071,0.324-0.071,0.492v3.504H8.905V186.225z"/>
			<path d="M19.417,189.068c0,0.504,0.023,0.996,0.082,1.392h-0.927l-0.094-0.732h-0.036c-0.305,0.456-0.927,0.864-1.736,0.864
				c-1.149,0-1.736-0.828-1.736-1.668c0-1.404,1.22-2.172,3.414-2.16v-0.12c0-0.48-0.129-1.356-1.291-1.344
				c-0.54,0-1.091,0.156-1.49,0.432l-0.235-0.708c0.469-0.3,1.162-0.504,1.877-0.504c1.748,0,2.17,1.212,2.17,2.376V189.068z
				 M18.408,187.497c-1.126-0.024-2.405,0.18-2.405,1.308c0,0.696,0.446,1.008,0.962,1.008c0.751,0,1.232-0.48,1.396-0.972
				c0.035-0.108,0.047-0.228,0.047-0.336V187.497z"/>
			<path d="M22.268,183.26v1.392h1.479v0.804h-1.479v3.132c0,0.72,0.2,1.128,0.774,1.128c0.282,0,0.446-0.024,0.599-0.072
				l0.047,0.804c-0.2,0.072-0.517,0.144-0.915,0.144c-0.481,0-0.869-0.168-1.115-0.444c-0.282-0.324-0.399-0.84-0.399-1.524v-3.168
				h-0.88v-0.804h0.88v-1.068L22.268,183.26z"/>
			<path d="M29.659,188.876c0,0.6,0.012,1.128,0.047,1.584h-0.915l-0.059-0.948h-0.024c-0.258,0.468-0.868,1.08-1.877,1.08
				c-0.892,0-1.959-0.516-1.959-2.544v-3.396h1.033v3.204c0,1.104,0.34,1.86,1.267,1.86c0.692,0,1.173-0.492,1.361-0.972
				c0.059-0.144,0.094-0.336,0.094-0.54v-3.552h1.033V188.876z"/>
			<path d="M31.384,186.464c0-0.684-0.012-1.272-0.047-1.812h0.904l0.047,1.14h0.035c0.258-0.78,0.892-1.272,1.584-1.272
				c0.105,0,0.188,0.012,0.281,0.036v0.984c-0.117-0.012-0.223-0.024-0.364-0.024c-0.727,0-1.244,0.564-1.384,1.344
				c-0.023,0.156-0.035,0.324-0.035,0.504v3.096h-1.032L31.384,186.464z"/>
			<path d="M39.139,189.068c0,0.504,0.023,0.996,0.082,1.392h-0.927l-0.094-0.732h-0.035c-0.305,0.456-0.927,0.864-1.737,0.864
				c-1.149,0-1.736-0.828-1.736-1.668c0-1.404,1.22-2.172,3.414-2.16v-0.12c0-0.48-0.129-1.356-1.291-1.344
				c-0.54,0-1.091,0.156-1.49,0.432l-0.235-0.708c0.469-0.3,1.162-0.504,1.877-0.504c1.748,0,2.17,1.212,2.17,2.376V189.068z
				 M38.13,187.497c-1.126-0.024-2.405,0.18-2.405,1.308c0,0.696,0.446,1.008,0.962,1.008c0.751,0,1.232-0.48,1.396-0.972
				c0.036-0.108,0.047-0.228,0.047-0.336V187.497z"/>
			<path d="M40.793,181.94h1.032v8.52h-1.032V181.94z"/>
			<path d="M50.026,189.068c0,0.504,0.023,0.996,0.082,1.392h-0.927l-0.094-0.732h-0.035c-0.305,0.456-0.927,0.864-1.736,0.864
				c-1.15,0-1.736-0.828-1.736-1.668c0-1.404,1.22-2.172,3.414-2.16v-0.12c0-0.48-0.129-1.356-1.291-1.344
				c-0.54,0-1.091,0.156-1.49,0.432l-0.234-0.708c0.469-0.3,1.161-0.504,1.877-0.504c1.748,0,2.17,1.212,2.17,2.376V189.068z
				 M49.017,187.497c-1.126-0.024-2.405,0.18-2.405,1.308c0,0.696,0.446,1.008,0.962,1.008c0.751,0,1.232-0.48,1.396-0.972
				c0.035-0.108,0.047-0.228,0.047-0.336V187.497z"/>
			<path d="M51.68,186.225c0-0.612-0.012-1.092-0.047-1.572h0.915l0.059,0.948h0.023c0.282-0.54,0.938-1.08,1.877-1.08
				c0.786,0,2.006,0.48,2.006,2.472v3.468h-1.032v-3.348c0-0.936-0.34-1.728-1.314-1.728c-0.669,0-1.197,0.492-1.385,1.08
				c-0.047,0.132-0.07,0.324-0.07,0.492v3.504H51.68V186.225z"/>
			<path d="M63.096,181.94v7.02c0,0.516,0.012,1.104,0.047,1.5h-0.927l-0.047-1.008h-0.023c-0.316,0.648-0.997,1.14-1.924,1.14
				c-1.373,0-2.44-1.188-2.44-2.952c-0.012-1.944,1.173-3.12,2.546-3.12c0.88,0,1.467,0.42,1.713,0.876h0.023v-3.456H63.096z
				 M62.063,187.017c0-0.144-0.012-0.312-0.047-0.456c-0.152-0.66-0.716-1.212-1.49-1.212c-1.068,0-1.701,0.96-1.701,2.232
				c0,1.188,0.575,2.16,1.678,2.16c0.692,0,1.326-0.48,1.513-1.26c0.035-0.144,0.047-0.288,0.047-0.456V187.017z"/>
			<path d="M67.319,182.373h4.259v0.876h-3.226v2.688h2.98v0.864h-2.98v3.66h-1.033V182.373z"/>
			<path d="M75.496,186.225c0-0.612-0.012-1.092-0.047-1.572h0.915l0.059,0.948h0.023c0.281-0.54,0.938-1.08,1.877-1.08
				c0.786,0,2.006,0.48,2.006,2.472v3.468h-1.033v-3.348c0-0.936-0.34-1.728-1.314-1.728c-0.668,0-1.197,0.492-1.384,1.08
				c-0.047,0.132-0.07,0.324-0.07,0.492v3.504h-1.033V186.225z"/>
			<path d="M86.008,189.068c0,0.504,0.023,0.996,0.082,1.392h-0.927l-0.094-0.732h-0.035c-0.305,0.456-0.927,0.864-1.736,0.864
				c-1.15,0-1.737-0.828-1.737-1.668c0-1.404,1.22-2.172,3.415-2.16v-0.12c0-0.48-0.129-1.356-1.291-1.344
				c-0.54,0-1.091,0.156-1.49,0.432l-0.235-0.708c0.47-0.3,1.162-0.504,1.877-0.504c1.748,0,2.17,1.212,2.17,2.376V189.068z
				 M85,187.497c-1.126-0.024-2.405,0.18-2.405,1.308c0,0.696,0.446,1.008,0.962,1.008c0.751,0,1.232-0.48,1.396-0.972
				c0.035-0.108,0.047-0.228,0.047-0.336V187.497z"/>
			<path d="M88.859,183.26v1.392h1.478v0.804h-1.478v3.132c0,0.72,0.199,1.128,0.774,1.128c0.281,0,0.446-0.024,0.598-0.072
				l0.047,0.804c-0.199,0.072-0.516,0.144-0.915,0.144c-0.481,0-0.868-0.168-1.115-0.444c-0.281-0.324-0.399-0.84-0.399-1.524
				v-3.168h-0.88v-0.804h0.88v-1.068L88.859,183.26z"/>
			<path d="M96.25,188.876c0,0.6,0.012,1.128,0.047,1.584h-0.915l-0.059-0.948H95.3c-0.258,0.468-0.868,1.08-1.877,1.08
				c-0.892,0-1.959-0.516-1.959-2.544v-3.396h1.032v3.204c0,1.104,0.34,1.86,1.267,1.86c0.692,0,1.173-0.492,1.361-0.972
				c0.059-0.144,0.094-0.336,0.094-0.54v-3.552h1.032V188.876z"/>
			<path d="M97.975,186.464c0-0.684-0.012-1.272-0.047-1.812h0.903l0.047,1.14h0.035c0.258-0.78,0.892-1.272,1.584-1.272
				c0.105,0,0.188,0.012,0.282,0.036v0.984c-0.118-0.012-0.223-0.024-0.364-0.024c-0.728,0-1.244,0.564-1.385,1.344
				c-0.023,0.156-0.035,0.324-0.035,0.504v3.096h-1.032L97.975,186.464z"/>
			<path d="M105.73,189.068c0,0.504,0.023,0.996,0.082,1.392h-0.927l-0.094-0.732h-0.035c-0.305,0.456-0.927,0.864-1.736,0.864
				c-1.15,0-1.736-0.828-1.736-1.668c0-1.404,1.22-2.172,3.414-2.16v-0.12c0-0.48-0.129-1.356-1.291-1.344
				c-0.54,0-1.091,0.156-1.49,0.432l-0.234-0.708c0.469-0.3,1.161-0.504,1.877-0.504c1.748,0,2.17,1.212,2.17,2.376V189.068z
				 M104.721,187.497c-1.126-0.024-2.405,0.18-2.405,1.308c0,0.696,0.446,1.008,0.962,1.008c0.751,0,1.232-0.48,1.396-0.972
				c0.035-0.108,0.047-0.228,0.047-0.336V187.497z"/>
			<path d="M107.384,181.94h1.032v8.52h-1.032V181.94z"/>
			<path d="M4.646,203.568c0,0.504,0.023,0.996,0.082,1.392H3.802l-0.094-0.732H3.672c-0.305,0.456-0.927,0.864-1.736,0.864
				c-1.15,0-1.736-0.828-1.736-1.668c0-1.404,1.22-2.172,3.414-2.16v-0.12c0-0.48-0.129-1.356-1.291-1.344
				c-0.54,0-1.091,0.156-1.49,0.432l-0.234-0.708c0.469-0.3,1.162-0.504,1.877-0.504c1.748,0,2.171,1.212,2.171,2.376V203.568z
				 M3.637,201.997c-1.126-0.024-2.405,0.18-2.405,1.308c0,0.696,0.446,1.008,0.962,1.008c0.75,0,1.232-0.48,1.396-0.972
				c0.035-0.108,0.047-0.228,0.047-0.336V201.997z"/>
			<path d="M6.312,200.964c0-0.684-0.012-1.272-0.047-1.812h0.903l0.047,1.14h0.036c0.258-0.78,0.892-1.272,1.583-1.272
				c0.106,0,0.188,0.012,0.282,0.036v0.984c-0.117-0.012-0.223-0.024-0.364-0.024c-0.728,0-1.244,0.564-1.384,1.344
				c-0.023,0.156-0.035,0.324-0.035,0.504v3.096H6.3L6.312,200.964z"/>
			<path d="M10.653,202.236c0.023,1.428,0.903,2.016,1.936,2.016c0.739,0,1.197-0.132,1.572-0.288l0.188,0.744
				c-0.364,0.168-0.997,0.372-1.9,0.372c-1.736,0-2.792-1.188-2.792-2.928c0-1.764,1.021-3.144,2.675-3.144
				c1.854,0,2.335,1.668,2.335,2.736c0,0.216-0.012,0.384-0.035,0.504L10.653,202.236z M13.668,201.48
				c0.012-0.66-0.27-1.716-1.42-1.716c-1.056,0-1.501,0.984-1.583,1.716H13.668z"/>
			<path d="M20.743,205.092c-1.525,0-2.722-1.152-2.722-2.988c0-1.944,1.255-3.084,2.816-3.084c1.631,0,2.734,1.212,2.734,2.976
				c0,2.16-1.467,3.096-2.816,3.096H20.743z M20.778,204.3c0.985,0,1.725-0.948,1.725-2.268c0-0.984-0.481-2.22-1.701-2.22
				c-1.208,0-1.736,1.152-1.736,2.256c0,1.272,0.704,2.232,1.701,2.232H20.778z"/>
			<path d="M24.873,200.725c0-0.612-0.012-1.092-0.047-1.572h0.916l0.059,0.948h0.023c0.281-0.54,0.938-1.08,1.877-1.08
				c0.786,0,2.006,0.48,2.006,2.472v3.468h-1.032v-3.348c0-0.936-0.34-1.728-1.314-1.728c-0.668,0-1.196,0.492-1.384,1.08
				c-0.047,0.132-0.07,0.324-0.07,0.492v3.504h-1.032V200.725z"/>
			<path d="M31.97,202.236c0.023,1.428,0.903,2.016,1.936,2.016c0.739,0,1.197-0.132,1.572-0.288l0.188,0.744
				c-0.364,0.168-0.997,0.372-1.901,0.372c-1.736,0-2.792-1.188-2.792-2.928c0-1.764,1.021-3.144,2.675-3.144
				c1.854,0,2.335,1.668,2.335,2.736c0,0.216-0.012,0.384-0.035,0.504L31.97,202.236z M34.985,201.48
				c0.012-0.66-0.27-1.716-1.419-1.716c-1.056,0-1.502,0.984-1.584,1.716H34.985z"/>
			<path d="M39.749,196.44h1.033v3.624h0.023c0.164-0.3,0.422-0.576,0.739-0.744c0.305-0.192,0.669-0.3,1.056-0.3
				c0.763,0,1.983,0.48,1.983,2.484v3.456H43.55v-3.336c0-0.948-0.34-1.728-1.314-1.728c-0.669,0-1.185,0.48-1.384,1.056
				c-0.059,0.144-0.07,0.3-0.07,0.504v3.504h-1.033V196.44z"/>
			<path d="M50.261,203.568c0,0.504,0.023,0.996,0.082,1.392h-0.927l-0.094-0.732h-0.036c-0.305,0.456-0.927,0.864-1.736,0.864
				c-1.149,0-1.736-0.828-1.736-1.668c0-1.404,1.22-2.172,3.414-2.16v-0.12c0-0.48-0.129-1.356-1.291-1.344
				c-0.54,0-1.091,0.156-1.49,0.432l-0.235-0.708c0.469-0.3,1.162-0.504,1.877-0.504c1.748,0,2.17,1.212,2.17,2.376V203.568z
				 M49.251,201.997c-1.126-0.024-2.405,0.18-2.405,1.308c0,0.696,0.446,1.008,0.962,1.008c0.751,0,1.232-0.48,1.396-0.972
				c0.035-0.108,0.047-0.228,0.047-0.336V201.997z"/>
			<path d="M51.915,196.44h1.032v8.52h-1.032V196.44z"/>
			<path d="M54.754,204.96v-5.004h-0.786v-0.804h0.786v-0.276c0-0.816,0.188-1.56,0.669-2.028c0.387-0.384,0.903-0.54,1.373-0.54
				c0.375,0,0.68,0.084,0.88,0.168l-0.129,0.816c-0.165-0.072-0.364-0.132-0.669-0.132c-0.868,0-1.103,0.792-1.103,1.68v0.312h1.373
				v0.804h-1.361v5.004H54.754z"/>
			<path d="M60.432,203.893c0.317,0.192,0.856,0.408,1.373,0.408c0.739,0,1.091-0.372,1.091-0.864c0-0.504-0.293-0.78-1.044-1.068
				c-1.032-0.384-1.513-0.948-1.513-1.644c0-0.936,0.751-1.704,1.959-1.704c0.575,0,1.08,0.156,1.385,0.36l-0.247,0.756
				c-0.223-0.132-0.633-0.336-1.162-0.336c-0.61,0-0.938,0.36-0.938,0.792c0,0.492,0.329,0.708,1.068,0.996
				c0.974,0.372,1.49,0.876,1.49,1.752c0,1.032-0.786,1.752-2.112,1.752c-0.622,0-1.197-0.168-1.596-0.408L60.432,203.893z"/>
			<path d="M66.462,197.76v1.392h1.479v0.804h-1.479v3.132c0,0.72,0.2,1.128,0.774,1.128c0.282,0,0.446-0.024,0.598-0.072
				l0.047,0.804c-0.2,0.072-0.517,0.144-0.916,0.144c-0.481,0-0.868-0.168-1.114-0.444c-0.282-0.324-0.399-0.84-0.399-1.524v-3.168
				h-0.88v-0.804h0.88v-1.068L66.462,197.76z"/>
			<path d="M69.619,202.236c0.023,1.428,0.903,2.016,1.936,2.016c0.739,0,1.197-0.132,1.572-0.288l0.188,0.744
				c-0.364,0.168-0.997,0.372-1.9,0.372c-1.736,0-2.792-1.188-2.792-2.928c0-1.764,1.021-3.144,2.675-3.144
				c1.854,0,2.334,1.668,2.334,2.736c0,0.216-0.012,0.384-0.035,0.504L69.619,202.236z M72.634,201.48
				c0.012-0.66-0.27-1.716-1.42-1.716c-1.056,0-1.501,0.984-1.583,1.716H72.634z"/>
			<path d="M74.91,201.048c0-0.744-0.012-1.344-0.047-1.896h0.927l0.059,0.996h0.023c0.411-0.72,1.091-1.128,2.006-1.128
				c1.384,0,2.417,1.188,2.417,2.952c0,2.088-1.255,3.12-2.581,3.12c-0.763,0-1.408-0.336-1.749-0.912h-0.023v3.156H74.91V201.048z
				 M75.942,202.596c0,0.144,0.012,0.3,0.047,0.432c0.176,0.732,0.81,1.236,1.537,1.236c1.091,0,1.725-0.912,1.725-2.244
				c0-1.164-0.586-2.16-1.678-2.16c-0.704,0-1.373,0.504-1.572,1.296c-0.023,0.144-0.059,0.3-0.059,0.432V202.596z"/>
			<path d="M88.073,203.568c0,0.504,0.023,0.996,0.083,1.392h-0.927l-0.094-0.732h-0.035c-0.305,0.456-0.927,0.864-1.736,0.864
				c-1.15,0-1.736-0.828-1.736-1.668c0-1.404,1.22-2.172,3.414-2.16v-0.12c0-0.48-0.129-1.356-1.291-1.344
				c-0.54,0-1.091,0.156-1.49,0.432l-0.234-0.708c0.469-0.3,1.162-0.504,1.877-0.504c1.748,0,2.17,1.212,2.17,2.376V203.568z
				 M87.064,201.997c-1.126-0.024-2.405,0.18-2.405,1.308c0,0.696,0.446,1.008,0.962,1.008c0.75,0,1.232-0.48,1.396-0.972
				c0.035-0.108,0.047-0.228,0.047-0.336V201.997z"/>
			<path d="M89.727,201.048c0-0.744-0.012-1.344-0.047-1.896h0.927l0.059,0.996h0.023c0.411-0.72,1.091-1.128,2.006-1.128
				c1.385,0,2.417,1.188,2.417,2.952c0,2.088-1.255,3.12-2.581,3.12c-0.763,0-1.408-0.336-1.748-0.912H90.76v3.156h-1.033V201.048z
				 M90.76,202.596c0,0.144,0.012,0.3,0.047,0.432c0.176,0.732,0.81,1.236,1.537,1.236c1.091,0,1.725-0.912,1.725-2.244
				c0-1.164-0.586-2.16-1.677-2.16c-0.704,0-1.373,0.504-1.572,1.296c-0.023,0.144-0.059,0.3-0.059,0.432V202.596z"/>
			<path d="M100.403,203.568c0,0.504,0.023,0.996,0.082,1.392h-0.927l-0.094-0.732H99.43c-0.305,0.456-0.927,0.864-1.736,0.864
				c-1.15,0-1.736-0.828-1.736-1.668c0-1.404,1.22-2.172,3.414-2.16v-0.12c0-0.48-0.129-1.356-1.291-1.344
				c-0.54,0-1.091,0.156-1.49,0.432l-0.235-0.708c0.47-0.3,1.162-0.504,1.877-0.504c1.748,0,2.17,1.212,2.17,2.376V203.568z
				 M99.395,201.997c-1.126-0.024-2.405,0.18-2.405,1.308c0,0.696,0.446,1.008,0.962,1.008c0.751,0,1.232-0.48,1.396-0.972
				c0.035-0.108,0.047-0.228,0.047-0.336V201.997z"/>
			<path d="M102.069,200.964c0-0.684-0.012-1.272-0.047-1.812h0.903l0.047,1.14h0.035c0.258-0.78,0.892-1.272,1.584-1.272
				c0.105,0,0.188,0.012,0.281,0.036v0.984c-0.117-0.012-0.223-0.024-0.363-0.024c-0.728,0-1.244,0.564-1.385,1.344
				c-0.023,0.156-0.035,0.324-0.035,0.504v3.096h-1.032L102.069,200.964z"/>
			<path d="M107.419,197.76v1.392h1.479v0.804h-1.479v3.132c0,0.72,0.2,1.128,0.774,1.128c0.282,0,0.446-0.024,0.598-0.072
				l0.047,0.804c-0.199,0.072-0.516,0.144-0.915,0.144c-0.481,0-0.868-0.168-1.114-0.444c-0.282-0.324-0.399-0.84-0.399-1.524
				v-3.168h-0.88v-0.804h0.88v-1.068L107.419,197.76z"/>
			<path d="M109.402,206.437c0.258-0.708,0.575-1.992,0.704-2.868l1.138-0.12c-0.282,1.02-0.798,2.352-1.126,2.916L109.402,206.437z
				 M110.586,200.856c-0.399,0-0.68-0.324-0.68-0.744c0-0.444,0.293-0.756,0.692-0.756c0.422,0,0.692,0.312,0.692,0.756
				c0,0.42-0.27,0.744-0.692,0.744H110.586z"/>
			<path d="M1.889,212.26v1.392h1.478v0.804H1.889v3.132c0,0.72,0.199,1.128,0.774,1.128c0.281,0,0.446-0.024,0.598-0.072
				l0.047,0.804c-0.199,0.072-0.516,0.144-0.915,0.144c-0.481,0-0.868-0.168-1.114-0.444c-0.282-0.324-0.399-0.84-0.399-1.524
				v-3.168H0v-0.804h0.88v-1.068L1.889,212.26z"/>
			<path d="M4.529,210.94h1.032v3.624h0.024c0.164-0.3,0.422-0.576,0.739-0.744c0.305-0.192,0.669-0.3,1.056-0.3
				c0.763,0,1.982,0.48,1.982,2.484v3.456H8.33v-3.336c0-0.948-0.34-1.728-1.314-1.728c-0.669,0-1.185,0.48-1.384,1.056
				c-0.059,0.144-0.071,0.3-0.071,0.504v3.504H4.529V210.94z"/>
			<path d="M11.627,216.736c0.023,1.428,0.903,2.016,1.936,2.016c0.739,0,1.197-0.132,1.572-0.288l0.188,0.744
				c-0.363,0.168-0.997,0.372-1.9,0.372c-1.736,0-2.792-1.188-2.792-2.928c0-1.764,1.021-3.144,2.675-3.144
				c1.854,0,2.334,1.668,2.334,2.736c0,0.216-0.012,0.384-0.035,0.504L11.627,216.736z M14.642,215.98
				c0.012-0.66-0.27-1.716-1.42-1.716c-1.056,0-1.501,0.984-1.583,1.716H14.642z"/>
			<path d="M16.93,215.464c0-0.684-0.012-1.272-0.047-1.812h0.903l0.047,1.14h0.035c0.258-0.78,0.892-1.272,1.584-1.272
				c0.105,0,0.188,0.012,0.282,0.036v0.984c-0.118-0.012-0.223-0.024-0.364-0.024c-0.728,0-1.244,0.564-1.385,1.344
				c-0.023,0.156-0.035,0.324-0.035,0.504v3.096h-1.032L16.93,215.464z"/>
			<path d="M21.271,216.736c0.023,1.428,0.903,2.016,1.936,2.016c0.739,0,1.197-0.132,1.572-0.288l0.188,0.744
				c-0.364,0.168-0.997,0.372-1.901,0.372c-1.736,0-2.792-1.188-2.792-2.928c0-1.764,1.021-3.144,2.675-3.144
				c1.854,0,2.335,1.668,2.335,2.736c0,0.216-0.012,0.384-0.035,0.504L21.271,216.736z M24.286,215.98
				c0.012-0.66-0.27-1.716-1.419-1.716c-1.056,0-1.502,0.984-1.584,1.716H24.286z"/>
			<path d="M29.542,212.584c-0.387,0-0.645-0.312-0.645-0.684s0.27-0.672,0.668-0.672s0.657,0.3,0.657,0.672
				s-0.258,0.684-0.669,0.684H29.542z M29.049,219.46v-5.808h1.033v5.808H29.049z"/>
			<path d="M31.653,218.393c0.317,0.192,0.856,0.408,1.373,0.408c0.739,0,1.091-0.372,1.091-0.864c0-0.504-0.293-0.78-1.044-1.068
				c-1.033-0.384-1.514-0.948-1.514-1.644c0-0.936,0.751-1.704,1.959-1.704c0.575,0,1.079,0.156,1.384,0.36l-0.247,0.756
				c-0.223-0.132-0.633-0.336-1.162-0.336c-0.61,0-0.938,0.36-0.938,0.792c0,0.492,0.329,0.708,1.068,0.996
				c0.974,0.372,1.49,0.876,1.49,1.752c0,1.032-0.786,1.752-2.112,1.752c-0.622,0-1.197-0.168-1.595-0.408L31.653,218.393z"/>
			<path d="M38.927,215.225c0-0.612-0.012-1.092-0.047-1.572h0.915l0.059,0.948h0.023c0.282-0.54,0.938-1.08,1.877-1.08
				c0.786,0,2.006,0.48,2.006,2.472v3.468h-1.032v-3.348c0-0.936-0.34-1.728-1.314-1.728c-0.669,0-1.197,0.492-1.384,1.08
				c-0.047,0.132-0.071,0.324-0.071,0.492v3.504h-1.032V215.225z"/>
			<path d="M47.75,219.592c-1.525,0-2.722-1.152-2.722-2.988c0-1.944,1.255-3.084,2.816-3.084c1.631,0,2.733,1.212,2.733,2.976
				c0,2.16-1.466,3.096-2.815,3.096H47.75z M47.785,218.8c0.985,0,1.725-0.948,1.725-2.268c0-0.984-0.481-2.22-1.701-2.22
				c-1.208,0-1.736,1.152-1.736,2.256c0,1.272,0.704,2.232,1.701,2.232H47.785z"/>
			<path d="M54.367,215.225c0-0.612-0.012-1.092-0.047-1.572h0.915l0.059,0.948h0.023c0.282-0.54,0.938-1.08,1.877-1.08
				c0.786,0,2.006,0.48,2.006,2.472v3.468h-1.032v-3.348c0-0.936-0.34-1.728-1.314-1.728c-0.669,0-1.197,0.492-1.384,1.08
				c-0.047,0.132-0.071,0.324-0.071,0.492v3.504h-1.032V215.225z"/>
			<path d="M63.189,219.592c-1.525,0-2.722-1.152-2.722-2.988c0-1.944,1.255-3.084,2.816-3.084c1.631,0,2.733,1.212,2.733,2.976
				c0,2.16-1.466,3.096-2.815,3.096H63.189z M63.225,218.8c0.985,0,1.725-0.948,1.725-2.268c0-0.984-0.481-2.22-1.701-2.22
				c-1.208,0-1.736,1.152-1.736,2.256c0,1.272,0.704,2.232,1.701,2.232H63.225z"/>
			<path d="M68.563,212.26v1.392h1.479v0.804h-1.479v3.132c0,0.72,0.2,1.128,0.774,1.128c0.282,0,0.446-0.024,0.598-0.072
				l0.047,0.804c-0.2,0.072-0.517,0.144-0.916,0.144c-0.481,0-0.868-0.168-1.114-0.444c-0.282-0.324-0.399-0.84-0.399-1.524v-3.168
				h-0.88v-0.804h0.88v-1.068L68.563,212.26z"/>
			<path d="M71.719,216.736c0.023,1.428,0.903,2.016,1.936,2.016c0.739,0,1.197-0.132,1.572-0.288l0.188,0.744
				c-0.364,0.168-0.997,0.372-1.9,0.372c-1.736,0-2.792-1.188-2.792-2.928c0-1.764,1.021-3.144,2.675-3.144
				c1.854,0,2.334,1.668,2.334,2.736c0,0.216-0.012,0.384-0.035,0.504L71.719,216.736z M74.734,215.98
				c0.012-0.66-0.27-1.716-1.42-1.716c-1.056,0-1.501,0.984-1.583,1.716H74.734z"/>
			<path d="M0.646,225.44h1.032v3.636h0.024c0.363-0.648,1.021-1.056,1.936-1.056c1.408,0,2.394,1.2,2.394,2.952
				c0,2.088-1.291,3.12-2.558,3.12c-0.821,0-1.467-0.324-1.901-1.092H1.549l-0.059,0.96H0.599c0.035-0.396,0.047-0.984,0.047-1.5
				V225.44z M1.678,231.632c0,0.132,0.012,0.264,0.036,0.384c0.199,0.732,0.809,1.236,1.548,1.236c1.091,0,1.725-0.9,1.725-2.232
				c0-1.176-0.586-2.172-1.689-2.172c-0.704,0-1.361,0.504-1.56,1.296c-0.035,0.132-0.059,0.276-0.059,0.444V231.632z"/>
			<path d="M7.919,231.236c0.023,1.428,0.903,2.016,1.936,2.016c0.739,0,1.197-0.132,1.572-0.288l0.188,0.744
				c-0.363,0.168-0.997,0.372-1.9,0.372c-1.736,0-2.792-1.188-2.792-2.928c0-1.764,1.021-3.144,2.675-3.144
				c1.854,0,2.334,1.668,2.334,2.736c0,0.216-0.012,0.384-0.035,0.504L7.919,231.236z M10.935,230.48
				c0.012-0.66-0.27-1.716-1.42-1.716c-1.056,0-1.501,0.984-1.583,1.716H10.935z"/>
			<path d="M14.454,226.76v1.392h1.478v0.804h-1.478v3.132c0,0.72,0.199,1.128,0.774,1.128c0.281,0,0.446-0.024,0.598-0.072
				l0.047,0.804c-0.199,0.072-0.516,0.144-0.915,0.144c-0.481,0-0.868-0.168-1.115-0.444c-0.281-0.324-0.399-0.84-0.399-1.524
				v-3.168h-0.88v-0.804h0.88v-1.068L14.454,226.76z"/>
			<path d="M17.551,228.152l0.763,2.94c0.152,0.648,0.305,1.26,0.411,1.86h0.035c0.129-0.588,0.317-1.212,0.504-1.848l0.927-2.952
				h0.868l0.88,2.904c0.211,0.684,0.375,1.308,0.505,1.896h0.035c0.094-0.588,0.246-1.2,0.434-1.884l0.81-2.916h1.021l-1.83,5.808
				h-0.939l-0.868-2.772c-0.199-0.66-0.363-1.236-0.504-1.92h-0.023c-0.141,0.696-0.317,1.308-0.516,1.932l-0.915,2.76h-0.938
				l-1.713-5.808H17.551z"/>
			<path d="M26.257,231.236c0.023,1.428,0.903,2.016,1.936,2.016c0.739,0,1.197-0.132,1.572-0.288l0.188,0.744
				c-0.363,0.168-0.997,0.372-1.9,0.372c-1.736,0-2.792-1.188-2.792-2.928c0-1.764,1.021-3.144,2.675-3.144
				c1.854,0,2.334,1.668,2.334,2.736c0,0.216-0.012,0.384-0.035,0.504L26.257,231.236z M29.272,230.48
				c0.012-0.66-0.27-1.716-1.42-1.716c-1.056,0-1.501,0.984-1.583,1.716H29.272z"/>
			<path d="M32.134,231.236c0.023,1.428,0.904,2.016,1.936,2.016c0.739,0,1.197-0.132,1.572-0.288l0.188,0.744
				c-0.364,0.168-0.997,0.372-1.9,0.372c-1.736,0-2.792-1.188-2.792-2.928c0-1.764,1.021-3.144,2.675-3.144
				c1.854,0,2.335,1.668,2.335,2.736c0,0.216-0.012,0.384-0.035,0.504L32.134,231.236z M35.149,230.48
				c0.012-0.66-0.27-1.716-1.419-1.716c-1.056,0-1.501,0.984-1.584,1.716H35.149z"/>
			<path d="M37.426,229.725c0-0.612-0.012-1.092-0.047-1.572h0.915l0.059,0.948h0.023c0.282-0.54,0.938-1.08,1.877-1.08
				c0.786,0,2.006,0.48,2.006,2.472v3.468h-1.032v-3.348c0-0.936-0.34-1.728-1.314-1.728c-0.669,0-1.197,0.492-1.385,1.08
				c-0.047,0.132-0.07,0.324-0.07,0.492v3.504h-1.032V229.725z"/>
			<path d="M47.667,226.76v1.392h1.479v0.804h-1.479v3.132c0,0.72,0.2,1.128,0.774,1.128c0.282,0,0.446-0.024,0.599-0.072
				l0.047,0.804c-0.2,0.072-0.516,0.144-0.915,0.144c-0.481,0-0.868-0.168-1.115-0.444c-0.282-0.324-0.399-0.84-0.399-1.524v-3.168
				h-0.88v-0.804h0.88v-1.068L47.667,226.76z"/>
			<path d="M50.308,225.44h1.032v3.624h0.023c0.164-0.3,0.422-0.576,0.739-0.744c0.305-0.192,0.668-0.3,1.056-0.3
				c0.763,0,1.983,0.48,1.983,2.484v3.456h-1.033v-3.336c0-0.948-0.34-1.728-1.314-1.728c-0.668,0-1.185,0.48-1.384,1.056
				c-0.059,0.144-0.07,0.3-0.07,0.504v3.504h-1.032V225.44z"/>
			<path d="M57.405,231.236c0.023,1.428,0.903,2.016,1.936,2.016c0.739,0,1.197-0.132,1.572-0.288l0.188,0.744
				c-0.364,0.168-0.998,0.372-1.901,0.372c-1.736,0-2.792-1.188-2.792-2.928c0-1.764,1.021-3.144,2.675-3.144
				c1.854,0,2.335,1.668,2.335,2.736c0,0.216-0.012,0.384-0.035,0.504L57.405,231.236z M60.42,230.48
				c0.012-0.66-0.27-1.716-1.419-1.716c-1.056,0-1.502,0.984-1.584,1.716H60.42z"/>
			<path d="M62.696,229.725c0-0.612-0.023-1.092-0.047-1.572h0.903l0.047,0.936h0.035c0.316-0.552,0.845-1.068,1.795-1.068
				c0.763,0,1.349,0.48,1.596,1.164h0.023c0.176-0.336,0.411-0.576,0.645-0.756c0.34-0.264,0.704-0.408,1.244-0.408
				c0.763,0,1.877,0.504,1.877,2.52v3.42h-1.009v-3.288c0-1.128-0.411-1.788-1.232-1.788c-0.598,0-1.044,0.444-1.232,0.948
				c-0.047,0.156-0.082,0.348-0.082,0.528v3.6h-1.009v-3.48c0-0.936-0.399-1.596-1.185-1.596c-0.634,0-1.115,0.528-1.279,1.056
				c-0.059,0.156-0.082,0.336-0.082,0.516v3.504h-1.009V229.725z"/>
			<path d="M72.915,234.092c-0.398,0-0.68-0.324-0.68-0.756s0.293-0.756,0.704-0.756s0.692,0.312,0.692,0.756
				c0,0.432-0.281,0.756-0.704,0.756H72.915z"/>
		</g>
		<g>
			<path d="M131.711,190.101c-0.458,0.18-1.373,0.444-2.44,0.444c-1.197,0-2.183-0.312-2.957-1.068
				c-0.681-0.672-1.103-1.752-1.103-3.012c0-2.412,1.631-4.176,4.282-4.176c0.915,0,1.643,0.204,1.983,0.372l-0.258,0.852
				c-0.422-0.204-0.95-0.348-1.748-0.348c-1.924,0-3.179,1.224-3.179,3.252c0,2.052,1.196,3.264,3.05,3.264
				c0.668,0,1.126-0.096,1.361-0.216v-2.412h-1.596v-0.84h2.604V190.101z"/>
			<path d="M135.711,186.225c0-0.612-0.012-1.092-0.047-1.572h0.916l0.059,0.948h0.023c0.281-0.54,0.938-1.08,1.877-1.08
				c0.786,0,2.006,0.48,2.006,2.472v3.468h-1.033v-3.348c0-0.936-0.34-1.728-1.314-1.728c-0.668,0-1.197,0.492-1.384,1.08
				c-0.047,0.132-0.07,0.324-0.07,0.492v3.504h-1.033V186.225z"/>
			<path d="M146.224,189.068c0,0.504,0.023,0.996,0.082,1.392h-0.927l-0.094-0.732h-0.035c-0.305,0.456-0.927,0.864-1.736,0.864
				c-1.15,0-1.736-0.828-1.736-1.668c0-1.404,1.22-2.172,3.414-2.16v-0.12c0-0.48-0.129-1.356-1.291-1.344
				c-0.54,0-1.091,0.156-1.49,0.432l-0.234-0.708c0.469-0.3,1.161-0.504,1.877-0.504c1.748,0,2.17,1.212,2.17,2.376V189.068z
				 M145.215,187.497c-1.126-0.024-2.405,0.18-2.405,1.308c0,0.696,0.446,1.008,0.962,1.008c0.751,0,1.232-0.48,1.396-0.972
				c0.035-0.108,0.047-0.228,0.047-0.336V187.497z"/>
			<path d="M149.075,183.26v1.392h1.478v0.804h-1.478v3.132c0,0.72,0.199,1.128,0.774,1.128c0.281,0,0.446-0.024,0.598-0.072
				l0.047,0.804c-0.199,0.072-0.516,0.144-0.915,0.144c-0.481,0-0.868-0.168-1.115-0.444c-0.281-0.324-0.399-0.84-0.399-1.524
				v-3.168h-0.88v-0.804h0.88v-1.068L149.075,183.26z"/>
			<path d="M156.466,188.876c0,0.6,0.012,1.128,0.047,1.584h-0.915l-0.059-0.948h-0.023c-0.258,0.468-0.868,1.08-1.877,1.08
				c-0.892,0-1.959-0.516-1.959-2.544v-3.396h1.032v3.204c0,1.104,0.34,1.86,1.267,1.86c0.692,0,1.173-0.492,1.361-0.972
				c0.059-0.144,0.094-0.336,0.094-0.54v-3.552h1.032V188.876z"/>
			<path d="M158.19,186.464c0-0.684-0.012-1.272-0.047-1.812h0.903l0.047,1.14h0.035c0.258-0.78,0.892-1.272,1.584-1.272
				c0.105,0,0.188,0.012,0.282,0.036v0.984c-0.118-0.012-0.223-0.024-0.364-0.024c-0.728,0-1.244,0.564-1.384,1.344
				c-0.024,0.156-0.036,0.324-0.036,0.504v3.096h-1.032L158.19,186.464z"/>
			<path d="M165.945,189.068c0,0.504,0.023,0.996,0.083,1.392h-0.927l-0.094-0.732h-0.035c-0.305,0.456-0.927,0.864-1.736,0.864
				c-1.15,0-1.736-0.828-1.736-1.668c0-1.404,1.22-2.172,3.414-2.16v-0.12c0-0.48-0.129-1.356-1.291-1.344
				c-0.54,0-1.091,0.156-1.49,0.432l-0.234-0.708c0.469-0.3,1.162-0.504,1.877-0.504c1.748,0,2.17,1.212,2.17,2.376V189.068z
				 M164.937,187.497c-1.126-0.024-2.405,0.18-2.405,1.308c0,0.696,0.446,1.008,0.962,1.008c0.75,0,1.231-0.48,1.396-0.972
				c0.035-0.108,0.047-0.228,0.047-0.336V187.497z"/>
			<path d="M167.6,181.94h1.033v8.52H167.6V181.94z"/>
			<path d="M176.833,189.068c0,0.504,0.023,0.996,0.082,1.392h-0.927l-0.094-0.732h-0.035c-0.305,0.456-0.927,0.864-1.736,0.864
				c-1.15,0-1.736-0.828-1.736-1.668c0-1.404,1.22-2.172,3.414-2.16v-0.12c0-0.48-0.129-1.356-1.291-1.344
				c-0.54,0-1.091,0.156-1.49,0.432l-0.234-0.708c0.469-0.3,1.162-0.504,1.877-0.504c1.749,0,2.171,1.212,2.171,2.376V189.068z
				 M175.824,187.497c-1.126-0.024-2.405,0.18-2.405,1.308c0,0.696,0.446,1.008,0.962,1.008c0.751,0,1.232-0.48,1.396-0.972
				c0.035-0.108,0.047-0.228,0.047-0.336V187.497z"/>
			<path d="M178.487,186.225c0-0.612-0.012-1.092-0.047-1.572h0.915l0.059,0.948h0.023c0.281-0.54,0.938-1.08,1.877-1.08
				c0.786,0,2.006,0.48,2.006,2.472v3.468h-1.033v-3.348c0-0.936-0.34-1.728-1.314-1.728c-0.668,0-1.197,0.492-1.384,1.08
				c-0.047,0.132-0.07,0.324-0.07,0.492v3.504h-1.033V186.225z"/>
			<path d="M189.902,181.94v7.02c0,0.516,0.012,1.104,0.047,1.5h-0.927l-0.047-1.008h-0.023c-0.317,0.648-0.997,1.14-1.924,1.14
				c-1.373,0-2.44-1.188-2.44-2.952c-0.012-1.944,1.173-3.12,2.546-3.12c0.88,0,1.466,0.42,1.713,0.876h0.023v-3.456H189.902z
				 M188.87,187.017c0-0.144-0.012-0.312-0.047-0.456c-0.153-0.66-0.716-1.212-1.49-1.212c-1.067,0-1.701,0.96-1.701,2.232
				c0,1.188,0.575,2.16,1.678,2.16c0.692,0,1.326-0.48,1.514-1.26c0.035-0.144,0.047-0.288,0.047-0.456V187.017z"/>
			<path d="M195.417,187.917l-0.821,2.544h-1.056l2.687-8.088h1.232l2.698,8.088h-1.091l-0.845-2.544H195.417z M198.009,187.101
				l-0.786-2.328c-0.164-0.528-0.282-1.008-0.399-1.476h-0.035c-0.105,0.468-0.235,0.972-0.387,1.464l-0.774,2.34H198.009z"/>
			<path d="M203.77,186.225c0-0.612-0.012-1.092-0.047-1.572h0.915l0.059,0.948h0.023c0.282-0.54,0.939-1.08,1.877-1.08
				c0.786,0,2.006,0.48,2.006,2.472v3.468h-1.033v-3.348c0-0.936-0.34-1.728-1.314-1.728c-0.668,0-1.197,0.492-1.384,1.08
				c-0.047,0.132-0.07,0.324-0.07,0.492v3.504h-1.033V186.225z"/>
			<path d="M214.282,189.068c0,0.504,0.023,0.996,0.082,1.392h-0.927l-0.094-0.732h-0.035c-0.305,0.456-0.927,0.864-1.737,0.864
				c-1.149,0-1.736-0.828-1.736-1.668c0-1.404,1.22-2.172,3.414-2.16v-0.12c0-0.48-0.129-1.356-1.291-1.344
				c-0.54,0-1.091,0.156-1.49,0.432l-0.235-0.708c0.469-0.3,1.162-0.504,1.877-0.504c1.748,0,2.17,1.212,2.17,2.376V189.068z
				 M213.273,187.497c-1.126-0.024-2.405,0.18-2.405,1.308c0,0.696,0.446,1.008,0.962,1.008c0.751,0,1.232-0.48,1.396-0.972
				c0.036-0.108,0.047-0.228,0.047-0.336V187.497z"/>
			<path d="M217.133,183.26v1.392h1.478v0.804h-1.478v3.132c0,0.72,0.199,1.128,0.774,1.128c0.282,0,0.446-0.024,0.599-0.072
				l0.047,0.804c-0.2,0.072-0.516,0.144-0.915,0.144c-0.481,0-0.868-0.168-1.115-0.444c-0.282-0.324-0.399-0.84-0.399-1.524v-3.168
				h-0.88v-0.804h0.88v-1.068L217.133,183.26z"/>
			<path d="M224.524,188.876c0,0.6,0.012,1.128,0.047,1.584h-0.915l-0.059-0.948h-0.023c-0.258,0.468-0.868,1.08-1.877,1.08
				c-0.892,0-1.959-0.516-1.959-2.544v-3.396h1.032v3.204c0,1.104,0.34,1.86,1.267,1.86c0.692,0,1.173-0.492,1.361-0.972
				c0.059-0.144,0.094-0.336,0.094-0.54v-3.552h1.033V188.876z"/>
			<path d="M226.249,186.464c0-0.684-0.012-1.272-0.047-1.812h0.903l0.047,1.14h0.035c0.258-0.78,0.892-1.272,1.584-1.272
				c0.105,0,0.188,0.012,0.281,0.036v0.984c-0.117-0.012-0.223-0.024-0.363-0.024c-0.728,0-1.244,0.564-1.385,1.344
				c-0.023,0.156-0.035,0.324-0.035,0.504v3.096h-1.032L226.249,186.464z"/>
			<path d="M234.003,189.068c0,0.504,0.023,0.996,0.082,1.392h-0.927l-0.094-0.732h-0.035c-0.305,0.456-0.927,0.864-1.736,0.864
				c-1.15,0-1.736-0.828-1.736-1.668c0-1.404,1.22-2.172,3.414-2.16v-0.12c0-0.48-0.129-1.356-1.291-1.344
				c-0.54,0-1.091,0.156-1.49,0.432l-0.234-0.708c0.469-0.3,1.161-0.504,1.877-0.504c1.748,0,2.17,1.212,2.17,2.376V189.068z
				 M232.995,187.497c-1.126-0.024-2.405,0.18-2.405,1.308c0,0.696,0.446,1.008,0.962,1.008c0.751,0,1.232-0.48,1.396-0.972
				c0.035-0.108,0.047-0.228,0.047-0.336V187.497z"/>
			<path d="M235.658,181.94h1.032v8.52h-1.032V181.94z"/>
			<path d="M129.646,203.568c0,0.504,0.023,0.996,0.082,1.392h-0.927l-0.094-0.732h-0.035c-0.305,0.456-0.927,0.864-1.736,0.864
				c-1.15,0-1.736-0.828-1.736-1.668c0-1.404,1.22-2.172,3.414-2.16v-0.12c0-0.48-0.129-1.356-1.291-1.344
				c-0.54,0-1.091,0.156-1.49,0.432l-0.234-0.708c0.469-0.3,1.162-0.504,1.877-0.504c1.748,0,2.171,1.212,2.171,2.376V203.568z
				 M128.637,201.997c-1.126-0.024-2.405,0.18-2.405,1.308c0,0.696,0.446,1.008,0.962,1.008c0.75,0,1.232-0.48,1.396-0.972
				c0.035-0.108,0.047-0.228,0.047-0.336V201.997z"/>
			<path d="M131.312,200.964c0-0.684-0.012-1.272-0.047-1.812h0.903l0.047,1.14h0.036c0.258-0.78,0.892-1.272,1.583-1.272
				c0.106,0,0.188,0.012,0.282,0.036v0.984c-0.117-0.012-0.223-0.024-0.364-0.024c-0.728,0-1.244,0.564-1.384,1.344
				c-0.023,0.156-0.035,0.324-0.035,0.504v3.096H131.3L131.312,200.964z"/>
			<path d="M135.653,202.236c0.023,1.428,0.903,2.016,1.936,2.016c0.739,0,1.197-0.132,1.572-0.288l0.188,0.744
				c-0.364,0.168-0.997,0.372-1.9,0.372c-1.736,0-2.792-1.188-2.792-2.928c0-1.764,1.021-3.144,2.675-3.144
				c1.854,0,2.335,1.668,2.335,2.736c0,0.216-0.012,0.384-0.035,0.504L135.653,202.236z M138.668,201.48
				c0.012-0.66-0.27-1.716-1.42-1.716c-1.056,0-1.501,0.984-1.583,1.716H138.668z"/>
			<path d="M145.743,205.092c-1.525,0-2.722-1.152-2.722-2.988c0-1.944,1.255-3.084,2.816-3.084c1.631,0,2.734,1.212,2.734,2.976
				c0,2.16-1.467,3.096-2.816,3.096H145.743z M145.778,204.3c0.985,0,1.725-0.948,1.725-2.268c0-0.984-0.481-2.22-1.701-2.22
				c-1.208,0-1.736,1.152-1.736,2.256c0,1.272,0.704,2.232,1.701,2.232H145.778z"/>
			<path d="M149.873,200.725c0-0.612-0.012-1.092-0.047-1.572h0.916l0.059,0.948h0.023c0.281-0.54,0.938-1.08,1.877-1.08
				c0.786,0,2.006,0.48,2.006,2.472v3.468h-1.032v-3.348c0-0.936-0.34-1.728-1.314-1.728c-0.668,0-1.196,0.492-1.384,1.08
				c-0.047,0.132-0.07,0.324-0.07,0.492v3.504h-1.032V200.725z"/>
			<path d="M156.97,202.236c0.023,1.428,0.903,2.016,1.936,2.016c0.739,0,1.197-0.132,1.572-0.288l0.188,0.744
				c-0.364,0.168-0.997,0.372-1.901,0.372c-1.736,0-2.792-1.188-2.792-2.928c0-1.764,1.021-3.144,2.675-3.144
				c1.854,0,2.335,1.668,2.335,2.736c0,0.216-0.012,0.384-0.035,0.504L156.97,202.236z M159.985,201.48
				c0.012-0.66-0.27-1.716-1.419-1.716c-1.056,0-1.502,0.984-1.584,1.716H159.985z"/>
			<path d="M165.159,199.152l0.763,2.94c0.152,0.648,0.305,1.26,0.411,1.86h0.035c0.129-0.588,0.317-1.212,0.504-1.848l0.927-2.952
				h0.868l0.88,2.904c0.211,0.684,0.375,1.308,0.505,1.896h0.035c0.094-0.588,0.246-1.2,0.434-1.884l0.81-2.916h1.021l-1.83,5.808
				h-0.938l-0.869-2.772c-0.199-0.66-0.363-1.236-0.504-1.92h-0.023c-0.141,0.696-0.317,1.308-0.516,1.932l-0.915,2.76h-0.938
				l-1.713-5.808H165.159z"/>
			<path d="M173.383,196.44h1.033v3.624h0.023c0.164-0.3,0.422-0.576,0.739-0.744c0.305-0.192,0.668-0.3,1.056-0.3
				c0.763,0,1.983,0.48,1.983,2.484v3.456h-1.033v-3.336c0-0.948-0.34-1.728-1.314-1.728c-0.668,0-1.185,0.48-1.384,1.056
				c-0.059,0.144-0.07,0.3-0.07,0.504v3.504h-1.033V196.44z"/>
			<path d="M182.206,205.092c-1.525,0-2.722-1.152-2.722-2.988c0-1.944,1.255-3.084,2.815-3.084c1.631,0,2.734,1.212,2.734,2.976
				c0,2.16-1.467,3.096-2.816,3.096H182.206z M182.241,204.3c0.985,0,1.725-0.948,1.725-2.268c0-0.984-0.481-2.22-1.701-2.22
				c-1.208,0-1.736,1.152-1.736,2.256c0,1.272,0.704,2.232,1.701,2.232H182.241z"/>
			<path d="M186.336,196.44h1.032v8.52h-1.032V196.44z"/>
			<path d="M189.667,202.236c0.023,1.428,0.904,2.016,1.936,2.016c0.739,0,1.197-0.132,1.572-0.288l0.188,0.744
				c-0.364,0.168-0.997,0.372-1.9,0.372c-1.736,0-2.792-1.188-2.792-2.928c0-1.764,1.021-3.144,2.675-3.144
				c1.854,0,2.335,1.668,2.335,2.736c0,0.216-0.012,0.384-0.035,0.504L189.667,202.236z M192.683,201.48
				c0.012-0.66-0.27-1.716-1.419-1.716c-1.056,0-1.501,0.984-1.584,1.716H192.683z"/>
			<path d="M197.305,203.893c0.317,0.192,0.856,0.408,1.373,0.408c0.739,0,1.091-0.372,1.091-0.864c0-0.504-0.293-0.78-1.044-1.068
				c-1.032-0.384-1.513-0.948-1.513-1.644c0-0.936,0.75-1.704,1.959-1.704c0.575,0,1.08,0.156,1.385,0.36l-0.247,0.756
				c-0.223-0.132-0.633-0.336-1.162-0.336c-0.61,0-0.938,0.36-0.938,0.792c0,0.492,0.329,0.708,1.068,0.996
				c0.974,0.372,1.49,0.876,1.49,1.752c0,1.032-0.786,1.752-2.112,1.752c-0.622,0-1.197-0.168-1.596-0.408L197.305,203.893z"/>
			<path d="M203.335,197.76v1.392h1.479v0.804h-1.479v3.132c0,0.72,0.2,1.128,0.774,1.128c0.282,0,0.446-0.024,0.598-0.072
				l0.047,0.804c-0.199,0.072-0.516,0.144-0.915,0.144c-0.481,0-0.868-0.168-1.114-0.444c-0.282-0.324-0.399-0.84-0.399-1.524
				v-3.168h-0.88v-0.804h0.88v-1.068L203.335,197.76z"/>
			<path d="M206.491,202.236c0.024,1.428,0.904,2.016,1.936,2.016c0.739,0,1.197-0.132,1.572-0.288l0.188,0.744
				c-0.364,0.168-0.997,0.372-1.9,0.372c-1.736,0-2.792-1.188-2.792-2.928c0-1.764,1.021-3.144,2.675-3.144
				c1.854,0,2.335,1.668,2.335,2.736c0,0.216-0.012,0.384-0.035,0.504L206.491,202.236z M209.507,201.48
				c0.012-0.66-0.27-1.716-1.42-1.716c-1.056,0-1.501,0.984-1.584,1.716H209.507z"/>
			<path d="M211.783,201.048c0-0.744-0.012-1.344-0.047-1.896h0.927l0.059,0.996h0.023c0.411-0.72,1.091-1.128,2.006-1.128
				c1.384,0,2.417,1.188,2.417,2.952c0,2.088-1.255,3.12-2.582,3.12c-0.762,0-1.408-0.336-1.748-0.912h-0.023v3.156h-1.032V201.048z
				 M212.815,202.596c0,0.144,0.012,0.3,0.047,0.432c0.176,0.732,0.81,1.236,1.537,1.236c1.091,0,1.725-0.912,1.725-2.244
				c0-1.164-0.586-2.16-1.678-2.16c-0.704,0-1.373,0.504-1.572,1.296c-0.023,0.144-0.059,0.3-0.059,0.432V202.596z"/>
			<path d="M224.946,203.568c0,0.504,0.023,0.996,0.082,1.392h-0.927l-0.094-0.732h-0.035c-0.305,0.456-0.927,0.864-1.736,0.864
				c-1.15,0-1.736-0.828-1.736-1.668c0-1.404,1.22-2.172,3.414-2.16v-0.12c0-0.48-0.129-1.356-1.291-1.344
				c-0.54,0-1.091,0.156-1.49,0.432l-0.234-0.708c0.469-0.3,1.161-0.504,1.877-0.504c1.748,0,2.17,1.212,2.17,2.376V203.568z
				 M223.937,201.997c-1.126-0.024-2.405,0.18-2.405,1.308c0,0.696,0.446,1.008,0.962,1.008c0.751,0,1.232-0.48,1.396-0.972
				c0.035-0.108,0.047-0.228,0.047-0.336V201.997z"/>
			<path d="M226.6,201.048c0-0.744-0.012-1.344-0.047-1.896h0.927l0.059,0.996h0.023c0.411-0.72,1.091-1.128,2.006-1.128
				c1.384,0,2.417,1.188,2.417,2.952c0,2.088-1.255,3.12-2.581,3.12c-0.763,0-1.408-0.336-1.748-0.912h-0.023v3.156H226.6V201.048z
				 M227.633,202.596c0,0.144,0.012,0.3,0.047,0.432c0.176,0.732,0.81,1.236,1.537,1.236c1.091,0,1.725-0.912,1.725-2.244
				c0-1.164-0.586-2.16-1.678-2.16c-0.704,0-1.373,0.504-1.572,1.296c-0.023,0.144-0.059,0.3-0.059,0.432V202.596z"/>
			<path d="M237.276,203.568c0,0.504,0.023,0.996,0.082,1.392h-0.927l-0.094-0.732h-0.035c-0.305,0.456-0.927,0.864-1.736,0.864
				c-1.15,0-1.737-0.828-1.737-1.668c0-1.404,1.22-2.172,3.415-2.16v-0.12c0-0.48-0.129-1.356-1.291-1.344
				c-0.54,0-1.091,0.156-1.49,0.432l-0.235-0.708c0.469-0.3,1.162-0.504,1.877-0.504c1.748,0,2.17,1.212,2.17,2.376V203.568z
				 M236.268,201.997c-1.126-0.024-2.405,0.18-2.405,1.308c0,0.696,0.446,1.008,0.962,1.008c0.751,0,1.232-0.48,1.396-0.972
				c0.036-0.108,0.047-0.228,0.047-0.336V201.997z"/>
			<path d="M238.942,200.964c0-0.684-0.012-1.272-0.047-1.812h0.903l0.047,1.14h0.035c0.258-0.78,0.892-1.272,1.584-1.272
				c0.105,0,0.188,0.012,0.281,0.036v0.984c-0.117-0.012-0.223-0.024-0.363-0.024c-0.728,0-1.244,0.564-1.385,1.344
				c-0.023,0.156-0.035,0.324-0.035,0.504v3.096h-1.032L238.942,200.964z"/>
			<path d="M244.292,197.76v1.392h1.478v0.804h-1.478v3.132c0,0.72,0.199,1.128,0.774,1.128c0.281,0,0.446-0.024,0.598-0.072
				l0.047,0.804c-0.199,0.072-0.516,0.144-0.915,0.144c-0.481,0-0.868-0.168-1.115-0.444c-0.281-0.324-0.398-0.84-0.398-1.524
				v-3.168h-0.88v-0.804h0.88v-1.068L244.292,197.76z"/>
			<path d="M246.274,206.437c0.258-0.708,0.575-1.992,0.704-2.868l1.138-0.12c-0.282,1.02-0.798,2.352-1.126,2.916L246.274,206.437z
				 M247.459,200.856c-0.399,0-0.68-0.324-0.68-0.744c0-0.444,0.293-0.756,0.692-0.756c0.422,0,0.692,0.312,0.692,0.756
				c0,0.42-0.27,0.744-0.692,0.744H247.459z"/>
			<path d="M126.889,212.26v1.392h1.478v0.804h-1.478v3.132c0,0.72,0.199,1.128,0.774,1.128c0.281,0,0.446-0.024,0.598-0.072
				l0.047,0.804c-0.199,0.072-0.516,0.144-0.915,0.144c-0.481,0-0.868-0.168-1.114-0.444c-0.282-0.324-0.399-0.84-0.399-1.524
				v-3.168H125v-0.804h0.88v-1.068L126.889,212.26z"/>
			<path d="M129.529,210.94h1.032v3.624h0.024c0.164-0.3,0.422-0.576,0.739-0.744c0.305-0.192,0.669-0.3,1.056-0.3
				c0.763,0,1.982,0.48,1.982,2.484v3.456h-1.032v-3.336c0-0.948-0.34-1.728-1.314-1.728c-0.669,0-1.185,0.48-1.384,1.056
				c-0.059,0.144-0.071,0.3-0.071,0.504v3.504h-1.032V210.94z"/>
			<path d="M136.627,216.736c0.023,1.428,0.903,2.016,1.936,2.016c0.739,0,1.197-0.132,1.572-0.288l0.188,0.744
				c-0.363,0.168-0.997,0.372-1.9,0.372c-1.736,0-2.792-1.188-2.792-2.928c0-1.764,1.021-3.144,2.675-3.144
				c1.854,0,2.334,1.668,2.334,2.736c0,0.216-0.012,0.384-0.035,0.504L136.627,216.736z M139.642,215.98
				c0.012-0.66-0.27-1.716-1.42-1.716c-1.056,0-1.501,0.984-1.583,1.716H139.642z"/>
			<path d="M144.405,215.225c0-0.612-0.012-1.092-0.047-1.572h0.916l0.059,0.948h0.023c0.281-0.54,0.938-1.08,1.877-1.08
				c0.786,0,2.006,0.48,2.006,2.472v3.468h-1.032v-3.348c0-0.936-0.34-1.728-1.314-1.728c-0.668,0-1.196,0.492-1.384,1.08
				c-0.047,0.132-0.07,0.324-0.07,0.492v3.504h-1.032V215.225z"/>
			<path d="M153.228,219.592c-1.525,0-2.722-1.152-2.722-2.988c0-1.944,1.255-3.084,2.815-3.084c1.631,0,2.734,1.212,2.734,2.976
				c0,2.16-1.467,3.096-2.816,3.096H153.228z M153.263,218.8c0.986,0,1.725-0.948,1.725-2.268c0-0.984-0.481-2.22-1.701-2.22
				c-1.208,0-1.736,1.152-1.736,2.256c0,1.272,0.704,2.232,1.701,2.232H153.263z"/>
			<path d="M158.601,212.26v1.392h1.478v0.804h-1.478v3.132c0,0.72,0.199,1.128,0.774,1.128c0.281,0,0.446-0.024,0.598-0.072
				l0.047,0.804c-0.199,0.072-0.516,0.144-0.915,0.144c-0.481,0-0.868-0.168-1.115-0.444c-0.281-0.324-0.399-0.84-0.399-1.524
				v-3.168h-0.88v-0.804h0.88v-1.068L158.601,212.26z"/>
			<path d="M161.757,216.736c0.023,1.428,0.903,2.016,1.936,2.016c0.739,0,1.197-0.132,1.572-0.288l0.188,0.744
				c-0.364,0.168-0.997,0.372-1.901,0.372c-1.736,0-2.792-1.188-2.792-2.928c0-1.764,1.021-3.144,2.675-3.144
				c1.854,0,2.335,1.668,2.335,2.736c0,0.216-0.012,0.384-0.035,0.504L161.757,216.736z M164.772,215.98
				c0.012-0.66-0.27-1.716-1.419-1.716c-1.056,0-1.502,0.984-1.584,1.716H164.772z"/>
			<path d="M169.535,210.94h1.033v3.636h0.023c0.364-0.648,1.021-1.056,1.936-1.056c1.408,0,2.394,1.2,2.394,2.952
				c0,2.088-1.291,3.12-2.558,3.12c-0.821,0-1.467-0.324-1.901-1.092h-0.023l-0.059,0.96h-0.892c0.035-0.396,0.047-0.984,0.047-1.5
				V210.94z M170.568,217.132c0,0.132,0.012,0.264,0.035,0.384c0.199,0.732,0.81,1.236,1.548,1.236c1.091,0,1.725-0.9,1.725-2.232
				c0-1.176-0.586-2.172-1.689-2.172c-0.704,0-1.361,0.504-1.56,1.296c-0.035,0.132-0.059,0.276-0.059,0.444V217.132z"/>
			<path d="M176.809,216.736c0.023,1.428,0.903,2.016,1.936,2.016c0.739,0,1.197-0.132,1.572-0.288l0.188,0.744
				c-0.364,0.168-0.998,0.372-1.901,0.372c-1.736,0-2.792-1.188-2.792-2.928c0-1.764,1.021-3.144,2.675-3.144
				c1.854,0,2.334,1.668,2.334,2.736c0,0.216-0.012,0.384-0.035,0.504L176.809,216.736z M179.824,215.98
				c0.012-0.66-0.27-1.716-1.419-1.716c-1.056,0-1.502,0.984-1.584,1.716H179.824z"/>
			<path d="M183.344,212.26v1.392h1.479v0.804h-1.479v3.132c0,0.72,0.199,1.128,0.774,1.128c0.281,0,0.446-0.024,0.598-0.072
				l0.047,0.804c-0.199,0.072-0.516,0.144-0.915,0.144c-0.481,0-0.868-0.168-1.114-0.444c-0.282-0.324-0.399-0.84-0.399-1.524
				v-3.168h-0.88v-0.804h0.88v-1.068L183.344,212.26z"/>
			<path d="M186.441,213.652l0.763,2.94c0.152,0.648,0.305,1.26,0.411,1.86h0.035c0.129-0.588,0.317-1.212,0.504-1.848l0.927-2.952
				h0.868l0.88,2.904c0.211,0.684,0.375,1.308,0.504,1.896h0.035c0.094-0.588,0.246-1.2,0.434-1.884l0.81-2.916h1.021l-1.83,5.808
				h-0.938l-0.868-2.772c-0.2-0.66-0.364-1.236-0.505-1.92h-0.023c-0.141,0.696-0.316,1.308-0.516,1.932l-0.915,2.76h-0.938
				l-1.713-5.808H186.441z"/>
			<path d="M195.146,216.736c0.023,1.428,0.903,2.016,1.936,2.016c0.739,0,1.197-0.132,1.572-0.288l0.188,0.744
				c-0.364,0.168-0.998,0.372-1.901,0.372c-1.736,0-2.792-1.188-2.792-2.928c0-1.764,1.021-3.144,2.675-3.144
				c1.854,0,2.334,1.668,2.334,2.736c0,0.216-0.012,0.384-0.035,0.504L195.146,216.736z M198.162,215.98
				c0.012-0.66-0.27-1.716-1.419-1.716c-1.056,0-1.502,0.984-1.584,1.716H198.162z"/>
			<path d="M201.024,216.736c0.024,1.428,0.904,2.016,1.936,2.016c0.739,0,1.197-0.132,1.572-0.288l0.188,0.744
				c-0.364,0.168-0.997,0.372-1.9,0.372c-1.736,0-2.792-1.188-2.792-2.928c0-1.764,1.021-3.144,2.675-3.144
				c1.854,0,2.335,1.668,2.335,2.736c0,0.216-0.012,0.384-0.035,0.504L201.024,216.736z M204.04,215.98
				c0.012-0.66-0.27-1.716-1.42-1.716c-1.056,0-1.501,0.984-1.583,1.716H204.04z"/>
			<path d="M206.315,215.225c0-0.612-0.012-1.092-0.047-1.572h0.915l0.059,0.948h0.023c0.282-0.54,0.938-1.08,1.877-1.08
				c0.786,0,2.006,0.48,2.006,2.472v3.468h-1.032v-3.348c0-0.936-0.34-1.728-1.314-1.728c-0.669,0-1.197,0.492-1.385,1.08
				c-0.047,0.132-0.07,0.324-0.07,0.492v3.504h-1.032V215.225z"/>
			<path d="M216.558,212.26v1.392h1.478v0.804h-1.478v3.132c0,0.72,0.199,1.128,0.774,1.128c0.282,0,0.446-0.024,0.599-0.072
				l0.047,0.804c-0.2,0.072-0.516,0.144-0.915,0.144c-0.481,0-0.868-0.168-1.115-0.444c-0.282-0.324-0.399-0.84-0.399-1.524v-3.168
				h-0.88v-0.804h0.88v-1.068L216.558,212.26z"/>
			<path d="M219.197,210.94h1.032v3.624h0.023c0.164-0.3,0.422-0.576,0.739-0.744c0.305-0.192,0.668-0.3,1.056-0.3
				c0.763,0,1.983,0.48,1.983,2.484v3.456h-1.032v-3.336c0-0.948-0.34-1.728-1.314-1.728c-0.669,0-1.185,0.48-1.385,1.056
				c-0.059,0.144-0.07,0.3-0.07,0.504v3.504h-1.032V210.94z"/>
			<path d="M226.295,216.736c0.023,1.428,0.903,2.016,1.936,2.016c0.739,0,1.197-0.132,1.572-0.288l0.188,0.744
				c-0.364,0.168-0.997,0.372-1.901,0.372c-1.736,0-2.792-1.188-2.792-2.928c0-1.764,1.021-3.144,2.675-3.144
				c1.854,0,2.335,1.668,2.335,2.736c0,0.216-0.012,0.384-0.035,0.504L226.295,216.736z M229.31,215.98
				c0.012-0.66-0.27-1.716-1.419-1.716c-1.056,0-1.502,0.984-1.584,1.716H229.31z"/>
			<path d="M231.586,215.225c0-0.612-0.024-1.092-0.047-1.572h0.904l0.047,0.936h0.035c0.317-0.552,0.845-1.068,1.795-1.068
				c0.763,0,1.349,0.48,1.596,1.164h0.023c0.176-0.336,0.411-0.576,0.645-0.756c0.34-0.264,0.704-0.408,1.244-0.408
				c0.763,0,1.877,0.504,1.877,2.52v3.42h-1.009v-3.288c0-1.128-0.411-1.788-1.232-1.788c-0.598,0-1.044,0.444-1.231,0.948
				c-0.047,0.156-0.083,0.348-0.083,0.528v3.6h-1.009v-3.48c0-0.936-0.399-1.596-1.185-1.596c-0.633,0-1.114,0.528-1.279,1.056
				c-0.059,0.156-0.082,0.336-0.082,0.516v3.504h-1.009V215.225z"/>
			<path d="M129.693,233.756c-0.27,0.132-0.868,0.336-1.631,0.336c-1.713,0-2.828-1.188-2.828-2.976c0-1.788,1.197-3.096,3.05-3.096
				c0.61,0,1.15,0.156,1.432,0.312l-0.235,0.804c-0.246-0.132-0.633-0.276-1.197-0.276c-1.302,0-2.006,0.996-2.006,2.208
				c0,1.344,0.845,2.172,1.971,2.172c0.587,0,0.974-0.144,1.267-0.276L129.693,233.756z"/>
			<path d="M134.914,232.568c0,0.504,0.023,0.996,0.082,1.392h-0.927l-0.094-0.732h-0.035c-0.305,0.456-0.927,0.864-1.736,0.864
				c-1.149,0-1.736-0.828-1.736-1.668c0-1.404,1.22-2.172,3.414-2.16v-0.12c0-0.48-0.129-1.356-1.291-1.344
				c-0.54,0-1.091,0.156-1.49,0.432l-0.235-0.708c0.469-0.3,1.162-0.504,1.877-0.504c1.748,0,2.17,1.212,2.17,2.376V232.568z
				 M133.905,230.997c-1.126-0.024-2.405,0.18-2.405,1.308c0,0.696,0.446,1.008,0.962,1.008c0.751,0,1.232-0.48,1.396-0.972
				c0.035-0.108,0.047-0.228,0.047-0.336V230.997z"/>
			<path d="M136.568,229.725c0-0.612-0.012-1.092-0.047-1.572h0.915l0.059,0.948h0.023c0.281-0.54,0.938-1.08,1.877-1.08
				c0.786,0,2.006,0.48,2.006,2.472v3.468h-1.033v-3.348c0-0.936-0.34-1.728-1.314-1.728c-0.668,0-1.197,0.492-1.384,1.08
				c-0.047,0.132-0.07,0.324-0.07,0.492v3.504h-1.033V229.725z"/>
			<path d="M145.566,225.44h1.033v3.636h0.023c0.364-0.648,1.021-1.056,1.936-1.056c1.408,0,2.394,1.2,2.394,2.952
				c0,2.088-1.291,3.12-2.558,3.12c-0.821,0-1.466-0.324-1.901-1.092h-0.023l-0.059,0.96h-0.892c0.035-0.396,0.047-0.984,0.047-1.5
				V225.44z M146.599,231.632c0,0.132,0.012,0.264,0.035,0.384c0.199,0.732,0.81,1.236,1.548,1.236c1.091,0,1.725-0.9,1.725-2.232
				c0-1.176-0.587-2.172-1.689-2.172c-0.704,0-1.361,0.504-1.561,1.296c-0.035,0.132-0.059,0.276-0.059,0.444V231.632z"/>
			<path d="M152.84,231.236c0.023,1.428,0.903,2.016,1.936,2.016c0.739,0,1.196-0.132,1.572-0.288l0.188,0.744
				c-0.364,0.168-0.998,0.372-1.901,0.372c-1.736,0-2.792-1.188-2.792-2.928c0-1.764,1.021-3.144,2.675-3.144
				c1.854,0,2.334,1.668,2.334,2.736c0,0.216-0.012,0.384-0.035,0.504L152.84,231.236z M155.855,230.48
				c0.012-0.66-0.27-1.716-1.419-1.716c-1.056,0-1.502,0.984-1.584,1.716H155.855z"/>
			<path d="M164.666,233.756c-0.27,0.132-0.868,0.336-1.63,0.336c-1.713,0-2.828-1.188-2.828-2.976c0-1.788,1.197-3.096,3.05-3.096
				c0.61,0,1.15,0.156,1.431,0.312l-0.234,0.804c-0.247-0.132-0.634-0.276-1.197-0.276c-1.302,0-2.006,0.996-2.006,2.208
				c0,1.344,0.845,2.172,1.971,2.172c0.586,0,0.974-0.144,1.267-0.276L164.666,233.756z"/>
			<path d="M169.887,232.568c0,0.504,0.024,0.996,0.083,1.392h-0.927l-0.094-0.732h-0.035c-0.305,0.456-0.927,0.864-1.736,0.864
				c-1.15,0-1.736-0.828-1.736-1.668c0-1.404,1.22-2.172,3.414-2.16v-0.12c0-0.48-0.129-1.356-1.291-1.344
				c-0.54,0-1.091,0.156-1.49,0.432l-0.234-0.708c0.469-0.3,1.162-0.504,1.877-0.504c1.749,0,2.17,1.212,2.17,2.376V232.568z
				 M168.878,230.997c-1.126-0.024-2.405,0.18-2.405,1.308c0,0.696,0.446,1.008,0.962,1.008c0.75,0,1.232-0.48,1.396-0.972
				c0.035-0.108,0.047-0.228,0.047-0.336V230.997z"/>
			<path d="M171.541,225.44h1.033v8.52h-1.033V225.44z"/>
			<path d="M174.287,225.44h1.032v8.52h-1.032V225.44z"/>
			<path d="M177.618,231.236c0.023,1.428,0.903,2.016,1.936,2.016c0.739,0,1.197-0.132,1.572-0.288l0.188,0.744
				c-0.364,0.168-0.997,0.372-1.9,0.372c-1.737,0-2.792-1.188-2.792-2.928c0-1.764,1.021-3.144,2.675-3.144
				c1.854,0,2.335,1.668,2.335,2.736c0,0.216-0.012,0.384-0.035,0.504L177.618,231.236z M180.633,230.48
				c0.012-0.66-0.27-1.716-1.419-1.716c-1.056,0-1.501,0.984-1.584,1.716H180.633z"/>
			<path d="M187.813,225.44v7.02c0,0.516,0.012,1.104,0.047,1.5h-0.927l-0.047-1.008h-0.023c-0.317,0.648-0.997,1.14-1.924,1.14
				c-1.373,0-2.44-1.188-2.44-2.952c-0.012-1.944,1.173-3.12,2.546-3.12c0.88,0,1.466,0.42,1.713,0.876h0.023v-3.456H187.813z
				 M186.781,230.517c0-0.144-0.012-0.312-0.047-0.456c-0.153-0.66-0.716-1.212-1.49-1.212c-1.067,0-1.701,0.96-1.701,2.232
				c0,1.188,0.575,2.16,1.678,2.16c0.692,0,1.326-0.48,1.514-1.26c0.035-0.144,0.047-0.288,0.047-0.456V230.517z"/>
			<path d="M198.079,233.601c-0.458,0.18-1.373,0.444-2.44,0.444c-1.196,0-2.182-0.312-2.957-1.068
				c-0.68-0.672-1.103-1.752-1.103-3.012c0-2.412,1.631-4.176,4.282-4.176c0.915,0,1.643,0.204,1.983,0.372l-0.258,0.852
				c-0.422-0.204-0.95-0.348-1.748-0.348c-1.924,0-3.18,1.224-3.18,3.252c0,2.052,1.197,3.264,3.051,3.264
				c0.668,0,1.126-0.096,1.361-0.216v-2.412h-1.596v-0.84h2.604V233.601z"/>
			<path d="M201.939,232.893c0.317,0.192,0.856,0.408,1.373,0.408c0.739,0,1.091-0.372,1.091-0.864c0-0.504-0.293-0.78-1.044-1.068
				c-1.032-0.384-1.513-0.948-1.513-1.644c0-0.936,0.75-1.704,1.959-1.704c0.575,0,1.08,0.156,1.385,0.36l-0.247,0.756
				c-0.223-0.132-0.634-0.336-1.162-0.336c-0.61,0-0.938,0.36-0.938,0.792c0,0.492,0.329,0.708,1.068,0.996
				c0.974,0.372,1.49,0.876,1.49,1.752c0,1.032-0.786,1.752-2.112,1.752c-0.622,0-1.197-0.168-1.596-0.408L201.939,232.893z"/>
			<path d="M206.726,225.44h1.033v3.624h0.023c0.164-0.3,0.422-0.576,0.739-0.744c0.305-0.192,0.669-0.3,1.056-0.3
				c0.763,0,1.983,0.48,1.983,2.484v3.456h-1.033v-3.336c0-0.948-0.34-1.728-1.314-1.728c-0.669,0-1.185,0.48-1.384,1.056
				c-0.059,0.144-0.07,0.3-0.07,0.504v3.504h-1.033V225.44z"/>
			<path d="M217.238,232.568c0,0.504,0.023,0.996,0.082,1.392h-0.927l-0.094-0.732h-0.036c-0.305,0.456-0.927,0.864-1.736,0.864
				c-1.149,0-1.736-0.828-1.736-1.668c0-1.404,1.22-2.172,3.414-2.16v-0.12c0-0.48-0.129-1.356-1.291-1.344
				c-0.54,0-1.091,0.156-1.49,0.432l-0.235-0.708c0.469-0.3,1.162-0.504,1.877-0.504c1.748,0,2.17,1.212,2.17,2.376V232.568z
				 M216.229,230.997c-1.126-0.024-2.405,0.18-2.405,1.308c0,0.696,0.446,1.008,0.962,1.008c0.751,0,1.232-0.48,1.396-0.972
				c0.035-0.108,0.047-0.228,0.047-0.336V230.997z"/>
			<path d="M218.904,229.964c0-0.684-0.012-1.272-0.047-1.812h0.904l0.047,1.14h0.035c0.258-0.78,0.892-1.272,1.584-1.272
				c0.105,0,0.188,0.012,0.281,0.036v0.984c-0.117-0.012-0.223-0.024-0.364-0.024c-0.727,0-1.244,0.564-1.384,1.344
				c-0.023,0.156-0.035,0.324-0.035,0.504v3.096h-1.032L218.904,229.964z"/>
			<path d="M222.775,230.048c0-0.744-0.012-1.344-0.047-1.896h0.927l0.059,0.996h0.023c0.411-0.72,1.091-1.128,2.006-1.128
				c1.384,0,2.417,1.188,2.417,2.952c0,2.088-1.255,3.12-2.581,3.12c-0.763,0-1.408-0.336-1.748-0.912h-0.023v3.156h-1.032V230.048z
				 M223.808,231.596c0,0.144,0.012,0.3,0.047,0.432c0.176,0.732,0.81,1.236,1.537,1.236c1.091,0,1.725-0.912,1.725-2.244
				c0-1.164-0.587-2.16-1.678-2.16c-0.704,0-1.373,0.504-1.572,1.296c-0.023,0.144-0.059,0.3-0.059,0.432V231.596z"/>
			<path d="M234.249,234.092c-1.525,0-2.722-1.152-2.722-2.988c0-1.944,1.255-3.084,2.815-3.084c1.631,0,2.734,1.212,2.734,2.976
				c0,2.16-1.467,3.096-2.816,3.096H234.249z M234.284,233.3c0.985,0,1.725-0.948,1.725-2.268c0-0.984-0.481-2.22-1.701-2.22
				c-1.208,0-1.736,1.152-1.736,2.256c0,1.272,0.704,2.232,1.701,2.232H234.284z"/>
			<path d="M238.391,229.964c0-0.684-0.012-1.272-0.047-1.812h0.903l0.047,1.14h0.035c0.258-0.78,0.892-1.272,1.584-1.272
				c0.105,0,0.188,0.012,0.281,0.036v0.984c-0.117-0.012-0.223-0.024-0.363-0.024c-0.728,0-1.244,0.564-1.385,1.344
				c-0.023,0.156-0.035,0.324-0.035,0.504v3.096h-1.032L238.391,229.964z"/>
			<path d="M246.016,231.417l-0.821,2.544h-1.056l2.687-8.088h1.232l2.699,8.088h-1.091l-0.845-2.544H246.016z M248.609,230.601
				l-0.786-2.328c-0.165-0.528-0.282-1.008-0.399-1.476h-0.035c-0.106,0.468-0.235,0.972-0.387,1.464l-0.774,2.34H248.609z"/>
			<path d="M254.463,233.96v-5.004h-0.786v-0.804h0.786v-0.276c0-0.816,0.188-1.56,0.669-2.028c0.387-0.384,0.903-0.54,1.373-0.54
				c0.375,0,0.681,0.084,0.88,0.168l-0.129,0.816c-0.165-0.072-0.364-0.132-0.669-0.132c-0.868,0-1.103,0.792-1.103,1.68v0.312
				h1.373v0.804h-1.361v5.004H254.463z"/>
			<path d="M257.795,225.44h1.032v8.52h-1.032V225.44z"/>
			<path d="M264.542,232.568c0,0.504,0.023,0.996,0.082,1.392h-0.927l-0.094-0.732h-0.035c-0.305,0.456-0.927,0.864-1.736,0.864
				c-1.149,0-1.736-0.828-1.736-1.668c0-1.404,1.22-2.172,3.414-2.16v-0.12c0-0.48-0.129-1.356-1.291-1.344
				c-0.54,0-1.091,0.156-1.49,0.432l-0.235-0.708c0.469-0.3,1.162-0.504,1.877-0.504c1.748,0,2.17,1.212,2.17,2.376V232.568z
				 M263.532,230.997c-1.126-0.024-2.405,0.18-2.405,1.308c0,0.696,0.446,1.008,0.962,1.008c0.751,0,1.232-0.48,1.396-0.972
				c0.035-0.108,0.047-0.228,0.047-0.336V230.997z"/>
			<path d="M267.392,226.76v1.392h1.479v0.804h-1.479v3.132c0,0.72,0.2,1.128,0.774,1.128c0.282,0,0.446-0.024,0.599-0.072
				l0.047,0.804c-0.2,0.072-0.517,0.144-0.916,0.144c-0.481,0-0.868-0.168-1.114-0.444c-0.282-0.324-0.399-0.84-0.399-1.524v-3.168
				h-0.88v-0.804h0.88v-1.068L267.392,226.76z"/>
			<path d="M270.466,234.092c-0.399,0-0.68-0.324-0.68-0.756s0.293-0.756,0.704-0.756s0.692,0.312,0.692,0.756
				c0,0.432-0.282,0.756-0.704,0.756H270.466z"/>
		</g>
		<path fill="#FFFFFF" d="M139.789,80.46h-21V48.715h21V80.46z"/>
		<g>
			<path fill="#FF0000" d="M129.711,62.101c-0.458,0.18-1.373,0.444-2.44,0.444c-1.197,0-2.183-0.312-2.957-1.068
				c-0.681-0.672-1.103-1.752-1.103-3.012c0-2.412,1.631-4.176,4.282-4.176c0.915,0,1.643,0.204,1.983,0.372l-0.258,0.852
				c-0.422-0.204-0.95-0.348-1.748-0.348c-1.924,0-3.179,1.224-3.179,3.252c0,2.052,1.196,3.264,3.05,3.264
				c0.668,0,1.126-0.096,1.361-0.216v-2.412h-1.596v-0.84h2.604V62.101z"/>
			<path fill="#0A50A1" d="M124.959,74.417l-0.821,2.544h-1.056l2.687-8.088h1.232l2.698,8.088h-1.091l-0.845-2.544H124.959z
				 M127.552,73.601l-0.786-2.328c-0.164-0.528-0.281-1.008-0.399-1.476h-0.035c-0.105,0.468-0.234,0.972-0.387,1.464l-0.774,2.34
				H127.552z"/>
		</g>
		<g>
			<path fill="#FF0000" d="M132.821,52.716v-3.912h0.696v3.672l2.352-0.768v-3.504h0.696v3.288l0.936-0.312v2.496l-0.936,0.312
				v3.552l0.936-0.288v2.472l-0.936,0.312v3.912h-0.696v-3.696l-2.352,0.768v3.552h-0.696V61.26l-1.032,0.336v-2.496l1.032-0.336
				v-3.576l-1.032,0.336v-2.472L132.821,52.716z M133.517,54.973v3.576l2.352-0.768v-3.576L133.517,54.973z"/>
		</g>
		<g>
			<path fill="#0A50A1" d="M132.413,69.212c0,0.216,0,1.536,0,1.536c0.912-0.816,1.416-0.984,2.424-1.008
				c1.2-0.024,1.968,1.176,1.992,2.136c0.024,0.504-0.12,1.032-0.312,1.44c-0.216,0.528-0.792,0.936-1.176,1.32
				c-0.432,0.432-3.552,2.568-3.552,2.616V63.068h0.624C132.413,63.068,132.437,66.044,132.413,69.212z M132.677,71.588
				c-0.312,0.6-0.264,1.632-0.264,2.376v2.064c0,0.024,0.864-0.72,1.344-1.176c0.432-0.408,0.768-0.864,0.936-1.584
				c0.192-0.72,0.12-1.488-0.336-1.992C134.045,70.917,133.181,70.628,132.677,71.588z"/>
		</g>
		<path fill="none" stroke="#000000" d="M78.789,154.46l5,26"/>
		<path fill="none" stroke="#000000" d="M120.789,153.46l5,26"/>
		<path fill="none" stroke="#000000" d="M96.789,154.46l-5,26"/>
		<path fill="none" stroke="#000000" d="M139.789,152.46l-5,26"/>
	</g>
</svg>
