<?xml version="1.0" encoding="utf-8"?>
<!-- Generator: Adobe Illustrator 10.0, SVG Export Plug-In . SVG Version: 3.0.0 Build 76)  -->
<!DOCTYPE svg PUBLIC "-//W3C//DTD SVG 1.0//EN"    "http://www.w3.org/TR/2001/REC-SVG-20010904/DTD/svg10.dtd" [
	<!ENTITY ns_flows "http://ns.adobe.com/Flows/1.0/">
	<!ENTITY ns_extend "http://ns.adobe.com/Extensibility/1.0/">
	<!ENTITY ns_ai "http://ns.adobe.com/AdobeIllustrator/10.0/">
	<!ENTITY ns_svg "http://www.w3.org/2000/svg">
	<!ENTITY ns_xlink "http://www.w3.org/1999/xlink">
]>
<svg  xmlns:x="&ns_extend;" xmlns:i="&ns_ai;" xmlns:graph="&ns_graphs;"
	 xmlns="&ns_svg;" xmlns:xlink="&ns_xlink;" xmlns:a="http://ns.adobe.com/AdobeSVGViewerExtensions/3.0/" width="442" height="297"
	 viewBox="0 -0.135 442 297" overflow="visible" enable-background="new 0 -0.135 442 297" xml:space="preserve">
	<g id="Layer_1_2_">
		<g>
			<path fill="#0A50A1" d="M272.563,232.731c0,0.216,0,1.536,0,1.536c0.912-0.816,1.416-0.984,2.424-1.008
				c1.2-0.024,1.968,1.176,1.992,2.136c0.024,0.504-0.12,1.032-0.312,1.44c-0.216,0.528-0.792,0.936-1.176,1.32
				c-0.432,0.432-3.552,2.568-3.552,2.616v-14.184h0.624C272.563,226.587,272.587,229.563,272.563,232.731z M272.828,235.107
				c-0.312,0.6-0.264,1.632-0.264,2.376v2.064c0,0.024,0.864-0.72,1.344-1.176c0.432-0.408,0.768-0.864,0.936-1.584
				c0.192-0.72,0.12-1.488-0.336-1.992C274.195,234.436,273.332,234.147,272.828,235.107z"/>
		</g>
		<path stroke="#000000" stroke-width="3" d="M266.503,228.051h-12.208v-91.863h12.208V228.051z"/>
		<path fill="#FFFFFF" stroke="#FFFFFF" stroke-width="3" d="M269,178.792h-18v-18.598h18V178.792z"/>
		<path fill="none" stroke="#0A0A0A" d="M440.914,57.422v29.746"/>
		<g>
			<path fill="none" stroke="#000000" d="M0.118,57.686h441.86"/>
			<path fill="none" stroke="#000000" d="M0.118,72.797h441.86"/>
			<path fill="none" stroke="#000000" d="M0.338,79.92h441.859"/>
			<path fill="none" stroke="#000000" d="M0,87.303h441.857"/>
			<path fill="none" stroke="#000000" d="M0,64.94h441.857"/>
		</g>
		<g>
			<path d="M40.192,66.16v1.584c0,0.96,1.128,0.936,1.128,0.936v0.624h-5.208V68.68c0,0,1.176,0.048,1.152-0.888V66.16h-4.44
				l-0.432-0.456c2.904-3.912,2.928-4.632,3.624-8.184h4.152c-0.984,1.824-4.296,5.256-6.624,7.968h3.72v-2.952l2.928-3.216v6.168
				h1.728v0.672H40.192z"/>
		</g>
		<g>
			<path d="M13.152,87.208c-4.944-2.352-5.736-5.376-5.952-8.472c-0.24-3.36,1.896-6.768,3.888-8.664
				c1.152-1.08,2.4-2.136,3.888-3.264c-0.048-0.84-0.24-1.176-0.336-2.376c-0.024-0.504-0.336-2.856,0.168-5.568
				c0.312-1.608,2.328-5.4,3.72-5.424c1.08-0.024,2.736,4.296,2.784,6.456c0.072,3.336-0.72,4.848-1.704,6.576
				c-0.504,0.864-1.032,1.464-1.584,2.136c-0.576,0.696-1.224,1.104-1.824,1.632c0,0,0.768,4.344,0.792,4.656
				c1.536-0.192,3.408,0.36,4.08,0.84c1.704,1.272,2.352,3.024,2.472,4.728c0.216,2.712-1.272,5.568-4.56,6.936
				c0,0,0.504,3.456,0.624,4.176c0.264,1.896,0.216,3.096-0.192,3.864c-0.696,1.296-1.824,2.496-4.008,2.64
				c-1.68,0.096-4.992-0.744-5.16-3.384c-0.096-1.56,0.6-3.24,2.496-3.36c1.152-0.096,2.52,0.864,2.616,2.232
				c0.096,1.176-0.672,2.4-2.664,2.952c0.312,0.432,1.248,0.936,2.592,0.936c1.392,0,2.832-0.936,3.528-2.184
				c0.432-0.816,0.384-2.28,0.216-3.624c-0.072-0.456-0.648-4.08-0.648-4.08C16.608,87.856,14.16,87.688,13.152,87.208z
				 M13.632,81.52c0.048,1.152,1.008,2.496,1.896,2.952c-0.12,0.072-0.24,0.264-0.24,0.264c-0.984-0.48-1.824-1.272-2.04-1.56
				c-0.696-0.936-0.984-1.464-1.08-2.88c-0.096-1.32,0.624-3.096,2.232-4.344c0.84-0.624,1.248-0.768,1.968-0.936l-0.72-4.344
				c-0.744,0.432-3.816,2.904-5.112,4.92c-1.152,1.8-1.848,3.24-1.704,5.016c0.288,4.008,4.68,7.296,9.432,6.168
				c0,0-1.416-8.52-1.392-8.52C14.256,78.352,13.56,80.368,13.632,81.52z M15.576,66.304c2.088-1.632,4.92-4.704,4.752-7.08
				c-0.048-0.744-0.36-2.088-1.44-2.064C16.416,57.184,15.024,62.344,15.576,66.304z M18.84,86.584
				c2.76-0.936,2.88-3.312,2.784-4.728C21.528,80.68,21,78.04,17.496,78.208L18.84,86.584z"/>
		</g>
		<g>
			<path d="M79.904,76.304c2.664,0.024,5.184,1.032,5.376,3.264c0.144,1.632-2.016,3.12-4.68,3.12
				c-2.688-0.024-5.184-1.008-5.4-3.24C75.056,77.792,77.24,76.304,79.904,76.304z M80.552,82.136c1.152,0,1.896-1.104,1.776-1.992
				c-0.264-1.752-0.864-3.168-2.448-3.168c-1.152,0-1.824,1.128-1.68,2.016C78.464,80.744,78.968,82.136,80.552,82.136z"/>
		</g>
		<g>
			<path d="M42.192,83.16v1.584c0,0.96,1.128,0.936,1.128,0.936v0.624h-5.208V85.68c0,0,1.176,0.048,1.152-0.888V83.16h-4.44
				l-0.432-0.456c2.904-3.912,2.928-4.632,3.624-8.184h4.152c-0.984,1.824-4.296,5.256-6.624,7.968h3.72v-2.952l2.928-3.216v6.168
				h1.728v0.672H42.192z"/>
		</g>
		<path fill="none" stroke="#0A0A0A" d="M138.901,57.834v29.746"/>
		<path fill="none" stroke="#0A0A0A" d="M242.901,56.834v29.746"/>
		<path fill="none" stroke="#0A0A0A" d="M337,58.119v29.746"/>
		<g>
			<path d="M285.903,65.304c2.664,0.024,5.184,1.032,5.376,3.264c0.144,1.632-2.016,3.12-4.68,3.12
				c-2.688-0.024-5.184-1.008-5.4-3.24C281.055,66.792,283.239,65.304,285.903,65.304z M286.551,71.136
				c1.152,0,1.896-1.104,1.776-1.992c-0.264-1.752-0.864-3.168-2.448-3.168c-1.152,0-1.824,1.128-1.68,2.016
				C284.463,69.744,284.967,71.136,286.551,71.136z"/>
		</g>
		<g>
			<path d="M44.992,0.552c0.672-0.12,1.548-0.18,2.46-0.18c1.548,0,2.556,0.252,3.324,0.84c0.84,0.624,1.368,1.632,1.368,3.072
				c0,1.548-0.564,2.616-1.332,3.276c-0.852,0.708-2.16,1.044-3.744,1.044c-0.948,0-1.632-0.06-2.076-0.12V0.552z M46.816,7.14
				c0.156,0.036,0.42,0.036,0.636,0.036c1.668,0.012,2.76-0.9,2.76-2.832c0-1.74-0.984-2.568-2.568-2.568
				c-0.396,0-0.672,0.036-0.828,0.072V7.14z"/>
			<path d="M56.043,8.652c-1.716,0-3.036-1.128-3.036-3.024s1.248-3.108,3.144-3.108c1.788,0,2.988,1.236,2.988,3.012
				c0,2.136-1.524,3.12-3.084,3.12H56.043z M56.08,7.344c0.72,0,1.164-0.708,1.164-1.764c0-0.864-0.336-1.752-1.164-1.752
				c-0.864,0-1.2,0.888-1.2,1.764c0,0.996,0.42,1.752,1.188,1.752H56.08z"/>
			<path d="M65.8,6.636c0,0.768,0.024,1.392,0.048,1.884h-1.584L64.18,7.692h-0.036c-0.228,0.36-0.78,0.96-1.836,0.96
				c-1.2,0-2.064-0.744-2.064-2.556V2.652h1.824v3.156c0,0.852,0.276,1.368,0.924,1.368c0.504,0,0.804-0.348,0.912-0.636
				c0.048-0.108,0.072-0.24,0.072-0.396V2.652H65.8V6.636z"/>
			<path d="M67.264,0h1.824v3.348h0.024c0.348-0.504,0.96-0.828,1.776-0.828c1.404,0,2.424,1.164,2.412,2.964
				c0,2.112-1.332,3.168-2.676,3.168c-0.684,0-1.356-0.252-1.764-0.948h-0.024L68.764,8.52h-1.548
				c0.024-0.384,0.048-1.092,0.048-1.752V0z M69.087,6.024c0,0.12,0.012,0.228,0.036,0.324c0.12,0.48,0.54,0.864,1.068,0.864
				c0.78,0,1.26-0.6,1.26-1.656c0-0.912-0.408-1.632-1.26-1.632c-0.492,0-0.948,0.372-1.068,0.9C69.1,4.932,69.087,5.04,69.087,5.16
				V6.024z"/>
			<path d="M74.439,0h1.824v8.52h-1.824V0z"/>
			<path d="M79.131,6.156c0.06,0.768,0.804,1.128,1.656,1.128c0.624,0,1.128-0.084,1.62-0.252l0.24,1.236
				c-0.6,0.252-1.332,0.372-2.124,0.372c-1.992,0-3.132-1.152-3.132-3c0-1.488,0.936-3.132,2.964-3.132
				c1.896,0,2.616,1.476,2.616,2.928c0,0.312-0.036,0.588-0.06,0.732L79.131,6.156z M81.279,4.908c0-0.432-0.192-1.188-1.02-1.188
				c-0.78,0-1.092,0.708-1.14,1.188H81.279z"/>
			<path d="M86.607,6.648c0.48,0.252,1.248,0.504,2.028,0.504c0.84,0,1.284-0.348,1.284-0.888c0-0.492-0.384-0.792-1.356-1.128
				c-1.344-0.48-2.232-1.224-2.232-2.412c0-1.38,1.164-2.424,3.06-2.424c0.924,0,1.584,0.18,2.064,0.408l-0.408,1.464
				c-0.312-0.156-0.9-0.384-1.68-0.384c-0.792,0-1.176,0.372-1.176,0.78c0,0.516,0.444,0.744,1.5,1.152
				c1.428,0.528,2.088,1.272,2.088,2.424c0,1.356-1.032,2.508-3.252,2.508c-0.924,0-1.836-0.252-2.292-0.504L86.607,6.648z"/>
			<path d="M92.919,0h1.824v3.36h0.024c0.192-0.264,0.432-0.468,0.72-0.612c0.276-0.144,0.612-0.228,0.948-0.228
				c1.164,0,2.052,0.804,2.052,2.58v3.42h-1.824V5.292c0-0.768-0.264-1.296-0.948-1.296c-0.48,0-0.78,0.312-0.912,0.648
				c-0.048,0.108-0.06,0.264-0.06,0.396v3.48h-1.824V0z"/>
			<path d="M104.835,7.104c0,0.552,0.024,1.092,0.096,1.416h-1.644l-0.108-0.588h-0.036c-0.384,0.468-0.984,0.72-1.68,0.72
				c-1.188,0-1.896-0.864-1.896-1.8c0-1.524,1.368-2.244,3.444-2.244V4.536c0-0.312-0.168-0.756-1.068-0.756
				c-0.6,0-1.236,0.204-1.62,0.432l-0.336-1.164c0.408-0.228,1.212-0.528,2.28-0.528c1.956,0,2.568,1.152,2.568,2.532V7.104z
				 M103.071,5.748c-0.96,0-1.704,0.228-1.704,0.924c0,0.468,0.312,0.696,0.72,0.696c0.444,0,0.828-0.3,0.948-0.672
				c0.024-0.096,0.036-0.204,0.036-0.312V5.748z"/>
			<path d="M106.299,4.584c0-0.864-0.012-1.428-0.048-1.932h1.56l0.072,1.092h0.048c0.3-0.864,1.008-1.224,1.584-1.224
				c0.168,0,0.252,0.012,0.384,0.036v1.716c-0.156-0.024-0.3-0.048-0.504-0.048c-0.672,0-1.128,0.348-1.248,0.924
				c-0.024,0.12-0.036,0.252-0.036,0.408V8.52h-1.824L106.299,4.584z"/>
			<path d="M110.835,4.62c0-0.768-0.024-1.416-0.048-1.968h1.584l0.084,0.816h0.024c0.432-0.612,1.104-0.948,1.956-0.948
				c1.284,0,2.436,1.116,2.436,2.988c0,2.136-1.356,3.144-2.664,3.144c-0.708,0-1.26-0.288-1.524-0.672h-0.024v2.916h-1.824V4.62z
				 M112.659,6c0,0.144,0.012,0.264,0.036,0.384c0.12,0.492,0.54,0.864,1.068,0.864c0.792,0,1.26-0.66,1.26-1.656
				c0-0.936-0.42-1.644-1.236-1.644c-0.516,0-0.972,0.384-1.092,0.924c-0.024,0.096-0.036,0.216-0.036,0.324V6z"/>
			<path d="M120.555,6.648c0.48,0.252,1.248,0.504,2.028,0.504c0.84,0,1.284-0.348,1.284-0.888c0-0.492-0.384-0.792-1.356-1.128
				c-1.344-0.48-2.232-1.224-2.232-2.412c0-1.38,1.164-2.424,3.06-2.424c0.924,0,1.584,0.18,2.064,0.408l-0.408,1.464
				c-0.312-0.156-0.9-0.384-1.68-0.384c-0.792,0-1.176,0.372-1.176,0.78c0,0.516,0.444,0.744,1.5,1.152
				c1.428,0.528,2.088,1.272,2.088,2.424c0,1.356-1.032,2.508-3.252,2.508c-0.924,0-1.836-0.252-2.292-0.504L120.555,6.648z"/>
			<path d="M128.103,2.652l0.876,2.88c0.096,0.348,0.216,0.78,0.288,1.092h0.036c0.084-0.312,0.18-0.756,0.264-1.092l0.72-2.88
				h1.956l-1.368,3.864c-0.84,2.328-1.404,3.252-2.064,3.84c-0.624,0.552-1.296,0.756-1.764,0.804l-0.384-1.536
				c0.228-0.048,0.516-0.156,0.792-0.312c0.276-0.144,0.588-0.444,0.756-0.732c0.06-0.096,0.096-0.18,0.096-0.264
				c0-0.06-0.012-0.156-0.072-0.3l-2.16-5.364H128.103z"/>
			<path d="M133.011,4.524c0-0.732-0.024-1.344-0.048-1.872h1.548l0.072,0.804h0.036c0.252-0.384,0.78-0.936,1.776-0.936
				c0.768,0,1.356,0.396,1.608,1.008h0.024c0.228-0.312,0.48-0.552,0.768-0.72c0.324-0.18,0.684-0.288,1.116-0.288
				c1.128,0,1.98,0.792,1.98,2.544V8.52h-1.776V5.34c0-0.852-0.276-1.344-0.864-1.344c-0.432,0-0.72,0.288-0.852,0.636
				c-0.036,0.132-0.06,0.312-0.06,0.456V8.52h-1.776V5.232c0-0.732-0.264-1.236-0.852-1.236c-0.468,0-0.744,0.36-0.852,0.648
				c-0.06,0.144-0.072,0.312-0.072,0.468V8.52h-1.776V4.524z"/>
			<path d="M143.331,0h1.824v3.348h0.024c0.348-0.504,0.96-0.828,1.776-0.828c1.404,0,2.424,1.164,2.412,2.964
				c0,2.112-1.332,3.168-2.676,3.168c-0.684,0-1.356-0.252-1.764-0.948h-0.024l-0.072,0.816h-1.548
				c0.024-0.384,0.048-1.092,0.048-1.752V0z M145.155,6.024c0,0.12,0.012,0.228,0.036,0.324c0.12,0.48,0.54,0.864,1.068,0.864
				c0.78,0,1.26-0.6,1.26-1.656c0-0.912-0.408-1.632-1.26-1.632c-0.492,0-0.948,0.372-1.068,0.9
				c-0.024,0.108-0.036,0.216-0.036,0.336V6.024z"/>
			<path d="M153.242,8.652c-1.716,0-3.036-1.128-3.036-3.024s1.248-3.108,3.144-3.108c1.788,0,2.988,1.236,2.988,3.012
				c0,2.136-1.524,3.12-3.084,3.12H153.242z M153.278,7.344c0.72,0,1.164-0.708,1.164-1.764c0-0.864-0.336-1.752-1.164-1.752
				c-0.864,0-1.2,0.888-1.2,1.764c0,0.996,0.42,1.752,1.188,1.752H153.278z"/>
			<path d="M157.466,0h1.824v8.52h-1.824V0z"/>
			<path d="M260.992,0.552c0.672-0.12,1.548-0.18,2.46-0.18c1.548,0,2.556,0.252,3.324,0.84c0.84,0.624,1.368,1.632,1.368,3.072
				c0,1.548-0.564,2.616-1.332,3.276c-0.852,0.708-2.16,1.044-3.744,1.044c-0.948,0-1.632-0.06-2.076-0.12V0.552z M262.816,7.14
				c0.156,0.036,0.42,0.036,0.636,0.036c1.668,0.012,2.76-0.9,2.76-2.832c0-1.74-0.984-2.568-2.568-2.568
				c-0.396,0-0.672,0.036-0.828,0.072V7.14z"/>
			<path d="M272.043,8.652c-1.716,0-3.036-1.128-3.036-3.024s1.248-3.108,3.144-3.108c1.788,0,2.988,1.236,2.988,3.012
				c0,2.136-1.524,3.12-3.084,3.12H272.043z M272.08,7.344c0.72,0,1.164-0.708,1.164-1.764c0-0.864-0.336-1.752-1.164-1.752
				c-0.864,0-1.2,0.888-1.2,1.764c0,0.996,0.42,1.752,1.188,1.752H272.08z"/>
			<path d="M281.8,6.636c0,0.768,0.024,1.392,0.048,1.884h-1.584l-0.084-0.828h-0.036c-0.228,0.36-0.78,0.96-1.836,0.96
				c-1.2,0-2.064-0.744-2.064-2.556V2.652h1.824v3.156c0,0.852,0.276,1.368,0.924,1.368c0.504,0,0.804-0.348,0.912-0.636
				c0.048-0.108,0.072-0.24,0.072-0.396V2.652h1.824V6.636z"/>
			<path d="M283.264,0h1.824v3.348h0.024c0.348-0.504,0.96-0.828,1.776-0.828c1.404,0,2.424,1.164,2.412,2.964
				c0,2.112-1.332,3.168-2.676,3.168c-0.684,0-1.356-0.252-1.764-0.948h-0.024l-0.072,0.816h-1.548
				c0.024-0.384,0.048-1.092,0.048-1.752V0z M285.087,6.024c0,0.12,0.012,0.228,0.036,0.324c0.12,0.48,0.54,0.864,1.068,0.864
				c0.78,0,1.26-0.6,1.26-1.656c0-0.912-0.408-1.632-1.26-1.632c-0.492,0-0.948,0.372-1.068,0.9
				c-0.024,0.108-0.036,0.216-0.036,0.336V6.024z"/>
			<path d="M290.439,0h1.824v8.52h-1.824V0z"/>
			<path d="M295.131,6.156c0.06,0.768,0.804,1.128,1.656,1.128c0.624,0,1.128-0.084,1.62-0.252l0.24,1.236
				c-0.6,0.252-1.332,0.372-2.124,0.372c-1.992,0-3.132-1.152-3.132-3c0-1.488,0.936-3.132,2.964-3.132
				c1.896,0,2.616,1.476,2.616,2.928c0,0.312-0.036,0.588-0.06,0.732L295.131,6.156z M297.279,4.908c0-0.432-0.192-1.188-1.02-1.188
				c-0.78,0-1.092,0.708-1.14,1.188H297.279z"/>
			<path d="M302.56,0.432h4.932v1.5h-3.108V3.78h2.904v1.488h-2.904V8.52h-1.823V0.432z"/>
			<path d="M308.631,0h1.824v8.52h-1.824V0z"/>
			<path d="M316.803,7.104c0,0.552,0.024,1.092,0.096,1.416h-1.644l-0.108-0.588h-0.035c-0.385,0.468-0.984,0.72-1.681,0.72
				c-1.188,0-1.896-0.864-1.896-1.8c0-1.524,1.368-2.244,3.443-2.244V4.536c0-0.312-0.168-0.756-1.067-0.756
				c-0.601,0-1.236,0.204-1.62,0.432l-0.336-1.164c0.408-0.228,1.212-0.528,2.28-0.528c1.956,0,2.567,1.152,2.567,2.532V7.104z
				 M315.039,5.748c-0.96,0-1.704,0.228-1.704,0.924c0,0.468,0.312,0.696,0.72,0.696c0.444,0,0.828-0.3,0.948-0.672
				c0.024-0.096,0.036-0.204,0.036-0.312V5.748z"/>
			<path d="M320.199,1.056v1.596h1.308v1.344h-1.308v2.136c0,0.708,0.18,1.032,0.72,1.032c0.252,0,0.372-0.012,0.54-0.048
				l0.012,1.38c-0.228,0.084-0.672,0.156-1.176,0.156c-0.588,0-1.08-0.204-1.38-0.504c-0.336-0.348-0.504-0.912-0.504-1.74V3.996
				h-0.78V2.652h0.78V1.548L320.199,1.056z"/>
			<path d="M325.106,6.648c0.48,0.252,1.248,0.504,2.028,0.504c0.84,0,1.284-0.348,1.284-0.888c0-0.492-0.384-0.792-1.356-1.128
				c-1.344-0.48-2.231-1.224-2.231-2.412c0-1.38,1.164-2.424,3.06-2.424c0.924,0,1.584,0.18,2.064,0.408l-0.408,1.464
				c-0.313-0.156-0.9-0.384-1.68-0.384c-0.792,0-1.177,0.372-1.177,0.78c0,0.516,0.444,0.744,1.5,1.152
				c1.429,0.528,2.089,1.272,2.089,2.424c0,1.356-1.032,2.508-3.253,2.508c-0.924,0-1.836-0.252-2.292-0.504L325.106,6.648z"/>
			<path d="M332.654,2.652l0.876,2.88c0.097,0.348,0.217,0.78,0.288,1.092h0.036c0.084-0.312,0.181-0.756,0.265-1.092l0.72-2.88
				h1.956l-1.368,3.864c-0.84,2.328-1.404,3.252-2.064,3.84c-0.624,0.552-1.296,0.756-1.764,0.804l-0.384-1.536
				c0.228-0.048,0.516-0.156,0.792-0.312c0.276-0.144,0.588-0.444,0.756-0.732c0.06-0.096,0.096-0.18,0.096-0.264
				c0-0.06-0.012-0.156-0.071-0.3l-2.16-5.364H332.654z"/>
			<path d="M337.563,4.524c0-0.732-0.023-1.344-0.048-1.872h1.548l0.072,0.804h0.036c0.252-0.384,0.779-0.936,1.775-0.936
				c0.769,0,1.356,0.396,1.608,1.008h0.024c0.228-0.312,0.479-0.552,0.768-0.72c0.324-0.18,0.684-0.288,1.116-0.288
				c1.128,0,1.979,0.792,1.979,2.544V8.52h-1.775V5.34c0-0.852-0.276-1.344-0.864-1.344c-0.432,0-0.72,0.288-0.852,0.636
				c-0.036,0.132-0.061,0.312-0.061,0.456V8.52h-1.776V5.232c0-0.732-0.264-1.236-0.852-1.236c-0.468,0-0.744,0.36-0.853,0.648
				c-0.06,0.144-0.071,0.312-0.071,0.468V8.52h-1.776V4.524z"/>
			<path d="M347.883,0h1.823v3.348h0.024c0.348-0.504,0.96-0.828,1.776-0.828c1.403,0,2.424,1.164,2.412,2.964
				c0,2.112-1.332,3.168-2.677,3.168c-0.684,0-1.355-0.252-1.764-0.948h-0.024l-0.071,0.816h-1.549
				c0.024-0.384,0.049-1.092,0.049-1.752V0z M349.706,6.024c0,0.12,0.013,0.228,0.036,0.324c0.12,0.48,0.54,0.864,1.068,0.864
				c0.78,0,1.26-0.6,1.26-1.656c0-0.912-0.408-1.632-1.26-1.632c-0.492,0-0.948,0.372-1.068,0.9
				c-0.023,0.108-0.036,0.216-0.036,0.336V6.024z"/>
			<path d="M357.794,8.652c-1.716,0-3.036-1.128-3.036-3.024s1.248-3.108,3.145-3.108c1.788,0,2.988,1.236,2.988,3.012
				c0,2.136-1.524,3.12-3.084,3.12H357.794z M357.83,7.344c0.72,0,1.164-0.708,1.164-1.764c0-0.864-0.336-1.752-1.164-1.752
				c-0.864,0-1.2,0.888-1.2,1.764c0,0.996,0.42,1.752,1.188,1.752H357.83z"/>
			<path d="M362.019,0h1.823v8.52h-1.823V0z"/>
		</g>
		<g>
			<path d="M76.28,104.16c-0.468,0.18-1.404,0.444-2.496,0.444c-1.224,0-2.232-0.312-3.024-1.068
				c-0.696-0.672-1.128-1.752-1.128-3.012c0-2.412,1.668-4.176,4.38-4.176c0.936,0,1.68,0.204,2.028,0.372l-0.264,0.852
				c-0.432-0.204-0.972-0.348-1.788-0.348c-1.968,0-3.252,1.224-3.252,3.252c0,2.052,1.224,3.264,3.12,3.264
				c0.684,0,1.152-0.096,1.392-0.216v-2.412h-1.632v-0.84h2.664V104.16z"/>
			<path d="M85.388,96v7.02c0,0.516,0.012,1.104,0.048,1.5h-0.948l-0.048-1.008h-0.024c-0.324,0.648-1.02,1.14-1.968,1.14
				c-1.404,0-2.496-1.188-2.496-2.952c-0.012-1.944,1.2-3.12,2.604-3.12c0.9,0,1.5,0.42,1.752,0.876h0.024V96H85.388z
				 M84.332,101.076c0-0.144-0.012-0.312-0.048-0.456c-0.156-0.66-0.732-1.212-1.524-1.212c-1.092,0-1.74,0.96-1.74,2.232
				c0,1.188,0.588,2.16,1.716,2.16c0.708,0,1.356-0.48,1.548-1.26c0.036-0.144,0.048-0.288,0.048-0.456V101.076z"/>
			<path d="M89.503,104.652c-1.56,0-2.784-1.152-2.784-2.988c0-1.944,1.284-3.084,2.88-3.084c1.668,0,2.796,1.212,2.796,2.976
				c0,2.16-1.5,3.096-2.88,3.096H89.503z M89.54,103.86c1.008,0,1.764-0.948,1.764-2.268c0-0.984-0.492-2.22-1.74-2.22
				c-1.236,0-1.776,1.152-1.776,2.256c0,1.272,0.72,2.232,1.74,2.232H89.54z"/>
			<path d="M98.587,102.936c0,0.6,0.012,1.128,0.048,1.584h-0.936l-0.06-0.948h-0.024c-0.264,0.468-0.888,1.08-1.92,1.08
				c-0.912,0-2.004-0.516-2.004-2.544v-3.396h1.056v3.204c0,1.104,0.348,1.86,1.296,1.86c0.708,0,1.2-0.492,1.392-0.972
				c0.06-0.144,0.096-0.336,0.096-0.54v-3.552h1.056V102.936z"/>
			<path d="M100.339,96h1.056v3.636h0.024c0.372-0.648,1.044-1.056,1.98-1.056c1.44,0,2.448,1.2,2.448,2.952
				c0,2.088-1.32,3.12-2.616,3.12c-0.84,0-1.5-0.324-1.944-1.092h-0.024l-0.06,0.96h-0.912c0.036-0.396,0.048-0.984,0.048-1.5V96z
				 M101.396,102.192c0,0.132,0.012,0.264,0.036,0.384c0.204,0.732,0.828,1.236,1.584,1.236c1.116,0,1.764-0.9,1.764-2.232
				c0-1.176-0.6-2.172-1.728-2.172c-0.72,0-1.392,0.504-1.596,1.296c-0.036,0.132-0.06,0.276-0.06,0.444V102.192z"/>
			<path d="M107.167,96h1.056v8.52h-1.056V96z"/>
			<path d="M110.575,101.796c0.024,1.428,0.924,2.016,1.98,2.016c0.756,0,1.224-0.132,1.608-0.288l0.192,0.744
				c-0.372,0.168-1.02,0.372-1.944,0.372c-1.776,0-2.856-1.188-2.856-2.928c0-1.764,1.044-3.144,2.736-3.144
				c1.896,0,2.388,1.668,2.388,2.736c0,0.216-0.012,0.384-0.036,0.504L110.575,101.796z M113.659,101.04
				c0.012-0.66-0.276-1.716-1.452-1.716c-1.08,0-1.536,0.984-1.62,1.716H113.659z"/>
			<path d="M118.387,103.452c0.324,0.192,0.876,0.408,1.404,0.408c0.756,0,1.116-0.372,1.116-0.864c0-0.504-0.3-0.78-1.068-1.068
				c-1.056-0.384-1.548-0.948-1.548-1.644c0-0.936,0.768-1.704,2.004-1.704c0.588,0,1.104,0.156,1.416,0.36l-0.252,0.756
				c-0.228-0.132-0.648-0.336-1.188-0.336c-0.624,0-0.96,0.36-0.96,0.792c0,0.492,0.336,0.708,1.092,0.996
				c0.996,0.372,1.524,0.876,1.524,1.752c0,1.032-0.804,1.752-2.16,1.752c-0.636,0-1.224-0.168-1.632-0.408L118.387,103.452z"/>
			<path d="M123.283,96h1.056v3.624h0.024c0.168-0.3,0.432-0.576,0.756-0.744c0.312-0.192,0.684-0.3,1.08-0.3
				c0.78,0,2.028,0.48,2.028,2.484v3.456h-1.056v-3.336c0-0.948-0.348-1.728-1.344-1.728c-0.684,0-1.212,0.48-1.416,1.056
				c-0.06,0.144-0.072,0.3-0.072,0.504v3.504h-1.056V96z"/>
			<path d="M134.035,103.128c0,0.504,0.024,0.996,0.084,1.392h-0.948l-0.096-0.732h-0.036c-0.312,0.456-0.948,0.864-1.776,0.864
				c-1.176,0-1.776-0.828-1.776-1.668c0-1.404,1.248-2.172,3.492-2.16v-0.12c0-0.48-0.132-1.356-1.32-1.344
				c-0.552,0-1.116,0.156-1.524,0.432l-0.24-0.708c0.48-0.3,1.188-0.504,1.92-0.504c1.788,0,2.22,1.212,2.22,2.376V103.128z
				 M133.003,101.556c-1.152-0.024-2.46,0.18-2.46,1.308c0,0.696,0.456,1.008,0.984,1.008c0.768,0,1.26-0.48,1.428-0.972
				c0.036-0.108,0.048-0.228,0.048-0.336V101.556z"/>
			<path d="M135.739,100.524c0-0.684-0.012-1.272-0.048-1.812h0.924l0.048,1.14h0.036c0.264-0.78,0.912-1.272,1.62-1.272
				c0.108,0,0.192,0.012,0.288,0.036V99.6c-0.12-0.012-0.228-0.024-0.372-0.024c-0.744,0-1.272,0.564-1.416,1.344
				c-0.024,0.156-0.036,0.324-0.036,0.504v3.096h-1.056L135.739,100.524z"/>
			<path d="M139.699,100.608c0-0.744-0.012-1.344-0.048-1.896h0.948l0.06,0.996h0.024c0.42-0.72,1.116-1.128,2.052-1.128
				c1.416,0,2.472,1.188,2.472,2.952c0,2.088-1.284,3.12-2.64,3.12c-0.78,0-1.44-0.336-1.788-0.912h-0.024v3.156h-1.056V100.608z
				 M140.755,102.156c0,0.144,0.012,0.3,0.048,0.432c0.18,0.732,0.828,1.236,1.572,1.236c1.116,0,1.764-0.912,1.764-2.244
				c0-1.164-0.6-2.16-1.716-2.16c-0.72,0-1.404,0.504-1.608,1.296c-0.024,0.144-0.06,0.3-0.06,0.432V102.156z"/>
			<path d="M153.163,103.128c0,0.504,0.024,0.996,0.084,1.392h-0.948l-0.096-0.732h-0.036c-0.312,0.456-0.948,0.864-1.776,0.864
				c-1.176,0-1.776-0.828-1.776-1.668c0-1.404,1.248-2.172,3.492-2.16v-0.12c0-0.48-0.132-1.356-1.32-1.344
				c-0.552,0-1.116,0.156-1.524,0.432l-0.24-0.708c0.48-0.3,1.188-0.504,1.92-0.504c1.788,0,2.22,1.212,2.22,2.376V103.128z
				 M152.13,101.556c-1.152-0.024-2.46,0.18-2.46,1.308c0,0.696,0.456,1.008,0.984,1.008c0.768,0,1.26-0.48,1.428-0.972
				c0.036-0.108,0.048-0.228,0.048-0.336V101.556z"/>
			<path d="M154.854,100.284c0-0.612-0.012-1.092-0.048-1.572h0.936l0.06,0.948h0.024c0.288-0.54,0.96-1.08,1.92-1.08
				c0.804,0,2.052,0.48,2.052,2.472v3.468h-1.056v-3.348c0-0.936-0.348-1.728-1.344-1.728c-0.684,0-1.224,0.492-1.416,1.08
				c-0.048,0.132-0.072,0.324-0.072,0.492v3.504h-1.056V100.284z"/>
			<path d="M166.53,96v7.02c0,0.516,0.012,1.104,0.048,1.5h-0.948l-0.048-1.008h-0.024c-0.324,0.648-1.02,1.14-1.968,1.14
				c-1.404,0-2.496-1.188-2.496-2.952c-0.012-1.944,1.2-3.12,2.604-3.12c0.9,0,1.5,0.42,1.752,0.876h0.024V96H166.53z
				 M165.474,101.076c0-0.144-0.012-0.312-0.048-0.456c-0.156-0.66-0.732-1.212-1.524-1.212c-1.092,0-1.74,0.96-1.74,2.232
				c0,1.188,0.588,2.16,1.716,2.16c0.708,0,1.356-0.48,1.548-1.26c0.036-0.144,0.048-0.288,0.048-0.456V101.076z"/>
			<path d="M172.17,101.976l-0.84,2.544h-1.08l2.748-8.088h1.26l2.76,8.088h-1.116l-0.864-2.544H172.17z M174.822,101.16
				l-0.804-2.328c-0.168-0.528-0.288-1.008-0.408-1.476h-0.036c-0.108,0.468-0.24,0.972-0.396,1.464l-0.792,2.34H174.822z"/>
			<path d="M180.714,100.284c0-0.612-0.012-1.092-0.048-1.572h0.936l0.06,0.948h0.024c0.288-0.54,0.96-1.08,1.92-1.08
				c0.804,0,2.052,0.48,2.052,2.472v3.468h-1.056v-3.348c0-0.936-0.348-1.728-1.344-1.728c-0.684,0-1.224,0.492-1.416,1.08
				c-0.048,0.132-0.072,0.324-0.072,0.492v3.504h-1.056V100.284z"/>
			<path d="M191.466,103.128c0,0.504,0.024,0.996,0.084,1.392h-0.948l-0.096-0.732h-0.036c-0.312,0.456-0.948,0.864-1.776,0.864
				c-1.176,0-1.776-0.828-1.776-1.668c0-1.404,1.248-2.172,3.492-2.16v-0.12c0-0.48-0.132-1.356-1.32-1.344
				c-0.552,0-1.116,0.156-1.524,0.432l-0.24-0.708c0.48-0.3,1.188-0.504,1.92-0.504c1.788,0,2.22,1.212,2.22,2.376V103.128z
				 M190.434,101.556c-1.152-0.024-2.46,0.18-2.46,1.308c0,0.696,0.456,1.008,0.984,1.008c0.768,0,1.26-0.48,1.428-0.972
				c0.036-0.108,0.048-0.228,0.048-0.336V101.556z"/>
			<path d="M194.382,97.32v1.392h1.512v0.804h-1.512v3.132c0,0.72,0.204,1.128,0.792,1.128c0.288,0,0.456-0.024,0.612-0.072
				l0.048,0.804c-0.204,0.072-0.528,0.144-0.936,0.144c-0.492,0-0.888-0.168-1.14-0.444c-0.288-0.324-0.408-0.84-0.408-1.524v-3.168
				h-0.9v-0.804h0.9v-1.068L194.382,97.32z"/>
			<path d="M201.942,102.936c0,0.6,0.012,1.128,0.048,1.584h-0.936l-0.06-0.948h-0.024c-0.264,0.468-0.888,1.08-1.92,1.08
				c-0.912,0-2.004-0.516-2.004-2.544v-3.396h1.056v3.204c0,1.104,0.348,1.86,1.296,1.86c0.708,0,1.2-0.492,1.392-0.972
				c0.06-0.144,0.096-0.336,0.096-0.54v-3.552h1.056V102.936z"/>
			<path d="M203.706,100.524c0-0.684-0.012-1.272-0.048-1.812h0.924l0.048,1.14h0.036c0.264-0.78,0.912-1.272,1.62-1.272
				c0.108,0,0.192,0.012,0.288,0.036V99.6c-0.12-0.012-0.228-0.024-0.372-0.024c-0.744,0-1.272,0.564-1.416,1.344
				c-0.024,0.156-0.036,0.324-0.036,0.504v3.096h-1.056L203.706,100.524z"/>
			<path d="M211.638,103.128c0,0.504,0.024,0.996,0.084,1.392h-0.948l-0.096-0.732h-0.036c-0.312,0.456-0.948,0.864-1.776,0.864
				c-1.176,0-1.776-0.828-1.776-1.668c0-1.404,1.248-2.172,3.492-2.16v-0.12c0-0.48-0.132-1.356-1.32-1.344
				c-0.552,0-1.116,0.156-1.524,0.432l-0.24-0.708c0.48-0.3,1.188-0.504,1.92-0.504c1.788,0,2.22,1.212,2.22,2.376V103.128z
				 M210.605,101.556c-1.152-0.024-2.46,0.18-2.46,1.308c0,0.696,0.456,1.008,0.984,1.008c0.768,0,1.26-0.48,1.428-0.972
				c0.036-0.108,0.048-0.228,0.048-0.336V101.556z"/>
			<path d="M213.33,96h1.056v8.52h-1.056V96z"/>
			<path d="M69.932,117.952c0.324,0.192,0.876,0.408,1.404,0.408c0.756,0,1.116-0.372,1.116-0.864c0-0.504-0.3-0.78-1.068-1.068
				c-1.056-0.384-1.548-0.948-1.548-1.644c0-0.936,0.768-1.704,2.004-1.704c0.588,0,1.104,0.156,1.416,0.36l-0.252,0.756
				c-0.228-0.132-0.648-0.336-1.188-0.336c-0.624,0-0.96,0.36-0.96,0.792c0,0.492,0.336,0.708,1.092,0.996
				c0.996,0.372,1.524,0.876,1.524,1.752c0,1.032-0.804,1.752-2.16,1.752c-0.636,0-1.224-0.168-1.632-0.408L69.932,117.952z"/>
			<path d="M77.192,119.152c-1.56,0-2.784-1.152-2.784-2.988c0-1.944,1.284-3.084,2.88-3.084c1.668,0,2.796,1.212,2.796,2.976
				c0,2.16-1.5,3.096-2.88,3.096H77.192z M77.228,118.36c1.008,0,1.764-0.948,1.764-2.268c0-0.984-0.492-2.22-1.74-2.22
				c-1.236,0-1.776,1.152-1.776,2.256c0,1.272,0.72,2.232,1.74,2.232H77.228z"/>
			<path d="M86.276,117.436c0,0.6,0.012,1.128,0.048,1.584h-0.936l-0.06-0.948h-0.024c-0.264,0.468-0.888,1.08-1.92,1.08
				c-0.912,0-2.004-0.516-2.004-2.544v-3.396h1.056v3.204c0,1.104,0.348,1.86,1.296,1.86c0.708,0,1.2-0.492,1.392-0.972
				c0.06-0.144,0.096-0.336,0.096-0.54v-3.552h1.056V117.436z"/>
			<path d="M88.027,114.784c0-0.612-0.012-1.092-0.048-1.572h0.936l0.06,0.948H89c0.288-0.54,0.96-1.08,1.92-1.08
				c0.804,0,2.052,0.48,2.052,2.472v3.468h-1.056v-3.348c0-0.936-0.348-1.728-1.344-1.728c-0.684,0-1.224,0.492-1.416,1.08
				c-0.048,0.132-0.072,0.324-0.072,0.492v3.504h-1.056V114.784z"/>
			<path d="M99.704,110.5v7.02c0,0.516,0.012,1.104,0.048,1.5h-0.948l-0.048-1.008h-0.024c-0.324,0.648-1.02,1.14-1.968,1.14
				c-1.404,0-2.496-1.188-2.496-2.952c-0.012-1.944,1.2-3.12,2.604-3.12c0.9,0,1.5,0.42,1.752,0.876h0.024V110.5H99.704z
				 M98.647,115.576c0-0.144-0.012-0.312-0.048-0.456c-0.156-0.66-0.732-1.212-1.524-1.212c-1.092,0-1.74,0.96-1.74,2.232
				c0,1.188,0.588,2.16,1.716,2.16c0.708,0,1.356-0.48,1.548-1.26c0.036-0.144,0.048-0.288,0.048-0.456V115.576z"/>
			<path d="M105.271,111.82v1.392h1.512v0.804h-1.512v3.132c0,0.72,0.204,1.128,0.792,1.128c0.288,0,0.456-0.024,0.612-0.072
				l0.048,0.804c-0.204,0.072-0.528,0.144-0.936,0.144c-0.492,0-0.888-0.168-1.14-0.444c-0.288-0.324-0.408-0.84-0.408-1.524v-3.168
				h-0.9v-0.804h0.9v-1.068L105.271,111.82z"/>
			<path d="M107.971,110.5h1.056v3.624h0.024c0.168-0.3,0.432-0.576,0.756-0.744c0.312-0.192,0.684-0.3,1.08-0.3
				c0.78,0,2.028,0.48,2.028,2.484v3.456h-1.056v-3.336c0-0.948-0.348-1.728-1.344-1.728c-0.684,0-1.212,0.48-1.416,1.056
				c-0.06,0.144-0.072,0.3-0.072,0.504v3.504h-1.056V110.5z"/>
			<path d="M115.231,116.296c0.024,1.428,0.924,2.016,1.98,2.016c0.756,0,1.224-0.132,1.608-0.288l0.192,0.744
				c-0.372,0.168-1.02,0.372-1.944,0.372c-1.776,0-2.856-1.188-2.856-2.928c0-1.764,1.044-3.144,2.736-3.144
				c1.896,0,2.388,1.668,2.388,2.736c0,0.216-0.012,0.384-0.036,0.504L115.231,116.296z M118.315,115.54
				c0.012-0.66-0.276-1.716-1.452-1.716c-1.08,0-1.536,0.984-1.62,1.716H118.315z"/>
			<path d="M123.043,117.952c0.324,0.192,0.876,0.408,1.404,0.408c0.756,0,1.116-0.372,1.116-0.864c0-0.504-0.3-0.78-1.068-1.068
				c-1.056-0.384-1.548-0.948-1.548-1.644c0-0.936,0.768-1.704,2.004-1.704c0.588,0,1.104,0.156,1.416,0.36l-0.252,0.756
				c-0.228-0.132-0.648-0.336-1.188-0.336c-0.624,0-0.96,0.36-0.96,0.792c0,0.492,0.336,0.708,1.092,0.996
				c0.996,0.372,1.524,0.876,1.524,1.752c0,1.032-0.804,1.752-2.16,1.752c-0.636,0-1.224-0.168-1.632-0.408L123.043,117.952z"/>
			<path d="M132.031,117.628c0,0.504,0.024,0.996,0.084,1.392h-0.948l-0.096-0.732h-0.036c-0.312,0.456-0.948,0.864-1.776,0.864
				c-1.176,0-1.776-0.828-1.776-1.668c0-1.404,1.248-2.172,3.492-2.16v-0.12c0-0.48-0.132-1.356-1.32-1.344
				c-0.552,0-1.116,0.156-1.524,0.432l-0.24-0.708c0.48-0.3,1.188-0.504,1.92-0.504c1.788,0,2.22,1.212,2.22,2.376V117.628z
				 M130.999,116.056c-1.152-0.024-2.46,0.18-2.46,1.308c0,0.696,0.456,1.008,0.984,1.008c0.768,0,1.26-0.48,1.428-0.972
				c0.036-0.108,0.048-0.228,0.048-0.336V116.056z"/>
			<path d="M133.723,114.784c0-0.612-0.024-1.092-0.048-1.572h0.924l0.048,0.936h0.036c0.324-0.552,0.864-1.068,1.836-1.068
				c0.78,0,1.38,0.48,1.632,1.164h0.024c0.18-0.336,0.42-0.576,0.66-0.756c0.348-0.264,0.72-0.408,1.272-0.408
				c0.78,0,1.92,0.504,1.92,2.52v3.42h-1.032v-3.288c0-1.128-0.42-1.788-1.26-1.788c-0.612,0-1.068,0.444-1.26,0.948
				c-0.048,0.156-0.084,0.348-0.084,0.528v3.6h-1.032v-3.48c0-0.936-0.408-1.596-1.212-1.596c-0.648,0-1.14,0.528-1.308,1.056
				c-0.06,0.156-0.084,0.336-0.084,0.516v3.504h-1.032V114.784z"/>
			<path d="M144.331,116.296c0.024,1.428,0.924,2.016,1.98,2.016c0.756,0,1.224-0.132,1.608-0.288l0.192,0.744
				c-0.372,0.168-1.02,0.372-1.944,0.372c-1.776,0-2.856-1.188-2.856-2.928c0-1.764,1.044-3.144,2.736-3.144
				c1.896,0,2.388,1.668,2.388,2.736c0,0.216-0.012,0.384-0.036,0.504L144.331,116.296z M147.415,115.54
				c0.012-0.66-0.276-1.716-1.452-1.716c-1.08,0-1.536,0.984-1.62,1.716H147.415z"/>
			<path d="M150.043,119.152c-0.408,0-0.696-0.324-0.696-0.756s0.3-0.756,0.72-0.756s0.708,0.312,0.708,0.756
				c0,0.432-0.288,0.756-0.72,0.756H150.043z"/>
		</g>
		<g>
			<path d="M185.904,73.304c2.664,0.024,5.184,1.032,5.376,3.264c0.144,1.632-2.016,3.12-4.68,3.12
				c-2.688-0.024-5.184-1.008-5.4-3.24C181.056,74.792,183.24,73.304,185.904,73.304z M186.552,79.136
				c1.152,0,1.896-1.104,1.776-1.992c-0.264-1.752-0.864-3.168-2.448-3.168c-1.152,0-1.824,1.128-1.68,2.016
				C184.464,77.744,184.968,79.136,186.552,79.136z"/>
		</g>
		<g>
			<path d="M386.903,69.304c2.664,0.024,5.184,1.032,5.376,3.264c0.144,1.632-2.016,3.12-4.68,3.12
				c-2.688-0.024-5.185-1.008-5.4-3.24C382.056,70.792,384.239,69.304,386.903,69.304z M387.551,75.136
				c1.152,0,1.896-1.104,1.776-1.992c-0.264-1.752-0.864-3.168-2.448-3.168c-1.151,0-1.823,1.128-1.68,2.016
				C385.463,73.744,385.967,75.136,387.551,75.136z"/>
		</g>
		<g>
			<path d="M373.624,69.617c0,0.216,0,1.536,0,1.536c0.912-0.816,1.416-0.984,2.424-1.008c1.2-0.024,1.968,1.176,1.992,2.136
				c0.024,0.504-0.12,1.032-0.312,1.44c-0.217,0.528-0.793,0.936-1.177,1.32C376.12,75.473,373,77.609,373,77.657V63.473h0.624
				C373.624,63.473,373.648,66.449,373.624,69.617z M373.888,71.993c-0.312,0.6-0.264,1.632-0.264,2.376v2.064
				c0,0.024,0.864-0.72,1.344-1.176c0.433-0.408,0.769-0.864,0.937-1.584c0.191-0.72,0.12-1.488-0.336-1.992
				C375.256,71.321,374.392,71.033,373.888,71.993z"/>
		</g>
		<g>
			<path d="M287.552,101.613c-0.372,0.192-1.152,0.384-2.136,0.384c-2.28,0-3.984-1.44-3.984-4.104c0-2.544,1.716-4.248,4.224-4.248
				c0.996,0,1.644,0.216,1.92,0.36l-0.264,0.852c-0.384-0.192-0.948-0.336-1.62-0.336c-1.896,0-3.156,1.212-3.156,3.336
				c0,1.992,1.14,3.252,3.096,3.252c0.648,0,1.296-0.132,1.716-0.336L287.552,101.613z"/>
			<path d="M296.396,93.345v7.02c0,0.516,0.012,1.104,0.048,1.5h-0.948l-0.048-1.008h-0.024c-0.324,0.648-1.02,1.14-1.968,1.14
				c-1.404,0-2.496-1.188-2.496-2.952c-0.012-1.944,1.2-3.12,2.604-3.12c0.9,0,1.5,0.42,1.752,0.876h0.024v-3.456H296.396z
				 M295.34,98.421c0-0.144-0.012-0.312-0.048-0.456c-0.156-0.66-0.732-1.212-1.524-1.212c-1.092,0-1.74,0.96-1.74,2.232
				c0,1.188,0.588,2.16,1.716,2.16c0.708,0,1.356-0.48,1.548-1.26c0.036-0.144,0.048-0.288,0.048-0.456V98.421z"/>
			<path d="M300.512,101.997c-1.56,0-2.784-1.152-2.784-2.988c0-1.944,1.284-3.084,2.88-3.084c1.668,0,2.796,1.212,2.796,2.976
				c0,2.16-1.5,3.096-2.88,3.096H300.512z M300.548,101.205c1.008,0,1.764-0.948,1.764-2.268c0-0.984-0.492-2.22-1.74-2.22
				c-1.235,0-1.775,1.152-1.775,2.256c0,1.272,0.72,2.232,1.74,2.232H300.548z"/>
			<path d="M309.596,100.281c0,0.6,0.012,1.128,0.048,1.584h-0.936l-0.061-0.948h-0.023c-0.265,0.468-0.889,1.08-1.92,1.08
				c-0.912,0-2.005-0.516-2.005-2.544v-3.396h1.057v3.204c0,1.104,0.348,1.86,1.296,1.86c0.708,0,1.2-0.492,1.392-0.972
				c0.061-0.144,0.097-0.336,0.097-0.54v-3.552h1.056V100.281z"/>
			<path d="M311.348,93.345h1.056v3.636h0.024c0.372-0.648,1.044-1.056,1.979-1.056c1.44,0,2.448,1.2,2.448,2.952
				c0,2.088-1.32,3.12-2.616,3.12c-0.84,0-1.5-0.324-1.943-1.092h-0.024l-0.06,0.96H311.3c0.036-0.396,0.048-0.984,0.048-1.5V93.345
				z M312.403,99.537c0,0.132,0.013,0.264,0.036,0.384c0.204,0.732,0.828,1.236,1.584,1.236c1.116,0,1.764-0.9,1.764-2.232
				c0-1.176-0.6-2.172-1.728-2.172c-0.72,0-1.392,0.504-1.596,1.296c-0.036,0.132-0.061,0.276-0.061,0.444V99.537z"/>
			<path d="M318.176,93.345h1.056v8.52h-1.056V93.345z"/>
			<path d="M321.583,99.141c0.024,1.428,0.924,2.016,1.98,2.016c0.756,0,1.224-0.132,1.607-0.288l0.192,0.744
				c-0.372,0.168-1.02,0.372-1.944,0.372c-1.775,0-2.855-1.188-2.855-2.928c0-1.764,1.044-3.144,2.735-3.144
				c1.896,0,2.389,1.668,2.389,2.736c0,0.216-0.012,0.384-0.036,0.504L321.583,99.141z M324.667,98.385
				c0.013-0.66-0.275-1.716-1.452-1.716c-1.079,0-1.535,0.984-1.619,1.716H324.667z"/>
			<path d="M329.635,101.865v-5.004h-0.804v-0.804h0.804v-0.276c0-0.816,0.192-1.56,0.685-2.028c0.396-0.384,0.924-0.54,1.403-0.54
				c0.385,0,0.696,0.084,0.9,0.168l-0.132,0.816c-0.168-0.072-0.372-0.132-0.685-0.132c-0.888,0-1.128,0.792-1.128,1.68v0.312h1.404
				v0.804h-1.392v5.004H329.635z"/>
			<path d="M333.043,93.345h1.056v8.52h-1.056V93.345z"/>
			<path d="M339.943,100.473c0,0.504,0.023,0.996,0.084,1.392h-0.948l-0.096-0.732h-0.036c-0.313,0.456-0.948,0.864-1.776,0.864
				c-1.176,0-1.776-0.828-1.776-1.668c0-1.404,1.248-2.172,3.492-2.16v-0.12c0-0.48-0.132-1.356-1.319-1.344
				c-0.553,0-1.116,0.156-1.524,0.432l-0.24-0.708c0.48-0.3,1.188-0.504,1.92-0.504c1.788,0,2.221,1.212,2.221,2.376V100.473z
				 M338.911,98.901c-1.152-0.024-2.46,0.18-2.46,1.308c0,0.696,0.456,1.008,0.983,1.008c0.769,0,1.261-0.48,1.429-0.972
				c0.036-0.108,0.048-0.228,0.048-0.336V98.901z"/>
			<path d="M342.859,94.665v1.392h1.512v0.804h-1.512v3.132c0,0.72,0.203,1.128,0.792,1.128c0.287,0,0.455-0.024,0.611-0.072
				l0.048,0.804c-0.204,0.072-0.527,0.144-0.936,0.144c-0.492,0-0.888-0.168-1.14-0.444c-0.288-0.324-0.408-0.84-0.408-1.524v-3.168
				h-0.9v-0.804h0.9v-1.068L342.859,94.665z"/>
			<path d="M352.194,100.473c0,0.504,0.024,0.996,0.084,1.392h-0.947l-0.097-0.732h-0.036c-0.312,0.456-0.947,0.864-1.775,0.864
				c-1.176,0-1.776-0.828-1.776-1.668c0-1.404,1.248-2.172,3.492-2.16v-0.12c0-0.48-0.132-1.356-1.32-1.344
				c-0.552,0-1.115,0.156-1.523,0.432l-0.24-0.708c0.48-0.3,1.188-0.504,1.92-0.504c1.788,0,2.22,1.212,2.22,2.376V100.473z
				 M351.163,98.901c-1.152-0.024-2.46,0.18-2.46,1.308c0,0.696,0.455,1.008,0.983,1.008c0.769,0,1.26-0.48,1.428-0.972
				c0.036-0.108,0.049-0.228,0.049-0.336V98.901z"/>
			<path d="M353.887,97.629c0-0.612-0.012-1.092-0.048-1.572h0.936l0.061,0.948h0.023c0.288-0.54,0.96-1.08,1.92-1.08
				c0.805,0,2.053,0.48,2.053,2.472v3.468h-1.057v-3.348c0-0.936-0.348-1.728-1.344-1.728c-0.684,0-1.224,0.492-1.416,1.08
				c-0.048,0.132-0.072,0.324-0.072,0.492v3.504h-1.056V97.629z"/>
			<path d="M365.563,93.345v7.02c0,0.516,0.012,1.104,0.048,1.5h-0.948l-0.048-1.008h-0.023c-0.324,0.648-1.021,1.14-1.969,1.14
				c-1.403,0-2.495-1.188-2.495-2.952c-0.013-1.944,1.199-3.12,2.604-3.12c0.9,0,1.5,0.42,1.752,0.876h0.024v-3.456H365.563z
				 M364.507,98.421c0-0.144-0.013-0.312-0.048-0.456c-0.156-0.66-0.732-1.212-1.524-1.212c-1.092,0-1.74,0.96-1.74,2.232
				c0,1.188,0.588,2.16,1.716,2.16c0.708,0,1.356-0.48,1.549-1.26c0.035-0.144,0.048-0.288,0.048-0.456V98.421z"/>
			<path d="M369.895,93.897c0.456-0.108,1.188-0.18,1.908-0.18c1.044,0,1.716,0.18,2.208,0.588c0.42,0.312,0.684,0.792,0.684,1.428
				c0,0.792-0.528,1.476-1.368,1.776v0.036c0.769,0.18,1.668,0.816,1.668,2.016c0,0.696-0.275,1.224-0.695,1.62
				c-0.553,0.516-1.465,0.756-2.784,0.756c-0.721,0-1.272-0.048-1.62-0.096V93.897z M370.938,97.209h0.948
				c1.092,0,1.739-0.588,1.739-1.368c0-0.936-0.708-1.32-1.764-1.32c-0.479,0-0.756,0.036-0.924,0.072V97.209z M370.938,101.073
				c0.216,0.036,0.504,0.048,0.876,0.048c1.08,0,2.076-0.396,2.076-1.572c0-1.092-0.948-1.56-2.088-1.56h-0.864V101.073z"/>
			<path d="M379.002,101.865v-5.004h-0.804v-0.804h0.804v-0.276c0-0.816,0.192-1.56,0.685-2.028c0.396-0.384,0.924-0.54,1.403-0.54
				c0.385,0,0.696,0.084,0.9,0.168l-0.132,0.816c-0.168-0.072-0.372-0.132-0.685-0.132c-0.888,0-1.128,0.792-1.128,1.68v0.312h1.404
				v0.804h-1.392v5.004H379.002z"/>
			<path d="M382.41,93.345h1.056v8.52h-1.056V93.345z"/>
			<path d="M389.31,100.473c0,0.504,0.024,0.996,0.084,1.392h-0.947l-0.097-0.732h-0.035c-0.313,0.456-0.948,0.864-1.776,0.864
				c-1.176,0-1.776-0.828-1.776-1.668c0-1.404,1.248-2.172,3.492-2.16v-0.12c0-0.48-0.132-1.356-1.32-1.344
				c-0.552,0-1.115,0.156-1.523,0.432l-0.24-0.708c0.48-0.3,1.188-0.504,1.92-0.504c1.788,0,2.22,1.212,2.22,2.376V100.473z
				 M388.278,98.901c-1.152-0.024-2.46,0.18-2.46,1.308c0,0.696,0.456,1.008,0.983,1.008c0.769,0,1.26-0.48,1.429-0.972
				c0.035-0.108,0.048-0.228,0.048-0.336V98.901z"/>
			<path d="M392.226,94.665v1.392h1.513v0.804h-1.513v3.132c0,0.72,0.204,1.128,0.792,1.128c0.288,0,0.456-0.024,0.612-0.072
				l0.048,0.804c-0.204,0.072-0.527,0.144-0.936,0.144c-0.492,0-0.889-0.168-1.141-0.444c-0.288-0.324-0.407-0.84-0.407-1.524
				v-3.168h-0.9v-0.804h0.9v-1.068L392.226,94.665z"/>
			<path d="M281.732,115.297c0.324,0.192,0.876,0.408,1.404,0.408c0.756,0,1.116-0.372,1.116-0.864c0-0.504-0.3-0.78-1.068-1.068
				c-1.056-0.384-1.548-0.948-1.548-1.644c0-0.936,0.768-1.704,2.004-1.704c0.588,0,1.104,0.156,1.416,0.36l-0.252,0.756
				c-0.228-0.132-0.648-0.336-1.188-0.336c-0.624,0-0.96,0.36-0.96,0.792c0,0.492,0.336,0.708,1.092,0.996
				c0.996,0.372,1.524,0.876,1.524,1.752c0,1.032-0.804,1.752-2.16,1.752c-0.636,0-1.224-0.168-1.632-0.408L281.732,115.297z"/>
			<path d="M288.992,116.497c-1.56,0-2.784-1.152-2.784-2.988c0-1.944,1.284-3.084,2.88-3.084c1.668,0,2.796,1.212,2.796,2.976
				c0,2.16-1.5,3.096-2.88,3.096H288.992z M289.028,115.705c1.008,0,1.764-0.948,1.764-2.268c0-0.984-0.492-2.22-1.74-2.22
				c-1.236,0-1.776,1.152-1.776,2.256c0,1.272,0.72,2.232,1.74,2.232H289.028z"/>
			<path d="M298.076,114.781c0,0.6,0.012,1.128,0.048,1.584h-0.936l-0.06-0.948h-0.024c-0.264,0.468-0.888,1.08-1.92,1.08
				c-0.912,0-2.004-0.516-2.004-2.544v-3.396h1.056v3.204c0,1.104,0.348,1.86,1.296,1.86c0.708,0,1.2-0.492,1.392-0.972
				c0.06-0.144,0.096-0.336,0.096-0.54v-3.552h1.056V114.781z"/>
			<path d="M299.828,112.129c0-0.612-0.013-1.092-0.048-1.572h0.936l0.06,0.948h0.024c0.288-0.54,0.96-1.08,1.92-1.08
				c0.804,0,2.052,0.48,2.052,2.472v3.468h-1.056v-3.348c0-0.936-0.348-1.728-1.344-1.728c-0.685,0-1.225,0.492-1.416,1.08
				c-0.048,0.132-0.072,0.324-0.072,0.492v3.504h-1.056V112.129z"/>
			<path d="M311.504,107.845v7.02c0,0.516,0.012,1.104,0.048,1.5h-0.948l-0.048-1.008h-0.023c-0.324,0.648-1.021,1.14-1.969,1.14
				c-1.403,0-2.496-1.188-2.496-2.952c-0.012-1.944,1.2-3.12,2.604-3.12c0.9,0,1.5,0.42,1.752,0.876h0.024v-3.456H311.504z
				 M310.448,112.921c0-0.144-0.013-0.312-0.049-0.456c-0.155-0.66-0.731-1.212-1.523-1.212c-1.092,0-1.74,0.96-1.74,2.232
				c0,1.188,0.588,2.16,1.716,2.16c0.708,0,1.356-0.48,1.548-1.26c0.036-0.144,0.049-0.288,0.049-0.456V112.921z"/>
			<path d="M317.071,109.165v1.392h1.513v0.804h-1.513v3.132c0,0.72,0.204,1.128,0.792,1.128c0.288,0,0.456-0.024,0.612-0.072
				l0.048,0.804c-0.204,0.072-0.527,0.144-0.936,0.144c-0.492,0-0.889-0.168-1.141-0.444c-0.288-0.324-0.407-0.84-0.407-1.524
				v-3.168h-0.9v-0.804h0.9v-1.068L317.071,109.165z"/>
			<path d="M319.771,107.845h1.056v3.624h0.024c0.168-0.3,0.432-0.576,0.756-0.744c0.313-0.192,0.685-0.3,1.08-0.3
				c0.78,0,2.028,0.48,2.028,2.484v3.456h-1.057v-3.336c0-0.948-0.348-1.728-1.344-1.728c-0.684,0-1.212,0.48-1.416,1.056
				c-0.06,0.144-0.072,0.3-0.072,0.504v3.504h-1.056V107.845z"/>
			<path d="M327.031,113.641c0.024,1.428,0.924,2.016,1.98,2.016c0.756,0,1.224-0.132,1.607-0.288l0.192,0.744
				c-0.372,0.168-1.021,0.372-1.944,0.372c-1.775,0-2.855-1.188-2.855-2.928c0-1.764,1.044-3.144,2.735-3.144
				c1.896,0,2.389,1.668,2.389,2.736c0,0.216-0.013,0.384-0.036,0.504L327.031,113.641z M330.115,112.885
				c0.012-0.66-0.275-1.716-1.452-1.716c-1.08,0-1.536,0.984-1.62,1.716H330.115z"/>
			<path d="M334.843,115.297c0.324,0.192,0.876,0.408,1.404,0.408c0.756,0,1.116-0.372,1.116-0.864c0-0.504-0.3-0.78-1.068-1.068
				c-1.056-0.384-1.548-0.948-1.548-1.644c0-0.936,0.769-1.704,2.004-1.704c0.588,0,1.104,0.156,1.416,0.36l-0.252,0.756
				c-0.228-0.132-0.647-0.336-1.188-0.336c-0.624,0-0.96,0.36-0.96,0.792c0,0.492,0.336,0.708,1.092,0.996
				c0.996,0.372,1.523,0.876,1.523,1.752c0,1.032-0.804,1.752-2.159,1.752c-0.637,0-1.225-0.168-1.633-0.408L334.843,115.297z"/>
			<path d="M343.831,114.973c0,0.504,0.024,0.996,0.084,1.392h-0.948l-0.096-0.732h-0.036c-0.312,0.456-0.948,0.864-1.775,0.864
				c-1.177,0-1.776-0.828-1.776-1.668c0-1.404,1.248-2.172,3.492-2.16v-0.12c0-0.48-0.132-1.356-1.32-1.344
				c-0.552,0-1.116,0.156-1.523,0.432l-0.24-0.708c0.479-0.3,1.188-0.504,1.92-0.504c1.788,0,2.22,1.212,2.22,2.376V114.973z
				 M342.799,113.401c-1.151-0.024-2.46,0.18-2.46,1.308c0,0.696,0.456,1.008,0.984,1.008c0.768,0,1.26-0.48,1.428-0.972
				c0.036-0.108,0.048-0.228,0.048-0.336V113.401z"/>
			<path d="M345.523,112.129c0-0.612-0.024-1.092-0.049-1.572h0.925l0.048,0.936h0.036c0.323-0.552,0.863-1.068,1.836-1.068
				c0.78,0,1.38,0.48,1.632,1.164h0.024c0.18-0.336,0.42-0.576,0.659-0.756c0.349-0.264,0.721-0.408,1.272-0.408
				c0.78,0,1.92,0.504,1.92,2.52v3.42h-1.032v-3.288c0-1.128-0.42-1.788-1.26-1.788c-0.612,0-1.068,0.444-1.26,0.948
				c-0.048,0.156-0.084,0.348-0.084,0.528v3.6h-1.032v-3.48c0-0.936-0.408-1.596-1.212-1.596c-0.648,0-1.141,0.528-1.309,1.056
				c-0.06,0.156-0.084,0.336-0.084,0.516v3.504h-1.031V112.129z"/>
			<path d="M356.131,113.641c0.024,1.428,0.924,2.016,1.98,2.016c0.756,0,1.224-0.132,1.607-0.288l0.192,0.744
				c-0.372,0.168-1.021,0.372-1.944,0.372c-1.775,0-2.855-1.188-2.855-2.928c0-1.764,1.044-3.144,2.735-3.144
				c1.896,0,2.389,1.668,2.389,2.736c0,0.216-0.013,0.384-0.036,0.504L356.131,113.641z M359.215,112.885
				c0.013-0.66-0.275-1.716-1.452-1.716c-1.08,0-1.535,0.984-1.619,1.716H359.215z"/>
			<path d="M361.843,116.497c-0.407,0-0.695-0.324-0.695-0.756s0.3-0.756,0.72-0.756s0.708,0.312,0.708,0.756
				c0,0.432-0.288,0.756-0.72,0.756H361.843z"/>
		</g>
		<path fill="none" stroke="#000000" stroke-width="3" d="M199.521,134.865v161.333"/>
		<path fill="none" stroke="#000000" stroke-width="3" d="M199,295.307h141.521"/>
		<g>
			<path fill="#0A50A1" d="M278.521,242.241c1.741,1.065,3.489,2.47,5.245,4.213c1.756,1.744,3.245,3.731,4.468,5.961
				c1.078,1.965,1.881,3.974,2.408,6.027c0.609,2.384,0.921,4.92,0.935,7.609l-1.151,0.631c-0.218-2.115-0.411-3.604-0.581-4.467
				c-0.259-1.34-0.624-2.687-1.094-4.041c-0.589-1.686-1.312-3.309-2.168-4.87c-2.178-3.972-5.249-7.45-9.213-10.433
				L278.521,242.241z"/>
		</g>
		<g>
			<path stroke="#000000" d="M63.836,77.571h-1.127v-1.275h1.127V77.571z"/>
			<path stroke="#000000" d="M64.588,82.22h-1.878v-1.435h1.878V82.22z"/>
			<path stroke="#000000" d="M69.569,77.678h-1.795v-1.276h1.795V77.678z"/>
			<path stroke="#000000" d="M69,82.14h-1.795v-1.275H69V82.14z"/>
			<g>
				<g>
					<path fill="none" d="M64.775,77.04"/>
					<path d="M64.771,77.09c0.064,0,0.074-0.1,0.01-0.1C64.716,76.99,64.706,77.09,64.771,77.09z"/>
				</g>
			</g>
			<path fill="none" stroke="#000000" d="M63.836,76.296L69,80.865"/>
			<path fill="none" stroke="#000000" d="M68.67,77.466l-5.716,2.894"/>
		</g>
		<path fill="none" stroke="#000000" stroke-width="3" d="M301.121,228.836v65.998"/>
		<path fill="none" stroke="#000000" stroke-width="3" d="M321.177,228.836v65.105"/>
		<path fill="none" stroke="#000000" stroke-width="3" d="M341.232,134.297v161.43"/>
		<path fill="none" stroke="#000000" stroke-width="3" d="M221.16,228.944v66.891"/>
		<path fill="none" stroke="#000000" stroke-width="3" d="M241.487,229.836l-0.252,63.918"/>
		<path fill="none" stroke="#000000" stroke-width="3" d="M260.399,228.944v66.891"/>
		<path fill="none" stroke="#000000" stroke-width="3" d="M280.456,135.297l0.871,160.538"/>
		<path stroke="#000000" stroke-width="3" d="M307.225,227.051h-12.207v-91.863h12.207V227.051z"/>
		<path stroke="#000000" stroke-width="3" d="M327.281,227.051h-12.208v-91.863h12.208V227.051z"/>
		<path stroke="#000000" stroke-width="3" d="M226.392,228.051h-12.208v-91.863h12.208V228.051z"/>
		<path stroke="#000000" stroke-width="3" d="M247.319,228.051h-12.208v-91.863h12.208V228.051z"/>
		<g>
			<path d="M207.125,269.008h4.259v0.876h-3.227v2.688h2.98v0.864h-2.98v3.66h-1.032V269.008z"/>
			<path d="M233.803,276.736c-0.458,0.18-1.373,0.444-2.44,0.444c-1.197,0-2.183-0.312-2.957-1.068
				c-0.68-0.672-1.103-1.752-1.103-3.012c0-2.412,1.631-4.176,4.282-4.176c0.915,0,1.643,0.204,1.983,0.372l-0.258,0.852
				c-0.422-0.204-0.95-0.348-1.748-0.348c-1.924,0-3.18,1.224-3.18,3.252c0,2.052,1.197,3.264,3.051,3.264
				c0.668,0,1.126-0.096,1.361-0.216v-2.412h-1.596v-0.84h2.604V276.736z"/>
			<path d="M249.066,274.552l-0.821,2.544h-1.056l2.687-8.088h1.232l2.698,8.088h-1.091l-0.845-2.544H249.066z M251.659,273.736
				l-0.786-2.328c-0.164-0.528-0.281-1.008-0.399-1.476h-0.035c-0.105,0.468-0.234,0.972-0.387,1.464l-0.774,2.34H251.659z"/>
			<path d="M267.403,269.128c0.446-0.108,1.162-0.18,1.866-0.18c1.021,0,1.678,0.18,2.159,0.588
				c0.411,0.312,0.668,0.792,0.668,1.428c0,0.792-0.516,1.476-1.337,1.776v0.036c0.751,0.18,1.631,0.816,1.631,2.016
				c0,0.696-0.27,1.224-0.681,1.62c-0.54,0.516-1.431,0.756-2.722,0.756c-0.704,0-1.244-0.048-1.584-0.096V269.128z M268.424,272.44
				h0.927c1.067,0,1.701-0.588,1.701-1.368c0-0.936-0.692-1.32-1.725-1.32c-0.469,0-0.739,0.036-0.903,0.072V272.44z
				 M268.424,276.304c0.211,0.036,0.493,0.048,0.856,0.048c1.056,0,2.029-0.396,2.029-1.572c0-1.092-0.927-1.56-2.041-1.56h-0.845
				V276.304z"/>
			<path d="M294.199,276.844c-0.364,0.192-1.126,0.384-2.088,0.384c-2.229,0-3.895-1.44-3.895-4.104c0-2.544,1.678-4.248,4.13-4.248
				c0.974,0,1.607,0.216,1.877,0.36l-0.258,0.852c-0.375-0.192-0.927-0.336-1.583-0.336c-1.854,0-3.086,1.212-3.086,3.336
				c0,1.992,1.115,3.252,3.027,3.252c0.634,0,1.267-0.132,1.678-0.336L294.199,276.844z"/>
			<path d="M307.913,269.116c0.634-0.096,1.373-0.168,2.183-0.168c1.467,0,2.511,0.336,3.203,0.996
				c0.716,0.66,1.126,1.608,1.126,2.916c0,1.32-0.41,2.4-1.138,3.144c-0.751,0.756-1.972,1.164-3.508,1.164
				c-0.739,0-1.338-0.024-1.866-0.096V269.116z M308.946,276.28c0.258,0.048,0.633,0.048,1.032,0.048
				c2.182,0.012,3.367-1.248,3.367-3.432c0.012-1.932-1.044-3.12-3.203-3.12c-0.528,0-0.927,0.048-1.196,0.108V276.28z"/>
			<path d="M332.257,273.304h-3.062v2.916h3.426v0.876h-4.458v-8.088h4.282v0.876h-3.25v2.556h3.062V273.304z"/>
		</g>
		<path fill="#FFFFFF" stroke="#FFFFFF" stroke-width="3" d="M269,219.164h-38v-18.598h38V219.164z"/>
		<g>
			<path fill="#FF0000" d="M239.922,214.505c-0.458,0.18-1.373,0.444-2.44,0.444c-1.197,0-2.183-0.312-2.957-1.068
				c-0.681-0.672-1.103-1.752-1.103-3.012c0-2.412,1.631-4.176,4.282-4.176c0.915,0,1.643,0.204,1.983,0.372l-0.258,0.852
				c-0.422-0.204-0.95-0.348-1.748-0.348c-1.924,0-3.179,1.224-3.179,3.252c0,2.052,1.196,3.264,3.05,3.264
				c0.668,0,1.126-0.096,1.361-0.216v-2.412h-1.596v-0.84h2.604V214.505z"/>
		</g>
		<g>
			<path fill="#FF0000" d="M243.032,204.121v-3.912h0.696v3.672l2.352-0.768v-3.504h0.696v3.288l0.936-0.312v2.496l-0.936,0.312
				v3.552l0.936-0.288v2.472l-0.936,0.312v3.912h-0.696v-3.696l-2.352,0.768v3.552h-0.696v-3.312L242,213.001v-2.496l1.032-0.336
				v-3.576L242,206.929v-2.472L243.032,204.121z M243.728,206.377v3.576l2.352-0.768v-3.576L243.728,206.377z"/>
		</g>
		<g>
			<path fill="#0A50A1" d="M270.406,245.613c-0.364,0.192-1.126,0.384-2.088,0.384c-2.229,0-3.895-1.44-3.895-4.104
				c0-2.544,1.678-4.248,4.13-4.248c0.974,0,1.607,0.216,1.877,0.36l-0.258,0.852c-0.375-0.192-0.927-0.336-1.584-0.336
				c-1.854,0-3.085,1.212-3.085,3.336c0,1.992,1.114,3.252,3.027,3.252c0.633,0,1.267-0.132,1.678-0.336L270.406,245.613z"/>
		</g>
		<g>
			<path fill="#0A50A1" d="M260.406,215.613c-0.364,0.192-1.126,0.384-2.088,0.384c-2.229,0-3.895-1.44-3.895-4.104
				c0-2.544,1.678-4.248,4.13-4.248c0.974,0,1.607,0.216,1.877,0.36l-0.258,0.852c-0.375-0.192-0.927-0.336-1.584-0.336
				c-1.854,0-3.085,1.212-3.085,3.336c0,1.992,1.114,3.252,3.027,3.252c0.633,0,1.267-0.132,1.678-0.336L260.406,215.613z"/>
		</g>
		<g>
			<g>
				<path fill="#0A50A1" d="M261.624,205.617c0,0.216,0,1.536,0,1.536c0.912-0.816,1.416-0.984,2.424-1.008
					c1.2-0.024,1.968,1.176,1.992,2.136c0.024,0.504-0.12,1.032-0.312,1.44c-0.216,0.528-0.792,0.936-1.176,1.32
					c-0.432,0.432-3.552,2.568-3.552,2.616v-14.184h0.624C261.624,199.473,261.648,202.449,261.624,205.617z M261.888,207.993
					c-0.312,0.6-0.264,1.632-0.264,2.376v2.064c0,0.024,0.864-0.72,1.344-1.176c0.432-0.408,0.768-0.864,0.936-1.584
					c0.192-0.72,0.12-1.488-0.336-1.992C263.256,207.321,262.392,207.033,261.888,207.993z"/>
			</g>
			<g>
				<path fill="#0A50A1" d="M264.624,204.617c0,0.216,0,1.536,0,1.536c0.912-0.816,1.416-0.984,2.424-1.008
					c1.2-0.024,1.968,1.176,1.992,2.136c0.024,0.504-0.12,1.032-0.312,1.44c-0.216,0.528-0.792,0.936-1.176,1.32
					c-0.432,0.432-3.552,2.568-3.552,2.616v-14.184h0.624C264.624,198.473,264.648,201.449,264.624,204.617z M264.888,206.993
					c-0.312,0.6-0.264,1.632-0.264,2.376v2.064c0,0.024,0.864-0.72,1.344-1.176c0.432-0.408,0.768-0.864,0.936-1.584
					c0.192-0.72,0.12-1.488-0.336-1.992C266.256,206.321,265.392,206.033,264.888,206.993z"/>
			</g>
		</g>
		<g>
			<path fill="#0A50A1" d="M263.624,166.617c0,0.216,0,1.536,0,1.536c0.912-0.816,1.416-0.984,2.424-1.008
				c1.2-0.024,1.968,1.176,1.992,2.136c0.024,0.504-0.12,1.032-0.312,1.44c-0.216,0.528-0.792,0.936-1.176,1.32
				c-0.432,0.432-3.552,2.568-3.552,2.616v-14.184h0.624C263.624,160.473,263.648,163.449,263.624,166.617z M263.888,168.993
				c-0.312,0.6-0.264,1.632-0.264,2.376v2.064c0,0.024,0.864-0.72,1.344-1.176c0.432-0.408,0.768-0.864,0.936-1.584
				c0.192-0.72,0.12-1.488-0.336-1.992C265.256,168.321,264.392,168.033,263.888,168.993z"/>
		</g>
		<g>
			<path fill="#0A50A1" d="M255.892,168.897c0.446-0.108,1.162-0.18,1.866-0.18c1.021,0,1.677,0.18,2.159,0.588
				c0.411,0.312,0.668,0.792,0.668,1.428c0,0.792-0.516,1.476-1.337,1.776v0.036c0.751,0.18,1.631,0.816,1.631,2.016
				c0,0.696-0.27,1.224-0.681,1.62c-0.54,0.516-1.431,0.756-2.722,0.756c-0.704,0-1.244-0.048-1.584-0.096V168.897z
				 M256.913,172.209h0.927c1.067,0,1.701-0.588,1.701-1.368c0-0.936-0.692-1.32-1.725-1.32c-0.469,0-0.739,0.036-0.903,0.072
				V172.209z M256.913,176.073c0.211,0.036,0.493,0.048,0.856,0.048c1.056,0,2.029-0.396,2.029-1.572c0-1.092-0.927-1.56-2.041-1.56
				h-0.845V176.073z"/>
		</g>
		<g>
			<path stroke="#FF0000" d="M251.882,236.077h-1.127v-1.275h1.127V236.077z"/>
			<path stroke="#FF0000" d="M252.634,240.726h-1.878v-1.435h1.878V240.726z"/>
			<path stroke="#FF0000" d="M257.615,236.184h-1.795v-1.276h1.795V236.184z"/>
			<path stroke="#FF0000" d="M257.046,240.646h-1.795v-1.275h1.795V240.646z"/>
			<g>
				<g>
					<path fill="none" d="M252.821,235.546"/>
					<path fill="#FF0000" d="M252.816,235.596c0.064,0,0.074-0.1,0.01-0.1C252.762,235.496,252.752,235.596,252.816,235.596z"/>
				</g>
			</g>
			<path fill="none" stroke="#FF0000" d="M251.882,234.802l5.164,4.569"/>
			<path fill="none" stroke="#FF0000" d="M256.716,235.972L251,238.865"/>
		</g>
		<g>
			<path fill="#FF0000" d="M249.922,245.505c-0.458,0.18-1.373,0.444-2.44,0.444c-1.197,0-2.183-0.312-2.957-1.068
				c-0.681-0.672-1.103-1.752-1.103-3.012c0-2.412,1.631-4.176,4.282-4.176c0.915,0,1.643,0.204,1.983,0.372l-0.258,0.852
				c-0.422-0.204-0.95-0.348-1.748-0.348c-1.924,0-3.179,1.224-3.179,3.252c0,2.052,1.196,3.264,3.05,3.264
				c0.668,0,1.126-0.096,1.361-0.216v-2.412h-1.596v-0.84h2.604V245.505z"/>
		</g>
		<g>
			<path fill="#DE2109" d="M225.271,263.858c-0.54-3.3-0.767-7.066-0.683-11.298c0.084-4.233,0.632-8.51,1.644-12.831
				c0.891-3.807,2.065-7.381,3.525-10.719c1.698-3.872,3.801-7.632,6.31-11.282l1.583,0.371c-1.781,3.093-2.999,5.315-3.655,6.663
				c-1.023,2.091-1.959,4.302-2.811,6.634c-1.056,2.909-1.938,5.875-2.646,8.899c-1.801,7.696-2.363,15.674-1.686,23.933
				L225.271,263.858z"/>
		</g>
		<g>
			<path fill="#DE2109" d="M245.978,215.3c1.239,0.774,2.41,1.78,3.514,3.014c1.104,1.235,1.929,2.626,2.477,4.175
				c0.483,1.365,0.724,2.75,0.723,4.156c-0.004,1.633-0.293,3.361-0.866,5.183l-1.12,0.396c0.278-1.44,0.439-2.455,0.484-3.045
				c0.073-0.916,0.059-1.839-0.043-2.771c-0.131-1.16-0.388-2.282-0.771-3.365c-0.976-2.758-2.814-5.207-5.516-7.347L245.978,215.3z
				"/>
		</g>
		<g>
			<path fill="#0A50A1" d="M266.646,214.322c1.092,0.362,2.182,0.913,3.27,1.652s2,1.652,2.738,2.736
				c0.65,0.956,1.123,1.973,1.419,3.051c0.341,1.253,0.49,2.632,0.445,4.137l-0.75,0.51c-0.097-1.156-0.191-1.963-0.283-2.424
				c-0.139-0.715-0.346-1.42-0.62-2.116c-0.343-0.865-0.773-1.676-1.289-2.435c-1.313-1.932-3.207-3.465-5.68-4.602L266.646,214.322
				z"/>
		</g>
		<g>
			<g>
				<path d="M269.624,65.617c0,0.216,0,1.536,0,1.536c0.912-0.816,1.416-0.984,2.424-1.008c1.2-0.024,1.968,1.176,1.992,2.136
					c0.024,0.504-0.12,1.032-0.312,1.44c-0.216,0.528-0.792,0.936-1.176,1.32C272.12,71.473,269,73.609,269,73.657V59.473h0.624
					C269.624,59.473,269.648,62.449,269.624,65.617z M269.888,67.993c-0.312,0.6-0.264,1.632-0.264,2.376v2.064
					c0,0.024,0.864-0.72,1.344-1.176c0.432-0.408,0.768-0.864,0.936-1.584c0.192-0.72,0.12-1.488-0.336-1.992
					C271.256,67.321,270.392,67.033,269.888,67.993z"/>
			</g>
			<g>
				<path d="M272.624,64.617c0,0.216,0,1.536,0,1.536c0.912-0.816,1.416-0.984,2.424-1.008c1.2-0.024,1.968,1.176,1.992,2.136
					c0.024,0.504-0.12,1.032-0.312,1.44c-0.216,0.528-0.792,0.936-1.176,1.32C275.12,70.473,272,72.609,272,72.657V58.473h0.624
					C272.624,58.473,272.648,61.449,272.624,64.617z M272.888,66.993c-0.312,0.6-0.264,1.632-0.264,2.376v2.064
					c0,0.024,0.864-0.72,1.344-1.176c0.432-0.408,0.768-0.864,0.936-1.584c0.192-0.72,0.12-1.488-0.336-1.992
					C274.256,66.321,273.392,66.033,272.888,66.993z"/>
			</g>
		</g>
		<g>
			<path d="M306.248,32.369c0,0.432,0,3.072,0,3.072c1.824-1.632,2.832-1.968,4.848-2.016c2.4-0.048,3.937,2.352,3.984,4.272
				c0.048,1.008-0.24,2.064-0.624,2.88c-0.432,1.056-1.584,1.872-2.352,2.64C311.24,44.081,305,48.354,305,48.449V20.081h1.248
				C306.248,20.081,306.296,26.033,306.248,32.369z M306.776,37.121c-0.624,1.2-0.528,3.264-0.528,4.752v4.128
				c0,0.048,1.728-1.44,2.688-2.352c0.864-0.816,1.536-1.728,1.872-3.168c0.385-1.44,0.24-2.976-0.672-3.984
				C309.512,35.777,307.784,35.201,306.776,37.121z"/>
		</g>
		<g>
			<path d="M311.248,29.369c0,0.432,0,3.072,0,3.072c1.824-1.632,2.832-1.968,4.848-2.016c2.4-0.048,3.937,2.352,3.984,4.272
				c0.048,1.008-0.24,2.064-0.624,2.88c-0.432,1.056-1.584,1.872-2.352,2.64C316.24,41.081,310,45.354,310,45.449V17.081h1.248
				C311.248,17.081,311.296,23.033,311.248,29.369z M311.776,34.121c-0.624,1.2-0.528,3.264-0.528,4.752v4.128
				c0,0.048,1.728-1.44,2.688-2.352c0.864-0.816,1.536-1.728,1.872-3.168c0.385-1.44,0.24-2.976-0.672-3.984
				C314.512,32.777,312.784,32.201,311.776,34.121z"/>
		</g>
		<g>
			<g>
				<g>
					<path fill="none" d="M95.551,26.451"/>
					<path d="M95.546,26.501c0.064,0,0.074-0.1,0.01-0.1C95.492,26.401,95.481,26.501,95.546,26.501z"/>
				</g>
			</g>
			<path fill="none" stroke="#000000" stroke-width="2" d="M97.547,31.539l9.322,5.888"/>
			<path fill="none" stroke="#000000" stroke-width="2" d="M106.715,31.012l-9.045,6.954"/>
			<path stroke="#000000" d="M111.875,30.227c0,1.243-0.504,2.25-1.125,2.25h-4.499c-0.622,0-1.125-1.007-1.125-2.25
				c0-1.243,0.504-2.25,1.125-2.25h4.499C111.371,27.977,111.875,28.984,111.875,30.227z"/>
			<path stroke="#000000" d="M110.875,39.227c0,1.243-0.504,2.25-1.125,2.25h-4.499c-0.622,0-1.125-1.007-1.125-2.25
				c0-1.243,0.504-2.25,1.125-2.25h4.499C110.371,36.977,110.875,37.984,110.875,39.227z"/>
			<path stroke="#000000" d="M98.963,30.727c0,1.243-0.433,2.25-0.967,2.25h-3.866c-0.534,0-0.967-1.007-0.967-2.25
				c0-1.243,0.433-2.25,0.967-2.25h3.866C98.53,28.477,98.963,29.484,98.963,30.727z"/>
			<path stroke="#000000" d="M99.125,39.115c0,1.243-0.504,2.25-1.125,2.25h-4.499c-0.622,0-1.125-1.007-1.125-2.25
				c0-1.243,0.504-2.25,1.125-2.25H98C98.622,36.865,99.125,37.873,99.125,39.115z"/>
		</g>
	</g>
</svg>
