<?xml version="1.0" encoding="utf-8"?>
<!-- Generator: Adobe Illustrator 10.0, SVG Export Plug-In . SVG Version: 3.0.0 Build 76)  -->
<!DOCTYPE svg PUBLIC "-//W3C//DTD SVG 1.0//EN"    "http://www.w3.org/TR/2001/REC-SVG-20010904/DTD/svg10.dtd" [
	<!ENTITY ns_flows "http://ns.adobe.com/Flows/1.0/">
	<!ENTITY ns_extend "http://ns.adobe.com/Extensibility/1.0/">
	<!ENTITY ns_ai "http://ns.adobe.com/AdobeIllustrator/10.0/">
	<!ENTITY ns_svg "http://www.w3.org/2000/svg">
	<!ENTITY ns_xlink "http://www.w3.org/1999/xlink">
]>
<svg  xmlns:x="&ns_extend;" xmlns:i="&ns_ai;" xmlns:graph="&ns_graphs;"
	 xmlns="&ns_svg;" xmlns:xlink="&ns_xlink;" xmlns:a="http://ns.adobe.com/AdobeSVGViewerExtensions/3.0/" width="443" height="114"
	 viewBox="0.2 -0.288 443 114" overflow="visible" enable-background="new 0.2 -0.288 443 114" xml:space="preserve">
	<g id="Layer_1_2_">
		<g>
			<path d="M280.42,21.168l-0.84,2.544h-1.08l2.748-8.088h1.26l2.76,8.088h-1.116l-0.864-2.544H280.42z M283.072,20.353
				l-0.804-2.328c-0.168-0.528-0.288-1.008-0.408-1.476h-0.036c-0.108,0.468-0.24,0.972-0.396,1.464l-0.792,2.34H283.072z"/>
			<path d="M288.82,22.645c0.324,0.192,0.876,0.408,1.404,0.408c0.756,0,1.116-0.372,1.116-0.864c0-0.504-0.3-0.78-1.068-1.068
				c-1.056-0.384-1.548-0.948-1.548-1.644c0-0.936,0.768-1.704,2.004-1.704c0.588,0,1.104,0.156,1.416,0.36l-0.252,0.756
				c-0.228-0.132-0.648-0.336-1.188-0.336c-0.624,0-0.96,0.36-0.96,0.792c0,0.492,0.336,0.708,1.092,0.996
				c0.996,0.372,1.524,0.876,1.524,1.752c0,1.032-0.804,1.752-2.16,1.752c-0.636,0-1.224-0.168-1.632-0.408L288.82,22.645z"/>
			<path d="M294.315,20.988c0.024,1.428,0.924,2.016,1.98,2.016c0.756,0,1.224-0.132,1.608-0.288l0.192,0.744
				c-0.372,0.168-1.02,0.372-1.944,0.372c-1.776,0-2.856-1.188-2.856-2.928c0-1.764,1.044-3.144,2.736-3.144
				c1.896,0,2.388,1.668,2.388,2.736c0,0.216-0.012,0.384-0.036,0.504L294.315,20.988z M297.399,20.232
				c0.012-0.66-0.276-1.716-1.452-1.716c-1.08,0-1.536,0.984-1.62,1.716H297.399z"/>
			<path d="M299.739,19.716c0-0.684-0.012-1.272-0.048-1.812h0.924l0.048,1.14h0.036c0.264-0.78,0.912-1.272,1.62-1.272
				c0.108,0,0.192,0.012,0.288,0.036v0.984c-0.12-0.012-0.228-0.024-0.372-0.024c-0.744,0-1.272,0.564-1.416,1.344
				c-0.024,0.156-0.036,0.324-0.036,0.504v3.096h-1.056L299.739,19.716z"/>
			<path d="M304.204,16.836c-0.396,0-0.66-0.312-0.66-0.684s0.276-0.672,0.684-0.672c0.408,0,0.672,0.3,0.672,0.672
				s-0.264,0.684-0.684,0.684H304.204z M303.699,23.712v-5.808h1.056v5.808H303.699z"/>
			<path d="M307.107,20.988c0.024,1.428,0.924,2.016,1.98,2.016c0.756,0,1.224-0.132,1.608-0.288l0.192,0.744
				c-0.372,0.168-1.02,0.372-1.944,0.372c-1.776,0-2.856-1.188-2.856-2.928c0-1.764,1.044-3.144,2.736-3.144
				c1.896,0,2.388,1.668,2.388,2.736c0,0.216-0.012,0.384-0.036,0.504L307.107,20.988z M310.191,20.232
				c0.012-0.66-0.276-1.716-1.452-1.716c-1.08,0-1.536,0.984-1.62,1.716H310.191z"/>
			<path d="M312.375,22.645c0.324,0.192,0.876,0.408,1.404,0.408c0.756,0,1.116-0.372,1.116-0.864c0-0.504-0.3-0.78-1.068-1.068
				c-1.056-0.384-1.548-0.948-1.548-1.644c0-0.936,0.768-1.704,2.004-1.704c0.588,0,1.104,0.156,1.416,0.36l-0.252,0.756
				c-0.228-0.132-0.648-0.336-1.188-0.336c-0.624,0-0.96,0.36-0.96,0.792c0,0.492,0.336,0.708,1.092,0.996
				c0.996,0.372,1.524,0.876,1.524,1.752c0,1.032-0.804,1.752-2.16,1.752c-0.636,0-1.224-0.168-1.632-0.408L312.375,22.645z"/>
			<path d="M322.179,23.844c-1.56,0-2.784-1.152-2.784-2.988c0-1.944,1.284-3.084,2.88-3.084c1.668,0,2.796,1.212,2.796,2.976
				c0,2.16-1.5,3.096-2.88,3.096H322.179z M322.215,23.052c1.008,0,1.764-0.948,1.764-2.268c0-0.984-0.492-2.22-1.74-2.22
				c-1.236,0-1.776,1.152-1.776,2.256c0,1.272,0.72,2.232,1.74,2.232H322.215z"/>
			<path d="M326.499,23.712v-5.004h-0.804v-0.804h0.804v-0.276c0-0.816,0.192-1.56,0.684-2.028c0.396-0.384,0.924-0.54,1.404-0.54
				c0.384,0,0.696,0.084,0.9,0.168l-0.132,0.816c-0.168-0.072-0.372-0.132-0.684-0.132c-0.888,0-1.128,0.792-1.128,1.68v0.312h1.404
				v0.804h-1.392v5.004H326.499z"/>
			<path d="M332.451,19.8c0-0.744-0.012-1.344-0.048-1.896h0.948l0.06,0.996h0.024c0.42-0.72,1.116-1.128,2.052-1.128
				c1.416,0,2.472,1.188,2.472,2.952c0,2.088-1.284,3.12-2.64,3.12c-0.78,0-1.44-0.336-1.788-0.912h-0.024v3.156h-1.056V19.8z
				 M333.507,21.348c0,0.144,0.012,0.3,0.048,0.432c0.18,0.732,0.828,1.236,1.572,1.236c1.116,0,1.764-0.912,1.764-2.244
				c0-1.164-0.6-2.16-1.716-2.16c-0.72,0-1.404,0.504-1.608,1.296c-0.024,0.144-0.06,0.3-0.06,0.432V21.348z"/>
			<path d="M344.139,22.128c0,0.6,0.012,1.128,0.048,1.584h-0.936l-0.06-0.948h-0.024c-0.264,0.468-0.888,1.08-1.92,1.08
				c-0.912,0-2.004-0.516-2.004-2.544v-3.396h1.056v3.204c0,1.104,0.348,1.86,1.296,1.86c0.708,0,1.2-0.492,1.392-0.972
				c0.06-0.144,0.096-0.336,0.096-0.54v-3.552h1.056V22.128z"/>
			<path d="M345.902,19.716c0-0.684-0.012-1.272-0.048-1.812h0.924l0.048,1.14h0.036c0.264-0.78,0.912-1.272,1.62-1.272
				c0.108,0,0.192,0.012,0.288,0.036v0.984c-0.12-0.012-0.228-0.024-0.372-0.024c-0.744,0-1.272,0.564-1.416,1.344
				c-0.024,0.156-0.036,0.324-0.036,0.504v3.096h-1.056L345.902,19.716z"/>
			<path d="M350.342,20.988c0.024,1.428,0.924,2.016,1.98,2.016c0.756,0,1.224-0.132,1.608-0.288l0.192,0.744
				c-0.372,0.168-1.02,0.372-1.944,0.372c-1.776,0-2.856-1.188-2.856-2.928c0-1.764,1.044-3.144,2.736-3.144
				c1.896,0,2.388,1.668,2.388,2.736c0,0.216-0.012,0.384-0.036,0.504L350.342,20.988z M353.427,20.232
				c0.012-0.66-0.276-1.716-1.452-1.716c-1.08,0-1.536,0.984-1.62,1.716H353.427z"/>
			<path d="M358.298,19.8c0-0.744-0.012-1.344-0.048-1.896h0.948l0.06,0.996h0.024c0.42-0.72,1.116-1.128,2.052-1.128
				c1.416,0,2.472,1.188,2.472,2.952c0,2.088-1.284,3.12-2.64,3.12c-0.78,0-1.44-0.336-1.788-0.912h-0.024v3.156h-1.056V19.8z
				 M359.354,21.348c0,0.144,0.012,0.3,0.048,0.432c0.18,0.732,0.828,1.236,1.572,1.236c1.116,0,1.764-0.912,1.764-2.244
				c0-1.164-0.6-2.16-1.716-2.16c-0.72,0-1.404,0.504-1.608,1.296c-0.024,0.144-0.06,0.3-0.06,0.432V21.348z"/>
			<path d="M365.738,20.988c0.024,1.428,0.924,2.016,1.98,2.016c0.756,0,1.224-0.132,1.608-0.288l0.192,0.744
				c-0.372,0.168-1.02,0.372-1.944,0.372c-1.776,0-2.856-1.188-2.856-2.928c0-1.764,1.044-3.144,2.736-3.144
				c1.896,0,2.388,1.668,2.388,2.736c0,0.216-0.012,0.384-0.036,0.504L365.738,20.988z M368.822,20.232
				c0.012-0.66-0.276-1.716-1.452-1.716c-1.08,0-1.536,0.984-1.62,1.716H368.822z"/>
			<path d="M371.162,19.716c0-0.684-0.012-1.272-0.048-1.812h0.924l0.048,1.14h0.036c0.264-0.78,0.912-1.272,1.62-1.272
				c0.108,0,0.192,0.012,0.288,0.036v0.984c-0.12-0.012-0.228-0.024-0.372-0.024c-0.744,0-1.272,0.564-1.416,1.344
				c-0.024,0.156-0.036,0.324-0.036,0.504v3.096h-1.056L371.162,19.716z"/>
			<path d="M375.53,23.712v-5.004h-0.804v-0.804h0.804v-0.276c0-0.816,0.192-1.56,0.684-2.028c0.396-0.384,0.924-0.54,1.404-0.54
				c0.384,0,0.696,0.084,0.9,0.168l-0.132,0.816c-0.168-0.072-0.372-0.132-0.684-0.132c-0.888,0-1.128,0.792-1.128,1.68v0.312h1.404
				v0.804h-1.392v5.004H375.53z"/>
			<path d="M379.394,20.988c0.024,1.428,0.924,2.016,1.979,2.016c0.756,0,1.225-0.132,1.608-0.288l0.192,0.744
				c-0.372,0.168-1.021,0.372-1.944,0.372c-1.776,0-2.856-1.188-2.856-2.928c0-1.764,1.044-3.144,2.736-3.144
				c1.896,0,2.388,1.668,2.388,2.736c0,0.216-0.012,0.384-0.036,0.504L379.394,20.988z M382.478,20.232
				c0.012-0.66-0.276-1.716-1.452-1.716c-1.08,0-1.536,0.984-1.62,1.716H382.478z"/>
			<path d="M388.946,23.508c-0.276,0.132-0.888,0.336-1.668,0.336c-1.752,0-2.893-1.188-2.893-2.976c0-1.788,1.225-3.096,3.12-3.096
				c0.624,0,1.177,0.156,1.465,0.312l-0.24,0.804c-0.252-0.132-0.648-0.276-1.225-0.276c-1.332,0-2.052,0.996-2.052,2.208
				c0,1.344,0.864,2.172,2.017,2.172c0.6,0,0.995-0.144,1.296-0.276L388.946,23.508z"/>
			<path d="M391.61,16.512v1.392h1.512v0.804h-1.512v3.132c0,0.72,0.204,1.128,0.792,1.128c0.288,0,0.456-0.024,0.611-0.072
				l0.049,0.804c-0.204,0.072-0.528,0.144-0.937,0.144c-0.492,0-0.888-0.168-1.14-0.444c-0.288-0.324-0.408-0.84-0.408-1.524v-3.168
				h-0.9v-0.804h0.9v-1.068L391.61,16.512z"/>
			<path d="M396.95,23.712v-5.004h-0.805v-0.804h0.805v-0.276c0-0.816,0.191-1.56,0.684-2.028c0.396-0.384,0.924-0.54,1.404-0.54
				c0.384,0,0.695,0.084,0.899,0.168l-0.132,0.816c-0.168-0.072-0.372-0.132-0.684-0.132c-0.889,0-1.128,0.792-1.128,1.68v0.312
				h1.403v0.804h-1.392v5.004H396.95z"/>
			<path d="M400.861,16.836c-0.396,0-0.659-0.312-0.659-0.684s0.275-0.672,0.684-0.672s0.672,0.3,0.672,0.672
				s-0.264,0.684-0.684,0.684H400.861z M400.357,23.712v-5.808h1.057v5.808H400.357z"/>
			<path d="M403.261,23.712v-5.004h-0.804v-0.804h0.804v-0.276c0-0.816,0.192-1.56,0.684-2.028c0.396-0.384,0.925-0.54,1.404-0.54
				c0.384,0,0.696,0.084,0.9,0.168l-0.132,0.816c-0.169-0.072-0.372-0.132-0.685-0.132c-0.888,0-1.128,0.792-1.128,1.68v0.312h1.404
				v0.804h-1.393v5.004H403.261z"/>
			<path d="M408.073,16.512v1.392h1.512v0.804h-1.512v3.132c0,0.72,0.204,1.128,0.792,1.128c0.288,0,0.456-0.024,0.612-0.072
				l0.048,0.804c-0.204,0.072-0.528,0.144-0.936,0.144c-0.492,0-0.889-0.168-1.141-0.444c-0.288-0.324-0.408-0.84-0.408-1.524
				v-3.168h-0.899v-0.804h0.899v-1.068L408.073,16.512z"/>
			<path d="M410.773,15.192h1.056v3.624h0.024c0.168-0.3,0.432-0.576,0.756-0.744c0.312-0.192,0.684-0.3,1.08-0.3
				c0.78,0,2.028,0.48,2.028,2.484v3.456h-1.057v-3.336c0-0.948-0.348-1.728-1.344-1.728c-0.684,0-1.212,0.48-1.416,1.056
				c-0.06,0.144-0.072,0.3-0.072,0.504v3.504h-1.056V15.192z"/>
			<path d="M417.289,22.645c0.324,0.192,0.876,0.408,1.404,0.408c0.756,0,1.116-0.372,1.116-0.864c0-0.504-0.301-0.78-1.068-1.068
				c-1.056-0.384-1.548-0.948-1.548-1.644c0-0.936,0.768-1.704,2.004-1.704c0.588,0,1.104,0.156,1.416,0.36l-0.252,0.756
				c-0.229-0.132-0.648-0.336-1.188-0.336c-0.624,0-0.96,0.36-0.96,0.792c0,0.492,0.336,0.708,1.093,0.996
				c0.996,0.372,1.523,0.876,1.523,1.752c0,1.032-0.804,1.752-2.16,1.752c-0.636,0-1.224-0.168-1.632-0.408L417.289,22.645z"/>
			<path d="M422.533,23.844c-0.408,0-0.696-0.324-0.696-0.756s0.301-0.756,0.721-0.756s0.708,0.312,0.708,0.756
				c0,0.432-0.288,0.756-0.721,0.756H422.533z"/>
			<path d="M425.016,23.844c-0.407,0-0.695-0.324-0.695-0.756s0.3-0.756,0.72-0.756s0.708,0.312,0.708,0.756
				c0,0.432-0.288,0.756-0.72,0.756H425.016z"/>
			<path d="M427.5,23.844c-0.408,0-0.696-0.324-0.696-0.756s0.3-0.756,0.721-0.756c0.42,0,0.708,0.312,0.708,0.756
				c0,0.432-0.288,0.756-0.721,0.756H427.5z"/>
		</g>
		<g>
			<path d="M278.163,51.905l0.78,2.94c0.156,0.648,0.312,1.26,0.42,1.86h0.036c0.132-0.588,0.324-1.212,0.516-1.848l0.948-2.952
				h0.888l0.9,2.904c0.216,0.684,0.384,1.308,0.516,1.896h0.036c0.096-0.588,0.252-1.2,0.444-1.884l0.828-2.916h1.044l-1.872,5.808
				h-0.96l-0.888-2.772c-0.204-0.66-0.372-1.236-0.516-1.92h-0.024c-0.144,0.696-0.324,1.308-0.528,1.932l-0.936,2.76h-0.96
				l-1.752-5.808H278.163z"/>
			<path d="M286.575,49.193h1.056v3.624h0.024c0.168-0.3,0.432-0.576,0.756-0.744c0.312-0.192,0.684-0.3,1.08-0.3
				c0.78,0,2.028,0.48,2.028,2.484v3.456h-1.056v-3.336c0-0.948-0.348-1.728-1.344-1.728c-0.684,0-1.212,0.48-1.416,1.056
				c-0.06,0.144-0.072,0.3-0.072,0.504v3.504h-1.056V49.193z"/>
			<path d="M293.834,54.989c0.024,1.428,0.924,2.016,1.98,2.016c0.756,0,1.224-0.132,1.608-0.288l0.192,0.744
				c-0.372,0.168-1.02,0.372-1.944,0.372c-1.776,0-2.856-1.188-2.856-2.928c0-1.764,1.044-3.144,2.736-3.144
				c1.896,0,2.388,1.668,2.388,2.736c0,0.216-0.012,0.384-0.036,0.504L293.834,54.989z M296.918,54.233
				c0.012-0.66-0.276-1.716-1.452-1.716c-1.08,0-1.536,0.984-1.62,1.716H296.918z"/>
			<path d="M299.247,53.477c0-0.612-0.012-1.092-0.048-1.572h0.936l0.06,0.948h0.024c0.288-0.54,0.96-1.08,1.92-1.08
				c0.804,0,2.052,0.48,2.052,2.472v3.468h-1.056v-3.348c0-0.936-0.348-1.728-1.344-1.728c-0.684,0-1.224,0.492-1.416,1.08
				c-0.048,0.132-0.072,0.324-0.072,0.492v3.504h-1.056V53.477z"/>
			<path d="M309.722,50.513v1.392h1.512v0.804h-1.512v3.132c0,0.72,0.204,1.128,0.792,1.128c0.288,0,0.456-0.024,0.612-0.072
				l0.048,0.804c-0.204,0.072-0.528,0.144-0.936,0.144c-0.492,0-0.888-0.168-1.14-0.444c-0.288-0.324-0.408-0.84-0.408-1.524v-3.168
				h-0.9v-0.804h0.9v-1.068L309.722,50.513z"/>
			<path d="M312.422,49.193h1.056v3.624h0.024c0.168-0.3,0.432-0.576,0.756-0.744c0.312-0.192,0.684-0.3,1.08-0.3
				c0.78,0,2.028,0.48,2.028,2.484v3.456h-1.056v-3.336c0-0.948-0.348-1.728-1.344-1.728c-0.684,0-1.212,0.48-1.416,1.056
				c-0.06,0.144-0.072,0.3-0.072,0.504v3.504h-1.056V49.193z"/>
			<path d="M319.682,54.989c0.024,1.428,0.924,2.016,1.98,2.016c0.756,0,1.224-0.132,1.608-0.288l0.192,0.744
				c-0.372,0.168-1.02,0.372-1.944,0.372c-1.776,0-2.856-1.188-2.856-2.928c0-1.764,1.044-3.144,2.736-3.144
				c1.896,0,2.388,1.668,2.388,2.736c0,0.216-0.012,0.384-0.036,0.504L319.682,54.989z M322.766,54.233
				c0.012-0.66-0.276-1.716-1.452-1.716c-1.08,0-1.536,0.984-1.62,1.716H322.766z"/>
			<path d="M327.638,53.477c0-0.612-0.012-1.092-0.048-1.572h0.936l0.06,0.948h0.024c0.288-0.54,0.96-1.08,1.92-1.08
				c0.804,0,2.052,0.48,2.052,2.472v3.468h-1.056v-3.348c0-0.936-0.348-1.728-1.344-1.728c-0.684,0-1.224,0.492-1.416,1.08
				c-0.048,0.132-0.072,0.324-0.072,0.492v3.504h-1.056V53.477z"/>
			<path d="M336.662,57.845c-1.56,0-2.784-1.152-2.784-2.988c0-1.944,1.284-3.084,2.88-3.084c1.668,0,2.796,1.212,2.796,2.976
				c0,2.16-1.5,3.096-2.88,3.096H336.662z M336.698,57.053c1.008,0,1.764-0.948,1.764-2.268c0-0.984-0.492-2.22-1.74-2.22
				c-1.236,0-1.776,1.152-1.776,2.256c0,1.272,0.72,2.232,1.74,2.232H336.698z"/>
			<path d="M342.158,50.513v1.392h1.512v0.804h-1.512v3.132c0,0.72,0.204,1.128,0.792,1.128c0.288,0,0.456-0.024,0.612-0.072
				l0.048,0.804c-0.204,0.072-0.528,0.144-0.936,0.144c-0.492,0-0.888-0.168-1.14-0.444c-0.288-0.324-0.408-0.84-0.408-1.524v-3.168
				h-0.9v-0.804h0.9v-1.068L342.158,50.513z"/>
			<path d="M345.386,54.989c0.024,1.428,0.924,2.016,1.98,2.016c0.756,0,1.224-0.132,1.608-0.288l0.192,0.744
				c-0.372,0.168-1.02,0.372-1.944,0.372c-1.776,0-2.856-1.188-2.856-2.928c0-1.764,1.044-3.144,2.736-3.144
				c1.896,0,2.388,1.668,2.388,2.736c0,0.216-0.012,0.384-0.036,0.504L345.386,54.989z M348.47,54.233
				c0.012-0.66-0.276-1.716-1.452-1.716c-1.08,0-1.536,0.984-1.62,1.716H348.47z"/>
			<path d="M350.654,56.645c0.324,0.192,0.876,0.408,1.404,0.408c0.756,0,1.116-0.372,1.116-0.864c0-0.504-0.3-0.78-1.068-1.068
				c-1.056-0.384-1.548-0.948-1.548-1.644c0-0.936,0.768-1.704,2.004-1.704c0.588,0,1.104,0.156,1.416,0.36l-0.252,0.756
				c-0.228-0.132-0.648-0.336-1.188-0.336c-0.624,0-0.96,0.36-0.96,0.792c0,0.492,0.336,0.708,1.092,0.996
				c0.996,0.372,1.524,0.876,1.524,1.752c0,1.032-0.804,1.752-2.16,1.752c-0.636,0-1.224-0.168-1.632-0.408L350.654,56.645z"/>
			<path d="M362.186,56.321c0,0.504,0.024,0.996,0.084,1.392h-0.948l-0.096-0.732h-0.036c-0.312,0.456-0.948,0.864-1.776,0.864
				c-1.176,0-1.776-0.828-1.776-1.668c0-1.404,1.248-2.172,3.492-2.16v-0.12c0-0.48-0.132-1.356-1.32-1.344
				c-0.552,0-1.116,0.156-1.524,0.432l-0.24-0.708c0.48-0.3,1.188-0.504,1.92-0.504c1.788,0,2.22,1.212,2.22,2.376V56.321z
				 M361.153,54.749c-1.152-0.024-2.46,0.18-2.46,1.308c0,0.696,0.456,1.008,0.984,1.008c0.768,0,1.26-0.48,1.428-0.972
				c0.036-0.108,0.048-0.228,0.048-0.336V54.749z"/>
			<path d="M363.889,53.717c0-0.684-0.012-1.272-0.048-1.812h0.924l0.048,1.14h0.036c0.264-0.78,0.912-1.272,1.62-1.272
				c0.108,0,0.192,0.012,0.288,0.036v0.984c-0.12-0.012-0.228-0.024-0.372-0.024c-0.744,0-1.272,0.564-1.416,1.344
				c-0.024,0.156-0.036,0.324-0.036,0.504v3.096h-1.056L363.889,53.717z"/>
			<path d="M368.329,54.989c0.024,1.428,0.924,2.016,1.98,2.016c0.756,0,1.224-0.132,1.608-0.288l0.192,0.744
				c-0.372,0.168-1.02,0.372-1.944,0.372c-1.776,0-2.856-1.188-2.856-2.928c0-1.764,1.044-3.144,2.736-3.144
				c1.896,0,2.388,1.668,2.388,2.736c0,0.216-0.012,0.384-0.036,0.504L368.329,54.989z M371.414,54.233
				c0.012-0.66-0.276-1.716-1.452-1.716c-1.08,0-1.536,0.984-1.62,1.716H371.414z"/>
			<path d="M376.297,53.717c0-0.684-0.012-1.272-0.048-1.812h0.924l0.048,1.14h0.036c0.264-0.78,0.912-1.272,1.62-1.272
				c0.108,0,0.192,0.012,0.288,0.036v0.984c-0.12-0.012-0.228-0.024-0.372-0.024c-0.744,0-1.272,0.564-1.416,1.344
				c-0.024,0.156-0.036,0.324-0.036,0.504v3.096h-1.056L376.297,53.717z"/>
			<path d="M380.737,54.989c0.024,1.428,0.924,2.016,1.98,2.016c0.756,0,1.224-0.132,1.607-0.288l0.192,0.744
				c-0.372,0.168-1.02,0.372-1.944,0.372c-1.775,0-2.855-1.188-2.855-2.928c0-1.764,1.044-3.144,2.736-3.144
				c1.896,0,2.388,1.668,2.388,2.736c0,0.216-0.012,0.384-0.036,0.504L380.737,54.989z M383.821,54.233
				c0.013-0.66-0.275-1.716-1.452-1.716c-1.079,0-1.535,0.984-1.619,1.716H383.821z"/>
			<path d="M390.241,56.321c0,0.504,0.024,0.996,0.084,1.392h-0.947l-0.097-0.732h-0.036c-0.312,0.456-0.947,0.864-1.775,0.864
				c-1.176,0-1.776-0.828-1.776-1.668c0-1.404,1.248-2.172,3.492-2.16v-0.12c0-0.48-0.132-1.356-1.32-1.344
				c-0.552,0-1.116,0.156-1.523,0.432l-0.24-0.708c0.479-0.3,1.188-0.504,1.92-0.504c1.788,0,2.22,1.212,2.22,2.376V56.321z
				 M389.209,54.749c-1.152-0.024-2.461,0.18-2.461,1.308c0,0.696,0.456,1.008,0.984,1.008c0.769,0,1.26-0.48,1.428-0.972
				c0.036-0.108,0.049-0.228,0.049-0.336V54.749z"/>
			<path d="M391.945,53.717c0-0.684-0.012-1.272-0.048-1.812h0.924l0.048,1.14h0.036c0.265-0.78,0.912-1.272,1.62-1.272
				c0.108,0,0.192,0.012,0.288,0.036v0.984c-0.12-0.012-0.229-0.024-0.372-0.024c-0.744,0-1.271,0.564-1.416,1.344
				c-0.024,0.156-0.036,0.324-0.036,0.504v3.096h-1.056L391.945,53.717z"/>
			<path d="M395.917,53.717c0-0.684-0.012-1.272-0.048-1.812h0.924l0.049,1.14h0.035c0.265-0.78,0.912-1.272,1.62-1.272
				c0.108,0,0.192,0.012,0.288,0.036v0.984c-0.12-0.012-0.228-0.024-0.372-0.024c-0.744,0-1.271,0.564-1.416,1.344
				c-0.023,0.156-0.036,0.324-0.036,0.504v3.096h-1.056L395.917,53.717z"/>
			<path d="M403.849,56.321c0,0.504,0.023,0.996,0.084,1.392h-0.948l-0.096-0.732h-0.036c-0.313,0.456-0.948,0.864-1.776,0.864
				c-1.176,0-1.775-0.828-1.775-1.668c0-1.404,1.248-2.172,3.491-2.16v-0.12c0-0.48-0.132-1.356-1.319-1.344
				c-0.553,0-1.116,0.156-1.524,0.432l-0.24-0.708c0.48-0.3,1.188-0.504,1.92-0.504c1.788,0,2.221,1.212,2.221,2.376V56.321z
				 M402.817,54.749c-1.152-0.024-2.46,0.18-2.46,1.308c0,0.696,0.456,1.008,0.984,1.008c0.768,0,1.26-0.48,1.428-0.972
				c0.036-0.108,0.048-0.228,0.048-0.336V54.749z"/>
			<path d="M405.541,53.477c0-0.612-0.012-1.092-0.048-1.572h0.937l0.06,0.948h0.024c0.288-0.54,0.96-1.08,1.92-1.08
				c0.804,0,2.052,0.48,2.052,2.472v3.468h-1.056v-3.348c0-0.936-0.349-1.728-1.345-1.728c-0.684,0-1.224,0.492-1.416,1.08
				c-0.048,0.132-0.071,0.324-0.071,0.492v3.504h-1.057V53.477z"/>
			<path d="M417.168,56.861c0,1.344-0.275,2.148-0.828,2.664c-0.575,0.516-1.392,0.696-2.124,0.696c-0.695,0-1.464-0.168-1.932-0.48
				l0.264-0.816c0.385,0.252,0.984,0.468,1.704,0.468c1.08,0,1.872-0.564,1.872-2.04v-0.636h-0.023
				c-0.313,0.54-0.948,0.972-1.849,0.972c-1.439,0-2.472-1.224-2.472-2.844c0-1.968,1.284-3.072,2.628-3.072
				c1.008,0,1.548,0.516,1.813,0.996h0.023l0.036-0.864h0.936c-0.035,0.408-0.048,0.876-0.048,1.584V56.861z M416.113,54.185
				c0-0.168-0.012-0.324-0.06-0.468c-0.192-0.624-0.696-1.128-1.477-1.128c-1.008,0-1.728,0.852-1.728,2.208
				c0,1.128,0.588,2.088,1.716,2.088c0.66,0,1.248-0.408,1.464-1.092c0.06-0.168,0.084-0.372,0.084-0.564V54.185z"/>
			<path d="M419.508,54.989c0.024,1.428,0.924,2.016,1.98,2.016c0.756,0,1.224-0.132,1.607-0.288l0.192,0.744
				c-0.372,0.168-1.02,0.372-1.944,0.372c-1.775,0-2.855-1.188-2.855-2.928c0-1.764,1.044-3.144,2.736-3.144
				c1.896,0,2.388,1.668,2.388,2.736c0,0.216-0.012,0.384-0.036,0.504L419.508,54.989z M422.592,54.233
				c0.013-0.66-0.275-1.716-1.452-1.716c-1.079,0-1.535,0.984-1.619,1.716H422.592z"/>
			<path d="M429.936,49.193v7.02c0,0.516,0.013,1.104,0.049,1.5h-0.948l-0.048-1.008h-0.024c-0.324,0.648-1.02,1.14-1.968,1.14
				c-1.404,0-2.496-1.188-2.496-2.952c-0.012-1.944,1.2-3.12,2.604-3.12c0.899,0,1.5,0.42,1.752,0.876h0.023v-3.456H429.936z
				 M428.88,54.269c0-0.144-0.012-0.312-0.048-0.456c-0.156-0.66-0.732-1.212-1.524-1.212c-1.092,0-1.739,0.96-1.739,2.232
				c0,1.188,0.588,2.16,1.716,2.16c0.708,0,1.355-0.48,1.548-1.26c0.036-0.144,0.048-0.288,0.048-0.456V54.269z"/>
			<path d="M435.504,50.513v1.392h1.512v0.804h-1.512v3.132c0,0.72,0.204,1.128,0.792,1.128c0.288,0,0.456-0.024,0.612-0.072
				l0.048,0.804c-0.204,0.072-0.528,0.144-0.937,0.144c-0.491,0-0.888-0.168-1.14-0.444c-0.288-0.324-0.408-0.84-0.408-1.524v-3.168
				h-0.899v-0.804h0.899v-1.068L435.504,50.513z"/>
			<path d="M440.497,57.845c-1.561,0-2.784-1.152-2.784-2.988c0-1.944,1.284-3.084,2.88-3.084c1.668,0,2.796,1.212,2.796,2.976
				c0,2.16-1.5,3.096-2.88,3.096H440.497z M440.533,57.053c1.008,0,1.764-0.948,1.764-2.268c0-0.984-0.492-2.22-1.74-2.22
				c-1.236,0-1.775,1.152-1.775,2.256c0,1.272,0.72,2.232,1.739,2.232H440.533z"/>
			<path d="M277.743,63.693h1.056v3.636h0.024c0.372-0.648,1.044-1.056,1.98-1.056c1.44,0,2.448,1.2,2.448,2.952
				c0,2.088-1.32,3.12-2.616,3.12c-0.84,0-1.5-0.324-1.944-1.092h-0.024l-0.06,0.96h-0.912c0.036-0.396,0.048-0.984,0.048-1.5
				V63.693z M278.799,69.885c0,0.132,0.012,0.264,0.036,0.384c0.204,0.732,0.828,1.236,1.584,1.236c1.116,0,1.764-0.9,1.764-2.232
				c0-1.176-0.6-2.172-1.728-2.172c-0.72,0-1.392,0.504-1.596,1.296c-0.036,0.132-0.06,0.276-0.06,0.444V69.885z"/>
			<path d="M285.183,69.489c0.024,1.428,0.924,2.016,1.98,2.016c0.756,0,1.224-0.132,1.608-0.288l0.192,0.744
				c-0.372,0.168-1.02,0.372-1.944,0.372c-1.776,0-2.856-1.188-2.856-2.928c0-1.764,1.044-3.144,2.736-3.144
				c1.896,0,2.388,1.668,2.388,2.736c0,0.216-0.012,0.384-0.036,0.504L285.183,69.489z M288.267,68.733
				c0.012-0.66-0.276-1.716-1.452-1.716c-1.08,0-1.536,0.984-1.62,1.716H288.267z"/>
			<path d="M293.642,65.337c-0.396,0-0.66-0.312-0.66-0.684s0.276-0.672,0.684-0.672c0.408,0,0.672,0.3,0.672,0.672
				s-0.264,0.684-0.684,0.684H293.642z M293.138,72.213v-5.808h1.056v5.808H293.138z"/>
			<path d="M295.946,67.977c0-0.612-0.012-1.092-0.048-1.572h0.936l0.06,0.948h0.024c0.288-0.54,0.96-1.08,1.92-1.08
				c0.804,0,2.052,0.48,2.052,2.472v3.468h-1.056v-3.348c0-0.936-0.348-1.728-1.344-1.728c-0.684,0-1.224,0.492-1.416,1.08
				c-0.048,0.132-0.072,0.324-0.072,0.492v3.504h-1.056V67.977z"/>
			<path d="M306.422,65.013v1.392h1.512v0.804h-1.512v3.132c0,0.72,0.204,1.128,0.792,1.128c0.288,0,0.456-0.024,0.612-0.072
				l0.048,0.804c-0.204,0.072-0.528,0.144-0.936,0.144c-0.492,0-0.888-0.168-1.14-0.444c-0.288-0.324-0.408-0.84-0.408-1.524v-3.168
				h-0.9v-0.804h0.9v-1.068L306.422,65.013z"/>
			<path d="M309.122,63.693h1.056v3.624h0.024c0.168-0.3,0.432-0.576,0.756-0.744c0.312-0.192,0.684-0.3,1.08-0.3
				c0.78,0,2.028,0.48,2.028,2.484v3.456h-1.056v-3.336c0-0.948-0.348-1.728-1.344-1.728c-0.684,0-1.212,0.48-1.416,1.056
				c-0.06,0.144-0.072,0.3-0.072,0.504v3.504h-1.056V63.693z"/>
			<path d="M316.382,69.489c0.024,1.428,0.924,2.016,1.98,2.016c0.756,0,1.224-0.132,1.608-0.288l0.192,0.744
				c-0.372,0.168-1.02,0.372-1.944,0.372c-1.776,0-2.856-1.188-2.856-2.928c0-1.764,1.044-3.144,2.736-3.144
				c1.896,0,2.388,1.668,2.388,2.736c0,0.216-0.012,0.384-0.036,0.504L316.382,69.489z M319.466,68.733
				c0.012-0.66-0.276-1.716-1.452-1.716c-1.08,0-1.536,0.984-1.62,1.716H319.466z"/>
			<path d="M324.193,71.145c0.324,0.192,0.876,0.408,1.404,0.408c0.756,0,1.116-0.372,1.116-0.864c0-0.504-0.3-0.78-1.068-1.068
				c-1.056-0.384-1.548-0.948-1.548-1.644c0-0.936,0.768-1.704,2.004-1.704c0.588,0,1.104,0.156,1.416,0.36l-0.252,0.756
				c-0.228-0.132-0.648-0.336-1.188-0.336c-0.624,0-0.96,0.36-0.96,0.792c0,0.492,0.336,0.708,1.092,0.996
				c0.996,0.372,1.524,0.876,1.524,1.752c0,1.032-0.804,1.752-2.16,1.752c-0.636,0-1.224-0.168-1.632-0.408L324.193,71.145z"/>
			<path d="M333.182,70.821c0,0.504,0.024,0.996,0.084,1.392h-0.948l-0.096-0.732h-0.036c-0.312,0.456-0.948,0.864-1.776,0.864
				c-1.176,0-1.776-0.828-1.776-1.668c0-1.404,1.248-2.172,3.492-2.16v-0.12c0-0.48-0.132-1.356-1.32-1.344
				c-0.552,0-1.116,0.156-1.524,0.432l-0.24-0.708c0.48-0.3,1.188-0.504,1.92-0.504c1.788,0,2.22,1.212,2.22,2.376V70.821z
				 M332.149,69.249c-1.152-0.024-2.46,0.18-2.46,1.308c0,0.696,0.456,1.008,0.984,1.008c0.768,0,1.26-0.48,1.428-0.972
				c0.036-0.108,0.048-0.228,0.048-0.336V69.249z"/>
			<path d="M334.874,67.977c0-0.612-0.024-1.092-0.048-1.572h0.924l0.048,0.936h0.036c0.324-0.552,0.864-1.068,1.836-1.068
				c0.78,0,1.38,0.48,1.632,1.164h0.024c0.18-0.336,0.42-0.576,0.66-0.756c0.348-0.264,0.72-0.408,1.272-0.408
				c0.78,0,1.92,0.504,1.92,2.52v3.42h-1.032v-3.288c0-1.128-0.42-1.788-1.26-1.788c-0.612,0-1.068,0.444-1.26,0.948
				c-0.048,0.156-0.084,0.348-0.084,0.528v3.6h-1.032v-3.48c0-0.936-0.408-1.596-1.212-1.596c-0.648,0-1.14,0.528-1.308,1.056
				c-0.06,0.156-0.084,0.336-0.084,0.516v3.504h-1.032V67.977z"/>
			<path d="M345.481,69.489c0.024,1.428,0.924,2.016,1.98,2.016c0.756,0,1.224-0.132,1.608-0.288l0.192,0.744
				c-0.372,0.168-1.02,0.372-1.944,0.372c-1.776,0-2.856-1.188-2.856-2.928c0-1.764,1.044-3.144,2.736-3.144
				c1.896,0,2.388,1.668,2.388,2.736c0,0.216-0.012,0.384-0.036,0.504L345.481,69.489z M348.565,68.733
				c0.012-0.66-0.276-1.716-1.452-1.716c-1.08,0-1.536,0.984-1.62,1.716H348.565z"/>
			<path d="M355.801,72.345c-1.56,0-2.784-1.152-2.784-2.988c0-1.944,1.284-3.084,2.88-3.084c1.668,0,2.796,1.212,2.796,2.976
				c0,2.16-1.5,3.096-2.88,3.096H355.801z M355.837,71.553c1.008,0,1.764-0.948,1.764-2.268c0-0.984-0.492-2.22-1.74-2.22
				c-1.236,0-1.776,1.152-1.776,2.256c0,1.272,0.72,2.232,1.74,2.232H355.837z"/>
			<path d="M364.177,72.009c-0.276,0.132-0.888,0.336-1.668,0.336c-1.752,0-2.892-1.188-2.892-2.976c0-1.788,1.224-3.096,3.12-3.096
				c0.624,0,1.176,0.156,1.464,0.312l-0.24,0.804c-0.252-0.132-0.648-0.276-1.224-0.276c-1.332,0-2.052,0.996-2.052,2.208
				c0,1.344,0.864,2.172,2.016,2.172c0.6,0,0.996-0.144,1.296-0.276L364.177,72.009z"/>
			<path d="M366.841,65.013v1.392h1.512v0.804h-1.512v3.132c0,0.72,0.204,1.128,0.792,1.128c0.288,0,0.456-0.024,0.612-0.072
				l0.048,0.804c-0.204,0.072-0.528,0.144-0.936,0.144c-0.492,0-0.888-0.168-1.14-0.444c-0.288-0.324-0.408-0.84-0.408-1.524v-3.168
				h-0.9v-0.804h0.9v-1.068L366.841,65.013z"/>
			<path d="M373.633,70.821c0,0.504,0.024,0.996,0.084,1.392h-0.948l-0.096-0.732h-0.036c-0.312,0.456-0.948,0.864-1.776,0.864
				c-1.176,0-1.776-0.828-1.776-1.668c0-1.404,1.248-2.172,3.492-2.16v-0.12c0-0.48-0.132-1.356-1.32-1.344
				c-0.552,0-1.116,0.156-1.524,0.432l-0.24-0.708c0.48-0.3,1.188-0.504,1.92-0.504c1.788,0,2.22,1.212,2.22,2.376V70.821z
				 M372.601,69.249c-1.152-0.024-2.46,0.18-2.46,1.308c0,0.696,0.456,1.008,0.984,1.008c0.768,0,1.26-0.48,1.428-0.972
				c0.036-0.108,0.048-0.228,0.048-0.336V69.249z"/>
			<path d="M375.577,66.405l1.14,3.252c0.192,0.54,0.348,1.02,0.468,1.5h0.036c0.132-0.48,0.3-0.96,0.492-1.5l1.128-3.252h1.104
				l-2.28,5.808h-1.008l-2.208-5.808H375.577z"/>
			<path d="M381.409,69.489c0.024,1.428,0.924,2.016,1.98,2.016c0.756,0,1.224-0.132,1.607-0.288l0.192,0.744
				c-0.372,0.168-1.021,0.372-1.944,0.372c-1.775,0-2.855-1.188-2.855-2.928c0-1.764,1.044-3.144,2.735-3.144
				c1.896,0,2.389,1.668,2.389,2.736c0,0.216-0.013,0.384-0.036,0.504L381.409,69.489z M384.493,68.733
				c0.013-0.66-0.275-1.716-1.452-1.716c-1.08,0-1.535,0.984-1.619,1.716H384.493z"/>
			<path d="M387.121,72.345c-0.407,0-0.695-0.324-0.695-0.756s0.3-0.756,0.72-0.756s0.708,0.312,0.708,0.756
				c0,0.432-0.288,0.756-0.72,0.756H387.121z"/>
			<path d="M389.605,72.345c-0.408,0-0.696-0.324-0.696-0.756s0.3-0.756,0.72-0.756s0.708,0.312,0.708,0.756
				c0,0.432-0.288,0.756-0.72,0.756H389.605z"/>
			<path d="M392.088,72.345c-0.408,0-0.696-0.324-0.696-0.756s0.301-0.756,0.721-0.756s0.708,0.312,0.708,0.756
				c0,0.432-0.288,0.756-0.721,0.756H392.088z"/>
		</g>
		<g>
			<path d="M286.044,100.194c0,1.344-0.276,2.148-0.828,2.664c-0.576,0.516-1.392,0.696-2.124,0.696
				c-0.696,0-1.464-0.168-1.932-0.48l0.264-0.816c0.384,0.252,0.984,0.468,1.704,0.468c1.08,0,1.872-0.564,1.872-2.04v-0.636h-0.024
				c-0.312,0.54-0.948,0.972-1.848,0.972c-1.44,0-2.472-1.224-2.472-2.844c0-1.968,1.284-3.072,2.628-3.072
				c1.008,0,1.548,0.516,1.812,0.996h0.024l0.036-0.864h0.936c-0.036,0.408-0.048,0.876-0.048,1.584V100.194z M284.988,97.518
				c0-0.168-0.012-0.324-0.06-0.468c-0.192-0.624-0.696-1.128-1.476-1.128c-1.008,0-1.728,0.852-1.728,2.208
				c0,1.128,0.588,2.088,1.716,2.088c0.66,0,1.248-0.408,1.464-1.092c0.06-0.168,0.084-0.372,0.084-0.564V97.518z"/>
			<path d="M288.288,94.17c-0.396,0-0.66-0.312-0.66-0.684s0.276-0.672,0.684-0.672c0.408,0,0.672,0.3,0.672,0.672
				s-0.264,0.684-0.684,0.684H288.288z M287.784,101.046v-5.808h1.056v5.808H287.784z"/>
			<path d="M291,95.238l1.14,3.252c0.192,0.54,0.348,1.02,0.468,1.5h0.036c0.132-0.48,0.3-0.96,0.492-1.5l1.128-3.252h1.104
				l-2.28,5.808h-1.008l-2.208-5.808H291z"/>
			<path d="M296.832,98.322c0.024,1.428,0.924,2.016,1.98,2.016c0.756,0,1.224-0.132,1.608-0.288l0.192,0.744
				c-0.372,0.168-1.02,0.372-1.944,0.372c-1.776,0-2.856-1.188-2.856-2.928c0-1.764,1.044-3.144,2.736-3.144
				c1.896,0,2.388,1.668,2.388,2.736c0,0.216-0.012,0.384-0.036,0.504L296.832,98.322z M299.916,97.566
				c0.012-0.66-0.276-1.716-1.452-1.716c-1.08,0-1.536,0.984-1.62,1.716H299.916z"/>
			<path d="M302.1,99.978c0.324,0.192,0.876,0.408,1.404,0.408c0.756,0,1.116-0.372,1.116-0.864c0-0.504-0.3-0.78-1.068-1.068
				c-1.056-0.384-1.548-0.948-1.548-1.644c0-0.936,0.768-1.704,2.004-1.704c0.588,0,1.104,0.156,1.416,0.36l-0.252,0.756
				c-0.228-0.132-0.648-0.336-1.188-0.336c-0.624,0-0.96,0.36-0.96,0.792c0,0.492,0.336,0.708,1.092,0.996
				c0.996,0.372,1.524,0.876,1.524,1.752c0,1.032-0.804,1.752-2.16,1.752c-0.636,0-1.224-0.168-1.632-0.408L302.1,99.978z"/>
			<path d="M313.631,99.654c0,0.504,0.024,0.996,0.084,1.392h-0.948l-0.096-0.732h-0.036c-0.312,0.456-0.948,0.864-1.776,0.864
				c-1.176,0-1.776-0.828-1.776-1.668c0-1.404,1.248-2.172,3.492-2.16v-0.12c0-0.48-0.132-1.356-1.32-1.344
				c-0.552,0-1.116,0.156-1.524,0.432l-0.24-0.708c0.48-0.3,1.188-0.504,1.92-0.504c1.788,0,2.22,1.212,2.22,2.376V99.654z
				 M312.599,98.082c-1.152-0.024-2.46,0.18-2.46,1.308c0,0.696,0.456,1.008,0.984,1.008c0.768,0,1.26-0.48,1.428-0.972
				c0.036-0.108,0.048-0.228,0.048-0.336V98.082z"/>
			<path d="M317.723,99.978c0.324,0.192,0.876,0.408,1.404,0.408c0.756,0,1.116-0.372,1.116-0.864c0-0.504-0.3-0.78-1.068-1.068
				c-1.056-0.384-1.548-0.948-1.548-1.644c0-0.936,0.768-1.704,2.004-1.704c0.588,0,1.104,0.156,1.416,0.36l-0.252,0.756
				c-0.228-0.132-0.648-0.336-1.188-0.336c-0.624,0-0.96,0.36-0.96,0.792c0,0.492,0.336,0.708,1.092,0.996
				c0.996,0.372,1.524,0.876,1.524,1.752c0,1.032-0.804,1.752-2.16,1.752c-0.636,0-1.224-0.168-1.632-0.408L317.723,99.978z"/>
			<path d="M326.759,100.842c-0.276,0.132-0.888,0.336-1.668,0.336c-1.752,0-2.892-1.188-2.892-2.976
				c0-1.788,1.224-3.096,3.12-3.096c0.624,0,1.176,0.156,1.464,0.312l-0.24,0.804c-0.252-0.132-0.648-0.276-1.224-0.276
				c-1.332,0-2.052,0.996-2.052,2.208c0,1.344,0.864,2.172,2.016,2.172c0.6,0,0.996-0.144,1.296-0.276L326.759,100.842z"/>
			<path d="M332.099,99.654c0,0.504,0.024,0.996,0.084,1.392h-0.948l-0.096-0.732h-0.036c-0.312,0.456-0.948,0.864-1.776,0.864
				c-1.176,0-1.776-0.828-1.776-1.668c0-1.404,1.248-2.172,3.492-2.16v-0.12c0-0.48-0.132-1.356-1.32-1.344
				c-0.552,0-1.116,0.156-1.524,0.432l-0.24-0.708c0.48-0.3,1.188-0.504,1.92-0.504c1.788,0,2.22,1.212,2.22,2.376V99.654z
				 M331.067,98.082c-1.152-0.024-2.46,0.18-2.46,1.308c0,0.696,0.456,1.008,0.984,1.008c0.768,0,1.26-0.48,1.428-0.972
				c0.036-0.108,0.048-0.228,0.048-0.336V98.082z"/>
			<path d="M333.791,92.526h1.056v8.52h-1.056V92.526z"/>
			<path d="M337.199,98.322c0.024,1.428,0.924,2.016,1.98,2.016c0.756,0,1.224-0.132,1.608-0.288l0.192,0.744
				c-0.372,0.168-1.02,0.372-1.944,0.372c-1.776,0-2.856-1.188-2.856-2.928c0-1.764,1.044-3.144,2.736-3.144
				c1.896,0,2.388,1.668,2.388,2.736c0,0.216-0.012,0.384-0.036,0.504L337.199,98.322z M340.283,97.566
				c0.012-0.66-0.276-1.716-1.452-1.716c-1.08,0-1.536,0.984-1.62,1.716H340.283z"/>
			<path d="M342.911,101.178c-0.408,0-0.696-0.324-0.696-0.756s0.3-0.756,0.72-0.756c0.42,0,0.708,0.312,0.708,0.756
				c0,0.432-0.288,0.756-0.72,0.756H342.911z"/>
		</g>
		<g>
			<path fill="none" stroke="#000000" d="M0.071,11.877h263.841"/>
			<path fill="none" stroke="#000000" d="M0.071,25.989h263.841"/>
			<path fill="none" stroke="#000000" d="M0.202,33.112h263.842"/>
			<path fill="none" stroke="#000000" d="M0,40.496h263.841"/>
			<path fill="none" stroke="#000000" d="M0,19.131h263.841"/>
		</g>
		<g>
			<path d="M132.485,39.733c-4.944-2.352-5.736-5.376-5.952-8.472c-0.24-3.36,1.896-6.768,3.888-8.664
				c1.152-1.08,2.4-2.136,3.888-3.264c-0.048-0.84-0.24-1.176-0.336-2.376c-0.024-0.504-0.336-2.856,0.168-5.568
				c0.312-1.608,2.328-5.4,3.72-5.424c1.08-0.024,2.736,4.296,2.784,6.456c0.072,3.336-0.72,4.848-1.704,6.576
				c-0.504,0.864-1.032,1.464-1.584,2.136c-0.576,0.696-1.224,1.104-1.824,1.632c0,0,0.768,4.344,0.792,4.656
				c1.536-0.192,3.408,0.36,4.08,0.84c1.704,1.272,2.352,3.024,2.472,4.728c0.216,2.712-1.272,5.568-4.56,6.936
				c0,0,0.504,3.456,0.624,4.176c0.264,1.896,0.216,3.096-0.192,3.864c-0.696,1.296-1.824,2.496-4.008,2.64
				c-1.68,0.096-4.992-0.744-5.16-3.384c-0.096-1.56,0.6-3.24,2.496-3.36c1.152-0.096,2.52,0.864,2.616,2.232
				c0.096,1.176-0.672,2.4-2.664,2.952c0.312,0.432,1.248,0.936,2.592,0.936c1.392,0,2.832-0.936,3.528-2.184
				c0.432-0.816,0.384-2.28,0.216-3.624c-0.072-0.456-0.648-4.08-0.648-4.08C135.941,40.381,133.493,40.213,132.485,39.733z
				 M132.965,34.045c0.048,1.152,1.008,2.496,1.896,2.952c-0.12,0.072-0.24,0.264-0.24,0.264c-0.984-0.48-1.824-1.272-2.04-1.56
				c-0.696-0.936-0.984-1.464-1.08-2.88c-0.096-1.32,0.624-3.096,2.232-4.344c0.84-0.624,1.248-0.768,1.968-0.936l-0.72-4.344
				c-0.744,0.432-3.816,2.904-5.112,4.92c-1.152,1.8-1.848,3.24-1.704,5.016c0.288,4.008,4.68,7.296,9.432,6.168
				c0,0-1.416-8.52-1.392-8.52C133.589,30.877,132.893,32.894,132.965,34.045z M134.909,18.829c2.088-1.632,4.92-4.704,4.752-7.08
				c-0.048-0.744-0.36-2.088-1.44-2.064C135.75,9.709,134.357,14.869,134.909,18.829z M138.173,39.109
				c2.76-0.936,2.88-3.312,2.784-4.728c-0.096-1.176-0.624-3.816-4.128-3.648L138.173,39.109z"/>
		</g>
		<g>
			<path d="M67.57,99.83c2.664,0.024,5.184,1.032,5.376,3.264c0.144,1.632-2.016,3.12-4.68,3.12c-2.688-0.024-5.184-1.008-5.4-3.24
				C62.722,101.318,64.906,99.83,67.57,99.83z M68.218,105.662c1.152,0,1.896-1.104,1.776-1.992
				c-0.264-1.752-0.864-3.168-2.448-3.168c-1.152,0-1.824,1.128-1.68,2.016C66.13,104.27,66.634,105.662,68.218,105.662z"/>
		</g>
		<g>
			<g>
				<path d="M36.245,104.667c2.664,0.024,5.184,1.032,5.376,3.264c0.144,1.632-2.016,3.12-4.68,3.12
					c-2.688-0.024-5.184-1.008-5.4-3.24C31.397,106.155,33.581,104.667,36.245,104.667z M36.893,110.499
					c1.152,0,1.896-1.104,1.776-1.992c-0.264-1.752-0.864-3.168-2.448-3.168c-1.152,0-1.824,1.128-1.68,2.016
					C34.805,109.107,35.309,110.499,36.893,110.499z"/>
			</g>
			<path fill="none" stroke="#000000" d="M29.533,107.379H44.2"/>
		</g>
		<g>
			<path d="M14.417,29.953c-0.937,1.135-1.526,1.76-2.704,2.667c-1.418,1.107-2.382,1.561-4.042,2.242
				c-1.606,0.625-4.31,1.135-4.31,1.135l-0.188-0.426c0,0,4.523-1.447,6.745-3.944c2.918-3.207,4.443-7.094,4.363-12.06
				c-0.027-2.242-0.696-6.442-4.069-6.47c-1.927,0-4.657,1.76-4.47,3.944c0.053,0.313,0.803-0.34,2.275-0.284
				c1.553,0.057,2.382,2.1,2.008,3.689c-0.268,1.249-1.018,2.043-2.382,2.043c-1.74,0-3.292-1.306-3.319-3.462
				c-0.053-3.264,1.66-4.91,2.704-5.59c1.312-0.852,2.73-1.164,3.935-1.164c2.704-0.057,5.702,2.015,6.719,5.023
				c0.589,1.702,0.589,3.604,0.134,5.817c-0.294,1.504-0.669,2.327-1.338,3.689C15.808,28.109,15.327,28.818,14.417,29.953z
				 M20.626,14.346c0.83,0,1.499,0.625,1.499,1.476c0.027,0.852-0.642,1.589-1.445,1.589c-0.803,0.028-1.499-0.681-1.499-1.532
				C19.154,14.999,19.823,14.375,20.626,14.346z M20.653,21.497c0.803,0,1.472,0.624,1.499,1.476c0,0.879-0.642,1.589-1.445,1.589
				c-0.83,0.028-1.499-0.652-1.526-1.532C19.181,22.178,19.823,21.525,20.653,21.497z"/>
		</g>
		<g>
			<path fill="none" stroke="#000000" d="M0.881,70.877h263.841"/>
			<path fill="none" stroke="#000000" d="M0.881,84.989h263.841"/>
			<path fill="none" stroke="#000000" d="M1.012,92.112h263.841"/>
			<path fill="none" stroke="#000000" d="M0.811,99.496h263.84"/>
			<path fill="none" stroke="#000000" d="M0.811,78.131h263.84"/>
		</g>
		<g>
			<path d="M10.152,99.4c-4.944-2.352-5.736-5.376-5.952-8.472c-0.24-3.36,1.896-6.768,3.888-8.664
				c1.152-1.08,2.4-2.136,3.888-3.264c-0.048-0.84-0.24-1.176-0.336-2.376c-0.024-0.504-0.336-2.856,0.168-5.568
				c0.312-1.608,2.328-5.4,3.72-5.424c1.08-0.024,2.736,4.296,2.784,6.456c0.072,3.336-0.72,4.848-1.704,6.576
				c-0.504,0.864-1.032,1.464-1.584,2.136c-0.576,0.696-1.224,1.104-1.824,1.632c0,0,0.768,4.344,0.792,4.656
				c1.536-0.192,3.408,0.36,4.08,0.84c1.704,1.272,2.352,3.024,2.472,4.728c0.216,2.712-1.272,5.568-4.56,6.936
				c0,0,0.504,3.456,0.624,4.176c0.264,1.896,0.216,3.096-0.192,3.864c-0.696,1.296-1.824,2.496-4.008,2.64
				c-1.68,0.096-4.992-0.744-5.16-3.384c-0.096-1.56,0.6-3.24,2.496-3.36c1.152-0.096,2.52,0.864,2.616,2.232
				c0.096,1.176-0.672,2.4-2.664,2.952c0.312,0.432,1.248,0.936,2.592,0.936c1.392,0,2.832-0.936,3.528-2.184
				c0.432-0.816,0.384-2.28,0.216-3.624c-0.072-0.456-0.648-4.08-0.648-4.08C13.608,100.048,11.16,99.88,10.152,99.4z
				 M10.632,93.712c0.048,1.152,1.008,2.496,1.896,2.952c-0.12,0.072-0.24,0.264-0.24,0.264c-0.984-0.48-1.824-1.272-2.04-1.56
				c-0.696-0.936-0.984-1.464-1.08-2.88c-0.096-1.32,0.624-3.096,2.232-4.344c0.84-0.624,1.248-0.768,1.968-0.936l-0.72-4.344
				c-0.744,0.432-3.816,2.904-5.112,4.92c-1.152,1.8-1.848,3.24-1.704,5.016c0.288,4.008,4.68,7.296,9.432,6.168
				c0,0-1.416-8.52-1.392-8.52C11.256,90.544,10.56,92.56,10.632,93.712z M12.576,78.496c2.088-1.632,4.92-4.704,4.752-7.08
				c-0.048-0.744-0.36-2.088-1.44-2.064C13.416,69.375,12.024,74.536,12.576,78.496z M15.84,98.776
				c2.76-0.936,2.88-3.312,2.784-4.728C18.528,92.872,18,90.232,14.496,90.4L15.84,98.776z"/>
		</g>
		<g>
			<path d="M239.912,0c2.664,0.024,5.184,1.032,5.376,3.264c0.144,1.632-2.016,3.12-4.68,3.12c-2.688-0.024-5.184-1.008-5.4-3.24
				C235.063,1.488,237.248,0,239.912,0z M240.56,5.832c1.152,0,1.896-1.104,1.776-1.992c-0.264-1.752-0.864-3.168-2.448-3.168
				c-1.152,0-1.824,1.128-1.68,2.016C238.472,4.44,238.976,5.832,240.56,5.832z"/>
		</g>
		<path fill="none" stroke="#000000" d="M233.2,5.712h14.667"/>
		<g>
			<path d="M100.237,96.497c2.664,0.024,5.184,1.032,5.376,3.264c0.144,1.632-2.016,3.12-4.68,3.12
				c-2.688-0.024-5.184-1.008-5.4-3.24C95.389,97.984,97.573,96.497,100.237,96.497z M100.885,102.329
				c1.152,0,1.896-1.104,1.776-1.992c-0.264-1.752-0.864-3.168-2.448-3.168c-1.152,0-1.824,1.128-1.68,2.016
				C98.797,100.937,99.301,102.329,100.885,102.329z"/>
		</g>
		<g>
			<path d="M128.57,92.497c2.664,0.024,5.184,1.032,5.376,3.264c0.144,1.632-2.016,3.12-4.68,3.12
				c-2.688-0.024-5.184-1.008-5.4-3.24C123.722,93.984,125.906,92.497,128.57,92.497z M129.218,98.329
				c1.152,0,1.896-1.104,1.776-1.992c-0.264-1.752-0.864-3.168-2.448-3.168c-1.152,0-1.824,1.128-1.68,2.016
				C127.13,96.937,127.634,98.329,129.218,98.329z"/>
		</g>
		<g>
			<path d="M212.237,81.831c2.664,0.024,5.184,1.032,5.376,3.264c0.144,1.632-2.016,3.12-4.68,3.12
				c-2.688-0.024-5.184-1.008-5.4-3.24C207.389,83.318,209.573,81.831,212.237,81.831z M212.885,87.663
				c1.152,0,1.896-1.104,1.776-1.992c-0.264-1.752-0.864-3.168-2.448-3.168c-1.152,0-1.824,1.128-1.68,2.016
				C210.797,86.271,211.301,87.663,212.885,87.663z"/>
		</g>
		<g>
			<path d="M183.57,85.83c2.664,0.024,5.184,1.032,5.376,3.264c0.144,1.632-2.016,3.12-4.68,3.12c-2.688-0.024-5.184-1.008-5.4-3.24
				C178.722,87.318,180.906,85.83,183.57,85.83z M184.218,91.662c1.152,0,1.896-1.104,1.776-1.992
				c-0.264-1.752-0.864-3.168-2.448-3.168c-1.152,0-1.824,1.128-1.68,2.016C182.13,90.27,182.634,91.662,184.218,91.662z"/>
		</g>
		<g>
			<path d="M154.903,88.497c2.664,0.024,5.184,1.032,5.376,3.264c0.144,1.632-2.016,3.12-4.68,3.12
				c-2.688-0.024-5.184-1.008-5.4-3.24C150.055,89.985,152.239,88.497,154.903,88.497z M155.551,94.329
				c1.152,0,1.896-1.104,1.776-1.992c-0.264-1.752-0.864-3.168-2.448-3.168c-1.152,0-1.824,1.128-1.68,2.016
				C153.463,92.937,153.967,94.329,155.551,94.329z"/>
		</g>
		<g>
			<path d="M38.903,40.497c2.664,0.024,5.184,1.032,5.376,3.264c0.144,1.632-2.016,3.12-4.68,3.12
				c-2.688-0.024-5.184-1.008-5.4-3.24C34.055,41.985,36.239,40.497,38.903,40.497z M39.551,46.329c1.152,0,1.896-1.104,1.776-1.992
				c-0.264-1.752-0.864-3.168-2.448-3.168c-1.152,0-1.824,1.128-1.68,2.016C37.463,44.937,37.967,46.329,39.551,46.329z"/>
		</g>
		<g>
			<path d="M63.57,25.83c2.664,0.024,5.184,1.032,5.376,3.264c0.144,1.632-2.016,3.12-4.68,3.12c-2.688-0.024-5.184-1.008-5.4-3.24
				C58.722,27.318,60.906,25.83,63.57,25.83z M64.218,31.662c1.152,0,1.896-1.104,1.776-1.992c-0.264-1.752-0.864-3.168-2.448-3.168
				c-1.152,0-1.824,1.128-1.68,2.016C62.13,30.27,62.634,31.662,64.218,31.662z"/>
		</g>
		<g>
			<path d="M90.237,12.497c2.664,0.024,5.184,1.032,5.376,3.264c0.144,1.632-2.016,3.12-4.68,3.12
				c-2.688-0.024-5.184-1.008-5.4-3.24C85.389,13.984,87.573,12.497,90.237,12.497z M90.885,18.329c1.152,0,1.896-1.104,1.776-1.992
				c-0.264-1.752-0.864-3.168-2.448-3.168c-1.152,0-1.824,1.128-1.68,2.016C88.797,16.937,89.301,18.329,90.885,18.329z"/>
		</g>
		<g>
			<path d="M163.903,40.497c2.664,0.024,5.184,1.032,5.376,3.264c0.144,1.632-2.016,3.12-4.68,3.12
				c-2.688-0.024-5.184-1.008-5.4-3.24C159.055,41.985,161.239,40.497,163.903,40.497z M164.551,46.329
				c1.152,0,1.896-1.104,1.776-1.992c-0.264-1.752-0.864-3.168-2.448-3.168c-1.152,0-1.824,1.128-1.68,2.016
				C162.463,44.937,162.967,46.329,164.551,46.329z"/>
		</g>
		<g>
			<path d="M186.904,26.497c2.664,0.024,5.184,1.032,5.376,3.264c0.144,1.632-2.016,3.12-4.68,3.12
				c-2.688-0.024-5.184-1.008-5.4-3.24C182.056,27.985,184.24,26.497,186.904,26.497z M187.552,32.329
				c1.152,0,1.896-1.104,1.776-1.992c-0.264-1.752-0.864-3.168-2.448-3.168c-1.152,0-1.824,1.128-1.68,2.016
				C185.464,30.937,185.968,32.329,187.552,32.329z"/>
		</g>
		<g>
			<path d="M211.237,12.83c2.664,0.024,5.184,1.032,5.376,3.264c0.144,1.632-2.016,3.12-4.68,3.12
				c-2.688-0.024-5.184-1.008-5.4-3.24C206.389,14.318,208.573,12.83,211.237,12.83z M211.885,18.662
				c1.152,0,1.896-1.104,1.776-1.992c-0.264-1.752-0.864-3.168-2.448-3.168c-1.152,0-1.824,1.128-1.68,2.016
				C209.797,17.27,210.301,18.662,211.885,18.662z"/>
		</g>
		<path fill="#FF0000" stroke="#FF0000" d="M39.867,96.046l22.667-58"/>
		<path fill="#FF0000" stroke="#FF0000" d="M46.533,46.712l76,42.667"/>
		<path fill="#FF0000" stroke="#FF0000" d="M94.533,22.712l55.333,62"/>
		<path fill="#FF0000" stroke="#FF0000" d="M157.2,48.046L74.533,97.379"/>
		<path fill="#FF0000" stroke="#FF0000" d="M186.888,35.379l-3.375,44.667"/>
		<path fill="#FF0000" stroke="#FF0000" d="M209.867,24.046l-106,72"/>
		<path fill="#FF0000" stroke="#FF0000" d="M239.2,10.712l-26.667,69.333"/>
	</g>
</svg>
