<?xml version="1.0" encoding="utf-8"?>
<!-- Generator: Adobe Illustrator 10.0, SVG Export Plug-In . SVG Version: 3.0.0 Build 76)  -->
<!DOCTYPE svg PUBLIC "-//W3C//DTD SVG 1.0//EN"    "http://www.w3.org/TR/2001/REC-SVG-20010904/DTD/svg10.dtd" [
	<!ENTITY ns_flows "http://ns.adobe.com/Flows/1.0/">
	<!ENTITY ns_extend "http://ns.adobe.com/Extensibility/1.0/">
	<!ENTITY ns_ai "http://ns.adobe.com/AdobeIllustrator/10.0/">
	<!ENTITY ns_svg "http://www.w3.org/2000/svg">
	<!ENTITY ns_xlink "http://www.w3.org/1999/xlink">
]>
<svg  xmlns:x="&ns_extend;" xmlns:i="&ns_ai;" xmlns:graph="&ns_graphs;"
	 xmlns="&ns_svg;" xmlns:xlink="&ns_xlink;" xmlns:a="http://ns.adobe.com/AdobeSVGViewerExtensions/3.0/" width="410" height="92"
	 viewBox="-0.3 -0.31 410 92" overflow="visible" enable-background="new -0.3 -0.31 410 92" xml:space="preserve">
	<g id="Layer_1_2_">
		<g>
			<path d="M12.494,74.778l-2.052-8.088h1.104l0.96,4.092c0.24,1.02,0.456,2.016,0.6,2.796h0.024
				c0.132-0.804,0.384-1.764,0.66-2.808l1.08-4.08h1.092l0.984,4.104c0.228,0.972,0.444,1.92,0.564,2.772h0.024
				c0.168-0.888,0.396-1.788,0.648-2.796l1.068-4.08h1.068l-2.292,8.088h-1.092l-1.02-4.2c-0.252-1.044-0.42-1.836-0.528-2.652
				h-0.024c-0.132,0.816-0.324,1.596-0.624,2.64l-1.152,4.212H12.494z"/>
			<path d="M23.438,70.734v-0.72h6.192v0.72H23.438z M23.438,73.086v-0.72h6.192v0.72H23.438z"/>
			<path d="M34.454,74.778l-2.052-8.088h1.104l0.96,4.092c0.24,1.02,0.456,2.016,0.6,2.796h0.024
				c0.132-0.804,0.384-1.764,0.66-2.808l1.08-4.08h1.092l0.984,4.104c0.228,0.972,0.444,1.92,0.564,2.772h0.024
				c0.168-0.888,0.396-1.788,0.648-2.796l1.068-4.08h1.068l-2.292,8.088h-1.092l-1.02-4.2c-0.252-1.044-0.42-1.836-0.528-2.652
				h-0.024c-0.132,0.816-0.324,1.596-0.624,2.64l-1.152,4.212H34.454z"/>
			<path d="M43.189,66.258h1.056v3.624h0.024c0.168-0.3,0.432-0.576,0.756-0.744c0.312-0.192,0.684-0.3,1.08-0.3
				c0.78,0,2.028,0.48,2.028,2.484v3.456h-1.056v-3.336c0-0.948-0.348-1.728-1.344-1.728c-0.684,0-1.212,0.48-1.416,1.056
				c-0.06,0.144-0.072,0.3-0.072,0.504v3.504h-1.056V66.258z"/>
			<path d="M52.213,74.91c-1.56,0-2.784-1.152-2.784-2.988c0-1.944,1.284-3.084,2.88-3.084c1.668,0,2.796,1.212,2.796,2.976
				c0,2.16-1.5,3.096-2.88,3.096H52.213z M52.25,74.118c1.008,0,1.764-0.948,1.764-2.268c0-0.984-0.492-2.22-1.74-2.22
				c-1.236,0-1.776,1.152-1.776,2.256c0,1.272,0.72,2.232,1.74,2.232H52.25z"/>
			<path d="M56.438,66.258h1.056v8.52h-1.056V66.258z"/>
			<path d="M59.845,72.054c0.024,1.428,0.924,2.016,1.98,2.016c0.756,0,1.224-0.132,1.608-0.288l0.192,0.744
				c-0.372,0.168-1.02,0.372-1.944,0.372c-1.776,0-2.856-1.188-2.856-2.928c0-1.764,1.044-3.144,2.736-3.144
				c1.896,0,2.388,1.668,2.388,2.736c0,0.216-0.012,0.384-0.036,0.504L59.845,72.054z M62.929,71.298
				c0.012-0.66-0.276-1.716-1.452-1.716c-1.08,0-1.536,0.984-1.62,1.716H62.929z"/>
			<path d="M33.937,88.006c0.468,0.3,1.14,0.528,1.86,0.528c1.068,0,1.692-0.552,1.692-1.38c0-0.744-0.432-1.188-1.524-1.596
				c-1.32-0.48-2.136-1.176-2.136-2.304c0-1.26,1.044-2.196,2.616-2.196c0.816,0,1.428,0.192,1.776,0.396l-0.288,0.852
				c-0.252-0.156-0.792-0.384-1.524-0.384c-1.104,0-1.524,0.66-1.524,1.212c0,0.756,0.492,1.128,1.608,1.56
				c1.368,0.54,2.052,1.188,2.052,2.376c0,1.248-0.912,2.34-2.82,2.34c-0.78,0-1.632-0.24-2.064-0.528L33.937,88.006z"/>
			<path d="M41.173,82.078v1.392h1.512v0.804h-1.512v3.132c0,0.72,0.204,1.128,0.792,1.128c0.288,0,0.456-0.024,0.612-0.072
				l0.048,0.804c-0.204,0.072-0.528,0.144-0.936,0.144c-0.492,0-0.888-0.168-1.14-0.444c-0.288-0.324-0.408-0.84-0.408-1.524v-3.168
				h-0.9V83.47h0.9v-1.068L41.173,82.078z"/>
			<path d="M44.4,86.554c0.024,1.428,0.924,2.016,1.98,2.016c0.756,0,1.224-0.132,1.608-0.288l0.192,0.744
				c-0.372,0.168-1.02,0.372-1.944,0.372c-1.776,0-2.856-1.188-2.856-2.928c0-1.764,1.044-3.144,2.736-3.144
				c1.896,0,2.388,1.668,2.388,2.736c0,0.216-0.012,0.384-0.036,0.504L44.4,86.554z M47.485,85.798
				c0.012-0.66-0.276-1.716-1.452-1.716c-1.08,0-1.536,0.984-1.62,1.716H47.485z"/>
			<path d="M49.813,85.366c0-0.744-0.012-1.344-0.048-1.896h0.948l0.06,0.996h0.024c0.42-0.72,1.116-1.128,2.052-1.128
				c1.416,0,2.472,1.188,2.472,2.952c0,2.088-1.284,3.12-2.64,3.12c-0.78,0-1.44-0.336-1.788-0.912h-0.024v3.156h-1.056V85.366z
				 M50.869,86.914c0,0.144,0.012,0.3,0.048,0.432c0.18,0.732,0.828,1.236,1.572,1.236c1.116,0,1.764-0.912,1.764-2.244
				c0-1.164-0.6-2.16-1.716-2.16c-0.72,0-1.404,0.504-1.608,1.296c-0.024,0.144-0.06,0.3-0.06,0.432V86.914z"/>
		</g>
		<g>
			<path d="M91.717,66.191v3.384h3.912v-3.384h1.056v8.088h-1.056v-3.792h-3.912v3.792h-1.056v-8.088H91.717z"/>
			<path d="M100.608,70.235v-0.72h6.192v0.72H100.608z M100.608,72.587v-0.72h6.192v0.72H100.608z"/>
			<path d="M111.78,66.191v3.384h3.912v-3.384h1.056v8.088h-1.056v-3.792h-3.912v3.792h-1.056v-8.088H111.78z"/>
			<path d="M122.616,72.887c0,0.504,0.024,0.996,0.084,1.392h-0.948l-0.096-0.732h-0.036c-0.312,0.456-0.948,0.864-1.776,0.864
				c-1.176,0-1.776-0.828-1.776-1.668c0-1.404,1.248-2.172,3.492-2.16v-0.12c0-0.48-0.132-1.356-1.32-1.344
				c-0.552,0-1.116,0.156-1.524,0.432l-0.24-0.708c0.48-0.3,1.188-0.504,1.92-0.504c1.788,0,2.22,1.212,2.22,2.376V72.887z
				 M121.584,71.315c-1.152-0.024-2.46,0.18-2.46,1.308c0,0.696,0.456,1.008,0.984,1.008c0.768,0,1.26-0.48,1.428-0.972
				c0.036-0.108,0.048-0.228,0.048-0.336V71.315z"/>
			<path d="M124.308,65.759h1.056v8.52h-1.056V65.759z"/>
			<path d="M127.212,74.279v-5.004h-0.804v-0.804h0.804v-0.276c0-0.816,0.192-1.56,0.684-2.028c0.396-0.384,0.924-0.54,1.404-0.54
				c0.384,0,0.696,0.084,0.9,0.168l-0.132,0.816c-0.168-0.072-0.372-0.132-0.684-0.132c-0.888,0-1.128,0.792-1.128,1.68v0.312h1.404
				v0.804h-1.392v5.004H127.212z"/>
			<path d="M110.892,87.507c0.468,0.3,1.14,0.528,1.86,0.528c1.068,0,1.692-0.552,1.692-1.38c0-0.744-0.432-1.188-1.524-1.596
				c-1.32-0.48-2.136-1.176-2.136-2.304c0-1.26,1.044-2.196,2.616-2.196c0.816,0,1.428,0.192,1.776,0.396l-0.288,0.852
				c-0.252-0.156-0.792-0.384-1.524-0.384c-1.104,0-1.524,0.66-1.524,1.212c0,0.756,0.492,1.128,1.608,1.56
				c1.368,0.54,2.052,1.188,2.052,2.376c0,1.248-0.912,2.34-2.82,2.34c-0.78,0-1.632-0.24-2.064-0.528L110.892,87.507z"/>
			<path d="M118.128,81.579v1.392h1.512v0.804h-1.512v3.132c0,0.72,0.204,1.128,0.792,1.128c0.288,0,0.456-0.024,0.612-0.072
				l0.048,0.804c-0.204,0.072-0.528,0.144-0.936,0.144c-0.492,0-0.888-0.168-1.14-0.444c-0.288-0.324-0.408-0.84-0.408-1.524v-3.168
				h-0.9v-0.804h0.9v-1.068L118.128,81.579z"/>
			<path d="M121.356,86.055c0.024,1.428,0.924,2.016,1.98,2.016c0.756,0,1.224-0.132,1.608-0.288l0.192,0.744
				c-0.372,0.168-1.02,0.372-1.944,0.372c-1.776,0-2.856-1.188-2.856-2.928c0-1.764,1.044-3.144,2.736-3.144
				c1.896,0,2.388,1.668,2.388,2.736c0,0.216-0.012,0.384-0.036,0.504L121.356,86.055z M124.44,85.299
				c0.012-0.66-0.276-1.716-1.452-1.716c-1.08,0-1.536,0.984-1.62,1.716H124.44z"/>
			<path d="M126.768,84.867c0-0.744-0.012-1.344-0.048-1.896h0.948l0.06,0.996h0.024c0.42-0.72,1.116-1.128,2.052-1.128
				c1.416,0,2.472,1.188,2.472,2.952c0,2.088-1.284,3.12-2.64,3.12c-0.78,0-1.44-0.336-1.788-0.912h-0.024v3.156h-1.056V84.867z
				 M127.824,86.415c0,0.144,0.012,0.3,0.048,0.432c0.18,0.732,0.828,1.236,1.572,1.236c1.116,0,1.764-0.912,1.764-2.244
				c0-1.164-0.6-2.16-1.716-2.16c-0.72,0-1.404,0.504-1.608,1.296c-0.024,0.144-0.06,0.3-0.06,0.432V86.415z"/>
		</g>
		<g>
			<path d="M115.237,8.088L113.185,0h1.104l0.96,4.092c0.24,1.02,0.456,2.016,0.6,2.796h0.024c0.132-0.804,0.384-1.764,0.66-2.808
				l1.08-4.08h1.092l0.984,4.104c0.228,0.972,0.444,1.92,0.564,2.772h0.024c0.168-0.888,0.396-1.788,0.648-2.796L121.993,0h1.068
				l-2.292,8.088h-1.092l-1.02-4.2c-0.252-1.044-0.42-1.836-0.528-2.652h-0.024c-0.132,0.816-0.324,1.596-0.624,2.64l-1.152,4.212
				H115.237z"/>
			<path d="M153.505,0v3.384h3.912V0h1.056v8.088h-1.056V4.296h-3.912v3.792h-1.056V0H153.505z"/>
			<path d="M189.349,8.088L187.297,0h1.104l0.96,4.092c0.24,1.02,0.456,2.016,0.6,2.796h0.024c0.132-0.804,0.384-1.764,0.66-2.808
				l1.08-4.08h1.092l0.984,4.104c0.228,0.972,0.444,1.92,0.564,2.772h0.024c0.168-0.888,0.396-1.788,0.648-2.796L196.105,0h1.068
				l-2.292,8.088h-1.092l-1.02-4.2c-0.252-1.044-0.42-1.836-0.528-2.652h-0.024c-0.132,0.816-0.324,1.596-0.624,2.64l-1.152,4.212
				H189.349z"/>
			<path d="M225.349,8.088L223.297,0h1.104l0.96,4.092c0.24,1.02,0.456,2.016,0.6,2.796h0.024c0.132-0.804,0.384-1.764,0.66-2.808
				l1.08-4.08h1.092l0.984,4.104c0.228,0.972,0.444,1.92,0.564,2.772h0.024c0.168-0.888,0.396-1.788,0.648-2.796L232.105,0h1.068
				l-2.292,8.088h-1.092l-1.02-4.2c-0.252-1.044-0.42-1.836-0.528-2.652h-0.024c-0.132,0.816-0.324,1.596-0.624,2.64l-1.152,4.212
				H225.349z"/>
			<path d="M258.961,0v3.384h3.912V0h1.056v8.088h-1.056V4.296h-3.912v3.792h-1.056V0H258.961z"/>
			<path d="M295.237,8.088L293.185,0h1.104l0.96,4.092c0.24,1.02,0.456,2.016,0.601,2.796h0.023c0.133-0.804,0.385-1.764,0.66-2.808
				l1.08-4.08h1.092l0.984,4.104c0.228,0.972,0.444,1.92,0.563,2.772h0.024c0.168-0.888,0.396-1.788,0.648-2.796L301.993,0h1.068
				l-2.292,8.088h-1.092l-1.021-4.2c-0.252-1.044-0.42-1.836-0.527-2.652h-0.024c-0.132,0.816-0.324,1.596-0.624,2.64l-1.152,4.212
				H295.237z"/>
			<path d="M331.237,8.088L329.185,0h1.104l0.96,4.092c0.24,1.02,0.456,2.016,0.601,2.796h0.023c0.133-0.804,0.385-1.764,0.66-2.808
				l1.08-4.08h1.092l0.984,4.104c0.228,0.972,0.444,1.92,0.563,2.772h0.024c0.168-0.888,0.396-1.788,0.648-2.796L337.993,0h1.068
				l-2.292,8.088h-1.092l-1.021-4.2c-0.252-1.044-0.42-1.836-0.527-2.652h-0.024c-0.132,0.816-0.324,1.596-0.624,2.64l-1.152,4.212
				H331.237z"/>
		</g>
		<g>
			<path d="M189.03,35.467l-2.052-8.088h1.104l0.96,4.092c0.24,1.02,0.456,2.016,0.6,2.796h0.024
				c0.132-0.804,0.384-1.764,0.66-2.808l1.08-4.08h1.092l0.984,4.104c0.228,0.972,0.444,1.92,0.564,2.772h0.024
				c0.168-0.888,0.396-1.788,0.648-2.796l1.068-4.08h1.068l-2.292,8.088h-1.092l-1.02-4.2c-0.252-1.044-0.42-1.836-0.528-2.652
				h-0.024c-0.132,0.816-0.324,1.596-0.624,2.64l-1.152,4.212H189.03z"/>
			<path d="M225.03,35.467l-2.052-8.088h1.104l0.96,4.092c0.24,1.02,0.456,2.016,0.6,2.796h0.024
				c0.132-0.804,0.384-1.764,0.66-2.808l1.08-4.08h1.092l0.984,4.104c0.228,0.972,0.444,1.92,0.564,2.772h0.024
				c0.168-0.888,0.396-1.788,0.648-2.796l1.068-4.08h1.068l-2.292,8.088h-1.092l-1.02-4.2c-0.252-1.044-0.42-1.836-0.528-2.652
				h-0.024c-0.132,0.816-0.324,1.596-0.624,2.64l-1.152,4.212H225.03z"/>
			<path d="M260.754,27.379v3.384h3.912v-3.384h1.056v8.088h-1.056v-3.792h-3.912v3.792h-1.056v-8.088H260.754z"/>
			<path d="M293.861,35.467l-2.052-8.088h1.104l0.96,4.092c0.24,1.02,0.456,2.016,0.601,2.796h0.023
				c0.132-0.804,0.384-1.764,0.66-2.808l1.08-4.08h1.092l0.984,4.104c0.228,0.972,0.443,1.92,0.563,2.772h0.024
				c0.168-0.888,0.396-1.788,0.647-2.796l1.068-4.08h1.068l-2.292,8.088H298.3l-1.02-4.2c-0.252-1.044-0.42-1.836-0.528-2.652
				h-0.023c-0.132,0.816-0.324,1.596-0.624,2.64l-1.152,4.212H293.861z"/>
			<path d="M331.563,35.467l-2.052-8.088h1.104l0.96,4.092c0.239,1.02,0.456,2.016,0.6,2.796h0.024
				c0.132-0.804,0.384-1.764,0.66-2.808l1.079-4.08h1.093l0.983,4.104c0.229,0.972,0.444,1.92,0.564,2.772h0.023
				c0.168-0.888,0.396-1.788,0.648-2.796l1.068-4.08h1.067l-2.292,8.088h-1.092l-1.021-4.2c-0.252-1.044-0.42-1.836-0.527-2.652
				h-0.024c-0.132,0.816-0.324,1.596-0.624,2.64l-1.151,4.212H331.563z"/>
			<path d="M369.266,35.467l-2.052-8.088h1.104l0.96,4.092c0.24,1.02,0.456,2.016,0.601,2.796h0.023
				c0.132-0.804,0.384-1.764,0.66-2.808l1.08-4.08h1.092l0.984,4.104c0.228,0.972,0.443,1.92,0.563,2.772h0.024
				c0.168-0.888,0.396-1.788,0.647-2.796l1.068-4.08h1.068l-2.292,8.088h-1.092l-1.021-4.2c-0.252-1.044-0.42-1.836-0.528-2.652
				h-0.023c-0.132,0.816-0.324,1.596-0.624,2.64l-1.152,4.212H369.266z"/>
			<path d="M404.581,27.379v3.384h3.912v-3.384h1.057v8.088h-1.057v-3.792h-3.912v3.792h-1.056v-8.088H404.581z"/>
		</g>
		<g>
			<path d="M7.032,5.745C6.972,4.617,6.9,3.249,6.9,2.253H6.876c-0.288,0.936-0.612,1.956-1.02,3.072L4.428,9.249H3.636l-1.32-3.852
				C1.932,4.245,1.62,3.213,1.392,2.253H1.368C1.344,3.261,1.284,4.605,1.212,5.829L0.996,9.297H0l0.564-8.088h1.332l1.38,3.912
				c0.336,0.996,0.6,1.884,0.816,2.724h0.024C4.332,7.029,4.62,6.141,4.98,5.121l1.44-3.912h1.332l0.504,8.088H7.224L7.032,5.745z"
				/>
			<path d="M10.488,2.421c-0.396,0-0.66-0.312-0.66-0.684s0.276-0.672,0.684-0.672c0.408,0,0.672,0.3,0.672,0.672
				S10.92,2.421,10.5,2.421H10.488z M9.984,9.297V3.489h1.056v5.808H9.984z"/>
			<path d="M12.792,5.061c0-0.612-0.012-1.092-0.048-1.572h0.936l0.06,0.948h0.024c0.288-0.54,0.96-1.08,1.92-1.08
				c0.804,0,2.052,0.48,2.052,2.472v3.468H16.68V5.949c0-0.936-0.348-1.728-1.344-1.728c-0.684,0-1.224,0.492-1.416,1.08
				c-0.048,0.132-0.072,0.324-0.072,0.492v3.504h-1.056V5.061z"/>
			<path d="M21.816,9.429c-1.56,0-2.784-1.152-2.784-2.988c0-1.944,1.284-3.084,2.88-3.084c1.668,0,2.796,1.212,2.796,2.976
				c0,2.16-1.5,3.096-2.88,3.096H21.816z M21.852,8.637c1.008,0,1.764-0.948,1.764-2.268c0-0.984-0.492-2.22-1.74-2.22
				c-1.236,0-1.776,1.152-1.776,2.256c0,1.272,0.72,2.232,1.74,2.232H21.852z"/>
			<path d="M26.052,5.301c0-0.684-0.012-1.272-0.048-1.812h0.924l0.048,1.14h0.036c0.264-0.78,0.912-1.272,1.62-1.272
				c0.108,0,0.192,0.012,0.288,0.036v0.984c-0.12-0.012-0.228-0.024-0.372-0.024c-0.744,0-1.272,0.564-1.416,1.344
				c-0.024,0.156-0.036,0.324-0.036,0.504v3.096H26.04L26.052,5.301z"/>
			<path d="M32.412,8.025c0.468,0.3,1.14,0.528,1.86,0.528c1.068,0,1.692-0.552,1.692-1.38c0-0.744-0.432-1.188-1.524-1.596
				c-1.32-0.48-2.136-1.176-2.136-2.304c0-1.26,1.044-2.196,2.616-2.196c0.816,0,1.428,0.192,1.776,0.396l-0.288,0.852
				c-0.252-0.156-0.792-0.384-1.524-0.384c-1.104,0-1.524,0.66-1.524,1.212c0,0.756,0.492,1.128,1.608,1.56
				c1.368,0.54,2.052,1.188,2.052,2.376c0,1.248-0.912,2.34-2.82,2.34c-0.78,0-1.632-0.24-2.064-0.528L32.412,8.025z"/>
			<path d="M42.563,9.093c-0.276,0.132-0.888,0.336-1.668,0.336c-1.752,0-2.892-1.188-2.892-2.976c0-1.788,1.224-3.096,3.12-3.096
				c0.624,0,1.176,0.156,1.464,0.312l-0.24,0.804c-0.252-0.132-0.648-0.276-1.224-0.276c-1.332,0-2.052,0.996-2.052,2.208
				c0,1.344,0.864,2.172,2.016,2.172c0.6,0,0.996-0.144,1.296-0.276L42.563,9.093z"/>
			<path d="M47.903,7.905c0,0.504,0.024,0.996,0.084,1.392H47.04l-0.096-0.732h-0.036c-0.312,0.456-0.948,0.864-1.776,0.864
				c-1.176,0-1.776-0.828-1.776-1.668c0-1.404,1.248-2.172,3.492-2.16v-0.12c0-0.48-0.132-1.356-1.32-1.344
				c-0.552,0-1.116,0.156-1.524,0.432l-0.24-0.708c0.48-0.3,1.188-0.504,1.92-0.504c1.788,0,2.22,1.212,2.22,2.376V7.905z
				 M46.871,6.333c-1.152-0.024-2.46,0.18-2.46,1.308c0,0.696,0.456,1.008,0.984,1.008c0.768,0,1.26-0.48,1.428-0.972
				c0.036-0.108,0.048-0.228,0.048-0.336V6.333z"/>
			<path d="M49.595,0.777h1.056v8.52h-1.056V0.777z"/>
			<path d="M53.003,6.573c0.024,1.428,0.924,2.016,1.98,2.016c0.756,0,1.224-0.132,1.608-0.288l0.192,0.744
				c-0.372,0.168-1.02,0.372-1.944,0.372c-1.776,0-2.856-1.188-2.856-2.928c0-1.764,1.044-3.144,2.736-3.144
				c1.896,0,2.388,1.668,2.388,2.736c0,0.216-0.012,0.384-0.036,0.504L53.003,6.573z M56.087,5.817
				c0.012-0.66-0.276-1.716-1.452-1.716c-1.08,0-1.536,0.984-1.62,1.716H56.087z"/>
			<path d="M60.995,1.317c0.504-0.096,1.164-0.168,2.004-0.168c1.032,0,1.788,0.24,2.268,0.672c0.444,0.384,0.72,0.972,0.72,1.692
				c0,0.732-0.216,1.308-0.636,1.728c-0.552,0.588-1.452,0.888-2.472,0.888c-0.312,0-0.6-0.012-0.84-0.072v3.24h-1.044V1.317z
				 M62.039,5.205c0.228,0.06,0.528,0.084,0.864,0.084c1.272,0,2.028-0.624,2.028-1.716c0-1.08-0.756-1.596-1.908-1.596
				c-0.456,0-0.804,0.048-0.984,0.084V5.205z"/>
			<path d="M71.123,7.905c0,0.504,0.024,0.996,0.084,1.392h-0.948l-0.096-0.732h-0.036c-0.312,0.456-0.948,0.864-1.776,0.864
				c-1.176,0-1.776-0.828-1.776-1.668c0-1.404,1.248-2.172,3.492-2.16v-0.12c0-0.48-0.132-1.356-1.32-1.344
				c-0.552,0-1.116,0.156-1.524,0.432l-0.24-0.708c0.48-0.3,1.188-0.504,1.92-0.504c1.788,0,2.22,1.212,2.22,2.376V7.905z
				 M70.091,6.333c-1.152-0.024-2.46,0.18-2.46,1.308c0,0.696,0.456,1.008,0.984,1.008c0.768,0,1.26-0.48,1.428-0.972
				c0.036-0.108,0.048-0.228,0.048-0.336V6.333z"/>
			<path d="M74.039,2.097v1.392h1.512v0.804h-1.512v3.132c0,0.72,0.204,1.128,0.792,1.128c0.288,0,0.456-0.024,0.612-0.072
				l0.048,0.804c-0.204,0.072-0.528,0.144-0.936,0.144c-0.492,0-0.888-0.168-1.14-0.444c-0.288-0.324-0.408-0.84-0.408-1.524V4.293
				h-0.9V3.489h0.9V2.421L74.039,2.097z"/>
			<path d="M78.011,2.097v1.392h1.512v0.804h-1.512v3.132c0,0.72,0.204,1.128,0.792,1.128c0.288,0,0.456-0.024,0.612-0.072
				l0.048,0.804c-0.204,0.072-0.528,0.144-0.936,0.144c-0.492,0-0.888-0.168-1.14-0.444c-0.288-0.324-0.408-0.84-0.408-1.524V4.293
				h-0.9V3.489h0.9V2.421L78.011,2.097z"/>
			<path d="M81.239,6.573c0.024,1.428,0.924,2.016,1.98,2.016c0.756,0,1.224-0.132,1.608-0.288l0.192,0.744
				c-0.372,0.168-1.02,0.372-1.944,0.372c-1.776,0-2.856-1.188-2.856-2.928c0-1.764,1.044-3.144,2.736-3.144
				c1.896,0,2.388,1.668,2.388,2.736c0,0.216-0.012,0.384-0.036,0.504L81.239,6.573z M84.323,5.817
				c0.012-0.66-0.276-1.716-1.452-1.716c-1.08,0-1.536,0.984-1.62,1.716H84.323z"/>
			<path d="M86.663,5.301c0-0.684-0.012-1.272-0.048-1.812h0.924l0.048,1.14h0.036c0.264-0.78,0.912-1.272,1.62-1.272
				c0.108,0,0.192,0.012,0.288,0.036v0.984c-0.12-0.012-0.228-0.024-0.372-0.024c-0.744,0-1.272,0.564-1.416,1.344
				c-0.024,0.156-0.036,0.324-0.036,0.504v3.096h-1.056L86.663,5.301z"/>
			<path d="M90.623,5.061c0-0.612-0.012-1.092-0.048-1.572h0.936l0.06,0.948h0.024c0.288-0.54,0.96-1.08,1.92-1.08
				c0.804,0,2.052,0.48,2.052,2.472v3.468h-1.056V5.949c0-0.936-0.348-1.728-1.344-1.728c-0.684,0-1.224,0.492-1.416,1.08
				c-0.048,0.132-0.072,0.324-0.072,0.492v3.504h-1.056V5.061z"/>
			<path d="M97.727,9.429c-0.408,0-0.696-0.324-0.696-0.744c0-0.444,0.3-0.756,0.708-0.756c0.432,0,0.708,0.312,0.708,0.756
				c0,0.42-0.276,0.744-0.708,0.744H97.727z M97.739,5.193c-0.408,0-0.696-0.324-0.696-0.744c0-0.444,0.3-0.756,0.708-0.756
				c0.432,0,0.708,0.312,0.708,0.756c0,0.42-0.276,0.744-0.708,0.744H97.739z"/>
			<path d="M7.032,34.745C6.972,33.617,6.9,32.249,6.9,31.253H6.876c-0.288,0.936-0.612,1.956-1.02,3.072l-1.428,3.924H3.636
				l-1.32-3.852c-0.384-1.152-0.696-2.184-0.924-3.144H1.368c-0.024,1.008-0.084,2.352-0.156,3.576l-0.216,3.468H0l0.564-8.088
				h1.332l1.38,3.912c0.336,0.996,0.6,1.884,0.816,2.724h0.024c0.216-0.816,0.504-1.704,0.864-2.724l1.44-3.912h1.332l0.504,8.088
				H7.224L7.032,34.745z"/>
			<path d="M13.992,36.905c0,0.504,0.024,0.996,0.084,1.392h-0.948l-0.096-0.732h-0.036c-0.312,0.456-0.948,0.864-1.776,0.864
				c-1.176,0-1.776-0.828-1.776-1.668c0-1.404,1.248-2.172,3.492-2.16v-0.12c0-0.48-0.132-1.356-1.32-1.344
				c-0.552,0-1.116,0.156-1.524,0.432l-0.24-0.708c0.48-0.3,1.188-0.504,1.92-0.504c1.788,0,2.22,1.212,2.22,2.376V36.905z
				 M12.96,35.333c-1.152-0.024-2.46,0.18-2.46,1.308c0,0.696,0.456,1.008,0.984,1.008c0.768,0,1.26-0.48,1.428-0.972
				c0.036-0.108,0.048-0.228,0.048-0.336V35.333z"/>
			<path d="M14.256,40.001c0.492-0.036,0.9-0.168,1.152-0.444c0.288-0.324,0.408-0.792,0.408-2.184v-4.884h1.056v5.292
				c0,1.128-0.18,1.86-0.696,2.388c-0.468,0.468-1.236,0.66-1.8,0.66L14.256,40.001z M16.32,31.421c-0.396,0-0.66-0.312-0.66-0.684
				s0.276-0.672,0.684-0.672c0.408,0,0.672,0.3,0.672,0.672s-0.252,0.684-0.684,0.684H16.32z"/>
			<path d="M20.964,38.429c-1.56,0-2.784-1.152-2.784-2.988c0-1.944,1.284-3.084,2.88-3.084c1.668,0,2.796,1.212,2.796,2.976
				c0,2.16-1.5,3.096-2.88,3.096H20.964z M21,37.637c1.008,0,1.764-0.948,1.764-2.268c0-0.984-0.492-2.22-1.74-2.22
				c-1.236,0-1.776,1.152-1.776,2.256c0,1.272,0.72,2.232,1.74,2.232H21z"/>
			<path d="M25.2,34.301c0-0.684-0.012-1.272-0.048-1.812h0.924l0.048,1.14h0.036c0.264-0.78,0.912-1.272,1.62-1.272
				c0.108,0,0.192,0.012,0.288,0.036v0.984c-0.12-0.012-0.228-0.024-0.372-0.024c-0.744,0-1.272,0.564-1.416,1.344
				c-0.024,0.156-0.036,0.324-0.036,0.504v3.096h-1.056L25.2,34.301z"/>
			<path d="M31.56,37.025c0.468,0.3,1.14,0.528,1.86,0.528c1.068,0,1.692-0.552,1.692-1.38c0-0.744-0.432-1.188-1.524-1.596
				c-1.32-0.48-2.136-1.176-2.136-2.304c0-1.26,1.044-2.196,2.616-2.196c0.816,0,1.428,0.192,1.776,0.396l-0.288,0.852
				c-0.252-0.156-0.792-0.384-1.524-0.384c-1.104,0-1.524,0.66-1.524,1.212c0,0.756,0.492,1.128,1.608,1.56
				c1.368,0.54,2.052,1.188,2.052,2.376c0,1.248-0.912,2.34-2.82,2.34c-0.78,0-1.632-0.24-2.064-0.528L31.56,37.025z"/>
			<path d="M41.711,38.093c-0.276,0.132-0.888,0.336-1.668,0.336c-1.752,0-2.892-1.188-2.892-2.976c0-1.788,1.224-3.096,3.12-3.096
				c0.624,0,1.176,0.156,1.464,0.312l-0.24,0.804c-0.252-0.132-0.648-0.276-1.224-0.276c-1.332,0-2.052,0.996-2.052,2.208
				c0,1.344,0.864,2.172,2.016,2.172c0.6,0,0.996-0.144,1.296-0.276L41.711,38.093z"/>
			<path d="M47.052,36.905c0,0.504,0.024,0.996,0.084,1.392h-0.948l-0.096-0.732h-0.036c-0.312,0.456-0.948,0.864-1.776,0.864
				c-1.176,0-1.776-0.828-1.776-1.668c0-1.404,1.248-2.172,3.492-2.16v-0.12c0-0.48-0.132-1.356-1.32-1.344
				c-0.552,0-1.116,0.156-1.524,0.432l-0.24-0.708c0.48-0.3,1.188-0.504,1.92-0.504c1.788,0,2.22,1.212,2.22,2.376V36.905z
				 M46.02,35.333c-1.152-0.024-2.46,0.18-2.46,1.308c0,0.696,0.456,1.008,0.984,1.008c0.768,0,1.26-0.48,1.428-0.972
				c0.036-0.108,0.048-0.228,0.048-0.336V35.333z"/>
			<path d="M48.744,29.777h1.056v8.52h-1.056V29.777z"/>
			<path d="M52.151,35.573c0.024,1.428,0.924,2.016,1.98,2.016c0.756,0,1.224-0.132,1.608-0.288l0.192,0.744
				c-0.372,0.168-1.02,0.372-1.944,0.372c-1.776,0-2.856-1.188-2.856-2.928c0-1.764,1.044-3.144,2.736-3.144
				c1.896,0,2.388,1.668,2.388,2.736c0,0.216-0.012,0.384-0.036,0.504L52.151,35.573z M55.235,34.817
				c0.012-0.66-0.276-1.716-1.452-1.716c-1.08,0-1.536,0.984-1.62,1.716H55.235z"/>
			<path d="M60.143,30.317c0.504-0.096,1.164-0.168,2.004-0.168c1.032,0,1.788,0.24,2.268,0.672c0.444,0.384,0.72,0.972,0.72,1.692
				c0,0.732-0.216,1.308-0.636,1.728c-0.552,0.588-1.452,0.888-2.472,0.888c-0.312,0-0.6-0.012-0.84-0.072v3.24h-1.044V30.317z
				 M61.187,34.205c0.228,0.06,0.528,0.084,0.864,0.084c1.272,0,2.028-0.624,2.028-1.716c0-1.08-0.756-1.596-1.908-1.596
				c-0.456,0-0.804,0.048-0.984,0.084V34.205z"/>
			<path d="M70.271,36.905c0,0.504,0.024,0.996,0.084,1.392h-0.948l-0.096-0.732h-0.036c-0.312,0.456-0.948,0.864-1.776,0.864
				c-1.176,0-1.776-0.828-1.776-1.668c0-1.404,1.248-2.172,3.492-2.16v-0.12c0-0.48-0.132-1.356-1.32-1.344
				c-0.552,0-1.116,0.156-1.524,0.432l-0.24-0.708c0.48-0.3,1.188-0.504,1.92-0.504c1.788,0,2.22,1.212,2.22,2.376V36.905z
				 M69.239,35.333c-1.152-0.024-2.46,0.18-2.46,1.308c0,0.696,0.456,1.008,0.984,1.008c0.768,0,1.26-0.48,1.428-0.972
				c0.036-0.108,0.048-0.228,0.048-0.336V35.333z"/>
			<path d="M73.187,31.097v1.392h1.512v0.804h-1.512v3.132c0,0.72,0.204,1.128,0.792,1.128c0.288,0,0.456-0.024,0.612-0.072
				l0.048,0.804c-0.204,0.072-0.528,0.144-0.936,0.144c-0.492,0-0.888-0.168-1.14-0.444c-0.288-0.324-0.408-0.84-0.408-1.524v-3.168
				h-0.9v-0.804h0.9v-1.068L73.187,31.097z"/>
			<path d="M77.159,31.097v1.392h1.512v0.804h-1.512v3.132c0,0.72,0.204,1.128,0.792,1.128c0.288,0,0.456-0.024,0.612-0.072
				l0.048,0.804c-0.204,0.072-0.528,0.144-0.936,0.144c-0.492,0-0.888-0.168-1.14-0.444c-0.288-0.324-0.408-0.84-0.408-1.524v-3.168
				h-0.9v-0.804h0.9v-1.068L77.159,31.097z"/>
			<path d="M80.387,35.573c0.024,1.428,0.924,2.016,1.98,2.016c0.756,0,1.224-0.132,1.608-0.288l0.192,0.744
				c-0.372,0.168-1.02,0.372-1.944,0.372c-1.776,0-2.856-1.188-2.856-2.928c0-1.764,1.044-3.144,2.736-3.144
				c1.896,0,2.388,1.668,2.388,2.736c0,0.216-0.012,0.384-0.036,0.504L80.387,35.573z M83.471,34.817
				c0.012-0.66-0.276-1.716-1.452-1.716c-1.08,0-1.536,0.984-1.62,1.716H83.471z"/>
			<path d="M85.811,34.301c0-0.684-0.012-1.272-0.048-1.812h0.924l0.048,1.14h0.036c0.264-0.78,0.912-1.272,1.62-1.272
				c0.108,0,0.192,0.012,0.288,0.036v0.984c-0.12-0.012-0.228-0.024-0.372-0.024c-0.744,0-1.272,0.564-1.416,1.344
				c-0.024,0.156-0.036,0.324-0.036,0.504v3.096h-1.056L85.811,34.301z"/>
			<path d="M89.771,34.061c0-0.612-0.012-1.092-0.048-1.572h0.936l0.06,0.948h0.024c0.288-0.54,0.96-1.08,1.92-1.08
				c0.804,0,2.052,0.48,2.052,2.472v3.468h-1.056v-3.348c0-0.936-0.348-1.728-1.344-1.728c-0.684,0-1.224,0.492-1.416,1.08
				c-0.048,0.132-0.072,0.324-0.072,0.492v3.504h-1.056V34.061z"/>
			<path d="M96.875,38.429c-0.408,0-0.696-0.324-0.696-0.744c0-0.444,0.3-0.756,0.708-0.756c0.432,0,0.708,0.312,0.708,0.756
				c0,0.42-0.276,0.744-0.708,0.744H96.875z M96.887,34.193c-0.408,0-0.696-0.324-0.696-0.744c0-0.444,0.3-0.756,0.708-0.756
				c0.432,0,0.708,0.312,0.708,0.756c0,0.42-0.276,0.744-0.708,0.744H96.887z"/>
		</g>
		<g>
			<path fill="#FF0000" d="M387.629,45.732c-0.014-0.441-0.251-0.82-0.712-1.136s-1.129-0.538-2.005-0.669
				c-0.875-0.13-2.557-0.2-5.043-0.211c-2.433-0.01-4.05-0.047-4.853-0.109c-1.297-0.088-2.373-0.287-3.229-0.598
				c-0.628-0.223-1.082-0.521-1.363-0.896c-0.28-0.375-0.421-0.881-0.421-1.519v-0.55h3.125v0.312c0,0.671,0.245,1.12,0.733,1.348
				c0.489,0.228,1.618,0.341,3.386,0.341c3.698,0,6.043,0.063,7.033,0.188c1.34,0.126,2.368,0.33,3.085,0.613
				s1.356,0.704,1.919,1.262c0.605-0.678,1.534-1.181,2.784-1.509c1.251-0.327,3.349-0.491,6.294-0.491
				c2.972,0,4.706-0.063,5.204-0.188c0.713-0.078,1.214-0.223,1.503-0.434s0.434-0.59,0.434-1.137v-0.305h3.125v0.539
				c0,0.672-0.145,1.176-0.432,1.512c-0.289,0.336-0.708,0.609-1.257,0.82c-0.75,0.289-1.628,0.477-2.633,0.563
				c-1.006,0.086-2.861,0.15-5.567,0.191c-2.492,0.042-4.184,0.13-5.075,0.264c-0.891,0.135-1.561,0.355-2.01,0.663
				s-0.687,0.687-0.714,1.136H387.629z"/>
		</g>
		<g>
			<path fill="#FF0000" d="M133.639,19.222c-0.014-0.441-0.251-0.82-0.712-1.136s-1.129-0.538-2.005-0.669
				c-0.875-0.13-2.557-0.2-5.043-0.211c-2.433-0.01-4.05-0.047-4.853-0.109c-1.297-0.088-2.373-0.287-3.229-0.598
				c-0.628-0.223-1.082-0.521-1.363-0.896c-0.28-0.375-0.421-0.881-0.421-1.519v-0.55h3.125v0.312c0,0.671,0.245,1.12,0.733,1.348
				c0.489,0.228,1.618,0.341,3.386,0.341c3.698,0,6.043,0.063,7.033,0.188c1.34,0.126,2.368,0.33,3.085,0.613
				s1.356,0.704,1.919,1.262c0.605-0.678,1.534-1.181,2.784-1.509c1.251-0.327,3.349-0.491,6.294-0.491
				c2.972,0,4.706-0.063,5.204-0.188c0.713-0.078,1.214-0.223,1.503-0.434s0.434-0.59,0.434-1.137v-0.305h3.125v0.539
				c0,0.672-0.145,1.176-0.432,1.512c-0.289,0.336-0.708,0.609-1.257,0.82c-0.75,0.289-1.628,0.477-2.633,0.563
				c-1.006,0.086-2.861,0.15-5.567,0.191c-2.492,0.042-4.184,0.13-5.075,0.264c-0.891,0.135-1.561,0.355-2.01,0.663
				s-0.687,0.687-0.714,1.136H133.639z"/>
		</g>
		<g>
			<g>
				<path fill="none" d="M142.7,44.69c4,3,8,6,13,8c7,3,14,4,22,5c13,2,27,2,41,3c8,0,17,1,25,0c8,0,16-1,23-2c21-1,41-3,61-4
					c15-1,30-3,45-5"/>
				<path fill="#FF0000" d="M142.272,45.302c7.142,5.344,14.211,9.13,22.959,11.161c8.753,2.032,17.982,2.853,26.928,3.503
					c19.057,1.385,38.115,2.144,57.196,1.312c9.749-0.425,19.439-1.902,29.188-2.507c10.174-0.632,20.337-1.447,30.505-2.176
					c21.375-1.532,42.528-3.337,63.781-6.169c0.955-0.127,0.691-1.596-0.26-1.47c-19.367,2.582-38.644,4.492-58.135,5.779
					c-19.378,1.28-38.803,2.442-58.098,4.508c-19.426,2.079-38.994,0.61-58.442-0.42c-9.142-0.484-18.206-1.48-27.255-2.856
					c-10.474-1.593-19.081-5.579-27.513-11.887C142.356,43.502,141.502,44.726,142.272,45.302z"/>
			</g>
		</g>
		<g>
			<g>
				<path fill="none" d="M142.7,44.69c-2-2-4-4-4-6"/>
				<path fill="#FF0000" d="M143.269,44.208c-1.525-1.527-3.708-3.332-3.834-5.646c-0.052-0.959-1.521-0.689-1.47,0.259
					c0.143,2.61,2.448,4.633,4.166,6.354C142.805,45.849,143.951,44.89,143.269,44.208z"/>
			</g>
		</g>
		<g>
			<g>
				<path fill="none" d="M133.7,41.69c1,0,3-1,4-2"/>
				<path fill="#FF0000" d="M133.829,42.425c1.557-0.07,3.256-1.118,4.354-2.166c0.692-0.661-0.268-1.805-0.966-1.138
					c-0.932,0.89-2.322,1.775-3.646,1.834C132.611,40.999,132.882,42.468,133.829,42.425z"/>
			</g>
		</g>
		<g>
			<g>
				<path fill="none" d="M137.7,37.69c4,2,6,3,10,3"/>
				<path fill="#FF0000" d="M137.441,38.39c3.338,1.667,6.407,2.986,10.188,3.043c0.957,0.014,1.102-1.472,0.141-1.486
					c-3.652-0.055-6.597-1.351-9.812-2.957C137.097,36.56,136.59,37.965,137.441,38.39z"/>
			</g>
		</g>
	</g>
</svg>
