<?xml version="1.0" encoding="utf-8"?>
<!-- Generator: Adobe Illustrator 10.0, SVG Export Plug-In . SVG Version: 3.0.0 Build 76)  -->
<!DOCTYPE svg PUBLIC "-//W3C//DTD SVG 1.0//EN"    "http://www.w3.org/TR/2001/REC-SVG-20010904/DTD/svg10.dtd" [
	<!ENTITY ns_flows "http://ns.adobe.com/Flows/1.0/">
	<!ENTITY ns_extend "http://ns.adobe.com/Extensibility/1.0/">
	<!ENTITY ns_ai "http://ns.adobe.com/AdobeIllustrator/10.0/">
	<!ENTITY ns_svg "http://www.w3.org/2000/svg">
	<!ENTITY ns_xlink "http://www.w3.org/1999/xlink">
]>
<svg  xmlns:x="&ns_extend;" xmlns:i="&ns_ai;" xmlns:graph="&ns_graphs;"
	 xmlns="&ns_svg;" xmlns:xlink="&ns_xlink;" xmlns:a="http://ns.adobe.com/AdobeSVGViewerExtensions/3.0/" width="314" height="196"
	 viewBox="0.2 0.256 314 196" overflow="visible" enable-background="new 0.2 0.256 314 196" xml:space="preserve">
	<g id="Layer_1_2_">
		<g>
			<path fill="none" stroke="#000000" d="M1.06,8.421h221.684"/>
			<path fill="none" stroke="#000000" d="M1.06,23.533h221.684"/>
			<path fill="none" stroke="#000000" d="M1.169,30.656h221.685"/>
			<path fill="none" stroke="#000000" d="M1,38.04h221.684"/>
			<path fill="none" stroke="#000000" d="M1,15.675h221.684"/>
		</g>
		<path fill="none" stroke="#0A0A0A" d="M116.9,8.571v29.746"/>
		<g>
			<path d="M137.502,21.991c-1.295,0-2.209-0.972-2.209-2.268s0.952-2.268,2.285-2.268c1.333,0,2.247,0.936,2.247,2.268
				c0,1.296-0.914,2.268-2.285,2.268H137.502z"/>
		</g>
		<g>
			<path d="M36.448,21.16c-2.448,0-4.272-1.2-4.272-3.168c0-0.84,0.816-1.728,1.68-1.728c0.888,0,1.824,0.528,1.824,1.536
				c0,1.224-0.936,1.368-0.864,2.232c0.024,0.216,0.72,0.6,0.96,0.6c1.608,0,2.376-1.848,2.376-2.928
				c0-2.064-1.896-1.848-3.432-2.16c0-0.048,0.024-0.648,0.024-0.624c1.56-0.192,3.072-0.72,3.048-2.52
				c-0.024-2.52-2.016-2.352-2.328-2.352c-0.168,0-0.696,0.336-0.672,0.6c0.072,0.528,0.816,0.768,1.128,1.704
				c0.312,0.912-0.768,1.92-1.68,1.92c-1.056,0-1.848-1.176-1.848-1.776c0-1.392,1.104-3.144,4.848-3.144
				c1.632,0,3.432,1.128,3.432,2.904c0,2.352-2.76,2.52-2.76,2.856c1.392,0.144,3.24,0.672,3.24,2.52
				C41.152,20.08,38.2,21.16,36.448,21.16z"/>
		</g>
		<g>
			<path d="M39.192,33.896v1.584c0,0.96,1.128,0.936,1.128,0.936v0.624h-5.208v-0.624c0,0,1.176,0.048,1.152-0.888v-1.632h-4.44
				l-0.432-0.456c2.904-3.912,2.928-4.632,3.624-8.184h4.152c-0.984,1.824-4.296,5.256-6.624,7.968h3.72v-2.952l2.928-3.216v6.168
				h1.728v0.672H39.192z"/>
		</g>
		<g>
			<path d="M22.232,4.512V0.6h0.696v3.672l2.352-0.768V0h0.696v3.288l0.936-0.312v2.496l-0.936,0.312v3.552l0.936-0.288v2.472
				l-0.936,0.312v3.912H25.28v-3.696l-2.352,0.768v3.552h-0.696v-3.312L21.2,13.392v-2.496l1.032-0.336V6.984L21.2,7.32V4.848
				L22.232,4.512z M22.928,6.768v3.576l2.352-0.768V6L22.928,6.768z"/>
		</g>
		<g>
			<path d="M8.428,37.186c-4.944-2.352-5.736-5.376-5.952-8.472c-0.24-3.36,1.896-6.768,3.888-8.664
				c1.152-1.08,2.4-2.136,3.888-3.264c-0.048-0.84-0.24-1.176-0.336-2.376c-0.024-0.504-0.336-2.856,0.168-5.568
				c0.312-1.608,2.328-5.4,3.72-5.424c1.08-0.024,2.736,4.296,2.784,6.456c0.072,3.336-0.72,4.848-1.704,6.576
				c-0.504,0.864-1.032,1.464-1.584,2.136c-0.576,0.696-1.224,1.104-1.824,1.632c0,0,0.768,4.344,0.792,4.656
				c1.536-0.192,3.408,0.36,4.08,0.84c1.704,1.272,2.352,3.024,2.472,4.728c0.216,2.712-1.272,5.568-4.56,6.936
				c0,0,0.504,3.456,0.624,4.176c0.264,1.896,0.216,3.096-0.192,3.864c-0.696,1.296-1.824,2.496-4.008,2.64
				c-1.68,0.096-4.992-0.744-5.16-3.384c-0.096-1.56,0.6-3.24,2.496-3.36c1.152-0.096,2.52,0.864,2.616,2.232
				c0.096,1.176-0.672,2.4-2.664,2.952c0.312,0.432,1.248,0.936,2.592,0.936c1.392,0,2.832-0.936,3.528-2.184
				c0.432-0.816,0.384-2.28,0.216-3.624c-0.072-0.456-0.648-4.08-0.648-4.08C11.884,37.833,9.436,37.666,8.428,37.186z
				 M8.908,31.498c0.048,1.152,1.008,2.496,1.896,2.952c-0.12,0.072-0.24,0.264-0.24,0.264c-0.984-0.48-1.824-1.272-2.04-1.56
				c-0.696-0.936-0.984-1.464-1.08-2.88c-0.096-1.32,0.624-3.096,2.232-4.344c0.84-0.624,1.248-0.768,1.968-0.936l-0.72-4.344
				c-0.744,0.432-3.816,2.904-5.112,4.92c-1.152,1.8-1.848,3.24-1.704,5.016c0.288,4.008,4.68,7.296,9.432,6.168
				c0,0-1.416-8.52-1.392-8.52C9.532,28.33,8.835,30.346,8.908,31.498z M10.852,16.281c2.088-1.632,4.92-4.704,4.752-7.08
				c-0.048-0.744-0.36-2.088-1.44-2.064C11.692,7.161,10.3,12.321,10.852,16.281z M14.116,36.562c2.76-0.936,2.88-3.312,2.784-4.728
				c-0.096-1.176-0.624-3.816-4.128-3.648L14.116,36.562z"/>
		</g>
		<g>
			<path d="M54.096,54.088c0.984,0,1.776,0.36,2.232,0.912V35.776h0.456v20.4c0,0.336-0.048,0.672-0.168,1.056
				c-0.648,1.704-2.784,3.072-4.8,3.048c-2.016-0.024-3.144-1.44-2.52-3.144S52.08,54.064,54.096,54.088z"/>
		</g>
		<g>
			<path fill="none" stroke="#000000" d="M48.2,53.256h12"/>
			<path fill="none" stroke="#000000" d="M47.866,46.256h12"/>
		</g>
		<g>
			<path d="M78.096,39.088c0.984,0,1.776,0.36,2.232,0.912V20.776h0.456v20.4c0,0.336-0.048,0.672-0.168,1.056
				c-0.648,1.704-2.784,3.072-4.8,3.048c-2.016-0.024-3.144-1.44-2.52-3.144S76.08,39.064,78.096,39.088z"/>
		</g>
		<g>
			<path d="M78.096,27.088c0.984,0,1.776,0.36,2.232,0.912V8.776h0.456v20.4c0,0.336-0.048,0.672-0.168,1.056
				c-0.648,1.704-2.784,3.072-4.8,3.048c-2.016-0.024-3.144-1.44-2.52-3.144S76.08,27.064,78.096,27.088z"/>
		</g>
		<g>
			<path d="M78.096,20.088c0.984,0,1.776,0.36,2.232,0.912V1.776h0.456v20.4c0,0.336-0.048,0.672-0.168,1.056
				c-0.648,1.704-2.784,3.072-4.8,3.048c-2.016-0.024-3.144-1.44-2.52-3.144S76.08,20.064,78.096,20.088z"/>
		</g>
		<g>
			<path d="M98.096,39.088c0.984,0,1.776,0.36,2.232,0.912V20.776h0.456v20.4c0,0.336-0.048,0.672-0.168,1.056
				c-0.648,1.704-2.784,3.072-4.8,3.048c-2.016-0.024-3.144-1.44-2.52-3.144S96.08,39.064,98.096,39.088z"/>
		</g>
		<g>
			<path d="M98.096,27.088c0.984,0,1.776,0.36,2.232,0.912V8.776h0.456v20.4c0,0.336-0.048,0.672-0.168,1.056
				c-0.648,1.704-2.784,3.072-4.8,3.048c-2.016-0.024-3.144-1.44-2.52-3.144S96.08,27.064,98.096,27.088z"/>
		</g>
		<g>
			<path d="M98.096,20.088c0.984,0,1.776,0.36,2.232,0.912V1.776h0.456v20.4c0,0.336-0.048,0.672-0.168,1.056
				c-0.648,1.704-2.784,3.072-4.8,3.048c-2.016-0.024-3.144-1.44-2.52-3.144S96.08,20.064,98.096,20.088z"/>
		</g>
		<path fill="none" stroke="#0A0A0A" d="M169.9,8.571v29.746"/>
		<path fill="none" stroke="#0A0A0A" d="M222.9,8.571v29.746"/>
		<path fill="none" stroke="#0A0A0A" stroke-width="3" d="M132.329,30.543l21.742-13.574"/>
		<g>
			<path d="M148.502,30.991c-1.295,0-2.209-0.972-2.209-2.268s0.952-2.268,2.285-2.268c1.333,0,2.247,0.936,2.247,2.268
				c0,1.296-0.914,2.268-2.285,2.268H148.502z"/>
		</g>
		<g>
			<path d="M188.502,21.991c-1.295,0-2.209-0.972-2.209-2.268s0.952-2.268,2.285-2.268c1.333,0,2.247,0.936,2.247,2.268
				c0,1.296-0.914,2.268-2.285,2.268H188.502z"/>
		</g>
		<path fill="none" stroke="#0A0A0A" stroke-width="3" d="M183.329,30.543l21.742-13.574"/>
		<g>
			<path d="M199.502,30.991c-1.295,0-2.209-0.972-2.209-2.268s0.952-2.268,2.285-2.268c1.333,0,2.247,0.936,2.247,2.268
				c0,1.296-0.914,2.268-2.285,2.268H199.502z"/>
		</g>
		<g>
			<path fill="none" stroke="#000000" d="M0.084,111.421H314.2"/>
			<path fill="none" stroke="#000000" d="M0.084,126.533H314.2"/>
			<path fill="none" stroke="#000000" d="M0.24,133.656h314.116"/>
			<path fill="none" stroke="#000000" d="M0,141.04h314.115"/>
			<path fill="none" stroke="#000000" d="M0,118.675h314.115"/>
		</g>
		<path fill="none" stroke="#0A0A0A" d="M184.9,111.571v29.746"/>
		<g>
			<path d="M238.502,120.991c-1.295,0-2.209-0.972-2.209-2.268s0.952-2.268,2.285-2.268s2.247,0.936,2.247,2.268
				c0,1.296-0.914,2.268-2.285,2.268H238.502z"/>
		</g>
		<g>
			<path d="M30.448,124.16c-2.448,0-4.272-1.2-4.272-3.168c0-0.84,0.816-1.728,1.68-1.728c0.888,0,1.824,0.528,1.824,1.536
				c0,1.224-0.936,1.368-0.864,2.232c0.024,0.216,0.72,0.6,0.96,0.6c1.608,0,2.376-1.848,2.376-2.928
				c0-2.064-1.896-1.848-3.432-2.16c0-0.048,0.024-0.648,0.024-0.624c1.56-0.192,3.072-0.72,3.048-2.52
				c-0.024-2.52-2.016-2.352-2.328-2.352c-0.168,0-0.696,0.336-0.672,0.6c0.072,0.528,0.816,0.768,1.128,1.704
				c0.312,0.912-0.768,1.92-1.68,1.92c-1.056,0-1.848-1.176-1.848-1.776c0-1.392,1.104-3.144,4.848-3.144
				c1.632,0,3.432,1.128,3.432,2.904c0,2.352-2.76,2.52-2.76,2.856c1.392,0.144,3.24,0.672,3.24,2.52
				C35.152,123.08,32.2,124.16,30.448,124.16z"/>
		</g>
		<g>
			<path d="M33.192,136.896v1.584c0,0.96,1.128,0.936,1.128,0.936v0.624h-5.208v-0.624c0,0,1.176,0.048,1.152-0.888v-1.632h-4.44
				l-0.432-0.456c2.904-3.912,2.928-4.632,3.624-8.184h4.152c-0.984,1.824-4.296,5.256-6.624,7.968h3.72v-2.952l2.928-3.216v6.168
				h1.728v0.672H33.192z"/>
		</g>
		<g>
			<path d="M8.428,140.186c-4.944-2.352-5.736-5.376-5.952-8.472c-0.24-3.36,1.896-6.768,3.888-8.664
				c1.152-1.08,2.4-2.136,3.888-3.264c-0.048-0.84-0.24-1.176-0.336-2.376c-0.024-0.504-0.336-2.856,0.168-5.568
				c0.312-1.608,2.328-5.4,3.72-5.424c1.08-0.024,2.736,4.296,2.784,6.456c0.072,3.336-0.72,4.848-1.704,6.576
				c-0.504,0.864-1.032,1.464-1.584,2.136c-0.576,0.696-1.224,1.104-1.824,1.632c0,0,0.768,4.344,0.792,4.656
				c1.536-0.192,3.408,0.36,4.08,0.84c1.704,1.272,2.352,3.024,2.472,4.728c0.216,2.712-1.272,5.568-4.56,6.936
				c0,0,0.504,3.456,0.624,4.176c0.264,1.896,0.216,3.096-0.192,3.864c-0.696,1.296-1.824,2.496-4.008,2.64
				c-1.68,0.096-4.992-0.744-5.16-3.384c-0.096-1.56,0.6-3.24,2.496-3.36c1.152-0.096,2.52,0.864,2.616,2.232
				c0.096,1.176-0.672,2.4-2.664,2.952c0.312,0.432,1.248,0.936,2.592,0.936c1.392,0,2.832-0.936,3.528-2.184
				c0.432-0.816,0.384-2.28,0.216-3.624c-0.072-0.456-0.648-4.08-0.648-4.08C11.884,140.833,9.436,140.666,8.428,140.186z
				 M8.908,134.498c0.048,1.152,1.008,2.496,1.896,2.952c-0.12,0.072-0.24,0.264-0.24,0.264c-0.984-0.48-1.824-1.272-2.04-1.56
				c-0.696-0.936-0.984-1.464-1.08-2.88c-0.096-1.32,0.624-3.096,2.232-4.344c0.84-0.624,1.248-0.768,1.968-0.936l-0.72-4.344
				c-0.744,0.432-3.816,2.904-5.112,4.92c-1.152,1.8-1.848,3.24-1.704,5.016c0.288,4.008,4.68,7.296,9.432,6.168
				c0,0-1.416-8.52-1.392-8.52C9.532,131.33,8.835,133.346,8.908,134.498z M10.852,119.281c2.088-1.632,4.92-4.704,4.752-7.08
				c-0.048-0.744-0.36-2.088-1.44-2.064C11.692,110.161,10.3,115.321,10.852,119.281z M14.116,139.562
				c2.76-0.936,2.88-3.312,2.784-4.728c-0.096-1.176-0.624-3.816-4.128-3.648L14.116,139.562z"/>
		</g>
		<g>
			<path d="M122.096,157.088c0.984,0,1.776,0.36,2.232,0.912v-19.224h0.456v20.4c0,0.336-0.048,0.672-0.168,1.056
				c-0.648,1.704-2.784,3.072-4.8,3.048c-2.016-0.024-3.144-1.44-2.52-3.144S120.08,157.064,122.096,157.088z"/>
		</g>
		<g>
			<path fill="none" stroke="#000000" d="M116.2,156.256h12"/>
			<path fill="none" stroke="#000000" d="M115.866,149.256h12"/>
		</g>
		<g>
			<path d="M146.096,142.088c0.984,0,1.776,0.36,2.232,0.912v-19.224h0.456v20.4c0,0.336-0.048,0.672-0.168,1.056
				c-0.648,1.704-2.784,3.072-4.8,3.048c-2.016-0.024-3.144-1.44-2.52-3.144S144.08,142.064,146.096,142.088z"/>
		</g>
		<g>
			<path d="M146.096,130.088c0.984,0,1.776,0.36,2.232,0.912v-19.224h0.456v20.4c0,0.336-0.048,0.672-0.168,1.056
				c-0.648,1.704-2.784,3.072-4.8,3.048c-2.016-0.024-3.144-1.44-2.52-3.144S144.08,130.064,146.096,130.088z"/>
		</g>
		<g>
			<path d="M146.096,123.088c0.984,0,1.776,0.36,2.232,0.912v-19.224h0.456v20.4c0,0.336-0.048,0.672-0.168,1.056
				c-0.648,1.704-2.784,3.072-4.8,3.048c-2.016-0.024-3.144-1.44-2.52-3.144S144.08,123.064,146.096,123.088z"/>
		</g>
		<g>
			<path d="M166.096,142.088c0.984,0,1.776,0.36,2.232,0.912v-19.224h0.456v20.4c0,0.336-0.048,0.672-0.168,1.056
				c-0.648,1.704-2.784,3.072-4.8,3.048c-2.016-0.024-3.144-1.44-2.52-3.144S164.08,142.064,166.096,142.088z"/>
		</g>
		<g>
			<path d="M166.096,130.088c0.984,0,1.776,0.36,2.232,0.912v-19.224h0.456v20.4c0,0.336-0.048,0.672-0.168,1.056
				c-0.648,1.704-2.784,3.072-4.8,3.048c-2.016-0.024-3.144-1.44-2.52-3.144S164.08,130.064,166.096,130.088z"/>
		</g>
		<g>
			<path d="M166.096,123.088c0.984,0,1.776,0.36,2.232,0.912v-19.224h0.456v20.4c0,0.336-0.048,0.672-0.168,1.056
				c-0.648,1.704-2.784,3.072-4.8,3.048c-2.016-0.024-3.144-1.44-2.52-3.144S164.08,123.064,166.096,123.088z"/>
		</g>
		<path fill="none" stroke="#0A0A0A" d="M108.9,112.571v29.746"/>
		<path fill="none" stroke="#0A0A0A" d="M313.901,110.571v29.746"/>
		<path fill="none" stroke="#0A0A0A" stroke-width="3" d="M232.329,130.543l21.742-13.574"/>
		<path fill="none" stroke="#0A0A0A" stroke-width="3" d="M235.329,135.543l21.742-13.574"/>
		<g>
			<path d="M253.502,136.991c-1.295,0-2.209-0.972-2.209-2.268s0.952-2.268,2.285-2.268s2.247,0.936,2.247,2.268
				c0,1.296-0.914,2.268-2.285,2.268H253.502z"/>
		</g>
		<g>
			<path d="M48.096,144.088c0.984,0,1.776,0.36,2.232,0.912v-19.224h0.456v20.4c0,0.336-0.048,0.672-0.168,1.056
				c-0.648,1.704-2.784,3.072-4.8,3.048c-2.016-0.024-3.144-1.44-2.52-3.144S46.08,144.064,48.096,144.088z"/>
		</g>
		<path fill="none" stroke="#000000" d="M41.866,147.256h12"/>
		<g>
			<path d="M70.096,138.088c0.984,0,1.776,0.36,2.232,0.912v-19.224h0.456v20.4c0,0.336-0.048,0.672-0.168,1.056
				c-0.648,1.704-2.784,3.072-4.8,3.048c-2.016-0.024-3.144-1.44-2.52-3.144S68.08,138.064,70.096,138.088z"/>
		</g>
		<g>
			<path d="M70.096,130.088c0.984,0,1.776,0.36,2.232,0.912v-19.224h0.456v20.4c0,0.336-0.048,0.672-0.168,1.056
				c-0.648,1.704-2.784,3.072-4.8,3.048c-2.016-0.024-3.144-1.44-2.52-3.144S68.08,130.064,70.096,130.088z"/>
		</g>
		<g>
			<path d="M70.096,119.088c0.984,0,1.776,0.36,2.232,0.912v-19.224h0.456v20.4c0,0.336-0.048,0.672-0.168,1.056
				c-0.648,1.704-2.784,3.072-4.8,3.048c-2.016-0.024-3.144-1.44-2.52-3.144S68.08,119.064,70.096,119.088z"/>
		</g>
		<g>
			<path d="M90.096,138.088c0.984,0,1.776,0.36,2.232,0.912v-19.224h0.456v20.4c0,0.336-0.048,0.672-0.168,1.056
				c-0.648,1.704-2.784,3.072-4.8,3.048c-2.016-0.024-3.144-1.44-2.52-3.144S88.08,138.064,90.096,138.088z"/>
		</g>
		<g>
			<path d="M90.096,130.088c0.984,0,1.776,0.36,2.232,0.912v-19.224h0.456v20.4c0,0.336-0.048,0.672-0.168,1.056
				c-0.648,1.704-2.784,3.072-4.8,3.048c-2.016-0.024-3.144-1.44-2.52-3.144S88.08,130.064,90.096,130.088z"/>
		</g>
		<g>
			<path d="M90.096,119.088c0.984,0,1.776,0.36,2.232,0.912v-19.224h0.456v20.4c0,0.336-0.048,0.672-0.168,1.056
				c-0.648,1.704-2.784,3.072-4.8,3.048c-2.016-0.024-3.144-1.44-2.52-3.144S88.08,119.064,90.096,119.088z"/>
		</g>
		<path fill="none" stroke="#0A0A0A" d="M245.901,111.571v29.746"/>
		<g>
			<path d="M115.445,81.621c0.528-0.108,1.296-0.18,2.004-0.18c1.116,0,1.848,0.216,2.352,0.672c0.396,0.348,0.636,0.9,0.636,1.536
				c0,1.056-0.684,1.764-1.524,2.052v0.036c0.612,0.216,0.984,0.792,1.188,1.632c0.264,1.128,0.456,1.908,0.612,2.22h-1.08
				c-0.132-0.228-0.312-0.924-0.528-1.932c-0.24-1.116-0.684-1.536-1.632-1.572h-0.984v3.504h-1.044V81.621z M116.489,85.293h1.068
				c1.116,0,1.824-0.612,1.824-1.536c0-1.044-0.756-1.5-1.86-1.5c-0.504,0-0.852,0.048-1.032,0.096V85.293z"/>
			<path d="M122.501,86.865c0.024,1.428,0.924,2.016,1.98,2.016c0.756,0,1.224-0.132,1.608-0.288l0.192,0.744
				c-0.372,0.168-1.02,0.372-1.944,0.372c-1.776,0-2.856-1.188-2.856-2.928c0-1.764,1.044-3.144,2.736-3.144
				c1.896,0,2.388,1.668,2.388,2.736c0,0.216-0.012,0.384-0.036,0.504L122.501,86.865z M125.585,86.109
				c0.012-0.66-0.276-1.716-1.452-1.716c-1.08,0-1.536,0.984-1.62,1.716H125.585z"/>
			<path d="M127.913,85.677c0-0.744-0.012-1.344-0.048-1.896h0.948l0.06,0.996h0.024c0.42-0.72,1.116-1.128,2.052-1.128
				c1.416,0,2.472,1.188,2.472,2.952c0,2.088-1.284,3.12-2.64,3.12c-0.78,0-1.44-0.336-1.788-0.912h-0.024v3.156h-1.056V85.677z
				 M128.969,87.225c0,0.144,0.012,0.3,0.048,0.432c0.18,0.732,0.828,1.236,1.572,1.236c1.116,0,1.764-0.912,1.764-2.244
				c0-1.164-0.6-2.16-1.716-2.16c-0.72,0-1.404,0.504-1.608,1.296c-0.024,0.144-0.06,0.3-0.06,0.432V87.225z"/>
			<path d="M135.353,86.865c0.024,1.428,0.924,2.016,1.98,2.016c0.756,0,1.224-0.132,1.608-0.288l0.192,0.744
				c-0.372,0.168-1.02,0.372-1.944,0.372c-1.776,0-2.856-1.188-2.856-2.928c0-1.764,1.044-3.144,2.736-3.144
				c1.896,0,2.388,1.668,2.388,2.736c0,0.216-0.012,0.384-0.036,0.504L135.353,86.865z M138.437,86.109
				c0.012-0.66-0.276-1.716-1.452-1.716c-1.08,0-1.536,0.984-1.62,1.716H138.437z"/>
			<path d="M144.856,88.197c0,0.504,0.024,0.996,0.084,1.392h-0.948l-0.096-0.732h-0.036c-0.312,0.456-0.948,0.864-1.776,0.864
				c-1.176,0-1.776-0.828-1.776-1.668c0-1.404,1.248-2.172,3.492-2.16v-0.12c0-0.48-0.132-1.356-1.32-1.344
				c-0.552,0-1.116,0.156-1.524,0.432l-0.24-0.708c0.48-0.3,1.188-0.504,1.92-0.504c1.788,0,2.22,1.212,2.22,2.376V88.197z
				 M143.825,86.625c-1.152-0.024-2.46,0.18-2.46,1.308c0,0.696,0.456,1.008,0.984,1.008c0.768,0,1.26-0.48,1.428-0.972
				c0.036-0.108,0.048-0.228,0.048-0.336V86.625z"/>
			<path d="M147.772,82.389v1.392h1.512v0.804h-1.512v3.132c0,0.72,0.204,1.128,0.792,1.128c0.288,0,0.456-0.024,0.612-0.072
				l0.048,0.804c-0.204,0.072-0.528,0.144-0.936,0.144c-0.492,0-0.888-0.168-1.14-0.444c-0.288-0.324-0.408-0.84-0.408-1.524v-3.168
				h-0.9v-0.804h0.9v-1.068L147.772,82.389z"/>
			<path d="M154.289,82.389v1.392h1.512v0.804h-1.512v3.132c0,0.72,0.204,1.128,0.792,1.128c0.288,0,0.456-0.024,0.612-0.072
				l0.048,0.804c-0.204,0.072-0.528,0.144-0.936,0.144c-0.492,0-0.888-0.168-1.14-0.444c-0.288-0.324-0.408-0.84-0.408-1.524v-3.168
				h-0.9v-0.804h0.9v-1.068L154.289,82.389z"/>
			<path d="M156.988,81.069h1.056v3.624h0.024c0.168-0.3,0.432-0.576,0.756-0.744c0.312-0.192,0.684-0.3,1.08-0.3
				c0.78,0,2.028,0.48,2.028,2.484v3.456h-1.056v-3.336c0-0.948-0.348-1.728-1.344-1.728c-0.684,0-1.212,0.48-1.416,1.056
				c-0.06,0.144-0.072,0.3-0.072,0.504v3.504h-1.056V81.069z"/>
			<path d="M164.248,86.865c0.024,1.428,0.924,2.016,1.98,2.016c0.756,0,1.224-0.132,1.608-0.288l0.192,0.744
				c-0.372,0.168-1.02,0.372-1.944,0.372c-1.776,0-2.856-1.188-2.856-2.928c0-1.764,1.044-3.144,2.736-3.144
				c1.896,0,2.388,1.668,2.388,2.736c0,0.216-0.012,0.384-0.036,0.504L164.248,86.865z M167.332,86.109
				c0.012-0.66-0.276-1.716-1.452-1.716c-1.08,0-1.536,0.984-1.62,1.716H167.332z"/>
			<path d="M172.204,85.677c0-0.744-0.012-1.344-0.048-1.896h0.948l0.06,0.996h0.024c0.42-0.72,1.116-1.128,2.052-1.128
				c1.416,0,2.472,1.188,2.472,2.952c0,2.088-1.284,3.12-2.64,3.12c-0.78,0-1.44-0.336-1.788-0.912h-0.024v3.156h-1.056V85.677z
				 M173.26,87.225c0,0.144,0.012,0.3,0.048,0.432c0.18,0.732,0.828,1.236,1.572,1.236c1.116,0,1.764-0.912,1.764-2.244
				c0-1.164-0.6-2.16-1.716-2.16c-0.72,0-1.404,0.504-1.608,1.296c-0.024,0.144-0.06,0.3-0.06,0.432V87.225z"/>
			<path d="M179.044,85.593c0-0.684-0.012-1.272-0.048-1.812h0.924l0.048,1.14h0.036c0.264-0.78,0.912-1.272,1.62-1.272
				c0.108,0,0.192,0.012,0.288,0.036v0.984c-0.12-0.012-0.228-0.024-0.372-0.024c-0.744,0-1.272,0.564-1.416,1.344
				c-0.024,0.156-0.036,0.324-0.036,0.504v3.096h-1.056L179.044,85.593z"/>
			<path d="M183.484,86.865c0.024,1.428,0.924,2.016,1.98,2.016c0.756,0,1.224-0.132,1.608-0.288l0.192,0.744
				c-0.372,0.168-1.02,0.372-1.944,0.372c-1.776,0-2.856-1.188-2.856-2.928c0-1.764,1.044-3.144,2.736-3.144
				c1.896,0,2.388,1.668,2.388,2.736c0,0.216-0.012,0.384-0.036,0.504L183.484,86.865z M186.568,86.109
				c0.012-0.66-0.276-1.716-1.452-1.716c-1.08,0-1.536,0.984-1.62,1.716H186.568z"/>
			<path d="M189.28,83.781l1.14,3.252c0.192,0.54,0.348,1.02,0.468,1.5h0.036c0.132-0.48,0.3-0.96,0.492-1.5l1.128-3.252h1.104
				l-2.28,5.808h-1.008l-2.208-5.808H189.28z"/>
			<path d="M195.147,82.713c-0.396,0-0.66-0.312-0.66-0.684s0.276-0.672,0.684-0.672c0.408,0,0.672,0.3,0.672,0.672
				s-0.264,0.684-0.684,0.684H195.147z M194.644,89.589v-5.808h1.056v5.808H194.644z"/>
			<path d="M199.815,89.721c-1.56,0-2.784-1.152-2.784-2.988c0-1.944,1.284-3.084,2.88-3.084c1.668,0,2.796,1.212,2.796,2.976
				c0,2.16-1.5,3.096-2.88,3.096H199.815z M199.852,88.929c1.008,0,1.764-0.948,1.764-2.268c0-0.984-0.492-2.22-1.74-2.22
				c-1.236,0-1.776,1.152-1.776,2.256c0,1.272,0.72,2.232,1.74,2.232H199.852z"/>
			<path d="M208.899,88.005c0,0.6,0.012,1.128,0.048,1.584h-0.936l-0.06-0.948h-0.024c-0.264,0.468-0.888,1.08-1.92,1.08
				c-0.912,0-2.004-0.516-2.004-2.544v-3.396h1.056v3.204c0,1.104,0.348,1.86,1.296,1.86c0.708,0,1.2-0.492,1.392-0.972
				c0.06-0.144,0.096-0.336,0.096-0.54v-3.552h1.056V88.005z"/>
			<path d="M210.507,88.521c0.324,0.192,0.876,0.408,1.404,0.408c0.756,0,1.116-0.372,1.116-0.864c0-0.504-0.3-0.78-1.068-1.068
				c-1.056-0.384-1.548-0.948-1.548-1.644c0-0.936,0.768-1.704,2.004-1.704c0.588,0,1.104,0.156,1.416,0.36l-0.252,0.756
				c-0.228-0.132-0.648-0.336-1.188-0.336c-0.624,0-0.96,0.36-0.96,0.792c0,0.492,0.336,0.708,1.092,0.996
				c0.996,0.372,1.524,0.876,1.524,1.752c0,1.032-0.804,1.752-2.16,1.752c-0.636,0-1.224-0.168-1.632-0.408L210.507,88.521z"/>
			<path d="M217.947,85.354c0-0.612-0.024-1.092-0.048-1.572h0.924l0.048,0.936h0.036c0.324-0.552,0.864-1.068,1.836-1.068
				c0.78,0,1.38,0.48,1.632,1.164h0.024c0.18-0.336,0.42-0.576,0.66-0.756c0.348-0.264,0.72-0.408,1.272-0.408
				c0.78,0,1.92,0.504,1.92,2.52v3.42h-1.032v-3.288c0-1.128-0.42-1.788-1.26-1.788c-0.612,0-1.068,0.444-1.26,0.948
				c-0.048,0.156-0.084,0.348-0.084,0.528v3.6h-1.032v-3.48c0-0.936-0.408-1.596-1.212-1.596c-0.648,0-1.14,0.528-1.308,1.056
				c-0.06,0.156-0.084,0.336-0.084,0.516v3.504h-1.032V85.354z"/>
			<path d="M228.555,86.865c0.024,1.428,0.924,2.016,1.98,2.016c0.756,0,1.224-0.132,1.608-0.288l0.192,0.744
				c-0.372,0.168-1.021,0.372-1.944,0.372c-1.776,0-2.856-1.188-2.856-2.928c0-1.764,1.044-3.144,2.736-3.144
				c1.896,0,2.389,1.668,2.389,2.736c0,0.216-0.013,0.384-0.036,0.504L228.555,86.865z M231.639,86.109
				c0.012-0.66-0.276-1.716-1.452-1.716c-1.08,0-1.536,0.984-1.62,1.716H231.639z"/>
			<path d="M238.059,88.197c0,0.504,0.024,0.996,0.084,1.392h-0.948l-0.096-0.732h-0.036c-0.312,0.456-0.948,0.864-1.776,0.864
				c-1.176,0-1.775-0.828-1.775-1.668c0-1.404,1.248-2.172,3.492-2.16v-0.12c0-0.48-0.133-1.356-1.32-1.344
				c-0.552,0-1.116,0.156-1.524,0.432l-0.239-0.708c0.479-0.3,1.188-0.504,1.92-0.504c1.788,0,2.22,1.212,2.22,2.376V88.197z
				 M237.027,86.625c-1.151-0.024-2.46,0.18-2.46,1.308c0,0.696,0.456,1.008,0.984,1.008c0.768,0,1.26-0.48,1.428-0.972
				c0.036-0.108,0.048-0.228,0.048-0.336V86.625z"/>
			<path d="M239.607,88.521c0.324,0.192,0.876,0.408,1.404,0.408c0.756,0,1.116-0.372,1.116-0.864c0-0.504-0.301-0.78-1.068-1.068
				c-1.056-0.384-1.548-0.948-1.548-1.644c0-0.936,0.768-1.704,2.004-1.704c0.588,0,1.104,0.156,1.416,0.36l-0.252,0.756
				c-0.229-0.132-0.648-0.336-1.188-0.336c-0.624,0-0.96,0.36-0.96,0.792c0,0.492,0.336,0.708,1.092,0.996
				c0.996,0.372,1.524,0.876,1.524,1.752c0,1.032-0.804,1.752-2.16,1.752c-0.636,0-1.224-0.168-1.632-0.408L239.607,88.521z"/>
			<path d="M249.363,88.005c0,0.6,0.012,1.128,0.048,1.584h-0.936l-0.061-0.948h-0.023c-0.264,0.468-0.888,1.08-1.92,1.08
				c-0.912,0-2.004-0.516-2.004-2.544v-3.396h1.056v3.204c0,1.104,0.348,1.86,1.296,1.86c0.708,0,1.2-0.492,1.393-0.972
				c0.06-0.144,0.096-0.336,0.096-0.54v-3.552h1.056V88.005z"/>
			<path d="M251.126,85.593c0-0.684-0.012-1.272-0.048-1.812h0.924l0.049,1.14h0.035c0.265-0.78,0.912-1.272,1.62-1.272
				c0.108,0,0.192,0.012,0.288,0.036v0.984c-0.12-0.012-0.228-0.024-0.372-0.024c-0.743,0-1.271,0.564-1.416,1.344
				c-0.023,0.156-0.036,0.324-0.036,0.504v3.096h-1.056L251.126,85.593z"/>
			<path d="M255.567,86.865c0.024,1.428,0.924,2.016,1.98,2.016c0.756,0,1.224-0.132,1.607-0.288l0.192,0.744
				c-0.372,0.168-1.021,0.372-1.944,0.372c-1.776,0-2.855-1.188-2.855-2.928c0-1.764,1.044-3.144,2.735-3.144
				c1.896,0,2.389,1.668,2.389,2.736c0,0.216-0.013,0.384-0.036,0.504L255.567,86.865z M258.651,86.109
				c0.012-0.66-0.276-1.716-1.452-1.716c-1.08,0-1.536,0.984-1.62,1.716H258.651z"/>
			<path d="M261.279,89.721c-0.408,0-0.696-0.324-0.696-0.756s0.301-0.756,0.721-0.756s0.708,0.312,0.708,0.756
				c0,0.432-0.288,0.756-0.721,0.756H261.279z"/>
		</g>
		<g>
			<path d="M138.445,185.621c0.528-0.108,1.296-0.18,2.004-0.18c1.116,0,1.848,0.216,2.352,0.672c0.396,0.348,0.636,0.9,0.636,1.536
				c0,1.056-0.684,1.764-1.524,2.052v0.036c0.612,0.216,0.984,0.792,1.188,1.632c0.264,1.128,0.456,1.908,0.612,2.22h-1.08
				c-0.132-0.228-0.312-0.924-0.528-1.932c-0.24-1.116-0.684-1.536-1.632-1.572h-0.984v3.504h-1.044V185.621z M139.489,189.293
				h1.068c1.116,0,1.824-0.612,1.824-1.536c0-1.044-0.756-1.5-1.86-1.5c-0.504,0-0.852,0.048-1.032,0.096V189.293z"/>
			<path d="M145.501,190.865c0.024,1.428,0.924,2.016,1.98,2.016c0.756,0,1.224-0.132,1.608-0.288l0.192,0.744
				c-0.372,0.168-1.02,0.372-1.944,0.372c-1.776,0-2.856-1.188-2.856-2.928c0-1.764,1.044-3.144,2.736-3.144
				c1.896,0,2.388,1.668,2.388,2.736c0,0.216-0.012,0.384-0.036,0.504L145.501,190.865z M148.585,190.109
				c0.012-0.66-0.276-1.716-1.452-1.716c-1.08,0-1.536,0.984-1.62,1.716H148.585z"/>
			<path d="M150.913,189.677c0-0.744-0.012-1.344-0.048-1.896h0.948l0.06,0.996h0.024c0.42-0.72,1.116-1.128,2.052-1.128
				c1.416,0,2.472,1.188,2.472,2.952c0,2.088-1.284,3.12-2.64,3.12c-0.78,0-1.44-0.336-1.788-0.912h-0.024v3.156h-1.056V189.677z
				 M151.969,191.225c0,0.144,0.012,0.3,0.048,0.432c0.18,0.732,0.828,1.236,1.572,1.236c1.116,0,1.764-0.912,1.764-2.244
				c0-1.164-0.6-2.16-1.716-2.16c-0.72,0-1.404,0.504-1.608,1.296c-0.024,0.144-0.06,0.3-0.06,0.432V191.225z"/>
			<path d="M158.353,190.865c0.024,1.428,0.924,2.016,1.98,2.016c0.756,0,1.224-0.132,1.608-0.288l0.192,0.744
				c-0.372,0.168-1.02,0.372-1.944,0.372c-1.776,0-2.856-1.188-2.856-2.928c0-1.764,1.044-3.144,2.736-3.144
				c1.896,0,2.388,1.668,2.388,2.736c0,0.216-0.012,0.384-0.036,0.504L158.353,190.865z M161.437,190.109
				c0.012-0.66-0.276-1.716-1.452-1.716c-1.08,0-1.536,0.984-1.62,1.716H161.437z"/>
			<path d="M167.856,192.197c0,0.504,0.024,0.996,0.084,1.392h-0.948l-0.096-0.732h-0.036c-0.312,0.456-0.948,0.864-1.776,0.864
				c-1.176,0-1.776-0.828-1.776-1.668c0-1.404,1.248-2.172,3.492-2.16v-0.12c0-0.48-0.132-1.356-1.32-1.344
				c-0.552,0-1.116,0.156-1.524,0.432l-0.24-0.708c0.48-0.3,1.188-0.504,1.92-0.504c1.788,0,2.22,1.212,2.22,2.376V192.197z
				 M166.825,190.625c-1.152-0.024-2.46,0.18-2.46,1.308c0,0.696,0.456,1.008,0.984,1.008c0.768,0,1.26-0.48,1.428-0.972
				c0.036-0.108,0.048-0.228,0.048-0.336V190.625z"/>
			<path d="M170.772,186.389v1.392h1.512v0.804h-1.512v3.132c0,0.72,0.204,1.128,0.792,1.128c0.288,0,0.456-0.024,0.612-0.072
				l0.048,0.804c-0.204,0.072-0.528,0.144-0.936,0.144c-0.492,0-0.888-0.168-1.14-0.444c-0.288-0.324-0.408-0.84-0.408-1.524v-3.168
				h-0.9v-0.804h0.9v-1.068L170.772,186.389z"/>
			<path d="M177.289,186.389v1.392h1.512v0.804h-1.512v3.132c0,0.72,0.204,1.128,0.792,1.128c0.288,0,0.456-0.024,0.612-0.072
				l0.048,0.804c-0.204,0.072-0.528,0.144-0.936,0.144c-0.492,0-0.888-0.168-1.14-0.444c-0.288-0.324-0.408-0.84-0.408-1.524v-3.168
				h-0.9v-0.804h0.9v-1.068L177.289,186.389z"/>
			<path d="M179.988,185.069h1.056v3.624h0.024c0.168-0.3,0.432-0.576,0.756-0.744c0.312-0.192,0.684-0.3,1.08-0.3
				c0.78,0,2.028,0.48,2.028,2.484v3.456h-1.056v-3.336c0-0.948-0.348-1.728-1.344-1.728c-0.684,0-1.212,0.48-1.416,1.056
				c-0.06,0.144-0.072,0.3-0.072,0.504v3.504h-1.056V185.069z"/>
			<path d="M187.248,190.865c0.024,1.428,0.924,2.016,1.98,2.016c0.756,0,1.224-0.132,1.608-0.288l0.192,0.744
				c-0.372,0.168-1.02,0.372-1.944,0.372c-1.776,0-2.856-1.188-2.856-2.928c0-1.764,1.044-3.144,2.736-3.144
				c1.896,0,2.388,1.668,2.388,2.736c0,0.216-0.012,0.384-0.036,0.504L187.248,190.865z M190.332,190.109
				c0.012-0.66-0.276-1.716-1.452-1.716c-1.08,0-1.536,0.984-1.62,1.716H190.332z"/>
			<path d="M195.204,189.677c0-0.744-0.012-1.344-0.048-1.896h0.948l0.06,0.996h0.024c0.42-0.72,1.116-1.128,2.052-1.128
				c1.416,0,2.472,1.188,2.472,2.952c0,2.088-1.284,3.12-2.64,3.12c-0.78,0-1.44-0.336-1.788-0.912h-0.024v3.156h-1.056V189.677z
				 M196.26,191.225c0,0.144,0.012,0.3,0.048,0.432c0.18,0.732,0.828,1.236,1.572,1.236c1.116,0,1.764-0.912,1.764-2.244
				c0-1.164-0.6-2.16-1.716-2.16c-0.72,0-1.404,0.504-1.608,1.296c-0.024,0.144-0.06,0.3-0.06,0.432V191.225z"/>
			<path d="M202.044,189.593c0-0.684-0.012-1.272-0.048-1.812h0.924l0.048,1.14h0.036c0.264-0.78,0.912-1.272,1.62-1.272
				c0.108,0,0.192,0.012,0.288,0.036v0.984c-0.12-0.012-0.228-0.024-0.372-0.024c-0.744,0-1.272,0.564-1.416,1.344
				c-0.024,0.156-0.036,0.324-0.036,0.504v3.096h-1.056L202.044,189.593z"/>
			<path d="M206.484,190.865c0.024,1.428,0.924,2.016,1.98,2.016c0.756,0,1.224-0.132,1.608-0.288l0.192,0.744
				c-0.372,0.168-1.02,0.372-1.944,0.372c-1.776,0-2.856-1.188-2.856-2.928c0-1.764,1.044-3.144,2.736-3.144
				c1.896,0,2.388,1.668,2.388,2.736c0,0.216-0.012,0.384-0.036,0.504L206.484,190.865z M209.568,190.109
				c0.012-0.66-0.276-1.716-1.452-1.716c-1.08,0-1.536,0.984-1.62,1.716H209.568z"/>
			<path d="M212.28,187.781l1.14,3.252c0.192,0.54,0.348,1.02,0.468,1.5h0.036c0.132-0.48,0.3-0.96,0.492-1.5l1.128-3.252h1.104
				l-2.28,5.808h-1.008l-2.208-5.808H212.28z"/>
			<path d="M218.147,186.713c-0.396,0-0.66-0.312-0.66-0.684s0.276-0.672,0.684-0.672c0.408,0,0.672,0.3,0.672,0.672
				s-0.264,0.684-0.684,0.684H218.147z M217.644,193.589v-5.808h1.056v5.808H217.644z"/>
			<path d="M222.815,193.721c-1.56,0-2.784-1.152-2.784-2.988c0-1.944,1.284-3.084,2.88-3.084c1.668,0,2.796,1.212,2.796,2.976
				c0,2.16-1.5,3.096-2.88,3.096H222.815z M222.852,192.929c1.008,0,1.764-0.948,1.764-2.268c0-0.984-0.492-2.22-1.74-2.22
				c-1.236,0-1.776,1.152-1.776,2.256c0,1.272,0.72,2.232,1.74,2.232H222.852z"/>
			<path d="M231.9,192.005c0,0.6,0.012,1.128,0.048,1.584h-0.937l-0.06-0.948h-0.024c-0.264,0.468-0.888,1.08-1.92,1.08
				c-0.912,0-2.004-0.516-2.004-2.544v-3.396h1.056v3.204c0,1.104,0.348,1.86,1.296,1.86c0.708,0,1.2-0.492,1.392-0.972
				c0.06-0.144,0.096-0.336,0.096-0.54v-3.552h1.057V192.005z"/>
			<path d="M233.507,192.521c0.324,0.192,0.876,0.408,1.404,0.408c0.756,0,1.116-0.372,1.116-0.864c0-0.504-0.301-0.78-1.068-1.068
				c-1.056-0.384-1.548-0.948-1.548-1.644c0-0.936,0.768-1.704,2.004-1.704c0.588,0,1.104,0.156,1.416,0.36l-0.252,0.756
				c-0.229-0.132-0.648-0.336-1.188-0.336c-0.624,0-0.96,0.36-0.96,0.792c0,0.492,0.336,0.708,1.092,0.996
				c0.996,0.372,1.524,0.876,1.524,1.752c0,1.032-0.804,1.752-2.16,1.752c-0.636,0-1.224-0.168-1.632-0.408L233.507,192.521z"/>
			<path d="M242.219,186.389v1.392h1.512v0.804h-1.512v3.132c0,0.72,0.204,1.128,0.792,1.128c0.288,0,0.456-0.024,0.612-0.072
				l0.048,0.804c-0.204,0.072-0.528,0.144-0.937,0.144c-0.491,0-0.888-0.168-1.14-0.444c-0.288-0.324-0.408-0.84-0.408-1.524v-3.168
				h-0.899v-0.804h0.899v-1.068L242.219,186.389z"/>
			<path d="M245.387,187.781l0.78,2.94c0.155,0.648,0.312,1.26,0.42,1.86h0.036c0.132-0.588,0.323-1.212,0.516-1.848l0.948-2.952
				h0.888l0.9,2.904c0.216,0.684,0.384,1.308,0.516,1.896h0.036c0.096-0.588,0.252-1.2,0.444-1.884l0.827-2.916h1.044l-1.871,5.808
				h-0.961l-0.888-2.772c-0.204-0.66-0.372-1.236-0.516-1.92h-0.024c-0.144,0.696-0.324,1.308-0.527,1.932l-0.937,2.76h-0.96
				l-1.752-5.808H245.387z"/>
			<path d="M256.055,193.721c-1.56,0-2.784-1.152-2.784-2.988c0-1.944,1.284-3.084,2.88-3.084c1.668,0,2.796,1.212,2.796,2.976
				c0,2.16-1.5,3.096-2.88,3.096H256.055z M256.091,192.929c1.008,0,1.764-0.948,1.764-2.268c0-0.984-0.492-2.22-1.74-2.22
				c-1.235,0-1.775,1.152-1.775,2.256c0,1.272,0.72,2.232,1.74,2.232H256.091z"/>
			<path d="M262.823,189.354c0-0.612-0.023-1.092-0.048-1.572h0.924l0.048,0.936h0.036c0.324-0.552,0.864-1.068,1.836-1.068
				c0.78,0,1.38,0.48,1.633,1.164h0.023c0.18-0.336,0.42-0.576,0.66-0.756c0.348-0.264,0.72-0.408,1.271-0.408
				c0.78,0,1.921,0.504,1.921,2.52v3.42h-1.032v-3.288c0-1.128-0.42-1.788-1.26-1.788c-0.612,0-1.068,0.444-1.261,0.948
				c-0.048,0.156-0.084,0.348-0.084,0.528v3.6h-1.031v-3.48c0-0.936-0.408-1.596-1.213-1.596c-0.647,0-1.14,0.528-1.308,1.056
				c-0.06,0.156-0.084,0.336-0.084,0.516v3.504h-1.032V189.354z"/>
			<path d="M273.431,190.865c0.023,1.428,0.924,2.016,1.979,2.016c0.756,0,1.225-0.132,1.608-0.288l0.192,0.744
				c-0.372,0.168-1.021,0.372-1.944,0.372c-1.776,0-2.856-1.188-2.856-2.928c0-1.764,1.044-3.144,2.736-3.144
				c1.896,0,2.388,1.668,2.388,2.736c0,0.216-0.012,0.384-0.036,0.504L273.431,190.865z M276.515,190.109
				c0.012-0.66-0.276-1.716-1.452-1.716c-1.08,0-1.536,0.984-1.62,1.716H276.515z"/>
			<path d="M282.935,192.197c0,0.504,0.023,0.996,0.084,1.392h-0.948l-0.096-0.732h-0.036c-0.313,0.456-0.948,0.864-1.776,0.864
				c-1.176,0-1.775-0.828-1.775-1.668c0-1.404,1.248-2.172,3.491-2.16v-0.12c0-0.48-0.132-1.356-1.319-1.344
				c-0.552,0-1.116,0.156-1.524,0.432l-0.24-0.708c0.48-0.3,1.188-0.504,1.921-0.504c1.787,0,2.22,1.212,2.22,2.376V192.197z
				 M281.903,190.625c-1.152-0.024-2.46,0.18-2.46,1.308c0,0.696,0.456,1.008,0.984,1.008c0.768,0,1.26-0.48,1.428-0.972
				c0.036-0.108,0.048-0.228,0.048-0.336V190.625z"/>
			<path d="M284.483,192.521c0.324,0.192,0.876,0.408,1.404,0.408c0.756,0,1.115-0.372,1.115-0.864c0-0.504-0.3-0.78-1.067-1.068
				c-1.057-0.384-1.548-0.948-1.548-1.644c0-0.936,0.768-1.704,2.004-1.704c0.588,0,1.104,0.156,1.416,0.36l-0.252,0.756
				c-0.229-0.132-0.648-0.336-1.188-0.336c-0.624,0-0.96,0.36-0.96,0.792c0,0.492,0.336,0.708,1.092,0.996
				c0.996,0.372,1.524,0.876,1.524,1.752c0,1.032-0.804,1.752-2.16,1.752c-0.636,0-1.224-0.168-1.632-0.408L284.483,192.521z"/>
			<path d="M294.239,192.005c0,0.6,0.012,1.128,0.048,1.584h-0.936l-0.061-0.948h-0.023c-0.265,0.468-0.889,1.08-1.92,1.08
				c-0.912,0-2.005-0.516-2.005-2.544v-3.396h1.057v3.204c0,1.104,0.348,1.86,1.296,1.86c0.708,0,1.2-0.492,1.392-0.972
				c0.061-0.144,0.097-0.336,0.097-0.54v-3.552h1.056V192.005z"/>
			<path d="M296.002,189.593c0-0.684-0.012-1.272-0.048-1.812h0.924l0.048,1.14h0.036c0.265-0.78,0.912-1.272,1.62-1.272
				c0.108,0,0.192,0.012,0.288,0.036v0.984c-0.12-0.012-0.228-0.024-0.372-0.024c-0.744,0-1.271,0.564-1.416,1.344
				c-0.023,0.156-0.036,0.324-0.036,0.504v3.096h-1.056L296.002,189.593z"/>
			<path d="M300.443,190.865c0.023,1.428,0.924,2.016,1.979,2.016c0.756,0,1.225-0.132,1.608-0.288l0.192,0.744
				c-0.372,0.168-1.021,0.372-1.944,0.372c-1.776,0-2.856-1.188-2.856-2.928c0-1.764,1.044-3.144,2.736-3.144
				c1.896,0,2.388,1.668,2.388,2.736c0,0.216-0.012,0.384-0.036,0.504L300.443,190.865z M303.527,190.109
				c0.012-0.66-0.276-1.716-1.452-1.716c-1.08,0-1.536,0.984-1.62,1.716H303.527z"/>
			<path d="M305.71,192.521c0.324,0.192,0.876,0.408,1.404,0.408c0.756,0,1.116-0.372,1.116-0.864c0-0.504-0.301-0.78-1.068-1.068
				c-1.056-0.384-1.548-0.948-1.548-1.644c0-0.936,0.768-1.704,2.004-1.704c0.588,0,1.104,0.156,1.416,0.36l-0.252,0.756
				c-0.229-0.132-0.648-0.336-1.188-0.336c-0.624,0-0.96,0.36-0.96,0.792c0,0.492,0.336,0.708,1.093,0.996
				c0.995,0.372,1.523,0.876,1.523,1.752c0,1.032-0.804,1.752-2.16,1.752c-0.636,0-1.224-0.168-1.632-0.408L305.71,192.521z"/>
			<path d="M310.955,193.721c-0.408,0-0.696-0.324-0.696-0.756s0.3-0.756,0.721-0.756c0.42,0,0.708,0.312,0.708,0.756
				c0,0.432-0.288,0.756-0.721,0.756H310.955z"/>
		</g>
		<g>
			<path fill="none" stroke="#000000" d="M138.147,43.66v30.572"/>
			<path fill="none" stroke="#000000" d="M132.035,51.097l6.112-7.437"/>
			<path fill="none" stroke="#000000" d="M144.26,51.923l-6.113-8.263"/>
		</g>
		<g>
			<path fill="none" stroke="#000000" d="M246.147,149.66v30.572"/>
			<path fill="none" stroke="#000000" d="M240.035,157.097l6.112-7.437"/>
			<path fill="none" stroke="#000000" d="M252.26,157.923l-6.113-8.263"/>
		</g>
	</g>
</svg>
