<?xml version="1.0" encoding="utf-8"?>
<!-- Generator: Adobe Illustrator 10.0, SVG Export Plug-In . SVG Version: 3.0.0 Build 76)  -->
<!DOCTYPE svg PUBLIC "-//W3C//DTD SVG 1.0//EN"    "http://www.w3.org/TR/2001/REC-SVG-20010904/DTD/svg10.dtd" [
	<!ENTITY ns_flows "http://ns.adobe.com/Flows/1.0/">
	<!ENTITY ns_extend "http://ns.adobe.com/Extensibility/1.0/">
	<!ENTITY ns_ai "http://ns.adobe.com/AdobeIllustrator/10.0/">
	<!ENTITY ns_svg "http://www.w3.org/2000/svg">
	<!ENTITY ns_xlink "http://www.w3.org/1999/xlink">
]>
<svg  xmlns:x="&ns_extend;" xmlns:i="&ns_ai;" xmlns:graph="&ns_graphs;"
	 xmlns="&ns_svg;" xmlns:xlink="&ns_xlink;" xmlns:a="http://ns.adobe.com/AdobeSVGViewerExtensions/3.0/" width="345" height="199"
	 viewBox="0.326 -0.113 345 199" overflow="visible" enable-background="new 0.326 -0.113 345 199" xml:space="preserve">
	<g id="Layer_1_2_">
		<g>
			<path fill="none" stroke="#000000" d="M9.338,36.122h148.042"/>
			<path fill="none" stroke="#000000" d="M9.338,51.233h148.042"/>
			<path fill="none" stroke="#000000" d="M9.412,58.356h148.042"/>
			<path fill="none" stroke="#000000" d="M9.298,65.74h148.041"/>
			<path fill="none" stroke="#000000" d="M9.298,43.375h148.041"/>
		</g>
		<path fill="none" stroke="#0A0A0A" d="M258.257,132.455v29.746"/>
		<g>
			<path d="M49.104,49.705c0,0.84-1.05,1.575-1.617,1.575c-0.567,0-1.785-0.315-1.785-1.575c0-0.819,0.588-1.428,1.323-1.428
				c0.504,0,0.462-0.315,0.294-0.504c-0.462-0.483-1.302-0.84-2.331-0.546c-1.659,0.441-2.016,2.457-2.016,4.536
				c0,2.31,0.399,4.599,2.415,4.599c1.428,0,3.024-1.302,2.982-3.087h0.588c-0.021,0.546-0.378,1.68-0.735,2.121
				c-0.714,0.882-2.037,1.617-3.066,1.617c-2.772,0-4.746-2.499-4.746-5.25c0-2.688,1.848-5.166,4.536-5.166
				C47.214,46.597,49.104,47.667,49.104,49.705z"/>
		</g>
		<g>
			<path d="M97.588,59.396v-3.912h0.696v3.672l2.352-0.768v-3.504h0.696v3.288l0.936-0.312v2.496l-0.936,0.312v3.552l0.936-0.288
				v2.472l-0.936,0.312v3.912h-0.696v-3.696L98.284,67.7v3.552h-0.696V67.94l-1.032,0.336V65.78l1.032-0.336v-3.576l-1.032,0.336
				v-2.472L97.588,59.396z M98.284,61.652v3.576l2.352-0.768v-3.576L98.284,61.652z"/>
		</g>
		<g>
			<path d="M24.45,65.333c-4.944-2.352-5.736-5.376-5.952-8.472c-0.24-3.36,1.896-6.768,3.888-8.664
				c1.152-1.08,2.4-2.136,3.888-3.264c-0.048-0.84-0.24-1.176-0.336-2.376c-0.024-0.504-0.336-2.856,0.168-5.568
				c0.312-1.608,2.328-5.4,3.72-5.424c1.08-0.024,2.736,4.296,2.784,6.456c0.072,3.336-0.72,4.848-1.704,6.576
				c-0.504,0.864-1.032,1.464-1.584,2.136c-0.576,0.696-1.224,1.104-1.824,1.632c0,0,0.768,4.344,0.792,4.656
				c1.536-0.192,3.408,0.36,4.08,0.84c1.704,1.272,2.352,3.024,2.472,4.728c0.216,2.712-1.272,5.568-4.56,6.936
				c0,0,0.504,3.456,0.624,4.176c0.264,1.896,0.216,3.096-0.192,3.864c-0.696,1.296-1.824,2.496-4.008,2.64
				c-1.68,0.096-4.992-0.744-5.16-3.384c-0.096-1.56,0.6-3.24,2.496-3.36c1.152-0.096,2.52,0.864,2.616,2.232
				c0.096,1.176-0.672,2.4-2.664,2.952c0.312,0.432,1.248,0.936,2.592,0.936c1.392,0,2.832-0.936,3.528-2.184
				c0.432-0.816,0.384-2.28,0.216-3.624c-0.072-0.456-0.648-4.08-0.648-4.08C27.906,65.981,25.458,65.813,24.45,65.333z
				 M24.93,59.646c0.048,1.152,1.008,2.496,1.896,2.952c-0.12,0.072-0.24,0.264-0.24,0.264c-0.984-0.48-1.824-1.272-2.04-1.56
				c-0.696-0.936-0.984-1.464-1.08-2.88c-0.096-1.32,0.624-3.096,2.232-4.344c0.84-0.624,1.248-0.768,1.968-0.936l-0.72-4.344
				c-0.744,0.432-3.816,2.904-5.112,4.92c-1.152,1.8-1.848,3.24-1.704,5.016c0.288,4.008,4.68,7.296,9.432,6.168
				c0,0-1.416-8.52-1.392-8.52C25.554,56.478,24.858,58.494,24.93,59.646z M26.874,44.429c2.088-1.632,4.92-4.704,4.752-7.08
				c-0.048-0.744-0.36-2.088-1.44-2.064C27.714,35.309,26.322,40.469,26.874,44.429z M30.138,64.709
				c2.76-0.936,2.88-3.312,2.784-4.728c-0.096-1.176-0.624-3.816-4.128-3.648L30.138,64.709z"/>
		</g>
		<g>
			<path d="M58.452,163.305c0.984,0,1.776,0.36,2.232,0.912v-19.224h0.456v20.4c0,0.336-0.048,0.672-0.168,1.056
				c-0.648,1.704-2.784,3.072-4.8,3.048c-2.016-0.024-3.144-1.44-2.52-3.144S56.436,163.281,58.452,163.305z"/>
		</g>
		<g>
			<path d="M64.128,68.089c0.456-1.248,1.488-2.256,2.256-2.64c0.768-0.36,1.752-0.552,2.88-0.456
				c0.576,0.048,1.584,0.216,2.16,0.816V46.585h0.456v20.496c0,0.096-0.024,0.168-0.024,0.24c-0.048,0.432-0.168,0.792-0.264,1.032
				c-0.456,1.248-1.44,2.088-2.184,2.52s-1.872,0.744-3.24,0.6c-0.528-0.072-1.68-0.168-2.16-1.032
				C63.625,69.793,63.96,68.569,64.128,68.089z M67.009,70.105c0.552-0.288,0.96-0.528,1.464-0.792
				c0.48-0.288,0.912-0.552,1.44-0.888c0.72-0.456,1.656-1.248,1.176-2.064c-0.48-0.816-1.656-0.408-2.4-0.048
				c-0.576,0.288-1.032,0.528-1.512,0.816c-0.48,0.264-0.912,0.504-1.416,0.84c-0.72,0.456-1.656,1.272-1.152,2.088
				C65.064,70.873,66.241,70.465,67.009,70.105z"/>
		</g>
		<g>
			<g>
				<path d="M68.563,170.767c0.624,1.704-0.504,3.12-2.52,3.144c-2.016,0.024-4.152-1.344-4.8-3.048
					c-0.12-0.384-0.168-0.72-0.168-1.056v-20.4h0.456v19.224c0.456-0.552,1.248-0.912,2.232-0.912
					C65.779,167.695,67.939,169.063,68.563,170.767z"/>
			</g>
			<path fill="none" stroke="#000000" stroke-miterlimit="1" d="M70.867,170.876H59.224"/>
		</g>
		<g>
			<path fill="none" stroke="#000000" stroke-miterlimit="1" d="M308.326,72.967h11.645"/>
			<g>
				<path d="M310.714,72.848c0.456-1.248,1.487-2.256,2.256-2.64c0.768-0.36,1.752-0.552,2.88-0.456
					c0.576,0.048,1.584,0.216,2.16,0.816V51.344h0.456V71.84c0,0.096-0.024,0.168-0.024,0.24c-0.048,0.432-0.168,0.792-0.264,1.032
					c-0.456,1.248-1.44,2.088-2.184,2.52c-0.744,0.432-1.872,0.744-3.24,0.6c-0.528-0.072-1.681-0.168-2.16-1.032
					C310.21,74.552,310.546,73.329,310.714,72.848z M313.594,74.864c0.552-0.288,0.96-0.528,1.464-0.792
					c0.48-0.288,0.912-0.552,1.44-0.888c0.72-0.456,1.655-1.248,1.176-2.064c-0.48-0.816-1.656-0.408-2.4-0.048
					c-0.576,0.288-1.032,0.528-1.512,0.816c-0.48,0.264-0.912,0.504-1.416,0.84c-0.72,0.456-1.656,1.272-1.152,2.088
					C311.65,75.632,312.826,75.225,313.594,74.864z"/>
			</g>
		</g>
		<g>
			<g>
				<path d="M56.267,176.792c-2.04-0.024-3.144-1.416-2.52-3.12c0.624-1.728,2.784-3.096,4.8-3.072
					c0.984,0.024,1.776,0.384,2.232,0.936v-19.08h0.456c0,24.216,0,20.4,0,20.4c0,0.288-0.072,0.576-0.192,0.888
					C60.419,175.472,58.283,176.815,56.267,176.792z"/>
			</g>
			<path fill="none" stroke="#000000" d="M51.362,169.958h12"/>
		</g>
		<g>
			<path fill="none" stroke="#000000" d="M0.069,132.443h257.957"/>
			<path fill="none" stroke="#000000" d="M0.069,147.555h257.957"/>
			<path fill="none" stroke="#000000" d="M0.197,154.678h257.958"/>
			<path fill="none" stroke="#000000" d="M0,162.062h257.957"/>
			<path fill="none" stroke="#000000" d="M0,139.697h257.957"/>
		</g>
		<g>
			<path fill="none" stroke="#000000" d="M196.648,36.467H344.69"/>
			<path fill="none" stroke="#000000" d="M196.648,51.578H344.69"/>
			<path fill="none" stroke="#000000" d="M196.722,58.701h148.041"/>
			<path fill="none" stroke="#000000" d="M196.609,66.085H344.65"/>
			<path fill="none" stroke="#000000" d="M196.609,43.721H344.65"/>
		</g>
		<g>
			<path d="M216.036,65.299c-4.944-2.352-5.736-5.376-5.952-8.472c-0.24-3.36,1.896-6.768,3.888-8.664
				c1.152-1.08,2.4-2.136,3.888-3.264c-0.048-0.84-0.24-1.176-0.336-2.376c-0.024-0.504-0.336-2.856,0.168-5.568
				c0.312-1.608,2.328-5.4,3.72-5.424c1.08-0.024,2.736,4.296,2.784,6.456c0.072,3.336-0.72,4.848-1.704,6.576
				c-0.504,0.864-1.032,1.464-1.584,2.136c-0.576,0.696-1.224,1.104-1.824,1.632c0,0,0.768,4.344,0.792,4.656
				c1.536-0.192,3.408,0.36,4.08,0.84c1.704,1.272,2.352,3.024,2.472,4.728c0.216,2.712-1.272,5.568-4.56,6.936
				c0,0,0.504,3.456,0.624,4.176c0.264,1.896,0.216,3.096-0.192,3.864c-0.696,1.296-1.824,2.496-4.008,2.64
				c-1.68,0.096-4.992-0.744-5.16-3.384c-0.096-1.56,0.6-3.24,2.496-3.36c1.152-0.096,2.52,0.864,2.616,2.232
				c0.096,1.176-0.672,2.4-2.664,2.952c0.312,0.432,1.248,0.936,2.592,0.936c1.392,0,2.832-0.936,3.528-2.184
				c0.432-0.816,0.384-2.28,0.216-3.624c-0.072-0.456-0.648-4.08-0.648-4.08C219.492,65.947,217.044,65.779,216.036,65.299z
				 M216.516,59.611c0.048,1.152,1.008,2.496,1.896,2.952c-0.12,0.072-0.24,0.264-0.24,0.264c-0.984-0.48-1.824-1.272-2.04-1.56
				c-0.696-0.936-0.984-1.464-1.08-2.88c-0.096-1.32,0.624-3.096,2.232-4.344c0.84-0.624,1.248-0.768,1.968-0.936l-0.72-4.344
				c-0.744,0.432-3.816,2.904-5.112,4.92c-1.152,1.8-1.848,3.24-1.704,5.016c0.288,4.008,4.68,7.296,9.432,6.168
				c0,0-1.416-8.52-1.392-8.52C217.14,56.443,216.444,58.459,216.516,59.611z M218.46,44.395c2.088-1.632,4.92-4.704,4.752-7.08
				c-0.048-0.744-0.36-2.088-1.44-2.064C219.3,35.275,217.908,40.435,218.46,44.395z M221.724,64.675
				c2.76-0.936,2.88-3.312,2.784-4.728c-0.096-1.176-0.624-3.816-4.128-3.648L221.724,64.675z"/>
		</g>
		<g>
			<path d="M13.6,161.276c-4.944-2.352-5.736-5.376-5.952-8.472c-0.24-3.36,1.896-6.768,3.888-8.664
				c1.152-1.08,2.4-2.136,3.888-3.264c-0.048-0.84-0.24-1.176-0.336-2.376c-0.024-0.504-0.336-2.856,0.168-5.568
				c0.312-1.608,2.328-5.4,3.72-5.424c1.08-0.024,2.736,4.296,2.784,6.456c0.072,3.336-0.72,4.848-1.704,6.576
				c-0.504,0.864-1.032,1.464-1.584,2.136c-0.576,0.696-1.224,1.104-1.824,1.632c0,0,0.768,4.344,0.792,4.656
				c1.536-0.192,3.408,0.36,4.08,0.84c1.704,1.272,2.352,3.024,2.472,4.728c0.216,2.712-1.272,5.568-4.56,6.936
				c0,0,0.504,3.456,0.624,4.176c0.264,1.896,0.216,3.096-0.192,3.864c-0.696,1.296-1.824,2.496-4.008,2.64
				c-1.68,0.096-4.992-0.744-5.16-3.384c-0.096-1.56,0.6-3.24,2.496-3.36c1.152-0.096,2.52,0.864,2.616,2.232
				c0.096,1.176-0.672,2.4-2.664,2.952c0.312,0.432,1.248,0.936,2.592,0.936c1.392,0,2.832-0.936,3.528-2.184
				c0.432-0.816,0.384-2.28,0.216-3.624c-0.072-0.456-0.648-4.08-0.648-4.08C17.056,161.924,14.607,161.756,13.6,161.276z
				 M14.08,155.588c0.048,1.152,1.008,2.496,1.896,2.952c-0.12,0.072-0.24,0.264-0.24,0.264c-0.984-0.48-1.824-1.272-2.04-1.56
				c-0.696-0.936-0.984-1.464-1.08-2.88c-0.096-1.32,0.624-3.096,2.232-4.344c0.84-0.624,1.248-0.768,1.968-0.936l-0.72-4.344
				c-0.744,0.432-3.816,2.904-5.112,4.92c-1.152,1.8-1.848,3.24-1.704,5.016c0.288,4.008,4.68,7.296,9.432,6.168
				c0,0-1.416-8.52-1.392-8.52C14.704,152.42,14.007,154.436,14.08,155.588z M16.023,140.372c2.088-1.632,4.92-4.704,4.752-7.08
				c-0.048-0.744-0.36-2.088-1.44-2.064C16.864,131.251,15.472,136.412,16.023,140.372z M19.288,160.652
				c2.76-0.936,2.88-3.312,2.784-4.728c-0.096-1.176-0.624-3.816-4.128-3.648L19.288,160.652z"/>
		</g>
		<g>
			<path d="M243.104,48.705c0,0.84-1.05,1.575-1.617,1.575c-0.567,0-1.785-0.315-1.785-1.575c0-0.819,0.588-1.428,1.323-1.428
				c0.504,0,0.462-0.315,0.294-0.504c-0.462-0.483-1.302-0.84-2.331-0.546c-1.659,0.441-2.016,2.457-2.016,4.536
				c0,2.31,0.399,4.599,2.415,4.599c1.428,0,3.024-1.302,2.982-3.087h0.588c-0.021,0.546-0.378,1.68-0.735,2.121
				c-0.714,0.882-2.037,1.617-3.066,1.617c-2.772,0-4.746-2.499-4.746-5.25c0-2.688,1.848-5.166,4.536-5.166
				C241.214,45.597,243.104,46.667,243.104,48.705z"/>
		</g>
		<g>
			<path d="M39.771,145.371c0,0.84-1.05,1.575-1.617,1.575c-0.567,0-1.785-0.315-1.785-1.575c0-0.819,0.588-1.428,1.323-1.428
				c0.504,0,0.462-0.315,0.294-0.504c-0.462-0.483-1.302-0.84-2.331-0.546c-1.659,0.441-2.016,2.457-2.016,4.536
				c0,2.31,0.399,4.599,2.415,4.599c1.428,0,3.024-1.302,2.982-3.087h0.588c-0.021,0.546-0.378,1.68-0.735,2.121
				c-0.714,0.882-2.037,1.617-3.066,1.617c-2.772,0-4.746-2.499-4.746-5.25c0-2.688,1.848-5.166,4.536-5.166
				C37.881,142.263,39.771,143.334,39.771,145.371z"/>
		</g>
		<g>
			<path d="M83.452,163.305c0.984,0,1.776,0.36,2.232,0.912v-19.224h0.456v20.4c0,0.336-0.048,0.672-0.168,1.056
				c-0.648,1.704-2.784,3.072-4.8,3.048c-2.016-0.024-3.144-1.44-2.52-3.144S81.436,163.281,83.452,163.305z"/>
		</g>
		<g>
			<g>
				<path d="M93.563,170.767c0.624,1.704-0.504,3.12-2.52,3.144c-2.016,0.024-4.152-1.344-4.8-3.048
					c-0.12-0.384-0.168-0.72-0.168-1.056v-20.4h0.456v19.224c0.456-0.552,1.248-0.912,2.232-0.912
					C90.779,167.695,92.939,169.063,93.563,170.767z"/>
			</g>
			<path fill="none" stroke="#000000" stroke-miterlimit="1" d="M95.867,170.876H84.224"/>
		</g>
		<g>
			<g>
				<path d="M81.933,176.792c-2.04-0.024-3.144-1.416-2.52-3.12c0.624-1.728,2.784-3.096,4.8-3.072
					c0.984,0.024,1.776,0.384,2.232,0.936v-19.08h0.456c0,24.216,0,20.4,0,20.4c0,0.288-0.072,0.576-0.192,0.888
					C86.085,175.472,83.949,176.815,81.933,176.792z"/>
			</g>
			<path fill="none" stroke="#000000" d="M77.028,169.958h12"/>
		</g>
		<path fill="none" stroke="#000000" stroke-width="2" d="M60.659,144.887h26"/>
		<g>
			<path d="M108.452,162.638c0.984,0,1.776,0.36,2.232,0.912v-19.224h0.456v20.4c0,0.336-0.048,0.672-0.168,1.056
				c-0.648,1.704-2.784,3.072-4.8,3.048c-2.016-0.024-3.144-1.44-2.52-3.144S106.436,162.614,108.452,162.638z"/>
		</g>
		<g>
			<g>
				<path d="M118.563,170.1c0.624,1.704-0.504,3.12-2.52,3.144c-2.016,0.024-4.152-1.344-4.8-3.048
					c-0.12-0.384-0.168-0.72-0.168-1.056v-20.4h0.456v19.224c0.456-0.552,1.248-0.912,2.232-0.912
					C115.779,167.028,117.939,168.396,118.563,170.1z"/>
			</g>
			<path fill="none" stroke="#000000" stroke-miterlimit="1" d="M120.867,170.209h-11.644"/>
		</g>
		<g>
			<g>
				<path d="M106.267,176.125c-2.04-0.024-3.144-1.416-2.52-3.12c0.624-1.728,2.784-3.096,4.8-3.072
					c0.984,0.024,1.776,0.384,2.232,0.936v-19.08h0.456c0,24.216,0,20.4,0,20.4c0,0.288-0.072,0.576-0.192,0.888
					C110.419,174.805,108.283,176.148,106.267,176.125z"/>
			</g>
			<path fill="none" stroke="#000000" d="M101.362,169.291h12"/>
		</g>
		<g>
			<path d="M133.452,162.638c0.984,0,1.776,0.36,2.232,0.912v-19.224h0.456v20.4c0,0.336-0.048,0.672-0.168,1.056
				c-0.648,1.704-2.784,3.072-4.8,3.048c-2.016-0.024-3.144-1.44-2.52-3.144S131.436,162.614,133.452,162.638z"/>
		</g>
		<g>
			<g>
				<path d="M143.563,170.1c0.624,1.704-0.504,3.12-2.52,3.144c-2.016,0.024-4.152-1.344-4.8-3.048
					c-0.12-0.384-0.168-0.72-0.168-1.056v-20.4h0.456v19.224c0.456-0.552,1.248-0.912,2.232-0.912
					C140.779,167.028,142.939,168.396,143.563,170.1z"/>
			</g>
			<path fill="none" stroke="#000000" stroke-miterlimit="1" d="M145.867,170.209h-11.644"/>
		</g>
		<g>
			<g>
				<path d="M131.933,176.125c-2.04-0.024-3.144-1.416-2.52-3.12c0.624-1.728,2.784-3.096,4.8-3.072
					c0.984,0.024,1.776,0.384,2.232,0.936v-19.08h0.456c0,24.216,0,20.4,0,20.4c0,0.288-0.072,0.576-0.192,0.888
					C136.085,174.805,133.949,176.148,131.933,176.125z"/>
			</g>
			<path fill="none" stroke="#000000" d="M127.028,169.291h12"/>
		</g>
		<path fill="none" stroke="#000000" stroke-width="2" d="M110.659,144.22h26"/>
		<g>
			<path d="M157.887,162.65c0.984,0,1.776,0.36,2.232,0.912v-19.224h0.456v20.4c0,0.336-0.048,0.672-0.168,1.056
				c-0.648,1.704-2.784,3.072-4.8,3.048c-2.016-0.024-3.144-1.44-2.52-3.144S155.871,162.626,157.887,162.65z"/>
		</g>
		<g>
			<g>
				<path d="M167.999,170.112c0.624,1.704-0.504,3.12-2.52,3.144c-2.016,0.024-4.152-1.344-4.8-3.048
					c-0.12-0.384-0.168-0.72-0.168-1.056v-20.4h0.456v19.224c0.456-0.552,1.248-0.912,2.232-0.912
					C165.215,167.04,167.375,168.408,167.999,170.112z"/>
			</g>
			<path fill="none" stroke="#000000" stroke-miterlimit="1" d="M170.303,170.221h-11.644"/>
		</g>
		<g>
			<g>
				<path d="M155.702,176.136c-2.04-0.024-3.144-1.416-2.52-3.12c0.624-1.728,2.784-3.096,4.8-3.072
					c0.984,0.024,1.776,0.384,2.232,0.936V151.8h0.456c0,24.216,0,20.4,0,20.4c0,0.288-0.072,0.576-0.192,0.888
					C159.854,174.816,157.718,176.16,155.702,176.136z"/>
			</g>
			<path fill="none" stroke="#000000" d="M150.797,169.302h12"/>
		</g>
		<g>
			<path d="M182.887,162.65c0.984,0,1.776,0.36,2.232,0.912v-19.224h0.456v20.4c0,0.336-0.048,0.672-0.168,1.056
				c-0.648,1.704-2.784,3.072-4.8,3.048c-2.016-0.024-3.144-1.44-2.52-3.144S180.871,162.626,182.887,162.65z"/>
		</g>
		<g>
			<g>
				<path d="M192.999,170.112c0.624,1.704-0.504,3.12-2.52,3.144c-2.016,0.024-4.152-1.344-4.8-3.048
					c-0.12-0.384-0.168-0.72-0.168-1.056v-20.4h0.456v19.224c0.456-0.552,1.248-0.912,2.232-0.912
					C190.215,167.04,192.375,168.408,192.999,170.112z"/>
			</g>
			<path fill="none" stroke="#000000" stroke-miterlimit="1" d="M195.303,170.221h-11.644"/>
		</g>
		<g>
			<g>
				<path d="M181.369,176.136c-2.04-0.024-3.144-1.416-2.52-3.12c0.624-1.728,2.784-3.096,4.8-3.072
					c0.984,0.024,1.776,0.384,2.232,0.936V151.8h0.456c0,24.216,0,20.4,0,20.4c0,0.288-0.072,0.576-0.192,0.888
					C185.521,174.816,183.385,176.16,181.369,176.136z"/>
			</g>
			<path fill="none" stroke="#000000" d="M176.464,169.302h12"/>
		</g>
		<path fill="none" stroke="#000000" stroke-width="2" d="M160.095,144.232h26"/>
		<g>
			<path d="M209.785,161.972c0.984,0,1.776,0.36,2.232,0.912V143.66h0.456v20.4c0,0.336-0.048,0.672-0.168,1.056
				c-0.648,1.704-2.784,3.072-4.8,3.048c-2.016-0.024-3.144-1.44-2.52-3.144S207.769,161.948,209.785,161.972z"/>
		</g>
		<g>
			<g>
				<path d="M219.896,169.434c0.624,1.704-0.504,3.12-2.52,3.144c-2.016,0.024-4.152-1.344-4.8-3.048
					c-0.12-0.384-0.168-0.72-0.168-1.056v-20.4h0.456v19.224c0.456-0.552,1.248-0.912,2.232-0.912
					C217.113,166.362,219.272,167.73,219.896,169.434z"/>
			</g>
			<path fill="none" stroke="#000000" stroke-miterlimit="1" d="M222.201,169.543h-11.644"/>
		</g>
		<g>
			<g>
				<path d="M207.6,175.458c-2.04-0.024-3.144-1.416-2.52-3.12c0.624-1.728,2.784-3.096,4.8-3.072
					c0.984,0.024,1.776,0.384,2.232,0.936v-19.08h0.456c0,24.216,0,20.4,0,20.4c0,0.288-0.072,0.576-0.192,0.888
					C211.752,174.139,209.616,175.482,207.6,175.458z"/>
			</g>
			<path fill="none" stroke="#000000" d="M202.695,168.625h12"/>
		</g>
		<g>
			<path d="M234.785,161.972c0.984,0,1.776,0.36,2.232,0.912V143.66h0.456v20.4c0,0.336-0.048,0.672-0.168,1.056
				c-0.648,1.704-2.784,3.072-4.8,3.048c-2.016-0.024-3.144-1.44-2.52-3.144S232.769,161.948,234.785,161.972z"/>
		</g>
		<g>
			<g>
				<path d="M244.896,169.434c0.624,1.704-0.504,3.12-2.52,3.144c-2.016,0.024-4.152-1.344-4.8-3.048
					c-0.12-0.384-0.168-0.72-0.168-1.056v-20.4h0.456v19.224c0.456-0.552,1.248-0.912,2.232-0.912
					C242.113,166.362,244.272,167.73,244.896,169.434z"/>
			</g>
			<path fill="none" stroke="#000000" stroke-miterlimit="1" d="M247.201,169.543h-11.644"/>
		</g>
		<g>
			<g>
				<path d="M233.267,175.458c-2.04-0.024-3.144-1.416-2.52-3.12c0.624-1.728,2.784-3.096,4.8-3.072
					c0.984,0.024,1.776,0.384,2.232,0.936v-19.08h0.456c0,24.216,0,20.4,0,20.4c0,0.288-0.072,0.576-0.192,0.888
					C237.419,174.139,235.283,175.482,233.267,175.458z"/>
			</g>
			<path fill="none" stroke="#000000" d="M228.362,168.625h12"/>
		</g>
		<path fill="none" stroke="#000000" stroke-width="2" d="M211.993,143.554h26"/>
		<path fill="none" stroke="#0A0A0A" d="M156.59,36.121v29.746"/>
		<path fill="none" stroke="#0A0A0A" d="M344.589,36.121v29.746"/>
		<g>
			<path d="M64.128,58.422c0.456-1.248,1.488-2.256,2.256-2.64c0.768-0.36,1.752-0.552,2.88-0.456
				c0.576,0.048,1.584,0.216,2.16,0.816V36.918h0.456v20.496c0,0.096-0.024,0.168-0.024,0.24c-0.048,0.432-0.168,0.792-0.264,1.032
				c-0.456,1.248-1.44,2.088-2.184,2.52s-1.872,0.744-3.24,0.6c-0.528-0.072-1.68-0.168-2.16-1.032
				C63.625,60.126,63.96,58.903,64.128,58.422z M67.009,60.438c0.552-0.288,0.96-0.528,1.464-0.792
				c0.48-0.288,0.912-0.552,1.44-0.888c0.72-0.456,1.656-1.248,1.176-2.064c-0.48-0.816-1.656-0.408-2.4-0.048
				c-0.576,0.288-1.032,0.528-1.512,0.816c-0.48,0.264-0.912,0.504-1.416,0.84c-0.72,0.456-1.656,1.272-1.152,2.088
				C65.064,61.207,66.241,60.799,67.009,60.438z"/>
		</g>
		<g>
			<path d="M79.769,57.108c-0.48,0.864-1.632,0.96-2.16,1.032c-1.368,0.144-2.496-0.168-3.24-0.6s-1.728-1.272-2.184-2.52
				c-0.096-0.24-0.216-0.6-0.264-1.032c0-0.072-0.024-0.144-0.024-0.24V33.252h0.456v19.224c0.576-0.6,1.584-0.768,2.16-0.816
				c1.128-0.096,2.112,0.096,2.88,0.456c0.768,0.384,1.8,1.392,2.256,2.64C79.817,55.236,80.153,56.46,79.769,57.108z
				 M79.168,56.724c0.504-0.816-0.432-1.632-1.152-2.088c-0.504-0.336-0.936-0.576-1.416-0.84c-0.48-0.288-0.936-0.528-1.512-0.816
				c-0.744-0.36-1.92-0.768-2.4,0.048c-0.48,0.816,0.456,1.608,1.176,2.064c0.528,0.336,0.96,0.6,1.44,0.888
				c0.504,0.264,0.912,0.504,1.464,0.792C77.537,57.132,78.713,57.54,79.168,56.724z"/>
		</g>
		<g>
			<path d="M106.795,69.089c0.456-1.248,1.488-2.256,2.256-2.64c0.768-0.36,1.752-0.552,2.88-0.456
				c0.576,0.048,1.584,0.216,2.16,0.816V47.585h0.456v20.496c0,0.096-0.024,0.168-0.024,0.24c-0.048,0.432-0.168,0.792-0.264,1.032
				c-0.456,1.248-1.44,2.088-2.184,2.52s-1.872,0.744-3.24,0.6c-0.528-0.072-1.68-0.168-2.16-1.032
				C106.291,70.793,106.627,69.569,106.795,69.089z M109.675,71.105c0.552-0.288,0.96-0.528,1.464-0.792
				c0.48-0.288,0.912-0.552,1.44-0.888c0.72-0.456,1.656-1.248,1.176-2.064c-0.48-0.816-1.656-0.408-2.4-0.048
				c-0.576,0.288-1.032,0.528-1.512,0.816c-0.48,0.264-0.912,0.504-1.416,0.84c-0.72,0.456-1.656,1.272-1.152,2.088
				C107.731,71.873,108.907,71.465,109.675,71.105z"/>
		</g>
		<g>
			<path d="M106.795,62.422c0.456-1.248,1.488-2.256,2.256-2.64c0.768-0.36,1.752-0.552,2.88-0.456
				c0.576,0.048,1.584,0.216,2.16,0.816V40.918h0.456v20.496c0,0.096-0.024,0.168-0.024,0.24c-0.048,0.432-0.168,0.792-0.264,1.032
				c-0.456,1.248-1.44,2.088-2.184,2.52s-1.872,0.744-3.24,0.6c-0.528-0.072-1.68-0.168-2.16-1.032
				C106.291,64.126,106.627,62.903,106.795,62.422z M109.675,64.438c0.552-0.288,0.96-0.528,1.464-0.792
				c0.48-0.288,0.912-0.552,1.44-0.888c0.72-0.456,1.656-1.248,1.176-2.064c-0.48-0.816-1.656-0.408-2.4-0.048
				c-0.576,0.288-1.032,0.528-1.512,0.816c-0.48,0.264-0.912,0.504-1.416,0.84c-0.72,0.456-1.656,1.272-1.152,2.088
				C107.731,65.207,108.907,64.799,109.675,64.438z"/>
		</g>
		<g>
			<path d="M106.795,55.756c0.456-1.248,1.488-2.256,2.256-2.64c0.768-0.36,1.752-0.552,2.88-0.456
				c0.576,0.048,1.584,0.216,2.16,0.816V34.252h0.456v20.496c0,0.096-0.024,0.168-0.024,0.24c-0.048,0.432-0.168,0.792-0.264,1.032
				c-0.456,1.248-1.44,2.088-2.184,2.52s-1.872,0.744-3.24,0.6c-0.528-0.072-1.68-0.168-2.16-1.032
				C106.291,57.46,106.627,56.236,106.795,55.756z M109.675,57.772c0.552-0.288,0.96-0.528,1.464-0.792
				c0.48-0.288,0.912-0.552,1.44-0.888c0.72-0.456,1.656-1.248,1.176-2.064c-0.48-0.816-1.656-0.408-2.4-0.048
				c-0.576,0.288-1.032,0.528-1.512,0.816c-0.48,0.264-0.912,0.504-1.416,0.84c-0.72,0.456-1.656,1.272-1.152,2.088
				C107.731,58.54,108.907,58.132,109.675,57.772z"/>
		</g>
		<g>
			<path d="M310.796,40.422c0.456-1.248,1.487-2.256,2.256-2.64c0.768-0.36,1.752-0.552,2.88-0.456
				c0.576,0.048,1.584,0.216,2.16,0.816V18.918h0.456v20.496c0,0.096-0.024,0.168-0.024,0.24c-0.048,0.432-0.168,0.792-0.264,1.032
				c-0.456,1.248-1.44,2.088-2.184,2.52c-0.744,0.432-1.872,0.744-3.24,0.6c-0.528-0.072-1.681-0.168-2.16-1.032
				C310.292,42.126,310.628,40.903,310.796,40.422z M313.676,42.438c0.552-0.288,0.96-0.528,1.464-0.792
				c0.48-0.288,0.912-0.552,1.44-0.888c0.72-0.456,1.655-1.248,1.176-2.064c-0.48-0.816-1.656-0.408-2.4-0.048
				c-0.576,0.288-1.032,0.528-1.512,0.816c-0.48,0.264-0.912,0.504-1.416,0.84c-0.72,0.456-1.656,1.272-1.152,2.088
				C311.732,43.207,312.908,42.799,313.676,42.438z"/>
		</g>
		<g>
			<path d="M310.795,47.755c0.456-1.248,1.487-2.256,2.256-2.64c0.768-0.36,1.752-0.552,2.88-0.456
				c0.576,0.048,1.584,0.216,2.16,0.816V26.251h0.456v20.496c0,0.096-0.024,0.168-0.024,0.24c-0.048,0.432-0.168,0.792-0.264,1.032
				c-0.456,1.248-1.44,2.088-2.184,2.52c-0.744,0.432-1.872,0.744-3.24,0.6c-0.528-0.072-1.681-0.168-2.16-1.032
				C310.292,49.459,310.627,48.236,310.795,47.755z M313.675,49.771c0.552-0.288,0.96-0.528,1.464-0.792
				c0.48-0.288,0.912-0.552,1.44-0.888c0.72-0.456,1.655-1.248,1.176-2.064c-0.48-0.816-1.656-0.408-2.4-0.048
				c-0.576,0.288-1.032,0.528-1.512,0.816c-0.48,0.264-0.912,0.504-1.416,0.84c-0.72,0.456-1.656,1.272-1.152,2.088
				C311.731,50.54,312.907,50.132,313.675,49.771z"/>
		</g>
		<g>
			<path d="M310.795,58.422c0.456-1.248,1.487-2.256,2.256-2.64c0.768-0.36,1.752-0.552,2.88-0.456
				c0.576,0.048,1.584,0.216,2.16,0.816V36.918h0.456v20.496c0,0.096-0.024,0.168-0.024,0.24c-0.048,0.432-0.168,0.792-0.264,1.032
				c-0.456,1.248-1.44,2.088-2.184,2.52c-0.744,0.432-1.872,0.744-3.24,0.6c-0.528-0.072-1.681-0.168-2.16-1.032
				C310.292,60.126,310.627,58.902,310.795,58.422z M313.675,60.438c0.552-0.288,0.96-0.528,1.464-0.792
				c0.48-0.288,0.912-0.552,1.44-0.888c0.72-0.456,1.655-1.248,1.176-2.064c-0.48-0.816-1.656-0.408-2.4-0.048
				c-0.576,0.288-1.032,0.528-1.512,0.816c-0.48,0.264-0.912,0.504-1.416,0.84c-0.72,0.456-1.656,1.272-1.152,2.088
				C311.731,61.206,312.907,60.798,313.675,60.438z"/>
		</g>
		<g>
			<path d="M270.128,36.422c0.456-1.248,1.488-2.256,2.256-2.64c0.768-0.36,1.752-0.552,2.88-0.456
				c0.576,0.048,1.584,0.216,2.16,0.816V14.918h0.456v20.496c0,0.096-0.024,0.168-0.024,0.24c-0.048,0.432-0.168,0.792-0.264,1.032
				c-0.456,1.248-1.44,2.088-2.184,2.52s-1.872,0.744-3.24,0.6c-0.528-0.072-1.68-0.168-2.16-1.032
				C269.625,38.126,269.96,36.902,270.128,36.422z M273.009,38.438c0.552-0.288,0.96-0.528,1.464-0.792
				c0.48-0.288,0.912-0.552,1.44-0.888c0.72-0.456,1.656-1.248,1.176-2.064c-0.48-0.816-1.656-0.408-2.4-0.048
				c-0.576,0.288-1.032,0.528-1.512,0.816c-0.48,0.264-0.912,0.504-1.416,0.84c-0.72,0.456-1.656,1.272-1.152,2.088
				C271.064,39.206,272.241,38.798,273.009,38.438z"/>
		</g>
		<g>
			<path d="M270.128,43.756c0.456-1.248,1.488-2.256,2.256-2.64c0.768-0.36,1.752-0.552,2.88-0.456
				c0.576,0.048,1.584,0.216,2.16,0.816V22.252h0.456v20.496c0,0.096-0.024,0.168-0.024,0.24c-0.048,0.432-0.168,0.792-0.264,1.032
				c-0.456,1.248-1.44,2.088-2.184,2.52s-1.872,0.744-3.24,0.6c-0.528-0.072-1.68-0.168-2.16-1.032
				C269.625,45.46,269.96,44.236,270.128,43.756z M273.009,45.772c0.552-0.288,0.96-0.528,1.464-0.792
				c0.48-0.288,0.912-0.552,1.44-0.888c0.72-0.456,1.656-1.248,1.176-2.064c-0.48-0.816-1.656-0.408-2.4-0.048
				c-0.576,0.288-1.032,0.528-1.512,0.816c-0.48,0.264-0.912,0.504-1.416,0.84c-0.72,0.456-1.656,1.272-1.152,2.088
				C271.064,46.54,272.241,46.132,273.009,45.772z"/>
		</g>
		<g>
			<path d="M270.128,51.756c0.456-1.248,1.488-2.256,2.256-2.64c0.768-0.36,1.752-0.552,2.88-0.456
				c0.576,0.048,1.584,0.216,2.16,0.816V30.252h0.456v20.496c0,0.096-0.024,0.168-0.024,0.24c-0.048,0.432-0.168,0.792-0.264,1.032
				c-0.456,1.248-1.44,2.088-2.184,2.52s-1.872,0.744-3.24,0.6c-0.528-0.072-1.68-0.168-2.16-1.032
				C269.625,53.46,269.96,52.236,270.128,51.756z M273.009,53.772c0.552-0.288,0.96-0.528,1.464-0.792
				c0.48-0.288,0.912-0.552,1.44-0.888c0.72-0.456,1.656-1.248,1.176-2.064c-0.48-0.816-1.656-0.408-2.4-0.048
				c-0.576,0.288-1.032,0.528-1.512,0.816c-0.48,0.264-0.912,0.504-1.416,0.84c-0.72,0.456-1.656,1.272-1.152,2.088
				C271.064,54.54,272.241,54.132,273.009,53.772z"/>
		</g>
		<g>
			<path d="M270.128,59.089c0.456-1.248,1.488-2.256,2.256-2.64c0.768-0.36,1.752-0.552,2.88-0.456
				c0.576,0.048,1.584,0.216,2.16,0.816V37.585h0.456v20.496c0,0.096-0.024,0.168-0.024,0.24c-0.048,0.432-0.168,0.792-0.264,1.032
				c-0.456,1.248-1.44,2.088-2.184,2.52s-1.872,0.744-3.24,0.6c-0.528-0.072-1.68-0.168-2.16-1.032
				C269.625,60.793,269.96,59.569,270.128,59.089z M273.009,61.105c0.552-0.288,0.96-0.528,1.464-0.792
				c0.48-0.288,0.912-0.552,1.44-0.888c0.72-0.456,1.656-1.248,1.176-2.064c-0.48-0.816-1.656-0.408-2.4-0.048
				c-0.576,0.288-1.032,0.528-1.512,0.816c-0.48,0.264-0.912,0.504-1.416,0.84c-0.72,0.456-1.656,1.272-1.152,2.088
				C271.064,61.873,272.241,61.465,273.009,61.105z"/>
		</g>
		<g>
			<path d="M63.451,15.586c0.672-0.12,1.548-0.18,2.46-0.18c1.548,0,2.556,0.252,3.324,0.84c0.84,0.624,1.368,1.632,1.368,3.072
				c0,1.548-0.564,2.616-1.332,3.276c-0.852,0.708-2.16,1.044-3.744,1.044c-0.948,0-1.632-0.06-2.076-0.12V15.586z M65.275,22.174
				c0.156,0.036,0.42,0.036,0.636,0.036c1.668,0.012,2.76-0.9,2.76-2.832c0-1.74-0.984-2.568-2.568-2.568
				c-0.396,0-0.672,0.036-0.828,0.072V22.174z"/>
			<path d="M71.73,21.97c0.336,0.204,1.032,0.432,1.572,0.432c0.552,0,0.78-0.18,0.78-0.48c0-0.312-0.18-0.456-0.852-0.684
				c-1.224-0.396-1.692-1.068-1.68-1.752c0-1.104,0.936-1.932,2.388-1.932c0.684,0,1.284,0.168,1.644,0.348l-0.312,1.248
				c-0.264-0.132-0.78-0.324-1.272-0.324c-0.444,0-0.696,0.18-0.696,0.468c0,0.288,0.228,0.432,0.948,0.684
				c1.116,0.372,1.572,0.948,1.584,1.8c0,1.104-0.852,1.908-2.532,1.908c-0.768,0-1.452-0.18-1.896-0.42L71.73,21.97z"/>
			<path d="M82.482,21.67c0,0.768,0.024,1.392,0.048,1.884h-1.584l-0.084-0.828h-0.036c-0.228,0.36-0.78,0.96-1.836,0.96
				c-1.2,0-2.064-0.744-2.064-2.556v-3.444h1.824v3.156c0,0.852,0.276,1.368,0.924,1.368c0.504,0,0.804-0.348,0.912-0.636
				c0.048-0.108,0.072-0.24,0.072-0.396v-3.492h1.824V21.67z"/>
			<path d="M83.935,21.97c0.336,0.204,1.032,0.432,1.572,0.432c0.552,0,0.78-0.18,0.78-0.48c0-0.312-0.18-0.456-0.852-0.684
				c-1.224-0.396-1.692-1.068-1.68-1.752c0-1.104,0.936-1.932,2.388-1.932c0.684,0,1.284,0.168,1.644,0.348l-0.312,1.248
				c-0.264-0.132-0.78-0.324-1.272-0.324c-0.444,0-0.696,0.18-0.696,0.468c0,0.288,0.228,0.432,0.948,0.684
				c1.116,0.372,1.572,0.948,1.584,1.8c0,1.104-0.852,1.908-2.532,1.908c-0.768,0-1.452-0.18-1.896-0.42L83.935,21.97z"/>
			<path d="M92.154,23.554v-1.86h-3.456v-1.188l2.94-4.752h2.244v4.572h0.924v1.368h-0.924v1.86H92.154z M92.154,20.326v-1.728
				c0-0.468,0.024-0.948,0.048-1.452h-0.036c-0.252,0.504-0.468,0.96-0.732,1.452l-1.032,1.704l-0.012,0.024H92.154z"/>
		</g>
		<g>
			<path d="M114.117,14.919c0.672-0.12,1.548-0.18,2.46-0.18c1.548,0,2.556,0.252,3.324,0.84c0.84,0.624,1.368,1.632,1.368,3.072
				c0,1.548-0.564,2.616-1.332,3.276c-0.852,0.708-2.16,1.044-3.744,1.044c-0.948,0-1.632-0.06-2.076-0.12V14.919z M115.941,21.508
				c0.156,0.036,0.42,0.036,0.636,0.036c1.668,0.012,2.76-0.9,2.76-2.832c0-1.74-0.984-2.568-2.568-2.568
				c-0.396,0-0.672,0.036-0.828,0.072V21.508z"/>
		</g>
		<g>
			<path d="M280.207,7.848c-0.564,0.192-1.632,0.456-2.7,0.456c-1.476,0-2.544-0.372-3.288-1.08c-0.732-0.708-1.14-1.764-1.14-2.952
				c0.012-2.688,1.968-4.224,4.62-4.224c1.044,0,1.848,0.204,2.244,0.384l-0.384,1.476c-0.444-0.204-0.984-0.348-1.872-0.348
				c-1.524,0-2.688,0.864-2.688,2.616c0,1.68,1.056,2.652,2.556,2.652c0.408,0,0.744-0.048,0.888-0.108V5.016h-1.248V3.588h3.012
				V7.848z"/>
			<path d="M286.938,0.42v1.14l-3.216,6.66h-1.932l3.216-6.276V1.92h-3.576v-1.5H286.938z"/>
			<path d="M313.614,8.004c-0.323,0.156-1.092,0.348-2.063,0.348c-2.796,0-4.236-1.752-4.236-4.068c0-2.76,1.968-4.284,4.416-4.284
				c0.948,0,1.668,0.192,1.992,0.36l-0.384,1.44c-0.36-0.156-0.876-0.3-1.536-0.3c-1.44,0-2.568,0.876-2.568,2.688
				c0,1.62,0.96,2.64,2.58,2.64c0.564,0,1.164-0.108,1.536-0.264L313.614,8.004z"/>
		</g>
		<g>
			<path d="M55.878,123.969c-0.372,0.192-1.152,0.384-2.136,0.384c-2.28,0-3.984-1.44-3.984-4.104c0-2.544,1.716-4.248,4.224-4.248
				c0.996,0,1.644,0.216,1.92,0.36l-0.264,0.852c-0.384-0.192-0.948-0.336-1.62-0.336c-1.896,0-3.156,1.212-3.156,3.336
				c0,1.992,1.14,3.252,3.096,3.252c0.648,0,1.296-0.132,1.716-0.336L55.878,123.969z"/>
			<path d="M57.125,115.701h1.056v8.52h-1.056V115.701z"/>
			<path d="M64.793,122.637c0,0.6,0.012,1.128,0.048,1.584h-0.936l-0.06-0.948h-0.024c-0.264,0.468-0.888,1.08-1.92,1.08
				c-0.912,0-2.004-0.516-2.004-2.544v-3.396h1.056v3.204c0,1.104,0.348,1.86,1.296,1.86c0.708,0,1.2-0.492,1.392-0.972
				c0.06-0.144,0.096-0.336,0.096-0.54v-3.552h1.056V122.637z"/>
			<path d="M66.401,123.153c0.324,0.192,0.876,0.408,1.404,0.408c0.756,0,1.116-0.372,1.116-0.864c0-0.504-0.3-0.78-1.068-1.068
				c-1.056-0.384-1.548-0.948-1.548-1.644c0-0.936,0.768-1.704,2.004-1.704c0.588,0,1.104,0.156,1.416,0.36l-0.252,0.756
				c-0.228-0.132-0.648-0.336-1.188-0.336c-0.624,0-0.96,0.36-0.96,0.792c0,0.492,0.336,0.708,1.092,0.996
				c0.996,0.372,1.524,0.876,1.524,1.752c0,1.032-0.804,1.752-2.16,1.752c-0.636,0-1.224-0.168-1.632-0.408L66.401,123.153z"/>
			<path d="M72.569,117.021v1.392h1.512v0.804h-1.512v3.132c0,0.72,0.204,1.128,0.792,1.128c0.288,0,0.456-0.024,0.612-0.072
				l0.048,0.804c-0.204,0.072-0.528,0.144-0.936,0.144c-0.492,0-0.888-0.168-1.14-0.444c-0.288-0.324-0.408-0.84-0.408-1.524v-3.168
				h-0.9v-0.804h0.9v-1.068L72.569,117.021z"/>
			<path d="M75.797,121.497c0.024,1.428,0.924,2.016,1.98,2.016c0.756,0,1.224-0.132,1.608-0.288l0.192,0.744
				c-0.372,0.168-1.02,0.372-1.944,0.372c-1.776,0-2.856-1.188-2.856-2.928c0-1.764,1.044-3.144,2.736-3.144
				c1.896,0,2.388,1.668,2.388,2.736c0,0.216-0.012,0.384-0.036,0.504L75.797,121.497z M78.881,120.741
				c0.012-0.66-0.276-1.716-1.452-1.716c-1.08,0-1.536,0.984-1.62,1.716H78.881z"/>
			<path d="M81.221,120.225c0-0.684-0.012-1.272-0.048-1.812h0.924l0.048,1.14h0.036c0.264-0.78,0.912-1.272,1.62-1.272
				c0.108,0,0.192,0.012,0.288,0.036v0.984c-0.12-0.012-0.228-0.024-0.372-0.024c-0.744,0-1.272,0.564-1.416,1.344
				c-0.024,0.156-0.036,0.324-0.036,0.504v3.096h-1.056L81.221,120.225z"/>
			<path d="M84.989,123.153c0.324,0.192,0.876,0.408,1.404,0.408c0.756,0,1.116-0.372,1.116-0.864c0-0.504-0.3-0.78-1.068-1.068
				c-1.056-0.384-1.548-0.948-1.548-1.644c0-0.936,0.768-1.704,2.004-1.704c0.588,0,1.104,0.156,1.416,0.36l-0.252,0.756
				c-0.228-0.132-0.648-0.336-1.188-0.336c-0.624,0-0.96,0.36-0.96,0.792c0,0.492,0.336,0.708,1.092,0.996
				c0.996,0.372,1.524,0.876,1.524,1.752c0,1.032-0.804,1.752-2.16,1.752c-0.636,0-1.224-0.168-1.632-0.408L84.989,123.153z"/>
			<path d="M94.793,124.353c-1.56,0-2.784-1.152-2.784-2.988c0-1.944,1.284-3.084,2.88-3.084c1.668,0,2.796,1.212,2.796,2.976
				c0,2.16-1.5,3.096-2.88,3.096H94.793z M94.829,123.561c1.008,0,1.764-0.948,1.764-2.268c0-0.984-0.492-2.22-1.74-2.22
				c-1.236,0-1.776,1.152-1.776,2.256c0,1.272,0.72,2.232,1.74,2.232H94.829z"/>
			<path d="M99.113,124.221v-5.004h-0.804v-0.804h0.804v-0.276c0-0.816,0.192-1.56,0.684-2.028c0.396-0.384,0.924-0.54,1.404-0.54
				c0.384,0,0.696,0.084,0.9,0.168l-0.132,0.816c-0.168-0.072-0.372-0.132-0.684-0.132c-0.888,0-1.128,0.792-1.128,1.68v0.312h1.404
				v0.804h-1.392v5.004H99.113z"/>
			<path d="M104.969,122.949c0.468,0.3,1.14,0.528,1.86,0.528c1.068,0,1.692-0.552,1.692-1.38c0-0.744-0.432-1.188-1.524-1.596
				c-1.32-0.48-2.136-1.176-2.136-2.304c0-1.26,1.044-2.196,2.616-2.196c0.816,0,1.428,0.192,1.776,0.396l-0.288,0.852
				c-0.252-0.156-0.792-0.384-1.524-0.384c-1.104,0-1.524,0.66-1.524,1.212c0,0.756,0.492,1.128,1.608,1.56
				c1.368,0.54,2.052,1.188,2.052,2.376c0,1.248-0.912,2.34-2.82,2.34c-0.78,0-1.632-0.24-2.064-0.528L104.969,122.949z"/>
			<path d="M111.653,121.497c0.024,1.428,0.924,2.016,1.98,2.016c0.756,0,1.224-0.132,1.608-0.288l0.192,0.744
				c-0.372,0.168-1.02,0.372-1.944,0.372c-1.776,0-2.856-1.188-2.856-2.928c0-1.764,1.044-3.144,2.736-3.144
				c1.896,0,2.388,1.668,2.388,2.736c0,0.216-0.012,0.384-0.036,0.504L111.653,121.497z M114.737,120.741
				c0.012-0.66-0.276-1.716-1.452-1.716c-1.08,0-1.536,0.984-1.62,1.716H114.737z"/>
			<path d="M121.205,124.017c-0.276,0.132-0.888,0.336-1.668,0.336c-1.752,0-2.892-1.188-2.892-2.976
				c0-1.788,1.224-3.096,3.12-3.096c0.624,0,1.176,0.156,1.464,0.312l-0.24,0.804c-0.252-0.132-0.648-0.276-1.224-0.276
				c-1.332,0-2.052,0.996-2.052,2.208c0,1.344,0.864,2.172,2.016,2.172c0.6,0,0.996-0.144,1.296-0.276L121.205,124.017z"/>
			<path d="M124.733,124.353c-1.56,0-2.784-1.152-2.784-2.988c0-1.944,1.284-3.084,2.88-3.084c1.668,0,2.796,1.212,2.796,2.976
				c0,2.16-1.5,3.096-2.88,3.096H124.733z M124.769,123.561c1.008,0,1.764-0.948,1.764-2.268c0-0.984-0.492-2.22-1.74-2.22
				c-1.236,0-1.776,1.152-1.776,2.256c0,1.272,0.72,2.232,1.74,2.232H124.769z"/>
			<path d="M128.957,119.985c0-0.612-0.012-1.092-0.048-1.572h0.936l0.06,0.948h0.024c0.288-0.54,0.96-1.08,1.92-1.08
				c0.804,0,2.052,0.48,2.052,2.472v3.468h-1.056v-3.348c0-0.936-0.348-1.728-1.344-1.728c-0.684,0-1.224,0.492-1.416,1.08
				c-0.048,0.132-0.072,0.324-0.072,0.492v3.504h-1.056V119.985z"/>
			<path d="M140.632,115.701v7.02c0,0.516,0.012,1.104,0.048,1.5h-0.948l-0.048-1.008h-0.024c-0.324,0.648-1.02,1.14-1.968,1.14
				c-1.404,0-2.496-1.188-2.496-2.952c-0.012-1.944,1.2-3.12,2.604-3.12c0.9,0,1.5,0.42,1.752,0.876h0.024v-3.456H140.632z
				 M139.577,120.777c0-0.144-0.012-0.312-0.048-0.456c-0.156-0.66-0.732-1.212-1.524-1.212c-1.092,0-1.74,0.96-1.74,2.232
				c0,1.188,0.588,2.16,1.716,2.16c0.708,0,1.356-0.48,1.548-1.26c0.036-0.144,0.048-0.288,0.048-0.456V120.777z"/>
			<path d="M142.241,123.153c0.324,0.192,0.876,0.408,1.404,0.408c0.756,0,1.116-0.372,1.116-0.864c0-0.504-0.3-0.78-1.068-1.068
				c-1.056-0.384-1.548-0.948-1.548-1.644c0-0.936,0.768-1.704,2.004-1.704c0.588,0,1.104,0.156,1.416,0.36l-0.252,0.756
				c-0.228-0.132-0.648-0.336-1.188-0.336c-0.624,0-0.96,0.36-0.96,0.792c0,0.492,0.336,0.708,1.092,0.996
				c0.996,0.372,1.524,0.876,1.524,1.752c0,1.032-0.804,1.752-2.16,1.752c-0.636,0-1.224-0.168-1.632-0.408L142.241,123.153z"/>
			<path d="M151.96,115.893c-0.876,1.188-1.5,2.736-1.5,4.92c0,2.136,0.66,3.66,1.5,4.86h-0.816
				c-0.756-0.996-1.572-2.532-1.572-4.872c0.012-2.352,0.816-3.9,1.572-4.908H151.96z"/>
			<path d="M157.948,122.637c0,0.6,0.012,1.128,0.048,1.584h-0.936l-0.06-0.948h-0.024c-0.264,0.468-0.888,1.08-1.92,1.08
				c-0.912,0-2.004-0.516-2.004-2.544v-3.396h1.056v3.204c0,1.104,0.348,1.86,1.296,1.86c0.708,0,1.2-0.492,1.392-0.972
				c0.06-0.144,0.096-0.336,0.096-0.54v-3.552h1.056V122.637z"/>
			<path d="M159.7,119.985c0-0.612-0.012-1.092-0.048-1.572h0.936l0.06,0.948h0.024c0.288-0.54,0.96-1.08,1.92-1.08
				c0.804,0,2.052,0.48,2.052,2.472v3.468h-1.056v-3.348c0-0.936-0.348-1.728-1.344-1.728c-0.684,0-1.224,0.492-1.416,1.08
				c-0.048,0.132-0.072,0.324-0.072,0.492v3.504H159.7V119.985z"/>
			<path d="M166.372,120.225c0-0.684-0.012-1.272-0.048-1.812h0.924l0.048,1.14h0.036c0.264-0.78,0.912-1.272,1.62-1.272
				c0.108,0,0.192,0.012,0.288,0.036v0.984c-0.12-0.012-0.228-0.024-0.372-0.024c-0.744,0-1.272,0.564-1.416,1.344
				c-0.024,0.156-0.036,0.324-0.036,0.504v3.096h-1.056L166.372,120.225z"/>
			<path d="M170.812,121.497c0.024,1.428,0.924,2.016,1.98,2.016c0.756,0,1.224-0.132,1.608-0.288l0.192,0.744
				c-0.372,0.168-1.02,0.372-1.944,0.372c-1.776,0-2.856-1.188-2.856-2.928c0-1.764,1.044-3.144,2.736-3.144
				c1.896,0,2.388,1.668,2.388,2.736c0,0.216-0.012,0.384-0.036,0.504L170.812,121.497z M173.896,120.741
				c0.012-0.66-0.276-1.716-1.452-1.716c-1.08,0-1.536,0.984-1.62,1.716H173.896z"/>
			<path d="M176.08,123.153c0.324,0.192,0.876,0.408,1.404,0.408c0.756,0,1.116-0.372,1.116-0.864c0-0.504-0.3-0.78-1.068-1.068
				c-1.056-0.384-1.548-0.948-1.548-1.644c0-0.936,0.768-1.704,2.004-1.704c0.588,0,1.104,0.156,1.416,0.36l-0.252,0.756
				c-0.228-0.132-0.648-0.336-1.188-0.336c-0.624,0-0.96,0.36-0.96,0.792c0,0.492,0.336,0.708,1.092,0.996
				c0.996,0.372,1.524,0.876,1.524,1.752c0,1.032-0.804,1.752-2.16,1.752c-0.636,0-1.224-0.168-1.632-0.408L176.08,123.153z"/>
			<path d="M183.34,124.353c-1.56,0-2.784-1.152-2.784-2.988c0-1.944,1.284-3.084,2.88-3.084c1.668,0,2.796,1.212,2.796,2.976
				c0,2.16-1.5,3.096-2.88,3.096H183.34z M183.376,123.561c1.008,0,1.764-0.948,1.764-2.268c0-0.984-0.492-2.22-1.74-2.22
				c-1.236,0-1.776,1.152-1.776,2.256c0,1.272,0.72,2.232,1.74,2.232H183.376z"/>
			<path d="M187.564,115.701h1.056v8.52h-1.056V115.701z"/>
			<path d="M190.78,118.413l1.14,3.252c0.192,0.54,0.348,1.02,0.468,1.5h0.036c0.132-0.48,0.3-0.96,0.492-1.5l1.128-3.252h1.104
				l-2.28,5.808h-1.008l-2.208-5.808H190.78z"/>
			<path d="M196.612,121.497c0.024,1.428,0.924,2.016,1.98,2.016c0.756,0,1.224-0.132,1.608-0.288l0.192,0.744
				c-0.372,0.168-1.02,0.372-1.944,0.372c-1.776,0-2.856-1.188-2.856-2.928c0-1.764,1.044-3.144,2.736-3.144
				c1.896,0,2.388,1.668,2.388,2.736c0,0.216-0.012,0.384-0.036,0.504L196.612,121.497z M199.696,120.741
				c0.012-0.66-0.276-1.716-1.452-1.716c-1.08,0-1.536,0.984-1.62,1.716H199.696z"/>
			<path d="M207.04,115.701v7.02c0,0.516,0.012,1.104,0.048,1.5h-0.948l-0.048-1.008h-0.024c-0.324,0.648-1.02,1.14-1.968,1.14
				c-1.404,0-2.496-1.188-2.496-2.952c-0.012-1.944,1.2-3.12,2.604-3.12c0.9,0,1.5,0.42,1.752,0.876h0.024v-3.456H207.04z
				 M205.984,120.777c0-0.144-0.012-0.312-0.048-0.456c-0.156-0.66-0.732-1.212-1.524-1.212c-1.092,0-1.74,0.96-1.74,2.232
				c0,1.188,0.588,2.16,1.716,2.16c0.708,0,1.356-0.48,1.548-1.26c0.036-0.144,0.048-0.288,0.048-0.456V120.777z"/>
			<path d="M208.156,125.673c0.84-1.188,1.5-2.736,1.5-4.896c0-2.16-0.648-3.684-1.5-4.884h0.816
				c0.756,0.984,1.572,2.532,1.572,4.884c-0.012,2.352-0.816,3.876-1.572,4.896H208.156z"/>
		</g>
		<g>
			<path fill="#FE3310" d="M85.054,88.668c-0.06-1.128-0.132-2.496-0.132-3.492h-0.024c-0.288,0.936-0.612,1.956-1.02,3.072
				l-1.428,3.924h-0.792l-1.32-3.852c-0.384-1.152-0.696-2.184-0.924-3.144H79.39c-0.024,1.008-0.084,2.352-0.156,3.576
				l-0.216,3.468h-0.996l0.564-8.088h1.332l1.38,3.912c0.336,0.996,0.6,1.884,0.816,2.724h0.024
				c0.216-0.816,0.504-1.704,0.864-2.724l1.44-3.912h1.332l0.504,8.088h-1.032L85.054,88.668z"/>
			<path fill="#FE3310" d="M92.014,90.828c0,0.504,0.024,0.996,0.084,1.392h-0.948l-0.096-0.732h-0.036
				c-0.312,0.456-0.948,0.864-1.776,0.864c-1.176,0-1.776-0.828-1.776-1.668c0-1.404,1.248-2.172,3.492-2.16v-0.12
				c0-0.48-0.132-1.356-1.32-1.344c-0.552,0-1.116,0.156-1.524,0.432l-0.24-0.708c0.48-0.3,1.188-0.504,1.92-0.504
				c1.788,0,2.22,1.212,2.22,2.376V90.828z M90.981,89.256c-1.152-0.024-2.46,0.18-2.46,1.308c0,0.696,0.456,1.008,0.984,1.008
				c0.768,0,1.26-0.48,1.428-0.972c0.036-0.108,0.048-0.228,0.048-0.336V89.256z"/>
			<path fill="#FE3310" d="M92.277,93.924c0.492-0.036,0.9-0.168,1.152-0.444c0.288-0.324,0.408-0.792,0.408-2.184v-4.884h1.056
				v5.292c0,1.128-0.18,1.86-0.696,2.388c-0.468,0.468-1.236,0.66-1.8,0.66L92.277,93.924z M94.341,85.344
				c-0.396,0-0.66-0.312-0.66-0.684s0.276-0.672,0.684-0.672c0.408,0,0.672,0.3,0.672,0.672s-0.252,0.684-0.684,0.684H94.341z"/>
			<path fill="#FE3310" d="M96.969,92.352c-0.408,0-0.696-0.324-0.696-0.756s0.3-0.756,0.72-0.756c0.42,0,0.708,0.312,0.708,0.756
				c0,0.432-0.288,0.756-0.72,0.756H96.969z"/>
			<path fill="#FE3310" d="M100.329,92.22v-0.648l0.828-0.804c1.992-1.896,2.904-2.904,2.904-4.08c0-0.792-0.372-1.524-1.536-1.524
				c-0.708,0-1.296,0.36-1.656,0.66l-0.336-0.744c0.528-0.444,1.308-0.792,2.208-0.792c1.668,0,2.376,1.152,2.376,2.268
				c0,1.44-1.044,2.604-2.688,4.188l-0.612,0.576v0.024h3.492v0.876H100.329z"/>
			<path fill="#FE3310" d="M106.821,87.984c0-0.612-0.012-1.092-0.048-1.572h0.936l0.06,0.948h0.024c0.288-0.54,0.96-1.08,1.92-1.08
				c0.804,0,2.052,0.48,2.052,2.472v3.468h-1.056v-3.348c0-0.936-0.348-1.728-1.344-1.728c-0.684,0-1.224,0.492-1.416,1.08
				c-0.048,0.132-0.072,0.324-0.072,0.492v3.504h-1.056V87.984z"/>
			<path fill="#FE3310" d="M118.497,83.7v7.02c0,0.516,0.012,1.104,0.048,1.5h-0.948l-0.048-1.008h-0.024
				c-0.324,0.648-1.02,1.14-1.968,1.14c-1.404,0-2.496-1.188-2.496-2.952c-0.012-1.944,1.2-3.12,2.604-3.12
				c0.9,0,1.5,0.42,1.752,0.876h0.024V83.7H118.497z M117.441,88.776c0-0.144-0.012-0.312-0.048-0.456
				c-0.156-0.66-0.732-1.212-1.524-1.212c-1.092,0-1.74,0.96-1.74,2.232c0,1.188,0.588,2.16,1.716,2.16
				c0.708,0,1.356-0.48,1.548-1.26c0.036-0.144,0.048-0.288,0.048-0.456V88.776z"/>
		</g>
		<g>
			<path fill="#FE3310" d="M233.387,87.001c-0.06-1.128-0.132-2.496-0.132-3.492h-0.024c-0.288,0.936-0.612,1.956-1.02,3.072
				l-1.428,3.924h-0.792l-1.32-3.852c-0.384-1.152-0.696-2.184-0.924-3.144h-0.024c-0.024,1.008-0.084,2.352-0.156,3.576
				l-0.216,3.468h-0.996l0.564-8.088h1.332l1.38,3.912c0.336,0.996,0.6,1.884,0.816,2.724h0.024
				c0.216-0.816,0.504-1.704,0.864-2.724l1.44-3.912h1.332l0.504,8.088h-1.032L233.387,87.001z"/>
			<path fill="#FE3310" d="M236.843,83.678c-0.396,0-0.66-0.312-0.66-0.684s0.276-0.672,0.684-0.672c0.408,0,0.672,0.3,0.672,0.672
				s-0.264,0.684-0.684,0.684H236.843z M236.339,90.554v-5.808h1.056v5.808H236.339z"/>
			<path fill="#FE3310" d="M239.147,86.318c0-0.612-0.012-1.092-0.048-1.572h0.936l0.06,0.948h0.024c0.288-0.54,0.96-1.08,1.92-1.08
				c0.804,0,2.052,0.48,2.052,2.472v3.468h-1.056v-3.348c0-0.936-0.348-1.728-1.344-1.728c-0.684,0-1.224,0.492-1.416,1.08
				c-0.048,0.132-0.072,0.324-0.072,0.492v3.504h-1.056V86.318z"/>
			<path fill="#FE3310" d="M246.25,90.686c-0.408,0-0.696-0.324-0.696-0.756s0.3-0.756,0.72-0.756c0.42,0,0.708,0.312,0.708,0.756
				c0,0.432-0.288,0.756-0.72,0.756H246.25z"/>
			<path fill="#FE3310" d="M254.674,82.753v0.696l-3.396,7.104h-1.08l3.372-6.9V83.63h-3.816v-0.876H254.674z"/>
			<path fill="#FE3310" d="M257.375,83.354v1.392h1.512v0.804h-1.512v3.132c0,0.72,0.204,1.128,0.792,1.128
				c0.288,0,0.456-0.024,0.612-0.072l0.048,0.804c-0.204,0.072-0.528,0.144-0.936,0.144c-0.492,0-0.888-0.168-1.14-0.444
				c-0.288-0.324-0.408-0.84-0.408-1.524V85.55h-0.9v-0.804h0.9v-1.068L257.375,83.354z"/>
			<path fill="#FE3310" d="M260.074,82.034h1.056v3.624h0.024c0.168-0.3,0.432-0.576,0.756-0.744c0.312-0.192,0.684-0.3,1.08-0.3
				c0.78,0,2.028,0.48,2.028,2.484v3.456h-1.056v-3.336c0-0.948-0.348-1.728-1.344-1.728c-0.684,0-1.212,0.48-1.416,1.056
				c-0.06,0.144-0.072,0.3-0.072,0.504v3.504h-1.056V82.034z"/>
		</g>
		<path fill="none" stroke="#FE3310" d="M89.326,80.221L73.992,62.887"/>
		<path fill="none" stroke="#FE3310" d="M89.326,80.221l-10.667-18"/>
		<path fill="none" stroke="#FE3310" d="M243.992,75.554l21.333-38.667"/>
		<path fill="none" stroke="#FE3310" d="M243.992,75.554l22.667-14"/>
		<g>
			<path fill="#FE3310" d="M8.72,179.335c-0.06-1.128-0.132-2.496-0.132-3.492H8.564c-0.288,0.936-0.612,1.956-1.02,3.072
				l-1.428,3.924H5.324l-1.32-3.852c-0.384-1.152-0.696-2.184-0.924-3.144H3.056c-0.024,1.008-0.084,2.352-0.156,3.576l-0.216,3.468
				H1.688l0.564-8.088h1.332l1.38,3.912c0.336,0.996,0.6,1.884,0.816,2.724h0.024c0.216-0.816,0.504-1.704,0.864-2.724l1.44-3.912
				H9.44l0.504,8.088H8.912L8.72,179.335z"/>
			<path fill="#FE3310" d="M15.68,181.495c0,0.504,0.024,0.996,0.084,1.392h-0.948l-0.096-0.732h-0.036
				c-0.312,0.456-0.948,0.864-1.776,0.864c-1.176,0-1.776-0.828-1.776-1.668c0-1.404,1.248-2.172,3.492-2.16v-0.12
				c0-0.48-0.132-1.356-1.32-1.344c-0.552,0-1.116,0.156-1.524,0.432l-0.24-0.708c0.48-0.3,1.188-0.504,1.92-0.504
				c1.788,0,2.22,1.212,2.22,2.376V181.495z M14.648,179.923c-1.152-0.024-2.46,0.18-2.46,1.308c0,0.696,0.456,1.008,0.984,1.008
				c0.768,0,1.26-0.48,1.428-0.972c0.036-0.108,0.048-0.228,0.048-0.336V179.923z"/>
			<path fill="#FE3310" d="M15.944,184.591c0.492-0.036,0.9-0.168,1.152-0.444c0.288-0.324,0.408-0.792,0.408-2.184v-4.884h1.056
				v5.292c0,1.128-0.18,1.86-0.696,2.388c-0.468,0.468-1.236,0.66-1.8,0.66L15.944,184.591z M18.008,176.011
				c-0.396,0-0.66-0.312-0.66-0.684s0.276-0.672,0.684-0.672c0.408,0,0.672,0.3,0.672,0.672s-0.252,0.684-0.684,0.684H18.008z"/>
			<path fill="#FE3310" d="M20.636,183.019c-0.408,0-0.696-0.324-0.696-0.756s0.3-0.756,0.72-0.756c0.42,0,0.708,0.312,0.708,0.756
				c0,0.432-0.288,0.756-0.72,0.756H20.636z"/>
			<path fill="#FE3310" d="M23.996,182.887v-0.648l0.828-0.804c1.992-1.896,2.904-2.904,2.904-4.08c0-0.792-0.372-1.524-1.536-1.524
				c-0.708,0-1.296,0.36-1.656,0.66l-0.336-0.744c0.528-0.444,1.308-0.792,2.208-0.792c1.668,0,2.376,1.152,2.376,2.268
				c0,1.44-1.044,2.604-2.688,4.188l-0.612,0.576v0.024h3.492v0.876H23.996z"/>
			<path fill="#FE3310" d="M30.488,178.651c0-0.612-0.012-1.092-0.048-1.572h0.936l0.06,0.948h0.024c0.288-0.54,0.96-1.08,1.92-1.08
				c0.804,0,2.052,0.48,2.052,2.472v3.468h-1.056v-3.348c0-0.936-0.348-1.728-1.344-1.728c-0.684,0-1.224,0.492-1.416,1.08
				c-0.048,0.132-0.072,0.324-0.072,0.492v3.504h-1.056V178.651z"/>
			<path fill="#FE3310" d="M42.164,174.367v7.02c0,0.516,0.012,1.104,0.048,1.5h-0.948l-0.048-1.008h-0.024
				c-0.324,0.648-1.02,1.14-1.968,1.14c-1.404,0-2.496-1.188-2.496-2.952c-0.012-1.944,1.2-3.12,2.604-3.12
				c0.9,0,1.5,0.42,1.752,0.876h0.024v-3.456H42.164z M41.107,179.443c0-0.144-0.012-0.312-0.048-0.456
				c-0.156-0.66-0.732-1.212-1.524-1.212c-1.092,0-1.74,0.96-1.74,2.232c0,1.188,0.588,2.16,1.716,2.16
				c0.708,0,1.356-0.48,1.548-1.26c0.036-0.144,0.048-0.288,0.048-0.456V179.443z"/>
		</g>
		<g>
			<path fill="#FE3310" d="M77.387,195.335c-0.06-1.128-0.132-2.496-0.132-3.492h-0.024c-0.288,0.936-0.612,1.956-1.02,3.072
				l-1.428,3.924h-0.792l-1.32-3.852c-0.384-1.152-0.696-2.184-0.924-3.144h-0.024c-0.024,1.008-0.084,2.352-0.156,3.576
				l-0.216,3.468h-0.996l0.564-8.088h1.332l1.38,3.912c0.336,0.996,0.6,1.884,0.816,2.724h0.024
				c0.216-0.816,0.504-1.704,0.864-2.724l1.44-3.912h1.332l0.504,8.088h-1.032L77.387,195.335z"/>
			<path fill="#FE3310" d="M80.842,192.011c-0.396,0-0.66-0.312-0.66-0.684s0.276-0.672,0.684-0.672c0.408,0,0.672,0.3,0.672,0.672
				s-0.264,0.684-0.684,0.684H80.842z M80.338,198.887v-5.808h1.056v5.808H80.338z"/>
			<path fill="#FE3310" d="M83.146,194.651c0-0.612-0.012-1.092-0.048-1.572h0.936l0.06,0.948h0.024c0.288-0.54,0.96-1.08,1.92-1.08
				c0.804,0,2.052,0.48,2.052,2.472v3.468h-1.056v-3.348c0-0.936-0.348-1.728-1.344-1.728c-0.684,0-1.224,0.492-1.416,1.08
				c-0.048,0.132-0.072,0.324-0.072,0.492v3.504h-1.056V194.651z"/>
			<path fill="#FE3310" d="M90.25,199.019c-0.408,0-0.696-0.324-0.696-0.756s0.3-0.756,0.72-0.756c0.42,0,0.708,0.312,0.708,0.756
				c0,0.432-0.288,0.756-0.72,0.756H90.25z"/>
			<path fill="#FE3310" d="M93.61,198.887v-0.648l0.828-0.804c1.992-1.896,2.904-2.904,2.904-4.08c0-0.792-0.372-1.524-1.536-1.524
				c-0.708,0-1.296,0.36-1.656,0.66l-0.336-0.744c0.528-0.444,1.308-0.792,2.208-0.792c1.668,0,2.376,1.152,2.376,2.268
				c0,1.44-1.044,2.604-2.688,4.188l-0.612,0.576v0.024h3.492v0.876H93.61z"/>
			<path fill="#FE3310" d="M100.102,194.651c0-0.612-0.012-1.092-0.048-1.572h0.936l0.06,0.948h0.024
				c0.288-0.54,0.96-1.08,1.92-1.08c0.804,0,2.052,0.48,2.052,2.472v3.468h-1.056v-3.348c0-0.936-0.348-1.728-1.344-1.728
				c-0.684,0-1.224,0.492-1.416,1.08c-0.048,0.132-0.072,0.324-0.072,0.492v3.504h-1.056V194.651z"/>
			<path fill="#FE3310" d="M111.778,190.367v7.02c0,0.516,0.012,1.104,0.048,1.5h-0.948l-0.048-1.008h-0.024
				c-0.324,0.648-1.02,1.14-1.968,1.14c-1.404,0-2.496-1.188-2.496-2.952c-0.012-1.944,1.2-3.12,2.604-3.12
				c0.9,0,1.5,0.42,1.752,0.876h0.024v-3.456H111.778z M110.722,195.443c0-0.144-0.012-0.312-0.048-0.456
				c-0.156-0.66-0.732-1.212-1.524-1.212c-1.092,0-1.74,0.96-1.74,2.232c0,1.188,0.588,2.16,1.716,2.16
				c0.708,0,1.356-0.48,1.548-1.26c0.036-0.144,0.048-0.288,0.048-0.456V195.443z"/>
		</g>
		<path fill="none" stroke="#FE3310" d="M33.992,172.221l14.667-6"/>
		<path fill="none" stroke="#FE3310" d="M33.992,172.221l17.37-2.263"/>
		<path fill="none" stroke="#FE3310" d="M85.326,190.221l-25.333-12.667"/>
		<path fill="none" stroke="#FE3310" d="M85.326,190.221l-19.333-15.333"/>
	</g>
</svg>
