<?xml version="1.0" encoding="utf-8"?>
<!-- Generator: Adobe Illustrator 10.0, SVG Export Plug-In . SVG Version: 3.0.0 Build 76)  -->
<!DOCTYPE svg PUBLIC "-//W3C//DTD SVG 1.0//EN"    "http://www.w3.org/TR/2001/REC-SVG-20010904/DTD/svg10.dtd" [
	<!ENTITY ns_flows "http://ns.adobe.com/Flows/1.0/">
	<!ENTITY ns_extend "http://ns.adobe.com/Extensibility/1.0/">
	<!ENTITY ns_ai "http://ns.adobe.com/AdobeIllustrator/10.0/">
	<!ENTITY ns_svg "http://www.w3.org/2000/svg">
	<!ENTITY ns_xlink "http://www.w3.org/1999/xlink">
]>
<svg  xmlns:x="&ns_extend;" xmlns:i="&ns_ai;" xmlns:graph="&ns_graphs;"
	 xmlns="&ns_svg;" xmlns:xlink="&ns_xlink;" xmlns:a="http://ns.adobe.com/AdobeSVGViewerExtensions/3.0/" width="475" height="122"
	 viewBox="0.2 0.08 475 122" overflow="visible" enable-background="new 0.2 0.08 475 122" xml:space="preserve">
	<g id="Layer_1_2_">
		<g>
			<path fill="none" stroke="#000000" d="M0.127,4.246h474.49"/>
			<path fill="none" stroke="#000000" d="M0.127,19.357h474.49"/>
			<path fill="none" stroke="#000000" d="M0.363,26.48h474.491"/>
			<path fill="none" stroke="#000000" d="M0,33.864h474.49"/>
			<path fill="none" stroke="#000000" d="M0,11.5h474.49"/>
		</g>
		<path stroke="#000000" stroke-miterlimit="1" d="M52.706,96.401h-8.513v-3.142h8.513V96.401z"/>
		<path fill="none" stroke="#0A0A0A" d="M111.9,4.395v29.746"/>
		<g>
			<path d="M35.192,12.72v1.584c0,0.96,1.128,0.936,1.128,0.936v0.624h-5.208V15.24c0,0,1.176,0.048,1.152-0.888V12.72h-4.44
				l-0.432-0.456c2.904-3.912,2.928-4.632,3.624-8.184h4.152c-0.984,1.824-4.296,5.256-6.624,7.968h3.72V9.096l2.928-3.216v6.168
				h1.728v0.672H35.192z"/>
		</g>
		<g>
			<path d="M11.152,33.768c-4.944-2.352-5.736-5.376-5.952-8.472c-0.24-3.36,1.896-6.768,3.888-8.664
				c1.152-1.08,2.4-2.136,3.888-3.264c-0.048-0.84-0.24-1.176-0.336-2.376c-0.024-0.504-0.336-2.856,0.168-5.568
				c0.312-1.608,2.328-5.4,3.72-5.424c1.08-0.024,2.736,4.296,2.784,6.456c0.072,3.336-0.72,4.848-1.704,6.576
				c-0.504,0.864-1.032,1.464-1.584,2.136C15.448,15.864,14.8,16.272,14.2,16.8c0,0,0.768,4.344,0.792,4.656
				c1.536-0.192,3.408,0.36,4.08,0.84c1.704,1.272,2.352,3.024,2.472,4.728c0.216,2.712-1.272,5.568-4.56,6.936
				c0,0,0.504,3.456,0.624,4.176c0.264,1.896,0.216,3.096-0.192,3.864c-0.696,1.296-1.824,2.496-4.008,2.64
				c-1.68,0.096-4.992-0.744-5.16-3.384c-0.096-1.56,0.6-3.24,2.496-3.36c1.152-0.096,2.52,0.864,2.616,2.232
				c0.096,1.176-0.672,2.4-2.664,2.952c0.312,0.432,1.248,0.936,2.592,0.936c1.392,0,2.832-0.936,3.528-2.184
				c0.432-0.816,0.384-2.28,0.216-3.624c-0.072-0.456-0.648-4.08-0.648-4.08C14.608,34.416,12.16,34.248,11.152,33.768z
				 M11.632,28.08c0.048,1.152,1.008,2.496,1.896,2.952c-0.12,0.072-0.24,0.264-0.24,0.264c-0.984-0.48-1.824-1.272-2.04-1.56
				c-0.696-0.936-0.984-1.464-1.08-2.88c-0.096-1.32,0.624-3.096,2.232-4.344c0.84-0.624,1.248-0.768,1.968-0.936l-0.72-4.344
				c-0.744,0.432-3.816,2.904-5.112,4.92c-1.152,1.8-1.848,3.24-1.704,5.016c0.288,4.008,4.68,7.296,9.432,6.168
				c0,0-1.416-8.52-1.392-8.52C12.256,24.912,11.56,26.928,11.632,28.08z M13.576,12.864c2.088-1.632,4.92-4.704,4.752-7.08
				c-0.048-0.744-0.36-2.088-1.44-2.064C14.416,3.744,13.024,8.904,13.576,12.864z M16.84,33.144c2.76-0.936,2.88-3.312,2.784-4.728
				C19.528,27.24,19,24.6,15.496,24.768L16.84,33.144z"/>
		</g>
		<g>
			<path d="M79.096,26.912c0.984,0,1.776,0.36,2.232,0.912V8.6h0.456V29c0,0.336-0.048,0.672-0.168,1.056
				c-0.648,1.704-2.784,3.072-4.8,3.048c-2.016-0.024-3.144-1.44-2.52-3.144S77.08,26.888,79.096,26.912z"/>
		</g>
		<g>
			<path d="M130.904,26.864c2.664,0.024,5.184,1.032,5.376,3.264c0.144,1.632-2.016,3.12-4.68,3.12
				c-2.688-0.024-5.184-1.008-5.4-3.24C126.056,28.352,128.24,26.864,130.904,26.864z M131.552,32.696
				c1.152,0,1.896-1.104,1.776-1.992c-0.264-1.752-0.864-3.168-2.448-3.168c-1.152,0-1.824,1.128-1.68,2.016
				C129.464,31.304,129.968,32.696,131.552,32.696z"/>
		</g>
		<g>
			<path d="M44.44,30.696c0.456-1.248,1.488-2.256,2.256-2.64c0.768-0.36,1.752-0.552,2.88-0.456
				c0.576,0.048,1.584,0.216,2.16,0.816V9.192h0.456v20.496c0,0.096-0.024,0.168-0.024,0.24C52.12,30.36,52,30.72,51.904,30.96
				c-0.456,1.248-1.44,2.088-2.184,2.52s-1.872,0.744-3.24,0.6c-0.528-0.072-1.68-0.168-2.16-1.032
				C43.936,32.4,44.271,31.176,44.44,30.696z M47.32,32.712c0.552-0.288,0.96-0.528,1.464-0.792c0.48-0.288,0.912-0.552,1.44-0.888
				c0.72-0.456,1.656-1.248,1.176-2.064c-0.48-0.816-1.656-0.408-2.4-0.048c-0.576,0.288-1.032,0.528-1.512,0.816
				c-0.48,0.264-0.912,0.504-1.416,0.84c-0.72,0.456-1.656,1.272-1.152,2.088C45.375,33.48,46.552,33.072,47.32,32.712z"/>
		</g>
		<g>
			<path d="M182.237,26.842c0.984,0,1.776,0.36,2.232,0.912V8.53h0.456v20.4c0,0.336-0.048,0.672-0.168,1.056
				c-0.648,1.704-2.784,3.072-4.8,3.048c-2.016-0.024-3.144-1.44-2.52-3.144S180.221,26.818,182.237,26.842z"/>
		</g>
		<g>
			<path d="M201.738,27.009c0.984,0,1.776,0.36,2.232,0.912V8.697h0.456v20.4c0,0.336-0.048,0.672-0.168,1.056
				c-0.648,1.704-2.784,3.072-4.8,3.048c-2.016-0.024-3.144-1.44-2.52-3.144S199.722,26.985,201.738,27.009z"/>
		</g>
		<path fill="none" stroke="#000000" stroke-width="2" d="M184.342,8.512h20"/>
		<g>
			<path d="M35.192,29.72v1.584c0,0.96,1.128,0.936,1.128,0.936v0.624h-5.208V32.24c0,0,1.176,0.048,1.152-0.888V29.72h-4.44
				l-0.432-0.456c2.904-3.912,2.928-4.632,3.624-8.184h4.152c-0.984,1.824-4.296,5.256-6.624,7.968h3.72v-2.952l2.928-3.216v6.168
				h1.728v0.672H35.192z"/>
		</g>
		<g>
			<path d="M99.096,26.912c0.984,0,1.776,0.36,2.232,0.912V8.6h0.456V29c0,0.336-0.048,0.672-0.168,1.056
				c-0.648,1.704-2.784,3.072-4.8,3.048c-2.016-0.024-3.144-1.44-2.52-3.144S97.08,26.888,99.096,26.912z"/>
		</g>
		<path fill="none" stroke="#0A0A0A" d="M152.901,3.395v29.746"/>
		<path fill="none" stroke="#0A0A0A" d="M237.901,4.395v29.746"/>
		<path fill="none" stroke="#0A0A0A" d="M329.901,3.395v29.746"/>
		<path fill="none" stroke="#0A0A0A" d="M474.888,3.795v29.746"/>
		<path fill="none" stroke="#0A0A0A" d="M426.2,3.334V33.08"/>
		<g>
			<path d="M164.096,26.912c0.984,0,1.776,0.36,2.232,0.912V8.6h0.456V29c0,0.336-0.048,0.672-0.168,1.056
				c-0.648,1.704-2.784,3.072-4.8,3.048c-2.016-0.024-3.144-1.44-2.52-3.144S162.08,26.888,164.096,26.912z"/>
		</g>
		<g>
			<path d="M316.096,26.912c0.983,0,1.775,0.36,2.231,0.912V8.6h0.456V29c0,0.336-0.048,0.672-0.168,1.056
				c-0.648,1.704-2.784,3.072-4.8,3.048c-2.017-0.024-3.145-1.44-2.521-3.144S314.08,26.888,316.096,26.912z"/>
		</g>
		<g>
			<path d="M246.096,26.912c0.983,0,1.775,0.36,2.231,0.912V8.6h0.456V29c0,0.336-0.048,0.672-0.168,1.056
				c-0.648,1.704-2.784,3.072-4.8,3.048c-2.017-0.024-3.145-1.44-2.521-3.144S244.08,26.888,246.096,26.912z"/>
		</g>
		<g>
			<path d="M259.429,27.246c0.983,0,1.775,0.36,2.231,0.912V8.934h0.456v20.4c0,0.336-0.048,0.672-0.168,1.056
				c-0.648,1.704-2.784,3.072-4.8,3.048c-2.017-0.024-3.145-1.44-2.521-3.144S257.413,27.222,259.429,27.246z"/>
		</g>
		<g>
			<path d="M273.43,26.746c0.983,0,1.775,0.36,2.231,0.912V8.434h0.456v20.4c0,0.336-0.048,0.672-0.168,1.056
				c-0.648,1.704-2.784,3.072-4.8,3.048c-2.017-0.024-3.145-1.44-2.521-3.144S271.414,26.722,273.43,26.746z"/>
		</g>
		<g>
			<path d="M389.096,26.912c0.983,0,1.775,0.36,2.231,0.912V8.6h0.456V29c0,0.336-0.048,0.672-0.168,1.056
				c-0.648,1.704-2.784,3.072-4.8,3.048c-2.017-0.024-3.145-1.44-2.521-3.144S387.08,26.888,389.096,26.912z"/>
		</g>
		<g>
			<path d="M372.097,26.913c0.983,0,1.775,0.36,2.231,0.912V8.601h0.456V29c0,0.336-0.048,0.672-0.168,1.056
				c-0.648,1.704-2.784,3.072-4.8,3.048c-2.017-0.024-3.145-1.44-2.521-3.144S370.081,26.889,372.097,26.913z"/>
		</g>
		<g>
			<path d="M339.096,26.912c0.983,0,1.775,0.36,2.231,0.912V8.6h0.456V29c0,0.336-0.048,0.672-0.168,1.056
				c-0.648,1.704-2.784,3.072-4.8,3.048c-2.017-0.024-3.145-1.44-2.521-3.144S337.08,26.888,339.096,26.912z"/>
		</g>
		<g>
			<path d="M355.096,26.912c0.983,0,1.775,0.36,2.231,0.912V8.6h0.456V29c0,0.336-0.048,0.672-0.168,1.056
				c-0.648,1.704-2.784,3.072-4.8,3.048c-2.017-0.024-3.145-1.44-2.521-3.144S353.08,26.888,355.096,26.912z"/>
		</g>
		<g>
			<path d="M212.44,29.696c0.456-1.248,1.488-2.256,2.256-2.64c0.768-0.36,1.752-0.552,2.88-0.456
				c0.576,0.048,1.584,0.216,2.16,0.816V8.192h0.456v20.496c0,0.096-0.024,0.168-0.024,0.24c-0.048,0.432-0.168,0.792-0.264,1.032
				c-0.456,1.248-1.44,2.088-2.184,2.52s-1.872,0.744-3.24,0.6c-0.528-0.072-1.68-0.168-2.16-1.032
				C211.936,31.4,212.271,30.176,212.44,29.696z M215.32,31.712c0.552-0.288,0.96-0.528,1.464-0.792
				c0.48-0.288,0.912-0.552,1.44-0.888c0.72-0.456,1.656-1.248,1.176-2.064c-0.48-0.816-1.656-0.408-2.4-0.048
				c-0.576,0.288-1.032,0.528-1.512,0.816c-0.48,0.264-0.912,0.504-1.416,0.84c-0.72,0.456-1.656,1.272-1.152,2.088
				C213.375,32.48,214.552,32.072,215.32,31.712z"/>
		</g>
		<g>
			<path d="M285.44,29.696c0.456-1.248,1.487-2.256,2.256-2.64c0.768-0.36,1.752-0.552,2.88-0.456
				c0.576,0.048,1.584,0.216,2.16,0.816V8.192h0.456v20.496c0,0.096-0.024,0.168-0.024,0.24c-0.048,0.432-0.168,0.792-0.264,1.032
				c-0.456,1.248-1.44,2.088-2.184,2.52c-0.744,0.432-1.872,0.744-3.24,0.6c-0.528-0.072-1.681-0.168-2.16-1.032
				C284.936,31.4,285.272,30.176,285.44,29.696z M288.32,31.712c0.552-0.288,0.96-0.528,1.464-0.792
				c0.48-0.288,0.912-0.552,1.44-0.888c0.72-0.456,1.655-1.248,1.176-2.064c-0.48-0.816-1.656-0.408-2.4-0.048
				c-0.576,0.288-1.032,0.528-1.512,0.816c-0.48,0.264-0.912,0.504-1.416,0.84c-0.72,0.456-1.656,1.272-1.152,2.088
				C286.375,32.48,287.551,32.072,288.32,31.712z"/>
		</g>
		<g>
			<path d="M402.44,29.696c0.456-1.248,1.487-2.256,2.256-2.64c0.768-0.36,1.752-0.552,2.88-0.456
				c0.576,0.048,1.584,0.216,2.16,0.816V8.192h0.456v20.496c0,0.096-0.024,0.168-0.024,0.24c-0.048,0.432-0.168,0.792-0.264,1.032
				c-0.456,1.248-1.44,2.088-2.184,2.52c-0.744,0.432-1.872,0.744-3.24,0.6c-0.528-0.072-1.681-0.168-2.16-1.032
				C401.936,31.4,402.272,30.176,402.44,29.696z M405.32,31.712c0.552-0.288,0.96-0.528,1.464-0.792
				c0.48-0.288,0.912-0.552,1.44-0.888c0.72-0.456,1.655-1.248,1.176-2.064c-0.48-0.816-1.656-0.408-2.4-0.048
				c-0.576,0.288-1.032,0.528-1.512,0.816c-0.48,0.264-0.912,0.504-1.416,0.84c-0.72,0.456-1.656,1.272-1.152,2.088
				C403.375,32.48,404.551,32.072,405.32,31.712z"/>
		</g>
		<g>
			<path d="M445.904,26.864c2.664,0.024,5.184,1.032,5.376,3.264c0.144,1.632-2.016,3.12-4.68,3.12
				c-2.688-0.024-5.185-1.008-5.4-3.24C441.056,28.352,443.24,26.864,445.904,26.864z M446.551,32.696
				c1.152,0,1.896-1.104,1.776-1.992c-0.264-1.752-0.864-3.168-2.448-3.168c-1.151,0-1.823,1.128-1.68,2.016
				C444.463,31.304,444.967,32.696,446.551,32.696z"/>
		</g>
		<path fill="none" stroke="#000000" stroke-width="2" d="M248.2,8.58h28.5"/>
		<path fill="none" stroke="#000000" stroke-width="2" d="M248.7,14.08h13.5"/>
		<path fill="none" stroke="#000000" stroke-width="2" d="M341.2,8.58h34"/>
		<path fill="none" stroke="#000000" stroke-width="2" d="M341.2,14.247h4.5"/>
		<path fill="none" stroke="#000000" stroke-width="2" d="M370.534,14.58h4.5"/>
		<g>
			<path fill="none" stroke="#000000" d="M0.127,81.246h474.49"/>
			<path fill="none" stroke="#000000" d="M0.127,96.357h474.49"/>
			<path fill="none" stroke="#000000" d="M0.363,103.48h474.491"/>
			<path fill="none" stroke="#000000" d="M0,110.864h474.49"/>
			<path fill="none" stroke="#000000" d="M0,88.5h474.49"/>
		</g>
		<g>
			<path d="M35.192,89.72v1.584c0,0.96,1.128,0.936,1.128,0.936v0.624h-5.208V92.24c0,0,1.176,0.048,1.152-0.888V89.72h-4.44
				l-0.432-0.456c2.904-3.912,2.928-4.632,3.624-8.184h4.152c-0.984,1.824-4.296,5.256-6.624,7.968h3.72v-2.952l2.928-3.216v6.168
				h1.728v0.672H35.192z"/>
		</g>
		<g>
			<path d="M11.152,110.768c-4.944-2.352-5.736-5.376-5.952-8.472c-0.24-3.36,1.896-6.768,3.888-8.664
				c1.152-1.08,2.4-2.136,3.888-3.264c-0.048-0.84-0.24-1.176-0.336-2.376c-0.024-0.504-0.336-2.856,0.168-5.568
				c0.312-1.608,2.328-5.4,3.72-5.424c1.08-0.024,2.736,4.296,2.784,6.456c0.072,3.336-0.72,4.848-1.704,6.576
				c-0.504,0.864-1.032,1.464-1.584,2.136C15.448,92.864,14.8,93.272,14.2,93.8c0,0,0.768,4.344,0.792,4.656
				c1.536-0.192,3.408,0.36,4.08,0.84c1.704,1.272,2.352,3.024,2.472,4.728c0.216,2.712-1.272,5.568-4.56,6.936
				c0,0,0.504,3.456,0.624,4.176c0.264,1.896,0.216,3.096-0.192,3.864c-0.696,1.296-1.824,2.496-4.008,2.64
				c-1.68,0.096-4.992-0.744-5.16-3.384c-0.096-1.56,0.6-3.24,2.496-3.36c1.152-0.096,2.52,0.864,2.616,2.232
				c0.096,1.176-0.672,2.4-2.664,2.952c0.312,0.432,1.248,0.936,2.592,0.936c1.392,0,2.832-0.936,3.528-2.184
				c0.432-0.816,0.384-2.28,0.216-3.624c-0.072-0.456-0.648-4.08-0.648-4.08C14.608,111.416,12.16,111.248,11.152,110.768z
				 M11.632,105.08c0.048,1.152,1.008,2.496,1.896,2.952c-0.12,0.072-0.24,0.264-0.24,0.264c-0.984-0.48-1.824-1.272-2.04-1.56
				c-0.696-0.936-0.984-1.464-1.08-2.88c-0.096-1.32,0.624-3.096,2.232-4.344c0.84-0.624,1.248-0.768,1.968-0.936l-0.72-4.344
				c-0.744,0.432-3.816,2.904-5.112,4.92c-1.152,1.8-1.848,3.24-1.704,5.016c0.288,4.008,4.68,7.296,9.432,6.168
				c0,0-1.416-8.52-1.392-8.52C12.256,101.912,11.56,103.928,11.632,105.08z M13.576,89.864c2.088-1.632,4.92-4.704,4.752-7.08
				c-0.048-0.744-0.36-2.088-1.44-2.064C14.416,80.744,13.024,85.904,13.576,89.864z M16.84,110.144
				c2.76-0.936,2.88-3.312,2.784-4.728c-0.096-1.176-0.624-3.816-4.128-3.648L16.84,110.144z"/>
		</g>
		<g>
			<path d="M35.192,106.72v1.584c0,0.96,1.128,0.936,1.128,0.936v0.624h-5.208v-0.624c0,0,1.176,0.048,1.152-0.888v-1.632h-4.44
				l-0.432-0.456c2.904-3.912,2.928-4.632,3.624-8.184h4.152c-0.984,1.824-4.296,5.256-6.624,7.968h3.72v-2.952l2.928-3.216v6.168
				h1.728v0.672H35.192z"/>
		</g>
		<path fill="none" stroke="#0A0A0A" d="M108.901,80.395v29.746"/>
		<path fill="none" stroke="#0A0A0A" d="M151.901,81.395v29.746"/>
		<path fill="none" stroke="#0A0A0A" d="M237.901,81.395v29.746"/>
		<path fill="none" stroke="#0A0A0A" d="M331.901,80.395v29.746"/>
		<path fill="none" stroke="#0A0A0A" d="M426.901,81.395v29.746"/>
		<path fill="none" stroke="#0A0A0A" d="M474.49,81.118v29.746"/>
		<g>
			<path fill="none" stroke="#000000" d="M75.938,87.271l2.958,2.637"/>
			<path fill="none" stroke="#000000" stroke-width="4" d="M75.225,95.914l4.538-5.852"/>
			<path fill="none" stroke="#000000" d="M74.887,95.239L80.2,99.08"/>
			<path fill="none" stroke="#000000" d="M78.057,104.271l-2.493-3.285"/>
			<g>
				<g>
					<path fill="none" d="M80.003,99.321c-1.479-0.457-3.168-0.31-4.22,1.15"/>
					<path d="M80.347,98.39c-2.035-0.583-4.035-0.217-5.377,1.512c-0.787,1.013,0.843,2.146,1.625,1.138
						c0.762-0.981,1.924-1.114,3.063-0.788C80.883,100.602,81.578,98.742,80.347,98.39z"/>
				</g>
			</g>
		</g>
		<g>
			<path fill="none" stroke="#000000" d="M93.375,87.289l2.958,2.637"/>
			<path fill="none" stroke="#000000" stroke-width="4" d="M92.662,95.932L97.2,90.08"/>
			<path fill="none" stroke="#000000" d="M92.324,95.257l5.313,3.841"/>
			<path fill="none" stroke="#000000" d="M95.494,104.289l-2.493-3.285"/>
			<g>
				<g>
					<path fill="none" d="M97.439,99.339c-1.479-0.457-3.168-0.31-4.22,1.15"/>
					<path d="M97.784,98.408c-2.035-0.583-4.035-0.217-5.377,1.512c-0.787,1.013,0.843,2.146,1.625,1.138
						c0.762-0.981,1.924-1.114,3.063-0.788C98.32,100.62,99.014,98.76,97.784,98.408z"/>
				</g>
			</g>
		</g>
	</g>
</svg>
