<?xml version="1.0" encoding="utf-8"?>
<!-- Generator: Adobe Illustrator 10.0, SVG Export Plug-In . SVG Version: 3.0.0 Build 76)  -->
<!DOCTYPE svg PUBLIC "-//W3C//DTD SVG 1.0//EN"    "http://www.w3.org/TR/2001/REC-SVG-20010904/DTD/svg10.dtd" [
	<!ENTITY ns_flows "http://ns.adobe.com/Flows/1.0/">
	<!ENTITY ns_extend "http://ns.adobe.com/Extensibility/1.0/">
	<!ENTITY ns_ai "http://ns.adobe.com/AdobeIllustrator/10.0/">
	<!ENTITY ns_svg "http://www.w3.org/2000/svg">
	<!ENTITY ns_xlink "http://www.w3.org/1999/xlink">
]>
<svg  xmlns:x="&ns_extend;" xmlns:i="&ns_ai;" xmlns:graph="&ns_graphs;"
	 xmlns="&ns_svg;" xmlns:xlink="&ns_xlink;" xmlns:a="http://ns.adobe.com/AdobeSVGViewerExtensions/3.0/" width="397" height="69"
	 viewBox="-0.007 -0.368 397 69" overflow="visible" enable-background="new -0.007 -0.368 397 69" xml:space="preserve">
	<g id="Layer_1_2_">
		<g>
			<path fill="none" stroke="#000000" d="M0.106,4.246h393.819"/>
			<path fill="none" stroke="#000000" d="M0.106,19.357h393.819"/>
			<path fill="none" stroke="#000000" d="M0.301,26.48h393.819"/>
			<path fill="none" stroke="#000000" d="M0,33.864h393.819"/>
			<path fill="none" stroke="#000000" d="M0,11.5h393.819"/>
		</g>
		<path stroke="#000000" stroke-miterlimit="1" d="M62.5,14.619h-8.513v-3.142H62.5V14.619z"/>
		<g>
			<path d="M13.152,33.768c-4.944-2.352-5.736-5.376-5.952-8.472c-0.24-3.36,1.896-6.768,3.888-8.664
				c1.152-1.08,2.4-2.136,3.888-3.264c-0.048-0.84-0.24-1.176-0.336-2.376c-0.024-0.504-0.336-2.856,0.168-5.568
				c0.312-1.608,2.328-5.4,3.72-5.424c1.08-0.024,2.736,4.296,2.784,6.456c0.072,3.336-0.72,4.848-1.704,6.576
				c-0.504,0.864-1.032,1.464-1.584,2.136C17.448,15.864,16.8,16.272,16.2,16.8c0,0,0.768,4.344,0.792,4.656
				c1.536-0.192,3.408,0.36,4.08,0.84c1.704,1.272,2.352,3.024,2.472,4.728c0.216,2.712-1.272,5.568-4.56,6.936
				c0,0,0.504,3.456,0.624,4.176c0.264,1.896,0.216,3.096-0.192,3.864c-0.696,1.296-1.824,2.496-4.008,2.64
				c-1.68,0.096-4.992-0.744-5.16-3.384c-0.096-1.56,0.6-3.24,2.496-3.36c1.152-0.096,2.52,0.864,2.616,2.232
				c0.096,1.176-0.672,2.4-2.664,2.952c0.312,0.432,1.248,0.936,2.592,0.936c1.392,0,2.832-0.936,3.528-2.184
				c0.432-0.816,0.384-2.28,0.216-3.624c-0.072-0.456-0.648-4.08-0.648-4.08C16.608,34.416,14.16,34.248,13.152,33.768z
				 M13.632,28.08c0.048,1.152,1.008,2.496,1.896,2.952c-0.12,0.072-0.24,0.264-0.24,0.264c-0.984-0.48-1.824-1.272-2.04-1.56
				c-0.696-0.936-0.984-1.464-1.08-2.88c-0.096-1.32,0.624-3.096,2.232-4.344c0.84-0.624,1.248-0.768,1.968-0.936l-0.72-4.344
				c-0.744,0.432-3.816,2.904-5.112,4.92c-1.152,1.8-1.848,3.24-1.704,5.016c0.288,4.008,4.68,7.296,9.432,6.168
				c0,0-1.416-8.52-1.392-8.52C14.256,24.912,13.56,26.928,13.632,28.08z M15.576,12.864c2.088-1.632,4.92-4.704,4.752-7.08
				c-0.048-0.744-0.36-2.088-1.44-2.064C16.416,3.744,15.024,8.904,15.576,12.864z M18.84,33.144c2.76-0.936,2.88-3.312,2.784-4.728
				C21.528,27.24,21,24.6,17.496,24.768L18.84,33.144z"/>
		</g>
		<g>
			<g>
				<path d="M232.353,15.843c0,0.859-0.392,1.555-0.877,1.555c-0.482,0-0.876-0.696-0.876-1.555c0-0.858,0.394-1.555,0.876-1.555
					C231.961,14.289,232.353,14.985,232.353,15.843z"/>
				<g>
					<g>
						<path fill="none" d="M232.003,14.807c1.752,2.073,3.154,2.073,4.558-0.518"/>
						<path d="M231.625,15.127c0.703,0.807,1.59,1.694,2.74,1.664c1.249-0.034,2.055-1.247,2.602-2.218
							c0.312-0.553-0.498-1.127-0.813-0.569c-0.379,0.673-0.851,1.56-1.657,1.779c-0.831,0.226-1.654-0.768-2.116-1.297
							C231.961,14.004,231.204,14.644,231.625,15.127z"/>
					</g>
				</g>
				<g>
					<g>
						<path fill="none" d="M231.301,26.729c1.403-4.146,3.507-7.775,4.908-11.922"/>
						<path d="M231.766,26.901c1.43-4.061,3.481-7.861,4.908-11.922c0.213-0.604-0.718-0.948-0.93-0.345
							c-1.428,4.062-3.479,7.861-4.908,11.922C230.624,27.161,231.554,27.504,231.766,26.901z"/>
					</g>
				</g>
			</g>
			<path stroke="#000000" stroke-width="0.5" d="M232.353,15.843c0,0.915-0.66,1.656-1.477,1.656c-0.815,0-1.477-0.742-1.477-1.656
				s0.661-1.656,1.477-1.656C231.693,14.187,232.353,14.929,232.353,15.843z"/>
		</g>
		<g>
			<g>
				<path d="M283.255,15.162c0,0.928-0.441,1.679-0.987,1.679c-0.542,0-0.985-0.751-0.985-1.679c0-0.927,0.443-1.679,0.985-1.679
					C282.814,13.483,283.255,14.235,283.255,15.162z"/>
				<g>
					<g>
						<path fill="none" d="M282.862,14.042c1.971,2.239,3.549,2.239,5.127-0.56"/>
						<path d="M282.483,14.363c0.795,0.875,1.777,1.815,3.042,1.782c1.356-0.035,2.255-1.331,2.87-2.378
							c0.322-0.548-0.488-1.122-0.813-0.569c-0.446,0.76-0.989,1.698-1.904,1.938c-0.952,0.249-1.888-0.808-2.439-1.414
							C282.811,13.25,282.052,13.888,282.483,14.363z"/>
					</g>
				</g>
				<g>
					<g>
						<path fill="none" d="M282.072,26.915c1.579-4.477,3.945-8.395,5.521-12.873"/>
						<path d="M282.538,27.087c1.61-4.392,3.913-8.481,5.521-12.873c0.221-0.602-0.711-0.945-0.931-0.345
							c-1.609,4.392-3.911,8.481-5.521,12.873C281.386,27.345,282.317,27.688,282.538,27.087z"/>
					</g>
				</g>
			</g>
			<path stroke="#000000" stroke-width="0.5" d="M283.255,15.162c0,0.988-0.743,1.789-1.661,1.789c-0.917,0-1.661-0.801-1.661-1.789
				c0-0.987,0.744-1.788,1.661-1.788C282.513,13.374,283.255,14.174,283.255,15.162z"/>
			<path d="M281.594,19.525c0,0.928-0.441,1.679-0.987,1.679c-0.542,0-0.985-0.751-0.985-1.679c0-0.927,0.443-1.679,0.985-1.679
				C281.153,17.846,281.594,18.598,281.594,19.525z"/>
			<g>
				<g>
					<path fill="none" d="M281.201,18.406c1.971,2.239,3.549,2.239,5.127-0.56"/>
					<path d="M280.822,18.727c0.795,0.875,1.777,1.815,3.042,1.782c1.356-0.035,2.255-1.331,2.87-2.378
						c0.322-0.548-0.488-1.122-0.813-0.569c-0.446,0.76-0.989,1.698-1.904,1.938c-0.952,0.249-1.888-0.808-2.439-1.414
						C281.15,17.613,280.391,18.251,280.822,18.727z"/>
				</g>
			</g>
		</g>
		<path stroke="#000000" stroke-miterlimit="1" d="M115.993,18.632h-8.513V15.49h8.513V18.632z"/>
		<g>
			<path d="M350.523,14.299c0,1.066-0.547,1.93-1.225,1.93c-0.673,0-1.224-0.864-1.224-1.93c0-1.065,0.551-1.93,1.224-1.93
				C349.976,12.37,350.523,13.234,350.523,14.299z"/>
			<g>
				<g>
					<path fill="none" d="M350.035,13.013c2.449,2.573,4.408,2.573,6.368-0.643"/>
					<path d="M349.657,13.333c1.004,1.02,2.184,2.052,3.698,2.023c1.585-0.031,2.688-1.497,3.454-2.702
						c0.343-0.539-0.469-1.11-0.813-0.569c-0.594,0.934-1.286,1.963-2.422,2.253c-1.21,0.31-2.412-0.886-3.162-1.646
						C349.967,12.239,349.206,12.876,349.657,13.333z"/>
				</g>
			</g>
			<g>
				<g>
					<path fill="none" d="M349.055,27.81c1.96-5.146,4.899-9.65,6.857-14.797"/>
					<path d="M349.521,27.982c2.001-5.066,4.856-9.73,6.857-14.797c0.235-0.597-0.696-0.938-0.932-0.345
						c-2,5.066-4.855,9.731-6.857,14.797C348.354,28.234,349.286,28.576,349.521,27.982z"/>
				</g>
			</g>
		</g>
		<path stroke="#000000" stroke-width="0.5" d="M351.386,13.924c0,0.915-0.66,1.656-1.477,1.656c-0.815,0-1.477-0.742-1.477-1.656
			s0.661-1.656,1.477-1.656C350.726,12.268,351.386,13.01,351.386,13.924z"/>
		<path d="M349.91,17.965c0,0.859-0.392,1.555-0.877,1.555c-0.482,0-0.876-0.696-0.876-1.555c0-0.858,0.394-1.555,0.876-1.555
			C349.518,16.411,349.91,17.107,349.91,17.965z"/>
		<g>
			<g>
				<path fill="none" d="M349.56,16.929c1.752,2.073,3.154,2.073,4.558-0.518"/>
				<path d="M349.181,17.25c0.704,0.807,1.591,1.694,2.742,1.664c1.248-0.034,2.054-1.247,2.601-2.218
					c0.312-0.553-0.499-1.127-0.813-0.569c-0.379,0.673-0.851,1.56-1.657,1.779c-0.831,0.227-1.654-0.768-2.115-1.297
					C349.519,16.126,348.759,16.766,349.181,17.25z"/>
			</g>
		</g>
		<g>
			<g>
				<path fill="none" d="M348.06,20.679c1.752,2.073,3.154,2.073,4.558-0.518"/>
				<path d="M347.681,21c0.704,0.807,1.591,1.694,2.742,1.664c1.248-0.034,2.054-1.247,2.601-2.218
					c0.312-0.553-0.499-1.127-0.813-0.569c-0.379,0.673-0.851,1.56-1.657,1.779c-0.831,0.227-1.654-0.768-2.115-1.297
					C348.019,19.876,347.259,20.516,347.681,21z"/>
			</g>
		</g>
		<path d="M348.91,21.715c0,0.859-0.392,1.555-0.877,1.555c-0.482,0-0.876-0.696-0.876-1.555c0-0.858,0.394-1.555,0.876-1.555
			C348.518,20.161,348.91,20.857,348.91,21.715z"/>
		<g>
			<path fill="none" stroke="#000000" d="M173.397,9.489l2.958,2.637"/>
			<path fill="none" stroke="#000000" stroke-width="4" d="M172.685,18.132l4.538-5.852"/>
			<path fill="none" stroke="#000000" d="M172.347,17.458l5.313,3.841"/>
			<path fill="none" stroke="#000000" d="M175.517,26.489l-2.493-3.285"/>
			<g>
				<g>
					<path fill="none" d="M177.462,21.539c-1.479-0.457-3.168-0.31-4.22,1.15"/>
					<path d="M177.807,20.608c-2.035-0.583-4.035-0.217-5.377,1.512c-0.786,1.013,0.843,2.146,1.626,1.138
						c0.762-0.981,1.923-1.114,3.063-0.788C178.343,22.82,179.037,20.96,177.807,20.608z"/>
				</g>
			</g>
		</g>
		<g>
			<path d="M44.558,53.965l-2.052-8.088h1.104l0.96,4.092c0.24,1.02,0.456,2.016,0.6,2.796h0.024
				c0.132-0.804,0.384-1.764,0.66-2.808l1.08-4.08h1.092l0.984,4.104c0.228,0.972,0.444,1.92,0.564,2.772h0.024
				c0.168-0.888,0.396-1.788,0.648-2.796l1.068-4.08h1.068l-2.292,8.088h-1.092l-1.02-4.2c-0.252-1.044-0.42-1.836-0.528-2.652
				h-0.024c-0.132,0.816-0.324,1.596-0.624,2.64l-1.152,4.212H44.558z"/>
			<path d="M53.294,45.445h1.056v3.624h0.024c0.168-0.3,0.432-0.576,0.756-0.744c0.312-0.192,0.684-0.3,1.08-0.3
				c0.78,0,2.028,0.48,2.028,2.484v3.456h-1.056v-3.336c0-0.948-0.348-1.728-1.344-1.728c-0.684,0-1.212,0.48-1.416,1.056
				c-0.06,0.144-0.072,0.3-0.072,0.504v3.504h-1.056V45.445z"/>
			<path d="M62.318,54.097c-1.56,0-2.784-1.152-2.784-2.988c0-1.944,1.284-3.084,2.88-3.084c1.668,0,2.796,1.212,2.796,2.976
				c0,2.16-1.5,3.096-2.88,3.096H62.318z M62.354,53.305c1.008,0,1.764-0.948,1.764-2.268c0-0.984-0.492-2.22-1.74-2.22
				c-1.236,0-1.776,1.152-1.776,2.256c0,1.272,0.72,2.232,1.74,2.232H62.354z"/>
			<path d="M66.542,45.445h1.056v8.52h-1.056V45.445z"/>
			<path d="M69.95,51.241c0.024,1.428,0.924,2.016,1.98,2.016c0.756,0,1.224-0.132,1.608-0.288l0.192,0.744
				c-0.372,0.168-1.02,0.372-1.944,0.372c-1.776,0-2.856-1.188-2.856-2.928c0-1.764,1.044-3.144,2.736-3.144
				c1.896,0,2.388,1.668,2.388,2.736c0,0.216-0.012,0.384-0.036,0.504L69.95,51.241z M73.034,50.485
				c0.012-0.66-0.276-1.716-1.452-1.716c-1.08,0-1.536,0.984-1.62,1.716H73.034z"/>
			<path d="M103.177,45.877v3.384h3.912v-3.384h1.056v8.088h-1.056v-3.792h-3.912v3.792h-1.056v-8.088H103.177z"/>
			<path d="M114.013,52.573c0,0.504,0.024,0.996,0.084,1.392h-0.948l-0.096-0.732h-0.036c-0.312,0.456-0.948,0.864-1.776,0.864
				c-1.176,0-1.776-0.828-1.776-1.668c0-1.404,1.248-2.172,3.492-2.16v-0.12c0-0.48-0.132-1.356-1.32-1.344
				c-0.552,0-1.116,0.156-1.524,0.432l-0.24-0.708c0.48-0.3,1.188-0.504,1.92-0.504c1.788,0,2.22,1.212,2.22,2.376V52.573z
				 M112.981,51.001c-1.152-0.024-2.46,0.18-2.46,1.308c0,0.696,0.456,1.008,0.984,1.008c0.768,0,1.26-0.48,1.428-0.972
				c0.036-0.108,0.048-0.228,0.048-0.336V51.001z"/>
			<path d="M115.705,45.445h1.056v8.52h-1.056V45.445z"/>
			<path d="M118.609,53.965v-5.004h-0.804v-0.804h0.804v-0.276c0-0.816,0.192-1.56,0.684-2.028c0.396-0.384,0.924-0.54,1.404-0.54
				c0.384,0,0.696,0.084,0.9,0.168l-0.132,0.816c-0.168-0.072-0.372-0.132-0.684-0.132c-0.888,0-1.128,0.792-1.128,1.68v0.312h1.404
				v0.804h-1.392v5.004H118.609z"/>
			<path d="M165.542,55.153c-1.092-0.288-2.16-0.612-3.096-0.936c-0.18-0.06-0.336-0.12-0.492-0.12
				c-1.932-0.072-3.564-1.488-3.564-4.092c0-2.592,1.572-4.26,3.756-4.26c2.208,0,3.636,1.704,3.636,4.092
				c0,2.076-0.96,3.396-2.304,3.876v0.048c0.804,0.204,1.68,0.396,2.364,0.516L165.542,55.153z M162.086,53.245
				c1.656,0,2.592-1.524,2.592-3.36c0-1.62-0.84-3.288-2.556-3.288c-1.764,0-2.628,1.632-2.628,3.384
				c0,1.716,0.936,3.264,2.58,3.264H162.086z"/>
			<path d="M171.974,52.381c0,0.6,0.012,1.128,0.048,1.584h-0.936l-0.06-0.948h-0.024c-0.264,0.468-0.888,1.08-1.92,1.08
				c-0.912,0-2.004-0.516-2.004-2.544v-3.396h1.056v3.204c0,1.104,0.348,1.86,1.296,1.86c0.708,0,1.2-0.492,1.392-0.972
				c0.06-0.144,0.096-0.336,0.096-0.54v-3.552h1.056V52.381z"/>
			<path d="M177.818,52.573c0,0.504,0.024,0.996,0.084,1.392h-0.948l-0.096-0.732h-0.036c-0.312,0.456-0.948,0.864-1.776,0.864
				c-1.176,0-1.776-0.828-1.776-1.668c0-1.404,1.248-2.172,3.492-2.16v-0.12c0-0.48-0.132-1.356-1.32-1.344
				c-0.552,0-1.116,0.156-1.524,0.432l-0.24-0.708c0.48-0.3,1.188-0.504,1.92-0.504c1.788,0,2.22,1.212,2.22,2.376V52.573z
				 M176.786,51.001c-1.152-0.024-2.46,0.18-2.46,1.308c0,0.696,0.456,1.008,0.984,1.008c0.768,0,1.26-0.48,1.428-0.972
				c0.036-0.108,0.048-0.228,0.048-0.336V51.001z"/>
			<path d="M179.521,49.969c0-0.684-0.012-1.272-0.048-1.812h0.924l0.048,1.14h0.036c0.264-0.78,0.912-1.272,1.62-1.272
				c0.108,0,0.192,0.012,0.288,0.036v0.984c-0.12-0.012-0.228-0.024-0.372-0.024c-0.744,0-1.272,0.564-1.416,1.344
				c-0.024,0.156-0.036,0.324-0.036,0.504v3.096h-1.056L179.521,49.969z"/>
			<path d="M184.993,46.765v1.392h1.512v0.804h-1.512v3.132c0,0.72,0.204,1.128,0.792,1.128c0.288,0,0.456-0.024,0.612-0.072
				l0.048,0.804c-0.204,0.072-0.528,0.144-0.936,0.144c-0.492,0-0.888-0.168-1.14-0.444c-0.288-0.324-0.408-0.84-0.408-1.524v-3.168
				h-0.9v-0.804h0.9v-1.068L184.993,46.765z"/>
			<path d="M188.221,51.241c0.024,1.428,0.924,2.016,1.98,2.016c0.756,0,1.224-0.132,1.608-0.288l0.192,0.744
				c-0.372,0.168-1.02,0.372-1.944,0.372c-1.776,0-2.856-1.188-2.856-2.928c0-1.764,1.044-3.144,2.736-3.144
				c1.896,0,2.388,1.668,2.388,2.736c0,0.216-0.012,0.384-0.036,0.504L188.221,51.241z M191.305,50.485
				c0.012-0.66-0.276-1.716-1.452-1.716c-1.08,0-1.536,0.984-1.62,1.716H191.305z"/>
			<path d="M193.645,49.969c0-0.684-0.012-1.272-0.048-1.812h0.924l0.048,1.14h0.036c0.264-0.78,0.912-1.272,1.62-1.272
				c0.108,0,0.192,0.012,0.288,0.036v0.984c-0.12-0.012-0.228-0.024-0.372-0.024c-0.744,0-1.272,0.564-1.416,1.344
				c-0.024,0.156-0.036,0.324-0.036,0.504v3.096h-1.056L193.645,49.969z"/>
			<path d="M227.414,50.173h-3.132v2.916h3.504v0.876h-4.56v-8.088h4.38v0.876h-3.324v2.556h3.132V50.173z"/>
			<path d="M229.574,47.089c-0.396,0-0.66-0.312-0.66-0.684s0.276-0.672,0.684-0.672s0.672,0.3,0.672,0.672
				s-0.264,0.684-0.684,0.684H229.574z M229.07,53.965v-5.808h1.056v5.808H229.07z"/>
			<path d="M236.846,53.113c0,1.344-0.276,2.148-0.828,2.664c-0.576,0.516-1.392,0.696-2.124,0.696c-0.696,0-1.464-0.168-1.932-0.48
				l0.264-0.816c0.384,0.252,0.984,0.468,1.704,0.468c1.08,0,1.872-0.564,1.872-2.04v-0.636h-0.024
				c-0.312,0.54-0.948,0.972-1.848,0.972c-1.44,0-2.472-1.224-2.472-2.844c0-1.968,1.284-3.072,2.628-3.072
				c1.008,0,1.548,0.516,1.812,0.996h0.024l0.036-0.864h0.936c-0.036,0.408-0.048,0.876-0.048,1.584V53.113z M235.79,50.438
				c0-0.168-0.012-0.324-0.06-0.468c-0.192-0.624-0.696-1.128-1.476-1.128c-1.008,0-1.728,0.852-1.728,2.208
				c0,1.128,0.588,2.088,1.716,2.088c0.66,0,1.248-0.408,1.464-1.092c0.06-0.168,0.084-0.372,0.084-0.564V50.438z"/>
			<path d="M238.586,45.445h1.056v3.624h0.024c0.168-0.3,0.432-0.576,0.756-0.744c0.312-0.192,0.684-0.3,1.08-0.3
				c0.78,0,2.028,0.48,2.028,2.484v3.456h-1.056v-3.336c0-0.948-0.348-1.728-1.344-1.728c-0.684,0-1.212,0.48-1.416,1.056
				c-0.06,0.144-0.072,0.3-0.072,0.504v3.504h-1.056V45.445z"/>
			<path d="M246.47,46.765v1.392h1.512v0.804h-1.512v3.132c0,0.72,0.204,1.128,0.792,1.128c0.288,0,0.456-0.024,0.612-0.072
				l0.048,0.804c-0.204,0.072-0.528,0.144-0.936,0.144c-0.492,0-0.888-0.168-1.14-0.444c-0.288-0.324-0.408-0.84-0.408-1.524v-3.168
				h-0.9v-0.804h0.9v-1.068L246.47,46.765z"/>
			<path d="M249.17,45.445h1.056v3.624h0.024c0.168-0.3,0.432-0.576,0.756-0.744c0.312-0.192,0.684-0.3,1.08-0.3
				c0.78,0,2.028,0.48,2.028,2.484v3.456h-1.056v-3.336c0-0.948-0.348-1.728-1.344-1.728c-0.684,0-1.212,0.48-1.416,1.056
				c-0.06,0.144-0.072,0.3-0.072,0.504v3.504h-1.056V45.445z"/>
			<path d="M271.826,52.693c0.468,0.3,1.14,0.528,1.86,0.528c1.068,0,1.692-0.552,1.692-1.38c0-0.744-0.432-1.188-1.524-1.596
				c-1.32-0.48-2.136-1.176-2.136-2.304c0-1.26,1.044-2.196,2.616-2.196c0.816,0,1.428,0.192,1.776,0.396l-0.288,0.852
				c-0.252-0.156-0.792-0.384-1.524-0.384c-1.104,0-1.524,0.66-1.524,1.212c0,0.756,0.492,1.128,1.608,1.56
				c1.368,0.54,2.052,1.188,2.052,2.376c0,1.248-0.912,2.34-2.82,2.34c-0.78,0-1.632-0.24-2.064-0.528L271.826,52.693z"/>
			<path d="M278.33,47.089c-0.396,0-0.66-0.312-0.66-0.684s0.276-0.672,0.684-0.672c0.408,0,0.672,0.3,0.672,0.672
				s-0.264,0.684-0.684,0.684H278.33z M277.826,53.965v-5.808h1.056v5.808H277.826z"/>
			<path d="M281.125,48.157l0.828,1.236c0.216,0.336,0.396,0.624,0.588,0.948h0.036c0.192-0.336,0.384-0.636,0.588-0.948
				l0.804-1.236h1.152l-1.98,2.808l2.028,3h-1.2l-0.852-1.308c-0.228-0.336-0.42-0.66-0.624-1.008h-0.024
				c-0.192,0.348-0.396,0.66-0.612,1.008l-0.84,1.308h-1.164l2.064-2.964l-1.968-2.844H281.125z"/>
			<path d="M287.617,46.765v1.392h1.512v0.804h-1.512v3.132c0,0.72,0.204,1.128,0.792,1.128c0.288,0,0.456-0.024,0.612-0.072
				l0.048,0.804c-0.204,0.072-0.528,0.144-0.936,0.144c-0.492,0-0.888-0.168-1.14-0.444c-0.288-0.324-0.408-0.84-0.408-1.524v-3.168
				h-0.9v-0.804h0.9v-1.068L287.617,46.765z"/>
			<path d="M290.845,51.241c0.024,1.428,0.924,2.016,1.98,2.016c0.756,0,1.224-0.132,1.608-0.288l0.192,0.744
				c-0.372,0.168-1.02,0.372-1.944,0.372c-1.776,0-2.856-1.188-2.856-2.928c0-1.764,1.044-3.144,2.736-3.144
				c1.896,0,2.388,1.668,2.388,2.736c0,0.216-0.013,0.384-0.036,0.504L290.845,51.241z M293.929,50.485
				c0.012-0.66-0.276-1.716-1.452-1.716c-1.08,0-1.536,0.984-1.62,1.716H293.929z"/>
			<path d="M296.857,51.241c0.024,1.428,0.924,2.016,1.98,2.016c0.756,0,1.224-0.132,1.607-0.288l0.192,0.744
				c-0.372,0.168-1.02,0.372-1.944,0.372c-1.775,0-2.855-1.188-2.855-2.928c0-1.764,1.044-3.144,2.735-3.144
				c1.896,0,2.389,1.668,2.389,2.736c0,0.216-0.012,0.384-0.036,0.504L296.857,51.241z M299.941,50.485
				c0.013-0.66-0.275-1.716-1.452-1.716c-1.079,0-1.535,0.984-1.619,1.716H299.941z"/>
			<path d="M302.269,49.729c0-0.612-0.012-1.092-0.048-1.572h0.936l0.061,0.948h0.023c0.288-0.54,0.96-1.08,1.92-1.08
				c0.805,0,2.053,0.48,2.053,2.472v3.468h-1.057v-3.348c0-0.936-0.348-1.728-1.344-1.728c-0.684,0-1.224,0.492-1.416,1.08
				c-0.048,0.132-0.072,0.324-0.072,0.492v3.504h-1.056V49.729z"/>
			<path d="M310.153,46.765v1.392h1.513v0.804h-1.513v3.132c0,0.72,0.204,1.128,0.792,1.128c0.288,0,0.456-0.024,0.612-0.072
				l0.048,0.804c-0.204,0.072-0.528,0.144-0.936,0.144c-0.492,0-0.889-0.168-1.141-0.444c-0.288-0.324-0.408-0.84-0.408-1.524
				v-3.168h-0.899v-0.804h0.899v-1.068L310.153,46.765z"/>
			<path d="M312.853,45.445h1.056v3.624h0.024c0.168-0.3,0.432-0.576,0.756-0.744c0.313-0.192,0.684-0.3,1.08-0.3
				c0.78,0,2.028,0.48,2.028,2.484v3.456h-1.057v-3.336c0-0.948-0.348-1.728-1.344-1.728c-0.684,0-1.212,0.48-1.416,1.056
				c-0.06,0.144-0.072,0.3-0.072,0.504v3.504h-1.056V45.445z"/>
			<path d="M330.769,46.765h-2.46v-0.888h5.987v0.888h-2.472v7.2h-1.056V46.765z"/>
			<path d="M335.077,45.445h1.056v3.624h0.024c0.168-0.3,0.432-0.576,0.756-0.744c0.313-0.192,0.684-0.3,1.08-0.3
				c0.78,0,2.028,0.48,2.028,2.484v3.456h-1.057v-3.336c0-0.948-0.348-1.728-1.344-1.728c-0.684,0-1.212,0.48-1.416,1.056
				c-0.06,0.144-0.072,0.3-0.072,0.504v3.504h-1.056V45.445z"/>
			<path d="M342.241,47.089c-0.396,0-0.66-0.312-0.66-0.684s0.276-0.672,0.684-0.672c0.408,0,0.673,0.3,0.673,0.672
				s-0.265,0.684-0.685,0.684H342.241z M341.737,53.965v-5.808h1.056v5.808H341.737z"/>
			<path d="M344.556,49.969c0-0.684-0.012-1.272-0.048-1.812h0.924l0.049,1.14h0.035c0.265-0.78,0.912-1.272,1.62-1.272
				c0.108,0,0.192,0.012,0.288,0.036v0.984c-0.12-0.012-0.228-0.024-0.372-0.024c-0.744,0-1.271,0.564-1.416,1.344
				c-0.023,0.156-0.036,0.324-0.036,0.504v3.096h-1.056L344.556,49.969z"/>
			<path d="M350.028,46.765v1.392h1.513v0.804h-1.513v3.132c0,0.72,0.204,1.128,0.793,1.128c0.287,0,0.455-0.024,0.611-0.072
				l0.048,0.804c-0.204,0.072-0.527,0.144-0.936,0.144c-0.492,0-0.888-0.168-1.14-0.444c-0.288-0.324-0.408-0.84-0.408-1.524v-3.168
				h-0.9v-0.804h0.9v-1.068L350.028,46.765z"/>
			<path d="M353.22,48.157l1.26,3.432c0.145,0.384,0.288,0.84,0.384,1.188h0.024c0.108-0.348,0.228-0.792,0.372-1.212l1.152-3.408
				h1.115l-1.584,4.14c-0.756,1.992-1.271,3.012-1.992,3.648c-0.527,0.444-1.031,0.624-1.296,0.672l-0.264-0.888
				c0.264-0.072,0.612-0.24,0.924-0.516c0.288-0.228,0.636-0.636,0.888-1.176c0.049-0.108,0.084-0.18,0.084-0.252
				c0-0.06-0.023-0.144-0.084-0.264l-2.136-5.364H353.22z"/>
			<path d="M360.936,50.341v0.768h-2.964v-0.768H360.936z"/>
			<path d="M362.028,52.897c0.324,0.192,0.876,0.408,1.404,0.408c0.756,0,1.116-0.372,1.116-0.864c0-0.504-0.301-0.78-1.068-1.068
				c-1.056-0.384-1.548-0.948-1.548-1.644c0-0.936,0.768-1.704,2.004-1.704c0.588,0,1.104,0.156,1.416,0.36l-0.252,0.756
				c-0.229-0.132-0.648-0.336-1.188-0.336c-0.624,0-0.96,0.36-0.96,0.792c0,0.492,0.336,0.708,1.092,0.996
				c0.996,0.372,1.524,0.876,1.524,1.752c0,1.032-0.804,1.752-2.16,1.752c-0.636,0-1.224-0.168-1.632-0.408L362.028,52.897z"/>
			<path d="M367.524,51.241c0.023,1.428,0.924,2.016,1.979,2.016c0.757,0,1.225-0.132,1.608-0.288l0.192,0.744
				c-0.372,0.168-1.021,0.372-1.944,0.372c-1.776,0-2.856-1.188-2.856-2.928c0-1.764,1.044-3.144,2.736-3.144
				c1.896,0,2.388,1.668,2.388,2.736c0,0.216-0.012,0.384-0.035,0.504L367.524,51.241z M370.608,50.485
				c0.012-0.66-0.276-1.716-1.452-1.716c-1.08,0-1.536,0.984-1.62,1.716H370.608z"/>
			<path d="M377.076,53.761c-0.276,0.132-0.888,0.336-1.668,0.336c-1.752,0-2.892-1.188-2.892-2.976c0-1.788,1.224-3.096,3.12-3.096
				c0.624,0,1.176,0.156,1.464,0.312l-0.24,0.804c-0.252-0.132-0.648-0.276-1.224-0.276c-1.332,0-2.053,0.996-2.053,2.208
				c0,1.344,0.864,2.172,2.017,2.172c0.6,0,0.996-0.144,1.296-0.276L377.076,53.761z"/>
			<path d="M380.604,54.097c-1.561,0-2.784-1.152-2.784-2.988c0-1.944,1.284-3.084,2.88-3.084c1.668,0,2.796,1.212,2.796,2.976
				c0,2.16-1.5,3.096-2.88,3.096H380.604z M380.64,53.305c1.008,0,1.764-0.948,1.764-2.268c0-0.984-0.492-2.22-1.74-2.22
				c-1.235,0-1.775,1.152-1.775,2.256c0,1.272,0.72,2.232,1.739,2.232H380.64z"/>
			<path d="M384.828,49.729c0-0.612-0.012-1.092-0.048-1.572h0.936l0.061,0.948h0.023c0.288-0.54,0.96-1.08,1.92-1.08
				c0.805,0,2.053,0.48,2.053,2.472v3.468h-1.057v-3.348c0-0.936-0.348-1.728-1.344-1.728c-0.684,0-1.224,0.492-1.416,1.08
				c-0.048,0.132-0.072,0.324-0.072,0.492v3.504h-1.056V49.729z"/>
			<path d="M396.503,45.445v7.02c0,0.516,0.013,1.104,0.048,1.5h-0.947l-0.049-1.008h-0.023c-0.324,0.648-1.021,1.14-1.968,1.14
				c-1.404,0-2.496-1.188-2.496-2.952c-0.013-1.944,1.2-3.12,2.604-3.12c0.9,0,1.5,0.42,1.752,0.876h0.024v-3.456H396.503z
				 M395.448,50.521c0-0.144-0.012-0.312-0.048-0.456c-0.156-0.66-0.732-1.212-1.524-1.212c-1.092,0-1.74,0.96-1.74,2.232
				c0,1.188,0.588,2.16,1.717,2.16c0.708,0,1.355-0.48,1.548-1.26c0.036-0.144,0.048-0.288,0.048-0.456V50.521z"/>
			<path d="M43.238,60.497c0.528-0.108,1.296-0.18,2.004-0.18c1.116,0,1.848,0.216,2.352,0.672c0.396,0.348,0.636,0.9,0.636,1.536
				c0,1.056-0.684,1.764-1.524,2.052v0.036c0.612,0.216,0.984,0.792,1.188,1.632c0.264,1.128,0.456,1.908,0.612,2.22h-1.08
				c-0.132-0.228-0.312-0.924-0.528-1.932c-0.24-1.116-0.684-1.536-1.632-1.572h-0.984v3.504h-1.044V60.497z M44.282,64.169h1.068
				c1.116,0,1.824-0.612,1.824-1.536c0-1.044-0.756-1.5-1.86-1.5c-0.504,0-0.852,0.048-1.032,0.096V64.169z"/>
			<path d="M50.294,65.741c0.024,1.428,0.924,2.016,1.98,2.016c0.756,0,1.224-0.132,1.608-0.288l0.192,0.744
				c-0.372,0.168-1.02,0.372-1.944,0.372c-1.776,0-2.856-1.188-2.856-2.928c0-1.764,1.044-3.144,2.736-3.144
				c1.896,0,2.388,1.668,2.388,2.736c0,0.216-0.012,0.384-0.036,0.504L50.294,65.741z M53.378,64.985
				c0.012-0.66-0.276-1.716-1.452-1.716c-1.08,0-1.536,0.984-1.62,1.716H53.378z"/>
			<path d="M55.562,67.397c0.324,0.192,0.876,0.408,1.404,0.408c0.756,0,1.116-0.372,1.116-0.864c0-0.504-0.3-0.78-1.068-1.068
				c-1.056-0.384-1.548-0.948-1.548-1.644c0-0.936,0.768-1.704,2.004-1.704c0.588,0,1.104,0.156,1.416,0.36l-0.252,0.756
				c-0.228-0.132-0.648-0.336-1.188-0.336c-0.624,0-0.96,0.36-0.96,0.792c0,0.492,0.336,0.708,1.092,0.996
				c0.996,0.372,1.524,0.876,1.524,1.752c0,1.032-0.804,1.752-2.16,1.752c-0.636,0-1.224-0.168-1.632-0.408L55.562,67.397z"/>
			<path d="M61.73,61.265v1.392h1.512v0.804H61.73v3.132c0,0.72,0.204,1.128,0.792,1.128c0.288,0,0.456-0.024,0.612-0.072
				l0.048,0.804c-0.204,0.072-0.528,0.144-0.936,0.144c-0.492,0-0.888-0.168-1.14-0.444c-0.288-0.324-0.408-0.84-0.408-1.524v-3.168
				h-0.9v-0.804h0.9v-1.068L61.73,61.265z"/>
			<path d="M102.133,60.497c0.528-0.108,1.296-0.18,2.004-0.18c1.116,0,1.848,0.216,2.352,0.672c0.396,0.348,0.636,0.9,0.636,1.536
				c0,1.056-0.684,1.764-1.524,2.052v0.036c0.612,0.216,0.984,0.792,1.188,1.632c0.264,1.128,0.456,1.908,0.612,2.22h-1.08
				c-0.132-0.228-0.312-0.924-0.528-1.932c-0.24-1.116-0.684-1.536-1.632-1.572h-0.984v3.504h-1.044V60.497z M103.177,64.169h1.068
				c1.116,0,1.824-0.612,1.824-1.536c0-1.044-0.756-1.5-1.86-1.5c-0.504,0-0.852,0.048-1.032,0.096V64.169z"/>
			<path d="M109.189,65.741c0.024,1.428,0.924,2.016,1.98,2.016c0.756,0,1.224-0.132,1.608-0.288l0.192,0.744
				c-0.372,0.168-1.02,0.372-1.944,0.372c-1.776,0-2.856-1.188-2.856-2.928c0-1.764,1.044-3.144,2.736-3.144
				c1.896,0,2.388,1.668,2.388,2.736c0,0.216-0.012,0.384-0.036,0.504L109.189,65.741z M112.273,64.985
				c0.012-0.66-0.276-1.716-1.452-1.716c-1.08,0-1.536,0.984-1.62,1.716H112.273z"/>
			<path d="M114.457,67.397c0.324,0.192,0.876,0.408,1.404,0.408c0.756,0,1.116-0.372,1.116-0.864c0-0.504-0.3-0.78-1.068-1.068
				c-1.056-0.384-1.548-0.948-1.548-1.644c0-0.936,0.768-1.704,2.004-1.704c0.588,0,1.104,0.156,1.416,0.36l-0.252,0.756
				c-0.228-0.132-0.648-0.336-1.188-0.336c-0.624,0-0.96,0.36-0.96,0.792c0,0.492,0.336,0.708,1.092,0.996
				c0.996,0.372,1.524,0.876,1.524,1.752c0,1.032-0.804,1.752-2.16,1.752c-0.636,0-1.224-0.168-1.632-0.408L114.457,67.397z"/>
			<path d="M120.625,61.265v1.392h1.512v0.804h-1.512v3.132c0,0.72,0.204,1.128,0.792,1.128c0.288,0,0.456-0.024,0.612-0.072
				l0.048,0.804c-0.204,0.072-0.528,0.144-0.936,0.144c-0.492,0-0.888-0.168-1.14-0.444c-0.288-0.324-0.408-0.84-0.408-1.524v-3.168
				h-0.9v-0.804h0.9v-1.068L120.625,61.265z"/>
			<path d="M158.87,60.497c0.528-0.108,1.296-0.18,2.004-0.18c1.116,0,1.848,0.216,2.352,0.672c0.396,0.348,0.636,0.9,0.636,1.536
				c0,1.056-0.684,1.764-1.524,2.052v0.036c0.612,0.216,0.984,0.792,1.188,1.632c0.264,1.128,0.456,1.908,0.612,2.22h-1.08
				c-0.132-0.228-0.312-0.924-0.528-1.932c-0.24-1.116-0.684-1.536-1.632-1.572h-0.984v3.504h-1.044V60.497z M159.914,64.169h1.068
				c1.116,0,1.824-0.612,1.824-1.536c0-1.044-0.756-1.5-1.86-1.5c-0.504,0-0.852,0.048-1.032,0.096V64.169z"/>
			<path d="M165.926,65.741c0.024,1.428,0.924,2.016,1.98,2.016c0.756,0,1.224-0.132,1.608-0.288l0.192,0.744
				c-0.372,0.168-1.02,0.372-1.944,0.372c-1.776,0-2.856-1.188-2.856-2.928c0-1.764,1.044-3.144,2.736-3.144
				c1.896,0,2.388,1.668,2.388,2.736c0,0.216-0.012,0.384-0.036,0.504L165.926,65.741z M169.01,64.985
				c0.012-0.66-0.276-1.716-1.452-1.716c-1.08,0-1.536,0.984-1.62,1.716H169.01z"/>
			<path d="M171.193,67.397c0.324,0.192,0.876,0.408,1.404,0.408c0.756,0,1.116-0.372,1.116-0.864c0-0.504-0.3-0.78-1.068-1.068
				c-1.056-0.384-1.548-0.948-1.548-1.644c0-0.936,0.768-1.704,2.004-1.704c0.588,0,1.104,0.156,1.416,0.36l-0.252,0.756
				c-0.228-0.132-0.648-0.336-1.188-0.336c-0.624,0-0.96,0.36-0.96,0.792c0,0.492,0.336,0.708,1.092,0.996
				c0.996,0.372,1.524,0.876,1.524,1.752c0,1.032-0.804,1.752-2.16,1.752c-0.636,0-1.224-0.168-1.632-0.408L171.193,67.397z"/>
			<path d="M177.361,61.265v1.392h1.512v0.804h-1.512v3.132c0,0.72,0.204,1.128,0.792,1.128c0.288,0,0.456-0.024,0.612-0.072
				l0.048,0.804c-0.204,0.072-0.528,0.144-0.936,0.144c-0.492,0-0.888-0.168-1.14-0.444c-0.288-0.324-0.408-0.84-0.408-1.524v-3.168
				h-0.9v-0.804h0.9v-1.068L177.361,61.265z"/>
			<path d="M223.238,60.497c0.528-0.108,1.296-0.18,2.004-0.18c1.116,0,1.848,0.216,2.352,0.672c0.396,0.348,0.636,0.9,0.636,1.536
				c0,1.056-0.684,1.764-1.524,2.052v0.036c0.612,0.216,0.984,0.792,1.188,1.632c0.264,1.128,0.456,1.908,0.612,2.22h-1.08
				c-0.132-0.228-0.312-0.924-0.528-1.932c-0.24-1.116-0.684-1.536-1.632-1.572h-0.984v3.504h-1.044V60.497z M224.282,64.169h1.068
				c1.116,0,1.824-0.612,1.824-1.536c0-1.044-0.756-1.5-1.86-1.5c-0.504,0-0.852,0.048-1.032,0.096V64.169z"/>
			<path d="M230.294,65.741c0.024,1.428,0.924,2.016,1.98,2.016c0.756,0,1.224-0.132,1.608-0.288l0.192,0.744
				c-0.372,0.168-1.02,0.372-1.944,0.372c-1.776,0-2.856-1.188-2.856-2.928c0-1.764,1.044-3.144,2.736-3.144
				c1.896,0,2.388,1.668,2.388,2.736c0,0.216-0.012,0.384-0.036,0.504L230.294,65.741z M233.378,64.985
				c0.012-0.66-0.276-1.716-1.452-1.716c-1.08,0-1.536,0.984-1.62,1.716H233.378z"/>
			<path d="M235.562,67.397c0.324,0.192,0.876,0.408,1.404,0.408c0.756,0,1.116-0.372,1.116-0.864c0-0.504-0.3-0.78-1.068-1.068
				c-1.056-0.384-1.548-0.948-1.548-1.644c0-0.936,0.768-1.704,2.004-1.704c0.588,0,1.104,0.156,1.416,0.36l-0.252,0.756
				c-0.228-0.132-0.648-0.336-1.188-0.336c-0.624,0-0.96,0.36-0.96,0.792c0,0.492,0.336,0.708,1.092,0.996
				c0.996,0.372,1.524,0.876,1.524,1.752c0,1.032-0.804,1.752-2.16,1.752c-0.636,0-1.224-0.168-1.632-0.408L235.562,67.397z"/>
			<path d="M241.73,61.265v1.392h1.512v0.804h-1.512v3.132c0,0.72,0.204,1.128,0.792,1.128c0.288,0,0.456-0.024,0.612-0.072
				l0.048,0.804c-0.204,0.072-0.528,0.144-0.936,0.144c-0.492,0-0.888-0.168-1.14-0.444c-0.288-0.324-0.408-0.84-0.408-1.524v-3.168
				h-0.9v-0.804h0.9v-1.068L241.73,61.265z"/>
			<path d="M271.958,60.497c0.528-0.108,1.296-0.18,2.004-0.18c1.116,0,1.848,0.216,2.352,0.672c0.396,0.348,0.636,0.9,0.636,1.536
				c0,1.056-0.684,1.764-1.524,2.052v0.036c0.612,0.216,0.984,0.792,1.188,1.632c0.264,1.128,0.456,1.908,0.612,2.22h-1.08
				c-0.132-0.228-0.312-0.924-0.528-1.932c-0.24-1.116-0.684-1.536-1.632-1.572h-0.984v3.504h-1.044V60.497z M273.001,64.169h1.068
				c1.116,0,1.824-0.612,1.824-1.536c0-1.044-0.756-1.5-1.86-1.5c-0.504,0-0.852,0.048-1.032,0.096V64.169z"/>
			<path d="M279.013,65.741c0.024,1.428,0.924,2.016,1.98,2.016c0.756,0,1.224-0.132,1.608-0.288l0.192,0.744
				c-0.372,0.168-1.02,0.372-1.944,0.372c-1.776,0-2.856-1.188-2.856-2.928c0-1.764,1.044-3.144,2.736-3.144
				c1.896,0,2.388,1.668,2.388,2.736c0,0.216-0.012,0.384-0.036,0.504L279.013,65.741z M282.098,64.985
				c0.012-0.66-0.276-1.716-1.452-1.716c-1.08,0-1.536,0.984-1.62,1.716H282.098z"/>
			<path d="M284.281,67.397c0.324,0.192,0.876,0.408,1.404,0.408c0.756,0,1.116-0.372,1.116-0.864c0-0.504-0.3-0.78-1.068-1.068
				c-1.056-0.384-1.548-0.948-1.548-1.644c0-0.936,0.768-1.704,2.004-1.704c0.588,0,1.104,0.156,1.416,0.36l-0.252,0.756
				c-0.228-0.132-0.648-0.336-1.188-0.336c-0.624,0-0.96,0.36-0.96,0.792c0,0.492,0.336,0.708,1.092,0.996
				c0.996,0.372,1.524,0.876,1.524,1.752c0,1.032-0.804,1.752-2.16,1.752c-0.636,0-1.224-0.168-1.632-0.408L284.281,67.397z"/>
			<path d="M290.449,61.265v1.392h1.512v0.804h-1.512v3.132c0,0.72,0.204,1.128,0.792,1.128c0.288,0,0.456-0.024,0.612-0.072
				l0.048,0.804c-0.204,0.072-0.528,0.144-0.936,0.144c-0.492,0-0.888-0.168-1.14-0.444c-0.288-0.324-0.408-0.84-0.408-1.524v-3.168
				h-0.9v-0.804h0.9v-1.068L290.449,61.265z"/>
			<path d="M331.238,60.497c0.528-0.108,1.296-0.18,2.005-0.18c1.115,0,1.848,0.216,2.352,0.672c0.396,0.348,0.636,0.9,0.636,1.536
				c0,1.056-0.684,1.764-1.523,2.052v0.036c0.611,0.216,0.983,0.792,1.188,1.632c0.265,1.128,0.456,1.908,0.612,2.22h-1.08
				c-0.132-0.228-0.313-0.924-0.528-1.932c-0.239-1.116-0.684-1.536-1.632-1.572h-0.984v3.504h-1.044V60.497z M332.282,64.169h1.068
				c1.116,0,1.824-0.612,1.824-1.536c0-1.044-0.756-1.5-1.86-1.5c-0.504,0-0.852,0.048-1.032,0.096V64.169z"/>
			<path d="M338.294,65.741c0.023,1.428,0.924,2.016,1.979,2.016c0.756,0,1.224-0.132,1.608-0.288l0.191,0.744
				c-0.372,0.168-1.02,0.372-1.943,0.372c-1.776,0-2.856-1.188-2.856-2.928c0-1.764,1.044-3.144,2.736-3.144
				c1.896,0,2.388,1.668,2.388,2.736c0,0.216-0.012,0.384-0.036,0.504L338.294,65.741z M341.378,64.985
				c0.012-0.66-0.276-1.716-1.452-1.716c-1.08,0-1.536,0.984-1.62,1.716H341.378z"/>
			<path d="M343.562,67.397c0.324,0.192,0.876,0.408,1.404,0.408c0.756,0,1.115-0.372,1.115-0.864c0-0.504-0.3-0.78-1.067-1.068
				c-1.057-0.384-1.548-0.948-1.548-1.644c0-0.936,0.768-1.704,2.004-1.704c0.588,0,1.104,0.156,1.416,0.36l-0.252,0.756
				c-0.229-0.132-0.648-0.336-1.188-0.336c-0.624,0-0.96,0.36-0.96,0.792c0,0.492,0.336,0.708,1.092,0.996
				c0.996,0.372,1.524,0.876,1.524,1.752c0,1.032-0.804,1.752-2.16,1.752c-0.636,0-1.224-0.168-1.632-0.408L343.562,67.397z"/>
			<path d="M349.73,61.265v1.392h1.512v0.804h-1.512v3.132c0,0.72,0.204,1.128,0.792,1.128c0.288,0,0.456-0.024,0.612-0.072
				l0.048,0.804c-0.204,0.072-0.528,0.144-0.937,0.144c-0.492,0-0.888-0.168-1.14-0.444c-0.288-0.324-0.408-0.84-0.408-1.524v-3.168
				h-0.9v-0.804h0.9v-1.068L349.73,61.265z"/>
		</g>
	</g>
</svg>
