<?xml version="1.0" encoding="utf-8"?>
<!-- Generator: Adobe Illustrator 10.0, SVG Export Plug-In . SVG Version: 3.0.0 Build 76)  -->
<!DOCTYPE svg PUBLIC "-//W3C//DTD SVG 1.0//EN"    "http://www.w3.org/TR/2001/REC-SVG-20010904/DTD/svg10.dtd" [
	<!ENTITY ns_flows "http://ns.adobe.com/Flows/1.0/">
	<!ENTITY ns_extend "http://ns.adobe.com/Extensibility/1.0/">
	<!ENTITY ns_ai "http://ns.adobe.com/AdobeIllustrator/10.0/">
	<!ENTITY ns_svg "http://www.w3.org/2000/svg">
	<!ENTITY ns_xlink "http://www.w3.org/1999/xlink">
]>
<svg  xmlns:x="&ns_extend;" xmlns:i="&ns_ai;" xmlns:graph="&ns_graphs;"
	 xmlns="&ns_svg;" xmlns:xlink="&ns_xlink;" xmlns:a="http://ns.adobe.com/AdobeSVGViewerExtensions/3.0/" width="475" height="45"
	 viewBox="0.441 -0.472 475 45" overflow="visible" enable-background="new 0.441 -0.472 475 45" xml:space="preserve">
	<g id="Layer_1_2_">
		<path stroke="#000000" stroke-miterlimit="1" d="M52.706,19.401h-8.513v-3.142h8.513V19.401z"/>
		<g>
			<path fill="none" stroke="#000000" d="M0.127,4.246h474.49"/>
			<path fill="none" stroke="#000000" d="M0.127,19.357h474.49"/>
			<path fill="none" stroke="#000000" d="M0.363,26.48h474.491"/>
			<path fill="none" stroke="#000000" d="M0,33.863h474.49"/>
			<path fill="none" stroke="#000000" d="M0,11.5h474.49"/>
		</g>
		<g>
			<path d="M35.192,12.72v1.584c0,0.96,1.128,0.936,1.128,0.936v0.624h-5.208V15.24c0,0,1.176,0.048,1.152-0.888V12.72h-4.44
				l-0.432-0.456c2.904-3.912,2.928-4.632,3.624-8.184h4.152c-0.984,1.824-4.296,5.256-6.624,7.968h3.72V9.096l2.928-3.216v6.168
				h1.728v0.672H35.192z"/>
		</g>
		<g>
			<path d="M11.152,33.768c-4.944-2.352-5.736-5.376-5.952-8.472c-0.24-3.36,1.896-6.768,3.888-8.664
				c1.152-1.08,2.4-2.136,3.888-3.264c-0.048-0.84-0.24-1.176-0.336-2.376c-0.024-0.504-0.336-2.856,0.168-5.568
				c0.312-1.608,2.328-5.4,3.72-5.424c1.08-0.024,2.736,4.296,2.784,6.456c0.072,3.336-0.72,4.848-1.704,6.576
				c-0.504,0.864-1.032,1.464-1.584,2.136C15.448,15.864,14.8,16.272,14.2,16.8c0,0,0.768,4.344,0.792,4.656
				c1.536-0.192,3.408,0.36,4.08,0.84c1.704,1.272,2.352,3.024,2.472,4.728c0.216,2.712-1.272,5.568-4.56,6.936
				c0,0,0.504,3.456,0.624,4.176c0.264,1.896,0.216,3.096-0.192,3.864c-0.696,1.296-1.824,2.496-4.008,2.64
				c-1.68,0.096-4.992-0.744-5.16-3.384c-0.096-1.56,0.6-3.24,2.496-3.36c1.152-0.096,2.52,0.864,2.616,2.232
				c0.096,1.176-0.672,2.4-2.664,2.952c0.312,0.432,1.248,0.936,2.592,0.936c1.392,0,2.832-0.936,3.528-2.184
				c0.432-0.816,0.384-2.28,0.216-3.624c-0.072-0.456-0.648-4.08-0.648-4.08C14.608,34.416,12.16,34.248,11.152,33.768z
				 M11.632,28.08c0.048,1.152,1.008,2.496,1.896,2.952c-0.12,0.072-0.24,0.264-0.24,0.264c-0.984-0.48-1.824-1.272-2.04-1.56
				c-0.696-0.936-0.984-1.464-1.08-2.88c-0.096-1.32,0.624-3.096,2.232-4.344c0.84-0.624,1.248-0.768,1.968-0.936l-0.72-4.344
				c-0.744,0.432-3.816,2.904-5.112,4.92c-1.152,1.8-1.848,3.24-1.704,5.016c0.288,4.008,4.68,7.296,9.432,6.168
				c0,0-1.416-8.52-1.392-8.52C12.256,24.912,11.56,26.928,11.632,28.08z M13.576,12.864c2.088-1.632,4.92-4.704,4.752-7.08
				c-0.048-0.744-0.36-2.088-1.44-2.064C14.416,3.744,13.024,8.904,13.576,12.864z M16.84,33.144c2.76-0.936,2.88-3.312,2.784-4.728
				C19.528,27.24,19,24.6,15.496,24.768L16.84,33.144z"/>
		</g>
		<g>
			<path d="M35.192,30.72v1.584c0,0.96,1.128,0.936,1.128,0.936v0.624h-5.208V33.24c0,0,1.176,0.048,1.152-0.888V30.72h-4.44
				l-0.432-0.456c2.904-3.912,2.928-4.632,3.624-8.184h4.152c-0.984,1.824-4.296,5.256-6.624,7.968h3.72v-2.952l2.928-3.216v6.168
				h1.728v0.672H35.192z"/>
		</g>
		<path fill="none" stroke="#0A0A0A" d="M108.901,3.395v29.746"/>
		<path fill="none" stroke="#0A0A0A" d="M151.901,4.395v29.746"/>
		<path fill="none" stroke="#0A0A0A" d="M237.901,4.395v29.746"/>
		<path fill="none" stroke="#0A0A0A" d="M331.9,3.395v29.746"/>
		<path fill="none" stroke="#0A0A0A" d="M426.9,4.395v29.746"/>
		<path fill="none" stroke="#0A0A0A" d="M474.49,4.118v29.746"/>
		<path stroke="#000000" stroke-miterlimit="1" d="M133.441,14.528h-8.513v-3.142h8.513V14.528z"/>
		<g>
			<g>
				<path d="M181.682,15.536c0,0.859-0.392,1.555-0.877,1.555c-0.482,0-0.876-0.696-0.876-1.555c0-0.858,0.394-1.555,0.876-1.555
					C181.291,13.981,181.682,14.677,181.682,15.536z"/>
				<g>
					<g>
						<path fill="none" d="M181.333,14.499c1.752,2.073,3.154,2.073,4.558-0.518"/>
						<path d="M180.955,14.82c0.703,0.807,1.59,1.694,2.74,1.664c1.249-0.034,2.055-1.247,2.602-2.218
							c0.312-0.553-0.498-1.127-0.813-0.569c-0.379,0.673-0.851,1.56-1.657,1.779c-0.831,0.227-1.654-0.768-2.116-1.297
							C181.291,13.697,180.533,14.336,180.955,14.82z"/>
					</g>
				</g>
				<g>
					<g>
						<path fill="none" d="M180.63,26.421c1.403-4.146,3.507-7.775,4.908-11.922"/>
						<path d="M181.095,26.593c1.43-4.061,3.481-7.861,4.908-11.922c0.213-0.604-0.718-0.948-0.93-0.345
							c-1.428,4.062-3.479,7.861-4.908,11.922C179.953,26.853,180.883,27.196,181.095,26.593z"/>
					</g>
				</g>
			</g>
			<path stroke="#000000" stroke-width="0.5" d="M181.682,15.536c0,0.915-0.66,1.656-1.477,1.656c-0.815,0-1.477-0.742-1.477-1.656
				s0.661-1.656,1.477-1.656C181.022,13.879,181.682,14.621,181.682,15.536z"/>
		</g>
		<g>
			<g>
				<path d="M246.313,13.889c0,0.859-0.392,1.555-0.877,1.555c-0.482,0-0.876-0.696-0.876-1.555c0-0.858,0.394-1.555,0.876-1.555
					C245.921,12.334,246.313,13.031,246.313,13.889z"/>
				<g>
					<g>
						<path fill="none" d="M245.963,12.853c1.752,2.073,3.154,2.073,4.558-0.518"/>
						<path d="M245.585,13.173c0.703,0.807,1.59,1.694,2.74,1.664c1.249-0.034,2.055-1.247,2.602-2.218
							c0.312-0.553-0.498-1.127-0.813-0.569c-0.379,0.673-0.851,1.56-1.657,1.779c-0.831,0.227-1.654-0.768-2.116-1.297
							C245.921,12.05,245.163,12.69,245.585,13.173z"/>
					</g>
				</g>
				<g>
					<g>
						<path fill="none" d="M245.261,24.774c1.403-4.146,3.507-7.775,4.908-11.922"/>
						<path d="M245.726,24.947c1.43-4.061,3.481-7.861,4.908-11.922c0.213-0.604-0.718-0.948-0.93-0.345
							c-1.428,4.062-3.479,7.861-4.908,11.922C244.583,25.207,245.514,25.55,245.726,24.947z"/>
					</g>
				</g>
			</g>
			<path stroke="#000000" stroke-width="0.5" d="M246.313,13.889c0,0.915-0.66,1.656-1.477,1.656c-0.815,0-1.477-0.742-1.477-1.656
				s0.661-1.656,1.477-1.656C245.652,12.233,246.313,12.975,246.313,13.889z"/>
			<path d="M244.836,17.93c0,0.859-0.392,1.555-0.877,1.555c-0.482,0-0.876-0.696-0.876-1.555c0-0.858,0.394-1.555,0.876-1.555
				C244.444,16.375,244.836,17.072,244.836,17.93z"/>
			<g>
				<g>
					<path fill="none" d="M244.486,16.894c1.752,2.073,3.154,2.073,4.558-0.518"/>
					<path d="M244.108,17.214c0.703,0.807,1.59,1.694,2.74,1.664c1.249-0.034,2.055-1.247,2.602-2.218
						c0.312-0.553-0.498-1.127-0.813-0.569c-0.379,0.673-0.851,1.56-1.657,1.779c-0.831,0.227-1.654-0.768-2.116-1.297
						C244.444,16.091,243.687,16.731,244.108,17.214z"/>
				</g>
			</g>
		</g>
		<path stroke="#000000" stroke-miterlimit="1" d="M223.702,18.426h-8.513v-3.142h8.513V18.426z"/>
		<path stroke="#000000" stroke-miterlimit="1" d="M452.941,15.028h-8.514v-3.142h8.514V15.028z"/>
		<path stroke="#000000" stroke-miterlimit="1" d="M412.367,18.426h-8.513v-3.142h8.513V18.426z"/>
		<g>
			<g>
				<path d="M196.349,15.202c0,0.859-0.392,1.555-0.877,1.555c-0.482,0-0.876-0.696-0.876-1.555c0-0.858,0.394-1.555,0.876-1.555
					C195.957,13.647,196.349,14.344,196.349,15.202z"/>
				<g>
					<g>
						<path fill="none" d="M195.999,14.166c1.752,2.073,3.154,2.073,4.558-0.518"/>
						<path d="M195.621,14.486c0.704,0.807,1.59,1.694,2.741,1.664c1.249-0.034,2.055-1.247,2.601-2.218
							c0.312-0.553-0.499-1.127-0.813-0.569c-0.379,0.673-0.85,1.56-1.657,1.779c-0.832,0.226-1.654-0.768-2.116-1.297
							C195.958,13.363,195.199,14.003,195.621,14.486z"/>
					</g>
				</g>
				<g>
					<g>
						<path fill="none" d="M195.297,26.087c1.403-4.146,3.507-7.775,4.908-11.922"/>
						<path d="M195.762,26.26c1.429-4.061,3.48-7.861,4.908-11.922c0.212-0.604-0.719-0.948-0.931-0.345
							c-1.428,4.062-3.479,7.861-4.908,11.922C194.619,26.52,195.55,26.863,195.762,26.26z"/>
					</g>
				</g>
			</g>
			<path stroke="#000000" stroke-width="0.5" d="M196.349,15.202c0,0.915-0.66,1.656-1.477,1.656c-0.815,0-1.477-0.742-1.477-1.656
				s0.661-1.656,1.477-1.656C195.688,13.546,196.349,14.288,196.349,15.202z"/>
		</g>
		<g>
			<g>
				<path d="M274.584,14.205c0,0.859-0.392,1.555-0.877,1.555c-0.482,0-0.876-0.696-0.876-1.555c0-0.858,0.394-1.555,0.876-1.555
					C274.193,12.65,274.584,13.347,274.584,14.205z"/>
				<g>
					<g>
						<path fill="none" d="M274.235,13.168c1.752,2.073,3.154,2.073,4.558-0.518"/>
						<path d="M273.856,13.489c0.704,0.807,1.59,1.694,2.741,1.664c1.249-0.034,2.055-1.247,2.601-2.218
							c0.312-0.553-0.499-1.127-0.813-0.569c-0.379,0.673-0.85,1.56-1.657,1.779c-0.832,0.226-1.654-0.768-2.116-1.297
							C274.193,12.366,273.435,13.006,273.856,13.489z"/>
					</g>
				</g>
				<g>
					<g>
						<path fill="none" d="M273.533,25.09c1.403-4.146,3.507-7.775,4.908-11.922"/>
						<path d="M273.998,25.263c1.429-4.061,3.48-7.861,4.908-11.922c0.212-0.604-0.719-0.948-0.931-0.345
							c-1.428,4.062-3.479,7.861-4.908,11.922C272.854,25.522,273.786,25.866,273.998,25.263z"/>
					</g>
				</g>
			</g>
			<path stroke="#000000" stroke-width="0.5" d="M274.584,14.205c0,0.915-0.66,1.656-1.477,1.656c-0.815,0-1.477-0.742-1.477-1.656
				s0.661-1.656,1.477-1.656C273.924,12.549,274.584,13.291,274.584,14.205z"/>
		</g>
		<g>
			<g>
				<path d="M355.016,13.869c0,0.859-0.392,1.555-0.877,1.555c-0.482,0-0.876-0.696-0.876-1.555c0-0.858,0.394-1.555,0.876-1.555
					C354.624,12.314,355.016,13.01,355.016,13.869z"/>
				<g>
					<g>
						<path fill="none" d="M354.666,12.832c1.752,2.073,3.154,2.073,4.558-0.518"/>
						<path d="M354.287,13.153c0.704,0.807,1.591,1.694,2.742,1.664c1.248-0.034,2.055-1.247,2.601-2.218
							c0.312-0.553-0.499-1.127-0.813-0.569c-0.379,0.673-0.851,1.56-1.657,1.779c-0.831,0.226-1.654-0.768-2.115-1.297
							C354.625,12.03,353.865,12.669,354.287,13.153z"/>
					</g>
				</g>
				<g>
					<g>
						<path fill="none" d="M353.964,24.754c1.403-4.146,3.507-7.775,4.908-11.922"/>
						<path d="M354.43,24.926c1.429-4.061,3.48-7.861,4.908-11.922c0.212-0.604-0.719-0.948-0.932-0.345
							c-1.428,4.062-3.479,7.861-4.908,11.922C353.285,25.186,354.217,25.529,354.43,24.926z"/>
					</g>
				</g>
			</g>
			<path stroke="#000000" stroke-width="0.5" d="M355.016,13.869c0,0.915-0.66,1.656-1.477,1.656c-0.815,0-1.477-0.742-1.477-1.656
				s0.661-1.656,1.477-1.656C354.355,12.212,355.016,12.954,355.016,13.869z"/>
		</g>
		<g>
			<g>
				<path d="M258.979,13.889c0,0.859-0.392,1.555-0.877,1.555c-0.482,0-0.876-0.696-0.876-1.555c0-0.858,0.394-1.555,0.876-1.555
					C258.587,12.334,258.979,13.031,258.979,13.889z"/>
				<g>
					<g>
						<path fill="none" d="M258.629,12.853c1.752,2.073,3.154,2.073,4.558-0.518"/>
						<path d="M258.251,13.173c0.704,0.807,1.59,1.694,2.741,1.664c1.249-0.034,2.054-1.247,2.601-2.218
							c0.312-0.553-0.499-1.127-0.813-0.569c-0.379,0.673-0.85,1.56-1.657,1.779c-0.832,0.226-1.654-0.768-2.116-1.297
							C258.588,12.05,257.829,12.69,258.251,13.173z"/>
					</g>
				</g>
				<g>
					<g>
						<path fill="none" d="M257.927,24.774c1.403-4.146,3.507-7.775,4.908-11.922"/>
						<path d="M258.393,24.947c1.429-4.061,3.48-7.861,4.908-11.922c0.212-0.604-0.719-0.948-0.931-0.345
							c-1.428,4.062-3.479,7.861-4.908,11.922C257.249,25.207,258.18,25.55,258.393,24.947z"/>
					</g>
				</g>
			</g>
			<path stroke="#000000" stroke-width="0.5" d="M258.979,13.889c0,0.915-0.66,1.656-1.477,1.656c-0.815,0-1.477-0.742-1.477-1.656
				s0.661-1.656,1.477-1.656C258.319,12.233,258.979,12.975,258.979,13.889z"/>
			<path d="M257.502,17.93c0,0.859-0.392,1.555-0.877,1.555c-0.482,0-0.876-0.696-0.876-1.555c0-0.858,0.394-1.555,0.876-1.555
				C257.111,16.375,257.502,17.072,257.502,17.93z"/>
			<g>
				<g>
					<path fill="none" d="M257.153,16.894c1.752,2.073,3.154,2.073,4.558-0.518"/>
					<path d="M256.774,17.214c0.704,0.807,1.59,1.694,2.741,1.664c1.249-0.034,2.054-1.247,2.601-2.218
						c0.312-0.553-0.499-1.127-0.813-0.569c-0.379,0.673-0.85,1.56-1.657,1.779c-0.832,0.226-1.654-0.768-2.116-1.297
						C257.111,16.091,256.353,16.731,256.774,17.214z"/>
				</g>
			</g>
		</g>
		<g>
			<g>
				<path d="M339.728,14.528c0,0.859-0.392,1.555-0.877,1.555c-0.482,0-0.876-0.696-0.876-1.555c0-0.858,0.394-1.555,0.876-1.555
					C339.336,12.974,339.728,13.67,339.728,14.528z"/>
				<g>
					<g>
						<path fill="none" d="M339.378,13.492c1.752,2.073,3.154,2.073,4.558-0.518"/>
						<path d="M339,13.813c0.703,0.807,1.59,1.694,2.74,1.664c1.25-0.034,2.055-1.247,2.602-2.218
							c0.312-0.553-0.498-1.127-0.813-0.569c-0.379,0.673-0.85,1.56-1.656,1.779c-0.832,0.226-1.654-0.768-2.117-1.297
							C339.336,12.689,338.578,13.329,339,13.813z"/>
					</g>
				</g>
				<g>
					<g>
						<path fill="none" d="M338.676,25.414c1.403-4.146,3.507-7.775,4.908-11.922"/>
						<path d="M339.141,25.586c1.43-4.061,3.48-7.861,4.908-11.922c0.213-0.604-0.719-0.948-0.93-0.345
							c-1.428,4.062-3.479,7.861-4.908,11.922C337.998,25.846,338.929,26.189,339.141,25.586z"/>
					</g>
				</g>
			</g>
			<path stroke="#000000" stroke-width="0.5" d="M339.728,14.528c0,0.915-0.66,1.656-1.477,1.656c-0.815,0-1.477-0.742-1.477-1.656
				s0.661-1.656,1.477-1.656C339.067,12.872,339.728,13.614,339.728,14.528z"/>
			<path d="M338.251,18.569c0,0.859-0.392,1.555-0.877,1.555c-0.482,0-0.876-0.696-0.876-1.555c0-0.858,0.394-1.555,0.876-1.555
				C337.859,17.015,338.251,17.711,338.251,18.569z"/>
			<g>
				<g>
					<path fill="none" d="M337.901,17.533c1.752,2.073,3.154,2.073,4.558-0.518"/>
					<path d="M337.523,17.854c0.703,0.807,1.59,1.694,2.74,1.664c1.25-0.034,2.055-1.247,2.602-2.218
						c0.312-0.553-0.498-1.127-0.813-0.569c-0.379,0.673-0.85,1.56-1.656,1.779c-0.832,0.226-1.654-0.768-2.117-1.297
						C337.859,16.73,337.102,17.37,337.523,17.854z"/>
				</g>
			</g>
		</g>
		<g>
			<g>
				<path d="M370.251,13.821c0,0.859-0.392,1.555-0.877,1.555c-0.482,0-0.876-0.696-0.876-1.555c0-0.858,0.394-1.555,0.876-1.555
					C369.859,12.266,370.251,12.962,370.251,13.821z"/>
				<g>
					<g>
						<path fill="none" d="M369.901,12.784c1.752,2.073,3.154,2.073,4.558-0.518"/>
						<path d="M369.523,13.105c0.703,0.807,1.59,1.694,2.74,1.664c1.25-0.034,2.055-1.247,2.602-2.218
							c0.312-0.553-0.498-1.127-0.813-0.569c-0.379,0.673-0.85,1.56-1.656,1.779c-0.832,0.226-1.654-0.768-2.117-1.297
							C369.859,11.982,369.102,12.622,369.523,13.105z"/>
					</g>
				</g>
				<g>
					<g>
						<path fill="none" d="M369.199,24.706c1.403-4.146,3.507-7.775,4.908-11.922"/>
						<path d="M369.664,24.878c1.43-4.061,3.48-7.861,4.908-11.922c0.213-0.604-0.719-0.948-0.93-0.345
							c-1.428,4.062-3.479,7.861-4.908,11.922C368.521,25.138,369.452,25.481,369.664,24.878z"/>
					</g>
				</g>
			</g>
			<path stroke="#000000" stroke-width="0.5" d="M370.251,13.821c0,0.915-0.66,1.656-1.477,1.656c-0.815,0-1.477-0.742-1.477-1.656
				s0.661-1.656,1.477-1.656C369.591,12.165,370.251,12.906,370.251,13.821z"/>
			<path d="M368.774,17.862c0,0.859-0.392,1.555-0.877,1.555c-0.482,0-0.876-0.696-0.876-1.555c0-0.858,0.394-1.555,0.876-1.555
				C368.383,16.307,368.774,17.003,368.774,17.862z"/>
			<g>
				<g>
					<path fill="none" d="M368.425,16.825c1.752,2.073,3.154,2.073,4.558-0.518"/>
					<path d="M368.047,17.146c0.703,0.807,1.59,1.694,2.74,1.664c1.25-0.034,2.055-1.247,2.602-2.218
						c0.312-0.553-0.498-1.127-0.813-0.569c-0.379,0.673-0.85,1.56-1.656,1.779c-0.832,0.226-1.654-0.768-2.117-1.297
						C368.383,16.023,367.625,16.663,368.047,17.146z"/>
				</g>
			</g>
		</g>
		<path stroke="#000000" stroke-miterlimit="1" d="M300.615,17.849h-8.514v-3.142h8.514V17.849z"/>
		<g>
			<path fill="none" stroke="#000000" d="M75.616,8.737l2.958,2.637"/>
			<path fill="none" stroke="#000000" stroke-width="4" d="M74.903,17.38l4.538-5.852"/>
			<path fill="none" stroke="#000000" d="M74.565,16.706l5.313,3.841"/>
			<path fill="none" stroke="#000000" d="M77.735,25.737l-2.493-3.285"/>
			<g>
				<g>
					<path fill="none" d="M79.681,20.787c-1.479-0.457-3.168-0.31-4.22,1.15"/>
					<path d="M80.025,19.856c-2.035-0.583-4.035-0.217-5.377,1.512c-0.786,1.013,0.843,2.146,1.626,1.138
						c0.762-0.981,1.923-1.114,3.063-0.788C80.562,22.068,81.256,20.208,80.025,19.856z"/>
				</g>
			</g>
		</g>
		<g>
			<path fill="none" stroke="#000000" d="M95.492,8.56l2.958,2.637"/>
			<path fill="none" stroke="#000000" stroke-width="4" d="M94.779,17.203l4.538-5.852"/>
			<path fill="none" stroke="#000000" d="M94.441,16.528l5.313,3.841"/>
			<path fill="none" stroke="#000000" d="M97.611,25.56l-2.493-3.285"/>
			<g>
				<g>
					<path fill="none" d="M99.557,20.61c-1.479-0.457-3.168-0.31-4.22,1.15"/>
					<path d="M99.901,19.679c-2.035-0.583-4.035-0.217-5.377,1.512c-0.786,1.013,0.843,2.146,1.626,1.138
						c0.762-0.981,1.923-1.114,3.063-0.788C100.438,21.891,101.132,20.031,99.901,19.679z"/>
				</g>
			</g>
		</g>
		<g>
			<path fill="none" stroke="#000000" d="M160.616,9.737l2.958,2.637"/>
			<path fill="none" stroke="#000000" stroke-width="4" d="M159.903,18.38l4.538-5.852"/>
			<path fill="none" stroke="#000000" d="M159.565,17.706l5.313,3.841"/>
			<path fill="none" stroke="#000000" d="M162.735,26.737l-2.493-3.285"/>
			<g>
				<g>
					<path fill="none" d="M164.681,21.787c-1.479-0.457-3.168-0.31-4.22,1.15"/>
					<path d="M165.025,20.856c-2.035-0.583-4.035-0.217-5.377,1.512c-0.786,1.013,0.843,2.146,1.626,1.138
						c0.762-0.981,1.923-1.114,3.063-0.788C165.562,23.068,166.256,21.208,165.025,20.856z"/>
				</g>
			</g>
		</g>
		<g>
			<path fill="none" stroke="#000000" d="M384.616,8.737l2.958,2.637"/>
			<path fill="none" stroke="#000000" stroke-width="4" d="M383.903,17.38l4.538-5.852"/>
			<path fill="none" stroke="#000000" d="M383.565,16.706l5.313,3.841"/>
			<path fill="none" stroke="#000000" d="M386.735,25.737l-2.493-3.285"/>
			<g>
				<g>
					<path fill="none" d="M388.682,20.787c-1.48-0.457-3.169-0.31-4.221,1.15"/>
					<path d="M389.025,19.856c-2.035-0.583-4.035-0.217-5.377,1.512c-0.787,1.013,0.843,2.146,1.625,1.138
						c0.762-0.981,1.924-1.114,3.063-0.788C389.562,22.068,390.256,20.208,389.025,19.856z"/>
				</g>
			</g>
		</g>
		<g>
			<path fill="none" stroke="#000000" d="M313.492,9.56l2.957,2.637"/>
			<path fill="none" stroke="#000000" stroke-width="4" d="M312.779,18.203l4.538-5.852"/>
			<path fill="none" stroke="#000000" d="M312.441,17.528l5.313,3.841"/>
			<path fill="none" stroke="#000000" d="M315.611,26.56l-2.492-3.285"/>
			<g>
				<g>
					<path fill="none" d="M317.557,21.61c-1.479-0.457-3.168-0.31-4.22,1.15"/>
					<path d="M317.901,20.679c-2.035-0.583-4.035-0.217-5.378,1.512c-0.785,1.013,0.844,2.146,1.627,1.138
						c0.762-0.981,1.923-1.114,3.063-0.788C318.438,22.891,319.132,21.031,317.901,20.679z"/>
				</g>
			</g>
		</g>
	</g>
</svg>
