<?xml version="1.0" encoding="utf-8"?>
<!-- Generator: Adobe Illustrator 10.0, SVG Export Plug-In . SVG Version: 3.0.0 Build 76)  -->
<!DOCTYPE svg PUBLIC "-//W3C//DTD SVG 1.0//EN"    "http://www.w3.org/TR/2001/REC-SVG-20010904/DTD/svg10.dtd" [
	<!ENTITY ns_flows "http://ns.adobe.com/Flows/1.0/">
	<!ENTITY ns_extend "http://ns.adobe.com/Extensibility/1.0/">
	<!ENTITY ns_ai "http://ns.adobe.com/AdobeIllustrator/10.0/">
	<!ENTITY ns_svg "http://www.w3.org/2000/svg">
	<!ENTITY ns_xlink "http://www.w3.org/1999/xlink">
]>
<svg  xmlns:x="&ns_extend;" xmlns:i="&ns_ai;" xmlns:graph="&ns_graphs;"
	 xmlns="&ns_svg;" xmlns:xlink="&ns_xlink;" xmlns:a="http://ns.adobe.com/AdobeSVGViewerExtensions/3.0/" width="230" height="118"
	 viewBox="-0.095 -7.583 230 118" overflow="visible" enable-background="new -0.095 -7.583 230 118" xml:space="preserve">
	<g id="Layer_1_2_">
		<g>
			<path d="M5.614,2.017H5.6L4.77,2.481L4.645,1.972l1.043-0.578h0.551v4.941H5.614V2.017z"/>
			<path d="M7.98,6.335V5.924l0.507-0.509c1.219-1.201,1.778-1.839,1.778-2.584c0-0.502-0.228-0.965-0.94-0.965
				c-0.434,0-0.793,0.228-1.014,0.418L8.105,1.812C8.428,1.531,8.906,1.31,9.457,1.31c1.021,0,1.455,0.73,1.455,1.437
				c0,0.912-0.639,1.649-1.646,2.653L8.891,5.765V5.78h2.138v0.555H7.98z"/>
		</g>
		<path d="M3.88,8.869l6.532,8.024"/>
		<path d="M10.412,15.626L16.126,0"/>
		<g>
			<path d="M17.057,14.358V13.71l0.8-0.804c1.925-1.896,2.807-2.904,2.807-4.08c0-0.792-0.359-1.524-1.484-1.524
				c-0.685,0-1.253,0.36-1.601,0.66l-0.325-0.744c0.51-0.444,1.264-0.792,2.134-0.792c1.612,0,2.297,1.152,2.297,2.268
				c0,1.44-1.009,2.604-2.598,4.188l-0.592,0.576v0.024h3.375v0.876H17.057z"/>
		</g>
		<g>
			<path d="M41.852,10.456v-0.72h7.353v0.72H41.852z M41.852,12.808v-0.72h7.353v0.72H41.852z"/>
		</g>
		<g>
			<path d="M36.476,27.176v-0.411l0.507-0.509c1.22-1.201,1.778-1.839,1.778-2.584c0-0.502-0.228-0.965-0.94-0.965
				c-0.434,0-0.793,0.228-1.014,0.418l-0.206-0.471c0.323-0.281,0.801-0.502,1.352-0.502c1.021,0,1.455,0.73,1.455,1.437
				c0,0.912-0.639,1.649-1.646,2.653l-0.375,0.365v0.015h2.138v0.555H36.476z"/>
		</g>
		<g>
			<path d="M5.243,25.978H5.229l-0.83,0.464l-0.125-0.509l1.043-0.578h0.551v4.941H5.243V25.978z"/>
			<path d="M7.609,30.295v-0.411l0.507-0.509c1.219-1.201,1.778-1.839,1.778-2.584c0-0.502-0.228-0.965-0.94-0.965
				c-0.434,0-0.793,0.228-1.014,0.418l-0.206-0.471c0.323-0.281,0.801-0.502,1.352-0.502c1.021,0,1.455,0.73,1.455,1.437
				c0,0.912-0.639,1.649-1.646,2.653L8.52,29.725v0.016h2.138v0.555H7.609z"/>
		</g>
		<path d="M3.509,32.83l6.531,8.023"/>
		<path d="M10.041,39.586l5.714-15.625"/>
		<g>
			<path d="M16.686,38.319v-0.648l0.8-0.804c1.925-1.896,2.807-2.904,2.807-4.08c0-0.792-0.359-1.524-1.484-1.524
				c-0.685,0-1.253,0.36-1.601,0.66l-0.325-0.744c0.51-0.444,1.264-0.792,2.134-0.792c1.612,0,2.297,1.152,2.297,2.268
				c0,1.44-1.009,2.604-2.598,4.188l-0.592,0.576v0.024H21.5v0.876H16.686z"/>
		</g>
		<g>
			<path d="M0,33.157c0-0.664,0.084-1.369,0.252-2.114s0.491-1.605,0.967-2.582s0.824-1.565,1.042-1.768
				c0.067-0.063,0.14-0.095,0.219-0.095c0.101,0,0.187,0.035,0.257,0.104s0.105,0.153,0.105,0.251c0,0.058-0.02,0.121-0.059,0.19
				c-0.619,1.167-1.061,2.224-1.326,3.171s-0.396,1.894-0.396,2.841c0,0.953,0.132,1.903,0.396,2.85s0.707,2.001,1.326,3.162
				c0.039,0.069,0.059,0.133,0.059,0.19c0,0.098-0.037,0.184-0.109,0.256c-0.073,0.072-0.159,0.108-0.257,0.108
				c-0.077,0-0.148-0.032-0.216-0.095c-0.208-0.196-0.547-0.771-1.018-1.724c-0.471-0.953-0.796-1.796-0.975-2.53
				C0.089,34.642,0,33.902,0,33.157z"/>
		</g>
		<g>
			<path d="M34.162,32.745c0,0.664-0.084,1.367-0.252,2.109s-0.49,1.603-0.967,2.582c-0.477,0.979-0.824,1.566-1.042,1.763
				c-0.067,0.069-0.141,0.104-0.219,0.104c-0.102,0-0.187-0.036-0.257-0.108c-0.07-0.073-0.105-0.158-0.105-0.256
				c0-0.058,0.02-0.121,0.059-0.19c0.619-1.161,1.061-2.215,1.325-3.162s0.397-1.895,0.397-2.842c0-0.953-0.132-1.903-0.397-2.85
				s-0.706-2.004-1.325-3.171c-0.04-0.069-0.059-0.133-0.059-0.19c0-0.098,0.036-0.182,0.109-0.251
				c0.073-0.069,0.158-0.104,0.257-0.104c0.076,0,0.148,0.032,0.216,0.095c0.207,0.196,0.546,0.771,1.017,1.724
				s0.796,1.796,0.976,2.53C34.072,31.26,34.162,32,34.162,32.745z"/>
		</g>
		<g>
			<path d="M7.583,49.265H7.568l-0.83,0.464L6.613,49.22l1.043-0.578h0.551v4.941H7.583V49.265z"/>
			<path d="M9.948,53.583v-0.411l0.507-0.509c1.219-1.201,1.778-1.839,1.778-2.584c0-0.502-0.228-0.965-0.94-0.965
				c-0.434,0-0.793,0.228-1.014,0.418l-0.206-0.471c0.323-0.281,0.801-0.502,1.352-0.502c1.021,0,1.455,0.73,1.455,1.437
				c0,0.912-0.639,1.649-1.646,2.653l-0.375,0.365v0.015h2.138v0.555H9.948z"/>
		</g>
		<path d="M5.849,56.117l6.532,8.024"/>
		<path d="M12.38,62.874l5.714-15.626"/>
		<g>
			<path d="M19.025,61.607v-0.648l0.8-0.804c1.925-1.896,2.807-2.904,2.807-4.08c0-0.792-0.359-1.524-1.484-1.524
				c-0.685,0-1.253,0.36-1.601,0.66l-0.325-0.744c0.51-0.444,1.264-0.792,2.134-0.792c1.612,0,2.297,1.152,2.297,2.268
				c0,1.44-1.009,2.604-2.598,4.188l-0.592,0.576v0.024h3.375v0.876H19.025z"/>
		</g>
		<g>
			<path d="M2.339,56.445c0-0.664,0.084-1.369,0.252-2.114s0.491-1.605,0.967-2.582s0.824-1.565,1.042-1.768
				c0.067-0.063,0.14-0.095,0.219-0.095c0.101,0,0.187,0.035,0.257,0.104s0.105,0.153,0.105,0.251c0,0.058-0.02,0.121-0.059,0.19
				c-0.619,1.167-1.061,2.224-1.326,3.171s-0.396,1.894-0.396,2.841c0,0.953,0.132,1.903,0.396,2.85s0.707,2.001,1.326,3.162
				c0.039,0.069,0.059,0.133,0.059,0.19c0,0.098-0.037,0.184-0.109,0.256C5,62.976,4.915,63.012,4.817,63.012
				c-0.077,0-0.148-0.032-0.216-0.095c-0.208-0.196-0.547-0.771-1.018-1.724c-0.471-0.953-0.796-1.796-0.975-2.53
				C2.429,57.93,2.339,57.19,2.339,56.445z"/>
		</g>
		<g>
			<path d="M36.501,56.032c0,0.664-0.084,1.367-0.252,2.109s-0.49,1.603-0.967,2.582c-0.477,0.979-0.824,1.566-1.042,1.763
				c-0.067,0.069-0.141,0.104-0.219,0.104c-0.102,0-0.187-0.036-0.257-0.108c-0.07-0.073-0.105-0.158-0.105-0.256
				c0-0.058,0.02-0.121,0.059-0.19c0.619-1.161,1.061-2.215,1.325-3.162s0.397-1.895,0.397-2.842c0-0.953-0.132-1.903-0.397-2.85
				s-0.706-2.004-1.325-3.171c-0.04-0.069-0.059-0.133-0.059-0.19c0-0.098,0.036-0.182,0.109-0.251
				c0.073-0.069,0.158-0.104,0.257-0.104c0.076,0,0.148,0.032,0.216,0.095c0.207,0.196,0.546,0.771,1.017,1.724
				s0.796,1.796,0.976,2.53C36.411,54.547,36.501,55.287,36.501,56.032z"/>
		</g>
		<g>
			<path d="M7.583,71.388H7.568l-0.83,0.464l-0.125-0.509l1.043-0.578h0.551v4.941H7.583V71.388z"/>
			<path d="M9.948,75.706v-0.411l0.507-0.509c1.219-1.201,1.778-1.839,1.778-2.584c0-0.502-0.228-0.965-0.94-0.965
				c-0.434,0-0.793,0.228-1.014,0.418l-0.206-0.471c0.323-0.281,0.801-0.502,1.352-0.502c1.021,0,1.455,0.73,1.455,1.437
				c0,0.912-0.639,1.649-1.646,2.653l-0.375,0.365v0.015h2.138v0.555H9.948z"/>
		</g>
		<path d="M5.849,78.24l6.532,8.024"/>
		<path d="M12.38,84.997l5.714-15.626"/>
		<g>
			<path d="M19.025,83.73v-0.648l0.8-0.804c1.925-1.896,2.807-2.904,2.807-4.08c0-0.792-0.359-1.524-1.484-1.524
				c-0.685,0-1.253,0.36-1.601,0.66l-0.325-0.744c0.51-0.444,1.264-0.792,2.134-0.792c1.612,0,2.297,1.152,2.297,2.268
				c0,1.44-1.009,2.604-2.598,4.188l-0.592,0.576v0.024h3.375v0.876H19.025z"/>
		</g>
		<g>
			<path d="M2.339,78.568c0-0.664,0.084-1.369,0.252-2.114s0.491-1.605,0.967-2.582s0.824-1.565,1.042-1.768
				c0.067-0.063,0.14-0.095,0.219-0.095c0.101,0,0.187,0.035,0.257,0.104s0.105,0.153,0.105,0.251c0,0.058-0.02,0.121-0.059,0.19
				c-0.619,1.167-1.061,2.224-1.326,3.171s-0.396,1.894-0.396,2.841c0,0.953,0.132,1.903,0.396,2.85s0.707,2.001,1.326,3.162
				c0.039,0.069,0.059,0.133,0.059,0.19c0,0.098-0.037,0.184-0.109,0.256C5,85.099,4.915,85.135,4.817,85.135
				c-0.077,0-0.148-0.032-0.216-0.095c-0.208-0.196-0.547-0.771-1.018-1.724c-0.471-0.953-0.796-1.796-0.975-2.53
				C2.429,80.053,2.339,79.313,2.339,78.568z"/>
		</g>
		<g>
			<path d="M36.501,78.155c0,0.664-0.084,1.367-0.252,2.109s-0.49,1.603-0.967,2.582c-0.477,0.979-0.824,1.566-1.042,1.763
				c-0.067,0.069-0.141,0.104-0.219,0.104c-0.102,0-0.187-0.036-0.257-0.108c-0.07-0.073-0.105-0.158-0.105-0.256
				c0-0.058,0.02-0.121,0.059-0.19c0.619-1.161,1.061-2.215,1.325-3.162s0.397-1.895,0.397-2.842c0-0.953-0.132-1.903-0.397-2.85
				s-0.706-2.004-1.325-3.171c-0.04-0.069-0.059-0.133-0.059-0.19c0-0.098,0.036-0.182,0.109-0.251
				c0.073-0.069,0.158-0.104,0.257-0.104c0.076,0,0.148,0.032,0.216,0.095c0.207,0.196,0.546,0.771,1.017,1.724
				s0.796,1.796,0.976,2.53C36.411,76.67,36.501,77.41,36.501,78.155z"/>
		</g>
		<g>
			<path d="M9.922,93.511H9.908l-0.83,0.464l-0.125-0.509l1.043-0.578h0.551v4.941H9.922V93.511z"/>
			<path d="M12.288,97.829v-0.411l0.507-0.509c1.219-1.201,1.778-1.839,1.778-2.584c0-0.502-0.228-0.965-0.94-0.965
				c-0.434,0-0.793,0.228-1.014,0.418l-0.206-0.471c0.323-0.281,0.801-0.502,1.352-0.502c1.021,0,1.455,0.73,1.455,1.437
				c0,0.912-0.639,1.649-1.646,2.653l-0.375,0.365v0.015h2.138v0.555H12.288z"/>
		</g>
		<path d="M8.188,100.363l6.531,8.024"/>
		<path d="M14.72,107.12l5.714-15.626"/>
		<g>
			<path d="M21.365,105.853v-0.648l0.8-0.804c1.925-1.896,2.807-2.904,2.807-4.08c0-0.792-0.359-1.524-1.484-1.524
				c-0.685,0-1.253,0.36-1.601,0.66l-0.325-0.744c0.51-0.444,1.264-0.792,2.134-0.792c1.612,0,2.297,1.152,2.297,2.268
				c0,1.44-1.009,2.604-2.598,4.188l-0.592,0.576v0.024h3.375v0.876H21.365z"/>
		</g>
		<g>
			<path d="M4.679,100.691c0-0.664,0.084-1.369,0.252-2.114s0.491-1.605,0.967-2.582s0.824-1.565,1.042-1.768
				c0.067-0.063,0.14-0.095,0.219-0.095c0.101,0,0.187,0.035,0.257,0.104s0.105,0.153,0.105,0.251c0,0.058-0.02,0.121-0.059,0.19
				c-0.619,1.167-1.061,2.224-1.326,3.171s-0.396,1.894-0.396,2.841c0,0.953,0.132,1.903,0.396,2.85s0.707,2.001,1.326,3.162
				c0.039,0.069,0.059,0.133,0.059,0.19c0,0.098-0.037,0.184-0.109,0.256c-0.073,0.072-0.159,0.108-0.257,0.108
				c-0.077,0-0.148-0.032-0.216-0.095c-0.208-0.196-0.547-0.771-1.018-1.724c-0.471-0.953-0.796-1.796-0.975-2.53
				C4.769,102.176,4.679,101.436,4.679,100.691z"/>
		</g>
		<g>
			<path d="M38.841,100.278c0,0.664-0.084,1.367-0.252,2.109s-0.49,1.603-0.967,2.582c-0.477,0.979-0.824,1.566-1.042,1.763
				c-0.067,0.069-0.141,0.104-0.219,0.104c-0.102,0-0.187-0.036-0.257-0.108c-0.07-0.073-0.105-0.158-0.105-0.256
				c0-0.058,0.02-0.121,0.059-0.19c0.619-1.161,1.061-2.215,1.325-3.162s0.397-1.895,0.397-2.842c0-0.953-0.132-1.903-0.397-2.85
				s-0.706-2.004-1.325-3.171c-0.04-0.069-0.059-0.133-0.059-0.19c0-0.098,0.036-0.182,0.109-0.251
				c0.073-0.069,0.158-0.104,0.257-0.104c0.076,0,0.148,0.032,0.216,0.095c0.207,0.196,0.546,0.771,1.017,1.724
				s0.796,1.796,0.976,2.53C38.751,98.793,38.841,99.533,38.841,100.278z"/>
		</g>
		<g>
			<path d="M61.099,14.201c0,0.504,0.023,0.996,0.081,1.392h-0.916l-0.093-0.732h-0.035c-0.302,0.456-0.917,0.864-1.717,0.864
				c-1.137,0-1.717-0.828-1.717-1.668c0-1.404,1.207-2.172,3.375-2.16v-0.12c0-0.48-0.128-1.356-1.276-1.344
				c-0.534,0-1.079,0.156-1.473,0.432l-0.232-0.708c0.464-0.3,1.148-0.504,1.856-0.504c1.728,0,2.146,1.212,2.146,2.376V14.201z
				 M60.102,12.629c-1.113-0.024-2.377,0.18-2.377,1.308c0,0.696,0.44,1.008,0.951,1.008c0.742,0,1.218-0.48,1.38-0.972
				c0.035-0.108,0.046-0.228,0.046-0.336V12.629z"/>
			<path d="M65.054,14.525c0.313,0.192,0.847,0.408,1.357,0.408c0.731,0,1.079-0.372,1.079-0.864c0-0.504-0.29-0.78-1.032-1.068
				c-1.021-0.384-1.496-0.948-1.496-1.644c0-0.936,0.742-1.704,1.937-1.704c0.568,0,1.067,0.156,1.369,0.36l-0.244,0.756
				c-0.22-0.132-0.626-0.336-1.148-0.336c-0.603,0-0.928,0.36-0.928,0.792c0,0.492,0.325,0.708,1.056,0.996
				c0.962,0.372,1.473,0.876,1.473,1.752c0,1.032-0.777,1.752-2.087,1.752c-0.615,0-1.183-0.168-1.578-0.408L65.054,14.525z"/>
			<path d="M70.366,12.869c0.023,1.428,0.893,2.016,1.914,2.016c0.73,0,1.183-0.132,1.554-0.288l0.186,0.744
				c-0.36,0.168-0.986,0.372-1.879,0.372c-1.716,0-2.76-1.188-2.76-2.928c0-1.764,1.009-3.144,2.645-3.144
				c1.833,0,2.308,1.668,2.308,2.736c0,0.216-0.012,0.384-0.035,0.504L70.366,12.869z M73.347,12.113
				c0.012-0.66-0.267-1.716-1.403-1.716c-1.044,0-1.485,0.984-1.566,1.716H73.347z"/>
			<path d="M75.597,11.357c0-0.612-0.023-1.092-0.046-1.572h0.893l0.046,0.936h0.035c0.313-0.552,0.835-1.068,1.775-1.068
				c0.754,0,1.333,0.48,1.577,1.164H79.9c0.174-0.336,0.406-0.576,0.638-0.756c0.336-0.264,0.696-0.408,1.229-0.408
				c0.754,0,1.856,0.504,1.856,2.52v3.42h-0.998v-3.288c0-1.128-0.406-1.788-1.218-1.788c-0.592,0-1.032,0.444-1.218,0.948
				c-0.046,0.156-0.082,0.348-0.082,0.528v3.6h-0.998v-3.48c0-0.936-0.394-1.596-1.171-1.596c-0.626,0-1.102,0.528-1.264,1.056
				c-0.058,0.156-0.081,0.336-0.081,0.516v3.504h-0.998V11.357z"/>
			<path d="M85.758,8.717c-0.383,0-0.638-0.312-0.638-0.684s0.267-0.672,0.661-0.672s0.649,0.3,0.649,0.672
				s-0.255,0.684-0.661,0.684H85.758z M85.271,15.593V9.785h1.021v5.808H85.271z"/>
			<path d="M89.214,8.393v1.392h1.461v0.804h-1.461v3.132c0,0.72,0.197,1.128,0.766,1.128c0.278,0,0.44-0.024,0.591-0.072
				l0.046,0.804c-0.197,0.072-0.51,0.144-0.905,0.144c-0.475,0-0.858-0.168-1.102-0.444c-0.278-0.324-0.395-0.84-0.395-1.524v-3.168
				h-0.87V9.785h0.87V8.717L89.214,8.393z"/>
			<path d="M94.039,15.725c-1.508,0-2.691-1.152-2.691-2.988c0-1.944,1.241-3.084,2.784-3.084c1.612,0,2.702,1.212,2.702,2.976
				c0,2.16-1.45,3.096-2.784,3.096H94.039z M94.074,14.933c0.974,0,1.705-0.948,1.705-2.268c0-0.984-0.476-2.22-1.682-2.22
				c-1.194,0-1.716,1.152-1.716,2.256c0,1.272,0.696,2.232,1.682,2.232H94.074z"/>
			<path d="M98.122,11.357c0-0.612-0.012-1.092-0.046-1.572h0.905l0.058,0.948h0.023c0.278-0.54,0.928-1.08,1.856-1.08
				c0.777,0,1.983,0.48,1.983,2.472v3.468h-1.021v-3.348c0-0.936-0.336-1.728-1.299-1.728c-0.661,0-1.183,0.492-1.369,1.08
				c-0.046,0.132-0.07,0.324-0.07,0.492v3.504h-1.021V11.357z"/>
			<path d="M105.139,12.869c0.023,1.428,0.893,2.016,1.914,2.016c0.731,0,1.183-0.132,1.554-0.288l0.186,0.744
				c-0.359,0.168-0.986,0.372-1.879,0.372c-1.716,0-2.76-1.188-2.76-2.928c0-1.764,1.009-3.144,2.645-3.144
				c1.833,0,2.308,1.668,2.308,2.736c0,0.216-0.012,0.384-0.035,0.504L105.139,12.869z M108.12,12.113
				c0.011-0.66-0.267-1.716-1.404-1.716c-1.043,0-1.484,0.984-1.565,1.716H108.12z"/>
			<path d="M115.032,7.265c-0.847,1.188-1.45,2.736-1.45,4.92c0,2.136,0.638,3.66,1.45,4.86h-0.789
				c-0.73-0.996-1.519-2.532-1.519-4.872c0.011-2.352,0.789-3.9,1.519-4.908H115.032z"/>
			<path d="M116.122,7.073h1.021v3.624h0.023c0.163-0.3,0.417-0.576,0.731-0.744c0.301-0.192,0.661-0.3,1.044-0.3
				c0.754,0,1.96,0.48,1.96,2.484v3.456h-1.021v-3.336c0-0.948-0.336-1.728-1.299-1.728c-0.661,0-1.171,0.48-1.369,1.056
				c-0.058,0.144-0.069,0.3-0.069,0.504v3.504h-1.021V7.073z"/>
			<path d="M126.515,14.201c0,0.504,0.023,0.996,0.081,1.392h-0.916l-0.093-0.732h-0.035c-0.301,0.456-0.916,0.864-1.716,0.864
				c-1.137,0-1.717-0.828-1.717-1.668c0-1.404,1.207-2.172,3.375-2.16v-0.12c0-0.48-0.128-1.356-1.276-1.344
				c-0.534,0-1.079,0.156-1.473,0.432l-0.232-0.708c0.464-0.3,1.148-0.504,1.855-0.504c1.729,0,2.146,1.212,2.146,2.376V14.201z
				 M125.517,12.629c-1.113-0.024-2.378,0.18-2.378,1.308c0,0.696,0.441,1.008,0.951,1.008c0.743,0,1.218-0.48,1.38-0.972
				c0.035-0.108,0.046-0.228,0.046-0.336V12.629z"/>
			<path d="M128.15,7.073h1.021v8.52h-1.021V7.073z"/>
			<path d="M130.957,15.593v-5.004h-0.777V9.785h0.777V9.509c0-0.816,0.186-1.56,0.661-2.028c0.383-0.384,0.893-0.54,1.357-0.54
				c0.371,0,0.672,0.084,0.87,0.168l-0.127,0.816c-0.163-0.072-0.36-0.132-0.661-0.132c-0.858,0-1.09,0.792-1.09,1.68v0.312h1.357
				v0.804h-1.345v5.004H130.957z"/>
			<path d="M136.57,14.525c0.313,0.192,0.847,0.408,1.357,0.408c0.731,0,1.079-0.372,1.079-0.864c0-0.504-0.29-0.78-1.032-1.068
				c-1.021-0.384-1.496-0.948-1.496-1.644c0-0.936,0.742-1.704,1.937-1.704c0.568,0,1.067,0.156,1.369,0.36l-0.244,0.756
				c-0.22-0.132-0.626-0.336-1.148-0.336c-0.603,0-0.928,0.36-0.928,0.792c0,0.492,0.325,0.708,1.056,0.996
				c0.962,0.372,1.473,0.876,1.473,1.752c0,1.032-0.777,1.752-2.087,1.752c-0.615,0-1.183-0.168-1.578-0.408L136.57,14.525z"/>
			<path d="M142.532,8.393v1.392h1.461v0.804h-1.461v3.132c0,0.72,0.197,1.128,0.766,1.128c0.278,0,0.441-0.024,0.592-0.072
				l0.046,0.804c-0.197,0.072-0.511,0.144-0.905,0.144c-0.476,0-0.858-0.168-1.102-0.444c-0.278-0.324-0.394-0.84-0.394-1.524
				v-3.168h-0.87V9.785h0.87V8.717L142.532,8.393z"/>
			<path d="M145.652,12.869c0.023,1.428,0.893,2.016,1.914,2.016c0.73,0,1.183-0.132,1.554-0.288l0.186,0.744
				c-0.36,0.168-0.986,0.372-1.879,0.372c-1.716,0-2.76-1.188-2.76-2.928c0-1.764,1.009-3.144,2.645-3.144
				c1.833,0,2.308,1.668,2.308,2.736c0,0.216-0.012,0.384-0.035,0.504L145.652,12.869z M148.633,12.113
				c0.012-0.66-0.267-1.716-1.403-1.716c-1.044,0-1.485,0.984-1.566,1.716H148.633z"/>
			<path d="M150.883,11.681c0-0.744-0.012-1.344-0.046-1.896h0.917l0.058,0.996h0.023c0.406-0.72,1.079-1.128,1.983-1.128
				c1.369,0,2.389,1.188,2.389,2.952c0,2.088-1.241,3.12-2.552,3.12c-0.754,0-1.392-0.336-1.728-0.912h-0.023v3.156h-1.021V11.681z
				 M151.903,13.229c0,0.144,0.012,0.3,0.046,0.432c0.174,0.732,0.8,1.236,1.52,1.236c1.079,0,1.705-0.912,1.705-2.244
				c0-1.164-0.58-2.16-1.659-2.16c-0.696,0-1.357,0.504-1.554,1.296c-0.023,0.144-0.058,0.3-0.058,0.432V13.229z"/>
			<path d="M156.868,17.045c0.812-1.188,1.45-2.736,1.45-4.896c0-2.16-0.626-3.684-1.45-4.884h0.789
				c0.73,0.984,1.52,2.532,1.52,4.884c-0.012,2.352-0.789,3.876-1.52,4.896H156.868z"/>
		</g>
		<g>
			<path d="M62.48,36.517c0,0.504,0.023,0.996,0.081,1.392h-0.916l-0.093-0.732h-0.035c-0.302,0.456-0.917,0.864-1.717,0.864
				c-1.137,0-1.717-0.828-1.717-1.668c0-1.404,1.207-2.172,3.375-2.16v-0.12c0-0.48-0.128-1.356-1.276-1.344
				c-0.534,0-1.079,0.156-1.473,0.432l-0.232-0.708c0.464-0.3,1.148-0.504,1.856-0.504c1.728,0,2.146,1.212,2.146,2.376V36.517z
				 M61.483,34.945c-1.113-0.024-2.377,0.18-2.377,1.308c0,0.696,0.44,1.008,0.951,1.008c0.742,0,1.218-0.48,1.38-0.972
				c0.035-0.108,0.046-0.228,0.046-0.336V34.945z"/>
			<path d="M66.98,32.101l0.754,2.94c0.151,0.648,0.302,1.26,0.406,1.86h0.035c0.127-0.588,0.313-1.212,0.499-1.848l0.917-2.952
				h0.858l0.87,2.904c0.209,0.684,0.371,1.308,0.499,1.896h0.035c0.093-0.588,0.244-1.2,0.429-1.884l0.8-2.916h1.009l-1.809,5.808
				h-0.928l-0.858-2.772c-0.197-0.66-0.36-1.236-0.499-1.92h-0.023c-0.139,0.696-0.313,1.308-0.51,1.932l-0.905,2.76H67.63
				l-1.694-5.808H66.98z"/>
			<path d="M75.111,29.389h1.021v3.624h0.023c0.162-0.3,0.417-0.576,0.73-0.744c0.302-0.192,0.661-0.3,1.044-0.3
				c0.754,0,1.96,0.48,1.96,2.484v3.456h-1.021v-3.336c0-0.948-0.336-1.728-1.299-1.728c-0.661,0-1.172,0.48-1.369,1.056
				c-0.058,0.144-0.07,0.3-0.07,0.504v3.504h-1.021V29.389z"/>
			<path d="M83.833,38.041c-1.508,0-2.69-1.152-2.69-2.988c0-1.944,1.241-3.084,2.784-3.084c1.612,0,2.702,1.212,2.702,2.976
				c0,2.16-1.45,3.096-2.784,3.096H83.833z M83.868,37.249c0.974,0,1.705-0.948,1.705-2.268c0-0.984-0.476-2.22-1.682-2.22
				c-1.194,0-1.716,1.152-1.716,2.256c0,1.272,0.696,2.232,1.682,2.232H83.868z"/>
			<path d="M87.916,29.389h1.021v8.52h-1.021V29.389z"/>
			<path d="M91.21,35.185c0.023,1.428,0.893,2.016,1.914,2.016c0.731,0,1.183-0.132,1.554-0.288l0.186,0.744
				c-0.359,0.168-0.986,0.372-1.879,0.372c-1.716,0-2.76-1.188-2.76-2.928c0-1.764,1.009-3.144,2.645-3.144
				c1.833,0,2.308,1.668,2.308,2.736c0,0.216-0.012,0.384-0.035,0.504L91.21,35.185z M94.191,34.429
				c0.011-0.66-0.267-1.716-1.404-1.716c-1.043,0-1.484,0.984-1.565,1.716H94.191z"/>
			<path d="M100.129,30.709v1.392h1.461v0.804h-1.461v3.132c0,0.72,0.197,1.128,0.766,1.128c0.278,0,0.441-0.024,0.591-0.072
				l0.046,0.804c-0.197,0.072-0.51,0.144-0.904,0.144c-0.476,0-0.858-0.168-1.102-0.444c-0.278-0.324-0.395-0.84-0.395-1.524v-3.168
				h-0.87v-0.804h0.87v-1.068L100.129,30.709z"/>
			<path d="M104.954,38.041c-1.508,0-2.691-1.152-2.691-2.988c0-1.944,1.241-3.084,2.784-3.084c1.612,0,2.702,1.212,2.702,2.976
				c0,2.16-1.45,3.096-2.783,3.096H104.954z M104.989,37.249c0.974,0,1.705-0.948,1.705-2.268c0-0.984-0.476-2.22-1.682-2.22
				c-1.195,0-1.717,1.152-1.717,2.256c0,1.272,0.696,2.232,1.682,2.232H104.989z"/>
			<path d="M109.037,33.673c0-0.612-0.012-1.092-0.046-1.572h0.905l0.058,0.948h0.023c0.278-0.54,0.928-1.08,1.856-1.08
				c0.777,0,1.983,0.48,1.983,2.472v3.468h-1.021v-3.348c0-0.936-0.336-1.728-1.299-1.728c-0.661,0-1.183,0.492-1.369,1.08
				c-0.046,0.132-0.069,0.324-0.069,0.492v3.504h-1.021V33.673z"/>
			<path d="M116.054,35.185c0.023,1.428,0.893,2.016,1.914,2.016c0.73,0,1.183-0.132,1.554-0.288l0.186,0.744
				c-0.36,0.168-0.986,0.372-1.879,0.372c-1.716,0-2.76-1.188-2.76-2.928c0-1.764,1.009-3.144,2.645-3.144
				c1.833,0,2.308,1.668,2.308,2.736c0,0.216-0.012,0.384-0.035,0.504L116.054,35.185z M119.035,34.429
				c0.012-0.66-0.267-1.716-1.403-1.716c-1.044,0-1.485,0.984-1.566,1.716H119.035z"/>
			<path d="M125.947,29.581c-0.847,1.188-1.45,2.736-1.45,4.92c0,2.136,0.638,3.66,1.45,4.86h-0.789
				c-0.731-0.996-1.52-2.532-1.52-4.872c0.012-2.352,0.789-3.9,1.52-4.908H125.947z"/>
			<path d="M127.443,32.101l0.754,2.94c0.151,0.648,0.302,1.26,0.406,1.86h0.035c0.127-0.588,0.313-1.212,0.499-1.848l0.917-2.952
				h0.858l0.87,2.904c0.209,0.684,0.371,1.308,0.499,1.896h0.035c0.093-0.588,0.244-1.2,0.429-1.884l0.8-2.916h1.009l-1.809,5.808
				h-0.928l-0.858-2.772c-0.197-0.66-0.36-1.236-0.499-1.92h-0.023c-0.139,0.696-0.313,1.308-0.511,1.932l-0.904,2.76h-0.928
				l-1.693-5.808H127.443z"/>
			<path d="M135.574,29.389h1.021v3.624h0.023c0.163-0.3,0.417-0.576,0.731-0.744c0.301-0.192,0.661-0.3,1.044-0.3
				c0.754,0,1.96,0.48,1.96,2.484v3.456h-1.021v-3.336c0-0.948-0.336-1.728-1.299-1.728c-0.661,0-1.171,0.48-1.369,1.056
				c-0.058,0.144-0.069,0.3-0.069,0.504v3.504h-1.021V29.389z"/>
			<path d="M144.296,38.041c-1.508,0-2.691-1.152-2.691-2.988c0-1.944,1.241-3.084,2.784-3.084c1.612,0,2.703,1.212,2.703,2.976
				c0,2.16-1.45,3.096-2.784,3.096H144.296z M144.331,37.249c0.974,0,1.705-0.948,1.705-2.268c0-0.984-0.476-2.22-1.682-2.22
				c-1.195,0-1.717,1.152-1.717,2.256c0,1.272,0.696,2.232,1.682,2.232H144.331z"/>
			<path d="M148.379,29.389h1.021v8.52h-1.021V29.389z"/>
			<path d="M151.673,35.185c0.023,1.428,0.893,2.016,1.914,2.016c0.73,0,1.183-0.132,1.554-0.288l0.186,0.744
				c-0.359,0.168-0.986,0.372-1.879,0.372c-1.717,0-2.761-1.188-2.761-2.928c0-1.764,1.009-3.144,2.645-3.144
				c1.833,0,2.308,1.668,2.308,2.736c0,0.216-0.011,0.384-0.035,0.504L151.673,35.185z M154.653,34.429
				c0.012-0.66-0.267-1.716-1.403-1.716c-1.044,0-1.484,0.984-1.566,1.716H154.653z"/>
			<path d="M159.223,36.841c0.313,0.192,0.847,0.408,1.357,0.408c0.731,0,1.079-0.372,1.079-0.864c0-0.504-0.29-0.78-1.032-1.068
				c-1.021-0.384-1.496-0.948-1.496-1.644c0-0.936,0.742-1.704,1.937-1.704c0.568,0,1.067,0.156,1.369,0.36l-0.244,0.756
				c-0.22-0.132-0.626-0.336-1.148-0.336c-0.603,0-0.928,0.36-0.928,0.792c0,0.492,0.325,0.708,1.056,0.996
				c0.962,0.372,1.473,0.876,1.473,1.752c0,1.032-0.777,1.752-2.087,1.752c-0.615,0-1.183-0.168-1.578-0.408L159.223,36.841z"/>
			<path d="M165.185,30.709v1.392h1.462v0.804h-1.462v3.132c0,0.72,0.197,1.128,0.766,1.128c0.278,0,0.441-0.024,0.592-0.072
				l0.046,0.804c-0.197,0.072-0.51,0.144-0.905,0.144c-0.476,0-0.858-0.168-1.102-0.444c-0.278-0.324-0.394-0.84-0.394-1.524v-3.168
				h-0.87v-0.804h0.87v-1.068L165.185,30.709z"/>
			<path d="M168.305,35.185c0.023,1.428,0.893,2.016,1.914,2.016c0.73,0,1.183-0.132,1.554-0.288l0.186,0.744
				c-0.36,0.168-0.986,0.372-1.879,0.372c-1.717,0-2.761-1.188-2.761-2.928c0-1.764,1.009-3.144,2.645-3.144
				c1.833,0,2.308,1.668,2.308,2.736c0,0.216-0.012,0.384-0.035,0.504L168.305,35.185z M171.286,34.429
				c0.012-0.66-0.267-1.716-1.403-1.716c-1.044,0-1.485,0.984-1.566,1.716H171.286z"/>
			<path d="M173.536,33.997c0-0.744-0.012-1.344-0.046-1.896h0.917l0.058,0.996h0.023c0.406-0.72,1.079-1.128,1.983-1.128
				c1.369,0,2.389,1.188,2.389,2.952c0,2.088-1.241,3.12-2.552,3.12c-0.754,0-1.392-0.336-1.728-0.912h-0.023v3.156h-1.021V33.997z
				 M174.556,35.545c0,0.144,0.012,0.3,0.046,0.432c0.174,0.732,0.801,1.236,1.52,1.236c1.079,0,1.705-0.912,1.705-2.244
				c0-1.164-0.58-2.16-1.659-2.16c-0.696,0-1.357,0.504-1.554,1.296c-0.023,0.144-0.058,0.3-0.058,0.432V35.545z"/>
			<path d="M179.521,39.361c0.812-1.188,1.45-2.736,1.45-4.896c0-2.16-0.626-3.684-1.45-4.884h0.789
				c0.731,0.984,1.52,2.532,1.52,4.884c-0.012,2.352-0.789,3.876-1.52,4.896H179.521z"/>
		</g>
		<g>
			<path d="M64.04,60.58c0,0.504,0.023,0.996,0.081,1.392h-0.916l-0.093-0.732h-0.035c-0.302,0.456-0.917,0.864-1.717,0.864
				c-1.137,0-1.717-0.828-1.717-1.668c0-1.404,1.207-2.172,3.375-2.16v-0.12c0-0.48-0.128-1.356-1.276-1.344
				c-0.534,0-1.079,0.156-1.473,0.432l-0.232-0.708c0.464-0.3,1.148-0.504,1.856-0.504c1.728,0,2.146,1.212,2.146,2.376V60.58z
				 M63.042,59.008c-1.113-0.024-2.377,0.18-2.377,1.308c0,0.696,0.44,1.008,0.951,1.008c0.742,0,1.218-0.48,1.38-0.972
				c0.035-0.108,0.046-0.228,0.046-0.336V59.008z"/>
			<path d="M68.134,57.736c0-0.612-0.023-1.092-0.046-1.572h0.893l0.046,0.936h0.035c0.313-0.552,0.835-1.068,1.775-1.068
				c0.754,0,1.333,0.48,1.577,1.164h0.023c0.174-0.336,0.406-0.576,0.638-0.756c0.336-0.264,0.696-0.408,1.229-0.408
				c0.754,0,1.856,0.504,1.856,2.52v3.42h-0.998v-3.288c0-1.128-0.406-1.788-1.218-1.788c-0.592,0-1.032,0.444-1.218,0.948
				c-0.046,0.156-0.081,0.348-0.081,0.528v3.6h-0.998v-3.48c0-0.936-0.394-1.596-1.171-1.596c-0.626,0-1.102,0.528-1.264,1.056
				c-0.058,0.156-0.081,0.336-0.081,0.516v3.504h-0.998V57.736z"/>
			<path d="M81.763,60.58c0,0.504,0.023,0.996,0.081,1.392h-0.916l-0.093-0.732H80.8c-0.301,0.456-0.916,0.864-1.716,0.864
				c-1.137,0-1.717-0.828-1.717-1.668c0-1.404,1.207-2.172,3.375-2.16v-0.12c0-0.48-0.128-1.356-1.276-1.344
				c-0.534,0-1.079,0.156-1.473,0.432l-0.232-0.708c0.464-0.3,1.148-0.504,1.855-0.504c1.729,0,2.146,1.212,2.146,2.376V60.58z
				 M80.765,59.008c-1.113-0.024-2.378,0.18-2.378,1.308c0,0.696,0.441,1.008,0.951,1.008c0.743,0,1.218-0.48,1.38-0.972
				c0.035-0.108,0.046-0.228,0.046-0.336V59.008z"/>
			<path d="M82.018,63.676c0.476-0.036,0.87-0.168,1.114-0.444c0.278-0.324,0.394-0.792,0.394-2.184v-4.884h1.021v5.292
				c0,1.128-0.174,1.86-0.673,2.388c-0.452,0.468-1.195,0.66-1.74,0.66L82.018,63.676z M84.013,55.096
				c-0.383,0-0.638-0.312-0.638-0.684s0.267-0.672,0.661-0.672c0.394,0,0.649,0.3,0.649,0.672s-0.244,0.684-0.661,0.684H84.013z"/>
			<path d="M88.501,62.104c-1.508,0-2.691-1.152-2.691-2.988c0-1.944,1.241-3.084,2.784-3.084c1.612,0,2.702,1.212,2.702,2.976
				c0,2.16-1.45,3.096-2.784,3.096H88.501z M88.536,61.312c0.974,0,1.705-0.948,1.705-2.268c0-0.984-0.476-2.22-1.682-2.22
				c-1.195,0-1.717,1.152-1.717,2.256c0,1.272,0.696,2.232,1.682,2.232H88.536z"/>
			<path d="M92.596,57.976c0-0.684-0.012-1.272-0.046-1.812h0.893l0.046,1.14h0.035c0.255-0.78,0.881-1.272,1.566-1.272
				c0.104,0,0.186,0.012,0.278,0.036v0.984c-0.116-0.012-0.22-0.024-0.359-0.024c-0.719,0-1.229,0.564-1.369,1.344
				c-0.023,0.156-0.035,0.324-0.035,0.504v3.096h-1.021L92.596,57.976z"/>
			<path d="M100.065,54.772v1.392h1.461v0.804h-1.461V60.1c0,0.72,0.197,1.128,0.766,1.128c0.278,0,0.44-0.024,0.591-0.072
				l0.046,0.804c-0.197,0.072-0.51,0.144-0.905,0.144c-0.475,0-0.858-0.168-1.102-0.444c-0.278-0.324-0.395-0.84-0.395-1.524v-3.168
				h-0.87v-0.804h0.87v-1.068L100.065,54.772z"/>
			<path d="M102.675,53.452h1.021v3.624h0.023c0.163-0.3,0.418-0.576,0.731-0.744c0.302-0.192,0.661-0.3,1.044-0.3
				c0.754,0,1.96,0.48,1.96,2.484v3.456h-1.021v-3.336c0-0.948-0.336-1.728-1.299-1.728c-0.661,0-1.171,0.48-1.369,1.056
				c-0.058,0.144-0.069,0.3-0.069,0.504v3.504h-1.021V53.452z"/>
			<path d="M109.599,55.096c-0.383,0-0.638-0.312-0.638-0.684s0.267-0.672,0.661-0.672s0.649,0.3,0.649,0.672
				s-0.255,0.684-0.661,0.684H109.599z M109.112,61.972v-5.808h1.021v5.808H109.112z"/>
			<path d="M111.837,57.976c0-0.684-0.012-1.272-0.046-1.812h0.893l0.046,1.14h0.035c0.255-0.78,0.881-1.272,1.566-1.272
				c0.104,0,0.186,0.012,0.278,0.036v0.984c-0.116-0.012-0.22-0.024-0.359-0.024c-0.719,0-1.229,0.564-1.369,1.344
				c-0.023,0.156-0.035,0.324-0.035,0.504v3.096h-1.021L111.837,57.976z"/>
			<path d="M120.397,53.452v7.02c0,0.516,0.012,1.104,0.046,1.5h-0.916l-0.046-1.008h-0.023c-0.313,0.648-0.986,1.14-1.902,1.14
				c-1.357,0-2.413-1.188-2.413-2.952c-0.012-1.944,1.16-3.12,2.517-3.12c0.87,0,1.45,0.42,1.693,0.876h0.023v-3.456H120.397z
				 M119.376,58.528c0-0.144-0.012-0.312-0.046-0.456c-0.151-0.66-0.708-1.212-1.473-1.212c-1.055,0-1.682,0.96-1.682,2.232
				c0,1.188,0.568,2.16,1.659,2.16c0.684,0,1.311-0.48,1.496-1.26c0.035-0.144,0.046-0.288,0.046-0.456V58.528z"/>
			<path d="M126.753,53.644c-0.847,1.188-1.45,2.736-1.45,4.92c0,2.136,0.638,3.66,1.45,4.86h-0.789
				c-0.731-0.996-1.52-2.532-1.52-4.872c0.012-2.352,0.789-3.9,1.52-4.908H126.753z"/>
			<path d="M127.936,61.972v-5.004h-0.777v-0.804h0.777v-0.276c0-0.816,0.186-1.56,0.661-2.028c0.383-0.384,0.893-0.54,1.357-0.54
				c0.371,0,0.673,0.084,0.87,0.168l-0.128,0.816c-0.162-0.072-0.359-0.132-0.661-0.132c-0.858,0-1.09,0.792-1.09,1.68v0.312h1.357
				v0.804h-1.346v5.004H127.936z"/>
			<path d="M133.376,62.104c-1.508,0-2.691-1.152-2.691-2.988c0-1.944,1.241-3.084,2.784-3.084c1.612,0,2.702,1.212,2.702,2.976
				c0,2.16-1.45,3.096-2.784,3.096H133.376z M133.411,61.312c0.974,0,1.705-0.948,1.705-2.268c0-0.984-0.476-2.22-1.682-2.22
				c-1.194,0-1.716,1.152-1.716,2.256c0,1.272,0.696,2.232,1.682,2.232H133.411z"/>
			<path d="M142.156,60.388c0,0.6,0.012,1.128,0.046,1.584h-0.905l-0.058-0.948h-0.023c-0.255,0.468-0.858,1.08-1.855,1.08
				c-0.882,0-1.937-0.516-1.937-2.544v-3.396h1.021v3.204c0,1.104,0.336,1.86,1.252,1.86c0.685,0,1.16-0.492,1.346-0.972
				c0.058-0.144,0.093-0.336,0.093-0.54v-3.552h1.021V60.388z"/>
			<path d="M143.861,57.976c0-0.684-0.012-1.272-0.046-1.812h0.893l0.046,1.14h0.035c0.255-0.78,0.882-1.272,1.566-1.272
				c0.104,0,0.186,0.012,0.278,0.036v0.984c-0.116-0.012-0.22-0.024-0.359-0.024c-0.719,0-1.229,0.564-1.369,1.344
				c-0.023,0.156-0.035,0.324-0.035,0.504v3.096h-1.021L143.861,57.976z"/>
			<path d="M149.961,60.904c0.313,0.192,0.847,0.408,1.357,0.408c0.73,0,1.079-0.372,1.079-0.864c0-0.504-0.29-0.78-1.032-1.068
				c-1.021-0.384-1.497-0.948-1.497-1.644c0-0.936,0.743-1.704,1.937-1.704c0.568,0,1.067,0.156,1.369,0.36l-0.244,0.756
				c-0.22-0.132-0.626-0.336-1.148-0.336c-0.604,0-0.928,0.36-0.928,0.792c0,0.492,0.325,0.708,1.056,0.996
				c0.963,0.372,1.473,0.876,1.473,1.752c0,1.032-0.777,1.752-2.088,1.752c-0.615,0-1.183-0.168-1.578-0.408L149.961,60.904z"/>
			<path d="M155.274,59.248c0.023,1.428,0.893,2.016,1.914,2.016c0.73,0,1.183-0.132,1.554-0.288l0.186,0.744
				c-0.359,0.168-0.986,0.372-1.879,0.372c-1.717,0-2.761-1.188-2.761-2.928c0-1.764,1.009-3.144,2.645-3.144
				c1.833,0,2.308,1.668,2.308,2.736c0,0.216-0.011,0.384-0.035,0.504L155.274,59.248z M158.254,58.492
				c0.012-0.66-0.267-1.716-1.403-1.716c-1.044,0-1.484,0.984-1.566,1.716H158.254z"/>
			<path d="M160.504,57.736c0-0.612-0.023-1.092-0.046-1.572h0.893l0.046,0.936h0.035c0.313-0.552,0.835-1.068,1.774-1.068
				c0.754,0,1.334,0.48,1.578,1.164h0.023c0.174-0.336,0.406-0.576,0.638-0.756c0.336-0.264,0.696-0.408,1.229-0.408
				c0.754,0,1.856,0.504,1.856,2.52v3.42h-0.998v-3.288c0-1.128-0.406-1.788-1.218-1.788c-0.591,0-1.032,0.444-1.218,0.948
				c-0.046,0.156-0.081,0.348-0.081,0.528v3.6h-0.998v-3.48c0-0.936-0.395-1.596-1.171-1.596c-0.626,0-1.102,0.528-1.264,1.056
				c-0.058,0.156-0.082,0.336-0.082,0.516v3.504h-0.998V57.736z"/>
			<path d="M170.665,55.096c-0.383,0-0.638-0.312-0.638-0.684s0.267-0.672,0.661-0.672c0.395,0,0.65,0.3,0.65,0.672
				s-0.255,0.684-0.661,0.684H170.665z M170.178,61.972v-5.808h1.021v5.808H170.178z"/>
			<path d="M174.121,54.772v1.392h1.461v0.804h-1.461V60.1c0,0.72,0.197,1.128,0.766,1.128c0.278,0,0.441-0.024,0.592-0.072
				l0.046,0.804c-0.197,0.072-0.51,0.144-0.905,0.144c-0.476,0-0.858-0.168-1.102-0.444c-0.278-0.324-0.394-0.84-0.394-1.524v-3.168
				h-0.87v-0.804h0.87v-1.068L174.121,54.772z"/>
			<path d="M178.946,62.104c-1.508,0-2.691-1.152-2.691-2.988c0-1.944,1.241-3.084,2.784-3.084c1.612,0,2.703,1.212,2.703,2.976
				c0,2.16-1.45,3.096-2.784,3.096H178.946z M178.981,61.312c0.975,0,1.705-0.948,1.705-2.268c0-0.984-0.476-2.22-1.682-2.22
				c-1.195,0-1.717,1.152-1.717,2.256c0,1.272,0.696,2.232,1.682,2.232H178.981z"/>
			<path d="M183.029,57.736c0-0.612-0.011-1.092-0.046-1.572h0.905l0.058,0.948h0.023c0.279-0.54,0.928-1.08,1.856-1.08
				c0.777,0,1.983,0.48,1.983,2.472v3.468h-1.021v-3.348c0-0.936-0.336-1.728-1.299-1.728c-0.661,0-1.183,0.492-1.369,1.08
				c-0.046,0.132-0.069,0.324-0.069,0.492v3.504h-1.021V57.736z"/>
			<path d="M190.046,59.248c0.023,1.428,0.893,2.016,1.914,2.016c0.73,0,1.183-0.132,1.554-0.288l0.186,0.744
				c-0.36,0.168-0.986,0.372-1.879,0.372c-1.717,0-2.761-1.188-2.761-2.928c0-1.764,1.009-3.144,2.645-3.144
				c1.833,0,2.308,1.668,2.308,2.736c0,0.216-0.012,0.384-0.035,0.504L190.046,59.248z M193.027,58.492
				c0.012-0.66-0.267-1.716-1.403-1.716c-1.044,0-1.485,0.984-1.566,1.716H193.027z"/>
			<path d="M195.138,60.904c0.313,0.192,0.847,0.408,1.357,0.408c0.731,0,1.079-0.372,1.079-0.864c0-0.504-0.29-0.78-1.032-1.068
				c-1.021-0.384-1.496-0.948-1.496-1.644c0-0.936,0.742-1.704,1.937-1.704c0.568,0,1.067,0.156,1.369,0.36l-0.244,0.756
				c-0.22-0.132-0.626-0.336-1.148-0.336c-0.604,0-0.928,0.36-0.928,0.792c0,0.492,0.325,0.708,1.056,0.996
				c0.962,0.372,1.473,0.876,1.473,1.752c0,1.032-0.777,1.752-2.088,1.752c-0.615,0-1.183-0.168-1.578-0.408L195.138,60.904z"/>
			<path d="M199.255,63.424c0.812-1.188,1.45-2.736,1.45-4.896c0-2.16-0.626-3.684-1.45-4.884h0.789
				c0.731,0.984,1.52,2.532,1.52,4.884c-0.012,2.352-0.789,3.876-1.52,4.896H199.255z"/>
		</g>
		<g>
			<path d="M64.82,83.987c0,0.504,0.023,0.996,0.081,1.392h-0.916l-0.093-0.732h-0.035c-0.302,0.456-0.917,0.864-1.717,0.864
				c-1.137,0-1.717-0.828-1.717-1.668c0-1.404,1.207-2.172,3.375-2.16v-0.12c0-0.48-0.128-1.356-1.276-1.344
				c-0.534,0-1.079,0.156-1.473,0.432l-0.232-0.708c0.464-0.3,1.148-0.504,1.856-0.504c1.728,0,2.146,1.212,2.146,2.376V83.987z
				 M63.822,82.415c-1.113-0.024-2.377,0.18-2.377,1.308c0,0.696,0.44,1.008,0.951,1.008c0.742,0,1.218-0.48,1.38-0.972
				c0.035-0.108,0.046-0.228,0.046-0.336V82.415z"/>
			<path d="M68.914,81.467c0-0.744-0.012-1.344-0.046-1.896h0.916l0.058,0.996h0.023c0.406-0.72,1.079-1.128,1.983-1.128
				c1.369,0,2.389,1.188,2.389,2.952c0,2.088-1.241,3.12-2.552,3.12c-0.754,0-1.392-0.336-1.728-0.912h-0.023v3.156h-1.021V81.467z
				 M69.935,83.015c0,0.144,0.012,0.3,0.046,0.432c0.174,0.732,0.8,1.236,1.52,1.236c1.079,0,1.705-0.912,1.705-2.244
				c0-1.164-0.58-2.16-1.659-2.16c-0.696,0-1.357,0.504-1.554,1.296c-0.023,0.144-0.058,0.3-0.058,0.432V83.015z"/>
			<path d="M76.105,82.655c0.023,1.428,0.893,2.016,1.914,2.016c0.731,0,1.183-0.132,1.554-0.288l0.186,0.744
				c-0.359,0.168-0.986,0.372-1.879,0.372c-1.716,0-2.76-1.188-2.76-2.928c0-1.764,1.009-3.144,2.645-3.144
				c1.833,0,2.308,1.668,2.308,2.736c0,0.216-0.012,0.384-0.035,0.504L76.105,82.655z M79.086,81.899
				c0.011-0.66-0.267-1.716-1.404-1.716c-1.043,0-1.484,0.984-1.565,1.716H79.086z"/>
			<path d="M81.348,81.383c0-0.684-0.012-1.272-0.047-1.812h0.894l0.046,1.14h0.035c0.255-0.78,0.881-1.272,1.566-1.272
				c0.104,0,0.186,0.012,0.278,0.036v0.984c-0.116-0.012-0.221-0.024-0.36-0.024c-0.719,0-1.229,0.564-1.369,1.344
				c-0.023,0.156-0.035,0.324-0.035,0.504v3.096h-1.021L81.348,81.383z"/>
			<path d="M85.569,85.379v-5.004h-0.777v-0.804h0.777v-0.276c0-0.816,0.186-1.56,0.661-2.028c0.383-0.384,0.893-0.54,1.357-0.54
				c0.371,0,0.673,0.084,0.87,0.168l-0.128,0.816c-0.162-0.072-0.359-0.132-0.661-0.132c-0.858,0-1.09,0.792-1.09,1.68v0.312h1.357
				v0.804H86.59v5.004H85.569z"/>
			<path d="M89.304,82.655c0.023,1.428,0.893,2.016,1.914,2.016c0.73,0,1.183-0.132,1.554-0.288l0.186,0.744
				c-0.359,0.168-0.986,0.372-1.879,0.372c-1.717,0-2.761-1.188-2.761-2.928c0-1.764,1.009-3.144,2.645-3.144
				c1.833,0,2.308,1.668,2.308,2.736c0,0.216-0.011,0.384-0.035,0.504L89.304,82.655z M92.285,81.899
				c0.012-0.66-0.267-1.716-1.403-1.716c-1.044,0-1.484,0.984-1.566,1.716H92.285z"/>
			<path d="M98.537,85.175c-0.267,0.132-0.858,0.336-1.612,0.336c-1.693,0-2.795-1.188-2.795-2.976c0-1.788,1.183-3.096,3.016-3.096
				c0.603,0,1.137,0.156,1.415,0.312l-0.232,0.804c-0.244-0.132-0.626-0.276-1.183-0.276c-1.288,0-1.983,0.996-1.983,2.208
				c0,1.344,0.835,2.172,1.949,2.172c0.58,0,0.962-0.144,1.252-0.276L98.537,85.175z"/>
			<path d="M101.111,78.179v1.392h1.461v0.804h-1.461v3.132c0,0.72,0.197,1.128,0.765,1.128c0.278,0,0.441-0.024,0.592-0.072
				l0.046,0.804c-0.197,0.072-0.51,0.144-0.905,0.144c-0.476,0-0.858-0.168-1.102-0.444c-0.278-0.324-0.394-0.84-0.394-1.524v-3.168
				h-0.87v-0.804h0.87v-1.068L101.111,78.179z"/>
			<path d="M106.272,85.379v-5.004h-0.777v-0.804h0.777v-0.276c0-0.816,0.186-1.56,0.661-2.028c0.383-0.384,0.893-0.54,1.357-0.54
				c0.371,0,0.673,0.084,0.87,0.168l-0.127,0.816c-0.162-0.072-0.359-0.132-0.661-0.132c-0.858,0-1.09,0.792-1.09,1.68v0.312h1.357
				v0.804h-1.346v5.004H106.272z"/>
			<path d="M110.053,78.503c-0.383,0-0.638-0.312-0.638-0.684s0.267-0.672,0.661-0.672c0.394,0,0.649,0.3,0.649,0.672
				s-0.255,0.684-0.661,0.684H110.053z M109.566,85.379v-5.808h1.021v5.808H109.566z"/>
			<path d="M112.373,85.379v-5.004h-0.777v-0.804h0.777v-0.276c0-0.816,0.186-1.56,0.661-2.028c0.383-0.384,0.893-0.54,1.357-0.54
				c0.371,0,0.673,0.084,0.87,0.168l-0.128,0.816c-0.162-0.072-0.359-0.132-0.661-0.132c-0.858,0-1.09,0.792-1.09,1.68v0.312h1.357
				v0.804h-1.346v5.004H112.373z"/>
			<path d="M117.024,78.179v1.392h1.461v0.804h-1.461v3.132c0,0.72,0.197,1.128,0.766,1.128c0.278,0,0.44-0.024,0.591-0.072
				l0.046,0.804c-0.197,0.072-0.51,0.144-0.905,0.144c-0.476,0-0.858-0.168-1.102-0.444c-0.278-0.324-0.395-0.84-0.395-1.524v-3.168
				h-0.87v-0.804h0.87v-1.068L117.024,78.179z"/>
			<path d="M119.633,76.859h1.021v3.624h0.023c0.163-0.3,0.417-0.576,0.731-0.744c0.301-0.192,0.661-0.3,1.044-0.3
				c0.754,0,1.96,0.48,1.96,2.484v3.456h-1.021v-3.336c0-0.948-0.336-1.728-1.299-1.728c-0.661,0-1.171,0.48-1.369,1.056
				c-0.058,0.144-0.069,0.3-0.069,0.504v3.504h-1.021V76.859z"/>
			<path d="M130.733,77.051c-0.847,1.188-1.45,2.736-1.45,4.92c0,2.136,0.638,3.66,1.45,4.86h-0.789
				c-0.73-0.996-1.52-2.532-1.52-4.872c0.012-2.352,0.789-3.9,1.52-4.908H130.733z"/>
			<path d="M131.684,84.311c0.313,0.192,0.847,0.408,1.357,0.408c0.731,0,1.079-0.372,1.079-0.864c0-0.504-0.29-0.78-1.033-1.068
				c-1.021-0.384-1.496-0.948-1.496-1.644c0-0.936,0.742-1.704,1.937-1.704c0.568,0,1.067,0.156,1.369,0.36l-0.244,0.756
				c-0.22-0.132-0.626-0.336-1.148-0.336c-0.604,0-0.928,0.36-0.928,0.792c0,0.492,0.325,0.708,1.056,0.996
				c0.963,0.372,1.473,0.876,1.473,1.752c0,1.032-0.777,1.752-2.088,1.752c-0.615,0-1.183-0.168-1.578-0.408L131.684,84.311z"/>
			<path d="M136.996,82.655c0.023,1.428,0.894,2.016,1.914,2.016c0.73,0,1.183-0.132,1.554-0.288l0.186,0.744
				c-0.359,0.168-0.986,0.372-1.879,0.372c-1.717,0-2.761-1.188-2.761-2.928c0-1.764,1.009-3.144,2.645-3.144
				c1.833,0,2.308,1.668,2.308,2.736c0,0.216-0.011,0.384-0.035,0.504L136.996,82.655z M139.977,81.899
				c0.012-0.66-0.267-1.716-1.403-1.716c-1.044,0-1.484,0.984-1.566,1.716H139.977z"/>
			<path d="M142.599,79.571l1.102,3.252c0.186,0.54,0.336,1.02,0.453,1.5h0.035c0.127-0.48,0.29-0.96,0.476-1.5l1.09-3.252h1.067
				l-2.204,5.808h-0.975l-2.134-5.808H142.599z"/>
			<path d="M148.235,82.655c0.023,1.428,0.893,2.016,1.914,2.016c0.731,0,1.183-0.132,1.554-0.288l0.186,0.744
				c-0.359,0.168-0.986,0.372-1.879,0.372c-1.716,0-2.76-1.188-2.76-2.928c0-1.764,1.009-3.144,2.645-3.144
				c1.833,0,2.308,1.668,2.308,2.736c0,0.216-0.012,0.384-0.035,0.504L148.235,82.655z M151.216,81.899
				c0.011-0.66-0.267-1.716-1.403-1.716c-1.044,0-1.485,0.984-1.566,1.716H151.216z"/>
			<path d="M153.466,81.143c0-0.612-0.012-1.092-0.046-1.572h0.905l0.058,0.948h0.023c0.278-0.54,0.928-1.08,1.856-1.08
				c0.777,0,1.983,0.48,1.983,2.472v3.468h-1.021v-3.348c0-0.936-0.336-1.728-1.299-1.728c-0.661,0-1.183,0.492-1.369,1.08
				c-0.046,0.132-0.07,0.324-0.07,0.492v3.504h-1.021V81.143z"/>
			<path d="M162.223,84.311c0.313,0.192,0.847,0.408,1.357,0.408c0.73,0,1.079-0.372,1.079-0.864c0-0.504-0.29-0.78-1.032-1.068
				c-1.021-0.384-1.496-0.948-1.496-1.644c0-0.936,0.742-1.704,1.937-1.704c0.568,0,1.067,0.156,1.369,0.36l-0.244,0.756
				c-0.221-0.132-0.626-0.336-1.148-0.336c-0.603,0-0.928,0.36-0.928,0.792c0,0.492,0.325,0.708,1.055,0.996
				c0.963,0.372,1.473,0.876,1.473,1.752c0,1.032-0.777,1.752-2.088,1.752c-0.615,0-1.183-0.168-1.577-0.408L162.223,84.311z"/>
			<path d="M167.535,82.655c0.023,1.428,0.893,2.016,1.914,2.016c0.731,0,1.183-0.132,1.554-0.288l0.186,0.744
				c-0.359,0.168-0.986,0.372-1.879,0.372c-1.716,0-2.76-1.188-2.76-2.928c0-1.764,1.009-3.144,2.645-3.144
				c1.833,0,2.308,1.668,2.308,2.736c0,0.216-0.012,0.384-0.035,0.504L167.535,82.655z M170.516,81.899
				c0.011-0.66-0.267-1.716-1.404-1.716c-1.043,0-1.484,0.984-1.565,1.716H170.516z"/>
			<path d="M172.766,81.143c0-0.612-0.023-1.092-0.046-1.572h0.893l0.046,0.936h0.035c0.313-0.552,0.835-1.068,1.775-1.068
				c0.754,0,1.333,0.48,1.577,1.164h0.023c0.174-0.336,0.406-0.576,0.638-0.756c0.336-0.264,0.696-0.408,1.229-0.408
				c0.754,0,1.856,0.504,1.856,2.52v3.42h-0.998v-3.288c0-1.128-0.406-1.788-1.218-1.788c-0.592,0-1.033,0.444-1.218,0.948
				c-0.046,0.156-0.081,0.348-0.081,0.528v3.6h-0.998v-3.48c0-0.936-0.394-1.596-1.171-1.596c-0.626,0-1.102,0.528-1.264,1.056
				c-0.058,0.156-0.081,0.336-0.081,0.516v3.504h-0.998V81.143z"/>
			<path d="M182.926,78.503c-0.383,0-0.638-0.312-0.638-0.684s0.267-0.672,0.661-0.672c0.394,0,0.649,0.3,0.649,0.672
				s-0.255,0.684-0.661,0.684H182.926z M182.439,85.379v-5.808h1.021v5.808H182.439z"/>
			<path d="M186.383,78.179v1.392h1.461v0.804h-1.461v3.132c0,0.72,0.197,1.128,0.766,1.128c0.278,0,0.44-0.024,0.591-0.072
				l0.046,0.804c-0.197,0.072-0.51,0.144-0.905,0.144c-0.476,0-0.858-0.168-1.102-0.444c-0.278-0.324-0.395-0.84-0.395-1.524v-3.168
				h-0.87v-0.804h0.87v-1.068L186.383,78.179z"/>
			<path d="M191.208,85.511c-1.508,0-2.69-1.152-2.69-2.988c0-1.944,1.241-3.084,2.784-3.084c1.612,0,2.702,1.212,2.702,2.976
				c0,2.16-1.45,3.096-2.784,3.096H191.208z M191.243,84.719c0.974,0,1.705-0.948,1.705-2.268c0-0.984-0.476-2.22-1.682-2.22
				c-1.194,0-1.716,1.152-1.716,2.256c0,1.272,0.696,2.232,1.682,2.232H191.243z"/>
			<path d="M195.291,81.143c0-0.612-0.012-1.092-0.046-1.572h0.905l0.058,0.948h0.023c0.278-0.54,0.928-1.08,1.856-1.08
				c0.777,0,1.983,0.48,1.983,2.472v3.468h-1.021v-3.348c0-0.936-0.336-1.728-1.299-1.728c-0.661,0-1.183,0.492-1.369,1.08
				c-0.046,0.132-0.07,0.324-0.07,0.492v3.504h-1.021V81.143z"/>
			<path d="M202.308,82.655c0.023,1.428,0.893,2.016,1.914,2.016c0.731,0,1.183-0.132,1.554-0.288l0.186,0.744
				c-0.359,0.168-0.986,0.372-1.879,0.372c-1.716,0-2.76-1.188-2.76-2.928c0-1.764,1.009-3.144,2.645-3.144
				c1.833,0,2.308,1.668,2.308,2.736c0,0.216-0.012,0.384-0.035,0.504L202.308,82.655z M205.289,81.899
				c0.011-0.66-0.267-1.716-1.404-1.716c-1.044,0-1.484,0.984-1.565,1.716H205.289z"/>
			<path d="M207.399,84.311c0.313,0.192,0.847,0.408,1.357,0.408c0.73,0,1.079-0.372,1.079-0.864c0-0.504-0.29-0.78-1.032-1.068
				c-1.021-0.384-1.496-0.948-1.496-1.644c0-0.936,0.742-1.704,1.937-1.704c0.568,0,1.067,0.156,1.369,0.36l-0.243,0.756
				c-0.221-0.132-0.626-0.336-1.148-0.336c-0.603,0-0.928,0.36-0.928,0.792c0,0.492,0.325,0.708,1.055,0.996
				c0.963,0.372,1.473,0.876,1.473,1.752c0,1.032-0.777,1.752-2.088,1.752c-0.615,0-1.183-0.168-1.577-0.408L207.399,84.311z"/>
			<path d="M211.517,86.831c0.812-1.188,1.45-2.736,1.45-4.896c0-2.16-0.626-3.684-1.45-4.884h0.789
				c0.73,0.984,1.519,2.532,1.519,4.884c-0.011,2.352-0.789,3.876-1.519,4.896H211.517z"/>
		</g>
		<g>
			<path d="M95.267,105.493c0,0.504,0.023,0.996,0.081,1.392h-0.916l-0.093-0.732h-0.035c-0.302,0.456-0.917,0.864-1.717,0.864
				c-1.137,0-1.717-0.828-1.717-1.668c0-1.404,1.207-2.172,3.375-2.16v-0.12c0-0.48-0.128-1.356-1.276-1.344
				c-0.534,0-1.079,0.156-1.473,0.432l-0.232-0.708c0.464-0.3,1.148-0.504,1.856-0.504c1.728,0,2.146,1.212,2.146,2.376V105.493z
				 M94.269,103.921c-1.113-0.024-2.377,0.18-2.377,1.308c0,0.696,0.44,1.008,0.951,1.008c0.742,0,1.218-0.48,1.38-0.972
				c0.035-0.108,0.046-0.228,0.046-0.336V103.921z"/>
			<path d="M96.902,102.649c0-0.612-0.011-1.092-0.046-1.572h0.905l0.058,0.948h0.023c0.278-0.54,0.928-1.08,1.856-1.08
				c0.777,0,1.983,0.48,1.983,2.472v3.468h-1.021v-3.348c0-0.936-0.336-1.728-1.299-1.728c-0.661,0-1.183,0.492-1.369,1.08
				c-0.046,0.132-0.069,0.324-0.069,0.492v3.504h-1.021V102.649z"/>
			<path d="M108.083,107.017c-1.508,0-2.691-1.152-2.691-2.988c0-1.944,1.241-3.084,2.784-3.084c1.612,0,2.702,1.212,2.702,2.976
				c0,2.16-1.45,3.096-2.783,3.096H108.083z M108.118,106.225c0.974,0,1.705-0.948,1.705-2.268c0-0.984-0.476-2.22-1.682-2.22
				c-1.195,0-1.717,1.152-1.717,2.256c0,1.272,0.696,2.232,1.682,2.232H108.118z"/>
			<path d="M116.179,106.681c-0.267,0.132-0.858,0.336-1.612,0.336c-1.693,0-2.795-1.188-2.795-2.976
				c0-1.788,1.183-3.096,3.016-3.096c0.603,0,1.137,0.156,1.415,0.312l-0.232,0.804c-0.244-0.132-0.626-0.276-1.183-0.276
				c-1.287,0-1.983,0.996-1.983,2.208c0,1.344,0.835,2.172,1.949,2.172c0.58,0,0.963-0.144,1.252-0.276L116.179,106.681z"/>
			<path d="M118.753,99.685v1.392h1.461v0.804h-1.461v3.132c0,0.72,0.197,1.128,0.765,1.128c0.279,0,0.441-0.024,0.592-0.072
				l0.046,0.804c-0.197,0.072-0.51,0.144-0.905,0.144c-0.476,0-0.858-0.168-1.102-0.444c-0.279-0.324-0.395-0.84-0.395-1.524v-3.168
				h-0.87v-0.804h0.87v-1.068L118.753,99.685z"/>
			<path d="M125.318,105.493c0,0.504,0.023,0.996,0.082,1.392h-0.917l-0.093-0.732h-0.035c-0.302,0.456-0.917,0.864-1.717,0.864
				c-1.137,0-1.716-0.828-1.716-1.668c0-1.404,1.206-2.172,3.375-2.16v-0.12c0-0.48-0.127-1.356-1.276-1.344
				c-0.534,0-1.079,0.156-1.473,0.432l-0.232-0.708c0.464-0.3,1.148-0.504,1.856-0.504c1.728,0,2.146,1.212,2.146,2.376V105.493z
				 M124.321,103.921c-1.114-0.024-2.378,0.18-2.378,1.308c0,0.696,0.441,1.008,0.951,1.008c0.742,0,1.218-0.48,1.38-0.972
				c0.035-0.108,0.046-0.228,0.046-0.336V103.921z"/>
			<path d="M127.197,101.077l1.102,3.252c0.186,0.54,0.336,1.02,0.453,1.5h0.035c0.127-0.48,0.29-0.96,0.476-1.5l1.09-3.252h1.067
				l-2.204,5.808h-0.974l-2.134-5.808H127.197z"/>
			<path d="M132.834,104.161c0.023,1.428,0.893,2.016,1.914,2.016c0.73,0,1.183-0.132,1.554-0.288l0.186,0.744
				c-0.36,0.168-0.986,0.372-1.879,0.372c-1.717,0-2.761-1.188-2.761-2.928c0-1.764,1.009-3.144,2.645-3.144
				c1.833,0,2.308,1.668,2.308,2.736c0,0.216-0.012,0.384-0.035,0.504L132.834,104.161z M135.815,103.405
				c0.012-0.66-0.267-1.716-1.403-1.716c-1.044,0-1.485,0.984-1.566,1.716H135.815z"/>
			<path d="M142.728,98.557c-0.847,1.188-1.45,2.736-1.45,4.92c0,2.136,0.638,3.66,1.45,4.86h-0.789
				c-0.731-0.996-1.52-2.532-1.52-4.872c0.012-2.352,0.789-3.9,1.52-4.908H142.728z"/>
			<path d="M145.047,99.685v1.392h1.461v0.804h-1.461v3.132c0,0.72,0.197,1.128,0.765,1.128c0.279,0,0.441-0.024,0.592-0.072
				l0.046,0.804c-0.197,0.072-0.51,0.144-0.905,0.144c-0.476,0-0.858-0.168-1.102-0.444c-0.278-0.324-0.394-0.84-0.394-1.524v-3.168
				h-0.87v-0.804h0.87v-1.068L145.047,99.685z"/>
			<path d="M148.109,101.077l0.754,2.94c0.15,0.648,0.301,1.26,0.406,1.86h0.035c0.127-0.588,0.313-1.212,0.499-1.848l0.916-2.952
				h0.858l0.87,2.904c0.208,0.684,0.371,1.308,0.499,1.896h0.035c0.093-0.588,0.244-1.2,0.429-1.884l0.8-2.916h1.009l-1.81,5.808
				h-0.928l-0.858-2.772c-0.197-0.66-0.359-1.236-0.499-1.92h-0.023c-0.139,0.696-0.313,1.308-0.51,1.932l-0.905,2.76h-0.928
				l-1.693-5.808H148.109z"/>
			<path d="M156.715,104.161c0.023,1.428,0.893,2.016,1.914,2.016c0.73,0,1.183-0.132,1.554-0.288l0.186,0.744
				c-0.36,0.168-0.986,0.372-1.879,0.372c-1.716,0-2.76-1.188-2.76-2.928c0-1.764,1.009-3.144,2.645-3.144
				c1.833,0,2.308,1.668,2.308,2.736c0,0.216-0.012,0.384-0.035,0.504L156.715,104.161z M159.696,103.405
				c0.012-0.66-0.267-1.716-1.403-1.716c-1.044,0-1.485,0.984-1.566,1.716H159.696z"/>
			<path d="M161.946,98.365h1.021v8.52h-1.021V98.365z"/>
			<path d="M165.055,101.077l1.102,3.252c0.186,0.54,0.336,1.02,0.452,1.5h0.035c0.127-0.48,0.29-0.96,0.476-1.5l1.09-3.252h1.067
				l-2.204,5.808h-0.974l-2.134-5.808H165.055z"/>
			<path d="M170.691,104.161c0.023,1.428,0.893,2.016,1.914,2.016c0.73,0,1.183-0.132,1.554-0.288l0.186,0.744
				c-0.36,0.168-0.986,0.372-1.879,0.372c-1.717,0-2.761-1.188-2.761-2.928c0-1.764,1.009-3.144,2.645-3.144
				c1.833,0,2.308,1.668,2.308,2.736c0,0.216-0.012,0.384-0.035,0.504L170.691,104.161z M173.672,103.405
				c0.012-0.66-0.267-1.716-1.403-1.716c-1.044,0-1.485,0.984-1.566,1.716H173.672z"/>
			<path d="M178.242,105.817c0.313,0.192,0.847,0.408,1.357,0.408c0.731,0,1.079-0.372,1.079-0.864c0-0.504-0.29-0.78-1.032-1.068
				c-1.021-0.384-1.496-0.948-1.496-1.644c0-0.936,0.742-1.704,1.937-1.704c0.568,0,1.067,0.156,1.369,0.36l-0.244,0.756
				c-0.22-0.132-0.626-0.336-1.148-0.336c-0.603,0-0.928,0.36-0.928,0.792c0,0.492,0.325,0.708,1.055,0.996
				c0.963,0.372,1.473,0.876,1.473,1.752c0,1.032-0.777,1.752-2.087,1.752c-0.615,0-1.183-0.168-1.578-0.408L178.242,105.817z"/>
			<path d="M183.554,104.161c0.023,1.428,0.893,2.016,1.914,2.016c0.731,0,1.183-0.132,1.554-0.288l0.186,0.744
				c-0.36,0.168-0.986,0.372-1.879,0.372c-1.716,0-2.76-1.188-2.76-2.928c0-1.764,1.009-3.144,2.645-3.144
				c1.833,0,2.308,1.668,2.308,2.736c0,0.216-0.012,0.384-0.035,0.504L183.554,104.161z M186.535,103.405
				c0.012-0.66-0.267-1.716-1.403-1.716c-1.044,0-1.485,0.984-1.566,1.716H186.535z"/>
			<path d="M188.785,102.649c0-0.612-0.023-1.092-0.046-1.572h0.893l0.046,0.936h0.035c0.313-0.552,0.835-1.068,1.775-1.068
				c0.754,0,1.333,0.48,1.577,1.164h0.023c0.174-0.336,0.406-0.576,0.638-0.756c0.336-0.264,0.696-0.408,1.229-0.408
				c0.754,0,1.856,0.504,1.856,2.52v3.42h-0.998v-3.288c0-1.128-0.406-1.788-1.218-1.788c-0.592,0-1.032,0.444-1.218,0.948
				c-0.046,0.156-0.081,0.348-0.081,0.528v3.6h-0.998v-3.48c0-0.936-0.394-1.596-1.171-1.596c-0.626,0-1.102,0.528-1.264,1.056
				c-0.058,0.156-0.081,0.336-0.081,0.516v3.504h-0.998V102.649z"/>
			<path d="M198.945,100.009c-0.382,0-0.638-0.312-0.638-0.684s0.267-0.672,0.661-0.672s0.649,0.3,0.649,0.672
				s-0.255,0.684-0.661,0.684H198.945z M198.458,106.885v-5.808h1.021v5.808H198.458z"/>
			<path d="M202.402,99.685v1.392h1.461v0.804h-1.461v3.132c0,0.72,0.197,1.128,0.766,1.128c0.278,0,0.44-0.024,0.591-0.072
				l0.046,0.804c-0.197,0.072-0.51,0.144-0.905,0.144c-0.476,0-0.858-0.168-1.102-0.444c-0.278-0.324-0.395-0.84-0.395-1.524v-3.168
				h-0.87v-0.804h0.87v-1.068L202.402,99.685z"/>
			<path d="M207.227,107.017c-1.508,0-2.691-1.152-2.691-2.988c0-1.944,1.241-3.084,2.784-3.084c1.612,0,2.702,1.212,2.702,2.976
				c0,2.16-1.45,3.096-2.784,3.096H207.227z M207.262,106.225c0.974,0,1.705-0.948,1.705-2.268c0-0.984-0.476-2.22-1.682-2.22
				c-1.194,0-1.716,1.152-1.716,2.256c0,1.272,0.696,2.232,1.682,2.232H207.262z"/>
			<path d="M211.31,102.649c0-0.612-0.012-1.092-0.046-1.572h0.905l0.058,0.948h0.023c0.278-0.54,0.928-1.08,1.856-1.08
				c0.777,0,1.983,0.48,1.983,2.472v3.468h-1.021v-3.348c0-0.936-0.336-1.728-1.299-1.728c-0.661,0-1.183,0.492-1.369,1.08
				c-0.046,0.132-0.07,0.324-0.07,0.492v3.504h-1.021V102.649z"/>
			<path d="M218.327,104.161c0.023,1.428,0.893,2.016,1.914,2.016c0.731,0,1.183-0.132,1.554-0.288l0.186,0.744
				c-0.359,0.168-0.986,0.372-1.879,0.372c-1.716,0-2.76-1.188-2.76-2.928c0-1.764,1.009-3.144,2.645-3.144
				c1.833,0,2.308,1.668,2.308,2.736c0,0.216-0.012,0.384-0.035,0.504L218.327,104.161z M221.308,103.405
				c0.011-0.66-0.267-1.716-1.404-1.716c-1.043,0-1.484,0.984-1.565,1.716H221.308z"/>
			<path d="M223.418,105.817c0.313,0.192,0.847,0.408,1.357,0.408c0.73,0,1.079-0.372,1.079-0.864c0-0.504-0.29-0.78-1.032-1.068
				c-1.021-0.384-1.496-0.948-1.496-1.644c0-0.936,0.742-1.704,1.937-1.704c0.568,0,1.067,0.156,1.369,0.36l-0.244,0.756
				c-0.221-0.132-0.626-0.336-1.148-0.336c-0.603,0-0.928,0.36-0.928,0.792c0,0.492,0.325,0.708,1.055,0.996
				c0.963,0.372,1.473,0.876,1.473,1.752c0,1.032-0.777,1.752-2.088,1.752c-0.615,0-1.183-0.168-1.577-0.408L223.418,105.817z"/>
			<path d="M227.536,108.337c0.812-1.188,1.45-2.736,1.45-4.896c0-2.16-0.626-3.684-1.45-4.884h0.789
				c0.73,0.984,1.519,2.532,1.519,4.884c-0.011,2.352-0.789,3.876-1.519,4.896H227.536z"/>
		</g>
		<g>
			<path d="M44.581,32.58v-0.72h7.353v0.72H44.581z M44.581,34.932v-0.72h7.353v0.72H44.581z"/>
		</g>
		<g>
			<path d="M45.361,58.197v-0.72h7.353v0.72H45.361z M45.361,60.549v-0.72h7.353v0.72H45.361z"/>
		</g>
		<g>
			<path d="M45.361,79.931v-0.72h7.353v0.72H45.361z M45.361,82.283v-0.72h7.353v0.72H45.361z"/>
		</g>
		<g>
			<path d="M47.7,102.442v-0.72h7.353v0.72H47.7z M47.7,104.794v-0.72h7.353v0.72H47.7z"/>
		</g>
		<g>
			<path d="M40.512,52.658v-1.346h-2.219v-0.433l2.13-3.162h0.698v3.079h0.668v0.517h-0.668v1.346H40.512z M40.512,50.795v-1.657
				c0-0.259,0.007-0.517,0.022-0.775h-0.022c-0.147,0.289-0.265,0.501-0.397,0.737l-1.168,1.68v0.015H40.512z"/>
		</g>
		<g>
			<path d="M41.614,70.228v0.441l-2.079,4.5h-0.662l2.065-4.371v-0.015h-2.336v-0.555H41.614z"/>
		</g>
		<g>
			<path d="M41.476,92.586h-0.015l-0.83,0.464l-0.125-0.509l1.043-0.578h0.551v4.941h-0.625V92.586z"/>
			<path d="M43.842,96.904v-0.411l0.507-0.509c1.219-1.201,1.778-1.839,1.778-2.584c0-0.502-0.228-0.965-0.94-0.965
				c-0.434,0-0.793,0.228-1.014,0.418l-0.206-0.471c0.323-0.281,0.801-0.502,1.352-0.502c1.021,0,1.455,0.73,1.455,1.437
				c0,0.912-0.639,1.649-1.646,2.653l-0.375,0.365v0.016h2.138v0.555H43.842z"/>
		</g>
		<g>
			<path d="M61.724,107.691v-0.648l0.8-0.804c1.925-1.896,2.807-2.904,2.807-4.08c0-0.792-0.359-1.524-1.484-1.524
				c-0.685,0-1.253,0.36-1.601,0.66l-0.325-0.744c0.51-0.444,1.264-0.792,2.134-0.792c1.612,0,2.297,1.152,2.297,2.268
				c0,1.44-1.009,2.604-2.598,4.188l-0.592,0.576v0.024h3.375v0.876H61.724z"/>
		</g>
		<g>
			<path d="M74.7,102.442v-0.72h7.353v0.72H74.7z M74.7,104.794v-0.72h7.353v0.72H74.7z"/>
		</g>
	</g>
</svg>
