<?xml version="1.0" encoding="utf-8"?>
<!-- Generator: Adobe Illustrator 10.0, SVG Export Plug-In . SVG Version: 3.0.0 Build 76)  -->
<!DOCTYPE svg PUBLIC "-//W3C//DTD SVG 1.0//EN"    "http://www.w3.org/TR/2001/REC-SVG-20010904/DTD/svg10.dtd" [
	<!ENTITY ns_flows "http://ns.adobe.com/Flows/1.0/">
	<!ENTITY ns_extend "http://ns.adobe.com/Extensibility/1.0/">
	<!ENTITY ns_ai "http://ns.adobe.com/AdobeIllustrator/10.0/">
	<!ENTITY ns_svg "http://www.w3.org/2000/svg">
	<!ENTITY ns_xlink "http://www.w3.org/1999/xlink">
]>
<svg  xmlns:x="&ns_extend;" xmlns:i="&ns_ai;" xmlns:graph="&ns_graphs;"
	 xmlns="&ns_svg;" xmlns:xlink="&ns_xlink;" xmlns:a="http://ns.adobe.com/AdobeSVGViewerExtensions/3.0/" width="339" height="440"
	 viewBox="0.1 0.353 339 440" overflow="visible" enable-background="new 0.1 0.353 339 440" xml:space="preserve">
	<g id="Layer_1_2_">
		<g>
			<path fill="#FF0000" d="M96.882,175.154h-2.46v-0.888h5.988v0.888h-2.472v7.2h-1.056V175.154z"/>
			<path fill="#FF0000" d="M102.87,182.486c-1.56,0-2.784-1.152-2.784-2.988c0-1.944,1.284-3.084,2.88-3.084
				c1.668,0,2.796,1.212,2.796,2.976c0,2.16-1.5,3.096-2.88,3.096H102.87z M102.906,181.694c1.008,0,1.764-0.948,1.764-2.268
				c0-0.984-0.492-2.22-1.74-2.22c-1.236,0-1.776,1.152-1.776,2.256c0,1.272,0.72,2.232,1.74,2.232H102.906z"/>
			<path fill="#FF0000" d="M107.094,178.119c0-0.612-0.012-1.092-0.048-1.572h0.936l0.06,0.948h0.024
				c0.288-0.54,0.96-1.08,1.92-1.08c0.804,0,2.052,0.48,2.052,2.472v3.468h-1.056v-3.348c0-0.936-0.348-1.728-1.344-1.728
				c-0.684,0-1.224,0.492-1.416,1.08c-0.048,0.132-0.072,0.324-0.072,0.492v3.504h-1.056V178.119z"/>
			<path fill="#FF0000" d="M114.257,175.479c-0.396,0-0.66-0.312-0.66-0.684s0.276-0.672,0.684-0.672c0.408,0,0.672,0.3,0.672,0.672
				s-0.264,0.684-0.684,0.684H114.257z M113.753,182.354v-5.808h1.056v5.808H113.753z"/>
			<path fill="#FF0000" d="M120.701,182.15c-0.276,0.132-0.888,0.336-1.668,0.336c-1.752,0-2.892-1.188-2.892-2.976
				c0-1.788,1.224-3.096,3.12-3.096c0.624,0,1.176,0.156,1.464,0.312l-0.24,0.804c-0.252-0.132-0.648-0.276-1.224-0.276
				c-1.332,0-2.052,0.996-2.052,2.208c0,1.344,0.864,2.172,2.016,2.172c0.6,0,0.996-0.144,1.296-0.276L120.701,182.15z"/>
			<path fill="#FF0000" d="M97.59,188.526c-0.876,1.188-1.5,2.736-1.5,4.92c0,2.136,0.66,3.66,1.5,4.86h-0.816
				c-0.756-0.996-1.572-2.532-1.572-4.872c0.012-2.352,0.816-3.9,1.572-4.908H97.59z"/>
			<path fill="#FF0000" d="M99.485,188.55l-0.192,2.88h-0.648l-0.192-2.88H99.485z M101.273,188.55l-0.192,2.88h-0.648l-0.192-2.88
				H101.273z"/>
			<path fill="#FF0000" d="M102.786,188.875c0.648-0.096,1.404-0.168,2.232-0.168c1.5,0,2.568,0.336,3.276,0.996
				c0.732,0.66,1.152,1.608,1.152,2.916c0,1.32-0.42,2.4-1.164,3.144c-0.768,0.756-2.016,1.164-3.588,1.164
				c-0.756,0-1.368-0.024-1.908-0.096V188.875z M103.841,196.039c0.264,0.048,0.648,0.048,1.056,0.048
				c2.232,0.012,3.444-1.248,3.444-3.432c0.012-1.932-1.068-3.12-3.276-3.12c-0.54,0-0.948,0.048-1.224,0.108V196.039z"/>
			<path fill="#FF0000" d="M113.189,196.986c-1.56,0-2.784-1.152-2.784-2.988c0-1.944,1.284-3.084,2.88-3.084
				c1.668,0,2.796,1.212,2.796,2.976c0,2.16-1.5,3.096-2.88,3.096H113.189z M113.225,196.194c1.008,0,1.764-0.948,1.764-2.268
				c0-0.984-0.492-2.22-1.74-2.22c-1.236,0-1.776,1.152-1.776,2.256c0,1.272,0.72,2.232,1.74,2.232H113.225z"/>
			<path fill="#FF0000" d="M118.181,188.55l-0.192,2.88h-0.648l-0.192-2.88H118.181z M119.969,188.55l-0.192,2.88h-0.648
				l-0.192-2.88H119.969z"/>
			<path fill="#FF0000" d="M120.821,198.307c0.84-1.188,1.5-2.736,1.5-4.896c0-2.16-0.648-3.684-1.5-4.884h0.816
				c0.756,0.984,1.572,2.532,1.572,4.884c-0.012,2.352-0.816,3.876-1.572,4.896H120.821z"/>
		</g>
		<g>
			<path fill="#7FC31C" d="M150.88,180.749c0.468,0.3,1.14,0.528,1.86,0.528c1.068,0,1.692-0.552,1.692-1.38
				c0-0.744-0.432-1.188-1.524-1.596c-1.32-0.48-2.136-1.176-2.136-2.304c0-1.26,1.044-2.196,2.616-2.196
				c0.816,0,1.428,0.192,1.776,0.396l-0.288,0.852c-0.252-0.156-0.792-0.384-1.524-0.384c-1.104,0-1.524,0.66-1.524,1.212
				c0,0.756,0.492,1.128,1.608,1.56c1.368,0.54,2.052,1.188,2.052,2.376c0,1.248-0.912,2.34-2.82,2.34
				c-0.78,0-1.632-0.24-2.064-0.528L150.88,180.749z"/>
			<path fill="#7FC31C" d="M161.752,180.437c0,0.6,0.012,1.128,0.048,1.584h-0.936l-0.06-0.948h-0.024
				c-0.264,0.468-0.888,1.08-1.92,1.08c-0.912,0-2.004-0.516-2.004-2.544v-3.396h1.056v3.204c0,1.104,0.348,1.86,1.296,1.86
				c0.708,0,1.2-0.492,1.392-0.972c0.06-0.144,0.096-0.336,0.096-0.54v-3.552h1.056V180.437z"/>
			<path fill="#7FC31C" d="M163.504,173.5h1.056v3.636h0.024c0.372-0.648,1.044-1.056,1.98-1.056c1.44,0,2.448,1.2,2.448,2.952
				c0,2.088-1.32,3.12-2.616,3.12c-0.84,0-1.5-0.324-1.944-1.092h-0.024l-0.06,0.96h-0.912c0.036-0.396,0.048-0.984,0.048-1.5V173.5
				z M164.561,179.692c0,0.132,0.012,0.264,0.036,0.384c0.204,0.732,0.828,1.236,1.584,1.236c1.116,0,1.764-0.9,1.764-2.232
				c0-1.176-0.6-2.172-1.728-2.172c-0.72,0-1.392,0.504-1.596,1.296c-0.036,0.132-0.06,0.276-0.06,0.444V179.692z"/>
			<path fill="#7FC31C" d="M175.36,173.5v7.02c0,0.516,0.012,1.104,0.048,1.5h-0.948l-0.048-1.008h-0.024
				c-0.324,0.648-1.02,1.14-1.968,1.14c-1.404,0-2.496-1.188-2.496-2.952c-0.012-1.944,1.2-3.12,2.604-3.12
				c0.9,0,1.5,0.42,1.752,0.876h0.024V173.5H175.36z M174.304,178.577c0-0.144-0.012-0.312-0.048-0.456
				c-0.156-0.66-0.732-1.212-1.524-1.212c-1.092,0-1.74,0.96-1.74,2.232c0,1.188,0.588,2.16,1.716,2.16
				c0.708,0,1.356-0.48,1.548-1.26c0.036-0.144,0.048-0.288,0.048-0.456V178.577z"/>
			<path fill="#7FC31C" d="M179.476,182.152c-1.56,0-2.784-1.152-2.784-2.988c0-1.944,1.284-3.084,2.88-3.084
				c1.668,0,2.796,1.212,2.796,2.976c0,2.16-1.5,3.096-2.88,3.096H179.476z M179.512,181.36c1.008,0,1.764-0.948,1.764-2.268
				c0-0.984-0.492-2.22-1.74-2.22c-1.236,0-1.776,1.152-1.776,2.256c0,1.272,0.72,2.232,1.74,2.232H179.512z"/>
			<path fill="#7FC31C" d="M183.7,177.785c0-0.612-0.024-1.092-0.048-1.572h0.924l0.048,0.936h0.036
				c0.324-0.552,0.864-1.068,1.836-1.068c0.78,0,1.38,0.48,1.632,1.164h0.024c0.18-0.336,0.42-0.576,0.66-0.756
				c0.348-0.264,0.72-0.408,1.272-0.408c0.78,0,1.92,0.504,1.92,2.52v3.42h-1.032v-3.288c0-1.128-0.42-1.788-1.26-1.788
				c-0.612,0-1.068,0.444-1.26,0.948c-0.048,0.156-0.084,0.348-0.084,0.528v3.6h-1.032v-3.48c0-0.936-0.408-1.596-1.212-1.596
				c-0.648,0-1.14,0.528-1.308,1.056c-0.06,0.156-0.084,0.336-0.084,0.516v3.504H183.7V177.785z"/>
			<path fill="#7FC31C" d="M194.212,175.145c-0.396,0-0.66-0.312-0.66-0.684s0.276-0.672,0.684-0.672c0.408,0,0.672,0.3,0.672,0.672
				s-0.264,0.684-0.684,0.684H194.212z M193.708,182.021v-5.808h1.056v5.808H193.708z"/>
			<path fill="#7FC31C" d="M196.516,177.785c0-0.612-0.012-1.092-0.048-1.572h0.936l0.06,0.948h0.024
				c0.288-0.54,0.96-1.08,1.92-1.08c0.804,0,2.052,0.48,2.052,2.472v3.468h-1.056v-3.348c0-0.936-0.348-1.728-1.344-1.728
				c-0.684,0-1.224,0.492-1.416,1.08c-0.048,0.132-0.072,0.324-0.072,0.492v3.504h-1.056V177.785z"/>
			<path fill="#7FC31C" d="M207.268,180.628c0,0.504,0.024,0.996,0.084,1.392h-0.948l-0.096-0.732h-0.036
				c-0.312,0.456-0.948,0.864-1.776,0.864c-1.176,0-1.776-0.828-1.776-1.668c0-1.404,1.248-2.172,3.492-2.16v-0.12
				c0-0.48-0.132-1.356-1.32-1.344c-0.552,0-1.116,0.156-1.524,0.432l-0.24-0.708c0.48-0.3,1.188-0.504,1.92-0.504
				c1.788,0,2.22,1.212,2.22,2.376V180.628z M206.236,179.057c-1.152-0.024-2.46,0.18-2.46,1.308c0,0.696,0.456,1.008,0.984,1.008
				c0.768,0,1.26-0.48,1.428-0.972c0.036-0.108,0.048-0.228,0.048-0.336V179.057z"/>
			<path fill="#7FC31C" d="M208.96,177.785c0-0.612-0.012-1.092-0.048-1.572h0.936l0.06,0.948h0.024c0.288-0.54,0.96-1.08,1.92-1.08
				c0.804,0,2.052,0.48,2.052,2.472v3.468h-1.056v-3.348c0-0.936-0.348-1.728-1.344-1.728c-0.684,0-1.224,0.492-1.416,1.08
				c-0.048,0.132-0.072,0.324-0.072,0.492v3.504h-1.056V177.785z"/>
			<path fill="#7FC31C" d="M216.844,174.82v1.392h1.512v0.804h-1.512v3.132c0,0.72,0.204,1.128,0.792,1.128
				c0.288,0,0.456-0.024,0.612-0.072l0.048,0.804c-0.204,0.072-0.528,0.144-0.936,0.144c-0.492,0-0.888-0.168-1.14-0.444
				c-0.288-0.324-0.408-0.84-0.408-1.524v-3.168h-0.9v-0.804h0.9v-1.068L216.844,174.82z"/>
			<path fill="#7FC31C" d="M153.257,188.192c-0.876,1.188-1.5,2.736-1.5,4.92c0,2.136,0.66,3.66,1.5,4.86h-0.816
				c-0.756-0.996-1.572-2.532-1.572-4.872c0.012-2.352,0.816-3.9,1.572-4.908H153.257z"/>
			<path fill="#7FC31C" d="M155.152,188.216l-0.192,2.88h-0.648l-0.192-2.88H155.152z M156.94,188.216l-0.192,2.88h-0.648
				l-0.192-2.88H156.94z"/>
			<path fill="#7FC31C" d="M158.453,188.433h4.356v0.876h-3.3v2.688h3.048v0.864h-3.048v3.66h-1.056V188.433z"/>
			<path fill="#7FC31C" d="M167.813,195.128c0,0.504,0.024,0.996,0.084,1.392h-0.948l-0.096-0.732h-0.036
				c-0.312,0.456-0.948,0.864-1.776,0.864c-1.176,0-1.776-0.828-1.776-1.668c0-1.404,1.248-2.172,3.492-2.16v-0.12
				c0-0.48-0.132-1.356-1.32-1.344c-0.552,0-1.116,0.156-1.524,0.432l-0.24-0.708c0.48-0.3,1.188-0.504,1.92-0.504
				c1.788,0,2.22,1.212,2.22,2.376V195.128z M166.781,193.557c-1.152-0.024-2.46,0.18-2.46,1.308c0,0.696,0.456,1.008,0.984,1.008
				c0.768,0,1.26-0.48,1.428-0.972c0.036-0.108,0.048-0.228,0.048-0.336V193.557z"/>
			<path fill="#7FC31C" d="M170.272,188.216l-0.192,2.88h-0.648l-0.192-2.88H170.272z M172.061,188.216l-0.192,2.88h-0.648
				l-0.192-2.88H172.061z"/>
			<path fill="#7FC31C" d="M172.913,197.973c0.84-1.188,1.5-2.736,1.5-4.896c0-2.16-0.648-3.684-1.5-4.884h0.816
				c0.756,0.984,1.572,2.532,1.572,4.884c-0.012,2.352-0.816,3.876-1.572,4.896H172.913z"/>
		</g>
		<g>
			<path fill="#0A50A1" d="M240.001,173.706c0.648-0.096,1.404-0.168,2.232-0.168c1.5,0,2.568,0.336,3.276,0.996
				c0.732,0.66,1.152,1.608,1.152,2.916c0,1.32-0.42,2.4-1.164,3.144c-0.768,0.756-2.016,1.164-3.588,1.164
				c-0.756,0-1.368-0.024-1.908-0.096V173.706z M241.057,180.87c0.264,0.048,0.648,0.048,1.056,0.048
				c2.232,0.012,3.444-1.248,3.444-3.432c0.012-1.932-1.068-3.12-3.276-3.12c-0.54,0-0.948,0.048-1.224,0.108V180.87z"/>
			<path fill="#0A50A1" d="M250.405,181.817c-1.56,0-2.784-1.152-2.784-2.988c0-1.944,1.284-3.084,2.88-3.084
				c1.668,0,2.796,1.212,2.796,2.976c0,2.16-1.5,3.096-2.88,3.096H250.405z M250.441,181.025c1.008,0,1.764-0.948,1.764-2.268
				c0-0.984-0.492-2.22-1.74-2.22c-1.236,0-1.776,1.152-1.776,2.256c0,1.272,0.72,2.232,1.74,2.232H250.441z"/>
			<path fill="#0A50A1" d="M254.629,177.45c0-0.612-0.024-1.092-0.048-1.572h0.924l0.048,0.936h0.036
				c0.324-0.552,0.864-1.068,1.836-1.068c0.78,0,1.38,0.48,1.632,1.164h0.024c0.18-0.336,0.42-0.576,0.66-0.756
				c0.348-0.264,0.72-0.408,1.272-0.408c0.78,0,1.92,0.504,1.92,2.52v3.42h-1.032v-3.288c0-1.128-0.42-1.788-1.26-1.788
				c-0.612,0-1.068,0.444-1.26,0.948c-0.048,0.156-0.084,0.348-0.084,0.528v3.6h-1.032v-3.48c0-0.936-0.408-1.596-1.212-1.596
				c-0.648,0-1.14,0.528-1.308,1.056c-0.06,0.156-0.084,0.336-0.084,0.516v3.504h-1.032V177.45z"/>
			<path fill="#0A50A1" d="M265.141,174.81c-0.396,0-0.66-0.312-0.66-0.684s0.276-0.672,0.684-0.672c0.408,0,0.672,0.3,0.672,0.672
				s-0.264,0.684-0.684,0.684H265.141z M264.637,181.686v-5.808h1.056v5.808H264.637z"/>
			<path fill="#0A50A1" d="M267.445,177.45c0-0.612-0.012-1.092-0.048-1.572h0.936l0.06,0.948h0.024c0.288-0.54,0.96-1.08,1.92-1.08
				c0.804,0,2.052,0.48,2.052,2.472v3.468h-1.056v-3.348c0-0.936-0.348-1.728-1.344-1.728c-0.684,0-1.224,0.492-1.416,1.08
				c-0.048,0.132-0.072,0.324-0.072,0.492v3.504h-1.056V177.45z"/>
			<path fill="#0A50A1" d="M278.197,180.293c0,0.504,0.024,0.996,0.084,1.392h-0.948l-0.096-0.732h-0.036
				c-0.312,0.456-0.948,0.864-1.776,0.864c-1.176,0-1.776-0.828-1.776-1.668c0-1.404,1.248-2.172,3.492-2.16v-0.12
				c0-0.48-0.132-1.356-1.32-1.344c-0.552,0-1.116,0.156-1.524,0.432l-0.24-0.708c0.48-0.3,1.188-0.504,1.92-0.504
				c1.788,0,2.22,1.212,2.22,2.376V180.293z M277.165,178.722c-1.152-0.024-2.46,0.18-2.46,1.308c0,0.696,0.456,1.008,0.984,1.008
				c0.768,0,1.26-0.48,1.428-0.972c0.036-0.108,0.048-0.228,0.048-0.336V178.722z"/>
			<path fill="#0A50A1" d="M279.889,177.45c0-0.612-0.012-1.092-0.048-1.572h0.936l0.06,0.948h0.024c0.288-0.54,0.96-1.08,1.92-1.08
				c0.804,0,2.052,0.48,2.052,2.472v3.468h-1.056v-3.348c0-0.936-0.348-1.728-1.344-1.728c-0.684,0-1.224,0.492-1.416,1.08
				c-0.048,0.132-0.072,0.324-0.072,0.492v3.504h-1.056V177.45z"/>
			<path fill="#0A50A1" d="M287.772,174.485v1.392h1.512v0.804h-1.512v3.132c0,0.72,0.204,1.128,0.792,1.128
				c0.288,0,0.456-0.024,0.612-0.072l0.048,0.804c-0.204,0.072-0.528,0.144-0.936,0.144c-0.492,0-0.888-0.168-1.14-0.444
				c-0.288-0.324-0.408-0.84-0.408-1.524v-3.168h-0.9v-0.804h0.9v-1.068L287.772,174.485z"/>
			<path fill="#0A50A1" d="M242.257,187.857c-0.876,1.188-1.5,2.736-1.5,4.92c0,2.136,0.66,3.66,1.5,4.86h-0.816
				c-0.756-0.996-1.572-2.532-1.572-4.872c0.012-2.352,0.816-3.9,1.572-4.908H242.257z"/>
			<path fill="#0A50A1" d="M244.153,187.881l-0.192,2.88h-0.648l-0.192-2.88H244.153z M245.941,187.881l-0.192,2.88h-0.648
				l-0.192-2.88H245.941z"/>
			<path fill="#0A50A1" d="M247.333,194.914c0.468,0.3,1.14,0.528,1.86,0.528c1.068,0,1.692-0.552,1.692-1.38
				c0-0.744-0.432-1.188-1.524-1.596c-1.32-0.48-2.136-1.176-2.136-2.304c0-1.26,1.044-2.196,2.616-2.196
				c0.816,0,1.428,0.192,1.776,0.396l-0.288,0.852c-0.252-0.156-0.792-0.384-1.524-0.384c-1.104,0-1.524,0.66-1.524,1.212
				c0,0.756,0.492,1.128,1.608,1.56c1.368,0.54,2.052,1.188,2.052,2.376c0,1.248-0.912,2.34-2.82,2.34
				c-0.78,0-1.632-0.24-2.064-0.528L247.333,194.914z"/>
			<path fill="#0A50A1" d="M255.757,196.317c-1.56,0-2.784-1.152-2.784-2.988c0-1.944,1.284-3.084,2.88-3.084
				c1.668,0,2.796,1.212,2.796,2.976c0,2.16-1.5,3.096-2.88,3.096H255.757z M255.793,195.525c1.008,0,1.764-0.948,1.764-2.268
				c0-0.984-0.492-2.22-1.74-2.22c-1.236,0-1.776,1.152-1.776,2.256c0,1.272,0.72,2.232,1.74,2.232H255.793z"/>
			<path fill="#0A50A1" d="M259.981,187.666h1.056v8.52h-1.056V187.666z"/>
			<path fill="#0A50A1" d="M263.557,187.881l-0.192,2.88h-0.648l-0.192-2.88H263.557z M265.345,187.881l-0.192,2.88h-0.648
				l-0.192-2.88H265.345z"/>
			<path fill="#0A50A1" d="M266.197,197.638c0.84-1.188,1.5-2.736,1.5-4.896c0-2.16-0.648-3.684-1.5-4.884h0.816
				c0.756,0.984,1.572,2.532,1.572,4.884c-0.012,2.352-0.816,3.876-1.572,4.896H266.197z"/>
		</g>
		<g>
			<path d="M168.784,6.648c0.48,0.252,1.248,0.504,2.028,0.504c0.84,0,1.284-0.348,1.284-0.888c0-0.492-0.384-0.792-1.356-1.128
				c-1.344-0.48-2.232-1.224-2.232-2.412c0-1.38,1.164-2.424,3.06-2.424c0.924,0,1.584,0.18,2.064,0.408l-0.408,1.464
				c-0.312-0.156-0.9-0.384-1.68-0.384c-0.792,0-1.176,0.372-1.176,0.78c0,0.516,0.444,0.744,1.5,1.152
				c1.428,0.528,2.088,1.272,2.088,2.424c0,1.356-1.032,2.508-3.252,2.508c-0.924,0-1.836-0.252-2.292-0.504L168.784,6.648z"/>
			<path d="M179.547,8.376c-0.324,0.156-0.936,0.276-1.632,0.276c-1.896,0-3.108-1.164-3.108-3.012c0-1.716,1.176-3.12,3.36-3.12
				c0.48,0,1.008,0.084,1.392,0.228l-0.288,1.356c-0.216-0.096-0.54-0.18-1.02-0.18c-0.96,0-1.584,0.684-1.572,1.644
				c0,1.08,0.72,1.656,1.608,1.656c0.432,0,0.768-0.072,1.044-0.192L179.547,8.376z"/>
			<path d="M185.487,7.104c0,0.552,0.024,1.092,0.096,1.416h-1.644l-0.108-0.588h-0.036c-0.384,0.468-0.984,0.72-1.68,0.72
				c-1.188,0-1.896-0.864-1.896-1.8c0-1.524,1.368-2.244,3.444-2.244V4.536c0-0.312-0.168-0.756-1.068-0.756
				c-0.6,0-1.236,0.204-1.62,0.432l-0.336-1.164c0.408-0.228,1.212-0.528,2.28-0.528c1.956,0,2.568,1.152,2.568,2.532V7.104z
				 M183.724,5.748c-0.96,0-1.704,0.228-1.704,0.924c0,0.468,0.312,0.696,0.72,0.696c0.444,0,0.828-0.3,0.948-0.672
				c0.024-0.096,0.036-0.204,0.036-0.312V5.748z"/>
			<path d="M186.939,0h1.824v8.52h-1.824V0z"/>
			<path d="M191.631,6.156c0.06,0.768,0.804,1.128,1.656,1.128c0.624,0,1.128-0.084,1.62-0.252l0.24,1.236
				c-0.6,0.252-1.332,0.372-2.124,0.372c-1.992,0-3.132-1.152-3.132-3c0-1.488,0.936-3.132,2.964-3.132
				c1.896,0,2.616,1.476,2.616,2.928c0,0.312-0.036,0.588-0.06,0.732L191.631,6.156z M193.779,4.908c0-0.432-0.192-1.188-1.02-1.188
				c-0.78,0-1.092,0.708-1.14,1.188H193.779z"/>
			<path d="M196.551,6.936c0.336,0.204,1.032,0.432,1.572,0.432c0.552,0,0.78-0.18,0.78-0.48c0-0.312-0.18-0.456-0.852-0.684
				c-1.224-0.396-1.692-1.068-1.68-1.752c0-1.104,0.936-1.932,2.388-1.932c0.684,0,1.284,0.168,1.644,0.348l-0.312,1.248
				c-0.264-0.132-0.78-0.324-1.272-0.324c-0.444,0-0.696,0.18-0.696,0.468c0,0.288,0.228,0.432,0.948,0.684
				c1.116,0.372,1.572,0.948,1.584,1.8c0,1.104-0.852,1.908-2.532,1.908c-0.768,0-1.452-0.18-1.896-0.42L196.551,6.936z"/>
		</g>
		<g>
			<path d="M14.333,35.373c0.648-0.096,1.404-0.168,2.232-0.168c1.5,0,2.568,0.336,3.276,0.996c0.732,0.66,1.152,1.608,1.152,2.916
				c0,1.32-0.42,2.4-1.164,3.144c-0.768,0.756-2.016,1.164-3.588,1.164c-0.756,0-1.368-0.024-1.908-0.096V35.373z M15.39,42.537
				c0.264,0.048,0.648,0.048,1.056,0.048c2.232,0.012,3.444-1.248,3.444-3.432c0.012-1.932-1.068-3.12-3.276-3.12
				c-0.54,0-0.948,0.048-1.224,0.108V42.537z"/>
			<path d="M31.697,39.8c-0.06-1.128-0.132-2.496-0.132-3.492h-0.024c-0.288,0.936-0.612,1.956-1.02,3.072l-1.428,3.924h-0.792
				l-1.32-3.852c-0.384-1.152-0.696-2.184-0.924-3.144h-0.024c-0.024,1.008-0.084,2.352-0.156,3.576l-0.216,3.468h-0.996
				l0.564-8.088h1.332l1.38,3.912c0.336,0.996,0.6,1.884,0.816,2.724h0.024c0.216-0.816,0.504-1.704,0.864-2.724l1.44-3.912h1.332
				l0.504,8.088h-1.032L31.697,39.8z"/>
			<path d="M38.657,41.96c0,0.504,0.024,0.996,0.084,1.392h-0.948l-0.096-0.732h-0.036c-0.312,0.456-0.948,0.864-1.776,0.864
				c-1.176,0-1.776-0.828-1.776-1.668c0-1.404,1.248-2.172,3.492-2.16v-0.12c0-0.48-0.132-1.356-1.32-1.344
				c-0.552,0-1.116,0.156-1.524,0.432l-0.24-0.708c0.48-0.3,1.188-0.504,1.92-0.504c1.788,0,2.22,1.212,2.22,2.376V41.96z
				 M37.625,40.389c-1.152-0.024-2.46,0.18-2.46,1.308c0,0.696,0.456,1.008,0.984,1.008c0.768,0,1.26-0.48,1.428-0.972
				c0.036-0.108,0.048-0.228,0.048-0.336V40.389z"/>
			<path d="M38.921,45.057c0.492-0.036,0.9-0.168,1.152-0.444c0.288-0.324,0.408-0.792,0.408-2.184v-4.884h1.056v5.292
				c0,1.128-0.18,1.86-0.696,2.388c-0.468,0.468-1.236,0.66-1.8,0.66L38.921,45.057z M40.985,36.477c-0.396,0-0.66-0.312-0.66-0.684
				s0.276-0.672,0.684-0.672c0.408,0,0.672,0.3,0.672,0.672s-0.252,0.684-0.684,0.684H40.985z"/>
			<path d="M45.629,43.484c-1.56,0-2.784-1.152-2.784-2.988c0-1.944,1.284-3.084,2.88-3.084c1.668,0,2.796,1.212,2.796,2.976
				c0,2.16-1.5,3.096-2.88,3.096H45.629z M45.665,42.692c1.008,0,1.764-0.948,1.764-2.268c0-0.984-0.492-2.22-1.74-2.22
				c-1.236,0-1.776,1.152-1.776,2.256c0,1.272,0.72,2.232,1.74,2.232H45.665z"/>
			<path d="M49.865,39.356c0-0.684-0.012-1.272-0.048-1.812h0.924l0.048,1.14h0.036c0.264-0.78,0.912-1.272,1.62-1.272
				c0.108,0,0.192,0.012,0.288,0.036v0.984c-0.12-0.012-0.228-0.024-0.372-0.024c-0.744,0-1.272,0.564-1.416,1.344
				c-0.024,0.156-0.036,0.324-0.036,0.504v3.096h-1.056L49.865,39.356z"/>
		</g>
		<g>
			<path d="M19.986,111.768c-0.372,0.192-1.152,0.384-2.136,0.384c-2.28,0-3.984-1.44-3.984-4.104c0-2.544,1.716-4.248,4.224-4.248
				c0.996,0,1.644,0.216,1.92,0.36l-0.264,0.852c-0.384-0.192-0.948-0.336-1.62-0.336c-1.896,0-3.156,1.212-3.156,3.336
				c0,1.992,1.14,3.252,3.096,3.252c0.648,0,1.296-0.132,1.716-0.336L19.986,111.768z"/>
			<path d="M30.666,108.467c-0.06-1.128-0.132-2.496-0.132-3.492h-0.024c-0.288,0.936-0.612,1.956-1.02,3.072l-1.428,3.924H27.27
				l-1.32-3.852c-0.384-1.152-0.696-2.184-0.924-3.144h-0.024c-0.024,1.008-0.084,2.352-0.156,3.576l-0.216,3.468h-0.996
				l0.564-8.088h1.332l1.38,3.912c0.336,0.996,0.6,1.884,0.816,2.724h0.024c0.216-0.816,0.504-1.704,0.864-2.724l1.44-3.912h1.332
				l0.504,8.088h-1.032L30.666,108.467z"/>
			<path d="M37.625,110.627c0,0.504,0.024,0.996,0.084,1.392h-0.948l-0.096-0.732h-0.036c-0.312,0.456-0.948,0.864-1.776,0.864
				c-1.176,0-1.776-0.828-1.776-1.668c0-1.404,1.248-2.172,3.492-2.16v-0.12c0-0.48-0.132-1.356-1.32-1.344
				c-0.552,0-1.116,0.156-1.524,0.432l-0.24-0.708c0.48-0.3,1.188-0.504,1.92-0.504c1.788,0,2.22,1.212,2.22,2.376V110.627z
				 M36.593,109.056c-1.152-0.024-2.46,0.18-2.46,1.308c0,0.696,0.456,1.008,0.984,1.008c0.768,0,1.26-0.48,1.428-0.972
				c0.036-0.108,0.048-0.228,0.048-0.336V109.056z"/>
			<path d="M37.889,113.724c0.492-0.036,0.9-0.168,1.152-0.444c0.288-0.324,0.408-0.792,0.408-2.184v-4.884h1.056v5.292
				c0,1.128-0.18,1.86-0.696,2.388c-0.468,0.468-1.236,0.66-1.8,0.66L37.889,113.724z M39.953,105.144
				c-0.396,0-0.66-0.312-0.66-0.684s0.276-0.672,0.684-0.672s0.672,0.3,0.672,0.672s-0.252,0.684-0.684,0.684H39.953z"/>
			<path d="M44.597,112.151c-1.56,0-2.784-1.152-2.784-2.988c0-1.944,1.284-3.084,2.88-3.084c1.668,0,2.796,1.212,2.796,2.976
				c0,2.16-1.5,3.096-2.88,3.096H44.597z M44.633,111.359c1.008,0,1.764-0.948,1.764-2.268c0-0.984-0.492-2.22-1.74-2.22
				c-1.236,0-1.776,1.152-1.776,2.256c0,1.272,0.72,2.232,1.74,2.232H44.633z"/>
			<path d="M48.833,108.023c0-0.684-0.012-1.272-0.048-1.812h0.924l0.048,1.14h0.036c0.264-0.78,0.912-1.272,1.62-1.272
				c0.108,0,0.192,0.012,0.288,0.036v0.984c-0.12-0.012-0.228-0.024-0.372-0.024c-0.744,0-1.272,0.564-1.416,1.344
				c-0.024,0.156-0.036,0.324-0.036,0.504v3.096h-1.056L48.833,108.023z"/>
		</g>
		<g>
			<path d="M173.465,236.498c-0.036-0.972-0.072-2.136-0.072-3.324h-0.024c-0.264,1.032-0.6,2.184-0.912,3.132l-0.984,3.156h-1.428
				l-0.864-3.12c-0.264-0.96-0.528-2.1-0.732-3.168h-0.024c-0.036,1.092-0.084,2.34-0.132,3.348l-0.156,3.072h-1.692l0.516-8.088
				h2.436l0.792,2.712c0.264,0.924,0.504,1.932,0.684,2.88h0.048c0.216-0.936,0.492-1.992,0.768-2.904l0.852-2.688h2.4l0.432,8.088
				h-1.776L173.465,236.498z"/>
			<path d="M179.441,239.726c-1.716,0-3.036-1.128-3.036-3.024s1.248-3.108,3.144-3.108c1.788,0,2.988,1.236,2.988,3.012
				c0,2.136-1.524,3.12-3.084,3.12H179.441z M179.478,238.418c0.72,0,1.164-0.708,1.164-1.764c0-0.864-0.336-1.752-1.164-1.752
				c-0.864,0-1.2,0.888-1.2,1.764c0,0.996,0.42,1.752,1.188,1.752H179.478z"/>
			<path d="M189.389,231.074v6.768c0,0.672,0.024,1.356,0.048,1.752h-1.62l-0.072-0.852h-0.036c-0.36,0.648-1.08,0.984-1.836,0.984
				c-1.392,0-2.508-1.188-2.508-3.012c-0.012-1.968,1.224-3.12,2.628-3.12c0.732,0,1.284,0.264,1.548,0.66h0.024v-3.18H189.389z
				 M187.565,236.222c0-0.108,0-0.228-0.024-0.336c-0.108-0.492-0.504-0.888-1.068-0.888c-0.84,0-1.26,0.744-1.26,1.668
				c0,0.984,0.492,1.608,1.248,1.608c0.528,0,0.96-0.36,1.068-0.876c0.024-0.12,0.036-0.264,0.036-0.408V236.222z"/>
			<path d="M192.257,237.229c0.06,0.768,0.804,1.128,1.656,1.128c0.624,0,1.128-0.084,1.62-0.252l0.24,1.236
				c-0.6,0.252-1.332,0.372-2.124,0.372c-1.992,0-3.132-1.152-3.132-3c0-1.488,0.936-3.132,2.964-3.132
				c1.896,0,2.616,1.476,2.616,2.928c0,0.312-0.036,0.588-0.06,0.732L192.257,237.229z M194.405,235.982
				c0-0.432-0.192-1.188-1.02-1.188c-0.78,0-1.092,0.708-1.14,1.188H194.405z"/>
			<path d="M197.177,238.01c0.336,0.204,1.032,0.432,1.572,0.432c0.552,0,0.78-0.18,0.78-0.48c0-0.312-0.18-0.456-0.852-0.684
				c-1.224-0.396-1.692-1.068-1.68-1.752c0-1.104,0.936-1.932,2.388-1.932c0.684,0,1.284,0.168,1.644,0.348l-0.312,1.248
				c-0.264-0.132-0.78-0.324-1.272-0.324c-0.444,0-0.696,0.18-0.696,0.468c0,0.288,0.228,0.432,0.948,0.684
				c1.116,0.372,1.572,0.948,1.584,1.8c0,1.104-0.852,1.908-2.532,1.908c-0.768,0-1.452-0.18-1.896-0.42L197.177,238.01z"/>
		</g>
		<g>
			<path d="M14.334,266.04c0.648-0.096,1.404-0.168,2.232-0.168c1.5,0,2.568,0.336,3.276,0.996c0.732,0.66,1.152,1.608,1.152,2.916
				c0,1.32-0.42,2.4-1.164,3.144c-0.768,0.756-2.016,1.164-3.588,1.164c-0.756,0-1.368-0.024-1.908-0.096V266.04z M15.39,273.204
				c0.264,0.048,0.648,0.048,1.056,0.048c2.232,0.012,3.444-1.248,3.444-3.432c0.012-1.932-1.068-3.12-3.276-3.12
				c-0.54,0-0.948,0.048-1.224,0.108V273.204z"/>
			<path d="M24.738,274.151c-1.56,0-2.784-1.152-2.784-2.988c0-1.944,1.284-3.084,2.88-3.084c1.668,0,2.796,1.212,2.796,2.976
				c0,2.16-1.5,3.096-2.88,3.096H24.738z M24.774,273.359c1.008,0,1.764-0.948,1.764-2.268c0-0.984-0.492-2.22-1.74-2.22
				c-1.236,0-1.776,1.152-1.776,2.256c0,1.272,0.72,2.232,1.74,2.232H24.774z"/>
			<path d="M28.974,270.023c0-0.684-0.012-1.272-0.048-1.812h0.924l0.048,1.14h0.036c0.264-0.78,0.912-1.272,1.62-1.272
				c0.108,0,0.192,0.012,0.288,0.036v0.984c-0.12-0.012-0.228-0.024-0.372-0.024c-0.744,0-1.272,0.564-1.416,1.344
				c-0.024,0.156-0.036,0.324-0.036,0.504v3.096h-1.056L28.974,270.023z"/>
			<path d="M33.438,267.144c-0.396,0-0.66-0.312-0.66-0.684s0.276-0.672,0.684-0.672c0.408,0,0.672,0.3,0.672,0.672
				s-0.264,0.684-0.684,0.684H33.438z M32.934,274.02v-5.808h1.056v5.808H32.934z"/>
			<path d="M39.833,272.627c0,0.504,0.024,0.996,0.084,1.392H38.97l-0.096-0.732h-0.036c-0.312,0.456-0.948,0.864-1.776,0.864
				c-1.176,0-1.776-0.828-1.776-1.668c0-1.404,1.248-2.172,3.492-2.16v-0.12c0-0.48-0.132-1.356-1.32-1.344
				c-0.552,0-1.116,0.156-1.524,0.432l-0.24-0.708c0.48-0.3,1.188-0.504,1.92-0.504c1.788,0,2.22,1.212,2.22,2.376V272.627z
				 M38.802,271.056c-1.152-0.024-2.46,0.18-2.46,1.308c0,0.696,0.456,1.008,0.984,1.008c0.768,0,1.26-0.48,1.428-0.972
				c0.036-0.108,0.048-0.228,0.048-0.336V271.056z"/>
			<path d="M41.525,269.784c0-0.612-0.012-1.092-0.048-1.572h0.936l0.06,0.948h0.024c0.288-0.54,0.96-1.08,1.92-1.08
				c0.804,0,2.052,0.48,2.052,2.472v3.468h-1.056v-3.348c0-0.936-0.348-1.728-1.344-1.728c-0.684,0-1.224,0.492-1.416,1.08
				c-0.048,0.132-0.072,0.324-0.072,0.492v3.504h-1.056V269.784z"/>
		</g>
		<g>
			<path d="M1.056,342.265v3.384h3.912v-3.384h1.056v8.088H4.968v-3.792H1.056v3.792H0v-8.088H1.056z"/>
			<path d="M8.16,344.545l1.26,3.432c0.144,0.384,0.288,0.84,0.384,1.188h0.024c0.108-0.348,0.228-0.792,0.372-1.212l1.152-3.407
				h1.116l-1.584,4.14c-0.756,1.992-1.272,3.012-1.992,3.648c-0.528,0.443-1.032,0.623-1.296,0.672l-0.264-0.889
				c0.264-0.071,0.612-0.239,0.924-0.516c0.288-0.229,0.636-0.636,0.888-1.176c0.048-0.108,0.084-0.181,0.084-0.252
				c0-0.061-0.024-0.145-0.084-0.265l-2.136-5.363H8.16z"/>
			<path d="M13.428,346.44c0-0.744-0.012-1.344-0.048-1.896h0.948l0.06,0.995h0.024c0.42-0.72,1.116-1.128,2.052-1.128
				c1.416,0,2.472,1.188,2.472,2.952c0,2.088-1.284,3.12-2.64,3.12c-0.78,0-1.44-0.336-1.788-0.912h-0.024v3.156h-1.056V346.44z
				 M14.484,347.988c0,0.145,0.012,0.3,0.048,0.433c0.18,0.731,0.828,1.235,1.572,1.235c1.116,0,1.764-0.912,1.764-2.244
				c0-1.164-0.6-2.159-1.716-2.159c-0.72,0-1.404,0.504-1.608,1.296c-0.024,0.144-0.06,0.3-0.06,0.432V347.988z"/>
			<path d="M22.632,350.484c-1.56,0-2.784-1.151-2.784-2.988c0-1.943,1.284-3.084,2.88-3.084c1.668,0,2.796,1.212,2.796,2.977
				c0,2.16-1.5,3.096-2.88,3.096H22.632z M22.667,349.692c1.008,0,1.764-0.948,1.764-2.268c0-0.984-0.492-2.221-1.74-2.221
				c-1.236,0-1.776,1.152-1.776,2.257c0,1.271,0.72,2.231,1.74,2.231H22.667z"/>
			<path d="M26.855,341.832h1.056v8.521h-1.056V341.832z"/>
			<path d="M30.047,344.545l1.26,3.432c0.144,0.384,0.288,0.84,0.384,1.188h0.024c0.108-0.348,0.228-0.792,0.372-1.212l1.152-3.407
				h1.116l-1.584,4.14c-0.756,1.992-1.272,3.012-1.992,3.648c-0.528,0.443-1.032,0.623-1.296,0.672l-0.264-0.889
				c0.264-0.071,0.612-0.239,0.924-0.516c0.288-0.229,0.636-0.636,0.888-1.176c0.048-0.108,0.084-0.181,0.084-0.252
				c0-0.061-0.024-0.145-0.084-0.265l-2.136-5.363H30.047z"/>
			<path d="M40.211,341.832v7.021c0,0.516,0.012,1.104,0.048,1.5h-0.948l-0.048-1.008H39.24c-0.324,0.647-1.02,1.14-1.968,1.14
				c-1.404,0-2.496-1.188-2.496-2.952c-0.012-1.943,1.2-3.12,2.604-3.12c0.9,0,1.5,0.42,1.752,0.876h0.024v-3.456H40.211z
				 M39.156,346.908c0-0.144-0.012-0.312-0.048-0.456c-0.156-0.659-0.732-1.212-1.524-1.212c-1.092,0-1.74,0.96-1.74,2.232
				c0,1.188,0.588,2.16,1.716,2.16c0.708,0,1.356-0.48,1.548-1.261c0.036-0.144,0.048-0.287,0.048-0.455V346.908z"/>
			<path d="M42.467,343.477c-0.396,0-0.66-0.313-0.66-0.685c0-0.371,0.276-0.672,0.684-0.672c0.408,0,0.672,0.301,0.672,0.672
				c0,0.372-0.264,0.685-0.684,0.685H42.467z M41.963,350.353v-5.808h1.056v5.808H41.963z"/>
			<path d="M48.863,348.961c0,0.504,0.024,0.995,0.084,1.392H48l-0.096-0.732h-0.036c-0.312,0.456-0.948,0.864-1.776,0.864
				c-1.176,0-1.776-0.828-1.776-1.668c0-1.404,1.248-2.172,3.492-2.16v-0.12c0-0.479-0.132-1.355-1.32-1.344
				c-0.552,0-1.116,0.156-1.524,0.432l-0.24-0.708c0.48-0.3,1.188-0.504,1.92-0.504c1.788,0,2.22,1.212,2.22,2.376V348.961z
				 M47.832,347.389c-1.152-0.024-2.46,0.18-2.46,1.308c0,0.696,0.456,1.008,0.984,1.008c0.768,0,1.26-0.479,1.428-0.972
				c0.036-0.107,0.048-0.228,0.048-0.336V347.389z"/>
			<path d="M50.555,346.116c0-0.611-0.012-1.092-0.048-1.571h0.936l0.06,0.947h0.024c0.288-0.54,0.96-1.08,1.92-1.08
				c0.804,0,2.052,0.48,2.052,2.473v3.468h-1.056v-3.348c0-0.937-0.348-1.729-1.344-1.729c-0.684,0-1.224,0.492-1.416,1.08
				c-0.048,0.132-0.072,0.324-0.072,0.492v3.504h-1.056V346.116z"/>
		</g>
		<g>
			<path d="M145.666,80.686l-2.052-8.088h1.104l0.96,4.092c0.24,1.02,0.456,2.016,0.6,2.796h0.024
				c0.132-0.804,0.384-1.764,0.66-2.808l1.08-4.08h1.092l0.984,4.104c0.228,0.972,0.444,1.92,0.564,2.772h0.024
				c0.168-0.888,0.396-1.788,0.648-2.796l1.068-4.08h1.068l-2.292,8.088h-1.092l-1.02-4.2c-0.252-1.044-0.42-1.836-0.528-2.652
				h-0.024c-0.132,0.816-0.324,1.596-0.624,2.64l-1.152,4.212H145.666z"/>
		</g>
		<g>
			<path d="M176.722,72.265v3.384h3.912v-3.384h1.056v8.088h-1.056v-3.792h-3.912v3.792h-1.056v-8.088H176.722z"/>
		</g>
		<g>
			<path d="M118.999,80.353l-2.052-8.088h1.104l0.96,4.092c0.24,1.02,0.456,2.016,0.6,2.796h0.024
				c0.132-0.804,0.384-1.764,0.66-2.808l1.08-4.08h1.092l0.984,4.104c0.228,0.972,0.444,1.92,0.564,2.772h0.024
				c0.168-0.888,0.396-1.788,0.648-2.796l1.068-4.08h1.068l-2.292,8.088h-1.092l-1.02-4.2c-0.252-1.044-0.42-1.836-0.528-2.652
				h-0.024c-0.132,0.816-0.324,1.596-0.624,2.64l-1.152,4.212H118.999z"/>
		</g>
		<g>
			<path d="M206.666,80.353l-2.052-8.088h1.104l0.96,4.092c0.24,1.02,0.456,2.016,0.6,2.796h0.024
				c0.132-0.804,0.384-1.764,0.66-2.808l1.08-4.08h1.092l0.984,4.104c0.228,0.972,0.444,1.92,0.564,2.772h0.024
				c0.168-0.888,0.396-1.788,0.648-2.796l1.068-4.08h1.068l-2.292,8.088h-1.092l-1.02-4.2c-0.252-1.044-0.42-1.836-0.528-2.652
				h-0.024c-0.132,0.816-0.324,1.596-0.624,2.64l-1.152,4.212H206.666z"/>
		</g>
		<g>
			<path d="M235.666,80.019l-2.052-8.088h1.104l0.96,4.092c0.24,1.02,0.456,2.016,0.6,2.796h0.024
				c0.132-0.804,0.384-1.764,0.66-2.808l1.08-4.08h1.092l0.984,4.104c0.228,0.972,0.444,1.92,0.564,2.772h0.024
				c0.168-0.888,0.396-1.788,0.648-2.796l1.068-4.08h1.068l-2.292,8.088h-1.092l-1.02-4.2c-0.252-1.044-0.42-1.836-0.528-2.652
				h-0.024c-0.132,0.816-0.324,1.596-0.624,2.64l-1.152,4.212H235.666z"/>
		</g>
		<g>
			<path d="M267.666,80.686l-2.052-8.088h1.104l0.96,4.092c0.24,1.02,0.456,2.016,0.6,2.796h0.024
				c0.132-0.804,0.384-1.764,0.66-2.808l1.08-4.08h1.092l0.984,4.104c0.228,0.972,0.444,1.92,0.564,2.772h0.024
				c0.168-0.888,0.396-1.788,0.648-2.796l1.068-4.08h1.068l-2.292,8.088h-1.092l-1.02-4.2c-0.252-1.044-0.42-1.836-0.528-2.652
				h-0.024c-0.132,0.816-0.324,1.596-0.624,2.64l-1.152,4.212H267.666z"/>
		</g>
		<g>
			<path d="M296.722,72.265v3.384h3.912v-3.384h1.056v8.088h-1.056v-3.792h-3.912v3.792h-1.056v-8.088H296.722z"/>
		</g>
		<g>
			<path d="M145.332,155.353l-2.052-8.088h1.104l0.96,4.092c0.24,1.02,0.456,2.016,0.6,2.796h0.024
				c0.132-0.804,0.384-1.764,0.66-2.808l1.08-4.08h1.092l0.984,4.104c0.228,0.972,0.444,1.92,0.564,2.772h0.024
				c0.168-0.888,0.396-1.788,0.648-2.796l1.068-4.08h1.068l-2.292,8.088h-1.092l-1.02-4.2c-0.252-1.044-0.42-1.836-0.528-2.652
				H148.2c-0.132,0.816-0.324,1.596-0.624,2.64l-1.152,4.212H145.332z"/>
		</g>
		<g>
			<path d="M175.388,146.932v3.384h3.912v-3.384h1.056v8.088H179.3v-3.792h-3.912v3.792h-1.056v-8.088H175.388z"/>
		</g>
		<g>
			<path d="M117.665,155.02l-2.052-8.088h1.104l0.96,4.092c0.24,1.02,0.456,2.016,0.6,2.796h0.024
				c0.132-0.804,0.384-1.764,0.66-2.808l1.08-4.08h1.092l0.984,4.104c0.228,0.972,0.444,1.92,0.564,2.772h0.024
				c0.168-0.888,0.396-1.788,0.648-2.796l1.068-4.08h1.068l-2.292,8.088h-1.092l-1.02-4.2c-0.252-1.044-0.42-1.836-0.528-2.652
				h-0.024c-0.132,0.816-0.324,1.596-0.624,2.64l-1.152,4.212H117.665z"/>
		</g>
		<g>
			<path d="M203.665,155.353l-2.052-8.088h1.104l0.96,4.092c0.24,1.02,0.456,2.016,0.6,2.796h0.024
				c0.132-0.804,0.384-1.764,0.66-2.808l1.08-4.08h1.092l0.984,4.104c0.228,0.972,0.444,1.92,0.564,2.772h0.024
				c0.168-0.888,0.396-1.788,0.648-2.796l1.068-4.08h1.068l-2.292,8.088h-1.092l-1.02-4.2c-0.252-1.044-0.42-1.836-0.528-2.652
				h-0.024c-0.132,0.816-0.324,1.596-0.624,2.64l-1.152,4.212H203.665z"/>
		</g>
		<g>
			<path d="M234.665,155.687l-2.052-8.088h1.104l0.96,4.092c0.24,1.02,0.456,2.016,0.6,2.796h0.024
				c0.132-0.804,0.384-1.764,0.66-2.808l1.08-4.08h1.092l0.984,4.104c0.228,0.972,0.444,1.92,0.564,2.772h0.024
				c0.168-0.888,0.396-1.788,0.648-2.796l1.068-4.08h1.068l-2.292,8.088h-1.092l-1.02-4.2c-0.252-1.044-0.42-1.836-0.528-2.652
				h-0.024c-0.132,0.816-0.324,1.596-0.624,2.64l-1.152,4.212H234.665z"/>
		</g>
		<g>
			<path d="M264.998,155.686l-2.052-8.088h1.104l0.96,4.092c0.24,1.02,0.456,2.016,0.6,2.796h0.024
				c0.132-0.804,0.384-1.764,0.66-2.808l1.08-4.08h1.092l0.984,4.104c0.228,0.972,0.444,1.92,0.564,2.772h0.024
				c0.168-0.888,0.396-1.788,0.648-2.796l1.068-4.08h1.068l-2.292,8.088h-1.092l-1.02-4.2c-0.252-1.044-0.42-1.836-0.528-2.652
				h-0.024c-0.132,0.816-0.324,1.596-0.624,2.64l-1.152,4.212H264.998z"/>
		</g>
		<g>
			<path d="M297.388,146.932v3.384h3.912v-3.384h1.056v8.088H301.3v-3.792h-3.912v3.792h-1.056v-8.088H297.388z"/>
		</g>
		<g>
			<path d="M119.999,388.353l-2.052-8.088h1.104l0.96,4.092c0.24,1.021,0.456,2.016,0.6,2.796h0.024
				c0.132-0.804,0.384-1.764,0.66-2.808l1.08-4.08h1.092l0.984,4.104c0.228,0.973,0.444,1.92,0.564,2.772h0.024
				c0.168-0.888,0.396-1.788,0.648-2.796l1.068-4.08h1.068l-2.292,8.088h-1.092l-1.02-4.2c-0.252-1.044-0.42-1.836-0.528-2.651
				h-0.024c-0.132,0.815-0.324,1.596-0.624,2.64l-1.152,4.212H119.999z"/>
		</g>
		<g>
			<path d="M154.332,388.687l-2.052-8.088h1.104l0.96,4.092c0.24,1.021,0.456,2.016,0.6,2.796h0.024
				c0.132-0.804,0.384-1.764,0.66-2.808l1.08-4.08h1.092l0.984,4.104c0.228,0.973,0.444,1.92,0.564,2.772h0.024
				c0.168-0.888,0.396-1.788,0.648-2.796l1.068-4.08h1.068l-2.292,8.088h-1.092l-1.02-4.2c-0.252-1.044-0.42-1.836-0.528-2.651
				H157.2c-0.132,0.815-0.324,1.596-0.624,2.64l-1.152,4.212H154.332z"/>
		</g>
		<g>
			<path d="M211.999,387.687l-2.052-8.088h1.104l0.96,4.092c0.24,1.021,0.456,2.016,0.6,2.796h0.024
				c0.132-0.804,0.384-1.764,0.66-2.808l1.08-4.08h1.092l0.984,4.104c0.228,0.973,0.444,1.92,0.564,2.772h0.024
				c0.168-0.888,0.396-1.788,0.648-2.796l1.068-4.08h1.068l-2.292,8.088h-1.092l-1.02-4.2c-0.252-1.044-0.42-1.836-0.528-2.651
				h-0.024c-0.132,0.815-0.324,1.596-0.624,2.64l-1.152,4.212H211.999z"/>
		</g>
		<g>
			<path d="M270.333,387.019l-2.052-8.088h1.104l0.96,4.092c0.24,1.021,0.456,2.016,0.6,2.796h0.024
				c0.132-0.804,0.384-1.764,0.66-2.808l1.08-4.08h1.092l0.984,4.104c0.228,0.973,0.444,1.92,0.564,2.772h0.024
				c0.168-0.888,0.396-1.788,0.648-2.796l1.068-4.08h1.068l-2.292,8.088h-1.092l-1.02-4.2c-0.252-1.044-0.42-1.836-0.528-2.651
				h-0.024c-0.132,0.815-0.324,1.596-0.624,2.64l-1.152,4.212H270.333z"/>
		</g>
		<g>
			<path d="M240.999,387.02l-2.052-8.088h1.104l0.96,4.092c0.24,1.021,0.456,2.016,0.6,2.796h0.024
				c0.132-0.804,0.384-1.764,0.66-2.808l1.08-4.08h1.092l0.984,4.104c0.228,0.973,0.444,1.92,0.564,2.772h0.024
				c0.168-0.888,0.396-1.788,0.648-2.796l1.068-4.08h1.068l-2.292,8.088h-1.092l-1.02-4.2c-0.252-1.044-0.42-1.836-0.528-2.652
				h-0.024c-0.132,0.816-0.324,1.597-0.624,2.641l-1.152,4.212H240.999z"/>
		</g>
		<g>
			<path d="M184.39,379.265v3.384h3.912v-3.384h1.056v8.088h-1.056v-3.792h-3.912v3.792h-1.056v-8.088H184.39z"/>
		</g>
		<g>
			<path d="M297.056,378.265v3.384h3.912v-3.384h1.056v8.088h-1.056v-3.792h-3.912v3.792H296v-8.088H297.056z"/>
		</g>
		<g>
			<path d="M118.999,307.02l-2.052-8.088h1.104l0.96,4.092c0.24,1.021,0.456,2.016,0.6,2.796h0.024
				c0.132-0.804,0.384-1.764,0.66-2.808l1.08-4.08h1.092l0.984,4.104c0.228,0.973,0.444,1.92,0.564,2.772h0.024
				c0.168-0.888,0.396-1.788,0.648-2.796l1.068-4.08h1.068l-2.292,8.088h-1.092l-1.02-4.2c-0.252-1.044-0.42-1.836-0.528-2.652
				h-0.024c-0.132,0.816-0.324,1.597-0.624,2.641l-1.152,4.212H118.999z"/>
		</g>
		<g>
			<path d="M179.666,307.687l-2.052-8.088h1.104l0.96,4.092c0.24,1.021,0.456,2.016,0.6,2.796h0.024
				c0.132-0.804,0.384-1.764,0.66-2.808l1.08-4.08h1.092l0.984,4.104c0.228,0.973,0.444,1.92,0.564,2.772h0.024
				c0.168-0.888,0.396-1.788,0.648-2.796l1.068-4.08h1.068l-2.292,8.088h-1.092l-1.02-4.2c-0.252-1.044-0.42-1.836-0.528-2.651
				h-0.024c-0.132,0.815-0.324,1.596-0.624,2.64l-1.152,4.212H179.666z"/>
		</g>
		<g>
			<path d="M208.333,307.687l-2.052-8.088h1.104l0.96,4.092c0.24,1.021,0.456,2.016,0.6,2.796h0.024
				c0.132-0.804,0.384-1.764,0.66-2.808l1.08-4.08h1.092l0.984,4.104c0.228,0.973,0.444,1.92,0.564,2.772h0.024
				c0.168-0.888,0.396-1.788,0.648-2.796l1.068-4.08h1.068l-2.292,8.088h-1.092l-1.02-4.2c-0.252-1.044-0.42-1.836-0.528-2.651
				h-0.024c-0.132,0.815-0.324,1.596-0.624,2.64l-1.152,4.212H208.333z"/>
		</g>
		<g>
			<path d="M236.332,307.687l-2.052-8.088h1.104l0.96,4.092c0.24,1.021,0.456,2.016,0.6,2.796h0.024
				c0.132-0.804,0.384-1.764,0.66-2.808l1.08-4.08h1.092l0.984,4.104c0.228,0.973,0.444,1.92,0.564,2.772h0.024
				c0.168-0.888,0.396-1.788,0.648-2.796l1.068-4.08h1.068l-2.292,8.088h-1.092l-1.02-4.2c-0.252-1.044-0.42-1.836-0.528-2.651
				H239.2c-0.132,0.815-0.324,1.596-0.624,2.64l-1.152,4.212H236.332z"/>
		</g>
		<g>
			<path d="M290.333,306.687l-2.052-8.088h1.104l0.96,4.092c0.24,1.021,0.456,2.016,0.6,2.796h0.024
				c0.132-0.804,0.384-1.764,0.66-2.808l1.08-4.08h1.092l0.984,4.104c0.228,0.973,0.444,1.92,0.564,2.772h0.024
				c0.168-0.888,0.396-1.788,0.648-2.796l1.068-4.08h1.068l-2.292,8.088h-1.092l-1.02-4.2c-0.252-1.044-0.42-1.836-0.528-2.651
				h-0.024c-0.132,0.815-0.324,1.596-0.624,2.64l-1.152,4.212H290.333z"/>
		</g>
		<g>
			<path d="M151.389,299.598v3.384h3.912v-3.384h1.056v8.088h-1.056v-3.792h-3.912v3.792h-1.056v-8.088H151.389z"/>
		</g>
		<g>
			<path d="M264.056,298.265v3.384h3.912v-3.384h1.056v8.088h-1.056v-3.792h-3.912v3.792H263v-8.088H264.056z"/>
		</g>
		<g>
			<path fill="#FF0000" d="M90.667,414.932h4.356v0.876h-3.3v2.688h3.048v0.864h-3.048v3.66h-1.056V414.932z"/>
			<path fill="#FF0000" d="M96.679,416.144c-0.396,0-0.66-0.313-0.66-0.684c0-0.372,0.276-0.673,0.684-0.673
				c0.408,0,0.672,0.301,0.672,0.673c0,0.371-0.264,0.684-0.684,0.684H96.679z M96.175,423.02v-5.808h1.056v5.808H96.175z"/>
			<path fill="#FF0000" d="M98.983,418.783c0-0.611-0.012-1.092-0.048-1.571h0.936l0.06,0.947h0.024c0.288-0.54,0.96-1.08,1.92-1.08
				c0.804,0,2.052,0.48,2.052,2.473v3.468h-1.056v-3.348c0-0.937-0.348-1.729-1.344-1.729c-0.684,0-1.224,0.492-1.416,1.08
				c-0.048,0.132-0.072,0.324-0.072,0.492v3.504h-1.056V418.783z"/>
			<path fill="#FF0000" d="M109.735,421.628c0,0.504,0.024,0.995,0.084,1.392h-0.948l-0.096-0.732h-0.036
				c-0.312,0.456-0.948,0.864-1.776,0.864c-1.176,0-1.776-0.828-1.776-1.668c0-1.404,1.248-2.172,3.492-2.16v-0.12
				c0-0.479-0.132-1.355-1.32-1.344c-0.552,0-1.116,0.156-1.524,0.432l-0.24-0.708c0.48-0.3,1.188-0.504,1.92-0.504
				c1.788,0,2.22,1.212,2.22,2.376V421.628z M108.703,420.056c-1.152-0.024-2.46,0.18-2.46,1.308c0,0.696,0.456,1.008,0.984,1.008
				c0.768,0,1.26-0.479,1.428-0.972c0.036-0.107,0.048-0.228,0.048-0.336V420.056z"/>
			<path fill="#FF0000" d="M111.427,414.499h1.056v8.521h-1.056V414.499z"/>
			<path fill="#FF0000" d="M114.739,416.144c-0.396,0-0.66-0.313-0.66-0.684c0-0.372,0.276-0.673,0.684-0.673
				c0.408,0,0.672,0.301,0.672,0.673c0,0.371-0.264,0.684-0.684,0.684H114.739z M114.235,423.02v-5.808h1.056v5.808H114.235z"/>
			<path fill="#FF0000" d="M116.899,421.951c0.324,0.192,0.876,0.408,1.404,0.408c0.756,0,1.116-0.372,1.116-0.864
				c0-0.504-0.3-0.779-1.068-1.067c-1.056-0.384-1.548-0.948-1.548-1.645c0-0.936,0.768-1.704,2.004-1.704
				c0.588,0,1.104,0.156,1.416,0.36l-0.252,0.756c-0.228-0.132-0.648-0.336-1.188-0.336c-0.624,0-0.96,0.36-0.96,0.792
				c0,0.492,0.336,0.708,1.092,0.996c0.996,0.372,1.524,0.876,1.524,1.752c0,1.032-0.804,1.752-2.16,1.752
				c-0.636,0-1.224-0.168-1.632-0.408L116.899,421.951z"/>
			<path fill="#FF0000" d="M92.923,429.191c-0.876,1.188-1.5,2.736-1.5,4.92c0,2.136,0.66,3.66,1.5,4.86h-0.816
				c-0.756-0.996-1.572-2.532-1.572-4.872c0.012-2.353,0.816-3.9,1.572-4.908H92.923z"/>
			<path fill="#FF0000" d="M94.651,434.796c0.024,1.428,0.924,2.016,1.98,2.016c0.756,0,1.224-0.132,1.608-0.288l0.192,0.744
				c-0.372,0.168-1.02,0.372-1.944,0.372c-1.776,0-2.856-1.188-2.856-2.928c0-1.765,1.044-3.145,2.736-3.145
				c1.896,0,2.388,1.668,2.388,2.736c0,0.216-0.012,0.384-0.036,0.504L94.651,434.796z M97.735,434.039
				c0.012-0.659-0.276-1.716-1.452-1.716c-1.08,0-1.536,0.984-1.62,1.716H97.735z"/>
			<path fill="#FF0000" d="M100.063,433.283c0-0.611-0.012-1.092-0.048-1.571h0.936l0.06,0.947h0.024
				c0.288-0.54,0.96-1.08,1.92-1.08c0.804,0,2.052,0.48,2.052,2.473v3.468h-1.056v-3.348c0-0.937-0.348-1.729-1.344-1.729
				c-0.684,0-1.224,0.492-1.416,1.08c-0.048,0.132-0.072,0.324-0.072,0.492v3.504h-1.056V433.283z"/>
			<path fill="#FF0000" d="M111.739,428.999v7.021c0,0.516,0.012,1.104,0.048,1.5h-0.948l-0.048-1.008h-0.024
				c-0.324,0.647-1.02,1.14-1.968,1.14c-1.404,0-2.496-1.188-2.496-2.952c-0.012-1.943,1.2-3.12,2.604-3.12
				c0.9,0,1.5,0.42,1.752,0.876h0.024v-3.456H111.739z M110.683,434.075c0-0.144-0.012-0.312-0.048-0.456
				c-0.156-0.659-0.732-1.212-1.524-1.212c-1.092,0-1.74,0.96-1.74,2.232c0,1.188,0.588,2.16,1.716,2.16
				c0.708,0,1.356-0.48,1.548-1.261c0.036-0.144,0.048-0.287,0.048-0.455V434.075z"/>
			<path fill="#FF0000" d="M113.995,430.644c-0.396,0-0.66-0.313-0.66-0.684c0-0.372,0.276-0.673,0.684-0.673
				c0.408,0,0.672,0.301,0.672,0.673c0,0.371-0.264,0.684-0.684,0.684H113.995z M113.491,437.52v-5.808h1.056v5.808H113.491z"/>
			<path fill="#FF0000" d="M116.299,433.283c0-0.611-0.012-1.092-0.048-1.571h0.936l0.06,0.947h0.024
				c0.288-0.54,0.96-1.08,1.92-1.08c0.804,0,2.052,0.48,2.052,2.473v3.468h-1.056v-3.348c0-0.937-0.348-1.729-1.344-1.729
				c-0.684,0-1.224,0.492-1.416,1.08c-0.048,0.132-0.072,0.324-0.072,0.492v3.504h-1.056V433.283z"/>
			<path fill="#FF0000" d="M127.927,436.668c0,1.344-0.276,2.147-0.828,2.663c-0.576,0.517-1.392,0.696-2.124,0.696
				c-0.696,0-1.464-0.168-1.932-0.479l0.264-0.816c0.384,0.252,0.984,0.468,1.704,0.468c1.08,0,1.872-0.563,1.872-2.04v-0.636
				h-0.024c-0.312,0.54-0.948,0.972-1.848,0.972c-1.44,0-2.472-1.224-2.472-2.844c0-1.968,1.284-3.072,2.628-3.072
				c1.008,0,1.548,0.517,1.812,0.996h0.024l0.036-0.863h0.936c-0.036,0.407-0.048,0.876-0.048,1.584V436.668z M126.871,433.991
				c0-0.168-0.012-0.323-0.06-0.468c-0.192-0.624-0.696-1.128-1.476-1.128c-1.008,0-1.728,0.852-1.728,2.208
				c0,1.128,0.588,2.088,1.716,2.088c0.66,0,1.248-0.408,1.464-1.092c0.06-0.168,0.084-0.372,0.084-0.564V433.991z"/>
			<path fill="#FF0000" d="M132.21,433.283c0-0.611-0.012-1.092-0.048-1.571h0.936l0.06,0.947h0.024c0.288-0.54,0.96-1.08,1.92-1.08
				c0.804,0,2.052,0.48,2.052,2.473v3.468h-1.056v-3.348c0-0.937-0.348-1.729-1.344-1.729c-0.684,0-1.224,0.492-1.416,1.08
				c-0.048,0.132-0.072,0.324-0.072,0.492v3.504h-1.056V433.283z"/>
			<path fill="#FF0000" d="M141.234,437.651c-1.56,0-2.784-1.152-2.784-2.988c0-1.943,1.284-3.084,2.88-3.084
				c1.668,0,2.796,1.212,2.796,2.977c0,2.16-1.5,3.096-2.88,3.096H141.234z M141.271,436.859c1.008,0,1.764-0.948,1.764-2.268
				c0-0.984-0.492-2.221-1.74-2.221c-1.236,0-1.776,1.152-1.776,2.257c0,1.271,0.72,2.231,1.74,2.231H141.271z"/>
			<path fill="#FF0000" d="M146.73,430.319v1.393h1.512v0.804h-1.512v3.132c0,0.72,0.204,1.128,0.792,1.128
				c0.288,0,0.456-0.023,0.612-0.072l0.048,0.805c-0.204,0.071-0.528,0.144-0.936,0.144c-0.492,0-0.888-0.168-1.14-0.443
				c-0.288-0.324-0.408-0.841-0.408-1.524v-3.168h-0.9v-0.804h0.9v-1.068L146.73,430.319z"/>
			<path fill="#FF0000" d="M149.958,434.796c0.024,1.428,0.924,2.016,1.98,2.016c0.756,0,1.224-0.132,1.608-0.288l0.192,0.744
				c-0.372,0.168-1.02,0.372-1.944,0.372c-1.776,0-2.856-1.188-2.856-2.928c0-1.765,1.044-3.145,2.736-3.145
				c1.896,0,2.388,1.668,2.388,2.736c0,0.216-0.012,0.384-0.036,0.504L149.958,434.796z M153.042,434.039
				c0.012-0.659-0.276-1.716-1.452-1.716c-1.08,0-1.536,0.984-1.62,1.716H153.042z"/>
			<path fill="#FF0000" d="M154.734,438.972c0.84-1.188,1.5-2.736,1.5-4.896s-0.648-3.684-1.5-4.884h0.816
				c0.756,0.984,1.572,2.532,1.572,4.884c-0.012,2.353-0.816,3.876-1.572,4.896H154.734z"/>
		</g>
		<g>
			<path fill="#0A50A1" d="M215,412.706c0.648-0.096,1.404-0.168,2.232-0.168c1.5,0,2.568,0.336,3.276,0.996
				c0.732,0.66,1.152,1.608,1.152,2.916c0,1.32-0.42,2.4-1.164,3.145c-0.768,0.756-2.016,1.164-3.588,1.164
				c-0.756,0-1.368-0.024-1.908-0.097V412.706z M216.056,419.87c0.264,0.049,0.648,0.049,1.056,0.049
				c2.232,0.012,3.444-1.248,3.444-3.433c0.012-1.932-1.068-3.12-3.276-3.12c-0.54,0-0.948,0.048-1.224,0.108V419.87z"/>
			<path fill="#0A50A1" d="M225.404,420.818c-1.56,0-2.784-1.151-2.784-2.988c0-1.943,1.284-3.084,2.88-3.084
				c1.668,0,2.796,1.212,2.796,2.977c0,2.16-1.5,3.096-2.88,3.096H225.404z M225.44,420.026c1.008,0,1.764-0.948,1.764-2.268
				c0-0.984-0.492-2.221-1.74-2.221c-1.236,0-1.776,1.152-1.776,2.257c0,1.271,0.72,2.231,1.74,2.231H225.44z"/>
			<path fill="#0A50A1" d="M229.628,416.45c0-0.611-0.024-1.092-0.048-1.571h0.924l0.048,0.936h0.036
				c0.324-0.552,0.864-1.068,1.836-1.068c0.78,0,1.38,0.48,1.632,1.164h0.024c0.18-0.336,0.42-0.575,0.66-0.756
				c0.348-0.264,0.72-0.408,1.272-0.408c0.78,0,1.92,0.504,1.92,2.521v3.42H236.9v-3.288c0-1.128-0.42-1.788-1.26-1.788
				c-0.612,0-1.068,0.444-1.26,0.948c-0.048,0.156-0.084,0.348-0.084,0.528v3.6h-1.032v-3.48c0-0.936-0.408-1.596-1.212-1.596
				c-0.648,0-1.14,0.528-1.308,1.056c-0.06,0.156-0.084,0.337-0.084,0.517v3.504h-1.032V416.45z"/>
			<path fill="#0A50A1" d="M240.14,413.811c-0.396,0-0.66-0.313-0.66-0.685c0-0.371,0.276-0.672,0.684-0.672
				c0.408,0,0.672,0.301,0.672,0.672c0,0.372-0.264,0.685-0.684,0.685H240.14z M239.636,420.687v-5.808h1.056v5.808H239.636z"/>
			<path fill="#0A50A1" d="M242.444,416.45c0-0.611-0.012-1.092-0.048-1.571h0.936l0.06,0.947h0.024c0.288-0.54,0.96-1.08,1.92-1.08
				c0.804,0,2.052,0.48,2.052,2.473v3.468h-1.056v-3.348c0-0.937-0.348-1.729-1.344-1.729c-0.684,0-1.224,0.492-1.416,1.08
				c-0.048,0.132-0.072,0.324-0.072,0.492v3.504h-1.056V416.45z"/>
			<path fill="#0A50A1" d="M253.196,419.295c0,0.504,0.024,0.995,0.084,1.392h-0.948l-0.096-0.732H252.2
				c-0.312,0.456-0.948,0.864-1.776,0.864c-1.176,0-1.776-0.828-1.776-1.668c0-1.404,1.248-2.172,3.492-2.16v-0.12
				c0-0.479-0.132-1.355-1.32-1.344c-0.552,0-1.116,0.156-1.524,0.432l-0.24-0.708c0.48-0.3,1.188-0.504,1.92-0.504
				c1.788,0,2.22,1.212,2.22,2.376V419.295z M252.164,417.723c-1.152-0.024-2.46,0.18-2.46,1.308c0,0.696,0.456,1.008,0.984,1.008
				c0.768,0,1.26-0.479,1.428-0.972c0.036-0.107,0.048-0.228,0.048-0.336V417.723z"/>
			<path fill="#0A50A1" d="M254.888,416.45c0-0.611-0.012-1.092-0.048-1.571h0.936l0.06,0.947h0.024c0.288-0.54,0.96-1.08,1.92-1.08
				c0.804,0,2.052,0.48,2.052,2.473v3.468h-1.056v-3.348c0-0.937-0.348-1.729-1.344-1.729c-0.684,0-1.224,0.492-1.416,1.08
				c-0.048,0.132-0.072,0.324-0.072,0.492v3.504h-1.056V416.45z"/>
			<path fill="#0A50A1" d="M262.771,413.486v1.393h1.512v0.804h-1.512v3.132c0,0.72,0.204,1.128,0.792,1.128
				c0.288,0,0.456-0.023,0.612-0.072l0.048,0.805c-0.204,0.071-0.528,0.144-0.936,0.144c-0.492,0-0.888-0.168-1.14-0.444
				c-0.288-0.323-0.408-0.84-0.408-1.523v-3.168h-0.9v-0.804h0.9v-1.068L262.771,413.486z"/>
			<path fill="#0A50A1" d="M217.256,426.858c-0.876,1.188-1.5,2.736-1.5,4.92c0,2.136,0.66,3.66,1.5,4.86h-0.816
				c-0.756-0.996-1.572-2.532-1.572-4.872c0.012-2.353,0.816-3.9,1.572-4.908H217.256z"/>
			<path fill="#0A50A1" d="M218.42,427.219c0.528-0.108,1.296-0.181,2.004-0.181c1.116,0,1.848,0.217,2.352,0.673
				c0.396,0.348,0.636,0.899,0.636,1.535c0,1.057-0.684,1.765-1.524,2.053v0.036c0.612,0.216,0.984,0.792,1.188,1.632
				c0.264,1.128,0.456,1.907,0.612,2.22h-1.08c-0.132-0.228-0.312-0.924-0.528-1.932c-0.24-1.116-0.684-1.536-1.632-1.572h-0.984
				v3.504h-1.044V427.219z M219.464,430.891h1.068c1.116,0,1.824-0.612,1.824-1.536c0-1.044-0.756-1.5-1.86-1.5
				c-0.504,0-0.852,0.048-1.032,0.096V430.891z"/>
			<path fill="#0A50A1" d="M225.476,432.463c0.024,1.428,0.924,2.016,1.98,2.016c0.756,0,1.224-0.132,1.608-0.288l0.192,0.744
				c-0.372,0.168-1.02,0.372-1.944,0.372c-1.776,0-2.856-1.188-2.856-2.928c0-1.765,1.044-3.145,2.736-3.145
				c1.896,0,2.388,1.668,2.388,2.736c0,0.216-0.012,0.384-0.036,0.504L225.476,432.463z M228.56,431.706
				c0.012-0.659-0.276-1.716-1.452-1.716c-1.08,0-1.536,0.984-1.62,1.716H228.56z"/>
			<path fill="#0A50A1" d="M235.028,434.982c-0.276,0.132-0.888,0.336-1.668,0.336c-1.752,0-2.892-1.188-2.892-2.976
				s1.224-3.097,3.12-3.097c0.624,0,1.176,0.156,1.464,0.313l-0.24,0.804c-0.252-0.132-0.648-0.275-1.224-0.275
				c-1.332,0-2.052,0.995-2.052,2.208c0,1.344,0.864,2.172,2.016,2.172c0.6,0,0.996-0.145,1.296-0.276L235.028,434.982z"/>
			<path fill="#0A50A1" d="M236.768,428.311c-0.396,0-0.66-0.313-0.66-0.685c0-0.371,0.276-0.672,0.684-0.672
				c0.408,0,0.672,0.301,0.672,0.672c0,0.372-0.264,0.685-0.684,0.685H236.768z M236.264,435.187v-5.808h1.056v5.808H236.264z"/>
			<path fill="#0A50A1" d="M240.344,427.986v1.393h1.512v0.804h-1.512v3.132c0,0.72,0.204,1.128,0.792,1.128
				c0.288,0,0.456-0.023,0.612-0.072l0.048,0.805c-0.204,0.071-0.528,0.144-0.936,0.144c-0.492,0-0.888-0.168-1.14-0.444
				c-0.288-0.323-0.408-0.84-0.408-1.523v-3.168h-0.9v-0.804h0.9v-1.068L240.344,427.986z"/>
			<path fill="#0A50A1" d="M243.547,428.311c-0.396,0-0.66-0.313-0.66-0.685c0-0.371,0.276-0.672,0.684-0.672
				c0.408,0,0.672,0.301,0.672,0.672c0,0.372-0.264,0.685-0.684,0.685H243.547z M243.043,435.187v-5.808h1.056v5.808H243.043z"/>
			<path fill="#0A50A1" d="M245.852,430.95c0-0.611-0.012-1.092-0.048-1.571h0.936l0.06,0.947h0.024c0.288-0.54,0.96-1.08,1.92-1.08
				c0.804,0,2.052,0.48,2.052,2.473v3.468h-1.056v-3.348c0-0.937-0.348-1.729-1.344-1.729c-0.684,0-1.224,0.492-1.416,1.08
				c-0.048,0.132-0.072,0.324-0.072,0.492v3.504h-1.056V430.95z"/>
			<path fill="#0A50A1" d="M257.479,434.335c0,1.344-0.276,2.147-0.828,2.664c-0.576,0.516-1.392,0.695-2.124,0.695
				c-0.696,0-1.464-0.168-1.932-0.479l0.264-0.816c0.384,0.252,0.984,0.468,1.704,0.468c1.08,0,1.872-0.563,1.872-2.04v-0.636
				h-0.024c-0.312,0.54-0.948,0.972-1.848,0.972c-1.44,0-2.472-1.224-2.472-2.844c0-1.968,1.284-3.072,2.628-3.072
				c1.008,0,1.548,0.517,1.812,0.996h0.024l0.036-0.863h0.936c-0.036,0.407-0.048,0.876-0.048,1.584V434.335z M256.423,431.658
				c0-0.168-0.012-0.323-0.06-0.468c-0.192-0.624-0.696-1.128-1.476-1.128c-1.008,0-1.728,0.852-1.728,2.208
				c0,1.128,0.588,2.088,1.716,2.088c0.66,0,1.248-0.408,1.464-1.092c0.06-0.168,0.084-0.372,0.084-0.564V431.658z"/>
			<path fill="#0A50A1" d="M263.035,427.986v1.393h1.512v0.804h-1.512v3.132c0,0.72,0.204,1.128,0.792,1.128
				c0.288,0,0.456-0.023,0.612-0.072l0.048,0.805c-0.204,0.071-0.528,0.144-0.936,0.144c-0.492,0-0.888-0.168-1.14-0.444
				c-0.288-0.323-0.408-0.84-0.408-1.523v-3.168h-0.9v-0.804h0.9v-1.068L263.035,427.986z"/>
			<path fill="#0A50A1" d="M268.027,435.318c-1.56,0-2.784-1.151-2.784-2.988c0-1.943,1.284-3.084,2.88-3.084
				c1.668,0,2.796,1.212,2.796,2.977c0,2.16-1.5,3.096-2.88,3.096H268.027z M268.063,434.526c1.008,0,1.764-0.948,1.764-2.268
				c0-0.984-0.492-2.221-1.74-2.221c-1.236,0-1.776,1.152-1.776,2.257c0,1.271,0.72,2.231,1.74,2.231H268.063z"/>
			<path fill="#0A50A1" d="M272.251,430.95c0-0.611-0.012-1.092-0.048-1.571h0.936l0.06,0.947h0.024c0.288-0.54,0.96-1.08,1.92-1.08
				c0.804,0,2.052,0.48,2.052,2.473v3.468h-1.056v-3.348c0-0.937-0.348-1.729-1.344-1.729c-0.684,0-1.224,0.492-1.416,1.08
				c-0.048,0.132-0.072,0.324-0.072,0.492v3.504h-1.056V430.95z"/>
			<path fill="#0A50A1" d="M279.511,432.463c0.024,1.428,0.924,2.016,1.98,2.016c0.756,0,1.224-0.132,1.608-0.288l0.192,0.744
				c-0.372,0.168-1.02,0.372-1.944,0.372c-1.776,0-2.856-1.188-2.856-2.928c0-1.765,1.044-3.145,2.736-3.145
				c1.896,0,2.388,1.668,2.388,2.736c0,0.216-0.012,0.384-0.036,0.504L279.511,432.463z M282.595,431.706
				c0.012-0.659-0.276-1.716-1.452-1.716c-1.08,0-1.536,0.984-1.62,1.716H282.595z"/>
			<path fill="#0A50A1" d="M284.287,436.639c0.84-1.188,1.5-2.736,1.5-4.896s-0.648-3.684-1.5-4.884h0.816
				c0.756,0.984,1.572,2.532,1.572,4.884c-0.012,2.353-0.816,3.876-1.572,4.896H284.287z"/>
		</g>
		<g>
			<path d="M5.056,206.265v3.384h3.912v-3.384h1.056v8.088H8.968v-3.792H5.056v3.792H4v-8.088H5.056z"/>
			<path d="M13.948,210.309v-0.72h6.192v0.72H13.948z M13.948,212.661v-0.72h6.192v0.72H13.948z"/>
			<path d="M25.12,206.265v3.384h3.912v-3.384h1.056v8.088h-1.056v-3.792H25.12v3.792h-1.056v-8.088H25.12z"/>
			<path d="M35.956,212.96c0,0.504,0.024,0.996,0.084,1.392h-0.948l-0.096-0.732h-0.036c-0.312,0.456-0.948,0.864-1.776,0.864
				c-1.176,0-1.776-0.828-1.776-1.668c0-1.404,1.248-2.172,3.492-2.16v-0.12c0-0.48-0.132-1.356-1.32-1.344
				c-0.552,0-1.116,0.156-1.524,0.432l-0.24-0.708c0.48-0.3,1.188-0.504,1.92-0.504c1.788,0,2.22,1.212,2.22,2.376V212.96z
				 M34.924,211.389c-1.152-0.024-2.46,0.18-2.46,1.308c0,0.696,0.456,1.008,0.984,1.008c0.768,0,1.26-0.48,1.428-0.972
				c0.036-0.108,0.048-0.228,0.048-0.336V211.389z"/>
			<path d="M37.647,205.833h1.056v8.52h-1.056V205.833z"/>
			<path d="M40.551,214.353v-5.004h-0.804v-0.804h0.804v-0.276c0-0.816,0.192-1.56,0.684-2.028c0.396-0.384,0.924-0.54,1.404-0.54
				c0.384,0,0.696,0.084,0.9,0.168l-0.132,0.816c-0.168-0.072-0.372-0.132-0.684-0.132c-0.888,0-1.128,0.792-1.128,1.68v0.312H43
				v0.804h-1.392v5.004H40.551z"/>
			<path d="M46.407,213.081c0.468,0.3,1.14,0.528,1.86,0.528c1.068,0,1.692-0.552,1.692-1.38c0-0.744-0.432-1.188-1.524-1.596
				c-1.32-0.48-2.136-1.176-2.136-2.304c0-1.26,1.044-2.196,2.616-2.196c0.816,0,1.428,0.192,1.776,0.396l-0.288,0.852
				c-0.252-0.156-0.792-0.384-1.524-0.384c-1.104,0-1.524,0.66-1.524,1.212c0,0.756,0.492,1.128,1.608,1.56
				c1.368,0.54,2.052,1.188,2.052,2.376c0,1.248-0.912,2.34-2.82,2.34c-0.78,0-1.632-0.24-2.064-0.528L46.407,213.081z"/>
			<path d="M53.643,207.152v1.392h1.512v0.804h-1.512v3.132c0,0.72,0.204,1.128,0.792,1.128c0.288,0,0.456-0.024,0.612-0.072
				l0.048,0.804c-0.204,0.072-0.528,0.144-0.936,0.144c-0.492,0-0.888-0.168-1.14-0.444c-0.288-0.324-0.408-0.84-0.408-1.524v-3.168
				h-0.9v-0.804h0.9v-1.068L53.643,207.152z"/>
			<path d="M56.871,211.628c0.024,1.428,0.924,2.016,1.98,2.016c0.756,0,1.224-0.132,1.608-0.288l0.192,0.744
				c-0.372,0.168-1.02,0.372-1.944,0.372c-1.776,0-2.856-1.188-2.856-2.928c0-1.764,1.044-3.144,2.736-3.144
				c1.896,0,2.388,1.668,2.388,2.736c0,0.216-0.012,0.384-0.036,0.504L56.871,211.628z M59.955,210.873
				c0.012-0.66-0.276-1.716-1.452-1.716c-1.08,0-1.536,0.984-1.62,1.716H59.955z"/>
			<path d="M62.283,210.44c0-0.744-0.012-1.344-0.048-1.896h0.948l0.06,0.996h0.024c0.42-0.72,1.116-1.128,2.052-1.128
				c1.416,0,2.472,1.188,2.472,2.952c0,2.088-1.284,3.12-2.64,3.12c-0.78,0-1.44-0.336-1.788-0.912h-0.024v3.156h-1.056V210.44z
				 M63.339,211.988c0,0.144,0.012,0.3,0.048,0.432c0.18,0.732,0.828,1.236,1.572,1.236c1.116,0,1.764-0.912,1.764-2.244
				c0-1.164-0.6-2.16-1.716-2.16c-0.72,0-1.404,0.504-1.608,1.296c-0.024,0.144-0.06,0.3-0.06,0.432V211.988z"/>
			<path d="M5.332,228.853l-2.052-8.088h1.104l0.96,4.092c0.24,1.02,0.456,2.016,0.6,2.796h0.024
				c0.132-0.804,0.384-1.764,0.66-2.808l1.08-4.08H8.8l0.984,4.104c0.228,0.972,0.444,1.92,0.564,2.772h0.024
				c0.168-0.888,0.396-1.788,0.648-2.796l1.068-4.08h1.068l-2.292,8.088H9.772l-1.02-4.2c-0.252-1.044-0.42-1.836-0.528-2.652H8.2
				c-0.132,0.816-0.324,1.596-0.624,2.64l-1.152,4.212H5.332z"/>
			<path d="M16.276,224.809v-0.72h6.192v0.72H16.276z M16.276,227.161v-0.72h6.192v0.72H16.276z"/>
			<path d="M27.292,228.853l-2.052-8.088h1.104l0.96,4.092c0.24,1.02,0.456,2.016,0.6,2.796h0.024
				c0.132-0.804,0.384-1.764,0.66-2.808l1.08-4.08h1.092l0.984,4.104c0.228,0.972,0.444,1.92,0.564,2.772h0.024
				c0.168-0.888,0.396-1.788,0.648-2.796l1.068-4.08h1.068l-2.292,8.088h-1.092l-1.02-4.2c-0.252-1.044-0.42-1.836-0.528-2.652
				H30.16c-0.132,0.816-0.324,1.596-0.624,2.64l-1.152,4.212H27.292z"/>
			<path d="M36.028,220.333h1.056v3.624h0.024c0.168-0.3,0.432-0.576,0.756-0.744c0.312-0.192,0.684-0.3,1.08-0.3
				c0.78,0,2.028,0.48,2.028,2.484v3.456h-1.056v-3.336c0-0.948-0.348-1.728-1.344-1.728c-0.684,0-1.212,0.48-1.416,1.056
				c-0.06,0.144-0.072,0.3-0.072,0.504v3.504h-1.056V220.333z"/>
			<path d="M45.052,228.984c-1.56,0-2.784-1.152-2.784-2.988c0-1.944,1.284-3.084,2.88-3.084c1.668,0,2.796,1.212,2.796,2.976
				c0,2.16-1.5,3.096-2.88,3.096H45.052z M45.088,228.192c1.008,0,1.764-0.948,1.764-2.268c0-0.984-0.492-2.22-1.74-2.22
				c-1.236,0-1.776,1.152-1.776,2.256c0,1.272,0.72,2.232,1.74,2.232H45.088z"/>
			<path d="M49.276,220.333h1.056v8.52h-1.056V220.333z"/>
			<path d="M52.684,226.128c0.024,1.428,0.924,2.016,1.98,2.016c0.756,0,1.224-0.132,1.608-0.288l0.192,0.744
				c-0.372,0.168-1.02,0.372-1.944,0.372c-1.776,0-2.856-1.188-2.856-2.928c0-1.764,1.044-3.144,2.736-3.144
				c1.896,0,2.388,1.668,2.388,2.736c0,0.216-0.012,0.384-0.036,0.504L52.684,226.128z M55.768,225.373
				c0.012-0.66-0.276-1.716-1.452-1.716c-1.08,0-1.536,0.984-1.62,1.716H55.768z"/>
			<path d="M60.543,227.581c0.468,0.3,1.14,0.528,1.86,0.528c1.068,0,1.692-0.552,1.692-1.38c0-0.744-0.432-1.188-1.524-1.596
				c-1.32-0.48-2.136-1.176-2.136-2.304c0-1.26,1.044-2.196,2.616-2.196c0.816,0,1.428,0.192,1.776,0.396l-0.288,0.852
				c-0.252-0.156-0.792-0.384-1.524-0.384c-1.104,0-1.524,0.66-1.524,1.212c0,0.756,0.492,1.128,1.608,1.56
				c1.368,0.54,2.052,1.188,2.052,2.376c0,1.248-0.912,2.34-2.82,2.34c-0.78,0-1.632-0.24-2.064-0.528L60.543,227.581z"/>
			<path d="M67.779,221.652v1.392h1.512v0.804h-1.512v3.132c0,0.72,0.204,1.128,0.792,1.128c0.288,0,0.456-0.024,0.612-0.072
				l0.048,0.804c-0.204,0.072-0.528,0.144-0.936,0.144c-0.492,0-0.888-0.168-1.14-0.444c-0.288-0.324-0.408-0.84-0.408-1.524v-3.168
				h-0.9v-0.804h0.9v-1.068L67.779,221.652z"/>
			<path d="M71.007,226.128c0.024,1.428,0.924,2.016,1.98,2.016c0.756,0,1.224-0.132,1.608-0.288l0.192,0.744
				c-0.372,0.168-1.02,0.372-1.944,0.372c-1.776,0-2.856-1.188-2.856-2.928c0-1.764,1.044-3.144,2.736-3.144
				c1.896,0,2.388,1.668,2.388,2.736c0,0.216-0.012,0.384-0.036,0.504L71.007,226.128z M74.091,225.373
				c0.012-0.66-0.276-1.716-1.452-1.716c-1.08,0-1.536,0.984-1.62,1.716H74.091z"/>
			<path d="M76.419,224.94c0-0.744-0.012-1.344-0.048-1.896h0.948l0.06,0.996h0.024c0.42-0.72,1.116-1.128,2.052-1.128
				c1.416,0,2.472,1.188,2.472,2.952c0,2.088-1.284,3.12-2.64,3.12c-0.78,0-1.44-0.336-1.788-0.912h-0.024v3.156h-1.056V224.94z
				 M77.475,226.488c0,0.144,0.012,0.3,0.048,0.432c0.18,0.732,0.828,1.236,1.572,1.236c1.116,0,1.764-0.912,1.764-2.244
				c0-1.164-0.6-2.16-1.716-2.16c-0.72,0-1.404,0.504-1.608,1.296c-0.024,0.144-0.06,0.3-0.06,0.432V226.488z"/>
		</g>
		<g>
			<path d="M81.431,67.667c0-0.984,0.72-1.56,1.368-1.872c-0.528-0.264-1.128-0.792-1.104-1.512c0-0.792,0.456-1.44,1.08-1.776
				c-1.728-0.216-3.84-1.152-3.984-3.312c-0.096-1.536,0.6-3.24,2.52-3.36c1.128-0.072,2.52,0.864,2.616,2.232
				c0.096,1.176-0.696,2.4-2.664,2.952c0.288,0.456,1.248,0.96,2.592,0.96c1.392-0.024,2.832-0.96,3.504-2.208
				c0.432-0.792,0.408-2.28,0.216-3.624c-0.048-0.456-0.648-4.08-0.624-4.08c-1.8,0.312-4.224,0.12-5.232-0.36
				c-4.944-2.328-5.736-5.376-5.952-8.448c-0.24-3.36,1.872-6.792,3.888-8.688c1.152-1.08,2.376-2.112,3.888-3.264
				c-0.048-0.816-0.264-1.176-0.336-2.376c-0.048-0.504-0.336-2.856,0.168-5.544c0.312-1.632,2.304-5.4,3.72-5.424
				c1.08-0.024,2.712,4.248,2.76,6.432c0.096,3.336-0.696,4.848-1.704,6.576c-0.48,0.864-1.008,1.464-1.584,2.16
				c-0.552,0.672-1.2,1.08-1.8,1.608c0,0,0.744,4.344,0.768,4.68c1.56-0.216,3.432,0.336,4.104,0.84
				c1.704,1.248,2.352,3,2.472,4.704c0.192,2.712-1.296,5.568-4.584,6.936c0,0,0.528,3.48,0.624,4.176
				c0.288,1.896,0.24,3.096-0.168,3.864c-0.528,0.96-1.296,1.872-2.544,2.352l-0.816,0.072c0.768,0.264,1.392,0.912,1.368,1.776
				c0,0.576-0.48,1.176-0.936,1.44c0.504,0.312,1.248,0.96,1.224,1.92c-0.024,1.152-1.2,2.04-2.4,2.016
				C82.343,69.491,81.455,68.603,81.431,67.667z M85.415,42.755c-2.616,0.096-3.288,2.112-3.24,3.264
				c0.072,1.152,1.032,2.496,1.896,2.952c-0.096,0.072-0.216,0.264-0.216,0.264c-1.008-0.48-1.848-1.248-2.064-1.56
				c-0.672-0.912-0.96-1.464-1.08-2.88c-0.096-1.32,0.648-3.096,2.256-4.344c0.816-0.624,1.248-0.744,1.944-0.936l-0.72-4.344
				c-0.72,0.456-3.792,2.904-5.088,4.92c-1.152,1.8-1.848,3.264-1.728,5.016c0.312,4.032,4.68,7.296,9.432,6.168
				C86.831,51.275,85.391,42.755,85.415,42.755z M83.375,66.155c-0.576,0.12-1.008,0.792-1.008,1.416
				c-0.024,0.744,0.696,1.464,1.512,1.464c0.936,0.024,1.248-0.624,1.272-1.248c0-0.696-0.552-1.08-1.152-1.344L83.375,66.155z
				 M82.703,63.803c0,0.528,0.432,0.84,0.888,1.056c0.12,0.048,0.216,0.096,0.312,0.12l0.624,0.264
				c0.456-0.216,0.696-0.696,0.696-1.152c0-0.672-0.576-1.368-1.296-1.392C83.183,62.675,82.727,63.179,82.703,63.803z
				 M87.455,21.659c-2.472,0.024-3.864,5.184-3.312,9.168c2.064-1.656,4.92-4.728,4.752-7.08
				C88.847,22.979,88.511,21.635,87.455,21.659z M86.039,42.731l1.368,8.352c2.76-0.912,2.88-3.312,2.784-4.704
				C90.095,45.179,89.567,42.563,86.039,42.731z"/>
		</g>
		<g>
			<path fill="none" stroke="#000000" d="M68.973,24.518H338.14"/>
			<path fill="none" stroke="#000000" d="M68.973,38.63H338.14"/>
			<path fill="none" stroke="#000000" d="M69.106,45.752h269.168"/>
			<path fill="none" stroke="#000000" d="M68.9,53.136h269.167"/>
			<path fill="none" stroke="#000000" d="M68.9,31.772h269.167"/>
		</g>
		<g>
			<path d="M269.132,32.608v-3.912h0.696v3.672l2.352-0.768v-3.504h0.696v3.288l0.936-0.312v2.496l-0.936,0.312v3.552l0.936-0.288
				v2.472l-0.936,0.312v3.912h-0.696v-3.696l-2.352,0.768v3.552h-0.696v-3.312l-1.032,0.336v-2.496l1.032-0.336v-3.576l-1.032,0.336
				v-2.472L269.132,32.608z M269.828,34.865v3.576l2.352-0.768v-3.576L269.828,34.865z"/>
		</g>
		<g>
			<path d="M132.804,50.137c2.664,0.024,5.184,1.032,5.376,3.264c0.144,1.632-2.016,3.12-4.68,3.12
				c-2.688-0.024-5.184-1.008-5.4-3.24C127.956,51.625,130.14,50.137,132.804,50.137z M133.452,55.969
				c1.152,0,1.896-1.104,1.776-1.992c-0.264-1.752-0.864-3.168-2.448-3.168c-1.152,0-1.824,1.128-1.68,2.016
				C131.364,54.577,131.868,55.969,133.452,55.969z"/>
		</g>
		<g>
			<path fill="#FF0000" d="M106.145,130.641c2.664,0.024,5.184,1.032,5.376,3.264c0.144,1.632-2.016,3.12-4.68,3.12
				c-2.688-0.024-5.184-1.008-5.4-3.24C101.297,132.128,103.481,130.641,106.145,130.641z M106.793,136.473
				c1.152,0,1.896-1.104,1.776-1.992c-0.264-1.752-0.864-3.168-2.448-3.168c-1.152,0-1.824,1.128-1.68,2.016
				C104.705,135.081,105.209,136.473,106.793,136.473z"/>
		</g>
		<path fill="#FF0000" stroke="#FF0000" d="M99.433,134.353H114.1"/>
		<g>
			<path d="M164.804,46.137c2.664,0.024,5.184,1.032,5.376,3.264c0.144,1.632-2.016,3.12-4.68,3.12
				c-2.688-0.024-5.184-1.008-5.4-3.24C159.956,47.625,162.14,46.137,164.804,46.137z M165.452,51.969
				c1.152,0,1.896-1.104,1.776-1.992c-0.264-1.752-0.864-3.168-2.448-3.168c-1.152,0-1.824,1.128-1.68,2.016
				C163.364,50.577,163.868,51.969,165.452,51.969z"/>
		</g>
		<g>
			<path d="M248.804,35.137c2.664,0.024,5.184,1.032,5.376,3.264c0.144,1.632-2.016,3.12-4.68,3.12
				c-2.688-0.024-5.184-1.008-5.4-3.24C243.956,36.625,246.14,35.137,248.804,35.137z M249.452,40.969
				c1.152,0,1.896-1.104,1.776-1.992c-0.264-1.752-0.864-3.168-2.448-3.168c-1.152,0-1.824,1.128-1.68,2.016
				C247.364,39.577,247.868,40.969,249.452,40.969z"/>
		</g>
		<g>
			<path d="M280.804,32.137c2.664,0.024,5.184,1.032,5.376,3.264c0.144,1.632-2.016,3.12-4.68,3.12
				c-2.688-0.024-5.184-1.008-5.4-3.24C275.956,33.625,278.14,32.137,280.804,32.137z M281.452,37.969
				c1.152,0,1.896-1.104,1.776-1.992c-0.264-1.752-0.864-3.168-2.448-3.168c-1.152,0-1.824,1.128-1.68,2.016
				C279.364,36.577,279.868,37.969,281.452,37.969z"/>
		</g>
		<g>
			<path d="M153.132,45.608v-3.912h0.696v3.672l2.352-0.768v-3.504h0.696v3.288l0.936-0.312v2.496l-0.936,0.312v3.552l0.936-0.288
				v2.472l-0.936,0.312v3.912h-0.696v-3.696l-2.352,0.768v3.552h-0.696v-3.312l-1.032,0.336v-2.496l1.032-0.336v-3.576l-1.032,0.336
				v-2.472L153.132,45.608z M153.828,47.865v3.576l2.352-0.768v-3.576L153.828,47.865z"/>
		</g>
		<g>
			<path fill="#FF0000" d="M106.804,53.137c2.664,0.024,5.184,1.032,5.376,3.264c0.144,1.632-2.016,3.12-4.68,3.12
				c-2.688-0.024-5.184-1.008-5.4-3.24C101.956,54.625,104.14,53.137,106.804,53.137z M107.452,58.969
				c1.152,0,1.896-1.104,1.776-1.992c-0.264-1.752-0.864-3.168-2.448-3.168c-1.152,0-1.824,1.128-1.68,2.016
				C105.364,57.577,105.868,58.969,107.452,58.969z"/>
		</g>
		<g>
			<path fill="#FF0000" d="M308.804,29.137c2.664,0.024,5.184,1.032,5.376,3.264c0.144,1.632-2.016,3.12-4.68,3.12
				c-2.688-0.024-5.184-1.008-5.4-3.24C303.956,30.625,306.14,29.137,308.804,29.137z M309.452,34.969
				c1.152,0,1.896-1.104,1.776-1.992c-0.264-1.752-0.864-3.168-2.448-3.168c-1.152,0-1.824,1.128-1.68,2.016
				C307.364,33.577,307.868,34.969,309.452,34.969z"/>
		</g>
		<g>
			<path d="M82.431,141.667c0-0.984,0.72-1.56,1.368-1.872c-0.528-0.264-1.128-0.792-1.104-1.512c0-0.792,0.456-1.44,1.08-1.776
				c-1.728-0.216-3.84-1.152-3.984-3.312c-0.096-1.536,0.6-3.24,2.52-3.36c1.128-0.072,2.52,0.864,2.616,2.232
				c0.096,1.176-0.696,2.4-2.664,2.952c0.288,0.456,1.248,0.96,2.592,0.96c1.392-0.024,2.832-0.96,3.504-2.208
				c0.432-0.792,0.408-2.28,0.216-3.624c-0.048-0.456-0.648-4.08-0.624-4.08c-1.8,0.312-4.224,0.12-5.232-0.36
				c-4.944-2.328-5.736-5.376-5.952-8.448c-0.24-3.36,1.872-6.792,3.888-8.688c1.152-1.08,2.376-2.112,3.888-3.264
				c-0.048-0.816-0.264-1.176-0.336-2.376c-0.048-0.504-0.336-2.856,0.168-5.544c0.312-1.632,2.304-5.4,3.72-5.424
				c1.08-0.024,2.712,4.248,2.76,6.432c0.096,3.336-0.696,4.848-1.704,6.576c-0.48,0.864-1.008,1.464-1.584,2.16
				c-0.552,0.672-1.2,1.08-1.8,1.608c0,0,0.744,4.344,0.768,4.68c1.56-0.216,3.432,0.336,4.104,0.84
				c1.704,1.248,2.352,3,2.472,4.704c0.192,2.712-1.296,5.568-4.584,6.936c0,0,0.528,3.48,0.624,4.176
				c0.288,1.896,0.24,3.096-0.168,3.864c-0.528,0.96-1.296,1.872-2.544,2.352l-0.816,0.072c0.768,0.264,1.392,0.912,1.368,1.776
				c0,0.576-0.48,1.176-0.936,1.44c0.504,0.312,1.248,0.96,1.224,1.92c-0.024,1.152-1.2,2.04-2.4,2.016
				C83.343,143.491,82.455,142.603,82.431,141.667z M86.415,116.755c-2.616,0.096-3.288,2.112-3.24,3.264
				c0.072,1.152,1.032,2.496,1.896,2.952c-0.096,0.072-0.216,0.264-0.216,0.264c-1.008-0.48-1.848-1.248-2.064-1.56
				c-0.672-0.912-0.96-1.464-1.08-2.88c-0.096-1.32,0.648-3.096,2.256-4.344c0.816-0.624,1.248-0.744,1.944-0.936l-0.72-4.344
				c-0.72,0.456-3.792,2.904-5.088,4.92c-1.152,1.8-1.848,3.264-1.728,5.016c0.312,4.032,4.68,7.296,9.432,6.168
				C87.831,125.275,86.391,116.755,86.415,116.755z M84.375,140.155c-0.576,0.12-1.008,0.792-1.008,1.416
				c-0.024,0.744,0.696,1.464,1.512,1.464c0.936,0.024,1.248-0.624,1.272-1.248c0-0.696-0.552-1.08-1.152-1.344L84.375,140.155z
				 M83.703,137.803c0,0.528,0.432,0.84,0.888,1.056c0.12,0.048,0.216,0.096,0.312,0.12l0.624,0.264
				c0.456-0.216,0.696-0.696,0.696-1.152c0-0.672-0.576-1.368-1.296-1.392C84.183,136.675,83.727,137.179,83.703,137.803z
				 M88.455,95.659c-2.472,0.024-3.864,5.184-3.312,9.168c2.064-1.656,4.92-4.728,4.752-7.08
				C89.847,96.979,89.511,95.635,88.455,95.659z M87.039,116.731l1.368,8.352c2.76-0.912,2.88-3.312,2.784-4.704
				C91.095,119.179,90.567,116.563,87.039,116.731z"/>
		</g>
		<g>
			<path fill="none" stroke="#000000" d="M69.453,98.518h269.168"/>
			<path fill="none" stroke="#000000" d="M69.453,112.63h269.168"/>
			<path fill="none" stroke="#000000" d="M69.586,119.752h269.168"/>
			<path fill="none" stroke="#000000" d="M69.38,127.136h269.167"/>
			<path fill="none" stroke="#000000" d="M69.38,105.772h269.167"/>
		</g>
		<g>
			<path d="M132.804,127.137c2.664,0.024,5.184,1.032,5.376,3.264c0.144,1.632-2.016,3.12-4.68,3.12
				c-2.688-0.024-5.184-1.008-5.4-3.24C127.956,128.625,130.14,127.137,132.804,127.137z M133.452,132.969
				c1.152,0,1.896-1.104,1.776-1.992c-0.264-1.752-0.864-3.168-2.448-3.168c-1.152,0-1.824,1.128-1.68,2.016
				C131.364,131.577,131.868,132.969,133.452,132.969z"/>
		</g>
		<g>
			<path d="M160.804,124.137c2.664,0.024,5.184,1.032,5.376,3.264c0.144,1.632-2.016,3.12-4.68,3.12
				c-2.688-0.024-5.184-1.008-5.4-3.24C155.956,125.625,158.14,124.137,160.804,124.137z M161.452,129.969
				c1.152,0,1.896-1.104,1.776-1.992c-0.264-1.752-0.864-3.168-2.448-3.168c-1.152,0-1.824,1.128-1.68,2.016
				C159.364,128.577,159.868,129.969,161.452,129.969z"/>
		</g>
		<g>
			<path d="M249.804,113.137c2.664,0.024,5.184,1.032,5.376,3.264c0.144,1.632-2.016,3.12-4.68,3.12
				c-2.688-0.024-5.184-1.008-5.4-3.24C244.956,114.625,247.14,113.137,249.804,113.137z M250.452,118.969
				c1.152,0,1.896-1.104,1.776-1.992c-0.264-1.752-0.864-3.168-2.448-3.168c-1.152,0-1.824,1.128-1.68,2.016
				C248.364,117.577,248.868,118.969,250.452,118.969z"/>
		</g>
		<g>
			<path d="M281.804,109.137c2.664,0.024,5.184,1.032,5.376,3.264c0.144,1.632-2.016,3.12-4.68,3.12
				c-2.688-0.024-5.184-1.008-5.4-3.24C276.956,110.625,279.14,109.137,281.804,109.137z M282.452,114.969
				c1.152,0,1.896-1.104,1.776-1.992c-0.264-1.752-0.864-3.168-2.448-3.168c-1.152,0-1.824,1.128-1.68,2.016
				C280.364,113.577,280.868,114.969,282.452,114.969z"/>
		</g>
		<g>
			<path fill="#0A50A1" d="M221.804,39.137c2.664,0.024,5.184,1.032,5.376,3.264c0.144,1.632-2.016,3.12-4.68,3.12
				c-2.688-0.024-5.184-1.008-5.4-3.24C216.956,40.625,219.14,39.137,221.804,39.137z M222.452,44.969
				c1.152,0,1.896-1.104,1.776-1.992c-0.264-1.752-0.864-3.168-2.448-3.168c-1.152,0-1.824,1.128-1.68,2.016
				C220.364,43.577,220.868,44.969,222.452,44.969z"/>
		</g>
		<g>
			<path fill="#0A50A1" d="M220.804,117.137c2.664,0.024,5.184,1.032,5.376,3.264c0.144,1.632-2.016,3.12-4.68,3.12
				c-2.688-0.024-5.184-1.008-5.4-3.24C215.956,118.625,218.14,117.137,220.804,117.137z M221.452,122.969
				c1.152,0,1.896-1.104,1.776-1.992c-0.264-1.752-0.864-3.168-2.448-3.168c-1.152,0-1.824,1.128-1.68,2.016
				C219.364,121.577,219.868,122.969,221.452,122.969z"/>
		</g>
		<g>
			<path fill="#0A50A1" d="M253.804,343.137c2.664,0.023,5.184,1.032,5.376,3.264c0.144,1.632-2.016,3.12-4.68,3.12
				c-2.688-0.024-5.184-1.008-5.4-3.24C248.956,344.625,251.14,343.137,253.804,343.137z M254.452,348.969
				c1.152,0,1.896-1.104,1.776-1.992c-0.264-1.752-0.864-3.168-2.448-3.168c-1.152,0-1.824,1.128-1.68,2.016
				C252.364,347.576,252.868,348.969,254.452,348.969z"/>
		</g>
		<g>
			<path fill="#0A50A1" d="M222.804,269.137c2.664,0.024,5.184,1.032,5.376,3.264c0.144,1.632-2.016,3.12-4.68,3.12
				c-2.688-0.024-5.184-1.008-5.4-3.24C217.956,270.625,220.14,269.137,222.804,269.137z M223.452,274.969
				c1.152,0,1.896-1.104,1.776-1.992c-0.264-1.752-0.864-3.168-2.448-3.168c-1.152,0-1.824,1.128-1.68,2.016
				C221.364,273.577,221.868,274.969,223.452,274.969z"/>
		</g>
		<g>
			<path fill="#7FC31C" d="M188.804,120.137c2.664,0.024,5.184,1.032,5.376,3.264c0.144,1.632-2.016,3.12-4.68,3.12
				c-2.688-0.024-5.184-1.008-5.4-3.24C183.956,121.625,186.14,120.137,188.804,120.137z M189.452,125.969
				c1.152,0,1.896-1.104,1.776-1.992c-0.264-1.752-0.864-3.168-2.448-3.168c-1.152,0-1.824,1.128-1.68,2.016
				C187.364,124.577,187.868,125.969,189.452,125.969z"/>
		</g>
		<g>
			<path fill="#7FC31C" d="M192.804,42.137c2.664,0.024,5.184,1.032,5.376,3.264c0.144,1.632-2.016,3.12-4.68,3.12
				c-2.688-0.024-5.184-1.008-5.4-3.24C187.956,43.625,190.14,42.137,192.804,42.137z M193.452,47.969
				c1.152,0,1.896-1.104,1.776-1.992c-0.264-1.752-0.864-3.168-2.448-3.168c-1.152,0-1.824,1.128-1.68,2.016
				C191.364,46.577,191.868,47.969,193.452,47.969z"/>
		</g>
		<g>
			<path d="M81.431,297.667c0-0.984,0.72-1.561,1.368-1.872c-0.528-0.265-1.128-0.792-1.104-1.513c0-0.792,0.456-1.439,1.08-1.775
				c-1.728-0.216-3.84-1.152-3.984-3.313c-0.096-1.536,0.6-3.239,2.52-3.359c1.128-0.072,2.52,0.863,2.616,2.231
				c0.096,1.176-0.696,2.4-2.664,2.952c0.288,0.456,1.248,0.96,2.592,0.96c1.392-0.023,2.832-0.96,3.504-2.208
				c0.432-0.792,0.408-2.28,0.216-3.624c-0.048-0.456-0.648-4.08-0.624-4.08c-1.8,0.313-4.224,0.12-5.232-0.359
				c-4.944-2.328-5.736-5.376-5.952-8.449c-0.24-3.36,1.872-6.792,3.888-8.688c1.152-1.08,2.376-2.112,3.888-3.264
				c-0.048-0.816-0.264-1.176-0.336-2.376c-0.048-0.504-0.336-2.856,0.168-5.544c0.312-1.632,2.304-5.4,3.72-5.424
				c1.08-0.024,2.712,4.248,2.76,6.432c0.096,3.336-0.696,4.848-1.704,6.576c-0.48,0.864-1.008,1.464-1.584,2.16
				c-0.552,0.672-1.2,1.08-1.8,1.608c0,0,0.744,4.344,0.768,4.68c1.56-0.216,3.432,0.336,4.104,0.84
				c1.704,1.248,2.352,3,2.472,4.704c0.192,2.712-1.296,5.568-4.584,6.936c0,0,0.528,3.48,0.624,4.176
				c0.288,1.896,0.24,3.097-0.168,3.864c-0.528,0.96-1.296,1.872-2.544,2.353l-0.816,0.071c0.768,0.265,1.392,0.912,1.368,1.776
				c0,0.576-0.48,1.176-0.936,1.44c0.504,0.312,1.248,0.96,1.224,1.92c-0.024,1.151-1.2,2.04-2.4,2.016
				C82.343,299.49,81.455,298.603,81.431,297.667z M85.415,272.754c-2.616,0.096-3.288,2.112-3.24,3.264
				c0.072,1.152,1.032,2.496,1.896,2.952c-0.096,0.072-0.216,0.264-0.216,0.264c-1.008-0.479-1.848-1.248-2.064-1.56
				c-0.672-0.912-0.96-1.464-1.08-2.88c-0.096-1.32,0.648-3.096,2.256-4.344c0.816-0.624,1.248-0.744,1.944-0.936l-0.72-4.344
				c-0.72,0.456-3.792,2.904-5.088,4.92c-1.152,1.8-1.848,3.264-1.728,5.016c0.312,4.032,4.68,7.296,9.432,6.168
				C86.831,281.274,85.391,272.754,85.415,272.754z M83.375,296.154c-0.576,0.12-1.008,0.792-1.008,1.416
				c-0.024,0.744,0.696,1.465,1.512,1.465c0.936,0.023,1.248-0.624,1.272-1.248c0-0.696-0.552-1.08-1.152-1.345L83.375,296.154z
				 M82.703,293.803c0,0.528,0.432,0.84,0.888,1.056c0.12,0.048,0.216,0.097,0.312,0.12l0.624,0.265
				c0.456-0.217,0.696-0.696,0.696-1.152c0-0.672-0.576-1.368-1.296-1.393C83.183,292.675,82.727,293.179,82.703,293.803z
				 M87.455,251.658c-2.472,0.024-3.864,5.184-3.312,9.168c2.064-1.656,4.92-4.728,4.752-7.08
				C88.847,252.979,88.511,251.634,87.455,251.658z M86.039,272.73l1.368,8.353c2.76-0.912,2.88-3.313,2.784-4.705
				C90.095,275.179,89.567,272.563,86.039,272.73z"/>
		</g>
		<g>
			<path fill="none" stroke="#000000" d="M68.973,254.519H338.14"/>
			<path fill="none" stroke="#000000" d="M68.973,268.63H338.14"/>
			<path fill="none" stroke="#000000" d="M69.106,275.753h269.168"/>
			<path fill="none" stroke="#000000" d="M68.901,283.136h269.167"/>
			<path fill="none" stroke="#000000" d="M68.901,261.772h269.167"/>
		</g>
		<g>
			<path d="M82.431,371.667c0-0.984,0.72-1.561,1.368-1.872c-0.528-0.265-1.128-0.792-1.104-1.513c0-0.792,0.456-1.439,1.08-1.775
				c-1.728-0.216-3.84-1.152-3.984-3.313c-0.096-1.536,0.6-3.239,2.52-3.359c1.128-0.072,2.52,0.863,2.616,2.231
				c0.096,1.176-0.696,2.4-2.664,2.952c0.288,0.456,1.248,0.96,2.592,0.96c1.392-0.023,2.832-0.96,3.504-2.208
				c0.432-0.792,0.408-2.28,0.216-3.624c-0.048-0.456-0.648-4.08-0.624-4.08c-1.8,0.313-4.224,0.12-5.232-0.359
				c-4.944-2.328-5.736-5.377-5.952-8.448c-0.24-3.36,1.872-6.792,3.888-8.688c1.152-1.08,2.376-2.112,3.888-3.264
				c-0.048-0.816-0.264-1.176-0.336-2.376c-0.048-0.504-0.336-2.856,0.168-5.544c0.312-1.633,2.304-5.4,3.72-5.425
				c1.08-0.023,2.712,4.248,2.76,6.433c0.096,3.336-0.696,4.848-1.704,6.576c-0.48,0.863-1.008,1.464-1.584,2.16
				c-0.552,0.672-1.2,1.08-1.8,1.607c0,0,0.744,4.344,0.768,4.681c1.56-0.217,3.432,0.336,4.104,0.84
				c1.704,1.248,2.352,3,2.472,4.704c0.192,2.712-1.296,5.567-4.584,6.936c0,0,0.528,3.48,0.624,4.176
				c0.288,1.896,0.24,3.097-0.168,3.864c-0.528,0.96-1.296,1.872-2.544,2.353l-0.816,0.071c0.768,0.265,1.392,0.912,1.368,1.776
				c0,0.576-0.48,1.176-0.936,1.44c0.504,0.312,1.248,0.96,1.224,1.92c-0.024,1.151-1.2,2.04-2.4,2.016
				C83.343,373.49,82.455,372.603,82.431,371.667z M86.415,346.755c-2.616,0.096-3.288,2.111-3.24,3.264
				c0.072,1.152,1.032,2.496,1.896,2.952c-0.096,0.072-0.216,0.264-0.216,0.264c-1.008-0.479-1.848-1.248-2.064-1.56
				c-0.672-0.912-0.96-1.464-1.08-2.88c-0.096-1.32,0.648-3.097,2.256-4.345c0.816-0.624,1.248-0.744,1.944-0.936l-0.72-4.344
				c-0.72,0.456-3.792,2.903-5.088,4.92c-1.152,1.8-1.848,3.264-1.728,5.016c0.312,4.032,4.68,7.296,9.432,6.168
				C87.831,355.274,86.391,346.755,86.415,346.755z M84.375,370.154c-0.576,0.12-1.008,0.792-1.008,1.416
				c-0.024,0.744,0.696,1.465,1.512,1.465c0.936,0.023,1.248-0.624,1.272-1.248c0-0.696-0.552-1.08-1.152-1.345L84.375,370.154z
				 M83.703,367.803c0,0.528,0.432,0.84,0.888,1.056c0.12,0.048,0.216,0.097,0.312,0.12l0.624,0.265
				c0.456-0.217,0.696-0.696,0.696-1.152c0-0.672-0.576-1.368-1.296-1.393C84.183,366.675,83.727,367.179,83.703,367.803z
				 M88.455,325.658c-2.472,0.024-3.864,5.185-3.312,9.168c2.064-1.655,4.92-4.728,4.752-7.08
				C89.847,326.979,89.511,325.635,88.455,325.658z M87.039,346.73l1.368,8.353c2.76-0.912,2.88-3.313,2.784-4.704
				C91.095,349.179,90.567,346.563,87.039,346.73z"/>
		</g>
		<g>
			<path fill="none" stroke="#000000" d="M69.453,328.519h269.168"/>
			<path fill="none" stroke="#000000" d="M69.453,342.63h269.168"/>
			<path fill="none" stroke="#000000" d="M69.586,349.753h269.168"/>
			<path fill="none" stroke="#000000" d="M69.38,357.136h269.167"/>
			<path fill="none" stroke="#000000" d="M69.38,335.772h269.167"/>
		</g>
		<g>
			<path d="M135.42,279.7c2.664,0.023,5.184,1.032,5.376,3.264c0.144,1.632-2.016,3.12-4.68,3.12c-2.688-0.024-5.184-1.008-5.4-3.24
				C130.572,281.188,132.756,279.7,135.42,279.7z M136.068,285.532c1.152,0,1.896-1.104,1.776-1.992
				c-0.264-1.752-0.864-3.168-2.448-3.168c-1.152,0-1.824,1.128-1.68,2.016C133.98,284.14,134.484,285.532,136.068,285.532z"/>
		</g>
		<g>
			<path d="M166.804,276.137c2.664,0.024,5.184,1.032,5.376,3.264c0.144,1.632-2.016,3.12-4.68,3.12
				c-2.688-0.024-5.184-1.008-5.4-3.24C161.956,277.625,164.14,276.137,166.804,276.137z M167.452,281.969
				c1.152,0,1.896-1.104,1.776-1.992c-0.264-1.752-0.864-3.168-2.448-3.168c-1.152,0-1.824,1.128-1.68,2.016
				C165.364,280.576,165.868,281.969,167.452,281.969z"/>
		</g>
		<g>
			<path d="M195.804,273.137c2.664,0.024,5.184,1.032,5.376,3.264c0.144,1.632-2.016,3.12-4.68,3.12
				c-2.688-0.024-5.184-1.008-5.4-3.24C190.956,274.625,193.14,273.137,195.804,273.137z M196.452,278.969
				c1.152,0,1.896-1.104,1.776-1.992c-0.264-1.752-0.864-3.168-2.448-3.168c-1.152,0-1.824,1.128-1.68,2.016
				C194.364,277.576,194.868,278.969,196.452,278.969z"/>
		</g>
		<g>
			<path d="M250.804,265.137c2.664,0.024,5.184,1.032,5.376,3.264c0.144,1.632-2.016,3.12-4.68,3.12
				c-2.688-0.024-5.184-1.008-5.4-3.24C245.956,266.625,248.14,265.137,250.804,265.137z M251.452,270.969
				c1.152,0,1.896-1.104,1.776-1.992c-0.264-1.752-0.864-3.168-2.448-3.168c-1.152,0-1.824,1.128-1.68,2.016
				C249.364,269.577,249.868,270.969,251.452,270.969z"/>
		</g>
		<g>
			<path d="M279.804,262.137c2.664,0.024,5.184,1.032,5.376,3.264c0.144,1.632-2.016,3.12-4.68,3.12
				c-2.688-0.024-5.184-1.008-5.4-3.24C274.956,263.625,277.14,262.137,279.804,262.137z M280.452,267.969
				c1.152,0,1.896-1.104,1.776-1.992c-0.264-1.752-0.864-3.168-2.448-3.168c-1.152,0-1.824,1.128-1.68,2.016
				C278.364,266.577,278.868,267.969,280.452,267.969z"/>
		</g>
		<g>
			<path d="M310.42,258.7c2.664,0.024,5.184,1.032,5.376,3.264c0.144,1.632-2.016,3.12-4.68,3.12c-2.688-0.024-5.184-1.008-5.4-3.24
				C305.572,260.188,307.756,258.7,310.42,258.7z M311.068,264.532c1.152,0,1.896-1.104,1.776-1.992
				c-0.264-1.752-0.864-3.168-2.448-3.168c-1.152,0-1.824,1.128-1.68,2.016C308.98,263.14,309.484,264.532,311.068,264.532z"/>
		</g>
		<g>
			<path d="M105.145,360.641c2.664,0.023,5.184,1.032,5.376,3.264c0.144,1.632-2.016,3.12-4.68,3.12
				c-2.688-0.024-5.184-1.008-5.4-3.24C100.297,362.129,102.481,360.641,105.145,360.641z M105.793,366.473
				c1.152,0,1.896-1.104,1.776-1.992c-0.264-1.752-0.864-3.168-2.448-3.168c-1.152,0-1.824,1.128-1.68,2.016
				C103.705,365.08,104.209,366.473,105.793,366.473z"/>
		</g>
		<path fill="none" stroke="#000000" d="M98.433,364.353H113.1"/>
		<g>
			<path fill="#FF0000" d="M105.145,282.641c2.664,0.023,5.184,1.032,5.376,3.264c0.144,1.632-2.016,3.12-4.68,3.12
				c-2.688-0.024-5.184-1.008-5.4-3.24C100.297,284.129,102.481,282.641,105.145,282.641z M105.793,288.473
				c1.152,0,1.896-1.104,1.776-1.992c-0.264-1.752-0.864-3.168-2.448-3.168c-1.152,0-1.824,1.128-1.68,2.016
				C103.705,287.08,104.209,288.473,105.793,288.473z"/>
		</g>
		<g>
			<path d="M137.804,357.137c2.664,0.023,5.184,1.032,5.376,3.264c0.144,1.632-2.016,3.12-4.68,3.12
				c-2.688-0.024-5.184-1.008-5.4-3.24C132.956,358.625,135.14,357.137,137.804,357.137z M138.452,362.969
				c1.152,0,1.896-1.104,1.776-1.992c-0.264-1.752-0.864-3.168-2.448-3.168c-1.152,0-1.824,1.128-1.68,2.016
				C136.364,361.576,136.868,362.969,138.452,362.969z"/>
		</g>
		<g>
			<path d="M167.804,354.137c2.664,0.023,5.184,1.032,5.376,3.264c0.144,1.632-2.016,3.12-4.68,3.12
				c-2.688-0.024-5.184-1.008-5.4-3.24C162.956,355.625,165.14,354.137,167.804,354.137z M168.452,359.969
				c1.152,0,1.896-1.104,1.776-1.992c-0.264-1.752-0.864-3.168-2.448-3.168c-1.152,0-1.824,1.128-1.68,2.016
				C166.364,358.576,166.868,359.969,168.452,359.969z"/>
		</g>
		<g>
			<path d="M225.828,347.188c2.664,0.023,5.184,1.032,5.376,3.264c0.144,1.632-2.016,3.12-4.68,3.12
				c-2.688-0.024-5.184-1.008-5.4-3.24C220.979,348.676,223.164,347.188,225.828,347.188z M226.476,353.02
				c1.152,0,1.896-1.104,1.776-1.992c-0.264-1.752-0.864-3.168-2.448-3.168c-1.152,0-1.824,1.128-1.68,2.016
				C224.388,351.627,224.892,353.02,226.476,353.02z"/>
		</g>
		<g>
			<path d="M285.804,339.137c2.664,0.023,5.184,1.032,5.376,3.264c0.144,1.632-2.016,3.12-4.68,3.12
				c-2.688-0.024-5.184-1.008-5.4-3.24C280.956,340.625,283.14,339.137,285.804,339.137z M286.452,344.969
				c1.152,0,1.896-1.104,1.776-1.992c-0.264-1.752-0.864-3.168-2.448-3.168c-1.152,0-1.824,1.128-1.68,2.016
				C284.364,343.576,284.868,344.969,286.452,344.969z"/>
		</g>
		<g>
			<path d="M316.804,336.137c2.664,0.023,5.184,1.032,5.376,3.264c0.144,1.632-2.016,3.12-4.68,3.12
				c-2.688-0.024-5.184-1.008-5.4-3.24C311.956,337.625,314.14,336.137,316.804,336.137z M317.452,341.969
				c1.152,0,1.896-1.104,1.776-1.992c-0.264-1.752-0.864-3.168-2.448-3.168c-1.152,0-1.824,1.128-1.68,2.016
				C315.364,340.576,315.868,341.969,317.452,341.969z"/>
		</g>
		<g>
			<path fill="#FF0000" d="M197.145,349.641c2.664,0.023,5.184,1.032,5.376,3.264c0.144,1.632-2.016,3.12-4.68,3.12
				c-2.688-0.024-5.184-1.008-5.4-3.24C192.297,351.129,194.481,349.641,197.145,349.641z M197.793,355.473
				c1.152,0,1.896-1.104,1.776-1.992c-0.264-1.752-0.864-3.168-2.448-3.168c-1.152,0-1.824,1.128-1.68,2.016
				C195.705,354.08,196.209,355.473,197.793,355.473z"/>
		</g>
		<g>
			<path fill="#FF0000" d="M312.804,106.137c2.664,0.024,5.184,1.032,5.376,3.264c0.144,1.632-2.016,3.12-4.68,3.12
				c-2.688-0.024-5.184-1.008-5.4-3.24C307.956,107.625,310.14,106.137,312.804,106.137z M313.452,111.969
				c1.152,0,1.896-1.104,1.776-1.992c-0.264-1.752-0.864-3.168-2.448-3.168c-1.152,0-1.824,1.128-1.68,2.016
				C311.364,110.577,311.868,111.969,313.452,111.969z"/>
		</g>
	</g>
</svg>
