<?xml version="1.0" encoding="utf-8"?>
<!-- Generator: Adobe Illustrator 10.0, SVG Export Plug-In . SVG Version: 3.0.0 Build 76)  -->
<!DOCTYPE svg PUBLIC "-//W3C//DTD SVG 1.0//EN"    "http://www.w3.org/TR/2001/REC-SVG-20010904/DTD/svg10.dtd" [
	<!ENTITY ns_flows "http://ns.adobe.com/Flows/1.0/">
	<!ENTITY ns_extend "http://ns.adobe.com/Extensibility/1.0/">
	<!ENTITY ns_ai "http://ns.adobe.com/AdobeIllustrator/10.0/">
	<!ENTITY ns_svg "http://www.w3.org/2000/svg">
	<!ENTITY ns_xlink "http://www.w3.org/1999/xlink">
]>
<svg  xmlns:x="&ns_extend;" xmlns:i="&ns_ai;" xmlns:graph="&ns_graphs;"
	 xmlns="&ns_svg;" xmlns:xlink="&ns_xlink;" xmlns:a="http://ns.adobe.com/AdobeSVGViewerExtensions/3.0/" width="475" height="81"
	 viewBox="-0.49 -0.054 475 81" overflow="visible" enable-background="new -0.49 -0.054 475 81" xml:space="preserve">
	<g id="Layer_1_2_">
		<g>
			<path fill="none" stroke="#000000" d="M0.127,38.18h474.49"/>
			<path fill="none" stroke="#000000" d="M0.127,52.292h474.49"/>
			<path fill="none" stroke="#000000" d="M0.363,59.415h474.491"/>
			<path fill="none" stroke="#000000" d="M0,66.798h474.49"/>
			<path fill="none" stroke="#000000" d="M0,45.434h474.49"/>
		</g>
		<path fill="none" stroke="#11100F" stroke-width="2" d="M473.9,37.33v29.746"/>
		<g>
			<path d="M36.232,49.639c0,0.96-1.2,1.8-1.848,1.8s-2.04-0.36-2.04-1.8c0-0.936,0.672-1.632,1.512-1.632
				c0.576,0,0.528-0.36,0.336-0.576c-0.528-0.552-1.488-0.96-2.664-0.624c-1.896,0.504-2.304,2.808-2.304,5.184
				c0,2.64,0.456,5.256,2.76,5.256c1.632,0,3.456-1.488,3.408-3.528h0.672c-0.024,0.624-0.432,1.92-0.84,2.424
				c-0.816,1.008-2.328,1.848-3.504,1.848c-3.168,0-5.424-2.856-5.424-6c0-3.072,2.112-5.904,5.184-5.904
				C34.072,46.086,36.232,47.311,36.232,49.639z"/>
		</g>
		<g>
			<path d="M320.231,44.271v-3.912h0.695v3.672l2.353-0.768v-3.504h0.696v3.288l0.936-0.312v2.496l-0.936,0.312v3.552l0.936-0.288
				v2.472l-0.936,0.312v3.912h-0.696v-3.696l-2.353,0.768v3.552h-0.695v-3.312l-1.032,0.336v-2.496l1.032-0.336v-3.576l-1.032,0.336
				v-2.472L320.231,44.271z M320.927,46.527v3.576l2.353-0.768v-3.576L320.927,46.527z"/>
		</g>
		<g>
			<path d="M10.152,65.703C5.208,63.351,4.416,60.327,4.2,57.23c-0.24-3.36,1.896-6.768,3.888-8.664
				c1.152-1.08,2.4-2.136,3.888-3.264c-0.048-0.84-0.24-1.176-0.336-2.376c-0.024-0.504-0.336-2.856,0.168-5.568
				c0.312-1.608,2.328-5.4,3.72-5.424c1.08-0.024,2.736,4.296,2.784,6.456c0.072,3.336-0.72,4.848-1.704,6.576
				c-0.504,0.864-1.032,1.464-1.584,2.136c-0.576,0.696-1.224,1.104-1.824,1.632c0,0,0.768,4.344,0.792,4.656
				c1.536-0.192,3.408,0.36,4.08,0.84c1.704,1.272,2.352,3.024,2.472,4.728c0.216,2.712-1.272,5.568-4.56,6.936
				c0,0,0.504,3.456,0.624,4.176c0.264,1.896,0.216,3.096-0.192,3.864c-0.696,1.296-1.824,2.496-4.008,2.64
				c-1.68,0.096-4.992-0.744-5.16-3.384c-0.096-1.56,0.6-3.24,2.496-3.36c1.152-0.096,2.52,0.864,2.616,2.232
				c0.096,1.176-0.672,2.4-2.664,2.952c0.312,0.432,1.248,0.936,2.592,0.936c1.392,0,2.832-0.936,3.528-2.184
				c0.432-0.816,0.384-2.28,0.216-3.624c-0.072-0.456-0.648-4.08-0.648-4.08C13.608,66.351,11.16,66.183,10.152,65.703z
				 M10.632,60.015c0.048,1.152,1.008,2.496,1.896,2.952c-0.12,0.072-0.24,0.264-0.24,0.264c-0.984-0.48-1.824-1.272-2.04-1.56
				c-0.696-0.936-0.984-1.464-1.08-2.88c-0.096-1.32,0.624-3.096,2.232-4.344c0.84-0.624,1.248-0.768,1.968-0.936l-0.72-4.344
				c-0.744,0.432-3.816,2.904-5.112,4.92c-1.152,1.8-1.848,3.24-1.704,5.016c0.288,4.008,4.68,7.296,9.432,6.168
				c0,0-1.416-8.52-1.392-8.52C11.256,56.847,10.56,58.863,10.632,60.015z M12.576,44.798c2.088-1.632,4.92-4.704,4.752-7.08
				c-0.048-0.744-0.36-2.088-1.44-2.064C13.416,35.678,12.024,40.838,12.576,44.798z M15.84,65.079
				c2.76-0.936,2.88-3.312,2.784-4.728c-0.096-1.176-0.624-3.816-4.128-3.648L15.84,65.079z"/>
		</g>
		<g>
			<path d="M334.245,59.303c2.664,0.024,5.184,1.032,5.376,3.264c0.144,1.632-2.016,3.12-4.68,3.12
				c-2.688-0.024-5.185-1.008-5.4-3.24C329.397,60.791,331.581,59.303,334.245,59.303z M334.893,65.135
				c1.152,0,1.896-1.104,1.776-1.992c-0.264-1.752-0.864-3.168-2.448-3.168c-1.151,0-1.823,1.128-1.68,2.016
				C332.805,63.743,333.309,65.135,334.893,65.135z"/>
		</g>
		<path fill="none" stroke="#11100F" d="M468.9,37.33v29.746"/>
		<path fill="none" stroke="#11100F" d="M360.9,37.33v29.746"/>
		<path fill="none" stroke="#11100F" d="M312.9,37.33v29.746"/>
		<path fill="none" stroke="#11100F" d="M193.901,37.33v29.746"/>
		<path fill="none" stroke="#11100F" d="M142.901,37.33v29.746"/>
		<path fill="none" stroke="#11100F" d="M88.901,37.33v29.746"/>
		<path fill="none" stroke="#11100F" d="M248.901,37.33v29.746"/>
		<g>
			<path d="M434.903,59.799c2.664,0.024,5.184,1.032,5.376,3.264c0.144,1.632-2.016,3.12-4.68,3.12
				c-2.688-0.024-5.185-1.008-5.4-3.24C430.056,61.287,432.239,59.799,434.903,59.799z M435.551,65.631
				c1.152,0,1.896-1.104,1.776-1.992c-0.264-1.752-0.864-3.168-2.448-3.168c-1.151,0-1.823,1.128-1.68,2.016
				C433.463,64.239,433.967,65.631,435.551,65.631z"/>
		</g>
		<g>
			<path d="M434.903,52.799c2.664,0.024,5.184,1.032,5.376,3.264c0.144,1.632-2.016,3.12-4.68,3.12
				c-2.688-0.024-5.185-1.008-5.4-3.24C430.056,54.287,432.239,52.799,434.903,52.799z M435.551,58.631
				c1.152,0,1.896-1.104,1.776-1.992c-0.264-1.752-0.864-3.168-2.448-3.168c-1.151,0-1.823,1.128-1.68,2.016
				C433.463,57.239,433.967,58.631,435.551,58.631z"/>
		</g>
		<g>
			<path d="M434.903,65.799c2.664,0.024,5.184,1.032,5.376,3.264c0.144,1.632-2.016,3.12-4.68,3.12
				c-2.688-0.024-5.185-1.008-5.4-3.24C430.056,67.287,432.239,65.799,434.903,65.799z M435.551,71.631
				c1.152,0,1.896-1.104,1.776-1.992c-0.264-1.752-0.864-3.168-2.448-3.168c-1.151,0-1.823,1.128-1.68,2.016
				C433.463,70.239,433.967,71.631,435.551,71.631z"/>
		</g>
		<g>
			<path d="M386.593,56.04c2.664,0.024,5.184,1.032,5.376,3.264c0.144,1.632-2.016,3.12-4.68,3.12
				c-2.688-0.024-5.185-1.008-5.4-3.24C381.745,57.528,383.929,56.04,386.593,56.04z M387.24,61.872
				c1.152,0,1.896-1.104,1.776-1.992c-0.264-1.752-0.864-3.168-2.448-3.168c-1.151,0-1.823,1.128-1.68,2.016
				C385.152,60.48,385.656,61.872,387.24,61.872z"/>
		</g>
		<g>
			<path d="M386.903,48.799c2.664,0.024,5.184,1.032,5.376,3.264c0.144,1.632-2.016,3.12-4.68,3.12
				c-2.688-0.024-5.185-1.008-5.4-3.24C382.056,50.287,384.239,48.799,386.903,48.799z M387.551,54.631
				c1.152,0,1.896-1.104,1.776-1.992c-0.264-1.752-0.864-3.168-2.448-3.168c-1.151,0-1.823,1.128-1.68,2.016
				C385.463,53.239,385.967,54.631,387.551,54.631z"/>
		</g>
		<g>
			<path d="M386.903,41.799c2.664,0.024,5.184,1.032,5.376,3.264c0.144,1.632-2.016,3.12-4.68,3.12
				c-2.688-0.024-5.185-1.008-5.4-3.24C382.056,43.287,384.239,41.799,386.903,41.799z M387.551,47.631
				c1.152,0,1.896-1.104,1.776-1.992c-0.264-1.752-0.864-3.168-2.448-3.168c-1.151,0-1.823,1.128-1.68,2.016
				C385.463,46.239,385.967,47.631,387.551,47.631z"/>
		</g>
		<g>
			<path d="M279.904,59.799c2.664,0.024,5.184,1.032,5.375,3.264c0.145,1.632-2.016,3.12-4.68,3.12
				c-2.688-0.024-5.184-1.008-5.4-3.24C275.056,61.287,277.24,59.799,279.904,59.799z M280.552,65.631
				c1.152,0,1.896-1.104,1.776-1.992c-0.264-1.752-0.864-3.168-2.448-3.168c-1.152,0-1.824,1.128-1.68,2.016
				C278.464,64.239,278.968,65.631,280.552,65.631z"/>
		</g>
		<g>
			<path d="M334.214,38.73c2.664,0.024,5.184,1.032,5.376,3.264c0.144,1.632-2.016,3.12-4.68,3.12
				c-2.688-0.024-5.185-1.008-5.4-3.24C329.366,40.218,331.55,38.73,334.214,38.73z M334.861,44.562
				c1.152,0,1.896-1.104,1.776-1.992c-0.264-1.752-0.864-3.168-2.448-3.168c-1.151,0-1.823,1.128-1.68,2.016
				C332.773,43.17,333.277,44.562,334.861,44.562z"/>
		</g>
		<g>
			<path d="M167.904,66.799c2.664,0.024,5.184,1.032,5.376,3.264c0.144,1.632-2.016,3.12-4.68,3.12
				c-2.688-0.024-5.184-1.008-5.4-3.24C163.056,68.287,165.24,66.799,167.904,66.799z M168.552,72.631
				c1.152,0,1.896-1.104,1.776-1.992c-0.264-1.752-0.864-3.168-2.448-3.168c-1.152,0-1.824,1.128-1.68,2.016
				C166.464,71.239,166.968,72.631,168.552,72.631z"/>
		</g>
		<g>
			<path d="M224.904,59.799c2.664,0.024,5.184,1.032,5.376,3.264c0.144,1.632-2.016,3.12-4.68,3.12
				c-2.688-0.024-5.184-1.008-5.4-3.24C220.056,61.287,222.24,59.799,224.904,59.799z M225.552,65.631
				c1.152,0,1.896-1.104,1.776-1.992c-0.264-1.752-0.864-3.168-2.448-3.168c-1.152,0-1.824,1.128-1.68,2.016
				C223.464,64.239,223.968,65.631,225.552,65.631z"/>
		</g>
		<g>
			<path d="M224.904,66.799c2.664,0.024,5.184,1.032,5.376,3.264c0.144,1.632-2.016,3.12-4.68,3.12
				c-2.688-0.024-5.184-1.008-5.4-3.24C220.056,68.287,222.24,66.799,224.904,66.799z M225.552,72.631
				c1.152,0,1.896-1.104,1.776-1.992c-0.264-1.752-0.864-3.168-2.448-3.168c-1.152,0-1.824,1.128-1.68,2.016
				C223.464,71.239,223.968,72.631,225.552,72.631z"/>
		</g>
		<g>
			<path d="M224.904,45.799c2.664,0.024,5.184,1.032,5.376,3.264c0.144,1.632-2.016,3.12-4.68,3.12
				c-2.688-0.024-5.184-1.008-5.4-3.24C220.056,47.287,222.24,45.799,224.904,45.799z M225.552,51.631
				c1.152,0,1.896-1.104,1.776-1.992c-0.264-1.752-0.864-3.168-2.448-3.168c-1.152,0-1.824,1.128-1.68,2.016
				C223.464,50.239,223.968,51.631,225.552,51.631z"/>
		</g>
		<g>
			<path d="M224.904,52.799c2.664,0.024,5.184,1.032,5.376,3.264c0.144,1.632-2.016,3.12-4.68,3.12
				c-2.688-0.024-5.184-1.008-5.4-3.24C220.056,54.287,222.24,52.799,224.904,52.799z M225.552,58.631
				c1.152,0,1.896-1.104,1.776-1.992c-0.264-1.752-0.864-3.168-2.448-3.168c-1.152,0-1.824,1.128-1.68,2.016
				C223.464,57.239,223.968,58.631,225.552,58.631z"/>
		</g>
		<g>
			<path d="M333.903,52.799c2.664,0.024,5.184,1.032,5.376,3.264c0.144,1.632-2.016,3.12-4.68,3.12
				c-2.688-0.024-5.185-1.008-5.4-3.24C329.056,54.287,331.239,52.799,333.903,52.799z M334.551,58.631
				c1.152,0,1.896-1.104,1.776-1.992c-0.264-1.752-0.864-3.168-2.448-3.168c-1.151,0-1.823,1.128-1.68,2.016
				C332.463,57.239,332.967,58.631,334.551,58.631z"/>
		</g>
		<g>
			<path d="M279.904,44.799c2.664,0.024,5.184,1.032,5.375,3.264c0.145,1.632-2.016,3.12-4.68,3.12
				c-2.688-0.024-5.184-1.008-5.4-3.24C275.056,46.287,277.24,44.799,279.904,44.799z M280.552,50.631
				c1.152,0,1.896-1.104,1.776-1.992c-0.264-1.752-0.864-3.168-2.448-3.168c-1.152,0-1.824,1.128-1.68,2.016
				C278.464,49.239,278.968,50.631,280.552,50.631z"/>
		</g>
		<g>
			<path d="M113.904,41.799c2.664,0.024,5.184,1.032,5.376,3.264c0.144,1.632-2.016,3.12-4.68,3.12
				c-2.688-0.024-5.184-1.008-5.4-3.24C109.056,43.287,111.24,41.799,113.904,41.799z M114.552,47.631
				c1.152,0,1.896-1.104,1.776-1.992c-0.264-1.752-0.864-3.168-2.448-3.168c-1.152,0-1.824,1.128-1.68,2.016
				C112.464,46.239,112.968,47.631,114.552,47.631z"/>
		</g>
		<g>
			<path d="M333.593,46.04c2.664,0.024,5.184,1.032,5.376,3.264c0.144,1.632-2.016,3.12-4.68,3.12
				c-2.688-0.024-5.185-1.008-5.4-3.24C328.745,47.528,330.929,46.04,333.593,46.04z M334.24,51.872
				c1.152,0,1.896-1.104,1.776-1.992c-0.264-1.752-0.864-3.168-2.448-3.168c-1.151,0-1.823,1.128-1.68,2.016
				C332.152,50.48,332.656,51.872,334.24,51.872z"/>
		</g>
		<g>
			<path d="M167.904,59.799c2.664,0.024,5.184,1.032,5.376,3.264c0.144,1.632-2.016,3.12-4.68,3.12
				c-2.688-0.024-5.184-1.008-5.4-3.24C163.056,61.287,165.24,59.799,167.904,59.799z M168.552,65.631
				c1.152,0,1.896-1.104,1.776-1.992c-0.264-1.752-0.864-3.168-2.448-3.168c-1.152,0-1.824,1.128-1.68,2.016
				C166.464,64.239,166.968,65.631,168.552,65.631z"/>
		</g>
		<g>
			<path d="M435.083,72.752c2.664,0.024,5.184,1.032,5.376,3.264c0.144,1.632-2.016,3.12-4.68,3.12
				c-2.688-0.024-5.185-1.008-5.4-3.24C430.235,74.24,432.419,72.752,435.083,72.752z M435.73,78.584
				c1.152,0,1.896-1.104,1.776-1.992c-0.264-1.752-0.864-3.168-2.448-3.168c-1.151,0-1.823,1.128-1.68,2.016
				C433.643,77.192,434.146,78.584,435.73,78.584z"/>
		</g>
		<path fill="none" stroke="#000000" d="M428.373,72.464h14.666"/>
		<g>
			<path d="M279.904,52.799c2.664,0.024,5.184,1.032,5.375,3.264c0.145,1.632-2.016,3.12-4.68,3.12
				c-2.688-0.024-5.184-1.008-5.4-3.24C275.056,54.287,277.24,52.799,279.904,52.799z M280.552,58.631
				c1.152,0,1.896-1.104,1.776-1.992c-0.264-1.752-0.864-3.168-2.448-3.168c-1.152,0-1.824,1.128-1.68,2.016
				C278.464,57.239,278.968,58.631,280.552,58.631z"/>
		</g>
		<g>
			<path d="M167.904,52.799c2.664,0.024,5.184,1.032,5.376,3.264c0.144,1.632-2.016,3.12-4.68,3.12
				c-2.688-0.024-5.184-1.008-5.4-3.24C163.056,54.287,165.24,52.799,167.904,52.799z M168.552,58.631
				c1.152,0,1.896-1.104,1.776-1.992c-0.264-1.752-0.864-3.168-2.448-3.168c-1.152,0-1.824,1.128-1.68,2.016
				C166.464,57.239,166.968,58.631,168.552,58.631z"/>
		</g>
		<g>
			<path d="M167.934,73.544c2.664,0.024,5.184,1.032,5.376,3.264c0.144,1.632-2.016,3.12-4.68,3.12
				c-2.688-0.024-5.184-1.008-5.4-3.24C163.086,75.032,165.27,73.544,167.934,73.544z M168.582,79.376
				c1.152,0,1.896-1.104,1.776-1.992c-0.264-1.752-0.864-3.168-2.448-3.168c-1.152,0-1.824,1.128-1.68,2.016
				C166.494,77.984,166.998,79.376,168.582,79.376z"/>
		</g>
		<path fill="none" stroke="#000000" d="M161.223,73.256h14.666"/>
		<g>
			<path d="M113.904,55.799c2.664,0.024,5.184,1.032,5.376,3.264c0.144,1.632-2.016,3.12-4.68,3.12
				c-2.688-0.024-5.184-1.008-5.4-3.24C109.056,57.287,111.24,55.799,113.904,55.799z M114.552,61.631
				c1.152,0,1.896-1.104,1.776-1.992c-0.264-1.752-0.864-3.168-2.448-3.168c-1.152,0-1.824,1.128-1.68,2.016
				C112.464,60.239,112.968,61.631,114.552,61.631z"/>
		</g>
		<g>
			<path d="M113.904,48.799c2.664,0.024,5.184,1.032,5.376,3.264c0.144,1.632-2.016,3.12-4.68,3.12
				c-2.688-0.024-5.184-1.008-5.4-3.24C109.056,50.287,111.24,48.799,113.904,48.799z M114.552,54.631
				c1.152,0,1.896-1.104,1.776-1.992c-0.264-1.752-0.864-3.168-2.448-3.168c-1.152,0-1.824,1.128-1.68,2.016
				C112.464,53.239,112.968,54.631,114.552,54.631z"/>
		</g>
		<g>
			<path d="M61.245,35.303c2.664,0.024,5.184,1.032,5.376,3.264c0.144,1.632-2.016,3.12-4.68,3.12
				c-2.688-0.024-5.184-1.008-5.4-3.24C56.396,36.791,58.581,35.303,61.245,35.303z M61.893,41.135c1.152,0,1.896-1.104,1.776-1.992
				c-0.264-1.752-0.864-3.168-2.448-3.168c-1.152,0-1.824,1.128-1.68,2.016C59.805,39.743,60.309,41.135,61.893,41.135z"/>
		</g>
		<g>
			<path d="M60.904,48.799c2.664,0.024,5.184,1.032,5.376,3.264c0.144,1.632-2.016,3.12-4.68,3.12
				c-2.688-0.024-5.184-1.008-5.4-3.24C56.056,50.287,58.24,48.799,60.904,48.799z M61.552,54.631c1.152,0,1.896-1.104,1.776-1.992
				c-0.264-1.752-0.864-3.168-2.448-3.168c-1.152,0-1.824,1.128-1.68,2.016C59.464,53.239,59.968,54.631,61.552,54.631z"/>
		</g>
		<g>
			<path d="M60.904,55.799c2.664,0.024,5.184,1.032,5.376,3.264c0.144,1.632-2.016,3.12-4.68,3.12
				c-2.688-0.024-5.184-1.008-5.4-3.24C56.056,57.287,58.24,55.799,60.904,55.799z M61.552,61.631c1.152,0,1.896-1.104,1.776-1.992
				c-0.264-1.752-0.864-3.168-2.448-3.168c-1.152,0-1.824,1.128-1.68,2.016C59.464,60.239,59.968,61.631,61.552,61.631z"/>
		</g>
		<g>
			<path d="M60.904,41.799c2.664,0.024,5.184,1.032,5.376,3.264c0.144,1.632-2.016,3.12-4.68,3.12
				c-2.688-0.024-5.184-1.008-5.4-3.24C56.056,43.287,58.24,41.799,60.904,41.799z M61.552,47.631c1.152,0,1.896-1.104,1.776-1.992
				c-0.264-1.752-0.864-3.168-2.448-3.168c-1.152,0-1.824,1.128-1.68,2.016C59.464,46.239,59.968,47.631,61.552,47.631z"/>
		</g>
		<g>
			<path fill="#FB0F0C" d="M56.437,16.884c-0.564,0.192-1.632,0.456-2.7,0.456c-1.476,0-2.544-0.372-3.288-1.08
				c-0.732-0.708-1.14-1.764-1.14-2.952c0.012-2.688,1.968-4.224,4.62-4.224c1.044,0,1.848,0.204,2.244,0.384l-0.384,1.476
				c-0.444-0.204-0.984-0.348-1.872-0.348c-1.524,0-2.688,0.864-2.688,2.616c0,1.68,1.056,2.652,2.556,2.652
				c0.408,0,0.744-0.048,0.888-0.108v-1.704h-1.248v-1.428h3.012V16.884z"/>
			<path fill="#FB0F0C" d="M57.805,13.26c0-0.732-0.024-1.344-0.048-1.872h1.548l0.072,0.804h0.036
				c0.252-0.384,0.78-0.936,1.776-0.936c0.768,0,1.356,0.396,1.608,1.008h0.024c0.228-0.312,0.48-0.552,0.768-0.72
				c0.324-0.18,0.684-0.288,1.116-0.288c1.128,0,1.98,0.792,1.98,2.544v3.456h-1.776v-3.18c0-0.852-0.276-1.344-0.864-1.344
				c-0.432,0-0.72,0.288-0.852,0.636c-0.036,0.132-0.06,0.312-0.06,0.456v3.432h-1.776v-3.288c0-0.732-0.264-1.236-0.852-1.236
				c-0.468,0-0.744,0.36-0.852,0.648c-0.06,0.144-0.072,0.312-0.072,0.468v3.408h-1.776V13.26z"/>
			<path fill="#FB0F0C" d="M73.489,9.456v1.14l-3.216,6.66h-1.932l3.216-6.276v-0.024h-3.576v-1.5H73.489z"/>
			<path fill="#FB0F0C" d="M112.309,13.836h-2.976v1.92h3.324v1.5h-5.148V9.168h4.98v1.5h-3.156v1.68h2.976V13.836z"/>
			<path fill="#FB0F0C" d="M119.208,9.456v1.14l-3.216,6.66h-1.932l3.216-6.276v-0.024h-3.576v-1.5H119.208z"/>
			<path fill="#FB0F0C" d="M150.769,9.288c0.48-0.096,1.44-0.18,2.364-0.18c1.116,0,1.8,0.108,2.388,0.456
				c0.564,0.3,0.96,0.852,0.96,1.596c0,0.708-0.42,1.368-1.32,1.716V12.9c0.924,0.24,1.608,0.948,1.608,1.992
				c0,0.744-0.336,1.32-0.84,1.716c-0.588,0.468-1.572,0.732-3.18,0.732c-0.9,0-1.572-0.06-1.98-0.12V9.288z M152.581,12.372h0.6
				c0.972,0,1.476-0.396,1.476-0.996c0-0.612-0.468-0.936-1.296-0.936c-0.408,0-0.636,0.024-0.78,0.06V12.372z M152.581,15.96
				c0.18,0.036,0.396,0.036,0.708,0.036c0.828,0,1.56-0.324,1.56-1.176c0-0.816-0.732-1.14-1.644-1.14h-0.624V15.96z"/>
			<path fill="#FB0F0C" d="M172.128,14.16c-0.036-0.972-0.072-2.136-0.072-3.324h-0.024c-0.264,1.032-0.6,2.184-0.912,3.132
				l-0.984,3.156h-1.428l-0.864-3.12c-0.264-0.96-0.528-2.1-0.732-3.168h-0.024c-0.036,1.092-0.084,2.34-0.132,3.348l-0.156,3.072
				h-1.692l0.516-8.088h2.436l0.792,2.712c0.264,0.924,0.504,1.932,0.684,2.88h0.048c0.216-0.936,0.492-1.992,0.768-2.904
				l0.852-2.688h2.4l0.432,8.088h-1.776L172.128,14.16z"/>
			<path fill="#FB0F0C" d="M180.3,15.84c0,0.552,0.024,1.092,0.096,1.416h-1.644l-0.108-0.588h-0.036
				c-0.384,0.468-0.984,0.72-1.68,0.72c-1.188,0-1.896-0.864-1.896-1.8c0-1.524,1.368-2.244,3.444-2.244v-0.072
				c0-0.312-0.168-0.756-1.068-0.756c-0.6,0-1.236,0.204-1.62,0.432l-0.336-1.164c0.408-0.228,1.212-0.528,2.28-0.528
				c1.956,0,2.568,1.152,2.568,2.532V15.84z M178.536,14.484c-0.96,0-1.704,0.228-1.704,0.924c0,0.468,0.312,0.696,0.72,0.696
				c0.444,0,0.828-0.3,0.948-0.672c0.024-0.096,0.036-0.204,0.036-0.312V14.484z"/>
			<path fill="#FB0F0C" d="M180.552,18.396c0.468-0.036,0.852-0.144,1.08-0.384c0.264-0.276,0.36-0.744,0.36-1.908v-4.716h1.824
				v5.16c0,1.272-0.276,2.052-0.828,2.556c-0.54,0.492-1.392,0.72-2.256,0.72L180.552,18.396z M182.88,10.62
				c-0.612,0-1.008-0.432-1.008-0.972c0-0.552,0.408-0.972,1.032-0.972s1.008,0.42,1.02,0.972c0,0.54-0.396,0.972-1.032,0.972
				H182.88z"/>
			<path fill="#FB0F0C" d="M190.608,9.456v1.14l-3.216,6.66h-1.932l3.216-6.276v-0.024H185.1v-1.5H190.608z"/>
			<path fill="#FB0F0C" d="M204.083,9.288c0.672-0.12,1.548-0.18,2.46-0.18c1.548,0,2.556,0.252,3.324,0.84
				c0.84,0.624,1.368,1.632,1.368,3.072c0,1.548-0.564,2.616-1.332,3.276c-0.852,0.708-2.16,1.044-3.744,1.044
				c-0.948,0-1.632-0.06-2.076-0.12V9.288z M205.908,15.876c0.156,0.036,0.42,0.036,0.636,0.036c1.668,0.012,2.76-0.9,2.76-2.832
				c0-1.74-0.984-2.568-2.568-2.568c-0.396,0-0.672,0.036-0.828,0.072V15.876z"/>
			<path fill="#FB0F0C" d="M218.063,8.736v6.768c0,0.672,0.024,1.356,0.048,1.752h-1.62l-0.072-0.852h-0.036
				c-0.36,0.648-1.08,0.984-1.836,0.984c-1.392,0-2.508-1.188-2.508-3.012c-0.012-1.968,1.224-3.12,2.628-3.12
				c0.732,0,1.284,0.264,1.548,0.66h0.024v-3.18H218.063z M216.24,13.884c0-0.108,0-0.228-0.024-0.336
				c-0.108-0.492-0.504-0.888-1.068-0.888c-0.84,0-1.26,0.744-1.26,1.668c0,0.984,0.492,1.608,1.248,1.608
				c0.528,0,0.96-0.36,1.068-0.876c0.024-0.12,0.036-0.264,0.036-0.408V13.884z"/>
			<path fill="#FB0F0C" d="M220.427,10.62c-0.612,0-1.008-0.432-1.008-0.972c0-0.552,0.408-0.972,1.032-0.972s1.008,0.42,1.02,0.972
				c0,0.54-0.396,0.972-1.032,0.972H220.427z M219.527,17.256v-5.868h1.824v5.868H219.527z"/>
			<path fill="#FB0F0C" d="M222.815,13.26c0-0.732-0.024-1.344-0.048-1.872h1.548l0.072,0.804h0.036
				c0.252-0.384,0.78-0.936,1.776-0.936c0.768,0,1.356,0.396,1.608,1.008h0.024c0.228-0.312,0.48-0.552,0.768-0.72
				c0.324-0.18,0.684-0.288,1.116-0.288c1.128,0,1.98,0.792,1.98,2.544v3.456h-1.776v-3.18c0-0.852-0.276-1.344-0.864-1.344
				c-0.432,0-0.72,0.288-0.852,0.636c-0.036,0.132-0.06,0.312-0.06,0.456v3.432h-1.776v-3.288c0-0.732-0.264-1.236-0.852-1.236
				c-0.468,0-0.744,0.36-0.852,0.648c-0.06,0.144-0.072,0.312-0.072,0.468v3.408h-1.776V13.26z"/>
			<path fill="#FB0F0C" d="M238.499,9.456v1.14l-3.216,6.66h-1.932l3.216-6.276v-0.024h-3.576v-1.5H238.499z"/>
			<path fill="#FB0F0C" d="M268.117,9.168h4.932v1.5h-3.108v1.848h2.904v1.488h-2.904v3.252h-1.824V9.168z"/>
			<path fill="#FB0F0C" d="M279.733,9.456v1.14l-3.216,6.66h-1.932l3.216-6.276v-0.024h-3.576v-1.5H279.733z"/>
			<path fill="#FB0F0C" d="M322.309,9.168h4.932v1.5h-3.108v1.848h2.904v1.488h-2.904v3.252h-1.823V9.168z"/>
			<path fill="#FB0F0C" d="M338.256,13.26c0-0.732-0.024-1.344-0.048-1.872h1.548l0.072,0.804h0.036
				c0.252-0.384,0.779-0.936,1.775-0.936c0.769,0,1.356,0.396,1.608,1.008h0.023c0.229-0.312,0.48-0.552,0.769-0.72
				c0.324-0.18,0.684-0.288,1.116-0.288c1.128,0,1.979,0.792,1.979,2.544v3.456h-1.776v-3.18c0-0.852-0.275-1.344-0.863-1.344
				c-0.433,0-0.721,0.288-0.853,0.636c-0.036,0.132-0.06,0.312-0.06,0.456v3.432h-1.776v-3.288c0-0.732-0.264-1.236-0.852-1.236
				c-0.468,0-0.744,0.36-0.853,0.648c-0.06,0.144-0.071,0.312-0.071,0.468v3.408h-1.776V13.26z"/>
			<path fill="#FB0F0C" d="M353.939,9.456v1.14l-3.216,6.66h-1.932l3.216-6.276v-0.024h-3.576v-1.5H353.939z"/>
			<path fill="#FB0F0C" d="M379.02,16.884c-0.564,0.192-1.633,0.456-2.7,0.456c-1.477,0-2.544-0.372-3.288-1.08
				c-0.732-0.708-1.14-1.764-1.14-2.952c0.012-2.688,1.968-4.224,4.62-4.224c1.044,0,1.848,0.204,2.243,0.384l-0.384,1.476
				c-0.443-0.204-0.984-0.348-1.872-0.348c-1.523,0-2.688,0.864-2.688,2.616c0,1.68,1.056,2.652,2.556,2.652
				c0.408,0,0.744-0.048,0.888-0.108v-1.704h-1.248v-1.428h3.013V16.884z"/>
			<path fill="#FB0F0C" d="M387.287,14.16c-0.036-0.972-0.072-2.136-0.072-3.324h-0.023c-0.265,1.032-0.601,2.184-0.912,3.132
				l-0.984,3.156h-1.428l-0.864-3.12c-0.264-0.96-0.528-2.1-0.731-3.168h-0.024c-0.036,1.092-0.084,2.34-0.132,3.348l-0.156,3.072
				h-1.691l0.516-8.088h2.436l0.792,2.712c0.265,0.924,0.505,1.932,0.685,2.88h0.048c0.216-0.936,0.492-1.992,0.768-2.904
				l0.853-2.688h2.399l0.433,8.088h-1.776L387.287,14.16z"/>
			<path fill="#FB0F0C" d="M395.459,15.84c0,0.552,0.023,1.092,0.096,1.416h-1.644l-0.108-0.588h-0.036
				c-0.384,0.468-0.983,0.72-1.68,0.72c-1.188,0-1.896-0.864-1.896-1.8c0-1.524,1.368-2.244,3.444-2.244v-0.072
				c0-0.312-0.168-0.756-1.068-0.756c-0.6,0-1.235,0.204-1.619,0.432l-0.336-1.164c0.407-0.228,1.212-0.528,2.279-0.528
				c1.956,0,2.568,1.152,2.568,2.532V15.84z M393.695,14.484c-0.96,0-1.704,0.228-1.704,0.924c0,0.468,0.312,0.696,0.72,0.696
				c0.444,0,0.828-0.3,0.948-0.672c0.023-0.096,0.036-0.204,0.036-0.312V14.484z"/>
			<path fill="#FB0F0C" d="M395.711,18.396c0.468-0.036,0.852-0.144,1.08-0.384c0.264-0.276,0.359-0.744,0.359-1.908v-4.716h1.824
				v5.16c0,1.272-0.275,2.052-0.828,2.556c-0.54,0.492-1.392,0.72-2.256,0.72L395.711,18.396z M398.039,10.62
				c-0.612,0-1.008-0.432-1.008-0.972c0-0.552,0.407-0.972,1.031-0.972s1.009,0.42,1.021,0.972c0,0.54-0.396,0.972-1.032,0.972
				H398.039z"/>
			<path fill="#FB0F0C" d="M405.767,9.456v1.14l-3.216,6.66h-1.932l3.216-6.276v-0.024h-3.576v-1.5H405.767z"/>
			<path fill="#FB0F0C" d="M433.786,9.288c0.479-0.096,1.44-0.18,2.364-0.18c1.115,0,1.8,0.108,2.388,0.456
				c0.564,0.3,0.96,0.852,0.96,1.596c0,0.708-0.42,1.368-1.32,1.716V12.9c0.925,0.24,1.608,0.948,1.608,1.992
				c0,0.744-0.336,1.32-0.84,1.716c-0.588,0.468-1.572,0.732-3.181,0.732c-0.899,0-1.571-0.06-1.979-0.12V9.288z M435.598,12.372
				h0.601c0.972,0,1.476-0.396,1.476-0.996c0-0.612-0.468-0.936-1.296-0.936c-0.408,0-0.636,0.024-0.78,0.06V12.372z M435.598,15.96
				c0.181,0.036,0.396,0.036,0.708,0.036c0.828,0,1.561-0.324,1.561-1.176c0-0.816-0.732-1.14-1.645-1.14h-0.624V15.96z"/>
		</g>
		<path fill="none" stroke="#11100F" d="M412.9,37.33v29.746"/>
		<g>
			<path d="M102.921,56.512V52.6h0.696v3.672l2.352-0.768V52h0.696v3.288l0.936-0.312v2.496l-0.936,0.312v3.552l0.936-0.288v2.472
				l-0.936,0.312v3.912h-0.696v-3.696l-2.352,0.768v3.552h-0.696v-3.312l-1.032,0.336v-2.496l1.032-0.336v-3.576l-1.032,0.336
				v-2.472L102.921,56.512z M103.617,58.768v3.576l2.352-0.768V58L103.617,58.768z"/>
		</g>
		<g>
			<path d="M113.593,64.04c2.664,0.024,5.184,1.032,5.376,3.264c0.144,1.632-2.016,3.12-4.68,3.12
				c-2.688-0.024-5.184-1.008-5.4-3.24C108.745,65.528,110.929,64.04,113.593,64.04z M114.241,69.872
				c1.152,0,1.896-1.104,1.776-1.992c-0.264-1.752-0.864-3.168-2.448-3.168c-1.152,0-1.824,1.128-1.68,2.016
				C112.153,68.48,112.657,69.872,114.241,69.872z"/>
		</g>
		<g>
			<path d="M50.513,48.008c0,0.216,0,1.536,0,1.536c0.912-0.816,1.416-0.984,2.424-1.008c1.2-0.024,1.968,1.176,1.992,2.136
				c0.024,0.504-0.12,1.032-0.312,1.44c-0.216,0.528-0.792,0.936-1.176,1.32c-0.432,0.432-3.552,2.568-3.552,2.616V41.864h0.624
				C50.513,41.864,50.537,44.84,50.513,48.008z M50.777,50.384c-0.312,0.6-0.264,1.632-0.264,2.376v2.064
				c0,0.024,0.864-0.72,1.344-1.176c0.432-0.408,0.768-0.864,0.936-1.584c0.192-0.72,0.12-1.488-0.336-1.992
				C52.145,49.712,51.281,49.424,50.777,50.384z"/>
		</g>
		<g>
			<path fill="#FB0F0C" d="M330.921,4.512V0.6h0.695v3.672l2.353-0.768V0h0.696v3.288l0.936-0.312v2.496l-0.936,0.312v3.552
				l0.936-0.288v2.472l-0.936,0.312v3.912h-0.696v-3.696l-2.353,0.768v3.552h-0.695v-3.312l-1.032,0.336v-2.496l1.032-0.336V6.984
				l-1.032,0.336V4.848L330.921,4.512z M331.616,6.768v3.576l2.353-0.768V6L331.616,6.768z"/>
		</g>
		<g>
			<path fill="#FB0F0C" d="M159.513,8.008c0,0.216,0,1.536,0,1.536c0.912-0.816,1.416-0.984,2.424-1.008
				c1.2-0.024,1.968,1.176,1.992,2.136c0.024,0.504-0.12,1.032-0.312,1.44c-0.216,0.528-0.792,0.936-1.176,1.32
				c-0.432,0.432-3.552,2.568-3.552,2.616V1.864h0.624C159.513,1.864,159.537,4.84,159.513,8.008z M159.777,10.384
				c-0.312,0.6-0.264,1.632-0.264,2.376v2.064c0,0.024,0.864-0.72,1.344-1.176c0.432-0.408,0.768-0.864,0.936-1.584
				c0.192-0.72,0.12-1.488-0.336-1.992C161.145,9.712,160.281,9.424,159.777,10.384z"/>
		</g>
		<g>
			<path d="M156.513,73.008c0,0.216,0,1.536,0,1.536c0.912-0.816,1.416-0.984,2.424-1.008c1.2-0.024,1.968,1.176,1.992,2.136
				c0.024,0.504-0.12,1.032-0.312,1.44c-0.216,0.528-0.792,0.936-1.176,1.32c-0.432,0.432-3.552,2.568-3.552,2.616V66.864h0.624
				C156.513,66.864,156.537,69.84,156.513,73.008z M156.777,75.384c-0.312,0.6-0.264,1.632-0.264,2.376v2.064
				c0,0.024,0.864-0.72,1.344-1.176c0.432-0.408,0.768-0.864,0.936-1.584c0.192-0.72,0.12-1.488-0.336-1.992
				C158.145,74.712,157.281,74.424,156.777,75.384z"/>
		</g>
		<g>
			<path d="M214.513,45.008c0,0.216,0,1.536,0,1.536c0.912-0.816,1.416-0.984,2.424-1.008c1.2-0.024,1.968,1.176,1.992,2.136
				c0.024,0.504-0.12,1.032-0.312,1.44c-0.216,0.528-0.792,0.936-1.176,1.32c-0.432,0.432-3.552,2.568-3.552,2.616V38.864h0.624
				C214.513,38.864,214.537,41.84,214.513,45.008z M214.777,47.384c-0.312,0.6-0.264,1.632-0.264,2.376v2.064
				c0,0.024,0.864-0.72,1.344-1.176c0.432-0.408,0.768-0.864,0.936-1.584c0.192-0.72,0.12-1.488-0.336-1.992
				C216.145,46.712,215.281,46.424,214.777,47.384z"/>
		</g>
		<g>
			<path d="M322.884,59.533v-3.912h0.695v3.672l2.353-0.768v-3.504h0.696v3.288l0.936-0.312v2.496l-0.936,0.312v3.552l0.936-0.288
				v2.472l-0.936,0.312v3.912h-0.696v-3.696l-2.353,0.768v3.552h-0.695v-3.312l-1.032,0.336v-2.496l1.032-0.336v-3.576l-1.032,0.336
				v-2.472L322.884,59.533z M323.579,61.79v3.576l2.353-0.768v-3.576L323.579,61.79z"/>
		</g>
		<g>
			<path d="M375.231,34.271v-3.912h0.695v3.672l2.353-0.768v-3.504h0.696v3.288l0.936-0.312v2.496l-0.936,0.312v3.552l0.936-0.288
				v2.472l-0.936,0.312v3.912h-0.696v-3.696l-2.353,0.768v3.552h-0.695v-3.312l-1.032,0.336v-2.496l1.032-0.336v-3.576l-1.032,0.336
				v-2.472L375.231,34.271z M375.927,36.527v3.576l2.353-0.768v-3.576L375.927,36.527z"/>
		</g>
		<path fill="none" stroke="#FF0000" d="M446.801,9.696c0,1.243-1.176,2.25-2.625,2.25s-2.625-1.007-2.625-2.25
			s1.176-2.25,2.625-2.25S446.801,8.453,446.801,9.696z"/>
		<path fill="#FF0000" stroke="#FF0000" d="M441.059,12.418l6.547-6.039"/>
		<g>
			<path d="M211.134,52.698c0,0.216,0,1.536,0,1.536c0.912-0.816,1.416-0.984,2.424-1.008c1.2-0.024,1.968,1.176,1.992,2.136
				c0.024,0.504-0.12,1.032-0.312,1.44c-0.216,0.528-0.792,0.936-1.176,1.32c-0.432,0.432-3.552,2.568-3.552,2.616V46.554h0.624
				C211.134,46.554,211.158,49.53,211.134,52.698z M211.398,55.074c-0.312,0.6-0.264,1.632-0.264,2.376v2.064
				c0,0.024,0.864-0.72,1.344-1.176c0.432-0.408,0.768-0.864,0.936-1.584c0.192-0.72,0.12-1.488-0.336-1.992
				C212.766,54.402,211.902,54.114,211.398,55.074z"/>
		</g>
		<g>
			<path d="M279.904,38.799c2.664,0.024,5.184,1.032,5.375,3.264c0.145,1.632-2.016,3.12-4.68,3.12
				c-2.688-0.024-5.184-1.008-5.4-3.24C275.056,40.287,277.24,38.799,279.904,38.799z M280.552,44.631
				c1.152,0,1.896-1.104,1.776-1.992c-0.264-1.752-0.864-3.168-2.448-3.168c-1.152,0-1.824,1.128-1.68,2.016
				C278.464,43.239,278.968,44.631,280.552,44.631z"/>
		</g>
		<g>
			<path d="M268.134,37.698c0,0.216,0,1.536,0,1.536c0.912-0.816,1.416-0.984,2.424-1.008c1.2-0.024,1.968,1.176,1.992,2.136
				c0.024,0.504-0.12,1.032-0.312,1.44c-0.216,0.528-0.792,0.936-1.176,1.32c-0.432,0.432-3.552,2.568-3.552,2.616V31.554h0.624
				C268.134,31.554,268.158,34.53,268.134,37.698z M268.398,40.074c-0.312,0.6-0.264,1.632-0.264,2.376v2.064
				c0,0.024,0.864-0.72,1.344-1.176c0.432-0.408,0.768-0.864,0.936-1.584c0.192-0.72,0.12-1.488-0.336-1.992
				C269.766,39.402,268.902,39.114,268.398,40.074z"/>
		</g>
		<g>
			<path d="M386.903,34.799c2.664,0.024,5.184,1.032,5.376,3.264c0.144,1.632-2.016,3.12-4.68,3.12
				c-2.688-0.024-5.185-1.008-5.4-3.24C382.056,36.287,384.239,34.799,386.903,34.799z M387.551,40.631
				c1.152,0,1.896-1.104,1.776-1.992c-0.264-1.752-0.864-3.168-2.448-3.168c-1.151,0-1.823,1.128-1.68,2.016
				C385.463,39.239,385.967,40.631,387.551,40.631z"/>
		</g>
	</g>
</svg>
