<?xml version="1.0" encoding="utf-8"?>
<!-- Generator: Adobe Illustrator 10.0, SVG Export Plug-In . SVG Version: 3.0.0 Build 76)  -->
<!DOCTYPE svg PUBLIC "-//W3C//DTD SVG 1.0//EN"    "http://www.w3.org/TR/2001/REC-SVG-20010904/DTD/svg10.dtd" [
	<!ENTITY ns_flows "http://ns.adobe.com/Flows/1.0/">
	<!ENTITY ns_extend "http://ns.adobe.com/Extensibility/1.0/">
	<!ENTITY ns_ai "http://ns.adobe.com/AdobeIllustrator/10.0/">
	<!ENTITY ns_svg "http://www.w3.org/2000/svg">
	<!ENTITY ns_xlink "http://www.w3.org/1999/xlink">
]>
<svg  xmlns:x="&ns_extend;" xmlns:i="&ns_ai;" xmlns:graph="&ns_graphs;"
	 xmlns="&ns_svg;" xmlns:xlink="&ns_xlink;" xmlns:a="http://ns.adobe.com/AdobeSVGViewerExtensions/3.0/" width="326" height="167"
	 viewBox="0.303 0.195 326 167" overflow="visible" enable-background="new 0.303 0.195 326 167" xml:space="preserve">
	<g id="Layer_1_2_">
		<g>
			<path fill="none" stroke="#000000" d="M0.087,12.706h325.604"/>
			<path fill="none" stroke="#000000" d="M0.087,27.817h325.604"/>
			<path fill="none" stroke="#000000" d="M0.249,34.94h325.605"/>
			<path fill="none" stroke="#000000" d="M0,42.324h325.604"/>
			<path fill="none" stroke="#000000" d="M0,19.959h325.604"/>
		</g>
		<g>
			<path d="M9.324,41.918c-4.944-2.352-5.736-5.376-5.952-8.472c-0.24-3.36,1.896-6.768,3.888-8.664
				c1.152-1.08,2.4-2.136,3.888-3.264c-0.048-0.84-0.24-1.176-0.336-2.376c-0.024-0.504-0.336-2.856,0.168-5.568
				c0.312-1.608,2.328-5.4,3.72-5.424c1.08-0.024,2.736,4.296,2.784,6.456c0.072,3.336-0.72,4.848-1.704,6.576
				c-0.504,0.864-1.032,1.464-1.584,2.136c-0.576,0.696-1.224,1.104-1.824,1.632c0,0,0.768,4.344,0.792,4.656
				c1.536-0.192,3.408,0.36,4.08,0.84c1.704,1.272,2.352,3.024,2.472,4.728c0.216,2.712-1.272,5.568-4.56,6.936
				c0,0,0.504,3.456,0.624,4.176c0.264,1.896,0.216,3.096-0.192,3.864c-0.696,1.296-1.824,2.496-4.008,2.64
				c-1.68,0.096-4.992-0.744-5.16-3.384c-0.096-1.56,0.6-3.24,2.496-3.36c1.152-0.096,2.52,0.864,2.616,2.232
				c0.096,1.176-0.672,2.4-2.664,2.952c0.312,0.432,1.248,0.936,2.592,0.936c1.392,0,2.832-0.936,3.528-2.184
				c0.432-0.816,0.384-2.28,0.216-3.624c-0.072-0.456-0.648-4.08-0.648-4.08C12.78,42.566,10.332,42.398,9.324,41.918z M9.804,36.23
				c0.048,1.152,1.008,2.496,1.896,2.952c-0.12,0.072-0.24,0.264-0.24,0.264c-0.984-0.48-1.824-1.272-2.04-1.56
				c-0.696-0.936-0.984-1.464-1.08-2.88c-0.096-1.32,0.624-3.096,2.232-4.344c0.84-0.624,1.248-0.768,1.968-0.936l-0.72-4.344
				c-0.744,0.432-3.816,2.904-5.112,4.92c-1.152,1.8-1.848,3.24-1.704,5.016c0.288,4.008,4.68,7.296,9.432,6.168
				c0,0-1.416-8.52-1.392-8.52C10.428,33.062,9.732,35.078,9.804,36.23z M11.748,21.014c2.088-1.632,4.92-4.704,4.752-7.08
				c-0.048-0.744-0.36-2.088-1.44-2.064C12.588,11.894,11.196,17.054,11.748,21.014z M15.012,41.294
				c2.76-0.936,2.88-3.312,2.784-4.728c-0.096-1.176-0.624-3.816-4.128-3.648L15.012,41.294z"/>
		</g>
		<g>
			<path d="M59.582,17.303c2.04,0.024,3.144,1.416,2.52,3.12c-0.624,1.728-2.784,3.096-4.8,3.072
				c-0.984-0.024-1.776-0.384-2.232-0.936v19.08h-0.456c0-24.216,0-20.4,0-20.4c0-0.288,0.072-0.576,0.192-0.888
				C55.429,18.623,57.565,17.279,59.582,17.303z"/>
		</g>
		<g>
			<path d="M86.582,17.303c2.04,0.024,3.144,1.416,2.52,3.12c-0.624,1.728-2.784,3.096-4.8,3.072
				c-0.984-0.024-1.776-0.384-2.232-0.936v19.08h-0.456c0-24.216,0-20.4,0-20.4c0-0.288,0.072-0.576,0.192-0.888
				C82.429,18.623,84.565,17.279,86.582,17.303z"/>
		</g>
		<g>
			<path d="M113.582,17.303c2.04,0.024,3.144,1.416,2.52,3.12c-0.624,1.728-2.784,3.096-4.8,3.072
				c-0.984-0.024-1.776-0.384-2.232-0.936v19.08h-0.456c0-24.216,0-20.4,0-20.4c0-0.288,0.072-0.576,0.192-0.888
				C109.429,18.623,111.565,17.279,113.582,17.303z"/>
		</g>
		<g>
			<path d="M239.581,17.303c2.04,0.024,3.144,1.416,2.52,3.12c-0.624,1.728-2.784,3.096-4.8,3.072
				c-0.984-0.024-1.776-0.384-2.232-0.936v19.08h-0.456c0-24.216,0-20.4,0-20.4c0-0.288,0.072-0.576,0.192-0.888
				C235.429,18.623,237.565,17.279,239.581,17.303z"/>
		</g>
		<g>
			<path d="M268.581,17.303c2.04,0.024,3.144,1.416,2.52,3.12c-0.624,1.728-2.784,3.096-4.8,3.072
				c-0.984-0.024-1.776-0.384-2.232-0.936v19.08h-0.456c0-24.216,0-20.4,0-20.4c0-0.288,0.072-0.576,0.192-0.888
				C264.429,18.623,266.565,17.279,268.581,17.303z"/>
		</g>
		<g>
			<path d="M295.581,17.303c2.04,0.024,3.145,1.416,2.521,3.12c-0.624,1.728-2.784,3.096-4.8,3.072
				c-0.984-0.024-1.776-0.384-2.232-0.936v19.08h-0.456c0-24.216,0-20.4,0-20.4c0-0.288,0.072-0.576,0.192-0.888
				C291.429,18.623,293.565,17.279,295.581,17.303z"/>
		</g>
		<path fill="none" stroke="#0A0A0A" d="M135.97,12.131v29.746"/>
		<g>
			<path d="M59.69,7.373c-0.713,0-1.217-0.536-1.217-1.25s0.524-1.25,1.259-1.25s1.238,0.516,1.238,1.25
				c0,0.714-0.503,1.25-1.259,1.25H59.69z"/>
		</g>
		<g>
			<path d="M33.517,25.72c-2.448,0-4.272-1.2-4.272-3.168c0-0.84,0.816-1.728,1.68-1.728c0.888,0,1.824,0.528,1.824,1.536
				c0,1.224-0.936,1.368-0.864,2.232c0.024,0.216,0.72,0.6,0.96,0.6c1.608,0,2.376-1.848,2.376-2.928
				c0-2.064-1.896-1.848-3.432-2.16c0-0.048,0.024-0.648,0.024-0.624c1.56-0.192,3.072-0.72,3.048-2.52
				c-0.024-2.52-2.016-2.352-2.328-2.352c-0.168,0-0.696,0.336-0.672,0.6c0.072,0.528,0.816,0.768,1.128,1.704
				c0.312,0.912-0.768,1.92-1.68,1.92c-1.056,0-1.848-1.176-1.848-1.776c0-1.392,1.104-3.144,4.848-3.144
				c1.632,0,3.432,1.128,3.432,2.904c0,2.352-2.76,2.52-2.76,2.856c1.392,0.144,3.24,0.672,3.24,2.52
				C38.221,24.64,35.269,25.72,33.517,25.72z"/>
		</g>
		<g>
			<path d="M36.261,37.456v1.584c0,0.96,1.128,0.936,1.128,0.936V40.6h-5.208v-0.624c0,0,1.176,0.048,1.152-0.888v-1.632h-4.44
				L28.461,37c2.904-3.912,2.928-4.632,3.624-8.184h4.152c-0.984,1.824-4.296,5.256-6.624,7.968h3.72v-2.952l2.928-3.216v6.168
				h1.728v0.672H36.261z"/>
		</g>
		<path fill="none" stroke="#0A0A0A" d="M221.97,12.131v29.746"/>
		<path fill="none" stroke="#0A0A0A" d="M324.978,13.256v29.746"/>
		<g>
			<path d="M85.69,7.373c-0.713,0-1.217-0.536-1.217-1.25s0.524-1.25,1.259-1.25s1.238,0.516,1.238,1.25
				c0,0.714-0.503,1.25-1.259,1.25H85.69z"/>
		</g>
		<g>
			<path d="M112.577,8.034c-0.713,0-1.217-0.536-1.217-1.25s0.524-1.25,1.259-1.25s1.238,0.516,1.238,1.25
				c0,0.714-0.503,1.25-1.259,1.25H112.577z"/>
		</g>
		<g>
			<path d="M157.69,48.373c-0.713,0-1.217-0.536-1.217-1.25s0.524-1.25,1.259-1.25s1.238,0.516,1.238,1.25
				c0,0.714-0.503,1.25-1.259,1.25H157.69z"/>
		</g>
		<g>
			<path d="M181.69,48.373c-0.713,0-1.217-0.536-1.217-1.25s0.524-1.25,1.259-1.25s1.238,0.516,1.238,1.25
				c0,0.714-0.503,1.25-1.259,1.25H181.69z"/>
		</g>
		<g>
			<path d="M204.577,49.034c-0.713,0-1.217-0.536-1.217-1.25s0.524-1.25,1.259-1.25s1.238,0.516,1.238,1.25
				c0,0.714-0.503,1.25-1.259,1.25H204.577z"/>
		</g>
		<g>
			<path d="M232.875,3.192c0-1.044,0.996-1.548,1.92-1.548c0.588,0,1.44,0.204,1.44,0.948c0,0.288-0.216,0.504-0.504,0.504
				c-0.36,0-0.504-0.324-0.516-0.624c-0.012-0.288-0.096-0.42-0.42-0.42c-0.384,0-0.648,0.192-0.648,0.564
				c0,0.444,0.372,0.768,0.648,1.044c0.468,0.48,0.864,0.96,0.864,1.668c0,1.032-1.056,1.644-1.98,1.644
				c-0.672,0-1.62-0.324-1.62-1.152c0-0.324,0.192-0.564,0.528-0.564c0.3,0,0.552,0.204,0.552,0.528l-0.012,0.204l-0.012,0.192
				c0,0.264,0.276,0.384,0.492,0.384c0.408,0,0.72-0.348,0.72-0.744c0-0.408-0.228-0.636-0.48-0.924
				C233.439,4.416,232.875,3.852,232.875,3.192z"/>
			<path d="M238.875,1.884h1.14l-0.132,0.48h-1.14l-0.552,2.076c-0.096,0.336-0.3,1.056-0.3,1.392c0,0.18,0.048,0.42,0.276,0.42
				c0.408,0,0.816-0.732,0.984-1.02l0.096-0.168l0.228,0.12c-0.372,0.744-1.02,1.788-1.944,1.788c-0.54,0-0.972-0.396-0.972-0.936
				c0-0.516,0.228-1.296,0.36-1.8l0.504-1.872h-0.948l0.108-0.48h0.96L238.155,0h1.224L238.875,1.884z"/>
			<path d="M244.155,1.656h1.248l-0.9,3.216c-0.06,0.204-0.192,0.696-0.192,0.888c0,0.144,0.06,0.42,0.228,0.42
				c0.372,0,0.72-0.804,0.888-1.08l0.252,0.108c-0.324,0.756-0.96,1.764-1.872,1.764c-0.456,0-0.768-0.36-0.768-0.804l0.036-0.432
				l-0.024-0.024c-0.36,0.672-0.984,1.26-1.8,1.26c-1.008,0-1.488-0.804-1.488-1.74c0-1.548,1.212-3.588,2.94-3.588
				c0.564,0,0.972,0.276,1.188,0.78L244.155,1.656z M241.203,5.472c0,0.348,0.168,0.78,0.576,0.78c1.092,0,1.824-2.4,1.824-3.264
				c0-0.384-0.216-0.684-0.636-0.684C241.911,2.304,241.203,4.62,241.203,5.472z"/>
			<path d="M250.107,5.388c-0.468,0.852-1.308,1.584-2.316,1.584c-1.152,0-1.788-0.804-1.788-1.896c0-1.716,1.284-3.432,3.084-3.432
				c0.624,0,1.44,0.312,1.44,1.056c0,0.372-0.276,0.72-0.66,0.72c-0.372,0-0.672-0.252-0.672-0.624c0-0.348,0.216-0.42,0.216-0.588
				c0-0.156-0.192-0.204-0.324-0.204c-1.08,0-1.644,2.484-1.644,3.324c0,0.492,0.252,0.984,0.816,0.984
				c0.696,0,1.224-0.576,1.572-1.128L250.107,5.388z"/>
			<path d="M254.667,5.388c-0.468,0.852-1.308,1.584-2.316,1.584c-1.152,0-1.788-0.804-1.788-1.896c0-1.716,1.284-3.432,3.084-3.432
				c0.624,0,1.44,0.312,1.44,1.056c0,0.372-0.276,0.72-0.66,0.72c-0.372,0-0.672-0.252-0.672-0.624c0-0.348,0.216-0.42,0.216-0.588
				c0-0.156-0.192-0.204-0.324-0.204c-1.08,0-1.644,2.484-1.644,3.324c0,0.492,0.252,0.984,0.816,0.984
				c0.696,0,1.224-0.576,1.572-1.128L254.667,5.388z"/>
			<path d="M259.515,1.656h1.248l-0.9,3.216c-0.06,0.204-0.192,0.696-0.192,0.888c0,0.144,0.06,0.42,0.228,0.42
				c0.372,0,0.72-0.804,0.888-1.08l0.252,0.108c-0.324,0.756-0.96,1.764-1.872,1.764c-0.456,0-0.768-0.36-0.768-0.804l0.036-0.432
				l-0.024-0.024c-0.36,0.672-0.984,1.26-1.8,1.26c-1.008,0-1.488-0.804-1.488-1.74c0-1.548,1.212-3.588,2.94-3.588
				c0.564,0,0.972,0.276,1.188,0.78L259.515,1.656z M256.563,5.472c0,0.348,0.168,0.78,0.576,0.78c1.092,0,1.824-2.4,1.824-3.264
				c0-0.384-0.216-0.684-0.636-0.684C257.271,2.304,256.563,4.62,256.563,5.472z"/>
			<path d="M263.834,1.884h1.14l-0.132,0.48h-1.14L263.15,4.44c-0.096,0.336-0.3,1.056-0.3,1.392c0,0.18,0.048,0.42,0.276,0.42
				c0.408,0,0.816-0.732,0.984-1.02l0.096-0.168l0.228,0.12c-0.372,0.744-1.02,1.788-1.944,1.788c-0.54,0-0.972-0.396-0.972-0.936
				c0-0.516,0.228-1.296,0.36-1.8l0.504-1.872h-0.948l0.108-0.48h0.96L263.114,0h1.224L263.834,1.884z"/>
			<path d="M264.723,4.908c0-1.68,1.26-3.264,2.988-3.264c1.224,0,1.992,0.9,1.992,2.076c0,1.62-1.308,3.252-2.988,3.252
				C265.49,6.972,264.723,6.108,264.723,4.908z M266.522,3.576c-0.216,0.6-0.468,1.512-0.468,2.16c0,0.372,0.144,0.828,0.6,0.828
				c1.104,0,1.716-2.904,1.716-3.756c0-0.384-0.18-0.756-0.612-0.756C267.05,2.052,266.703,3.024,266.522,3.576z"/>
			<path d="M270.458,6.036c0-0.48,0.408-0.828,0.864-0.828s0.828,0.396,0.828,0.84s-0.36,0.852-0.816,0.852
				C270.854,6.9,270.458,6.528,270.458,6.036z"/>
			<path d="M273.818,6.036c0-0.48,0.408-0.828,0.864-0.828c0.456,0,0.828,0.396,0.828,0.84S275.15,6.9,274.694,6.9
				C274.214,6.9,273.818,6.528,273.818,6.036z"/>
			<path d="M277.178,6.036c0-0.48,0.408-0.828,0.864-0.828s0.828,0.396,0.828,0.84S278.51,6.9,278.054,6.9
				C277.574,6.9,277.178,6.528,277.178,6.036z"/>
		</g>
		<g>
			<path d="M29.913,64.512l-0.192,2.88h-0.648l-0.192-2.88H29.913z M31.701,64.512l-0.192,2.88h-0.648l-0.192-2.88H31.701z"/>
			<path d="M33.093,71.544c0.468,0.3,1.14,0.528,1.86,0.528c1.068,0,1.692-0.552,1.692-1.38c0-0.744-0.432-1.188-1.524-1.596
				c-1.32-0.48-2.136-1.176-2.136-2.304c0-1.26,1.044-2.196,2.616-2.196c0.816,0,1.428,0.192,1.776,0.396l-0.288,0.852
				c-0.252-0.156-0.792-0.384-1.524-0.384c-1.104,0-1.524,0.66-1.524,1.212c0,0.756,0.492,1.128,1.608,1.56
				c1.368,0.54,2.052,1.188,2.052,2.376c0,1.248-0.912,2.34-2.82,2.34c-0.78,0-1.632-0.24-2.064-0.528L33.093,71.544z"/>
			<path d="M40.329,65.616v1.392h1.512v0.804h-1.512v3.132c0,0.72,0.204,1.128,0.792,1.128c0.288,0,0.456-0.024,0.612-0.072
				l0.048,0.804c-0.204,0.072-0.528,0.144-0.936,0.144c-0.492,0-0.888-0.168-1.14-0.444c-0.288-0.324-0.408-0.84-0.408-1.524v-3.168
				h-0.9v-0.804h0.9V65.94L40.329,65.616z"/>
			<path d="M47.121,71.424c0,0.504,0.024,0.996,0.084,1.392h-0.948l-0.096-0.732h-0.036c-0.312,0.456-0.948,0.864-1.776,0.864
				c-1.176,0-1.776-0.828-1.776-1.668c0-1.404,1.248-2.172,3.492-2.16V69c0-0.48-0.132-1.356-1.32-1.344
				c-0.552,0-1.116,0.156-1.524,0.432l-0.24-0.708c0.48-0.3,1.188-0.504,1.92-0.504c1.788,0,2.22,1.212,2.22,2.376V71.424z
				 M46.089,69.852c-1.152-0.024-2.46,0.18-2.46,1.308c0,0.696,0.456,1.008,0.984,1.008c0.768,0,1.26-0.48,1.428-0.972
				c0.036-0.108,0.048-0.228,0.048-0.336V69.852z"/>
			<path d="M52.953,72.612c-0.276,0.132-0.888,0.336-1.668,0.336c-1.752,0-2.892-1.188-2.892-2.976c0-1.788,1.224-3.096,3.12-3.096
				c0.624,0,1.176,0.156,1.464,0.312l-0.24,0.804c-0.252-0.132-0.648-0.276-1.224-0.276c-1.332,0-2.052,0.996-2.052,2.208
				c0,1.344,0.864,2.172,2.016,2.172c0.6,0,0.996-0.144,1.296-0.276L52.953,72.612z"/>
			<path d="M58.329,72.612c-0.276,0.132-0.888,0.336-1.668,0.336c-1.752,0-2.892-1.188-2.892-2.976c0-1.788,1.224-3.096,3.12-3.096
				c0.624,0,1.176,0.156,1.464,0.312l-0.24,0.804c-0.252-0.132-0.648-0.276-1.224-0.276c-1.332,0-2.052,0.996-2.052,2.208
				c0,1.344,0.864,2.172,2.016,2.172c0.6,0,0.996-0.144,1.296-0.276L58.329,72.612z"/>
			<path d="M63.668,71.424c0,0.504,0.024,0.996,0.084,1.392h-0.948l-0.096-0.732h-0.036c-0.312,0.456-0.948,0.864-1.776,0.864
				c-1.176,0-1.776-0.828-1.776-1.668c0-1.404,1.248-2.172,3.492-2.16V69c0-0.48-0.132-1.356-1.32-1.344
				c-0.552,0-1.116,0.156-1.524,0.432l-0.24-0.708c0.48-0.3,1.188-0.504,1.92-0.504c1.788,0,2.22,1.212,2.22,2.376V71.424z
				 M62.637,69.852c-1.152-0.024-2.46,0.18-2.46,1.308c0,0.696,0.456,1.008,0.984,1.008c0.768,0,1.26-0.48,1.428-0.972
				c0.036-0.108,0.048-0.228,0.048-0.336V69.852z"/>
			<path d="M66.584,65.616v1.392h1.512v0.804h-1.512v3.132c0,0.72,0.204,1.128,0.792,1.128c0.288,0,0.456-0.024,0.612-0.072
				l0.048,0.804c-0.204,0.072-0.528,0.144-0.936,0.144c-0.492,0-0.888-0.168-1.14-0.444c-0.288-0.324-0.408-0.84-0.408-1.524v-3.168
				h-0.9v-0.804h0.9V65.94L66.584,65.616z"/>
			<path d="M71.577,72.948c-1.56,0-2.784-1.152-2.784-2.988c0-1.944,1.284-3.084,2.88-3.084c1.668,0,2.796,1.212,2.796,2.976
				c0,2.16-1.5,3.096-2.88,3.096H71.577z M71.613,72.156c1.008,0,1.764-0.948,1.764-2.268c0-0.984-0.492-2.22-1.74-2.22
				c-1.236,0-1.776,1.152-1.776,2.256c0,1.272,0.72,2.232,1.74,2.232H71.613z"/>
			<path d="M76.568,64.512l-0.192,2.88h-0.648l-0.192-2.88H76.568z M78.356,64.512l-0.192,2.88h-0.648l-0.192-2.88H78.356z"/>
			<path d="M82.388,68.58c0-0.612-0.024-1.092-0.048-1.572h0.924l0.048,0.936h0.036c0.324-0.552,0.864-1.068,1.836-1.068
				c0.78,0,1.38,0.48,1.632,1.164h0.024c0.18-0.336,0.42-0.576,0.66-0.756c0.348-0.264,0.72-0.408,1.272-0.408
				c0.78,0,1.92,0.504,1.92,2.52v3.42H89.66v-3.288c0-1.128-0.42-1.788-1.26-1.788c-0.612,0-1.068,0.444-1.26,0.948
				c-0.048,0.156-0.084,0.348-0.084,0.528v3.6h-1.032v-3.48c0-0.936-0.408-1.596-1.212-1.596c-0.648,0-1.14,0.528-1.308,1.056
				c-0.06,0.156-0.084,0.336-0.084,0.516v3.504h-1.032V68.58z"/>
			<path d="M96.488,71.424c0,0.504,0.024,0.996,0.084,1.392h-0.948l-0.096-0.732h-0.036c-0.312,0.456-0.948,0.864-1.776,0.864
				c-1.176,0-1.776-0.828-1.776-1.668c0-1.404,1.248-2.172,3.492-2.16V69c0-0.48-0.132-1.356-1.32-1.344
				c-0.552,0-1.116,0.156-1.524,0.432l-0.24-0.708c0.48-0.3,1.188-0.504,1.92-0.504c1.788,0,2.22,1.212,2.22,2.376V71.424z
				 M95.456,69.852c-1.152-0.024-2.46,0.18-2.46,1.308c0,0.696,0.456,1.008,0.984,1.008c0.768,0,1.26-0.48,1.428-0.972
				c0.036-0.108,0.048-0.228,0.048-0.336V69.852z"/>
			<path d="M98.432,67.008l1.26,3.432c0.144,0.384,0.288,0.84,0.384,1.188h0.024c0.108-0.348,0.228-0.792,0.372-1.212l1.152-3.408
				h1.116l-1.584,4.14c-0.756,1.992-1.272,3.012-1.992,3.648c-0.528,0.444-1.032,0.624-1.296,0.672l-0.264-0.888
				c0.264-0.072,0.612-0.24,0.924-0.516c0.288-0.228,0.636-0.636,0.888-1.176c0.048-0.108,0.084-0.18,0.084-0.252
				c0-0.06-0.024-0.144-0.084-0.264l-2.136-5.364H98.432z"/>
			<path d="M106.244,64.296h1.056v3.636h0.024c0.372-0.648,1.044-1.056,1.98-1.056c1.44,0,2.448,1.2,2.448,2.952
				c0,2.088-1.32,3.12-2.616,3.12c-0.84,0-1.5-0.324-1.944-1.092h-0.024l-0.06,0.96h-0.912c0.036-0.396,0.048-0.984,0.048-1.5
				V64.296z M107.3,70.488c0,0.132,0.012,0.264,0.036,0.384c0.204,0.732,0.828,1.236,1.584,1.236c1.116,0,1.764-0.9,1.764-2.232
				c0-1.176-0.6-2.172-1.728-2.172c-0.72,0-1.392,0.504-1.596,1.296c-0.036,0.132-0.06,0.276-0.06,0.444V70.488z"/>
			<path d="M113.684,70.092c0.024,1.428,0.924,2.016,1.98,2.016c0.756,0,1.224-0.132,1.608-0.288l0.192,0.744
				c-0.372,0.168-1.02,0.372-1.944,0.372c-1.776,0-2.856-1.188-2.856-2.928c0-1.764,1.044-3.144,2.736-3.144
				c1.896,0,2.388,1.668,2.388,2.736c0,0.216-0.012,0.384-0.036,0.504L113.684,70.092z M116.768,69.336
				c0.012-0.66-0.276-1.716-1.452-1.716c-1.08,0-1.536,0.984-1.62,1.716H116.768z"/>
			<path d="M122.06,67.008l0.78,2.94c0.156,0.648,0.312,1.26,0.42,1.86h0.036c0.132-0.588,0.324-1.212,0.516-1.848l0.948-2.952
				h0.888l0.9,2.904c0.216,0.684,0.384,1.308,0.516,1.896h0.036c0.096-0.588,0.252-1.2,0.444-1.884l0.828-2.916h1.044l-1.872,5.808
				h-0.96l-0.888-2.772c-0.204-0.66-0.372-1.236-0.516-1.92h-0.024c-0.144,0.696-0.324,1.308-0.528,1.932l-0.936,2.76h-0.96
				l-1.752-5.808H122.06z"/>
			<path d="M130.483,68.82c0-0.684-0.012-1.272-0.048-1.812h0.924l0.048,1.14h0.036c0.264-0.78,0.912-1.272,1.62-1.272
				c0.108,0,0.192,0.012,0.288,0.036v0.984c-0.12-0.012-0.228-0.024-0.372-0.024c-0.744,0-1.272,0.564-1.416,1.344
				c-0.024,0.156-0.036,0.324-0.036,0.504v3.096h-1.056L130.483,68.82z"/>
			<path d="M134.948,65.94c-0.396,0-0.66-0.312-0.66-0.684s0.276-0.672,0.684-0.672c0.408,0,0.672,0.3,0.672,0.672
				s-0.264,0.684-0.684,0.684H134.948z M134.443,72.816v-5.808h1.056v5.808H134.443z"/>
			<path d="M138.523,65.616v1.392h1.512v0.804h-1.512v3.132c0,0.72,0.204,1.128,0.792,1.128c0.288,0,0.456-0.024,0.612-0.072
				l0.048,0.804c-0.204,0.072-0.528,0.144-0.936,0.144c-0.492,0-0.888-0.168-1.14-0.444c-0.288-0.324-0.408-0.84-0.408-1.524v-3.168
				h-0.9v-0.804h0.9V65.94L138.523,65.616z"/>
			<path d="M142.496,65.616v1.392h1.512v0.804h-1.512v3.132c0,0.72,0.204,1.128,0.792,1.128c0.288,0,0.456-0.024,0.612-0.072
				l0.048,0.804c-0.204,0.072-0.528,0.144-0.936,0.144c-0.492,0-0.888-0.168-1.14-0.444c-0.288-0.324-0.408-0.84-0.408-1.524v-3.168
				h-0.9v-0.804h0.9V65.94L142.496,65.616z"/>
			<path d="M145.723,70.092c0.024,1.428,0.924,2.016,1.98,2.016c0.756,0,1.224-0.132,1.608-0.288l0.192,0.744
				c-0.372,0.168-1.02,0.372-1.944,0.372c-1.776,0-2.856-1.188-2.856-2.928c0-1.764,1.044-3.144,2.736-3.144
				c1.896,0,2.388,1.668,2.388,2.736c0,0.216-0.012,0.384-0.036,0.504L145.723,70.092z M148.807,69.336
				c0.012-0.66-0.276-1.716-1.452-1.716c-1.08,0-1.536,0.984-1.62,1.716H148.807z"/>
			<path d="M151.135,68.58c0-0.612-0.012-1.092-0.048-1.572h0.936l0.06,0.948h0.024c0.288-0.54,0.96-1.08,1.92-1.08
				c0.804,0,2.052,0.48,2.052,2.472v3.468h-1.056v-3.348c0-0.936-0.348-1.728-1.344-1.728c-0.684,0-1.224,0.492-1.416,1.08
				c-0.048,0.132-0.072,0.324-0.072,0.492v3.504h-1.056V68.58z"/>
			<path d="M160.843,65.94c-0.396,0-0.66-0.312-0.66-0.684s0.276-0.672,0.684-0.672c0.408,0,0.672,0.3,0.672,0.672
				s-0.264,0.684-0.684,0.684H160.843z M160.339,72.816v-5.808h1.056v5.808H160.339z"/>
			<path d="M163.147,68.58c0-0.612-0.012-1.092-0.048-1.572h0.936l0.06,0.948h0.024c0.288-0.54,0.96-1.08,1.92-1.08
				c0.804,0,2.052,0.48,2.052,2.472v3.468h-1.056v-3.348c0-0.936-0.348-1.728-1.344-1.728c-0.684,0-1.224,0.492-1.416,1.08
				c-0.048,0.132-0.072,0.324-0.072,0.492v3.504h-1.056V68.58z"/>
			<path d="M171.031,65.616v1.392h1.512v0.804h-1.512v3.132c0,0.72,0.204,1.128,0.792,1.128c0.288,0,0.456-0.024,0.612-0.072
				l0.048,0.804c-0.204,0.072-0.528,0.144-0.936,0.144c-0.492,0-0.888-0.168-1.14-0.444c-0.288-0.324-0.408-0.84-0.408-1.524v-3.168
				h-0.9v-0.804h0.9V65.94L171.031,65.616z"/>
			<path d="M176.023,72.948c-1.56,0-2.784-1.152-2.784-2.988c0-1.944,1.284-3.084,2.88-3.084c1.668,0,2.796,1.212,2.796,2.976
				c0,2.16-1.5,3.096-2.88,3.096H176.023z M176.059,72.156c1.008,0,1.764-0.948,1.764-2.268c0-0.984-0.492-2.22-1.74-2.22
				c-1.236,0-1.776,1.152-1.776,2.256c0,1.272,0.72,2.232,1.74,2.232H176.059z"/>
			<path d="M184.063,65.616v1.392h1.512v0.804h-1.512v3.132c0,0.72,0.204,1.128,0.792,1.128c0.288,0,0.456-0.024,0.612-0.072
				l0.048,0.804c-0.204,0.072-0.528,0.144-0.936,0.144c-0.492,0-0.888-0.168-1.14-0.444c-0.288-0.324-0.408-0.84-0.408-1.524v-3.168
				h-0.9v-0.804h0.9V65.94L184.063,65.616z"/>
			<path d="M186.763,64.296h1.056v3.624h0.024c0.168-0.3,0.432-0.576,0.756-0.744c0.312-0.192,0.684-0.3,1.08-0.3
				c0.78,0,2.028,0.48,2.028,2.484v3.456h-1.056V69.48c0-0.948-0.348-1.728-1.344-1.728c-0.684,0-1.212,0.48-1.416,1.056
				c-0.06,0.144-0.072,0.3-0.072,0.504v3.504h-1.056V64.296z"/>
			<path d="M194.022,70.092c0.024,1.428,0.924,2.016,1.98,2.016c0.756,0,1.224-0.132,1.608-0.288l0.192,0.744
				c-0.372,0.168-1.02,0.372-1.944,0.372c-1.776,0-2.856-1.188-2.856-2.928c0-1.764,1.044-3.144,2.736-3.144
				c1.896,0,2.388,1.668,2.388,2.736c0,0.216-0.012,0.384-0.036,0.504L194.022,70.092z M197.106,69.336
				c0.012-0.66-0.276-1.716-1.452-1.716c-1.08,0-1.536,0.984-1.62,1.716H197.106z"/>
			<path d="M201.979,68.904c0-0.744-0.012-1.344-0.048-1.896h0.948l0.06,0.996h0.024c0.42-0.72,1.116-1.128,2.052-1.128
				c1.416,0,2.472,1.188,2.472,2.952c0,2.088-1.284,3.12-2.64,3.12c-0.78,0-1.44-0.336-1.788-0.912h-0.024v3.156h-1.056V68.904z
				 M203.034,70.452c0,0.144,0.012,0.3,0.048,0.432c0.18,0.732,0.828,1.236,1.572,1.236c1.116,0,1.764-0.912,1.764-2.244
				c0-1.164-0.6-2.16-1.716-2.16c-0.72,0-1.404,0.504-1.608,1.296c-0.024,0.144-0.06,0.3-0.06,0.432V70.452z"/>
			<path d="M212.898,71.424c0,0.504,0.024,0.996,0.084,1.392h-0.948l-0.096-0.732h-0.036c-0.312,0.456-0.948,0.864-1.776,0.864
				c-1.176,0-1.776-0.828-1.776-1.668c0-1.404,1.248-2.172,3.492-2.16V69c0-0.48-0.132-1.356-1.32-1.344
				c-0.552,0-1.116,0.156-1.524,0.432l-0.24-0.708c0.48-0.3,1.188-0.504,1.92-0.504c1.788,0,2.22,1.212,2.22,2.376V71.424z
				 M211.866,69.852c-1.152-0.024-2.46,0.18-2.46,1.308c0,0.696,0.456,1.008,0.984,1.008c0.768,0,1.26-0.48,1.428-0.972
				c0.036-0.108,0.048-0.228,0.048-0.336V69.852z"/>
			<path d="M214.602,68.82c0-0.684-0.012-1.272-0.048-1.812h0.924l0.048,1.14h0.036c0.264-0.78,0.912-1.272,1.62-1.272
				c0.108,0,0.192,0.012,0.288,0.036v0.984c-0.12-0.012-0.228-0.024-0.372-0.024c-0.744,0-1.272,0.564-1.416,1.344
				c-0.024,0.156-0.036,0.324-0.036,0.504v3.096h-1.056L214.602,68.82z"/>
			<path d="M220.074,65.616v1.392h1.512v0.804h-1.512v3.132c0,0.72,0.204,1.128,0.792,1.128c0.288,0,0.456-0.024,0.612-0.072
				l0.048,0.804c-0.204,0.072-0.528,0.144-0.936,0.144c-0.492,0-0.888-0.168-1.14-0.444c-0.288-0.324-0.408-0.84-0.408-1.524v-3.168
				h-0.9v-0.804h0.9V65.94L220.074,65.616z"/>
			<path d="M34.053,87.448c-1.56,0-2.784-1.152-2.784-2.988c0-1.944,1.284-3.084,2.88-3.084c1.668,0,2.796,1.212,2.796,2.976
				c0,2.16-1.5,3.096-2.88,3.096H34.053z M34.089,86.656c1.008,0,1.764-0.948,1.764-2.268c0-0.984-0.492-2.22-1.74-2.22
				c-1.236,0-1.776,1.152-1.776,2.256c0,1.272,0.72,2.232,1.74,2.232H34.089z"/>
			<path d="M38.289,83.32c0-0.684-0.012-1.272-0.048-1.812h0.924l0.048,1.14h0.036c0.264-0.78,0.912-1.272,1.62-1.272
				c0.108,0,0.192,0.012,0.288,0.036v0.984c-0.12-0.012-0.228-0.024-0.372-0.024c-0.744,0-1.272,0.564-1.416,1.344
				c-0.024,0.156-0.036,0.324-0.036,0.504v3.096h-1.056L38.289,83.32z"/>
			<path d="M44.745,83.08c0-0.612-0.024-1.092-0.048-1.572h0.924l0.048,0.936h0.036c0.324-0.552,0.864-1.068,1.836-1.068
				c0.78,0,1.38,0.48,1.632,1.164h0.024c0.18-0.336,0.42-0.576,0.66-0.756c0.348-0.264,0.72-0.408,1.272-0.408
				c0.78,0,1.92,0.504,1.92,2.52v3.42h-1.032v-3.288c0-1.128-0.42-1.788-1.26-1.788c-0.612,0-1.068,0.444-1.26,0.948
				c-0.048,0.156-0.084,0.348-0.084,0.528v3.6h-1.032v-3.48c0-0.936-0.408-1.596-1.212-1.596c-0.648,0-1.14,0.528-1.308,1.056
				c-0.06,0.156-0.084,0.336-0.084,0.516v3.504h-1.032V83.08z"/>
			<path d="M58.845,85.924c0,0.504,0.024,0.996,0.084,1.392h-0.948l-0.096-0.732h-0.036c-0.312,0.456-0.948,0.864-1.776,0.864
				c-1.176,0-1.776-0.828-1.776-1.668c0-1.404,1.248-2.172,3.492-2.16V83.5c0-0.48-0.132-1.356-1.32-1.344
				c-0.552,0-1.116,0.156-1.524,0.432l-0.24-0.708c0.48-0.3,1.188-0.504,1.92-0.504c1.788,0,2.22,1.212,2.22,2.376V85.924z
				 M57.813,84.352c-1.152-0.024-2.46,0.18-2.46,1.308c0,0.696,0.456,1.008,0.984,1.008c0.768,0,1.26-0.48,1.428-0.972
				c0.036-0.108,0.048-0.228,0.048-0.336V84.352z"/>
			<path d="M60.549,83.32c0-0.684-0.012-1.272-0.048-1.812h0.924l0.048,1.14h0.036c0.264-0.78,0.912-1.272,1.62-1.272
				c0.108,0,0.192,0.012,0.288,0.036v0.984c-0.12-0.012-0.228-0.024-0.372-0.024c-0.744,0-1.272,0.564-1.416,1.344
				c-0.024,0.156-0.036,0.324-0.036,0.504v3.096h-1.056L60.549,83.32z"/>
			<path d="M65.564,84.172h0.024c0.144-0.204,0.336-0.468,0.504-0.66l1.716-2.004h1.26l-2.244,2.388l2.556,3.42h-1.284l-1.992-2.796
				l-0.54,0.612v2.184h-1.056v-8.52h1.056V84.172z"/>
			<path d="M70.82,84.592c0.024,1.428,0.924,2.016,1.98,2.016c0.756,0,1.224-0.132,1.608-0.288l0.192,0.744
				c-0.372,0.168-1.02,0.372-1.944,0.372c-1.776,0-2.856-1.188-2.856-2.928c0-1.764,1.044-3.144,2.736-3.144
				c1.896,0,2.388,1.668,2.388,2.736c0,0.216-0.012,0.384-0.036,0.504L70.82,84.592z M73.904,83.836
				c0.012-0.66-0.276-1.716-1.452-1.716c-1.08,0-1.536,0.984-1.62,1.716H73.904z"/>
			<path d="M81.249,78.796v7.02c0,0.516,0.012,1.104,0.048,1.5h-0.948L80.3,86.308h-0.024c-0.324,0.648-1.02,1.14-1.968,1.14
				c-1.404,0-2.496-1.188-2.496-2.952c-0.012-1.944,1.2-3.12,2.604-3.12c0.9,0,1.5,0.42,1.752,0.876h0.024v-3.456H81.249z
				 M80.192,83.872c0-0.144-0.012-0.312-0.048-0.456c-0.156-0.66-0.732-1.212-1.524-1.212c-1.092,0-1.74,0.96-1.74,2.232
				c0,1.188,0.588,2.16,1.716,2.16c0.708,0,1.356-0.48,1.548-1.26c0.036-0.144,0.048-0.288,0.048-0.456V83.872z"/>
			<path d="M85.964,81.508l0.78,2.94c0.156,0.648,0.312,1.26,0.42,1.86H87.2c0.132-0.588,0.324-1.212,0.516-1.848l0.948-2.952h0.888
				l0.9,2.904c0.216,0.684,0.384,1.308,0.516,1.896h0.036c0.096-0.588,0.252-1.2,0.444-1.884l0.828-2.916h1.044l-1.872,5.808h-0.96
				L89.6,84.544c-0.204-0.66-0.372-1.236-0.516-1.92H89.06c-0.144,0.696-0.324,1.308-0.528,1.932l-0.936,2.76h-0.96l-1.752-5.808
				H85.964z"/>
			<path d="M94.88,80.44c-0.396,0-0.66-0.312-0.66-0.684s0.276-0.672,0.684-0.672c0.408,0,0.672,0.3,0.672,0.672
				s-0.264,0.684-0.684,0.684H94.88z M94.376,87.316v-5.808h1.056v5.808H94.376z"/>
			<path d="M98.456,80.116v1.392h1.512v0.804h-1.512v3.132c0,0.72,0.204,1.128,0.792,1.128c0.288,0,0.456-0.024,0.612-0.072
				l0.048,0.804c-0.204,0.072-0.528,0.144-0.936,0.144c-0.492,0-0.888-0.168-1.14-0.444c-0.288-0.324-0.408-0.84-0.408-1.524v-3.168
				h-0.9v-0.804h0.9V80.44L98.456,80.116z"/>
			<path d="M101.156,78.796h1.056v3.624h0.024c0.168-0.3,0.432-0.576,0.756-0.744c0.312-0.192,0.684-0.3,1.08-0.3
				c0.78,0,2.028,0.48,2.028,2.484v3.456h-1.056V83.98c0-0.948-0.348-1.728-1.344-1.728c-0.684,0-1.212,0.48-1.416,1.056
				c-0.06,0.144-0.072,0.3-0.072,0.504v3.504h-1.056V78.796z"/>
			<path d="M115.375,78.796v7.02c0,0.516,0.012,1.104,0.048,1.5h-0.948l-0.048-1.008h-0.024c-0.324,0.648-1.02,1.14-1.968,1.14
				c-1.404,0-2.496-1.188-2.496-2.952c-0.012-1.944,1.2-3.12,2.604-3.12c0.9,0,1.5,0.42,1.752,0.876h0.024v-3.456H115.375z
				 M114.32,83.872c0-0.144-0.012-0.312-0.048-0.456c-0.156-0.66-0.732-1.212-1.524-1.212c-1.092,0-1.74,0.96-1.74,2.232
				c0,1.188,0.588,2.16,1.716,2.16c0.708,0,1.356-0.48,1.548-1.26c0.036-0.144,0.048-0.288,0.048-0.456V83.872z"/>
			<path d="M119.492,87.448c-1.56,0-2.784-1.152-2.784-2.988c0-1.944,1.284-3.084,2.88-3.084c1.668,0,2.796,1.212,2.796,2.976
				c0,2.16-1.5,3.096-2.88,3.096H119.492z M119.528,86.656c1.008,0,1.764-0.948,1.764-2.268c0-0.984-0.492-2.22-1.74-2.22
				c-1.236,0-1.776,1.152-1.776,2.256c0,1.272,0.72,2.232,1.74,2.232H119.528z"/>
			<path d="M124.988,80.116v1.392h1.512v0.804h-1.512v3.132c0,0.72,0.204,1.128,0.792,1.128c0.288,0,0.456-0.024,0.612-0.072
				l0.048,0.804c-0.204,0.072-0.528,0.144-0.936,0.144c-0.492,0-0.888-0.168-1.14-0.444c-0.288-0.324-0.408-0.84-0.408-1.524v-3.168
				h-0.9v-0.804h0.9V80.44L124.988,80.116z"/>
			<path d="M127.543,86.248c0.324,0.192,0.876,0.408,1.404,0.408c0.756,0,1.116-0.372,1.116-0.864c0-0.504-0.3-0.78-1.068-1.068
				c-1.056-0.384-1.548-0.948-1.548-1.644c0-0.936,0.768-1.704,2.004-1.704c0.588,0,1.104,0.156,1.416,0.36l-0.252,0.756
				c-0.228-0.132-0.648-0.336-1.188-0.336c-0.624,0-0.96,0.36-0.96,0.792c0,0.492,0.336,0.708,1.092,0.996
				c0.996,0.372,1.524,0.876,1.524,1.752c0,1.032-0.804,1.752-2.16,1.752c-0.636,0-1.224-0.168-1.632-0.408L127.543,86.248z"/>
			<path d="M139.075,85.924c0,0.504,0.024,0.996,0.084,1.392h-0.948l-0.096-0.732h-0.036c-0.312,0.456-0.948,0.864-1.776,0.864
				c-1.176,0-1.776-0.828-1.776-1.668c0-1.404,1.248-2.172,3.492-2.16V83.5c0-0.48-0.132-1.356-1.32-1.344
				c-0.552,0-1.116,0.156-1.524,0.432l-0.24-0.708c0.48-0.3,1.188-0.504,1.92-0.504c1.788,0,2.22,1.212,2.22,2.376V85.924z
				 M138.043,84.352c-1.152-0.024-2.46,0.18-2.46,1.308c0,0.696,0.456,1.008,0.984,1.008c0.768,0,1.26-0.48,1.428-0.972
				c0.036-0.108,0.048-0.228,0.048-0.336V84.352z"/>
			<path d="M140.767,78.796h1.056v3.636h0.024c0.372-0.648,1.044-1.056,1.98-1.056c1.44,0,2.448,1.2,2.448,2.952
				c0,2.088-1.32,3.12-2.616,3.12c-0.84,0-1.5-0.324-1.944-1.092h-0.024l-0.06,0.96h-0.912c0.036-0.396,0.048-0.984,0.048-1.5
				V78.796z M141.823,84.988c0,0.132,0.012,0.264,0.036,0.384c0.204,0.732,0.828,1.236,1.584,1.236c1.116,0,1.764-0.9,1.764-2.232
				c0-1.176-0.6-2.172-1.728-2.172c-0.72,0-1.392,0.504-1.596,1.296c-0.036,0.132-0.06,0.276-0.06,0.444V84.988z"/>
			<path d="M149.971,87.448c-1.56,0-2.784-1.152-2.784-2.988c0-1.944,1.284-3.084,2.88-3.084c1.668,0,2.796,1.212,2.796,2.976
				c0,2.16-1.5,3.096-2.88,3.096H149.971z M150.007,86.656c1.008,0,1.764-0.948,1.764-2.268c0-0.984-0.492-2.22-1.74-2.22
				c-1.236,0-1.776,1.152-1.776,2.256c0,1.272,0.72,2.232,1.74,2.232H150.007z"/>
			<path d="M154.495,81.508l1.14,3.252c0.192,0.54,0.348,1.02,0.468,1.5h0.036c0.132-0.48,0.3-0.96,0.492-1.5l1.128-3.252h1.104
				l-2.28,5.808h-1.008l-2.208-5.808H154.495z"/>
			<path d="M160.327,84.592c0.024,1.428,0.924,2.016,1.98,2.016c0.756,0,1.224-0.132,1.608-0.288l0.192,0.744
				c-0.372,0.168-1.02,0.372-1.944,0.372c-1.776,0-2.856-1.188-2.856-2.928c0-1.764,1.044-3.144,2.736-3.144
				c1.896,0,2.388,1.668,2.388,2.736c0,0.216-0.012,0.384-0.036,0.504L160.327,84.592z M163.411,83.836
				c0.012-0.66-0.276-1.716-1.452-1.716c-1.08,0-1.536,0.984-1.62,1.716H163.411z"/>
			<path d="M170.647,87.448c-1.56,0-2.784-1.152-2.784-2.988c0-1.944,1.284-3.084,2.88-3.084c1.668,0,2.796,1.212,2.796,2.976
				c0,2.16-1.5,3.096-2.88,3.096H170.647z M170.683,86.656c1.008,0,1.764-0.948,1.764-2.268c0-0.984-0.492-2.22-1.74-2.22
				c-1.236,0-1.776,1.152-1.776,2.256c0,1.272,0.72,2.232,1.74,2.232H170.683z"/>
			<path d="M174.883,83.32c0-0.684-0.012-1.272-0.048-1.812h0.924l0.048,1.14h0.036c0.264-0.78,0.912-1.272,1.62-1.272
				c0.108,0,0.192,0.012,0.288,0.036v0.984c-0.12-0.012-0.228-0.024-0.372-0.024c-0.744,0-1.272,0.564-1.416,1.344
				c-0.024,0.156-0.036,0.324-0.036,0.504v3.096h-1.056L174.883,83.32z"/>
			<path d="M181.339,78.796h1.056v3.636h0.024c0.372-0.648,1.044-1.056,1.98-1.056c1.44,0,2.448,1.2,2.448,2.952
				c0,2.088-1.32,3.12-2.616,3.12c-0.84,0-1.5-0.324-1.944-1.092h-0.024l-0.06,0.96h-0.912c0.036-0.396,0.048-0.984,0.048-1.5
				V78.796z M182.395,84.988c0,0.132,0.012,0.264,0.036,0.384c0.204,0.732,0.828,1.236,1.584,1.236c1.116,0,1.764-0.9,1.764-2.232
				c0-1.176-0.6-2.172-1.728-2.172c-0.72,0-1.392,0.504-1.596,1.296c-0.036,0.132-0.06,0.276-0.06,0.444V84.988z"/>
			<path d="M188.778,84.592c0.024,1.428,0.924,2.016,1.98,2.016c0.756,0,1.224-0.132,1.608-0.288l0.192,0.744
				c-0.372,0.168-1.02,0.372-1.944,0.372c-1.776,0-2.856-1.188-2.856-2.928c0-1.764,1.044-3.144,2.736-3.144
				c1.896,0,2.388,1.668,2.388,2.736c0,0.216-0.012,0.384-0.036,0.504L188.778,84.592z M191.862,83.836
				c0.012-0.66-0.276-1.716-1.452-1.716c-1.08,0-1.536,0.984-1.62,1.716H191.862z"/>
			<path d="M194.19,78.796h1.056v8.52h-1.056V78.796z"/>
			<path d="M199.362,87.448c-1.56,0-2.784-1.152-2.784-2.988c0-1.944,1.284-3.084,2.88-3.084c1.668,0,2.796,1.212,2.796,2.976
				c0,2.16-1.5,3.096-2.88,3.096H199.362z M199.398,86.656c1.008,0,1.764-0.948,1.764-2.268c0-0.984-0.492-2.22-1.74-2.22
				c-1.236,0-1.776,1.152-1.776,2.256c0,1.272,0.72,2.232,1.74,2.232H199.398z"/>
			<path d="M203.922,81.508l0.78,2.94c0.156,0.648,0.312,1.26,0.42,1.86h0.036c0.132-0.588,0.324-1.212,0.516-1.848l0.948-2.952
				h0.888l0.9,2.904c0.216,0.684,0.384,1.308,0.516,1.896h0.036c0.096-0.588,0.252-1.2,0.444-1.884l0.828-2.916h1.044l-1.872,5.808
				h-0.96l-0.888-2.772c-0.204-0.66-0.372-1.236-0.516-1.92h-0.024c-0.144,0.696-0.324,1.308-0.528,1.932l-0.936,2.76h-0.96
				l-1.752-5.808H203.922z"/>
			<path d="M216.15,80.116v1.392h1.512v0.804h-1.512v3.132c0,0.72,0.204,1.128,0.792,1.128c0.288,0,0.456-0.024,0.612-0.072
				l0.048,0.804c-0.204,0.072-0.528,0.144-0.936,0.144c-0.492,0-0.888-0.168-1.14-0.444c-0.288-0.324-0.408-0.84-0.408-1.524v-3.168
				h-0.9v-0.804h0.9V80.44L216.15,80.116z"/>
			<path d="M218.85,78.796h1.056v3.624h0.024c0.168-0.3,0.432-0.576,0.756-0.744c0.312-0.192,0.684-0.3,1.08-0.3
				c0.78,0,2.028,0.48,2.028,2.484v3.456h-1.056V83.98c0-0.948-0.348-1.728-1.344-1.728c-0.684,0-1.212,0.48-1.416,1.056
				c-0.06,0.144-0.072,0.3-0.072,0.504v3.504h-1.056V78.796z"/>
			<path d="M226.11,84.592c0.024,1.428,0.924,2.016,1.98,2.016c0.756,0,1.224-0.132,1.608-0.288l0.192,0.744
				c-0.372,0.168-1.02,0.372-1.944,0.372c-1.776,0-2.856-1.188-2.856-2.928c0-1.764,1.044-3.144,2.736-3.144
				c1.896,0,2.388,1.668,2.388,2.736c0,0.216-0.012,0.384-0.036,0.504L226.11,84.592z M229.194,83.836
				c0.012-0.66-0.276-1.716-1.452-1.716c-1.08,0-1.536,0.984-1.62,1.716H229.194z"/>
			<path d="M234.066,83.08c0-0.612-0.012-1.092-0.048-1.572h0.936l0.06,0.948h0.024c0.288-0.54,0.96-1.08,1.92-1.08
				c0.804,0,2.052,0.48,2.052,2.472v3.468h-1.056v-3.348c0-0.936-0.348-1.728-1.344-1.728c-0.684,0-1.224,0.492-1.416,1.08
				c-0.048,0.132-0.072,0.324-0.072,0.492v3.504h-1.056V83.08z"/>
			<path d="M243.09,87.448c-1.56,0-2.784-1.152-2.784-2.988c0-1.944,1.284-3.084,2.88-3.084c1.668,0,2.796,1.212,2.796,2.976
				c0,2.16-1.5,3.096-2.88,3.096H243.09z M243.125,86.656c1.008,0,1.764-0.948,1.764-2.268c0-0.984-0.492-2.22-1.74-2.22
				c-1.236,0-1.776,1.152-1.776,2.256c0,1.272,0.72,2.232,1.74,2.232H243.125z"/>
			<path d="M248.585,80.116v1.392h1.512v0.804h-1.512v3.132c0,0.72,0.204,1.128,0.792,1.128c0.288,0,0.456-0.024,0.612-0.072
				l0.048,0.804c-0.204,0.072-0.528,0.144-0.936,0.144c-0.492,0-0.888-0.168-1.14-0.444c-0.288-0.324-0.408-0.84-0.408-1.524v-3.168
				h-0.9v-0.804h0.9V80.44L248.585,80.116z"/>
			<path d="M251.813,84.592c0.024,1.428,0.924,2.016,1.98,2.016c0.756,0,1.224-0.132,1.608-0.288l0.192,0.744
				c-0.372,0.168-1.02,0.372-1.944,0.372c-1.776,0-2.856-1.188-2.856-2.928c0-1.764,1.044-3.144,2.736-3.144
				c1.896,0,2.388,1.668,2.388,2.736c0,0.216-0.012,0.384-0.036,0.504L251.813,84.592z M254.897,83.836
				c0.012-0.66-0.276-1.716-1.452-1.716c-1.08,0-1.536,0.984-1.62,1.716H254.897z"/>
			<path d="M257.082,86.248c0.324,0.192,0.876,0.408,1.404,0.408c0.756,0,1.116-0.372,1.116-0.864c0-0.504-0.3-0.78-1.068-1.068
				c-1.056-0.384-1.548-0.948-1.548-1.644c0-0.936,0.768-1.704,2.004-1.704c0.588,0,1.104,0.156,1.416,0.36l-0.252,0.756
				c-0.228-0.132-0.648-0.336-1.188-0.336c-0.624,0-0.96,0.36-0.96,0.792c0,0.492,0.336,0.708,1.092,0.996
				c0.996,0.372,1.524,0.876,1.524,1.752c0,1.032-0.804,1.752-2.16,1.752c-0.636,0-1.224-0.168-1.632-0.408L257.082,86.248z"/>
			<path d="M262.326,87.448c-0.408,0-0.696-0.324-0.696-0.756s0.3-0.756,0.72-0.756c0.42,0,0.708,0.312,0.708,0.756
				c0,0.432-0.288,0.756-0.72,0.756H262.326z"/>
			<path d="M30.717,94.616h-2.46v-0.888h5.988v0.888h-2.472v7.2h-1.056V94.616z"/>
			<path d="M35.025,93.296h1.056v3.624h0.024c0.168-0.3,0.432-0.576,0.756-0.744c0.312-0.192,0.684-0.3,1.08-0.3
				c0.78,0,2.028,0.48,2.028,2.484v3.456h-1.056V98.48c0-0.948-0.348-1.728-1.344-1.728c-0.684,0-1.212,0.48-1.416,1.056
				c-0.06,0.144-0.072,0.3-0.072,0.504v3.504h-1.056V93.296z"/>
			<path d="M42.285,99.092c0.024,1.428,0.924,2.016,1.98,2.016c0.756,0,1.224-0.132,1.608-0.288l0.192,0.744
				c-0.372,0.168-1.02,0.372-1.944,0.372c-1.776,0-2.856-1.188-2.856-2.928c0-1.764,1.044-3.144,2.736-3.144
				c1.896,0,2.388,1.668,2.388,2.736c0,0.216-0.012,0.384-0.036,0.504L42.285,99.092z M45.369,98.336
				c0.012-0.66-0.276-1.716-1.452-1.716c-1.08,0-1.536,0.984-1.62,1.716H45.369z"/>
			<path d="M47.553,100.748c0.324,0.192,0.876,0.408,1.404,0.408c0.756,0,1.116-0.372,1.116-0.864c0-0.504-0.3-0.78-1.068-1.068
				c-1.056-0.384-1.548-0.948-1.548-1.644c0-0.936,0.768-1.704,2.004-1.704c0.588,0,1.104,0.156,1.416,0.36l-0.252,0.756
				c-0.228-0.132-0.648-0.336-1.188-0.336c-0.624,0-0.96,0.36-0.96,0.792c0,0.492,0.336,0.708,1.092,0.996
				c0.996,0.372,1.524,0.876,1.524,1.752c0,1.032-0.804,1.752-2.16,1.752c-0.636,0-1.224-0.168-1.632-0.408L47.553,100.748z"/>
			<path d="M53.049,99.092c0.024,1.428,0.924,2.016,1.98,2.016c0.756,0,1.224-0.132,1.608-0.288l0.192,0.744
				c-0.372,0.168-1.02,0.372-1.944,0.372c-1.776,0-2.856-1.188-2.856-2.928c0-1.764,1.044-3.144,2.736-3.144
				c1.896,0,2.388,1.668,2.388,2.736c0,0.216-0.012,0.384-0.036,0.504L53.049,99.092z M56.133,98.336
				c0.012-0.66-0.276-1.716-1.452-1.716c-1.08,0-1.536,0.984-1.62,1.716H56.133z"/>
			<path d="M60.861,100.748c0.324,0.192,0.876,0.408,1.404,0.408c0.756,0,1.116-0.372,1.116-0.864c0-0.504-0.3-0.78-1.068-1.068
				c-1.056-0.384-1.548-0.948-1.548-1.644c0-0.936,0.768-1.704,2.004-1.704c0.588,0,1.104,0.156,1.416,0.36l-0.252,0.756
				c-0.228-0.132-0.648-0.336-1.188-0.336c-0.624,0-0.96,0.36-0.96,0.792c0,0.492,0.336,0.708,1.092,0.996
				c0.996,0.372,1.524,0.876,1.524,1.752c0,1.032-0.804,1.752-2.16,1.752c-0.636,0-1.224-0.168-1.632-0.408L60.861,100.748z"/>
			<path d="M67.029,94.616v1.392h1.512v0.804h-1.512v3.132c0,0.72,0.204,1.128,0.792,1.128c0.288,0,0.456-0.024,0.612-0.072
				l0.048,0.804c-0.204,0.072-0.528,0.144-0.936,0.144c-0.492,0-0.888-0.168-1.14-0.444c-0.288-0.324-0.408-0.84-0.408-1.524v-3.168
				h-0.9v-0.804h0.9V94.94L67.029,94.616z"/>
			<path d="M73.821,100.424c0,0.504,0.024,0.996,0.084,1.392h-0.948l-0.096-0.732h-0.036c-0.312,0.456-0.948,0.864-1.776,0.864
				c-1.176,0-1.776-0.828-1.776-1.668c0-1.404,1.248-2.172,3.492-2.16V98c0-0.48-0.132-1.356-1.32-1.344
				c-0.552,0-1.116,0.156-1.524,0.432l-0.24-0.708c0.48-0.3,1.188-0.504,1.92-0.504c1.788,0,2.22,1.212,2.22,2.376V100.424z
				 M72.789,98.852c-1.152-0.024-2.46,0.18-2.46,1.308c0,0.696,0.456,1.008,0.984,1.008c0.768,0,1.26-0.48,1.428-0.972
				c0.036-0.108,0.048-0.228,0.048-0.336V98.852z"/>
			<path d="M79.652,101.612c-0.276,0.132-0.888,0.336-1.668,0.336c-1.752,0-2.892-1.188-2.892-2.976c0-1.788,1.224-3.096,3.12-3.096
				c0.624,0,1.176,0.156,1.464,0.312l-0.24,0.804c-0.252-0.132-0.648-0.276-1.224-0.276c-1.332,0-2.052,0.996-2.052,2.208
				c0,1.344,0.864,2.172,2.016,2.172c0.6,0,0.996-0.144,1.296-0.276L79.652,101.612z"/>
			<path d="M85.028,101.612c-0.276,0.132-0.888,0.336-1.668,0.336c-1.752,0-2.892-1.188-2.892-2.976c0-1.788,1.224-3.096,3.12-3.096
				c0.624,0,1.176,0.156,1.464,0.312l-0.24,0.804c-0.252-0.132-0.648-0.276-1.224-0.276c-1.332,0-2.052,0.996-2.052,2.208
				c0,1.344,0.864,2.172,2.016,2.172c0.6,0,0.996-0.144,1.296-0.276L85.028,101.612z"/>
			<path d="M90.368,100.424c0,0.504,0.024,0.996,0.084,1.392h-0.948l-0.096-0.732h-0.036c-0.312,0.456-0.948,0.864-1.776,0.864
				c-1.176,0-1.776-0.828-1.776-1.668c0-1.404,1.248-2.172,3.492-2.16V98c0-0.48-0.132-1.356-1.32-1.344
				c-0.552,0-1.116,0.156-1.524,0.432l-0.24-0.708c0.48-0.3,1.188-0.504,1.92-0.504c1.788,0,2.22,1.212,2.22,2.376V100.424z
				 M89.336,98.852c-1.152-0.024-2.46,0.18-2.46,1.308c0,0.696,0.456,1.008,0.984,1.008c0.768,0,1.26-0.48,1.428-0.972
				c0.036-0.108,0.048-0.228,0.048-0.336V98.852z"/>
			<path d="M93.284,94.616v1.392h1.512v0.804h-1.512v3.132c0,0.72,0.204,1.128,0.792,1.128c0.288,0,0.456-0.024,0.612-0.072
				l0.048,0.804c-0.204,0.072-0.528,0.144-0.936,0.144c-0.492,0-0.888-0.168-1.14-0.444c-0.288-0.324-0.408-0.84-0.408-1.524v-3.168
				h-0.9v-0.804h0.9V94.94L93.284,94.616z"/>
			<path d="M98.276,101.948c-1.56,0-2.784-1.152-2.784-2.988c0-1.944,1.284-3.084,2.88-3.084c1.668,0,2.796,1.212,2.796,2.976
				c0,2.16-1.5,3.096-2.88,3.096H98.276z M98.313,101.156c1.008,0,1.764-0.948,1.764-2.268c0-0.984-0.492-2.22-1.74-2.22
				c-1.236,0-1.776,1.152-1.776,2.256c0,1.272,0.72,2.232,1.74,2.232H98.313z"/>
			<path d="M109.004,100.928h-0.024c-0.312,0.564-0.96,1.02-1.896,1.02c-1.356,0-2.46-1.164-2.46-2.94
				c0-2.172,1.404-3.132,2.628-3.132c0.9,0,1.5,0.444,1.788,1.008h0.024l0.036-0.876h1.008c-0.036,0.48-0.048,0.984-0.048,1.596
				v6.588h-1.056V100.928z M109.004,98.36c0-0.156-0.012-0.312-0.048-0.444c-0.168-0.648-0.72-1.2-1.512-1.2
				c-1.092,0-1.752,0.924-1.752,2.232c0,1.164,0.552,2.16,1.716,2.16c0.684,0,1.272-0.42,1.512-1.152
				c0.048-0.144,0.084-0.348,0.084-0.504V98.36z"/>
			<path d="M116.66,100.232c0,0.6,0.012,1.128,0.048,1.584h-0.936l-0.06-0.948h-0.024c-0.264,0.468-0.888,1.08-1.92,1.08
				c-0.912,0-2.004-0.516-2.004-2.544v-3.396h1.056v3.204c0,1.104,0.348,1.86,1.296,1.86c0.708,0,1.2-0.492,1.392-0.972
				c0.06-0.144,0.096-0.336,0.096-0.54v-3.552h1.056V100.232z"/>
			<path d="M122.504,100.424c0,0.504,0.024,0.996,0.084,1.392h-0.948l-0.096-0.732h-0.036c-0.312,0.456-0.948,0.864-1.776,0.864
				c-1.176,0-1.776-0.828-1.776-1.668c0-1.404,1.248-2.172,3.492-2.16V98c0-0.48-0.132-1.356-1.32-1.344
				c-0.552,0-1.116,0.156-1.524,0.432l-0.24-0.708c0.48-0.3,1.188-0.504,1.92-0.504c1.788,0,2.22,1.212,2.22,2.376V100.424z
				 M121.472,98.852c-1.152-0.024-2.46,0.18-2.46,1.308c0,0.696,0.456,1.008,0.984,1.008c0.768,0,1.26-0.48,1.428-0.972
				c0.036-0.108,0.048-0.228,0.048-0.336V98.852z"/>
			<path d="M124.208,97.82c0-0.684-0.012-1.272-0.048-1.812h0.924l0.048,1.14h0.036c0.264-0.78,0.912-1.272,1.62-1.272
				c0.108,0,0.192,0.012,0.288,0.036v0.984c-0.12-0.012-0.228-0.024-0.372-0.024c-0.744,0-1.272,0.564-1.416,1.344
				c-0.024,0.156-0.036,0.324-0.036,0.504v3.096h-1.056L124.208,97.82z"/>
			<path d="M129.68,94.616v1.392h1.512v0.804h-1.512v3.132c0,0.72,0.204,1.128,0.792,1.128c0.288,0,0.456-0.024,0.612-0.072
				l0.048,0.804c-0.204,0.072-0.528,0.144-0.936,0.144c-0.492,0-0.888-0.168-1.14-0.444c-0.288-0.324-0.408-0.84-0.408-1.524v-3.168
				h-0.9v-0.804h0.9V94.94L129.68,94.616z"/>
			<path d="M132.908,99.092c0.024,1.428,0.924,2.016,1.98,2.016c0.756,0,1.224-0.132,1.608-0.288l0.192,0.744
				c-0.372,0.168-1.02,0.372-1.944,0.372c-1.776,0-2.856-1.188-2.856-2.928c0-1.764,1.044-3.144,2.736-3.144
				c1.896,0,2.388,1.668,2.388,2.736c0,0.216-0.012,0.384-0.036,0.504L132.908,99.092z M135.992,98.336
				c0.012-0.66-0.276-1.716-1.452-1.716c-1.08,0-1.536,0.984-1.62,1.716H135.992z"/>
			<path d="M138.332,97.82c0-0.684-0.012-1.272-0.048-1.812h0.924l0.048,1.14h0.036c0.264-0.78,0.912-1.272,1.62-1.272
				c0.108,0,0.192,0.012,0.288,0.036v0.984c-0.12-0.012-0.228-0.024-0.372-0.024c-0.744,0-1.272,0.564-1.416,1.344
				c-0.024,0.156-0.036,0.324-0.036,0.504v3.096h-1.056L138.332,97.82z"/>
			<path d="M144.787,97.58c0-0.612-0.012-1.092-0.048-1.572h0.936l0.06,0.948h0.024c0.288-0.54,0.96-1.08,1.92-1.08
				c0.804,0,2.052,0.48,2.052,2.472v3.468h-1.056v-3.348c0-0.936-0.348-1.728-1.344-1.728c-0.684,0-1.224,0.492-1.416,1.08
				c-0.048,0.132-0.072,0.324-0.072,0.492v3.504h-1.056V97.58z"/>
			<path d="M153.811,101.948c-1.56,0-2.784-1.152-2.784-2.988c0-1.944,1.284-3.084,2.88-3.084c1.668,0,2.796,1.212,2.796,2.976
				c0,2.16-1.5,3.096-2.88,3.096H153.811z M153.847,101.156c1.008,0,1.764-0.948,1.764-2.268c0-0.984-0.492-2.22-1.74-2.22
				c-1.236,0-1.776,1.152-1.776,2.256c0,1.272,0.72,2.232,1.74,2.232H153.847z"/>
			<path d="M159.307,94.616v1.392h1.512v0.804h-1.512v3.132c0,0.72,0.204,1.128,0.792,1.128c0.288,0,0.456-0.024,0.612-0.072
				l0.048,0.804c-0.204,0.072-0.528,0.144-0.936,0.144c-0.492,0-0.888-0.168-1.14-0.444c-0.288-0.324-0.408-0.84-0.408-1.524v-3.168
				h-0.9v-0.804h0.9V94.94L159.307,94.616z"/>
			<path d="M162.535,99.092c0.024,1.428,0.924,2.016,1.98,2.016c0.756,0,1.224-0.132,1.608-0.288l0.192,0.744
				c-0.372,0.168-1.02,0.372-1.944,0.372c-1.776,0-2.856-1.188-2.856-2.928c0-1.764,1.044-3.144,2.736-3.144
				c1.896,0,2.388,1.668,2.388,2.736c0,0.216-0.012,0.384-0.036,0.504L162.535,99.092z M165.619,98.336
				c0.012-0.66-0.276-1.716-1.452-1.716c-1.08,0-1.536,0.984-1.62,1.716H165.619z"/>
			<path d="M167.803,100.748c0.324,0.192,0.876,0.408,1.404,0.408c0.756,0,1.116-0.372,1.116-0.864c0-0.504-0.3-0.78-1.068-1.068
				c-1.056-0.384-1.548-0.948-1.548-1.644c0-0.936,0.768-1.704,2.004-1.704c0.588,0,1.104,0.156,1.416,0.36l-0.252,0.756
				c-0.228-0.132-0.648-0.336-1.188-0.336c-0.624,0-0.96,0.36-0.96,0.792c0,0.492,0.336,0.708,1.092,0.996
				c0.996,0.372,1.524,0.876,1.524,1.752c0,1.032-0.804,1.752-2.16,1.752c-0.636,0-1.224-0.168-1.632-0.408L167.803,100.748z"/>
			<path d="M175.663,96.008l0.78,2.94c0.156,0.648,0.312,1.26,0.42,1.86h0.036c0.132-0.588,0.324-1.212,0.516-1.848l0.948-2.952
				h0.888l0.9,2.904c0.216,0.684,0.384,1.308,0.516,1.896h0.036c0.096-0.588,0.252-1.2,0.444-1.884l0.828-2.916h1.044l-1.872,5.808
				h-0.96l-0.888-2.772c-0.204-0.66-0.372-1.236-0.516-1.92h-0.024c-0.144,0.696-0.324,1.308-0.528,1.932l-0.936,2.76h-0.96
				l-1.752-5.808H175.663z"/>
			<path d="M186.331,101.948c-1.56,0-2.784-1.152-2.784-2.988c0-1.944,1.284-3.084,2.88-3.084c1.668,0,2.796,1.212,2.796,2.976
				c0,2.16-1.5,3.096-2.88,3.096H186.331z M186.367,101.156c1.008,0,1.764-0.948,1.764-2.268c0-0.984-0.492-2.22-1.74-2.22
				c-1.236,0-1.776,1.152-1.776,2.256c0,1.272,0.72,2.232,1.74,2.232H186.367z"/>
			<path d="M195.415,100.232c0,0.6,0.012,1.128,0.048,1.584h-0.936l-0.06-0.948h-0.024c-0.264,0.468-0.888,1.08-1.92,1.08
				c-0.912,0-2.004-0.516-2.004-2.544v-3.396h1.056v3.204c0,1.104,0.348,1.86,1.296,1.86c0.708,0,1.2-0.492,1.392-0.972
				c0.06-0.144,0.096-0.336,0.096-0.54v-3.552h1.056V100.232z"/>
			<path d="M197.167,93.296h1.056v8.52h-1.056V93.296z"/>
			<path d="M204.991,93.296v7.02c0,0.516,0.012,1.104,0.048,1.5h-0.948l-0.048-1.008h-0.024c-0.324,0.648-1.02,1.14-1.968,1.14
				c-1.404,0-2.496-1.188-2.496-2.952c-0.012-1.944,1.2-3.12,2.604-3.12c0.9,0,1.5,0.42,1.752,0.876h0.024v-3.456H204.991z
				 M203.935,98.372c0-0.144-0.012-0.312-0.048-0.456c-0.156-0.66-0.732-1.212-1.524-1.212c-1.092,0-1.74,0.96-1.74,2.232
				c0,1.188,0.588,2.16,1.716,2.16c0.708,0,1.356-0.48,1.548-1.26c0.036-0.144,0.048-0.288,0.048-0.456V98.372z"/>
			<path d="M209.143,100.748c0.324,0.192,0.876,0.408,1.404,0.408c0.756,0,1.116-0.372,1.116-0.864c0-0.504-0.3-0.78-1.068-1.068
				c-1.056-0.384-1.548-0.948-1.548-1.644c0-0.936,0.768-1.704,2.004-1.704c0.588,0,1.104,0.156,1.416,0.36l-0.252,0.756
				c-0.228-0.132-0.648-0.336-1.188-0.336c-0.624,0-0.96,0.36-0.96,0.792c0,0.492,0.336,0.708,1.092,0.996
				c0.996,0.372,1.524,0.876,1.524,1.752c0,1.032-0.804,1.752-2.16,1.752c-0.636,0-1.224-0.168-1.632-0.408L209.143,100.748z"/>
			<path d="M216.402,101.948c-1.56,0-2.784-1.152-2.784-2.988c0-1.944,1.284-3.084,2.88-3.084c1.668,0,2.796,1.212,2.796,2.976
				c0,2.16-1.5,3.096-2.88,3.096H216.402z M216.438,101.156c1.008,0,1.764-0.948,1.764-2.268c0-0.984-0.492-2.22-1.74-2.22
				c-1.236,0-1.776,1.152-1.776,2.256c0,1.272,0.72,2.232,1.74,2.232H216.438z"/>
			<path d="M225.486,100.232c0,0.6,0.012,1.128,0.048,1.584h-0.936l-0.06-0.948h-0.024c-0.264,0.468-0.888,1.08-1.92,1.08
				c-0.912,0-2.004-0.516-2.004-2.544v-3.396h1.056v3.204c0,1.104,0.348,1.86,1.296,1.86c0.708,0,1.2-0.492,1.392-0.972
				c0.06-0.144,0.096-0.336,0.096-0.54v-3.552h1.056V100.232z"/>
			<path d="M227.238,97.58c0-0.612-0.012-1.092-0.048-1.572h0.936l0.06,0.948h0.024c0.288-0.54,0.96-1.08,1.92-1.08
				c0.804,0,2.052,0.48,2.052,2.472v3.468h-1.056v-3.348c0-0.936-0.348-1.728-1.344-1.728c-0.684,0-1.224,0.492-1.416,1.08
				c-0.048,0.132-0.072,0.324-0.072,0.492v3.504h-1.056V97.58z"/>
			<path d="M238.915,93.296v7.02c0,0.516,0.012,1.104,0.048,1.5h-0.948l-0.048-1.008h-0.024c-0.324,0.648-1.02,1.14-1.968,1.14
				c-1.404,0-2.496-1.188-2.496-2.952c-0.012-1.944,1.2-3.12,2.604-3.12c0.9,0,1.5,0.42,1.752,0.876h0.024v-3.456H238.915z
				 M237.858,98.372c0-0.144-0.012-0.312-0.048-0.456c-0.156-0.66-0.732-1.212-1.524-1.212c-1.092,0-1.74,0.96-1.74,2.232
				c0,1.188,0.588,2.16,1.716,2.16c0.708,0,1.356-0.48,1.548-1.26c0.036-0.144,0.048-0.288,0.048-0.456V98.372z"/>
			<path d="M247.302,100.424c0,0.504,0.024,0.996,0.084,1.392h-0.948l-0.096-0.732h-0.036c-0.312,0.456-0.948,0.864-1.776,0.864
				c-1.176,0-1.776-0.828-1.776-1.668c0-1.404,1.248-2.172,3.492-2.16V98c0-0.48-0.132-1.356-1.32-1.344
				c-0.552,0-1.116,0.156-1.524,0.432l-0.24-0.708c0.48-0.3,1.188-0.504,1.92-0.504c1.788,0,2.22,1.212,2.22,2.376V100.424z
				 M246.27,98.852c-1.152-0.024-2.46,0.18-2.46,1.308c0,0.696,0.456,1.008,0.984,1.008c0.768,0,1.26-0.48,1.428-0.972
				c0.036-0.108,0.048-0.228,0.048-0.336V98.852z"/>
			<path d="M248.994,97.904c0-0.744-0.012-1.344-0.048-1.896h0.948l0.06,0.996h0.024c0.42-0.72,1.116-1.128,2.052-1.128
				c1.416,0,2.472,1.188,2.472,2.952c0,2.088-1.284,3.12-2.64,3.12c-0.78,0-1.44-0.336-1.788-0.912h-0.024v3.156h-1.056V97.904z
				 M250.05,99.452c0,0.144,0.012,0.3,0.048,0.432c0.18,0.732,0.828,1.236,1.572,1.236c1.116,0,1.764-0.912,1.764-2.244
				c0-1.164-0.6-2.16-1.716-2.16c-0.72,0-1.404,0.504-1.608,1.296c-0.024,0.144-0.06,0.3-0.06,0.432V99.452z"/>
			<path d="M255.822,97.904c0-0.744-0.012-1.344-0.048-1.896h0.948l0.06,0.996h0.024c0.42-0.72,1.116-1.128,2.052-1.128
				c1.416,0,2.472,1.188,2.472,2.952c0,2.088-1.284,3.12-2.64,3.12c-0.78,0-1.44-0.336-1.788-0.912h-0.024v3.156h-1.056V97.904z
				 M256.878,99.452c0,0.144,0.012,0.3,0.048,0.432c0.18,0.732,0.828,1.236,1.572,1.236c1.116,0,1.764-0.912,1.764-2.244
				c0-1.164-0.6-2.16-1.716-2.16c-0.72,0-1.404,0.504-1.608,1.296c-0.024,0.144-0.06,0.3-0.06,0.432V99.452z"/>
			<path d="M262.662,97.82c0-0.684-0.012-1.272-0.048-1.812h0.924l0.048,1.14h0.036c0.264-0.78,0.912-1.272,1.62-1.272
				c0.108,0,0.192,0.012,0.288,0.036v0.984c-0.12-0.012-0.228-0.024-0.372-0.024c-0.744,0-1.272,0.564-1.416,1.344
				c-0.024,0.156-0.036,0.324-0.036,0.504v3.096h-1.056L262.662,97.82z"/>
			<path d="M268.866,101.948c-1.56,0-2.784-1.152-2.784-2.988c0-1.944,1.284-3.084,2.88-3.084c1.668,0,2.796,1.212,2.796,2.976
				c0,2.16-1.5,3.096-2.88,3.096H268.866z M268.902,101.156c1.008,0,1.764-0.948,1.764-2.268c0-0.984-0.492-2.22-1.74-2.22
				c-1.236,0-1.776,1.152-1.776,2.256c0,1.272,0.72,2.232,1.74,2.232H268.902z"/>
			<path d="M273.414,96.008l0.828,1.236c0.216,0.336,0.396,0.624,0.588,0.948h0.036c0.192-0.336,0.384-0.636,0.588-0.948
				l0.804-1.236h1.152l-1.98,2.808l2.028,3h-1.2l-0.852-1.308c-0.228-0.336-0.42-0.66-0.624-1.008h-0.024
				c-0.192,0.348-0.396,0.66-0.612,1.008l-0.84,1.308h-1.164l2.064-2.964l-1.968-2.844H273.414z"/>
			<path d="M278.982,94.94c-0.396,0-0.66-0.312-0.66-0.684s0.276-0.672,0.684-0.672c0.408,0,0.672,0.3,0.672,0.672
				s-0.264,0.684-0.684,0.684H278.982z M278.478,101.816v-5.808h1.056v5.808H278.478z"/>
			<path d="M281.286,97.58c0-0.612-0.024-1.092-0.048-1.572h0.924l0.048,0.936h0.036c0.324-0.552,0.864-1.068,1.836-1.068
				c0.78,0,1.38,0.48,1.632,1.164h0.024c0.18-0.336,0.42-0.576,0.66-0.756c0.348-0.264,0.72-0.408,1.271-0.408
				c0.78,0,1.92,0.504,1.92,2.52v3.42h-1.031v-3.288c0-1.128-0.421-1.788-1.261-1.788c-0.611,0-1.067,0.444-1.26,0.948
				c-0.048,0.156-0.084,0.348-0.084,0.528v3.6h-1.032v-3.48c0-0.936-0.407-1.596-1.212-1.596c-0.648,0-1.14,0.528-1.308,1.056
				c-0.06,0.156-0.084,0.336-0.084,0.516v3.504h-1.032V97.58z"/>
			<path d="M295.385,100.424c0,0.504,0.024,0.996,0.084,1.392h-0.947l-0.097-0.732h-0.035c-0.313,0.456-0.948,0.864-1.776,0.864
				c-1.176,0-1.776-0.828-1.776-1.668c0-1.404,1.248-2.172,3.492-2.16V98c0-0.48-0.132-1.356-1.32-1.344
				c-0.552,0-1.115,0.156-1.523,0.432l-0.24-0.708c0.48-0.3,1.188-0.504,1.92-0.504c1.788,0,2.22,1.212,2.22,2.376V100.424z
				 M294.354,98.852c-1.152-0.024-2.46,0.18-2.46,1.308c0,0.696,0.456,1.008,0.983,1.008c0.769,0,1.26-0.48,1.428-0.972
				c0.036-0.108,0.049-0.228,0.049-0.336V98.852z"/>
			<path d="M298.301,94.616v1.392h1.513v0.804h-1.513v3.132c0,0.72,0.204,1.128,0.792,1.128c0.288,0,0.456-0.024,0.612-0.072
				l0.048,0.804c-0.204,0.072-0.527,0.144-0.936,0.144c-0.492,0-0.889-0.168-1.141-0.444c-0.288-0.324-0.407-0.84-0.407-1.524
				v-3.168h-0.9v-0.804h0.9V94.94L298.301,94.616z"/>
			<path d="M301.53,99.092c0.023,1.428,0.924,2.016,1.979,2.016c0.757,0,1.225-0.132,1.608-0.288l0.192,0.744
				c-0.372,0.168-1.021,0.372-1.944,0.372c-1.776,0-2.856-1.188-2.856-2.928c0-1.764,1.044-3.144,2.736-3.144
				c1.896,0,2.388,1.668,2.388,2.736c0,0.216-0.012,0.384-0.036,0.504L301.53,99.092z M304.614,98.336
				c0.012-0.66-0.276-1.716-1.452-1.716c-1.08,0-1.536,0.984-1.62,1.716H304.614z"/>
			<path d="M306.942,93.296h1.056v8.52h-1.056V93.296z"/>
			<path d="M310.133,96.008l1.26,3.432c0.145,0.384,0.288,0.84,0.385,1.188h0.023c0.108-0.348,0.229-0.792,0.372-1.212l1.152-3.408
				h1.116l-1.584,4.14c-0.757,1.992-1.272,3.012-1.992,3.648c-0.528,0.444-1.032,0.624-1.296,0.672l-0.265-0.888
				c0.265-0.072,0.612-0.24,0.924-0.516c0.288-0.228,0.637-0.636,0.889-1.176c0.048-0.108,0.084-0.18,0.084-0.252
				c0-0.06-0.024-0.144-0.084-0.264l-2.137-5.364H310.133z"/>
			<path d="M29.145,107.796h1.056v8.52h-1.056V107.796z"/>
			<path d="M32.457,109.44c-0.396,0-0.66-0.312-0.66-0.684s0.276-0.672,0.684-0.672s0.672,0.3,0.672,0.672s-0.264,0.684-0.684,0.684
				H32.457z M31.953,116.316v-5.808h1.056v5.808H31.953z"/>
			<path d="M35.817,113.172h0.024c0.144-0.204,0.336-0.468,0.504-0.66l1.716-2.004h1.26l-2.244,2.388l2.556,3.42h-1.284
				l-1.992-2.796l-0.54,0.612v2.184h-1.056v-8.52h1.056V113.172z"/>
			<path d="M41.073,113.592c0.024,1.428,0.924,2.016,1.98,2.016c0.756,0,1.224-0.132,1.608-0.288l0.192,0.744
				c-0.372,0.168-1.02,0.372-1.944,0.372c-1.776,0-2.856-1.188-2.856-2.928c0-1.764,1.044-3.144,2.736-3.144
				c1.896,0,2.388,1.668,2.388,2.736c0,0.216-0.012,0.384-0.036,0.504L41.073,113.592z M44.157,112.836
				c0.012-0.66-0.276-1.716-1.452-1.716c-1.08,0-1.536,0.984-1.62,1.716H44.157z"/>
			<path d="M49.628,113.592c0.024,1.428,0.924,2.016,1.98,2.016c0.756,0,1.224-0.132,1.608-0.288l0.192,0.744
				c-0.372,0.168-1.02,0.372-1.944,0.372c-1.776,0-2.856-1.188-2.856-2.928c0-1.764,1.044-3.144,2.736-3.144
				c1.896,0,2.388,1.668,2.388,2.736c0,0.216-0.012,0.384-0.036,0.504L49.628,113.592z M52.712,112.836
				c0.012-0.66-0.276-1.716-1.452-1.716c-1.08,0-1.536,0.984-1.62,1.716H52.712z"/>
			<path d="M55.544,109.44c-0.396,0-0.66-0.312-0.66-0.684s0.276-0.672,0.684-0.672s0.672,0.3,0.672,0.672s-0.264,0.684-0.684,0.684
				H55.544z M55.041,116.316v-5.808h1.056v5.808H55.041z"/>
			<path d="M62.816,115.464c0,1.344-0.276,2.148-0.828,2.664c-0.576,0.516-1.392,0.696-2.124,0.696c-0.696,0-1.464-0.168-1.932-0.48
				l0.264-0.816c0.384,0.252,0.984,0.468,1.704,0.468c1.08,0,1.872-0.564,1.872-2.04v-0.636h-0.024
				c-0.312,0.54-0.948,0.972-1.848,0.972c-1.44,0-2.472-1.224-2.472-2.844c0-1.968,1.284-3.072,2.628-3.072
				c1.008,0,1.548,0.516,1.812,0.996h0.024l0.036-0.864h0.936c-0.036,0.408-0.048,0.876-0.048,1.584V115.464z M61.76,112.788
				c0-0.168-0.012-0.324-0.06-0.468c-0.192-0.624-0.696-1.128-1.476-1.128c-1.008,0-1.728,0.852-1.728,2.208
				c0,1.128,0.588,2.088,1.716,2.088c0.66,0,1.248-0.408,1.464-1.092c0.06-0.168,0.084-0.372,0.084-0.564V112.788z"/>
			<path d="M64.556,107.796h1.056v3.624h0.024c0.168-0.3,0.432-0.576,0.756-0.744c0.312-0.192,0.684-0.3,1.08-0.3
				c0.78,0,2.028,0.48,2.028,2.484v3.456h-1.056v-3.336c0-0.948-0.348-1.728-1.344-1.728c-0.684,0-1.212,0.48-1.416,1.056
				c-0.06,0.144-0.072,0.3-0.072,0.504v3.504h-1.056V107.796z"/>
			<path d="M72.44,109.116v1.392h1.512v0.804H72.44v3.132c0,0.72,0.204,1.128,0.792,1.128c0.288,0,0.456-0.024,0.612-0.072
				l0.048,0.804c-0.204,0.072-0.528,0.144-0.936,0.144c-0.492,0-0.888-0.168-1.14-0.444c-0.288-0.324-0.408-0.84-0.408-1.524v-3.168
				h-0.9v-0.804h0.9v-1.068L72.44,109.116z"/>
			<path d="M75.14,107.796h1.056v3.624h0.024c0.168-0.3,0.432-0.576,0.756-0.744c0.312-0.192,0.684-0.3,1.08-0.3
				c0.78,0,2.028,0.48,2.028,2.484v3.456h-1.056v-3.336c0-0.948-0.348-1.728-1.344-1.728c-0.684,0-1.212,0.48-1.416,1.056
				c-0.06,0.144-0.072,0.3-0.072,0.504v3.504H75.14V107.796z"/>
			<path d="M84.344,112.08c0-0.612-0.012-1.092-0.048-1.572h0.936l0.06,0.948h0.024c0.288-0.54,0.96-1.08,1.92-1.08
				c0.804,0,2.052,0.48,2.052,2.472v3.468h-1.056v-3.348c0-0.936-0.348-1.728-1.344-1.728c-0.684,0-1.224,0.492-1.416,1.08
				c-0.048,0.132-0.072,0.324-0.072,0.492v3.504h-1.056V112.08z"/>
			<path d="M93.368,116.448c-1.56,0-2.784-1.152-2.784-2.988c0-1.944,1.284-3.084,2.88-3.084c1.668,0,2.796,1.212,2.796,2.976
				c0,2.16-1.5,3.096-2.88,3.096H93.368z M93.404,115.656c1.008,0,1.764-0.948,1.764-2.268c0-0.984-0.492-2.22-1.74-2.22
				c-1.236,0-1.776,1.152-1.776,2.256c0,1.272,0.72,2.232,1.74,2.232H93.404z"/>
			<path d="M98.864,109.116v1.392h1.512v0.804h-1.512v3.132c0,0.72,0.204,1.128,0.792,1.128c0.288,0,0.456-0.024,0.612-0.072
				l0.048,0.804c-0.204,0.072-0.528,0.144-0.936,0.144c-0.492,0-0.888-0.168-1.14-0.444c-0.288-0.324-0.408-0.84-0.408-1.524v-3.168
				h-0.9v-0.804h0.9v-1.068L98.864,109.116z"/>
			<path d="M102.092,113.592c0.024,1.428,0.924,2.016,1.98,2.016c0.756,0,1.224-0.132,1.608-0.288l0.192,0.744
				c-0.372,0.168-1.02,0.372-1.944,0.372c-1.776,0-2.856-1.188-2.856-2.928c0-1.764,1.044-3.144,2.736-3.144
				c1.896,0,2.388,1.668,2.388,2.736c0,0.216-0.012,0.384-0.036,0.504L102.092,113.592z M105.176,112.836
				c0.012-0.66-0.276-1.716-1.452-1.716c-1.08,0-1.536,0.984-1.62,1.716H105.176z"/>
			<path d="M107.359,115.248c0.324,0.192,0.876,0.408,1.404,0.408c0.756,0,1.116-0.372,1.116-0.864c0-0.504-0.3-0.78-1.068-1.068
				c-1.056-0.384-1.548-0.948-1.548-1.644c0-0.936,0.768-1.704,2.004-1.704c0.588,0,1.104,0.156,1.416,0.36l-0.252,0.756
				c-0.228-0.132-0.648-0.336-1.188-0.336c-0.624,0-0.96,0.36-0.96,0.792c0,0.492,0.336,0.708,1.092,0.996
				c0.996,0.372,1.524,0.876,1.524,1.752c0,1.032-0.804,1.752-2.16,1.752c-0.636,0-1.224-0.168-1.632-0.408L107.359,115.248z"/>
			<path d="M118.892,114.924c0,0.504,0.024,0.996,0.084,1.392h-0.948l-0.096-0.732h-0.036c-0.312,0.456-0.948,0.864-1.776,0.864
				c-1.176,0-1.776-0.828-1.776-1.668c0-1.404,1.248-2.172,3.492-2.16v-0.12c0-0.48-0.132-1.356-1.32-1.344
				c-0.552,0-1.116,0.156-1.524,0.432l-0.24-0.708c0.48-0.3,1.188-0.504,1.92-0.504c1.788,0,2.22,1.212,2.22,2.376V114.924z
				 M117.859,113.352c-1.152-0.024-2.46,0.18-2.46,1.308c0,0.696,0.456,1.008,0.984,1.008c0.768,0,1.26-0.48,1.428-0.972
				c0.036-0.108,0.048-0.228,0.048-0.336V113.352z"/>
			<path d="M120.583,112.08c0-0.612-0.012-1.092-0.048-1.572h0.936l0.06,0.948h0.024c0.288-0.54,0.96-1.08,1.92-1.08
				c0.804,0,2.052,0.48,2.052,2.472v3.468h-1.056v-3.348c0-0.936-0.348-1.728-1.344-1.728c-0.684,0-1.224,0.492-1.416,1.08
				c-0.048,0.132-0.072,0.324-0.072,0.492v3.504h-1.056V112.08z"/>
			<path d="M132.259,107.796v7.02c0,0.516,0.012,1.104,0.048,1.5h-0.948l-0.048-1.008h-0.024c-0.324,0.648-1.02,1.14-1.968,1.14
				c-1.404,0-2.496-1.188-2.496-2.952c-0.012-1.944,1.2-3.12,2.604-3.12c0.9,0,1.5,0.42,1.752,0.876h0.024v-3.456H132.259z
				 M131.203,112.872c0-0.144-0.012-0.312-0.048-0.456c-0.156-0.66-0.732-1.212-1.524-1.212c-1.092,0-1.74,0.96-1.74,2.232
				c0,1.188,0.588,2.16,1.716,2.16c0.708,0,1.356-0.48,1.548-1.26c0.036-0.144,0.048-0.288,0.048-0.456V112.872z"/>
			<path d="M137.155,113.592c0.024,1.428,0.924,2.016,1.98,2.016c0.756,0,1.224-0.132,1.608-0.288l0.192,0.744
				c-0.372,0.168-1.02,0.372-1.944,0.372c-1.776,0-2.856-1.188-2.856-2.928c0-1.764,1.044-3.144,2.736-3.144
				c1.896,0,2.388,1.668,2.388,2.736c0,0.216-0.012,0.384-0.036,0.504L137.155,113.592z M140.239,112.836
				c0.012-0.66-0.276-1.716-1.452-1.716c-1.08,0-1.536,0.984-1.62,1.716H140.239z"/>
			<path d="M143.071,109.44c-0.396,0-0.66-0.312-0.66-0.684s0.276-0.672,0.684-0.672c0.408,0,0.672,0.3,0.672,0.672
				s-0.264,0.684-0.684,0.684H143.071z M142.567,116.316v-5.808h1.056v5.808H142.567z"/>
			<path d="M150.343,115.464c0,1.344-0.276,2.148-0.828,2.664c-0.576,0.516-1.392,0.696-2.124,0.696
				c-0.696,0-1.464-0.168-1.932-0.48l0.264-0.816c0.384,0.252,0.984,0.468,1.704,0.468c1.08,0,1.872-0.564,1.872-2.04v-0.636h-0.024
				c-0.312,0.54-0.948,0.972-1.848,0.972c-1.44,0-2.472-1.224-2.472-2.844c0-1.968,1.284-3.072,2.628-3.072
				c1.008,0,1.548,0.516,1.812,0.996h0.024l0.036-0.864h0.936c-0.036,0.408-0.048,0.876-0.048,1.584V115.464z M149.287,112.788
				c0-0.168-0.012-0.324-0.06-0.468c-0.192-0.624-0.696-1.128-1.476-1.128c-1.008,0-1.728,0.852-1.728,2.208
				c0,1.128,0.588,2.088,1.716,2.088c0.66,0,1.248-0.408,1.464-1.092c0.06-0.168,0.084-0.372,0.084-0.564V112.788z"/>
			<path d="M152.083,107.796h1.056v3.624h0.024c0.168-0.3,0.432-0.576,0.756-0.744c0.312-0.192,0.684-0.3,1.08-0.3
				c0.78,0,2.028,0.48,2.028,2.484v3.456h-1.056v-3.336c0-0.948-0.348-1.728-1.344-1.728c-0.684,0-1.212,0.48-1.416,1.056
				c-0.06,0.144-0.072,0.3-0.072,0.504v3.504h-1.056V107.796z"/>
			<path d="M159.967,109.116v1.392h1.512v0.804h-1.512v3.132c0,0.72,0.204,1.128,0.792,1.128c0.288,0,0.456-0.024,0.612-0.072
				l0.048,0.804c-0.204,0.072-0.528,0.144-0.936,0.144c-0.492,0-0.888-0.168-1.14-0.444c-0.288-0.324-0.408-0.84-0.408-1.524v-3.168
				h-0.9v-0.804h0.9v-1.068L159.967,109.116z"/>
			<path d="M162.667,107.796h1.056v3.624h0.024c0.168-0.3,0.432-0.576,0.756-0.744c0.312-0.192,0.684-0.3,1.08-0.3
				c0.78,0,2.028,0.48,2.028,2.484v3.456h-1.056v-3.336c0-0.948-0.348-1.728-1.344-1.728c-0.684,0-1.212,0.48-1.416,1.056
				c-0.06,0.144-0.072,0.3-0.072,0.504v3.504h-1.056V107.796z"/>
			<path d="M171.882,112.32c0-0.684-0.012-1.272-0.048-1.812h0.924l0.048,1.14h0.036c0.264-0.78,0.912-1.272,1.62-1.272
				c0.108,0,0.192,0.012,0.288,0.036v0.984c-0.12-0.012-0.228-0.024-0.372-0.024c-0.744,0-1.272,0.564-1.416,1.344
				c-0.024,0.156-0.036,0.324-0.036,0.504v3.096h-1.056L171.882,112.32z"/>
			<path d="M176.322,113.592c0.024,1.428,0.924,2.016,1.98,2.016c0.756,0,1.224-0.132,1.608-0.288l0.192,0.744
				c-0.372,0.168-1.02,0.372-1.944,0.372c-1.776,0-2.856-1.188-2.856-2.928c0-1.764,1.044-3.144,2.736-3.144
				c1.896,0,2.388,1.668,2.388,2.736c0,0.216-0.012,0.384-0.036,0.504L176.322,113.592z M179.406,112.836
				c0.012-0.66-0.276-1.716-1.452-1.716c-1.08,0-1.536,0.984-1.62,1.716H179.406z"/>
			<path d="M181.59,115.248c0.324,0.192,0.876,0.408,1.404,0.408c0.756,0,1.116-0.372,1.116-0.864c0-0.504-0.3-0.78-1.068-1.068
				c-1.056-0.384-1.548-0.948-1.548-1.644c0-0.936,0.768-1.704,2.004-1.704c0.588,0,1.104,0.156,1.416,0.36l-0.252,0.756
				c-0.228-0.132-0.648-0.336-1.188-0.336c-0.624,0-0.96,0.36-0.96,0.792c0,0.492,0.336,0.708,1.092,0.996
				c0.996,0.372,1.524,0.876,1.524,1.752c0,1.032-0.804,1.752-2.16,1.752c-0.636,0-1.224-0.168-1.632-0.408L181.59,115.248z"/>
			<path d="M187.758,109.116v1.392h1.512v0.804h-1.512v3.132c0,0.72,0.204,1.128,0.792,1.128c0.288,0,0.456-0.024,0.612-0.072
				l0.048,0.804c-0.204,0.072-0.528,0.144-0.936,0.144c-0.492,0-0.888-0.168-1.14-0.444c-0.288-0.324-0.408-0.84-0.408-1.524v-3.168
				h-0.9v-0.804h0.9v-1.068L187.758,109.116z"/>
			<path d="M190.314,115.248c0.324,0.192,0.876,0.408,1.404,0.408c0.756,0,1.116-0.372,1.116-0.864c0-0.504-0.3-0.78-1.068-1.068
				c-1.056-0.384-1.548-0.948-1.548-1.644c0-0.936,0.768-1.704,2.004-1.704c0.588,0,1.104,0.156,1.416,0.36l-0.252,0.756
				c-0.228-0.132-0.648-0.336-1.188-0.336c-0.624,0-0.96,0.36-0.96,0.792c0,0.492,0.336,0.708,1.092,0.996
				c0.996,0.372,1.524,0.876,1.524,1.752c0,1.032-0.804,1.752-2.16,1.752c-0.636,0-1.224-0.168-1.632-0.408L190.314,115.248z"/>
			<path d="M195.654,116.448c-0.408,0-0.696-0.324-0.696-0.744c0-0.444,0.3-0.756,0.708-0.756c0.432,0,0.708,0.312,0.708,0.756
				c0,0.42-0.276,0.744-0.708,0.744H195.654z M195.666,112.212c-0.408,0-0.696-0.324-0.696-0.744c0-0.444,0.3-0.756,0.708-0.756
				c0.432,0,0.708,0.312,0.708,0.756c0,0.42-0.276,0.744-0.708,0.744H195.666z"/>
		</g>
		<g>
			<path fill="none" stroke="#000000" d="M0.356,126.706H325.96"/>
			<path fill="none" stroke="#000000" d="M0.356,141.818H325.96"/>
			<path fill="none" stroke="#000000" d="M0.518,148.94h325.604"/>
			<path fill="none" stroke="#000000" d="M0.269,156.324h325.604"/>
			<path fill="none" stroke="#000000" d="M0.269,133.959h325.604"/>
		</g>
		<g>
			<path d="M9.593,155.918c-4.944-2.352-5.736-5.376-5.952-8.472c-0.24-3.36,1.896-6.768,3.888-8.664
				c1.152-1.08,2.4-2.136,3.888-3.264c-0.048-0.84-0.24-1.176-0.336-2.376c-0.024-0.504-0.336-2.856,0.168-5.568
				c0.312-1.608,2.328-5.4,3.72-5.424c1.08-0.024,2.736,4.296,2.784,6.456c0.072,3.336-0.72,4.848-1.704,6.576
				c-0.504,0.864-1.032,1.464-1.584,2.136c-0.576,0.696-1.224,1.104-1.824,1.632c0,0,0.768,4.344,0.792,4.656
				c1.536-0.192,3.408,0.36,4.08,0.84c1.704,1.272,2.352,3.024,2.472,4.728c0.216,2.712-1.272,5.568-4.56,6.936
				c0,0,0.504,3.456,0.624,4.176c0.264,1.896,0.216,3.096-0.192,3.864c-0.696,1.296-1.824,2.496-4.008,2.64
				c-1.68,0.096-4.992-0.744-5.16-3.384c-0.096-1.56,0.6-3.24,2.496-3.36c1.152-0.096,2.52,0.864,2.616,2.232
				c0.096,1.176-0.672,2.4-2.664,2.952c0.312,0.432,1.248,0.936,2.592,0.936c1.392,0,2.832-0.936,3.528-2.184
				c0.432-0.816,0.384-2.28,0.216-3.624c-0.072-0.456-0.648-4.08-0.648-4.08C13.049,156.566,10.601,156.398,9.593,155.918z
				 M10.073,150.23c0.048,1.152,1.008,2.496,1.896,2.952c-0.12,0.072-0.24,0.264-0.24,0.264c-0.984-0.48-1.824-1.272-2.04-1.56
				c-0.696-0.936-0.984-1.464-1.08-2.88c-0.096-1.32,0.624-3.096,2.232-4.344c0.84-0.624,1.248-0.768,1.968-0.936l-0.72-4.344
				c-0.744,0.432-3.816,2.904-5.112,4.92c-1.152,1.8-1.848,3.24-1.704,5.016c0.288,4.008,4.68,7.296,9.432,6.168
				c0,0-1.416-8.52-1.392-8.52C10.697,147.062,10.001,149.078,10.073,150.23z M12.017,135.014c2.088-1.632,4.92-4.704,4.752-7.08
				c-0.048-0.744-0.36-2.088-1.44-2.064C12.857,125.894,11.465,131.054,12.017,135.014z M15.281,155.294
				c2.76-0.936,2.88-3.312,2.784-4.728c-0.096-1.176-0.624-3.816-4.128-3.648L15.281,155.294z"/>
		</g>
		<path fill="none" stroke="#0A0A0A" d="M136.239,126.13v29.746"/>
		<g>
			<path d="M33.786,139.72c-2.448,0-4.272-1.2-4.272-3.168c0-0.84,0.816-1.728,1.68-1.728c0.888,0,1.824,0.528,1.824,1.536
				c0,1.224-0.936,1.368-0.864,2.232c0.024,0.216,0.72,0.6,0.96,0.6c1.608,0,2.376-1.848,2.376-2.928
				c0-2.064-1.896-1.848-3.432-2.16c0-0.048,0.024-0.648,0.024-0.624c1.56-0.192,3.072-0.72,3.048-2.52
				c-0.024-2.52-2.016-2.352-2.328-2.352c-0.168,0-0.696,0.336-0.672,0.6c0.072,0.528,0.816,0.768,1.128,1.704
				c0.312,0.912-0.768,1.92-1.68,1.92c-1.056,0-1.848-1.176-1.848-1.776c0-1.392,1.104-3.144,4.848-3.144
				c1.632,0,3.432,1.128,3.432,2.904c0,2.352-2.76,2.52-2.76,2.856c1.392,0.144,3.24,0.672,3.24,2.52
				C38.49,138.64,35.538,139.72,33.786,139.72z"/>
		</g>
		<g>
			<path d="M36.53,151.456v1.584c0,0.96,1.128,0.936,1.128,0.936v0.624H32.45v-0.624c0,0,1.176,0.048,1.152-0.888v-1.632h-4.44
				L28.73,151c2.904-3.912,2.928-4.632,3.624-8.184h4.152c-0.984,1.824-4.296,5.256-6.624,7.968h3.72v-2.952l2.928-3.216v6.168
				h1.728v0.672H36.53z"/>
		</g>
		<path fill="none" stroke="#0A0A0A" d="M222.24,126.13v29.746"/>
		<path fill="none" stroke="#0A0A0A" d="M325.248,127.256v29.746"/>
		<g>
			<path d="M57.237,130.624c2.04,0.024,3.168,1.44,2.52,3.144c-0.288,0.816-0.936,1.536-1.728,2.088
				c0.816,1.824,1.344,3.744,1.008,6.168c-0.192,1.272-0.6,2.736-1.584,4.368c-1.032,1.728-2.112,3.36-3.048,4.68
				c-0.816,1.128-1.632,2.64-1.632,3.984h-0.456v-0.096h-0.048c0-24.216,0-20.4,0-20.4c0-0.264,0.072-0.576,0.192-0.888
				C53.085,131.968,55.221,130.6,57.237,130.624z M54.957,136.816c-0.984,0-1.776-0.36-2.232-0.912v12.768h0.048
				c0,0,1.248-0.12,2.448-0.936c0.816-0.552,2.184-2.064,3-4.512c0.48-1.344,0.6-2.664,0.48-3.528
				c-0.216-1.56-0.408-2.376-1.056-3.648C56.805,136.576,55.941,136.84,54.957,136.816z"/>
		</g>
		<g>
			<g>
				<path d="M68.269,136.816c0,0.859-0.392,1.555-0.877,1.555c-0.482,0-0.876-0.695-0.876-1.555c0-0.858,0.394-1.555,0.876-1.555
					C67.877,135.261,68.269,135.958,68.269,136.816z"/>
				<g>
					<g>
						<path fill="none" d="M67.919,135.779c1.752,2.074,3.154,2.074,4.558-0.518"/>
						<path d="M67.541,136.1c0.704,0.807,1.59,1.694,2.741,1.664c1.249-0.034,2.055-1.247,2.601-2.219
							c0.312-0.553-0.499-1.127-0.813-0.568c-0.379,0.673-0.85,1.56-1.657,1.779c-0.832,0.226-1.654-0.769-2.116-1.299
							C67.878,134.976,67.12,135.617,67.541,136.1z"/>
					</g>
				</g>
				<g>
					<g>
						<path fill="none" d="M67.217,147.701c1.403-4.146,3.507-7.774,4.908-11.922"/>
						<path d="M67.683,147.873c1.429-4.061,3.481-7.86,4.908-11.922c0.212-0.604-0.719-0.947-0.931-0.344
							c-1.427,4.061-3.479,7.861-4.908,11.922C66.539,148.132,67.47,148.476,67.683,147.873z"/>
					</g>
				</g>
			</g>
			<path stroke="#000000" stroke-width="0.5" d="M68.269,136.816c0,0.914-0.66,1.656-1.477,1.656c-0.815,0-1.477-0.742-1.477-1.656
				s0.661-1.656,1.477-1.656C67.609,135.16,68.269,135.902,68.269,136.816z"/>
		</g>
		<g>
			<path d="M265.237,130.624c2.04,0.024,3.168,1.44,2.52,3.144c-0.288,0.816-0.936,1.536-1.728,2.088
				c0.816,1.824,1.344,3.744,1.008,6.168c-0.192,1.272-0.6,2.736-1.584,4.368c-1.032,1.728-2.112,3.36-3.048,4.68
				c-0.816,1.128-1.632,2.64-1.632,3.984h-0.456v-0.096h-0.048c0-24.216,0-20.4,0-20.4c0-0.264,0.072-0.576,0.192-0.888
				C261.085,131.968,263.221,130.6,265.237,130.624z M262.957,136.816c-0.984,0-1.776-0.36-2.232-0.912v12.768h0.048
				c0,0,1.248-0.12,2.448-0.936c0.816-0.552,2.184-2.064,3-4.512c0.48-1.344,0.6-2.664,0.48-3.528
				c-0.216-1.56-0.408-2.376-1.056-3.648C264.805,136.576,263.941,136.84,262.957,136.816z"/>
		</g>
		<g>
			<g>
				<path d="M276.269,136.816c0,0.859-0.392,1.555-0.877,1.555c-0.482,0-0.876-0.695-0.876-1.555c0-0.858,0.394-1.555,0.876-1.555
					C275.877,135.261,276.269,135.958,276.269,136.816z"/>
				<g>
					<g>
						<path fill="none" d="M275.919,135.779c1.752,2.074,3.154,2.074,4.558-0.518"/>
						<path d="M275.542,136.1c0.703,0.807,1.59,1.694,2.74,1.664c1.249-0.034,2.055-1.247,2.602-2.219
							c0.312-0.553-0.498-1.127-0.813-0.568c-0.379,0.673-0.851,1.56-1.657,1.779c-0.831,0.226-1.654-0.769-2.116-1.299
							C275.878,134.976,275.12,135.617,275.542,136.1z"/>
					</g>
				</g>
				<g>
					<g>
						<path fill="none" d="M275.217,147.701c1.403-4.146,3.507-7.774,4.908-11.922"/>
						<path d="M275.683,147.873c1.429-4.061,3.48-7.86,4.908-11.922c0.212-0.604-0.719-0.947-0.932-0.344
							c-1.427,4.061-3.479,7.861-4.908,11.922C274.54,148.132,275.47,148.476,275.683,147.873z"/>
					</g>
				</g>
			</g>
			<path stroke="#000000" stroke-width="0.5" d="M276.269,136.816c0,0.914-0.66,1.656-1.477,1.656c-0.815,0-1.477-0.742-1.477-1.656
				s0.661-1.656,1.477-1.656C275.609,135.16,276.269,135.902,276.269,136.816z"/>
		</g>
		<g>
			<path d="M85.237,130.624c2.04,0.024,3.168,1.44,2.52,3.144c-0.288,0.816-0.936,1.536-1.728,2.088
				c0.816,1.824,1.344,3.744,1.008,6.168c-0.192,1.272-0.6,2.736-1.584,4.368c-1.032,1.728-2.112,3.36-3.048,4.68
				c-0.816,1.128-1.632,2.64-1.632,3.984h-0.456v-0.096h-0.048c0-24.216,0-20.4,0-20.4c0-0.264,0.072-0.576,0.192-0.888
				C81.085,131.968,83.221,130.6,85.237,130.624z M82.957,136.816c-0.984,0-1.776-0.36-2.232-0.912v12.768h0.048
				c0,0,1.248-0.12,2.448-0.936c0.816-0.552,2.184-2.064,3-4.512c0.48-1.344,0.6-2.664,0.48-3.528
				c-0.216-1.56-0.408-2.376-1.056-3.648C84.805,136.576,83.941,136.84,82.957,136.816z"/>
		</g>
		<g>
			<g>
				<path d="M96.269,136.816c0,0.859-0.392,1.555-0.877,1.555c-0.482,0-0.876-0.695-0.876-1.555c0-0.858,0.394-1.555,0.876-1.555
					C95.877,135.261,96.269,135.958,96.269,136.816z"/>
				<g>
					<g>
						<path fill="none" d="M95.919,135.779c1.752,2.074,3.154,2.074,4.558-0.518"/>
						<path d="M95.541,136.1c0.704,0.807,1.59,1.694,2.741,1.664c1.249-0.034,2.055-1.247,2.601-2.219
							c0.312-0.553-0.499-1.127-0.813-0.568c-0.379,0.673-0.85,1.56-1.657,1.779c-0.832,0.226-1.654-0.769-2.116-1.299
							C95.878,134.976,95.12,135.617,95.541,136.1z"/>
					</g>
				</g>
				<g>
					<g>
						<path fill="none" d="M95.217,147.701c1.403-4.146,3.507-7.774,4.908-11.922"/>
						<path d="M95.683,147.873c1.429-4.061,3.481-7.86,4.908-11.922c0.212-0.604-0.719-0.947-0.931-0.344
							c-1.427,4.061-3.479,7.861-4.908,11.922C94.539,148.132,95.47,148.476,95.683,147.873z"/>
					</g>
				</g>
			</g>
			<path stroke="#000000" stroke-width="0.5" d="M96.269,136.816c0,0.914-0.66,1.656-1.477,1.656c-0.815,0-1.477-0.742-1.477-1.656
				s0.661-1.656,1.477-1.656C95.609,135.16,96.269,135.902,96.269,136.816z"/>
		</g>
		<g>
			<path d="M114.237,130.624c2.04,0.024,3.168,1.44,2.52,3.144c-0.288,0.816-0.936,1.536-1.728,2.088
				c0.816,1.824,1.344,3.744,1.008,6.168c-0.192,1.272-0.6,2.736-1.584,4.368c-1.032,1.728-2.112,3.36-3.048,4.68
				c-0.816,1.128-1.632,2.64-1.632,3.984h-0.456v-0.096h-0.048c0-24.216,0-20.4,0-20.4c0-0.264,0.072-0.576,0.192-0.888
				C110.085,131.968,112.221,130.6,114.237,130.624z M111.957,136.816c-0.984,0-1.776-0.36-2.232-0.912v12.768h0.048
				c0,0,1.248-0.12,2.448-0.936c0.816-0.552,2.184-2.064,3-4.512c0.48-1.344,0.6-2.664,0.48-3.528
				c-0.216-1.56-0.408-2.376-1.056-3.648C113.805,136.576,112.941,136.84,111.957,136.816z"/>
		</g>
		<g>
			<g>
				<path d="M125.269,136.816c0,0.859-0.392,1.555-0.877,1.555c-0.482,0-0.876-0.695-0.876-1.555c0-0.858,0.394-1.555,0.876-1.555
					C124.877,135.261,125.269,135.958,125.269,136.816z"/>
				<g>
					<g>
						<path fill="none" d="M124.919,135.779c1.752,2.074,3.154,2.074,4.558-0.518"/>
						<path d="M124.541,136.1c0.704,0.807,1.59,1.694,2.741,1.664c1.249-0.034,2.055-1.247,2.601-2.219
							c0.312-0.553-0.499-1.127-0.813-0.568c-0.379,0.673-0.85,1.56-1.657,1.779c-0.832,0.226-1.654-0.769-2.116-1.299
							C124.878,134.976,124.12,135.617,124.541,136.1z"/>
					</g>
				</g>
				<g>
					<g>
						<path fill="none" d="M124.217,147.701c1.403-4.146,3.507-7.774,4.908-11.922"/>
						<path d="M124.683,147.873c1.429-4.061,3.481-7.86,4.908-11.922c0.212-0.604-0.719-0.947-0.931-0.344
							c-1.427,4.061-3.479,7.861-4.908,11.922C123.539,148.132,124.47,148.476,124.683,147.873z"/>
					</g>
				</g>
			</g>
			<path stroke="#000000" stroke-width="0.5" d="M125.269,136.816c0,0.914-0.66,1.656-1.477,1.656c-0.815,0-1.477-0.742-1.477-1.656
				s0.661-1.656,1.477-1.656C124.609,135.16,125.269,135.902,125.269,136.816z"/>
		</g>
		<g>
			<g>
				<path d="M162.269,136.816c0,0.859-0.392,1.555-0.877,1.555c-0.482,0-0.876-0.695-0.876-1.555c0-0.858,0.394-1.555,0.876-1.555
					C161.877,135.261,162.269,135.958,162.269,136.816z"/>
				<g>
					<g>
						<path fill="none" d="M161.919,135.779c1.752,2.074,3.154,2.074,4.558-0.518"/>
						<path d="M161.542,136.1c0.703,0.807,1.59,1.694,2.74,1.664c1.249-0.034,2.055-1.247,2.602-2.219
							c0.312-0.553-0.498-1.127-0.813-0.568c-0.379,0.673-0.851,1.56-1.657,1.779c-0.831,0.226-1.654-0.769-2.116-1.299
							C161.878,134.976,161.12,135.617,161.542,136.1z"/>
					</g>
				</g>
				<g>
					<g>
						<path fill="none" d="M161.217,147.701c1.403-4.146,3.507-7.774,4.908-11.922"/>
						<path d="M161.683,147.873c1.429-4.061,3.48-7.86,4.908-11.922c0.212-0.604-0.719-0.947-0.932-0.344
							c-1.427,4.061-3.479,7.861-4.908,11.922C160.54,148.132,161.47,148.476,161.683,147.873z"/>
					</g>
				</g>
			</g>
			<path stroke="#000000" stroke-width="0.5" d="M162.269,136.816c0,0.914-0.66,1.656-1.477,1.656c-0.815,0-1.477-0.742-1.477-1.656
				s0.661-1.656,1.477-1.656C161.609,135.16,162.269,135.902,162.269,136.816z"/>
		</g>
		<g>
			<g>
				<path d="M189.269,136.816c0,0.859-0.392,1.555-0.877,1.555c-0.482,0-0.876-0.695-0.876-1.555c0-0.858,0.394-1.555,0.876-1.555
					C188.877,135.261,189.269,135.958,189.269,136.816z"/>
				<g>
					<g>
						<path fill="none" d="M188.919,135.779c1.752,2.074,3.154,2.074,4.558-0.518"/>
						<path d="M188.542,136.1c0.703,0.807,1.59,1.694,2.74,1.664c1.249-0.034,2.055-1.247,2.602-2.219
							c0.312-0.553-0.498-1.127-0.813-0.568c-0.379,0.673-0.851,1.56-1.657,1.779c-0.831,0.226-1.654-0.769-2.116-1.299
							C188.878,134.976,188.12,135.617,188.542,136.1z"/>
					</g>
				</g>
				<g>
					<g>
						<path fill="none" d="M188.217,147.701c1.403-4.146,3.507-7.774,4.908-11.922"/>
						<path d="M188.683,147.873c1.429-4.061,3.48-7.86,4.908-11.922c0.212-0.604-0.719-0.947-0.932-0.344
							c-1.427,4.061-3.479,7.861-4.908,11.922C187.54,148.132,188.47,148.476,188.683,147.873z"/>
					</g>
				</g>
			</g>
			<path stroke="#000000" stroke-width="0.5" d="M189.269,136.816c0,0.914-0.66,1.656-1.477,1.656c-0.815,0-1.477-0.742-1.477-1.656
				s0.661-1.656,1.477-1.656C188.609,135.16,189.269,135.902,189.269,136.816z"/>
		</g>
		<g>
			<g>
				<path d="M216.269,136.816c0,0.859-0.392,1.555-0.877,1.555c-0.482,0-0.876-0.695-0.876-1.555c0-0.858,0.394-1.555,0.876-1.555
					C215.877,135.261,216.269,135.958,216.269,136.816z"/>
				<g>
					<g>
						<path fill="none" d="M215.919,135.779c1.752,2.074,3.154,2.074,4.558-0.518"/>
						<path d="M215.542,136.1c0.703,0.807,1.59,1.694,2.74,1.664c1.249-0.034,2.055-1.247,2.602-2.219
							c0.312-0.553-0.498-1.127-0.813-0.568c-0.379,0.673-0.851,1.56-1.657,1.779c-0.831,0.226-1.654-0.769-2.116-1.299
							C215.878,134.976,215.12,135.617,215.542,136.1z"/>
					</g>
				</g>
				<g>
					<g>
						<path fill="none" d="M215.217,147.701c1.403-4.146,3.507-7.774,4.908-11.922"/>
						<path d="M215.683,147.873c1.429-4.061,3.48-7.86,4.908-11.922c0.212-0.604-0.719-0.947-0.932-0.344
							c-1.427,4.061-3.479,7.861-4.908,11.922C214.54,148.132,215.47,148.476,215.683,147.873z"/>
					</g>
				</g>
			</g>
			<path stroke="#000000" stroke-width="0.5" d="M216.269,136.816c0,0.914-0.66,1.656-1.477,1.656c-0.815,0-1.477-0.742-1.477-1.656
				s0.661-1.656,1.477-1.656C215.609,135.16,216.269,135.902,216.269,136.816z"/>
		</g>
		<g>
			<path d="M235.237,130.624c2.04,0.024,3.168,1.44,2.52,3.144c-0.288,0.816-0.936,1.536-1.728,2.088
				c0.816,1.824,1.344,3.744,1.008,6.168c-0.192,1.272-0.6,2.736-1.584,4.368c-1.032,1.728-2.112,3.36-3.048,4.68
				c-0.816,1.128-1.632,2.64-1.632,3.984h-0.456v-0.096h-0.048c0-24.216,0-20.4,0-20.4c0-0.264,0.072-0.576,0.192-0.888
				C231.085,131.968,233.221,130.6,235.237,130.624z M232.957,136.816c-0.984,0-1.776-0.36-2.232-0.912v12.768h0.048
				c0,0,1.248-0.12,2.448-0.936c0.816-0.552,2.184-2.064,3-4.512c0.48-1.344,0.6-2.664,0.48-3.528
				c-0.216-1.56-0.408-2.376-1.056-3.648C234.805,136.576,233.941,136.84,232.957,136.816z"/>
		</g>
		<g>
			<g>
				<path d="M246.269,136.816c0,0.859-0.392,1.555-0.877,1.555c-0.482,0-0.876-0.695-0.876-1.555c0-0.858,0.394-1.555,0.876-1.555
					C245.877,135.261,246.269,135.958,246.269,136.816z"/>
				<g>
					<g>
						<path fill="none" d="M245.919,135.779c1.752,2.074,3.154,2.074,4.558-0.518"/>
						<path d="M245.542,136.1c0.703,0.807,1.59,1.694,2.74,1.664c1.249-0.034,2.055-1.247,2.602-2.219
							c0.312-0.553-0.498-1.127-0.813-0.568c-0.379,0.673-0.851,1.56-1.657,1.779c-0.831,0.226-1.654-0.769-2.116-1.299
							C245.878,134.976,245.12,135.617,245.542,136.1z"/>
					</g>
				</g>
				<g>
					<g>
						<path fill="none" d="M245.217,147.701c1.403-4.146,3.507-7.774,4.908-11.922"/>
						<path d="M245.683,147.873c1.429-4.061,3.48-7.86,4.908-11.922c0.212-0.604-0.719-0.947-0.932-0.344
							c-1.427,4.061-3.479,7.861-4.908,11.922C244.54,148.132,245.47,148.476,245.683,147.873z"/>
					</g>
				</g>
			</g>
			<path stroke="#000000" stroke-width="0.5" d="M246.269,136.816c0,0.914-0.66,1.656-1.477,1.656c-0.815,0-1.477-0.742-1.477-1.656
				s0.661-1.656,1.477-1.656C245.609,135.16,246.269,135.902,246.269,136.816z"/>
		</g>
		<g>
			<path d="M295.237,130.624c2.04,0.024,3.168,1.44,2.521,3.144c-0.288,0.816-0.937,1.536-1.729,2.088
				c0.816,1.824,1.345,3.744,1.008,6.168c-0.191,1.272-0.6,2.736-1.584,4.368c-1.031,1.728-2.111,3.36-3.048,4.68
				c-0.815,1.128-1.632,2.64-1.632,3.984h-0.456v-0.096h-0.048c0-24.216,0-20.4,0-20.4c0-0.264,0.072-0.576,0.192-0.888
				C291.085,131.968,293.221,130.6,295.237,130.624z M292.958,136.816c-0.984,0-1.776-0.36-2.232-0.912v12.768h0.048
				c0,0,1.248-0.12,2.448-0.936c0.815-0.552,2.184-2.064,3-4.512c0.479-1.344,0.6-2.664,0.479-3.528
				c-0.216-1.56-0.407-2.376-1.056-3.648C294.805,136.576,293.941,136.84,292.958,136.816z"/>
		</g>
		<g>
			<g>
				<path d="M306.269,136.816c0,0.859-0.392,1.555-0.877,1.555c-0.482,0-0.876-0.695-0.876-1.555c0-0.858,0.394-1.555,0.876-1.555
					C305.877,135.261,306.269,135.958,306.269,136.816z"/>
				<g>
					<g>
						<path fill="none" d="M305.919,135.779c1.752,2.074,3.154,2.074,4.558-0.518"/>
						<path d="M305.542,136.1c0.703,0.807,1.59,1.694,2.74,1.664c1.249-0.034,2.055-1.247,2.602-2.219
							c0.312-0.553-0.498-1.127-0.813-0.568c-0.379,0.673-0.851,1.56-1.657,1.779c-0.831,0.226-1.654-0.769-2.116-1.299
							C305.878,134.976,305.12,135.617,305.542,136.1z"/>
					</g>
				</g>
				<g>
					<g>
						<path fill="none" d="M305.217,147.701c1.403-4.146,3.507-7.774,4.908-11.922"/>
						<path d="M305.683,147.873c1.429-4.061,3.48-7.86,4.908-11.922c0.212-0.604-0.719-0.947-0.932-0.344
							c-1.427,4.061-3.479,7.861-4.908,11.922C304.54,148.132,305.47,148.476,305.683,147.873z"/>
					</g>
				</g>
			</g>
			<path stroke="#000000" stroke-width="0.5" d="M306.269,136.816c0,0.914-0.66,1.656-1.477,1.656c-0.815,0-1.477-0.742-1.477-1.656
				s0.661-1.656,1.477-1.656C305.609,135.16,306.269,135.902,306.269,136.816z"/>
		</g>
		<g>
			<path d="M158.165,31.648c0.984,0,1.776,0.36,2.232,0.912V13.336h0.456v20.4c0,0.336-0.048,0.672-0.168,1.056
				c-0.648,1.704-2.784,3.072-4.8,3.048c-2.016-0.024-3.144-1.44-2.52-3.144S156.149,31.624,158.165,31.648z"/>
		</g>
		<g>
			<path d="M147.213,145.624c1.008,0.024,1.776,0.36,2.232,0.912v-19.344h0.456c0,1.176,0.552,2.568,1.248,3.552
				c0.792,1.08,1.752,2.352,2.688,3.888c0.792,1.344,1.44,3.456,1.56,4.416c0.144,0.984,0.216,1.968,0.192,2.928
				c-0.024,1.44-0.24,2.808-0.72,4.08l-0.288-0.144c0.432-1.08,0.648-2.664,0.648-4.032c0-1.128-0.192-2.64-0.6-3.792
				c-0.72-2.136-1.92-3.384-2.616-3.864c-1.08-0.696-2.112-0.744-2.112-0.744v14.16c0.024,0.36-0.024,0.744-0.168,1.128
				c-0.624,1.704-2.784,3.072-4.8,3.048s-3.144-1.416-2.496-3.144C143.061,146.968,145.197,145.6,147.213,145.624z"/>
		</g>
		<g>
			<path d="M183.165,31.648c0.984,0,1.776,0.36,2.232,0.912V13.336h0.456v20.4c0,0.336-0.048,0.672-0.168,1.056
				c-0.648,1.704-2.784,3.072-4.8,3.048c-2.016-0.024-3.144-1.44-2.52-3.144S181.149,31.624,183.165,31.648z"/>
		</g>
		<g>
			<path d="M205.165,31.648c0.984,0,1.776,0.36,2.232,0.912V13.336h0.456v20.4c0,0.336-0.048,0.672-0.168,1.056
				c-0.648,1.704-2.784,3.072-4.8,3.048c-2.016-0.024-3.144-1.44-2.52-3.144S203.149,31.624,205.165,31.648z"/>
		</g>
		<g>
			<path d="M176.213,145.624c1.008,0.024,1.776,0.36,2.232,0.912v-19.344h0.456c0,1.176,0.552,2.568,1.248,3.552
				c0.792,1.08,1.752,2.352,2.688,3.888c0.792,1.344,1.44,3.456,1.56,4.416c0.144,0.984,0.216,1.968,0.192,2.928
				c-0.024,1.44-0.24,2.808-0.72,4.08l-0.288-0.144c0.432-1.08,0.648-2.664,0.648-4.032c0-1.128-0.192-2.64-0.6-3.792
				c-0.72-2.136-1.92-3.384-2.616-3.864c-1.08-0.696-2.112-0.744-2.112-0.744v14.16c0.024,0.36-0.024,0.744-0.168,1.128
				c-0.624,1.704-2.784,3.072-4.8,3.048s-3.144-1.416-2.496-3.144C172.061,146.968,174.197,145.6,176.213,145.624z"/>
		</g>
		<g>
			<path d="M202.213,145.624c1.008,0.024,1.776,0.36,2.232,0.912v-19.344h0.456c0,1.176,0.552,2.568,1.248,3.552
				c0.792,1.08,1.752,2.352,2.688,3.888c0.792,1.344,1.44,3.456,1.56,4.416c0.144,0.984,0.216,1.968,0.192,2.928
				c-0.024,1.44-0.24,2.808-0.72,4.08l-0.288-0.144c0.432-1.08,0.648-2.664,0.648-4.032c0-1.128-0.192-2.64-0.6-3.792
				c-0.72-2.136-1.92-3.384-2.616-3.864c-1.08-0.696-2.112-0.744-2.112-0.744v14.16c0.024,0.36-0.024,0.744-0.168,1.128
				c-0.624,1.704-2.784,3.072-4.8,3.048s-3.144-1.416-2.496-3.144C198.061,146.968,200.197,145.6,202.213,145.624z"/>
		</g>
	</g>
</svg>
