<?xml version="1.0" encoding="utf-8"?>
<!-- Generator: Adobe Illustrator 10.0, SVG Export Plug-In . SVG Version: 3.0.0 Build 76)  -->
<!DOCTYPE svg PUBLIC "-//W3C//DTD SVG 1.0//EN"    "http://www.w3.org/TR/2001/REC-SVG-20010904/DTD/svg10.dtd" [
	<!ENTITY ns_flows "http://ns.adobe.com/Flows/1.0/">
	<!ENTITY ns_extend "http://ns.adobe.com/Extensibility/1.0/">
	<!ENTITY ns_ai "http://ns.adobe.com/AdobeIllustrator/10.0/">
	<!ENTITY ns_svg "http://www.w3.org/2000/svg">
	<!ENTITY ns_xlink "http://www.w3.org/1999/xlink">
]>
<svg  xmlns:x="&ns_extend;" xmlns:i="&ns_ai;" xmlns:graph="&ns_graphs;"
	 xmlns="&ns_svg;" xmlns:xlink="&ns_xlink;" xmlns:a="http://ns.adobe.com/AdobeSVGViewerExtensions/3.0/" width="372" height="131"
	 viewBox="-0.333 -0.135 372 131" overflow="visible" enable-background="new -0.333 -0.135 372 131" xml:space="preserve">
	<g id="Layer_1_2_">
		<g>
			<path fill="none" stroke="#000000" d="M0.666,59.686h370.392"/>
			<path fill="none" stroke="#000000" d="M0.666,73.797h370.392"/>
			<path fill="none" stroke="#000000" d="M0.85,80.92h370.391"/>
			<path fill="none" stroke="#000000" d="M0.566,88.303h370.39"/>
			<path fill="none" stroke="#000000" d="M0.566,66.939h370.39"/>
		</g>
		<path fill="none" stroke="#000000" d="M153.713,58.835v29.746"/>
		<g>
			<path d="M44.004,69.16v1.584c0,0.96,1.128,0.936,1.128,0.936v0.624h-5.208V71.68c0,0,1.176,0.048,1.152-0.888V69.16h-4.44
				l-0.432-0.456c2.904-3.912,2.928-4.632,3.624-8.184h4.152c-0.984,1.824-4.296,5.256-6.624,7.968h3.72v-2.952l2.928-3.216v6.168
				h1.728v0.672H44.004z"/>
		</g>
		<g>
			<path d="M12.964,88.208c-4.944-2.352-5.736-5.376-5.952-8.472c-0.24-3.36,1.896-6.768,3.888-8.664
				c1.152-1.08,2.4-2.136,3.888-3.264c-0.048-0.84-0.24-1.176-0.336-2.376c-0.024-0.504-0.336-2.856,0.168-5.568
				c0.312-1.608,2.328-5.4,3.72-5.424c1.08-0.024,2.736,4.296,2.784,6.456c0.072,3.336-0.72,4.848-1.704,6.576
				c-0.504,0.864-1.032,1.464-1.584,2.136c-0.576,0.696-1.224,1.104-1.824,1.632c0,0,0.768,4.344,0.792,4.656
				c1.536-0.192,3.408,0.36,4.08,0.84c1.704,1.272,2.352,3.024,2.472,4.728c0.216,2.712-1.272,5.568-4.56,6.936
				c0,0,0.504,3.456,0.624,4.176c0.264,1.896,0.216,3.096-0.192,3.864c-0.696,1.296-1.824,2.496-4.008,2.64
				c-1.68,0.096-4.992-0.744-5.16-3.384c-0.096-1.56,0.6-3.24,2.496-3.36c1.152-0.096,2.52,0.864,2.616,2.232
				c0.096,1.176-0.672,2.4-2.664,2.952c0.312,0.432,1.248,0.936,2.592,0.936c1.392,0,2.832-0.936,3.528-2.184
				c0.432-0.816,0.384-2.28,0.216-3.624c-0.072-0.456-0.648-4.08-0.648-4.08C16.42,88.856,13.972,88.688,12.964,88.208z
				 M13.444,82.52c0.048,1.152,1.008,2.496,1.896,2.952c-0.12,0.072-0.24,0.264-0.24,0.264c-0.984-0.48-1.824-1.272-2.04-1.56
				c-0.696-0.936-0.984-1.464-1.08-2.88c-0.096-1.32,0.624-3.096,2.232-4.344c0.84-0.624,1.248-0.768,1.968-0.936l-0.72-4.344
				c-0.744,0.432-3.816,2.904-5.112,4.92c-1.152,1.8-1.848,3.24-1.704,5.016c0.288,4.008,4.68,7.296,9.432,6.168
				c0,0-1.416-8.52-1.392-8.52C14.068,79.352,13.372,81.368,13.444,82.52z M15.388,67.304c2.088-1.632,4.92-4.704,4.752-7.08
				c-0.048-0.744-0.36-2.088-1.44-2.064C16.228,58.184,14.836,63.344,15.388,67.304z M18.652,87.584
				c2.76-0.936,2.88-3.312,2.784-4.728c-0.096-1.176-0.624-3.816-4.128-3.648L18.652,87.584z"/>
		</g>
		<g>
			<path fill="#FF0000" d="M233.913,120.54c0.647-0.096,1.403-0.168,2.231-0.168c1.5,0,2.568,0.336,3.276,0.996
				c0.731,0.66,1.151,1.608,1.151,2.916c0,1.32-0.42,2.4-1.163,3.144c-0.769,0.756-2.017,1.164-3.589,1.164
				c-0.756,0-1.367-0.024-1.907-0.096V120.54z M234.968,127.704c0.264,0.048,0.648,0.048,1.056,0.048
				c2.232,0.012,3.444-1.248,3.444-3.432c0.012-1.932-1.068-3.12-3.276-3.12c-0.54,0-0.947,0.048-1.224,0.108V127.704z"/>
			<path fill="#FF0000" d="M242.564,122.712l1.26,3.432c0.145,0.384,0.288,0.84,0.384,1.188h0.024
				c0.108-0.348,0.229-0.792,0.372-1.212l1.152-3.408h1.115l-1.584,4.14c-0.756,1.992-1.271,3.012-1.991,3.648
				c-0.528,0.444-1.032,0.624-1.297,0.672l-0.264-0.888c0.264-0.072,0.612-0.24,0.924-0.516c0.288-0.228,0.637-0.636,0.889-1.176
				c0.048-0.108,0.084-0.18,0.084-0.252c0-0.06-0.024-0.144-0.084-0.264l-2.137-5.364H242.564z"/>
			<path fill="#FF0000" d="M247.832,124.284c0-0.612-0.012-1.092-0.048-1.572h0.937l0.06,0.948h0.024
				c0.288-0.54,0.96-1.08,1.92-1.08c0.804,0,2.052,0.48,2.052,2.472v3.468h-1.056v-3.348c0-0.936-0.349-1.728-1.345-1.728
				c-0.684,0-1.224,0.492-1.416,1.08c-0.048,0.132-0.071,0.324-0.071,0.492v3.504h-1.057V124.284z"/>
			<path fill="#FF0000" d="M258.583,127.128c0,0.504,0.024,0.996,0.084,1.392h-0.947l-0.097-0.732h-0.036
				c-0.312,0.456-0.947,0.864-1.775,0.864c-1.176,0-1.776-0.828-1.776-1.668c0-1.404,1.248-2.172,3.492-2.16v-0.12
				c0-0.48-0.132-1.356-1.32-1.344c-0.552,0-1.116,0.156-1.523,0.432l-0.24-0.708c0.479-0.3,1.188-0.504,1.92-0.504
				c1.788,0,2.22,1.212,2.22,2.376V127.128z M257.552,125.556c-1.152-0.024-2.461,0.18-2.461,1.308c0,0.696,0.456,1.008,0.984,1.008
				c0.769,0,1.26-0.48,1.428-0.972c0.036-0.108,0.049-0.228,0.049-0.336V125.556z"/>
			<path fill="#FF0000" d="M260.276,124.284c0-0.612-0.024-1.092-0.048-1.572h0.924l0.048,0.936h0.036
				c0.324-0.552,0.864-1.068,1.836-1.068c0.78,0,1.38,0.48,1.632,1.164h0.024c0.18-0.336,0.42-0.576,0.66-0.756
				c0.348-0.264,0.72-0.408,1.271-0.408c0.78,0,1.92,0.504,1.92,2.52v3.42h-1.032v-3.288c0-1.128-0.42-1.788-1.26-1.788
				c-0.612,0-1.067,0.444-1.26,0.948c-0.048,0.156-0.084,0.348-0.084,0.528v3.6h-1.032v-3.48c0-0.936-0.408-1.596-1.212-1.596
				c-0.648,0-1.14,0.528-1.308,1.056c-0.061,0.156-0.084,0.336-0.084,0.516v3.504h-1.032V124.284z"/>
			<path fill="#FF0000" d="M270.788,121.644c-0.396,0-0.66-0.312-0.66-0.684s0.276-0.672,0.685-0.672s0.672,0.3,0.672,0.672
				s-0.264,0.684-0.685,0.684H270.788z M270.284,128.52v-5.808h1.056v5.808H270.284z"/>
			<path fill="#FF0000" d="M277.232,128.316c-0.276,0.132-0.889,0.336-1.668,0.336c-1.752,0-2.893-1.188-2.893-2.976
				c0-1.788,1.225-3.096,3.12-3.096c0.624,0,1.176,0.156,1.464,0.312l-0.239,0.804c-0.253-0.132-0.648-0.276-1.225-0.276
				c-1.332,0-2.052,0.996-2.052,2.208c0,1.344,0.864,2.172,2.016,2.172c0.601,0,0.996-0.144,1.296-0.276L277.232,128.316z"/>
			<path fill="#FF0000" d="M281.011,124.284c0-0.612-0.023-1.092-0.048-1.572h0.924l0.048,0.936h0.036
				c0.324-0.552,0.864-1.068,1.836-1.068c0.78,0,1.381,0.48,1.633,1.164h0.023c0.18-0.336,0.42-0.576,0.66-0.756
				c0.348-0.264,0.72-0.408,1.272-0.408c0.779,0,1.92,0.504,1.92,2.52v3.42h-1.032v-3.288c0-1.128-0.42-1.788-1.26-1.788
				c-0.612,0-1.068,0.444-1.261,0.948c-0.048,0.156-0.084,0.348-0.084,0.528v3.6h-1.031v-3.48c0-0.936-0.408-1.596-1.213-1.596
				c-0.647,0-1.14,0.528-1.308,1.056c-0.06,0.156-0.084,0.336-0.084,0.516v3.504h-1.032V124.284z"/>
			<path fill="#FF0000" d="M295.112,127.128c0,0.504,0.023,0.996,0.084,1.392h-0.948l-0.096-0.732h-0.036
				c-0.313,0.456-0.948,0.864-1.776,0.864c-1.176,0-1.775-0.828-1.775-1.668c0-1.404,1.247-2.172,3.491-2.16v-0.12
				c0-0.48-0.132-1.356-1.319-1.344c-0.553,0-1.116,0.156-1.524,0.432l-0.24-0.708c0.48-0.3,1.188-0.504,1.92-0.504
				c1.788,0,2.221,1.212,2.221,2.376V127.128z M294.08,125.556c-1.152-0.024-2.46,0.18-2.46,1.308c0,0.696,0.456,1.008,0.983,1.008
				c0.769,0,1.261-0.48,1.429-0.972c0.036-0.108,0.048-0.228,0.048-0.336V125.556z"/>
			<path fill="#FF0000" d="M296.816,124.524c0-0.684-0.013-1.272-0.049-1.812h0.925l0.048,1.14h0.036
				c0.264-0.78,0.911-1.272,1.619-1.272c0.108,0,0.192,0.012,0.288,0.036v0.984c-0.12-0.012-0.228-0.024-0.372-0.024
				c-0.743,0-1.271,0.564-1.416,1.344c-0.023,0.156-0.035,0.324-0.035,0.504v3.096h-1.057L296.816,124.524z"/>
			<path fill="#FF0000" d="M301.832,125.376h0.023c0.145-0.204,0.336-0.468,0.504-0.66l1.717-2.004h1.26l-2.244,2.388l2.556,3.42
				h-1.283l-1.992-2.796l-0.54,0.612v2.184h-1.057V120h1.057V125.376z"/>
			<path fill="#FF0000" d="M307.111,121.644c-0.396,0-0.659-0.312-0.659-0.684s0.275-0.672,0.684-0.672s0.672,0.3,0.672,0.672
				s-0.264,0.684-0.684,0.684H307.111z M306.607,128.52v-5.808h1.057v5.808H306.607z"/>
			<path fill="#FF0000" d="M309.416,124.284c0-0.612-0.013-1.092-0.049-1.572h0.937l0.06,0.948h0.024
				c0.288-0.54,0.96-1.08,1.92-1.08c0.804,0,2.052,0.48,2.052,2.472v3.468h-1.056v-3.348c0-0.936-0.348-1.728-1.344-1.728
				c-0.685,0-1.225,0.492-1.416,1.08c-0.048,0.132-0.072,0.324-0.072,0.492v3.504h-1.056V124.284z"/>
			<path fill="#FF0000" d="M321.043,127.668c0,1.344-0.276,2.148-0.828,2.664c-0.576,0.516-1.393,0.696-2.124,0.696
				c-0.696,0-1.464-0.168-1.933-0.48l0.265-0.816c0.384,0.252,0.983,0.468,1.704,0.468c1.08,0,1.872-0.564,1.872-2.04v-0.636h-0.024
				c-0.312,0.54-0.948,0.972-1.848,0.972c-1.44,0-2.473-1.224-2.473-2.844c0-1.968,1.284-3.072,2.628-3.072
				c1.009,0,1.549,0.516,1.813,0.996h0.023l0.036-0.864h0.937c-0.036,0.408-0.048,0.876-0.048,1.584V127.668z M319.987,124.992
				c0-0.168-0.012-0.324-0.06-0.468c-0.192-0.624-0.696-1.128-1.477-1.128c-1.008,0-1.728,0.852-1.728,2.208
				c0,1.128,0.588,2.088,1.716,2.088c0.66,0,1.248-0.408,1.464-1.092c0.061-0.168,0.084-0.372,0.084-0.564V124.992z"/>
			<path fill="#FF0000" d="M322.639,127.452c0.324,0.192,0.876,0.408,1.404,0.408c0.756,0,1.115-0.372,1.115-0.864
				c0-0.504-0.3-0.78-1.067-1.068c-1.057-0.384-1.548-0.948-1.548-1.644c0-0.936,0.768-1.704,2.004-1.704
				c0.588,0,1.104,0.156,1.416,0.36l-0.252,0.756c-0.229-0.132-0.648-0.336-1.188-0.336c-0.624,0-0.96,0.36-0.96,0.792
				c0,0.492,0.336,0.708,1.092,0.996c0.996,0.372,1.524,0.876,1.524,1.752c0,1.032-0.805,1.752-2.16,1.752
				c-0.636,0-1.224-0.168-1.632-0.408L322.639,127.452z"/>
		</g>
		<g>
			<path fill="#FF0000" d="M2.46,1.32H0V0.432h5.988V1.32H3.516v7.2H2.46V1.32z"/>
			<path fill="#FF0000" d="M6.684,5.796c0.024,1.428,0.924,2.016,1.98,2.016c0.756,0,1.224-0.132,1.608-0.288l0.192,0.744
				C10.092,8.436,9.444,8.64,8.52,8.64c-1.776,0-2.856-1.188-2.856-2.928c0-1.764,1.044-3.144,2.736-3.144
				c1.896,0,2.388,1.668,2.388,2.736c0,0.216-0.012,0.384-0.036,0.504L6.684,5.796z M9.768,5.04C9.78,4.38,9.492,3.324,8.316,3.324
				c-1.08,0-1.536,0.984-1.62,1.716H9.768z"/>
			<path fill="#FF0000" d="M12.096,4.284c0-0.612-0.024-1.092-0.048-1.572h0.924l0.048,0.936h0.036
				C13.38,3.096,13.92,2.58,14.892,2.58c0.78,0,1.38,0.48,1.632,1.164h0.024c0.18-0.336,0.42-0.576,0.66-0.756
				c0.348-0.264,0.72-0.408,1.272-0.408c0.78,0,1.92,0.504,1.92,2.52v3.42h-1.032V5.232c0-1.128-0.42-1.788-1.26-1.788
				c-0.612,0-1.068,0.444-1.26,0.948C16.8,4.548,16.764,4.74,16.764,4.92v3.6h-1.032V5.04c0-0.936-0.408-1.596-1.212-1.596
				c-0.648,0-1.14,0.528-1.308,1.056c-0.06,0.156-0.084,0.336-0.084,0.516V8.52h-1.032V4.284z"/>
			<path fill="#FF0000" d="M22.104,4.608c0-0.744-0.012-1.344-0.048-1.896h0.948l0.06,0.996h0.024
				c0.42-0.72,1.116-1.128,2.052-1.128c1.416,0,2.472,1.188,2.472,2.952c0,2.088-1.284,3.12-2.64,3.12
				c-0.78,0-1.44-0.336-1.788-0.912H23.16v3.156h-1.056V4.608z M23.16,6.156c0,0.144,0.012,0.3,0.048,0.432
				c0.18,0.732,0.828,1.236,1.572,1.236c1.116,0,1.764-0.912,1.764-2.244c0-1.164-0.6-2.16-1.716-2.16
				c-0.72,0-1.404,0.504-1.608,1.296c-0.024,0.144-0.06,0.3-0.06,0.432V6.156z"/>
			<path fill="#FF0000" d="M31.308,8.652c-1.56,0-2.784-1.152-2.784-2.988c0-1.944,1.284-3.084,2.88-3.084
				c1.668,0,2.796,1.212,2.796,2.976c0,2.16-1.5,3.096-2.88,3.096H31.308z M31.344,7.86c1.008,0,1.764-0.948,1.764-2.268
				c0-0.984-0.492-2.22-1.74-2.22c-1.236,0-1.776,1.152-1.776,2.256c0,1.272,0.72,2.232,1.74,2.232H31.344z"/>
			<path fill="#FF0000" d="M44.928,4.968c-0.06-1.128-0.132-2.496-0.132-3.492h-0.024c-0.288,0.936-0.612,1.956-1.02,3.072
				l-1.428,3.924h-0.792l-1.32-3.852c-0.384-1.152-0.696-2.184-0.924-3.144h-0.024c-0.024,1.008-0.084,2.352-0.156,3.576
				L38.892,8.52h-0.996l0.564-8.088h1.332l1.38,3.912c0.336,0.996,0.6,1.884,0.816,2.724h0.024c0.216-0.816,0.504-1.704,0.864-2.724
				l1.44-3.912h1.332l0.504,8.088H45.12L44.928,4.968z"/>
			<path fill="#FF0000" d="M51.888,7.128c0,0.504,0.024,0.996,0.084,1.392h-0.948l-0.096-0.732h-0.036
				c-0.312,0.456-0.948,0.864-1.776,0.864c-1.176,0-1.776-0.828-1.776-1.668c0-1.404,1.248-2.172,3.492-2.16v-0.12
				c0-0.48-0.132-1.356-1.32-1.344c-0.552,0-1.116,0.156-1.524,0.432l-0.24-0.708c0.48-0.3,1.188-0.504,1.92-0.504
				c1.788,0,2.22,1.212,2.22,2.376V7.128z M50.855,5.556c-1.152-0.024-2.46,0.18-2.46,1.308c0,0.696,0.456,1.008,0.984,1.008
				c0.768,0,1.26-0.48,1.428-0.972c0.036-0.108,0.048-0.228,0.048-0.336V5.556z"/>
			<path fill="#FF0000" d="M53.591,4.524c0-0.684-0.012-1.272-0.048-1.812h0.924l0.048,1.14h0.036
				c0.264-0.78,0.912-1.272,1.62-1.272c0.108,0,0.192,0.012,0.288,0.036V3.6c-0.12-0.012-0.228-0.024-0.372-0.024
				c-0.744,0-1.272,0.564-1.416,1.344c-0.024,0.156-0.036,0.324-0.036,0.504V8.52H53.58L53.591,4.524z"/>
			<path fill="#FF0000" d="M58.607,5.376h0.024c0.144-0.204,0.336-0.468,0.504-0.66l1.716-2.004h1.26L59.867,5.1l2.556,3.42h-1.284
				l-1.992-2.796l-0.54,0.612V8.52h-1.056V0h1.056V5.376z"/>
			<path fill="#FF0000" d="M63.887,1.644c-0.396,0-0.66-0.312-0.66-0.684s0.276-0.672,0.684-0.672c0.408,0,0.672,0.3,0.672,0.672
				s-0.264,0.684-0.684,0.684H63.887z M63.383,8.52V2.712h1.056V8.52H63.383z"/>
			<path fill="#FF0000" d="M66.191,4.284c0-0.612-0.012-1.092-0.048-1.572h0.936l0.06,0.948h0.024c0.288-0.54,0.96-1.08,1.92-1.08
				c0.804,0,2.052,0.48,2.052,2.472V8.52h-1.056V5.172c0-0.936-0.348-1.728-1.344-1.728c-0.684,0-1.224,0.492-1.416,1.08
				c-0.048,0.132-0.072,0.324-0.072,0.492V8.52h-1.056V4.284z"/>
			<path fill="#FF0000" d="M77.819,7.668c0,1.344-0.276,2.148-0.828,2.664c-0.576,0.516-1.392,0.696-2.124,0.696
				c-0.696,0-1.464-0.168-1.932-0.48l0.264-0.816c0.384,0.252,0.984,0.468,1.704,0.468c1.08,0,1.872-0.564,1.872-2.04V7.524h-0.024
				c-0.312,0.54-0.948,0.972-1.848,0.972c-1.44,0-2.472-1.224-2.472-2.844c0-1.968,1.284-3.072,2.628-3.072
				c1.008,0,1.548,0.516,1.812,0.996h0.024l0.036-0.864h0.936c-0.036,0.408-0.048,0.876-0.048,1.584V7.668z M76.763,4.992
				c0-0.168-0.012-0.324-0.06-0.468c-0.192-0.624-0.696-1.128-1.476-1.128c-1.008,0-1.728,0.852-1.728,2.208
				c0,1.128,0.588,2.088,1.716,2.088c0.66,0,1.248-0.408,1.464-1.092c0.06-0.168,0.084-0.372,0.084-0.564V4.992z"/>
			<path fill="#FF0000" d="M79.415,7.452c0.324,0.192,0.876,0.408,1.404,0.408c0.756,0,1.116-0.372,1.116-0.864
				c0-0.504-0.3-0.78-1.068-1.068c-1.056-0.384-1.548-0.948-1.548-1.644c0-0.936,0.768-1.704,2.004-1.704
				c0.588,0,1.104,0.156,1.416,0.36l-0.252,0.756c-0.228-0.132-0.648-0.336-1.188-0.336c-0.624,0-0.96,0.36-0.96,0.792
				c0,0.492,0.336,0.708,1.092,0.996c0.996,0.372,1.524,0.876,1.524,1.752c0,1.032-0.804,1.752-2.16,1.752
				c-0.636,0-1.224-0.168-1.632-0.408L79.415,7.452z"/>
		</g>
		<g>
			<path fill="#0A50A1" d="M325.232,34.976l-0.84,2.544h-1.08l2.748-8.088h1.26l2.761,8.088h-1.116l-0.864-2.544H325.232z
				 M327.884,34.16l-0.804-2.328c-0.168-0.528-0.288-1.008-0.408-1.476h-0.036c-0.108,0.468-0.24,0.972-0.396,1.464l-0.792,2.34
				H327.884z"/>
			<path fill="#0A50A1" d="M335.228,37.316c-0.275,0.132-0.888,0.336-1.668,0.336c-1.752,0-2.892-1.188-2.892-2.976
				c0-1.788,1.224-3.096,3.12-3.096c0.624,0,1.176,0.156,1.464,0.312l-0.24,0.804c-0.252-0.132-0.647-0.276-1.224-0.276
				c-1.332,0-2.053,0.996-2.053,2.208c0,1.344,0.864,2.172,2.017,2.172c0.6,0,0.996-0.144,1.296-0.276L335.228,37.316z"/>
			<path fill="#0A50A1" d="M340.604,37.316c-0.275,0.132-0.888,0.336-1.668,0.336c-1.752,0-2.892-1.188-2.892-2.976
				c0-1.788,1.224-3.096,3.12-3.096c0.624,0,1.176,0.156,1.464,0.312l-0.24,0.804c-0.252-0.132-0.647-0.276-1.224-0.276
				c-1.332,0-2.053,0.996-2.053,2.208c0,1.344,0.864,2.172,2.017,2.172c0.6,0,0.996-0.144,1.296-0.276L340.604,37.316z"/>
			<path fill="#0A50A1" d="M342.369,34.796c0.023,1.428,0.924,2.016,1.979,2.016c0.756,0,1.225-0.132,1.608-0.288l0.191,0.744
				c-0.372,0.168-1.02,0.372-1.943,0.372c-1.776,0-2.856-1.188-2.856-2.928c0-1.764,1.044-3.144,2.736-3.144
				c1.896,0,2.388,1.668,2.388,2.736c0,0.216-0.012,0.384-0.036,0.504L342.369,34.796z M345.453,34.04
				c0.012-0.66-0.276-1.716-1.452-1.716c-1.08,0-1.536,0.984-1.62,1.716H345.453z"/>
			<path fill="#0A50A1" d="M347.78,33.284c0-0.612-0.012-1.092-0.048-1.572h0.937l0.06,0.948h0.024c0.288-0.54,0.96-1.08,1.92-1.08
				c0.804,0,2.052,0.48,2.052,2.472v3.468h-1.056v-3.348c0-0.936-0.349-1.728-1.345-1.728c-0.684,0-1.224,0.492-1.416,1.08
				c-0.048,0.132-0.071,0.324-0.071,0.492v3.504h-1.057V33.284z"/>
			<path fill="#0A50A1" d="M355.665,30.32v1.392h1.512v0.804h-1.512v3.132c0,0.72,0.203,1.128,0.792,1.128
				c0.287,0,0.456-0.024,0.611-0.072l0.048,0.804c-0.203,0.072-0.527,0.144-0.936,0.144c-0.492,0-0.888-0.168-1.14-0.444
				c-0.288-0.324-0.408-0.84-0.408-1.524v-3.168h-0.9v-0.804h0.9v-1.068L355.665,30.32z"/>
			<path fill="#0A50A1" d="M358.22,36.452c0.324,0.192,0.876,0.408,1.404,0.408c0.756,0,1.115-0.372,1.115-0.864
				c0-0.504-0.3-0.78-1.067-1.068c-1.057-0.384-1.548-0.948-1.548-1.644c0-0.936,0.768-1.704,2.004-1.704
				c0.588,0,1.104,0.156,1.416,0.36l-0.252,0.756c-0.229-0.132-0.648-0.336-1.188-0.336c-0.624,0-0.96,0.36-0.96,0.792
				c0,0.492,0.336,0.708,1.092,0.996c0.996,0.372,1.524,0.876,1.524,1.752c0,1.032-0.804,1.752-2.16,1.752
				c-0.636,0-1.224-0.168-1.632-0.408L358.22,36.452z"/>
		</g>
		<g>
			<path fill="#FF0000" d="M181.08,20.652c-2.148,0-3.636-1.656-3.636-4.104c0-2.568,1.584-4.248,3.744-4.248
				c2.22,0,3.648,1.692,3.648,4.092c0,2.772-1.692,4.26-3.744,4.26H181.08z M181.128,19.8c1.656,0,2.592-1.524,2.592-3.36
				c0-1.608-0.84-3.288-2.58-3.288c-1.74,0-2.604,1.62-2.604,3.372c0,1.704,0.936,3.276,2.58,3.276H181.128z"/>
			<path fill="#FF0000" d="M186.156,16.284c0-0.612-0.012-1.092-0.048-1.572h0.936l0.06,0.948h0.024c0.288-0.54,0.96-1.08,1.92-1.08
				c0.804,0,2.052,0.48,2.052,2.472v3.468h-1.056v-3.348c0-0.936-0.348-1.728-1.344-1.728c-0.684,0-1.224,0.492-1.416,1.08
				c-0.048,0.132-0.072,0.324-0.072,0.492v3.504h-1.056V16.284z"/>
			<path fill="#FF0000" d="M193.416,17.796c0.024,1.428,0.924,2.016,1.98,2.016c0.756,0,1.224-0.132,1.608-0.288l0.192,0.744
				c-0.372,0.168-1.02,0.372-1.944,0.372c-1.776,0-2.856-1.188-2.856-2.928c0-1.764,1.044-3.144,2.736-3.144
				c1.896,0,2.388,1.668,2.388,2.736c0,0.216-0.012,0.384-0.036,0.504L193.416,17.796z M196.5,17.04
				c0.012-0.66-0.276-1.716-1.452-1.716c-1.08,0-1.536,0.984-1.62,1.716H196.5z"/>
			<path fill="#FF0000" d="M208.224,16.968c-0.06-1.128-0.132-2.496-0.132-3.492h-0.024c-0.288,0.936-0.612,1.956-1.02,3.072
				l-1.428,3.924h-0.792l-1.32-3.852c-0.384-1.152-0.696-2.184-0.924-3.144h-0.024c-0.024,1.008-0.084,2.352-0.156,3.576
				l-0.216,3.468h-0.996l0.564-8.088h1.332l1.38,3.912c0.336,0.996,0.6,1.884,0.816,2.724h0.024
				c0.216-0.816,0.504-1.704,0.864-2.724l1.44-3.912h1.332l0.504,8.088h-1.032L208.224,16.968z"/>
			<path fill="#FF0000" d="M211.691,17.796c0.024,1.428,0.924,2.016,1.98,2.016c0.756,0,1.224-0.132,1.608-0.288l0.192,0.744
				c-0.372,0.168-1.02,0.372-1.944,0.372c-1.776,0-2.856-1.188-2.856-2.928c0-1.764,1.044-3.144,2.736-3.144
				c1.896,0,2.388,1.668,2.388,2.736c0,0.216-0.012,0.384-0.036,0.504L211.691,17.796z M214.776,17.04
				c0.012-0.66-0.276-1.716-1.452-1.716c-1.08,0-1.536,0.984-1.62,1.716H214.776z"/>
			<path fill="#FF0000" d="M221.196,19.128c0,0.504,0.024,0.996,0.084,1.392h-0.948l-0.096-0.732H220.2
				c-0.312,0.456-0.948,0.864-1.776,0.864c-1.176,0-1.776-0.828-1.776-1.668c0-1.404,1.248-2.172,3.492-2.16v-0.12
				c0-0.48-0.132-1.356-1.32-1.344c-0.552,0-1.116,0.156-1.524,0.432l-0.24-0.708c0.48-0.3,1.188-0.504,1.92-0.504
				c1.788,0,2.22,1.212,2.22,2.376V19.128z M220.164,17.556c-1.152-0.024-2.46,0.18-2.46,1.308c0,0.696,0.456,1.008,0.984,1.008
				c0.768,0,1.26-0.48,1.428-0.972c0.036-0.108,0.048-0.228,0.048-0.336V17.556z"/>
			<path fill="#FF0000" d="M222.744,19.452c0.324,0.192,0.876,0.408,1.404,0.408c0.756,0,1.116-0.372,1.116-0.864
				c0-0.504-0.3-0.78-1.068-1.068c-1.056-0.384-1.548-0.948-1.548-1.644c0-0.936,0.768-1.704,2.004-1.704
				c0.588,0,1.104,0.156,1.416,0.36l-0.252,0.756c-0.228-0.132-0.648-0.336-1.188-0.336c-0.624,0-0.96,0.36-0.96,0.792
				c0,0.492,0.336,0.708,1.092,0.996c0.996,0.372,1.524,0.876,1.524,1.752c0,1.032-0.804,1.752-2.16,1.752
				c-0.636,0-1.224-0.168-1.632-0.408L222.744,19.452z"/>
			<path fill="#FF0000" d="M232.5,18.936c0,0.6,0.012,1.128,0.048,1.584h-0.936l-0.06-0.948h-0.024
				c-0.264,0.468-0.888,1.08-1.92,1.08c-0.912,0-2.004-0.516-2.004-2.544v-3.396h1.056v3.204c0,1.104,0.348,1.86,1.296,1.86
				c0.708,0,1.2-0.492,1.392-0.972c0.06-0.144,0.096-0.336,0.096-0.54v-3.552h1.056V18.936z"/>
			<path fill="#FF0000" d="M234.263,16.524c0-0.684-0.012-1.272-0.048-1.812h0.924l0.048,1.14h0.036
				c0.265-0.78,0.912-1.272,1.62-1.272c0.108,0,0.192,0.012,0.288,0.036V15.6c-0.12-0.012-0.228-0.024-0.372-0.024
				c-0.744,0-1.271,0.564-1.416,1.344c-0.023,0.156-0.036,0.324-0.036,0.504v3.096h-1.056L234.263,16.524z"/>
			<path fill="#FF0000" d="M238.704,17.796c0.023,1.428,0.924,2.016,1.979,2.016c0.756,0,1.225-0.132,1.608-0.288l0.191,0.744
				c-0.371,0.168-1.02,0.372-1.943,0.372c-1.776,0-2.856-1.188-2.856-2.928c0-1.764,1.044-3.144,2.736-3.144
				c1.896,0,2.388,1.668,2.388,2.736c0,0.216-0.012,0.384-0.036,0.504L238.704,17.796z M241.788,17.04
				c0.012-0.66-0.276-1.716-1.452-1.716c-1.08,0-1.536,0.984-1.62,1.716H241.788z"/>
		</g>
		<g>
			<path fill="#FF0000" d="M172.924,47.552c0.528-0.108,1.296-0.18,2.004-0.18c1.116,0,1.848,0.216,2.352,0.672
				c0.396,0.348,0.636,0.9,0.636,1.536c0,1.056-0.684,1.764-1.524,2.052v0.036c0.612,0.216,0.984,0.792,1.188,1.632
				c0.264,1.128,0.456,1.908,0.612,2.22h-1.08c-0.132-0.228-0.312-0.924-0.528-1.932c-0.24-1.116-0.684-1.536-1.632-1.572h-0.984
				v3.504h-1.044V47.552z M173.968,51.224h1.068c1.116,0,1.824-0.612,1.824-1.536c0-1.044-0.756-1.5-1.86-1.5
				c-0.504,0-0.852,0.048-1.032,0.096V51.224z"/>
			<path fill="#FF0000" d="M179.98,52.796c0.024,1.428,0.924,2.016,1.98,2.016c0.756,0,1.224-0.132,1.608-0.288l0.192,0.744
				c-0.372,0.168-1.02,0.372-1.944,0.372c-1.776,0-2.856-1.188-2.856-2.928c0-1.764,1.044-3.144,2.736-3.144
				c1.896,0,2.388,1.668,2.388,2.736c0,0.216-0.012,0.384-0.036,0.504L179.98,52.796z M183.064,52.04
				c0.012-0.66-0.276-1.716-1.452-1.716c-1.08,0-1.536,0.984-1.62,1.716H183.064z"/>
			<path fill="#FF0000" d="M185.248,54.452c0.324,0.192,0.876,0.408,1.404,0.408c0.756,0,1.116-0.372,1.116-0.864
				c0-0.504-0.3-0.78-1.068-1.068c-1.056-0.384-1.548-0.948-1.548-1.644c0-0.936,0.768-1.704,2.004-1.704
				c0.588,0,1.104,0.156,1.416,0.36l-0.252,0.756c-0.228-0.132-0.648-0.336-1.188-0.336c-0.624,0-0.96,0.36-0.96,0.792
				c0,0.492,0.336,0.708,1.092,0.996c0.996,0.372,1.524,0.876,1.524,1.752c0,1.032-0.804,1.752-2.16,1.752
				c-0.636,0-1.224-0.168-1.632-0.408L185.248,54.452z"/>
			<path fill="#FF0000" d="M191.416,48.32v1.392h1.512v0.804h-1.512v3.132c0,0.72,0.204,1.128,0.792,1.128
				c0.288,0,0.456-0.024,0.612-0.072l0.048,0.804c-0.204,0.072-0.528,0.144-0.936,0.144c-0.492,0-0.888-0.168-1.14-0.444
				c-0.288-0.324-0.408-0.84-0.408-1.524v-3.168h-0.9v-0.804h0.9v-1.068L191.416,48.32z"/>
			<path fill="#FF0000" d="M193.972,54.452c0.324,0.192,0.876,0.408,1.404,0.408c0.756,0,1.116-0.372,1.116-0.864
				c0-0.504-0.3-0.78-1.068-1.068c-1.056-0.384-1.548-0.948-1.548-1.644c0-0.936,0.768-1.704,2.004-1.704
				c0.588,0,1.104,0.156,1.416,0.36l-0.252,0.756c-0.228-0.132-0.648-0.336-1.188-0.336c-0.624,0-0.96,0.36-0.96,0.792
				c0,0.492,0.336,0.708,1.092,0.996c0.996,0.372,1.524,0.876,1.524,1.752c0,1.032-0.804,1.752-2.16,1.752
				c-0.636,0-1.224-0.168-1.632-0.408L193.972,54.452z"/>
		</g>
		<g>
			<path d="M44.004,84.16v1.584c0,0.96,1.128,0.936,1.128,0.936v0.624h-5.208V86.68c0,0,1.176,0.048,1.152-0.888V84.16h-4.44
				l-0.432-0.456c2.904-3.912,2.928-4.632,3.624-8.184h4.152c-0.984,1.824-4.296,5.256-6.624,7.968h3.72v-2.952l2.928-3.216v6.168
				h1.728v0.672H44.004z"/>
		</g>
		<path fill="none" stroke="#000000" d="M262.381,58.835v29.746"/>
		<path fill="none" stroke="#000000" d="M370.381,58.501v29.746"/>
		<g>
			<path fill="#FF0000" d="M30.888,25.821l-0.84,2.544h-1.08l2.748-8.088h1.26l2.76,8.088H34.62l-0.864-2.544H30.888z M33.54,25.005
				l-0.804-2.328c-0.168-0.528-0.288-1.008-0.408-1.476h-0.036c-0.108,0.468-0.24,0.972-0.396,1.464l-0.792,2.34H33.54z"/>
			<path fill="#FF0000" d="M36.852,19.845h1.056v8.52h-1.056V19.845z"/>
			<path fill="#FF0000" d="M39.66,19.845h1.056v8.52H39.66V19.845z"/>
			<path fill="#FF0000" d="M43.067,25.641c0.024,1.428,0.924,2.016,1.98,2.016c0.756,0,1.224-0.132,1.608-0.288l0.192,0.744
				c-0.372,0.168-1.02,0.372-1.944,0.372c-1.776,0-2.856-1.188-2.856-2.928c0-1.764,1.044-3.144,2.736-3.144
				c1.896,0,2.388,1.668,2.388,2.736c0,0.216-0.012,0.384-0.036,0.504L43.067,25.641z M46.151,24.885
				c0.012-0.66-0.276-1.716-1.452-1.716c-1.08,0-1.536,0.984-1.62,1.716H46.151z"/>
			<path fill="#FF0000" d="M53.447,27.513c0,1.344-0.276,2.148-0.828,2.664c-0.576,0.516-1.392,0.696-2.124,0.696
				c-0.696,0-1.464-0.168-1.932-0.48l0.264-0.816c0.384,0.252,0.984,0.468,1.704,0.468c1.08,0,1.872-0.564,1.872-2.04v-0.636h-0.024
				c-0.312,0.54-0.948,0.972-1.848,0.972c-1.44,0-2.472-1.224-2.472-2.844c0-1.968,1.284-3.072,2.628-3.072
				c1.008,0,1.548,0.516,1.812,0.996h0.024l0.036-0.864h0.936c-0.036,0.408-0.048,0.876-0.048,1.584V27.513z M52.391,24.837
				c0-0.168-0.012-0.324-0.06-0.468c-0.192-0.624-0.696-1.128-1.476-1.128c-1.008,0-1.728,0.852-1.728,2.208
				c0,1.128,0.588,2.088,1.716,2.088c0.66,0,1.248-0.408,1.464-1.092c0.06-0.168,0.084-0.372,0.084-0.564V24.837z"/>
			<path fill="#FF0000" d="M55.199,24.369c0-0.684-0.012-1.272-0.048-1.812h0.924l0.048,1.14h0.036
				c0.264-0.78,0.912-1.272,1.62-1.272c0.108,0,0.192,0.012,0.288,0.036v0.984c-0.12-0.012-0.228-0.024-0.372-0.024
				c-0.744,0-1.272,0.564-1.416,1.344c-0.024,0.156-0.036,0.324-0.036,0.504v3.096h-1.056L55.199,24.369z"/>
			<path fill="#FF0000" d="M61.403,28.497c-1.56,0-2.784-1.152-2.784-2.988c0-1.944,1.284-3.084,2.88-3.084
				c1.668,0,2.796,1.212,2.796,2.976c0,2.16-1.5,3.096-2.88,3.096H61.403z M61.439,27.705c1.008,0,1.764-0.948,1.764-2.268
				c0-0.984-0.492-2.22-1.74-2.22c-1.236,0-1.776,1.152-1.776,2.256c0,1.272,0.72,2.232,1.74,2.232H61.439z"/>
			<path fill="#FF0000" d="M41.867,38.821v-0.72h6.192v0.72H41.867z M41.867,41.173v-0.72h6.192v0.72H41.867z"/>
			<path fill="#FF0000" d="M53.915,36.049h-0.024l-1.356,0.732l-0.204-0.804l1.704-0.912h0.9v7.8h-1.02V36.049z"/>
			<path fill="#FF0000" d="M57.778,42.865v-0.648l0.828-0.804c1.992-1.896,2.904-2.904,2.904-4.08c0-0.792-0.372-1.524-1.536-1.524
				c-0.708,0-1.296,0.36-1.656,0.66l-0.336-0.744c0.528-0.444,1.308-0.792,2.208-0.792c1.668,0,2.376,1.152,2.376,2.268
				c0,1.44-1.044,2.604-2.688,4.188l-0.612,0.576v0.024h3.492v0.876H57.778z"/>
			<path fill="#FF0000" d="M66.418,42.997c-1.524,0-2.568-1.428-2.592-4.008c0-2.628,1.14-4.056,2.724-4.056
				c1.632,0,2.58,1.464,2.58,3.948c0,2.652-0.996,4.116-2.7,4.116H66.418z M66.466,42.181c1.068,0,1.584-1.26,1.584-3.252
				c0-1.92-0.48-3.18-1.584-3.18c-0.96,0-1.584,1.224-1.584,3.18c-0.024,2.028,0.6,3.252,1.572,3.252H66.466z"/>
		</g>
		<g>
			<path fill="#FF0000" d="M236.145,103.132c0.357,0,0.567,0.042,0.715,0.147c0.524,0.357,0.672,0.462,0.902,1.092
				c0.273-0.357,0.378-0.42,0.693-0.672c0.398-0.273,1.029-0.546,1.638-0.546c0.987,0,1.365,0.63,1.554,1.869
				c0,0.105-0.063,1.26-0.482,1.995c-0.672,1.218-1.827,2.415-3.129,2.352c-0.504,0-0.714-0.168-1.008-0.336
				s-0.357-0.294-0.609-0.546l-1.386,3.381l1.47,0.126v0.399h-5.481v-0.399l1.806-0.126c0,0,2.897-6.762,3.107-7.329
				c0.105-0.273-0.063-0.693-0.398-0.693c-0.378,0-0.924,0.546-1.302,1.029c-0.378,0.525-0.588,1.008-0.798,1.302
				c-0.042,0.042-0.189-0.021-0.252-0.042C234.213,103.951,235.095,103.111,236.145,103.132z M239.463,103.951
				c-0.756,0-1.596,0.924-1.89,1.659c-0.105,0.252-0.252,0.609-0.378,0.987c-0.126,0.357-0.231,0.735-0.231,1.029
				c0,0.147,0.231,0.987,0.735,0.987c0.966,0,2.205-3.591,2.226-4.095C239.925,104.056,239.779,103.951,239.463,103.951z"/>
		</g>
		<g>
			<path fill="#0A50A1" d="M325.692,52.881l7.224-2.688l-7.224-2.688v-0.96l9.527,3.648l-9.527,3.648V52.881z"/>
		</g>
		<g>
			<path fill="none" stroke="#FF0000" d="M267.412,105.429l88.512-3.129"/>
			<path fill="none" stroke="#FF0000" d="M267.667,105.865l88,3"/>
		</g>
		<path fill="#FF0000" stroke="#FF0000" stroke-miterlimit="1" d="M105.174,70.186h-8.513v-3.142h8.513V70.186z"/>
		<g>
			<path d="M277.635,66.697c2.04,0.024,3.145,1.416,2.521,3.12c-0.624,1.728-2.784,3.096-4.8,3.072
				c-0.984-0.024-1.776-0.384-2.232-0.936v19.08h-0.456c0-24.216,0-20.4,0-20.4c0-0.288,0.072-0.576,0.192-0.888
				C273.484,68.017,275.62,66.673,277.635,66.697z"/>
		</g>
		<g>
			<path d="M238.231,77.697c0.983,0,1.775,0.36,2.231,0.912V59.385h0.456v20.4c0,0.336-0.048,0.672-0.168,1.056
				c-0.648,1.704-2.784,3.072-4.8,3.048c-2.017-0.024-3.144-1.44-2.52-3.144C234.054,79.041,236.214,77.673,238.231,77.697z"/>
		</g>
		<g>
			<path fill="none" stroke="#FF0000" d="M207.842,64.074l2.958,2.637"/>
			<path fill="none" stroke="#FF0000" stroke-width="4" d="M207.129,72.716l4.538-5.852"/>
			<path fill="none" stroke="#FF0000" d="M206.792,72.042l5.313,3.841"/>
			<path fill="none" stroke="#FF0000" d="M209.961,81.074l-2.493-3.285"/>
			<g>
				<g>
					<path fill="none" d="M211.907,76.124c-1.479-0.457-3.168-0.31-4.22,1.15"/>
					<path fill="#FF0000" d="M212.251,75.193c-2.035-0.583-4.035-0.217-5.377,1.512c-0.787,1.013,0.843,2.146,1.625,1.138
						c0.762-0.981,1.924-1.114,3.063-0.788C212.788,77.405,213.482,75.545,212.251,75.193z"/>
				</g>
			</g>
		</g>
		<path fill="#FF0000" stroke="#FF0000" stroke-miterlimit="1" d="M181.174,74.186h-8.513v-3.142h8.513V74.186z"/>
		<g>
			<path d="M304.635,63.697c2.04,0.024,3.145,1.416,2.521,3.12c-0.624,1.728-2.784,3.096-4.8,3.072
				c-0.984-0.024-1.776-0.384-2.232-0.936v19.08h-0.456c0-24.216,0-20.4,0-20.4c0-0.288,0.072-0.576,0.192-0.888
				C300.484,65.017,302.62,63.673,304.635,63.697z"/>
		</g>
		<g>
			<path d="M328.635,59.697c2.04,0.024,3.145,1.416,2.521,3.12c-0.624,1.728-2.784,3.096-4.8,3.072
				c-0.984-0.024-1.776-0.384-2.232-0.936v19.08h-0.456c0-24.216,0-20.4,0-20.4c0-0.288,0.072-0.576,0.192-0.888
				C324.484,61.017,326.62,59.673,328.635,59.697z"/>
		</g>
		<g>
			<path d="M354.635,56.697c2.04,0.024,3.145,1.416,2.521,3.12c-0.624,1.728-2.784,3.096-4.8,3.072
				c-0.984-0.024-1.776-0.384-2.232-0.936v19.08h-0.456c0-24.216,0-20.4,0-20.4c0-0.288,0.072-0.576,0.192-0.888
				C350.484,58.017,352.62,56.673,354.635,56.697z"/>
		</g>
		<g>
			<path fill="#0A50A1" d="M348.692,50.881l7.224-2.688l-7.224-2.688v-0.96l9.527,3.648l-9.527,3.648V50.881z"/>
		</g>
		<g>
			<path fill="#FF0000" d="M36.826,40.895c0.554,0,0.999,0.203,1.255,0.513V30.595h0.257V42.07c0,0.189-0.027,0.378-0.095,0.594
				c-0.364,0.958-1.566,1.728-2.7,1.715c-1.134-0.014-1.769-0.81-1.417-1.769C34.477,41.651,35.692,40.882,36.826,40.895z"/>
		</g>
		<g>
			<path d="M245.612,34.438c-2.07,0-5.213,0.199-9.43,0.6c-3.582,0.35-6.684,0.525-9.309,0.525c-4.217,0-8.246-0.633-12.086-1.898
				s-6.734-2.994-8.684-5.188c-1.949,2.193-4.766,3.922-8.447,5.188c-3.68,1.266-7.729,1.898-12.146,1.898
				c-2.586,0-5.691-0.176-9.313-0.525c-4.178-0.4-7.303-0.6-9.373-0.6c-7.201,0-11.916,1.75-14.146,5.25h-2.086
				c0.719-2.52,3.348-4.627,7.889-6.326c4.543-1.699,9.641-2.549,15.297-2.549c2.711,0,5.818,0.17,9.322,0.514
				c4.184,0.406,7.232,0.611,9.145,0.611c3.027,0,5.797-0.484,8.307-1.451s4.023-2.275,4.541-3.924h2.25
				c0.559,1.633,2.063,2.938,4.512,3.912c2.451,0.975,5.23,1.463,8.336,1.463c1.914,0,4.961-0.205,9.145-0.611
				c3.504-0.344,6.592-0.514,9.262-0.514c5.736,0,10.855,0.85,15.359,2.549c4.5,1.699,7.129,3.807,7.887,6.326h-2.086
				C257.528,36.188,252.813,34.438,245.612,34.438z"/>
		</g>
	</g>
</svg>
