<?xml version="1.0" encoding="utf-8"?>
<!-- Generator: Adobe Illustrator 10.0, SVG Export Plug-In . SVG Version: 3.0.0 Build 76)  -->
<!DOCTYPE svg PUBLIC "-//W3C//DTD SVG 1.0//EN"    "http://www.w3.org/TR/2001/REC-SVG-20010904/DTD/svg10.dtd" [
	<!ENTITY ns_flows "http://ns.adobe.com/Flows/1.0/">
	<!ENTITY ns_extend "http://ns.adobe.com/Extensibility/1.0/">
	<!ENTITY ns_ai "http://ns.adobe.com/AdobeIllustrator/10.0/">
	<!ENTITY ns_svg "http://www.w3.org/2000/svg">
	<!ENTITY ns_xlink "http://www.w3.org/1999/xlink">
]>
<svg  xmlns:x="&ns_extend;" xmlns:i="&ns_ai;" xmlns:graph="&ns_graphs;"
	 xmlns="&ns_svg;" xmlns:xlink="&ns_xlink;" xmlns:a="http://ns.adobe.com/AdobeSVGViewerExtensions/3.0/" width="481" height="106"
	 viewBox="-0.432 0.232 481 106" overflow="visible" enable-background="new -0.432 0.232 481 106" xml:space="preserve">
	<g id="Layer_1_2_">
		<g>
			<path fill="none" stroke="#000000" d="M18.478,23.397h407.116"/>
			<path fill="none" stroke="#000000" d="M18.478,37.509h407.116"/>
			<path fill="none" stroke="#000000" d="M18.68,44.632h407.117"/>
			<path fill="none" stroke="#000000" d="M18.368,52.016h407.116"/>
			<path fill="none" stroke="#000000" d="M18.368,30.651h407.116"/>
		</g>
		<path fill="none" stroke="#FF0000" d="M200.269,22.547v29.746"/>
		<g>
			<path fill="#FF0000" d="M90.56,32.872v1.584c0,0.96,1.128,0.936,1.128,0.936v0.624H86.48v-0.624c0,0,1.176,0.048,1.152-0.888
				v-1.632h-4.44l-0.432-0.456c2.904-3.912,2.928-4.632,3.624-8.184h4.152c-0.984,1.824-4.296,5.256-6.624,7.968h3.72v-2.952
				l2.928-3.216V32.2h1.728v0.672H90.56z"/>
		</g>
		<g>
			<path fill="#0A50A1" d="M47.6,20.488v-3.912h0.696v3.672l2.352-0.768v-3.504h0.696v3.288l0.936-0.312v2.496l-0.936,0.312v3.552
				l0.936-0.288v2.472l-0.936,0.312v3.912h-0.696v-3.696l-2.352,0.768v3.552H47.6v-3.312l-1.032,0.336v-2.496l1.032-0.336V22.96
				l-1.032,0.336v-2.472L47.6,20.488z M48.296,22.744v3.576l2.352-0.768v-3.576L48.296,22.744z"/>
		</g>
		<g>
			<path fill="#FF0000" d="M27.52,50.92c-4.944-2.352-5.736-5.376-5.952-8.472c-0.24-3.36,1.896-6.768,3.888-8.664
				c1.152-1.08,2.4-2.136,3.888-3.264c-0.048-0.84-0.24-1.176-0.336-2.376c-0.024-0.504-0.336-2.856,0.168-5.568
				c0.312-1.608,2.328-5.4,3.72-5.424c1.08-0.024,2.736,4.296,2.784,6.456c0.072,3.336-0.72,4.848-1.704,6.576
				c-0.504,0.864-1.032,1.464-1.584,2.136c-0.576,0.696-1.224,1.104-1.824,1.632c0,0,0.768,4.344,0.792,4.656
				c1.536-0.192,3.408,0.36,4.08,0.84c1.704,1.272,2.352,3.024,2.472,4.728c0.216,2.712-1.272,5.568-4.56,6.936
				c0,0,0.504,3.456,0.624,4.176c0.264,1.896,0.216,3.096-0.192,3.864c-0.696,1.296-1.824,2.496-4.008,2.64
				c-1.68,0.096-4.992-0.744-5.16-3.384c-0.096-1.56,0.6-3.24,2.496-3.36c1.152-0.096,2.52,0.864,2.616,2.232
				c0.096,1.176-0.672,2.4-2.664,2.952c0.312,0.432,1.248,0.936,2.592,0.936c1.392,0,2.832-0.936,3.528-2.184
				c0.432-0.816,0.384-2.28,0.216-3.624c-0.072-0.456-0.648-4.08-0.648-4.08C30.976,51.568,28.528,51.4,27.52,50.92z M28,45.232
				c0.048,1.152,1.008,2.496,1.896,2.952c-0.12,0.072-0.24,0.264-0.24,0.264c-0.984-0.48-1.824-1.272-2.04-1.56
				c-0.696-0.936-0.984-1.464-1.08-2.88c-0.096-1.32,0.624-3.096,2.232-4.344c0.84-0.624,1.248-0.768,1.968-0.936l-0.72-4.344
				c-0.744,0.432-3.816,2.904-5.112,4.92c-1.152,1.8-1.848,3.24-1.704,5.016c0.288,4.008,4.68,7.296,9.432,6.168
				c0,0-1.416-8.52-1.392-8.52C28.624,42.064,27.928,44.08,28,45.232z M29.944,30.016c2.088-1.632,4.92-4.704,4.752-7.08
				c-0.048-0.744-0.36-2.088-1.44-2.064C30.784,20.896,29.392,26.056,29.944,30.016z M33.208,50.296
				c2.76-0.936,2.88-3.312,2.784-4.728c-0.096-1.176-0.624-3.816-4.128-3.648L33.208,50.296z"/>
		</g>
		<g>
			<path fill="#0A50A1" d="M147.272,38.016c2.664,0.024,5.184,1.032,5.376,3.264c0.144,1.632-2.016,3.12-4.68,3.12
				c-2.688-0.024-5.184-1.008-5.4-3.24C142.424,39.504,144.608,38.016,147.272,38.016z M147.92,43.848
				c1.152,0,1.896-1.104,1.776-1.992c-0.264-1.752-0.864-3.168-2.448-3.168c-1.152,0-1.824,1.128-1.68,2.016
				C145.832,42.456,146.336,43.848,147.92,43.848z"/>
		</g>
		<g>
			<path fill="none" stroke="#0A50A1" d="M357.568,14.232h12"/>
			<path fill="none" stroke="#0A50A1" d="M357.234,7.232h12"/>
		</g>
		<g>
			<path fill="#0A50A1" d="M32.48,0.144h1.044v3.9h0.036c0.216-0.312,0.432-0.6,0.636-0.864l2.472-3.036h1.296l-2.928,3.432
				l3.156,4.656h-1.236L34.304,4.26l-0.78,0.888v3.084H32.48V0.144z"/>
			<path fill="#0A50A1" d="M39.548,5.508c0.024,1.428,0.924,2.016,1.98,2.016c0.756,0,1.224-0.132,1.608-0.288l0.192,0.744
				c-0.372,0.168-1.02,0.372-1.944,0.372c-1.776,0-2.856-1.188-2.856-2.928c0-1.764,1.044-3.144,2.736-3.144
				c1.896,0,2.388,1.668,2.388,2.736c0,0.216-0.012,0.384-0.036,0.504L39.548,5.508z M42.632,4.752
				c0.012-0.66-0.276-1.716-1.452-1.716c-1.08,0-1.536,0.984-1.62,1.716H42.632z"/>
			<path fill="#0A50A1" d="M45.32,2.424l1.26,3.432c0.144,0.384,0.288,0.84,0.384,1.188h0.024c0.108-0.348,0.228-0.792,0.372-1.212
				l1.152-3.408h1.116l-1.584,4.14c-0.756,1.992-1.272,3.012-1.992,3.648c-0.528,0.444-1.032,0.624-1.296,0.672l-0.264-0.888
				c0.264-0.072,0.612-0.24,0.924-0.516c0.288-0.228,0.636-0.636,0.888-1.176c0.048-0.108,0.084-0.18,0.084-0.252
				c0-0.06-0.024-0.144-0.084-0.264l-2.136-5.364H45.32z"/>
			<path fill="#0A50A1" d="M53.036,6.96c0.468,0.3,1.14,0.528,1.86,0.528c1.068,0,1.692-0.552,1.692-1.38
				c0-0.744-0.432-1.188-1.524-1.596c-1.32-0.48-2.136-1.176-2.136-2.304c0-1.26,1.044-2.196,2.616-2.196
				c0.816,0,1.428,0.192,1.776,0.396L57.032,1.26c-0.252-0.156-0.792-0.384-1.524-0.384c-1.104,0-1.524,0.66-1.524,1.212
				c0,0.756,0.492,1.128,1.608,1.56c1.368,0.54,2.052,1.188,2.052,2.376c0,1.248-0.912,2.34-2.82,2.34
				c-0.78,0-1.632-0.24-2.064-0.528L53.036,6.96z"/>
			<path fill="#0A50A1" d="M59.54,1.356c-0.396,0-0.66-0.312-0.66-0.684S59.156,0,59.563,0c0.408,0,0.672,0.3,0.672,0.672
				s-0.264,0.684-0.684,0.684H59.54z M59.036,8.232V2.424h1.056v5.808H59.036z"/>
			<path fill="#0A50A1" d="M66.812,7.38c0,1.344-0.276,2.148-0.828,2.664c-0.576,0.516-1.392,0.696-2.124,0.696
				c-0.696,0-1.464-0.168-1.932-0.48l0.264-0.816c0.384,0.252,0.984,0.468,1.704,0.468c1.08,0,1.872-0.564,1.872-2.04V7.236h-0.024
				c-0.312,0.54-0.948,0.972-1.848,0.972c-1.44,0-2.472-1.224-2.472-2.844c0-1.968,1.284-3.072,2.628-3.072
				c1.008,0,1.548,0.516,1.812,0.996h0.024l0.036-0.864h0.936c-0.036,0.408-0.048,0.876-0.048,1.584V7.38z M65.755,4.704
				c0-0.168-0.012-0.324-0.06-0.468C65.503,3.612,65,3.108,64.219,3.108c-1.008,0-1.728,0.852-1.728,2.208
				c0,1.128,0.588,2.088,1.716,2.088c0.66,0,1.248-0.408,1.464-1.092c0.06-0.168,0.084-0.372,0.084-0.564V4.704z"/>
			<path fill="#0A50A1" d="M68.551,3.996c0-0.612-0.012-1.092-0.048-1.572h0.936l0.06,0.948h0.024c0.288-0.54,0.96-1.08,1.92-1.08
				c0.804,0,2.052,0.48,2.052,2.472v3.468h-1.056V4.884c0-0.936-0.348-1.728-1.344-1.728c-0.684,0-1.224,0.492-1.416,1.08
				c-0.048,0.132-0.072,0.324-0.072,0.492v3.504h-1.056V3.996z"/>
			<path fill="#0A50A1" d="M79.303,6.84c0,0.504,0.024,0.996,0.084,1.392h-0.948L78.343,7.5h-0.036
				c-0.312,0.456-0.948,0.864-1.776,0.864c-1.176,0-1.776-0.828-1.776-1.668c0-1.404,1.248-2.172,3.492-2.16v-0.12
				c0-0.48-0.132-1.356-1.32-1.344c-0.552,0-1.116,0.156-1.524,0.432l-0.24-0.708c0.48-0.3,1.188-0.504,1.92-0.504
				c1.788,0,2.22,1.212,2.22,2.376V6.84z M78.271,5.268c-1.152-0.024-2.46,0.18-2.46,1.308c0,0.696,0.456,1.008,0.984,1.008
				c0.768,0,1.26-0.48,1.428-0.972c0.036-0.108,0.048-0.228,0.048-0.336V5.268z"/>
			<path fill="#0A50A1" d="M82.219,1.032v1.392h1.512v0.804h-1.512V6.36c0,0.72,0.204,1.128,0.792,1.128
				c0.288,0,0.456-0.024,0.612-0.072l0.048,0.804c-0.204,0.072-0.528,0.144-0.936,0.144c-0.492,0-0.888-0.168-1.14-0.444
				c-0.288-0.324-0.408-0.84-0.408-1.524V3.228h-0.9V2.424h0.9V1.356L82.219,1.032z"/>
			<path fill="#0A50A1" d="M89.779,6.648c0,0.6,0.012,1.128,0.048,1.584h-0.936l-0.06-0.948h-0.024
				c-0.264,0.468-0.888,1.08-1.92,1.08c-0.912,0-2.004-0.516-2.004-2.544V2.424h1.056v3.204c0,1.104,0.348,1.86,1.296,1.86
				c0.708,0,1.2-0.492,1.392-0.972c0.06-0.144,0.096-0.336,0.096-0.54V2.424h1.056V6.648z"/>
			<path fill="#0A50A1" d="M91.543,4.236c0-0.684-0.012-1.272-0.048-1.812h0.924l0.048,1.14h0.036
				c0.264-0.78,0.912-1.272,1.62-1.272c0.108,0,0.192,0.012,0.288,0.036v0.984c-0.12-0.012-0.228-0.024-0.372-0.024
				c-0.744,0-1.272,0.564-1.416,1.344c-0.024,0.156-0.036,0.324-0.036,0.504v3.096h-1.056L91.543,4.236z"/>
			<path fill="#0A50A1" d="M95.983,5.508c0.024,1.428,0.924,2.016,1.98,2.016c0.756,0,1.224-0.132,1.608-0.288l0.192,0.744
				c-0.372,0.168-1.02,0.372-1.944,0.372c-1.776,0-2.856-1.188-2.856-2.928c0-1.764,1.044-3.144,2.736-3.144
				c1.896,0,2.388,1.668,2.388,2.736c0,0.216-0.012,0.384-0.036,0.504L95.983,5.508z M99.067,4.752
				c0.012-0.66-0.276-1.716-1.452-1.716c-1.08,0-1.536,0.984-1.62,1.716H99.067z"/>
		</g>
		<g>
			<path fill="#FF0000" d="M6.12,74.98c-0.372,0.192-1.152,0.384-2.136,0.384C1.704,75.364,0,73.924,0,71.26
				c0-2.544,1.716-4.248,4.224-4.248c0.996,0,1.644,0.216,1.92,0.36L5.88,68.224c-0.384-0.192-0.948-0.336-1.62-0.336
				c-1.896,0-3.156,1.212-3.156,3.336c0,1.992,1.14,3.252,3.096,3.252c0.648,0,1.296-0.132,1.716-0.336L6.12,74.98z"/>
			<path fill="#FF0000" d="M7.368,66.712h1.056v8.52H7.368V66.712z"/>
			<path fill="#FF0000" d="M10.776,72.508c0.024,1.428,0.924,2.016,1.98,2.016c0.756,0,1.224-0.132,1.608-0.288l0.192,0.744
				c-0.372,0.168-1.02,0.372-1.944,0.372c-1.776,0-2.856-1.188-2.856-2.928c0-1.764,1.044-3.144,2.736-3.144
				c1.896,0,2.388,1.668,2.388,2.736c0,0.216-0.012,0.384-0.036,0.504L10.776,72.508z M13.86,71.752
				c0.012-0.66-0.276-1.716-1.452-1.716c-1.08,0-1.536,0.984-1.62,1.716H13.86z"/>
			<path fill="#FF0000" d="M16.284,75.232v-5.004h-0.804v-0.804h0.804v-0.276c0-0.816,0.192-1.56,0.684-2.028
				c0.396-0.384,0.924-0.54,1.404-0.54c0.384,0,0.696,0.084,0.9,0.168l-0.132,0.816c-0.168-0.072-0.372-0.132-0.684-0.132
				c-0.888,0-1.128,0.792-1.128,1.68v0.312h1.404v0.804H17.34v5.004H16.284z"/>
			<path fill="#FF0000" d="M22.14,73.96c0.468,0.3,1.14,0.528,1.86,0.528c1.068,0,1.692-0.552,1.692-1.38
				c0-0.744-0.432-1.188-1.524-1.596c-1.32-0.48-2.136-1.176-2.136-2.304c0-1.26,1.044-2.196,2.616-2.196
				c0.816,0,1.428,0.192,1.776,0.396l-0.288,0.852c-0.252-0.156-0.792-0.384-1.524-0.384c-1.104,0-1.524,0.66-1.524,1.212
				c0,0.756,0.492,1.128,1.608,1.56c1.368,0.54,2.052,1.188,2.052,2.376c0,1.248-0.912,2.34-2.82,2.34
				c-0.78,0-1.632-0.24-2.064-0.528L22.14,73.96z"/>
			<path fill="#FF0000" d="M28.439,69.424l1.26,3.432c0.144,0.384,0.288,0.84,0.384,1.188h0.024
				c0.108-0.348,0.228-0.792,0.372-1.212l1.152-3.408h1.116l-1.584,4.14c-0.756,1.992-1.272,3.012-1.992,3.648
				c-0.528,0.444-1.032,0.624-1.296,0.672l-0.264-0.888c0.264-0.072,0.612-0.24,0.924-0.516c0.288-0.228,0.636-0.636,0.888-1.176
				c0.048-0.108,0.084-0.18,0.084-0.252c0-0.06-0.024-0.144-0.084-0.264l-2.136-5.364H28.439z"/>
			<path fill="#FF0000" d="M33.708,70.996c0-0.612-0.024-1.092-0.048-1.572h0.924l0.048,0.936h0.036
				c0.324-0.552,0.864-1.068,1.836-1.068c0.78,0,1.38,0.48,1.632,1.164h0.024c0.18-0.336,0.42-0.576,0.66-0.756
				c0.348-0.264,0.72-0.408,1.272-0.408c0.78,0,1.92,0.504,1.92,2.52v3.42h-1.032v-3.288c0-1.128-0.42-1.788-1.26-1.788
				c-0.612,0-1.068,0.444-1.26,0.948c-0.048,0.156-0.084,0.348-0.084,0.528v3.6h-1.032v-3.48c0-0.936-0.408-1.596-1.212-1.596
				c-0.648,0-1.14,0.528-1.308,1.056c-0.06,0.156-0.084,0.336-0.084,0.516v3.504h-1.032V70.996z"/>
			<path fill="#FF0000" d="M43.715,66.712h1.056v3.636h0.024c0.372-0.648,1.044-1.056,1.98-1.056c1.44,0,2.448,1.2,2.448,2.952
				c0,2.088-1.32,3.12-2.616,3.12c-0.84,0-1.5-0.324-1.944-1.092h-0.024l-0.06,0.96h-0.912c0.036-0.396,0.048-0.984,0.048-1.5
				V66.712z M44.771,72.904c0,0.132,0.012,0.264,0.036,0.384c0.204,0.732,0.828,1.236,1.584,1.236c1.116,0,1.764-0.9,1.764-2.232
				c0-1.176-0.6-2.172-1.728-2.172c-0.72,0-1.392,0.504-1.596,1.296c-0.036,0.132-0.06,0.276-0.06,0.444V72.904z"/>
			<path fill="#FF0000" d="M52.919,75.364c-1.56,0-2.784-1.152-2.784-2.988c0-1.944,1.284-3.084,2.88-3.084
				c1.668,0,2.796,1.212,2.796,2.976c0,2.16-1.5,3.096-2.88,3.096H52.919z M52.955,74.572c1.008,0,1.764-0.948,1.764-2.268
				c0-0.984-0.492-2.22-1.74-2.22c-1.236,0-1.776,1.152-1.776,2.256c0,1.272,0.72,2.232,1.74,2.232H52.955z"/>
			<path fill="#FF0000" d="M57.143,66.712h1.056v8.52h-1.056V66.712z"/>
		</g>
		<g>
			<path fill="#FF0000" d="M69.016,58.032h-2.46v-0.888h5.988v0.888h-2.472v7.2h-1.056V58.032z"/>
			<path fill="#FF0000" d="M73.96,58.356c-0.396,0-0.66-0.312-0.66-0.684S73.576,57,73.984,57c0.408,0,0.672,0.3,0.672,0.672
				s-0.264,0.684-0.684,0.684H73.96z M73.456,65.232v-5.808h1.056v5.808H73.456z"/>
			<path fill="#FF0000" d="M76.264,60.996c0-0.612-0.024-1.092-0.048-1.572h0.924l0.048,0.936h0.036
				c0.324-0.552,0.864-1.068,1.836-1.068c0.78,0,1.38,0.48,1.632,1.164h0.024c0.18-0.336,0.42-0.576,0.66-0.756
				c0.348-0.264,0.72-0.408,1.272-0.408c0.78,0,1.92,0.504,1.92,2.52v3.42h-1.032v-3.288c0-1.128-0.42-1.788-1.26-1.788
				c-0.612,0-1.068,0.444-1.26,0.948c-0.048,0.156-0.084,0.348-0.084,0.528v3.6H79.9v-3.48c0-0.936-0.408-1.596-1.212-1.596
				c-0.648,0-1.14,0.528-1.308,1.056c-0.06,0.156-0.084,0.336-0.084,0.516v3.504h-1.032V60.996z"/>
			<path fill="#FF0000" d="M86.872,62.508c0.024,1.428,0.924,2.016,1.98,2.016c0.756,0,1.224-0.132,1.608-0.288l0.192,0.744
				c-0.372,0.168-1.02,0.372-1.944,0.372c-1.776,0-2.856-1.188-2.856-2.928c0-1.764,1.044-3.144,2.736-3.144
				c1.896,0,2.388,1.668,2.388,2.736c0,0.216-0.012,0.384-0.036,0.504L86.872,62.508z M89.956,61.752
				c0.012-0.66-0.276-1.716-1.452-1.716c-1.08,0-1.536,0.984-1.62,1.716H89.956z"/>
			<path fill="#FF0000" d="M94.731,63.96c0.468,0.3,1.14,0.528,1.86,0.528c1.068,0,1.692-0.552,1.692-1.38
				c0-0.744-0.432-1.188-1.524-1.596c-1.32-0.48-2.136-1.176-2.136-2.304c0-1.26,1.044-2.196,2.616-2.196
				c0.816,0,1.428,0.192,1.776,0.396l-0.288,0.852c-0.252-0.156-0.792-0.384-1.524-0.384c-1.104,0-1.524,0.66-1.524,1.212
				c0,0.756,0.492,1.128,1.608,1.56c1.368,0.54,2.052,1.188,2.052,2.376c0,1.248-0.912,2.34-2.82,2.34
				c-0.78,0-1.632-0.24-2.064-0.528L94.731,63.96z"/>
			<path fill="#FF0000" d="M101.235,58.356c-0.396,0-0.66-0.312-0.66-0.684S100.852,57,101.26,57c0.408,0,0.672,0.3,0.672,0.672
				s-0.264,0.684-0.684,0.684H101.235z M100.731,65.232v-5.808h1.056v5.808H100.731z"/>
			<path fill="#FF0000" d="M108.507,64.38c0,1.344-0.276,2.148-0.828,2.664c-0.576,0.516-1.392,0.696-2.124,0.696
				c-0.696,0-1.464-0.168-1.932-0.48l0.264-0.816c0.384,0.252,0.984,0.468,1.704,0.468c1.08,0,1.872-0.564,1.872-2.04v-0.636h-0.024
				c-0.312,0.54-0.948,0.972-1.848,0.972c-1.44,0-2.472-1.224-2.472-2.844c0-1.968,1.284-3.072,2.628-3.072
				c1.008,0,1.548,0.516,1.812,0.996h0.024l0.036-0.864h0.936c-0.036,0.408-0.048,0.876-0.048,1.584V64.38z M107.452,61.704
				c0-0.168-0.012-0.324-0.06-0.468c-0.192-0.624-0.696-1.128-1.476-1.128c-1.008,0-1.728,0.852-1.728,2.208
				c0,1.128,0.588,2.088,1.716,2.088c0.66,0,1.248-0.408,1.464-1.092c0.06-0.168,0.084-0.372,0.084-0.564V61.704z"/>
			<path fill="#FF0000" d="M110.248,60.996c0-0.612-0.012-1.092-0.048-1.572h0.936l0.06,0.948h0.024c0.288-0.54,0.96-1.08,1.92-1.08
				c0.804,0,2.052,0.48,2.052,2.472v3.468h-1.056v-3.348c0-0.936-0.348-1.728-1.344-1.728c-0.684,0-1.224,0.492-1.416,1.08
				c-0.048,0.132-0.072,0.324-0.072,0.492v3.504h-1.056V60.996z"/>
			<path fill="#FF0000" d="M121,63.84c0,0.504,0.024,0.996,0.084,1.392h-0.948l-0.096-0.732h-0.036
				c-0.312,0.456-0.948,0.864-1.776,0.864c-1.176,0-1.776-0.828-1.776-1.668c0-1.404,1.248-2.172,3.492-2.16v-0.12
				c0-0.48-0.132-1.356-1.32-1.344c-0.552,0-1.116,0.156-1.524,0.432l-0.24-0.708c0.48-0.3,1.188-0.504,1.92-0.504
				c1.788,0,2.22,1.212,2.22,2.376V63.84z M119.967,62.268c-1.152-0.024-2.46,0.18-2.46,1.308c0,0.696,0.456,1.008,0.984,1.008
				c0.768,0,1.26-0.48,1.428-0.972c0.036-0.108,0.048-0.228,0.048-0.336V62.268z"/>
			<path fill="#FF0000" d="M123.915,58.032v1.392h1.512v0.804h-1.512v3.132c0,0.72,0.204,1.128,0.792,1.128
				c0.288,0,0.456-0.024,0.612-0.072l0.048,0.804c-0.204,0.072-0.528,0.144-0.936,0.144c-0.492,0-0.888-0.168-1.14-0.444
				c-0.288-0.324-0.408-0.84-0.408-1.524v-3.168h-0.9v-0.804h0.9v-1.068L123.915,58.032z"/>
			<path fill="#FF0000" d="M131.475,63.648c0,0.6,0.012,1.128,0.048,1.584h-0.936l-0.06-0.948h-0.024
				c-0.264,0.468-0.888,1.08-1.92,1.08c-0.912,0-2.004-0.516-2.004-2.544v-3.396h1.056v3.204c0,1.104,0.348,1.86,1.296,1.86
				c0.708,0,1.2-0.492,1.392-0.972c0.06-0.144,0.096-0.336,0.096-0.54v-3.552h1.056V63.648z"/>
			<path fill="#FF0000" d="M133.239,61.236c0-0.684-0.012-1.272-0.048-1.812h0.924l0.048,1.14h0.036
				c0.264-0.78,0.912-1.272,1.62-1.272c0.108,0,0.192,0.012,0.288,0.036v0.984c-0.12-0.012-0.228-0.024-0.372-0.024
				c-0.744,0-1.272,0.564-1.416,1.344c-0.024,0.156-0.036,0.324-0.036,0.504v3.096h-1.056L133.239,61.236z"/>
			<path fill="#FF0000" d="M137.679,62.508c0.024,1.428,0.924,2.016,1.98,2.016c0.756,0,1.224-0.132,1.608-0.288l0.192,0.744
				c-0.372,0.168-1.02,0.372-1.944,0.372c-1.776,0-2.856-1.188-2.856-2.928c0-1.764,1.044-3.144,2.736-3.144
				c1.896,0,2.388,1.668,2.388,2.736c0,0.216-0.012,0.384-0.036,0.504L137.679,62.508z M140.763,61.752
				c0.012-0.66-0.276-1.716-1.452-1.716c-1.08,0-1.536,0.984-1.62,1.716H140.763z"/>
		</g>
		<g>
			<path fill="#0A50A1" d="M115.48,20.232v-8.088h1.152l2.58,4.092c0.588,0.948,1.068,1.788,1.44,2.628l0.036-0.012
				c-0.096-1.08-0.12-2.064-0.12-3.312v-3.396h0.984v8.088h-1.056l-2.568-4.104c-0.564-0.9-1.104-1.824-1.5-2.7l-0.036,0.012
				c0.06,1.02,0.072,1.992,0.072,3.336v3.456H115.48z"/>
			<path fill="#0A50A1" d="M125.692,20.364c-1.56,0-2.784-1.152-2.784-2.988c0-1.944,1.284-3.084,2.88-3.084
				c1.668,0,2.796,1.212,2.796,2.976c0,2.16-1.5,3.096-2.88,3.096H125.692z M125.728,19.572c1.008,0,1.764-0.948,1.764-2.268
				c0-0.984-0.492-2.22-1.74-2.22c-1.236,0-1.776,1.152-1.776,2.256c0,1.272,0.72,2.232,1.74,2.232H125.728z"/>
			<path fill="#0A50A1" d="M131.188,13.032v1.392h1.512v0.804h-1.512v3.132c0,0.72,0.204,1.128,0.792,1.128
				c0.288,0,0.456-0.024,0.612-0.072l0.048,0.804c-0.204,0.072-0.528,0.144-0.936,0.144c-0.492,0-0.888-0.168-1.14-0.444
				c-0.288-0.324-0.408-0.84-0.408-1.524v-3.168h-0.9v-0.804h0.9v-1.068L131.188,13.032z"/>
			<path fill="#0A50A1" d="M134.416,17.508c0.024,1.428,0.924,2.016,1.98,2.016c0.756,0,1.224-0.132,1.608-0.288l0.192,0.744
				c-0.372,0.168-1.02,0.372-1.944,0.372c-1.776,0-2.856-1.188-2.856-2.928c0-1.764,1.044-3.144,2.736-3.144
				c1.896,0,2.388,1.668,2.388,2.736c0,0.216-0.012,0.384-0.036,0.504L134.416,17.508z M137.5,16.752
				c0.012-0.66-0.276-1.716-1.452-1.716c-1.08,0-1.536,0.984-1.62,1.716H137.5z"/>
			<path fill="#0A50A1" d="M142.875,13.356c-0.396,0-0.66-0.312-0.66-0.684S142.492,12,142.899,12c0.408,0,0.672,0.3,0.672,0.672
				s-0.264,0.684-0.684,0.684H142.875z M142.372,20.232v-5.808h1.056v5.808H142.372z"/>
			<path fill="#0A50A1" d="M145.18,15.996c0-0.612-0.012-1.092-0.048-1.572h0.936l0.06,0.948h0.024c0.288-0.54,0.96-1.08,1.92-1.08
				c0.804,0,2.052,0.48,2.052,2.472v3.468h-1.056v-3.348c0-0.936-0.348-1.728-1.344-1.728c-0.684,0-1.224,0.492-1.416,1.08
				c-0.048,0.132-0.072,0.324-0.072,0.492v3.504h-1.056V15.996z"/>
			<path fill="#0A50A1" d="M158.475,18.84c0,0.504,0.024,0.996,0.084,1.392h-0.948l-0.096-0.732h-0.036
				c-0.312,0.456-0.948,0.864-1.776,0.864c-1.176,0-1.776-0.828-1.776-1.668c0-1.404,1.248-2.172,3.492-2.16v-0.12
				c0-0.48-0.132-1.356-1.32-1.344c-0.552,0-1.116,0.156-1.524,0.432l-0.24-0.708c0.48-0.3,1.188-0.504,1.92-0.504
				c1.788,0,2.22,1.212,2.22,2.376V18.84z M157.443,17.268c-1.152-0.024-2.46,0.18-2.46,1.308c0,0.696,0.456,1.008,0.984,1.008
				c0.768,0,1.26-0.48,1.428-0.972c0.036-0.108,0.048-0.228,0.048-0.336V17.268z"/>
			<path fill="#0A50A1" d="M162.567,19.164c0.324,0.192,0.876,0.408,1.404,0.408c0.756,0,1.116-0.372,1.116-0.864
				c0-0.504-0.3-0.78-1.068-1.068c-1.056-0.384-1.548-0.948-1.548-1.644c0-0.936,0.768-1.704,2.004-1.704
				c0.588,0,1.104,0.156,1.416,0.36l-0.252,0.756c-0.228-0.132-0.648-0.336-1.188-0.336c-0.624,0-0.96,0.36-0.96,0.792
				c0,0.492,0.336,0.708,1.092,0.996c0.996,0.372,1.524,0.876,1.524,1.752c0,1.032-0.804,1.752-2.16,1.752
				c-0.636,0-1.224-0.168-1.632-0.408L162.567,19.164z"/>
			<path fill="#0A50A1" d="M167.463,16.32c0-0.744-0.012-1.344-0.048-1.896h0.948l0.06,0.996h0.024
				c0.42-0.72,1.116-1.128,2.052-1.128c1.416,0,2.472,1.188,2.472,2.952c0,2.088-1.284,3.12-2.64,3.12
				c-0.78,0-1.44-0.336-1.788-0.912h-0.024v3.156h-1.056V16.32z M168.519,17.868c0,0.144,0.012,0.3,0.048,0.432
				c0.18,0.732,0.828,1.236,1.572,1.236c1.116,0,1.764-0.912,1.764-2.244c0-1.164-0.6-2.16-1.716-2.16
				c-0.72,0-1.404,0.504-1.608,1.296c-0.024,0.144-0.06,0.3-0.06,0.432V17.868z"/>
			<path fill="#0A50A1" d="M178.383,18.84c0,0.504,0.024,0.996,0.084,1.392h-0.948l-0.096-0.732h-0.036
				c-0.312,0.456-0.948,0.864-1.776,0.864c-1.176,0-1.776-0.828-1.776-1.668c0-1.404,1.248-2.172,3.492-2.16v-0.12
				c0-0.48-0.132-1.356-1.32-1.344c-0.552,0-1.116,0.156-1.524,0.432l-0.24-0.708c0.48-0.3,1.188-0.504,1.92-0.504
				c1.788,0,2.22,1.212,2.22,2.376V18.84z M177.351,17.268c-1.152-0.024-2.46,0.18-2.46,1.308c0,0.696,0.456,1.008,0.984,1.008
				c0.768,0,1.26-0.48,1.428-0.972c0.036-0.108,0.048-0.228,0.048-0.336V17.268z"/>
			<path fill="#0A50A1" d="M184.215,20.028c-0.276,0.132-0.888,0.336-1.668,0.336c-1.752,0-2.892-1.188-2.892-2.976
				c0-1.788,1.224-3.096,3.12-3.096c0.624,0,1.176,0.156,1.464,0.312l-0.24,0.804c-0.252-0.132-0.648-0.276-1.224-0.276
				c-1.332,0-2.052,0.996-2.052,2.208c0,1.344,0.864,2.172,2.016,2.172c0.6,0,0.996-0.144,1.296-0.276L184.215,20.028z"/>
			<path fill="#0A50A1" d="M185.979,17.508c0.024,1.428,0.924,2.016,1.98,2.016c0.756,0,1.224-0.132,1.608-0.288l0.192,0.744
				c-0.372,0.168-1.02,0.372-1.944,0.372c-1.776,0-2.856-1.188-2.856-2.928c0-1.764,1.044-3.144,2.736-3.144
				c1.896,0,2.388,1.668,2.388,2.736c0,0.216-0.012,0.384-0.036,0.504L185.979,17.508z M189.063,16.752
				c0.012-0.66-0.276-1.716-1.452-1.716c-1.08,0-1.536,0.984-1.62,1.716H189.063z"/>
		</g>
		<g>
			<path fill="#0A50A1" d="M223.48,19.232v-8.088h1.152l2.58,4.092c0.588,0.948,1.068,1.788,1.44,2.628l0.036-0.012
				c-0.096-1.08-0.12-2.064-0.12-3.312v-3.396h0.984v8.088h-1.056l-2.568-4.104c-0.564-0.9-1.104-1.824-1.5-2.7l-0.036,0.012
				c0.06,1.02,0.072,1.992,0.072,3.336v3.456H223.48z"/>
			<path fill="#0A50A1" d="M233.692,19.364c-1.56,0-2.784-1.152-2.784-2.988c0-1.944,1.284-3.084,2.88-3.084
				c1.668,0,2.796,1.212,2.796,2.976c0,2.16-1.5,3.096-2.88,3.096H233.692z M233.728,18.572c1.008,0,1.764-0.948,1.764-2.268
				c0-0.984-0.492-2.22-1.74-2.22c-1.236,0-1.776,1.152-1.776,2.256c0,1.272,0.72,2.232,1.74,2.232H233.728z"/>
			<path fill="#0A50A1" d="M239.188,12.032v1.392h1.512v0.804h-1.512v3.132c0,0.72,0.204,1.128,0.792,1.128
				c0.288,0,0.456-0.024,0.612-0.072l0.048,0.804c-0.204,0.072-0.528,0.144-0.936,0.144c-0.492,0-0.888-0.168-1.14-0.444
				c-0.288-0.324-0.408-0.84-0.408-1.524v-3.168h-0.9v-0.804h0.9v-1.068L239.188,12.032z"/>
			<path fill="#0A50A1" d="M242.416,16.508c0.024,1.428,0.924,2.016,1.98,2.016c0.756,0,1.224-0.132,1.608-0.288l0.192,0.744
				c-0.372,0.168-1.02,0.372-1.944,0.372c-1.776,0-2.856-1.188-2.856-2.928c0-1.764,1.044-3.144,2.736-3.144
				c1.896,0,2.388,1.668,2.388,2.736c0,0.216-0.012,0.384-0.036,0.504L242.416,16.508z M245.5,15.752
				c0.012-0.66-0.276-1.716-1.452-1.716c-1.08,0-1.536,0.984-1.62,1.716H245.5z"/>
			<path fill="#0A50A1" d="M252.736,19.364c-1.561,0-2.784-1.152-2.784-2.988c0-1.944,1.284-3.084,2.88-3.084
				c1.668,0,2.796,1.212,2.796,2.976c0,2.16-1.5,3.096-2.88,3.096H252.736z M252.772,18.572c1.008,0,1.764-0.948,1.764-2.268
				c0-0.984-0.492-2.22-1.74-2.22c-1.236,0-1.775,1.152-1.775,2.256c0,1.272,0.72,2.232,1.739,2.232H252.772z"/>
			<path fill="#0A50A1" d="M256.959,14.996c0-0.612-0.012-1.092-0.048-1.572h0.936l0.061,0.948h0.023
				c0.288-0.54,0.96-1.08,1.92-1.08c0.805,0,2.053,0.48,2.053,2.472v3.468h-1.057v-3.348c0-0.936-0.348-1.728-1.344-1.728
				c-0.684,0-1.224,0.492-1.416,1.08c-0.048,0.132-0.072,0.324-0.072,0.492v3.504h-1.056V14.996z"/>
			<path fill="#0A50A1" d="M270.255,17.84c0,0.504,0.024,0.996,0.084,1.392h-0.948l-0.096-0.732h-0.036
				c-0.312,0.456-0.948,0.864-1.776,0.864c-1.176,0-1.775-0.828-1.775-1.668c0-1.404,1.248-2.172,3.492-2.16v-0.12
				c0-0.48-0.133-1.356-1.32-1.344c-0.552,0-1.116,0.156-1.524,0.432l-0.239-0.708c0.479-0.3,1.188-0.504,1.92-0.504
				c1.788,0,2.22,1.212,2.22,2.376V17.84z M269.223,16.268c-1.151-0.024-2.46,0.18-2.46,1.308c0,0.696,0.456,1.008,0.984,1.008
				c0.768,0,1.26-0.48,1.428-0.972c0.036-0.108,0.048-0.228,0.048-0.336V16.268z"/>
			<path fill="#0A50A1" d="M274.491,10.712h1.057v8.52h-1.057V10.712z"/>
			<path fill="#0A50A1" d="M277.803,12.356c-0.396,0-0.66-0.312-0.66-0.684S277.419,11,277.827,11c0.408,0,0.673,0.3,0.673,0.672
				s-0.265,0.684-0.685,0.684H277.803z M277.299,19.232v-5.808h1.056v5.808H277.299z"/>
			<path fill="#0A50A1" d="M280.107,14.996c0-0.612-0.012-1.092-0.048-1.572h0.936l0.061,0.948h0.023
				c0.288-0.54,0.96-1.08,1.92-1.08c0.805,0,2.053,0.48,2.053,2.472v3.468h-1.057v-3.348c0-0.936-0.348-1.728-1.344-1.728
				c-0.684,0-1.224,0.492-1.416,1.08c-0.048,0.132-0.072,0.324-0.072,0.492v3.504h-1.056V14.996z"/>
			<path fill="#0A50A1" d="M287.367,16.508c0.024,1.428,0.924,2.016,1.98,2.016c0.756,0,1.224-0.132,1.607-0.288l0.192,0.744
				c-0.372,0.168-1.021,0.372-1.944,0.372c-1.775,0-2.855-1.188-2.855-2.928c0-1.764,1.044-3.144,2.735-3.144
				c1.896,0,2.389,1.668,2.389,2.736c0,0.216-0.013,0.384-0.036,0.504L287.367,16.508z M290.451,15.752
				c0.012-0.66-0.275-1.716-1.452-1.716c-1.08,0-1.536,0.984-1.62,1.716H290.451z"/>
		</g>
		<g>
			<path fill="#FF0000" d="M185.48,58.264c0.456-0.108,1.188-0.18,1.908-0.18c1.044,0,1.716,0.18,2.208,0.588
				c0.42,0.312,0.684,0.792,0.684,1.428c0,0.792-0.528,1.476-1.368,1.776v0.036c0.768,0.18,1.668,0.816,1.668,2.016
				c0,0.696-0.276,1.224-0.696,1.62c-0.552,0.516-1.464,0.756-2.784,0.756c-0.72,0-1.272-0.048-1.62-0.096V58.264z M186.524,61.576
				h0.948c1.092,0,1.74-0.588,1.74-1.368c0-0.936-0.708-1.32-1.764-1.32c-0.48,0-0.756,0.036-0.924,0.072V61.576z M186.524,65.44
				c0.216,0.036,0.504,0.048,0.876,0.048c1.08,0,2.076-0.396,2.076-1.572c0-1.092-0.948-1.56-2.088-1.56h-0.864V65.44z"/>
			<path fill="#FF0000" d="M196.064,64.84c0,0.504,0.024,0.996,0.084,1.392H195.2l-0.096-0.732h-0.036
				c-0.312,0.456-0.948,0.864-1.776,0.864c-1.176,0-1.776-0.828-1.776-1.668c0-1.404,1.248-2.172,3.492-2.16v-0.12
				c0-0.48-0.132-1.356-1.32-1.344c-0.552,0-1.116,0.156-1.524,0.432l-0.24-0.708c0.48-0.3,1.188-0.504,1.92-0.504
				c1.788,0,2.22,1.212,2.22,2.376V64.84z M195.032,63.268c-1.152-0.024-2.46,0.18-2.46,1.308c0,0.696,0.456,1.008,0.984,1.008
				c0.768,0,1.26-0.48,1.428-0.972c0.036-0.108,0.048-0.228,0.048-0.336V63.268z"/>
			<path fill="#FF0000" d="M197.768,62.236c0-0.684-0.012-1.272-0.048-1.812h0.924l0.048,1.14h0.036
				c0.264-0.78,0.912-1.272,1.62-1.272c0.108,0,0.192,0.012,0.288,0.036v0.984c-0.12-0.012-0.228-0.024-0.372-0.024
				c-0.744,0-1.272,0.564-1.416,1.344c-0.024,0.156-0.036,0.324-0.036,0.504v3.096h-1.056L197.768,62.236z"/>
			<path fill="#FF0000" d="M204.224,57.712h1.056v8.52h-1.056V57.712z"/>
			<path fill="#FF0000" d="M207.536,59.356c-0.396,0-0.66-0.312-0.66-0.684S207.151,58,207.56,58c0.408,0,0.672,0.3,0.672,0.672
				s-0.264,0.684-0.684,0.684H207.536z M207.031,66.232v-5.808h1.056v5.808H207.031z"/>
			<path fill="#FF0000" d="M209.839,61.996c0-0.612-0.012-1.092-0.048-1.572h0.936l0.06,0.948h0.024c0.288-0.54,0.96-1.08,1.92-1.08
				c0.804,0,2.052,0.48,2.052,2.472v3.468h-1.056v-3.348c0-0.936-0.348-1.728-1.344-1.728c-0.684,0-1.224,0.492-1.416,1.08
				c-0.048,0.132-0.072,0.324-0.072,0.492v3.504h-1.056V61.996z"/>
			<path fill="#FF0000" d="M217.099,63.508c0.024,1.428,0.924,2.016,1.98,2.016c0.756,0,1.224-0.132,1.608-0.288l0.192,0.744
				c-0.372,0.168-1.02,0.372-1.944,0.372c-1.776,0-2.856-1.188-2.856-2.928c0-1.764,1.044-3.144,2.736-3.144
				c1.896,0,2.388,1.668,2.388,2.736c0,0.216-0.012,0.384-0.036,0.504L217.099,63.508z M220.183,62.752
				c0.012-0.66-0.276-1.716-1.452-1.716c-1.08,0-1.536,0.984-1.62,1.716H220.183z"/>
		</g>
		<g>
			<path fill="#0A50A1" d="M377.468,3.144h1.056v7.212h3.456v0.876h-4.512V3.144z"/>
			<path fill="#0A50A1" d="M383.528,8.508c0.023,1.428,0.924,2.016,1.979,2.016c0.757,0,1.225-0.132,1.608-0.288l0.192,0.744
				c-0.372,0.168-1.021,0.372-1.944,0.372c-1.776,0-2.856-1.188-2.856-2.928c0-1.764,1.044-3.144,2.736-3.144
				c1.896,0,2.388,1.668,2.388,2.736c0,0.216-0.012,0.384-0.035,0.504L383.528,8.508z M386.612,7.752
				c0.012-0.66-0.276-1.716-1.452-1.716c-1.08,0-1.536,0.984-1.62,1.716H386.612z"/>
			<path fill="#0A50A1" d="M393.956,2.712v7.02c0,0.516,0.012,1.104,0.048,1.5h-0.948l-0.048-1.008h-0.023
				c-0.324,0.648-1.021,1.14-1.969,1.14c-1.403,0-2.495-1.188-2.495-2.952c-0.013-1.944,1.199-3.12,2.604-3.12
				c0.9,0,1.5,0.42,1.752,0.876h0.024V2.712H393.956z M392.9,7.788c0-0.144-0.013-0.312-0.048-0.456
				c-0.156-0.66-0.732-1.212-1.524-1.212c-1.092,0-1.74,0.96-1.74,2.232c0,1.188,0.588,2.16,1.716,2.16
				c0.708,0,1.356-0.48,1.549-1.26c0.035-0.144,0.048-0.288,0.048-0.456V7.788z"/>
			<path fill="#0A50A1" d="M400.675,10.38c0,1.344-0.275,2.148-0.828,2.664c-0.575,0.516-1.392,0.696-2.124,0.696
				c-0.695,0-1.464-0.168-1.932-0.48l0.264-0.816c0.385,0.252,0.984,0.468,1.704,0.468c1.08,0,1.872-0.564,1.872-2.04v-0.636h-0.023
				c-0.313,0.54-0.948,0.972-1.849,0.972c-1.439,0-2.472-1.224-2.472-2.844c0-1.968,1.284-3.072,2.628-3.072
				c1.008,0,1.548,0.516,1.813,0.996h0.023l0.036-0.864h0.936c-0.035,0.408-0.048,0.876-0.048,1.584V10.38z M399.62,7.704
				c0-0.168-0.012-0.324-0.06-0.468c-0.192-0.624-0.696-1.128-1.477-1.128c-1.008,0-1.728,0.852-1.728,2.208
				c0,1.128,0.588,2.088,1.716,2.088c0.66,0,1.248-0.408,1.464-1.092c0.06-0.168,0.084-0.372,0.084-0.564V7.704z"/>
			<path fill="#0A50A1" d="M403.015,8.508c0.024,1.428,0.924,2.016,1.98,2.016c0.756,0,1.224-0.132,1.607-0.288l0.192,0.744
				c-0.372,0.168-1.02,0.372-1.944,0.372c-1.775,0-2.855-1.188-2.855-2.928c0-1.764,1.044-3.144,2.736-3.144
				c1.896,0,2.388,1.668,2.388,2.736c0,0.216-0.012,0.384-0.036,0.504L403.015,8.508z M406.099,7.752
				c0.013-0.66-0.275-1.716-1.452-1.716c-1.079,0-1.535,0.984-1.619,1.716H406.099z"/>
			<path fill="#0A50A1" d="M408.439,7.236c0-0.684-0.012-1.272-0.048-1.812h0.924l0.049,1.14h0.035
				c0.265-0.78,0.912-1.272,1.62-1.272c0.108,0,0.192,0.012,0.288,0.036v0.984c-0.12-0.012-0.228-0.024-0.372-0.024
				c-0.744,0-1.271,0.564-1.416,1.344c-0.023,0.156-0.036,0.324-0.036,0.504v3.096h-1.056L408.439,7.236z"/>
			<path fill="#0A50A1" d="M414.895,2.712h1.056v8.52h-1.056V2.712z"/>
			<path fill="#0A50A1" d="M418.208,4.356c-0.396,0-0.66-0.312-0.66-0.684S417.823,3,418.231,3s0.672,0.3,0.672,0.672
				s-0.264,0.684-0.684,0.684H418.208z M417.703,11.232V5.424h1.057v5.808H417.703z"/>
			<path fill="#0A50A1" d="M420.511,6.996c0-0.612-0.013-1.092-0.048-1.572h0.936l0.061,0.948h0.023c0.288-0.54,0.96-1.08,1.92-1.08
				c0.804,0,2.052,0.48,2.052,2.472v3.468h-1.056V7.884c0-0.936-0.348-1.728-1.344-1.728c-0.685,0-1.225,0.492-1.416,1.08
				c-0.048,0.132-0.072,0.324-0.072,0.492v3.504h-1.056V6.996z"/>
			<path fill="#0A50A1" d="M427.771,8.508c0.023,1.428,0.924,2.016,1.979,2.016c0.757,0,1.225-0.132,1.608-0.288l0.192,0.744
				c-0.372,0.168-1.021,0.372-1.944,0.372c-1.776,0-2.856-1.188-2.856-2.928c0-1.764,1.044-3.144,2.736-3.144
				c1.896,0,2.388,1.668,2.388,2.736c0,0.216-0.012,0.384-0.035,0.504L427.771,8.508z M430.855,7.752
				c0.012-0.66-0.276-1.716-1.452-1.716c-1.08,0-1.536,0.984-1.62,1.716H430.855z"/>
			<path fill="#0A50A1" d="M433.039,10.164c0.324,0.192,0.876,0.408,1.404,0.408c0.756,0,1.116-0.372,1.116-0.864
				c0-0.504-0.3-0.78-1.068-1.068c-1.056-0.384-1.548-0.948-1.548-1.644c0-0.936,0.768-1.704,2.004-1.704
				c0.588,0,1.104,0.156,1.416,0.36l-0.252,0.756c-0.228-0.132-0.648-0.336-1.188-0.336c-0.624,0-0.96,0.36-0.96,0.792
				c0,0.492,0.336,0.708,1.093,0.996c0.996,0.372,1.523,0.876,1.523,1.752c0,1.032-0.804,1.752-2.16,1.752
				c-0.636,0-1.224-0.168-1.632-0.408L433.039,10.164z"/>
		</g>
		<g>
			<path fill="#FF0000" d="M272.468,58.252c0.647-0.096,1.403-0.168,2.231-0.168c1.5,0,2.568,0.336,3.276,0.996
				c0.731,0.66,1.151,1.608,1.151,2.916c0,1.32-0.42,2.4-1.163,3.144c-0.769,0.756-2.017,1.164-3.589,1.164
				c-0.756,0-1.367-0.024-1.907-0.096V58.252z M273.524,65.416c0.264,0.048,0.647,0.048,1.056,0.048
				c2.232,0.012,3.444-1.248,3.444-3.432c0.012-1.932-1.068-3.12-3.276-3.12c-0.54,0-0.947,0.048-1.224,0.108V65.416z"/>
			<path fill="#FF0000" d="M282.872,66.364c-1.56,0-2.784-1.152-2.784-2.988c0-1.944,1.284-3.084,2.88-3.084
				c1.668,0,2.797,1.212,2.797,2.976c0,2.16-1.501,3.096-2.881,3.096H282.872z M282.908,65.572c1.008,0,1.764-0.948,1.764-2.268
				c0-0.984-0.492-2.22-1.739-2.22c-1.236,0-1.776,1.152-1.776,2.256c0,1.272,0.72,2.232,1.74,2.232H282.908z"/>
			<path fill="#FF0000" d="M291.956,64.648c0,0.6,0.012,1.128,0.048,1.584h-0.936l-0.061-0.948h-0.023
				c-0.265,0.468-0.889,1.08-1.92,1.08c-0.912,0-2.004-0.516-2.004-2.544v-3.396h1.056v3.204c0,1.104,0.348,1.86,1.296,1.86
				c0.708,0,1.2-0.492,1.392-0.972c0.061-0.144,0.097-0.336,0.097-0.54v-3.552h1.056V64.648z"/>
			<path fill="#FF0000" d="M293.708,57.712h1.056v3.636h0.024c0.372-0.648,1.044-1.056,1.979-1.056c1.44,0,2.448,1.2,2.448,2.952
				c0,2.088-1.319,3.12-2.616,3.12c-0.84,0-1.5-0.324-1.943-1.092h-0.024l-0.06,0.96h-0.912c0.036-0.396,0.048-0.984,0.048-1.5
				V57.712z M294.763,63.904c0,0.132,0.013,0.264,0.036,0.384c0.204,0.732,0.828,1.236,1.584,1.236c1.116,0,1.765-0.9,1.765-2.232
				c0-1.176-0.601-2.172-1.729-2.172c-0.72,0-1.392,0.504-1.596,1.296c-0.036,0.132-0.061,0.276-0.061,0.444V63.904z"/>
			<path fill="#FF0000" d="M300.536,57.712h1.056v8.52h-1.056V57.712z"/>
			<path fill="#FF0000" d="M303.943,63.508c0.024,1.428,0.925,2.016,1.98,2.016c0.756,0,1.224-0.132,1.608-0.288l0.191,0.744
				c-0.372,0.168-1.02,0.372-1.944,0.372c-1.775,0-2.855-1.188-2.855-2.928c0-1.764,1.044-3.144,2.736-3.144
				c1.896,0,2.388,1.668,2.388,2.736c0,0.216-0.012,0.384-0.036,0.504L303.943,63.508z M307.027,62.752
				c0.013-0.66-0.275-1.716-1.451-1.716c-1.08,0-1.536,0.984-1.62,1.716H307.027z"/>
			<path fill="#FF0000" d="M311.899,57.712h1.056v3.636h0.024c0.372-0.648,1.044-1.056,1.98-1.056c1.439,0,2.447,1.2,2.447,2.952
				c0,2.088-1.319,3.12-2.615,3.12c-0.841,0-1.5-0.324-1.944-1.092h-0.024l-0.06,0.96h-0.912c0.036-0.396,0.048-0.984,0.048-1.5
				V57.712z M312.955,63.904c0,0.132,0.013,0.264,0.036,0.384c0.204,0.732,0.828,1.236,1.584,1.236c1.116,0,1.765-0.9,1.765-2.232
				c0-1.176-0.601-2.172-1.729-2.172c-0.72,0-1.392,0.504-1.596,1.296c-0.036,0.132-0.061,0.276-0.061,0.444V63.904z"/>
			<path fill="#FF0000" d="M322.819,64.84c0,0.504,0.024,0.996,0.084,1.392h-0.948l-0.096-0.732h-0.036
				c-0.312,0.456-0.948,0.864-1.775,0.864c-1.177,0-1.776-0.828-1.776-1.668c0-1.404,1.248-2.172,3.492-2.16v-0.12
				c0-0.48-0.132-1.356-1.32-1.344c-0.552,0-1.116,0.156-1.524,0.432l-0.239-0.708c0.479-0.3,1.188-0.504,1.92-0.504
				c1.788,0,2.22,1.212,2.22,2.376V64.84z M321.787,63.268c-1.151-0.024-2.46,0.18-2.46,1.308c0,0.696,0.456,1.008,0.984,1.008
				c0.768,0,1.26-0.48,1.428-0.972c0.036-0.108,0.048-0.228,0.048-0.336V63.268z"/>
			<path fill="#FF0000" d="M324.523,62.236c0-0.684-0.012-1.272-0.048-1.812h0.924l0.048,1.14h0.036
				c0.264-0.78,0.912-1.272,1.62-1.272c0.107,0,0.191,0.012,0.288,0.036v0.984c-0.12-0.012-0.229-0.024-0.372-0.024
				c-0.744,0-1.272,0.564-1.416,1.344c-0.024,0.156-0.036,0.324-0.036,0.504v3.096h-1.056L324.523,62.236z"/>
			<path fill="#FF0000" d="M330.979,57.712h1.056v8.52h-1.056V57.712z"/>
			<path fill="#FF0000" d="M334.291,59.356c-0.396,0-0.66-0.312-0.66-0.684S333.907,58,334.315,58c0.407,0,0.672,0.3,0.672,0.672
				s-0.265,0.684-0.685,0.684H334.291z M333.787,66.232v-5.808h1.056v5.808H333.787z"/>
			<path fill="#FF0000" d="M336.594,61.996c0-0.612-0.012-1.092-0.048-1.572h0.937l0.06,0.948h0.024c0.288-0.54,0.96-1.08,1.92-1.08
				c0.804,0,2.052,0.48,2.052,2.472v3.468h-1.056v-3.348c0-0.936-0.349-1.728-1.345-1.728c-0.684,0-1.224,0.492-1.416,1.08
				c-0.048,0.132-0.071,0.324-0.071,0.492v3.504h-1.057V61.996z"/>
			<path fill="#FF0000" d="M343.854,63.508c0.024,1.428,0.925,2.016,1.98,2.016c0.756,0,1.224-0.132,1.608-0.288l0.191,0.744
				c-0.372,0.168-1.02,0.372-1.943,0.372c-1.776,0-2.856-1.188-2.856-2.928c0-1.764,1.044-3.144,2.736-3.144
				c1.896,0,2.388,1.668,2.388,2.736c0,0.216-0.012,0.384-0.036,0.504L343.854,63.508z M346.938,62.752
				c0.013-0.66-0.275-1.716-1.451-1.716c-1.08,0-1.536,0.984-1.62,1.716H346.938z"/>
		</g>
		<g>
			<path d="M127.2,100.136c-0.036-0.972-0.072-2.136-0.072-3.324h-0.024c-0.264,1.032-0.6,2.184-0.912,3.132l-0.984,3.156h-1.428
				l-0.864-3.12c-0.264-0.96-0.528-2.1-0.732-3.168h-0.024c-0.036,1.092-0.084,2.34-0.132,3.348l-0.156,3.072h-1.692l0.516-8.088
				h2.436l0.792,2.712c0.264,0.924,0.504,1.932,0.684,2.88h0.048c0.216-0.936,0.492-1.992,0.768-2.904l0.852-2.688h2.4l0.432,8.088
				h-1.776L127.2,100.136z"/>
			<path d="M135.996,101.348c0,0.768,0.024,1.392,0.048,1.884h-1.584l-0.084-0.828h-0.036c-0.228,0.36-0.78,0.96-1.836,0.96
				c-1.2,0-2.064-0.744-2.064-2.556v-3.444h1.824v3.156c0,0.852,0.276,1.368,0.924,1.368c0.504,0,0.804-0.348,0.912-0.636
				c0.048-0.108,0.072-0.24,0.072-0.396v-3.492h1.824V101.348z"/>
			<path d="M137.448,101.648c0.336,0.204,1.032,0.432,1.572,0.432c0.552,0,0.78-0.18,0.78-0.48c0-0.312-0.18-0.456-0.852-0.684
				c-1.224-0.396-1.692-1.068-1.68-1.752c0-1.104,0.936-1.932,2.388-1.932c0.684,0,1.284,0.168,1.644,0.348l-0.312,1.248
				c-0.264-0.132-0.78-0.324-1.272-0.324c-0.444,0-0.696,0.18-0.696,0.468c0,0.288,0.228,0.432,0.948,0.684
				c1.116,0.372,1.572,0.948,1.584,1.8c0,1.104-0.852,1.908-2.532,1.908c-0.768,0-1.452-0.18-1.896-0.42L137.448,101.648z"/>
			<path d="M143.567,96.596c-0.612,0-1.008-0.432-1.008-0.972c0-0.552,0.408-0.972,1.032-0.972s1.008,0.42,1.02,0.972
				c0,0.54-0.396,0.972-1.032,0.972H143.567z M142.667,103.232v-5.868h1.824v5.868H142.667z"/>
			<path d="M150.359,103.088c-0.324,0.156-0.936,0.276-1.632,0.276c-1.896,0-3.108-1.164-3.108-3.012c0-1.716,1.176-3.12,3.36-3.12
				c0.48,0,1.008,0.084,1.392,0.228l-0.288,1.356c-0.216-0.096-0.54-0.18-1.02-0.18c-0.96,0-1.584,0.684-1.572,1.644
				c0,1.08,0.72,1.656,1.608,1.656c0.432,0,0.768-0.072,1.044-0.192L150.359,103.088z"/>
			<path d="M156.491,103.364c-1.716,0-3.036-1.128-3.036-3.024s1.248-3.108,3.144-3.108c1.788,0,2.988,1.236,2.988,3.012
				c0,2.136-1.524,3.12-3.084,3.12H156.491z M156.527,102.056c0.72,0,1.164-0.708,1.164-1.764c0-0.864-0.336-1.752-1.164-1.752
				c-0.864,0-1.2,0.888-1.2,1.764c0,0.996,0.42,1.752,1.188,1.752H156.527z"/>
			<path d="M160.715,99.236c0-0.732-0.024-1.344-0.048-1.872h1.584l0.084,0.816h0.036c0.24-0.384,0.828-0.948,1.812-0.948
				c1.2,0,2.1,0.804,2.1,2.532v3.468h-1.824V99.98c0-0.756-0.264-1.272-0.924-1.272c-0.504,0-0.804,0.348-0.936,0.684
				c-0.048,0.12-0.06,0.288-0.06,0.456v3.384h-1.824V99.236z"/>
			<path d="M175.055,101.816c0,0.552,0.024,1.092,0.096,1.416h-1.644l-0.108-0.588h-0.036c-0.384,0.468-0.984,0.72-1.68,0.72
				c-1.188,0-1.896-0.864-1.896-1.8c0-1.524,1.368-2.244,3.444-2.244v-0.072c0-0.312-0.168-0.756-1.068-0.756
				c-0.6,0-1.236,0.204-1.62,0.432l-0.336-1.164c0.408-0.228,1.212-0.528,2.28-0.528c1.956,0,2.568,1.152,2.568,2.532V101.816z
				 M173.291,100.46c-0.96,0-1.704,0.228-1.704,0.924c0,0.468,0.312,0.696,0.72,0.696c0.444,0,0.828-0.3,0.948-0.672
				c0.024-0.096,0.036-0.204,0.036-0.312V100.46z"/>
			<path d="M178.919,101.648c0.336,0.204,1.032,0.432,1.572,0.432c0.552,0,0.78-0.18,0.78-0.48c0-0.312-0.18-0.456-0.852-0.684
				c-1.224-0.396-1.692-1.068-1.68-1.752c0-1.104,0.936-1.932,2.388-1.932c0.684,0,1.284,0.168,1.644,0.348l-0.312,1.248
				c-0.264-0.132-0.78-0.324-1.272-0.324c-0.444,0-0.696,0.18-0.696,0.468c0,0.288,0.228,0.432,0.948,0.684
				c1.116,0.372,1.572,0.948,1.584,1.8c0,1.104-0.852,1.908-2.532,1.908c-0.768,0-1.452-0.18-1.896-0.42L178.919,101.648z"/>
			<path d="M186.179,95.768v1.596h1.308v1.344h-1.308v2.136c0,0.708,0.18,1.032,0.72,1.032c0.252,0,0.372-0.012,0.54-0.048
				l0.012,1.38c-0.228,0.084-0.672,0.156-1.176,0.156c-0.588,0-1.08-0.204-1.38-0.504c-0.336-0.348-0.504-0.912-0.504-1.74v-2.412
				h-0.78v-1.344h0.78V96.26L186.179,95.768z"/>
			<path d="M193.427,101.816c0,0.552,0.024,1.092,0.096,1.416h-1.644l-0.108-0.588h-0.036c-0.384,0.468-0.984,0.72-1.68,0.72
				c-1.188,0-1.896-0.864-1.896-1.8c0-1.524,1.368-2.244,3.444-2.244v-0.072c0-0.312-0.168-0.756-1.068-0.756
				c-0.6,0-1.236,0.204-1.62,0.432l-0.336-1.164c0.408-0.228,1.212-0.528,2.28-0.528c1.956,0,2.568,1.152,2.568,2.532V101.816z
				 M191.663,100.46c-0.96,0-1.704,0.228-1.704,0.924c0,0.468,0.312,0.696,0.72,0.696c0.444,0,0.828-0.3,0.948-0.672
				c0.024-0.096,0.036-0.204,0.036-0.312V100.46z"/>
			<path d="M195.095,103.232v-4.524h-0.78v-1.344h0.78v-0.228c0-0.708,0.216-1.488,0.732-1.968c0.468-0.432,1.092-0.588,1.632-0.588
				c0.396,0,0.708,0.06,0.96,0.12l-0.072,1.404c-0.156-0.048-0.348-0.084-0.588-0.084c-0.6,0-0.852,0.468-0.852,1.044v0.3h1.176
				v1.344h-1.164v4.524H195.095z"/>
			<path d="M199.187,103.232v-4.524h-0.78v-1.344h0.78v-0.228c0-0.708,0.216-1.488,0.732-1.968c0.468-0.432,1.092-0.588,1.632-0.588
				c0.396,0,0.708,0.06,0.96,0.12l-0.072,1.404c-0.156-0.048-0.348-0.084-0.588-0.084c-0.6,0-0.852,0.468-0.852,1.044v0.3h1.176
				v1.344h-1.164v4.524H199.187z"/>
			<path d="M206.386,96.596c-0.612,0-1.008-0.432-1.008-0.972c0-0.552,0.408-0.972,1.032-0.972c0.624,0,1.008,0.42,1.02,0.972
				c0,0.54-0.396,0.972-1.032,0.972H206.386z M205.486,103.232v-5.868h1.824v5.868H205.486z"/>
			<path d="M208.762,101.648c0.336,0.204,1.032,0.432,1.572,0.432c0.552,0,0.78-0.18,0.78-0.48c0-0.312-0.18-0.456-0.852-0.684
				c-1.224-0.396-1.692-1.068-1.68-1.752c0-1.104,0.936-1.932,2.388-1.932c0.684,0,1.284,0.168,1.644,0.348l-0.312,1.248
				c-0.264-0.132-0.78-0.324-1.272-0.324c-0.444,0-0.696,0.18-0.696,0.468c0,0.288,0.228,0.432,0.948,0.684
				c1.116,0.372,1.572,0.948,1.584,1.8c0,1.104-0.852,1.908-2.532,1.908c-0.768,0-1.452-0.18-1.896-0.42L208.762,101.648z"/>
			<path d="M216.418,99.296c0-0.864-0.012-1.428-0.048-1.932h1.56l0.072,1.092h0.048c0.3-0.864,1.008-1.224,1.584-1.224
				c0.168,0,0.252,0.012,0.384,0.036v1.716c-0.156-0.024-0.3-0.048-0.504-0.048c-0.672,0-1.128,0.348-1.248,0.924
				c-0.024,0.12-0.036,0.252-0.036,0.408v2.964h-1.824L216.418,99.296z"/>
			<path d="M222.286,100.868c0.06,0.768,0.804,1.128,1.656,1.128c0.624,0,1.128-0.084,1.62-0.252l0.24,1.236
				c-0.6,0.252-1.332,0.372-2.124,0.372c-1.992,0-3.132-1.152-3.132-3c0-1.488,0.936-3.132,2.964-3.132
				c1.896,0,2.616,1.476,2.616,2.928c0,0.312-0.036,0.588-0.06,0.732L222.286,100.868z M224.434,99.62
				c0-0.432-0.192-1.188-1.02-1.188c-0.78,0-1.092,0.708-1.14,1.188H224.434z"/>
			<path d="M232.102,101.816c0,0.552,0.024,1.092,0.096,1.416h-1.644l-0.108-0.588h-0.036c-0.384,0.468-0.984,0.72-1.68,0.72
				c-1.188,0-1.896-0.864-1.896-1.8c0-1.524,1.368-2.244,3.444-2.244v-0.072c0-0.312-0.168-0.756-1.068-0.756
				c-0.6,0-1.236,0.204-1.62,0.432l-0.336-1.164c0.408-0.228,1.212-0.528,2.28-0.528c1.956,0,2.568,1.152,2.568,2.532V101.816z
				 M230.338,100.46c-0.96,0-1.704,0.228-1.704,0.924c0,0.468,0.312,0.696,0.72,0.696c0.444,0,0.828-0.3,0.948-0.672
				c0.024-0.096,0.036-0.204,0.036-0.312V100.46z"/>
			<path d="M239.242,94.712v6.768c0,0.672,0.024,1.356,0.048,1.752h-1.62l-0.072-0.852h-0.036c-0.36,0.648-1.08,0.984-1.836,0.984
				c-1.392,0-2.508-1.188-2.508-3.012c-0.012-1.968,1.224-3.12,2.628-3.12c0.732,0,1.284,0.264,1.548,0.66h0.024v-3.18H239.242z
				 M237.418,99.86c0-0.108,0-0.228-0.024-0.336c-0.108-0.492-0.504-0.888-1.068-0.888c-0.84,0-1.26,0.744-1.26,1.668
				c0,0.984,0.492,1.608,1.248,1.608c0.528,0,0.96-0.36,1.068-0.876c0.024-0.12,0.036-0.264,0.036-0.408V99.86z"/>
			<path d="M243.346,103.232v-4.524h-0.78v-1.344h0.78v-0.228c0-0.708,0.216-1.488,0.732-1.968c0.468-0.432,1.092-0.588,1.632-0.588
				c0.396,0,0.708,0.06,0.96,0.12l-0.072,1.404c-0.156-0.048-0.348-0.084-0.588-0.084c-0.6,0-0.852,0.468-0.852,1.044v0.3h1.176
				v1.344h-1.164v4.524H243.346z"/>
			<path d="M247.234,99.296c0-0.864-0.012-1.428-0.048-1.932h1.56l0.072,1.092h0.048c0.3-0.864,1.008-1.224,1.584-1.224
				c0.168,0,0.252,0.012,0.384,0.036v1.716c-0.155-0.024-0.3-0.048-0.504-0.048c-0.672,0-1.128,0.348-1.248,0.924
				c-0.023,0.12-0.036,0.252-0.036,0.408v2.964h-1.824L247.234,99.296z"/>
			<path d="M254.398,103.364c-1.716,0-3.036-1.128-3.036-3.024s1.248-3.108,3.144-3.108c1.788,0,2.988,1.236,2.988,3.012
				c0,2.136-1.523,3.12-3.084,3.12H254.398z M254.434,102.056c0.72,0,1.164-0.708,1.164-1.764c0-0.864-0.336-1.752-1.164-1.752
				c-0.864,0-1.2,0.888-1.2,1.764c0,0.996,0.42,1.752,1.188,1.752H254.434z"/>
			<path d="M258.622,99.236c0-0.732-0.023-1.344-0.048-1.872h1.548l0.072,0.804h0.036c0.252-0.384,0.78-0.936,1.775-0.936
				c0.769,0,1.356,0.396,1.608,1.008h0.024c0.228-0.312,0.479-0.552,0.768-0.72c0.324-0.18,0.684-0.288,1.116-0.288
				c1.128,0,1.979,0.792,1.979,2.544v3.456h-1.775v-3.18c0-0.852-0.276-1.344-0.864-1.344c-0.432,0-0.72,0.288-0.852,0.636
				c-0.036,0.132-0.061,0.312-0.061,0.456v3.432h-1.776v-3.288c0-0.732-0.264-1.236-0.852-1.236c-0.468,0-0.744,0.36-0.852,0.648
				c-0.061,0.144-0.072,0.312-0.072,0.468v3.408h-1.776V99.236z"/>
			<path d="M271.366,94.712h1.824v8.52h-1.824V94.712z"/>
			<path d="M276.057,100.868c0.061,0.768,0.805,1.128,1.656,1.128c0.624,0,1.128-0.084,1.62-0.252l0.24,1.236
				c-0.601,0.252-1.332,0.372-2.124,0.372c-1.992,0-3.132-1.152-3.132-3c0-1.488,0.936-3.132,2.964-3.132
				c1.896,0,2.615,1.476,2.615,2.928c0,0.312-0.035,0.588-0.06,0.732L276.057,100.868z M278.206,99.62
				c0-0.432-0.192-1.188-1.021-1.188c-0.779,0-1.092,0.708-1.14,1.188H278.206z"/>
			<path d="M281.206,103.232v-4.524h-0.78v-1.344h0.78v-0.228c0-0.708,0.216-1.488,0.731-1.968c0.469-0.432,1.093-0.588,1.633-0.588
				c0.396,0,0.708,0.06,0.96,0.12l-0.072,1.404c-0.156-0.048-0.348-0.084-0.588-0.084c-0.601,0-0.853,0.468-0.853,1.044v0.3h1.177
				v1.344h-1.164v4.524H281.206z"/>
			<path d="M287.301,95.768v1.596h1.308v1.344h-1.308v2.136c0,0.708,0.18,1.032,0.72,1.032c0.252,0,0.372-0.012,0.54-0.048
				l0.013,1.38c-0.229,0.084-0.673,0.156-1.177,0.156c-0.588,0-1.08-0.204-1.38-0.504c-0.336-0.348-0.504-0.912-0.504-1.74v-2.412
				h-0.78v-1.344h0.78V96.26L287.301,95.768z"/>
			<path d="M294.129,95.768v1.596h1.308v1.344h-1.308v2.136c0,0.708,0.18,1.032,0.72,1.032c0.252,0,0.372-0.012,0.54-0.048
				l0.012,1.38c-0.228,0.084-0.672,0.156-1.176,0.156c-0.588,0-1.08-0.204-1.38-0.504c-0.336-0.348-0.504-0.912-0.504-1.74v-2.412
				h-0.78v-1.344h0.78V96.26L294.129,95.768z"/>
			<path d="M299.133,103.364c-1.716,0-3.036-1.128-3.036-3.024s1.248-3.108,3.144-3.108c1.788,0,2.988,1.236,2.988,3.012
				c0,2.136-1.524,3.12-3.084,3.12H299.133z M299.169,102.056c0.72,0,1.164-0.708,1.164-1.764c0-0.864-0.336-1.752-1.164-1.752
				c-0.864,0-1.2,0.888-1.2,1.764c0,0.996,0.42,1.752,1.188,1.752H299.169z"/>
			<path d="M305.792,99.296c0-0.864-0.012-1.428-0.048-1.932h1.561l0.071,1.092h0.049c0.3-0.864,1.008-1.224,1.584-1.224
				c0.168,0,0.252,0.012,0.384,0.036v1.716c-0.156-0.024-0.3-0.048-0.504-0.048c-0.672,0-1.128,0.348-1.248,0.924
				c-0.024,0.12-0.036,0.252-0.036,0.408v2.964h-1.824L305.792,99.296z"/>
			<path d="M311.217,96.596c-0.612,0-1.009-0.432-1.009-0.972c0-0.552,0.408-0.972,1.032-0.972s1.008,0.42,1.021,0.972
				c0,0.54-0.396,0.972-1.032,0.972H311.217z M310.317,103.232v-5.868h1.824v5.868H310.317z"/>
			<path d="M319.161,102.38c0,1.128-0.228,2.052-0.9,2.64c-0.636,0.552-1.512,0.72-2.376,0.72c-0.779,0-1.584-0.156-2.111-0.444
				l0.359-1.392c0.372,0.216,1.009,0.444,1.704,0.444c0.864,0,1.524-0.456,1.524-1.548v-0.372h-0.024
				c-0.348,0.48-0.912,0.756-1.584,0.756c-1.452,0-2.483-1.176-2.483-2.856c0-1.896,1.212-3.096,2.664-3.096
				c0.804,0,1.308,0.348,1.607,0.828h0.024l0.06-0.696h1.584c-0.023,0.384-0.048,0.876-0.048,1.752V102.38z M317.336,99.752
				c0-0.108-0.012-0.228-0.036-0.336c-0.132-0.48-0.479-0.804-0.983-0.804c-0.672,0-1.2,0.6-1.2,1.668
				c0,0.876,0.432,1.56,1.188,1.56c0.479,0,0.852-0.312,0.972-0.732c0.048-0.144,0.06-0.336,0.06-0.492V99.752z"/>
			<path d="M320.625,94.712h1.824v3.36h0.023c0.192-0.264,0.433-0.468,0.721-0.612c0.275-0.144,0.611-0.228,0.947-0.228
				c1.164,0,2.053,0.804,2.053,2.58v3.42h-1.824v-3.228c0-0.768-0.264-1.296-0.948-1.296c-0.479,0-0.78,0.312-0.912,0.648
				c-0.048,0.108-0.06,0.264-0.06,0.396v3.48h-1.824V94.712z"/>
			<path d="M329.625,95.768v1.596h1.309v1.344h-1.309v2.136c0,0.708,0.18,1.032,0.72,1.032c0.252,0,0.372-0.012,0.54-0.048
				l0.013,1.38c-0.229,0.084-0.673,0.156-1.177,0.156c-0.588,0-1.08-0.204-1.38-0.504c-0.336-0.348-0.504-0.912-0.504-1.74v-2.412
				h-0.78v-1.344h0.78V96.26L329.625,95.768z"/>
		</g>
		<g>
			<path fill="#FF0000" d="M373.524,57.144v3.384h3.912v-3.384h1.056v8.088h-1.056V61.44h-3.912v3.792h-1.056v-8.088H373.524z"/>
			<path fill="#FF0000" d="M380.879,62.508c0.024,1.428,0.924,2.016,1.98,2.016c0.756,0,1.224-0.132,1.607-0.288l0.192,0.744
				c-0.372,0.168-1.02,0.372-1.944,0.372c-1.775,0-2.855-1.188-2.855-2.928c0-1.764,1.044-3.144,2.735-3.144
				c1.896,0,2.389,1.668,2.389,2.736c0,0.216-0.012,0.384-0.036,0.504L380.879,62.508z M383.963,61.752
				c0.013-0.66-0.275-1.716-1.452-1.716c-1.079,0-1.535,0.984-1.619,1.716H383.963z"/>
			<path fill="#FF0000" d="M390.383,63.84c0,0.504,0.024,0.996,0.084,1.392h-0.947l-0.097-0.732h-0.036
				c-0.312,0.456-0.947,0.864-1.775,0.864c-1.176,0-1.776-0.828-1.776-1.668c0-1.404,1.248-2.172,3.492-2.16v-0.12
				c0-0.48-0.132-1.356-1.32-1.344c-0.552,0-1.116,0.156-1.523,0.432l-0.24-0.708c0.479-0.3,1.188-0.504,1.92-0.504
				c1.788,0,2.22,1.212,2.22,2.376V63.84z M389.352,62.268c-1.152-0.024-2.461,0.18-2.461,1.308c0,0.696,0.456,1.008,0.984,1.008
				c0.769,0,1.26-0.48,1.428-0.972c0.036-0.108,0.049-0.228,0.049-0.336V62.268z"/>
			<path fill="#FF0000" d="M392.328,59.424l1.14,3.252c0.192,0.54,0.349,1.02,0.469,1.5h0.036c0.132-0.48,0.3-0.96,0.491-1.5
				l1.128-3.252h1.104l-2.28,5.808h-1.008l-2.208-5.808H392.328z"/>
			<path fill="#FF0000" d="M398.208,59.424l1.26,3.432c0.145,0.384,0.288,0.84,0.384,1.188h0.024
				c0.108-0.348,0.228-0.792,0.372-1.212l1.152-3.408h1.115l-1.584,4.14c-0.756,1.992-1.271,3.012-1.992,3.648
				c-0.527,0.444-1.031,0.624-1.296,0.672l-0.264-0.888c0.264-0.072,0.612-0.24,0.924-0.516c0.288-0.228,0.636-0.636,0.888-1.176
				c0.049-0.108,0.084-0.18,0.084-0.252c0-0.06-0.023-0.144-0.084-0.264l-2.136-5.364H398.208z"/>
			<path fill="#FF0000" d="M411.036,56.712v7.02c0,0.516,0.012,1.104,0.048,1.5h-0.948l-0.048-1.008h-0.024
				c-0.324,0.648-1.02,1.14-1.968,1.14c-1.404,0-2.496-1.188-2.496-2.952c-0.012-1.944,1.2-3.12,2.604-3.12
				c0.899,0,1.5,0.42,1.752,0.876h0.023v-3.456H411.036z M409.979,61.788c0-0.144-0.012-0.312-0.048-0.456
				c-0.156-0.66-0.732-1.212-1.524-1.212c-1.092,0-1.739,0.96-1.739,2.232c0,1.188,0.588,2.16,1.716,2.16
				c0.708,0,1.355-0.48,1.548-1.26c0.036-0.144,0.048-0.288,0.048-0.456V61.788z"/>
			<path fill="#FF0000" d="M415.151,65.364c-1.56,0-2.784-1.152-2.784-2.988c0-1.944,1.284-3.084,2.881-3.084
				c1.668,0,2.796,1.212,2.796,2.976c0,2.16-1.5,3.096-2.88,3.096H415.151z M415.187,64.572c1.008,0,1.764-0.948,1.764-2.268
				c0-0.984-0.491-2.22-1.739-2.22c-1.236,0-1.776,1.152-1.776,2.256c0,1.272,0.72,2.232,1.74,2.232H415.187z"/>
			<path fill="#FF0000" d="M424.235,63.648c0,0.6,0.013,1.128,0.048,1.584h-0.936l-0.061-0.948h-0.023
				c-0.264,0.468-0.888,1.08-1.92,1.08c-0.912,0-2.004-0.516-2.004-2.544v-3.396h1.056v3.204c0,1.104,0.348,1.86,1.296,1.86
				c0.708,0,1.2-0.492,1.393-0.972c0.06-0.144,0.096-0.336,0.096-0.54v-3.552h1.056V63.648z"/>
			<path fill="#FF0000" d="M425.987,56.712h1.057v3.636h0.023c0.372-0.648,1.044-1.056,1.98-1.056c1.439,0,2.447,1.2,2.447,2.952
				c0,2.088-1.319,3.12-2.615,3.12c-0.841,0-1.5-0.324-1.944-1.092h-0.024l-0.06,0.96h-0.912c0.036-0.396,0.048-0.984,0.048-1.5
				V56.712z M427.043,62.904c0,0.132,0.012,0.264,0.035,0.384c0.204,0.732,0.828,1.236,1.584,1.236c1.116,0,1.765-0.9,1.765-2.232
				c0-1.176-0.601-2.172-1.729-2.172c-0.72,0-1.392,0.504-1.596,1.296c-0.036,0.132-0.06,0.276-0.06,0.444V62.904z"/>
			<path fill="#FF0000" d="M432.815,56.712h1.056v8.52h-1.056V56.712z"/>
			<path fill="#FF0000" d="M436.223,62.508c0.023,1.428,0.924,2.016,1.979,2.016c0.756,0,1.225-0.132,1.608-0.288l0.191,0.744
				c-0.372,0.168-1.02,0.372-1.943,0.372c-1.776,0-2.856-1.188-2.856-2.928c0-1.764,1.044-3.144,2.736-3.144
				c1.896,0,2.388,1.668,2.388,2.736c0,0.216-0.012,0.384-0.036,0.504L436.223,62.508z M439.307,61.752
				c0.012-0.66-0.276-1.716-1.452-1.716c-1.08,0-1.536,0.984-1.62,1.716H439.307z"/>
			<path fill="#FF0000" d="M444.178,56.712h1.057v3.636h0.023c0.372-0.648,1.044-1.056,1.98-1.056c1.439,0,2.448,1.2,2.448,2.952
				c0,2.088-1.32,3.12-2.616,3.12c-0.84,0-1.5-0.324-1.944-1.092h-0.023l-0.061,0.96h-0.912c0.036-0.396,0.048-0.984,0.048-1.5
				V56.712z M445.235,62.904c0,0.132,0.012,0.264,0.036,0.384c0.203,0.732,0.827,1.236,1.584,1.236c1.115,0,1.764-0.9,1.764-2.232
				c0-1.176-0.6-2.172-1.729-2.172c-0.72,0-1.392,0.504-1.596,1.296c-0.036,0.132-0.06,0.276-0.06,0.444V62.904z"/>
			<path fill="#FF0000" d="M455.098,63.84c0,0.504,0.024,0.996,0.084,1.392h-0.947l-0.097-0.732h-0.036
				c-0.312,0.456-0.947,0.864-1.775,0.864c-1.177,0-1.776-0.828-1.776-1.668c0-1.404,1.248-2.172,3.492-2.16v-0.12
				c0-0.48-0.132-1.356-1.32-1.344c-0.552,0-1.116,0.156-1.523,0.432l-0.24-0.708c0.479-0.3,1.188-0.504,1.92-0.504
				c1.788,0,2.22,1.212,2.22,2.376V63.84z M454.066,62.268c-1.151-0.024-2.46,0.18-2.46,1.308c0,0.696,0.456,1.008,0.984,1.008
				c0.768,0,1.26-0.48,1.428-0.972c0.036-0.108,0.048-0.228,0.048-0.336V62.268z"/>
			<path fill="#FF0000" d="M456.802,61.236c0-0.684-0.012-1.272-0.048-1.812h0.924l0.048,1.14h0.036
				c0.264-0.78,0.912-1.272,1.62-1.272c0.108,0,0.192,0.012,0.288,0.036v0.984c-0.12-0.012-0.229-0.024-0.372-0.024
				c-0.744,0-1.272,0.564-1.416,1.344c-0.024,0.156-0.036,0.324-0.036,0.504v3.096h-1.056L456.802,61.236z"/>
			<path fill="#FF0000" d="M463.258,56.712h1.056v8.52h-1.056V56.712z"/>
			<path fill="#FF0000" d="M466.57,58.356c-0.396,0-0.66-0.312-0.66-0.684S466.186,57,466.594,57s0.672,0.3,0.672,0.672
				s-0.264,0.684-0.684,0.684H466.57z M466.066,65.232v-5.808h1.057v5.808H466.066z"/>
			<path fill="#FF0000" d="M468.874,60.996c0-0.612-0.012-1.092-0.048-1.572h0.937l0.06,0.948h0.024c0.288-0.54,0.96-1.08,1.92-1.08
				c0.804,0,2.052,0.48,2.052,2.472v3.468h-1.056v-3.348c0-0.936-0.349-1.728-1.344-1.728c-0.685,0-1.225,0.492-1.416,1.08
				c-0.049,0.132-0.072,0.324-0.072,0.492v3.504h-1.057V60.996z"/>
			<path fill="#FF0000" d="M476.134,62.508c0.023,1.428,0.924,2.016,1.979,2.016c0.756,0,1.225-0.132,1.608-0.288l0.191,0.744
				c-0.372,0.168-1.02,0.372-1.943,0.372c-1.776,0-2.856-1.188-2.856-2.928c0-1.764,1.044-3.144,2.736-3.144
				c1.896,0,2.388,1.668,2.388,2.736c0,0.216-0.012,0.384-0.036,0.504L476.134,62.508z M479.218,61.752
				c0.012-0.66-0.276-1.716-1.452-1.716c-1.08,0-1.536,0.984-1.62,1.716H479.218z"/>
		</g>
		<g>
			<path fill="#0A50A1" d="M55.934,29.154v-3.912h0.696v3.672l2.352-0.768v-3.504h0.696v3.288l0.936-0.312v2.496l-0.936,0.312v3.552
				l0.936-0.288v2.472l-0.936,0.312v3.912h-0.696V36.69l-2.352,0.768v3.552h-0.696v-3.312l-1.032,0.336v-2.496l1.032-0.336v-3.576
				l-1.032,0.336V29.49L55.934,29.154z M56.63,31.411v3.576l2.352-0.768v-3.576L56.63,31.411z"/>
		</g>
		<g>
			<path fill="#0A50A1" d="M62.6,16.488v-3.912h0.696v3.672l2.352-0.768v-3.504h0.696v3.288l0.936-0.312v2.496l-0.936,0.312v3.552
				l0.936-0.288v2.472l-0.936,0.312v3.912h-0.696v-3.696l-2.352,0.768v3.552H62.6v-3.312l-1.032,0.336v-2.496l1.032-0.336V18.96
				l-1.032,0.336v-2.472L62.6,16.488z M63.296,18.744v3.576l2.352-0.768v-3.576L63.296,18.744z"/>
		</g>
		<g>
			<path fill="#FF0000" d="M90.56,47.872v1.584c0,0.96,1.128,0.936,1.128,0.936v0.624H86.48v-0.624c0,0,1.176,0.048,1.152-0.888
				v-1.632h-4.44l-0.432-0.456c2.904-3.912,2.928-4.632,3.624-8.184h4.152c-0.984,1.824-4.296,5.256-6.624,7.968h3.72v-2.952
				l2.928-3.216V47.2h1.728v0.672H90.56z"/>
		</g>
		<g>
			<path fill="#0A50A1" d="M255.272,34.016c2.664,0.024,5.184,1.032,5.376,3.264c0.144,1.632-2.016,3.12-4.68,3.12
				c-2.688-0.024-5.185-1.008-5.4-3.24C250.424,35.504,252.608,34.016,255.272,34.016z M255.919,39.848
				c1.152,0,1.896-1.104,1.776-1.992c-0.264-1.752-0.864-3.168-2.448-3.168c-1.151,0-1.823,1.128-1.68,2.016
				C253.832,38.456,254.335,39.848,255.919,39.848z"/>
		</g>
		<path fill="none" stroke="#FF0000" d="M304.603,22.547v29.746"/>
		<path fill="none" stroke="#FF0000" d="M308.937,22.547v29.746"/>
		<path fill="none" stroke="#FF0000" d="M420.937,22.213v29.746"/>
		<path fill="none" stroke="#FF0000" stroke-width="2" d="M424.937,22.213v29.746"/>
		<g>
			<path d="M362.938,4.016c2.664,0.024,5.184,1.032,5.376,3.264c0.144,1.632-2.016,3.12-4.68,3.12
				c-2.688-0.024-5.185-1.008-5.4-3.24C358.09,5.504,360.274,4.016,362.938,4.016z M363.585,9.848c1.152,0,1.896-1.104,1.776-1.992
				c-0.264-1.752-0.864-3.168-2.448-3.168c-1.151,0-1.823,1.128-1.68,2.016C361.498,8.456,362.001,9.848,363.585,9.848z"/>
		</g>
		<g>
			<path fill="none" stroke="#000000" d="M367.568,99.232l-30.57-0.249"/>
			<path fill="none" stroke="#000000" d="M360.181,93.059l7.387,6.173"/>
			<path fill="none" stroke="#000000" d="M359.256,105.278l8.312-6.046"/>
		</g>
		<g>
			<path fill="none" stroke="#000000" d="M115.568,98.232l-30.57-0.249"/>
			<path fill="none" stroke="#000000" d="M108.181,92.059l7.387,6.173"/>
			<path fill="none" stroke="#000000" d="M107.256,104.278l8.312-6.046"/>
		</g>
	</g>
</svg>
