<?xml version="1.0" encoding="utf-8"?>
<!-- Generator: Adobe Illustrator 10.0, SVG Export Plug-In . SVG Version: 3.0.0 Build 76)  -->
<!DOCTYPE svg PUBLIC "-//W3C//DTD SVG 1.0//EN"    "http://www.w3.org/TR/2001/REC-SVG-20010904/DTD/svg10.dtd" [
	<!ENTITY ns_flows "http://ns.adobe.com/Flows/1.0/">
	<!ENTITY ns_extend "http://ns.adobe.com/Extensibility/1.0/">
	<!ENTITY ns_ai "http://ns.adobe.com/AdobeIllustrator/10.0/">
	<!ENTITY ns_svg "http://www.w3.org/2000/svg">
	<!ENTITY ns_xlink "http://www.w3.org/1999/xlink">
]>
<svg  xmlns:x="&ns_extend;" xmlns:i="&ns_ai;" xmlns:graph="&ns_graphs;"
	 xmlns="&ns_svg;" xmlns:xlink="&ns_xlink;" xmlns:a="http://ns.adobe.com/AdobeSVGViewerExtensions/3.0/" width="318" height="120"
	 viewBox="0.198 -0.292 318 120" overflow="visible" enable-background="new 0.198 -0.292 318 120" xml:space="preserve">
	<g id="Layer_1_2_">
		<path fill="none" stroke="#0A0A0A" d="M171.198,5.708v97"/>
		<g>
			<path d="M38.994,16.943c0,0.216,0,1.536,0,1.536c0.912-0.816,1.416-0.984,2.424-1.008c1.2-0.024,1.968,1.176,1.992,2.136
				c0.024,0.504-0.12,1.032-0.312,1.44c-0.216,0.528-0.792,0.936-1.176,1.32c-0.432,0.432-3.552,2.568-3.552,2.616V10.799h0.624
				C38.994,10.799,39.018,13.775,38.994,16.943z M39.258,19.319c-0.312,0.6-0.264,1.632-0.264,2.376v2.064
				c0,0.024,0.864-0.72,1.344-1.176c0.432-0.408,0.768-0.864,0.936-1.584c0.192-0.72,0.12-1.488-0.336-1.992
				C40.626,18.647,39.762,18.359,39.258,19.319z"/>
		</g>
		<g>
			<path d="M232.096,7.163c1.009-1.015,2.189-1.872,3.541-2.573c1.352-0.701,2.752-1.052,4.201-1.052c1.277,0,2.5,0.262,3.67,0.786
				c1.357,0.612,2.709,1.559,4.056,2.839v1.313c-1.116-0.826-1.913-1.373-2.39-1.639c-0.741-0.417-1.513-0.745-2.318-0.983
				c-1.004-0.294-2.013-0.44-3.026-0.44c-2.581,0-5.159,1.021-7.734,3.063V7.163z"/>
		</g>
		<g>
			<path fill="none" stroke="#000000" d="M11.483,6.09h304.648"/>
			<path fill="none" stroke="#000000" d="M11.483,20.202h304.648"/>
			<path fill="none" stroke="#000000" d="M11.635,27.325h304.648"/>
			<path fill="none" stroke="#000000" d="M11.402,34.708h304.647"/>
			<path fill="none" stroke="#000000" d="M11.402,13.345h304.647"/>
		</g>
		<g>
			<path fill="none" stroke="#000000" d="M11.902,74.9H316.55"/>
			<path fill="none" stroke="#000000" d="M11.902,89.013H316.55"/>
			<path fill="none" stroke="#000000" d="M12.053,96.136h304.649"/>
			<path fill="none" stroke="#000000" d="M11.82,103.519h304.647"/>
			<path fill="none" stroke="#000000" d="M11.82,82.155h304.647"/>
		</g>
		<g>
			<path d="M22.05,33.768c-4.944-2.352-5.736-5.376-5.952-8.472c-0.24-3.36,1.896-6.768,3.888-8.664
				c1.152-1.08,2.4-2.136,3.888-3.264c-0.048-0.84-0.24-1.176-0.336-2.376c-0.024-0.504-0.336-2.856,0.168-5.568
				c0.312-1.608,2.328-5.4,3.72-5.424c1.08-0.024,2.736,4.296,2.784,6.456c0.072,3.336-0.72,4.848-1.704,6.576
				c-0.504,0.864-1.032,1.464-1.584,2.136c-0.576,0.696-1.224,1.104-1.824,1.632c0,0,0.768,4.344,0.792,4.656
				c1.536-0.192,3.408,0.36,4.08,0.84c1.704,1.272,2.352,3.024,2.472,4.728c0.216,2.712-1.272,5.568-4.56,6.936
				c0,0,0.504,3.456,0.624,4.176c0.264,1.896,0.216,3.096-0.192,3.864c-0.696,1.296-1.824,2.496-4.008,2.64
				c-1.68,0.096-4.992-0.744-5.16-3.384c-0.096-1.56,0.6-3.24,2.496-3.36c1.152-0.096,2.52,0.864,2.616,2.232
				c0.096,1.176-0.672,2.4-2.664,2.952c0.312,0.432,1.248,0.936,2.592,0.936c1.392,0,2.832-0.936,3.528-2.184
				c0.432-0.816,0.384-2.28,0.216-3.624c-0.072-0.456-0.648-4.08-0.648-4.08C25.506,34.416,23.058,34.248,22.05,33.768z
				 M22.53,28.08c0.048,1.152,1.008,2.496,1.896,2.952c-0.12,0.072-0.24,0.264-0.24,0.264c-0.984-0.48-1.824-1.272-2.04-1.56
				c-0.696-0.936-0.984-1.464-1.08-2.88c-0.096-1.32,0.624-3.096,2.232-4.344c0.84-0.624,1.248-0.768,1.968-0.936l-0.72-4.344
				c-0.744,0.432-3.816,2.904-5.112,4.92c-1.152,1.8-1.848,3.24-1.704,5.016c0.288,4.008,4.68,7.296,9.432,6.168
				c0,0-1.416-8.52-1.392-8.52C23.154,24.912,22.458,26.928,22.53,28.08z M24.474,12.864c2.088-1.632,4.92-4.704,4.752-7.08
				c-0.048-0.744-0.36-2.088-1.44-2.064C25.314,3.744,23.922,8.904,24.474,12.864z M27.738,33.144
				c2.76-0.936,2.88-3.312,2.784-4.728c-0.096-1.176-0.624-3.816-4.128-3.648L27.738,33.144z"/>
		</g>
		<g>
			<path d="M27.148,90.153c-0.937,1.135-1.526,1.76-2.704,2.667c-1.418,1.107-2.382,1.561-4.042,2.242
				c-1.606,0.625-4.31,1.135-4.31,1.135l-0.188-0.426c0,0,4.523-1.447,6.745-3.944c2.917-3.207,4.443-7.094,4.363-12.06
				c-0.027-2.242-0.696-6.442-4.069-6.47c-1.927,0-4.657,1.759-4.47,3.944c0.053,0.313,0.803-0.34,2.275-0.284
				c1.553,0.057,2.382,2.1,2.008,3.689c-0.268,1.249-1.018,2.043-2.382,2.043c-1.74,0-3.292-1.306-3.319-3.462
				c-0.053-3.264,1.66-4.909,2.704-5.59c1.312-0.852,2.73-1.164,3.935-1.164c2.704-0.057,5.702,2.015,6.719,5.022
				c0.589,1.703,0.589,3.604,0.134,5.817c-0.294,1.504-0.669,2.327-1.338,3.689C28.54,88.309,28.059,89.018,27.148,90.153z
				 M33.358,74.545c0.83,0,1.499,0.625,1.499,1.476c0.027,0.852-0.642,1.589-1.445,1.589c-0.803,0.028-1.499-0.681-1.499-1.532
				C31.886,75.198,32.555,74.574,33.358,74.545z M33.385,81.697c0.803,0,1.472,0.624,1.499,1.476c0,0.879-0.642,1.589-1.445,1.589
				c-0.83,0.028-1.499-0.652-1.526-1.532C31.913,82.377,32.555,81.725,33.385,81.697z"/>
		</g>
		<path fill="none" stroke="#0A0A0A" d="M11.096,6.43v97.089"/>
		<g>
			<path d="M8.125,100.271v1.75c-0.957-0.473-1.785-1.414-2.486-2.824c-0.947-1.883-1.686-4.305-2.217-7.262
				c-0.531-2.961-0.797-6.139-0.797-9.535c0-2.254,0.094-4.875,0.285-7.867c0.227-3.496,0.34-6.07,0.34-7.719
				c0-2.555-0.293-4.873-0.877-6.959C1.787,57.771,0.996,56.494,0,56.021v-2.125c0.996-0.469,1.787-1.736,2.373-3.801
				c0.584-2.064,0.877-4.406,0.877-7.025c0-1.611-0.113-4.162-0.34-7.654c-0.191-2.988-0.285-5.623-0.285-7.906
				c0-3.424,0.281-6.646,0.848-9.668s1.322-5.439,2.268-7.252c0.672-1.309,1.467-2.166,2.385-2.568v1.75
				c-1.113,0.941-1.932,2.463-2.459,4.563c-0.527,2.102-0.791,4.563-0.791,7.383c0,1.748,0.111,4.387,0.334,7.914
				c0.193,3.059,0.291,5.68,0.291,7.863c0,3.496-0.371,6.83-1.109,10.006s-1.813,5.621-3.223,7.334
				c1.379,1.75,2.447,4.242,3.201,7.473S5.5,68.92,5.5,72.453c0,2.223-0.098,4.848-0.291,7.877
				c-0.223,3.533-0.334,6.191-0.334,7.977c0,2.758,0.264,5.197,0.791,7.32C6.193,97.746,7.012,99.295,8.125,100.271z"/>
		</g>
		<g>
			<path fill="none" stroke="#000000" d="M94.472,61.597h14"/>
			<path fill="none" stroke="#000000" d="M94.472,68.597h14"/>
		</g>
		<g>
			<path d="M45.994,6.943c0,0.216,0,1.536,0,1.536c0.912-0.816,1.416-0.984,2.424-1.008c1.2-0.024,1.968,1.176,1.992,2.136
				c0.024,0.504-0.12,1.032-0.312,1.44c-0.216,0.528-0.792,0.936-1.176,1.32c-0.432,0.432-3.552,2.568-3.552,2.616V0.799h0.624
				C45.994,0.799,46.018,3.775,45.994,6.943z M46.258,9.319c-0.312,0.6-0.264,1.632-0.264,2.376v2.064
				c0,0.024,0.864-0.72,1.344-1.176c0.432-0.408,0.768-0.864,0.936-1.584c0.192-0.72,0.12-1.488-0.336-1.992
				C47.626,8.647,46.762,8.359,46.258,9.319z"/>
		</g>
		<g>
			<path d="M53.822,19.459c0,0.216,0,1.536,0,1.536c0.912-0.816,1.416-0.984,2.424-1.008c1.2-0.024,1.968,1.176,1.992,2.136
				c0.024,0.504-0.12,1.032-0.312,1.44c-0.216,0.528-0.792,0.936-1.176,1.32c-0.432,0.432-3.552,2.568-3.552,2.616V13.315h0.624
				C53.822,13.315,53.846,16.292,53.822,19.459z M54.086,21.835c-0.312,0.6-0.264,1.632-0.264,2.376v2.064
				c0,0.024,0.864-0.72,1.344-1.176c0.432-0.408,0.768-0.864,0.936-1.584c0.192-0.72,0.12-1.488-0.336-1.992
				C55.454,21.164,54.59,20.875,54.086,21.835z"/>
		</g>
		<g>
			<path d="M40.994,92.943c0,0.216,0,1.536,0,1.536c0.912-0.816,1.416-0.984,2.424-1.008c1.2-0.024,1.968,1.176,1.992,2.136
				c0.024,0.504-0.12,1.032-0.312,1.44c-0.216,0.528-0.792,0.936-1.176,1.32c-0.432,0.432-3.552,2.568-3.552,2.616V86.799h0.624
				C40.994,86.799,41.018,89.775,40.994,92.943z M41.258,95.319c-0.312,0.6-0.264,1.632-0.264,2.376v2.064
				c0,0.024,0.864-0.72,1.344-1.176c0.432-0.408,0.768-0.864,0.936-1.584c0.192-0.72,0.12-1.488-0.336-1.992
				C42.626,94.647,41.762,94.359,41.258,95.319z"/>
		</g>
		<g>
			<path d="M47.994,82.943c0,0.216,0,1.536,0,1.536c0.912-0.816,1.416-0.984,2.424-1.008c1.2-0.024,1.968,1.176,1.992,2.136
				c0.024,0.504-0.12,1.032-0.312,1.44c-0.216,0.528-0.792,0.936-1.176,1.32c-0.432,0.432-3.552,2.568-3.552,2.616V76.799h0.624
				C47.994,76.799,48.018,79.775,47.994,82.943z M48.258,85.319c-0.312,0.6-0.264,1.632-0.264,2.376v2.064
				c0,0.024,0.864-0.72,1.344-1.176c0.432-0.408,0.768-0.864,0.936-1.584c0.192-0.72,0.12-1.488-0.336-1.992
				C49.626,84.647,48.762,84.359,48.258,85.319z"/>
		</g>
		<g>
			<path d="M55.822,95.459c0,0.216,0,1.536,0,1.536c0.912-0.816,1.416-0.984,2.424-1.008c1.2-0.024,1.968,1.176,1.992,2.136
				c0.024,0.504-0.12,1.032-0.312,1.44c-0.216,0.528-0.792,0.936-1.176,1.32c-0.432,0.432-3.552,2.568-3.552,2.616V89.315h0.624
				C55.822,89.315,55.846,92.292,55.822,95.459z M56.086,97.835c-0.312,0.6-0.264,1.632-0.264,2.376v2.064
				c0,0.024,0.864-0.72,1.344-1.176c0.432-0.408,0.768-0.864,0.936-1.584c0.192-0.72,0.12-1.488-0.336-1.992
				C57.454,97.164,56.59,96.875,56.086,97.835z"/>
		</g>
		<g>
			<path d="M77.166,17.54c2.04,0.024,3.144,1.416,2.52,3.12c-0.624,1.728-2.784,3.096-4.8,3.072
				c-0.984-0.024-1.776-0.384-2.232-0.936v19.08h-0.456c0-24.216,0-20.4,0-20.4c0-0.288,0.072-0.576,0.192-0.888
				C73.014,18.859,75.15,17.516,77.166,17.54z"/>
		</g>
		<g>
			<path d="M101.166,6.54c2.04,0.024,3.144,1.416,2.52,3.12c-0.624,1.728-2.784,3.096-4.8,3.072
				c-0.984-0.024-1.776-0.384-2.232-0.936v19.08h-0.456c0-24.216,0-20.4,0-20.4c0-0.288,0.072-0.576,0.192-0.888
				C97.014,7.859,99.15,6.516,101.166,6.54z"/>
		</g>
		<g>
			<path d="M101.166,24.54c2.04,0.024,3.144,1.416,2.52,3.12c-0.624,1.728-2.784,3.096-4.8,3.072
				c-0.984-0.024-1.776-0.384-2.232-0.936v19.08h-0.456c0-24.216,0-20.4,0-20.4c0-0.288,0.072-0.576,0.192-0.888
				C97.014,25.859,99.15,24.516,101.166,24.54z"/>
		</g>
		<g>
			<path d="M127.166,24.54c2.04,0.024,3.144,1.416,2.52,3.12c-0.624,1.728-2.784,3.096-4.8,3.072
				c-0.984-0.024-1.776-0.384-2.232-0.936v19.08h-0.456c0-24.216,0-20.4,0-20.4c0-0.288,0.072-0.576,0.192-0.888
				C123.014,25.859,125.15,24.516,127.166,24.54z"/>
		</g>
		<g>
			<path d="M156.166,24.54c2.04,0.024,3.144,1.416,2.52,3.12c-0.624,1.728-2.784,3.096-4.8,3.072
				c-0.984-0.024-1.776-0.384-2.232-0.936v19.08h-0.456c0-24.216,0-20.4,0-20.4c0-0.288,0.072-0.576,0.192-0.888
				C152.014,25.859,154.15,24.516,156.166,24.54z"/>
		</g>
		<g>
			<path d="M188.166,17.54c2.04,0.024,3.144,1.416,2.52,3.12c-0.624,1.728-2.784,3.096-4.8,3.072
				c-0.984-0.024-1.776-0.384-2.232-0.936v19.08h-0.456c0-24.216,0-20.4,0-20.4c0-0.288,0.072-0.576,0.192-0.888
				C184.014,18.859,186.15,17.516,188.166,17.54z"/>
		</g>
		<g>
			<path fill="#FF0000" d="M204.166,6.54c2.04,0.024,3.144,1.416,2.52,3.12c-0.624,1.728-2.784,3.096-4.8,3.072
				c-0.984-0.024-1.776-0.384-2.232-0.936v19.08h-0.456c0-24.216,0-20.4,0-20.4c0-0.288,0.072-0.576,0.192-0.888
				C200.014,7.859,202.15,6.516,204.166,6.54z"/>
		</g>
		<g>
			<path fill="#FF0000" d="M233.166,10.54c2.04,0.024,3.144,1.416,2.52,3.12c-0.624,1.728-2.784,3.096-4.8,3.072
				c-0.984-0.024-1.776-0.384-2.232-0.936v19.08h-0.456c0-24.216,0-20.4,0-20.4c0-0.288,0.072-0.576,0.192-0.888
				C229.014,11.859,231.15,10.516,233.166,10.54z"/>
		</g>
		<g>
			<path fill="#FF0000" d="M250.166,10.54c2.04,0.024,3.144,1.416,2.52,3.12c-0.624,1.728-2.784,3.096-4.8,3.072
				c-0.984-0.024-1.776-0.384-2.232-0.936v19.08h-0.456c0-24.216,0-20.4,0-20.4c0-0.288,0.072-0.576,0.192-0.888
				C246.014,11.859,248.15,10.516,250.166,10.54z"/>
		</g>
		<g>
			<path d="M265.166,13.54c2.04,0.024,3.145,1.416,2.521,3.12c-0.624,1.728-2.784,3.096-4.8,3.072
				c-0.984-0.024-1.776-0.384-2.232-0.936v19.08h-0.456c0-24.216,0-20.4,0-20.4c0-0.288,0.072-0.576,0.192-0.888
				C261.014,14.859,263.15,13.516,265.166,13.54z"/>
		</g>
		<g>
			<path d="M282.166,17.54c2.04,0.024,3.145,1.416,2.521,3.12c-0.624,1.728-2.784,3.096-4.8,3.072
				c-0.984-0.024-1.776-0.384-2.232-0.936v19.08h-0.456c0-24.216,0-20.4,0-20.4c0-0.288,0.072-0.576,0.192-0.888
				C278.014,18.859,280.15,17.516,282.166,17.54z"/>
		</g>
		<g>
			<path d="M76.166,82.54c2.04,0.024,3.144,1.416,2.52,3.12c-0.624,1.728-2.784,3.096-4.8,3.072
				c-0.984-0.024-1.776-0.384-2.232-0.936v19.08h-0.456c0-24.216,0-20.4,0-20.4c0-0.288,0.072-0.576,0.192-0.888
				C72.014,83.859,74.15,82.516,76.166,82.54z"/>
		</g>
		<g>
			<path d="M298.166,24.54c2.04,0.024,3.145,1.416,2.521,3.12c-0.624,1.728-2.784,3.096-4.8,3.072
				c-0.984-0.024-1.776-0.384-2.232-0.936v19.08h-0.456c0-24.216,0-20.4,0-20.4c0-0.288,0.072-0.576,0.192-0.888
				C294.014,25.859,296.15,24.516,298.166,24.54z"/>
		</g>
		<g>
			<path d="M128.166,93.54c2.04,0.024,3.144,1.416,2.52,3.12c-0.624,1.728-2.784,3.096-4.8,3.072
				c-0.984-0.024-1.776-0.384-2.232-0.936v19.08h-0.456c0-24.216,0-20.4,0-20.4c0-0.288,0.072-0.576,0.192-0.888
				C124.014,94.859,126.15,93.516,128.166,93.54z"/>
		</g>
		<g>
			<path d="M188.166,82.54c2.04,0.024,3.144,1.416,2.52,3.12c-0.624,1.728-2.784,3.096-4.8,3.072
				c-0.984-0.024-1.776-0.384-2.232-0.936v19.08h-0.456c0-24.216,0-20.4,0-20.4c0-0.288,0.072-0.576,0.192-0.888
				C184.014,83.859,186.15,82.516,188.166,82.54z"/>
		</g>
		<g>
			<path d="M255.166,93.54c2.04,0.024,3.144,1.416,2.52,3.12c-0.624,1.728-2.784,3.096-4.8,3.072
				c-0.984-0.024-1.776-0.384-2.232-0.936v19.08h-0.456c0-24.216,0-20.4,0-20.4c0-0.288,0.072-0.576,0.192-0.888
				C251.014,94.859,253.15,93.516,255.166,93.54z"/>
		</g>
		<g>
			<path d="M102.166,75.54c2.04,0.024,3.144,1.416,2.52,3.12c-0.624,1.728-2.784,3.096-4.8,3.072
				c-0.984-0.024-1.776-0.384-2.232-0.936v19.08h-0.456c0-24.216,0-20.4,0-20.4c0-0.288,0.072-0.576,0.192-0.888
				C98.014,76.859,100.15,75.516,102.166,75.54z"/>
		</g>
		<g>
			<path d="M102.166,68.54c2.04,0.024,3.144,1.416,2.52,3.12c-0.624,1.728-2.784,3.096-4.8,3.072
				c-0.984-0.024-1.776-0.384-2.232-0.936v19.08h-0.456c0-24.216,0-20.4,0-20.4c0-0.288,0.072-0.576,0.192-0.888
				C98.014,69.859,100.15,68.516,102.166,68.54z"/>
		</g>
		<g>
			<path d="M127.166,10.54c2.04,0.024,3.144,1.416,2.52,3.12c-0.624,1.728-2.784,3.096-4.8,3.072
				c-0.984-0.024-1.776-0.384-2.232-0.936v19.08h-0.456c0-24.216,0-20.4,0-20.4c0-0.288,0.072-0.576,0.192-0.888
				C123.014,11.859,125.15,10.516,127.166,10.54z"/>
		</g>
		<g>
			<path d="M156.166,13.54c2.04,0.024,3.144,1.416,2.52,3.12c-0.624,1.728-2.784,3.096-4.8,3.072
				c-0.984-0.024-1.776-0.384-2.232-0.936v19.08h-0.456c0-24.216,0-20.4,0-20.4c0-0.288,0.072-0.576,0.192-0.888
				C152.014,14.859,154.15,13.516,156.166,13.54z"/>
		</g>
		<g>
			<path d="M103.166,58.54c2.04,0.024,3.144,1.416,2.52,3.12c-0.624,1.728-2.784,3.096-4.8,3.072
				c-0.984-0.024-1.776-0.384-2.232-0.936v19.08h-0.456c0-24.216,0-20.4,0-20.4c0-0.288,0.072-0.576,0.192-0.888
				C99.014,59.859,101.15,58.516,103.166,58.54z"/>
		</g>
		<g>
			<path fill="none" stroke="#000000" d="M147.472,61.597h14"/>
			<path fill="none" stroke="#000000" d="M147.472,68.597h14"/>
		</g>
		<g>
			<path d="M155.166,75.54c2.04,0.024,3.144,1.416,2.52,3.12c-0.624,1.728-2.784,3.096-4.8,3.072
				c-0.984-0.024-1.776-0.384-2.232-0.936v19.08h-0.456c0-24.216,0-20.4,0-20.4c0-0.288,0.072-0.576,0.192-0.888
				C151.014,76.859,153.15,75.516,155.166,75.54z"/>
		</g>
		<g>
			<path d="M155.166,68.54c2.04,0.024,3.144,1.416,2.52,3.12c-0.624,1.728-2.784,3.096-4.8,3.072
				c-0.984-0.024-1.776-0.384-2.232-0.936v19.08h-0.456c0-24.216,0-20.4,0-20.4c0-0.288,0.072-0.576,0.192-0.888
				C151.014,69.859,153.15,68.516,155.166,68.54z"/>
		</g>
		<g>
			<path d="M156.166,58.54c2.04,0.024,3.144,1.416,2.52,3.12c-0.624,1.728-2.784,3.096-4.8,3.072
				c-0.984-0.024-1.776-0.384-2.232-0.936v19.08h-0.456c0-24.216,0-20.4,0-20.4c0-0.288,0.072-0.576,0.192-0.888
				C152.014,59.859,154.15,58.516,156.166,58.54z"/>
		</g>
		<g>
			<g>
				<path fill="none" stroke="#000000" d="M209.472,61.597h14"/>
				<path fill="none" stroke="#000000" d="M209.472,68.597h14"/>
			</g>
			<g>
				<path d="M217.166,75.54c2.04,0.024,3.144,1.416,2.52,3.12c-0.624,1.728-2.784,3.096-4.8,3.072
					c-0.984-0.024-1.776-0.384-2.232-0.936v19.08h-0.456c0-24.216,0-20.4,0-20.4c0-0.288,0.072-0.576,0.192-0.888
					C213.014,76.859,215.15,75.516,217.166,75.54z"/>
			</g>
			<g>
				<path d="M217.166,68.54c2.04,0.024,3.144,1.416,2.52,3.12c-0.624,1.728-2.784,3.096-4.8,3.072
					c-0.984-0.024-1.776-0.384-2.232-0.936v19.08h-0.456c0-24.216,0-20.4,0-20.4c0-0.288,0.072-0.576,0.192-0.888
					C213.014,69.859,215.15,68.516,217.166,68.54z"/>
			</g>
			<g>
				<path d="M218.166,58.54c2.04,0.024,3.144,1.416,2.52,3.12c-0.624,1.728-2.784,3.096-4.8,3.072
					c-0.984-0.024-1.776-0.384-2.232-0.936v19.08h-0.456c0-24.216,0-20.4,0-20.4c0-0.288,0.072-0.576,0.192-0.888
					C214.014,59.859,216.15,58.516,218.166,58.54z"/>
			</g>
		</g>
		<g>
			<g>
				<path fill="none" stroke="#000000" d="M275.471,61.597h14"/>
				<path fill="none" stroke="#000000" d="M275.471,68.597h14"/>
			</g>
			<g>
				<path d="M283.166,75.54c2.04,0.024,3.145,1.416,2.521,3.12c-0.624,1.728-2.784,3.096-4.8,3.072
					c-0.984-0.024-1.776-0.384-2.232-0.936v19.08h-0.456c0-24.216,0-20.4,0-20.4c0-0.288,0.072-0.576,0.192-0.888
					C279.014,76.859,281.15,75.516,283.166,75.54z"/>
			</g>
			<g>
				<path d="M283.166,68.54c2.04,0.024,3.145,1.416,2.521,3.12c-0.624,1.728-2.784,3.096-4.8,3.072
					c-0.984-0.024-1.776-0.384-2.232-0.936v19.08h-0.456c0-24.216,0-20.4,0-20.4c0-0.288,0.072-0.576,0.192-0.888
					C279.014,69.859,281.15,68.516,283.166,68.54z"/>
			</g>
			<g>
				<path d="M284.166,58.54c2.04,0.024,3.145,1.416,2.521,3.12c-0.624,1.728-2.784,3.096-4.8,3.072
					c-0.984-0.024-1.776-0.384-2.232-0.936v19.08h-0.456c0-24.216,0-20.4,0-20.4c0-0.288,0.072-0.576,0.192-0.888
					C280.014,59.859,282.15,58.516,284.166,58.54z"/>
			</g>
		</g>
		<path fill="none" stroke="#0A0A0A" stroke-width="2" d="M71.198,106.708l26-7"/>
		<path fill="none" stroke="#0A0A0A" stroke-width="2" d="M123.198,117.708l28-17"/>
		<path fill="none" stroke="#0A0A0A" stroke-width="2" d="M183.198,106.708l30-6"/>
		<path fill="none" stroke="#0A0A0A" stroke-width="2" d="M251.198,118.708l28-18"/>
		<path fill="none" stroke="#0A0A0A" stroke-width="2" d="M73.198,42.708l23,5"/>
		<path fill="none" stroke="#0A0A0A" stroke-width="2" d="M122.198,47.708l29,1"/>
		<g>
			<path d="M188.166,24.54c2.04,0.024,3.144,1.416,2.52,3.12c-0.624,1.728-2.784,3.096-4.8,3.072
				c-0.984-0.024-1.776-0.384-2.232-0.936v19.08h-0.456c0-24.216,0-20.4,0-20.4c0-0.288,0.072-0.576,0.192-0.888
				C184.014,25.859,186.15,24.516,188.166,24.54z"/>
		</g>
		<g>
			<path fill="#FF0000" d="M203.166,24.54c2.04,0.024,3.144,1.416,2.52,3.12c-0.624,1.728-2.784,3.096-4.8,3.072
				c-0.984-0.024-1.776-0.384-2.232-0.936v19.08h-0.456c0-24.216,0-20.4,0-20.4c0-0.288,0.072-0.576,0.192-0.888
				C199.014,25.859,201.15,24.516,203.166,24.54z"/>
		</g>
		<g>
			<path fill="#FF0000" d="M249.166,24.54c2.04,0.024,3.144,1.416,2.52,3.12c-0.624,1.728-2.784,3.096-4.8,3.072
				c-0.984-0.024-1.776-0.384-2.232-0.936v19.08h-0.456c0-24.216,0-20.4,0-20.4c0-0.288,0.072-0.576,0.192-0.888
				C245.014,25.859,247.15,24.516,249.166,24.54z"/>
		</g>
		<g>
			<path fill="#FF0000" d="M233.166,24.54c2.04,0.024,3.144,1.416,2.52,3.12c-0.624,1.728-2.784,3.096-4.8,3.072
				c-0.984-0.024-1.776-0.384-2.232-0.936v19.08h-0.456c0-24.216,0-20.4,0-20.4c0-0.288,0.072-0.576,0.192-0.888
				C229.014,25.859,231.15,24.516,233.166,24.54z"/>
		</g>
		<path fill="none" stroke="#0A0A0A" stroke-width="2" d="M183.198,48.708l46-1"/>
		<path fill="none" stroke="#000000" stroke-width="2" d="M244.198,47.708l50,1"/>
		<path fill="none" stroke="#000000" stroke-width="0.5" d="M261.198,30.708v17"/>
		<path fill="none" stroke="#000000" stroke-width="0.5" d="M278.198,32.708v17"/>
		<path fill="none" stroke="#000000" stroke-width="2" d="M244.198,43.708l50,1"/>
		<g>
			<path d="M230.096,33.038c2.576,2.042,5.153,3.063,7.734,3.063c1.014,0,2.022-0.146,3.026-0.44
				c0.805-0.239,1.577-0.566,2.318-0.983c0.478-0.266,1.274-0.813,2.39-1.639v1.313c-1.347,1.28-2.699,2.227-4.056,2.839
				c-1.17,0.524-2.394,0.786-3.67,0.786c-1.449,0-2.849-0.351-4.201-1.052c-1.352-0.701-2.532-1.559-3.541-2.573V33.038z"/>
		</g>
		<path fill="none" stroke="#000000" stroke-width="2" d="M183.885,44.708h5.625"/>
		<path fill="none" stroke="#000000" stroke-width="2" d="M222.573,43.708h5.625"/>
		<path fill="none" stroke="#0A0A0A" d="M317.198,5.708v97"/>
	</g>
</svg>
