<?xml version="1.0" encoding="utf-8"?>
<!-- Generator: Adobe Illustrator 10.0, SVG Export Plug-In . SVG Version: 3.0.0 Build 76)  -->
<!DOCTYPE svg PUBLIC "-//W3C//DTD SVG 1.0//EN"    "http://www.w3.org/TR/2001/REC-SVG-20010904/DTD/svg10.dtd" [
	<!ENTITY ns_flows "http://ns.adobe.com/Flows/1.0/">
	<!ENTITY ns_extend "http://ns.adobe.com/Extensibility/1.0/">
	<!ENTITY ns_ai "http://ns.adobe.com/AdobeIllustrator/10.0/">
	<!ENTITY ns_svg "http://www.w3.org/2000/svg">
	<!ENTITY ns_xlink "http://www.w3.org/1999/xlink">
]>
<svg  xmlns:x="&ns_extend;" xmlns:i="&ns_ai;" xmlns:graph="&ns_graphs;"
	 xmlns="&ns_svg;" xmlns:xlink="&ns_xlink;" xmlns:a="http://ns.adobe.com/AdobeSVGViewerExtensions/3.0/" width="392" height="56"
	 viewBox="0.316 0.32 392 56" overflow="visible" enable-background="new 0.316 0.32 392 56" xml:space="preserve">
	<g id="Layer_1_2_">
		<g>
			<path fill="none" stroke="#000000" d="M0.104,17.865h392.252"/>
			<path fill="none" stroke="#000000" d="M0.104,31.977h392.252"/>
			<path fill="none" stroke="#000000" d="M0.298,39.1h392.252"/>
			<path fill="none" stroke="#000000" d="M0,46.483h392.248"/>
			<path fill="none" stroke="#000000" d="M0,25.119h392.248"/>
		</g>
		<path fill="none" stroke="#0A0A0A" d="M216.316,17.574V47.32"/>
		<g>
			<path d="M41.232,30.324c0,0.96-1.2,1.8-1.848,1.8s-2.04-0.36-2.04-1.8c0-0.936,0.672-1.632,1.512-1.632
				c0.576,0,0.528-0.36,0.336-0.576c-0.528-0.552-1.488-0.96-2.664-0.624c-1.896,0.504-2.304,2.808-2.304,5.184
				c0,2.64,0.456,5.256,2.76,5.256c1.632,0,3.456-1.488,3.408-3.528h0.672c-0.024,0.624-0.432,1.92-0.84,2.424
				c-0.816,1.008-2.328,1.848-3.504,1.848c-3.168,0-5.424-2.856-5.424-6c0-3.072,2.112-5.904,5.184-5.904
				C39.072,26.771,41.232,27.996,41.232,30.324z"/>
		</g>
		<g>
			<path d="M11.428,45.353c-4.944-2.352-5.736-5.376-5.952-8.472c-0.24-3.36,1.896-6.768,3.888-8.664
				c1.152-1.08,2.4-2.136,3.888-3.264c-0.048-0.84-0.24-1.176-0.336-2.376c-0.024-0.504-0.336-2.856,0.168-5.568
				c0.312-1.608,2.328-5.4,3.72-5.424c1.08-0.024,2.736,4.296,2.784,6.456c0.072,3.336-0.72,4.848-1.704,6.576
				c-0.504,0.864-1.032,1.464-1.584,2.136c-0.576,0.696-1.224,1.104-1.824,1.632c0,0,0.768,4.344,0.792,4.656
				c1.536-0.192,3.408,0.36,4.08,0.84c1.704,1.272,2.352,3.024,2.472,4.728c0.216,2.712-1.272,5.568-4.56,6.936
				c0,0,0.504,3.456,0.624,4.176c0.264,1.896,0.216,3.096-0.192,3.864c-0.696,1.296-1.824,2.496-4.008,2.64
				c-1.68,0.096-4.992-0.744-5.16-3.384c-0.096-1.56,0.6-3.24,2.496-3.36c1.152-0.096,2.52,0.864,2.616,2.232
				c0.096,1.176-0.672,2.4-2.664,2.952c0.312,0.432,1.248,0.936,2.592,0.936c1.392,0,2.832-0.936,3.528-2.184
				c0.432-0.816,0.384-2.28,0.216-3.624c-0.072-0.456-0.648-4.08-0.648-4.08C14.884,46.001,12.436,45.833,11.428,45.353z
				 M11.908,39.665c0.048,1.152,1.008,2.496,1.896,2.952c-0.12,0.072-0.24,0.264-0.24,0.264c-0.984-0.48-1.824-1.272-2.04-1.56
				c-0.696-0.936-0.984-1.464-1.08-2.88c-0.096-1.32,0.624-3.096,2.232-4.344c0.84-0.624,1.248-0.768,1.968-0.936l-0.72-4.344
				c-0.744,0.432-3.816,2.904-5.112,4.92c-1.152,1.8-1.848,3.24-1.704,5.016c0.288,4.008,4.68,7.296,9.432,6.168
				c0,0-1.416-8.52-1.392-8.52C12.532,36.497,11.835,38.513,11.908,39.665z M13.852,24.449c2.088-1.632,4.92-4.704,4.752-7.08
				c-0.048-0.744-0.36-2.088-1.44-2.064C14.691,15.329,13.3,20.489,13.852,24.449z M17.116,44.729
				c2.76-0.936,2.88-3.312,2.784-4.728c-0.096-1.176-0.624-3.816-4.128-3.648L17.116,44.729z"/>
		</g>
		<g>
			<g>
				<path d="M64.763,29.532c0.984,0,1.776,0.36,2.232,0.912V11.22h0.456v20.4c0,0.336-0.048,0.672-0.168,1.056
					c-0.648,1.704-2.784,3.072-4.8,3.048c-2.016-0.024-3.144-1.44-2.52-3.144S62.747,29.508,64.763,29.532z"/>
			</g>
			<g>
				<path d="M64.763,46.532c0.984,0,1.776,0.36,2.232,0.912V28.22h0.456v20.4c0,0.336-0.048,0.672-0.168,1.056
					c-0.648,1.704-2.784,3.072-4.8,3.048c-2.016-0.024-3.144-1.44-2.52-3.144S62.747,46.508,64.763,46.532z"/>
			</g>
			<g>
				<path d="M64.763,36.532c0.984,0,1.776,0.36,2.232,0.912V18.22h0.456v20.4c0,0.336-0.048,0.672-0.168,1.056
					c-0.648,1.704-2.784,3.072-4.8,3.048c-2.016-0.024-3.144-1.44-2.52-3.144S62.747,36.508,64.763,36.532z"/>
			</g>
			<g>
				<g>
					<path d="M83.763,29.532c0.984,0,1.776,0.36,2.232,0.912V11.22h0.456v20.4c0,0.336-0.048,0.672-0.168,1.056
						c-0.648,1.704-2.784,3.072-4.8,3.048c-2.016-0.024-3.144-1.44-2.52-3.144S81.747,29.508,83.763,29.532z"/>
				</g>
				<g>
					<path d="M83.763,46.532c0.984,0,1.776,0.36,2.232,0.912V28.22h0.456v20.4c0,0.336-0.048,0.672-0.168,1.056
						c-0.648,1.704-2.784,3.072-4.8,3.048c-2.016-0.024-3.144-1.44-2.52-3.144S81.747,46.508,83.763,46.532z"/>
				</g>
				<g>
					<path d="M83.763,36.532c0.984,0,1.776,0.36,2.232,0.912V18.22h0.456v20.4c0,0.336-0.048,0.672-0.168,1.056
						c-0.648,1.704-2.784,3.072-4.8,3.048c-2.016-0.024-3.144-1.44-2.52-3.144S81.747,36.508,83.763,36.532z"/>
				</g>
			</g>
			<path fill="none" stroke="#000000" stroke-width="2" d="M67.316,11.32h19"/>
		</g>
		<g>
			<g>
				<path d="M103.763,29.532c0.984,0,1.776,0.36,2.232,0.912V11.22h0.456v20.4c0,0.336-0.048,0.672-0.168,1.056
					c-0.648,1.704-2.784,3.072-4.8,3.048c-2.016-0.024-3.144-1.44-2.52-3.144S101.747,29.508,103.763,29.532z"/>
			</g>
			<g>
				<path d="M103.763,46.532c0.984,0,1.776,0.36,2.232,0.912V28.22h0.456v20.4c0,0.336-0.048,0.672-0.168,1.056
					c-0.648,1.704-2.784,3.072-4.8,3.048c-2.016-0.024-3.144-1.44-2.52-3.144S101.747,46.508,103.763,46.532z"/>
			</g>
			<g>
				<path d="M103.763,36.532c0.984,0,1.776,0.36,2.232,0.912V18.22h0.456v20.4c0,0.336-0.048,0.672-0.168,1.056
					c-0.648,1.704-2.784,3.072-4.8,3.048c-2.016-0.024-3.144-1.44-2.52-3.144S101.747,36.508,103.763,36.532z"/>
			</g>
			<g>
				<g>
					<path d="M122.763,29.532c0.984,0,1.776,0.36,2.232,0.912V11.22h0.456v20.4c0,0.336-0.048,0.672-0.168,1.056
						c-0.648,1.704-2.784,3.072-4.8,3.048c-2.016-0.024-3.144-1.44-2.52-3.144S120.747,29.508,122.763,29.532z"/>
				</g>
				<g>
					<path d="M122.763,46.532c0.984,0,1.776,0.36,2.232,0.912V28.22h0.456v20.4c0,0.336-0.048,0.672-0.168,1.056
						c-0.648,1.704-2.784,3.072-4.8,3.048c-2.016-0.024-3.144-1.44-2.52-3.144S120.747,46.508,122.763,46.532z"/>
				</g>
				<g>
					<path d="M122.763,36.532c0.984,0,1.776,0.36,2.232,0.912V18.22h0.456v20.4c0,0.336-0.048,0.672-0.168,1.056
						c-0.648,1.704-2.784,3.072-4.8,3.048c-2.016-0.024-3.144-1.44-2.52-3.144S120.747,36.508,122.763,36.532z"/>
				</g>
			</g>
			<path fill="none" stroke="#000000" stroke-width="2" d="M106.316,11.32h19"/>
		</g>
		<g>
			<g>
				<path d="M143.763,29.532c0.984,0,1.776,0.36,2.232,0.912V11.22h0.456v20.4c0,0.336-0.048,0.672-0.168,1.056
					c-0.648,1.704-2.784,3.072-4.8,3.048c-2.016-0.024-3.144-1.44-2.52-3.144S141.747,29.508,143.763,29.532z"/>
			</g>
			<g>
				<path d="M143.763,46.532c0.984,0,1.776,0.36,2.232,0.912V28.22h0.456v20.4c0,0.336-0.048,0.672-0.168,1.056
					c-0.648,1.704-2.784,3.072-4.8,3.048c-2.016-0.024-3.144-1.44-2.52-3.144S141.747,46.508,143.763,46.532z"/>
			</g>
			<g>
				<path d="M143.763,36.532c0.984,0,1.776,0.36,2.232,0.912V18.22h0.456v20.4c0,0.336-0.048,0.672-0.168,1.056
					c-0.648,1.704-2.784,3.072-4.8,3.048c-2.016-0.024-3.144-1.44-2.52-3.144S141.747,36.508,143.763,36.532z"/>
			</g>
			<g>
				<g>
					<path d="M162.763,29.532c0.984,0,1.776,0.36,2.232,0.912V11.22h0.456v20.4c0,0.336-0.048,0.672-0.168,1.056
						c-0.648,1.704-2.784,3.072-4.8,3.048c-2.016-0.024-3.144-1.44-2.52-3.144S160.747,29.508,162.763,29.532z"/>
				</g>
				<g>
					<path d="M162.763,46.532c0.984,0,1.776,0.36,2.232,0.912V28.22h0.456v20.4c0,0.336-0.048,0.672-0.168,1.056
						c-0.648,1.704-2.784,3.072-4.8,3.048c-2.016-0.024-3.144-1.44-2.52-3.144S160.747,46.508,162.763,46.532z"/>
				</g>
				<g>
					<path d="M162.763,36.532c0.984,0,1.776,0.36,2.232,0.912V18.22h0.456v20.4c0,0.336-0.048,0.672-0.168,1.056
						c-0.648,1.704-2.784,3.072-4.8,3.048c-2.016-0.024-3.144-1.44-2.52-3.144S160.747,36.508,162.763,36.532z"/>
				</g>
			</g>
			<path fill="none" stroke="#000000" stroke-width="2" d="M146.316,11.32h19"/>
		</g>
		<g>
			<g>
				<path d="M180.763,29.532c0.984,0,1.776,0.36,2.232,0.912V11.22h0.456v20.4c0,0.336-0.048,0.672-0.168,1.056
					c-0.648,1.704-2.784,3.072-4.8,3.048c-2.016-0.024-3.144-1.44-2.52-3.144S178.747,29.508,180.763,29.532z"/>
			</g>
			<g>
				<path d="M180.763,46.532c0.984,0,1.776,0.36,2.232,0.912V28.22h0.456v20.4c0,0.336-0.048,0.672-0.168,1.056
					c-0.648,1.704-2.784,3.072-4.8,3.048c-2.016-0.024-3.144-1.44-2.52-3.144S178.747,46.508,180.763,46.532z"/>
			</g>
			<g>
				<path d="M180.763,36.532c0.984,0,1.776,0.36,2.232,0.912V18.22h0.456v20.4c0,0.336-0.048,0.672-0.168,1.056
					c-0.648,1.704-2.784,3.072-4.8,3.048c-2.016-0.024-3.144-1.44-2.52-3.144S178.747,36.508,180.763,36.532z"/>
			</g>
			<g>
				<g>
					<path d="M199.763,29.532c0.984,0,1.776,0.36,2.232,0.912V11.22h0.456v20.4c0,0.336-0.048,0.672-0.168,1.056
						c-0.648,1.704-2.784,3.072-4.8,3.048c-2.016-0.024-3.144-1.44-2.52-3.144S197.747,29.508,199.763,29.532z"/>
				</g>
				<g>
					<path d="M199.763,46.532c0.984,0,1.776,0.36,2.232,0.912V28.22h0.456v20.4c0,0.336-0.048,0.672-0.168,1.056
						c-0.648,1.704-2.784,3.072-4.8,3.048c-2.016-0.024-3.144-1.44-2.52-3.144S197.747,46.508,199.763,46.532z"/>
				</g>
				<g>
					<path d="M199.763,36.532c0.984,0,1.776,0.36,2.232,0.912V18.22h0.456v20.4c0,0.336-0.048,0.672-0.168,1.056
						c-0.648,1.704-2.784,3.072-4.8,3.048c-2.016-0.024-3.144-1.44-2.52-3.144S197.747,36.508,199.763,36.532z"/>
				</g>
			</g>
			<path fill="none" stroke="#000000" stroke-width="2" d="M183.316,11.32h19"/>
		</g>
		<g>
			<g>
				<path d="M236.763,29.532c0.984,0,1.776,0.36,2.232,0.912V11.22h0.456v20.4c0,0.336-0.048,0.672-0.168,1.056
					c-0.648,1.704-2.784,3.072-4.8,3.048c-2.016-0.024-3.144-1.44-2.52-3.144S234.747,29.508,236.763,29.532z"/>
			</g>
			<g>
				<path d="M236.763,46.532c0.984,0,1.776,0.36,2.232,0.912V28.22h0.456v20.4c0,0.336-0.048,0.672-0.168,1.056
					c-0.648,1.704-2.784,3.072-4.8,3.048c-2.016-0.024-3.144-1.44-2.52-3.144S234.747,46.508,236.763,46.532z"/>
			</g>
			<g>
				<path d="M236.763,36.532c0.984,0,1.776,0.36,2.232,0.912V18.22h0.456v20.4c0,0.336-0.048,0.672-0.168,1.056
					c-0.648,1.704-2.784,3.072-4.8,3.048c-2.016-0.024-3.144-1.44-2.52-3.144S234.747,36.508,236.763,36.532z"/>
			</g>
			<g>
				<g>
					<path d="M255.763,29.532c0.984,0,1.776,0.36,2.232,0.912V11.22h0.456v20.4c0,0.336-0.048,0.672-0.168,1.056
						c-0.648,1.704-2.784,3.072-4.8,3.048c-2.016-0.024-3.144-1.44-2.52-3.144S253.747,29.508,255.763,29.532z"/>
				</g>
				<g>
					<path d="M255.763,46.532c0.984,0,1.776,0.36,2.232,0.912V28.22h0.456v20.4c0,0.336-0.048,0.672-0.168,1.056
						c-0.648,1.704-2.784,3.072-4.8,3.048c-2.016-0.024-3.144-1.44-2.52-3.144S253.747,46.508,255.763,46.532z"/>
				</g>
				<g>
					<path d="M255.763,36.532c0.984,0,1.776,0.36,2.232,0.912V18.22h0.456v20.4c0,0.336-0.048,0.672-0.168,1.056
						c-0.648,1.704-2.784,3.072-4.8,3.048c-2.016-0.024-3.144-1.44-2.52-3.144S253.747,36.508,255.763,36.532z"/>
				</g>
			</g>
			<path fill="none" stroke="#000000" stroke-width="2" d="M239.316,11.32h19"/>
		</g>
		<g>
			<path d="M275.763,29.532c0.984,0,1.776,0.36,2.232,0.912V11.22h0.456v20.4c0,0.336-0.048,0.672-0.168,1.056
				c-0.648,1.704-2.784,3.072-4.8,3.048c-2.016-0.024-3.144-1.44-2.52-3.144S273.747,29.508,275.763,29.532z"/>
		</g>
		<g>
			<path d="M275.763,46.532c0.984,0,1.776,0.36,2.232,0.912V28.22h0.456v20.4c0,0.336-0.048,0.672-0.168,1.056
				c-0.648,1.704-2.784,3.072-4.8,3.048c-2.016-0.024-3.144-1.44-2.52-3.144S273.747,46.508,275.763,46.532z"/>
		</g>
		<g>
			<path d="M275.763,36.532c0.984,0,1.776,0.36,2.232,0.912V18.22h0.456v20.4c0,0.336-0.048,0.672-0.168,1.056
				c-0.648,1.704-2.784,3.072-4.8,3.048c-2.016-0.024-3.144-1.44-2.52-3.144S273.747,36.508,275.763,36.532z"/>
		</g>
		<g>
			<g>
				<path fill="#FF0000" d="M294.764,29.532c0.983,0,1.775,0.36,2.231,0.912V11.22h0.456v20.4c0,0.336-0.048,0.672-0.168,1.056
					c-0.648,1.704-2.784,3.072-4.8,3.048c-2.017-0.024-3.145-1.44-2.521-3.144S292.747,29.508,294.764,29.532z"/>
			</g>
			<g>
				<path fill="#FF0000" d="M294.764,46.532c0.983,0,1.775,0.36,2.231,0.912V28.22h0.456v20.4c0,0.336-0.048,0.672-0.168,1.056
					c-0.648,1.704-2.784,3.072-4.8,3.048c-2.017-0.024-3.145-1.44-2.521-3.144S292.747,46.508,294.764,46.532z"/>
			</g>
			<g>
				<path fill="#FF0000" d="M294.764,36.532c0.983,0,1.775,0.36,2.231,0.912V18.22h0.456v20.4c0,0.336-0.048,0.672-0.168,1.056
					c-0.648,1.704-2.784,3.072-4.8,3.048c-2.017-0.024-3.145-1.44-2.521-3.144S292.747,36.508,294.764,36.532z"/>
			</g>
		</g>
		<path fill="none" stroke="#000000" stroke-width="2" d="M278.316,11.32h19"/>
		<g>
			<g>
				<path d="M315.764,29.532c0.983,0,1.775,0.36,2.231,0.912V11.22h0.456v20.4c0,0.336-0.048,0.672-0.168,1.056
					c-0.648,1.704-2.784,3.072-4.8,3.048c-2.017-0.024-3.145-1.44-2.521-3.144S313.747,29.508,315.764,29.532z"/>
			</g>
			<g>
				<path d="M315.764,46.532c0.983,0,1.775,0.36,2.231,0.912V28.22h0.456v20.4c0,0.336-0.048,0.672-0.168,1.056
					c-0.648,1.704-2.784,3.072-4.8,3.048c-2.017-0.024-3.145-1.44-2.521-3.144S313.747,46.508,315.764,46.532z"/>
			</g>
			<g>
				<path d="M315.764,36.532c0.983,0,1.775,0.36,2.231,0.912V18.22h0.456v20.4c0,0.336-0.048,0.672-0.168,1.056
					c-0.648,1.704-2.784,3.072-4.8,3.048c-2.017-0.024-3.145-1.44-2.521-3.144S313.747,36.508,315.764,36.532z"/>
			</g>
			<g>
				<g>
					<path d="M334.764,29.532c0.983,0,1.775,0.36,2.231,0.912V11.22h0.456v20.4c0,0.336-0.048,0.672-0.168,1.056
						c-0.648,1.704-2.784,3.072-4.8,3.048c-2.017-0.024-3.145-1.44-2.521-3.144S332.747,29.508,334.764,29.532z"/>
				</g>
				<g>
					<path d="M334.764,46.532c0.983,0,1.775,0.36,2.231,0.912V28.22h0.456v20.4c0,0.336-0.048,0.672-0.168,1.056
						c-0.648,1.704-2.784,3.072-4.8,3.048c-2.017-0.024-3.145-1.44-2.521-3.144S332.747,46.508,334.764,46.532z"/>
				</g>
				<g>
					<path d="M334.764,36.532c0.983,0,1.775,0.36,2.231,0.912V18.22h0.456v20.4c0,0.336-0.048,0.672-0.168,1.056
						c-0.648,1.704-2.784,3.072-4.8,3.048c-2.017-0.024-3.145-1.44-2.521-3.144S332.747,36.508,334.764,36.532z"/>
				</g>
			</g>
			<path fill="none" stroke="#000000" stroke-width="2" d="M318.316,11.32h19"/>
		</g>
		<g>
			<g>
				<path d="M352.764,29.532c0.983,0,1.775,0.36,2.231,0.912V11.22h0.456v20.4c0,0.336-0.048,0.672-0.168,1.056
					c-0.648,1.704-2.784,3.072-4.8,3.048c-2.017-0.024-3.145-1.44-2.521-3.144S350.747,29.508,352.764,29.532z"/>
			</g>
			<g>
				<path d="M352.764,46.532c0.983,0,1.775,0.36,2.231,0.912V28.22h0.456v20.4c0,0.336-0.048,0.672-0.168,1.056
					c-0.648,1.704-2.784,3.072-4.8,3.048c-2.017-0.024-3.145-1.44-2.521-3.144S350.747,46.508,352.764,46.532z"/>
			</g>
			<g>
				<path d="M352.764,36.532c0.983,0,1.775,0.36,2.231,0.912V18.22h0.456v20.4c0,0.336-0.048,0.672-0.168,1.056
					c-0.648,1.704-2.784,3.072-4.8,3.048c-2.017-0.024-3.145-1.44-2.521-3.144S350.747,36.508,352.764,36.532z"/>
			</g>
			<g>
				<g>
					<path d="M371.764,29.532c0.983,0,1.775,0.36,2.231,0.912V11.22h0.456v20.4c0,0.336-0.048,0.672-0.168,1.056
						c-0.648,1.704-2.784,3.072-4.8,3.048c-2.017-0.024-3.145-1.44-2.521-3.144S369.747,29.508,371.764,29.532z"/>
				</g>
				<g>
					<path d="M371.764,46.532c0.983,0,1.775,0.36,2.231,0.912V28.22h0.456v20.4c0,0.336-0.048,0.672-0.168,1.056
						c-0.648,1.704-2.784,3.072-4.8,3.048c-2.017-0.024-3.145-1.44-2.521-3.144S369.747,46.508,371.764,46.532z"/>
				</g>
				<g>
					<path d="M371.764,36.532c0.983,0,1.775,0.36,2.231,0.912V18.22h0.456v20.4c0,0.336-0.048,0.672-0.168,1.056
						c-0.648,1.704-2.784,3.072-4.8,3.048c-2.017-0.024-3.145-1.44-2.521-3.144S369.747,36.508,371.764,36.532z"/>
				</g>
			</g>
			<path fill="none" stroke="#000000" stroke-width="2" d="M355.316,11.32h19"/>
		</g>
		<path fill="none" stroke="#0A0A0A" d="M391.551,17.354V47.1"/>
		<g>
			<path d="M65.34,6.336l7.224-2.688L65.34,0.96V0l9.528,3.648L65.34,7.296V6.336z"/>
		</g>
		<g>
			<path d="M144.34,6.336l7.224-2.688L144.34,0.96V0l9.528,3.648l-9.528,3.648V6.336z"/>
		</g>
		<g>
			<path d="M237.34,6.336l7.224-2.688L237.34,0.96V0l9.528,3.648l-9.528,3.648V6.336z"/>
		</g>
		<g>
			<path fill="#FF0000" d="M291.341,6.336l7.224-2.688l-7.224-2.688V0l9.527,3.648l-9.527,3.648V6.336z"/>
		</g>
	</g>
</svg>
