<?xml version="1.0" encoding="utf-8"?>
<!-- Generator: Adobe Illustrator 10.0, SVG Export Plug-In . SVG Version: 3.0.0 Build 76)  -->
<!DOCTYPE svg PUBLIC "-//W3C//DTD SVG 1.0//EN"    "http://www.w3.org/TR/2001/REC-SVG-20010904/DTD/svg10.dtd" [
	<!ENTITY ns_flows "http://ns.adobe.com/Flows/1.0/">
	<!ENTITY ns_extend "http://ns.adobe.com/Extensibility/1.0/">
	<!ENTITY ns_ai "http://ns.adobe.com/AdobeIllustrator/10.0/">
	<!ENTITY ns_svg "http://www.w3.org/2000/svg">
	<!ENTITY ns_xlink "http://www.w3.org/1999/xlink">
]>
<svg  xmlns:x="&ns_extend;" xmlns:i="&ns_ai;" xmlns:graph="&ns_graphs;"
	 xmlns="&ns_svg;" xmlns:xlink="&ns_xlink;" xmlns:a="http://ns.adobe.com/AdobeSVGViewerExtensions/3.0/" width="476" height="162"
	 viewBox="0.2 0.044 476 162" overflow="visible" enable-background="new 0.2 0.044 476 162" xml:space="preserve">
	<g id="Layer_1_2_">
		<g>
			<path fill="none" stroke="#000000" d="M0.127,34.555h475.274"/>
			<path fill="none" stroke="#000000" d="M0.127,49.667h475.274"/>
			<path fill="none" stroke="#000000" d="M0.363,56.789h475.275"/>
			<path fill="none" stroke="#000000" d="M0,64.173h475.273"/>
			<path fill="none" stroke="#000000" d="M0,41.809h475.273"/>
		</g>
		<path stroke="#000000" stroke-miterlimit="1" d="M444.2,133.044h-8.513v-3.142h8.513V133.044z"/>
		<path fill="none" stroke="#0A0A0A" d="M92.717,33.953v29.746"/>
		<g>
			<path d="M114.507,154.262c-0.713,0-1.217-0.536-1.217-1.25s0.524-1.25,1.259-1.25s1.238,0.516,1.238,1.25
				c0,0.714-0.503,1.25-1.259,1.25H114.507z"/>
		</g>
		<g>
			<path d="M57.032,48.293c-1.68,0-2.352-1.32-3.552-1.32c-0.864,0-1.608,0.624-1.824,1.344c-0.216,0-0.504,0-0.456,0
				c-0.12-0.912,0.144-1.656,0.216-1.848c0.528-1.392,1.56-2.328,2.352-2.808c3.192-2.016,3.6-2.496,3.6-4.008
				c0.024-1.512-1.008-2.688-2.16-2.688c-0.336,0-1.752,0.576-1.8,1.2c-0.048,0.456,1.272,0.576,1.608,1.776
				c0.288,0.912-0.432,2.088-1.584,2.088c-1.632,0-2.016-1.464-1.992-2.424c0.096-1.848,2.424-3.192,4.44-3.192
				c1.608,0,4.656,0.144,4.656,3.624c0,1.104-0.912,2.04-2.088,2.52c-0.936,0.384-4.68,1.464-4.92,2.232
				c1.992-0.888,4.416,0.576,4.656,0.576c0.864,0,1.368-0.528,1.656-1.344c0.264,0,0.144,0.12,0.432,0.12
				C59.936,46.013,59,48.293,57.032,48.293z"/>
		</g>
		<g>
			<path d="M58.192,59.029v1.584c0,0.96,1.128,0.936,1.128,0.936v0.624h-5.208v-0.624c0,0,1.176,0.048,1.152-0.888v-1.632h-4.44
				l-0.432-0.456c2.904-3.912,2.928-4.632,3.624-8.184h4.152c-0.984,1.824-4.296,5.256-6.624,7.968h3.72v-2.952l2.928-3.216v6.168
				h1.728v0.672H58.192z"/>
		</g>
		<g>
			<path d="M25.438,31.093v-3.912h0.696v3.672l2.352-0.768v-3.504h0.696v3.288l0.936-0.312v2.496l-0.936,0.312v3.552l0.936-0.288
				v2.472l-0.936,0.312v3.912h-0.696v-3.696l-2.352,0.768v3.552h-0.696v-3.312l-1.032,0.336v-2.496l1.032-0.336v-3.576l-1.032,0.336
				v-2.472L25.438,31.093z M26.134,33.35v3.576l2.352-0.768v-3.576L26.134,33.35z"/>
		</g>
		<g>
			<path d="M9.324,63.767c-4.944-2.352-5.736-5.376-5.952-8.472c-0.24-3.36,1.896-6.768,3.888-8.664
				c1.152-1.08,2.4-2.136,3.888-3.264c-0.048-0.84-0.24-1.176-0.336-2.376c-0.024-0.504-0.336-2.856,0.168-5.568
				c0.312-1.608,2.328-5.4,3.72-5.424c1.08-0.024,2.736,4.296,2.784,6.456c0.072,3.336-0.72,4.848-1.704,6.576
				c-0.504,0.864-1.032,1.464-1.584,2.136c-0.576,0.696-1.224,1.104-1.824,1.632c0,0,0.768,4.344,0.792,4.656
				c1.536-0.192,3.408,0.36,4.08,0.84c1.704,1.272,2.352,3.024,2.472,4.728c0.216,2.712-1.272,5.568-4.56,6.936
				c0,0,0.504,3.456,0.624,4.176c0.264,1.896,0.216,3.096-0.192,3.864c-0.696,1.296-1.824,2.496-4.008,2.64
				c-1.68,0.096-4.992-0.744-5.16-3.384c-0.096-1.56,0.6-3.24,2.496-3.36c1.152-0.096,2.52,0.864,2.616,2.232
				c0.096,1.176-0.672,2.4-2.664,2.952c0.312,0.432,1.248,0.936,2.592,0.936c1.392,0,2.832-0.936,3.528-2.184
				c0.432-0.816,0.384-2.28,0.216-3.624c-0.072-0.456-0.648-4.08-0.648-4.08C12.78,64.415,10.332,64.247,9.324,63.767z
				 M9.804,58.079c0.048,1.152,1.008,2.496,1.896,2.952c-0.12,0.072-0.24,0.264-0.24,0.264c-0.984-0.48-1.824-1.272-2.04-1.56
				c-0.696-0.936-0.984-1.464-1.08-2.88c-0.096-1.32,0.624-3.096,2.232-4.344c0.84-0.624,1.248-0.768,1.968-0.936l-0.72-4.344
				c-0.744,0.432-3.816,2.904-5.112,4.92c-1.152,1.8-1.848,3.24-1.704,5.016c0.288,4.008,4.68,7.296,9.432,6.168
				c0,0-1.416-8.52-1.392-8.52C10.428,54.911,9.732,56.927,9.804,58.079z M11.748,42.863c2.088-1.632,4.92-4.704,4.752-7.08
				c-0.048-0.744-0.36-2.088-1.44-2.064C12.588,33.743,11.196,38.903,11.748,42.863z M15.012,63.143
				c2.76-0.936,2.88-3.312,2.784-4.728c-0.096-1.176-0.624-3.816-4.128-3.648L15.012,63.143z"/>
		</g>
		<g>
			<path d="M79.096,149.221c0.984,0,1.776,0.36,2.232,0.912v-19.224h0.456v20.4c0,0.336-0.048,0.672-0.168,1.056
				c-0.648,1.704-2.784,3.072-4.8,3.048c-2.016-0.024-3.144-1.44-2.52-3.144S77.08,149.197,79.096,149.221z"/>
		</g>
		<g>
			<path d="M77.144,65.197c1.008,0.024,1.776,0.36,2.232,0.912V46.765h0.456c0,1.176,0.552,2.568,1.248,3.552
				c0.792,1.08,1.752,2.352,2.688,3.888c0.792,1.344,1.44,3.456,1.56,4.416c0.144,0.984,0.216,1.968,0.192,2.928
				c-0.024,1.44-0.24,2.808-0.72,4.08l-0.288-0.144c0.432-1.08,0.648-2.664,0.648-4.032c0-1.128-0.192-2.64-0.6-3.792
				c-0.72-2.136-1.92-3.384-2.616-3.864c-1.08-0.696-2.112-0.744-2.112-0.744v14.16c0.024,0.36-0.024,0.744-0.168,1.128
				c-0.624,1.704-2.784,3.072-4.8,3.048s-3.144-1.416-2.496-3.144C72.992,66.541,75.128,65.173,77.144,65.197z"/>
		</g>
		<g>
			<path d="M198.44,141.005c0.456-1.248,1.488-2.256,2.256-2.64c0.768-0.36,1.752-0.552,2.88-0.456
				c0.576,0.048,1.584,0.216,2.16,0.816v-19.224h0.456v20.496c0,0.096-0.024,0.168-0.024,0.24c-0.048,0.432-0.168,0.792-0.264,1.032
				c-0.456,1.248-1.44,2.088-2.184,2.52s-1.872,0.744-3.24,0.6c-0.528-0.072-1.68-0.168-2.16-1.032
				C197.936,142.709,198.271,141.485,198.44,141.005z M201.32,143.021c0.552-0.288,0.96-0.528,1.464-0.792
				c0.48-0.288,0.912-0.552,1.44-0.888c0.72-0.456,1.656-1.248,1.176-2.064c-0.48-0.816-1.656-0.408-2.4-0.048
				c-0.576,0.288-1.032,0.528-1.512,0.816c-0.48,0.264-0.912,0.504-1.416,0.84c-0.72,0.456-1.656,1.272-1.152,2.088
				C199.375,143.789,200.552,143.381,201.32,143.021z"/>
		</g>
		<g>
			<path d="M112.295,64.221c0.984,0,1.776,0.36,2.232,0.912V45.909h0.456v20.4c0,0.336-0.048,0.672-0.168,1.056
				c-0.648,1.704-2.784,3.072-4.8,3.048c-2.016-0.024-3.144-1.44-2.52-3.144S110.279,64.197,112.295,64.221z"/>
		</g>
		<g>
			<path d="M119.041,67.94c-0.713,0-1.217-0.536-1.217-1.25s0.524-1.25,1.259-1.25s1.238,0.516,1.238,1.25
				c0,0.714-0.503,1.25-1.259,1.25H119.041z"/>
		</g>
		<g>
			<path d="M133.629,53.554c0.984,0,1.776,0.36,2.232,0.912V35.242h0.456v20.4c0,0.336-0.048,0.672-0.168,1.056
				c-0.648,1.704-2.784,3.072-4.8,3.048c-2.016-0.024-3.144-1.44-2.52-3.144S131.613,53.53,133.629,53.554z"/>
		</g>
		<path fill="none" stroke="#000000" stroke-width="3" d="M114.399,46.389l22-12"/>
		<path fill="none" stroke="#000000" stroke-width="3" d="M128.952,44.744l6.563-3.375"/>
		<g>
			<path d="M155.729,53.594c0.984,0,1.776,0.36,2.232,0.912V35.282h0.456v20.4c0,0.336-0.048,0.672-0.168,1.056
				c-0.648,1.704-2.784,3.072-4.8,3.048c-2.016-0.024-3.144-1.44-2.52-3.144S153.713,53.57,155.729,53.594z"/>
		</g>
		<g>
			<path d="M175.231,53.761c0.984,0,1.776,0.36,2.232,0.912V35.449h0.456v20.4c0,0.336-0.048,0.672-0.168,1.056
				c-0.648,1.704-2.784,3.072-4.8,3.048c-2.016-0.024-3.144-1.44-2.52-3.144S173.215,53.737,175.231,53.761z"/>
		</g>
		<path fill="none" stroke="#000000" stroke-width="3" d="M157.835,35.263h20.001"/>
		<g>
			<path fill="none" stroke="#000000" d="M440.069,36.659l3.235,3.811"/>
			<path fill="none" stroke="#000000" stroke-width="4" d="M439.29,49.146l4.964-8.455"/>
			<path fill="none" stroke="#000000" d="M438.919,48.172l5.811,5.55"/>
			<path fill="none" stroke="#000000" d="M442.386,61.222l-2.726-4.746"/>
			<g>
				<g>
					<path fill="none" d="M444.514,54.069c-1.618-0.661-3.465-0.447-4.615,1.661"/>
					<path d="M444.859,53.139c-2.295-0.877-4.531-0.109-5.772,2.022c-0.64,1.099,0.98,2.246,1.625,1.139
						c0.806-1.383,1.946-1.878,3.458-1.3C445.369,55.458,446.052,53.595,444.859,53.139z"/>
				</g>
			</g>
		</g>
		<g>
			<path d="M36.37,40.989v-3.912h0.696v3.672l2.352-0.768v-3.504h0.696v3.288l0.936-0.312v2.496l-0.936,0.312v3.552l0.936-0.288
				v2.472l-0.936,0.312v3.912h-0.696v-3.696l-2.352,0.768v3.552H36.37v-3.312l-1.032,0.336v-2.496l1.032-0.336v-3.576l-1.032,0.336
				v-2.472L36.37,40.989z M37.066,43.246v3.576l2.352-0.768v-3.576L37.066,43.246z"/>
		</g>
		<path fill="none" stroke="#0A0A0A" d="M185.717,35.953v29.746"/>
		<path fill="none" stroke="#0A0A0A" d="M270.717,33.953v29.746"/>
		<path fill="none" stroke="#0A0A0A" d="M379.717,34.953v29.746"/>
		<path fill="none" stroke="#0A0A0A" d="M474.918,34.576v29.746"/>
		<g>
			<path fill="none" stroke="#000000" d="M1.127,118.555h475.274"/>
			<path fill="none" stroke="#000000" d="M1.127,133.667h475.274"/>
			<path fill="none" stroke="#000000" d="M1.363,140.789h475.275"/>
			<path fill="none" stroke="#000000" d="M1,148.173h475.273"/>
			<path fill="none" stroke="#000000" d="M1,125.809h475.273"/>
		</g>
		<path fill="none" stroke="#0A0A0A" d="M93.717,117.953v29.746"/>
		<g>
			<path d="M26.438,115.093v-3.912h0.696v3.672l2.352-0.768v-3.504h0.696v3.288l0.936-0.312v2.496l-0.936,0.312v3.552l0.936-0.288
				v2.472l-0.936,0.312v3.912h-0.696v-3.696l-2.352,0.768v3.552h-0.696v-3.312l-1.032,0.336v-2.496l1.032-0.336v-3.576l-1.032,0.336
				v-2.472L26.438,115.093z M27.134,117.35v3.576l2.352-0.768v-3.576L27.134,117.35z"/>
		</g>
		<g>
			<path d="M10.324,147.767c-4.944-2.352-5.736-5.376-5.952-8.472c-0.24-3.36,1.896-6.768,3.888-8.664
				c1.152-1.08,2.4-2.136,3.888-3.264c-0.048-0.84-0.24-1.176-0.336-2.376c-0.024-0.504-0.336-2.856,0.168-5.568
				c0.312-1.608,2.328-5.4,3.72-5.424c1.08-0.024,2.736,4.296,2.784,6.456c0.072,3.336-0.72,4.848-1.704,6.576
				c-0.504,0.864-1.032,1.464-1.584,2.136c-0.576,0.696-1.224,1.104-1.824,1.632c0,0,0.768,4.344,0.792,4.656
				c1.536-0.192,3.408,0.36,4.08,0.84c1.704,1.272,2.352,3.024,2.472,4.728c0.216,2.712-1.272,5.568-4.56,6.936
				c0,0,0.504,3.456,0.624,4.176c0.264,1.896,0.216,3.096-0.192,3.864c-0.696,1.296-1.824,2.496-4.008,2.64
				c-1.68,0.096-4.992-0.744-5.16-3.384c-0.096-1.56,0.6-3.24,2.496-3.36c1.152-0.096,2.52,0.864,2.616,2.232
				c0.096,1.176-0.672,2.4-2.664,2.952c0.312,0.432,1.248,0.936,2.592,0.936c1.392,0,2.832-0.936,3.528-2.184
				c0.432-0.816,0.384-2.28,0.216-3.624c-0.072-0.456-0.648-4.08-0.648-4.08C13.78,148.415,11.332,148.247,10.324,147.767z
				 M10.804,142.079c0.048,1.152,1.008,2.496,1.896,2.952c-0.12,0.072-0.24,0.264-0.24,0.264c-0.984-0.48-1.824-1.272-2.04-1.56
				c-0.696-0.936-0.984-1.464-1.08-2.88c-0.096-1.32,0.624-3.096,2.232-4.344c0.84-0.624,1.248-0.768,1.968-0.936l-0.72-4.344
				c-0.744,0.432-3.816,2.904-5.112,4.92c-1.152,1.8-1.848,3.24-1.704,5.016c0.288,4.008,4.68,7.296,9.432,6.168
				c0,0-1.416-8.52-1.392-8.52C11.428,138.911,10.732,140.927,10.804,142.079z M12.748,126.863c2.088-1.632,4.92-4.704,4.752-7.08
				c-0.048-0.744-0.36-2.088-1.44-2.064C13.588,117.743,12.196,122.903,12.748,126.863z M16.012,147.143
				c2.76-0.936,2.88-3.312,2.784-4.728c-0.096-1.176-0.624-3.816-4.128-3.648L16.012,147.143z"/>
		</g>
		<g>
			<path d="M37.37,124.989v-3.912h0.696v3.672l2.352-0.768v-3.504h0.696v3.288l0.936-0.312v2.496l-0.936,0.312v3.552l0.936-0.288
				v2.472l-0.936,0.312v3.912h-0.696v-3.696l-2.352,0.768v3.552H37.37v-3.312l-1.032,0.336v-2.496l1.032-0.336v-3.576l-1.032,0.336
				v-2.472L37.37,124.989z M38.066,127.246v3.576l2.352-0.768v-3.576L38.066,127.246z"/>
		</g>
		<path fill="none" stroke="#0A0A0A" d="M187.717,119.953v29.746"/>
		<path fill="none" stroke="#0A0A0A" d="M270.717,117.953v29.746"/>
		<path fill="none" stroke="#0A0A0A" d="M380.717,118.953v29.746"/>
		<path fill="none" stroke="#0A0A0A" d="M475.918,118.576v29.746"/>
		<g>
			<path d="M57.032,133.293c-1.68,0-2.352-1.32-3.552-1.32c-0.864,0-1.608,0.624-1.824,1.344c-0.216,0-0.504,0-0.456,0
				c-0.12-0.912,0.144-1.656,0.216-1.848c0.528-1.392,1.56-2.328,2.352-2.808c3.192-2.016,3.6-2.496,3.6-4.008
				c0.024-1.512-1.008-2.688-2.16-2.688c-0.336,0-1.752,0.576-1.8,1.2c-0.048,0.456,1.272,0.576,1.608,1.776
				c0.288,0.912-0.432,2.088-1.584,2.088c-1.632,0-2.016-1.464-1.992-2.424c0.096-1.848,2.424-3.192,4.44-3.192
				c1.608,0,4.656,0.144,4.656,3.624c0,1.104-0.912,2.04-2.088,2.52c-0.936,0.384-4.68,1.464-4.92,2.232
				c1.992-0.888,4.416,0.576,4.656,0.576c0.864,0,1.368-0.528,1.656-1.344c0.264,0,0.144,0.12,0.432,0.12
				C59.936,131.013,59,133.293,57.032,133.293z"/>
		</g>
		<g>
			<path d="M57.032,147.293c-1.68,0-2.352-1.32-3.552-1.32c-0.864,0-1.608,0.624-1.824,1.344c-0.216,0-0.504,0-0.456,0
				c-0.12-0.912,0.144-1.656,0.216-1.848c0.528-1.392,1.56-2.328,2.352-2.808c3.192-2.016,3.6-2.496,3.6-4.008
				c0.024-1.512-1.008-2.688-2.16-2.688c-0.336,0-1.752,0.576-1.8,1.2c-0.048,0.456,1.272,0.576,1.608,1.776
				c0.288,0.912-0.432,2.088-1.584,2.088c-1.632,0-2.016-1.464-1.992-2.424c0.096-1.848,2.424-3.192,4.44-3.192
				c1.608,0,4.656,0.144,4.656,3.624c0,1.104-0.912,2.04-2.088,2.52c-0.936,0.384-4.68,1.464-4.92,2.232
				c1.992-0.888,4.416,0.576,4.656,0.576c0.864,0,1.368-0.528,1.656-1.344c0.264,0,0.144,0.12,0.432,0.12
				C59.936,145.013,59,147.293,57.032,147.293z"/>
		</g>
		<g>
			<path d="M108.096,149.221c0.984,0,1.776,0.36,2.232,0.912v-19.224h0.456v20.4c0,0.336-0.048,0.672-0.168,1.056
				c-0.648,1.704-2.784,3.072-4.8,3.048c-2.016-0.024-3.144-1.44-2.52-3.144S106.08,149.197,108.096,149.221z"/>
		</g>
		<g>
			<path d="M155.096,138.221c0.984,0,1.776,0.36,2.232,0.912v-19.224h0.456v20.4c0,0.336-0.048,0.672-0.168,1.056
				c-0.648,1.704-2.784,3.072-4.8,3.048c-2.016-0.024-3.144-1.44-2.52-3.144S153.08,138.197,155.096,138.221z"/>
		</g>
		<g>
			<path d="M174.096,138.221c0.984,0,1.776,0.36,2.232,0.912v-19.224h0.456v20.4c0,0.336-0.048,0.672-0.168,1.056
				c-0.648,1.704-2.784,3.072-4.8,3.048c-2.016-0.024-3.144-1.44-2.52-3.144S172.08,138.197,174.096,138.221z"/>
		</g>
		<g>
			<path d="M235.096,142.221c0.984,0,1.776,0.36,2.232,0.912v-19.224h0.456v20.4c0,0.336-0.048,0.672-0.168,1.056
				c-0.648,1.704-2.784,3.072-4.8,3.048c-2.016-0.024-3.144-1.44-2.52-3.144S233.08,142.197,235.096,142.221z"/>
		</g>
		<g>
			<path d="M255.096,138.221c0.984,0,1.776,0.36,2.232,0.912v-19.224h0.456v20.4c0,0.336-0.048,0.672-0.168,1.056
				c-0.648,1.704-2.784,3.072-4.8,3.048c-2.016-0.024-3.144-1.44-2.52-3.144S253.08,138.197,255.096,138.221z"/>
		</g>
		<g>
			<path d="M284.096,134.221c0.983,0,1.775,0.36,2.231,0.912v-19.224h0.456v20.4c0,0.336-0.048,0.672-0.168,1.056
				c-0.648,1.704-2.784,3.072-4.8,3.048c-2.016-0.024-3.144-1.44-2.52-3.144S282.08,134.197,284.096,134.221z"/>
		</g>
		<g>
			<path d="M335.096,149.221c0.983,0,1.775,0.36,2.231,0.912v-19.224h0.456v20.4c0,0.336-0.048,0.672-0.168,1.056
				c-0.648,1.704-2.784,3.072-4.8,3.048c-2.017-0.024-3.145-1.44-2.521-3.144S333.08,149.197,335.096,149.221z"/>
		</g>
		<g>
			<path d="M359.096,149.221c0.983,0,1.775,0.36,2.231,0.912v-19.224h0.456v20.4c0,0.336-0.048,0.672-0.168,1.056
				c-0.648,1.704-2.784,3.072-4.8,3.048c-2.017-0.024-3.145-1.44-2.521-3.144S357.08,149.197,359.096,149.221z"/>
		</g>
		<g>
			<path d="M396.44,151.005c0.456-1.248,1.487-2.256,2.256-2.64c0.768-0.36,1.752-0.552,2.88-0.456
				c0.576,0.048,1.584,0.216,2.16,0.816v-19.224h0.456v20.496c0,0.096-0.024,0.168-0.024,0.24c-0.048,0.432-0.168,0.792-0.264,1.032
				c-0.456,1.248-1.44,2.088-2.184,2.52c-0.744,0.432-1.872,0.744-3.24,0.6c-0.528-0.072-1.681-0.168-2.16-1.032
				C395.936,152.709,396.272,151.485,396.44,151.005z M399.32,153.021c0.552-0.288,0.96-0.528,1.464-0.792
				c0.48-0.288,0.912-0.552,1.44-0.888c0.72-0.456,1.655-1.248,1.176-2.064c-0.48-0.816-1.656-0.408-2.4-0.048
				c-0.576,0.288-1.032,0.528-1.512,0.816c-0.48,0.264-0.912,0.504-1.416,0.84c-0.72,0.456-1.656,1.272-1.152,2.088
				C397.375,153.789,398.551,153.381,399.32,153.021z"/>
		</g>
		<g>
			<path d="M135.144,138.197c1.008,0.024,1.776,0.36,2.232,0.912v-19.344h0.456c0,1.176,0.552,2.568,1.248,3.552
				c0.792,1.08,1.752,2.352,2.688,3.888c0.792,1.344,1.44,3.456,1.56,4.416c0.144,0.984,0.216,1.968,0.192,2.928
				c-0.024,1.44-0.24,2.808-0.72,4.08l-0.288-0.144c0.432-1.08,0.648-2.664,0.648-4.032c0-1.128-0.192-2.64-0.6-3.792
				c-0.72-2.136-1.92-3.384-2.616-3.864c-1.08-0.696-2.112-0.744-2.112-0.744v14.16c0.024,0.36-0.024,0.744-0.168,1.128
				c-0.624,1.704-2.784,3.072-4.8,3.048s-3.144-1.416-2.496-3.144C130.992,139.541,133.128,138.173,135.144,138.197z"/>
		</g>
		<g>
			<path d="M312.144,149.197c1.008,0.024,1.775,0.36,2.231,0.912v-19.344h0.456c0,1.176,0.552,2.568,1.248,3.552
				c0.792,1.08,1.752,2.352,2.688,3.888c0.792,1.344,1.439,3.456,1.56,4.416c0.145,0.984,0.216,1.968,0.192,2.928
				c-0.024,1.44-0.24,2.808-0.721,4.08l-0.287-0.144c0.432-1.08,0.647-2.664,0.647-4.032c0-1.128-0.191-2.64-0.6-3.792
				c-0.721-2.136-1.92-3.384-2.616-3.864c-1.08-0.696-2.112-0.744-2.112-0.744v14.16c0.024,0.36-0.023,0.744-0.168,1.128
				c-0.624,1.704-2.784,3.072-4.8,3.048s-3.145-1.416-2.496-3.144C307.992,150.541,310.127,149.173,312.144,149.197z"/>
		</g>
		<g>
			<path d="M291.507,139.262c-0.713,0-1.217-0.536-1.217-1.25s0.524-1.25,1.259-1.25s1.237,0.516,1.237,1.25
				c0,0.714-0.503,1.25-1.258,1.25H291.507z"/>
		</g>
		<g>
			<path d="M292.507,54.262c-0.713,0-1.217-0.536-1.217-1.25s0.524-1.25,1.259-1.25s1.237,0.516,1.237,1.25
				c0,0.714-0.503,1.25-1.258,1.25H292.507z"/>
		</g>
		<g>
			<path d="M202.096,54.221c0.984,0,1.776,0.36,2.232,0.912V35.909h0.456v20.4c0,0.336-0.048,0.672-0.168,1.056
				c-0.648,1.704-2.784,3.072-4.8,3.048c-2.016-0.024-3.144-1.44-2.52-3.144S200.08,54.197,202.096,54.221z"/>
		</g>
		<g>
			<path d="M234.096,57.221c0.984,0,1.776,0.36,2.232,0.912V38.909h0.456v20.4c0,0.336-0.048,0.672-0.168,1.056
				c-0.648,1.704-2.784,3.072-4.8,3.048c-2.016-0.024-3.144-1.44-2.52-3.144S232.08,57.197,234.096,57.221z"/>
		</g>
		<g>
			<path d="M253.096,54.221c0.984,0,1.776,0.36,2.232,0.912V35.909h0.456v20.4c0,0.336-0.048,0.672-0.168,1.056
				c-0.648,1.704-2.784,3.072-4.8,3.048c-2.016-0.024-3.144-1.44-2.52-3.144S251.08,54.197,253.096,54.221z"/>
		</g>
		<g>
			<path d="M285.096,50.221c0.983,0,1.775,0.36,2.231,0.912V31.909h0.456v20.4c0,0.336-0.048,0.672-0.168,1.056
				c-0.648,1.704-2.784,3.072-4.8,3.048c-2.017-0.024-3.144-1.44-2.521-3.144C280.919,51.565,283.08,50.197,285.096,50.221z"/>
		</g>
		<g>
			<path d="M315.096,64.876c0.983,0,1.775,0.36,2.231,0.912V46.564h0.456v20.4c0,0.336-0.048,0.672-0.168,1.056
				c-0.648,1.704-2.784,3.072-4.8,3.048c-2.017-0.024-3.145-1.44-2.521-3.144S313.08,64.852,315.096,64.876z"/>
		</g>
		<g>
			<path d="M335.73,64.594c0.983,0,1.775,0.36,2.231,0.912V46.282h0.456v20.4c0,0.336-0.048,0.672-0.168,1.056
				c-0.648,1.704-2.784,3.072-4.8,3.048c-2.017-0.024-3.145-1.44-2.521-3.144S333.713,64.57,335.73,64.594z"/>
		</g>
		<g>
			<path d="M355.232,64.761c0.983,0,1.775,0.36,2.231,0.912V46.449h0.456v20.4c0,0.336-0.048,0.672-0.168,1.056
				c-0.648,1.704-2.784,3.072-4.8,3.048c-2.017-0.024-3.145-1.44-2.521-3.144S353.215,64.737,355.232,64.761z"/>
		</g>
		<path fill="none" stroke="#000000" stroke-width="3" d="M337.835,46.263h20.001"/>
		<g>
			<path d="M404.096,64.221c0.983,0,1.775,0.36,2.231,0.912V45.909h0.456v20.4c0,0.336-0.048,0.672-0.168,1.056
				c-0.648,1.704-2.784,3.072-4.8,3.048c-2.017-0.024-3.145-1.44-2.521-3.144S402.08,64.197,404.096,64.221z"/>
		</g>
		<path fill="none" stroke="#000000" stroke-width="3" d="M236.2,39.044l19-4"/>
		<path fill="none" stroke="#000000" stroke-width="3" d="M307.991,47.287l9.418,4.514"/>
		<path fill="none" stroke="#000000" stroke-width="3" d="M288.2,31.044l30,15"/>
		<g>
			<path d="M8.98,14.844c0.861,0,1.554,0.292,1.953,0.739V0h0.399v16.537c0,0.272-0.042,0.544-0.147,0.856
				c-0.567,1.381-2.436,2.49-4.2,2.471s-2.751-1.167-2.205-2.549C5.326,15.934,7.216,14.825,8.98,14.844z"/>
		</g>
		<g>
			<path d="M16.68,15v-0.72h6.192V15H16.68z M16.68,17.352v-0.72h6.192v0.72H16.68z"/>
			<path d="M28.728,12.228h-0.024l-1.356,0.732l-0.204-0.804l1.704-0.912h0.9v7.8h-1.02V12.228z"/>
			<path d="M34.883,12.228h-0.024l-1.356,0.732l-0.204-0.804l1.704-0.912h0.9v7.8h-1.02V12.228z"/>
			<path d="M43.199,11.976c-0.216-0.012-0.492,0.012-0.792,0.06c-1.668,0.264-2.532,1.476-2.712,2.772h0.024
				c0.372-0.504,1.032-0.912,1.896-0.912c1.38,0,2.352,1.008,2.352,2.52c0,1.44-0.972,2.76-2.604,2.76
				c-1.656,0-2.748-1.296-2.748-3.324c0-1.536,0.54-2.748,1.32-3.528c0.648-0.636,1.512-1.032,2.496-1.152
				c0.312-0.048,0.576-0.06,0.768-0.06V11.976z M41.387,18.36c0.9,0,1.512-0.756,1.512-1.872c0-1.116-0.636-1.788-1.608-1.788
				c-0.636,0-1.236,0.384-1.524,0.96c-0.06,0.12-0.108,0.264-0.108,0.456c0.012,1.284,0.612,2.244,1.716,2.244H41.387z"/>
		</g>
		<g>
			<path d="M16.68,102v-0.72h6.192V102H16.68z M16.68,104.352v-0.72h6.192v0.72H16.68z"/>
			<path d="M28.728,99.228h-0.024l-1.356,0.732l-0.204-0.804l1.704-0.912h0.9v7.8h-1.02V99.228z"/>
			<path d="M34.883,99.228h-0.024l-1.356,0.732l-0.204-0.804l1.704-0.912h0.9v7.8h-1.02V99.228z"/>
			<path d="M43.199,98.976c-0.216-0.012-0.492,0.012-0.792,0.06c-1.668,0.264-2.532,1.476-2.712,2.772h0.024
				c0.372-0.504,1.032-0.912,1.896-0.912c1.38,0,2.352,1.008,2.352,2.52c0,1.44-0.972,2.76-2.604,2.76
				c-1.656,0-2.748-1.296-2.748-3.324c0-1.536,0.54-2.748,1.32-3.528c0.648-0.636,1.512-1.032,2.496-1.152
				c0.312-0.048,0.576-0.06,0.768-0.06V98.976z M41.387,105.36c0.9,0,1.512-0.756,1.512-1.872c0-1.116-0.636-1.788-1.608-1.788
				c-0.636,0-1.236,0.384-1.524,0.96c-0.06,0.12-0.108,0.264-0.108,0.456c0.012,1.284,0.612,2.244,1.716,2.244H41.387z"/>
		</g>
		<g>
			<path d="M5.64,104.233c0.371-0.959,1.21-1.734,1.835-2.029c0.625-0.277,1.425-0.424,2.343-0.351
				c0.469,0.037,1.289,0.166,1.757,0.627V87.707h0.371v15.751c0,0.074-0.02,0.129-0.02,0.185c-0.039,0.332-0.136,0.609-0.214,0.793
				c-0.371,0.959-1.171,1.605-1.777,1.937c-0.605,0.332-1.523,0.572-2.636,0.461c-0.429-0.055-1.366-0.129-1.757-0.793
				C5.23,105.542,5.503,104.602,5.64,104.233z M7.983,105.782c0.449-0.221,0.781-0.406,1.191-0.609
				c0.39-0.221,0.742-0.424,1.171-0.682c0.585-0.351,1.347-0.959,0.957-1.586s-1.347-0.313-1.952-0.037
				c-0.469,0.221-0.84,0.406-1.23,0.627c-0.391,0.203-0.742,0.387-1.152,0.646c-0.586,0.351-1.347,0.978-0.937,1.604
				C6.401,106.373,7.358,106.059,7.983,105.782z"/>
		</g>
	</g>
</svg>
