<?xml version="1.0" encoding="utf-8"?>
<!-- Generator: Adobe Illustrator 10.0, SVG Export Plug-In . SVG Version: 3.0.0 Build 76)  -->
<!DOCTYPE svg PUBLIC "-//W3C//DTD SVG 1.0//EN"    "http://www.w3.org/TR/2001/REC-SVG-20010904/DTD/svg10.dtd" [
	<!ENTITY ns_flows "http://ns.adobe.com/Flows/1.0/">
	<!ENTITY ns_extend "http://ns.adobe.com/Extensibility/1.0/">
	<!ENTITY ns_ai "http://ns.adobe.com/AdobeIllustrator/10.0/">
	<!ENTITY ns_svg "http://www.w3.org/2000/svg">
	<!ENTITY ns_xlink "http://www.w3.org/1999/xlink">
]>
<svg  xmlns:x="&ns_extend;" xmlns:i="&ns_ai;" xmlns:graph="&ns_graphs;"
	 xmlns="&ns_svg;" xmlns:xlink="&ns_xlink;" xmlns:a="http://ns.adobe.com/AdobeSVGViewerExtensions/3.0/" width="476" height="183"
	 viewBox="0.441 -0.679 476 183" overflow="visible" enable-background="new 0.441 -0.679 476 183" xml:space="preserve">
	<g id="Layer_1_2_">
		<g>
			<path fill="none" stroke="#000000" d="M0.472,4.556h475.273"/>
			<path fill="none" stroke="#000000" d="M0.472,19.667h475.273"/>
			<path fill="none" stroke="#000000" d="M0.708,26.79h475.274"/>
			<path fill="none" stroke="#000000" d="M0.345,34.174h475.272"/>
			<path fill="none" stroke="#000000" d="M0.345,11.81h475.272"/>
		</g>
		<path fill="none" stroke="#0A0A0A" d="M133.349,2.704V32.45"/>
		<g>
			<path d="M45.136,16.811c-1.68,0-2.352-1.32-3.552-1.32c-0.864,0-1.608,0.624-1.824,1.344c-0.216,0-0.504,0-0.456,0
				c-0.12-0.912,0.144-1.656,0.216-1.848c0.528-1.392,1.56-2.328,2.352-2.808c3.192-2.016,3.6-2.496,3.6-4.008
				c0.024-1.512-1.008-2.688-2.16-2.688c-0.336,0-1.752,0.576-1.8,1.2c-0.048,0.456,1.272,0.576,1.608,1.776
				c0.288,0.912-0.432,2.088-1.584,2.088c-1.632,0-2.016-1.464-1.992-2.424c0.096-1.848,2.424-3.192,4.44-3.192
				c1.608,0,4.656,0.144,4.656,3.624c0,1.104-0.912,2.04-2.088,2.52c-0.936,0.384-4.68,1.464-4.92,2.232
				c1.992-0.888,4.416,0.576,4.656,0.576c0.864,0,1.368-0.528,1.656-1.344c0.264,0,0.144,0.12,0.432,0.12
				C48.04,14.531,47.104,16.811,45.136,16.811z"/>
		</g>
		<g>
			<path d="M41.655,84.087c-2.448,0-4.272-1.2-4.272-3.168c0-0.84,0.816-1.728,1.68-1.728c0.888,0,1.824,0.528,1.824,1.536
				c0,1.224-0.936,1.368-0.864,2.232c0.024,0.216,0.72,0.6,0.96,0.6c1.608,0,2.376-1.848,2.376-2.928
				c0-2.064-1.896-1.848-3.432-2.16c0-0.048,0.024-0.648,0.024-0.624c1.56-0.192,3.072-0.72,3.048-2.52
				c-0.024-2.52-2.016-2.352-2.328-2.352c-0.168,0-0.696,0.336-0.672,0.6c0.072,0.528,0.816,0.768,1.128,1.704
				c0.312,0.912-0.768,1.92-1.68,1.92c-1.056,0-1.848-1.176-1.848-1.776c0-1.392,1.104-3.144,4.848-3.144
				c1.632,0,3.432,1.128,3.432,2.904c0,2.352-2.76,2.52-2.76,2.856c1.392,0.144,3.24,0.672,3.24,2.52
				C46.359,83.007,43.407,84.087,41.655,84.087z"/>
		</g>
		<g>
			<path d="M47.296,167.513v1.584c0,0.96,1.128,0.936,1.128,0.936v0.624h-5.208v-0.624c0,0,1.176,0.048,1.152-0.888v-1.632h-4.44
				l-0.432-0.456c2.904-3.912,2.928-4.632,3.624-8.184h4.152c-0.984,1.824-4.296,5.256-6.624,7.968h3.72v-2.952l2.928-3.216v6.168
				h1.728v0.672H47.296z"/>
		</g>
		<g>
			<path d="M44.996,155.51c-0.672,0-2.424-0.624-3.168-1.656c-0.576-0.792-1.272-2.088-1.296-3.84
				c-0.048-2.136,0.96-4.152,1.704-4.896c1.008-0.984,1.824-1.416,3.504-1.416c1.296,0,3.336,0.816,3.36,2.376
				c0.024,0.696-0.384,1.728-1.392,1.728c-1.464,0-1.944-1.344-1.776-1.848c0.264-0.84,0.504-0.408,0.528-1.128
				c0.024-0.216-0.408-0.576-0.888-0.576c-0.792,0-1.488,0.432-1.752,2.04c-0.12,0.648-0.432,2.064-0.36,3.216
				c1.128-0.792,1.896-0.888,3.24-0.888c1.656,0,2.88,1.584,2.88,3C49.556,154.166,47.3,155.51,44.996,155.51z M45.067,154.934
				c1.296,0,1.68-2.136,1.632-3.192c-0.024-0.576-0.408-2.16-1.68-1.992c-1.416,0.168-1.392,2.184-1.392,2.736
				C43.627,153.062,44.012,154.934,45.067,154.934z"/>
		</g>
		<g>
			<path d="M42.043,100.424c-1.896,0-4.44-0.864-4.44-3.096c0-1.536,1.128-2.544,1.776-2.808c-1.2-0.672-1.536-1.776-1.536-2.76
				c0-2.28,2.016-3.192,4.2-3.216c3.192,0,4.08,1.392,4.128,2.976c0.024,0.888-0.432,1.728-1.152,2.328
				c0.864,0.432,1.584,1.296,1.584,2.568C46.604,98.864,44.107,100.424,42.043,100.424z M40.1,94.976
				c-0.792,0.48-1.272,0.912-1.248,1.92c0.024,1.608,0.72,2.76,2.928,2.76c0.72,0,2.376-0.792,2.376-1.944
				C44.156,95.816,41.083,95.144,40.1,94.976z M42.067,89.144c-1.176,0-2.448,0.672-2.256,1.68c0.192,1.008,3.384,2.16,4.392,2.496
				c0.408-0.432,0.84-1.152,0.792-1.8C44.899,90.296,44.251,89.144,42.067,89.144z"/>
		</g>
		<g>
			<path d="M17.221,33.768c-4.944-2.352-5.736-5.376-5.952-8.472c-0.24-3.36,1.896-6.768,3.888-8.664
				c1.152-1.08,2.4-2.136,3.888-3.264c-0.048-0.84-0.24-1.176-0.336-2.376c-0.024-0.504-0.336-2.856,0.168-5.568
				c0.312-1.608,2.328-5.4,3.72-5.424c1.08-0.024,2.736,4.296,2.784,6.456c0.072,3.336-0.72,4.848-1.704,6.576
				c-0.504,0.864-1.032,1.464-1.584,2.136c-0.576,0.696-1.224,1.104-1.824,1.632c0,0,0.768,4.344,0.792,4.656
				c1.536-0.192,3.408,0.36,4.08,0.84c1.704,1.272,2.352,3.024,2.472,4.728c0.216,2.712-1.272,5.568-4.56,6.936
				c0,0,0.504,3.456,0.624,4.176c0.264,1.896,0.216,3.096-0.192,3.864c-0.696,1.296-1.824,2.496-4.008,2.64
				c-1.68,0.096-4.992-0.744-5.16-3.384c-0.096-1.56,0.6-3.24,2.496-3.36c1.152-0.096,2.52,0.864,2.616,2.232
				c0.096,1.176-0.672,2.4-2.664,2.952c0.312,0.432,1.248,0.936,2.592,0.936c1.392,0,2.832-0.936,3.528-2.184
				c0.432-0.816,0.384-2.28,0.216-3.624c-0.072-0.456-0.648-4.08-0.648-4.08C20.677,34.416,18.229,34.248,17.221,33.768z
				 M17.701,28.08c0.048,1.152,1.008,2.496,1.896,2.952c-0.12,0.072-0.24,0.264-0.24,0.264c-0.984-0.48-1.824-1.272-2.04-1.56
				c-0.696-0.936-0.984-1.464-1.08-2.88c-0.096-1.32,0.624-3.096,2.232-4.344c0.84-0.624,1.248-0.768,1.968-0.936l-0.72-4.344
				c-0.744,0.432-3.816,2.904-5.112,4.92c-1.152,1.8-1.848,3.24-1.704,5.016c0.288,4.008,4.68,7.296,9.432,6.168
				c0,0-1.416-8.52-1.392-8.52C18.325,24.912,17.628,26.928,17.701,28.08z M19.645,12.864c2.088-1.632,4.92-4.704,4.752-7.08
				c-0.048-0.744-0.36-2.088-1.44-2.064C20.485,3.744,19.093,8.904,19.645,12.864z M22.909,33.144
				c2.76-0.936,2.88-3.312,2.784-4.728c-0.096-1.176-0.624-3.816-4.128-3.648L22.909,33.144z"/>
		</g>
		<g>
			<path d="M71.441,20.566c0.984,0,1.776,0.36,2.232,0.912V2.254h0.456v20.4c0,0.336-0.048,0.672-0.168,1.056
				c-0.648,1.704-2.784,3.072-4.8,3.048c-2.016-0.024-3.144-1.44-2.52-3.144S69.425,20.542,71.441,20.566z"/>
		</g>
		<g>
			<path d="M74.249,157.519c2.664,0.024,5.184,1.032,5.376,3.264c0.144,1.632-2.016,3.12-4.68,3.12
				c-2.688-0.024-5.184-1.008-5.4-3.24C69.401,159.006,71.585,157.519,74.249,157.519z M74.897,163.351
				c1.152,0,1.896-1.104,1.776-1.992c-0.264-1.752-0.864-3.168-2.448-3.168c-1.152,0-1.824,1.128-1.68,2.016
				C72.809,161.958,73.313,163.351,74.897,163.351z"/>
		</g>
		<g>
			<path d="M197.489,20.542c1.008,0.024,1.776,0.36,2.232,0.912V2.11h0.456c0,1.176,0.552,2.568,1.248,3.552
				c0.792,1.08,1.752,2.352,2.688,3.888c0.792,1.344,1.44,3.456,1.56,4.416c0.144,0.984,0.216,1.968,0.192,2.928
				c-0.024,1.44-0.24,2.808-0.72,4.08l-0.288-0.144c0.432-1.08,0.648-2.664,0.648-4.032c0-1.128-0.192-2.64-0.6-3.792
				c-0.72-2.136-1.92-3.384-2.616-3.864c-1.08-0.696-2.112-0.744-2.112-0.744v14.16c0.024,0.36-0.024,0.744-0.168,1.128
				c-0.624,1.704-2.784,3.072-4.8,3.048s-3.144-1.416-2.496-3.144C193.337,21.886,195.473,20.519,197.489,20.542z"/>
		</g>
		<g>
			<path d="M105.785,161.351c0.456-1.248,1.488-2.256,2.256-2.64c0.768-0.36,1.752-0.552,2.88-0.456
				c0.576,0.048,1.584,0.216,2.16,0.816v-19.224h0.456v20.496c0,0.096-0.024,0.168-0.024,0.24c-0.048,0.432-0.168,0.792-0.264,1.032
				c-0.456,1.248-1.44,2.088-2.184,2.52s-1.872,0.744-3.24,0.6c-0.528-0.072-1.68-0.168-2.16-1.032
				C105.281,163.054,105.617,161.831,105.785,161.351z M108.665,163.366c0.552-0.288,0.96-0.528,1.464-0.792
				c0.48-0.288,0.912-0.552,1.44-0.888c0.72-0.456,1.656-1.248,1.176-2.064c-0.48-0.816-1.656-0.408-2.4-0.048
				c-0.576,0.288-1.032,0.528-1.512,0.816c-0.48,0.264-0.912,0.504-1.416,0.84c-0.72,0.456-1.656,1.272-1.152,2.088
				C106.721,164.134,107.897,163.727,108.665,163.366z"/>
		</g>
		<g>
			<g>
				<g>
				</g>
			</g>
			<g>
				<g>
				</g>
			</g>
			<g>
				<path d="M413.835,156.987c0.983,0,1.775,0.36,2.231,0.912v-19.224h0.456v20.4c0,0.336-0.048,0.672-0.168,1.056
					c-0.648,1.704-2.784,3.072-4.8,3.048c-2.017-0.024-3.145-1.44-2.521-3.144S411.819,156.963,413.835,156.987z"/>
			</g>
			<g>
				<path d="M433.337,157.153c0.983,0,1.775,0.36,2.231,0.912v-19.224h0.456v20.4c0,0.336-0.048,0.672-0.168,1.056
					c-0.648,1.704-2.784,3.072-4.8,3.048c-2.017-0.024-3.145-1.44-2.521-3.144S431.321,157.129,433.337,157.153z"/>
			</g>
			<path fill="none" stroke="#000000" stroke-width="2" d="M415.941,138.656h20.001"/>
		</g>
		<g>
			<path fill="none" stroke="#000000" d="M0.127,71.314h475.273"/>
			<path fill="none" stroke="#000000" d="M0.127,86.426h475.273"/>
			<path fill="none" stroke="#000000" d="M0.363,93.549h475.274"/>
			<path fill="none" stroke="#000000" d="M0,100.933h475.272"/>
			<path fill="none" stroke="#000000" d="M0,78.568h475.272"/>
		</g>
		<g>
			<path d="M16.876,100.527c-4.944-2.352-5.736-5.376-5.952-8.472c-0.24-3.36,1.896-6.768,3.888-8.664
				c1.152-1.08,2.4-2.136,3.888-3.264c-0.048-0.84-0.24-1.176-0.336-2.376c-0.024-0.504-0.336-2.856,0.168-5.568
				c0.312-1.608,2.328-5.4,3.72-5.424c1.08-0.024,2.736,4.296,2.784,6.456c0.072,3.336-0.72,4.848-1.704,6.576
				c-0.504,0.864-1.032,1.464-1.584,2.136c-0.576,0.696-1.224,1.104-1.824,1.632c0,0,0.768,4.344,0.792,4.656
				c1.536-0.192,3.408,0.36,4.08,0.84c1.704,1.272,2.352,3.024,2.472,4.728c0.216,2.712-1.272,5.568-4.56,6.936
				c0,0,0.504,3.456,0.624,4.176c0.264,1.896,0.216,3.096-0.192,3.864c-0.696,1.296-1.824,2.496-4.008,2.64
				c-1.68,0.096-4.992-0.744-5.16-3.384c-0.096-1.56,0.6-3.24,2.496-3.36c1.152-0.096,2.52,0.864,2.616,2.232
				c0.096,1.176-0.672,2.4-2.664,2.952c0.312,0.432,1.248,0.936,2.592,0.936c1.392,0,2.832-0.936,3.528-2.184
				c0.432-0.816,0.384-2.28,0.216-3.624c-0.072-0.456-0.648-4.08-0.648-4.08C20.332,101.175,17.884,101.007,16.876,100.527z
				 M17.356,94.839c0.048,1.152,1.008,2.496,1.896,2.952c-0.12,0.072-0.24,0.264-0.24,0.264c-0.984-0.48-1.824-1.272-2.04-1.56
				c-0.696-0.936-0.984-1.464-1.08-2.88c-0.096-1.32,0.624-3.096,2.232-4.344c0.84-0.624,1.248-0.768,1.968-0.936l-0.72-4.344
				c-0.744,0.432-3.816,2.904-5.112,4.92c-1.152,1.8-1.848,3.24-1.704,5.016c0.288,4.008,4.68,7.296,9.432,6.168
				c0,0-1.416-8.52-1.392-8.52C17.98,91.671,17.284,93.687,17.356,94.839z M19.3,79.623c2.088-1.632,4.92-4.704,4.752-7.08
				c-0.048-0.744-0.36-2.088-1.44-2.064C20.14,70.503,18.748,75.663,19.3,79.623z M22.564,99.903c2.76-0.936,2.88-3.312,2.784-4.728
				c-0.096-1.176-0.624-3.816-4.128-3.648L22.564,99.903z"/>
		</g>
		<g>
			<path fill="none" stroke="#000000" d="M0.127,142.004h475.273"/>
			<path fill="none" stroke="#000000" d="M0.127,157.116h475.273"/>
			<path fill="none" stroke="#000000" d="M0.363,164.238h475.274"/>
			<path fill="none" stroke="#000000" d="M0,171.622h475.272"/>
			<path fill="none" stroke="#000000" d="M0,149.258h475.272"/>
		</g>
		<g>
			<path d="M16.876,171.216c-4.944-2.352-5.736-5.376-5.952-8.472c-0.24-3.36,1.896-6.768,3.888-8.664
				c1.152-1.08,2.4-2.136,3.888-3.264c-0.048-0.84-0.24-1.176-0.336-2.376c-0.024-0.504-0.336-2.856,0.168-5.568
				c0.312-1.608,2.328-5.4,3.72-5.424c1.08-0.024,2.736,4.296,2.784,6.456c0.072,3.336-0.72,4.848-1.704,6.576
				c-0.504,0.864-1.032,1.464-1.584,2.136c-0.576,0.696-1.224,1.104-1.824,1.632c0,0,0.768,4.344,0.792,4.656
				c1.536-0.192,3.408,0.36,4.08,0.84c1.704,1.272,2.352,3.024,2.472,4.728c0.216,2.712-1.272,5.568-4.56,6.936
				c0,0,0.504,3.456,0.624,4.176c0.264,1.896,0.216,3.096-0.192,3.864c-0.696,1.296-1.824,2.496-4.008,2.64
				c-1.68,0.096-4.992-0.744-5.16-3.384c-0.096-1.56,0.6-3.24,2.496-3.36c1.152-0.096,2.52,0.864,2.616,2.232
				c0.096,1.176-0.672,2.4-2.664,2.952c0.312,0.432,1.248,0.936,2.592,0.936c1.392,0,2.832-0.936,3.528-2.184
				c0.432-0.816,0.384-2.28,0.216-3.624c-0.072-0.456-0.648-4.08-0.648-4.08C20.332,171.864,17.884,171.696,16.876,171.216z
				 M17.356,165.528c0.048,1.152,1.008,2.496,1.896,2.952c-0.12,0.072-0.24,0.264-0.24,0.264c-0.984-0.48-1.824-1.272-2.04-1.56
				c-0.696-0.936-0.984-1.464-1.08-2.88c-0.096-1.32,0.624-3.096,2.232-4.344c0.84-0.624,1.248-0.768,1.968-0.936l-0.72-4.344
				c-0.744,0.432-3.816,2.904-5.112,4.92c-1.152,1.8-1.848,3.24-1.704,5.016c0.288,4.008,4.68,7.296,9.432,6.168
				c0,0-1.416-8.52-1.392-8.52C17.98,162.36,17.284,164.376,17.356,165.528z M19.3,150.312c2.088-1.632,4.92-4.704,4.752-7.08
				c-0.048-0.744-0.36-2.088-1.44-2.064C20.14,141.192,18.748,146.352,19.3,150.312z M22.564,170.592
				c2.76-0.936,2.88-3.312,2.784-4.728c-0.096-1.176-0.624-3.816-4.128-3.648L22.564,170.592z"/>
		</g>
		<g>
			<path d="M45.917,31.03v1.584c0,0.96,1.128,0.936,1.128,0.936v0.624h-5.208V33.55c0,0,1.176,0.048,1.152-0.888V31.03h-4.44
				l-0.432-0.456c2.904-3.912,2.928-4.632,3.624-8.184h4.152c-0.984,1.824-4.296,5.256-6.624,7.968h3.72v-2.952l2.928-3.216v6.168
				h1.728v0.672H45.917z"/>
		</g>
		<g>
			<path d="M148.785,160.351c0.456-1.248,1.488-2.256,2.256-2.64c0.768-0.36,1.752-0.552,2.88-0.456
				c0.576,0.048,1.584,0.216,2.16,0.816v-19.224h0.456v20.496c0,0.096-0.024,0.168-0.024,0.24c-0.048,0.432-0.168,0.792-0.264,1.032
				c-0.456,1.248-1.44,2.088-2.184,2.52s-1.872,0.744-3.24,0.6c-0.528-0.072-1.68-0.168-2.16-1.032
				C148.281,162.054,148.617,160.831,148.785,160.351z M151.665,162.366c0.552-0.288,0.96-0.528,1.464-0.792
				c0.48-0.288,0.912-0.552,1.44-0.888c0.72-0.456,1.656-1.248,1.176-2.064c-0.48-0.816-1.656-0.408-2.4-0.048
				c-0.576,0.288-1.032,0.528-1.512,0.816c-0.48,0.264-0.912,0.504-1.416,0.84c-0.72,0.456-1.656,1.272-1.152,2.088
				C149.721,163.134,150.897,162.727,151.665,162.366z"/>
		</g>
		<g>
			<path d="M186.785,160.351c0.456-1.248,1.488-2.256,2.256-2.64c0.768-0.36,1.752-0.552,2.88-0.456
				c0.576,0.048,1.584,0.216,2.16,0.816v-19.224h0.456v20.496c0,0.096-0.024,0.168-0.024,0.24c-0.048,0.432-0.168,0.792-0.264,1.032
				c-0.456,1.248-1.44,2.088-2.184,2.52s-1.872,0.744-3.24,0.6c-0.528-0.072-1.68-0.168-2.16-1.032
				C186.281,162.054,186.617,160.831,186.785,160.351z M189.665,162.366c0.552-0.288,0.96-0.528,1.464-0.792
				c0.48-0.288,0.912-0.552,1.44-0.888c0.72-0.456,1.656-1.248,1.176-2.064c-0.48-0.816-1.656-0.408-2.4-0.048
				c-0.576,0.288-1.032,0.528-1.512,0.816c-0.48,0.264-0.912,0.504-1.416,0.84c-0.72,0.456-1.656,1.272-1.152,2.088
				C187.721,163.134,188.897,162.727,189.665,162.366z"/>
		</g>
		<g>
			<path d="M314.785,160.351c0.456-1.248,1.487-2.256,2.256-2.64c0.768-0.36,1.752-0.552,2.88-0.456
				c0.576,0.048,1.584,0.216,2.16,0.816v-19.224h0.456v20.496c0,0.096-0.024,0.168-0.024,0.24c-0.048,0.432-0.168,0.792-0.264,1.032
				c-0.456,1.248-1.44,2.088-2.184,2.52c-0.744,0.432-1.872,0.744-3.24,0.6c-0.528-0.072-1.681-0.168-2.16-1.032
				C314.281,162.054,314.617,160.831,314.785,160.351z M317.665,162.366c0.552-0.288,0.96-0.528,1.464-0.792
				c0.48-0.288,0.912-0.552,1.44-0.888c0.72-0.456,1.655-1.248,1.176-2.064c-0.48-0.816-1.656-0.408-2.4-0.048
				c-0.576,0.288-1.032,0.528-1.512,0.816c-0.48,0.264-0.912,0.504-1.416,0.84c-0.72,0.456-1.656,1.272-1.152,2.088
				C315.72,163.134,316.896,162.727,317.665,162.366z"/>
		</g>
		<g>
			<path d="M356.785,161.351c0.456-1.248,1.487-2.256,2.256-2.64c0.768-0.36,1.752-0.552,2.88-0.456
				c0.576,0.048,1.584,0.216,2.16,0.816v-19.224h0.456v20.496c0,0.096-0.024,0.168-0.024,0.24c-0.048,0.432-0.168,0.792-0.264,1.032
				c-0.456,1.248-1.44,2.088-2.184,2.52c-0.744,0.432-1.872,0.744-3.24,0.6c-0.528-0.072-1.681-0.168-2.16-1.032
				C356.281,163.054,356.617,161.831,356.785,161.351z M359.665,163.366c0.552-0.288,0.96-0.528,1.464-0.792
				c0.48-0.288,0.912-0.552,1.44-0.888c0.72-0.456,1.655-1.248,1.176-2.064c-0.48-0.816-1.656-0.408-2.4-0.048
				c-0.576,0.288-1.032,0.528-1.512,0.816c-0.48,0.264-0.912,0.504-1.416,0.84c-0.72,0.456-1.656,1.272-1.152,2.088
				C357.72,164.134,358.896,163.727,359.665,163.366z"/>
		</g>
		<g>
			<path d="M455.785,161.351c0.456-1.248,1.487-2.256,2.256-2.64c0.768-0.36,1.752-0.552,2.88-0.456
				c0.576,0.048,1.584,0.216,2.16,0.816v-19.224h0.456v20.496c0,0.096-0.024,0.168-0.024,0.24c-0.048,0.432-0.168,0.792-0.264,1.032
				c-0.456,1.248-1.44,2.088-2.184,2.52c-0.744,0.432-1.872,0.744-3.24,0.6c-0.528-0.072-1.681-0.168-2.16-1.032
				C455.281,163.054,455.617,161.831,455.785,161.351z M458.665,163.366c0.552-0.288,0.96-0.528,1.464-0.792
				c0.48-0.288,0.912-0.552,1.44-0.888c0.72-0.456,1.655-1.248,1.176-2.064c-0.48-0.816-1.656-0.408-2.4-0.048
				c-0.576,0.288-1.032,0.528-1.512,0.816c-0.48,0.264-0.912,0.504-1.416,0.84c-0.72,0.456-1.656,1.272-1.152,2.088
				C456.72,164.134,457.896,163.727,458.665,163.366z"/>
		</g>
		<g>
			<path d="M227.441,158.566c0.984,0,1.776,0.36,2.232,0.912v-19.224h0.456v20.4c0,0.336-0.048,0.672-0.168,1.056
				c-0.648,1.704-2.784,3.072-4.8,3.048c-2.016-0.024-3.144-1.44-2.52-3.144S225.425,158.542,227.441,158.566z"/>
		</g>
		<g>
			<path d="M251.441,157.566c0.984,0,1.776,0.36,2.232,0.912v-19.224h0.456v20.4c0,0.336-0.048,0.672-0.168,1.056
				c-0.648,1.704-2.784,3.072-4.8,3.048c-2.016-0.024-3.144-1.44-2.52-3.144S249.425,157.542,251.441,157.566z"/>
		</g>
		<g>
			<path d="M274.441,158.566c0.984,0,1.776,0.36,2.232,0.912v-19.224h0.456v20.4c0,0.336-0.048,0.672-0.168,1.056
				c-0.648,1.704-2.784,3.072-4.8,3.048c-2.016-0.024-3.144-1.44-2.52-3.144S272.425,158.542,274.441,158.566z"/>
		</g>
		<g>
			<path d="M296.441,158.566c0.983,0,1.775,0.36,2.231,0.912v-19.224h0.456v20.4c0,0.336-0.048,0.672-0.168,1.056
				c-0.648,1.704-2.784,3.072-4.8,3.048c-2.017-0.024-3.145-1.44-2.521-3.144S294.424,158.542,296.441,158.566z"/>
		</g>
		<g>
			<path d="M390.441,157.566c0.983,0,1.775,0.36,2.231,0.912v-19.224h0.456v20.4c0,0.336-0.048,0.672-0.168,1.056
				c-0.648,1.704-2.784,3.072-4.8,3.048c-2.017-0.024-3.145-1.44-2.521-3.144S388.424,157.542,390.441,157.566z"/>
		</g>
		<g>
			<path d="M70.441,87.566c0.984,0,1.776,0.36,2.232,0.912V69.254h0.456v20.4c0,0.336-0.048,0.672-0.168,1.056
				c-0.648,1.704-2.784,3.072-4.8,3.048c-2.016-0.024-3.144-1.44-2.52-3.144S68.425,87.542,70.441,87.566z"/>
		</g>
		<g>
			<path d="M208.441,87.566c0.984,0,1.776,0.36,2.232,0.912V69.254h0.456v20.4c0,0.336-0.048,0.672-0.168,1.056
				c-0.648,1.704-2.784,3.072-4.8,3.048c-2.016-0.024-3.144-1.44-2.52-3.144S206.425,87.542,208.441,87.566z"/>
		</g>
		<g>
			<path d="M104.441,20.566c0.984,0,1.776,0.36,2.232,0.912V2.254h0.456v20.4c0,0.336-0.048,0.672-0.168,1.056
				c-0.648,1.704-2.784,3.072-4.8,3.048c-2.016-0.024-3.144-1.44-2.52-3.144S102.425,20.542,104.441,20.566z"/>
		</g>
		<g>
			<path d="M153.441,20.566c0.984,0,1.776,0.36,2.232,0.912V2.254h0.456v20.4c0,0.336-0.048,0.672-0.168,1.056
				c-0.648,1.704-2.784,3.072-4.8,3.048c-2.016-0.024-3.144-1.44-2.52-3.144S151.425,20.542,153.441,20.566z"/>
		</g>
		<g>
			<path d="M286.44,20.566c0.984,0,1.776,0.36,2.232,0.912V2.254h0.456v20.4c0,0.336-0.048,0.672-0.168,1.056
				c-0.648,1.704-2.784,3.072-4.8,3.048c-2.016-0.024-3.144-1.44-2.52-3.144S284.424,20.542,286.44,20.566z"/>
		</g>
		<g>
			<path d="M411.441,20.566c0.983,0,1.775,0.36,2.231,0.912V2.254h0.456v20.4c0,0.336-0.048,0.672-0.168,1.056
				c-0.648,1.704-2.784,3.072-4.8,3.048c-2.017-0.024-3.145-1.44-2.521-3.144S409.424,20.542,411.441,20.566z"/>
		</g>
		<g>
			<path d="M243.488,87.542c1.008,0.024,1.776,0.36,2.232,0.912V69.11h0.456c0,1.176,0.552,2.568,1.248,3.552
				c0.792,1.08,1.752,2.352,2.688,3.888c0.792,1.344,1.44,3.456,1.56,4.416c0.144,0.984,0.216,1.968,0.192,2.928
				c-0.024,1.44-0.24,2.808-0.72,4.08l-0.288-0.144c0.432-1.08,0.648-2.664,0.648-4.032c0-1.128-0.192-2.64-0.6-3.792
				c-0.72-2.136-1.92-3.384-2.616-3.864c-1.08-0.696-2.112-0.744-2.112-0.744v14.16c0.024,0.36-0.024,0.744-0.168,1.128
				c-0.624,1.704-2.784,3.072-4.8,3.048s-3.144-1.416-2.496-3.144C239.336,88.886,241.473,87.519,243.488,87.542z"/>
		</g>
		<g>
			<path d="M236.835,19.987c0.984,0,1.776,0.36,2.232,0.912V1.675h0.456v20.4c0,0.336-0.048,0.672-0.168,1.056
				c-0.648,1.704-2.784,3.072-4.8,3.048c-2.016-0.024-3.144-1.44-2.52-3.144S234.819,19.963,236.835,19.987z"/>
		</g>
		<g>
			<path d="M256.337,20.153c0.984,0,1.776,0.36,2.232,0.912V1.841h0.456v20.4c0,0.336-0.048,0.672-0.168,1.056
				c-0.648,1.704-2.784,3.072-4.8,3.048c-2.016-0.024-3.144-1.44-2.52-3.144S254.321,20.129,256.337,20.153z"/>
		</g>
		<path fill="none" stroke="#000000" stroke-width="3" d="M238.941,1.656h20.001"/>
		<g>
			<path d="M326.835,19.987c0.983,0,1.775,0.36,2.231,0.912V1.675h0.456v20.4c0,0.336-0.048,0.672-0.168,1.056
				c-0.648,1.704-2.784,3.072-4.8,3.048c-2.017-0.024-3.145-1.44-2.521-3.144S324.819,19.963,326.835,19.987z"/>
		</g>
		<g>
			<path d="M346.337,20.153c0.983,0,1.775,0.36,2.231,0.912V1.841h0.456v20.4c0,0.336-0.048,0.672-0.168,1.056
				c-0.648,1.704-2.784,3.072-4.8,3.048c-2.017-0.024-3.145-1.44-2.521-3.144S344.321,20.129,346.337,20.153z"/>
		</g>
		<path fill="none" stroke="#000000" stroke-width="3" d="M328.941,1.656h20.001"/>
		<g>
			<path d="M367.835,19.987c0.983,0,1.775,0.36,2.231,0.912V1.675h0.456v20.4c0,0.336-0.048,0.672-0.168,1.056
				c-0.648,1.704-2.784,3.072-4.8,3.048c-2.017-0.024-3.145-1.44-2.521-3.144S365.819,19.963,367.835,19.987z"/>
		</g>
		<g>
			<path d="M388.337,20.153c0.983,0,1.775,0.36,2.231,0.912V1.841h0.456v20.4c0,0.336-0.048,0.672-0.168,1.056
				c-0.648,1.704-2.784,3.072-4.8,3.048c-2.017-0.024-3.145-1.44-2.521-3.144S386.321,20.129,388.337,20.153z"/>
		</g>
		<path fill="none" stroke="#000000" stroke-width="3" d="M369.941,1.656h44.001"/>
		<g>
			<path d="M121.835,85.987c0.984,0,1.776,0.36,2.232,0.912V67.675h0.456v20.4c0,0.336-0.048,0.672-0.168,1.056
				c-0.648,1.704-2.784,3.072-4.8,3.048c-2.016-0.024-3.144-1.44-2.52-3.144S119.819,85.963,121.835,85.987z"/>
		</g>
		<g>
			<path d="M141.337,86.153c0.984,0,1.776,0.36,2.232,0.912V67.841h0.456v20.4c0,0.336-0.048,0.672-0.168,1.056
				c-0.648,1.704-2.784,3.072-4.8,3.048c-2.016-0.024-3.144-1.44-2.52-3.144S139.321,86.129,141.337,86.153z"/>
		</g>
		<path fill="none" stroke="#000000" stroke-width="3" d="M123.941,67.656h20.001"/>
		<g>
			<path d="M140.835,85.987c0.984,0,1.776,0.36,2.232,0.912V67.675h0.456v20.4c0,0.336-0.048,0.672-0.168,1.056
				c-0.648,1.704-2.784,3.072-4.8,3.048c-2.016-0.024-3.144-1.44-2.52-3.144S138.819,85.963,140.835,85.987z"/>
		</g>
		<g>
			<path d="M160.337,86.153c0.984,0,1.776,0.36,2.232,0.912V67.841h0.456v20.4c0,0.336-0.048,0.672-0.168,1.056
				c-0.648,1.704-2.784,3.072-4.8,3.048c-2.016-0.024-3.144-1.44-2.52-3.144S158.321,86.129,160.337,86.153z"/>
		</g>
		<path fill="none" stroke="#000000" stroke-width="3" d="M142.941,67.656h20.001"/>
		<g>
			<path d="M290.835,85.987c0.983,0,1.775,0.36,2.231,0.912V67.675h0.456v20.4c0,0.336-0.048,0.672-0.168,1.056
				c-0.648,1.704-2.784,3.072-4.8,3.048c-2.016-0.024-3.144-1.44-2.52-3.144S288.819,85.963,290.835,85.987z"/>
		</g>
		<g>
			<path d="M311.337,86.153c0.983,0,1.775,0.36,2.231,0.912V67.841h0.456v20.4c0,0.336-0.048,0.672-0.168,1.056
				c-0.648,1.704-2.784,3.072-4.8,3.048c-2.017-0.024-3.145-1.44-2.521-3.144S309.321,86.129,311.337,86.153z"/>
		</g>
		<path fill="none" stroke="#000000" stroke-width="3" d="M292.941,67.656h60.001"/>
		<g>
			<path d="M331.835,85.987c0.983,0,1.775,0.36,2.231,0.912V67.675h0.456v20.4c0,0.336-0.048,0.672-0.168,1.056
				c-0.648,1.704-2.784,3.072-4.8,3.048c-2.017-0.024-3.145-1.44-2.521-3.144S329.819,85.963,331.835,85.987z"/>
		</g>
		<g>
			<path d="M357.337,86.153c0.983,0,1.775,0.36,2.231,0.912V67.841h0.456v20.4c0,0.336-0.048,0.672-0.168,1.056
				c-0.648,1.704-2.784,3.072-4.8,3.048c-2.017-0.024-3.145-1.44-2.521-3.144S355.321,86.129,357.337,86.153z"/>
		</g>
		<path fill="none" stroke="#000000" stroke-width="3" d="M332.941,67.656h27.5"/>
		<path fill="none" stroke="#0A0A0A" d="M217.349,4.704V34.45"/>
		<path fill="none" stroke="#0A0A0A" d="M310.349,3.704V33.45"/>
		<path fill="none" stroke="#0A0A0A" d="M435.349,3.704V33.45"/>
		<path fill="none" stroke="#0A0A0A" d="M102.349,70.704v29.746"/>
		<path fill="none" stroke="#0A0A0A" d="M183.349,72.704v29.746"/>
		<path fill="none" stroke="#0A0A0A" d="M271.349,71.704v29.746"/>
		<path fill="none" stroke="#0A0A0A" d="M377.349,70.704v29.746"/>
		<path fill="none" stroke="#0A0A0A" d="M475.349,71.704v29.746"/>
		<path fill="none" stroke="#0A0A0A" d="M134.349,141.704v29.746"/>
		<path fill="none" stroke="#0A0A0A" d="M213.349,142.704v29.746"/>
		<path fill="none" stroke="#0A0A0A" d="M344.349,141.704v29.746"/>
		<path fill="none" stroke="#0A0A0A" d="M475.545,142.621v29.746"/>
		<g>
			<path d="M161.421,162.52c-0.612,0-1.044-0.486-1.044-1.134s0.45-1.134,1.08-1.134s1.062,0.468,1.062,1.134
				c0,0.648-0.432,1.134-1.08,1.134H161.421z"/>
		</g>
		<g>
			<path d="M198.421,162.52c-0.612,0-1.044-0.486-1.044-1.134s0.45-1.134,1.08-1.134s1.062,0.468,1.062,1.134
				c0,0.648-0.432,1.134-1.08,1.134H198.421z"/>
		</g>
		<g>
			<path d="M160.421,24.52c-0.612,0-1.044-0.486-1.044-1.134s0.45-1.134,1.08-1.134s1.062,0.468,1.062,1.134
				c0,0.648-0.432,1.134-1.08,1.134H160.421z"/>
		</g>
		<path fill="none" stroke="#0A0A0A" d="M475.349,3.704V33.45"/>
		<g>
			<path d="M448.785,23.351c0.456-1.248,1.487-2.256,2.256-2.64c0.768-0.36,1.752-0.552,2.88-0.456
				c0.576,0.048,1.584,0.216,2.16,0.816V1.846h0.456v20.496c0,0.096-0.024,0.168-0.024,0.24c-0.048,0.432-0.168,0.792-0.264,1.032
				c-0.456,1.248-1.44,2.088-2.184,2.52c-0.744,0.432-1.872,0.744-3.24,0.6c-0.528-0.072-1.681-0.168-2.16-1.032
				C448.281,25.054,448.617,23.831,448.785,23.351z M451.665,25.366c0.552-0.288,0.96-0.528,1.464-0.792
				c0.48-0.288,0.912-0.552,1.44-0.888c0.72-0.456,1.655-1.248,1.176-2.064c-0.48-0.816-1.656-0.408-2.4-0.048
				c-0.576,0.288-1.032,0.528-1.512,0.816c-0.48,0.264-0.912,0.504-1.416,0.84c-0.72,0.456-1.656,1.272-1.152,2.088
				C449.72,26.134,450.896,25.727,451.665,25.366z"/>
		</g>
		<path stroke="#000000" stroke-width="3" d="M369.441,7.321h22"/>
		<path fill="none" stroke="#000000" stroke-width="2" d="M292.441,73.321h22"/>
		<path fill="none" stroke="#000000" stroke-width="3" d="M351.816,72.321h8.25"/>
		<g>
			<path d="M339.421,90.52c-0.612,0-1.045-0.486-1.045-1.134s0.45-1.134,1.08-1.134c0.631,0,1.063,0.468,1.063,1.134
				c0,0.648-0.432,1.134-1.08,1.134H339.421z"/>
		</g>
		<g>
			<path d="M78.421,91.52c-0.612,0-1.044-0.486-1.044-1.134s0.45-1.134,1.08-1.134s1.062,0.468,1.062,1.134
				c0,0.648-0.432,1.134-1.08,1.134H78.421z"/>
		</g>
		<g>
			<path d="M395.489,87.542c1.008,0.024,1.775,0.36,2.231,0.912V69.11h0.456c0,1.176,0.552,2.568,1.248,3.552
				c0.792,1.08,1.752,2.352,2.688,3.888c0.792,1.344,1.439,3.456,1.56,4.416c0.145,0.984,0.216,1.968,0.192,2.928
				c-0.024,1.44-0.24,2.808-0.721,4.08l-0.287-0.144c0.432-1.08,0.647-2.664,0.647-4.032c0-1.128-0.191-2.64-0.6-3.792
				c-0.721-2.136-1.92-3.384-2.616-3.864c-1.08-0.696-2.112-0.744-2.112-0.744v14.16c0.024,0.36-0.023,0.744-0.168,1.128
				c-0.624,1.704-2.784,3.072-4.8,3.048s-3.145-1.416-2.496-3.144C391.336,88.886,393.472,87.519,395.489,87.542z"/>
		</g>
		<g>
			<path d="M420.441,87.566c0.983,0,1.775,0.36,2.231,0.912V69.254h0.456v20.4c0,0.336-0.048,0.672-0.168,1.056
				c-0.648,1.704-2.784,3.072-4.8,3.048c-2.017-0.024-3.145-1.44-2.521-3.144S418.424,87.542,420.441,87.566z"/>
		</g>
	</g>
</svg>
