<?xml version="1.0" encoding="utf-8"?>
<!-- Generator: Adobe Illustrator 10.0, SVG Export Plug-In . SVG Version: 3.0.0 Build 76)  -->
<!DOCTYPE svg PUBLIC "-//W3C//DTD SVG 1.0//EN"    "http://www.w3.org/TR/2001/REC-SVG-20010904/DTD/svg10.dtd" [
	<!ENTITY ns_flows "http://ns.adobe.com/Flows/1.0/">
	<!ENTITY ns_extend "http://ns.adobe.com/Extensibility/1.0/">
	<!ENTITY ns_ai "http://ns.adobe.com/AdobeIllustrator/10.0/">
	<!ENTITY ns_svg "http://www.w3.org/2000/svg">
	<!ENTITY ns_xlink "http://www.w3.org/1999/xlink">
]>
<svg  xmlns:x="&ns_extend;" xmlns:i="&ns_ai;" xmlns:graph="&ns_graphs;"
	 xmlns="&ns_svg;" xmlns:xlink="&ns_xlink;" xmlns:a="http://ns.adobe.com/AdobeSVGViewerExtensions/3.0/" width="148" height="163"
	 viewBox="-0.204 -0.115 148 163" overflow="visible" enable-background="new -0.204 -0.115 148 163" xml:space="preserve">
	<g id="Layer_1_2_">
		<path fill="none" stroke="#000000" stroke-width="3" d="M1.5,0v161.431"/>
		<path fill="none" stroke="#000000" stroke-width="3" d="M22.428,95.431v66"/>
		<path fill="none" stroke="#000000" stroke-width="3" d="M42.483,95.431v65.107"/>
		<path fill="none" stroke="#000000" stroke-width="3" d="M62.539,0.892v161.429"/>
		<path fill="none" stroke="#000000" stroke-width="3" d="M83.466,94.54v66.891"/>
		<path fill="none" stroke="#000000" stroke-width="3" d="M103.793,95.431l-0.252,63.917"/>
		<path fill="none" stroke="#000000" stroke-width="3" d="M122.705,94.54v66.891"/>
		<path fill="none" stroke="#000000" stroke-width="3" d="M1.5,161.431h145"/>
		<path stroke="#000000" stroke-width="3" d="M28.531,93.647H16.324V1.784h12.208V93.647z"/>
		<path stroke="#000000" stroke-width="3" d="M48.586,93.647H36.379V1.784h12.207V93.647z"/>
		<path stroke="#000000" stroke-width="3" d="M88.698,93.647H76.491V1.784h12.207V93.647z"/>
		<path stroke="#000000" stroke-width="3" d="M109.625,93.647H97.418V1.784h12.207V93.647z"/>
		<path stroke="#000000" stroke-width="3" d="M128.809,93.647h-12.208V1.784h12.208V93.647z"/>
		<g>
			<path d="M14.34,148.805c-0.364,0.192-1.126,0.384-2.088,0.384c-2.229,0-3.895-1.44-3.895-4.104c0-2.544,1.678-4.248,4.13-4.248
				c0.974,0,1.607,0.216,1.877,0.36l-0.258,0.852c-0.375-0.192-0.927-0.336-1.584-0.336c-1.854,0-3.085,1.212-3.085,3.336
				c0,1.992,1.114,3.252,3.027,3.252c0.633,0,1.267-0.132,1.678-0.336L14.34,148.805z"/>
			<path d="M30.542,141.077c0.633-0.096,1.373-0.168,2.182-0.168c1.466,0,2.511,0.336,3.203,0.996
				c0.716,0.66,1.126,1.608,1.126,2.916c0,1.32-0.411,2.4-1.138,3.144c-0.75,0.756-1.971,1.164-3.508,1.164
				c-0.739,0-1.337-0.024-1.865-0.096V141.077z M31.574,148.241c0.258,0.048,0.634,0.048,1.033,0.048
				c2.182,0.012,3.367-1.248,3.367-3.432c0.012-1.932-1.044-3.12-3.203-3.12c-0.528,0-0.927,0.048-1.197,0.108V148.241z"/>
			<path d="M54.885,145.265h-3.063v2.916h3.426v0.876h-4.458v-8.088h4.282v0.876h-3.25v2.556h3.063V145.265z"/>
		</g>
		<g>
			<path d="M80.625,74.407h3.798v0.781h-2.877v2.397h2.658v0.771h-2.658v3.264h-0.921V74.407z"/>
		</g>
		<g>
			<path d="M118.852,77.404l-0.732,2.269h-0.941l2.396-7.213h1.099l2.407,7.213h-0.973l-0.753-2.269H118.852z M121.165,76.676
				l-0.701-2.077c-0.146-0.471-0.251-0.899-0.356-1.316h-0.031c-0.094,0.417-0.209,0.867-0.345,1.306l-0.691,2.087H121.165z"/>
		</g>
		<path fill="none" stroke="#000000" stroke-width="3" d="M146.5,1v161.431"/>
		<path fill="#FFFFFF" d="M92.606,85.316h-19v-17h19V85.316z"/>
		<path fill="#FFFFFF" d="M112.538,85.04h-19v-17h19V85.04z"/>
		<g>
			<path fill="#FF0000" d="M11.71,133.123c1.517-1.084,3.291-2.001,5.323-2.751s4.137-1.124,6.314-1.124
				c1.919,0,3.758,0.28,5.516,0.84c2.04,0.655,4.072,1.667,6.097,3.035v1.406c-1.678-0.877-2.875-1.457-3.593-1.739
				c-1.113-0.442-2.274-0.79-3.484-1.043c-1.508-0.312-3.024-0.467-4.548-0.467c-3.879,0-7.754,1.083-11.625,3.25V133.123z"/>
		</g>
		<g>
			<path fill="#FF0000" d="M53.403,128.943c0.459-3.817,1.32-8.145,2.582-12.983c1.262-4.839,2.939-9.693,5.029-14.56
				c1.842-4.29,3.865-8.291,6.068-12c2.56-4.302,5.44-8.447,8.641-12.432l1.264,0.542c-2.417,3.404-4.099,5.852-5.047,7.345
				c-1.475,2.314-2.909,4.773-4.303,7.376c-1.735,3.248-3.333,6.576-4.796,9.983c-3.724,8.672-6.448,17.761-8.173,27.271
				L53.403,128.943z"/>
		</g>
		<path fill="#FFFFFF" d="M131.538,85.04h-19v-17h19V85.04z"/>
		<g>
			<path fill="#FF0000" d="M100.71,71.123c1.517-1.084,3.291-2.001,5.323-2.751s4.137-1.124,6.314-1.124
				c1.919,0,3.758,0.28,5.516,0.84c2.04,0.655,4.072,1.667,6.097,3.035v1.406c-1.678-0.877-2.875-1.457-3.593-1.739
				c-1.113-0.442-2.274-0.79-3.484-1.043c-1.508-0.312-3.024-0.467-4.548-0.467c-3.879,0-7.754,1.083-11.625,3.25V71.123z"/>
		</g>
		<g>
			<path d="M78.814,74.969h4.259v0.876h-3.226v2.688h2.98v0.864h-2.98v3.66h-1.033V74.969z"/>
			<path d="M105.493,82.697c-0.458,0.18-1.373,0.444-2.44,0.444c-1.197,0-2.182-0.312-2.957-1.068
				c-0.681-0.672-1.103-1.752-1.103-3.012c0-2.412,1.631-4.176,4.282-4.176c0.916,0,1.643,0.204,1.983,0.372L105,76.109
				c-0.422-0.204-0.951-0.348-1.749-0.348c-1.924,0-3.179,1.224-3.179,3.252c0,2.052,1.197,3.264,3.05,3.264
				c0.669,0,1.126-0.096,1.361-0.216v-2.412h-1.595v-0.84h2.604V82.697z"/>
			<path d="M120.755,80.513l-0.821,2.544h-1.056l2.687-8.088h1.232l2.699,8.088h-1.091l-0.845-2.544H120.755z M123.349,79.697
				l-0.786-2.328c-0.165-0.528-0.282-1.008-0.399-1.476h-0.035c-0.106,0.468-0.235,0.972-0.387,1.464l-0.774,2.34H123.349z"/>
		</g>
		<g>
			<path d="M86.339,72.929V69.84h0.367v2.899l1.238-0.606v-2.767h0.367v2.596l0.493-0.247v1.971l-0.493,0.247v2.804l0.493-0.227
				v1.952l-0.493,0.246v3.089h-0.367v-2.918l-1.238,0.606v2.804h-0.367v-2.615l-0.543,0.265v-1.971l0.543-0.265V74.88l-0.543,0.265
				v-1.952L86.339,72.929z M86.706,74.71v2.823l1.238-0.606v-2.823L86.706,74.71z"/>
		</g>
		<g>
			<path d="M108.339,72.929V69.84h0.367v2.899l1.238-0.606v-2.767h0.367v2.596l0.493-0.247v1.971l-0.493,0.247v2.804l0.493-0.227
				v1.952l-0.493,0.246v3.089h-0.367v-2.918l-1.238,0.606v2.804h-0.367v-2.615l-0.543,0.265v-1.971l0.543-0.265V74.88l-0.543,0.265
				v-1.952L108.339,72.929z M108.706,74.71v2.823l1.238-0.606v-2.823L108.706,74.71z"/>
		</g>
		<g>
			<path d="M127.19,72.036v-3.089h0.367v2.899l1.238-0.606v-2.767h0.367v2.596l0.493-0.247v1.971l-0.493,0.247v2.804l0.493-0.227
				v1.952l-0.493,0.246v3.089h-0.367v-2.918l-1.238,0.606v2.804h-0.367v-2.615l-0.543,0.265v-1.971l0.543-0.265v-2.824l-0.543,0.265
				v-1.952L127.19,72.036z M127.557,73.817v2.823l1.238-0.606V73.21L127.557,73.817z"/>
		</g>
	</g>
</svg>
