<?xml version="1.0" encoding="utf-8"?>
<!-- Generator: Adobe Illustrator 10.0, SVG Export Plug-In . SVG Version: 3.0.0 Build 76)  -->
<!DOCTYPE svg PUBLIC "-//W3C//DTD SVG 1.0//EN"    "http://www.w3.org/TR/2001/REC-SVG-20010904/DTD/svg10.dtd" [
	<!ENTITY ns_flows "http://ns.adobe.com/Flows/1.0/">
	<!ENTITY ns_extend "http://ns.adobe.com/Extensibility/1.0/">
	<!ENTITY ns_ai "http://ns.adobe.com/AdobeIllustrator/10.0/">
	<!ENTITY ns_svg "http://www.w3.org/2000/svg">
	<!ENTITY ns_xlink "http://www.w3.org/1999/xlink">
]>
<svg  xmlns:x="&ns_extend;" xmlns:i="&ns_ai;" xmlns:graph="&ns_graphs;"
	 xmlns="&ns_svg;" xmlns:xlink="&ns_xlink;" xmlns:a="http://ns.adobe.com/AdobeSVGViewerExtensions/3.0/" width="294" height="47"
	 viewBox="-0.262 -0.083 294 47" overflow="visible" enable-background="new -0.262 -0.083 294 47" xml:space="preserve">
	<g id="Layer_1_2_">
		<g>
			<path fill="none" stroke="#000000" d="M0.079,3.242H293.44"/>
			<path fill="none" stroke="#000000" d="M0.079,18.354H293.44"/>
			<path fill="none" stroke="#000000" d="M0.224,25.476h293.362"/>
			<path fill="none" stroke="#000000" d="M0,32.86h293.361"/>
			<path fill="none" stroke="#000000" d="M0,10.496h293.361"/>
		</g>
		<g>
			<path d="M12.16,33.768c-4.944-2.352-5.736-5.376-5.952-8.472c-0.24-3.36,1.896-6.768,3.888-8.664
				c1.152-1.08,2.4-2.136,3.888-3.264c-0.048-0.84-0.24-1.176-0.336-2.376c-0.024-0.504-0.336-2.856,0.168-5.568
				c0.312-1.608,2.328-5.4,3.72-5.424c1.08-0.024,2.736,4.296,2.784,6.456c0.072,3.336-0.72,4.848-1.704,6.576
				c-0.504,0.864-1.032,1.464-1.584,2.136c-0.576,0.696-1.224,1.104-1.824,1.632c0,0,0.768,4.344,0.792,4.656
				c1.536-0.192,3.408,0.36,4.08,0.84c1.704,1.272,2.352,3.024,2.472,4.728c0.216,2.712-1.272,5.568-4.56,6.936
				c0,0,0.504,3.456,0.624,4.176c0.264,1.896,0.216,3.096-0.192,3.864c-0.696,1.296-1.824,2.496-4.008,2.64
				c-1.68,0.096-4.992-0.744-5.16-3.384c-0.096-1.56,0.6-3.24,2.496-3.36c1.152-0.096,2.52,0.864,2.616,2.232
				c0.096,1.176-0.672,2.4-2.664,2.952c0.312,0.432,1.248,0.936,2.592,0.936c1.392,0,2.832-0.936,3.528-2.184
				c0.432-0.816,0.384-2.28,0.216-3.624c-0.072-0.456-0.648-4.08-0.648-4.08C15.616,34.416,13.167,34.248,12.16,33.768z
				 M12.64,28.08c0.048,1.152,1.008,2.496,1.896,2.952c-0.12,0.072-0.24,0.264-0.24,0.264c-0.984-0.48-1.824-1.272-2.04-1.56
				c-0.696-0.936-0.984-1.464-1.08-2.88c-0.096-1.32,0.624-3.096,2.232-4.344c0.84-0.624,1.248-0.768,1.968-0.936l-0.72-4.344
				c-0.744,0.432-3.816,2.904-5.112,4.92c-1.152,1.8-1.848,3.24-1.704,5.016c0.288,4.008,4.68,7.296,9.432,6.168
				c0,0-1.416-8.52-1.392-8.52C13.264,24.912,12.567,26.928,12.64,28.08z M14.583,12.864c2.088-1.632,4.92-4.704,4.752-7.08
				c-0.048-0.744-0.36-2.088-1.44-2.064C15.423,3.744,14.032,8.904,14.583,12.864z M17.848,33.144
				c2.76-0.936,2.88-3.312,2.784-4.728c-0.096-1.176-0.624-3.816-4.128-3.648L17.848,33.144z"/>
		</g>
		<g>
			<path d="M73.096,32.575c0.984,0,1.776,0.36,2.232,0.912V14.263h0.456v20.4c0,0.336-0.048,0.672-0.168,1.056
				c-0.648,1.704-2.784,3.072-4.8,3.048c-2.016-0.024-3.144-1.44-2.52-3.144S71.08,32.551,73.096,32.575z"/>
		</g>
		<g>
			<g>
				<path d="M39.801,36.752c0.984,0,1.776,0.36,2.232,0.912V18.44h0.456v20.4c0,0.336-0.048,0.672-0.168,1.056
					c-0.648,1.704-2.784,3.072-4.8,3.048c-2.016-0.024-3.144-1.44-2.52-3.144S37.785,36.728,39.801,36.752z"/>
			</g>
			<path fill="none" stroke="#000000" stroke-miterlimit="1" d="M32.698,39.909h11.644"/>
		</g>
		<g>
			<path d="M140.705,24.985v-3.912h0.696v3.672l2.352-0.768v-3.504h0.696v3.288l0.936-0.312v2.496l-0.936,0.312v3.552l0.936-0.288
				v2.472l-0.936,0.312v3.912h-0.696v-3.696l-2.352,0.768v3.552h-0.696v-3.312l-1.032,0.336V31.37l1.032-0.336v-3.576l-1.032,0.336
				v-2.472L140.705,24.985z M141.401,27.242v3.576l2.352-0.768v-3.576L141.401,27.242z"/>
		</g>
		<g>
			<path d="M177.565,22.333V18.42h0.696v3.672l2.352-0.768v-3.504h0.696v3.288l0.936-0.312v2.496l-0.936,0.312v3.552l0.936-0.288
				v2.472l-0.936,0.312v3.912h-0.696v-3.696l-2.352,0.768v3.552h-0.696v-3.312l-1.032,0.336v-2.496l1.032-0.336v-3.576l-1.032,0.336
				v-2.472L177.565,22.333z M178.261,24.589v3.576l2.352-0.768v-3.576L178.261,24.589z"/>
		</g>
		<g>
			<path d="M219.564,17.666v-3.912h0.696v3.672l2.352-0.768v-3.504h0.696v3.288l0.936-0.312v2.496l-0.936,0.312v3.552l0.936-0.288
				v2.472l-0.936,0.312v3.912h-0.696v-3.696l-2.352,0.768v3.552h-0.696v-3.312l-1.032,0.336V24.05l1.032-0.336v-3.576l-1.032,0.336
				v-2.472L219.564,17.666z M220.26,19.922v3.576l2.352-0.768v-3.576L220.26,19.922z"/>
		</g>
		<g>
			<path d="M108.763,29.908c0.984,0,1.776,0.36,2.232,0.912V11.596h0.456v20.4c0,0.336-0.048,0.672-0.168,1.056
				c-0.648,1.704-2.784,3.072-4.8,3.048c-2.016-0.024-3.144-1.44-2.52-3.144S106.747,29.884,108.763,29.908z"/>
		</g>
		<g>
			<path d="M154.095,25.91c0.984,0,1.776,0.36,2.232,0.912V7.598h0.456v20.4c0,0.336-0.048,0.672-0.168,1.056
				c-0.648,1.704-2.784,3.072-4.8,3.048c-2.016-0.024-3.144-1.44-2.52-3.144S152.079,25.886,154.095,25.91z"/>
		</g>
		<g>
			<path d="M192.096,22.575c0.984,0,1.776,0.36,2.232,0.912V4.263h0.456v20.4c0,0.336-0.048,0.672-0.168,1.056
				c-0.648,1.704-2.784,3.072-4.8,3.048c-2.016-0.024-3.144-1.44-2.52-3.144S190.08,22.551,192.096,22.575z"/>
		</g>
		<g>
			<path d="M231.43,18.575c0.984,0,1.776,0.36,2.232,0.912V0.263h0.456v20.4c0,0.336-0.048,0.672-0.168,1.056
				c-0.648,1.704-2.784,3.072-4.8,3.048c-2.016-0.024-3.144-1.44-2.52-3.144S229.414,18.551,231.43,18.575z"/>
		</g>
		<g>
			<path d="M267.169,11.575c2.04,0.024,3.144,1.416,2.52,3.12c-0.624,1.728-2.784,3.096-4.8,3.072
				c-0.984-0.024-1.776-0.384-2.232-0.936v19.08h-0.456c0-24.216,0-20.4,0-20.4c0-0.288,0.072-0.576,0.192-0.888
				C263.017,12.895,265.153,11.551,267.169,11.575z"/>
		</g>
	</g>
</svg>
