<?xml version="1.0" encoding="utf-8"?>
<!-- Generator: Adobe Illustrator 10.0, SVG Export Plug-In . SVG Version: 3.0.0 Build 76)  -->
<!DOCTYPE svg PUBLIC "-//W3C//DTD SVG 1.0//EN"    "http://www.w3.org/TR/2001/REC-SVG-20010904/DTD/svg10.dtd" [
	<!ENTITY ns_flows "http://ns.adobe.com/Flows/1.0/">
	<!ENTITY ns_extend "http://ns.adobe.com/Extensibility/1.0/">
	<!ENTITY ns_ai "http://ns.adobe.com/AdobeIllustrator/10.0/">
	<!ENTITY ns_svg "http://www.w3.org/2000/svg">
	<!ENTITY ns_xlink "http://www.w3.org/1999/xlink">
]>
<svg  xmlns:x="&ns_extend;" xmlns:i="&ns_ai;" xmlns:graph="&ns_graphs;"
	 xmlns="&ns_svg;" xmlns:xlink="&ns_xlink;" xmlns:a="http://ns.adobe.com/AdobeSVGViewerExtensions/3.0/" width="296" height="124"
	 viewBox="0.117 -0.083 296 124" overflow="visible" enable-background="new 0.117 -0.083 296 124" xml:space="preserve">
	<g id="Layer_1_2_">
		<g>
			<g>
				<path d="M110.939,37.27c0.984,0,1.776,0.36,2.232,0.912V18.958h0.456v20.4c0,0.336-0.048,0.672-0.168,1.056
					c-0.648,1.704-2.784,3.072-4.8,3.048c-2.016-0.024-3.144-1.44-2.52-3.144S108.923,37.246,110.939,37.27z"/>
			</g>
			<path fill="none" stroke="#000000" stroke-miterlimit="1" d="M103.836,40.426h11.643"/>
		</g>
		<g>
			<path d="M154.567,33.758c0.984,0,1.776,0.36,2.232,0.912V15.446h0.456v20.4c0,0.336-0.048,0.672-0.168,1.056
				c-0.648,1.704-2.784,3.072-4.8,3.048c-2.016-0.024-3.144-1.44-2.52-3.144S152.551,33.734,154.567,33.758z"/>
		</g>
		<g>
			<path d="M193.899,29.76c0.984,0,1.776,0.36,2.232,0.912V11.448h0.456v20.4c0,0.336-0.048,0.672-0.168,1.056
				c-0.648,1.704-2.784,3.072-4.8,3.048c-2.016-0.024-3.144-1.44-2.52-3.144S191.883,29.736,193.899,29.76z"/>
		</g>
		<g>
			<path d="M232.234,23.093c0.984,0,1.776,0.36,2.232,0.912V4.781h0.456v20.4c0,0.336-0.048,0.672-0.168,1.056
				c-0.648,1.704-2.784,3.072-4.8,3.048c-2.016-0.024-3.144-1.44-2.52-3.144S230.218,23.069,232.234,23.093z"/>
		</g>
		<g>
			<path d="M269.271,18.936c0.984,0,1.776,0.36,2.232,0.912V0.624h0.456v20.4c0,0.336-0.048,0.672-0.168,1.056
				c-0.648,1.704-2.784,3.072-4.8,3.048c-2.016-0.024-3.144-1.44-2.52-3.144S267.255,18.912,269.271,18.936z"/>
		</g>
		<path fill="none" stroke="#000000" stroke-miterlimit="1" d="M36.232,39.1h11.644"/>
		<g>
			<path d="M43.272,42.27c0.984,0,1.776,0.36,2.232,0.912V23.958h0.456v20.4c0,0.336-0.048,0.672-0.168,1.056
				c-0.648,1.704-2.784,3.072-4.8,3.048c-2.016-0.024-3.144-1.44-2.52-3.144S41.256,42.246,43.272,42.27z"/>
		</g>
		<path fill="none" stroke="#000000" stroke-miterlimit="1" d="M36.169,45.426h11.644"/>
		<g>
			<path d="M29.5,42.852c0,0.216,0,1.536,0,1.536c0.912-0.816,1.416-0.984,2.424-1.008c1.2-0.024,1.968,1.176,1.992,2.136
				c0.024,0.504-0.12,1.032-0.312,1.44c-0.216,0.528-0.792,0.936-1.176,1.32c-0.432,0.432-3.552,2.568-3.552,2.616V36.708H29.5
				C29.5,36.708,29.523,39.684,29.5,42.852z M29.764,45.228c-0.312,0.6-0.264,1.632-0.264,2.376v2.064
				c0,0.024,0.864-0.72,1.344-1.176c0.432-0.408,0.768-0.864,0.936-1.584c0.192-0.72,0.12-1.488-0.336-1.992
				C31.131,44.556,30.268,44.268,29.764,45.228z"/>
		</g>
		<g>
			<path d="M75.272,39.602c0.984,0,1.776,0.36,2.232,0.912V21.29h0.456v20.4c0,0.336-0.048,0.672-0.168,1.056
				c-0.648,1.704-2.784,3.072-4.8,3.048c-2.016-0.024-3.144-1.44-2.52-3.144S73.256,39.578,75.272,39.602z"/>
		</g>
		<path fill="none" stroke="#000000" stroke-miterlimit="1" d="M68.169,39.76h11.644"/>
		<g>
			<path d="M61.5,38.519c0,0.216,0,1.536,0,1.536c0.912-0.816,1.416-0.984,2.424-1.008c1.2-0.024,1.968,1.176,1.992,2.136
				c0.024,0.504-0.12,1.032-0.312,1.44c-0.216,0.528-0.792,0.936-1.176,1.32c-0.432,0.432-3.552,2.568-3.552,2.616V32.375H61.5
				C61.5,32.375,61.523,35.351,61.5,38.519z M61.764,40.895c-0.312,0.6-0.264,1.632-0.264,2.376v2.064
				c0,0.024,0.864-0.72,1.344-1.176c0.432-0.408,0.768-0.864,0.936-1.584c0.192-0.72,0.12-1.488-0.336-1.992
				C63.131,40.223,62.268,39.935,61.764,40.895z"/>
		</g>
		<g>
			<path d="M255.833,18.52c0,0.216,0,1.536,0,1.536c0.912-0.816,1.416-0.984,2.424-1.008c1.2-0.024,1.968,1.176,1.992,2.136
				c0.024,0.504-0.12,1.032-0.312,1.44c-0.216,0.528-0.792,0.936-1.176,1.32c-0.432,0.432-3.552,2.568-3.552,2.616V12.375h0.624
				C255.833,12.375,255.857,15.352,255.833,18.52z M256.098,20.896c-0.312,0.6-0.264,1.632-0.264,2.376v2.064
				c0,0.024,0.864-0.72,1.344-1.176c0.432-0.408,0.768-0.864,0.936-1.584c0.192-0.72,0.12-1.488-0.336-1.992
				C257.465,20.224,256.602,19.936,256.098,20.896z"/>
		</g>
		<g>
			<path d="M220.833,22.519c0,0.216,0,1.536,0,1.536c0.912-0.816,1.416-0.984,2.424-1.008c1.2-0.024,1.968,1.176,1.992,2.136
				c0.024,0.504-0.12,1.032-0.312,1.44c-0.216,0.528-0.792,0.936-1.176,1.32c-0.432,0.432-3.552,2.568-3.552,2.616V16.375h0.624
				C220.833,16.375,220.856,19.351,220.833,22.519z M221.097,24.895c-0.312,0.6-0.264,1.632-0.264,2.376v2.064
				c0,0.024,0.864-0.72,1.344-1.176c0.432-0.408,0.768-0.864,0.936-1.584c0.192-0.72,0.12-1.488-0.336-1.992
				C222.464,24.223,221.601,23.935,221.097,24.895z"/>
		</g>
		<g>
			<path fill="none" stroke="#000000" d="M3.079,80.242h293.36"/>
			<path fill="none" stroke="#000000" d="M3.079,95.354h293.36"/>
			<path fill="none" stroke="#000000" d="M3.224,102.476h293.362"/>
			<path fill="none" stroke="#000000" d="M3,109.86h293.361"/>
			<path fill="none" stroke="#000000" d="M3,87.496h293.361"/>
		</g>
		<g>
			<path d="M15.16,110.768c-4.944-2.352-5.736-5.376-5.952-8.472c-0.24-3.36,1.896-6.768,3.888-8.664
				c1.152-1.08,2.4-2.136,3.888-3.264c-0.048-0.84-0.24-1.176-0.336-2.376c-0.024-0.504-0.336-2.856,0.168-5.568
				c0.312-1.608,2.328-5.4,3.72-5.424c1.08-0.024,2.736,4.296,2.784,6.456c0.072,3.336-0.72,4.848-1.704,6.576
				c-0.504,0.864-1.032,1.464-1.584,2.136c-0.576,0.696-1.224,1.104-1.824,1.632c0,0,0.768,4.344,0.792,4.656
				c1.536-0.192,3.408,0.36,4.08,0.84c1.704,1.272,2.352,3.024,2.472,4.728c0.216,2.712-1.272,5.568-4.56,6.936
				c0,0,0.504,3.456,0.624,4.176c0.264,1.896,0.216,3.096-0.192,3.864c-0.696,1.296-1.824,2.496-4.008,2.64
				c-1.68,0.096-4.992-0.744-5.16-3.384c-0.096-1.56,0.6-3.24,2.496-3.36c1.152-0.096,2.52,0.864,2.616,2.232
				c0.096,1.176-0.672,2.4-2.664,2.952c0.312,0.432,1.248,0.936,2.592,0.936c1.392,0,2.832-0.936,3.528-2.184
				c0.432-0.816,0.384-2.28,0.216-3.624c-0.072-0.456-0.648-4.08-0.648-4.08C18.616,111.416,16.167,111.248,15.16,110.768z
				 M15.64,105.08c0.048,1.152,1.008,2.496,1.896,2.952c-0.12,0.072-0.24,0.264-0.24,0.264c-0.984-0.48-1.824-1.272-2.04-1.56
				c-0.696-0.936-0.984-1.464-1.08-2.88c-0.096-1.32,0.624-3.096,2.232-4.344c0.84-0.624,1.248-0.768,1.968-0.936l-0.72-4.344
				c-0.744,0.432-3.816,2.904-5.112,4.92c-1.152,1.8-1.848,3.24-1.704,5.016c0.288,4.008,4.68,7.296,9.432,6.168
				c0,0-1.416-8.52-1.392-8.52C16.264,101.912,15.567,103.928,15.64,105.08z M17.583,89.864c2.088-1.632,4.92-4.704,4.752-7.08
				c-0.048-0.744-0.36-2.088-1.44-2.064C18.424,80.744,17.032,85.904,17.583,89.864z M20.848,110.144
				c2.76-0.936,2.88-3.312,2.784-4.728c-0.096-1.176-0.624-3.816-4.128-3.648L20.848,110.144z"/>
		</g>
		<g>
			<path d="M76.096,109.575c0.984,0,1.776,0.36,2.232,0.912V91.263h0.456v20.4c0,0.336-0.048,0.672-0.168,1.056
				c-0.648,1.704-2.784,3.072-4.8,3.048c-2.016-0.024-3.144-1.44-2.52-3.144S74.08,109.551,76.096,109.575z"/>
		</g>
		<g>
			<g>
				<path d="M42.801,113.752c0.984,0,1.776,0.36,2.232,0.912V95.44h0.456v20.4c0,0.336-0.048,0.672-0.168,1.056
					c-0.648,1.704-2.784,3.072-4.8,3.048c-2.016-0.024-3.144-1.44-2.52-3.144S40.785,113.729,42.801,113.752z"/>
			</g>
			<path fill="none" stroke="#000000" stroke-miterlimit="1" d="M35.698,116.909h11.644"/>
		</g>
		<g>
			<path d="M143.706,101.985v-3.912h0.696v3.672l2.352-0.768v-3.504h0.696v3.288l0.936-0.312v2.496l-0.936,0.312v3.552l0.936-0.288
				v2.472l-0.936,0.312v3.912h-0.696v-3.696l-2.352,0.768v3.552h-0.696v-3.312l-1.032,0.336v-2.496l1.032-0.336v-3.576l-1.032,0.336
				v-2.472L143.706,101.985z M144.401,104.242v3.576l2.352-0.768v-3.576L144.401,104.242z"/>
		</g>
		<g>
			<path d="M180.565,99.333V95.42h0.696v3.672l2.352-0.768v-3.504h0.696v3.288l0.936-0.312v2.496l-0.936,0.312v3.552l0.936-0.288
				v2.472l-0.936,0.312v3.912h-0.696v-3.696l-2.352,0.768v3.552h-0.696v-3.312l-1.032,0.336v-2.496l1.032-0.336v-3.576l-1.032,0.336
				v-2.472L180.565,99.333z M181.261,101.589v3.576l2.352-0.768v-3.576L181.261,101.589z"/>
		</g>
		<g>
			<path d="M222.565,94.666v-3.912h0.696v3.672l2.352-0.768v-3.504h0.696v3.288l0.936-0.312v2.496l-0.936,0.312v3.552l0.936-0.288
				v2.472l-0.936,0.312v3.912h-0.696v-3.696l-2.352,0.768v3.552h-0.696v-3.312l-1.032,0.336v-2.496l1.032-0.336v-3.576l-1.032,0.336
				v-2.472L222.565,94.666z M223.261,96.922v3.576l2.352-0.768v-3.576L223.261,96.922z"/>
		</g>
		<g>
			<path d="M111.763,106.909c0.984,0,1.776,0.36,2.232,0.912V88.597h0.456v20.4c0,0.336-0.048,0.672-0.168,1.056
				c-0.648,1.704-2.784,3.072-4.8,3.048c-2.016-0.024-3.144-1.44-2.52-3.144S109.747,106.885,111.763,106.909z"/>
		</g>
		<g>
			<path d="M157.095,102.91c0.984,0,1.776,0.36,2.232,0.912V84.598h0.456v20.4c0,0.336-0.048,0.672-0.168,1.056
				c-0.648,1.704-2.784,3.072-4.8,3.048c-2.016-0.024-3.144-1.44-2.52-3.144S155.079,102.886,157.095,102.91z"/>
		</g>
		<g>
			<path d="M195.096,99.575c0.984,0,1.776,0.36,2.232,0.912V81.263h0.456v20.4c0,0.336-0.048,0.672-0.168,1.056
				c-0.648,1.704-2.784,3.072-4.8,3.048c-2.016-0.024-3.144-1.44-2.52-3.144S193.08,99.551,195.096,99.575z"/>
		</g>
		<g>
			<path d="M234.43,95.575c0.984,0,1.776,0.36,2.232,0.912V77.263h0.456v20.4c0,0.336-0.048,0.672-0.168,1.056
				c-0.648,1.704-2.784,3.072-4.8,3.048c-2.016-0.024-3.144-1.44-2.52-3.144S232.414,95.551,234.43,95.575z"/>
		</g>
		<g>
			<path d="M270.169,88.575c2.04,0.024,3.144,1.416,2.52,3.12c-0.624,1.728-2.784,3.096-4.8,3.072
				c-0.984-0.024-1.776-0.384-2.232-0.936v19.08h-0.456c0-24.216,0-20.4,0-20.4c0-0.288,0.072-0.576,0.192-0.888
				C266.017,89.895,268.153,88.551,270.169,88.575z"/>
		</g>
		<g>
			<path fill="none" stroke="#000000" d="M0.079,3.242h293.36"/>
			<path fill="none" stroke="#000000" d="M0.079,18.354h293.36"/>
			<path fill="none" stroke="#000000" d="M0.224,25.476h293.362"/>
			<path fill="none" stroke="#000000" d="M0,32.86h293.361"/>
			<path fill="none" stroke="#000000" d="M0,10.496h293.361"/>
		</g>
		<g>
			<path d="M12.16,33.768c-4.944-2.352-5.736-5.376-5.952-8.472c-0.24-3.36,1.896-6.768,3.888-8.664
				c1.152-1.08,2.4-2.136,3.888-3.264c-0.048-0.84-0.24-1.176-0.336-2.376c-0.024-0.504-0.336-2.856,0.168-5.568
				c0.312-1.608,2.328-5.4,3.72-5.424c1.08-0.024,2.736,4.296,2.784,6.456c0.072,3.336-0.72,4.848-1.704,6.576
				c-0.504,0.864-1.032,1.464-1.584,2.136c-0.576,0.696-1.224,1.104-1.824,1.632c0,0,0.768,4.344,0.792,4.656
				c1.536-0.192,3.408,0.36,4.08,0.84c1.704,1.272,2.352,3.024,2.472,4.728c0.216,2.712-1.272,5.568-4.56,6.936
				c0,0,0.504,3.456,0.624,4.176c0.264,1.896,0.216,3.096-0.192,3.864c-0.696,1.296-1.824,2.496-4.008,2.64
				c-1.68,0.096-4.992-0.744-5.16-3.384c-0.096-1.56,0.6-3.24,2.496-3.36c1.152-0.096,2.52,0.864,2.616,2.232
				c0.096,1.176-0.672,2.4-2.664,2.952c0.312,0.432,1.248,0.936,2.592,0.936c1.392,0,2.832-0.936,3.528-2.184
				c0.432-0.816,0.384-2.28,0.216-3.624c-0.072-0.456-0.648-4.08-0.648-4.08C15.616,34.416,13.167,34.248,12.16,33.768z
				 M12.64,28.08c0.048,1.152,1.008,2.496,1.896,2.952c-0.12,0.072-0.24,0.264-0.24,0.264c-0.984-0.48-1.824-1.272-2.04-1.56
				c-0.696-0.936-0.984-1.464-1.08-2.88c-0.096-1.32,0.624-3.096,2.232-4.344c0.84-0.624,1.248-0.768,1.968-0.936l-0.72-4.344
				c-0.744,0.432-3.816,2.904-5.112,4.92c-1.152,1.8-1.848,3.24-1.704,5.016c0.288,4.008,4.68,7.296,9.432,6.168
				c0,0-1.416-8.52-1.392-8.52C13.264,24.912,12.567,26.928,12.64,28.08z M14.583,12.864c2.088-1.632,4.92-4.704,4.752-7.08
				c-0.048-0.744-0.36-2.088-1.44-2.064C15.424,3.744,14.032,8.904,14.583,12.864z M17.848,33.144
				c2.76-0.936,2.88-3.312,2.784-4.728c-0.096-1.176-0.624-3.816-4.128-3.648L17.848,33.144z"/>
		</g>
		<path fill="#FF0000" stroke="#FF0000" d="M219.451,35.566l-56.668,43.7"/>
		<path fill="none" stroke="#FF0000" d="M261.117,34.917l-59,42"/>
		<path fill="none" stroke="#FF0000" d="M233.117,74.917l-154-29"/>
	</g>
</svg>
